<?xml version="1.0" encoding="utf-8" standalone="no"?>
<!DOCTYPE svg PUBLIC "-//W3C//DTD SVG 1.1//EN"
  "http://www.w3.org/Graphics/SVG/1.1/DTD/svg11.dtd">
<svg height="69.974192pt" version="1.1" viewBox="0 0 92.949181 69.974192" width="92.949181pt" xmlns="http://www.w3.org/2000/svg" xmlns:xlink="http://www.w3.org/1999/xlink">
 <metadata>
  <rdf:RDF xmlns:cc="http://creativecommons.org/ns#" xmlns:dc="http://purl.org/dc/elements/1.1/" xmlns:rdf="http://www.w3.org/1999/02/22-rdf-syntax-ns#">
   <cc:Work>
    <dc:type rdf:resource="http://purl.org/dc/dcmitype/StillImage"/>
    <dc:date>2022-04-14T21:26:48.707552</dc:date>
    <dc:format>image/svg+xml</dc:format>
    <dc:creator>
     <cc:Agent>
      <dc:title>Matplotlib v3.4.3, https://matplotlib.org/</dc:title>
     </cc:Agent>
    </dc:creator>
   </cc:Work>
  </rdf:RDF>
 </metadata>
 <defs>
  <style type="text/css">*{stroke-linecap:butt;stroke-linejoin:round;}</style>
 </defs>
 <g id="figure_1">
  <g id="patch_1">
   <path d="M 0 69.974192 
L 92.949181 69.974192 
L 92.949181 0 
L 0 0 
z
" style="fill:#ffffff;"/>
  </g>
  <g id="axes_1">
   <g id="line2d_1">
    <path clip-path="url(#peb21782a93)" d="M 34.653861 47.133528 
" style="fill:none;stroke:#008000;stroke-linecap:square;stroke-width:1.5;"/>
   </g>
   <g id="line2d_2">
    <path clip-path="url(#peb21782a93)" d="M 34.653861 47.133528 
" style="fill:none;stroke:#4169e1;stroke-linecap:square;stroke-width:1.5;"/>
   </g>
   <g id="line2d_3">
    <path clip-path="url(#peb21782a93)" d="M 34.653861 47.133528 
" style="fill:none;stroke:#000000;stroke-linecap:square;stroke-width:1.5;"/>
   </g>
   <g id="line2d_4">
    <path clip-path="url(#peb21782a93)" d="M 34.653861 47.133528 
" style="fill:none;stroke:#ff0000;stroke-linecap:square;stroke-width:1.5;"/>
   </g>
   <g id="line2d_5">
    <path clip-path="url(#peb21782a93)" d="M 34.653861 47.133528 
" style="fill:none;stroke:#ffd700;stroke-linecap:square;stroke-width:1.5;"/>
   </g>
   <g id="line2d_6">
    <path clip-path="url(#peb21782a93)" d="M 34.653861 47.133528 
" style="fill:none;stroke:#000000;stroke-dasharray:1.5,2.475;stroke-dashoffset:0;stroke-width:1.5;"/>
   </g>
   <g id="line2d_7">
    <path clip-path="url(#peb21782a93)" d="M 38.250372 55.096011 
L 37.032101 50.884295 
L 35.81383 46.672578 
" style="fill:none;stroke:#808080;stroke-linecap:square;stroke-width:1.5;"/>
   </g>
   <g id="line2d_8">
    <path clip-path="url(#peb21782a93)" d="M 86.330262 51.826325 
L 84.948236 50.157466 
L 81.873914 46.449046 
L 78.070555 41.860378 
L 75.54377 38.812837 
L 73.258307 36.054083 
L 72.526229 35.171059 
L 71.453461 33.877069 
L 69.321106 31.304361 
L 67.188751 28.731653 
L 63.477662 24.254057 
L 62.099693 22.592141 
L 59.993701 20.051366 
L 57.887709 17.510591 
L 56.541172 15.886161 
" style="fill:none;stroke:#808080;stroke-linecap:square;stroke-width:1.5;"/>
   </g>
   <g id="line2d_9">
    <path clip-path="url(#peb21782a93)" d="M 19.972754 57.832551 
L 16.14937 54.782579 
L 12.325985 51.732608 
L 8.502601 48.682637 
L 4.679216 45.632666 
" style="fill:none;stroke:#808080;stroke-linecap:square;stroke-width:1.5;"/>
   </g>
   <g id="line2d_10">
    <path clip-path="url(#peb21782a93)" d="M 30.427681 55.624992 
L 28.887478 51.265411 
L 26.935608 45.739572 
L 25.040519 40.374789 
L 23.741638 36.698301 
L 22.429576 32.982938 
L 21.109402 29.245361 
" style="fill:none;stroke:#808080;stroke-linecap:square;stroke-width:1.5;"/>
   </g>
   <g id="line2d_11">
    <path clip-path="url(#peb21782a93)" d="M 42.615464 48.959276 
L 43.338416 47.126586 
L 45.420073 41.846494 
L 47.433795 36.737176 
L 48.63635 33.686858 
L 49.838905 30.63654 
L 51.406485 26.660157 
L 53.347202 21.738274 
L 54.275988 19.383544 
" style="fill:none;stroke:#808080;stroke-linecap:square;stroke-width:1.5;"/>
   </g>
   <g id="line2d_12">
    <path clip-path="url(#peb21782a93)" d="M 34.653861 47.133528 
L 34.919011 48.216481 
L 35.184161 49.299434 
L 35.449311 50.382387 
L 35.714462 51.465341 
L 35.979612 52.548294 
L 36.244762 53.631247 
L 36.509912 54.714201 
L 36.775062 55.797154 
" style="fill:none;stroke:#008000;stroke-linecap:square;stroke-width:1.5;"/>
   </g>
   <g id="line2d_13">
    <path clip-path="url(#peb21782a93)" d="M 32.777023 49.002316 
L 33.014036 50.76038 
L 33.251049 52.518443 
L 33.488062 54.276507 
L 33.725075 56.034571 
" style="fill:none;stroke:#008000;stroke-linecap:square;stroke-width:1.5;"/>
   </g>
   <g id="line2d_14">
    <path clip-path="url(#peb21782a93)" d="M 28.456546 42.669816 
L 29.014223 43.759018 
L 29.5719 44.848219 
L 30.059614 46.111664 
L 30.56051 47.737482 
L 30.819576 48.644803 
L 31.078643 49.552123 
L 31.393984 51.132819 
L 31.709325 52.713514 
L 31.848237 54.278242 
L 31.8964 55.448665 
L 31.944563 56.619088 
" style="fill:none;stroke:#008000;stroke-linecap:square;stroke-width:1.5;"/>
   </g>
   <g id="line2d_15">
    <path clip-path="url(#peb21782a93)" d="M 28.456546 42.669816 
L 29.567844 43.709729 
L 30.927563 44.410872 
L 32.259905 44.877375 
L 33.279947 45.046066 
L 34.299989 45.214757 
L 35.578591 45.499379 
L 36.475945 45.96727 
L 37.143129 46.622596 
L 37.727169 47.704161 
L 38.107404 48.820436 
" style="fill:none;stroke:#008000;stroke-linecap:square;stroke-width:1.5;"/>
   </g>
   <g id="line2d_16">
    <path clip-path="url(#peb21782a93)" d="M 20.918777 26.253356 
L 22.116263 27.05724 
L 22.822992 27.887504 
L 23.448604 29.313393 
L 23.709192 30.285274 
L 23.969779 31.257155 
L 24.198427 32.425495 
L 24.427074 33.593835 
L 24.685634 34.5796 
L 24.944193 35.565365 
L 25.366 36.628881 
L 25.787807 37.692397 
L 26.318107 38.755912 
L 26.848407 39.819428 
L 27.652477 41.244622 
L 28.456546 42.669816 
" style="fill:none;stroke:#4169e1;stroke-linecap:square;stroke-width:1.5;"/>
   </g>
   <g id="line2d_17">
    <path clip-path="url(#peb21782a93)" d="M 23.775099 27.368242 
L 24.753569 26.92673 
L 25.737109 26.3797 
L 27.065395 25.292582 
L 27.936385 24.515077 
L 28.860101 23.813934 
L 29.703715 23.425181 
L 30.465198 23.269681 
L 31.118187 23.243301 
L 31.607929 23.321051 
L 32.078406 23.419628 
L 32.699456 24.460235 
L 33.320505 25.500842 
L 34.021911 26.453285 
L 34.723317 27.405729 
L 35.424723 28.358172 
L 36.126129 29.310616 
L 37.182674 30.274167 
L 38.030343 31.386276 
L 38.601202 32.410917 
L 39.17206 33.435557 
L 39.591839 34.448396 
L 40.011618 35.461235 
L 40.171824 36.242905 
L 40.270178 37.510516 
L 40.255982 38.13252 
L 40.096791 39.375139 
L 39.809333 40.75174 
L 39.521876 42.12834 
L 39.115786 43.501469 
L 38.709695 44.874598 
L 38.325405 46.485144 
L 38.134781 47.808291 
L 38.107404 48.820436 
L 38.166214 49.907554 
L 38.410578 51.359822 
L 38.845566 52.993971 
L 39.144684 53.953356 
L 39.443801 54.912742 
" style="fill:none;stroke:#4169e1;stroke-linecap:square;stroke-width:1.5;"/>
   </g>
   <g id="line2d_18">
    <path clip-path="url(#peb21782a93)" d="M 19.885554 27.990246 
L 18.840669 28.157548 
L 17.795785 28.324851 
L 16.082195 28.662232 
L 14.913101 28.948243 
L 13.742992 29.414746 
L 12.845639 30.038138 
L 11.816471 31.128034 
L 11.324701 31.970794 
L 10.832931 32.813553 
L 10.779191 33.357807 
L 11.019499 33.800707 
L 11.590358 34.138088 
L 12.298101 34.268598 
L 13.276571 34.346349 
L 13.848444 34.47547 
L 14.58255 34.839231 
L 15.126032 35.332114 
L 15.534657 35.954118 
L 16.078139 37.641026 
L 16.418322 38.730227 
L 16.758505 39.819428 
L 17.22087 40.882944 
L 17.683235 41.946459 
L 18.16081 42.839896 
L 18.638385 43.733332 
L 19.586436 44.955126 
L 20.678469 46.171365 
L 21.735014 47.159907 
L 22.687121 48.378924 
L 23.670661 49.907554 
L 24.159896 50.86694 
L 24.649131 51.826325 
L 25.206808 52.636805 
L 25.764486 53.447284 
L 26.322163 54.257764 
L 26.87984 55.068243 
L 27.962748 56.316416 
L 28.615737 57.05574 
L 29.268727 57.795064 
" style="fill:none;stroke:#008000;stroke-linecap:square;stroke-width:1.5;"/>
   </g>
   <g id="line2d_19">
    <path clip-path="url(#peb21782a93)" d="M 19.342072 27.368242 
L 18.256122 27.548734 
L 17.170172 27.729227 
L 15.42515 28.172127 
L 14.124241 28.584482 
L 12.818262 29.181495 
L 11.948286 29.881249 
L 11.159426 30.633763 
L 10.23064 32.037437 
L 9.781963 32.906576 
L 9.333286 33.775716 
L 8.571803 35.150233 
L 7.977624 35.951341 
L 7.406765 36.626104 
L 6.613849 37.328635 
L 5.612058 38.027001 
L 5.067562 38.442133 
L 4.573765 38.989164 
L 4.278703 39.5834 
L 4.224963 40.258163 
L 4.384154 40.960694 
L 4.683272 41.635457 
L 5.254131 42.386583 
L 6.070367 43.191855 
L 7.402709 44.177621 
L 8.531245 44.968315 
L 9.659781 45.75901 
L 10.788317 46.550399 
L 11.916853 47.341788 
L 12.757678 47.979411 
L 13.598503 48.617035 
L 14.439328 49.254658 
L 15.280154 49.892282 
L 16.182577 50.639936 
L 17.085 51.38759 
L 17.846483 52.192169 
L 18.607966 52.996748 
L 19.749683 54.371265 
L 20.483789 55.512532 
L 21.109402 56.93842 
" style="fill:none;stroke:#008000;stroke-linecap:square;stroke-width:1.5;"/>
   </g>
   <g id="line2d_20">
    <path clip-path="url(#peb21782a93)" d="M 54.044805 18.238113 
L 52.331215 18.133983 
L 50.509132 18.185354 
L 49.421154 18.185354 
L 48.333177 18.185354 
L 46.730615 18.15828 
L 45.128053 18.131206 
L 44.135388 18.195767 
L 43.142722 18.260327 
L 41.235466 18.549115 
L 40.271699 18.807358 
L 39.307931 19.0656 
L 37.727169 19.690381 
L 36.20319 20.209643 
L 34.821164 20.957992 
L 34.191496 21.557781 
L 33.78287 22.257536 
L 33.678433 22.982281 
L 33.729131 23.788943 
L 34.004927 24.5123 
L 34.817108 25.734093 
L 35.85236 26.964911 
L 36.887612 28.195729 
L 37.842761 29.336996 
L 38.79791 30.478262 
L 39.448871 31.389053 
L 40.099833 32.299845 
L 40.886664 33.595223 
L 41.407839 34.743432 
L 41.72825 35.89997 
L 41.864121 36.937106 
L 41.887442 38.392151 
L 41.670455 40.13043 
L 41.330271 41.634763 
L 40.990088 43.139096 
L 40.609347 44.643429 
L 40.228605 46.147763 
L 39.96092 47.598642 
L 39.848371 48.612175 
L 39.852427 49.672914 
L 39.956864 50.454584 
L 40.322904 51.54448 
L 41.044842 52.737117 
" style="fill:none;stroke:#008000;stroke-linecap:square;stroke-width:1.5;"/>
   </g>
   <g id="line2d_21">
    <path clip-path="url(#peb21782a93)" d="M 53.826804 18.911488 
L 52.984205 19.586251 
L 52.471142 20.180487 
L 51.9814 21.062122 
L 51.487602 22.102035 
L 51.107367 22.985058 
L 50.617625 23.762563 
L 50.074144 24.255446 
L 49.529648 24.670578 
L 48.850295 25.18984 
L 48.25206 25.785464 
L 47.71162 26.58796 
L 47.221878 27.547346 
L 46.619587 28.74276 
L 46.270785 29.856258 
L 45.967611 31.389053 
L 45.694856 33.230074 
L 45.287245 35.046103 
L 45.003843 35.952729 
L 44.720442 36.859356 
L 44.248951 38.015894 
L 43.777461 39.172433 
L 43.21522 40.441432 
L 42.65298 41.710431 
L 42.160197 43.061346 
L 41.752078 44.021425 
L 41.34396 44.981505 
L 40.869934 46.57539 
L 40.395909 48.169275 
L 40.255982 49.391069 
L 40.260038 50.478187 
L 40.450662 51.307063 
L 41.072219 52.477486 
" style="fill:none;stroke:#008000;stroke-linecap:square;stroke-width:1.5;"/>
   </g>
   <g id="line2d_22">
    <path clip-path="url(#peb21782a93)" d="M 53.962675 18.496356 
L 52.113214 18.522735 
L 50.268824 18.728219 
L 48.604917 19.041998 
L 47.299953 19.482121 
L 46.126803 20.187429 
L 45.218296 21.042684 
L 44.438562 21.957641 
L 43.672009 23.121122 
L 43.087969 24.40817 
L 42.599241 25.939577 
L 42.190615 27.702847 
L 41.963489 28.939219 
L 41.736362 30.17559 
L 41.607589 31.309914 
L 41.594408 32.934344 
L 41.671468 33.682693 
L 41.988838 34.947527 
L 42.353863 36.366473 
L 42.758432 37.977019 
L 42.921679 39.196036 
L 42.875037 40.574718 
L 42.65298 41.710431 
" style="fill:none;stroke:#4169e1;stroke-linecap:square;stroke-width:1.5;"/>
   </g>
   <g id="line2d_23">
    <path clip-path="url(#peb21782a93)" d="M 56.719628 19.185003 
L 57.167798 20.422069 
L 57.70114 21.952087 
L 58.083403 23.243301 
L 58.314585 24.388732 
L 58.415981 25.560543 
L 58.368325 26.97949 
L 58.180236 27.950677 
L 57.992146 28.921864 
L 57.691001 29.895827 
L 57.389855 30.869791 
L 56.941178 32.179748 
L 56.492502 33.489705 
L 56.152318 34.514345 
L 55.812135 35.538986 
L 55.465361 36.485876 
L 55.118588 37.432766 
L 54.771814 38.379655 
L 54.42504 39.326545 
L 53.663557 41.038445 
L 52.825013 42.203314 
L 52.129438 42.866275 
L 51.433862 43.529237 
L 50.159316 44.900978 
L 49.069311 46.185944 
L 47.979305 47.470909 
L 47.217822 48.287984 
L 46.456339 49.105058 
L 45.151374 50.350454 
L 43.902177 51.477836 
L 42.65298 52.605219 
" style="fill:none;stroke:#4169e1;stroke-linecap:square;stroke-width:1.5;"/>
   </g>
   <g id="line2d_24">
    <path clip-path="url(#peb21782a93)" d="M 53.826804 18.911488 
L 53.228569 20.261014 
L 52.878753 21.295373 
L 52.630333 22.492176 
L 52.494463 23.40019 
L 52.467086 24.644198 
L 52.443765 25.731317 
L 52.358592 26.746238 
L 52.167968 27.834745 
L 51.896227 28.92464 
L 51.514979 30.117277 
L 51.014083 31.387665 
L 50.513188 32.658052 
L 50.064511 33.721568 
L 49.615834 34.785084 
L 49.167158 35.848599 
L 48.718481 36.912115 
L 48.330895 37.923565 
L 47.943309 38.935016 
L 47.555724 39.946467 
L 47.168138 40.957917 
L 46.594745 42.735766 
L 46.021351 44.513614 
L 45.683703 45.679871 
L 45.346054 46.846129 
L 44.965313 48.03946 
L 44.584572 49.232791 
L 43.98228 50.324075 
L 43.329291 51.129348 
L 42.027368 52.319208 
" style="fill:none;stroke:#4169e1;stroke-linecap:square;stroke-width:1.5;"/>
   </g>
   <g id="line2d_25">
    <path clip-path="url(#peb21782a93)" d="M 57.634219 19.144739 
L 58.341455 19.988193 
L 59.048691 20.831647 
L 59.796486 21.713282 
L 60.54428 22.594917 
L 61.278893 23.438371 
L 62.013506 24.281825 
L 63.155224 25.345341 
L 64.0252 26.200596 
L 64.81406 27.212741 
L 65.793544 28.587259 
L 66.472896 29.910405 
L 66.935261 31.259932 
L 67.265812 32.683044 
L 67.456436 34.369952 
L 67.534511 36.006877 
L 67.51119 37.611869 
L 67.560874 38.651782 
L 67.724121 39.663927 
L 68.077993 40.831573 
L 68.567735 41.972839 
L 69.465088 43.502857 
L 70.470935 44.981505 
L 71.082859 45.824265 
L 71.694783 46.667025 
L 72.567801 47.604196 
L 73.516867 48.327553 
L 74.659598 48.949557 
L 76.07407 49.468819 
L 77.760284 50.013073 
L 78.820884 50.285894 
L 79.881485 50.558715 
L 81.213827 50.972458 
L 82.356558 51.38759 
L 83.525652 52.010288 
L 84.694747 52.632987 
" style="fill:none;stroke:#008000;stroke-linecap:square;stroke-width:1.5;"/>
   </g>
   <g id="line2d_26">
    <path clip-path="url(#peb21782a93)" d="M 57.136365 19.362718 
L 57.545751 20.359244 
L 57.955137 21.355769 
L 58.364523 22.352294 
L 58.773908 23.348819 
L 59.196729 24.308205 
L 59.61955 25.26759 
L 60.303972 26.690702 
L 61.010701 28.013849 
L 61.604881 29.339772 
L 62.039869 30.61016 
L 62.397797 32.24292 
L 62.643175 34.03257 
L 62.724291 35.018335 
L 62.805408 36.0041 
L 62.860162 37.482054 
L 62.914915 38.960007 
L 63.186656 40.751045 
L 63.617589 41.92008 
L 64.297955 42.828094 
L 65.167931 43.658358 
L 66.174285 44.384492 
L 67.180639 45.110627 
L 68.812099 46.147763 
L 70.11757 46.78365 
L 71.423042 47.419538 
L 72.469954 47.873546 
L 73.516867 48.327553 
" style="fill:none;stroke:#008000;stroke-linecap:square;stroke-width:1.5;"/>
   </g>
   <g id="line2d_27">
    <path clip-path="url(#peb21782a93)" d="M 58.069207 19.275249 
L 58.842351 19.917385 
L 59.615494 20.559521 
L 60.816021 21.350909 
L 61.986129 22.024284 
L 63.291094 22.621297 
L 64.229513 23.023239 
L 65.167931 23.425181 
L 66.609781 24.126324 
L 67.806252 25.007959 
L 68.703605 25.993725 
L 69.329218 27.108611 
L 69.862053 28.216556 
L 70.394888 29.3245 
L 70.995152 30.553235 
L 71.595415 31.781971 
L 72.204297 32.982938 
L 72.813179 34.183906 
L 73.287712 35.159952 
L 73.762245 36.135998 
L 74.309782 37.66324 
L 74.688496 38.741334 
L 75.067209 39.819428 
L 75.696878 41.373049 
L 76.536436 42.828094 
L 77.433789 44.020731 
L 78.113648 44.79893 
L 78.793507 45.577129 
L 79.962602 46.589274 
L 81.077956 47.497289 
L 82.24705 48.560805 
L 83.335028 49.806201 
L 84.329721 51.140455 
L 85.324415 52.474709 
" style="fill:none;stroke:#4169e1;stroke-linecap:square;stroke-width:1.5;"/>
   </g>
   <g id="line2d_28">
    <path clip-path="url(#peb21782a93)" d="M 61.142516 12.141641 
L 61.146572 13.410641 
L 61.282442 14.447777 
L 61.608937 15.693173 
L 62.261926 17.06769 
L 63.078163 18.338078 
L 64.079954 19.45713 
L 65.338277 20.499819 
L 67.044769 21.32453 
L 68.010058 21.726472 
L 68.975346 22.128414 
L 69.84583 22.621297 
L 70.716313 23.11418 
L 72.347772 24.022194 
L 73.136632 24.618513 
L 73.925492 25.214831 
" style="fill:none;stroke:#008000;stroke-linecap:square;stroke-width:1.5;"/>
   </g>
   <g id="line2d_29">
    <path clip-path="url(#peb21782a93)" d="M 59.810174 18.653245 
L 60.647704 19.373131 
L 61.485234 20.093018 
L 62.366364 20.623387 
L 63.672343 21.169029 
L 64.896191 21.545286 
L 66.120039 21.921543 
L 67.439199 22.37555 
L 68.758359 22.829557 
L 70.470935 23.607062 
L 72.211902 24.333196 
L 73.925492 25.214831 
L 74.903962 25.940965 
L 76.155187 27.108611 
L 77.219844 28.29986 
L 77.804898 29.130124 
L 78.389952 29.960388 
L 78.999848 30.921162 
L 79.609744 31.881936 
L 80.208994 32.750381 
L 80.808243 33.618826 
L 81.407493 34.487271 
L 82.006742 35.355717 
L 82.752509 36.316491 
L 83.498275 37.277265 
L 84.261786 38.430332 
L 85.025297 39.5834 
L 85.716817 40.635114 
L 86.408337 41.686828 
L 87.080084 42.971794 
L 87.751832 44.25676 
L 88.4251 45.911734 
L 88.665408 47.315408 
L 88.724218 48.895409 
L 88.615725 50.658679 
" style="fill:none;stroke:#4169e1;stroke-linecap:square;stroke-width:1.5;"/>
   </g>
   <g id="line2d_30">
    <path clip-path="url(#peb21782a93)" d="M 46.375222 49.831192 
L 47.599071 49.559065 
L 48.822919 49.286939 
L 49.937766 49.131438 
L 51.052614 48.975937 
L 52.507644 48.871807 
L 53.962675 48.767676 
L 55.526706 48.703116 
L 57.090737 48.638555 
L 58.38252 48.67743 
L 59.674304 48.716306 
L 60.91184 48.807246 
L 62.149377 48.898186 
L 63.359536 49.066877 
L 64.569696 49.235568 
L 66.283286 49.495199 
L 67.670381 49.597941 
L 69.274464 49.597941 
L 70.294506 49.585445 
L 71.314549 49.572949 
L 72.973385 49.54657 
L 74.659598 49.702071 
L 76.263681 50.065832 
L 77.270035 50.435147 
L 78.276389 50.804462 
L 79.282742 51.173776 
L 80.289096 51.543091 
L 81.621438 52.062353 
L 83.117534 52.516361 
L 84.61363 52.970368 
" style="fill:none;stroke:#008000;stroke-linecap:square;stroke-width:1.5;"/>
   </g>
   <g id="text_1">
    <g id="patch_2">
     <path d="M 69.696264 34.97861 
L 80.085439 44.129589 
L 81.391276 42.647063 
L 71.002101 33.496084 
z
" style="fill:#ffffff;"/>
    </g>
    <!-- Quad Chairlift -->
    <g style="fill:#808080;" transform="translate(69.999416 34.664699)rotate(-318.6258)scale(0.02 -0.02)">
     <defs>
      <path d="M 2522 4238 
Q 1834 4238 1429 3725 
Q 1025 3213 1025 2328 
Q 1025 1447 1429 934 
Q 1834 422 2522 422 
Q 3209 422 3611 934 
Q 4013 1447 4013 2328 
Q 4013 3213 3611 3725 
Q 3209 4238 2522 4238 
z
M 3406 84 
L 4238 -825 
L 3475 -825 
L 2784 -78 
Q 2681 -84 2626 -87 
Q 2572 -91 2522 -91 
Q 1538 -91 948 567 
Q 359 1225 359 2328 
Q 359 3434 948 4092 
Q 1538 4750 2522 4750 
Q 3503 4750 4090 4092 
Q 4678 3434 4678 2328 
Q 4678 1516 4351 937 
Q 4025 359 3406 84 
z
" id="DejaVuSans-51" transform="scale(0.015625)"/>
      <path d="M 544 1381 
L 544 3500 
L 1119 3500 
L 1119 1403 
Q 1119 906 1312 657 
Q 1506 409 1894 409 
Q 2359 409 2629 706 
Q 2900 1003 2900 1516 
L 2900 3500 
L 3475 3500 
L 3475 0 
L 2900 0 
L 2900 538 
Q 2691 219 2414 64 
Q 2138 -91 1772 -91 
Q 1169 -91 856 284 
Q 544 659 544 1381 
z
M 1991 3584 
L 1991 3584 
z
" id="DejaVuSans-75" transform="scale(0.015625)"/>
      <path d="M 2194 1759 
Q 1497 1759 1228 1600 
Q 959 1441 959 1056 
Q 959 750 1161 570 
Q 1363 391 1709 391 
Q 2188 391 2477 730 
Q 2766 1069 2766 1631 
L 2766 1759 
L 2194 1759 
z
M 3341 1997 
L 3341 0 
L 2766 0 
L 2766 531 
Q 2569 213 2275 61 
Q 1981 -91 1556 -91 
Q 1019 -91 701 211 
Q 384 513 384 1019 
Q 384 1609 779 1909 
Q 1175 2209 1959 2209 
L 2766 2209 
L 2766 2266 
Q 2766 2663 2505 2880 
Q 2244 3097 1772 3097 
Q 1472 3097 1187 3025 
Q 903 2953 641 2809 
L 641 3341 
Q 956 3463 1253 3523 
Q 1550 3584 1831 3584 
Q 2591 3584 2966 3190 
Q 3341 2797 3341 1997 
z
" id="DejaVuSans-61" transform="scale(0.015625)"/>
      <path d="M 2906 2969 
L 2906 4863 
L 3481 4863 
L 3481 0 
L 2906 0 
L 2906 525 
Q 2725 213 2448 61 
Q 2172 -91 1784 -91 
Q 1150 -91 751 415 
Q 353 922 353 1747 
Q 353 2572 751 3078 
Q 1150 3584 1784 3584 
Q 2172 3584 2448 3432 
Q 2725 3281 2906 2969 
z
M 947 1747 
Q 947 1113 1208 752 
Q 1469 391 1925 391 
Q 2381 391 2643 752 
Q 2906 1113 2906 1747 
Q 2906 2381 2643 2742 
Q 2381 3103 1925 3103 
Q 1469 3103 1208 2742 
Q 947 2381 947 1747 
z
" id="DejaVuSans-64" transform="scale(0.015625)"/>
      <path id="DejaVuSans-20" transform="scale(0.015625)"/>
      <path d="M 4122 4306 
L 4122 3641 
Q 3803 3938 3442 4084 
Q 3081 4231 2675 4231 
Q 1875 4231 1450 3742 
Q 1025 3253 1025 2328 
Q 1025 1406 1450 917 
Q 1875 428 2675 428 
Q 3081 428 3442 575 
Q 3803 722 4122 1019 
L 4122 359 
Q 3791 134 3420 21 
Q 3050 -91 2638 -91 
Q 1578 -91 968 557 
Q 359 1206 359 2328 
Q 359 3453 968 4101 
Q 1578 4750 2638 4750 
Q 3056 4750 3426 4639 
Q 3797 4528 4122 4306 
z
" id="DejaVuSans-43" transform="scale(0.015625)"/>
      <path d="M 3513 2113 
L 3513 0 
L 2938 0 
L 2938 2094 
Q 2938 2591 2744 2837 
Q 2550 3084 2163 3084 
Q 1697 3084 1428 2787 
Q 1159 2491 1159 1978 
L 1159 0 
L 581 0 
L 581 4863 
L 1159 4863 
L 1159 2956 
Q 1366 3272 1645 3428 
Q 1925 3584 2291 3584 
Q 2894 3584 3203 3211 
Q 3513 2838 3513 2113 
z
" id="DejaVuSans-68" transform="scale(0.015625)"/>
      <path d="M 603 3500 
L 1178 3500 
L 1178 0 
L 603 0 
L 603 3500 
z
M 603 4863 
L 1178 4863 
L 1178 4134 
L 603 4134 
L 603 4863 
z
" id="DejaVuSans-69" transform="scale(0.015625)"/>
      <path d="M 2631 2963 
Q 2534 3019 2420 3045 
Q 2306 3072 2169 3072 
Q 1681 3072 1420 2755 
Q 1159 2438 1159 1844 
L 1159 0 
L 581 0 
L 581 3500 
L 1159 3500 
L 1159 2956 
Q 1341 3275 1631 3429 
Q 1922 3584 2338 3584 
Q 2397 3584 2469 3576 
Q 2541 3569 2628 3553 
L 2631 2963 
z
" id="DejaVuSans-72" transform="scale(0.015625)"/>
      <path d="M 603 4863 
L 1178 4863 
L 1178 0 
L 603 0 
L 603 4863 
z
" id="DejaVuSans-6c" transform="scale(0.015625)"/>
      <path d="M 2375 4863 
L 2375 4384 
L 1825 4384 
Q 1516 4384 1395 4259 
Q 1275 4134 1275 3809 
L 1275 3500 
L 2222 3500 
L 2222 3053 
L 1275 3053 
L 1275 0 
L 697 0 
L 697 3053 
L 147 3053 
L 147 3500 
L 697 3500 
L 697 3744 
Q 697 4328 969 4595 
Q 1241 4863 1831 4863 
L 2375 4863 
z
" id="DejaVuSans-66" transform="scale(0.015625)"/>
      <path d="M 1172 4494 
L 1172 3500 
L 2356 3500 
L 2356 3053 
L 1172 3053 
L 1172 1153 
Q 1172 725 1289 603 
Q 1406 481 1766 481 
L 2356 481 
L 2356 0 
L 1766 0 
Q 1100 0 847 248 
Q 594 497 594 1153 
L 594 3053 
L 172 3053 
L 172 3500 
L 594 3500 
L 594 4494 
L 1172 4494 
z
" id="DejaVuSans-74" transform="scale(0.015625)"/>
     </defs>
     <use xlink:href="#DejaVuSans-51"/>
     <use x="78.710938" xlink:href="#DejaVuSans-75"/>
     <use x="142.089844" xlink:href="#DejaVuSans-61"/>
     <use x="203.369141" xlink:href="#DejaVuSans-64"/>
     <use x="266.845703" xlink:href="#DejaVuSans-20"/>
     <use x="298.632812" xlink:href="#DejaVuSans-43"/>
     <use x="368.457031" xlink:href="#DejaVuSans-68"/>
     <use x="431.835938" xlink:href="#DejaVuSans-61"/>
     <use x="493.115234" xlink:href="#DejaVuSans-69"/>
     <use x="520.898438" xlink:href="#DejaVuSans-72"/>
     <use x="562.011719" xlink:href="#DejaVuSans-6c"/>
     <use x="589.794922" xlink:href="#DejaVuSans-69"/>
     <use x="617.578125" xlink:href="#DejaVuSans-66"/>
     <use x="651.033203" xlink:href="#DejaVuSans-74"/>
    </g>
   </g>
   <g id="text_2">
    <g id="patch_3">
     <path d="M 21.132018 34.562866 
L 27.170521 47.046964 
L 28.949021 46.186711 
L 22.910517 33.702614 
z
" style="fill:#ffffff;"/>
    </g>
    <!-- Triple Chairlift -->
    <g style="fill:#808080;" transform="translate(21.533166 34.391049)rotate(-295.812852)scale(0.02 -0.02)">
     <defs>
      <path d="M -19 4666 
L 3928 4666 
L 3928 4134 
L 2272 4134 
L 2272 0 
L 1638 0 
L 1638 4134 
L -19 4134 
L -19 4666 
z
" id="DejaVuSans-54" transform="scale(0.015625)"/>
      <path d="M 1159 525 
L 1159 -1331 
L 581 -1331 
L 581 3500 
L 1159 3500 
L 1159 2969 
Q 1341 3281 1617 3432 
Q 1894 3584 2278 3584 
Q 2916 3584 3314 3078 
Q 3713 2572 3713 1747 
Q 3713 922 3314 415 
Q 2916 -91 2278 -91 
Q 1894 -91 1617 61 
Q 1341 213 1159 525 
z
M 3116 1747 
Q 3116 2381 2855 2742 
Q 2594 3103 2138 3103 
Q 1681 3103 1420 2742 
Q 1159 2381 1159 1747 
Q 1159 1113 1420 752 
Q 1681 391 2138 391 
Q 2594 391 2855 752 
Q 3116 1113 3116 1747 
z
" id="DejaVuSans-70" transform="scale(0.015625)"/>
      <path d="M 3597 1894 
L 3597 1613 
L 953 1613 
Q 991 1019 1311 708 
Q 1631 397 2203 397 
Q 2534 397 2845 478 
Q 3156 559 3463 722 
L 3463 178 
Q 3153 47 2828 -22 
Q 2503 -91 2169 -91 
Q 1331 -91 842 396 
Q 353 884 353 1716 
Q 353 2575 817 3079 
Q 1281 3584 2069 3584 
Q 2775 3584 3186 3129 
Q 3597 2675 3597 1894 
z
M 3022 2063 
Q 3016 2534 2758 2815 
Q 2500 3097 2075 3097 
Q 1594 3097 1305 2825 
Q 1016 2553 972 2059 
L 3022 2063 
z
" id="DejaVuSans-65" transform="scale(0.015625)"/>
     </defs>
     <use xlink:href="#DejaVuSans-54"/>
     <use x="46.333984" xlink:href="#DejaVuSans-72"/>
     <use x="87.447266" xlink:href="#DejaVuSans-69"/>
     <use x="115.230469" xlink:href="#DejaVuSans-70"/>
     <use x="178.707031" xlink:href="#DejaVuSans-6c"/>
     <use x="206.490234" xlink:href="#DejaVuSans-65"/>
     <use x="268.013672" xlink:href="#DejaVuSans-20"/>
     <use x="299.800781" xlink:href="#DejaVuSans-43"/>
     <use x="369.625" xlink:href="#DejaVuSans-68"/>
     <use x="433.003906" xlink:href="#DejaVuSans-61"/>
     <use x="494.283203" xlink:href="#DejaVuSans-69"/>
     <use x="522.066406" xlink:href="#DejaVuSans-72"/>
     <use x="563.179688" xlink:href="#DejaVuSans-6c"/>
     <use x="590.962891" xlink:href="#DejaVuSans-69"/>
     <use x="618.746094" xlink:href="#DejaVuSans-66"/>
     <use x="652.201172" xlink:href="#DejaVuSans-74"/>
    </g>
   </g>
   <g id="text_3">
    <g id="patch_4">
     <path d="M 46.211774 40.257722 
L 52.799416 28.054477 
L 51.060927 27.115994 
L 44.473285 39.319239 
z
" style="fill:#ffffff;"/>
    </g>
    <!-- Triple Chairlift -->
    <g style="fill:#808080;" transform="translate(45.837663 40.033039)rotate(-61.638627)scale(0.02 -0.02)">
     <use xlink:href="#DejaVuSans-54"/>
     <use x="46.333984" xlink:href="#DejaVuSans-72"/>
     <use x="87.447266" xlink:href="#DejaVuSans-69"/>
     <use x="115.230469" xlink:href="#DejaVuSans-70"/>
     <use x="178.707031" xlink:href="#DejaVuSans-6c"/>
     <use x="206.490234" xlink:href="#DejaVuSans-65"/>
     <use x="268.013672" xlink:href="#DejaVuSans-20"/>
     <use x="299.800781" xlink:href="#DejaVuSans-43"/>
     <use x="369.625" xlink:href="#DejaVuSans-68"/>
     <use x="433.003906" xlink:href="#DejaVuSans-61"/>
     <use x="494.283203" xlink:href="#DejaVuSans-69"/>
     <use x="522.066406" xlink:href="#DejaVuSans-72"/>
     <use x="563.179688" xlink:href="#DejaVuSans-6c"/>
     <use x="590.962891" xlink:href="#DejaVuSans-69"/>
     <use x="618.746094" xlink:href="#DejaVuSans-66"/>
     <use x="652.201172" xlink:href="#DejaVuSans-74"/>
    </g>
   </g>
   <g id="text_4">
    <g id="patch_5">
     <path d="M 30.529817 27.030038 
L 42.740379 35.1626 
L 43.83553 33.518296 
L 31.624968 25.385733 
z
" style="fill:#ffffff;"/>
    </g>
    <!-- The Wall 20.5° -->
    <g style="fill:#4169e1;" transform="translate(30.788117 26.678295)rotate(-326.335318)scale(0.02 -0.02)">
     <defs>
      <path d="M 213 4666 
L 850 4666 
L 1831 722 
L 2809 4666 
L 3519 4666 
L 4500 722 
L 5478 4666 
L 6119 4666 
L 4947 0 
L 4153 0 
L 3169 4050 
L 2175 0 
L 1381 0 
L 213 4666 
z
" id="DejaVuSans-57" transform="scale(0.015625)"/>
      <path d="M 1228 531 
L 3431 531 
L 3431 0 
L 469 0 
L 469 531 
Q 828 903 1448 1529 
Q 2069 2156 2228 2338 
Q 2531 2678 2651 2914 
Q 2772 3150 2772 3378 
Q 2772 3750 2511 3984 
Q 2250 4219 1831 4219 
Q 1534 4219 1204 4116 
Q 875 4013 500 3803 
L 500 4441 
Q 881 4594 1212 4672 
Q 1544 4750 1819 4750 
Q 2544 4750 2975 4387 
Q 3406 4025 3406 3419 
Q 3406 3131 3298 2873 
Q 3191 2616 2906 2266 
Q 2828 2175 2409 1742 
Q 1991 1309 1228 531 
z
" id="DejaVuSans-32" transform="scale(0.015625)"/>
      <path d="M 2034 4250 
Q 1547 4250 1301 3770 
Q 1056 3291 1056 2328 
Q 1056 1369 1301 889 
Q 1547 409 2034 409 
Q 2525 409 2770 889 
Q 3016 1369 3016 2328 
Q 3016 3291 2770 3770 
Q 2525 4250 2034 4250 
z
M 2034 4750 
Q 2819 4750 3233 4129 
Q 3647 3509 3647 2328 
Q 3647 1150 3233 529 
Q 2819 -91 2034 -91 
Q 1250 -91 836 529 
Q 422 1150 422 2328 
Q 422 3509 836 4129 
Q 1250 4750 2034 4750 
z
" id="DejaVuSans-30" transform="scale(0.015625)"/>
      <path d="M 684 794 
L 1344 794 
L 1344 0 
L 684 0 
L 684 794 
z
" id="DejaVuSans-2e" transform="scale(0.015625)"/>
      <path d="M 691 4666 
L 3169 4666 
L 3169 4134 
L 1269 4134 
L 1269 2991 
Q 1406 3038 1543 3061 
Q 1681 3084 1819 3084 
Q 2600 3084 3056 2656 
Q 3513 2228 3513 1497 
Q 3513 744 3044 326 
Q 2575 -91 1722 -91 
Q 1428 -91 1123 -41 
Q 819 9 494 109 
L 494 744 
Q 775 591 1075 516 
Q 1375 441 1709 441 
Q 2250 441 2565 725 
Q 2881 1009 2881 1497 
Q 2881 1984 2565 2268 
Q 2250 2553 1709 2553 
Q 1456 2553 1204 2497 
Q 953 2441 691 2322 
L 691 4666 
z
" id="DejaVuSans-35" transform="scale(0.015625)"/>
      <path d="M 1600 4347 
Q 1350 4347 1178 4173 
Q 1006 4000 1006 3750 
Q 1006 3503 1178 3333 
Q 1350 3163 1600 3163 
Q 1850 3163 2022 3333 
Q 2194 3503 2194 3750 
Q 2194 3997 2020 4172 
Q 1847 4347 1600 4347 
z
M 1600 4750 
Q 1800 4750 1984 4673 
Q 2169 4597 2303 4453 
Q 2447 4313 2519 4134 
Q 2591 3956 2591 3750 
Q 2591 3338 2302 3052 
Q 2013 2766 1594 2766 
Q 1172 2766 890 3047 
Q 609 3328 609 3750 
Q 609 4169 896 4459 
Q 1184 4750 1600 4750 
z
" id="DejaVuSans-b0" transform="scale(0.015625)"/>
     </defs>
     <use xlink:href="#DejaVuSans-54"/>
     <use x="61.083984" xlink:href="#DejaVuSans-68"/>
     <use x="124.462891" xlink:href="#DejaVuSans-65"/>
     <use x="185.986328" xlink:href="#DejaVuSans-20"/>
     <use x="217.773438" xlink:href="#DejaVuSans-57"/>
     <use x="310.275391" xlink:href="#DejaVuSans-61"/>
     <use x="371.554688" xlink:href="#DejaVuSans-6c"/>
     <use x="399.337891" xlink:href="#DejaVuSans-6c"/>
     <use x="427.121094" xlink:href="#DejaVuSans-20"/>
     <use x="458.908203" xlink:href="#DejaVuSans-32"/>
     <use x="522.53125" xlink:href="#DejaVuSans-30"/>
     <use x="586.154297" xlink:href="#DejaVuSans-2e"/>
     <use x="617.941406" xlink:href="#DejaVuSans-35"/>
     <use x="681.564453" xlink:href="#DejaVuSans-b0"/>
    </g>
   </g>
   <g id="text_5">
    <g id="patch_6">
     <path d="M 13.258207 41.409253 
L 26.852114 52.466135 
L 28.098732 50.933478 
L 14.504825 39.876596 
z
" style="fill:#ffffff;"/>
    </g>
    <!-- Serendipity 14.9° -->
    <g style="fill:#008000;" transform="translate(13.548799 41.08368)rotate(-320.876112)scale(0.02 -0.02)">
     <defs>
      <path d="M 3425 4513 
L 3425 3897 
Q 3066 4069 2747 4153 
Q 2428 4238 2131 4238 
Q 1616 4238 1336 4038 
Q 1056 3838 1056 3469 
Q 1056 3159 1242 3001 
Q 1428 2844 1947 2747 
L 2328 2669 
Q 3034 2534 3370 2195 
Q 3706 1856 3706 1288 
Q 3706 609 3251 259 
Q 2797 -91 1919 -91 
Q 1588 -91 1214 -16 
Q 841 59 441 206 
L 441 856 
Q 825 641 1194 531 
Q 1563 422 1919 422 
Q 2459 422 2753 634 
Q 3047 847 3047 1241 
Q 3047 1584 2836 1778 
Q 2625 1972 2144 2069 
L 1759 2144 
Q 1053 2284 737 2584 
Q 422 2884 422 3419 
Q 422 4038 858 4394 
Q 1294 4750 2059 4750 
Q 2388 4750 2728 4690 
Q 3069 4631 3425 4513 
z
" id="DejaVuSans-53" transform="scale(0.015625)"/>
      <path d="M 3513 2113 
L 3513 0 
L 2938 0 
L 2938 2094 
Q 2938 2591 2744 2837 
Q 2550 3084 2163 3084 
Q 1697 3084 1428 2787 
Q 1159 2491 1159 1978 
L 1159 0 
L 581 0 
L 581 3500 
L 1159 3500 
L 1159 2956 
Q 1366 3272 1645 3428 
Q 1925 3584 2291 3584 
Q 2894 3584 3203 3211 
Q 3513 2838 3513 2113 
z
" id="DejaVuSans-6e" transform="scale(0.015625)"/>
      <path d="M 2059 -325 
Q 1816 -950 1584 -1140 
Q 1353 -1331 966 -1331 
L 506 -1331 
L 506 -850 
L 844 -850 
Q 1081 -850 1212 -737 
Q 1344 -625 1503 -206 
L 1606 56 
L 191 3500 
L 800 3500 
L 1894 763 
L 2988 3500 
L 3597 3500 
L 2059 -325 
z
" id="DejaVuSans-79" transform="scale(0.015625)"/>
      <path d="M 794 531 
L 1825 531 
L 1825 4091 
L 703 3866 
L 703 4441 
L 1819 4666 
L 2450 4666 
L 2450 531 
L 3481 531 
L 3481 0 
L 794 0 
L 794 531 
z
" id="DejaVuSans-31" transform="scale(0.015625)"/>
      <path d="M 2419 4116 
L 825 1625 
L 2419 1625 
L 2419 4116 
z
M 2253 4666 
L 3047 4666 
L 3047 1625 
L 3713 1625 
L 3713 1100 
L 3047 1100 
L 3047 0 
L 2419 0 
L 2419 1100 
L 313 1100 
L 313 1709 
L 2253 4666 
z
" id="DejaVuSans-34" transform="scale(0.015625)"/>
      <path d="M 703 97 
L 703 672 
Q 941 559 1184 500 
Q 1428 441 1663 441 
Q 2288 441 2617 861 
Q 2947 1281 2994 2138 
Q 2813 1869 2534 1725 
Q 2256 1581 1919 1581 
Q 1219 1581 811 2004 
Q 403 2428 403 3163 
Q 403 3881 828 4315 
Q 1253 4750 1959 4750 
Q 2769 4750 3195 4129 
Q 3622 3509 3622 2328 
Q 3622 1225 3098 567 
Q 2575 -91 1691 -91 
Q 1453 -91 1209 -44 
Q 966 3 703 97 
z
M 1959 2075 
Q 2384 2075 2632 2365 
Q 2881 2656 2881 3163 
Q 2881 3666 2632 3958 
Q 2384 4250 1959 4250 
Q 1534 4250 1286 3958 
Q 1038 3666 1038 3163 
Q 1038 2656 1286 2365 
Q 1534 2075 1959 2075 
z
" id="DejaVuSans-39" transform="scale(0.015625)"/>
     </defs>
     <use xlink:href="#DejaVuSans-53"/>
     <use x="63.476562" xlink:href="#DejaVuSans-65"/>
     <use x="125" xlink:href="#DejaVuSans-72"/>
     <use x="163.863281" xlink:href="#DejaVuSans-65"/>
     <use x="225.386719" xlink:href="#DejaVuSans-6e"/>
     <use x="288.765625" xlink:href="#DejaVuSans-64"/>
     <use x="352.242188" xlink:href="#DejaVuSans-69"/>
     <use x="380.025391" xlink:href="#DejaVuSans-70"/>
     <use x="443.501953" xlink:href="#DejaVuSans-69"/>
     <use x="471.285156" xlink:href="#DejaVuSans-74"/>
     <use x="510.494141" xlink:href="#DejaVuSans-79"/>
     <use x="569.673828" xlink:href="#DejaVuSans-20"/>
     <use x="601.460938" xlink:href="#DejaVuSans-31"/>
     <use x="665.083984" xlink:href="#DejaVuSans-34"/>
     <use x="728.707031" xlink:href="#DejaVuSans-2e"/>
     <use x="760.494141" xlink:href="#DejaVuSans-39"/>
     <use x="824.117188" xlink:href="#DejaVuSans-b0"/>
    </g>
   </g>
   <g id="text_6">
    <g id="patch_7">
     <path d="M 6.228882 45.492857 
L 18.329327 52.194249 
L 19.286474 50.465966 
L 7.186029 43.764574 
z
" style="fill:#ffffff;"/>
    </g>
    <!-- Big Ben 12.7° -->
    <g style="fill:#008000;" transform="translate(6.45758 45.121187)rotate(-331.021716)scale(0.02 -0.02)">
     <defs>
      <path d="M 1259 2228 
L 1259 519 
L 2272 519 
Q 2781 519 3026 730 
Q 3272 941 3272 1375 
Q 3272 1813 3026 2020 
Q 2781 2228 2272 2228 
L 1259 2228 
z
M 1259 4147 
L 1259 2741 
L 2194 2741 
Q 2656 2741 2882 2914 
Q 3109 3088 3109 3444 
Q 3109 3797 2882 3972 
Q 2656 4147 2194 4147 
L 1259 4147 
z
M 628 4666 
L 2241 4666 
Q 2963 4666 3353 4366 
Q 3744 4066 3744 3513 
Q 3744 3084 3544 2831 
Q 3344 2578 2956 2516 
Q 3422 2416 3680 2098 
Q 3938 1781 3938 1306 
Q 3938 681 3513 340 
Q 3088 0 2303 0 
L 628 0 
L 628 4666 
z
" id="DejaVuSans-42" transform="scale(0.015625)"/>
      <path d="M 2906 1791 
Q 2906 2416 2648 2759 
Q 2391 3103 1925 3103 
Q 1463 3103 1205 2759 
Q 947 2416 947 1791 
Q 947 1169 1205 825 
Q 1463 481 1925 481 
Q 2391 481 2648 825 
Q 2906 1169 2906 1791 
z
M 3481 434 
Q 3481 -459 3084 -895 
Q 2688 -1331 1869 -1331 
Q 1566 -1331 1297 -1286 
Q 1028 -1241 775 -1147 
L 775 -588 
Q 1028 -725 1275 -790 
Q 1522 -856 1778 -856 
Q 2344 -856 2625 -561 
Q 2906 -266 2906 331 
L 2906 616 
Q 2728 306 2450 153 
Q 2172 0 1784 0 
Q 1141 0 747 490 
Q 353 981 353 1791 
Q 353 2603 747 3093 
Q 1141 3584 1784 3584 
Q 2172 3584 2450 3431 
Q 2728 3278 2906 2969 
L 2906 3500 
L 3481 3500 
L 3481 434 
z
" id="DejaVuSans-67" transform="scale(0.015625)"/>
      <path d="M 525 4666 
L 3525 4666 
L 3525 4397 
L 1831 0 
L 1172 0 
L 2766 4134 
L 525 4134 
L 525 4666 
z
" id="DejaVuSans-37" transform="scale(0.015625)"/>
     </defs>
     <use xlink:href="#DejaVuSans-42"/>
     <use x="68.603516" xlink:href="#DejaVuSans-69"/>
     <use x="96.386719" xlink:href="#DejaVuSans-67"/>
     <use x="159.863281" xlink:href="#DejaVuSans-20"/>
     <use x="191.650391" xlink:href="#DejaVuSans-42"/>
     <use x="260.253906" xlink:href="#DejaVuSans-65"/>
     <use x="321.777344" xlink:href="#DejaVuSans-6e"/>
     <use x="385.15625" xlink:href="#DejaVuSans-20"/>
     <use x="416.943359" xlink:href="#DejaVuSans-31"/>
     <use x="480.566406" xlink:href="#DejaVuSans-32"/>
     <use x="544.189453" xlink:href="#DejaVuSans-2e"/>
     <use x="575.976562" xlink:href="#DejaVuSans-37"/>
     <use x="639.599609" xlink:href="#DejaVuSans-b0"/>
    </g>
   </g>
   <g id="text_7">
    <g id="patch_8">
     <path d="M 27.830511 21.639956 
L 44.649453 36.243279 
L 45.944713 34.751503 
L 29.12577 20.14818 
z
" style="fill:#ffffff;"/>
    </g>
    <!-- Hawaiian Cruise 10.3° -->
    <g style="fill:#008000;" transform="translate(28.131422 21.323896)rotate(-319.033315)scale(0.02 -0.02)">
     <defs>
      <path d="M 628 4666 
L 1259 4666 
L 1259 2753 
L 3553 2753 
L 3553 4666 
L 4184 4666 
L 4184 0 
L 3553 0 
L 3553 2222 
L 1259 2222 
L 1259 0 
L 628 0 
L 628 4666 
z
" id="DejaVuSans-48" transform="scale(0.015625)"/>
      <path d="M 269 3500 
L 844 3500 
L 1563 769 
L 2278 3500 
L 2956 3500 
L 3675 769 
L 4391 3500 
L 4966 3500 
L 4050 0 
L 3372 0 
L 2619 2869 
L 1863 0 
L 1184 0 
L 269 3500 
z
" id="DejaVuSans-77" transform="scale(0.015625)"/>
      <path d="M 2834 3397 
L 2834 2853 
Q 2591 2978 2328 3040 
Q 2066 3103 1784 3103 
Q 1356 3103 1142 2972 
Q 928 2841 928 2578 
Q 928 2378 1081 2264 
Q 1234 2150 1697 2047 
L 1894 2003 
Q 2506 1872 2764 1633 
Q 3022 1394 3022 966 
Q 3022 478 2636 193 
Q 2250 -91 1575 -91 
Q 1294 -91 989 -36 
Q 684 19 347 128 
L 347 722 
Q 666 556 975 473 
Q 1284 391 1588 391 
Q 1994 391 2212 530 
Q 2431 669 2431 922 
Q 2431 1156 2273 1281 
Q 2116 1406 1581 1522 
L 1381 1569 
Q 847 1681 609 1914 
Q 372 2147 372 2553 
Q 372 3047 722 3315 
Q 1072 3584 1716 3584 
Q 2034 3584 2315 3537 
Q 2597 3491 2834 3397 
z
" id="DejaVuSans-73" transform="scale(0.015625)"/>
      <path d="M 2597 2516 
Q 3050 2419 3304 2112 
Q 3559 1806 3559 1356 
Q 3559 666 3084 287 
Q 2609 -91 1734 -91 
Q 1441 -91 1130 -33 
Q 819 25 488 141 
L 488 750 
Q 750 597 1062 519 
Q 1375 441 1716 441 
Q 2309 441 2620 675 
Q 2931 909 2931 1356 
Q 2931 1769 2642 2001 
Q 2353 2234 1838 2234 
L 1294 2234 
L 1294 2753 
L 1863 2753 
Q 2328 2753 2575 2939 
Q 2822 3125 2822 3475 
Q 2822 3834 2567 4026 
Q 2313 4219 1838 4219 
Q 1578 4219 1281 4162 
Q 984 4106 628 3988 
L 628 4550 
Q 988 4650 1302 4700 
Q 1616 4750 1894 4750 
Q 2613 4750 3031 4423 
Q 3450 4097 3450 3541 
Q 3450 3153 3228 2886 
Q 3006 2619 2597 2516 
z
" id="DejaVuSans-33" transform="scale(0.015625)"/>
     </defs>
     <use xlink:href="#DejaVuSans-48"/>
     <use x="75.195312" xlink:href="#DejaVuSans-61"/>
     <use x="136.474609" xlink:href="#DejaVuSans-77"/>
     <use x="218.261719" xlink:href="#DejaVuSans-61"/>
     <use x="279.541016" xlink:href="#DejaVuSans-69"/>
     <use x="307.324219" xlink:href="#DejaVuSans-69"/>
     <use x="335.107422" xlink:href="#DejaVuSans-61"/>
     <use x="396.386719" xlink:href="#DejaVuSans-6e"/>
     <use x="459.765625" xlink:href="#DejaVuSans-20"/>
     <use x="491.552734" xlink:href="#DejaVuSans-43"/>
     <use x="561.376953" xlink:href="#DejaVuSans-72"/>
     <use x="602.490234" xlink:href="#DejaVuSans-75"/>
     <use x="665.869141" xlink:href="#DejaVuSans-69"/>
     <use x="693.652344" xlink:href="#DejaVuSans-73"/>
     <use x="745.751953" xlink:href="#DejaVuSans-65"/>
     <use x="807.275391" xlink:href="#DejaVuSans-20"/>
     <use x="839.0625" xlink:href="#DejaVuSans-31"/>
     <use x="902.685547" xlink:href="#DejaVuSans-30"/>
     <use x="966.308594" xlink:href="#DejaVuSans-2e"/>
     <use x="998.095703" xlink:href="#DejaVuSans-33"/>
     <use x="1061.71875" xlink:href="#DejaVuSans-b0"/>
    </g>
   </g>
   <g id="text_8">
    <g id="patch_9">
     <path d="M 42.681107 44.134244 
L 48.576023 30.361864 
L 46.759777 29.584467 
L 40.864861 43.356847 
z
" style="fill:#ffffff;"/>
    </g>
    <!-- Frikadilly 13.4° -->
    <g style="fill:#008000;" transform="translate(42.288207 43.944319)rotate(-66.827889)scale(0.02 -0.02)">
     <defs>
      <path d="M 628 4666 
L 3309 4666 
L 3309 4134 
L 1259 4134 
L 1259 2759 
L 3109 2759 
L 3109 2228 
L 1259 2228 
L 1259 0 
L 628 0 
L 628 4666 
z
" id="DejaVuSans-46" transform="scale(0.015625)"/>
      <path d="M 581 4863 
L 1159 4863 
L 1159 1991 
L 2875 3500 
L 3609 3500 
L 1753 1863 
L 3688 0 
L 2938 0 
L 1159 1709 
L 1159 0 
L 581 0 
L 581 4863 
z
" id="DejaVuSans-6b" transform="scale(0.015625)"/>
     </defs>
     <use xlink:href="#DejaVuSans-46"/>
     <use x="50.269531" xlink:href="#DejaVuSans-72"/>
     <use x="91.382812" xlink:href="#DejaVuSans-69"/>
     <use x="119.166016" xlink:href="#DejaVuSans-6b"/>
     <use x="175.326172" xlink:href="#DejaVuSans-61"/>
     <use x="236.605469" xlink:href="#DejaVuSans-64"/>
     <use x="300.082031" xlink:href="#DejaVuSans-69"/>
     <use x="327.865234" xlink:href="#DejaVuSans-6c"/>
     <use x="355.648438" xlink:href="#DejaVuSans-6c"/>
     <use x="383.431641" xlink:href="#DejaVuSans-79"/>
     <use x="442.611328" xlink:href="#DejaVuSans-20"/>
     <use x="474.398438" xlink:href="#DejaVuSans-31"/>
     <use x="538.021484" xlink:href="#DejaVuSans-33"/>
     <use x="601.644531" xlink:href="#DejaVuSans-2e"/>
     <use x="633.431641" xlink:href="#DejaVuSans-34"/>
     <use x="697.054688" xlink:href="#DejaVuSans-b0"/>
    </g>
   </g>
   <g id="text_9">
    <g id="patch_10">
     <path d="M 40.677404 38.434748 
L 44.711259 22.398376 
L 42.795319 21.916432 
L 38.761465 37.952805 
z
" style="fill:#ffffff;"/>
    </g>
    <!-- Dr. Pepper 19.0° -->
    <g style="fill:#4169e1;" transform="translate(40.259516 38.309008)rotate(-75.880522)scale(0.02 -0.02)">
     <defs>
      <path d="M 1259 4147 
L 1259 519 
L 2022 519 
Q 2988 519 3436 956 
Q 3884 1394 3884 2338 
Q 3884 3275 3436 3711 
Q 2988 4147 2022 4147 
L 1259 4147 
z
M 628 4666 
L 1925 4666 
Q 3281 4666 3915 4102 
Q 4550 3538 4550 2338 
Q 4550 1131 3912 565 
Q 3275 0 1925 0 
L 628 0 
L 628 4666 
z
" id="DejaVuSans-44" transform="scale(0.015625)"/>
      <path d="M 1259 4147 
L 1259 2394 
L 2053 2394 
Q 2494 2394 2734 2622 
Q 2975 2850 2975 3272 
Q 2975 3691 2734 3919 
Q 2494 4147 2053 4147 
L 1259 4147 
z
M 628 4666 
L 2053 4666 
Q 2838 4666 3239 4311 
Q 3641 3956 3641 3272 
Q 3641 2581 3239 2228 
Q 2838 1875 2053 1875 
L 1259 1875 
L 1259 0 
L 628 0 
L 628 4666 
z
" id="DejaVuSans-50" transform="scale(0.015625)"/>
     </defs>
     <use xlink:href="#DejaVuSans-44"/>
     <use x="77.001953" xlink:href="#DejaVuSans-72"/>
     <use x="108.990234" xlink:href="#DejaVuSans-2e"/>
     <use x="140.777344" xlink:href="#DejaVuSans-20"/>
     <use x="172.564453" xlink:href="#DejaVuSans-50"/>
     <use x="229.242188" xlink:href="#DejaVuSans-65"/>
     <use x="290.765625" xlink:href="#DejaVuSans-70"/>
     <use x="354.242188" xlink:href="#DejaVuSans-70"/>
     <use x="417.71875" xlink:href="#DejaVuSans-65"/>
     <use x="479.242188" xlink:href="#DejaVuSans-72"/>
     <use x="520.355469" xlink:href="#DejaVuSans-20"/>
     <use x="552.142578" xlink:href="#DejaVuSans-31"/>
     <use x="615.765625" xlink:href="#DejaVuSans-39"/>
     <use x="679.388672" xlink:href="#DejaVuSans-2e"/>
     <use x="711.175781" xlink:href="#DejaVuSans-30"/>
     <use x="774.798828" xlink:href="#DejaVuSans-b0"/>
    </g>
   </g>
   <g id="text_10">
    <g id="patch_11">
     <path d="M 53.528159 42.673604 
L 60.574979 27.172698 
L 58.776478 26.355087 
L 51.729657 41.855992 
z
" style="fill:#ffffff;"/>
    </g>
    <!-- Cloud Nine 19.1° -->
    <g style="fill:#4169e1;" transform="translate(53.139582 42.474984)rotate(-65.553121)scale(0.02 -0.02)">
     <defs>
      <path d="M 1959 3097 
Q 1497 3097 1228 2736 
Q 959 2375 959 1747 
Q 959 1119 1226 758 
Q 1494 397 1959 397 
Q 2419 397 2687 759 
Q 2956 1122 2956 1747 
Q 2956 2369 2687 2733 
Q 2419 3097 1959 3097 
z
M 1959 3584 
Q 2709 3584 3137 3096 
Q 3566 2609 3566 1747 
Q 3566 888 3137 398 
Q 2709 -91 1959 -91 
Q 1206 -91 779 398 
Q 353 888 353 1747 
Q 353 2609 779 3096 
Q 1206 3584 1959 3584 
z
" id="DejaVuSans-6f" transform="scale(0.015625)"/>
      <path d="M 628 4666 
L 1478 4666 
L 3547 763 
L 3547 4666 
L 4159 4666 
L 4159 0 
L 3309 0 
L 1241 3903 
L 1241 0 
L 628 0 
L 628 4666 
z
" id="DejaVuSans-4e" transform="scale(0.015625)"/>
     </defs>
     <use xlink:href="#DejaVuSans-43"/>
     <use x="69.824219" xlink:href="#DejaVuSans-6c"/>
     <use x="97.607422" xlink:href="#DejaVuSans-6f"/>
     <use x="158.789062" xlink:href="#DejaVuSans-75"/>
     <use x="222.167969" xlink:href="#DejaVuSans-64"/>
     <use x="285.644531" xlink:href="#DejaVuSans-20"/>
     <use x="317.431641" xlink:href="#DejaVuSans-4e"/>
     <use x="392.236328" xlink:href="#DejaVuSans-69"/>
     <use x="420.019531" xlink:href="#DejaVuSans-6e"/>
     <use x="483.398438" xlink:href="#DejaVuSans-65"/>
     <use x="544.921875" xlink:href="#DejaVuSans-20"/>
     <use x="576.708984" xlink:href="#DejaVuSans-31"/>
     <use x="640.332031" xlink:href="#DejaVuSans-39"/>
     <use x="703.955078" xlink:href="#DejaVuSans-2e"/>
     <use x="735.742188" xlink:href="#DejaVuSans-31"/>
     <use x="799.365234" xlink:href="#DejaVuSans-b0"/>
    </g>
   </g>
   <g id="text_11">
    <g id="patch_12">
     <path d="M 44.295598 48.558477 
L 51.790102 34.275295 
L 50.040678 33.357357 
L 42.546174 47.64054 
z
" style="fill:#ffffff;"/>
    </g>
    <!-- Milky Way 19.2° -->
    <g style="fill:#4169e1;" transform="translate(43.918866 48.338217)rotate(-62.313631)scale(0.02 -0.02)">
     <defs>
      <path d="M 628 4666 
L 1569 4666 
L 2759 1491 
L 3956 4666 
L 4897 4666 
L 4897 0 
L 4281 0 
L 4281 4097 
L 3078 897 
L 2444 897 
L 1241 4097 
L 1241 0 
L 628 0 
L 628 4666 
z
" id="DejaVuSans-4d" transform="scale(0.015625)"/>
     </defs>
     <use xlink:href="#DejaVuSans-4d"/>
     <use x="86.279297" xlink:href="#DejaVuSans-69"/>
     <use x="114.0625" xlink:href="#DejaVuSans-6c"/>
     <use x="141.845703" xlink:href="#DejaVuSans-6b"/>
     <use x="196.130859" xlink:href="#DejaVuSans-79"/>
     <use x="255.310547" xlink:href="#DejaVuSans-20"/>
     <use x="287.097656" xlink:href="#DejaVuSans-57"/>
     <use x="379.599609" xlink:href="#DejaVuSans-61"/>
     <use x="440.878906" xlink:href="#DejaVuSans-79"/>
     <use x="500.058594" xlink:href="#DejaVuSans-20"/>
     <use x="531.845703" xlink:href="#DejaVuSans-31"/>
     <use x="595.46875" xlink:href="#DejaVuSans-39"/>
     <use x="659.091797" xlink:href="#DejaVuSans-2e"/>
     <use x="690.878906" xlink:href="#DejaVuSans-32"/>
     <use x="754.501953" xlink:href="#DejaVuSans-b0"/>
    </g>
   </g>
   <g id="text_12">
    <g id="patch_13">
     <path d="M 65.229802 41.338298 
L 75.534905 51.703165 
L 76.935916 50.310232 
L 66.630813 39.945365 
z
" style="fill:#ffffff;"/>
    </g>
    <!-- Paradise 13.8° -->
    <g style="fill:#008000;" transform="translate(65.553048 41.045119)rotate(-314.834337)scale(0.02 -0.02)">
     <defs>
      <path d="M 2034 2216 
Q 1584 2216 1326 1975 
Q 1069 1734 1069 1313 
Q 1069 891 1326 650 
Q 1584 409 2034 409 
Q 2484 409 2743 651 
Q 3003 894 3003 1313 
Q 3003 1734 2745 1975 
Q 2488 2216 2034 2216 
z
M 1403 2484 
Q 997 2584 770 2862 
Q 544 3141 544 3541 
Q 544 4100 942 4425 
Q 1341 4750 2034 4750 
Q 2731 4750 3128 4425 
Q 3525 4100 3525 3541 
Q 3525 3141 3298 2862 
Q 3072 2584 2669 2484 
Q 3125 2378 3379 2068 
Q 3634 1759 3634 1313 
Q 3634 634 3220 271 
Q 2806 -91 2034 -91 
Q 1263 -91 848 271 
Q 434 634 434 1313 
Q 434 1759 690 2068 
Q 947 2378 1403 2484 
z
M 1172 3481 
Q 1172 3119 1398 2916 
Q 1625 2713 2034 2713 
Q 2441 2713 2670 2916 
Q 2900 3119 2900 3481 
Q 2900 3844 2670 4047 
Q 2441 4250 2034 4250 
Q 1625 4250 1398 4047 
Q 1172 3844 1172 3481 
z
" id="DejaVuSans-38" transform="scale(0.015625)"/>
     </defs>
     <use xlink:href="#DejaVuSans-50"/>
     <use x="55.802734" xlink:href="#DejaVuSans-61"/>
     <use x="117.082031" xlink:href="#DejaVuSans-72"/>
     <use x="158.195312" xlink:href="#DejaVuSans-61"/>
     <use x="219.474609" xlink:href="#DejaVuSans-64"/>
     <use x="282.951172" xlink:href="#DejaVuSans-69"/>
     <use x="310.734375" xlink:href="#DejaVuSans-73"/>
     <use x="362.833984" xlink:href="#DejaVuSans-65"/>
     <use x="424.357422" xlink:href="#DejaVuSans-20"/>
     <use x="456.144531" xlink:href="#DejaVuSans-31"/>
     <use x="519.767578" xlink:href="#DejaVuSans-33"/>
     <use x="583.390625" xlink:href="#DejaVuSans-2e"/>
     <use x="615.177734" xlink:href="#DejaVuSans-38"/>
     <use x="678.800781" xlink:href="#DejaVuSans-b0"/>
    </g>
   </g>
   <g id="text_13">
    <g id="patch_14">
     <path d="M 57.455693 23.15967 
L 64.835268 38.899322 
L 66.624045 38.06065 
L 59.24447 22.320998 
z
" style="fill:#ffffff;"/>
    </g>
    <!-- Cannonball 14.6° -->
    <g style="fill:#008000;" transform="translate(57.858892 22.992719)rotate(-295.119648)scale(0.02 -0.02)">
     <defs>
      <path d="M 3116 1747 
Q 3116 2381 2855 2742 
Q 2594 3103 2138 3103 
Q 1681 3103 1420 2742 
Q 1159 2381 1159 1747 
Q 1159 1113 1420 752 
Q 1681 391 2138 391 
Q 2594 391 2855 752 
Q 3116 1113 3116 1747 
z
M 1159 2969 
Q 1341 3281 1617 3432 
Q 1894 3584 2278 3584 
Q 2916 3584 3314 3078 
Q 3713 2572 3713 1747 
Q 3713 922 3314 415 
Q 2916 -91 2278 -91 
Q 1894 -91 1617 61 
Q 1341 213 1159 525 
L 1159 0 
L 581 0 
L 581 4863 
L 1159 4863 
L 1159 2969 
z
" id="DejaVuSans-62" transform="scale(0.015625)"/>
      <path d="M 2113 2584 
Q 1688 2584 1439 2293 
Q 1191 2003 1191 1497 
Q 1191 994 1439 701 
Q 1688 409 2113 409 
Q 2538 409 2786 701 
Q 3034 994 3034 1497 
Q 3034 2003 2786 2293 
Q 2538 2584 2113 2584 
z
M 3366 4563 
L 3366 3988 
Q 3128 4100 2886 4159 
Q 2644 4219 2406 4219 
Q 1781 4219 1451 3797 
Q 1122 3375 1075 2522 
Q 1259 2794 1537 2939 
Q 1816 3084 2150 3084 
Q 2853 3084 3261 2657 
Q 3669 2231 3669 1497 
Q 3669 778 3244 343 
Q 2819 -91 2113 -91 
Q 1303 -91 875 529 
Q 447 1150 447 2328 
Q 447 3434 972 4092 
Q 1497 4750 2381 4750 
Q 2619 4750 2861 4703 
Q 3103 4656 3366 4563 
z
" id="DejaVuSans-36" transform="scale(0.015625)"/>
     </defs>
     <use xlink:href="#DejaVuSans-43"/>
     <use x="69.824219" xlink:href="#DejaVuSans-61"/>
     <use x="131.103516" xlink:href="#DejaVuSans-6e"/>
     <use x="194.482422" xlink:href="#DejaVuSans-6e"/>
     <use x="257.861328" xlink:href="#DejaVuSans-6f"/>
     <use x="319.042969" xlink:href="#DejaVuSans-6e"/>
     <use x="382.421875" xlink:href="#DejaVuSans-62"/>
     <use x="445.898438" xlink:href="#DejaVuSans-61"/>
     <use x="507.177734" xlink:href="#DejaVuSans-6c"/>
     <use x="534.960938" xlink:href="#DejaVuSans-6c"/>
     <use x="562.744141" xlink:href="#DejaVuSans-20"/>
     <use x="594.53125" xlink:href="#DejaVuSans-31"/>
     <use x="658.154297" xlink:href="#DejaVuSans-34"/>
     <use x="721.777344" xlink:href="#DejaVuSans-2e"/>
     <use x="753.564453" xlink:href="#DejaVuSans-36"/>
     <use x="817.1875" xlink:href="#DejaVuSans-b0"/>
    </g>
   </g>
   <g id="text_14">
    <g id="patch_15">
     <path d="M 66.287973 26.516746 
L 77.715496 42.977707 
L 79.338386 41.851065 
L 67.910863 25.390104 
z
" style="fill:#ffffff;"/>
    </g>
    <!-- Little America 17.4° -->
    <g style="fill:#4169e1;" transform="translate(66.657482 26.284573)rotate(-304.769141)scale(0.02 -0.02)">
     <defs>
      <path d="M 628 4666 
L 1259 4666 
L 1259 531 
L 3531 531 
L 3531 0 
L 628 0 
L 628 4666 
z
" id="DejaVuSans-4c" transform="scale(0.015625)"/>
      <path d="M 2188 4044 
L 1331 1722 
L 3047 1722 
L 2188 4044 
z
M 1831 4666 
L 2547 4666 
L 4325 0 
L 3669 0 
L 3244 1197 
L 1141 1197 
L 716 0 
L 50 0 
L 1831 4666 
z
" id="DejaVuSans-41" transform="scale(0.015625)"/>
      <path d="M 3328 2828 
Q 3544 3216 3844 3400 
Q 4144 3584 4550 3584 
Q 5097 3584 5394 3201 
Q 5691 2819 5691 2113 
L 5691 0 
L 5113 0 
L 5113 2094 
Q 5113 2597 4934 2840 
Q 4756 3084 4391 3084 
Q 3944 3084 3684 2787 
Q 3425 2491 3425 1978 
L 3425 0 
L 2847 0 
L 2847 2094 
Q 2847 2600 2669 2842 
Q 2491 3084 2119 3084 
Q 1678 3084 1418 2786 
Q 1159 2488 1159 1978 
L 1159 0 
L 581 0 
L 581 3500 
L 1159 3500 
L 1159 2956 
Q 1356 3278 1631 3431 
Q 1906 3584 2284 3584 
Q 2666 3584 2933 3390 
Q 3200 3197 3328 2828 
z
" id="DejaVuSans-6d" transform="scale(0.015625)"/>
      <path d="M 3122 3366 
L 3122 2828 
Q 2878 2963 2633 3030 
Q 2388 3097 2138 3097 
Q 1578 3097 1268 2742 
Q 959 2388 959 1747 
Q 959 1106 1268 751 
Q 1578 397 2138 397 
Q 2388 397 2633 464 
Q 2878 531 3122 666 
L 3122 134 
Q 2881 22 2623 -34 
Q 2366 -91 2075 -91 
Q 1284 -91 818 406 
Q 353 903 353 1747 
Q 353 2603 823 3093 
Q 1294 3584 2113 3584 
Q 2378 3584 2631 3529 
Q 2884 3475 3122 3366 
z
" id="DejaVuSans-63" transform="scale(0.015625)"/>
     </defs>
     <use xlink:href="#DejaVuSans-4c"/>
     <use x="55.712891" xlink:href="#DejaVuSans-69"/>
     <use x="83.496094" xlink:href="#DejaVuSans-74"/>
     <use x="122.705078" xlink:href="#DejaVuSans-74"/>
     <use x="161.914062" xlink:href="#DejaVuSans-6c"/>
     <use x="189.697266" xlink:href="#DejaVuSans-65"/>
     <use x="251.220703" xlink:href="#DejaVuSans-20"/>
     <use x="283.007812" xlink:href="#DejaVuSans-41"/>
     <use x="351.416016" xlink:href="#DejaVuSans-6d"/>
     <use x="448.828125" xlink:href="#DejaVuSans-65"/>
     <use x="510.351562" xlink:href="#DejaVuSans-72"/>
     <use x="551.464844" xlink:href="#DejaVuSans-69"/>
     <use x="579.248047" xlink:href="#DejaVuSans-63"/>
     <use x="634.228516" xlink:href="#DejaVuSans-61"/>
     <use x="695.507812" xlink:href="#DejaVuSans-20"/>
     <use x="727.294922" xlink:href="#DejaVuSans-31"/>
     <use x="790.917969" xlink:href="#DejaVuSans-37"/>
     <use x="854.541016" xlink:href="#DejaVuSans-2e"/>
     <use x="886.328125" xlink:href="#DejaVuSans-34"/>
     <use x="949.951172" xlink:href="#DejaVuSans-b0"/>
    </g>
   </g>
   <g id="text_15">
    <g id="patch_16">
     <path d="M 75.309802 29.706169 
L 87.267664 42.362078 
L 88.703683 41.005265 
L 76.745821 28.349355 
z
" style="fill:#ffffff;"/>
    </g>
    <!-- Worm Gear 18.1° -->
    <g style="fill:#4169e1;" transform="translate(75.640407 29.421314)rotate(-313.375524)scale(0.02 -0.02)">
     <defs>
      <path d="M 3809 666 
L 3809 1919 
L 2778 1919 
L 2778 2438 
L 4434 2438 
L 4434 434 
Q 4069 175 3628 42 
Q 3188 -91 2688 -91 
Q 1594 -91 976 548 
Q 359 1188 359 2328 
Q 359 3472 976 4111 
Q 1594 4750 2688 4750 
Q 3144 4750 3555 4637 
Q 3966 4525 4313 4306 
L 4313 3634 
Q 3963 3931 3569 4081 
Q 3175 4231 2741 4231 
Q 1884 4231 1454 3753 
Q 1025 3275 1025 2328 
Q 1025 1384 1454 906 
Q 1884 428 2741 428 
Q 3075 428 3337 486 
Q 3600 544 3809 666 
z
" id="DejaVuSans-47" transform="scale(0.015625)"/>
     </defs>
     <use xlink:href="#DejaVuSans-57"/>
     <use x="93.001953" xlink:href="#DejaVuSans-6f"/>
     <use x="154.183594" xlink:href="#DejaVuSans-72"/>
     <use x="193.546875" xlink:href="#DejaVuSans-6d"/>
     <use x="290.958984" xlink:href="#DejaVuSans-20"/>
     <use x="322.746094" xlink:href="#DejaVuSans-47"/>
     <use x="400.236328" xlink:href="#DejaVuSans-65"/>
     <use x="461.759766" xlink:href="#DejaVuSans-61"/>
     <use x="523.039062" xlink:href="#DejaVuSans-72"/>
     <use x="564.152344" xlink:href="#DejaVuSans-20"/>
     <use x="595.939453" xlink:href="#DejaVuSans-31"/>
     <use x="659.5625" xlink:href="#DejaVuSans-38"/>
     <use x="723.185547" xlink:href="#DejaVuSans-2e"/>
     <use x="754.972656" xlink:href="#DejaVuSans-31"/>
     <use x="818.595703" xlink:href="#DejaVuSans-b0"/>
    </g>
   </g>
   <g id="text_16">
    <g id="patch_17">
     <path d="M 55.973314 49.348233 
L 76.37598 51.605806 
L 76.593258 49.642165 
L 56.190592 47.384592 
z
" style="fill:#ffffff;"/>
    </g>
    <!-- L.A. Connection 6.2° -->
    <g style="fill:#008000;" transform="translate(56.041137 48.917139)rotate(-353.685857)scale(0.02 -0.02)">
     <use xlink:href="#DejaVuSans-4c"/>
     <use x="55.712891" xlink:href="#DejaVuSans-2e"/>
     <use x="87.5" xlink:href="#DejaVuSans-41"/>
     <use x="154.158203" xlink:href="#DejaVuSans-2e"/>
     <use x="185.945312" xlink:href="#DejaVuSans-20"/>
     <use x="217.732422" xlink:href="#DejaVuSans-43"/>
     <use x="287.556641" xlink:href="#DejaVuSans-6f"/>
     <use x="348.738281" xlink:href="#DejaVuSans-6e"/>
     <use x="412.117188" xlink:href="#DejaVuSans-6e"/>
     <use x="475.496094" xlink:href="#DejaVuSans-65"/>
     <use x="537.019531" xlink:href="#DejaVuSans-63"/>
     <use x="592" xlink:href="#DejaVuSans-74"/>
     <use x="631.208984" xlink:href="#DejaVuSans-69"/>
     <use x="658.992188" xlink:href="#DejaVuSans-6f"/>
     <use x="720.173828" xlink:href="#DejaVuSans-6e"/>
     <use x="783.552734" xlink:href="#DejaVuSans-20"/>
     <use x="815.339844" xlink:href="#DejaVuSans-36"/>
     <use x="878.962891" xlink:href="#DejaVuSans-2e"/>
     <use x="910.75" xlink:href="#DejaVuSans-32"/>
     <use x="974.373047" xlink:href="#DejaVuSans-b0"/>
    </g>
   </g>
   <g id="text_17">
    <!-- Andes Tower Hills -->
    <g transform="translate(20.291153 6.857096)scale(0.06 -0.06)">
     <use xlink:href="#DejaVuSans-41"/>
     <use x="68.408203" xlink:href="#DejaVuSans-6e"/>
     <use x="131.787109" xlink:href="#DejaVuSans-64"/>
     <use x="195.263672" xlink:href="#DejaVuSans-65"/>
     <use x="256.787109" xlink:href="#DejaVuSans-73"/>
     <use x="308.886719" xlink:href="#DejaVuSans-20"/>
     <use x="340.673828" xlink:href="#DejaVuSans-54"/>
     <use x="384.757812" xlink:href="#DejaVuSans-6f"/>
     <use x="445.939453" xlink:href="#DejaVuSans-77"/>
     <use x="527.726562" xlink:href="#DejaVuSans-65"/>
     <use x="589.25" xlink:href="#DejaVuSans-72"/>
     <use x="630.363281" xlink:href="#DejaVuSans-20"/>
     <use x="662.150391" xlink:href="#DejaVuSans-48"/>
     <use x="737.345703" xlink:href="#DejaVuSans-69"/>
     <use x="765.128906" xlink:href="#DejaVuSans-6c"/>
     <use x="792.912109" xlink:href="#DejaVuSans-6c"/>
     <use x="820.695312" xlink:href="#DejaVuSans-73"/>
    </g>
   </g>
   <g id="legend_1">
    <g id="line2d_31">
     <path d="M 4.473419 58.419758 
L 10.473419 58.419758 
" style="fill:none;stroke:#008000;stroke-linecap:square;stroke-width:1.5;"/>
    </g>
    <g id="line2d_32"/>
    <g id="text_18">
     <!-- Easy -->
     <g transform="translate(12.873419 59.469758)scale(0.03 -0.03)">
      <defs>
       <path d="M 628 4666 
L 3578 4666 
L 3578 4134 
L 1259 4134 
L 1259 2753 
L 3481 2753 
L 3481 2222 
L 1259 2222 
L 1259 531 
L 3634 531 
L 3634 0 
L 628 0 
L 628 4666 
z
" id="DejaVuSans-45" transform="scale(0.015625)"/>
      </defs>
      <use xlink:href="#DejaVuSans-45"/>
      <use x="63.183594" xlink:href="#DejaVuSans-61"/>
      <use x="124.462891" xlink:href="#DejaVuSans-73"/>
      <use x="176.5625" xlink:href="#DejaVuSans-79"/>
     </g>
    </g>
    <g id="line2d_33">
     <path d="M 4.473419 62.823195 
L 10.473419 62.823195 
" style="fill:none;stroke:#4169e1;stroke-linecap:square;stroke-width:1.5;"/>
    </g>
    <g id="line2d_34"/>
    <g id="text_19">
     <!-- Intermediate -->
     <g transform="translate(12.873419 63.873195)scale(0.03 -0.03)">
      <defs>
       <path d="M 628 4666 
L 1259 4666 
L 1259 0 
L 628 0 
L 628 4666 
z
" id="DejaVuSans-49" transform="scale(0.015625)"/>
      </defs>
      <use xlink:href="#DejaVuSans-49"/>
      <use x="29.492188" xlink:href="#DejaVuSans-6e"/>
      <use x="92.871094" xlink:href="#DejaVuSans-74"/>
      <use x="132.080078" xlink:href="#DejaVuSans-65"/>
      <use x="193.603516" xlink:href="#DejaVuSans-72"/>
      <use x="232.966797" xlink:href="#DejaVuSans-6d"/>
      <use x="330.378906" xlink:href="#DejaVuSans-65"/>
      <use x="391.902344" xlink:href="#DejaVuSans-64"/>
      <use x="455.378906" xlink:href="#DejaVuSans-69"/>
      <use x="483.162109" xlink:href="#DejaVuSans-61"/>
      <use x="544.441406" xlink:href="#DejaVuSans-74"/>
      <use x="583.650391" xlink:href="#DejaVuSans-65"/>
     </g>
    </g>
    <g id="line2d_35">
     <path d="M 38.229044 58.419758 
L 44.229044 58.419758 
" style="fill:none;stroke:#000000;stroke-linecap:square;stroke-width:1.5;"/>
    </g>
    <g id="line2d_36"/>
    <g id="text_20">
     <!-- Advanced -->
     <g transform="translate(46.629044 59.469758)scale(0.03 -0.03)">
      <defs>
       <path d="M 191 3500 
L 800 3500 
L 1894 563 
L 2988 3500 
L 3597 3500 
L 2284 0 
L 1503 0 
L 191 3500 
z
" id="DejaVuSans-76" transform="scale(0.015625)"/>
      </defs>
      <use xlink:href="#DejaVuSans-41"/>
      <use x="66.658203" xlink:href="#DejaVuSans-64"/>
      <use x="130.134766" xlink:href="#DejaVuSans-76"/>
      <use x="189.314453" xlink:href="#DejaVuSans-61"/>
      <use x="250.59375" xlink:href="#DejaVuSans-6e"/>
      <use x="313.972656" xlink:href="#DejaVuSans-63"/>
      <use x="368.953125" xlink:href="#DejaVuSans-65"/>
      <use x="430.476562" xlink:href="#DejaVuSans-64"/>
     </g>
    </g>
    <g id="line2d_37">
     <path d="M 38.229044 62.823195 
L 44.229044 62.823195 
" style="fill:none;stroke:#ff0000;stroke-linecap:square;stroke-width:1.5;"/>
    </g>
    <g id="line2d_38"/>
    <g id="text_21">
     <!-- Expert -->
     <g transform="translate(46.629044 63.873195)scale(0.03 -0.03)">
      <defs>
       <path d="M 3513 3500 
L 2247 1797 
L 3578 0 
L 2900 0 
L 1881 1375 
L 863 0 
L 184 0 
L 1544 1831 
L 300 3500 
L 978 3500 
L 1906 2253 
L 2834 3500 
L 3513 3500 
z
" id="DejaVuSans-78" transform="scale(0.015625)"/>
      </defs>
      <use xlink:href="#DejaVuSans-45"/>
      <use x="63.183594" xlink:href="#DejaVuSans-78"/>
      <use x="122.363281" xlink:href="#DejaVuSans-70"/>
      <use x="185.839844" xlink:href="#DejaVuSans-65"/>
      <use x="247.363281" xlink:href="#DejaVuSans-72"/>
      <use x="288.476562" xlink:href="#DejaVuSans-74"/>
     </g>
    </g>
    <g id="line2d_39">
     <path d="M 67.448575 58.419758 
L 73.448575 58.419758 
" style="fill:none;stroke:#ffd700;stroke-linecap:square;stroke-width:1.5;"/>
    </g>
    <g id="line2d_40"/>
    <g id="text_22">
     <!-- Extreme -->
     <g transform="translate(75.848575 59.469758)scale(0.03 -0.03)">
      <use xlink:href="#DejaVuSans-45"/>
      <use x="63.183594" xlink:href="#DejaVuSans-78"/>
      <use x="122.363281" xlink:href="#DejaVuSans-74"/>
      <use x="161.572266" xlink:href="#DejaVuSans-72"/>
      <use x="200.435547" xlink:href="#DejaVuSans-65"/>
      <use x="261.958984" xlink:href="#DejaVuSans-6d"/>
      <use x="359.371094" xlink:href="#DejaVuSans-65"/>
     </g>
    </g>
    <g id="line2d_41">
     <path d="M 67.448575 62.823195 
L 73.448575 62.823195 
" style="fill:none;stroke:#000000;stroke-dasharray:1.5,2.475;stroke-dashoffset:0;stroke-width:1.5;"/>
    </g>
    <g id="line2d_42"/>
    <g id="text_23">
     <!-- Gladed -->
     <g transform="translate(75.848575 63.873195)scale(0.03 -0.03)">
      <use xlink:href="#DejaVuSans-47"/>
      <use x="77.490234" xlink:href="#DejaVuSans-6c"/>
      <use x="105.273438" xlink:href="#DejaVuSans-61"/>
      <use x="166.552734" xlink:href="#DejaVuSans-64"/>
      <use x="230.029297" xlink:href="#DejaVuSans-65"/>
      <use x="291.552734" xlink:href="#DejaVuSans-64"/>
     </g>
    </g>
   </g>
  </g>
  <g id="text_24">
   <!-- Sources: USGS and OpenStreetMaps -->
   <g transform="translate(22.678191 69.431665)scale(0.026087 -0.026087)">
    <defs>
     <path d="M 750 794 
L 1409 794 
L 1409 0 
L 750 0 
L 750 794 
z
M 750 3309 
L 1409 3309 
L 1409 2516 
L 750 2516 
L 750 3309 
z
" id="DejaVuSans-3a" transform="scale(0.015625)"/>
     <path d="M 556 4666 
L 1191 4666 
L 1191 1831 
Q 1191 1081 1462 751 
Q 1734 422 2344 422 
Q 2950 422 3222 751 
Q 3494 1081 3494 1831 
L 3494 4666 
L 4128 4666 
L 4128 1753 
Q 4128 841 3676 375 
Q 3225 -91 2344 -91 
Q 1459 -91 1007 375 
Q 556 841 556 1753 
L 556 4666 
z
" id="DejaVuSans-55" transform="scale(0.015625)"/>
     <path d="M 2522 4238 
Q 1834 4238 1429 3725 
Q 1025 3213 1025 2328 
Q 1025 1447 1429 934 
Q 1834 422 2522 422 
Q 3209 422 3611 934 
Q 4013 1447 4013 2328 
Q 4013 3213 3611 3725 
Q 3209 4238 2522 4238 
z
M 2522 4750 
Q 3503 4750 4090 4092 
Q 4678 3434 4678 2328 
Q 4678 1225 4090 567 
Q 3503 -91 2522 -91 
Q 1538 -91 948 565 
Q 359 1222 359 2328 
Q 359 3434 948 4092 
Q 1538 4750 2522 4750 
z
" id="DejaVuSans-4f" transform="scale(0.015625)"/>
    </defs>
    <use xlink:href="#DejaVuSans-53"/>
    <use x="63.476562" xlink:href="#DejaVuSans-6f"/>
    <use x="124.658203" xlink:href="#DejaVuSans-75"/>
    <use x="188.037109" xlink:href="#DejaVuSans-72"/>
    <use x="226.900391" xlink:href="#DejaVuSans-63"/>
    <use x="281.880859" xlink:href="#DejaVuSans-65"/>
    <use x="343.404297" xlink:href="#DejaVuSans-73"/>
    <use x="395.503906" xlink:href="#DejaVuSans-3a"/>
    <use x="429.195312" xlink:href="#DejaVuSans-20"/>
    <use x="460.982422" xlink:href="#DejaVuSans-55"/>
    <use x="534.175781" xlink:href="#DejaVuSans-53"/>
    <use x="597.652344" xlink:href="#DejaVuSans-47"/>
    <use x="675.142578" xlink:href="#DejaVuSans-53"/>
    <use x="738.619141" xlink:href="#DejaVuSans-20"/>
    <use x="770.40625" xlink:href="#DejaVuSans-61"/>
    <use x="831.685547" xlink:href="#DejaVuSans-6e"/>
    <use x="895.064453" xlink:href="#DejaVuSans-64"/>
    <use x="958.541016" xlink:href="#DejaVuSans-20"/>
    <use x="990.328125" xlink:href="#DejaVuSans-4f"/>
    <use x="1069.039062" xlink:href="#DejaVuSans-70"/>
    <use x="1132.515625" xlink:href="#DejaVuSans-65"/>
    <use x="1194.039062" xlink:href="#DejaVuSans-6e"/>
    <use x="1257.417969" xlink:href="#DejaVuSans-53"/>
    <use x="1320.894531" xlink:href="#DejaVuSans-74"/>
    <use x="1360.103516" xlink:href="#DejaVuSans-72"/>
    <use x="1398.966797" xlink:href="#DejaVuSans-65"/>
    <use x="1460.490234" xlink:href="#DejaVuSans-65"/>
    <use x="1522.013672" xlink:href="#DejaVuSans-74"/>
    <use x="1561.222656" xlink:href="#DejaVuSans-4d"/>
    <use x="1647.501953" xlink:href="#DejaVuSans-61"/>
    <use x="1708.78125" xlink:href="#DejaVuSans-70"/>
    <use x="1772.257812" xlink:href="#DejaVuSans-73"/>
   </g>
  </g>
 </g>
 <defs>
  <clipPath id="peb21782a93">
   <rect height="50.26" width="92.949181" x="0" y="9.857096"/>
  </clipPath>
 </defs>
</svg>
