<?xml version="1.0" encoding="utf-8" standalone="no"?>
<!DOCTYPE svg PUBLIC "-//W3C//DTD SVG 1.1//EN"
  "http://www.w3.org/Graphics/SVG/1.1/DTD/svg11.dtd">
<svg height="105.204571pt" version="1.1" viewBox="0 0 53.675128 105.204571" width="53.675128pt" xmlns="http://www.w3.org/2000/svg" xmlns:xlink="http://www.w3.org/1999/xlink">
 <metadata>
  <rdf:RDF xmlns:cc="http://creativecommons.org/ns#" xmlns:dc="http://purl.org/dc/elements/1.1/" xmlns:rdf="http://www.w3.org/1999/02/22-rdf-syntax-ns#">
   <cc:Work>
    <dc:type rdf:resource="http://purl.org/dc/dcmitype/StillImage"/>
    <dc:date>2022-04-14T21:26:57.417698</dc:date>
    <dc:format>image/svg+xml</dc:format>
    <dc:creator>
     <cc:Agent>
      <dc:title>Matplotlib v3.4.3, https://matplotlib.org/</dc:title>
     </cc:Agent>
    </dc:creator>
   </cc:Work>
  </rdf:RDF>
 </metadata>
 <defs>
  <style type="text/css">*{stroke-linecap:butt;stroke-linejoin:round;}</style>
 </defs>
 <g id="figure_1">
  <g id="patch_1">
   <path d="M 0 105.204571 
L 53.675128 105.204571 
L 53.675128 0 
L 0 0 
z
" style="fill:#ffffff;"/>
  </g>
  <g id="axes_1">
   <g id="line2d_1">
    <path clip-path="url(#p8c223a9e6d)" d="M 39.089376 91.914376 
L 37.067605 88.933419 
L 35.045834 85.952462 
L 33.024062 82.971505 
L 31.002291 79.990548 
L 28.98052 77.009591 
L 26.958749 74.028634 
L 24.936978 71.047677 
L 22.915206 68.06672 
" style="fill:none;stroke:#808080;stroke-linecap:square;stroke-width:1.5;"/>
   </g>
   <g id="line2d_2">
    <path clip-path="url(#p8c223a9e6d)" d="M 38.829015 93.396223 
L 35.959481 89.190584 
L 33.089947 84.984946 
L 30.220413 80.779307 
L 27.350879 76.573669 
" style="fill:none;stroke:#808080;stroke-linecap:square;stroke-width:1.5;"/>
   </g>
   <g id="line2d_3">
    <path clip-path="url(#p8c223a9e6d)" d="M 31.936841 11.808349 
L 32.269173 13.23049 
L 32.601504 14.652631 
L 33.892728 15.820124 
L 35.183952 16.987618 
L 36.032773 18.555785 
L 36.881595 20.123953 
L 37.342784 21.017377 
L 37.803973 21.910801 
L 38.265162 22.804224 
L 38.726352 23.697648 
L 39.169284 25.374437 
L 39.612216 27.051225 
L 41.346372 27.489305 
L 43.080529 27.927385 
L 44.076729 28.292092 
L 45.07293 28.656798 
L 46.06913 29.021505 
L 47.065331 29.386212 
L 47.268275 30.753683 
L 47.47122 32.121154 
L 47.674164 33.488625 
L 47.877109 34.856096 
L 47.249754 36.51526 
L 46.622399 38.174425 
L 45.995044 39.833589 
L 45.367689 41.492754 
L 45.284606 42.914894 
L 45.201523 44.337035 
L 45.11844 45.759176 
L 45.035357 47.181317 
" style="fill:none;stroke:#008000;stroke-linecap:square;stroke-width:1.5;"/>
   </g>
   <g id="line2d_4">
    <path clip-path="url(#p8c223a9e6d)" d="M 45.545497 18.193236 
L 44.895122 19.438419 
L 44.244747 20.683602 
L 43.594902 21.768371 
L 42.945056 22.85314 
L 42.660352 23.977473 
L 42.375647 25.101806 
L 42.903779 26.106008 
L 43.431911 27.110211 
" style="fill:none;stroke:#008000;stroke-linecap:square;stroke-width:1.5;"/>
   </g>
   <g id="line2d_5">
    <path clip-path="url(#p8c223a9e6d)" d="M 33.841926 12.811113 
L 35.304608 13.293072 
L 36.767289 13.775032 
L 37.905313 14.196927 
L 39.043337 14.618821 
L 40.18136 15.040716 
L 41.319384 15.462611 
L 42.315055 15.683449 
L 43.310726 15.904287 
L 44.306398 16.125125 
L 45.302069 16.345964 
L 46.643037 17.068903 
L 47.984005 17.791843 
L 48.918555 19.197439 
L 49.853105 20.603035 
L 50.544228 21.807935 
L 51.23535 23.012834 
L 50.950646 24.901109 
L 50.665941 26.789384 
L 49.659951 27.797903 
L 48.65396 28.806422 
" style="fill:none;stroke:#4169e1;stroke-linecap:square;stroke-width:1.5;"/>
   </g>
   <g id="line2d_6">
    <path clip-path="url(#p8c223a9e6d)" d="M 45.035357 47.181317 
L 45.266084 48.757398 
L 45.496811 50.333478 
L 45.433308 51.843379 
L 45.369806 53.35328 
L 45.783103 54.989065 
L 46.196401 56.624851 
L 46.292184 58.543339 
L 46.387968 60.461826 
L 46.674259 61.67284 
L 46.960551 62.883854 
L 47.246843 64.094868 
L 47.533135 65.305882 
L 47.692421 66.39101 
L 47.851708 67.476139 
L 48.010994 68.561268 
L 48.17028 69.646397 
L 48.456572 70.810294 
L 48.742864 71.97419 
L 49.029156 73.138087 
L 49.315448 74.301984 
L 49.124939 75.748583 
L 48.934431 77.195181 
L 48.679361 78.264844 
L 48.424292 79.334507 
L 47.437881 79.90063 
L 46.45147 80.466753 
" style="fill:none;stroke:#4169e1;stroke-linecap:square;stroke-width:1.5;"/>
   </g>
   <g id="line2d_7">
    <path clip-path="url(#p8c223a9e6d)" d="M 23.769319 43.680995 
L 24.073075 45.335483 
L 24.986457 46.463413 
L 26.013615 46.426007 
L 27.040773 46.388601 
L 28.677029 46.388601 
L 30.313286 46.388601 
L 31.074261 47.253971 
L 31.835237 48.119341 
L 32.862395 49.360207 
L 33.889553 50.601074 
L 34.91724 51.541255 
L 35.944928 52.481436 
L 36.249212 53.83452 
L 36.553497 55.187604 
" style="fill:none;stroke:#4169e1;stroke-linecap:square;stroke-width:1.5;"/>
   </g>
   <g id="line2d_8">
    <path clip-path="url(#p8c223a9e6d)" d="M 21.411248 72.694972 
L 20.26952 72.933794 
L 19.127792 73.172616 
L 17.986064 73.411438 
L 16.844336 73.650259 
L 14.955656 73.997702 
L 13.066976 74.345145 
L 12.078978 74.431826 
L 11.09098 74.518506 
L 10.102982 74.605187 
L 9.114984 74.691868 
L 8.236793 74.257745 
L 7.358602 73.823621 
L 6.48041 73.389498 
L 5.602219 72.955374 
L 4.469752 71.400155 
L 3.337285 69.844935 
L 3.112909 68.691469 
L 2.888532 67.538003 
L 2.664155 66.384536 
L 2.439779 65.23107 
L 2.770787 64.216437 
L 3.101796 63.201804 
L 3.432804 62.18717 
L 3.763812 61.172537 
L 4.618455 59.648249 
L 5.473097 58.123962 
L 6.327739 56.599674 
L 7.182381 55.075387 
L 7.7973 53.925157 
L 8.412219 52.774928 
L 9.027138 51.624699 
L 9.642057 50.474469 
L 10.520249 49.476021 
L 11.39844 48.477573 
L 12.276631 47.479125 
L 13.154822 46.480677 
L 14.077201 45.786511 
L 14.999579 45.092346 
L 15.921958 44.39818 
L 16.844336 43.704014 
L 18.051948 43.334991 
L 19.25956 42.965968 
L 20.467172 42.596945 
L 21.674785 42.227922 
L 21.91636 41.207894 
L 22.157935 40.187865 
L 22.399511 39.167837 
L 22.641086 38.147809 
L 22.685009 37.0411 
L 22.728931 35.934391 
L 22.772854 34.827682 
L 22.816777 33.720973 
L 22.531279 32.722884 
L 22.245781 31.724796 
L 21.960283 30.726708 
L 21.674785 29.728619 
L 21.960283 28.665071 
L 22.245781 27.601522 
L 22.531279 26.537974 
L 22.816777 25.474425 
L 22.970507 24.432817 
L 23.124237 23.391208 
L 23.277966 22.3496 
L 23.431696 21.307991 
L 23.036391 20.093021 
L 22.641086 18.878051 
L 23.256005 17.445839 
L 23.870924 16.013627 
L 24.792773 15.188541 
L 25.714623 14.363455 
" style="fill:none;stroke:#000000;stroke-linecap:square;stroke-width:1.5;"/>
   </g>
   <g id="line2d_9">
    <path clip-path="url(#p8c223a9e6d)" d="M 21.20063 19.928291 
L 20.095681 21.020254 
L 18.990732 22.112217 
L 17.885783 23.654488 
L 16.780833 25.196759 
L 16.39082 26.095938 
L 16.000807 26.995116 
L 15.610794 27.894295 
L 15.220781 28.793474 
L 15.058319 29.757033 
L 14.895858 30.720593 
L 14.733396 31.684153 
L 14.570935 32.647713 
L 14.408474 33.772046 
L 14.246012 34.896379 
L 14.083551 36.020712 
L 13.921089 37.145045 
L 13.465986 38.012213 
L 13.010882 38.879381 
L 12.555779 39.746549 
L 12.100675 40.613716 
L 12.360508 42.027225 
L 12.62034 43.440734 
L 13.400366 44.853524 
" style="fill:none;stroke:#4169e1;stroke-linecap:square;stroke-width:1.5;"/>
   </g>
   <g id="line2d_10">
    <path clip-path="url(#p8c223a9e6d)" d="M 25.491304 62.969456 
L 24.256174 61.941515 
L 23.021044 60.913574 
L 21.916095 59.628827 
L 20.811146 58.344081 
L 20.128491 57.605316 
L 19.445835 56.86655 
L 18.76318 56.127785 
L 18.080525 55.38902 
L 17.495505 54.457831 
L 16.910485 53.526641 
L 16.325465 52.595452 
L 15.740445 51.664262 
L 15.350432 50.700343 
L 14.960419 49.736423 
L 14.570406 48.772504 
L 14.180393 47.808584 
" style="fill:none;stroke:#ff0000;stroke-linecap:square;stroke-width:1.5;"/>
   </g>
   <g id="line2d_11">
    <path clip-path="url(#p8c223a9e6d)" d="M 28.275903 62.586765 
L 28.793517 63.514088 
L 29.311132 64.441411 
L 29.828746 65.368734 
L 30.34636 66.296057 
L 30.863974 67.22338 
L 31.381588 68.150703 
L 31.899203 69.078026 
L 32.416817 70.005349 
L 32.934431 70.932672 
L 33.452045 71.859995 
L 33.969659 72.787318 
L 34.487273 73.714641 
L 35.004888 74.641964 
L 35.522502 75.569287 
L 36.040116 76.496609 
L 36.55773 77.423932 
L 37.075344 78.351255 
L 37.592958 79.278578 
L 38.110573 80.205901 
L 38.628187 81.133224 
L 39.145801 82.060547 
L 39.663415 82.98787 
L 40.181029 83.915193 
L 40.698644 84.842516 
L 41.216258 85.769839 
L 41.733872 86.697162 
L 42.251486 87.624485 
L 42.7691 88.551808 
L 43.286714 89.479131 
L 43.804329 90.406454 
L 44.321943 91.333777 
L 44.839557 92.261099 
" style="fill:none;stroke:#008000;stroke-linecap:square;stroke-width:1.5;"/>
   </g>
   <g id="line2d_12">
    <path clip-path="url(#p8c223a9e6d)" d="M 40.98176 77.774972 
L 40.584603 76.753505 
L 40.187446 75.732038 
L 39.790289 74.710571 
L 39.393131 73.689104 
L 38.995974 72.667637 
L 38.598817 71.64617 
L 38.20166 70.624703 
L 37.804502 69.603236 
L 37.407345 68.581769 
L 37.010188 67.560302 
L 36.61303 66.538835 
L 36.215873 65.517368 
L 35.818716 64.495901 
L 35.421559 63.474434 
L 35.024401 62.452968 
L 34.627244 61.431501 
" style="fill:none;stroke:#008000;stroke-linecap:square;stroke-width:1.5;"/>
   </g>
   <g id="text_1">
    <g id="patch_2">
     <path d="M 29.38071 80.476976 
L 35.214892 86.805166 
L 36.667415 85.466034 
L 30.833232 79.137844 
z
" style="fill:#ffffff;"/>
    </g>
    <!-- Pony Lift -->
    <g style="fill:#808080;" transform="translate(29.714777 80.19619)rotate(-312.674053)scale(0.02 -0.02)">
     <defs>
      <path d="M 1259 4147 
L 1259 2394 
L 2053 2394 
Q 2494 2394 2734 2622 
Q 2975 2850 2975 3272 
Q 2975 3691 2734 3919 
Q 2494 4147 2053 4147 
L 1259 4147 
z
M 628 4666 
L 2053 4666 
Q 2838 4666 3239 4311 
Q 3641 3956 3641 3272 
Q 3641 2581 3239 2228 
Q 2838 1875 2053 1875 
L 1259 1875 
L 1259 0 
L 628 0 
L 628 4666 
z
" id="DejaVuSans-50" transform="scale(0.015625)"/>
      <path d="M 1959 3097 
Q 1497 3097 1228 2736 
Q 959 2375 959 1747 
Q 959 1119 1226 758 
Q 1494 397 1959 397 
Q 2419 397 2687 759 
Q 2956 1122 2956 1747 
Q 2956 2369 2687 2733 
Q 2419 3097 1959 3097 
z
M 1959 3584 
Q 2709 3584 3137 3096 
Q 3566 2609 3566 1747 
Q 3566 888 3137 398 
Q 2709 -91 1959 -91 
Q 1206 -91 779 398 
Q 353 888 353 1747 
Q 353 2609 779 3096 
Q 1206 3584 1959 3584 
z
" id="DejaVuSans-6f" transform="scale(0.015625)"/>
      <path d="M 3513 2113 
L 3513 0 
L 2938 0 
L 2938 2094 
Q 2938 2591 2744 2837 
Q 2550 3084 2163 3084 
Q 1697 3084 1428 2787 
Q 1159 2491 1159 1978 
L 1159 0 
L 581 0 
L 581 3500 
L 1159 3500 
L 1159 2956 
Q 1366 3272 1645 3428 
Q 1925 3584 2291 3584 
Q 2894 3584 3203 3211 
Q 3513 2838 3513 2113 
z
" id="DejaVuSans-6e" transform="scale(0.015625)"/>
      <path d="M 2059 -325 
Q 1816 -950 1584 -1140 
Q 1353 -1331 966 -1331 
L 506 -1331 
L 506 -850 
L 844 -850 
Q 1081 -850 1212 -737 
Q 1344 -625 1503 -206 
L 1606 56 
L 191 3500 
L 800 3500 
L 1894 763 
L 2988 3500 
L 3597 3500 
L 2059 -325 
z
" id="DejaVuSans-79" transform="scale(0.015625)"/>
      <path id="DejaVuSans-20" transform="scale(0.015625)"/>
      <path d="M 628 4666 
L 1259 4666 
L 1259 531 
L 3531 531 
L 3531 0 
L 628 0 
L 628 4666 
z
" id="DejaVuSans-4c" transform="scale(0.015625)"/>
      <path d="M 603 3500 
L 1178 3500 
L 1178 0 
L 603 0 
L 603 3500 
z
M 603 4863 
L 1178 4863 
L 1178 4134 
L 603 4134 
L 603 4863 
z
" id="DejaVuSans-69" transform="scale(0.015625)"/>
      <path d="M 2375 4863 
L 2375 4384 
L 1825 4384 
Q 1516 4384 1395 4259 
Q 1275 4134 1275 3809 
L 1275 3500 
L 2222 3500 
L 2222 3053 
L 1275 3053 
L 1275 0 
L 697 0 
L 697 3053 
L 147 3053 
L 147 3500 
L 697 3500 
L 697 3744 
Q 697 4328 969 4595 
Q 1241 4863 1831 4863 
L 2375 4863 
z
" id="DejaVuSans-66" transform="scale(0.015625)"/>
      <path d="M 1172 4494 
L 1172 3500 
L 2356 3500 
L 2356 3053 
L 1172 3053 
L 1172 1153 
Q 1172 725 1289 603 
Q 1406 481 1766 481 
L 2356 481 
L 2356 0 
L 1766 0 
Q 1100 0 847 248 
Q 594 497 594 1153 
L 594 3053 
L 172 3053 
L 172 3500 
L 594 3500 
L 594 4494 
L 1172 4494 
z
" id="DejaVuSans-74" transform="scale(0.015625)"/>
     </defs>
     <use xlink:href="#DejaVuSans-50"/>
     <use x="56.677734" xlink:href="#DejaVuSans-6f"/>
     <use x="117.859375" xlink:href="#DejaVuSans-6e"/>
     <use x="181.238281" xlink:href="#DejaVuSans-79"/>
     <use x="240.417969" xlink:href="#DejaVuSans-20"/>
     <use x="272.205078" xlink:href="#DejaVuSans-4c"/>
     <use x="327.917969" xlink:href="#DejaVuSans-69"/>
     <use x="355.701172" xlink:href="#DejaVuSans-66"/>
     <use x="389.15625" xlink:href="#DejaVuSans-74"/>
    </g>
   </g>
   <g id="text_2">
    <g id="patch_3">
     <path d="M 31.232162 26.730202 
L 54.567924 31.066936 
L 54.928895 29.124568 
L 31.593133 24.787833 
z
" style="fill:#ffffff;"/>
    </g>
    <!-- Upper Lion Tamer 16.8° -->
    <g style="fill:#008000;" transform="translate(31.331477 26.305257)rotate(-349.472214)scale(0.02 -0.02)">
     <defs>
      <path d="M 556 4666 
L 1191 4666 
L 1191 1831 
Q 1191 1081 1462 751 
Q 1734 422 2344 422 
Q 2950 422 3222 751 
Q 3494 1081 3494 1831 
L 3494 4666 
L 4128 4666 
L 4128 1753 
Q 4128 841 3676 375 
Q 3225 -91 2344 -91 
Q 1459 -91 1007 375 
Q 556 841 556 1753 
L 556 4666 
z
" id="DejaVuSans-55" transform="scale(0.015625)"/>
      <path d="M 1159 525 
L 1159 -1331 
L 581 -1331 
L 581 3500 
L 1159 3500 
L 1159 2969 
Q 1341 3281 1617 3432 
Q 1894 3584 2278 3584 
Q 2916 3584 3314 3078 
Q 3713 2572 3713 1747 
Q 3713 922 3314 415 
Q 2916 -91 2278 -91 
Q 1894 -91 1617 61 
Q 1341 213 1159 525 
z
M 3116 1747 
Q 3116 2381 2855 2742 
Q 2594 3103 2138 3103 
Q 1681 3103 1420 2742 
Q 1159 2381 1159 1747 
Q 1159 1113 1420 752 
Q 1681 391 2138 391 
Q 2594 391 2855 752 
Q 3116 1113 3116 1747 
z
" id="DejaVuSans-70" transform="scale(0.015625)"/>
      <path d="M 3597 1894 
L 3597 1613 
L 953 1613 
Q 991 1019 1311 708 
Q 1631 397 2203 397 
Q 2534 397 2845 478 
Q 3156 559 3463 722 
L 3463 178 
Q 3153 47 2828 -22 
Q 2503 -91 2169 -91 
Q 1331 -91 842 396 
Q 353 884 353 1716 
Q 353 2575 817 3079 
Q 1281 3584 2069 3584 
Q 2775 3584 3186 3129 
Q 3597 2675 3597 1894 
z
M 3022 2063 
Q 3016 2534 2758 2815 
Q 2500 3097 2075 3097 
Q 1594 3097 1305 2825 
Q 1016 2553 972 2059 
L 3022 2063 
z
" id="DejaVuSans-65" transform="scale(0.015625)"/>
      <path d="M 2631 2963 
Q 2534 3019 2420 3045 
Q 2306 3072 2169 3072 
Q 1681 3072 1420 2755 
Q 1159 2438 1159 1844 
L 1159 0 
L 581 0 
L 581 3500 
L 1159 3500 
L 1159 2956 
Q 1341 3275 1631 3429 
Q 1922 3584 2338 3584 
Q 2397 3584 2469 3576 
Q 2541 3569 2628 3553 
L 2631 2963 
z
" id="DejaVuSans-72" transform="scale(0.015625)"/>
      <path d="M -19 4666 
L 3928 4666 
L 3928 4134 
L 2272 4134 
L 2272 0 
L 1638 0 
L 1638 4134 
L -19 4134 
L -19 4666 
z
" id="DejaVuSans-54" transform="scale(0.015625)"/>
      <path d="M 2194 1759 
Q 1497 1759 1228 1600 
Q 959 1441 959 1056 
Q 959 750 1161 570 
Q 1363 391 1709 391 
Q 2188 391 2477 730 
Q 2766 1069 2766 1631 
L 2766 1759 
L 2194 1759 
z
M 3341 1997 
L 3341 0 
L 2766 0 
L 2766 531 
Q 2569 213 2275 61 
Q 1981 -91 1556 -91 
Q 1019 -91 701 211 
Q 384 513 384 1019 
Q 384 1609 779 1909 
Q 1175 2209 1959 2209 
L 2766 2209 
L 2766 2266 
Q 2766 2663 2505 2880 
Q 2244 3097 1772 3097 
Q 1472 3097 1187 3025 
Q 903 2953 641 2809 
L 641 3341 
Q 956 3463 1253 3523 
Q 1550 3584 1831 3584 
Q 2591 3584 2966 3190 
Q 3341 2797 3341 1997 
z
" id="DejaVuSans-61" transform="scale(0.015625)"/>
      <path d="M 3328 2828 
Q 3544 3216 3844 3400 
Q 4144 3584 4550 3584 
Q 5097 3584 5394 3201 
Q 5691 2819 5691 2113 
L 5691 0 
L 5113 0 
L 5113 2094 
Q 5113 2597 4934 2840 
Q 4756 3084 4391 3084 
Q 3944 3084 3684 2787 
Q 3425 2491 3425 1978 
L 3425 0 
L 2847 0 
L 2847 2094 
Q 2847 2600 2669 2842 
Q 2491 3084 2119 3084 
Q 1678 3084 1418 2786 
Q 1159 2488 1159 1978 
L 1159 0 
L 581 0 
L 581 3500 
L 1159 3500 
L 1159 2956 
Q 1356 3278 1631 3431 
Q 1906 3584 2284 3584 
Q 2666 3584 2933 3390 
Q 3200 3197 3328 2828 
z
" id="DejaVuSans-6d" transform="scale(0.015625)"/>
      <path d="M 794 531 
L 1825 531 
L 1825 4091 
L 703 3866 
L 703 4441 
L 1819 4666 
L 2450 4666 
L 2450 531 
L 3481 531 
L 3481 0 
L 794 0 
L 794 531 
z
" id="DejaVuSans-31" transform="scale(0.015625)"/>
      <path d="M 2113 2584 
Q 1688 2584 1439 2293 
Q 1191 2003 1191 1497 
Q 1191 994 1439 701 
Q 1688 409 2113 409 
Q 2538 409 2786 701 
Q 3034 994 3034 1497 
Q 3034 2003 2786 2293 
Q 2538 2584 2113 2584 
z
M 3366 4563 
L 3366 3988 
Q 3128 4100 2886 4159 
Q 2644 4219 2406 4219 
Q 1781 4219 1451 3797 
Q 1122 3375 1075 2522 
Q 1259 2794 1537 2939 
Q 1816 3084 2150 3084 
Q 2853 3084 3261 2657 
Q 3669 2231 3669 1497 
Q 3669 778 3244 343 
Q 2819 -91 2113 -91 
Q 1303 -91 875 529 
Q 447 1150 447 2328 
Q 447 3434 972 4092 
Q 1497 4750 2381 4750 
Q 2619 4750 2861 4703 
Q 3103 4656 3366 4563 
z
" id="DejaVuSans-36" transform="scale(0.015625)"/>
      <path d="M 684 794 
L 1344 794 
L 1344 0 
L 684 0 
L 684 794 
z
" id="DejaVuSans-2e" transform="scale(0.015625)"/>
      <path d="M 2034 2216 
Q 1584 2216 1326 1975 
Q 1069 1734 1069 1313 
Q 1069 891 1326 650 
Q 1584 409 2034 409 
Q 2484 409 2743 651 
Q 3003 894 3003 1313 
Q 3003 1734 2745 1975 
Q 2488 2216 2034 2216 
z
M 1403 2484 
Q 997 2584 770 2862 
Q 544 3141 544 3541 
Q 544 4100 942 4425 
Q 1341 4750 2034 4750 
Q 2731 4750 3128 4425 
Q 3525 4100 3525 3541 
Q 3525 3141 3298 2862 
Q 3072 2584 2669 2484 
Q 3125 2378 3379 2068 
Q 3634 1759 3634 1313 
Q 3634 634 3220 271 
Q 2806 -91 2034 -91 
Q 1263 -91 848 271 
Q 434 634 434 1313 
Q 434 1759 690 2068 
Q 947 2378 1403 2484 
z
M 1172 3481 
Q 1172 3119 1398 2916 
Q 1625 2713 2034 2713 
Q 2441 2713 2670 2916 
Q 2900 3119 2900 3481 
Q 2900 3844 2670 4047 
Q 2441 4250 2034 4250 
Q 1625 4250 1398 4047 
Q 1172 3844 1172 3481 
z
" id="DejaVuSans-38" transform="scale(0.015625)"/>
      <path d="M 1600 4347 
Q 1350 4347 1178 4173 
Q 1006 4000 1006 3750 
Q 1006 3503 1178 3333 
Q 1350 3163 1600 3163 
Q 1850 3163 2022 3333 
Q 2194 3503 2194 3750 
Q 2194 3997 2020 4172 
Q 1847 4347 1600 4347 
z
M 1600 4750 
Q 1800 4750 1984 4673 
Q 2169 4597 2303 4453 
Q 2447 4313 2519 4134 
Q 2591 3956 2591 3750 
Q 2591 3338 2302 3052 
Q 2013 2766 1594 2766 
Q 1172 2766 890 3047 
Q 609 3328 609 3750 
Q 609 4169 896 4459 
Q 1184 4750 1600 4750 
z
" id="DejaVuSans-b0" transform="scale(0.015625)"/>
     </defs>
     <use xlink:href="#DejaVuSans-55"/>
     <use x="73.193359" xlink:href="#DejaVuSans-70"/>
     <use x="136.669922" xlink:href="#DejaVuSans-70"/>
     <use x="200.146484" xlink:href="#DejaVuSans-65"/>
     <use x="261.669922" xlink:href="#DejaVuSans-72"/>
     <use x="302.783203" xlink:href="#DejaVuSans-20"/>
     <use x="334.570312" xlink:href="#DejaVuSans-4c"/>
     <use x="390.283203" xlink:href="#DejaVuSans-69"/>
     <use x="418.066406" xlink:href="#DejaVuSans-6f"/>
     <use x="479.248047" xlink:href="#DejaVuSans-6e"/>
     <use x="542.626953" xlink:href="#DejaVuSans-20"/>
     <use x="574.414062" xlink:href="#DejaVuSans-54"/>
     <use x="618.998047" xlink:href="#DejaVuSans-61"/>
     <use x="680.277344" xlink:href="#DejaVuSans-6d"/>
     <use x="777.689453" xlink:href="#DejaVuSans-65"/>
     <use x="839.212891" xlink:href="#DejaVuSans-72"/>
     <use x="880.326172" xlink:href="#DejaVuSans-20"/>
     <use x="912.113281" xlink:href="#DejaVuSans-31"/>
     <use x="975.736328" xlink:href="#DejaVuSans-36"/>
     <use x="1039.359375" xlink:href="#DejaVuSans-2e"/>
     <use x="1071.146484" xlink:href="#DejaVuSans-38"/>
     <use x="1134.769531" xlink:href="#DejaVuSans-b0"/>
    </g>
   </g>
   <g id="text_3">
    <g id="patch_4">
     <path d="M 36.685773 15.940938 
L 53.600215 18.700829 
L 53.918365 16.750989 
L 37.003924 13.991099 
z
" style="fill:#ffffff;"/>
    </g>
    <!-- Rotary Run 18.0° -->
    <g style="fill:#4169e1;" transform="translate(36.775715 15.513911)rotate(-350.732846)scale(0.02 -0.02)">
     <defs>
      <path d="M 2841 2188 
Q 3044 2119 3236 1894 
Q 3428 1669 3622 1275 
L 4263 0 
L 3584 0 
L 2988 1197 
Q 2756 1666 2539 1819 
Q 2322 1972 1947 1972 
L 1259 1972 
L 1259 0 
L 628 0 
L 628 4666 
L 2053 4666 
Q 2853 4666 3247 4331 
Q 3641 3997 3641 3322 
Q 3641 2881 3436 2590 
Q 3231 2300 2841 2188 
z
M 1259 4147 
L 1259 2491 
L 2053 2491 
Q 2509 2491 2742 2702 
Q 2975 2913 2975 3322 
Q 2975 3731 2742 3939 
Q 2509 4147 2053 4147 
L 1259 4147 
z
" id="DejaVuSans-52" transform="scale(0.015625)"/>
      <path d="M 544 1381 
L 544 3500 
L 1119 3500 
L 1119 1403 
Q 1119 906 1312 657 
Q 1506 409 1894 409 
Q 2359 409 2629 706 
Q 2900 1003 2900 1516 
L 2900 3500 
L 3475 3500 
L 3475 0 
L 2900 0 
L 2900 538 
Q 2691 219 2414 64 
Q 2138 -91 1772 -91 
Q 1169 -91 856 284 
Q 544 659 544 1381 
z
M 1991 3584 
L 1991 3584 
z
" id="DejaVuSans-75" transform="scale(0.015625)"/>
      <path d="M 2034 4250 
Q 1547 4250 1301 3770 
Q 1056 3291 1056 2328 
Q 1056 1369 1301 889 
Q 1547 409 2034 409 
Q 2525 409 2770 889 
Q 3016 1369 3016 2328 
Q 3016 3291 2770 3770 
Q 2525 4250 2034 4250 
z
M 2034 4750 
Q 2819 4750 3233 4129 
Q 3647 3509 3647 2328 
Q 3647 1150 3233 529 
Q 2819 -91 2034 -91 
Q 1250 -91 836 529 
Q 422 1150 422 2328 
Q 422 3509 836 4129 
Q 1250 4750 2034 4750 
z
" id="DejaVuSans-30" transform="scale(0.015625)"/>
     </defs>
     <use xlink:href="#DejaVuSans-52"/>
     <use x="64.982422" xlink:href="#DejaVuSans-6f"/>
     <use x="126.164062" xlink:href="#DejaVuSans-74"/>
     <use x="165.373047" xlink:href="#DejaVuSans-61"/>
     <use x="226.652344" xlink:href="#DejaVuSans-72"/>
     <use x="267.765625" xlink:href="#DejaVuSans-79"/>
     <use x="326.945312" xlink:href="#DejaVuSans-20"/>
     <use x="358.732422" xlink:href="#DejaVuSans-52"/>
     <use x="423.714844" xlink:href="#DejaVuSans-75"/>
     <use x="487.09375" xlink:href="#DejaVuSans-6e"/>
     <use x="550.472656" xlink:href="#DejaVuSans-20"/>
     <use x="582.259766" xlink:href="#DejaVuSans-31"/>
     <use x="645.882812" xlink:href="#DejaVuSans-38"/>
     <use x="709.505859" xlink:href="#DejaVuSans-2e"/>
     <use x="741.292969" xlink:href="#DejaVuSans-30"/>
     <use x="804.916016" xlink:href="#DejaVuSans-b0"/>
    </g>
   </g>
   <g id="text_4">
    <g id="patch_5">
     <path d="M 42.399102 51.918122 
L 49.641109 74.454018 
L 51.522001 73.849586 
L 44.279994 51.31369 
z
" style="fill:#ffffff;"/>
    </g>
    <!-- Lower Lion Tamer 18.0° -->
    <g style="fill:#4169e1;" transform="translate(42.820254 51.80379)rotate(-287.815033)scale(0.02 -0.02)">
     <defs>
      <path d="M 269 3500 
L 844 3500 
L 1563 769 
L 2278 3500 
L 2956 3500 
L 3675 769 
L 4391 3500 
L 4966 3500 
L 4050 0 
L 3372 0 
L 2619 2869 
L 1863 0 
L 1184 0 
L 269 3500 
z
" id="DejaVuSans-77" transform="scale(0.015625)"/>
     </defs>
     <use xlink:href="#DejaVuSans-4c"/>
     <use x="53.962891" xlink:href="#DejaVuSans-6f"/>
     <use x="115.144531" xlink:href="#DejaVuSans-77"/>
     <use x="196.931641" xlink:href="#DejaVuSans-65"/>
     <use x="258.455078" xlink:href="#DejaVuSans-72"/>
     <use x="299.568359" xlink:href="#DejaVuSans-20"/>
     <use x="331.355469" xlink:href="#DejaVuSans-4c"/>
     <use x="387.068359" xlink:href="#DejaVuSans-69"/>
     <use x="414.851562" xlink:href="#DejaVuSans-6f"/>
     <use x="476.033203" xlink:href="#DejaVuSans-6e"/>
     <use x="539.412109" xlink:href="#DejaVuSans-20"/>
     <use x="571.199219" xlink:href="#DejaVuSans-54"/>
     <use x="615.783203" xlink:href="#DejaVuSans-61"/>
     <use x="677.0625" xlink:href="#DejaVuSans-6d"/>
     <use x="774.474609" xlink:href="#DejaVuSans-65"/>
     <use x="835.998047" xlink:href="#DejaVuSans-72"/>
     <use x="877.111328" xlink:href="#DejaVuSans-20"/>
     <use x="908.898438" xlink:href="#DejaVuSans-31"/>
     <use x="972.521484" xlink:href="#DejaVuSans-38"/>
     <use x="1036.144531" xlink:href="#DejaVuSans-2e"/>
     <use x="1067.931641" xlink:href="#DejaVuSans-30"/>
     <use x="1131.554688" xlink:href="#DejaVuSans-b0"/>
    </g>
   </g>
   <g id="text_5">
    <g id="patch_6">
     <path d="M 8.06609 76.018742 
L 18.332813 74.629326 
L 18.067863 72.671547 
L 7.80114 74.060964 
z
" style="fill:#ffffff;"/>
    </g>
    <!-- Bow 28.2° -->
    <g transform="translate(8.027446 75.58406)rotate(-7.70713)scale(0.02 -0.02)">
     <defs>
      <path d="M 1259 2228 
L 1259 519 
L 2272 519 
Q 2781 519 3026 730 
Q 3272 941 3272 1375 
Q 3272 1813 3026 2020 
Q 2781 2228 2272 2228 
L 1259 2228 
z
M 1259 4147 
L 1259 2741 
L 2194 2741 
Q 2656 2741 2882 2914 
Q 3109 3088 3109 3444 
Q 3109 3797 2882 3972 
Q 2656 4147 2194 4147 
L 1259 4147 
z
M 628 4666 
L 2241 4666 
Q 2963 4666 3353 4366 
Q 3744 4066 3744 3513 
Q 3744 3084 3544 2831 
Q 3344 2578 2956 2516 
Q 3422 2416 3680 2098 
Q 3938 1781 3938 1306 
Q 3938 681 3513 340 
Q 3088 0 2303 0 
L 628 0 
L 628 4666 
z
" id="DejaVuSans-42" transform="scale(0.015625)"/>
      <path d="M 1228 531 
L 3431 531 
L 3431 0 
L 469 0 
L 469 531 
Q 828 903 1448 1529 
Q 2069 2156 2228 2338 
Q 2531 2678 2651 2914 
Q 2772 3150 2772 3378 
Q 2772 3750 2511 3984 
Q 2250 4219 1831 4219 
Q 1534 4219 1204 4116 
Q 875 4013 500 3803 
L 500 4441 
Q 881 4594 1212 4672 
Q 1544 4750 1819 4750 
Q 2544 4750 2975 4387 
Q 3406 4025 3406 3419 
Q 3406 3131 3298 2873 
Q 3191 2616 2906 2266 
Q 2828 2175 2409 1742 
Q 1991 1309 1228 531 
z
" id="DejaVuSans-32" transform="scale(0.015625)"/>
     </defs>
     <use xlink:href="#DejaVuSans-42"/>
     <use x="68.603516" xlink:href="#DejaVuSans-6f"/>
     <use x="129.785156" xlink:href="#DejaVuSans-77"/>
     <use x="211.572266" xlink:href="#DejaVuSans-20"/>
     <use x="243.359375" xlink:href="#DejaVuSans-32"/>
     <use x="306.982422" xlink:href="#DejaVuSans-38"/>
     <use x="370.605469" xlink:href="#DejaVuSans-2e"/>
     <use x="402.392578" xlink:href="#DejaVuSans-32"/>
     <use x="466.015625" xlink:href="#DejaVuSans-b0"/>
    </g>
   </g>
   <g id="text_6">
    <g id="patch_7">
     <path d="M 14.083855 38.430575 
L 17.958479 21.524842 
L 16.032784 21.083492 
L 12.158159 37.989225 
z
" style="fill:#ffffff;"/>
    </g>
    <!-- Upper Face 19.9° -->
    <g style="fill:#4169e1;" transform="translate(13.663402 38.313693)rotate(-77.091321)scale(0.02 -0.02)">
     <defs>
      <path d="M 628 4666 
L 3309 4666 
L 3309 4134 
L 1259 4134 
L 1259 2759 
L 3109 2759 
L 3109 2228 
L 1259 2228 
L 1259 0 
L 628 0 
L 628 4666 
z
" id="DejaVuSans-46" transform="scale(0.015625)"/>
      <path d="M 3122 3366 
L 3122 2828 
Q 2878 2963 2633 3030 
Q 2388 3097 2138 3097 
Q 1578 3097 1268 2742 
Q 959 2388 959 1747 
Q 959 1106 1268 751 
Q 1578 397 2138 397 
Q 2388 397 2633 464 
Q 2878 531 3122 666 
L 3122 134 
Q 2881 22 2623 -34 
Q 2366 -91 2075 -91 
Q 1284 -91 818 406 
Q 353 903 353 1747 
Q 353 2603 823 3093 
Q 1294 3584 2113 3584 
Q 2378 3584 2631 3529 
Q 2884 3475 3122 3366 
z
" id="DejaVuSans-63" transform="scale(0.015625)"/>
      <path d="M 703 97 
L 703 672 
Q 941 559 1184 500 
Q 1428 441 1663 441 
Q 2288 441 2617 861 
Q 2947 1281 2994 2138 
Q 2813 1869 2534 1725 
Q 2256 1581 1919 1581 
Q 1219 1581 811 2004 
Q 403 2428 403 3163 
Q 403 3881 828 4315 
Q 1253 4750 1959 4750 
Q 2769 4750 3195 4129 
Q 3622 3509 3622 2328 
Q 3622 1225 3098 567 
Q 2575 -91 1691 -91 
Q 1453 -91 1209 -44 
Q 966 3 703 97 
z
M 1959 2075 
Q 2384 2075 2632 2365 
Q 2881 2656 2881 3163 
Q 2881 3666 2632 3958 
Q 2384 4250 1959 4250 
Q 1534 4250 1286 3958 
Q 1038 3666 1038 3163 
Q 1038 2656 1286 2365 
Q 1534 2075 1959 2075 
z
" id="DejaVuSans-39" transform="scale(0.015625)"/>
     </defs>
     <use xlink:href="#DejaVuSans-55"/>
     <use x="73.193359" xlink:href="#DejaVuSans-70"/>
     <use x="136.669922" xlink:href="#DejaVuSans-70"/>
     <use x="200.146484" xlink:href="#DejaVuSans-65"/>
     <use x="261.669922" xlink:href="#DejaVuSans-72"/>
     <use x="302.783203" xlink:href="#DejaVuSans-20"/>
     <use x="334.570312" xlink:href="#DejaVuSans-46"/>
     <use x="382.964844" xlink:href="#DejaVuSans-61"/>
     <use x="444.244141" xlink:href="#DejaVuSans-63"/>
     <use x="499.224609" xlink:href="#DejaVuSans-65"/>
     <use x="560.748047" xlink:href="#DejaVuSans-20"/>
     <use x="592.535156" xlink:href="#DejaVuSans-31"/>
     <use x="656.158203" xlink:href="#DejaVuSans-39"/>
     <use x="719.78125" xlink:href="#DejaVuSans-2e"/>
     <use x="751.568359" xlink:href="#DejaVuSans-39"/>
     <use x="815.191406" xlink:href="#DejaVuSans-b0"/>
    </g>
   </g>
   <g id="text_7">
    <g id="patch_8">
     <path d="M 28.018248 66.577851 
L 38.347206 80.190956 
L 39.921071 78.996785 
L 29.592112 65.383679 
z
" style="fill:#ffffff;"/>
    </g>
    <!-- Main Slope 16.8° -->
    <g style="fill:#008000;" transform="translate(28.377623 66.33028)rotate(-307.189448)scale(0.02 -0.02)">
     <defs>
      <path d="M 628 4666 
L 1569 4666 
L 2759 1491 
L 3956 4666 
L 4897 4666 
L 4897 0 
L 4281 0 
L 4281 4097 
L 3078 897 
L 2444 897 
L 1241 4097 
L 1241 0 
L 628 0 
L 628 4666 
z
" id="DejaVuSans-4d" transform="scale(0.015625)"/>
      <path d="M 3425 4513 
L 3425 3897 
Q 3066 4069 2747 4153 
Q 2428 4238 2131 4238 
Q 1616 4238 1336 4038 
Q 1056 3838 1056 3469 
Q 1056 3159 1242 3001 
Q 1428 2844 1947 2747 
L 2328 2669 
Q 3034 2534 3370 2195 
Q 3706 1856 3706 1288 
Q 3706 609 3251 259 
Q 2797 -91 1919 -91 
Q 1588 -91 1214 -16 
Q 841 59 441 206 
L 441 856 
Q 825 641 1194 531 
Q 1563 422 1919 422 
Q 2459 422 2753 634 
Q 3047 847 3047 1241 
Q 3047 1584 2836 1778 
Q 2625 1972 2144 2069 
L 1759 2144 
Q 1053 2284 737 2584 
Q 422 2884 422 3419 
Q 422 4038 858 4394 
Q 1294 4750 2059 4750 
Q 2388 4750 2728 4690 
Q 3069 4631 3425 4513 
z
" id="DejaVuSans-53" transform="scale(0.015625)"/>
      <path d="M 603 4863 
L 1178 4863 
L 1178 0 
L 603 0 
L 603 4863 
z
" id="DejaVuSans-6c" transform="scale(0.015625)"/>
     </defs>
     <use xlink:href="#DejaVuSans-4d"/>
     <use x="86.279297" xlink:href="#DejaVuSans-61"/>
     <use x="147.558594" xlink:href="#DejaVuSans-69"/>
     <use x="175.341797" xlink:href="#DejaVuSans-6e"/>
     <use x="238.720703" xlink:href="#DejaVuSans-20"/>
     <use x="270.507812" xlink:href="#DejaVuSans-53"/>
     <use x="333.984375" xlink:href="#DejaVuSans-6c"/>
     <use x="361.767578" xlink:href="#DejaVuSans-6f"/>
     <use x="422.949219" xlink:href="#DejaVuSans-70"/>
     <use x="486.425781" xlink:href="#DejaVuSans-65"/>
     <use x="547.949219" xlink:href="#DejaVuSans-20"/>
     <use x="579.736328" xlink:href="#DejaVuSans-31"/>
     <use x="643.359375" xlink:href="#DejaVuSans-36"/>
     <use x="706.982422" xlink:href="#DejaVuSans-2e"/>
     <use x="738.769531" xlink:href="#DejaVuSans-38"/>
     <use x="802.392578" xlink:href="#DejaVuSans-b0"/>
    </g>
   </g>
   <g id="text_8">
    <!-- Arrowhead -->
    <g transform="translate(13.355924 5.228955)scale(0.05 -0.05)">
     <defs>
      <path d="M 2188 4044 
L 1331 1722 
L 3047 1722 
L 2188 4044 
z
M 1831 4666 
L 2547 4666 
L 4325 0 
L 3669 0 
L 3244 1197 
L 1141 1197 
L 716 0 
L 50 0 
L 1831 4666 
z
" id="DejaVuSans-41" transform="scale(0.015625)"/>
      <path d="M 3513 2113 
L 3513 0 
L 2938 0 
L 2938 2094 
Q 2938 2591 2744 2837 
Q 2550 3084 2163 3084 
Q 1697 3084 1428 2787 
Q 1159 2491 1159 1978 
L 1159 0 
L 581 0 
L 581 4863 
L 1159 4863 
L 1159 2956 
Q 1366 3272 1645 3428 
Q 1925 3584 2291 3584 
Q 2894 3584 3203 3211 
Q 3513 2838 3513 2113 
z
" id="DejaVuSans-68" transform="scale(0.015625)"/>
      <path d="M 2906 2969 
L 2906 4863 
L 3481 4863 
L 3481 0 
L 2906 0 
L 2906 525 
Q 2725 213 2448 61 
Q 2172 -91 1784 -91 
Q 1150 -91 751 415 
Q 353 922 353 1747 
Q 353 2572 751 3078 
Q 1150 3584 1784 3584 
Q 2172 3584 2448 3432 
Q 2725 3281 2906 2969 
z
M 947 1747 
Q 947 1113 1208 752 
Q 1469 391 1925 391 
Q 2381 391 2643 752 
Q 2906 1113 2906 1747 
Q 2906 2381 2643 2742 
Q 2381 3103 1925 3103 
Q 1469 3103 1208 2742 
Q 947 2381 947 1747 
z
" id="DejaVuSans-64" transform="scale(0.015625)"/>
     </defs>
     <use xlink:href="#DejaVuSans-41"/>
     <use x="68.408203" xlink:href="#DejaVuSans-72"/>
     <use x="107.771484" xlink:href="#DejaVuSans-72"/>
     <use x="146.634766" xlink:href="#DejaVuSans-6f"/>
     <use x="207.816406" xlink:href="#DejaVuSans-77"/>
     <use x="289.603516" xlink:href="#DejaVuSans-68"/>
     <use x="352.982422" xlink:href="#DejaVuSans-65"/>
     <use x="414.505859" xlink:href="#DejaVuSans-61"/>
     <use x="475.785156" xlink:href="#DejaVuSans-64"/>
    </g>
   </g>
  </g>
  <g id="text_9">
   <!-- Sources: USGS and OpenStreetMaps -->
   <g transform="translate(7.007231 104.752465)scale(0.021739 -0.021739)">
    <defs>
     <path d="M 2834 3397 
L 2834 2853 
Q 2591 2978 2328 3040 
Q 2066 3103 1784 3103 
Q 1356 3103 1142 2972 
Q 928 2841 928 2578 
Q 928 2378 1081 2264 
Q 1234 2150 1697 2047 
L 1894 2003 
Q 2506 1872 2764 1633 
Q 3022 1394 3022 966 
Q 3022 478 2636 193 
Q 2250 -91 1575 -91 
Q 1294 -91 989 -36 
Q 684 19 347 128 
L 347 722 
Q 666 556 975 473 
Q 1284 391 1588 391 
Q 1994 391 2212 530 
Q 2431 669 2431 922 
Q 2431 1156 2273 1281 
Q 2116 1406 1581 1522 
L 1381 1569 
Q 847 1681 609 1914 
Q 372 2147 372 2553 
Q 372 3047 722 3315 
Q 1072 3584 1716 3584 
Q 2034 3584 2315 3537 
Q 2597 3491 2834 3397 
z
" id="DejaVuSans-73" transform="scale(0.015625)"/>
     <path d="M 750 794 
L 1409 794 
L 1409 0 
L 750 0 
L 750 794 
z
M 750 3309 
L 1409 3309 
L 1409 2516 
L 750 2516 
L 750 3309 
z
" id="DejaVuSans-3a" transform="scale(0.015625)"/>
     <path d="M 3809 666 
L 3809 1919 
L 2778 1919 
L 2778 2438 
L 4434 2438 
L 4434 434 
Q 4069 175 3628 42 
Q 3188 -91 2688 -91 
Q 1594 -91 976 548 
Q 359 1188 359 2328 
Q 359 3472 976 4111 
Q 1594 4750 2688 4750 
Q 3144 4750 3555 4637 
Q 3966 4525 4313 4306 
L 4313 3634 
Q 3963 3931 3569 4081 
Q 3175 4231 2741 4231 
Q 1884 4231 1454 3753 
Q 1025 3275 1025 2328 
Q 1025 1384 1454 906 
Q 1884 428 2741 428 
Q 3075 428 3337 486 
Q 3600 544 3809 666 
z
" id="DejaVuSans-47" transform="scale(0.015625)"/>
     <path d="M 2522 4238 
Q 1834 4238 1429 3725 
Q 1025 3213 1025 2328 
Q 1025 1447 1429 934 
Q 1834 422 2522 422 
Q 3209 422 3611 934 
Q 4013 1447 4013 2328 
Q 4013 3213 3611 3725 
Q 3209 4238 2522 4238 
z
M 2522 4750 
Q 3503 4750 4090 4092 
Q 4678 3434 4678 2328 
Q 4678 1225 4090 567 
Q 3503 -91 2522 -91 
Q 1538 -91 948 565 
Q 359 1222 359 2328 
Q 359 3434 948 4092 
Q 1538 4750 2522 4750 
z
" id="DejaVuSans-4f" transform="scale(0.015625)"/>
    </defs>
    <use xlink:href="#DejaVuSans-53"/>
    <use x="63.476562" xlink:href="#DejaVuSans-6f"/>
    <use x="124.658203" xlink:href="#DejaVuSans-75"/>
    <use x="188.037109" xlink:href="#DejaVuSans-72"/>
    <use x="226.900391" xlink:href="#DejaVuSans-63"/>
    <use x="281.880859" xlink:href="#DejaVuSans-65"/>
    <use x="343.404297" xlink:href="#DejaVuSans-73"/>
    <use x="395.503906" xlink:href="#DejaVuSans-3a"/>
    <use x="429.195312" xlink:href="#DejaVuSans-20"/>
    <use x="460.982422" xlink:href="#DejaVuSans-55"/>
    <use x="534.175781" xlink:href="#DejaVuSans-53"/>
    <use x="597.652344" xlink:href="#DejaVuSans-47"/>
    <use x="675.142578" xlink:href="#DejaVuSans-53"/>
    <use x="738.619141" xlink:href="#DejaVuSans-20"/>
    <use x="770.40625" xlink:href="#DejaVuSans-61"/>
    <use x="831.685547" xlink:href="#DejaVuSans-6e"/>
    <use x="895.064453" xlink:href="#DejaVuSans-64"/>
    <use x="958.541016" xlink:href="#DejaVuSans-20"/>
    <use x="990.328125" xlink:href="#DejaVuSans-4f"/>
    <use x="1069.039062" xlink:href="#DejaVuSans-70"/>
    <use x="1132.515625" xlink:href="#DejaVuSans-65"/>
    <use x="1194.039062" xlink:href="#DejaVuSans-6e"/>
    <use x="1257.417969" xlink:href="#DejaVuSans-53"/>
    <use x="1320.894531" xlink:href="#DejaVuSans-74"/>
    <use x="1360.103516" xlink:href="#DejaVuSans-72"/>
    <use x="1398.966797" xlink:href="#DejaVuSans-65"/>
    <use x="1460.490234" xlink:href="#DejaVuSans-65"/>
    <use x="1522.013672" xlink:href="#DejaVuSans-74"/>
    <use x="1561.222656" xlink:href="#DejaVuSans-4d"/>
    <use x="1647.501953" xlink:href="#DejaVuSans-61"/>
    <use x="1708.78125" xlink:href="#DejaVuSans-70"/>
    <use x="1772.257812" xlink:href="#DejaVuSans-73"/>
   </g>
  </g>
 </g>
 <defs>
  <clipPath id="p8c223a9e6d">
   <rect height="89.746661" width="53.675128" x="0" y="7.728955"/>
  </clipPath>
 </defs>
</svg>
