<?xml version="1.0" encoding="utf-8" standalone="no"?>
<!DOCTYPE svg PUBLIC "-//W3C//DTD SVG 1.1//EN"
  "http://www.w3.org/Graphics/SVG/1.1/DTD/svg11.dtd">
<svg height="87.661105pt" version="1.1" viewBox="0 0 56.035916 87.661105" width="56.035916pt" xmlns="http://www.w3.org/2000/svg" xmlns:xlink="http://www.w3.org/1999/xlink">
 <metadata>
  <rdf:RDF xmlns:cc="http://creativecommons.org/ns#" xmlns:dc="http://purl.org/dc/elements/1.1/" xmlns:rdf="http://www.w3.org/1999/02/22-rdf-syntax-ns#">
   <cc:Work>
    <dc:type rdf:resource="http://purl.org/dc/dcmitype/StillImage"/>
    <dc:date>2022-04-14T21:26:25.790772</dc:date>
    <dc:format>image/svg+xml</dc:format>
    <dc:creator>
     <cc:Agent>
      <dc:title>Matplotlib v3.4.3, https://matplotlib.org/</dc:title>
     </cc:Agent>
    </dc:creator>
   </cc:Work>
  </rdf:RDF>
 </metadata>
 <defs>
  <style type="text/css">*{stroke-linecap:butt;stroke-linejoin:round;}</style>
 </defs>
 <g id="figure_1">
  <g id="patch_1">
   <path d="M 0 87.661105 
L 56.035916 87.661105 
L 56.035916 0 
L 0 0 
z
" style="fill:#ffffff;"/>
  </g>
  <g id="axes_1">
   <g id="line2d_1">
    <path clip-path="url(#p116beded84)" d="M 41.690828 19.673851 
L 41.122263 20.562468 
L 40.553697 21.451085 
L 39.985131 22.339702 
L 39.416565 23.228319 
L 38.848 24.116936 
L 38.279434 25.005553 
L 37.710868 25.89417 
L 37.142303 26.782787 
L 36.573737 27.671404 
L 36.005171 28.560021 
L 35.436605 29.448638 
L 34.86804 30.337255 
L 34.299474 31.225872 
L 33.730908 32.114489 
L 33.162343 33.003106 
L 32.593777 33.891723 
L 32.025211 34.78034 
L 31.456645 35.668957 
L 30.88808 36.557574 
L 30.319514 37.446191 
L 29.750948 38.334808 
L 29.182383 39.223425 
L 28.613817 40.112042 
L 28.045251 41.000659 
L 27.476685 41.889276 
L 26.90812 42.777893 
L 26.339554 43.66651 
L 25.770988 44.555127 
L 25.202423 45.443744 
L 24.633857 46.332361 
L 24.065291 47.220978 
L 23.496725 48.109595 
L 22.92816 48.998212 
L 22.359594 49.886829 
L 21.791028 50.775446 
L 21.222463 51.664063 
L 20.653897 52.55268 
L 20.085331 53.441297 
L 19.516765 54.329915 
L 18.9482 55.218532 
L 18.379634 56.107149 
L 17.811068 56.995766 
L 17.242503 57.884383 
L 16.673937 58.773 
L 16.105371 59.661617 
L 15.536805 60.550234 
L 14.96824 61.438851 
L 14.399674 62.327468 
L 13.831108 63.216085 
L 13.262543 64.104702 
L 12.693977 64.993319 
L 12.125411 65.881936 
L 11.556845 66.770553 
L 10.98828 67.65917 
L 10.419714 68.547787 
L 9.851148 69.436404 
L 9.282582 70.325021 
L 8.714017 71.213638 
L 8.145451 72.102255 
L 7.576885 72.990872 
L 7.00832 73.879489 
L 6.439754 74.768106 
L 5.871188 75.656723 
L 5.302622 76.54534 
" style="fill:none;stroke:#008000;stroke-linecap:square;stroke-width:1.5;"/>
   </g>
   <g id="line2d_2">
    <path clip-path="url(#p116beded84)" d="M 42.131889 24.873726 
L 43.6756 25.361151 
L 45.219311 25.848577 
L 46.763022 26.336002 
L 48.306733 26.823427 
L 47.920624 28.231684 
L 47.534514 29.639942 
L 47.148404 31.048199 
L 46.762294 32.456457 
L 45.549378 33.458569 
L 44.336463 34.46068 
L 43.123547 35.462792 
L 41.910631 36.464904 
L 41.318001 37.588809 
L 40.725372 38.712714 
L 40.132743 39.836619 
L 39.540113 40.960524 
L 38.947484 42.084429 
L 38.354855 43.208334 
L 37.762225 44.33224 
L 37.169596 45.456145 
L 36.259818 46.105877 
L 35.35004 46.755609 
L 34.440262 47.40534 
L 33.530484 48.055072 
L 32.627712 48.779521 
L 31.724939 49.50397 
L 30.822166 50.228418 
L 29.919394 50.952867 
L 29.016621 51.677316 
L 28.113848 52.401764 
L 27.211076 53.126213 
L 26.308303 53.850661 
L 25.40553 54.57511 
L 24.502758 55.299559 
L 23.599985 56.024007 
L 22.697213 56.748456 
L 21.79444 57.472905 
L 20.891667 58.197353 
L 19.988895 58.921802 
L 19.086122 59.64625 
" style="fill:none;stroke:#4169e1;stroke-linecap:square;stroke-width:1.5;"/>
   </g>
   <g id="line2d_3">
    <path clip-path="url(#p116beded84)" d="M 48.306733 26.823427 
L 49.243441 27.473159 
L 50.180148 28.122891 
L 51.834488 28.231432 
L 53.488829 28.339973 
L 52.799581 29.639942 
L 52.110333 30.939911 
L 51.421085 32.239879 
L 50.731837 33.539848 
L 50.538965 34.839817 
L 50.346092 36.139786 
L 50.153219 37.439755 
L 49.960346 38.739723 
L 49.767473 40.039692 
L 49.5746 41.339661 
L 49.381727 42.63963 
L 49.188854 43.939598 
L 47.948281 44.995728 
L 46.707708 46.051858 
L 45.467135 47.107988 
L 44.226561 48.164118 
L 43.234176 49.396312 
L 42.24179 50.628506 
L 41.249404 51.8607 
L 40.257018 53.092893 
L 39.264633 54.325087 
L 38.272247 55.557281 
L 37.279861 56.789474 
L 36.287475 58.021668 
L 34.688632 58.685157 
L 33.089788 59.348646 
L 31.490944 60.012135 
L 29.8921 60.675624 
L 28.293257 61.339113 
L 26.694413 62.002602 
L 25.095569 62.666091 
L 23.496725 63.329579 
L 22.077108 64.101483 
L 20.65749 64.873387 
L 19.237873 65.645291 
L 17.818255 66.417195 
L 16.398638 67.189098 
L 14.979021 67.961002 
L 13.559403 68.732906 
L 12.139786 69.50481 
" style="fill:none;stroke:#4169e1;stroke-linecap:square;stroke-width:1.5;"/>
   </g>
   <g id="line2d_4">
    <path clip-path="url(#p116beded84)" d="M 37.058967 11.115765 
L 35.735786 11.278324 
L 34.412605 11.440884 
L 33.089424 11.603443 
L 31.766243 11.766002 
L 30.181228 12.226418 
L 28.596213 12.686834 
L 27.011198 13.14725 
L 25.426182 13.607667 
L 23.841167 14.068083 
L 22.256152 14.528499 
L 20.671137 14.988915 
L 19.086122 15.449331 
L 18.727851 16.722165 
L 18.369581 17.994998 
L 18.01131 19.267832 
L 17.65304 20.540665 
L 17.294769 21.813499 
L 16.936499 23.086332 
L 16.578228 24.359166 
L 16.219958 25.631999 
L 15.6135 26.593345 
L 15.007042 27.554691 
L 14.400584 28.516037 
L 13.794126 29.477383 
L 13.187668 30.438728 
L 12.58121 31.400074 
L 11.974752 32.36142 
L 11.368294 33.322766 
L 11.175421 34.514446 
L 10.982548 35.706126 
L 10.789675 36.897806 
L 10.596802 38.089486 
L 11.230735 39.091598 
L 11.864669 40.09371 
L 12.498602 41.095822 
L 13.132535 42.097934 
L 12.58121 43.5332 
L 12.029884 44.968467 
L 11.478559 46.403733 
L 10.927234 47.839 
L 9.604053 49.138969 
L 8.280871 50.438938 
L 7.674414 51.522203 
L 7.067956 52.605468 
L 6.461498 53.688733 
L 5.85504 54.771999 
L 5.248582 55.855264 
L 4.642124 56.938529 
L 4.035666 58.021794 
L 3.429208 59.10506 
L 3.208678 60.13418 
L 2.988147 61.163301 
L 2.767617 62.192422 
L 2.547087 63.221543 
L 2.657352 64.71108 
L 2.767617 66.200617 
L 2.877882 67.690154 
L 2.988147 69.179691 
L 3.263628 70.42539 
L 3.539109 71.671088 
L 3.81459 72.916786 
L 4.09007 74.162484 
" style="fill:none;stroke:#4169e1;stroke-linecap:square;stroke-width:1.5;"/>
   </g>
   <g id="line2d_5">
    <path clip-path="url(#p116beded84)" d="M 42.351691 13.823739 
L 41.545446 14.541435 
L 40.739201 15.259132 
L 39.932955 15.976828 
L 39.12671 16.694524 
L 38.320465 17.412221 
L 37.51422 18.129917 
L 36.707975 18.847614 
L 35.901729 19.56531 
L 35.095484 20.283006 
L 34.289239 21.000703 
L 33.482994 21.718399 
L 32.676749 22.436095 
L 31.870503 23.153792 
L 31.064258 23.871488 
L 30.258013 24.589184 
L 29.451768 25.306881 
L 28.783263 26.42397 
L 28.114758 27.54106 
L 27.446253 28.65815 
L 26.777749 29.77524 
L 26.109244 30.892329 
L 25.440739 32.009419 
L 24.772234 33.126509 
L 24.103729 34.243598 
L 23.435224 35.360688 
L 22.76672 36.477778 
L 22.098215 37.594867 
L 21.42971 38.711957 
L 20.761205 39.829047 
L 20.0927 40.946136 
L 19.424195 42.063226 
L 18.755691 43.180316 
L 17.949354 44.3855 
L 17.143018 45.590685 
L 16.336682 46.79587 
L 15.530346 48.001054 
L 14.72401 49.206239 
L 13.917674 50.411424 
L 13.111337 51.616608 
L 12.305001 52.821793 
L 11.498665 54.026978 
L 10.692329 55.232162 
L 9.885993 56.437347 
L 9.079657 57.642532 
L 8.27332 58.847716 
L 7.466984 60.052901 
L 6.660648 61.258086 
L 5.854312 62.46327 
L 5.771704 63.695464 
L 5.689096 64.927658 
L 5.606488 66.159851 
L 5.52388 67.392045 
L 5.441273 68.624239 
L 5.358665 69.856432 
L 5.276057 71.088626 
L 5.193449 72.32082 
" style="fill:none;stroke:#4169e1;stroke-linecap:square;stroke-width:1.5;"/>
   </g>
   <g id="text_1">
    <g id="patch_2">
     <path d="M 33.170451 36.989897 
L 39.508535 22.708798 
L 37.70276 21.907379 
L 31.364676 36.188478 
z
" style="fill:#ffffff;"/>
    </g>
    <!-- Main Trail 16.3° -->
    <g style="fill:#008000;" transform="translate(32.780105 36.794777)rotate(-66.067909)scale(0.02 -0.02)">
     <defs>
      <path d="M 628 4666 
L 1569 4666 
L 2759 1491 
L 3956 4666 
L 4897 4666 
L 4897 0 
L 4281 0 
L 4281 4097 
L 3078 897 
L 2444 897 
L 1241 4097 
L 1241 0 
L 628 0 
L 628 4666 
z
" id="DejaVuSans-4d" transform="scale(0.015625)"/>
      <path d="M 2194 1759 
Q 1497 1759 1228 1600 
Q 959 1441 959 1056 
Q 959 750 1161 570 
Q 1363 391 1709 391 
Q 2188 391 2477 730 
Q 2766 1069 2766 1631 
L 2766 1759 
L 2194 1759 
z
M 3341 1997 
L 3341 0 
L 2766 0 
L 2766 531 
Q 2569 213 2275 61 
Q 1981 -91 1556 -91 
Q 1019 -91 701 211 
Q 384 513 384 1019 
Q 384 1609 779 1909 
Q 1175 2209 1959 2209 
L 2766 2209 
L 2766 2266 
Q 2766 2663 2505 2880 
Q 2244 3097 1772 3097 
Q 1472 3097 1187 3025 
Q 903 2953 641 2809 
L 641 3341 
Q 956 3463 1253 3523 
Q 1550 3584 1831 3584 
Q 2591 3584 2966 3190 
Q 3341 2797 3341 1997 
z
" id="DejaVuSans-61" transform="scale(0.015625)"/>
      <path d="M 603 3500 
L 1178 3500 
L 1178 0 
L 603 0 
L 603 3500 
z
M 603 4863 
L 1178 4863 
L 1178 4134 
L 603 4134 
L 603 4863 
z
" id="DejaVuSans-69" transform="scale(0.015625)"/>
      <path d="M 3513 2113 
L 3513 0 
L 2938 0 
L 2938 2094 
Q 2938 2591 2744 2837 
Q 2550 3084 2163 3084 
Q 1697 3084 1428 2787 
Q 1159 2491 1159 1978 
L 1159 0 
L 581 0 
L 581 3500 
L 1159 3500 
L 1159 2956 
Q 1366 3272 1645 3428 
Q 1925 3584 2291 3584 
Q 2894 3584 3203 3211 
Q 3513 2838 3513 2113 
z
" id="DejaVuSans-6e" transform="scale(0.015625)"/>
      <path id="DejaVuSans-20" transform="scale(0.015625)"/>
      <path d="M -19 4666 
L 3928 4666 
L 3928 4134 
L 2272 4134 
L 2272 0 
L 1638 0 
L 1638 4134 
L -19 4134 
L -19 4666 
z
" id="DejaVuSans-54" transform="scale(0.015625)"/>
      <path d="M 2631 2963 
Q 2534 3019 2420 3045 
Q 2306 3072 2169 3072 
Q 1681 3072 1420 2755 
Q 1159 2438 1159 1844 
L 1159 0 
L 581 0 
L 581 3500 
L 1159 3500 
L 1159 2956 
Q 1341 3275 1631 3429 
Q 1922 3584 2338 3584 
Q 2397 3584 2469 3576 
Q 2541 3569 2628 3553 
L 2631 2963 
z
" id="DejaVuSans-72" transform="scale(0.015625)"/>
      <path d="M 603 4863 
L 1178 4863 
L 1178 0 
L 603 0 
L 603 4863 
z
" id="DejaVuSans-6c" transform="scale(0.015625)"/>
      <path d="M 794 531 
L 1825 531 
L 1825 4091 
L 703 3866 
L 703 4441 
L 1819 4666 
L 2450 4666 
L 2450 531 
L 3481 531 
L 3481 0 
L 794 0 
L 794 531 
z
" id="DejaVuSans-31" transform="scale(0.015625)"/>
      <path d="M 2113 2584 
Q 1688 2584 1439 2293 
Q 1191 2003 1191 1497 
Q 1191 994 1439 701 
Q 1688 409 2113 409 
Q 2538 409 2786 701 
Q 3034 994 3034 1497 
Q 3034 2003 2786 2293 
Q 2538 2584 2113 2584 
z
M 3366 4563 
L 3366 3988 
Q 3128 4100 2886 4159 
Q 2644 4219 2406 4219 
Q 1781 4219 1451 3797 
Q 1122 3375 1075 2522 
Q 1259 2794 1537 2939 
Q 1816 3084 2150 3084 
Q 2853 3084 3261 2657 
Q 3669 2231 3669 1497 
Q 3669 778 3244 343 
Q 2819 -91 2113 -91 
Q 1303 -91 875 529 
Q 447 1150 447 2328 
Q 447 3434 972 4092 
Q 1497 4750 2381 4750 
Q 2619 4750 2861 4703 
Q 3103 4656 3366 4563 
z
" id="DejaVuSans-36" transform="scale(0.015625)"/>
      <path d="M 684 794 
L 1344 794 
L 1344 0 
L 684 0 
L 684 794 
z
" id="DejaVuSans-2e" transform="scale(0.015625)"/>
      <path d="M 2597 2516 
Q 3050 2419 3304 2112 
Q 3559 1806 3559 1356 
Q 3559 666 3084 287 
Q 2609 -91 1734 -91 
Q 1441 -91 1130 -33 
Q 819 25 488 141 
L 488 750 
Q 750 597 1062 519 
Q 1375 441 1716 441 
Q 2309 441 2620 675 
Q 2931 909 2931 1356 
Q 2931 1769 2642 2001 
Q 2353 2234 1838 2234 
L 1294 2234 
L 1294 2753 
L 1863 2753 
Q 2328 2753 2575 2939 
Q 2822 3125 2822 3475 
Q 2822 3834 2567 4026 
Q 2313 4219 1838 4219 
Q 1578 4219 1281 4162 
Q 984 4106 628 3988 
L 628 4550 
Q 988 4650 1302 4700 
Q 1616 4750 1894 4750 
Q 2613 4750 3031 4423 
Q 3450 4097 3450 3541 
Q 3450 3153 3228 2886 
Q 3006 2619 2597 2516 
z
" id="DejaVuSans-33" transform="scale(0.015625)"/>
      <path d="M 1600 4347 
Q 1350 4347 1178 4173 
Q 1006 4000 1006 3750 
Q 1006 3503 1178 3333 
Q 1350 3163 1600 3163 
Q 1850 3163 2022 3333 
Q 2194 3503 2194 3750 
Q 2194 3997 2020 4172 
Q 1847 4347 1600 4347 
z
M 1600 4750 
Q 1800 4750 1984 4673 
Q 2169 4597 2303 4453 
Q 2447 4313 2519 4134 
Q 2591 3956 2591 3750 
Q 2591 3338 2302 3052 
Q 2013 2766 1594 2766 
Q 1172 2766 890 3047 
Q 609 3328 609 3750 
Q 609 4169 896 4459 
Q 1184 4750 1600 4750 
z
" id="DejaVuSans-b0" transform="scale(0.015625)"/>
     </defs>
     <use xlink:href="#DejaVuSans-4d"/>
     <use x="86.279297" xlink:href="#DejaVuSans-61"/>
     <use x="147.558594" xlink:href="#DejaVuSans-69"/>
     <use x="175.341797" xlink:href="#DejaVuSans-6e"/>
     <use x="238.720703" xlink:href="#DejaVuSans-20"/>
     <use x="270.507812" xlink:href="#DejaVuSans-54"/>
     <use x="316.841797" xlink:href="#DejaVuSans-72"/>
     <use x="357.955078" xlink:href="#DejaVuSans-61"/>
     <use x="419.234375" xlink:href="#DejaVuSans-69"/>
     <use x="447.017578" xlink:href="#DejaVuSans-6c"/>
     <use x="474.800781" xlink:href="#DejaVuSans-20"/>
     <use x="506.587891" xlink:href="#DejaVuSans-31"/>
     <use x="570.210938" xlink:href="#DejaVuSans-36"/>
     <use x="633.833984" xlink:href="#DejaVuSans-2e"/>
     <use x="665.621094" xlink:href="#DejaVuSans-33"/>
     <use x="729.244141" xlink:href="#DejaVuSans-b0"/>
    </g>
   </g>
   <g id="text_2">
    <g id="patch_3">
     <path d="M 28.225137 55.063477 
L 36.719395 45.2364 
L 35.224741 43.944462 
L 26.730483 53.771539 
z
" style="fill:#ffffff;"/>
    </g>
    <!-- Wedge 17.5° -->
    <g style="fill:#4169e1;" transform="translate(27.908408 54.76327)rotate(-49.160756)scale(0.02 -0.02)">
     <defs>
      <path d="M 213 4666 
L 850 4666 
L 1831 722 
L 2809 4666 
L 3519 4666 
L 4500 722 
L 5478 4666 
L 6119 4666 
L 4947 0 
L 4153 0 
L 3169 4050 
L 2175 0 
L 1381 0 
L 213 4666 
z
" id="DejaVuSans-57" transform="scale(0.015625)"/>
      <path d="M 3597 1894 
L 3597 1613 
L 953 1613 
Q 991 1019 1311 708 
Q 1631 397 2203 397 
Q 2534 397 2845 478 
Q 3156 559 3463 722 
L 3463 178 
Q 3153 47 2828 -22 
Q 2503 -91 2169 -91 
Q 1331 -91 842 396 
Q 353 884 353 1716 
Q 353 2575 817 3079 
Q 1281 3584 2069 3584 
Q 2775 3584 3186 3129 
Q 3597 2675 3597 1894 
z
M 3022 2063 
Q 3016 2534 2758 2815 
Q 2500 3097 2075 3097 
Q 1594 3097 1305 2825 
Q 1016 2553 972 2059 
L 3022 2063 
z
" id="DejaVuSans-65" transform="scale(0.015625)"/>
      <path d="M 2906 2969 
L 2906 4863 
L 3481 4863 
L 3481 0 
L 2906 0 
L 2906 525 
Q 2725 213 2448 61 
Q 2172 -91 1784 -91 
Q 1150 -91 751 415 
Q 353 922 353 1747 
Q 353 2572 751 3078 
Q 1150 3584 1784 3584 
Q 2172 3584 2448 3432 
Q 2725 3281 2906 2969 
z
M 947 1747 
Q 947 1113 1208 752 
Q 1469 391 1925 391 
Q 2381 391 2643 752 
Q 2906 1113 2906 1747 
Q 2906 2381 2643 2742 
Q 2381 3103 1925 3103 
Q 1469 3103 1208 2742 
Q 947 2381 947 1747 
z
" id="DejaVuSans-64" transform="scale(0.015625)"/>
      <path d="M 2906 1791 
Q 2906 2416 2648 2759 
Q 2391 3103 1925 3103 
Q 1463 3103 1205 2759 
Q 947 2416 947 1791 
Q 947 1169 1205 825 
Q 1463 481 1925 481 
Q 2391 481 2648 825 
Q 2906 1169 2906 1791 
z
M 3481 434 
Q 3481 -459 3084 -895 
Q 2688 -1331 1869 -1331 
Q 1566 -1331 1297 -1286 
Q 1028 -1241 775 -1147 
L 775 -588 
Q 1028 -725 1275 -790 
Q 1522 -856 1778 -856 
Q 2344 -856 2625 -561 
Q 2906 -266 2906 331 
L 2906 616 
Q 2728 306 2450 153 
Q 2172 0 1784 0 
Q 1141 0 747 490 
Q 353 981 353 1791 
Q 353 2603 747 3093 
Q 1141 3584 1784 3584 
Q 2172 3584 2450 3431 
Q 2728 3278 2906 2969 
L 2906 3500 
L 3481 3500 
L 3481 434 
z
" id="DejaVuSans-67" transform="scale(0.015625)"/>
      <path d="M 525 4666 
L 3525 4666 
L 3525 4397 
L 1831 0 
L 1172 0 
L 2766 4134 
L 525 4134 
L 525 4666 
z
" id="DejaVuSans-37" transform="scale(0.015625)"/>
      <path d="M 691 4666 
L 3169 4666 
L 3169 4134 
L 1269 4134 
L 1269 2991 
Q 1406 3038 1543 3061 
Q 1681 3084 1819 3084 
Q 2600 3084 3056 2656 
Q 3513 2228 3513 1497 
Q 3513 744 3044 326 
Q 2575 -91 1722 -91 
Q 1428 -91 1123 -41 
Q 819 9 494 109 
L 494 744 
Q 775 591 1075 516 
Q 1375 441 1709 441 
Q 2250 441 2565 725 
Q 2881 1009 2881 1497 
Q 2881 1984 2565 2268 
Q 2250 2553 1709 2553 
Q 1456 2553 1204 2497 
Q 953 2441 691 2322 
L 691 4666 
z
" id="DejaVuSans-35" transform="scale(0.015625)"/>
     </defs>
     <use xlink:href="#DejaVuSans-57"/>
     <use x="93.001953" xlink:href="#DejaVuSans-65"/>
     <use x="154.525391" xlink:href="#DejaVuSans-64"/>
     <use x="218.001953" xlink:href="#DejaVuSans-67"/>
     <use x="281.478516" xlink:href="#DejaVuSans-65"/>
     <use x="343.001953" xlink:href="#DejaVuSans-20"/>
     <use x="374.789062" xlink:href="#DejaVuSans-31"/>
     <use x="438.412109" xlink:href="#DejaVuSans-37"/>
     <use x="502.035156" xlink:href="#DejaVuSans-2e"/>
     <use x="533.822266" xlink:href="#DejaVuSans-35"/>
     <use x="597.445312" xlink:href="#DejaVuSans-b0"/>
    </g>
   </g>
   <g id="text_3">
    <g id="patch_4">
     <path d="M 18.653065 67.671548 
L 32.552367 59.35601 
L 31.538073 57.660633 
L 17.638771 65.976171 
z
" style="fill:#ffffff;"/>
    </g>
    <!-- Buckshaw 18.9° -->
    <g style="fill:#4169e1;" transform="translate(18.446416 67.287181)rotate(-30.890825)scale(0.02 -0.02)">
     <defs>
      <path d="M 1259 2228 
L 1259 519 
L 2272 519 
Q 2781 519 3026 730 
Q 3272 941 3272 1375 
Q 3272 1813 3026 2020 
Q 2781 2228 2272 2228 
L 1259 2228 
z
M 1259 4147 
L 1259 2741 
L 2194 2741 
Q 2656 2741 2882 2914 
Q 3109 3088 3109 3444 
Q 3109 3797 2882 3972 
Q 2656 4147 2194 4147 
L 1259 4147 
z
M 628 4666 
L 2241 4666 
Q 2963 4666 3353 4366 
Q 3744 4066 3744 3513 
Q 3744 3084 3544 2831 
Q 3344 2578 2956 2516 
Q 3422 2416 3680 2098 
Q 3938 1781 3938 1306 
Q 3938 681 3513 340 
Q 3088 0 2303 0 
L 628 0 
L 628 4666 
z
" id="DejaVuSans-42" transform="scale(0.015625)"/>
      <path d="M 544 1381 
L 544 3500 
L 1119 3500 
L 1119 1403 
Q 1119 906 1312 657 
Q 1506 409 1894 409 
Q 2359 409 2629 706 
Q 2900 1003 2900 1516 
L 2900 3500 
L 3475 3500 
L 3475 0 
L 2900 0 
L 2900 538 
Q 2691 219 2414 64 
Q 2138 -91 1772 -91 
Q 1169 -91 856 284 
Q 544 659 544 1381 
z
M 1991 3584 
L 1991 3584 
z
" id="DejaVuSans-75" transform="scale(0.015625)"/>
      <path d="M 3122 3366 
L 3122 2828 
Q 2878 2963 2633 3030 
Q 2388 3097 2138 3097 
Q 1578 3097 1268 2742 
Q 959 2388 959 1747 
Q 959 1106 1268 751 
Q 1578 397 2138 397 
Q 2388 397 2633 464 
Q 2878 531 3122 666 
L 3122 134 
Q 2881 22 2623 -34 
Q 2366 -91 2075 -91 
Q 1284 -91 818 406 
Q 353 903 353 1747 
Q 353 2603 823 3093 
Q 1294 3584 2113 3584 
Q 2378 3584 2631 3529 
Q 2884 3475 3122 3366 
z
" id="DejaVuSans-63" transform="scale(0.015625)"/>
      <path d="M 581 4863 
L 1159 4863 
L 1159 1991 
L 2875 3500 
L 3609 3500 
L 1753 1863 
L 3688 0 
L 2938 0 
L 1159 1709 
L 1159 0 
L 581 0 
L 581 4863 
z
" id="DejaVuSans-6b" transform="scale(0.015625)"/>
      <path d="M 2834 3397 
L 2834 2853 
Q 2591 2978 2328 3040 
Q 2066 3103 1784 3103 
Q 1356 3103 1142 2972 
Q 928 2841 928 2578 
Q 928 2378 1081 2264 
Q 1234 2150 1697 2047 
L 1894 2003 
Q 2506 1872 2764 1633 
Q 3022 1394 3022 966 
Q 3022 478 2636 193 
Q 2250 -91 1575 -91 
Q 1294 -91 989 -36 
Q 684 19 347 128 
L 347 722 
Q 666 556 975 473 
Q 1284 391 1588 391 
Q 1994 391 2212 530 
Q 2431 669 2431 922 
Q 2431 1156 2273 1281 
Q 2116 1406 1581 1522 
L 1381 1569 
Q 847 1681 609 1914 
Q 372 2147 372 2553 
Q 372 3047 722 3315 
Q 1072 3584 1716 3584 
Q 2034 3584 2315 3537 
Q 2597 3491 2834 3397 
z
" id="DejaVuSans-73" transform="scale(0.015625)"/>
      <path d="M 3513 2113 
L 3513 0 
L 2938 0 
L 2938 2094 
Q 2938 2591 2744 2837 
Q 2550 3084 2163 3084 
Q 1697 3084 1428 2787 
Q 1159 2491 1159 1978 
L 1159 0 
L 581 0 
L 581 4863 
L 1159 4863 
L 1159 2956 
Q 1366 3272 1645 3428 
Q 1925 3584 2291 3584 
Q 2894 3584 3203 3211 
Q 3513 2838 3513 2113 
z
" id="DejaVuSans-68" transform="scale(0.015625)"/>
      <path d="M 269 3500 
L 844 3500 
L 1563 769 
L 2278 3500 
L 2956 3500 
L 3675 769 
L 4391 3500 
L 4966 3500 
L 4050 0 
L 3372 0 
L 2619 2869 
L 1863 0 
L 1184 0 
L 269 3500 
z
" id="DejaVuSans-77" transform="scale(0.015625)"/>
      <path d="M 2034 2216 
Q 1584 2216 1326 1975 
Q 1069 1734 1069 1313 
Q 1069 891 1326 650 
Q 1584 409 2034 409 
Q 2484 409 2743 651 
Q 3003 894 3003 1313 
Q 3003 1734 2745 1975 
Q 2488 2216 2034 2216 
z
M 1403 2484 
Q 997 2584 770 2862 
Q 544 3141 544 3541 
Q 544 4100 942 4425 
Q 1341 4750 2034 4750 
Q 2731 4750 3128 4425 
Q 3525 4100 3525 3541 
Q 3525 3141 3298 2862 
Q 3072 2584 2669 2484 
Q 3125 2378 3379 2068 
Q 3634 1759 3634 1313 
Q 3634 634 3220 271 
Q 2806 -91 2034 -91 
Q 1263 -91 848 271 
Q 434 634 434 1313 
Q 434 1759 690 2068 
Q 947 2378 1403 2484 
z
M 1172 3481 
Q 1172 3119 1398 2916 
Q 1625 2713 2034 2713 
Q 2441 2713 2670 2916 
Q 2900 3119 2900 3481 
Q 2900 3844 2670 4047 
Q 2441 4250 2034 4250 
Q 1625 4250 1398 4047 
Q 1172 3844 1172 3481 
z
" id="DejaVuSans-38" transform="scale(0.015625)"/>
      <path d="M 703 97 
L 703 672 
Q 941 559 1184 500 
Q 1428 441 1663 441 
Q 2288 441 2617 861 
Q 2947 1281 2994 2138 
Q 2813 1869 2534 1725 
Q 2256 1581 1919 1581 
Q 1219 1581 811 2004 
Q 403 2428 403 3163 
Q 403 3881 828 4315 
Q 1253 4750 1959 4750 
Q 2769 4750 3195 4129 
Q 3622 3509 3622 2328 
Q 3622 1225 3098 567 
Q 2575 -91 1691 -91 
Q 1453 -91 1209 -44 
Q 966 3 703 97 
z
M 1959 2075 
Q 2384 2075 2632 2365 
Q 2881 2656 2881 3163 
Q 2881 3666 2632 3958 
Q 2384 4250 1959 4250 
Q 1534 4250 1286 3958 
Q 1038 3666 1038 3163 
Q 1038 2656 1286 2365 
Q 1534 2075 1959 2075 
z
" id="DejaVuSans-39" transform="scale(0.015625)"/>
     </defs>
     <use xlink:href="#DejaVuSans-42"/>
     <use x="68.603516" xlink:href="#DejaVuSans-75"/>
     <use x="131.982422" xlink:href="#DejaVuSans-63"/>
     <use x="186.962891" xlink:href="#DejaVuSans-6b"/>
     <use x="244.873047" xlink:href="#DejaVuSans-73"/>
     <use x="296.972656" xlink:href="#DejaVuSans-68"/>
     <use x="360.351562" xlink:href="#DejaVuSans-61"/>
     <use x="421.630859" xlink:href="#DejaVuSans-77"/>
     <use x="503.417969" xlink:href="#DejaVuSans-20"/>
     <use x="535.205078" xlink:href="#DejaVuSans-31"/>
     <use x="598.828125" xlink:href="#DejaVuSans-38"/>
     <use x="662.451172" xlink:href="#DejaVuSans-2e"/>
     <use x="694.238281" xlink:href="#DejaVuSans-39"/>
     <use x="757.861328" xlink:href="#DejaVuSans-b0"/>
    </g>
   </g>
   <g id="text_4">
    <g id="patch_5">
     <path d="M 20.223874 16.857229 
L 31.391628 12.180387 
L 30.62849 10.358104 
L 19.460737 15.034946 
z
" style="fill:#ffffff;"/>
    </g>
    <!-- Sluice 18.6° -->
    <g style="fill:#4169e1;" transform="translate(20.07393 16.447402)rotate(-22.723002)scale(0.02 -0.02)">
     <defs>
      <path d="M 3425 4513 
L 3425 3897 
Q 3066 4069 2747 4153 
Q 2428 4238 2131 4238 
Q 1616 4238 1336 4038 
Q 1056 3838 1056 3469 
Q 1056 3159 1242 3001 
Q 1428 2844 1947 2747 
L 2328 2669 
Q 3034 2534 3370 2195 
Q 3706 1856 3706 1288 
Q 3706 609 3251 259 
Q 2797 -91 1919 -91 
Q 1588 -91 1214 -16 
Q 841 59 441 206 
L 441 856 
Q 825 641 1194 531 
Q 1563 422 1919 422 
Q 2459 422 2753 634 
Q 3047 847 3047 1241 
Q 3047 1584 2836 1778 
Q 2625 1972 2144 2069 
L 1759 2144 
Q 1053 2284 737 2584 
Q 422 2884 422 3419 
Q 422 4038 858 4394 
Q 1294 4750 2059 4750 
Q 2388 4750 2728 4690 
Q 3069 4631 3425 4513 
z
" id="DejaVuSans-53" transform="scale(0.015625)"/>
     </defs>
     <use xlink:href="#DejaVuSans-53"/>
     <use x="63.476562" xlink:href="#DejaVuSans-6c"/>
     <use x="91.259766" xlink:href="#DejaVuSans-75"/>
     <use x="154.638672" xlink:href="#DejaVuSans-69"/>
     <use x="182.421875" xlink:href="#DejaVuSans-63"/>
     <use x="237.402344" xlink:href="#DejaVuSans-65"/>
     <use x="298.925781" xlink:href="#DejaVuSans-20"/>
     <use x="330.712891" xlink:href="#DejaVuSans-31"/>
     <use x="394.335938" xlink:href="#DejaVuSans-38"/>
     <use x="457.958984" xlink:href="#DejaVuSans-2e"/>
     <use x="489.746094" xlink:href="#DejaVuSans-36"/>
     <use x="553.369141" xlink:href="#DejaVuSans-b0"/>
    </g>
   </g>
   <g id="text_5">
    <g id="patch_6">
     <path d="M 30.249218 27.792566 
L 39.887639 15.42315 
L 38.32926 14.20884 
L 28.690839 26.578255 
z
" style="fill:#ffffff;"/>
    </g>
    <!-- Body Bag 22.7° -->
    <g style="fill:#4169e1;" transform="translate(29.917642 27.508842)rotate(-52.073782)scale(0.02 -0.02)">
     <defs>
      <path d="M 1959 3097 
Q 1497 3097 1228 2736 
Q 959 2375 959 1747 
Q 959 1119 1226 758 
Q 1494 397 1959 397 
Q 2419 397 2687 759 
Q 2956 1122 2956 1747 
Q 2956 2369 2687 2733 
Q 2419 3097 1959 3097 
z
M 1959 3584 
Q 2709 3584 3137 3096 
Q 3566 2609 3566 1747 
Q 3566 888 3137 398 
Q 2709 -91 1959 -91 
Q 1206 -91 779 398 
Q 353 888 353 1747 
Q 353 2609 779 3096 
Q 1206 3584 1959 3584 
z
" id="DejaVuSans-6f" transform="scale(0.015625)"/>
      <path d="M 2059 -325 
Q 1816 -950 1584 -1140 
Q 1353 -1331 966 -1331 
L 506 -1331 
L 506 -850 
L 844 -850 
Q 1081 -850 1212 -737 
Q 1344 -625 1503 -206 
L 1606 56 
L 191 3500 
L 800 3500 
L 1894 763 
L 2988 3500 
L 3597 3500 
L 2059 -325 
z
" id="DejaVuSans-79" transform="scale(0.015625)"/>
      <path d="M 1228 531 
L 3431 531 
L 3431 0 
L 469 0 
L 469 531 
Q 828 903 1448 1529 
Q 2069 2156 2228 2338 
Q 2531 2678 2651 2914 
Q 2772 3150 2772 3378 
Q 2772 3750 2511 3984 
Q 2250 4219 1831 4219 
Q 1534 4219 1204 4116 
Q 875 4013 500 3803 
L 500 4441 
Q 881 4594 1212 4672 
Q 1544 4750 1819 4750 
Q 2544 4750 2975 4387 
Q 3406 4025 3406 3419 
Q 3406 3131 3298 2873 
Q 3191 2616 2906 2266 
Q 2828 2175 2409 1742 
Q 1991 1309 1228 531 
z
" id="DejaVuSans-32" transform="scale(0.015625)"/>
     </defs>
     <use xlink:href="#DejaVuSans-42"/>
     <use x="68.603516" xlink:href="#DejaVuSans-6f"/>
     <use x="129.785156" xlink:href="#DejaVuSans-64"/>
     <use x="193.261719" xlink:href="#DejaVuSans-79"/>
     <use x="252.441406" xlink:href="#DejaVuSans-20"/>
     <use x="284.228516" xlink:href="#DejaVuSans-42"/>
     <use x="352.832031" xlink:href="#DejaVuSans-61"/>
     <use x="414.111328" xlink:href="#DejaVuSans-67"/>
     <use x="477.587891" xlink:href="#DejaVuSans-20"/>
     <use x="509.375" xlink:href="#DejaVuSans-32"/>
     <use x="572.998047" xlink:href="#DejaVuSans-32"/>
     <use x="636.621094" xlink:href="#DejaVuSans-2e"/>
     <use x="668.408203" xlink:href="#DejaVuSans-37"/>
     <use x="732.03125" xlink:href="#DejaVuSans-b0"/>
    </g>
   </g>
   <g id="text_6">
    <!-- Barker Mountain -->
    <g transform="translate(7.378895 5.344286)scale(0.05 -0.05)">
     <defs>
      <path d="M 1172 4494 
L 1172 3500 
L 2356 3500 
L 2356 3053 
L 1172 3053 
L 1172 1153 
Q 1172 725 1289 603 
Q 1406 481 1766 481 
L 2356 481 
L 2356 0 
L 1766 0 
Q 1100 0 847 248 
Q 594 497 594 1153 
L 594 3053 
L 172 3053 
L 172 3500 
L 594 3500 
L 594 4494 
L 1172 4494 
z
" id="DejaVuSans-74" transform="scale(0.015625)"/>
     </defs>
     <use xlink:href="#DejaVuSans-42"/>
     <use x="68.603516" xlink:href="#DejaVuSans-61"/>
     <use x="129.882812" xlink:href="#DejaVuSans-72"/>
     <use x="170.996094" xlink:href="#DejaVuSans-6b"/>
     <use x="225.28125" xlink:href="#DejaVuSans-65"/>
     <use x="286.804688" xlink:href="#DejaVuSans-72"/>
     <use x="327.917969" xlink:href="#DejaVuSans-20"/>
     <use x="359.705078" xlink:href="#DejaVuSans-4d"/>
     <use x="445.984375" xlink:href="#DejaVuSans-6f"/>
     <use x="507.166016" xlink:href="#DejaVuSans-75"/>
     <use x="570.544922" xlink:href="#DejaVuSans-6e"/>
     <use x="633.923828" xlink:href="#DejaVuSans-74"/>
     <use x="673.132812" xlink:href="#DejaVuSans-61"/>
     <use x="734.412109" xlink:href="#DejaVuSans-69"/>
     <use x="762.195312" xlink:href="#DejaVuSans-6e"/>
    </g>
   </g>
  </g>
  <g id="text_7">
   <!-- Sources: USGS and OpenStreetMaps -->
   <g transform="translate(8.187625 87.208999)scale(0.021739 -0.021739)">
    <defs>
     <path d="M 750 794 
L 1409 794 
L 1409 0 
L 750 0 
L 750 794 
z
M 750 3309 
L 1409 3309 
L 1409 2516 
L 750 2516 
L 750 3309 
z
" id="DejaVuSans-3a" transform="scale(0.015625)"/>
     <path d="M 556 4666 
L 1191 4666 
L 1191 1831 
Q 1191 1081 1462 751 
Q 1734 422 2344 422 
Q 2950 422 3222 751 
Q 3494 1081 3494 1831 
L 3494 4666 
L 4128 4666 
L 4128 1753 
Q 4128 841 3676 375 
Q 3225 -91 2344 -91 
Q 1459 -91 1007 375 
Q 556 841 556 1753 
L 556 4666 
z
" id="DejaVuSans-55" transform="scale(0.015625)"/>
     <path d="M 3809 666 
L 3809 1919 
L 2778 1919 
L 2778 2438 
L 4434 2438 
L 4434 434 
Q 4069 175 3628 42 
Q 3188 -91 2688 -91 
Q 1594 -91 976 548 
Q 359 1188 359 2328 
Q 359 3472 976 4111 
Q 1594 4750 2688 4750 
Q 3144 4750 3555 4637 
Q 3966 4525 4313 4306 
L 4313 3634 
Q 3963 3931 3569 4081 
Q 3175 4231 2741 4231 
Q 1884 4231 1454 3753 
Q 1025 3275 1025 2328 
Q 1025 1384 1454 906 
Q 1884 428 2741 428 
Q 3075 428 3337 486 
Q 3600 544 3809 666 
z
" id="DejaVuSans-47" transform="scale(0.015625)"/>
     <path d="M 2522 4238 
Q 1834 4238 1429 3725 
Q 1025 3213 1025 2328 
Q 1025 1447 1429 934 
Q 1834 422 2522 422 
Q 3209 422 3611 934 
Q 4013 1447 4013 2328 
Q 4013 3213 3611 3725 
Q 3209 4238 2522 4238 
z
M 2522 4750 
Q 3503 4750 4090 4092 
Q 4678 3434 4678 2328 
Q 4678 1225 4090 567 
Q 3503 -91 2522 -91 
Q 1538 -91 948 565 
Q 359 1222 359 2328 
Q 359 3434 948 4092 
Q 1538 4750 2522 4750 
z
" id="DejaVuSans-4f" transform="scale(0.015625)"/>
     <path d="M 1159 525 
L 1159 -1331 
L 581 -1331 
L 581 3500 
L 1159 3500 
L 1159 2969 
Q 1341 3281 1617 3432 
Q 1894 3584 2278 3584 
Q 2916 3584 3314 3078 
Q 3713 2572 3713 1747 
Q 3713 922 3314 415 
Q 2916 -91 2278 -91 
Q 1894 -91 1617 61 
Q 1341 213 1159 525 
z
M 3116 1747 
Q 3116 2381 2855 2742 
Q 2594 3103 2138 3103 
Q 1681 3103 1420 2742 
Q 1159 2381 1159 1747 
Q 1159 1113 1420 752 
Q 1681 391 2138 391 
Q 2594 391 2855 752 
Q 3116 1113 3116 1747 
z
" id="DejaVuSans-70" transform="scale(0.015625)"/>
    </defs>
    <use xlink:href="#DejaVuSans-53"/>
    <use x="63.476562" xlink:href="#DejaVuSans-6f"/>
    <use x="124.658203" xlink:href="#DejaVuSans-75"/>
    <use x="188.037109" xlink:href="#DejaVuSans-72"/>
    <use x="226.900391" xlink:href="#DejaVuSans-63"/>
    <use x="281.880859" xlink:href="#DejaVuSans-65"/>
    <use x="343.404297" xlink:href="#DejaVuSans-73"/>
    <use x="395.503906" xlink:href="#DejaVuSans-3a"/>
    <use x="429.195312" xlink:href="#DejaVuSans-20"/>
    <use x="460.982422" xlink:href="#DejaVuSans-55"/>
    <use x="534.175781" xlink:href="#DejaVuSans-53"/>
    <use x="597.652344" xlink:href="#DejaVuSans-47"/>
    <use x="675.142578" xlink:href="#DejaVuSans-53"/>
    <use x="738.619141" xlink:href="#DejaVuSans-20"/>
    <use x="770.40625" xlink:href="#DejaVuSans-61"/>
    <use x="831.685547" xlink:href="#DejaVuSans-6e"/>
    <use x="895.064453" xlink:href="#DejaVuSans-64"/>
    <use x="958.541016" xlink:href="#DejaVuSans-20"/>
    <use x="990.328125" xlink:href="#DejaVuSans-4f"/>
    <use x="1069.039062" xlink:href="#DejaVuSans-70"/>
    <use x="1132.515625" xlink:href="#DejaVuSans-65"/>
    <use x="1194.039062" xlink:href="#DejaVuSans-6e"/>
    <use x="1257.417969" xlink:href="#DejaVuSans-53"/>
    <use x="1320.894531" xlink:href="#DejaVuSans-74"/>
    <use x="1360.103516" xlink:href="#DejaVuSans-72"/>
    <use x="1398.966797" xlink:href="#DejaVuSans-65"/>
    <use x="1460.490234" xlink:href="#DejaVuSans-65"/>
    <use x="1522.013672" xlink:href="#DejaVuSans-74"/>
    <use x="1561.222656" xlink:href="#DejaVuSans-4d"/>
    <use x="1647.501953" xlink:href="#DejaVuSans-61"/>
    <use x="1708.78125" xlink:href="#DejaVuSans-70"/>
    <use x="1772.257812" xlink:href="#DejaVuSans-73"/>
   </g>
  </g>
 </g>
 <defs>
  <clipPath id="p116beded84">
   <rect height="71.972532" width="56.035916" x="0" y="7.844286"/>
  </clipPath>
 </defs>
</svg>
