<?xml version="1.0" encoding="utf-8" standalone="no"?>
<!DOCTYPE svg PUBLIC "-//W3C//DTD SVG 1.1//EN"
  "http://www.w3.org/Graphics/SVG/1.1/DTD/svg11.dtd">
<svg height="116.202545pt" version="1.1" viewBox="0 0 142.95115 116.202545" width="142.95115pt" xmlns="http://www.w3.org/2000/svg" xmlns:xlink="http://www.w3.org/1999/xlink">
 <metadata>
  <rdf:RDF xmlns:cc="http://creativecommons.org/ns#" xmlns:dc="http://purl.org/dc/elements/1.1/" xmlns:rdf="http://www.w3.org/1999/02/22-rdf-syntax-ns#">
   <cc:Work>
    <dc:type rdf:resource="http://purl.org/dc/dcmitype/StillImage"/>
    <dc:date>2022-04-14T21:27:09.621686</dc:date>
    <dc:format>image/svg+xml</dc:format>
    <dc:creator>
     <cc:Agent>
      <dc:title>Matplotlib v3.4.3, https://matplotlib.org/</dc:title>
     </cc:Agent>
    </dc:creator>
   </cc:Work>
  </rdf:RDF>
 </metadata>
 <defs>
  <style type="text/css">*{stroke-linecap:butt;stroke-linejoin:round;}</style>
 </defs>
 <g id="figure_1">
  <g id="patch_1">
   <path d="M 0 116.202545 
L 142.95115 116.202545 
L 142.95115 0 
L 0 0 
z
" style="fill:#ffffff;"/>
  </g>
  <g id="axes_1">
   <g id="patch_2">
    <path clip-path="url(#p566ca214a8)" d="M 74.57537 93.343008 
L 74.57537 93.343008 
L 73.584076 92.539742 
L 72.592782 91.736477 
L 71.601488 90.933212 
L 70.610194 90.129946 
L 69.203041 88.989963 
L 67.795887 87.84998 
L 66.388734 86.709997 
L 64.98158 85.570014 
L 63.574426 84.430031 
L 62.167273 83.290048 
L 60.760119 82.150065 
L 59.352966 81.010082 
L 57.945812 79.870099 
L 56.538659 78.730116 
L 55.131505 77.590133 
L 53.724352 76.45015 
L 52.317198 75.310166 
L 50.910045 74.170183 
L 49.502891 73.0302 
L 48.095738 71.890217 
L 46.869357 73.297133 
L 45.642976 74.704048 
L 46.470465 75.374414 
L 47.297953 76.044781 
L 48.125442 76.715147 
L 48.952931 77.385513 
L 49.780419 78.05588 
L 50.607908 78.726246 
L 51.435396 79.396612 
L 52.262885 80.066979 
L 53.090373 80.737345 
L 53.917862 81.407711 
L 54.74535 82.078078 
L 55.572839 82.748444 
L 56.400327 83.418811 
L 57.227816 84.089177 
L 58.055304 84.759543 
L 58.882793 85.42991 
L 59.710281 86.100276 
L 60.53777 86.770642 
L 61.365258 87.441009 
L 62.192747 88.111375 
L 63.020235 88.781741 
L 63.847724 89.452108 
L 64.675212 90.122474 
L 65.502701 90.79284 
L 66.330189 91.463207 
L 67.157678 92.133573 
L 67.985166 92.803939 
L 68.812655 93.474306 
L 69.640143 94.144672 
L 70.467632 94.815038 
L 71.29512 95.485405 
L 72.122609 96.155771 
z
" style="fill:#008000;opacity:0.1;"/>
   </g>
   <g id="patch_3">
    <path clip-path="url(#p566ca214a8)" d="M 74.57537 93.343008 
L 74.57537 93.343008 
L 73.584076 92.539742 
L 72.592782 91.736477 
L 71.601488 90.933212 
L 70.610194 90.129946 
L 69.203041 88.989963 
L 67.795887 87.84998 
L 66.388734 86.709997 
L 64.98158 85.570014 
L 63.574426 84.430031 
L 62.167273 83.290048 
L 60.760119 82.150065 
L 59.352966 81.010082 
L 57.945812 79.870099 
L 56.538659 78.730116 
L 55.131505 77.590133 
L 53.724352 76.45015 
L 52.317198 75.310166 
L 50.910045 74.170183 
L 49.502891 73.0302 
L 48.095738 71.890217 
L 46.869357 73.297133 
L 45.642976 74.704048 
L 46.470465 75.374414 
L 47.297953 76.044781 
L 48.125442 76.715147 
L 48.952931 77.385513 
L 49.780419 78.05588 
L 50.607908 78.726246 
L 51.435396 79.396612 
L 52.262885 80.066979 
L 53.090373 80.737345 
L 53.917862 81.407711 
L 54.74535 82.078078 
L 55.572839 82.748444 
L 56.400327 83.418811 
L 57.227816 84.089177 
L 58.055304 84.759543 
L 58.882793 85.42991 
L 59.710281 86.100276 
L 60.53777 86.770642 
L 61.365258 87.441009 
L 62.192747 88.111375 
L 63.020235 88.781741 
L 63.847724 89.452108 
L 64.675212 90.122474 
L 65.502701 90.79284 
L 66.330189 91.463207 
L 67.157678 92.133573 
L 67.985166 92.803939 
L 68.812655 93.474306 
L 69.640143 94.144672 
L 70.467632 94.815038 
L 71.29512 95.485405 
L 72.122609 96.155771 
z
" style="fill:none;stroke:#008000;stroke-linejoin:miter;"/>
   </g>
   <g id="patch_4">
    <path clip-path="url(#p566ca214a8)" d="M 100.161237 96.514438 
L 100.161237 96.514438 
L 99.805332 94.653318 
L 99.449427 92.792197 
L 98.053463 92.821019 
L 96.6575 92.84984 
L 95.261537 92.878662 
L 93.865574 92.907483 
L 94.014049 94.281841 
L 94.162525 95.656199 
z
" style="fill:#008000;opacity:0.1;"/>
   </g>
   <g id="patch_5">
    <path clip-path="url(#p566ca214a8)" d="M 100.161237 96.514438 
L 100.161237 96.514438 
L 99.805332 94.653318 
L 99.449427 92.792197 
L 98.053463 92.821019 
L 96.6575 92.84984 
L 95.261537 92.878662 
L 93.865574 92.907483 
L 94.014049 94.281841 
L 94.162525 95.656199 
z
" style="fill:none;stroke:#008000;stroke-linejoin:miter;"/>
   </g>
   <g id="line2d_1">
    <path clip-path="url(#p566ca214a8)" d="M 74.57537 93.343008 
" style="fill:none;stroke:#008000;stroke-linecap:square;stroke-width:1.5;"/>
   </g>
   <g id="line2d_2">
    <path clip-path="url(#p566ca214a8)" d="M 74.57537 93.343008 
" style="fill:none;stroke:#4169e1;stroke-linecap:square;stroke-width:1.5;"/>
   </g>
   <g id="line2d_3">
    <path clip-path="url(#p566ca214a8)" d="M 74.57537 93.343008 
" style="fill:none;stroke:#000000;stroke-linecap:square;stroke-width:1.5;"/>
   </g>
   <g id="line2d_4">
    <path clip-path="url(#p566ca214a8)" d="M 74.57537 93.343008 
" style="fill:none;stroke:#ff0000;stroke-linecap:square;stroke-width:1.5;"/>
   </g>
   <g id="line2d_5">
    <path clip-path="url(#p566ca214a8)" d="M 74.57537 93.343008 
" style="fill:none;stroke:#ffd700;stroke-linecap:square;stroke-width:1.5;"/>
   </g>
   <g id="line2d_6">
    <path clip-path="url(#p566ca214a8)" d="M 74.57537 93.343008 
" style="fill:none;stroke:#000000;stroke-dasharray:1.5,2.475;stroke-dashoffset:0;stroke-width:1.5;"/>
   </g>
   <g id="line2d_7">
    <path clip-path="url(#p566ca214a8)" d="M 108.617077 88.408129 
L 105.596614 84.927135 
L 103.1817 82.145328 
L 99.338798 77.718562 
L 95.910754 73.768951 
L 91.936844 69.190605 
L 91.176998 68.315286 
L 87.623769 64.221568 
L 85.446125 61.712498 
L 83.26848 59.203427 
L 82.102509 57.859492 
" style="fill:none;stroke:#808080;stroke-linecap:square;stroke-width:1.5;"/>
   </g>
   <g id="line2d_8">
    <path clip-path="url(#p566ca214a8)" d="M 92.086776 93.150865 
L 87.869773 89.436096 
L 84.550903 86.513384 
L 81.232033 83.590672 
L 77.217365 80.054169 
L 73.202697 76.517666 
L 69.17784 72.972624 
L 65.152982 69.427582 
L 60.826078 65.616741 
L 56.499175 61.805901 
L 51.81491 57.680159 
L 47.130645 53.554417 
L 44.344541 51.100321 
L 41.558437 48.646225 
L 38.544525 45.99198 
L 35.530613 43.337735 
L 32.5167 40.68349 
L 29.502788 38.029244 
L 24.829441 33.91311 
L 20.156094 29.796975 
L 15.763686 25.928491 
L 11.371278 22.060008 
" style="fill:none;stroke:#808080;stroke-linecap:square;stroke-width:1.5;"/>
   </g>
   <g id="line2d_9">
    <path clip-path="url(#p566ca214a8)" d="M 81.884162 93.27469 
L 78.428462 90.10326 
L 75.892729 87.775658 
L 73.356996 85.448056 
L 70.447162 82.777799 
L 67.537328 80.107542 
L 64.520505 77.338011 
L 61.503681 74.56848 
L 58.210285 71.545961 
L 54.916889 68.523441 
L 51.683174 65.555896 
L 48.449459 62.58835 
L 44.983569 59.406779 
L 41.517679 56.225207 
L 37.741009 52.759691 
L 33.964339 49.294175 
L 30.015903 45.67014 
L 26.067467 42.046105 
L 22.565913 38.83251 
L 19.06436 35.618915 
L 16.355405 33.132795 
L 13.646451 30.646675 
L 10.329036 27.602272 
L 6.49778 24.086051 
" style="fill:none;stroke:#808080;stroke-linecap:square;stroke-width:1.5;"/>
   </g>
   <g id="line2d_10">
    <path clip-path="url(#p566ca214a8)" d="M 105.378267 90.277256 
L 103.243019 87.821692 
L 101.10777 85.366129 
L 98.972521 82.910565 
L 96.837272 80.455001 
L 94.702023 77.999438 
L 92.566775 75.543874 
L 90.431526 73.08831 
L 88.296277 70.632747 
" style="fill:none;stroke:#808080;stroke-linecap:square;stroke-width:1.5;"/>
   </g>
   <g id="line2d_11">
    <path clip-path="url(#p566ca214a8)" d="M 135.435875 80.53346 
L 131.578416 78.399603 
L 128.38182 76.631885 
L 125.185225 74.864167 
L 121.59051 72.875485 
L 117.995796 70.886803 
L 115.05976 69.262659 
L 112.123725 67.638515 
L 108.905295 65.858521 
L 105.686864 64.078528 
L 102.806143 62.48534 
L 99.925422 60.892153 
L 96.083248 58.767369 
L 92.241074 56.642585 
L 88.935305 54.814022 
L 85.629536 52.985459 
L 81.528985 50.717636 
L 77.428434 48.449812 
L 74.497493 46.82887 
L 71.566553 45.207929 
L 68.466029 43.492517 
" style="fill:none;stroke:#808080;stroke-linecap:square;stroke-width:1.5;"/>
   </g>
   <g id="line2d_12">
    <path clip-path="url(#p566ca214a8)" d="M 64.586736 90.332764 
L 61.934188 88.380375 
L 59.281639 86.427987 
L 56.629091 84.475598 
L 53.976542 82.52321 
L 51.323994 80.570821 
L 48.671445 78.618432 
L 46.018897 76.666044 
L 43.366348 74.713655 
" style="fill:none;stroke:#808080;stroke-linecap:square;stroke-width:1.5;"/>
   </g>
   <g id="line2d_13">
    <path clip-path="url(#p566ca214a8)" d="M 8.861747 23.160562 
L 9.325915 24.166245 
L 9.790084 25.171927 
L 10.254253 26.17761 
L 10.718421 27.183293 
L 11.18259 28.188976 
L 11.646759 29.194659 
L 12.110927 30.200342 
L 12.575096 31.206025 
L 13.039265 32.211708 
L 13.503434 33.217391 
L 13.967602 34.223074 
L 14.431771 35.228757 
L 14.89594 36.23444 
L 15.360108 37.240123 
L 15.824277 38.245806 
L 16.288446 39.251489 
L 17.327958 40.396742 
L 18.36747 41.541996 
L 19.406982 42.68725 
L 20.446495 43.832503 
L 21.486007 44.977757 
L 22.525519 46.123011 
L 23.565032 47.268264 
L 24.604544 48.413518 
L 25.588378 49.179422 
L 26.572211 49.945327 
L 27.556045 50.711231 
L 28.539879 51.477135 
L 29.523713 52.243039 
L 30.507547 53.008943 
L 31.491381 53.774848 
L 32.475215 54.540752 
L 33.459048 55.306656 
L 34.442882 56.07256 
L 35.426716 56.838465 
L 36.41055 57.604369 
L 37.394384 58.370273 
L 38.378218 59.136177 
L 39.362052 59.902081 
L 40.345885 60.667986 
L 41.066066 61.641511 
L 41.786246 62.615037 
L 42.506426 63.588563 
L 43.226606 64.562088 
L 43.946786 65.535614 
L 44.666967 66.50914 
L 45.387147 67.482665 
L 46.107327 68.456191 
L 47.139425 69.248915 
L 48.171522 70.041639 
L 49.20362 70.834364 
L 50.235717 71.627088 
L 51.267815 72.419812 
L 52.299913 73.212536 
L 53.33201 74.00526 
L 54.364108 74.797985 
L 55.396205 75.590709 
L 56.428303 76.383433 
L 57.4604 77.176157 
L 58.492498 77.968882 
L 59.524596 78.761606 
L 60.556693 79.55433 
L 61.588791 80.347054 
L 62.620888 81.139778 
L 63.652986 81.932503 
L 64.685083 82.725227 
L 65.717181 83.517951 
L 66.749279 84.310675 
L 67.781376 85.1034 
L 68.813474 85.896124 
L 69.845571 86.688848 
L 70.877669 87.481572 
L 71.909766 88.274296 
L 72.941864 89.067021 
L 73.973962 89.859745 
L 75.006059 90.652469 
L 76.038157 91.445193 
L 77.070254 92.237917 
L 78.102352 93.030642 
L 79.134449 93.823366 
" style="fill:none;stroke:#008000;stroke-linecap:square;stroke-width:1.5;"/>
   </g>
   <g id="line2d_14">
    <path clip-path="url(#p566ca214a8)" d="M 8.803521 22.129393 
L 10.021236 23.244241 
L 11.238951 24.359088 
L 12.456666 25.473936 
L 13.674381 26.588784 
L 14.892096 27.703631 
L 16.109811 28.818479 
L 17.327526 29.933327 
L 18.545241 31.048174 
L 19.762956 32.163022 
L 20.980671 33.27787 
L 22.198386 34.392717 
L 23.416101 35.507565 
L 24.633816 36.622412 
L 25.851531 37.73726 
L 27.069246 38.852108 
L 28.286961 39.966955 
L 29.504676 41.081803 
L 30.722391 42.196651 
L 31.940106 43.311498 
L 33.157821 44.426346 
L 34.375536 45.541194 
L 35.593251 46.656041 
L 36.810966 47.770889 
L 38.028681 48.885737 
L 39.246396 50.000584 
L 40.464111 51.115432 
L 41.681826 52.23028 
L 42.899541 53.345127 
L 44.117256 54.459975 
L 45.334971 55.574823 
L 46.552686 56.68967 
L 47.770401 57.804518 
L 48.988116 58.919366 
L 50.205831 60.034213 
L 51.423546 61.149061 
L 52.641261 62.263909 
L 53.858976 63.378756 
L 55.076691 64.493604 
L 56.294406 65.608452 
L 57.512121 66.723299 
L 58.729836 67.838147 
L 59.947551 68.952995 
L 61.165266 70.067842 
L 62.382981 71.18269 
L 63.600696 72.297538 
L 64.818411 73.412385 
L 66.036126 74.527233 
L 67.253841 75.642081 
L 68.471556 76.756928 
L 69.689271 77.871776 
L 70.906986 78.986623 
L 72.124701 80.101471 
L 73.342416 81.216319 
L 74.560131 82.331166 
L 75.777846 83.446014 
L 76.995561 84.560862 
L 78.213277 85.675709 
L 79.430992 86.790557 
L 80.648707 87.905405 
L 81.866422 89.020252 
L 83.084137 90.1351 
L 84.301852 91.249948 
L 85.519567 92.364795 
L 86.737282 93.479643 
" style="fill:none;stroke:#008000;stroke-linecap:square;stroke-width:1.5;"/>
   </g>
   <g id="line2d_15">
    <path clip-path="url(#p566ca214a8)" d="M 10.288278 22.358897 
L 11.099482 23.080068 
L 11.910685 23.801239 
L 12.721889 24.52241 
L 13.533092 25.243581 
L 14.344296 25.964752 
L 15.155499 26.685923 
L 15.966703 27.407094 
L 16.777906 28.128264 
L 17.58911 28.849435 
L 18.400313 29.570606 
L 19.211517 30.291777 
L 20.02272 31.012948 
L 20.833924 31.734119 
L 21.645127 32.45529 
L 22.456331 33.176461 
L 23.267534 33.897631 
L 24.078738 34.618802 
L 24.889941 35.339973 
L 25.701145 36.061144 
L 26.512348 36.782315 
L 27.323552 37.503486 
L 28.134755 38.224657 
L 28.945959 38.945828 
L 29.757162 39.666999 
L 30.568366 40.388169 
L 31.379569 41.10934 
L 32.190773 41.830511 
L 33.001976 42.551682 
L 33.81318 43.272853 
L 34.624383 43.994024 
L 35.435587 44.715195 
L 36.24679 45.436366 
L 37.702071 45.665336 
L 39.157352 45.894307 
L 40.612632 46.123278 
L 42.067913 46.352248 
L 42.891171 47.052821 
L 43.714429 47.753393 
L 44.537687 48.453965 
L 45.360945 49.154537 
L 46.184203 49.855109 
L 47.007461 50.555681 
L 47.830719 51.256254 
L 48.653977 51.956826 
L 49.477236 52.657398 
L 50.300494 53.35797 
L 51.123752 54.058542 
L 51.94701 54.759115 
L 52.770268 55.459687 
L 53.593526 56.160259 
L 54.416784 56.860831 
L 55.240042 57.561403 
L 56.0633 58.261976 
L 56.886558 58.962548 
L 57.709816 59.66312 
L 58.533074 60.363692 
L 59.356332 61.064264 
L 60.17959 61.764837 
L 61.002848 62.465409 
L 61.826106 63.165981 
L 62.649364 63.866553 
L 63.472622 64.567125 
L 64.29588 65.267698 
L 65.119138 65.96827 
L 65.942396 66.668842 
L 66.765655 67.369414 
L 67.588913 68.069986 
L 68.412171 68.770559 
L 69.235429 69.471131 
L 70.058687 70.171703 
L 70.881945 70.872275 
L 71.705203 71.572847 
L 72.528461 72.27342 
L 73.351719 72.973992 
L 74.174977 73.674564 
L 74.998235 74.375136 
L 75.821493 75.075708 
L 76.644751 75.776281 
L 77.468009 76.476853 
L 78.291267 77.177425 
L 79.114525 77.877997 
L 79.937783 78.578569 
L 80.761041 79.279142 
L 81.584299 79.979714 
L 82.407557 80.680286 
L 83.230816 81.380858 
L 84.054074 82.08143 
L 84.877332 82.782003 
L 85.70059 83.482575 
L 86.523848 84.183147 
L 87.347106 84.883719 
L 88.170364 85.584291 
L 88.993622 86.284863 
L 89.81688 86.985436 
L 90.640138 87.686008 
L 91.463396 88.38658 
L 92.286654 89.087152 
L 93.109912 89.787724 
L 93.93317 90.488297 
L 94.756428 91.188869 
" style="fill:none;stroke:#4169e1;stroke-linecap:square;stroke-width:1.5;"/>
   </g>
   <g id="line2d_16">
    <path clip-path="url(#p566ca214a8)" d="M 8.624476 21.327729 
L 9.894526 19.935224 
L 11.164576 18.542719 
L 12.620221 18.88324 
L 14.242537 19.925617 
L 15.864853 20.967994 
L 17.047564 21.687197 
L 18.230276 22.406399 
L 19.412987 23.125602 
L 20.595698 23.844805 
L 21.77841 24.564008 
L 22.961121 25.28321 
L 24.143832 26.002413 
L 25.326544 26.721616 
L 26.34877 27.234265 
L 27.370997 27.746914 
L 28.393223 28.259562 
L 29.415449 28.772211 
L 30.499541 28.378584 
L 31.583632 27.984958 
L 32.667724 27.591331 
L 33.751815 27.197704 
L 34.835906 26.804077 
L 35.919998 26.410451 
L 37.004089 26.016824 
L 38.088181 25.623197 
L 39.276351 25.608786 
L 40.46452 25.594376 
L 41.65269 25.579965 
L 42.84086 25.565554 
L 44.073428 25.923421 
L 45.305995 26.281288 
L 46.538562 26.639154 
L 47.771129 26.997021 
L 48.740133 27.333472 
L 49.709138 27.669923 
L 50.678142 28.006374 
L 51.647147 28.342824 
L 52.616151 28.679275 
L 53.585156 29.015726 
L 54.55416 29.352177 
L 55.523165 29.688627 
L 56.492169 30.025078 
L 57.461174 30.361529 
L 58.430178 30.69798 
L 59.399183 31.034431 
L 60.368187 31.370881 
L 61.337192 31.707332 
L 62.306196 32.043783 
L 63.275201 32.380234 
L 64.893877 31.936436 
L 66.512554 31.492639 
L 68.131231 31.048841 
L 69.749908 30.605044 
L 71.398062 30.619188 
L 73.046215 30.633332 
L 74.694369 30.647476 
L 76.342523 30.661619 
L 77.070163 31.470489 
L 77.797804 32.279359 
L 78.525444 33.088228 
L 79.253084 33.897098 
L 79.980725 34.705967 
L 80.708365 35.514837 
L 81.436006 36.323707 
L 82.163646 37.132576 
L 83.425872 38.156139 
L 84.688098 39.179702 
L 85.950324 40.203265 
L 87.21255 41.226828 
L 88.474775 42.250391 
L 89.737001 43.273954 
L 90.999227 44.297517 
L 92.261453 45.32108 
L 93.649956 46.6454 
L 95.038459 47.969721 
L 96.426962 49.294041 
L 97.815465 50.618362 
L 99.203969 51.942682 
L 100.592472 53.267002 
L 101.980975 54.591323 
L 103.369478 55.915643 
L 104.312372 56.946278 
L 105.255265 57.976913 
L 106.198159 59.007548 
L 107.141053 60.038183 
L 108.083947 61.068818 
L 109.026841 62.099453 
L 109.969735 63.130088 
L 110.912629 64.160722 
L 112.041299 64.991075 
L 113.16997 65.821427 
L 114.29864 66.651779 
L 115.427311 67.482132 
L 116.555981 68.312484 
L 117.684652 69.142836 
L 118.813322 69.973188 
L 119.941993 70.803541 
L 121.010982 71.125647 
L 122.079971 71.447754 
L 123.14896 71.769861 
L 124.217949 72.091968 
L 125.286938 72.414074 
L 126.355927 72.736181 
L 127.424916 73.058288 
L 128.493905 73.380395 
L 129.607837 74.26799 
L 130.721769 75.155585 
L 131.835701 76.043179 
L 132.949633 76.930774 
L 134.701502 77.503468 
L 136.45337 78.076162 
" style="fill:none;stroke:#008000;stroke-linecap:square;stroke-width:1.5;"/>
   </g>
   <g id="line2d_17">
    <path clip-path="url(#p566ca214a8)" d="M 10.168915 24.248306 
L 11.423863 24.692103 
L 12.678811 25.135901 
L 13.933758 25.579698 
L 15.188706 26.023496 
L 16.443654 26.467293 
L 17.698601 26.91109 
L 18.953549 27.354888 
L 20.208497 27.798685 
L 20.995637 28.47172 
L 21.782777 29.144755 
L 22.569916 29.81779 
L 23.357056 30.490825 
L 24.485545 30.104137 
L 25.614033 29.717449 
L 26.742522 29.330761 
L 27.87101 28.944073 
" style="fill:none;stroke:#008000;stroke-linecap:square;stroke-width:1.5;"/>
   </g>
   <g id="line2d_18">
    <path clip-path="url(#p566ca214a8)" d="M 78.243595 31.406708 
L 80.099906 31.349332 
L 81.956217 31.291956 
L 83.812528 31.23458 
L 85.668838 31.177204 
L 86.797327 31.098478 
L 87.925815 31.019753 
L 89.054304 30.941028 
L 90.182793 30.862302 
L 91.311281 30.783577 
L 92.43977 30.704852 
L 93.568258 30.626126 
L 94.696747 30.547401 
L 95.736259 32.000484 
L 96.775771 33.453567 
L 97.815284 34.90665 
L 98.854796 36.359733 
L 99.894308 37.812816 
L 100.93382 39.2659 
L 101.973333 40.718983 
L 103.012845 42.172066 
L 103.807263 43.20637 
L 104.601681 44.240674 
L 105.396099 45.274979 
L 106.190517 46.309283 
L 106.984935 47.343587 
L 107.779353 48.377892 
L 108.573771 49.412196 
L 109.36819 50.4465 
L 110.162608 51.480804 
L 110.957026 52.515109 
L 111.751444 53.549413 
L 112.545862 54.583717 
L 113.34028 55.618022 
L 114.134698 56.652326 
L 114.929116 57.68663 
L 115.723534 58.720934 
L 116.755586 59.522599 
L 117.787638 60.324263 
L 118.81969 61.125927 
L 119.851743 61.927591 
L 120.883795 62.729255 
L 121.915847 63.53092 
L 122.947899 64.332584 
L 123.979951 65.134248 
L 125.628469 65.807283 
L 127.276986 66.480318 
L 128.925504 67.153353 
L 130.574021 67.826388 
L 132.147573 68.542122 
L 133.721125 69.257855 
L 134.404186 71.018634 
L 135.087248 72.779413 
L 135.770309 74.540193 
L 136.45337 76.300972 
" style="fill:none;stroke:#008000;stroke-linecap:square;stroke-width:1.5;"/>
   </g>
   <g id="line2d_19">
    <path clip-path="url(#p566ca214a8)" d="M 91.073647 32.436809 
L 91.01433 33.839989 
L 90.955012 35.243168 
L 90.895695 36.646347 
L 90.836377 38.049526 
L 90.524505 39.022785 
L 90.212633 39.996044 
L 89.900761 40.969303 
L 89.58889 41.942561 
" style="fill:none;stroke:#008000;stroke-linecap:square;stroke-width:1.5;"/>
   </g>
   <g id="line2d_20">
    <path clip-path="url(#p566ca214a8)" d="M 91.786913 32.666314 
L 92.477434 33.639839 
L 93.167956 34.613365 
L 93.858477 35.586891 
L 94.548999 36.560416 
L 95.23952 37.533942 
L 95.930042 38.507468 
L 96.620563 39.480993 
L 97.311085 40.454519 
L 97.578377 41.64981 
L 97.84567 42.845101 
L 98.112963 44.040392 
L 98.380256 45.235683 
L 98.647548 46.430974 
L 98.914841 47.626265 
L 99.182134 48.821556 
L 99.449427 50.016847 
" style="fill:none;stroke:#4169e1;stroke-linecap:square;stroke-width:1.5;"/>
   </g>
   <g id="line2d_21">
    <path clip-path="url(#p566ca214a8)" d="M 114.001507 79.39341 
L 115.367629 79.336101 
L 116.733752 79.278791 
L 118.099874 79.221482 
L 119.465997 79.164172 
L 120.832119 79.106863 
L 122.198242 79.049554 
L 123.564364 78.992244 
L 124.930487 78.934935 
L 126.296609 78.877626 
L 127.662732 78.820316 
L 129.028855 78.763007 
L 130.394977 78.705697 
L 131.7611 78.648388 
L 133.127222 78.591079 
L 134.493345 78.533769 
L 135.859467 78.47646 
" style="fill:none;stroke:#008000;stroke-linecap:square;stroke-width:1.5;"/>
   </g>
   <g id="line2d_22">
    <path clip-path="url(#p566ca214a8)" d="M 114.714772 70.287956 
L 114.907645 71.333002 
L 115.100518 72.378048 
L 115.293391 73.423093 
L 115.486264 74.468139 
L 115.048206 75.917619 
L 114.610148 77.3671 
L 114.17209 78.81658 
L 113.734032 80.26606 
L 113.295974 81.715541 
L 112.857916 83.165021 
L 112.419858 84.614502 
L 111.9818 86.063982 
L 111.543742 87.513463 
L 111.105683 88.962943 
L 110.667625 90.412423 
L 110.229567 91.861904 
L 109.791509 93.311384 
L 109.353451 94.760865 
L 108.915393 96.210345 
L 108.477335 97.659826 
" style="fill:none;stroke:#008000;stroke-linecap:square;stroke-width:1.5;"/>
   </g>
   <g id="line2d_23">
    <path clip-path="url(#p566ca214a8)" d="M 26.802567 30.833481 
L 28.157681 31.087604 
L 29.512796 31.341726 
L 30.86791 31.595849 
L 32.223024 31.849972 
L 33.578138 32.104095 
L 34.933253 32.358217 
L 36.288367 32.61234 
L 37.643481 32.866463 
L 38.998595 33.120586 
L 40.35371 33.374708 
L 41.708824 33.628831 
L 43.063938 33.882954 
L 44.419052 34.137077 
L 45.774166 34.391199 
L 47.129281 34.645322 
L 48.484395 34.899445 
L 50.088151 35.500693 
L 51.691908 36.101941 
L 53.295664 36.703189 
L 54.899421 37.304438 
L 56.503178 37.905686 
L 58.106934 38.506934 
L 59.710691 39.108182 
L 61.314447 39.70943 
L 62.086667 39.036662 
L 62.858886 38.363894 
L 63.631106 37.691126 
L 64.403325 37.018358 
L 64.65588 35.944757 
L 64.908434 34.871157 
L 65.160988 33.797557 
L 65.413543 32.723957 
" style="fill:none;stroke:#008000;stroke-linecap:square;stroke-width:1.5;"/>
   </g>
   <g id="line2d_24">
    <path clip-path="url(#p566ca214a8)" d="M 42.781179 35.300811 
L 43.141269 36.220563 
L 43.501359 37.140315 
L 43.861449 38.060067 
L 44.221539 38.97982 
L 44.58163 39.899572 
L 44.94172 40.819324 
L 45.30181 41.739076 
L 45.6619 42.658829 
L 46.02199 43.578581 
L 46.38208 44.498333 
L 46.74217 45.418085 
L 47.10226 46.337838 
L 47.46235 47.25759 
L 47.82244 48.177342 
L 48.182531 49.097094 
L 48.542621 50.016847 
" style="fill:none;stroke:#4169e1;stroke-linecap:square;stroke-width:1.5;"/>
   </g>
   <g id="line2d_25">
    <path clip-path="url(#p566ca214a8)" d="M 65.05691 42.801869 
L 65.205385 44.312194 
L 65.353861 45.82252 
L 65.502337 47.332846 
L 65.650813 48.843172 
L 65.799288 50.353497 
L 65.947764 51.863823 
L 66.09624 53.374149 
L 66.244716 54.884475 
L 66.645746 56.509286 
L 67.046776 58.134097 
L 67.447806 59.758908 
L 67.848836 61.383719 
L 68.249866 63.00853 
L 68.650896 64.633341 
L 69.051926 66.258153 
L 69.452957 67.882964 
" style="fill:none;stroke:#000000;stroke-linecap:square;stroke-width:1.5;"/>
   </g>
   <g id="line2d_26">
    <path clip-path="url(#p566ca214a8)" d="M 64.403325 44.806563 
L 63.259916 44.555976 
L 62.116507 44.305389 
L 60.973098 44.054802 
L 59.82969 43.804216 
L 58.686281 43.553629 
L 57.542872 43.303042 
L 56.399463 43.052455 
L 55.256054 42.801869 
L 53.399743 42.887799 
L 51.543432 42.97373 
L 49.687121 43.059661 
L 47.83081 43.145591 
" style="fill:none;stroke:#008000;stroke-linecap:square;stroke-width:1.5;"/>
   </g>
   <g id="line2d_27">
    <path clip-path="url(#p566ca214a8)" d="M 67.611566 45.092643 
L 68.896082 45.625907 
L 70.180597 46.159171 
L 71.465112 46.692435 
L 72.749628 47.225699 
L 74.034143 47.758964 
L 75.318659 48.292228 
L 76.603174 48.825492 
L 77.88769 49.358756 
L 79.172205 49.89202 
L 80.456721 50.425284 
L 81.741236 50.958548 
L 83.025752 51.491813 
L 84.310267 52.025077 
L 85.594782 52.558341 
L 86.879298 53.091605 
L 88.163813 53.624869 
" style="fill:none;stroke:#4169e1;stroke-linecap:square;stroke-width:1.5;"/>
   </g>
   <g id="line2d_28">
    <path clip-path="url(#p566ca214a8)" d="M 70.461718 42.744226 
L 72.058197 43.002018 
L 73.654675 43.25981 
L 75.251153 43.517602 
L 76.847632 43.775394 
L 78.44411 44.033186 
L 80.040588 44.290979 
L 81.637067 44.548771 
L 83.233545 44.806563 
L 84.16916 45.693891 
L 85.104776 46.581219 
L 86.040392 47.468547 
L 86.976007 48.355875 
L 87.317356 49.443886 
L 87.658705 50.531897 
L 88.000053 51.619908 
L 88.341402 52.707919 
" style="fill:none;stroke:#4169e1;stroke-linecap:square;stroke-width:1.5;"/>
   </g>
   <g id="line2d_29">
    <path clip-path="url(#p566ca214a8)" d="M 82.639642 56.201723 
L 84.332557 56.044273 
L 86.025471 55.886822 
L 87.718386 55.729371 
L 89.411301 55.571921 
L 90.951919 56.423689 
L 92.492537 57.275457 
L 94.033155 58.127225 
L 95.573773 58.978993 
L 97.114391 59.830762 
L 98.655009 60.68253 
L 100.195627 61.534298 
L 101.736244 62.386066 
L 103.276862 63.237835 
L 104.81748 64.089603 
L 106.358098 64.941371 
L 107.898716 65.793139 
L 109.439334 66.644907 
L 110.979952 67.496676 
L 112.52057 68.348444 
L 114.061188 69.200212 
" style="fill:none;stroke:#008000;stroke-linecap:square;stroke-width:1.5;"/>
   </g>
   <g id="line2d_30">
    <path clip-path="url(#p566ca214a8)" d="M 99.80606 62.843474 
L 100.611577 63.892122 
L 101.417094 64.940771 
L 102.222612 65.989419 
L 103.028129 67.038067 
L 103.833646 68.086716 
L 104.639164 69.135364 
L 105.444681 70.184012 
L 106.250199 71.23266 
L 107.055716 72.281309 
L 107.861233 73.329957 
L 108.666751 74.378605 
L 109.472268 75.427254 
L 110.277786 76.475902 
L 111.083303 77.52455 
L 111.88882 78.573199 
L 112.694338 79.621847 
" style="fill:none;stroke:#008000;stroke-linecap:square;stroke-width:1.5;"/>
   </g>
   <g id="line2d_31">
    <path clip-path="url(#p566ca214a8)" d="M 88.281721 57.003388 
L 88.975972 57.846216 
L 89.670224 58.689044 
L 90.364475 59.531872 
L 91.058727 60.3747 
L 91.752978 61.217529 
L 92.44723 62.060357 
L 93.141481 62.903185 
L 93.835733 63.746013 
L 94.529984 64.588842 
L 95.224236 65.43167 
L 95.918488 66.274498 
L 96.612739 67.117326 
L 97.306991 67.960155 
L 98.001242 68.802983 
L 98.695494 69.645811 
L 99.389745 70.488639 
L 100.083997 71.331467 
L 100.778248 72.174296 
L 101.4725 73.017124 
L 102.166751 73.859952 
L 102.861003 74.70278 
L 103.555254 75.545609 
L 104.249506 76.388437 
L 104.943758 77.231265 
L 105.638009 78.074093 
L 106.332261 78.916922 
L 107.026512 79.75975 
L 107.720764 80.602578 
L 108.415015 81.445406 
L 109.109267 82.288234 
L 109.803518 83.131063 
L 110.49777 83.973891 
" style="fill:none;stroke:#008000;stroke-linecap:square;stroke-width:1.5;"/>
   </g>
   <g id="line2d_32">
    <path clip-path="url(#p566ca214a8)" d="M 89.58889 68.856489 
L 90.65433 70.05545 
L 91.719771 71.25441 
L 92.785212 72.45337 
L 93.850653 73.652331 
L 94.916094 74.851291 
L 95.981535 76.050251 
L 97.046976 77.249212 
L 98.112417 78.448172 
L 99.177858 79.647132 
L 100.243299 80.846093 
L 101.30874 82.045053 
L 102.374181 83.244014 
L 103.439622 84.442974 
L 104.505063 85.641934 
L 105.570504 86.840895 
L 106.635944 88.039855 
" style="fill:none;stroke:#008000;stroke-linecap:square;stroke-width:1.5;"/>
   </g>
   <g id="line2d_33">
    <path clip-path="url(#p566ca214a8)" d="M 85.906108 71.547562 
L 86.98274 72.771608 
L 88.059371 73.995653 
L 89.136002 75.219699 
L 90.212633 76.443745 
L 91.289264 77.66779 
L 92.365896 78.891836 
L 93.442527 80.115882 
L 94.519158 81.339928 
L 95.595789 82.563973 
L 96.67242 83.788019 
L 97.749052 85.012065 
L 98.825683 86.23611 
L 99.902314 87.460156 
L 100.978945 88.684202 
L 102.055577 89.908248 
L 103.132208 91.132293 
" style="fill:none;stroke:#008000;stroke-linecap:square;stroke-width:1.5;"/>
   </g>
   <g id="text_1">
    <g id="patch_6">
     <path d="M 100.989075 80.540523 
L 103.70775 84.811087 
L 105.374324 83.750133 
L 102.65565 79.479569 
z
" style="fill:#ffffff;"/>
    </g>
    <!-- E Lift -->
    <g style="fill:#808080;" transform="translate(101.367559 80.323286)rotate(-302.48115)scale(0.02 -0.02)">
     <defs>
      <path d="M 628 4666 
L 3578 4666 
L 3578 4134 
L 1259 4134 
L 1259 2753 
L 3481 2753 
L 3481 2222 
L 1259 2222 
L 1259 531 
L 3634 531 
L 3634 0 
L 628 0 
L 628 4666 
z
" id="DejaVuSans-45" transform="scale(0.015625)"/>
      <path id="DejaVuSans-20" transform="scale(0.015625)"/>
      <path d="M 628 4666 
L 1259 4666 
L 1259 531 
L 3531 531 
L 3531 0 
L 628 0 
L 628 4666 
z
" id="DejaVuSans-4c" transform="scale(0.015625)"/>
      <path d="M 603 3500 
L 1178 3500 
L 1178 0 
L 603 0 
L 603 3500 
z
M 603 4863 
L 1178 4863 
L 1178 4134 
L 603 4134 
L 603 4863 
z
" id="DejaVuSans-69" transform="scale(0.015625)"/>
      <path d="M 2375 4863 
L 2375 4384 
L 1825 4384 
Q 1516 4384 1395 4259 
Q 1275 4134 1275 3809 
L 1275 3500 
L 2222 3500 
L 2222 3053 
L 1275 3053 
L 1275 0 
L 697 0 
L 697 3053 
L 147 3053 
L 147 3500 
L 697 3500 
L 697 3744 
Q 697 4328 969 4595 
Q 1241 4863 1831 4863 
L 2375 4863 
z
" id="DejaVuSans-66" transform="scale(0.015625)"/>
      <path d="M 1172 4494 
L 1172 3500 
L 2356 3500 
L 2356 3053 
L 1172 3053 
L 1172 1153 
Q 1172 725 1289 603 
Q 1406 481 1766 481 
L 2356 481 
L 2356 0 
L 1766 0 
Q 1100 0 847 248 
Q 594 497 594 1153 
L 594 3053 
L 172 3053 
L 172 3500 
L 594 3500 
L 594 4494 
L 1172 4494 
z
" id="DejaVuSans-74" transform="scale(0.015625)"/>
     </defs>
     <use xlink:href="#DejaVuSans-45"/>
     <use x="63.183594" xlink:href="#DejaVuSans-20"/>
     <use x="94.970703" xlink:href="#DejaVuSans-4c"/>
     <use x="150.683594" xlink:href="#DejaVuSans-69"/>
     <use x="178.466797" xlink:href="#DejaVuSans-66"/>
     <use x="211.921875" xlink:href="#DejaVuSans-74"/>
    </g>
   </g>
   <g id="text_2">
    <g id="patch_7">
     <path d="M 44.717196 52.199542 
L 48.02583 56.173399 
L 49.544095 54.909291 
L 46.235461 50.935435 
z
" style="fill:#ffffff;"/>
    </g>
    <!-- B Lift -->
    <g style="fill:#808080;" transform="translate(45.06501 51.935977)rotate(-309.780774)scale(0.02 -0.02)">
     <defs>
      <path d="M 1259 2228 
L 1259 519 
L 2272 519 
Q 2781 519 3026 730 
Q 3272 941 3272 1375 
Q 3272 1813 3026 2020 
Q 2781 2228 2272 2228 
L 1259 2228 
z
M 1259 4147 
L 1259 2741 
L 2194 2741 
Q 2656 2741 2882 2914 
Q 3109 3088 3109 3444 
Q 3109 3797 2882 3972 
Q 2656 4147 2194 4147 
L 1259 4147 
z
M 628 4666 
L 2241 4666 
Q 2963 4666 3353 4366 
Q 3744 4066 3744 3513 
Q 3744 3084 3544 2831 
Q 3344 2578 2956 2516 
Q 3422 2416 3680 2098 
Q 3938 1781 3938 1306 
Q 3938 681 3513 340 
Q 3088 0 2303 0 
L 628 0 
L 628 4666 
z
" id="DejaVuSans-42" transform="scale(0.015625)"/>
     </defs>
     <use xlink:href="#DejaVuSans-42"/>
     <use x="68.603516" xlink:href="#DejaVuSans-20"/>
     <use x="100.390625" xlink:href="#DejaVuSans-4c"/>
     <use x="156.103516" xlink:href="#DejaVuSans-69"/>
     <use x="183.886719" xlink:href="#DejaVuSans-66"/>
     <use x="217.341797" xlink:href="#DejaVuSans-74"/>
    </g>
   </g>
   <g id="text_3">
    <g id="patch_8">
     <path d="M 42.599332 58.004875 
L 45.824244 62.041772 
L 47.367807 60.808683 
L 44.142894 56.771786 
z
" style="fill:#ffffff;"/>
    </g>
    <!-- A Lift -->
    <g style="fill:#808080;" transform="translate(42.952414 57.74841)rotate(-308.619932)scale(0.02 -0.02)">
     <defs>
      <path d="M 2188 4044 
L 1331 1722 
L 3047 1722 
L 2188 4044 
z
M 1831 4666 
L 2547 4666 
L 4325 0 
L 3669 0 
L 3244 1197 
L 1141 1197 
L 716 0 
L 50 0 
L 1831 4666 
z
" id="DejaVuSans-41" transform="scale(0.015625)"/>
     </defs>
     <use xlink:href="#DejaVuSans-41"/>
     <use x="68.408203" xlink:href="#DejaVuSans-20"/>
     <use x="100.195312" xlink:href="#DejaVuSans-4c"/>
     <use x="155.908203" xlink:href="#DejaVuSans-69"/>
     <use x="183.691406" xlink:href="#DejaVuSans-66"/>
     <use x="217.146484" xlink:href="#DejaVuSans-74"/>
    </g>
   </g>
   <g id="text_4">
    <g id="patch_9">
     <path d="M 96.319998 80.58809 
L 99.95927 86.29525 
L 101.625044 85.23304 
L 97.985772 79.52588 
z
" style="fill:#ffffff;"/>
    </g>
    <!-- Carpet -->
    <g style="fill:#808080;" transform="translate(96.698318 80.370568)rotate(-302.524345)scale(0.02 -0.02)">
     <defs>
      <path d="M 4122 4306 
L 4122 3641 
Q 3803 3938 3442 4084 
Q 3081 4231 2675 4231 
Q 1875 4231 1450 3742 
Q 1025 3253 1025 2328 
Q 1025 1406 1450 917 
Q 1875 428 2675 428 
Q 3081 428 3442 575 
Q 3803 722 4122 1019 
L 4122 359 
Q 3791 134 3420 21 
Q 3050 -91 2638 -91 
Q 1578 -91 968 557 
Q 359 1206 359 2328 
Q 359 3453 968 4101 
Q 1578 4750 2638 4750 
Q 3056 4750 3426 4639 
Q 3797 4528 4122 4306 
z
" id="DejaVuSans-43" transform="scale(0.015625)"/>
      <path d="M 2194 1759 
Q 1497 1759 1228 1600 
Q 959 1441 959 1056 
Q 959 750 1161 570 
Q 1363 391 1709 391 
Q 2188 391 2477 730 
Q 2766 1069 2766 1631 
L 2766 1759 
L 2194 1759 
z
M 3341 1997 
L 3341 0 
L 2766 0 
L 2766 531 
Q 2569 213 2275 61 
Q 1981 -91 1556 -91 
Q 1019 -91 701 211 
Q 384 513 384 1019 
Q 384 1609 779 1909 
Q 1175 2209 1959 2209 
L 2766 2209 
L 2766 2266 
Q 2766 2663 2505 2880 
Q 2244 3097 1772 3097 
Q 1472 3097 1187 3025 
Q 903 2953 641 2809 
L 641 3341 
Q 956 3463 1253 3523 
Q 1550 3584 1831 3584 
Q 2591 3584 2966 3190 
Q 3341 2797 3341 1997 
z
" id="DejaVuSans-61" transform="scale(0.015625)"/>
      <path d="M 2631 2963 
Q 2534 3019 2420 3045 
Q 2306 3072 2169 3072 
Q 1681 3072 1420 2755 
Q 1159 2438 1159 1844 
L 1159 0 
L 581 0 
L 581 3500 
L 1159 3500 
L 1159 2956 
Q 1341 3275 1631 3429 
Q 1922 3584 2338 3584 
Q 2397 3584 2469 3576 
Q 2541 3569 2628 3553 
L 2631 2963 
z
" id="DejaVuSans-72" transform="scale(0.015625)"/>
      <path d="M 1159 525 
L 1159 -1331 
L 581 -1331 
L 581 3500 
L 1159 3500 
L 1159 2969 
Q 1341 3281 1617 3432 
Q 1894 3584 2278 3584 
Q 2916 3584 3314 3078 
Q 3713 2572 3713 1747 
Q 3713 922 3314 415 
Q 2916 -91 2278 -91 
Q 1894 -91 1617 61 
Q 1341 213 1159 525 
z
M 3116 1747 
Q 3116 2381 2855 2742 
Q 2594 3103 2138 3103 
Q 1681 3103 1420 2742 
Q 1159 2381 1159 1747 
Q 1159 1113 1420 752 
Q 1681 391 2138 391 
Q 2594 391 2855 752 
Q 3116 1113 3116 1747 
z
" id="DejaVuSans-70" transform="scale(0.015625)"/>
      <path d="M 3597 1894 
L 3597 1613 
L 953 1613 
Q 991 1019 1311 708 
Q 1631 397 2203 397 
Q 2534 397 2845 478 
Q 3156 559 3463 722 
L 3463 178 
Q 3153 47 2828 -22 
Q 2503 -91 2169 -91 
Q 1331 -91 842 396 
Q 353 884 353 1716 
Q 353 2575 817 3079 
Q 1281 3584 2069 3584 
Q 2775 3584 3186 3129 
Q 3597 2675 3597 1894 
z
M 3022 2063 
Q 3016 2534 2758 2815 
Q 2500 3097 2075 3097 
Q 1594 3097 1305 2825 
Q 1016 2553 972 2059 
L 3022 2063 
z
" id="DejaVuSans-65" transform="scale(0.015625)"/>
     </defs>
     <use xlink:href="#DejaVuSans-43"/>
     <use x="69.824219" xlink:href="#DejaVuSans-61"/>
     <use x="131.103516" xlink:href="#DejaVuSans-72"/>
     <use x="172.216797" xlink:href="#DejaVuSans-70"/>
     <use x="235.693359" xlink:href="#DejaVuSans-65"/>
     <use x="297.216797" xlink:href="#DejaVuSans-74"/>
    </g>
   </g>
   <g id="text_5">
    <g id="patch_10">
     <path d="M 125.811335 75.930685 
L 129.762798 78.910477 
L 130.952306 77.333085 
L 127.000843 74.353293 
z
" style="fill:#ffffff;"/>
    </g>
    <!-- F Lift -->
    <g style="fill:#808080;" transform="translate(126.089778 75.594663)rotate(-322.980114)scale(0.02 -0.02)">
     <defs>
      <path d="M 628 4666 
L 3309 4666 
L 3309 4134 
L 1259 4134 
L 1259 2759 
L 3109 2759 
L 3109 2228 
L 1259 2228 
L 1259 0 
L 628 0 
L 628 4666 
z
" id="DejaVuSans-46" transform="scale(0.015625)"/>
     </defs>
     <use xlink:href="#DejaVuSans-46"/>
     <use x="57.519531" xlink:href="#DejaVuSans-20"/>
     <use x="89.306641" xlink:href="#DejaVuSans-4c"/>
     <use x="145.019531" xlink:href="#DejaVuSans-69"/>
     <use x="172.802734" xlink:href="#DejaVuSans-66"/>
     <use x="206.257812" xlink:href="#DejaVuSans-74"/>
    </g>
   </g>
   <g id="text_6">
    <g id="patch_11">
     <path d="M 47.768228 77.691466 
L 58.785299 88.749346 
L 60.184857 87.354954 
L 49.167786 76.297073 
z
" style="fill:#ffffff;"/>
    </g>
    <!-- Snowtubing Lift -->
    <g style="fill:#808080;" transform="translate(48.091167 77.39795)rotate(-314.894078)scale(0.02 -0.02)">
     <defs>
      <path d="M 3425 4513 
L 3425 3897 
Q 3066 4069 2747 4153 
Q 2428 4238 2131 4238 
Q 1616 4238 1336 4038 
Q 1056 3838 1056 3469 
Q 1056 3159 1242 3001 
Q 1428 2844 1947 2747 
L 2328 2669 
Q 3034 2534 3370 2195 
Q 3706 1856 3706 1288 
Q 3706 609 3251 259 
Q 2797 -91 1919 -91 
Q 1588 -91 1214 -16 
Q 841 59 441 206 
L 441 856 
Q 825 641 1194 531 
Q 1563 422 1919 422 
Q 2459 422 2753 634 
Q 3047 847 3047 1241 
Q 3047 1584 2836 1778 
Q 2625 1972 2144 2069 
L 1759 2144 
Q 1053 2284 737 2584 
Q 422 2884 422 3419 
Q 422 4038 858 4394 
Q 1294 4750 2059 4750 
Q 2388 4750 2728 4690 
Q 3069 4631 3425 4513 
z
" id="DejaVuSans-53" transform="scale(0.015625)"/>
      <path d="M 3513 2113 
L 3513 0 
L 2938 0 
L 2938 2094 
Q 2938 2591 2744 2837 
Q 2550 3084 2163 3084 
Q 1697 3084 1428 2787 
Q 1159 2491 1159 1978 
L 1159 0 
L 581 0 
L 581 3500 
L 1159 3500 
L 1159 2956 
Q 1366 3272 1645 3428 
Q 1925 3584 2291 3584 
Q 2894 3584 3203 3211 
Q 3513 2838 3513 2113 
z
" id="DejaVuSans-6e" transform="scale(0.015625)"/>
      <path d="M 1959 3097 
Q 1497 3097 1228 2736 
Q 959 2375 959 1747 
Q 959 1119 1226 758 
Q 1494 397 1959 397 
Q 2419 397 2687 759 
Q 2956 1122 2956 1747 
Q 2956 2369 2687 2733 
Q 2419 3097 1959 3097 
z
M 1959 3584 
Q 2709 3584 3137 3096 
Q 3566 2609 3566 1747 
Q 3566 888 3137 398 
Q 2709 -91 1959 -91 
Q 1206 -91 779 398 
Q 353 888 353 1747 
Q 353 2609 779 3096 
Q 1206 3584 1959 3584 
z
" id="DejaVuSans-6f" transform="scale(0.015625)"/>
      <path d="M 269 3500 
L 844 3500 
L 1563 769 
L 2278 3500 
L 2956 3500 
L 3675 769 
L 4391 3500 
L 4966 3500 
L 4050 0 
L 3372 0 
L 2619 2869 
L 1863 0 
L 1184 0 
L 269 3500 
z
" id="DejaVuSans-77" transform="scale(0.015625)"/>
      <path d="M 544 1381 
L 544 3500 
L 1119 3500 
L 1119 1403 
Q 1119 906 1312 657 
Q 1506 409 1894 409 
Q 2359 409 2629 706 
Q 2900 1003 2900 1516 
L 2900 3500 
L 3475 3500 
L 3475 0 
L 2900 0 
L 2900 538 
Q 2691 219 2414 64 
Q 2138 -91 1772 -91 
Q 1169 -91 856 284 
Q 544 659 544 1381 
z
M 1991 3584 
L 1991 3584 
z
" id="DejaVuSans-75" transform="scale(0.015625)"/>
      <path d="M 3116 1747 
Q 3116 2381 2855 2742 
Q 2594 3103 2138 3103 
Q 1681 3103 1420 2742 
Q 1159 2381 1159 1747 
Q 1159 1113 1420 752 
Q 1681 391 2138 391 
Q 2594 391 2855 752 
Q 3116 1113 3116 1747 
z
M 1159 2969 
Q 1341 3281 1617 3432 
Q 1894 3584 2278 3584 
Q 2916 3584 3314 3078 
Q 3713 2572 3713 1747 
Q 3713 922 3314 415 
Q 2916 -91 2278 -91 
Q 1894 -91 1617 61 
Q 1341 213 1159 525 
L 1159 0 
L 581 0 
L 581 4863 
L 1159 4863 
L 1159 2969 
z
" id="DejaVuSans-62" transform="scale(0.015625)"/>
      <path d="M 2906 1791 
Q 2906 2416 2648 2759 
Q 2391 3103 1925 3103 
Q 1463 3103 1205 2759 
Q 947 2416 947 1791 
Q 947 1169 1205 825 
Q 1463 481 1925 481 
Q 2391 481 2648 825 
Q 2906 1169 2906 1791 
z
M 3481 434 
Q 3481 -459 3084 -895 
Q 2688 -1331 1869 -1331 
Q 1566 -1331 1297 -1286 
Q 1028 -1241 775 -1147 
L 775 -588 
Q 1028 -725 1275 -790 
Q 1522 -856 1778 -856 
Q 2344 -856 2625 -561 
Q 2906 -266 2906 331 
L 2906 616 
Q 2728 306 2450 153 
Q 2172 0 1784 0 
Q 1141 0 747 490 
Q 353 981 353 1791 
Q 353 2603 747 3093 
Q 1141 3584 1784 3584 
Q 2172 3584 2450 3431 
Q 2728 3278 2906 2969 
L 2906 3500 
L 3481 3500 
L 3481 434 
z
" id="DejaVuSans-67" transform="scale(0.015625)"/>
     </defs>
     <use xlink:href="#DejaVuSans-53"/>
     <use x="63.476562" xlink:href="#DejaVuSans-6e"/>
     <use x="126.855469" xlink:href="#DejaVuSans-6f"/>
     <use x="188.037109" xlink:href="#DejaVuSans-77"/>
     <use x="269.824219" xlink:href="#DejaVuSans-74"/>
     <use x="309.033203" xlink:href="#DejaVuSans-75"/>
     <use x="372.412109" xlink:href="#DejaVuSans-62"/>
     <use x="435.888672" xlink:href="#DejaVuSans-69"/>
     <use x="463.671875" xlink:href="#DejaVuSans-6e"/>
     <use x="527.050781" xlink:href="#DejaVuSans-67"/>
     <use x="590.527344" xlink:href="#DejaVuSans-20"/>
     <use x="622.314453" xlink:href="#DejaVuSans-4c"/>
     <use x="678.027344" xlink:href="#DejaVuSans-69"/>
     <use x="705.810547" xlink:href="#DejaVuSans-66"/>
     <use x="739.265625" xlink:href="#DejaVuSans-74"/>
    </g>
   </g>
   <g id="text_7">
    <g id="patch_12">
     <path d="M 56.822633 78.443016 
L 68.861537 91.742864 
L 70.32622 90.417046 
L 58.287316 77.117197 
z
" style="fill:#ffffff;"/>
    </g>
    <!-- Snowtubing 13.2° -->
    <g style="fill:#008000;" transform="translate(57.159249 78.165291)rotate(-312.151113)scale(0.02 -0.02)">
     <defs>
      <path d="M 794 531 
L 1825 531 
L 1825 4091 
L 703 3866 
L 703 4441 
L 1819 4666 
L 2450 4666 
L 2450 531 
L 3481 531 
L 3481 0 
L 794 0 
L 794 531 
z
" id="DejaVuSans-31" transform="scale(0.015625)"/>
      <path d="M 2597 2516 
Q 3050 2419 3304 2112 
Q 3559 1806 3559 1356 
Q 3559 666 3084 287 
Q 2609 -91 1734 -91 
Q 1441 -91 1130 -33 
Q 819 25 488 141 
L 488 750 
Q 750 597 1062 519 
Q 1375 441 1716 441 
Q 2309 441 2620 675 
Q 2931 909 2931 1356 
Q 2931 1769 2642 2001 
Q 2353 2234 1838 2234 
L 1294 2234 
L 1294 2753 
L 1863 2753 
Q 2328 2753 2575 2939 
Q 2822 3125 2822 3475 
Q 2822 3834 2567 4026 
Q 2313 4219 1838 4219 
Q 1578 4219 1281 4162 
Q 984 4106 628 3988 
L 628 4550 
Q 988 4650 1302 4700 
Q 1616 4750 1894 4750 
Q 2613 4750 3031 4423 
Q 3450 4097 3450 3541 
Q 3450 3153 3228 2886 
Q 3006 2619 2597 2516 
z
" id="DejaVuSans-33" transform="scale(0.015625)"/>
      <path d="M 684 794 
L 1344 794 
L 1344 0 
L 684 0 
L 684 794 
z
" id="DejaVuSans-2e" transform="scale(0.015625)"/>
      <path d="M 1228 531 
L 3431 531 
L 3431 0 
L 469 0 
L 469 531 
Q 828 903 1448 1529 
Q 2069 2156 2228 2338 
Q 2531 2678 2651 2914 
Q 2772 3150 2772 3378 
Q 2772 3750 2511 3984 
Q 2250 4219 1831 4219 
Q 1534 4219 1204 4116 
Q 875 4013 500 3803 
L 500 4441 
Q 881 4594 1212 4672 
Q 1544 4750 1819 4750 
Q 2544 4750 2975 4387 
Q 3406 4025 3406 3419 
Q 3406 3131 3298 2873 
Q 3191 2616 2906 2266 
Q 2828 2175 2409 1742 
Q 1991 1309 1228 531 
z
" id="DejaVuSans-32" transform="scale(0.015625)"/>
      <path d="M 1600 4347 
Q 1350 4347 1178 4173 
Q 1006 4000 1006 3750 
Q 1006 3503 1178 3333 
Q 1350 3163 1600 3163 
Q 1850 3163 2022 3333 
Q 2194 3503 2194 3750 
Q 2194 3997 2020 4172 
Q 1847 4347 1600 4347 
z
M 1600 4750 
Q 1800 4750 1984 4673 
Q 2169 4597 2303 4453 
Q 2447 4313 2519 4134 
Q 2591 3956 2591 3750 
Q 2591 3338 2302 3052 
Q 2013 2766 1594 2766 
Q 1172 2766 890 3047 
Q 609 3328 609 3750 
Q 609 4169 896 4459 
Q 1184 4750 1600 4750 
z
" id="DejaVuSans-b0" transform="scale(0.015625)"/>
     </defs>
     <use xlink:href="#DejaVuSans-53"/>
     <use x="63.476562" xlink:href="#DejaVuSans-6e"/>
     <use x="126.855469" xlink:href="#DejaVuSans-6f"/>
     <use x="188.037109" xlink:href="#DejaVuSans-77"/>
     <use x="269.824219" xlink:href="#DejaVuSans-74"/>
     <use x="309.033203" xlink:href="#DejaVuSans-75"/>
     <use x="372.412109" xlink:href="#DejaVuSans-62"/>
     <use x="435.888672" xlink:href="#DejaVuSans-69"/>
     <use x="463.671875" xlink:href="#DejaVuSans-6e"/>
     <use x="527.050781" xlink:href="#DejaVuSans-67"/>
     <use x="590.527344" xlink:href="#DejaVuSans-20"/>
     <use x="622.314453" xlink:href="#DejaVuSans-31"/>
     <use x="685.9375" xlink:href="#DejaVuSans-33"/>
     <use x="749.560547" xlink:href="#DejaVuSans-2e"/>
     <use x="781.347656" xlink:href="#DejaVuSans-32"/>
     <use x="844.970703" xlink:href="#DejaVuSans-b0"/>
    </g>
   </g>
   <g id="text_8">
    <g id="patch_13">
     <path d="M 48.954678 69.986165 
L 62.473004 84.144986 
L 63.901927 82.780701 
L 50.383602 68.621881 
z
" style="fill:#ffffff;"/>
    </g>
    <!-- Cascade Park 15.9° -->
    <g style="fill:#008000;" transform="translate(49.283793 69.69959)rotate(-313.674317)scale(0.02 -0.02)">
     <defs>
      <path d="M 2834 3397 
L 2834 2853 
Q 2591 2978 2328 3040 
Q 2066 3103 1784 3103 
Q 1356 3103 1142 2972 
Q 928 2841 928 2578 
Q 928 2378 1081 2264 
Q 1234 2150 1697 2047 
L 1894 2003 
Q 2506 1872 2764 1633 
Q 3022 1394 3022 966 
Q 3022 478 2636 193 
Q 2250 -91 1575 -91 
Q 1294 -91 989 -36 
Q 684 19 347 128 
L 347 722 
Q 666 556 975 473 
Q 1284 391 1588 391 
Q 1994 391 2212 530 
Q 2431 669 2431 922 
Q 2431 1156 2273 1281 
Q 2116 1406 1581 1522 
L 1381 1569 
Q 847 1681 609 1914 
Q 372 2147 372 2553 
Q 372 3047 722 3315 
Q 1072 3584 1716 3584 
Q 2034 3584 2315 3537 
Q 2597 3491 2834 3397 
z
" id="DejaVuSans-73" transform="scale(0.015625)"/>
      <path d="M 3122 3366 
L 3122 2828 
Q 2878 2963 2633 3030 
Q 2388 3097 2138 3097 
Q 1578 3097 1268 2742 
Q 959 2388 959 1747 
Q 959 1106 1268 751 
Q 1578 397 2138 397 
Q 2388 397 2633 464 
Q 2878 531 3122 666 
L 3122 134 
Q 2881 22 2623 -34 
Q 2366 -91 2075 -91 
Q 1284 -91 818 406 
Q 353 903 353 1747 
Q 353 2603 823 3093 
Q 1294 3584 2113 3584 
Q 2378 3584 2631 3529 
Q 2884 3475 3122 3366 
z
" id="DejaVuSans-63" transform="scale(0.015625)"/>
      <path d="M 2906 2969 
L 2906 4863 
L 3481 4863 
L 3481 0 
L 2906 0 
L 2906 525 
Q 2725 213 2448 61 
Q 2172 -91 1784 -91 
Q 1150 -91 751 415 
Q 353 922 353 1747 
Q 353 2572 751 3078 
Q 1150 3584 1784 3584 
Q 2172 3584 2448 3432 
Q 2725 3281 2906 2969 
z
M 947 1747 
Q 947 1113 1208 752 
Q 1469 391 1925 391 
Q 2381 391 2643 752 
Q 2906 1113 2906 1747 
Q 2906 2381 2643 2742 
Q 2381 3103 1925 3103 
Q 1469 3103 1208 2742 
Q 947 2381 947 1747 
z
" id="DejaVuSans-64" transform="scale(0.015625)"/>
      <path d="M 1259 4147 
L 1259 2394 
L 2053 2394 
Q 2494 2394 2734 2622 
Q 2975 2850 2975 3272 
Q 2975 3691 2734 3919 
Q 2494 4147 2053 4147 
L 1259 4147 
z
M 628 4666 
L 2053 4666 
Q 2838 4666 3239 4311 
Q 3641 3956 3641 3272 
Q 3641 2581 3239 2228 
Q 2838 1875 2053 1875 
L 1259 1875 
L 1259 0 
L 628 0 
L 628 4666 
z
" id="DejaVuSans-50" transform="scale(0.015625)"/>
      <path d="M 581 4863 
L 1159 4863 
L 1159 1991 
L 2875 3500 
L 3609 3500 
L 1753 1863 
L 3688 0 
L 2938 0 
L 1159 1709 
L 1159 0 
L 581 0 
L 581 4863 
z
" id="DejaVuSans-6b" transform="scale(0.015625)"/>
      <path d="M 691 4666 
L 3169 4666 
L 3169 4134 
L 1269 4134 
L 1269 2991 
Q 1406 3038 1543 3061 
Q 1681 3084 1819 3084 
Q 2600 3084 3056 2656 
Q 3513 2228 3513 1497 
Q 3513 744 3044 326 
Q 2575 -91 1722 -91 
Q 1428 -91 1123 -41 
Q 819 9 494 109 
L 494 744 
Q 775 591 1075 516 
Q 1375 441 1709 441 
Q 2250 441 2565 725 
Q 2881 1009 2881 1497 
Q 2881 1984 2565 2268 
Q 2250 2553 1709 2553 
Q 1456 2553 1204 2497 
Q 953 2441 691 2322 
L 691 4666 
z
" id="DejaVuSans-35" transform="scale(0.015625)"/>
      <path d="M 703 97 
L 703 672 
Q 941 559 1184 500 
Q 1428 441 1663 441 
Q 2288 441 2617 861 
Q 2947 1281 2994 2138 
Q 2813 1869 2534 1725 
Q 2256 1581 1919 1581 
Q 1219 1581 811 2004 
Q 403 2428 403 3163 
Q 403 3881 828 4315 
Q 1253 4750 1959 4750 
Q 2769 4750 3195 4129 
Q 3622 3509 3622 2328 
Q 3622 1225 3098 567 
Q 2575 -91 1691 -91 
Q 1453 -91 1209 -44 
Q 966 3 703 97 
z
M 1959 2075 
Q 2384 2075 2632 2365 
Q 2881 2656 2881 3163 
Q 2881 3666 2632 3958 
Q 2384 4250 1959 4250 
Q 1534 4250 1286 3958 
Q 1038 3666 1038 3163 
Q 1038 2656 1286 2365 
Q 1534 2075 1959 2075 
z
" id="DejaVuSans-39" transform="scale(0.015625)"/>
     </defs>
     <use xlink:href="#DejaVuSans-43"/>
     <use x="69.824219" xlink:href="#DejaVuSans-61"/>
     <use x="131.103516" xlink:href="#DejaVuSans-73"/>
     <use x="183.203125" xlink:href="#DejaVuSans-63"/>
     <use x="238.183594" xlink:href="#DejaVuSans-61"/>
     <use x="299.462891" xlink:href="#DejaVuSans-64"/>
     <use x="362.939453" xlink:href="#DejaVuSans-65"/>
     <use x="424.462891" xlink:href="#DejaVuSans-20"/>
     <use x="456.25" xlink:href="#DejaVuSans-50"/>
     <use x="512.052734" xlink:href="#DejaVuSans-61"/>
     <use x="573.332031" xlink:href="#DejaVuSans-72"/>
     <use x="614.445312" xlink:href="#DejaVuSans-6b"/>
     <use x="672.355469" xlink:href="#DejaVuSans-20"/>
     <use x="704.142578" xlink:href="#DejaVuSans-31"/>
     <use x="767.765625" xlink:href="#DejaVuSans-35"/>
     <use x="831.388672" xlink:href="#DejaVuSans-2e"/>
     <use x="863.175781" xlink:href="#DejaVuSans-39"/>
     <use x="926.798828" xlink:href="#DejaVuSans-b0"/>
    </g>
   </g>
   <g id="text_9">
    <g id="patch_14">
     <path d="M 13.400459 25.3944 
L 27.018924 42.396433 
L 28.560883 41.161339 
L 14.942417 24.159306 
z
" style="fill:#ffffff;"/>
    </g>
    <!-- Black Bear Park 16.4° -->
    <g style="fill:#008000;" transform="translate(13.753207 25.137476)rotate(-308.694393)scale(0.02 -0.02)">
     <defs>
      <path d="M 603 4863 
L 1178 4863 
L 1178 0 
L 603 0 
L 603 4863 
z
" id="DejaVuSans-6c" transform="scale(0.015625)"/>
      <path d="M 2113 2584 
Q 1688 2584 1439 2293 
Q 1191 2003 1191 1497 
Q 1191 994 1439 701 
Q 1688 409 2113 409 
Q 2538 409 2786 701 
Q 3034 994 3034 1497 
Q 3034 2003 2786 2293 
Q 2538 2584 2113 2584 
z
M 3366 4563 
L 3366 3988 
Q 3128 4100 2886 4159 
Q 2644 4219 2406 4219 
Q 1781 4219 1451 3797 
Q 1122 3375 1075 2522 
Q 1259 2794 1537 2939 
Q 1816 3084 2150 3084 
Q 2853 3084 3261 2657 
Q 3669 2231 3669 1497 
Q 3669 778 3244 343 
Q 2819 -91 2113 -91 
Q 1303 -91 875 529 
Q 447 1150 447 2328 
Q 447 3434 972 4092 
Q 1497 4750 2381 4750 
Q 2619 4750 2861 4703 
Q 3103 4656 3366 4563 
z
" id="DejaVuSans-36" transform="scale(0.015625)"/>
      <path d="M 2419 4116 
L 825 1625 
L 2419 1625 
L 2419 4116 
z
M 2253 4666 
L 3047 4666 
L 3047 1625 
L 3713 1625 
L 3713 1100 
L 3047 1100 
L 3047 0 
L 2419 0 
L 2419 1100 
L 313 1100 
L 313 1709 
L 2253 4666 
z
" id="DejaVuSans-34" transform="scale(0.015625)"/>
     </defs>
     <use xlink:href="#DejaVuSans-42"/>
     <use x="68.603516" xlink:href="#DejaVuSans-6c"/>
     <use x="96.386719" xlink:href="#DejaVuSans-61"/>
     <use x="157.666016" xlink:href="#DejaVuSans-63"/>
     <use x="212.646484" xlink:href="#DejaVuSans-6b"/>
     <use x="270.556641" xlink:href="#DejaVuSans-20"/>
     <use x="302.34375" xlink:href="#DejaVuSans-42"/>
     <use x="370.947266" xlink:href="#DejaVuSans-65"/>
     <use x="432.470703" xlink:href="#DejaVuSans-61"/>
     <use x="493.75" xlink:href="#DejaVuSans-72"/>
     <use x="534.863281" xlink:href="#DejaVuSans-20"/>
     <use x="566.650391" xlink:href="#DejaVuSans-50"/>
     <use x="622.453125" xlink:href="#DejaVuSans-61"/>
     <use x="683.732422" xlink:href="#DejaVuSans-72"/>
     <use x="724.845703" xlink:href="#DejaVuSans-6b"/>
     <use x="782.755859" xlink:href="#DejaVuSans-20"/>
     <use x="814.542969" xlink:href="#DejaVuSans-31"/>
     <use x="878.166016" xlink:href="#DejaVuSans-36"/>
     <use x="941.789062" xlink:href="#DejaVuSans-2e"/>
     <use x="973.576172" xlink:href="#DejaVuSans-34"/>
     <use x="1037.199219" xlink:href="#DejaVuSans-b0"/>
    </g>
   </g>
   <g id="text_10">
    <g id="patch_15">
     <path d="M 12.763154 24.551283 
L 20.891028 34.404729 
L 22.415065 33.147587 
L 14.287191 23.294141 
z
" style="fill:#ffffff;"/>
    </g>
    <!-- Kodiak 17.9° -->
    <g style="fill:#4169e1;" transform="translate(13.112172 24.289313)rotate(-309.518413)scale(0.02 -0.02)">
     <defs>
      <path d="M 628 4666 
L 1259 4666 
L 1259 2694 
L 3353 4666 
L 4166 4666 
L 1850 2491 
L 4331 0 
L 3500 0 
L 1259 2247 
L 1259 0 
L 628 0 
L 628 4666 
z
" id="DejaVuSans-4b" transform="scale(0.015625)"/>
      <path d="M 525 4666 
L 3525 4666 
L 3525 4397 
L 1831 0 
L 1172 0 
L 2766 4134 
L 525 4134 
L 525 4666 
z
" id="DejaVuSans-37" transform="scale(0.015625)"/>
     </defs>
     <use xlink:href="#DejaVuSans-4b"/>
     <use x="60.576172" xlink:href="#DejaVuSans-6f"/>
     <use x="121.757812" xlink:href="#DejaVuSans-64"/>
     <use x="185.234375" xlink:href="#DejaVuSans-69"/>
     <use x="213.017578" xlink:href="#DejaVuSans-61"/>
     <use x="274.296875" xlink:href="#DejaVuSans-6b"/>
     <use x="332.207031" xlink:href="#DejaVuSans-20"/>
     <use x="363.994141" xlink:href="#DejaVuSans-31"/>
     <use x="427.617188" xlink:href="#DejaVuSans-37"/>
     <use x="491.240234" xlink:href="#DejaVuSans-2e"/>
     <use x="523.027344" xlink:href="#DejaVuSans-39"/>
     <use x="586.650391" xlink:href="#DejaVuSans-b0"/>
    </g>
   </g>
   <g id="text_11">
    <g id="patch_16">
     <path d="M 14.973456 20.204384 
L 27.322285 30.444413 
L 28.583363 28.923632 
L 16.234534 18.683603 
z
" style="fill:#ffffff;"/>
    </g>
    <!-- Broadway 14.5° -->
    <g style="fill:#008000;" transform="translate(15.267118 19.881577)rotate(-320.333433)scale(0.02 -0.02)">
     <defs>
      <path d="M 2059 -325 
Q 1816 -950 1584 -1140 
Q 1353 -1331 966 -1331 
L 506 -1331 
L 506 -850 
L 844 -850 
Q 1081 -850 1212 -737 
Q 1344 -625 1503 -206 
L 1606 56 
L 191 3500 
L 800 3500 
L 1894 763 
L 2988 3500 
L 3597 3500 
L 2059 -325 
z
" id="DejaVuSans-79" transform="scale(0.015625)"/>
     </defs>
     <use xlink:href="#DejaVuSans-42"/>
     <use x="68.603516" xlink:href="#DejaVuSans-72"/>
     <use x="107.466797" xlink:href="#DejaVuSans-6f"/>
     <use x="168.648438" xlink:href="#DejaVuSans-61"/>
     <use x="229.927734" xlink:href="#DejaVuSans-64"/>
     <use x="293.404297" xlink:href="#DejaVuSans-77"/>
     <use x="375.191406" xlink:href="#DejaVuSans-61"/>
     <use x="436.470703" xlink:href="#DejaVuSans-79"/>
     <use x="495.650391" xlink:href="#DejaVuSans-20"/>
     <use x="527.4375" xlink:href="#DejaVuSans-31"/>
     <use x="591.060547" xlink:href="#DejaVuSans-34"/>
     <use x="654.683594" xlink:href="#DejaVuSans-2e"/>
     <use x="686.470703" xlink:href="#DejaVuSans-35"/>
     <use x="750.09375" xlink:href="#DejaVuSans-b0"/>
    </g>
   </g>
   <g id="text_12">
    <g id="patch_17">
     <path d="M 98.253553 35.22633 
L 106.022642 50.035604 
L 107.772137 49.117802 
L 100.003048 34.308527 
z
" style="fill:#ffffff;"/>
    </g>
    <!-- Timberline 16.2° -->
    <g style="fill:#008000;" transform="translate(98.648884 35.04152)rotate(-297.681941)scale(0.02 -0.02)">
     <defs>
      <path d="M -19 4666 
L 3928 4666 
L 3928 4134 
L 2272 4134 
L 2272 0 
L 1638 0 
L 1638 4134 
L -19 4134 
L -19 4666 
z
" id="DejaVuSans-54" transform="scale(0.015625)"/>
      <path d="M 3328 2828 
Q 3544 3216 3844 3400 
Q 4144 3584 4550 3584 
Q 5097 3584 5394 3201 
Q 5691 2819 5691 2113 
L 5691 0 
L 5113 0 
L 5113 2094 
Q 5113 2597 4934 2840 
Q 4756 3084 4391 3084 
Q 3944 3084 3684 2787 
Q 3425 2491 3425 1978 
L 3425 0 
L 2847 0 
L 2847 2094 
Q 2847 2600 2669 2842 
Q 2491 3084 2119 3084 
Q 1678 3084 1418 2786 
Q 1159 2488 1159 1978 
L 1159 0 
L 581 0 
L 581 3500 
L 1159 3500 
L 1159 2956 
Q 1356 3278 1631 3431 
Q 1906 3584 2284 3584 
Q 2666 3584 2933 3390 
Q 3200 3197 3328 2828 
z
" id="DejaVuSans-6d" transform="scale(0.015625)"/>
     </defs>
     <use xlink:href="#DejaVuSans-54"/>
     <use x="57.958984" xlink:href="#DejaVuSans-69"/>
     <use x="85.742188" xlink:href="#DejaVuSans-6d"/>
     <use x="183.154297" xlink:href="#DejaVuSans-62"/>
     <use x="246.630859" xlink:href="#DejaVuSans-65"/>
     <use x="308.154297" xlink:href="#DejaVuSans-72"/>
     <use x="349.267578" xlink:href="#DejaVuSans-6c"/>
     <use x="377.050781" xlink:href="#DejaVuSans-69"/>
     <use x="404.833984" xlink:href="#DejaVuSans-6e"/>
     <use x="468.212891" xlink:href="#DejaVuSans-65"/>
     <use x="529.736328" xlink:href="#DejaVuSans-20"/>
     <use x="561.523438" xlink:href="#DejaVuSans-31"/>
     <use x="625.146484" xlink:href="#DejaVuSans-36"/>
     <use x="688.769531" xlink:href="#DejaVuSans-2e"/>
     <use x="720.556641" xlink:href="#DejaVuSans-32"/>
     <use x="784.179688" xlink:href="#DejaVuSans-b0"/>
    </g>
   </g>
   <g id="text_13">
    <g id="patch_18">
     <path d="M 112.294729 90.271511 
L 115.349926 76.486005 
L 113.421102 76.058532 
L 110.365905 89.844038 
z
" style="fill:#ffffff;"/>
    </g>
    <!-- Homerun 7.7° -->
    <g style="fill:#008000;" transform="translate(111.873446 90.157659)rotate(-77.503867)scale(0.02 -0.02)">
     <defs>
      <path d="M 628 4666 
L 1259 4666 
L 1259 2753 
L 3553 2753 
L 3553 4666 
L 4184 4666 
L 4184 0 
L 3553 0 
L 3553 2222 
L 1259 2222 
L 1259 0 
L 628 0 
L 628 4666 
z
" id="DejaVuSans-48" transform="scale(0.015625)"/>
     </defs>
     <use xlink:href="#DejaVuSans-48"/>
     <use x="75.195312" xlink:href="#DejaVuSans-6f"/>
     <use x="136.376953" xlink:href="#DejaVuSans-6d"/>
     <use x="233.789062" xlink:href="#DejaVuSans-65"/>
     <use x="295.3125" xlink:href="#DejaVuSans-72"/>
     <use x="336.425781" xlink:href="#DejaVuSans-75"/>
     <use x="399.804688" xlink:href="#DejaVuSans-6e"/>
     <use x="463.183594" xlink:href="#DejaVuSans-20"/>
     <use x="494.970703" xlink:href="#DejaVuSans-37"/>
     <use x="558.59375" xlink:href="#DejaVuSans-2e"/>
     <use x="590.380859" xlink:href="#DejaVuSans-37"/>
     <use x="654.003906" xlink:href="#DejaVuSans-b0"/>
    </g>
   </g>
   <g id="text_14">
    <g id="patch_19">
     <path d="M 30.882019 32.064587 
L 46.625708 36.090617 
L 47.115171 34.176584 
L 31.371482 30.150555 
z
" style="fill:#ffffff;"/>
    </g>
    <!-- Family Park 8.1° -->
    <g style="fill:#008000;" transform="translate(31.0094 31.647195)rotate(-345.655538)scale(0.02 -0.02)">
     <defs>
      <path d="M 2034 2216 
Q 1584 2216 1326 1975 
Q 1069 1734 1069 1313 
Q 1069 891 1326 650 
Q 1584 409 2034 409 
Q 2484 409 2743 651 
Q 3003 894 3003 1313 
Q 3003 1734 2745 1975 
Q 2488 2216 2034 2216 
z
M 1403 2484 
Q 997 2584 770 2862 
Q 544 3141 544 3541 
Q 544 4100 942 4425 
Q 1341 4750 2034 4750 
Q 2731 4750 3128 4425 
Q 3525 4100 3525 3541 
Q 3525 3141 3298 2862 
Q 3072 2584 2669 2484 
Q 3125 2378 3379 2068 
Q 3634 1759 3634 1313 
Q 3634 634 3220 271 
Q 2806 -91 2034 -91 
Q 1263 -91 848 271 
Q 434 634 434 1313 
Q 434 1759 690 2068 
Q 947 2378 1403 2484 
z
M 1172 3481 
Q 1172 3119 1398 2916 
Q 1625 2713 2034 2713 
Q 2441 2713 2670 2916 
Q 2900 3119 2900 3481 
Q 2900 3844 2670 4047 
Q 2441 4250 2034 4250 
Q 1625 4250 1398 4047 
Q 1172 3844 1172 3481 
z
" id="DejaVuSans-38" transform="scale(0.015625)"/>
     </defs>
     <use xlink:href="#DejaVuSans-46"/>
     <use x="48.394531" xlink:href="#DejaVuSans-61"/>
     <use x="109.673828" xlink:href="#DejaVuSans-6d"/>
     <use x="207.085938" xlink:href="#DejaVuSans-69"/>
     <use x="234.869141" xlink:href="#DejaVuSans-6c"/>
     <use x="262.652344" xlink:href="#DejaVuSans-79"/>
     <use x="321.832031" xlink:href="#DejaVuSans-20"/>
     <use x="353.619141" xlink:href="#DejaVuSans-50"/>
     <use x="409.421875" xlink:href="#DejaVuSans-61"/>
     <use x="470.701172" xlink:href="#DejaVuSans-72"/>
     <use x="511.814453" xlink:href="#DejaVuSans-6b"/>
     <use x="569.724609" xlink:href="#DejaVuSans-20"/>
     <use x="601.511719" xlink:href="#DejaVuSans-38"/>
     <use x="665.134766" xlink:href="#DejaVuSans-2e"/>
     <use x="696.921875" xlink:href="#DejaVuSans-31"/>
     <use x="760.544922" xlink:href="#DejaVuSans-b0"/>
    </g>
   </g>
   <g id="text_15">
    <g id="patch_20">
     <path d="M 64.663371 46.686962 
L 65.855549 63.224044 
L 67.82606 63.081988 
L 66.633882 46.544905 
z
" style="fill:#ffffff;"/>
    </g>
    <!-- Sasquatch 26.6° -->
    <g transform="translate(65.099618 46.675564)rotate(-274.123387)scale(0.02 -0.02)">
     <defs>
      <path d="M 947 1747 
Q 947 1113 1208 752 
Q 1469 391 1925 391 
Q 2381 391 2643 752 
Q 2906 1113 2906 1747 
Q 2906 2381 2643 2742 
Q 2381 3103 1925 3103 
Q 1469 3103 1208 2742 
Q 947 2381 947 1747 
z
M 2906 525 
Q 2725 213 2448 61 
Q 2172 -91 1784 -91 
Q 1150 -91 751 415 
Q 353 922 353 1747 
Q 353 2572 751 3078 
Q 1150 3584 1784 3584 
Q 2172 3584 2448 3432 
Q 2725 3281 2906 2969 
L 2906 3500 
L 3481 3500 
L 3481 -1331 
L 2906 -1331 
L 2906 525 
z
" id="DejaVuSans-71" transform="scale(0.015625)"/>
      <path d="M 3513 2113 
L 3513 0 
L 2938 0 
L 2938 2094 
Q 2938 2591 2744 2837 
Q 2550 3084 2163 3084 
Q 1697 3084 1428 2787 
Q 1159 2491 1159 1978 
L 1159 0 
L 581 0 
L 581 4863 
L 1159 4863 
L 1159 2956 
Q 1366 3272 1645 3428 
Q 1925 3584 2291 3584 
Q 2894 3584 3203 3211 
Q 3513 2838 3513 2113 
z
" id="DejaVuSans-68" transform="scale(0.015625)"/>
     </defs>
     <use xlink:href="#DejaVuSans-53"/>
     <use x="63.476562" xlink:href="#DejaVuSans-61"/>
     <use x="124.755859" xlink:href="#DejaVuSans-73"/>
     <use x="176.855469" xlink:href="#DejaVuSans-71"/>
     <use x="240.332031" xlink:href="#DejaVuSans-75"/>
     <use x="303.710938" xlink:href="#DejaVuSans-61"/>
     <use x="364.990234" xlink:href="#DejaVuSans-74"/>
     <use x="404.199219" xlink:href="#DejaVuSans-63"/>
     <use x="459.179688" xlink:href="#DejaVuSans-68"/>
     <use x="522.558594" xlink:href="#DejaVuSans-20"/>
     <use x="554.345703" xlink:href="#DejaVuSans-32"/>
     <use x="617.96875" xlink:href="#DejaVuSans-36"/>
     <use x="681.591797" xlink:href="#DejaVuSans-2e"/>
     <use x="713.378906" xlink:href="#DejaVuSans-36"/>
     <use x="777.001953" xlink:href="#DejaVuSans-b0"/>
    </g>
   </g>
   <g id="text_16">
    <g id="patch_21">
     <path d="M 92.591942 57.038772 
L 106.609975 67.607345 
L 107.799311 66.029824 
L 93.781278 55.461251 
z
" style="fill:#ffffff;"/>
    </g>
    <!-- Easy Street 11.1° -->
    <g style="fill:#008000;" transform="translate(92.870349 56.70272)rotate(-322.986373)scale(0.02 -0.02)">
     <use xlink:href="#DejaVuSans-45"/>
     <use x="63.183594" xlink:href="#DejaVuSans-61"/>
     <use x="124.462891" xlink:href="#DejaVuSans-73"/>
     <use x="176.5625" xlink:href="#DejaVuSans-79"/>
     <use x="235.742188" xlink:href="#DejaVuSans-20"/>
     <use x="267.529297" xlink:href="#DejaVuSans-53"/>
     <use x="331.005859" xlink:href="#DejaVuSans-74"/>
     <use x="370.214844" xlink:href="#DejaVuSans-72"/>
     <use x="409.078125" xlink:href="#DejaVuSans-65"/>
     <use x="470.601562" xlink:href="#DejaVuSans-65"/>
     <use x="532.125" xlink:href="#DejaVuSans-74"/>
     <use x="571.333984" xlink:href="#DejaVuSans-20"/>
     <use x="603.121094" xlink:href="#DejaVuSans-31"/>
     <use x="666.744141" xlink:href="#DejaVuSans-31"/>
     <use x="730.367188" xlink:href="#DejaVuSans-2e"/>
     <use x="762.154297" xlink:href="#DejaVuSans-31"/>
     <use x="825.777344" xlink:href="#DejaVuSans-b0"/>
    </g>
   </g>
   <g id="text_17">
    <g id="patch_22">
     <path d="M 90.439359 59.727374 
L 96.929557 70.471795 
L 98.62061 69.450309 
L 92.130412 58.705888 
z
" style="fill:#ffffff;"/>
    </g>
    <!-- Drifter 12.9° -->
    <g style="fill:#008000;" transform="translate(90.822844 59.519094)rotate(-301.134196)scale(0.02 -0.02)">
     <defs>
      <path d="M 1259 4147 
L 1259 519 
L 2022 519 
Q 2988 519 3436 956 
Q 3884 1394 3884 2338 
Q 3884 3275 3436 3711 
Q 2988 4147 2022 4147 
L 1259 4147 
z
M 628 4666 
L 1925 4666 
Q 3281 4666 3915 4102 
Q 4550 3538 4550 2338 
Q 4550 1131 3912 565 
Q 3275 0 1925 0 
L 628 0 
L 628 4666 
z
" id="DejaVuSans-44" transform="scale(0.015625)"/>
     </defs>
     <use xlink:href="#DejaVuSans-44"/>
     <use x="77.001953" xlink:href="#DejaVuSans-72"/>
     <use x="118.115234" xlink:href="#DejaVuSans-69"/>
     <use x="145.898438" xlink:href="#DejaVuSans-66"/>
     <use x="179.353516" xlink:href="#DejaVuSans-74"/>
     <use x="218.5625" xlink:href="#DejaVuSans-65"/>
     <use x="280.085938" xlink:href="#DejaVuSans-72"/>
     <use x="321.199219" xlink:href="#DejaVuSans-20"/>
     <use x="352.986328" xlink:href="#DejaVuSans-31"/>
     <use x="416.609375" xlink:href="#DejaVuSans-32"/>
     <use x="480.232422" xlink:href="#DejaVuSans-2e"/>
     <use x="512.019531" xlink:href="#DejaVuSans-39"/>
     <use x="575.642578" xlink:href="#DejaVuSans-b0"/>
    </g>
   </g>
   <g id="text_18">
    <g id="patch_23">
     <path d="M 92.575776 71.761267 
L 101.993865 86.213702 
L 103.649058 85.135078 
L 94.230969 70.682642 
z
" style="fill:#ffffff;"/>
    </g>
    <!-- Teddy Bear 10.0° -->
    <g style="fill:#008000;" transform="translate(92.951927 71.540016)rotate(-303.090719)scale(0.02 -0.02)">
     <defs>
      <path d="M 2034 4250 
Q 1547 4250 1301 3770 
Q 1056 3291 1056 2328 
Q 1056 1369 1301 889 
Q 1547 409 2034 409 
Q 2525 409 2770 889 
Q 3016 1369 3016 2328 
Q 3016 3291 2770 3770 
Q 2525 4250 2034 4250 
z
M 2034 4750 
Q 2819 4750 3233 4129 
Q 3647 3509 3647 2328 
Q 3647 1150 3233 529 
Q 2819 -91 2034 -91 
Q 1250 -91 836 529 
Q 422 1150 422 2328 
Q 422 3509 836 4129 
Q 1250 4750 2034 4750 
z
" id="DejaVuSans-30" transform="scale(0.015625)"/>
     </defs>
     <use xlink:href="#DejaVuSans-54"/>
     <use x="44.083984" xlink:href="#DejaVuSans-65"/>
     <use x="105.607422" xlink:href="#DejaVuSans-64"/>
     <use x="169.083984" xlink:href="#DejaVuSans-64"/>
     <use x="232.560547" xlink:href="#DejaVuSans-79"/>
     <use x="291.740234" xlink:href="#DejaVuSans-20"/>
     <use x="323.527344" xlink:href="#DejaVuSans-42"/>
     <use x="392.130859" xlink:href="#DejaVuSans-65"/>
     <use x="453.654297" xlink:href="#DejaVuSans-61"/>
     <use x="514.933594" xlink:href="#DejaVuSans-72"/>
     <use x="556.046875" xlink:href="#DejaVuSans-20"/>
     <use x="587.833984" xlink:href="#DejaVuSans-31"/>
     <use x="651.457031" xlink:href="#DejaVuSans-30"/>
     <use x="715.080078" xlink:href="#DejaVuSans-2e"/>
     <use x="746.867188" xlink:href="#DejaVuSans-30"/>
     <use x="810.490234" xlink:href="#DejaVuSans-b0"/>
    </g>
   </g>
   <g id="text_19">
    <g id="patch_24">
     <path d="M 87.941992 73.855585 
L 95.129574 84.998949 
L 96.789799 83.928087 
L 89.602217 72.784723 
z
" style="fill:#ffffff;"/>
    </g>
    <!-- Cub Run 8.8° -->
    <g style="fill:#008000;" transform="translate(88.319175 73.636098)rotate(-302.822424)scale(0.02 -0.02)">
     <defs>
      <path d="M 2841 2188 
Q 3044 2119 3236 1894 
Q 3428 1669 3622 1275 
L 4263 0 
L 3584 0 
L 2988 1197 
Q 2756 1666 2539 1819 
Q 2322 1972 1947 1972 
L 1259 1972 
L 1259 0 
L 628 0 
L 628 4666 
L 2053 4666 
Q 2853 4666 3247 4331 
Q 3641 3997 3641 3322 
Q 3641 2881 3436 2590 
Q 3231 2300 2841 2188 
z
M 1259 4147 
L 1259 2491 
L 2053 2491 
Q 2509 2491 2742 2702 
Q 2975 2913 2975 3322 
Q 2975 3731 2742 3939 
Q 2509 4147 2053 4147 
L 1259 4147 
z
" id="DejaVuSans-52" transform="scale(0.015625)"/>
     </defs>
     <use xlink:href="#DejaVuSans-43"/>
     <use x="69.824219" xlink:href="#DejaVuSans-75"/>
     <use x="133.203125" xlink:href="#DejaVuSans-62"/>
     <use x="196.679688" xlink:href="#DejaVuSans-20"/>
     <use x="228.466797" xlink:href="#DejaVuSans-52"/>
     <use x="293.449219" xlink:href="#DejaVuSans-75"/>
     <use x="356.828125" xlink:href="#DejaVuSans-6e"/>
     <use x="420.207031" xlink:href="#DejaVuSans-20"/>
     <use x="451.994141" xlink:href="#DejaVuSans-38"/>
     <use x="515.617188" xlink:href="#DejaVuSans-2e"/>
     <use x="547.404297" xlink:href="#DejaVuSans-38"/>
     <use x="611.027344" xlink:href="#DejaVuSans-b0"/>
    </g>
   </g>
   <g id="text_20">
    <!-- Bear Creek -->
    <g transform="translate(46.546981 10.086864)scale(0.09 -0.09)">
     <use xlink:href="#DejaVuSans-42"/>
     <use x="68.603516" xlink:href="#DejaVuSans-65"/>
     <use x="130.126953" xlink:href="#DejaVuSans-61"/>
     <use x="191.40625" xlink:href="#DejaVuSans-72"/>
     <use x="232.519531" xlink:href="#DejaVuSans-20"/>
     <use x="264.306641" xlink:href="#DejaVuSans-43"/>
     <use x="334.130859" xlink:href="#DejaVuSans-72"/>
     <use x="372.994141" xlink:href="#DejaVuSans-65"/>
     <use x="434.517578" xlink:href="#DejaVuSans-65"/>
     <use x="496.041016" xlink:href="#DejaVuSans-6b"/>
    </g>
   </g>
   <g id="legend_1">
    <g id="line2d_34">
     <path d="M 8.473817 99.374362 
L 17.473817 99.374362 
" style="fill:none;stroke:#008000;stroke-linecap:square;stroke-width:1.5;"/>
    </g>
    <g id="line2d_35"/>
    <g id="text_21">
     <!-- Easy -->
     <g transform="translate(21.073817 100.949362)scale(0.045 -0.045)">
      <use xlink:href="#DejaVuSans-45"/>
      <use x="63.183594" xlink:href="#DejaVuSans-61"/>
      <use x="124.462891" xlink:href="#DejaVuSans-73"/>
      <use x="176.5625" xlink:href="#DejaVuSans-79"/>
     </g>
    </g>
    <g id="line2d_36">
     <path d="M 8.473817 105.979518 
L 17.473817 105.979518 
" style="fill:none;stroke:#4169e1;stroke-linecap:square;stroke-width:1.5;"/>
    </g>
    <g id="line2d_37"/>
    <g id="text_22">
     <!-- Intermediate -->
     <g transform="translate(21.073817 107.554518)scale(0.045 -0.045)">
      <defs>
       <path d="M 628 4666 
L 1259 4666 
L 1259 0 
L 628 0 
L 628 4666 
z
" id="DejaVuSans-49" transform="scale(0.015625)"/>
      </defs>
      <use xlink:href="#DejaVuSans-49"/>
      <use x="29.492188" xlink:href="#DejaVuSans-6e"/>
      <use x="92.871094" xlink:href="#DejaVuSans-74"/>
      <use x="132.080078" xlink:href="#DejaVuSans-65"/>
      <use x="193.603516" xlink:href="#DejaVuSans-72"/>
      <use x="232.966797" xlink:href="#DejaVuSans-6d"/>
      <use x="330.378906" xlink:href="#DejaVuSans-65"/>
      <use x="391.902344" xlink:href="#DejaVuSans-64"/>
      <use x="455.378906" xlink:href="#DejaVuSans-69"/>
      <use x="483.162109" xlink:href="#DejaVuSans-61"/>
      <use x="544.441406" xlink:href="#DejaVuSans-74"/>
      <use x="583.650391" xlink:href="#DejaVuSans-65"/>
     </g>
    </g>
    <g id="line2d_38">
     <path d="M 59.107255 99.374362 
L 68.107255 99.374362 
" style="fill:none;stroke:#000000;stroke-linecap:square;stroke-width:1.5;"/>
    </g>
    <g id="line2d_39"/>
    <g id="text_23">
     <!-- Advanced -->
     <g transform="translate(71.707255 100.949362)scale(0.045 -0.045)">
      <defs>
       <path d="M 191 3500 
L 800 3500 
L 1894 563 
L 2988 3500 
L 3597 3500 
L 2284 0 
L 1503 0 
L 191 3500 
z
" id="DejaVuSans-76" transform="scale(0.015625)"/>
      </defs>
      <use xlink:href="#DejaVuSans-41"/>
      <use x="66.658203" xlink:href="#DejaVuSans-64"/>
      <use x="130.134766" xlink:href="#DejaVuSans-76"/>
      <use x="189.314453" xlink:href="#DejaVuSans-61"/>
      <use x="250.59375" xlink:href="#DejaVuSans-6e"/>
      <use x="313.972656" xlink:href="#DejaVuSans-63"/>
      <use x="368.953125" xlink:href="#DejaVuSans-65"/>
      <use x="430.476562" xlink:href="#DejaVuSans-64"/>
     </g>
    </g>
    <g id="line2d_40">
     <path d="M 59.107255 105.979518 
L 68.107255 105.979518 
" style="fill:none;stroke:#ff0000;stroke-linecap:square;stroke-width:1.5;"/>
    </g>
    <g id="line2d_41"/>
    <g id="text_24">
     <!-- Expert -->
     <g transform="translate(71.707255 107.554518)scale(0.045 -0.045)">
      <defs>
       <path d="M 3513 3500 
L 2247 1797 
L 3578 0 
L 2900 0 
L 1881 1375 
L 863 0 
L 184 0 
L 1544 1831 
L 300 3500 
L 978 3500 
L 1906 2253 
L 2834 3500 
L 3513 3500 
z
" id="DejaVuSans-78" transform="scale(0.015625)"/>
      </defs>
      <use xlink:href="#DejaVuSans-45"/>
      <use x="63.183594" xlink:href="#DejaVuSans-78"/>
      <use x="122.363281" xlink:href="#DejaVuSans-70"/>
      <use x="185.839844" xlink:href="#DejaVuSans-65"/>
      <use x="247.363281" xlink:href="#DejaVuSans-72"/>
      <use x="288.476562" xlink:href="#DejaVuSans-74"/>
     </g>
    </g>
    <g id="line2d_42">
     <path d="M 102.936551 99.374362 
L 111.936551 99.374362 
" style="fill:none;stroke:#ffd700;stroke-linecap:square;stroke-width:1.5;"/>
    </g>
    <g id="line2d_43"/>
    <g id="text_25">
     <!-- Extreme -->
     <g transform="translate(115.536551 100.949362)scale(0.045 -0.045)">
      <use xlink:href="#DejaVuSans-45"/>
      <use x="63.183594" xlink:href="#DejaVuSans-78"/>
      <use x="122.363281" xlink:href="#DejaVuSans-74"/>
      <use x="161.572266" xlink:href="#DejaVuSans-72"/>
      <use x="200.435547" xlink:href="#DejaVuSans-65"/>
      <use x="261.958984" xlink:href="#DejaVuSans-6d"/>
      <use x="359.371094" xlink:href="#DejaVuSans-65"/>
     </g>
    </g>
    <g id="line2d_44">
     <path d="M 102.936551 105.979518 
L 111.936551 105.979518 
" style="fill:none;stroke:#000000;stroke-dasharray:1.5,2.475;stroke-dashoffset:0;stroke-width:1.5;"/>
    </g>
    <g id="line2d_45"/>
    <g id="text_26">
     <!-- Gladed -->
     <g transform="translate(115.536551 107.554518)scale(0.045 -0.045)">
      <defs>
       <path d="M 3809 666 
L 3809 1919 
L 2778 1919 
L 2778 2438 
L 4434 2438 
L 4434 434 
Q 4069 175 3628 42 
Q 3188 -91 2688 -91 
Q 1594 -91 976 548 
Q 359 1188 359 2328 
Q 359 3472 976 4111 
Q 1594 4750 2688 4750 
Q 3144 4750 3555 4637 
Q 3966 4525 4313 4306 
L 4313 3634 
Q 3963 3931 3569 4081 
Q 3175 4231 2741 4231 
Q 1884 4231 1454 3753 
Q 1025 3275 1025 2328 
Q 1025 1384 1454 906 
Q 1884 428 2741 428 
Q 3075 428 3337 486 
Q 3600 544 3809 666 
z
" id="DejaVuSans-47" transform="scale(0.015625)"/>
      </defs>
      <use xlink:href="#DejaVuSans-47"/>
      <use x="77.490234" xlink:href="#DejaVuSans-6c"/>
      <use x="105.273438" xlink:href="#DejaVuSans-61"/>
      <use x="166.552734" xlink:href="#DejaVuSans-64"/>
      <use x="230.029297" xlink:href="#DejaVuSans-65"/>
      <use x="291.552734" xlink:href="#DejaVuSans-64"/>
     </g>
    </g>
   </g>
  </g>
  <g id="text_27">
   <!-- Sources: USGS and OpenStreetMaps -->
   <g transform="translate(35.780976 115.388754)scale(0.03913 -0.03913)">
    <defs>
     <path d="M 750 794 
L 1409 794 
L 1409 0 
L 750 0 
L 750 794 
z
M 750 3309 
L 1409 3309 
L 1409 2516 
L 750 2516 
L 750 3309 
z
" id="DejaVuSans-3a" transform="scale(0.015625)"/>
     <path d="M 556 4666 
L 1191 4666 
L 1191 1831 
Q 1191 1081 1462 751 
Q 1734 422 2344 422 
Q 2950 422 3222 751 
Q 3494 1081 3494 1831 
L 3494 4666 
L 4128 4666 
L 4128 1753 
Q 4128 841 3676 375 
Q 3225 -91 2344 -91 
Q 1459 -91 1007 375 
Q 556 841 556 1753 
L 556 4666 
z
" id="DejaVuSans-55" transform="scale(0.015625)"/>
     <path d="M 2522 4238 
Q 1834 4238 1429 3725 
Q 1025 3213 1025 2328 
Q 1025 1447 1429 934 
Q 1834 422 2522 422 
Q 3209 422 3611 934 
Q 4013 1447 4013 2328 
Q 4013 3213 3611 3725 
Q 3209 4238 2522 4238 
z
M 2522 4750 
Q 3503 4750 4090 4092 
Q 4678 3434 4678 2328 
Q 4678 1225 4090 567 
Q 3503 -91 2522 -91 
Q 1538 -91 948 565 
Q 359 1222 359 2328 
Q 359 3434 948 4092 
Q 1538 4750 2522 4750 
z
" id="DejaVuSans-4f" transform="scale(0.015625)"/>
     <path d="M 628 4666 
L 1569 4666 
L 2759 1491 
L 3956 4666 
L 4897 4666 
L 4897 0 
L 4281 0 
L 4281 4097 
L 3078 897 
L 2444 897 
L 1241 4097 
L 1241 0 
L 628 0 
L 628 4666 
z
" id="DejaVuSans-4d" transform="scale(0.015625)"/>
    </defs>
    <use xlink:href="#DejaVuSans-53"/>
    <use x="63.476562" xlink:href="#DejaVuSans-6f"/>
    <use x="124.658203" xlink:href="#DejaVuSans-75"/>
    <use x="188.037109" xlink:href="#DejaVuSans-72"/>
    <use x="226.900391" xlink:href="#DejaVuSans-63"/>
    <use x="281.880859" xlink:href="#DejaVuSans-65"/>
    <use x="343.404297" xlink:href="#DejaVuSans-73"/>
    <use x="395.503906" xlink:href="#DejaVuSans-3a"/>
    <use x="429.195312" xlink:href="#DejaVuSans-20"/>
    <use x="460.982422" xlink:href="#DejaVuSans-55"/>
    <use x="534.175781" xlink:href="#DejaVuSans-53"/>
    <use x="597.652344" xlink:href="#DejaVuSans-47"/>
    <use x="675.142578" xlink:href="#DejaVuSans-53"/>
    <use x="738.619141" xlink:href="#DejaVuSans-20"/>
    <use x="770.40625" xlink:href="#DejaVuSans-61"/>
    <use x="831.685547" xlink:href="#DejaVuSans-6e"/>
    <use x="895.064453" xlink:href="#DejaVuSans-64"/>
    <use x="958.541016" xlink:href="#DejaVuSans-20"/>
    <use x="990.328125" xlink:href="#DejaVuSans-4f"/>
    <use x="1069.039062" xlink:href="#DejaVuSans-70"/>
    <use x="1132.515625" xlink:href="#DejaVuSans-65"/>
    <use x="1194.039062" xlink:href="#DejaVuSans-6e"/>
    <use x="1257.417969" xlink:href="#DejaVuSans-53"/>
    <use x="1320.894531" xlink:href="#DejaVuSans-74"/>
    <use x="1360.103516" xlink:href="#DejaVuSans-72"/>
    <use x="1398.966797" xlink:href="#DejaVuSans-65"/>
    <use x="1460.490234" xlink:href="#DejaVuSans-65"/>
    <use x="1522.013672" xlink:href="#DejaVuSans-74"/>
    <use x="1561.222656" xlink:href="#DejaVuSans-4d"/>
    <use x="1647.501953" xlink:href="#DejaVuSans-61"/>
    <use x="1708.78125" xlink:href="#DejaVuSans-70"/>
    <use x="1772.257812" xlink:href="#DejaVuSans-73"/>
   </g>
  </g>
 </g>
 <defs>
  <clipPath id="p566ca214a8">
   <rect height="87.028817" width="142.95115" x="0" y="14.586864"/>
  </clipPath>
 </defs>
</svg>
