<?xml version="1.0" encoding="utf-8" standalone="no"?>
<!DOCTYPE svg PUBLIC "-//W3C//DTD SVG 1.1//EN"
  "http://www.w3.org/Graphics/SVG/1.1/DTD/svg11.dtd">
<svg height="161.278791pt" version="1.1" viewBox="0 0 121.502721 161.278791" width="121.502721pt" xmlns="http://www.w3.org/2000/svg" xmlns:xlink="http://www.w3.org/1999/xlink">
 <metadata>
  <rdf:RDF xmlns:cc="http://creativecommons.org/ns#" xmlns:dc="http://purl.org/dc/elements/1.1/" xmlns:rdf="http://www.w3.org/1999/02/22-rdf-syntax-ns#">
   <cc:Work>
    <dc:type rdf:resource="http://purl.org/dc/dcmitype/StillImage"/>
    <dc:date>2022-04-14T21:27:48.618032</dc:date>
    <dc:format>image/svg+xml</dc:format>
    <dc:creator>
     <cc:Agent>
      <dc:title>Matplotlib v3.4.3, https://matplotlib.org/</dc:title>
     </cc:Agent>
    </dc:creator>
   </cc:Work>
  </rdf:RDF>
 </metadata>
 <defs>
  <style type="text/css">*{stroke-linecap:butt;stroke-linejoin:round;}</style>
 </defs>
 <g id="figure_1">
  <g id="patch_1">
   <path d="M 0 161.278791 
L 121.502721 161.278791 
L 121.502721 0 
L 0 0 
z
" style="fill:#ffffff;"/>
  </g>
  <g id="axes_1">
   <g id="line2d_1">
    <path clip-path="url(#pe93913ae8c)" d="M 61.421706 28.706857 
" style="fill:none;stroke:#008000;stroke-linecap:square;stroke-width:1.5;"/>
   </g>
   <g id="line2d_2">
    <path clip-path="url(#pe93913ae8c)" d="M 61.421706 28.706857 
" style="fill:none;stroke:#4169e1;stroke-linecap:square;stroke-width:1.5;"/>
   </g>
   <g id="line2d_3">
    <path clip-path="url(#pe93913ae8c)" d="M 61.421706 28.706857 
" style="fill:none;stroke:#000000;stroke-linecap:square;stroke-width:1.5;"/>
   </g>
   <g id="line2d_4">
    <path clip-path="url(#pe93913ae8c)" d="M 61.421706 28.706857 
" style="fill:none;stroke:#ff0000;stroke-linecap:square;stroke-width:1.5;"/>
   </g>
   <g id="line2d_5">
    <path clip-path="url(#pe93913ae8c)" d="M 61.421706 28.706857 
" style="fill:none;stroke:#ffd700;stroke-linecap:square;stroke-width:1.5;"/>
   </g>
   <g id="line2d_6">
    <path clip-path="url(#pe93913ae8c)" d="M 61.421706 28.706857 
" style="fill:none;stroke:#000000;stroke-dasharray:1.5,2.475;stroke-dashoffset:0;stroke-width:1.5;"/>
   </g>
   <g id="line2d_7">
    <path clip-path="url(#pe93913ae8c)" d="M 41.715385 141.709705 
L 41.051162 138.232208 
L 41.975182 133.292312 
L 42.899203 128.352416 
L 43.823224 123.41252 
L 44.747245 118.472624 
L 45.671265 113.532728 
L 46.595286 108.592832 
L 47.519307 103.652936 
L 48.443328 98.71304 
L 49.367348 93.773144 
L 50.291369 88.833248 
L 51.21539 83.893352 
L 52.139411 78.953456 
L 53.063431 74.01356 
L 53.987452 69.073664 
L 54.911473 64.133768 
L 55.835493 59.193872 
L 56.774181 53.739806 
L 57.712869 48.28574 
L 58.651557 42.831674 
L 59.590244 37.377608 
" style="fill:none;stroke:#808080;stroke-linecap:square;stroke-width:1.5;"/>
   </g>
   <g id="line2d_8">
    <path clip-path="url(#pe93913ae8c)" d="M 57.851632 142.669609 
L 60.287947 139.054611 
L 62.724263 135.439612 
L 65.160578 131.824614 
L 67.596894 128.209616 
L 70.033209 124.594617 
L 72.469525 120.979619 
L 74.90584 117.364621 
L 77.342156 113.749622 
L 79.778472 110.134624 
L 82.214787 106.519626 
L 84.651103 102.904627 
L 87.087418 99.289629 
L 89.523734 95.674631 
L 91.960049 92.059633 
L 94.396365 88.444634 
L 96.832681 84.829636 
" style="fill:none;stroke:#808080;stroke-linecap:square;stroke-width:1.5;"/>
   </g>
   <g id="line2d_9">
    <path clip-path="url(#pe93913ae8c)" d="M 61.421706 28.706857 
L 62.29892 28.119849 
L 63.176134 27.532842 
L 64.053348 26.945835 
L 64.930561 26.358828 
L 65.807775 25.77182 
L 66.684989 25.184813 
L 67.562203 24.597806 
L 68.439417 24.010799 
L 69.599002 23.820039 
L 70.758588 23.62928 
L 71.918173 23.43852 
L 73.077759 23.247761 
L 74.237344 23.057002 
L 75.39693 22.866242 
L 76.556515 22.675483 
L 77.716101 22.484723 
L 78.697386 22.8957 
L 79.678672 23.306677 
L 80.659958 23.717654 
L 81.641244 24.128631 
L 82.414386 25.097157 
L 83.187528 26.065683 
L 83.96067 27.034209 
L 84.733812 28.002735 
L 84.95675 29.396967 
L 85.179688 30.791199 
L 85.402627 32.185431 
L 85.625565 33.579664 
L 85.848503 34.973896 
L 86.071442 36.368128 
L 86.29438 37.76236 
L 86.517319 39.156592 
L 87.676904 40.037103 
L 88.836489 40.917613 
L 89.996075 41.798124 
L 91.15566 42.678635 
L 91.839525 43.515139 
L 92.52339 44.351642 
L 93.207254 45.188145 
L 93.891119 46.024648 
L 94.574983 46.861152 
L 95.258848 47.697655 
L 95.942713 48.534158 
L 96.626577 49.370662 
L 96.359 50.485939 
L 96.091423 51.601217 
L 95.823846 52.716495 
L 95.556269 53.831773 
L 95.288692 54.947051 
L 95.021115 56.062329 
L 94.753538 57.177607 
L 94.485961 58.292884 
L 95.259103 60.053906 
L 96.032245 61.814928 
L 96.805387 63.57595 
L 97.578529 65.336972 
L 98.23255 66.129467 
L 98.88657 66.921963 
L 99.540591 67.714459 
L 100.194611 68.506954 
L 100.164894 69.754435 
L 100.135178 71.001915 
L 100.105461 72.249395 
L 100.075745 73.496875 
L 100.046028 74.744356 
L 100.016311 75.991836 
L 99.986595 77.239316 
L 99.956878 78.486796 
L 100.165277 79.739126 
L 100.373676 80.991456 
L 100.582075 82.243786 
L 100.790474 83.496116 
L 101.027696 84.924477 
L 101.264919 86.352837 
L 101.383913 87.585409 
L 101.502907 88.81798 
L 101.621901 90.050552 
L 101.740895 91.283123 
L 101.859889 92.515695 
L 101.978883 93.748266 
L 102.097877 94.980838 
L 102.216871 96.213409 
L 101.711306 97.240852 
L 101.205741 98.268294 
L 100.700176 99.295736 
L 100.194611 100.323179 
" style="fill:none;stroke:#008000;stroke-linecap:square;stroke-width:1.5;"/>
   </g>
   <g id="line2d_10">
    <path clip-path="url(#pe93913ae8c)" d="M 58.925001 31.406946 
L 49.786059 25.170443 
L 35.256805 41.738849 
L 36.921956 48.430875 
L 37.397422 54.654445 
L 33.710011 61.814928 
L 34.186497 67.33294 
L 30.618464 74.612692 
L 25.949512 77.004549 
L 19.914362 80.600597 
L 12.301809 94.101045 
L 5.522851 101.379361 
L 7.068625 110.771477 
L 11.58861 120.867714 
L 20.984671 128.49809 
L 29.800428 132.871186 
L 38.229997 136.364131 
L 46.911838 142.116371 
L 46.911838 142.116371 
" style="fill:none;stroke:#4169e1;stroke-linecap:square;stroke-width:1.5;"/>
   </g>
   <g id="line2d_11">
    <path clip-path="url(#pe93913ae8c)" d="M 45.549721 67.769782 
L 46.047123 69.300169 
L 46.544525 70.830555 
L 47.041928 72.360941 
L 47.53933 73.891327 
L 48.036733 75.421713 
L 48.534135 76.952099 
L 49.031538 78.482485 
L 49.52894 80.012871 
" style="fill:none;stroke:#008000;stroke-linecap:square;stroke-width:1.5;"/>
   </g>
   <g id="line2d_12">
    <path clip-path="url(#pe93913ae8c)" d="M 70.331077 64.441732 
L 69.544543 65.757109 
L 68.75801 67.072487 
L 67.971476 68.387864 
L 67.184942 69.703242 
L 66.398409 71.01862 
L 65.611875 72.333997 
L 64.825342 73.649375 
L 64.038808 74.964753 
L 63.923577 76.036023 
L 63.808345 77.107293 
L 63.693113 78.178563 
L 63.577882 79.249834 
L 63.46265 80.321104 
L 63.347419 81.392374 
L 63.232187 82.463645 
L 63.116956 83.534915 
L 63.001724 84.606185 
L 62.886492 85.677455 
L 62.771261 86.748726 
L 62.656029 87.819996 
L 62.540798 88.891266 
L 62.425566 89.962537 
L 62.310334 91.033807 
L 62.195103 92.105077 
L 62.079871 93.176347 
L 61.96464 94.247618 
L 61.849408 95.318888 
L 61.734177 96.390158 
L 61.618945 97.461428 
L 61.503713 98.532699 
L 61.388482 99.603969 
L 61.27325 100.675239 
L 61.158019 101.74651 
L 61.042787 102.81778 
L 60.927556 103.88905 
L 60.812324 104.96032 
L 60.697092 106.031591 
L 60.581861 107.102861 
L 60.466629 108.174131 
L 60.351398 109.245401 
L 59.979749 110.232249 
L 59.6081 111.219097 
L 59.236451 112.205944 
L 58.864802 113.192792 
L 58.493153 114.179639 
L 58.121504 115.166487 
L 57.749855 116.153334 
L 57.378206 117.140182 
L 57.006557 118.12703 
L 56.634909 119.113877 
L 56.26326 120.100725 
L 55.891611 121.087572 
L 55.519962 122.07442 
L 55.148313 123.061267 
L 54.776664 124.048115 
L 54.405015 125.034963 
L 54.033366 126.02181 
L 53.661717 127.008658 
L 53.290068 127.995505 
L 52.918419 128.982353 
L 52.54677 129.9692 
L 52.175121 130.956048 
L 51.803473 131.942896 
L 51.431824 132.929743 
L 51.060175 133.916591 
L 50.688526 134.903438 
L 50.316877 135.890286 
L 49.945228 136.877133 
L 49.573579 137.863981 
L 49.20193 138.850829 
L 48.830281 139.837676 
L 48.458632 140.824524 
" style="fill:none;stroke:#008000;stroke-linecap:square;stroke-width:1.5;"/>
   </g>
   <g id="line2d_13">
    <path clip-path="url(#pe93913ae8c)" d="M 93.772763 18.609182 
L 94.857993 19.313663 
L 95.943223 20.018143 
L 97.028453 20.722624 
L 98.113683 21.427105 
L 99.198913 22.131585 
L 100.284144 22.836066 
L 101.369374 23.540546 
L 102.454604 24.245027 
L 103.495323 25.800919 
L 104.536042 27.356812 
L 105.576761 28.912704 
L 106.61748 30.468597 
L 106.632274 31.701348 
L 106.647069 32.934099 
L 106.661864 34.16685 
L 106.676658 35.399602 
L 106.691453 36.632353 
L 106.706247 37.865104 
L 106.721042 39.097855 
L 106.735836 40.330606 
L 107.313588 41.289792 
L 107.89134 42.248978 
L 108.469092 43.208163 
L 109.046845 44.167349 
L 109.624597 45.126534 
L 110.202349 46.08572 
L 110.780101 47.044906 
L 111.357853 48.004091 
L 111.935605 48.963277 
L 112.513357 49.922463 
L 113.091109 50.881648 
L 113.668861 51.840834 
L 114.246613 52.80002 
L 114.824366 53.759205 
L 115.402118 54.718391 
L 115.97987 55.677577 
" style="fill:none;stroke:#008000;stroke-linecap:square;stroke-width:1.5;"/>
   </g>
   <g id="line2d_14">
    <path clip-path="url(#pe93913ae8c)" d="M 100.790474 83.496116 
L 99.043188 83.702323 
L 97.295903 83.90853 
L 95.890932 84.073783 
L 94.485961 84.239036 
L 93.475086 84.826043 
L 92.464211 85.413051 
L 91.453337 86.000058 
L 90.442462 86.587065 
L 89.431587 87.174072 
L 88.420712 87.76108 
L 87.409837 88.348087 
L 86.398962 88.935094 
L 85.454153 90.628578 
L 84.509343 92.322061 
L 83.779182 93.630434 
L 83.04902 94.938806 
L 82.318859 96.247178 
L 81.588698 97.555551 
L 80.858536 98.863923 
L 80.128375 100.172295 
L 79.398214 101.480668 
L 78.668052 102.78904 
L 77.300196 103.87486 
L 75.932339 104.96068 
L 74.564482 106.046499 
L 73.196625 107.132319 
L 71.828768 108.218139 
L 70.460912 109.303959 
L 69.093055 110.389778 
L 67.725198 111.475598 
" style="fill:none;stroke:#008000;stroke-linecap:square;stroke-width:1.5;"/>
   </g>
   <g id="line2d_15">
    <path clip-path="url(#pe93913ae8c)" d="M 58.925001 31.406946 
L 58.449025 32.786449 
L 57.973049 34.165952 
L 57.497073 35.545455 
L 57.021097 36.924958 
L 56.039939 37.086439 
L 55.05878 37.24792 
L 54.077622 37.409401 
L 53.096464 37.570882 
L 52.115306 37.732363 
L 51.134147 37.893844 
L 50.152989 38.055324 
L 49.171831 38.216805 
L 47.952812 38.745256 
L 46.733794 39.273706 
L 45.514775 39.802156 
L 44.295756 40.330606 
L 44.117201 41.915598 
L 43.938647 43.500589 
L 43.760092 45.08558 
L 43.581537 46.670572 
L 43.74517 47.829857 
L 43.908803 48.989143 
L 44.072435 50.148428 
L 44.236068 51.307714 
L 44.399701 52.466999 
L 44.563333 53.626285 
L 44.726966 54.78557 
L 44.890599 55.944855 
L 45.326782 57.292026 
L 45.762966 58.639197 
L 46.228739 60.079053 
L 46.694511 61.51891 
L 47.160284 62.958766 
L 47.626057 64.398622 
L 47.106973 65.241412 
L 46.587889 66.084202 
L 46.068805 66.926992 
L 45.549721 67.769782 
" style="fill:none;stroke:#008000;stroke-linecap:square;stroke-width:1.5;"/>
   </g>
   <g id="line2d_16">
    <path clip-path="url(#pe93913ae8c)" d="M 45.549721 67.769782 
L 44.744184 69.078155 
L 43.938647 70.386527 
L 43.165632 71.487076 
L 42.392618 72.587625 
L 41.619603 73.688174 
L 40.846589 74.788722 
L 40.073574 75.889271 
L 39.30056 76.98982 
L 38.527546 78.090369 
L 37.754531 79.190917 
L 37.338243 80.291646 
L 36.921956 81.392374 
L 36.505668 82.493103 
L 36.089381 83.593831 
L 35.673093 84.69456 
L 35.256805 85.795288 
L 34.840518 86.896016 
L 34.42423 87.996745 
L 34.260598 89.332061 
L 34.096965 90.667376 
L 33.933332 92.002692 
L 33.7697 93.338008 
L 33.606067 94.673324 
L 33.442434 96.008639 
L 33.278802 97.343955 
L 33.115169 98.679271 
L 32.639448 99.750541 
L 32.163727 100.821811 
L 31.688006 101.893082 
L 31.212286 102.964352 
L 30.736565 104.035622 
L 30.260844 105.106893 
L 29.785123 106.178163 
L 29.309402 107.249433 
L 29.532468 109.025004 
L 29.755534 110.800576 
L 29.9786 112.576147 
L 30.201666 114.351718 
L 30.424732 116.127289 
L 30.647798 117.90286 
L 30.870863 119.678432 
L 31.093929 121.454003 
L 31.956094 122.598559 
L 32.818258 123.743116 
L 33.680422 124.887672 
L 34.542586 126.032228 
L 35.003513 127.323716 
L 35.464439 128.615204 
L 35.925365 129.906692 
L 36.386292 131.198179 
L 36.847218 132.489667 
L 37.308144 133.781155 
L 37.769071 135.072643 
L 38.229997 136.364131 
" style="fill:none;stroke:#4169e1;stroke-linecap:square;stroke-width:1.5;"/>
   </g>
   <g id="line2d_17">
    <path clip-path="url(#pe93913ae8c)" d="M 58.228127 37.955275 
L 58.014308 39.360464 
L 57.800488 40.765653 
L 57.586669 42.170842 
L 57.37285 43.576031 
L 57.15903 44.98122 
L 56.945211 46.386409 
L 56.731392 47.791598 
L 56.517573 49.196787 
L 56.303753 50.601976 
L 56.089934 52.007165 
L 55.876115 53.412354 
L 55.662295 54.817543 
L 55.448476 56.222732 
L 55.234657 57.627921 
L 55.020838 59.03311 
L 54.807018 60.438299 
" style="fill:none;stroke:#4169e1;stroke-linecap:square;stroke-width:1.5;"/>
   </g>
   <g id="line2d_18">
    <path clip-path="url(#pe93913ae8c)" d="M 54.807018 60.438299 
L 53.676512 60.213411 
L 52.546005 59.988524 
L 51.415499 59.763636 
L 50.284992 59.538748 
L 49.154486 59.31386 
L 48.023979 59.088973 
L 46.893472 58.864085 
L 45.762966 58.639197 
" style="fill:none;stroke:#008000;stroke-linecap:square;stroke-width:1.5;"/>
   </g>
   <g id="line2d_19">
    <path clip-path="url(#pe93913ae8c)" d="M 41.051162 138.232208 
L 41.316092 136.412853 
L 41.581023 134.593499 
L 41.845953 132.774145 
L 42.110884 130.954791 
L 42.375815 129.135436 
L 42.640745 127.316082 
L 42.905676 125.496728 
L 43.170606 123.677374 
L 43.435537 121.858019 
L 43.700467 120.038665 
L 43.965398 118.219311 
L 44.230329 116.399957 
L 44.495259 114.580602 
L 44.76019 112.761248 
L 45.02512 110.941894 
L 45.290051 109.12254 
L 45.554982 107.303185 
L 45.819912 105.483831 
L 46.084843 103.664477 
L 46.349773 101.845122 
L 46.614704 100.025768 
L 46.879634 98.206414 
L 47.144565 96.38706 
L 47.409496 94.567705 
L 47.674426 92.748351 
L 47.939357 90.928997 
L 48.204287 89.109643 
L 48.469218 87.290288 
L 48.734149 85.470934 
L 48.999079 83.65158 
L 49.26401 81.832226 
L 49.52894 80.012871 
L 50.456915 79.652189 
L 51.384889 79.291506 
L 51.598772 78.113181 
L 51.812655 76.934855 
L 52.026538 75.75653 
L 52.240421 74.578204 
L 52.454305 73.399879 
L 52.668188 72.221554 
L 52.882071 71.043228 
L 53.095954 69.864903 
L 53.309837 68.686577 
L 53.52372 67.508252 
L 53.737603 66.329926 
L 53.951486 65.151601 
L 54.165369 63.973275 
L 54.379252 62.79495 
L 54.593135 61.616624 
L 54.807018 60.438299 
" style="fill:none;stroke:#4169e1;stroke-linecap:square;stroke-width:1.5;"/>
   </g>
   <g id="line2d_20">
    <path clip-path="url(#pe93913ae8c)" d="M 84.733812 28.002735 
L 86.012264 27.004751 
L 87.290716 26.006767 
L 88.569167 25.008783 
L 89.847619 24.010799 
L 90.828905 22.660395 
L 91.810191 21.30999 
L 92.791477 19.959586 
L 93.772763 18.609182 
" style="fill:none;stroke:#008000;stroke-linecap:square;stroke-width:1.5;"/>
   </g>
   <g id="line2d_21">
    <path clip-path="url(#pe93913ae8c)" d="M 75.813217 44.660234 
L 76.561872 45.446982 
L 77.310526 46.233729 
L 78.059181 47.020477 
L 78.807835 47.807225 
L 78.780542 48.860892 
L 78.753249 49.914559 
L 78.725955 50.968227 
L 78.698662 52.021894 
L 78.671368 53.075561 
L 78.644075 54.129228 
L 78.616782 55.182896 
L 78.589488 56.236563 
L 78.397925 57.668516 
L 78.206361 59.100468 
L 78.014797 60.532421 
L 77.823233 61.964374 
L 76.844626 63.034028 
L 75.866019 64.103681 
L 74.887411 65.173335 
L 73.908804 66.242989 
L 72.930196 67.312642 
L 71.951589 68.382296 
L 70.972981 69.45195 
L 69.994374 70.521604 
" style="fill:none;stroke:#008000;stroke-linecap:square;stroke-width:1.5;"/>
   </g>
   <g id="line2d_22">
    <path clip-path="url(#pe93913ae8c)" d="M 70.331077 64.441732 
L 70.246901 65.9617 
L 70.162725 67.481668 
L 70.078549 69.001636 
L 69.994374 70.521604 
L 69.923462 71.801416 
L 69.85255 73.081228 
L 69.781638 74.36104 
L 69.710727 75.640853 
L 69.639815 76.920665 
L 69.568903 78.200477 
L 69.497992 79.48029 
L 69.42708 80.760102 
L 69.356168 82.039914 
L 69.285256 83.319727 
L 69.214345 84.599539 
L 69.143433 85.879351 
L 69.072521 87.159164 
L 69.001609 88.438976 
L 68.930698 89.718788 
L 68.859786 90.998601 
L 68.788874 92.278413 
L 68.717962 93.558225 
L 68.647051 94.838038 
L 68.576139 96.11785 
L 68.505227 97.397662 
L 68.434315 98.677475 
L 68.363404 99.957287 
L 68.292492 101.237099 
L 68.22158 102.516912 
L 68.150669 103.796724 
L 68.079757 105.076536 
L 68.008845 106.356349 
L 67.937933 107.636161 
L 67.867022 108.915973 
L 67.79611 110.195786 
L 67.725198 111.475598 
" style="fill:none;stroke:#008000;stroke-linecap:square;stroke-width:1.5;"/>
   </g>
   <g id="line2d_23">
    <path clip-path="url(#pe93913ae8c)" d="M 67.725198 111.475598 
L 67.33496 112.411073 
L 66.944723 113.346549 
L 66.554485 114.282024 
L 66.164247 115.2175 
L 65.774009 116.152975 
L 65.383772 117.088451 
L 64.993534 118.023926 
L 64.603296 118.959402 
L 64.213058 119.894877 
L 63.822821 120.830352 
L 63.432583 121.765828 
L 63.042345 122.701303 
L 62.652107 123.636779 
L 62.26187 124.572254 
L 61.871632 125.50773 
L 61.481394 126.443205 
L 61.091156 127.378681 
L 60.700919 128.314156 
L 60.310681 129.249632 
L 59.920443 130.185107 
L 59.530205 131.120582 
L 59.139968 132.056058 
L 58.74973 132.991533 
L 58.359492 133.927009 
L 57.969254 134.862484 
L 57.579017 135.79796 
L 57.188779 136.733435 
L 56.798541 137.668911 
L 56.408303 138.604386 
L 56.018066 139.539862 
L 55.627828 140.475337 
L 55.23759 141.410812 
" style="fill:none;stroke:#008000;stroke-linecap:square;stroke-width:1.5;"/>
   </g>
   <g id="line2d_24">
    <path clip-path="url(#pe93913ae8c)" d="M 97.295903 83.90853 
L 96.236308 85.440353 
L 95.176713 86.972176 
L 94.117118 88.504 
L 93.057523 90.035823 
L 92.497914 90.844866 
L 91.938304 91.65391 
L 91.378694 92.462953 
L 90.819085 93.271996 
L 90.259475 94.08104 
L 89.699865 94.890083 
L 89.140256 95.699127 
L 88.580646 96.50817 
L 88.021036 97.317214 
L 87.461427 98.126257 
L 86.901817 98.935301 
L 86.342207 99.744344 
L 85.782598 100.553388 
L 85.222988 101.362431 
L 84.663378 102.171475 
L 84.103769 102.980518 
L 83.544159 103.789562 
L 82.984549 104.598605 
L 82.42494 105.407648 
L 81.86533 106.216692 
L 81.30572 107.025735 
L 80.746111 107.834779 
L 80.186501 108.643822 
L 79.626891 109.452866 
L 79.067282 110.261909 
L 78.507672 111.070953 
L 77.948062 111.879996 
L 77.388453 112.68904 
L 76.828843 113.498083 
L 76.269233 114.307127 
L 75.709624 115.11617 
L 75.150014 115.925214 
L 74.590404 116.734257 
L 74.030795 117.5433 
L 73.471185 118.352344 
L 72.911575 119.161387 
L 72.351966 119.970431 
L 71.792356 120.779474 
L 71.232746 121.588518 
L 70.673137 122.397561 
L 70.113527 123.206605 
L 69.553917 124.015648 
L 68.994308 124.824692 
L 68.434698 125.633735 
L 67.875088 126.442779 
L 67.315479 127.251822 
L 66.755869 128.060866 
L 66.196259 128.869909 
L 65.63665 129.678952 
L 65.07704 130.487996 
L 64.51743 131.297039 
L 63.957821 132.106083 
L 63.398211 132.915126 
L 62.838601 133.72417 
L 62.278992 134.533213 
L 61.719382 135.342257 
L 61.159772 136.1513 
L 60.600163 136.960344 
L 60.040553 137.769387 
L 59.480943 138.578431 
L 58.921334 139.387474 
L 58.361724 140.196518 
L 57.802114 141.005561 
L 57.242505 141.814604 
" style="fill:none;stroke:#008000;stroke-linecap:square;stroke-width:1.5;"/>
   </g>
   <g id="line2d_25">
    <path clip-path="url(#pe93913ae8c)" d="M 93.057523 90.035823 
L 91.989001 90.321602 
L 90.920478 90.607382 
L 89.851956 90.893162 
L 88.783433 91.178942 
L 87.714911 91.464722 
L 86.646388 91.750502 
L 85.577866 92.036282 
L 84.509343 92.322061 
" style="fill:none;stroke:#008000;stroke-linecap:square;stroke-width:1.5;"/>
   </g>
   <g id="text_1">
    <g id="patch_2">
     <path d="M 42.917109 130.729663 
L 46.639782 116.598664 
L 44.729338 116.095377 
L 41.006665 130.226375 
z
" style="fill:#ffffff;"/>
    </g>
    <!-- Donaher Triple -->
    <g style="fill:#808080;" transform="translate(42.50065 130.599268)rotate(-75.241312)scale(0.02 -0.02)">
     <defs>
      <path d="M 1259 4147 
L 1259 519 
L 2022 519 
Q 2988 519 3436 956 
Q 3884 1394 3884 2338 
Q 3884 3275 3436 3711 
Q 2988 4147 2022 4147 
L 1259 4147 
z
M 628 4666 
L 1925 4666 
Q 3281 4666 3915 4102 
Q 4550 3538 4550 2338 
Q 4550 1131 3912 565 
Q 3275 0 1925 0 
L 628 0 
L 628 4666 
z
" id="DejaVuSans-44" transform="scale(0.015625)"/>
      <path d="M 1959 3097 
Q 1497 3097 1228 2736 
Q 959 2375 959 1747 
Q 959 1119 1226 758 
Q 1494 397 1959 397 
Q 2419 397 2687 759 
Q 2956 1122 2956 1747 
Q 2956 2369 2687 2733 
Q 2419 3097 1959 3097 
z
M 1959 3584 
Q 2709 3584 3137 3096 
Q 3566 2609 3566 1747 
Q 3566 888 3137 398 
Q 2709 -91 1959 -91 
Q 1206 -91 779 398 
Q 353 888 353 1747 
Q 353 2609 779 3096 
Q 1206 3584 1959 3584 
z
" id="DejaVuSans-6f" transform="scale(0.015625)"/>
      <path d="M 3513 2113 
L 3513 0 
L 2938 0 
L 2938 2094 
Q 2938 2591 2744 2837 
Q 2550 3084 2163 3084 
Q 1697 3084 1428 2787 
Q 1159 2491 1159 1978 
L 1159 0 
L 581 0 
L 581 3500 
L 1159 3500 
L 1159 2956 
Q 1366 3272 1645 3428 
Q 1925 3584 2291 3584 
Q 2894 3584 3203 3211 
Q 3513 2838 3513 2113 
z
" id="DejaVuSans-6e" transform="scale(0.015625)"/>
      <path d="M 2194 1759 
Q 1497 1759 1228 1600 
Q 959 1441 959 1056 
Q 959 750 1161 570 
Q 1363 391 1709 391 
Q 2188 391 2477 730 
Q 2766 1069 2766 1631 
L 2766 1759 
L 2194 1759 
z
M 3341 1997 
L 3341 0 
L 2766 0 
L 2766 531 
Q 2569 213 2275 61 
Q 1981 -91 1556 -91 
Q 1019 -91 701 211 
Q 384 513 384 1019 
Q 384 1609 779 1909 
Q 1175 2209 1959 2209 
L 2766 2209 
L 2766 2266 
Q 2766 2663 2505 2880 
Q 2244 3097 1772 3097 
Q 1472 3097 1187 3025 
Q 903 2953 641 2809 
L 641 3341 
Q 956 3463 1253 3523 
Q 1550 3584 1831 3584 
Q 2591 3584 2966 3190 
Q 3341 2797 3341 1997 
z
" id="DejaVuSans-61" transform="scale(0.015625)"/>
      <path d="M 3513 2113 
L 3513 0 
L 2938 0 
L 2938 2094 
Q 2938 2591 2744 2837 
Q 2550 3084 2163 3084 
Q 1697 3084 1428 2787 
Q 1159 2491 1159 1978 
L 1159 0 
L 581 0 
L 581 4863 
L 1159 4863 
L 1159 2956 
Q 1366 3272 1645 3428 
Q 1925 3584 2291 3584 
Q 2894 3584 3203 3211 
Q 3513 2838 3513 2113 
z
" id="DejaVuSans-68" transform="scale(0.015625)"/>
      <path d="M 3597 1894 
L 3597 1613 
L 953 1613 
Q 991 1019 1311 708 
Q 1631 397 2203 397 
Q 2534 397 2845 478 
Q 3156 559 3463 722 
L 3463 178 
Q 3153 47 2828 -22 
Q 2503 -91 2169 -91 
Q 1331 -91 842 396 
Q 353 884 353 1716 
Q 353 2575 817 3079 
Q 1281 3584 2069 3584 
Q 2775 3584 3186 3129 
Q 3597 2675 3597 1894 
z
M 3022 2063 
Q 3016 2534 2758 2815 
Q 2500 3097 2075 3097 
Q 1594 3097 1305 2825 
Q 1016 2553 972 2059 
L 3022 2063 
z
" id="DejaVuSans-65" transform="scale(0.015625)"/>
      <path d="M 2631 2963 
Q 2534 3019 2420 3045 
Q 2306 3072 2169 3072 
Q 1681 3072 1420 2755 
Q 1159 2438 1159 1844 
L 1159 0 
L 581 0 
L 581 3500 
L 1159 3500 
L 1159 2956 
Q 1341 3275 1631 3429 
Q 1922 3584 2338 3584 
Q 2397 3584 2469 3576 
Q 2541 3569 2628 3553 
L 2631 2963 
z
" id="DejaVuSans-72" transform="scale(0.015625)"/>
      <path id="DejaVuSans-20" transform="scale(0.015625)"/>
      <path d="M -19 4666 
L 3928 4666 
L 3928 4134 
L 2272 4134 
L 2272 0 
L 1638 0 
L 1638 4134 
L -19 4134 
L -19 4666 
z
" id="DejaVuSans-54" transform="scale(0.015625)"/>
      <path d="M 603 3500 
L 1178 3500 
L 1178 0 
L 603 0 
L 603 3500 
z
M 603 4863 
L 1178 4863 
L 1178 4134 
L 603 4134 
L 603 4863 
z
" id="DejaVuSans-69" transform="scale(0.015625)"/>
      <path d="M 1159 525 
L 1159 -1331 
L 581 -1331 
L 581 3500 
L 1159 3500 
L 1159 2969 
Q 1341 3281 1617 3432 
Q 1894 3584 2278 3584 
Q 2916 3584 3314 3078 
Q 3713 2572 3713 1747 
Q 3713 922 3314 415 
Q 2916 -91 2278 -91 
Q 1894 -91 1617 61 
Q 1341 213 1159 525 
z
M 3116 1747 
Q 3116 2381 2855 2742 
Q 2594 3103 2138 3103 
Q 1681 3103 1420 2742 
Q 1159 2381 1159 1747 
Q 1159 1113 1420 752 
Q 1681 391 2138 391 
Q 2594 391 2855 752 
Q 3116 1113 3116 1747 
z
" id="DejaVuSans-70" transform="scale(0.015625)"/>
      <path d="M 603 4863 
L 1178 4863 
L 1178 0 
L 603 0 
L 603 4863 
z
" id="DejaVuSans-6c" transform="scale(0.015625)"/>
     </defs>
     <use xlink:href="#DejaVuSans-44"/>
     <use x="77.001953" xlink:href="#DejaVuSans-6f"/>
     <use x="138.183594" xlink:href="#DejaVuSans-6e"/>
     <use x="201.5625" xlink:href="#DejaVuSans-61"/>
     <use x="262.841797" xlink:href="#DejaVuSans-68"/>
     <use x="326.220703" xlink:href="#DejaVuSans-65"/>
     <use x="387.744141" xlink:href="#DejaVuSans-72"/>
     <use x="428.857422" xlink:href="#DejaVuSans-20"/>
     <use x="460.644531" xlink:href="#DejaVuSans-54"/>
     <use x="506.978516" xlink:href="#DejaVuSans-72"/>
     <use x="548.091797" xlink:href="#DejaVuSans-69"/>
     <use x="575.875" xlink:href="#DejaVuSans-70"/>
     <use x="639.351562" xlink:href="#DejaVuSans-6c"/>
     <use x="667.134766" xlink:href="#DejaVuSans-65"/>
    </g>
   </g>
   <g id="text_2">
    <g id="patch_3">
     <path d="M 76.286548 116.296633 
L 79.830685 112.562696 
L 78.397764 111.202612 
L 74.853627 114.936548 
z
" style="fill:#ffffff;"/>
    </g>
    <!-- T-Bar -->
    <g style="fill:#808080;" transform="translate(75.984131 115.982014)rotate(-46.493839)scale(0.02 -0.02)">
     <defs>
      <path d="M 313 2009 
L 1997 2009 
L 1997 1497 
L 313 1497 
L 313 2009 
z
" id="DejaVuSans-2d" transform="scale(0.015625)"/>
      <path d="M 1259 2228 
L 1259 519 
L 2272 519 
Q 2781 519 3026 730 
Q 3272 941 3272 1375 
Q 3272 1813 3026 2020 
Q 2781 2228 2272 2228 
L 1259 2228 
z
M 1259 4147 
L 1259 2741 
L 2194 2741 
Q 2656 2741 2882 2914 
Q 3109 3088 3109 3444 
Q 3109 3797 2882 3972 
Q 2656 4147 2194 4147 
L 1259 4147 
z
M 628 4666 
L 2241 4666 
Q 2963 4666 3353 4366 
Q 3744 4066 3744 3513 
Q 3744 3084 3544 2831 
Q 3344 2578 2956 2516 
Q 3422 2416 3680 2098 
Q 3938 1781 3938 1306 
Q 3938 681 3513 340 
Q 3088 0 2303 0 
L 628 0 
L 628 4666 
z
" id="DejaVuSans-42" transform="scale(0.015625)"/>
     </defs>
     <use xlink:href="#DejaVuSans-54"/>
     <use x="51.958984" xlink:href="#DejaVuSans-2d"/>
     <use x="84.417969" xlink:href="#DejaVuSans-42"/>
     <use x="153.021484" xlink:href="#DejaVuSans-61"/>
     <use x="214.300781" xlink:href="#DejaVuSans-72"/>
    </g>
   </g>
   <g id="text_3">
    <g id="patch_4">
     <path d="M 96.834774 70.220601 
L 101.989073 92.213116 
L 103.912578 91.762312 
L 98.758279 69.769797 
z
" style="fill:#ffffff;"/>
    </g>
    <!-- Upper Fitzgerald 13.7° -->
    <g style="fill:#008000;" transform="translate(97.263775 70.1406)rotate(-283.190124)scale(0.02 -0.02)">
     <defs>
      <path d="M 556 4666 
L 1191 4666 
L 1191 1831 
Q 1191 1081 1462 751 
Q 1734 422 2344 422 
Q 2950 422 3222 751 
Q 3494 1081 3494 1831 
L 3494 4666 
L 4128 4666 
L 4128 1753 
Q 4128 841 3676 375 
Q 3225 -91 2344 -91 
Q 1459 -91 1007 375 
Q 556 841 556 1753 
L 556 4666 
z
" id="DejaVuSans-55" transform="scale(0.015625)"/>
      <path d="M 628 4666 
L 3309 4666 
L 3309 4134 
L 1259 4134 
L 1259 2759 
L 3109 2759 
L 3109 2228 
L 1259 2228 
L 1259 0 
L 628 0 
L 628 4666 
z
" id="DejaVuSans-46" transform="scale(0.015625)"/>
      <path d="M 1172 4494 
L 1172 3500 
L 2356 3500 
L 2356 3053 
L 1172 3053 
L 1172 1153 
Q 1172 725 1289 603 
Q 1406 481 1766 481 
L 2356 481 
L 2356 0 
L 1766 0 
Q 1100 0 847 248 
Q 594 497 594 1153 
L 594 3053 
L 172 3053 
L 172 3500 
L 594 3500 
L 594 4494 
L 1172 4494 
z
" id="DejaVuSans-74" transform="scale(0.015625)"/>
      <path d="M 353 3500 
L 3084 3500 
L 3084 2975 
L 922 459 
L 3084 459 
L 3084 0 
L 275 0 
L 275 525 
L 2438 3041 
L 353 3041 
L 353 3500 
z
" id="DejaVuSans-7a" transform="scale(0.015625)"/>
      <path d="M 2906 1791 
Q 2906 2416 2648 2759 
Q 2391 3103 1925 3103 
Q 1463 3103 1205 2759 
Q 947 2416 947 1791 
Q 947 1169 1205 825 
Q 1463 481 1925 481 
Q 2391 481 2648 825 
Q 2906 1169 2906 1791 
z
M 3481 434 
Q 3481 -459 3084 -895 
Q 2688 -1331 1869 -1331 
Q 1566 -1331 1297 -1286 
Q 1028 -1241 775 -1147 
L 775 -588 
Q 1028 -725 1275 -790 
Q 1522 -856 1778 -856 
Q 2344 -856 2625 -561 
Q 2906 -266 2906 331 
L 2906 616 
Q 2728 306 2450 153 
Q 2172 0 1784 0 
Q 1141 0 747 490 
Q 353 981 353 1791 
Q 353 2603 747 3093 
Q 1141 3584 1784 3584 
Q 2172 3584 2450 3431 
Q 2728 3278 2906 2969 
L 2906 3500 
L 3481 3500 
L 3481 434 
z
" id="DejaVuSans-67" transform="scale(0.015625)"/>
      <path d="M 2906 2969 
L 2906 4863 
L 3481 4863 
L 3481 0 
L 2906 0 
L 2906 525 
Q 2725 213 2448 61 
Q 2172 -91 1784 -91 
Q 1150 -91 751 415 
Q 353 922 353 1747 
Q 353 2572 751 3078 
Q 1150 3584 1784 3584 
Q 2172 3584 2448 3432 
Q 2725 3281 2906 2969 
z
M 947 1747 
Q 947 1113 1208 752 
Q 1469 391 1925 391 
Q 2381 391 2643 752 
Q 2906 1113 2906 1747 
Q 2906 2381 2643 2742 
Q 2381 3103 1925 3103 
Q 1469 3103 1208 2742 
Q 947 2381 947 1747 
z
" id="DejaVuSans-64" transform="scale(0.015625)"/>
      <path d="M 794 531 
L 1825 531 
L 1825 4091 
L 703 3866 
L 703 4441 
L 1819 4666 
L 2450 4666 
L 2450 531 
L 3481 531 
L 3481 0 
L 794 0 
L 794 531 
z
" id="DejaVuSans-31" transform="scale(0.015625)"/>
      <path d="M 2597 2516 
Q 3050 2419 3304 2112 
Q 3559 1806 3559 1356 
Q 3559 666 3084 287 
Q 2609 -91 1734 -91 
Q 1441 -91 1130 -33 
Q 819 25 488 141 
L 488 750 
Q 750 597 1062 519 
Q 1375 441 1716 441 
Q 2309 441 2620 675 
Q 2931 909 2931 1356 
Q 2931 1769 2642 2001 
Q 2353 2234 1838 2234 
L 1294 2234 
L 1294 2753 
L 1863 2753 
Q 2328 2753 2575 2939 
Q 2822 3125 2822 3475 
Q 2822 3834 2567 4026 
Q 2313 4219 1838 4219 
Q 1578 4219 1281 4162 
Q 984 4106 628 3988 
L 628 4550 
Q 988 4650 1302 4700 
Q 1616 4750 1894 4750 
Q 2613 4750 3031 4423 
Q 3450 4097 3450 3541 
Q 3450 3153 3228 2886 
Q 3006 2619 2597 2516 
z
" id="DejaVuSans-33" transform="scale(0.015625)"/>
      <path d="M 684 794 
L 1344 794 
L 1344 0 
L 684 0 
L 684 794 
z
" id="DejaVuSans-2e" transform="scale(0.015625)"/>
      <path d="M 525 4666 
L 3525 4666 
L 3525 4397 
L 1831 0 
L 1172 0 
L 2766 4134 
L 525 4134 
L 525 4666 
z
" id="DejaVuSans-37" transform="scale(0.015625)"/>
      <path d="M 1600 4347 
Q 1350 4347 1178 4173 
Q 1006 4000 1006 3750 
Q 1006 3503 1178 3333 
Q 1350 3163 1600 3163 
Q 1850 3163 2022 3333 
Q 2194 3503 2194 3750 
Q 2194 3997 2020 4172 
Q 1847 4347 1600 4347 
z
M 1600 4750 
Q 1800 4750 1984 4673 
Q 2169 4597 2303 4453 
Q 2447 4313 2519 4134 
Q 2591 3956 2591 3750 
Q 2591 3338 2302 3052 
Q 2013 2766 1594 2766 
Q 1172 2766 890 3047 
Q 609 3328 609 3750 
Q 609 4169 896 4459 
Q 1184 4750 1600 4750 
z
" id="DejaVuSans-b0" transform="scale(0.015625)"/>
     </defs>
     <use xlink:href="#DejaVuSans-55"/>
     <use x="73.193359" xlink:href="#DejaVuSans-70"/>
     <use x="136.669922" xlink:href="#DejaVuSans-70"/>
     <use x="200.146484" xlink:href="#DejaVuSans-65"/>
     <use x="261.669922" xlink:href="#DejaVuSans-72"/>
     <use x="302.783203" xlink:href="#DejaVuSans-20"/>
     <use x="334.570312" xlink:href="#DejaVuSans-46"/>
     <use x="384.839844" xlink:href="#DejaVuSans-69"/>
     <use x="412.623047" xlink:href="#DejaVuSans-74"/>
     <use x="451.832031" xlink:href="#DejaVuSans-7a"/>
     <use x="504.322266" xlink:href="#DejaVuSans-67"/>
     <use x="567.798828" xlink:href="#DejaVuSans-65"/>
     <use x="629.322266" xlink:href="#DejaVuSans-72"/>
     <use x="670.435547" xlink:href="#DejaVuSans-61"/>
     <use x="731.714844" xlink:href="#DejaVuSans-6c"/>
     <use x="759.498047" xlink:href="#DejaVuSans-64"/>
     <use x="822.974609" xlink:href="#DejaVuSans-20"/>
     <use x="854.761719" xlink:href="#DejaVuSans-31"/>
     <use x="918.384766" xlink:href="#DejaVuSans-33"/>
     <use x="982.007812" xlink:href="#DejaVuSans-2e"/>
     <use x="1013.794922" xlink:href="#DejaVuSans-37"/>
     <use x="1077.417969" xlink:href="#DejaVuSans-b0"/>
    </g>
   </g>
   <g id="text_4">
    <g id="patch_5">
     <path d="M 37.779517 38.565152 
L 48.506562 29.879559 
L 47.263347 28.344141 
L 36.536302 37.029733 
z
" style="fill:#ffffff;"/>
    </g>
    <!-- St. John 19.3° -->
    <g style="fill:#4169e1;" transform="translate(37.520735 38.213763)rotate(-38.996781)scale(0.02 -0.02)">
     <defs>
      <path d="M 3425 4513 
L 3425 3897 
Q 3066 4069 2747 4153 
Q 2428 4238 2131 4238 
Q 1616 4238 1336 4038 
Q 1056 3838 1056 3469 
Q 1056 3159 1242 3001 
Q 1428 2844 1947 2747 
L 2328 2669 
Q 3034 2534 3370 2195 
Q 3706 1856 3706 1288 
Q 3706 609 3251 259 
Q 2797 -91 1919 -91 
Q 1588 -91 1214 -16 
Q 841 59 441 206 
L 441 856 
Q 825 641 1194 531 
Q 1563 422 1919 422 
Q 2459 422 2753 634 
Q 3047 847 3047 1241 
Q 3047 1584 2836 1778 
Q 2625 1972 2144 2069 
L 1759 2144 
Q 1053 2284 737 2584 
Q 422 2884 422 3419 
Q 422 4038 858 4394 
Q 1294 4750 2059 4750 
Q 2388 4750 2728 4690 
Q 3069 4631 3425 4513 
z
" id="DejaVuSans-53" transform="scale(0.015625)"/>
      <path d="M 628 4666 
L 1259 4666 
L 1259 325 
Q 1259 -519 939 -900 
Q 619 -1281 -91 -1281 
L -331 -1281 
L -331 -750 
L -134 -750 
Q 284 -750 456 -515 
Q 628 -281 628 325 
L 628 4666 
z
" id="DejaVuSans-4a" transform="scale(0.015625)"/>
      <path d="M 703 97 
L 703 672 
Q 941 559 1184 500 
Q 1428 441 1663 441 
Q 2288 441 2617 861 
Q 2947 1281 2994 2138 
Q 2813 1869 2534 1725 
Q 2256 1581 1919 1581 
Q 1219 1581 811 2004 
Q 403 2428 403 3163 
Q 403 3881 828 4315 
Q 1253 4750 1959 4750 
Q 2769 4750 3195 4129 
Q 3622 3509 3622 2328 
Q 3622 1225 3098 567 
Q 2575 -91 1691 -91 
Q 1453 -91 1209 -44 
Q 966 3 703 97 
z
M 1959 2075 
Q 2384 2075 2632 2365 
Q 2881 2656 2881 3163 
Q 2881 3666 2632 3958 
Q 2384 4250 1959 4250 
Q 1534 4250 1286 3958 
Q 1038 3666 1038 3163 
Q 1038 2656 1286 2365 
Q 1534 2075 1959 2075 
z
" id="DejaVuSans-39" transform="scale(0.015625)"/>
     </defs>
     <use xlink:href="#DejaVuSans-53"/>
     <use x="63.476562" xlink:href="#DejaVuSans-74"/>
     <use x="102.685547" xlink:href="#DejaVuSans-2e"/>
     <use x="134.472656" xlink:href="#DejaVuSans-20"/>
     <use x="166.259766" xlink:href="#DejaVuSans-4a"/>
     <use x="195.751953" xlink:href="#DejaVuSans-6f"/>
     <use x="256.933594" xlink:href="#DejaVuSans-68"/>
     <use x="320.3125" xlink:href="#DejaVuSans-6e"/>
     <use x="383.691406" xlink:href="#DejaVuSans-20"/>
     <use x="415.478516" xlink:href="#DejaVuSans-31"/>
     <use x="479.101562" xlink:href="#DejaVuSans-39"/>
     <use x="542.724609" xlink:href="#DejaVuSans-2e"/>
     <use x="574.511719" xlink:href="#DejaVuSans-33"/>
     <use x="638.134766" xlink:href="#DejaVuSans-b0"/>
    </g>
   </g>
   <g id="text_5">
    <g id="patch_6">
     <path d="M 61.942862 99.122556 
L 65.322534 76.813351 
L 63.369197 76.517436 
L 59.989524 98.826641 
z
" style="fill:#ffffff;"/>
    </g>
    <!-- Lower Kennebec 15.8° -->
    <g style="fill:#008000;" transform="translate(61.514838 99.037486)rotate(-81.385632)scale(0.02 -0.02)">
     <defs>
      <path d="M 628 4666 
L 1259 4666 
L 1259 531 
L 3531 531 
L 3531 0 
L 628 0 
L 628 4666 
z
" id="DejaVuSans-4c" transform="scale(0.015625)"/>
      <path d="M 269 3500 
L 844 3500 
L 1563 769 
L 2278 3500 
L 2956 3500 
L 3675 769 
L 4391 3500 
L 4966 3500 
L 4050 0 
L 3372 0 
L 2619 2869 
L 1863 0 
L 1184 0 
L 269 3500 
z
" id="DejaVuSans-77" transform="scale(0.015625)"/>
      <path d="M 628 4666 
L 1259 4666 
L 1259 2694 
L 3353 4666 
L 4166 4666 
L 1850 2491 
L 4331 0 
L 3500 0 
L 1259 2247 
L 1259 0 
L 628 0 
L 628 4666 
z
" id="DejaVuSans-4b" transform="scale(0.015625)"/>
      <path d="M 3116 1747 
Q 3116 2381 2855 2742 
Q 2594 3103 2138 3103 
Q 1681 3103 1420 2742 
Q 1159 2381 1159 1747 
Q 1159 1113 1420 752 
Q 1681 391 2138 391 
Q 2594 391 2855 752 
Q 3116 1113 3116 1747 
z
M 1159 2969 
Q 1341 3281 1617 3432 
Q 1894 3584 2278 3584 
Q 2916 3584 3314 3078 
Q 3713 2572 3713 1747 
Q 3713 922 3314 415 
Q 2916 -91 2278 -91 
Q 1894 -91 1617 61 
Q 1341 213 1159 525 
L 1159 0 
L 581 0 
L 581 4863 
L 1159 4863 
L 1159 2969 
z
" id="DejaVuSans-62" transform="scale(0.015625)"/>
      <path d="M 3122 3366 
L 3122 2828 
Q 2878 2963 2633 3030 
Q 2388 3097 2138 3097 
Q 1578 3097 1268 2742 
Q 959 2388 959 1747 
Q 959 1106 1268 751 
Q 1578 397 2138 397 
Q 2388 397 2633 464 
Q 2878 531 3122 666 
L 3122 134 
Q 2881 22 2623 -34 
Q 2366 -91 2075 -91 
Q 1284 -91 818 406 
Q 353 903 353 1747 
Q 353 2603 823 3093 
Q 1294 3584 2113 3584 
Q 2378 3584 2631 3529 
Q 2884 3475 3122 3366 
z
" id="DejaVuSans-63" transform="scale(0.015625)"/>
      <path d="M 691 4666 
L 3169 4666 
L 3169 4134 
L 1269 4134 
L 1269 2991 
Q 1406 3038 1543 3061 
Q 1681 3084 1819 3084 
Q 2600 3084 3056 2656 
Q 3513 2228 3513 1497 
Q 3513 744 3044 326 
Q 2575 -91 1722 -91 
Q 1428 -91 1123 -41 
Q 819 9 494 109 
L 494 744 
Q 775 591 1075 516 
Q 1375 441 1709 441 
Q 2250 441 2565 725 
Q 2881 1009 2881 1497 
Q 2881 1984 2565 2268 
Q 2250 2553 1709 2553 
Q 1456 2553 1204 2497 
Q 953 2441 691 2322 
L 691 4666 
z
" id="DejaVuSans-35" transform="scale(0.015625)"/>
      <path d="M 2034 2216 
Q 1584 2216 1326 1975 
Q 1069 1734 1069 1313 
Q 1069 891 1326 650 
Q 1584 409 2034 409 
Q 2484 409 2743 651 
Q 3003 894 3003 1313 
Q 3003 1734 2745 1975 
Q 2488 2216 2034 2216 
z
M 1403 2484 
Q 997 2584 770 2862 
Q 544 3141 544 3541 
Q 544 4100 942 4425 
Q 1341 4750 2034 4750 
Q 2731 4750 3128 4425 
Q 3525 4100 3525 3541 
Q 3525 3141 3298 2862 
Q 3072 2584 2669 2484 
Q 3125 2378 3379 2068 
Q 3634 1759 3634 1313 
Q 3634 634 3220 271 
Q 2806 -91 2034 -91 
Q 1263 -91 848 271 
Q 434 634 434 1313 
Q 434 1759 690 2068 
Q 947 2378 1403 2484 
z
M 1172 3481 
Q 1172 3119 1398 2916 
Q 1625 2713 2034 2713 
Q 2441 2713 2670 2916 
Q 2900 3119 2900 3481 
Q 2900 3844 2670 4047 
Q 2441 4250 2034 4250 
Q 1625 4250 1398 4047 
Q 1172 3844 1172 3481 
z
" id="DejaVuSans-38" transform="scale(0.015625)"/>
     </defs>
     <use xlink:href="#DejaVuSans-4c"/>
     <use x="53.962891" xlink:href="#DejaVuSans-6f"/>
     <use x="115.144531" xlink:href="#DejaVuSans-77"/>
     <use x="196.931641" xlink:href="#DejaVuSans-65"/>
     <use x="258.455078" xlink:href="#DejaVuSans-72"/>
     <use x="299.568359" xlink:href="#DejaVuSans-20"/>
     <use x="331.355469" xlink:href="#DejaVuSans-4b"/>
     <use x="391.931641" xlink:href="#DejaVuSans-65"/>
     <use x="453.455078" xlink:href="#DejaVuSans-6e"/>
     <use x="516.833984" xlink:href="#DejaVuSans-6e"/>
     <use x="580.212891" xlink:href="#DejaVuSans-65"/>
     <use x="641.736328" xlink:href="#DejaVuSans-62"/>
     <use x="705.212891" xlink:href="#DejaVuSans-65"/>
     <use x="766.736328" xlink:href="#DejaVuSans-63"/>
     <use x="821.716797" xlink:href="#DejaVuSans-20"/>
     <use x="853.503906" xlink:href="#DejaVuSans-31"/>
     <use x="917.126953" xlink:href="#DejaVuSans-35"/>
     <use x="980.75" xlink:href="#DejaVuSans-2e"/>
     <use x="1012.537109" xlink:href="#DejaVuSans-38"/>
     <use x="1076.160156" xlink:href="#DejaVuSans-b0"/>
    </g>
   </g>
   <g id="text_6">
    <g id="patch_7">
     <path d="M 98.002523 22.76424 
L 113.794411 39.52764 
L 115.232437 38.172953 
L 99.440549 21.409554 
z
" style="fill:#ffffff;"/>
    </g>
    <!-- Lower Penobscot 14.0° -->
    <g style="fill:#008000;" transform="translate(98.333549 22.479876)rotate(-313.290694)scale(0.02 -0.02)">
     <defs>
      <path d="M 1259 4147 
L 1259 2394 
L 2053 2394 
Q 2494 2394 2734 2622 
Q 2975 2850 2975 3272 
Q 2975 3691 2734 3919 
Q 2494 4147 2053 4147 
L 1259 4147 
z
M 628 4666 
L 2053 4666 
Q 2838 4666 3239 4311 
Q 3641 3956 3641 3272 
Q 3641 2581 3239 2228 
Q 2838 1875 2053 1875 
L 1259 1875 
L 1259 0 
L 628 0 
L 628 4666 
z
" id="DejaVuSans-50" transform="scale(0.015625)"/>
      <path d="M 2834 3397 
L 2834 2853 
Q 2591 2978 2328 3040 
Q 2066 3103 1784 3103 
Q 1356 3103 1142 2972 
Q 928 2841 928 2578 
Q 928 2378 1081 2264 
Q 1234 2150 1697 2047 
L 1894 2003 
Q 2506 1872 2764 1633 
Q 3022 1394 3022 966 
Q 3022 478 2636 193 
Q 2250 -91 1575 -91 
Q 1294 -91 989 -36 
Q 684 19 347 128 
L 347 722 
Q 666 556 975 473 
Q 1284 391 1588 391 
Q 1994 391 2212 530 
Q 2431 669 2431 922 
Q 2431 1156 2273 1281 
Q 2116 1406 1581 1522 
L 1381 1569 
Q 847 1681 609 1914 
Q 372 2147 372 2553 
Q 372 3047 722 3315 
Q 1072 3584 1716 3584 
Q 2034 3584 2315 3537 
Q 2597 3491 2834 3397 
z
" id="DejaVuSans-73" transform="scale(0.015625)"/>
      <path d="M 2419 4116 
L 825 1625 
L 2419 1625 
L 2419 4116 
z
M 2253 4666 
L 3047 4666 
L 3047 1625 
L 3713 1625 
L 3713 1100 
L 3047 1100 
L 3047 0 
L 2419 0 
L 2419 1100 
L 313 1100 
L 313 1709 
L 2253 4666 
z
" id="DejaVuSans-34" transform="scale(0.015625)"/>
      <path d="M 2034 4250 
Q 1547 4250 1301 3770 
Q 1056 3291 1056 2328 
Q 1056 1369 1301 889 
Q 1547 409 2034 409 
Q 2525 409 2770 889 
Q 3016 1369 3016 2328 
Q 3016 3291 2770 3770 
Q 2525 4250 2034 4250 
z
M 2034 4750 
Q 2819 4750 3233 4129 
Q 3647 3509 3647 2328 
Q 3647 1150 3233 529 
Q 2819 -91 2034 -91 
Q 1250 -91 836 529 
Q 422 1150 422 2328 
Q 422 3509 836 4129 
Q 1250 4750 2034 4750 
z
" id="DejaVuSans-30" transform="scale(0.015625)"/>
     </defs>
     <use xlink:href="#DejaVuSans-4c"/>
     <use x="53.962891" xlink:href="#DejaVuSans-6f"/>
     <use x="115.144531" xlink:href="#DejaVuSans-77"/>
     <use x="196.931641" xlink:href="#DejaVuSans-65"/>
     <use x="258.455078" xlink:href="#DejaVuSans-72"/>
     <use x="299.568359" xlink:href="#DejaVuSans-20"/>
     <use x="331.355469" xlink:href="#DejaVuSans-50"/>
     <use x="388.033203" xlink:href="#DejaVuSans-65"/>
     <use x="449.556641" xlink:href="#DejaVuSans-6e"/>
     <use x="512.935547" xlink:href="#DejaVuSans-6f"/>
     <use x="574.117188" xlink:href="#DejaVuSans-62"/>
     <use x="637.59375" xlink:href="#DejaVuSans-73"/>
     <use x="689.693359" xlink:href="#DejaVuSans-63"/>
     <use x="744.673828" xlink:href="#DejaVuSans-6f"/>
     <use x="805.855469" xlink:href="#DejaVuSans-74"/>
     <use x="845.064453" xlink:href="#DejaVuSans-20"/>
     <use x="876.851562" xlink:href="#DejaVuSans-31"/>
     <use x="940.474609" xlink:href="#DejaVuSans-34"/>
     <use x="1004.097656" xlink:href="#DejaVuSans-2e"/>
     <use x="1035.884766" xlink:href="#DejaVuSans-30"/>
     <use x="1099.507812" xlink:href="#DejaVuSans-b0"/>
    </g>
   </g>
   <g id="text_7">
    <g id="patch_8">
     <path d="M 76.559896 104.414179 
L 92.551745 84.067518 
L 90.998468 82.846689 
L 75.006618 103.19335 
z
" style="fill:#ffffff;"/>
    </g>
    <!-- Upper Squaw Brook 12.6° -->
    <g style="fill:#008000;" transform="translate(76.229511 104.129068)rotate(-51.833742)scale(0.02 -0.02)">
     <defs>
      <path d="M 947 1747 
Q 947 1113 1208 752 
Q 1469 391 1925 391 
Q 2381 391 2643 752 
Q 2906 1113 2906 1747 
Q 2906 2381 2643 2742 
Q 2381 3103 1925 3103 
Q 1469 3103 1208 2742 
Q 947 2381 947 1747 
z
M 2906 525 
Q 2725 213 2448 61 
Q 2172 -91 1784 -91 
Q 1150 -91 751 415 
Q 353 922 353 1747 
Q 353 2572 751 3078 
Q 1150 3584 1784 3584 
Q 2172 3584 2448 3432 
Q 2725 3281 2906 2969 
L 2906 3500 
L 3481 3500 
L 3481 -1331 
L 2906 -1331 
L 2906 525 
z
" id="DejaVuSans-71" transform="scale(0.015625)"/>
      <path d="M 544 1381 
L 544 3500 
L 1119 3500 
L 1119 1403 
Q 1119 906 1312 657 
Q 1506 409 1894 409 
Q 2359 409 2629 706 
Q 2900 1003 2900 1516 
L 2900 3500 
L 3475 3500 
L 3475 0 
L 2900 0 
L 2900 538 
Q 2691 219 2414 64 
Q 2138 -91 1772 -91 
Q 1169 -91 856 284 
Q 544 659 544 1381 
z
M 1991 3584 
L 1991 3584 
z
" id="DejaVuSans-75" transform="scale(0.015625)"/>
      <path d="M 581 4863 
L 1159 4863 
L 1159 1991 
L 2875 3500 
L 3609 3500 
L 1753 1863 
L 3688 0 
L 2938 0 
L 1159 1709 
L 1159 0 
L 581 0 
L 581 4863 
z
" id="DejaVuSans-6b" transform="scale(0.015625)"/>
      <path d="M 1228 531 
L 3431 531 
L 3431 0 
L 469 0 
L 469 531 
Q 828 903 1448 1529 
Q 2069 2156 2228 2338 
Q 2531 2678 2651 2914 
Q 2772 3150 2772 3378 
Q 2772 3750 2511 3984 
Q 2250 4219 1831 4219 
Q 1534 4219 1204 4116 
Q 875 4013 500 3803 
L 500 4441 
Q 881 4594 1212 4672 
Q 1544 4750 1819 4750 
Q 2544 4750 2975 4387 
Q 3406 4025 3406 3419 
Q 3406 3131 3298 2873 
Q 3191 2616 2906 2266 
Q 2828 2175 2409 1742 
Q 1991 1309 1228 531 
z
" id="DejaVuSans-32" transform="scale(0.015625)"/>
      <path d="M 2113 2584 
Q 1688 2584 1439 2293 
Q 1191 2003 1191 1497 
Q 1191 994 1439 701 
Q 1688 409 2113 409 
Q 2538 409 2786 701 
Q 3034 994 3034 1497 
Q 3034 2003 2786 2293 
Q 2538 2584 2113 2584 
z
M 3366 4563 
L 3366 3988 
Q 3128 4100 2886 4159 
Q 2644 4219 2406 4219 
Q 1781 4219 1451 3797 
Q 1122 3375 1075 2522 
Q 1259 2794 1537 2939 
Q 1816 3084 2150 3084 
Q 2853 3084 3261 2657 
Q 3669 2231 3669 1497 
Q 3669 778 3244 343 
Q 2819 -91 2113 -91 
Q 1303 -91 875 529 
Q 447 1150 447 2328 
Q 447 3434 972 4092 
Q 1497 4750 2381 4750 
Q 2619 4750 2861 4703 
Q 3103 4656 3366 4563 
z
" id="DejaVuSans-36" transform="scale(0.015625)"/>
     </defs>
     <use xlink:href="#DejaVuSans-55"/>
     <use x="73.193359" xlink:href="#DejaVuSans-70"/>
     <use x="136.669922" xlink:href="#DejaVuSans-70"/>
     <use x="200.146484" xlink:href="#DejaVuSans-65"/>
     <use x="261.669922" xlink:href="#DejaVuSans-72"/>
     <use x="302.783203" xlink:href="#DejaVuSans-20"/>
     <use x="334.570312" xlink:href="#DejaVuSans-53"/>
     <use x="398.046875" xlink:href="#DejaVuSans-71"/>
     <use x="461.523438" xlink:href="#DejaVuSans-75"/>
     <use x="524.902344" xlink:href="#DejaVuSans-61"/>
     <use x="586.181641" xlink:href="#DejaVuSans-77"/>
     <use x="667.96875" xlink:href="#DejaVuSans-20"/>
     <use x="699.755859" xlink:href="#DejaVuSans-42"/>
     <use x="768.359375" xlink:href="#DejaVuSans-72"/>
     <use x="807.222656" xlink:href="#DejaVuSans-6f"/>
     <use x="868.404297" xlink:href="#DejaVuSans-6f"/>
     <use x="929.585938" xlink:href="#DejaVuSans-6b"/>
     <use x="987.496094" xlink:href="#DejaVuSans-20"/>
     <use x="1019.283203" xlink:href="#DejaVuSans-31"/>
     <use x="1082.90625" xlink:href="#DejaVuSans-32"/>
     <use x="1146.529297" xlink:href="#DejaVuSans-2e"/>
     <use x="1178.316406" xlink:href="#DejaVuSans-36"/>
     <use x="1241.939453" xlink:href="#DejaVuSans-b0"/>
    </g>
   </g>
   <g id="text_8">
    <g id="patch_9">
     <path d="M 40.860527 38.721426 
L 45.01937 59.64206 
L 46.957078 59.25686 
L 42.798235 38.336226 
z
" style="fill:#ffffff;"/>
    </g>
    <!-- Upper Allagash 15.9° -->
    <g style="fill:#008000;" transform="translate(41.291997 38.656045)rotate(-281.243335)scale(0.02 -0.02)">
     <defs>
      <path d="M 2188 4044 
L 1331 1722 
L 3047 1722 
L 2188 4044 
z
M 1831 4666 
L 2547 4666 
L 4325 0 
L 3669 0 
L 3244 1197 
L 1141 1197 
L 716 0 
L 50 0 
L 1831 4666 
z
" id="DejaVuSans-41" transform="scale(0.015625)"/>
     </defs>
     <use xlink:href="#DejaVuSans-55"/>
     <use x="73.193359" xlink:href="#DejaVuSans-70"/>
     <use x="136.669922" xlink:href="#DejaVuSans-70"/>
     <use x="200.146484" xlink:href="#DejaVuSans-65"/>
     <use x="261.669922" xlink:href="#DejaVuSans-72"/>
     <use x="302.783203" xlink:href="#DejaVuSans-20"/>
     <use x="334.570312" xlink:href="#DejaVuSans-41"/>
     <use x="402.978516" xlink:href="#DejaVuSans-6c"/>
     <use x="430.761719" xlink:href="#DejaVuSans-6c"/>
     <use x="458.544922" xlink:href="#DejaVuSans-61"/>
     <use x="519.824219" xlink:href="#DejaVuSans-67"/>
     <use x="583.300781" xlink:href="#DejaVuSans-61"/>
     <use x="644.580078" xlink:href="#DejaVuSans-73"/>
     <use x="696.679688" xlink:href="#DejaVuSans-68"/>
     <use x="760.058594" xlink:href="#DejaVuSans-20"/>
     <use x="791.845703" xlink:href="#DejaVuSans-31"/>
     <use x="855.46875" xlink:href="#DejaVuSans-35"/>
     <use x="919.091797" xlink:href="#DejaVuSans-2e"/>
     <use x="950.878906" xlink:href="#DejaVuSans-39"/>
     <use x="1014.501953" xlink:href="#DejaVuSans-b0"/>
    </g>
   </g>
   <g id="text_9">
    <g id="patch_10">
     <path d="M 32.378931 92.342088 
L 42.376108 73.572878 
L 40.632406 72.644117 
L 30.635228 91.413328 
z
" style="fill:#ffffff;"/>
    </g>
    <!-- Lower Allagash 20.5° -->
    <g style="fill:#4169e1;" transform="translate(32.003571 92.119498)rotate(-61.95858)scale(0.02 -0.02)">
     <use xlink:href="#DejaVuSans-4c"/>
     <use x="53.962891" xlink:href="#DejaVuSans-6f"/>
     <use x="115.144531" xlink:href="#DejaVuSans-77"/>
     <use x="196.931641" xlink:href="#DejaVuSans-65"/>
     <use x="258.455078" xlink:href="#DejaVuSans-72"/>
     <use x="299.568359" xlink:href="#DejaVuSans-20"/>
     <use x="331.355469" xlink:href="#DejaVuSans-41"/>
     <use x="399.763672" xlink:href="#DejaVuSans-6c"/>
     <use x="427.546875" xlink:href="#DejaVuSans-6c"/>
     <use x="455.330078" xlink:href="#DejaVuSans-61"/>
     <use x="516.609375" xlink:href="#DejaVuSans-67"/>
     <use x="580.085938" xlink:href="#DejaVuSans-61"/>
     <use x="641.365234" xlink:href="#DejaVuSans-73"/>
     <use x="693.464844" xlink:href="#DejaVuSans-68"/>
     <use x="756.84375" xlink:href="#DejaVuSans-20"/>
     <use x="788.630859" xlink:href="#DejaVuSans-32"/>
     <use x="852.253906" xlink:href="#DejaVuSans-30"/>
     <use x="915.876953" xlink:href="#DejaVuSans-2e"/>
     <use x="947.664062" xlink:href="#DejaVuSans-35"/>
     <use x="1011.287109" xlink:href="#DejaVuSans-b0"/>
    </g>
   </g>
   <g id="text_10">
    <g id="patch_11">
     <path d="M 42.262074 133.551817 
L 45.484622 117.838548 
L 43.549278 117.441639 
L 40.326729 133.154908 
z
" style="fill:#ffffff;"/>
    </g>
    <!-- Rip Gorge 18.2° -->
    <g style="fill:#4169e1;" transform="translate(41.839042 133.444643)rotate(-78.410226)scale(0.02 -0.02)">
     <defs>
      <path d="M 2841 2188 
Q 3044 2119 3236 1894 
Q 3428 1669 3622 1275 
L 4263 0 
L 3584 0 
L 2988 1197 
Q 2756 1666 2539 1819 
Q 2322 1972 1947 1972 
L 1259 1972 
L 1259 0 
L 628 0 
L 628 4666 
L 2053 4666 
Q 2853 4666 3247 4331 
Q 3641 3997 3641 3322 
Q 3641 2881 3436 2590 
Q 3231 2300 2841 2188 
z
M 1259 4147 
L 1259 2491 
L 2053 2491 
Q 2509 2491 2742 2702 
Q 2975 2913 2975 3322 
Q 2975 3731 2742 3939 
Q 2509 4147 2053 4147 
L 1259 4147 
z
" id="DejaVuSans-52" transform="scale(0.015625)"/>
      <path d="M 3809 666 
L 3809 1919 
L 2778 1919 
L 2778 2438 
L 4434 2438 
L 4434 434 
Q 4069 175 3628 42 
Q 3188 -91 2688 -91 
Q 1594 -91 976 548 
Q 359 1188 359 2328 
Q 359 3472 976 4111 
Q 1594 4750 2688 4750 
Q 3144 4750 3555 4637 
Q 3966 4525 4313 4306 
L 4313 3634 
Q 3963 3931 3569 4081 
Q 3175 4231 2741 4231 
Q 1884 4231 1454 3753 
Q 1025 3275 1025 2328 
Q 1025 1384 1454 906 
Q 1884 428 2741 428 
Q 3075 428 3337 486 
Q 3600 544 3809 666 
z
" id="DejaVuSans-47" transform="scale(0.015625)"/>
     </defs>
     <use xlink:href="#DejaVuSans-52"/>
     <use x="69.482422" xlink:href="#DejaVuSans-69"/>
     <use x="97.265625" xlink:href="#DejaVuSans-70"/>
     <use x="160.742188" xlink:href="#DejaVuSans-20"/>
     <use x="192.529297" xlink:href="#DejaVuSans-47"/>
     <use x="270.019531" xlink:href="#DejaVuSans-6f"/>
     <use x="331.201172" xlink:href="#DejaVuSans-72"/>
     <use x="370.564453" xlink:href="#DejaVuSans-67"/>
     <use x="434.041016" xlink:href="#DejaVuSans-65"/>
     <use x="495.564453" xlink:href="#DejaVuSans-20"/>
     <use x="527.351562" xlink:href="#DejaVuSans-31"/>
     <use x="590.974609" xlink:href="#DejaVuSans-38"/>
     <use x="654.597656" xlink:href="#DejaVuSans-2e"/>
     <use x="686.384766" xlink:href="#DejaVuSans-32"/>
     <use x="750.007812" xlink:href="#DejaVuSans-b0"/>
    </g>
   </g>
   <g id="text_11">
    <g id="patch_12">
     <path d="M 79.313784 63.172368 
L 79.894091 47.265449 
L 77.919779 47.193424 
L 77.339472 63.100342 
z
" style="fill:#ffffff;"/>
    </g>
    <!-- Alley Way 14.9° -->
    <g style="fill:#008000;" transform="translate(78.878866 63.136488)rotate(-87.910695)scale(0.02 -0.02)">
     <defs>
      <path d="M 2059 -325 
Q 1816 -950 1584 -1140 
Q 1353 -1331 966 -1331 
L 506 -1331 
L 506 -850 
L 844 -850 
Q 1081 -850 1212 -737 
Q 1344 -625 1503 -206 
L 1606 56 
L 191 3500 
L 800 3500 
L 1894 763 
L 2988 3500 
L 3597 3500 
L 2059 -325 
z
" id="DejaVuSans-79" transform="scale(0.015625)"/>
      <path d="M 213 4666 
L 850 4666 
L 1831 722 
L 2809 4666 
L 3519 4666 
L 4500 722 
L 5478 4666 
L 6119 4666 
L 4947 0 
L 4153 0 
L 3169 4050 
L 2175 0 
L 1381 0 
L 213 4666 
z
" id="DejaVuSans-57" transform="scale(0.015625)"/>
     </defs>
     <use xlink:href="#DejaVuSans-41"/>
     <use x="68.408203" xlink:href="#DejaVuSans-6c"/>
     <use x="96.191406" xlink:href="#DejaVuSans-6c"/>
     <use x="123.974609" xlink:href="#DejaVuSans-65"/>
     <use x="185.498047" xlink:href="#DejaVuSans-79"/>
     <use x="244.677734" xlink:href="#DejaVuSans-20"/>
     <use x="276.464844" xlink:href="#DejaVuSans-57"/>
     <use x="368.966797" xlink:href="#DejaVuSans-61"/>
     <use x="430.246094" xlink:href="#DejaVuSans-79"/>
     <use x="489.425781" xlink:href="#DejaVuSans-20"/>
     <use x="521.212891" xlink:href="#DejaVuSans-31"/>
     <use x="584.835938" xlink:href="#DejaVuSans-34"/>
     <use x="648.458984" xlink:href="#DejaVuSans-2e"/>
     <use x="680.246094" xlink:href="#DejaVuSans-39"/>
     <use x="743.869141" xlink:href="#DejaVuSans-b0"/>
    </g>
   </g>
   <g id="text_12">
    <g id="patch_13">
     <path d="M 69.890519 86.405009 
L 71.358748 67.590022 
L 69.389111 67.436321 
L 67.920882 86.251309 
z
" style="fill:#ffffff;"/>
    </g>
    <!-- Lower Roach 16.6° -->
    <g style="fill:#008000;" transform="translate(69.457459 86.351155)rotate(-85.537961)scale(0.02 -0.02)">
     <use xlink:href="#DejaVuSans-4c"/>
     <use x="53.962891" xlink:href="#DejaVuSans-6f"/>
     <use x="115.144531" xlink:href="#DejaVuSans-77"/>
     <use x="196.931641" xlink:href="#DejaVuSans-65"/>
     <use x="258.455078" xlink:href="#DejaVuSans-72"/>
     <use x="299.568359" xlink:href="#DejaVuSans-20"/>
     <use x="331.355469" xlink:href="#DejaVuSans-52"/>
     <use x="396.337891" xlink:href="#DejaVuSans-6f"/>
     <use x="457.519531" xlink:href="#DejaVuSans-61"/>
     <use x="518.798828" xlink:href="#DejaVuSans-63"/>
     <use x="573.779297" xlink:href="#DejaVuSans-68"/>
     <use x="637.158203" xlink:href="#DejaVuSans-20"/>
     <use x="668.945312" xlink:href="#DejaVuSans-31"/>
     <use x="732.568359" xlink:href="#DejaVuSans-36"/>
     <use x="796.191406" xlink:href="#DejaVuSans-2e"/>
     <use x="827.978516" xlink:href="#DejaVuSans-36"/>
     <use x="891.601562" xlink:href="#DejaVuSans-b0"/>
    </g>
   </g>
   <g id="text_13">
    <g id="patch_14">
     <path d="M 55.794811 138.072396 
L 68.871376 115.814778 
L 67.167977 114.814015 
L 54.091413 137.071633 
z
" style="fill:#ffffff;"/>
    </g>
    <!-- Lower Squaw Brook 12.0° -->
    <g style="fill:#008000;" transform="translate(55.429074 137.834325)rotate(-59.565355)scale(0.02 -0.02)">
     <use xlink:href="#DejaVuSans-4c"/>
     <use x="53.962891" xlink:href="#DejaVuSans-6f"/>
     <use x="115.144531" xlink:href="#DejaVuSans-77"/>
     <use x="196.931641" xlink:href="#DejaVuSans-65"/>
     <use x="258.455078" xlink:href="#DejaVuSans-72"/>
     <use x="299.568359" xlink:href="#DejaVuSans-20"/>
     <use x="331.355469" xlink:href="#DejaVuSans-53"/>
     <use x="394.832031" xlink:href="#DejaVuSans-71"/>
     <use x="458.308594" xlink:href="#DejaVuSans-75"/>
     <use x="521.6875" xlink:href="#DejaVuSans-61"/>
     <use x="582.966797" xlink:href="#DejaVuSans-77"/>
     <use x="664.753906" xlink:href="#DejaVuSans-20"/>
     <use x="696.541016" xlink:href="#DejaVuSans-42"/>
     <use x="765.144531" xlink:href="#DejaVuSans-72"/>
     <use x="804.007812" xlink:href="#DejaVuSans-6f"/>
     <use x="865.189453" xlink:href="#DejaVuSans-6f"/>
     <use x="926.371094" xlink:href="#DejaVuSans-6b"/>
     <use x="984.28125" xlink:href="#DejaVuSans-20"/>
     <use x="1016.068359" xlink:href="#DejaVuSans-31"/>
     <use x="1079.691406" xlink:href="#DejaVuSans-32"/>
     <use x="1143.314453" xlink:href="#DejaVuSans-2e"/>
     <use x="1175.101562" xlink:href="#DejaVuSans-30"/>
     <use x="1238.724609" xlink:href="#DejaVuSans-b0"/>
    </g>
   </g>
   <g id="text_14">
    <g id="patch_15">
     <path d="M 84.69077 101.447659 
L 96.124101 89.711085 
L 94.708961 88.332508 
L 83.27563 100.069082 
z
" style="fill:#ffffff;"/>
    </g>
    <!-- Bog Brook 10.5° -->
    <g style="fill:#008000;" transform="translate(84.392464 101.129139)rotate(-45.749832)scale(0.02 -0.02)">
     <use xlink:href="#DejaVuSans-42"/>
     <use x="68.603516" xlink:href="#DejaVuSans-6f"/>
     <use x="129.785156" xlink:href="#DejaVuSans-67"/>
     <use x="193.261719" xlink:href="#DejaVuSans-20"/>
     <use x="225.048828" xlink:href="#DejaVuSans-42"/>
     <use x="293.652344" xlink:href="#DejaVuSans-72"/>
     <use x="332.515625" xlink:href="#DejaVuSans-6f"/>
     <use x="393.697266" xlink:href="#DejaVuSans-6f"/>
     <use x="454.878906" xlink:href="#DejaVuSans-6b"/>
     <use x="512.789062" xlink:href="#DejaVuSans-20"/>
     <use x="544.576172" xlink:href="#DejaVuSans-31"/>
     <use x="608.199219" xlink:href="#DejaVuSans-30"/>
     <use x="671.822266" xlink:href="#DejaVuSans-2e"/>
     <use x="703.609375" xlink:href="#DejaVuSans-35"/>
     <use x="767.232422" xlink:href="#DejaVuSans-b0"/>
    </g>
   </g>
   <g id="text_15">
    <!-- Big Squaw Mountain -->
    <g transform="translate(19.843235 8.406161)scale(0.08 -0.08)">
     <defs>
      <path d="M 628 4666 
L 1569 4666 
L 2759 1491 
L 3956 4666 
L 4897 4666 
L 4897 0 
L 4281 0 
L 4281 4097 
L 3078 897 
L 2444 897 
L 1241 4097 
L 1241 0 
L 628 0 
L 628 4666 
z
" id="DejaVuSans-4d" transform="scale(0.015625)"/>
     </defs>
     <use xlink:href="#DejaVuSans-42"/>
     <use x="68.603516" xlink:href="#DejaVuSans-69"/>
     <use x="96.386719" xlink:href="#DejaVuSans-67"/>
     <use x="159.863281" xlink:href="#DejaVuSans-20"/>
     <use x="191.650391" xlink:href="#DejaVuSans-53"/>
     <use x="255.126953" xlink:href="#DejaVuSans-71"/>
     <use x="318.603516" xlink:href="#DejaVuSans-75"/>
     <use x="381.982422" xlink:href="#DejaVuSans-61"/>
     <use x="443.261719" xlink:href="#DejaVuSans-77"/>
     <use x="525.048828" xlink:href="#DejaVuSans-20"/>
     <use x="556.835938" xlink:href="#DejaVuSans-4d"/>
     <use x="643.115234" xlink:href="#DejaVuSans-6f"/>
     <use x="704.296875" xlink:href="#DejaVuSans-75"/>
     <use x="767.675781" xlink:href="#DejaVuSans-6e"/>
     <use x="831.054688" xlink:href="#DejaVuSans-74"/>
     <use x="870.263672" xlink:href="#DejaVuSans-61"/>
     <use x="931.542969" xlink:href="#DejaVuSans-69"/>
     <use x="959.326172" xlink:href="#DejaVuSans-6e"/>
    </g>
   </g>
   <g id="legend_1">
    <g id="line2d_26">
     <path d="M 4.749798 147.667011 
L 12.749798 147.667011 
" style="fill:none;stroke:#008000;stroke-linecap:square;stroke-width:1.5;"/>
    </g>
    <g id="line2d_27"/>
    <g id="text_16">
     <!-- Easy -->
     <g transform="translate(15.949798 149.067011)scale(0.04 -0.04)">
      <defs>
       <path d="M 628 4666 
L 3578 4666 
L 3578 4134 
L 1259 4134 
L 1259 2753 
L 3481 2753 
L 3481 2222 
L 1259 2222 
L 1259 531 
L 3634 531 
L 3634 0 
L 628 0 
L 628 4666 
z
" id="DejaVuSans-45" transform="scale(0.015625)"/>
      </defs>
      <use xlink:href="#DejaVuSans-45"/>
      <use x="63.183594" xlink:href="#DejaVuSans-61"/>
      <use x="124.462891" xlink:href="#DejaVuSans-73"/>
      <use x="176.5625" xlink:href="#DejaVuSans-79"/>
     </g>
    </g>
    <g id="line2d_28">
     <path d="M 4.749798 153.538261 
L 12.749798 153.538261 
" style="fill:none;stroke:#4169e1;stroke-linecap:square;stroke-width:1.5;"/>
    </g>
    <g id="line2d_29"/>
    <g id="text_17">
     <!-- Intermediate -->
     <g transform="translate(15.949798 154.938261)scale(0.04 -0.04)">
      <defs>
       <path d="M 628 4666 
L 1259 4666 
L 1259 0 
L 628 0 
L 628 4666 
z
" id="DejaVuSans-49" transform="scale(0.015625)"/>
       <path d="M 3328 2828 
Q 3544 3216 3844 3400 
Q 4144 3584 4550 3584 
Q 5097 3584 5394 3201 
Q 5691 2819 5691 2113 
L 5691 0 
L 5113 0 
L 5113 2094 
Q 5113 2597 4934 2840 
Q 4756 3084 4391 3084 
Q 3944 3084 3684 2787 
Q 3425 2491 3425 1978 
L 3425 0 
L 2847 0 
L 2847 2094 
Q 2847 2600 2669 2842 
Q 2491 3084 2119 3084 
Q 1678 3084 1418 2786 
Q 1159 2488 1159 1978 
L 1159 0 
L 581 0 
L 581 3500 
L 1159 3500 
L 1159 2956 
Q 1356 3278 1631 3431 
Q 1906 3584 2284 3584 
Q 2666 3584 2933 3390 
Q 3200 3197 3328 2828 
z
" id="DejaVuSans-6d" transform="scale(0.015625)"/>
      </defs>
      <use xlink:href="#DejaVuSans-49"/>
      <use x="29.492188" xlink:href="#DejaVuSans-6e"/>
      <use x="92.871094" xlink:href="#DejaVuSans-74"/>
      <use x="132.080078" xlink:href="#DejaVuSans-65"/>
      <use x="193.603516" xlink:href="#DejaVuSans-72"/>
      <use x="232.966797" xlink:href="#DejaVuSans-6d"/>
      <use x="330.378906" xlink:href="#DejaVuSans-65"/>
      <use x="391.902344" xlink:href="#DejaVuSans-64"/>
      <use x="455.378906" xlink:href="#DejaVuSans-69"/>
      <use x="483.162109" xlink:href="#DejaVuSans-61"/>
      <use x="544.441406" xlink:href="#DejaVuSans-74"/>
      <use x="583.650391" xlink:href="#DejaVuSans-65"/>
     </g>
    </g>
    <g id="line2d_30">
     <path d="M 49.757298 147.667011 
L 57.757298 147.667011 
" style="fill:none;stroke:#000000;stroke-linecap:square;stroke-width:1.5;"/>
    </g>
    <g id="line2d_31"/>
    <g id="text_18">
     <!-- Advanced -->
     <g transform="translate(60.957298 149.067011)scale(0.04 -0.04)">
      <defs>
       <path d="M 191 3500 
L 800 3500 
L 1894 563 
L 2988 3500 
L 3597 3500 
L 2284 0 
L 1503 0 
L 191 3500 
z
" id="DejaVuSans-76" transform="scale(0.015625)"/>
      </defs>
      <use xlink:href="#DejaVuSans-41"/>
      <use x="66.658203" xlink:href="#DejaVuSans-64"/>
      <use x="130.134766" xlink:href="#DejaVuSans-76"/>
      <use x="189.314453" xlink:href="#DejaVuSans-61"/>
      <use x="250.59375" xlink:href="#DejaVuSans-6e"/>
      <use x="313.972656" xlink:href="#DejaVuSans-63"/>
      <use x="368.953125" xlink:href="#DejaVuSans-65"/>
      <use x="430.476562" xlink:href="#DejaVuSans-64"/>
     </g>
    </g>
    <g id="line2d_32">
     <path d="M 49.757298 153.538261 
L 57.757298 153.538261 
" style="fill:none;stroke:#ff0000;stroke-linecap:square;stroke-width:1.5;"/>
    </g>
    <g id="line2d_33"/>
    <g id="text_19">
     <!-- Expert -->
     <g transform="translate(60.957298 154.938261)scale(0.04 -0.04)">
      <defs>
       <path d="M 3513 3500 
L 2247 1797 
L 3578 0 
L 2900 0 
L 1881 1375 
L 863 0 
L 184 0 
L 1544 1831 
L 300 3500 
L 978 3500 
L 1906 2253 
L 2834 3500 
L 3513 3500 
z
" id="DejaVuSans-78" transform="scale(0.015625)"/>
      </defs>
      <use xlink:href="#DejaVuSans-45"/>
      <use x="63.183594" xlink:href="#DejaVuSans-78"/>
      <use x="122.363281" xlink:href="#DejaVuSans-70"/>
      <use x="185.839844" xlink:href="#DejaVuSans-65"/>
      <use x="247.363281" xlink:href="#DejaVuSans-72"/>
      <use x="288.476562" xlink:href="#DejaVuSans-74"/>
     </g>
    </g>
    <g id="line2d_34">
     <path d="M 88.716673 147.667011 
L 96.716673 147.667011 
" style="fill:none;stroke:#ffd700;stroke-linecap:square;stroke-width:1.5;"/>
    </g>
    <g id="line2d_35"/>
    <g id="text_20">
     <!-- Extreme -->
     <g transform="translate(99.916673 149.067011)scale(0.04 -0.04)">
      <use xlink:href="#DejaVuSans-45"/>
      <use x="63.183594" xlink:href="#DejaVuSans-78"/>
      <use x="122.363281" xlink:href="#DejaVuSans-74"/>
      <use x="161.572266" xlink:href="#DejaVuSans-72"/>
      <use x="200.435547" xlink:href="#DejaVuSans-65"/>
      <use x="261.958984" xlink:href="#DejaVuSans-6d"/>
      <use x="359.371094" xlink:href="#DejaVuSans-65"/>
     </g>
    </g>
    <g id="line2d_36">
     <path d="M 88.716673 153.538261 
L 96.716673 153.538261 
" style="fill:none;stroke:#000000;stroke-dasharray:1.5,2.475;stroke-dashoffset:0;stroke-width:1.5;"/>
    </g>
    <g id="line2d_37"/>
    <g id="text_21">
     <!-- Gladed -->
     <g transform="translate(99.916673 154.938261)scale(0.04 -0.04)">
      <use xlink:href="#DejaVuSans-47"/>
      <use x="77.490234" xlink:href="#DejaVuSans-6c"/>
      <use x="105.273438" xlink:href="#DejaVuSans-61"/>
      <use x="166.552734" xlink:href="#DejaVuSans-64"/>
      <use x="230.029297" xlink:href="#DejaVuSans-65"/>
      <use x="291.552734" xlink:href="#DejaVuSans-64"/>
     </g>
    </g>
   </g>
  </g>
  <g id="text_22">
   <!-- Sources: USGS and OpenStreetMaps -->
   <g transform="translate(29.022828 160.555422)scale(0.034783 -0.034783)">
    <defs>
     <path d="M 750 794 
L 1409 794 
L 1409 0 
L 750 0 
L 750 794 
z
M 750 3309 
L 1409 3309 
L 1409 2516 
L 750 2516 
L 750 3309 
z
" id="DejaVuSans-3a" transform="scale(0.015625)"/>
     <path d="M 2522 4238 
Q 1834 4238 1429 3725 
Q 1025 3213 1025 2328 
Q 1025 1447 1429 934 
Q 1834 422 2522 422 
Q 3209 422 3611 934 
Q 4013 1447 4013 2328 
Q 4013 3213 3611 3725 
Q 3209 4238 2522 4238 
z
M 2522 4750 
Q 3503 4750 4090 4092 
Q 4678 3434 4678 2328 
Q 4678 1225 4090 567 
Q 3503 -91 2522 -91 
Q 1538 -91 948 565 
Q 359 1222 359 2328 
Q 359 3434 948 4092 
Q 1538 4750 2522 4750 
z
" id="DejaVuSans-4f" transform="scale(0.015625)"/>
    </defs>
    <use xlink:href="#DejaVuSans-53"/>
    <use x="63.476562" xlink:href="#DejaVuSans-6f"/>
    <use x="124.658203" xlink:href="#DejaVuSans-75"/>
    <use x="188.037109" xlink:href="#DejaVuSans-72"/>
    <use x="226.900391" xlink:href="#DejaVuSans-63"/>
    <use x="281.880859" xlink:href="#DejaVuSans-65"/>
    <use x="343.404297" xlink:href="#DejaVuSans-73"/>
    <use x="395.503906" xlink:href="#DejaVuSans-3a"/>
    <use x="429.195312" xlink:href="#DejaVuSans-20"/>
    <use x="460.982422" xlink:href="#DejaVuSans-55"/>
    <use x="534.175781" xlink:href="#DejaVuSans-53"/>
    <use x="597.652344" xlink:href="#DejaVuSans-47"/>
    <use x="675.142578" xlink:href="#DejaVuSans-53"/>
    <use x="738.619141" xlink:href="#DejaVuSans-20"/>
    <use x="770.40625" xlink:href="#DejaVuSans-61"/>
    <use x="831.685547" xlink:href="#DejaVuSans-6e"/>
    <use x="895.064453" xlink:href="#DejaVuSans-64"/>
    <use x="958.541016" xlink:href="#DejaVuSans-20"/>
    <use x="990.328125" xlink:href="#DejaVuSans-4f"/>
    <use x="1069.039062" xlink:href="#DejaVuSans-70"/>
    <use x="1132.515625" xlink:href="#DejaVuSans-65"/>
    <use x="1194.039062" xlink:href="#DejaVuSans-6e"/>
    <use x="1257.417969" xlink:href="#DejaVuSans-53"/>
    <use x="1320.894531" xlink:href="#DejaVuSans-74"/>
    <use x="1360.103516" xlink:href="#DejaVuSans-72"/>
    <use x="1398.966797" xlink:href="#DejaVuSans-65"/>
    <use x="1460.490234" xlink:href="#DejaVuSans-65"/>
    <use x="1522.013672" xlink:href="#DejaVuSans-74"/>
    <use x="1561.222656" xlink:href="#DejaVuSans-4d"/>
    <use x="1647.501953" xlink:href="#DejaVuSans-61"/>
    <use x="1708.78125" xlink:href="#DejaVuSans-70"/>
    <use x="1772.257812" xlink:href="#DejaVuSans-73"/>
   </g>
  </g>
 </g>
 <defs>
  <clipPath id="pe93913ae8c">
   <rect height="136.466469" width="121.502721" x="0" y="12.406161"/>
  </clipPath>
 </defs>
</svg>
