<?xml version="1.0" encoding="utf-8" standalone="no"?>
<!DOCTYPE svg PUBLIC "-//W3C//DTD SVG 1.1//EN"
  "http://www.w3.org/Graphics/SVG/1.1/DTD/svg11.dtd">
<svg height="174.594203pt" version="1.1" viewBox="0 0 112.448115 174.594203" width="112.448115pt" xmlns="http://www.w3.org/2000/svg" xmlns:xlink="http://www.w3.org/1999/xlink">
 <metadata>
  <rdf:RDF xmlns:cc="http://creativecommons.org/ns#" xmlns:dc="http://purl.org/dc/elements/1.1/" xmlns:rdf="http://www.w3.org/1999/02/22-rdf-syntax-ns#">
   <cc:Work>
    <dc:type rdf:resource="http://purl.org/dc/dcmitype/StillImage"/>
    <dc:date>2022-04-14T21:27:30.006002</dc:date>
    <dc:format>image/svg+xml</dc:format>
    <dc:creator>
     <cc:Agent>
      <dc:title>Matplotlib v3.4.3, https://matplotlib.org/</dc:title>
     </cc:Agent>
    </dc:creator>
   </cc:Work>
  </rdf:RDF>
 </metadata>
 <defs>
  <style type="text/css">*{stroke-linecap:butt;stroke-linejoin:round;}</style>
 </defs>
 <g id="figure_1">
  <g id="patch_1">
   <path d="M 0 174.594203 
L 112.448115 174.594203 
L 112.448115 0 
L 0 0 
z
" style="fill:#ffffff;"/>
  </g>
  <g id="axes_1">
   <g id="line2d_1">
    <path clip-path="url(#peb6e5fdf08)" d="M 20.04037 21.765821 
" style="fill:none;stroke:#008000;stroke-linecap:square;stroke-width:1.5;"/>
   </g>
   <g id="line2d_2">
    <path clip-path="url(#peb6e5fdf08)" d="M 20.04037 21.765821 
" style="fill:none;stroke:#4169e1;stroke-linecap:square;stroke-width:1.5;"/>
   </g>
   <g id="line2d_3">
    <path clip-path="url(#peb6e5fdf08)" d="M 20.04037 21.765821 
" style="fill:none;stroke:#000000;stroke-linecap:square;stroke-width:1.5;"/>
   </g>
   <g id="line2d_4">
    <path clip-path="url(#peb6e5fdf08)" d="M 20.04037 21.765821 
" style="fill:none;stroke:#ff0000;stroke-linecap:square;stroke-width:1.5;"/>
   </g>
   <g id="line2d_5">
    <path clip-path="url(#peb6e5fdf08)" d="M 20.04037 21.765821 
" style="fill:none;stroke:#ffd700;stroke-linecap:square;stroke-width:1.5;"/>
   </g>
   <g id="line2d_6">
    <path clip-path="url(#peb6e5fdf08)" d="M 20.04037 21.765821 
" style="fill:none;stroke:#000000;stroke-dasharray:1.5,2.475;stroke-dashoffset:0;stroke-width:1.5;"/>
   </g>
   <g id="line2d_7">
    <path clip-path="url(#peb6e5fdf08)" d="M 90.976847 144.592321 
L 91.576572 139.124467 
L 92.133356 134.041142 
L 92.690141 128.957816 
L 93.114461 125.081731 
L 93.538781 121.205645 
L 94.179265 115.360218 
L 94.819749 109.514791 
L 95.3809 104.394205 
L 95.942051 99.273619 
L 96.415135 94.95637 
" style="fill:none;stroke:#808080;stroke-linecap:square;stroke-width:1.5;"/>
   </g>
   <g id="line2d_8">
    <path clip-path="url(#peb6e5fdf08)" d="M 69.685132 156.932998 
L 68.328471 153.072811 
L 66.97181 149.212623 
L 65.382246 144.69218 
L 63.792682 140.171736 
L 62.060465 135.243911 
L 60.328248 130.316086 
L 58.545083 125.24369 
L 56.761918 120.171294 
L 55.128685 115.524165 
L 53.495452 110.877035 
L 51.941551 106.45645 
L 50.38765 102.035864 
L 49.281724 98.890085 
L 48.175798 95.744305 
L 47.069872 92.598525 
L 45.963946 89.452745 
L 44.846375 86.272686 
L 43.728804 83.092627 
L 42.611232 79.912567 
L 41.493661 76.732508 
L 40.190859 73.026331 
L 38.888057 69.320153 
L 37.565604 65.559824 
L 36.243151 61.799494 
L 34.898135 57.972592 
L 33.55312 54.145691 
L 32.245223 50.424112 
L 30.937326 46.702534 
L 29.186913 41.724034 
L 27.436501 36.745535 
L 25.627134 31.597128 
L 23.817768 26.44872 
L 22.51351 22.738568 
" style="fill:none;stroke:#808080;stroke-linecap:square;stroke-width:1.5;"/>
   </g>
   <g id="line2d_9">
    <path clip-path="url(#peb6e5fdf08)" d="M 87.91417 147.060457 
L 81.950394 148.153431 
" style="fill:none;stroke:#808080;stroke-linecap:square;stroke-width:1.5;"/>
   </g>
   <g id="line2d_10">
    <path clip-path="url(#peb6e5fdf08)" d="M 20.04037 21.765821 
L 19.966496 22.837184 
L 19.892622 23.908548 
L 19.818748 24.979912 
L 19.744874 26.051275 
L 19.133503 27.326081 
L 18.522132 28.600887 
L 17.910762 29.875693 
L 17.299391 31.150498 
L 16.802288 32.308555 
L 16.305186 33.466611 
L 15.861942 34.422467 
L 15.418698 35.378323 
L 15.163596 36.990709 
L 14.908495 38.603095 
L 14.653393 40.215481 
L 14.398291 41.827867 
L 13.914653 43.18713 
L 13.431015 44.546393 
L 12.947377 45.905656 
L 12.463739 47.264919 
L 11.582346 48.302748 
L 10.700954 49.340577 
L 9.819561 50.378406 
L 8.938168 51.416235 
L 8.581899 52.355448 
L 8.22563 53.294661 
L 7.869361 54.233874 
L 7.513092 55.173087 
L 7.156823 56.1123 
L 6.800554 57.051513 
L 6.444285 57.990726 
L 6.088016 58.929939 
L 5.965923 60.071104 
L 5.843831 61.212269 
L 5.721739 62.353433 
L 5.599647 63.494598 
L 5.477555 64.635763 
L 5.355462 65.776928 
L 5.23337 66.918093 
L 5.111278 68.059258 
L 5.111278 69.230728 
L 5.111278 70.402198 
L 5.111278 71.573668 
L 5.111278 72.745138 
L 5.53014 74.221399 
L 5.949001 75.69766 
L 6.367863 77.173921 
L 6.786725 78.650182 
L 7.418111 79.462212 
L 8.049497 80.274243 
L 8.680883 81.086273 
L 9.312269 81.898304 
" style="fill:none;stroke:#4169e1;stroke-linecap:square;stroke-width:1.5;"/>
   </g>
   <g id="line2d_11">
    <path clip-path="url(#peb6e5fdf08)" d="M 20.576047 25.059649 
L 21.378107 25.947442 
L 22.180168 26.835236 
L 21.887583 28.074769 
L 21.594998 29.314301 
L 21.239821 30.225196 
L 20.884644 31.136091 
L 20.529466 32.046986 
L 20.174289 32.957881 
L 20.328588 34.212815 
L 20.482886 35.467748 
L 20.444311 36.669275 
L 20.405737 37.870802 
L 20.367162 39.072329 
L 20.328588 40.273856 
L 20.699049 41.835319 
L 21.069511 43.396782 
L 21.14666 45.218075 
L 21.223809 47.039369 
L 20.89083 48.928227 
L 20.557852 50.817086 
L 20.224873 52.705945 
L 19.891894 54.594804 
L 19.494503 56.323194 
L 19.097112 58.051585 
L 18.156766 59.59566 
L 17.062121 60.475008 
L 15.967476 61.354355 
L 14.752013 61.654426 
L 13.536549 61.954498 
L 12.287606 63.060389 
L 11.901497 63.989915 
L 11.515387 64.91944 
L 11.129277 65.848965 
L 10.743167 66.77849 
L 9.344293 67.992686 
L 7.945418 69.206881 
L 6.973048 70.025618 
L 6.000677 70.844356 
" style="fill:none;stroke:#4169e1;stroke-linecap:square;stroke-width:1.5;"/>
   </g>
   <g id="line2d_12">
    <path clip-path="url(#peb6e5fdf08)" d="M 25.972122 35.506499 
L 24.802511 36.221404 
L 23.632901 36.936309 
L 22.11903 38.11374 
L 20.86572 39.228575 
" style="fill:none;stroke:#008000;stroke-linecap:square;stroke-width:1.5;"/>
   </g>
   <g id="line2d_13">
    <path clip-path="url(#peb6e5fdf08)" d="M 13.158082 47.643485 
L 14.073682 48.3102 
L 14.989283 48.976915 
L 16.098848 49.532344 
L 17.208413 50.087774 
L 18.317978 50.643204 
L 19.427543 51.198634 
L 21.187418 51.735185 
L 22.947292 52.271736 
L 24.122543 52.464994 
L 25.297795 52.658252 
L 26.473046 52.85151 
L 27.648297 53.044767 
L 28.823548 53.238025 
L 29.998799 53.431283 
L 31.17405 53.624541 
L 32.349301 53.817798 
" style="fill:none;stroke:#008000;stroke-linecap:square;stroke-width:1.5;"/>
   </g>
   <g id="line2d_14">
    <path clip-path="url(#peb6e5fdf08)" d="M 22.127764 52.479401 
L 22.925458 53.552007 
L 23.723151 54.624612 
L 24.466985 55.257544 
L 24.742102 56.655558 
L 25.017219 58.053572 
L 26.48742 58.808718 
L 27.586432 59.037249 
L 28.685444 59.26578 
L 30.28083 59.863935 
L 31.876217 60.462091 
L 33.043644 61.245058 
L 34.147023 61.711559 
L 35.250401 62.178061 
" style="fill:none;stroke:#4169e1;stroke-linecap:square;stroke-width:1.5;"/>
   </g>
   <g id="line2d_15">
    <path clip-path="url(#peb6e5fdf08)" d="M 36.51099 65.60702 
L 35.276603 66.613054 
L 34.042216 67.619087 
L 32.966677 68.187434 
L 31.891137 68.755781 
L 30.815598 69.324127 
L 29.740058 69.892474 
L 28.664519 70.460821 
L 27.588979 71.029168 
L 26.51344 71.597515 
L 25.4379 72.165861 
L 24.170398 72.459723 
L 22.902895 72.753584 
L 21.635393 73.047445 
L 20.36789 73.341306 
L 19.092017 73.974238 
L 17.816145 74.607169 
L 17.048656 75.316112 
L 16.281167 76.025055 
L 15.513679 76.733999 
L 14.74619 77.442942 
L 13.725055 78.562247 
L 12.703921 79.681552 
L 11.97901 81.040815 
L 11.254099 82.400078 
" style="fill:none;stroke:#008000;stroke-linecap:square;stroke-width:1.5;"/>
   </g>
   <g id="line2d_16">
    <path clip-path="url(#peb6e5fdf08)" d="M 19.887527 76.211855 
L 19.733229 77.788471 
L 19.578931 79.365087 
L 19.424632 80.941702 
L 19.270334 82.518318 
L 19.116036 84.094934 
L 18.961737 85.67155 
L 18.807439 87.248166 
L 18.65314 88.824782 
" style="fill:none;stroke:#008000;stroke-linecap:square;stroke-width:1.5;"/>
   </g>
   <g id="line2d_17">
    <path clip-path="url(#peb6e5fdf08)" d="M 13.254154 80.824208 
L 14.261824 80.874634 
L 15.269494 80.925059 
L 16.277164 80.975485 
L 17.284834 81.025911 
L 18.292505 81.076337 
L 19.300175 81.126763 
L 20.307845 81.177189 
L 21.315515 81.227615 
L 22.421077 81.2532 
L 23.526639 81.278786 
L 24.632201 81.304371 
L 25.737763 81.329957 
L 27.679593 81.278786 
L 29.621423 81.227615 
L 30.985362 81.389325 
L 32.349301 81.551036 
L 33.71324 81.712746 
L 35.077179 81.874457 
L 36.62453 82.278361 
L 38.17188 82.682265 
" style="fill:none;stroke:#008000;stroke-linecap:square;stroke-width:1.5;"/>
   </g>
   <g id="line2d_18">
    <path clip-path="url(#peb6e5fdf08)" d="M 21.503293 75.762742 
L 22.707111 75.395601 
L 23.910929 75.028461 
L 25.253034 74.492655 
L 26.595138 73.956849 
L 27.937242 73.421043 
L 29.279347 72.885238 
L 30.856538 72.135059 
L 32.433729 71.384881 
L 34.018926 71.171751 
L 35.604123 70.958621 
" style="fill:none;stroke:#008000;stroke-linecap:square;stroke-width:1.5;"/>
   </g>
   <g id="line2d_19">
    <path clip-path="url(#peb6e5fdf08)" d="M 36.516812 70.960609 
L 36.67111 72.522072 
L 36.825409 74.083535 
L 37.288304 75.660151 
L 37.751199 77.236767 
L 38.214094 78.813383 
L 38.676989 80.389999 
L 39.201749 81.859304 
L 39.726509 83.32861 
L 40.251269 84.797916 
L 40.776028 86.267221 
L 41.254208 88.015981 
L 41.732387 89.76474 
L 42.086836 91.597957 
L 42.441286 93.431173 
L 42.44911 94.502661 
L 42.456934 95.574149 
L 42.464758 96.645636 
L 42.472582 97.717124 
L 42.480406 98.788612 
L 42.488231 99.860099 
L 42.496055 100.931587 
L 42.503879 102.003075 
L 42.42491 103.068974 
L 42.345941 104.134872 
L 42.266973 105.200771 
L 42.188004 106.26667 
" style="fill:none;stroke:#4169e1;stroke-linecap:square;stroke-width:1.5;"/>
   </g>
   <g id="line2d_20">
    <path clip-path="url(#peb6e5fdf08)" d="M 30.366713 73.326402 
L 30.446592 74.627538 
L 30.52647 75.928675 
L 30.606349 77.229812 
L 30.686227 78.530948 
L 30.766106 79.832085 
L 30.845984 81.133221 
L 30.925863 82.434358 
L 31.005741 83.735495 
L 31.736475 84.854303 
L 32.467209 85.973112 
L 33.197942 87.09192 
L 33.928676 88.210729 
L 35.002942 89.596323 
L 36.077207 90.981916 
L 36.318844 92.101222 
L 36.560481 93.220527 
L 36.802118 94.339832 
L 37.043755 95.459138 
L 37.527393 96.871559 
L 38.011031 98.28398 
L 38.494669 99.696402 
L 38.978307 101.108823 
L 39.412817 102.023941 
L 39.847327 102.939059 
L 41.051145 104.361913 
" style="fill:none;stroke:#4169e1;stroke-linecap:square;stroke-width:1.5;"/>
   </g>
   <g id="line2d_21">
    <path clip-path="url(#peb6e5fdf08)" d="M 23.260256 91.765877 
L 24.278843 92.164068 
L 25.297431 92.562258 
L 26.316018 92.960449 
L 27.334605 93.358639 
L 28.321533 93.480854 
L 29.30846 93.603068 
L 30.866727 93.297035 
L 32.424995 92.991002 
L 33.983263 92.68497 
L 35.54153 92.378937 
" style="fill:none;stroke:#008000;stroke-linecap:square;stroke-width:1.5;"/>
   </g>
   <g id="line2d_22">
    <path clip-path="url(#peb6e5fdf08)" d="M 11.24682 84.088227 
L 12.603117 85.17847 
L 13.959414 86.268712 
L 15.315711 87.358954 
L 16.672008 88.449196 
L 17.654204 89.8877 
L 18.636401 91.326203 
L 19.618597 92.764707 
L 20.600793 94.203211 
L 21.582989 95.641714 
L 22.565186 97.080218 
L 23.547382 98.518722 
L 24.529578 99.957225 
L 25.47138 101.372131 
L 26.413182 102.787036 
L 27.354984 104.201941 
L 28.296787 105.616846 
L 29.717132 106.893143 
L 31.137477 108.169439 
L 32.557822 109.445735 
L 33.978168 110.722032 
L 34.463443 111.911076 
L 34.948719 113.100121 
L 35.433994 114.289165 
L 35.91927 115.47821 
L 36.404545 116.667255 
L 36.889821 117.856299 
L 37.375097 119.045344 
L 37.860372 120.234388 
L 38.345648 121.423433 
L 38.830923 122.612478 
L 39.316199 123.801522 
L 39.801474 124.990567 
L 40.28675 126.179611 
L 40.772025 127.368656 
L 41.257301 128.557701 
L 41.742577 129.746745 
L 42.654538 130.628453 
L 43.566499 131.51016 
L 44.478461 132.391868 
L 45.390422 133.273576 
L 46.302383 134.155283 
L 47.214345 135.036991 
L 48.126306 135.918698 
L 49.038268 136.800406 
L 50.507741 137.678263 
L 51.977214 138.556121 
L 53.446688 139.433978 
L 54.916161 140.311835 
" style="fill:none;stroke:#4169e1;stroke-linecap:square;stroke-width:1.5;"/>
   </g>
   <g id="line2d_23">
    <path clip-path="url(#peb6e5fdf08)" d="M 35.917086 107.316919 
L 37.586711 107.53924 
L 39.256335 107.761561 
L 40.92596 107.983882 
L 42.595584 108.206203 
L 43.857628 108.731327 
L 45.119672 109.256452 
L 45.934105 109.963408 
L 46.748539 110.670364 
L 47.562972 111.37732 
L 48.377405 112.084275 
L 49.374886 113.215256 
L 50.372366 114.346236 
L 51.369847 115.477216 
L 52.367327 116.608197 
L 53.181578 118.223936 
L 53.99583 119.839676 
L 54.810081 121.455415 
L 55.624332 123.071154 
L 56.438583 124.686894 
L 57.252835 126.302633 
L 58.067086 127.918373 
L 58.881337 129.534112 
L 59.421017 130.968144 
L 59.960698 132.402177 
L 60.500378 133.836209 
L 61.040058 135.270242 
L 61.579738 136.704274 
L 62.119419 138.138306 
L 62.659099 139.572339 
L 63.198779 141.006371 
L 63.605632 142.15772 
L 64.012485 143.30907 
L 64.419337 144.460419 
L 64.82619 145.611769 
" style="fill:none;stroke:#4169e1;stroke-linecap:square;stroke-width:1.5;"/>
   </g>
   <g id="line2d_24">
    <path clip-path="url(#peb6e5fdf08)" d="M 41.698907 109.659859 
L 42.350308 111.033281 
L 43.001709 112.406703 
L 43.65311 113.780125 
L 44.304511 115.153547 
L 45.118944 116.405996 
L 45.933378 117.658446 
L 46.401731 118.567354 
L 46.870085 119.476261 
L 47.338439 120.385169 
L 47.806792 121.294077 
L 48.560088 122.475607 
L 49.313385 123.657138 
L 50.066681 124.838668 
L 50.819977 126.020199 
L 51.573273 127.201729 
L 52.326569 128.383259 
L 53.079865 129.56479 
L 53.833161 130.74632 
L 54.554433 132.009203 
L 55.275705 133.272085 
L 55.996977 134.534968 
L 56.718249 135.79785 
L 57.15749 136.999129 
L 57.596731 138.200407 
L 58.035971 139.401686 
L 58.475212 140.602964 
" style="fill:none;stroke:#008000;stroke-linecap:square;stroke-width:1.5;"/>
   </g>
   <g id="line2d_25">
    <path clip-path="url(#peb6e5fdf08)" d="M 24.440784 21.891016 
L 24.897447 23.210255 
L 25.35411 24.529494 
L 25.810773 25.848733 
L 26.267436 27.167972 
L 26.724099 28.487211 
L 27.180762 29.80645 
L 27.637425 31.125689 
L 28.094088 32.444928 
L 28.550751 33.764167 
L 29.007414 35.083406 
L 29.464077 36.402645 
L 29.92074 37.721884 
L 30.377403 39.041123 
L 30.834066 40.360362 
L 31.290729 41.679601 
L 31.747392 42.99884 
L 32.204055 44.318079 
L 32.660718 45.637318 
L 33.117381 46.956557 
L 33.574044 48.275796 
L 34.030707 49.595035 
L 34.48737 50.914274 
L 34.944033 52.233513 
L 35.400697 53.552752 
L 35.85736 54.871991 
L 36.314023 56.19123 
L 36.770686 57.510469 
L 37.227349 58.829708 
L 37.684012 60.148947 
L 38.140675 61.468186 
L 38.597338 62.787425 
L 39.054001 64.106664 
" style="fill:none;stroke:#4169e1;stroke-linecap:square;stroke-width:1.5;"/>
   </g>
   <g id="line2d_26">
    <path clip-path="url(#peb6e5fdf08)" d="M 40.746916 69.800068 
L 41.234284 71.224289 
L 41.721652 72.648509 
L 42.20902 74.07273 
L 42.696388 75.49695 
L 43.183756 76.92117 
L 43.671124 78.345391 
L 44.158492 79.769611 
L 44.64586 81.193832 
L 45.133228 82.618052 
L 45.620596 84.042273 
L 46.107964 85.466493 
L 46.595332 86.890714 
L 47.0827 88.314934 
L 47.570068 89.739155 
L 48.057436 91.163375 
L 48.544804 92.587595 
L 49.085394 93.721681 
L 49.625984 94.855766 
L 50.166574 95.989852 
L 50.707164 97.123937 
L 51.247754 98.258022 
L 51.788344 99.392108 
L 52.328934 100.526193 
L 52.869524 101.660278 
L 53.410115 102.794364 
L 53.950705 103.928449 
L 54.491295 105.062534 
L 55.031885 106.19662 
L 55.572475 107.330705 
L 56.113065 108.464791 
L 56.653655 109.598876 
L 57.194245 110.732961 
L 57.672788 111.836307 
L 58.151331 112.939652 
L 58.629874 114.042998 
L 59.108418 115.146343 
L 59.586961 116.249689 
L 60.065504 117.353034 
L 60.544047 118.45638 
L 61.02259 119.559725 
L 61.501134 120.66307 
L 61.979677 121.766416 
L 62.45822 122.869761 
L 62.936763 123.973107 
L 63.415306 125.076452 
L 63.89385 126.179798 
L 64.372393 127.283143 
L 64.850936 128.386489 
L 65.329479 129.489834 
L 65.808022 130.59318 
L 66.286565 131.696525 
L 66.765109 132.79987 
L 67.243652 133.903216 
L 67.722195 135.006561 
L 68.200738 136.109907 
L 68.679281 137.213252 
L 69.157825 138.316598 
L 69.636368 139.419943 
L 70.114911 140.523289 
L 70.593454 141.626634 
L 71.071997 142.72998 
L 71.550541 143.833325 
L 72.029084 144.936671 
L 72.507627 146.040016 
" style="fill:none;stroke:#4169e1;stroke-linecap:square;stroke-width:1.5;"/>
   </g>
   <g id="line2d_27">
    <path clip-path="url(#peb6e5fdf08)" d="M 28.090085 19.814364 
L 28.721289 21.373468 
L 29.352493 22.932571 
L 29.983697 24.491675 
L 30.614901 26.050778 
L 31.246105 27.609882 
L 31.877309 29.168985 
L 32.508512 30.728089 
L 33.139716 32.287192 
L 33.797941 33.886226 
L 34.456165 35.485261 
L 35.114389 37.084295 
L 35.772614 38.683329 
L 36.430838 40.282364 
L 37.089062 41.881398 
L 37.747287 43.480432 
L 38.405511 45.079466 
L 39.063735 46.678501 
L 39.72196 48.277535 
L 40.380184 49.876569 
L 41.038408 51.475604 
L 41.696633 53.074638 
L 42.354857 54.673672 
L 43.013081 56.272706 
L 43.671306 57.871741 
L 44.302601 59.510768 
L 44.933896 61.149795 
L 45.56519 62.788822 
L 46.196485 64.42785 
L 46.82778 66.066877 
L 47.459075 67.705904 
L 48.09037 69.344931 
L 48.721665 70.983958 
L 49.35296 72.622986 
L 49.984255 74.262013 
L 50.61555 75.90104 
L 51.246845 77.540067 
L 51.878139 79.179095 
L 52.509434 80.818122 
L 53.140729 82.457149 
L 53.772024 84.096176 
L 54.289142 85.368746 
L 54.80626 86.641317 
L 55.323378 87.913887 
L 55.840495 89.186457 
L 56.357613 90.459027 
L 56.874731 91.731598 
L 57.391849 93.004168 
L 57.908966 94.276738 
L 58.426084 95.549308 
L 58.943202 96.821878 
L 59.46032 98.094449 
L 59.977438 99.367019 
L 60.494555 100.639589 
L 61.011673 101.912159 
L 61.528791 103.18473 
L 62.045909 104.4573 
" style="fill:none;stroke:#4169e1;stroke-linecap:square;stroke-width:1.5;"/>
   </g>
   <g id="line2d_28">
    <path clip-path="url(#peb6e5fdf08)" d="M 62.904739 106.589594 
L 63.431955 107.84549 
L 63.959172 109.101386 
L 64.486388 110.357282 
L 65.013604 111.613178 
L 65.540821 112.869075 
L 66.068037 114.124971 
L 66.595253 115.380867 
L 67.122469 116.636763 
L 67.649686 117.892659 
L 68.176902 119.148555 
L 68.704118 120.404452 
L 69.231335 121.660348 
L 69.758551 122.916244 
L 70.285767 124.17214 
L 70.812984 125.428036 
L 71.3402 126.683932 
L 71.867416 127.939828 
L 72.394633 129.195725 
L 72.921849 130.451621 
L 73.449065 131.707517 
L 73.976281 132.963413 
L 74.503498 134.219309 
L 75.030714 135.475205 
L 75.55793 136.731101 
L 76.085147 137.986998 
L 76.612363 139.242894 
L 77.139579 140.49879 
L 77.666796 141.754686 
L 78.194012 143.010582 
L 78.721228 144.266478 
L 79.248445 145.522374 
L 79.775661 146.778271 
" style="fill:none;stroke:#4169e1;stroke-linecap:square;stroke-width:1.5;"/>
   </g>
   <g id="line2d_29">
    <path clip-path="url(#peb6e5fdf08)" d="M 28.55298 19.436791 
L 30.327411 19.543853 
L 32.101842 19.650915 
L 33.876273 19.757977 
L 35.650703 19.865039 
L 36.854158 19.543605 
L 38.057612 19.222171 
L 39.261066 18.900737 
L 40.46452 18.579303 
L 42.131234 18.27327 
L 43.796491 17.661204 
L 44.87658 17.722312 
L 45.956668 17.783419 
L 47.036756 17.844526 
L 48.116845 17.905633 
L 49.24315 17.921034 
L 50.369455 17.936435 
L 51.49576 17.951836 
L 52.622065 17.967237 
L 54.288778 18.487394 
L 55.955491 19.00755 
" style="fill:none;stroke:#008000;stroke-linecap:square;stroke-width:1.5;"/>
   </g>
   <g id="line2d_30">
    <path clip-path="url(#peb6e5fdf08)" d="M 34.898135 20.53076 
L 35.700923 21.626218 
L 36.503711 22.721677 
L 37.496461 23.618413 
L 38.489211 24.515149 
L 39.871345 24.479876 
L 41.25348 24.444602 
L 42.920193 24.656242 
L 44.196793 25.534596 
L 44.444253 26.66036 
L 43.451503 27.8209 
L 42.458754 28.981441 
L 41.165413 30.106708 
L 39.872073 31.231975 
L 39.516896 32.673708 
L 40.172664 33.553055 
L 40.828432 34.432403 
L 41.998042 35.065335 
L 43.167653 35.698267 
L 44.481372 36.171723 
L 45.795091 36.64518 
L 46.936317 37.428644 
L 48.077542 38.212108 
L 49.199844 39.140143 
L 50.112533 40.300683 
L 50.463344 41.970947 
L 50.264648 43.722687 
L 50.065953 45.474428 
L 49.779555 46.425564 
L 49.493157 47.3767 
L 49.206759 48.327837 
L 48.92036 49.278973 
L 48.546078 50.198314 
L 48.171795 51.117654 
L 47.797513 52.036995 
L 47.42323 52.956336 
L 47.048947 53.875676 
L 46.674665 54.795017 
L 46.300382 55.714358 
L 45.926099 56.633699 
" style="fill:none;stroke:#4169e1;stroke-linecap:square;stroke-width:1.5;"/>
   </g>
   <g id="line2d_31">
    <path clip-path="url(#peb6e5fdf08)" d="M 56.738628 19.76369 
L 57.105087 21.601626 
L 57.471545 23.439563 
L 57.838004 25.277499 
L 58.204462 27.115435 
L 58.459018 28.448491 
L 58.713574 29.781548 
L 58.96813 31.114604 
L 59.222686 32.447661 
L 59.477242 33.780717 
L 59.731797 35.113773 
L 59.986353 36.44683 
L 60.240909 37.779886 
L 60.56661 39.29465 
L 60.89231 40.809413 
L 61.218011 42.324177 
L 61.543711 43.83894 
L 61.828654 45.252852 
L 62.113596 46.666764 
L 62.398539 48.080675 
L 62.683481 49.494587 
L 62.805755 51.029223 
L 62.928029 52.563858 
L 62.032808 54.018508 
L 61.99205 55.43242 
L 61.951292 56.846332 
L 61.0961 57.613898 
L 60.240909 58.381464 
L 60.485457 59.593176 
L 60.730006 60.804887 
L 61.259133 61.653184 
L 61.788259 62.501482 
L 62.317386 63.349779 
L 62.846513 64.198077 
L 63.905495 65.329305 
L 64.964476 66.460534 
L 65.738151 67.672245 
L 66.511827 68.883957 
L 67.163227 70.701772 
L 67.814628 72.519588 
L 68.10976 73.660753 
L 68.404892 74.801918 
L 68.700024 75.943082 
L 68.995156 77.084247 
L 69.290288 78.225412 
L 69.58542 79.366577 
L 69.880552 80.507742 
L 70.175684 81.648907 
L 70.26739 82.65879 
L 70.359095 83.668674 
L 70.450801 84.678558 
L 70.542507 85.688442 
L 70.634212 86.698325 
L 70.725918 87.708209 
L 70.817623 88.718093 
L 70.909329 89.727976 
L 70.909329 90.798346 
L 70.909329 91.868716 
L 70.909329 92.939086 
L 70.909329 94.009456 
L 70.909329 95.079826 
L 70.909329 96.150196 
L 70.909329 97.220566 
L 70.909329 98.290936 
L 71.092376 100.108751 
L 71.275424 101.926567 
L 71.458471 103.744382 
L 71.641518 105.562198 
L 72.007977 106.99623 
L 72.374435 108.430263 
L 72.740894 109.864295 
L 73.107353 111.298327 
" style="fill:none;stroke:#ff0000;stroke-linecap:square;stroke-width:1.5;"/>
   </g>
   <g id="line2d_32">
    <path clip-path="url(#peb6e5fdf08)" d="M 54.785153 81.406465 
L 55.711489 81.729638 
L 56.637825 82.052811 
L 57.564161 82.375983 
L 58.490496 82.699156 
L 59.416832 83.022329 
L 60.343168 83.345501 
L 61.269504 83.668674 
L 62.19584 83.991847 
L 64.007754 84.476482 
L 65.819667 84.961117 
L 67.631581 85.445752 
L 69.443495 85.930386 
" style="fill:none;stroke:#000000;stroke-linecap:square;stroke-width:1.5;"/>
   </g>
   <g id="line2d_33">
    <path clip-path="url(#peb6e5fdf08)" d="M 58.016684 19.578878 
L 59.681942 19.525223 
L 61.347199 19.471568 
L 62.959326 20.0578 
L 64.571452 20.644032 
L 65.565294 21.043961 
L 66.559135 21.44389 
L 67.552976 21.84382 
L 68.546818 22.243749 
L 69.406376 23.203083 
L 70.265934 24.162416 
L 70.910785 25.601665 
L 71.555635 27.040914 
L 71.931919 28.000248 
L 72.308204 28.959581 
L 72.684488 29.918915 
L 73.060772 30.878248 
L 73.221621 32.370656 
L 73.382469 33.863063 
L 72.899195 35.728572 
L 72.415921 37.594081 
L 71.985778 38.927013 
L 71.555635 40.259945 
L 71.555635 41.272437 
L 71.555635 42.284929 
L 71.985778 43.351076 
L 72.415921 44.417223 
L 73.221621 45.269743 
L 74.02732 46.122264 
L 74.672171 47.934614 
L 75.961872 49.000761 
L 76.599444 49.755907 
L 76.969178 50.193097 
L 77.417153 51.374752 
L 77.865127 52.556406 
L 78.313102 53.738061 
L 78.761077 54.919716 
L 79.137725 55.879049 
L 79.514373 56.838383 
L 79.891021 57.797717 
L 80.267669 58.75705 
L 80.847743 59.746689 
L 81.427818 60.736328 
L 82.007892 61.725967 
L 82.587966 62.715605 
L 83.361642 64.109645 
L 84.135317 65.503684 
L 84.318728 66.715396 
L 84.502139 67.927107 
L 84.68555 69.138819 
L 84.868962 70.35053 
L 84.657893 71.560751 
L 84.446825 72.770972 
L 84.235756 73.981193 
L 84.024688 75.191414 
L 83.45735 76.773992 
L 82.890013 78.356569 
L 82.322675 79.939147 
L 81.755338 81.521724 
L 81.542814 82.506395 
L 81.330289 83.491066 
L 81.117765 84.475737 
L 80.905241 85.460407 
L 81.543541 86.655724 
L 82.181842 87.851041 
L 83.528313 88.273327 
L 84.874784 88.695612 
L 85.867534 88.836208 
L 86.860284 88.976805 
L 87.853033 89.117401 
L 88.845783 89.257997 
L 90.051057 90.453811 
L 91.256331 91.649624 
L 92.035828 93.407823 
L 92.815326 95.166022 
" style="fill:none;stroke:#000000;stroke-linecap:square;stroke-width:1.5;"/>
   </g>
   <g id="line2d_34">
    <path clip-path="url(#peb6e5fdf08)" d="M 86.165941 71.088785 
L 87.96621 71.248756 
L 89.766478 71.408728 
L 91.566747 71.5687 
L 93.367015 71.728672 
L 94.924919 71.5687 
L 96.482823 71.408728 
L 98.040727 71.248756 
L 99.59863 71.088785 
L 100.055339 72.154932 
L 100.512047 73.221079 
L 100.968756 74.287226 
L 101.425464 75.353373 
L 101.694213 76.55254 
L 101.962961 77.751707 
L 102.23171 78.950874 
L 102.500458 80.150041 
L 102.769206 81.349208 
L 103.037955 82.548375 
L 103.306703 83.747542 
L 103.575452 84.946709 
L 103.790159 86.75906 
L 104.004867 88.571411 
L 104.219574 90.383761 
L 104.434282 92.196112 
L 104.649717 93.422231 
L 104.865153 94.648349 
L 105.832429 95.234581 
L 106.799704 95.820813 
L 107.068271 97.420034 
L 107.336837 99.019254 
L 106.181056 99.685472 
L 105.025274 100.35169 
" style="fill:none;stroke:#4169e1;stroke-linecap:square;stroke-width:1.5;"/>
   </g>
   <g id="line2d_35">
    <path clip-path="url(#peb6e5fdf08)" d="M 97.180804 93.582202 
L 98.632082 94.381564 
L 100.08336 95.180926 
L 101.063737 96.353638 
L 102.044113 97.52635 
L 103.02449 98.699062 
L 104.004867 99.871774 
L 104.259968 101.111059 
L 104.51507 102.350343 
L 104.770172 103.589627 
L 105.025274 104.828911 
" style="fill:none;stroke:#008000;stroke-linecap:square;stroke-width:1.5;"/>
   </g>
   <g id="line2d_36">
    <path clip-path="url(#peb6e5fdf08)" d="M 96.751389 98.379367 
L 97.678271 99.098992 
L 98.605153 99.818616 
L 99.532034 100.538241 
L 100.458916 101.257865 
L 101.399263 102.696617 
L 102.339609 104.135369 
" style="fill:none;stroke:#008000;stroke-linecap:square;stroke-width:1.5;"/>
   </g>
   <g id="line2d_37">
    <path clip-path="url(#peb6e5fdf08)" d="M 103.75304 105.550274 
L 103.469189 107.097579 
L 103.185339 108.644883 
L 102.901488 110.192187 
L 102.617637 111.739492 
L 102.316319 112.899908 
L 102.015 114.060324 
L 101.713682 115.22074 
L 101.412364 116.381156 
L 101.111045 117.541572 
L 100.809727 118.701988 
L 100.508408 119.862404 
L 100.20709 121.022821 
L 99.675415 122.447165 
L 99.143741 123.87151 
L 98.612067 125.295855 
L 98.080393 126.720199 
L 97.832205 128.144295 
L 97.584018 129.568392 
L 97.335831 130.992488 
L 97.087643 132.416584 
L 96.80452 133.99941 
L 96.521397 135.582236 
L 96.733921 136.953422 
L 96.946446 138.324609 
L 97.052708 139.872161 
L 97.15897 141.419714 
L 96.981381 142.720851 
L 96.803792 144.021987 
L 95.209134 144.760242 
L 93.614475 145.498497 
" style="fill:none;stroke:#008000;stroke-linecap:square;stroke-width:1.5;"/>
   </g>
   <g id="line2d_38">
    <path clip-path="url(#peb6e5fdf08)" d="M 54.006383 110.502443 
L 55.670913 111.341549 
L 57.335442 112.180656 
L 58.999972 113.019762 
L 60.664502 113.858869 
L 61.706743 113.716285 
L 62.748985 113.573702 
L 64.581642 113.609472 
L 65.740335 113.058265 
L 66.899028 112.507058 
L 68.057721 111.955851 
L 69.216414 111.404644 
L 70.358368 111.311741 
L 71.500321 111.218838 
L 72.470508 111.544743 
L 73.440695 111.870649 
" style="fill:none;stroke:#008000;stroke-linecap:square;stroke-width:1.5;"/>
   </g>
   <g id="line2d_39">
    <path clip-path="url(#peb6e5fdf08)" d="M 94.757156 94.924574 
L 93.628849 95.897321 
L 92.500543 96.870069 
L 91.372236 97.842816 
L 90.24393 98.815564 
L 89.115623 99.788311 
L 87.987316 100.761058 
L 86.85901 101.733806 
L 85.730703 102.706553 
L 84.441184 103.799279 
L 83.151665 104.892006 
L 81.862146 105.984732 
L 80.572626 107.077458 
L 79.283107 108.170184 
L 77.993588 109.26291 
L 76.704069 110.355637 
L 75.414549 111.448363 
" style="fill:none;stroke:#008000;stroke-linecap:square;stroke-width:1.5;"/>
   </g>
   <g id="line2d_40">
    <path clip-path="url(#peb6e5fdf08)" d="M 75.913836 113.268662 
L 76.692969 114.227996 
L 77.472103 115.18733 
L 78.251237 116.146663 
L 79.030371 117.105997 
L 79.527292 117.95889 
L 80.024212 118.811783 
L 80.521133 119.664675 
L 81.018054 120.517568 
L 81.514974 121.370461 
L 82.011895 122.223354 
L 82.508816 123.076247 
L 83.005736 123.929139 
L 83.352453 125.240026 
L 83.699169 126.550912 
L 84.045886 127.861799 
L 84.392602 129.172685 
L 84.739318 130.483572 
L 85.086035 131.794458 
L 85.432751 133.105344 
L 85.779467 134.416231 
L 86.126184 135.727117 
L 86.4729 137.038004 
L 86.819617 138.34889 
L 87.166333 139.659777 
L 87.513049 140.970663 
L 87.859766 142.281549 
L 88.206482 143.592436 
L 88.553198 144.903322 
" style="fill:none;stroke:#008000;stroke-linecap:square;stroke-width:1.5;"/>
   </g>
   <g id="line2d_41">
    <path clip-path="url(#peb6e5fdf08)" d="M 75.330122 113.674057 
L 76.115078 115.189069 
L 76.900035 116.70408 
L 77.684991 118.219092 
L 78.469948 119.734104 
L 77.70719 120.917498 
L 76.896396 122.074063 
L 77.295242 123.310615 
L 77.694089 124.547167 
L 77.210451 126.279532 
L 76.726813 128.011896 
L 76.243175 129.744261 
L 75.759537 131.476626 
" style="fill:none;stroke:#008000;stroke-linecap:square;stroke-width:1.5;"/>
   </g>
   <g id="line2d_42">
    <path clip-path="url(#peb6e5fdf08)" d="M 87.695824 146.066844 
L 86.006184 146.51074 
L 84.316544 146.954637 
L 82.626905 147.398534 
L 80.937265 147.84243 
" style="fill:none;stroke:#008000;stroke-linecap:square;stroke-width:1.5;"/>
   </g>
   <g id="text_1">
    <g id="patch_2">
     <path d="M 93.481574 133.425096 
L 94.71748 116.885583 
L 92.747348 116.738366 
L 91.511442 133.277879 
z
" style="fill:#ffffff;"/>
    </g>
    <!-- South Star Triple -->
    <g style="fill:#808080;" transform="translate(93.048339 133.372667)rotate(-85.726548)scale(0.02 -0.02)">
     <defs>
      <path d="M 3425 4513 
L 3425 3897 
Q 3066 4069 2747 4153 
Q 2428 4238 2131 4238 
Q 1616 4238 1336 4038 
Q 1056 3838 1056 3469 
Q 1056 3159 1242 3001 
Q 1428 2844 1947 2747 
L 2328 2669 
Q 3034 2534 3370 2195 
Q 3706 1856 3706 1288 
Q 3706 609 3251 259 
Q 2797 -91 1919 -91 
Q 1588 -91 1214 -16 
Q 841 59 441 206 
L 441 856 
Q 825 641 1194 531 
Q 1563 422 1919 422 
Q 2459 422 2753 634 
Q 3047 847 3047 1241 
Q 3047 1584 2836 1778 
Q 2625 1972 2144 2069 
L 1759 2144 
Q 1053 2284 737 2584 
Q 422 2884 422 3419 
Q 422 4038 858 4394 
Q 1294 4750 2059 4750 
Q 2388 4750 2728 4690 
Q 3069 4631 3425 4513 
z
" id="DejaVuSans-53" transform="scale(0.015625)"/>
      <path d="M 1959 3097 
Q 1497 3097 1228 2736 
Q 959 2375 959 1747 
Q 959 1119 1226 758 
Q 1494 397 1959 397 
Q 2419 397 2687 759 
Q 2956 1122 2956 1747 
Q 2956 2369 2687 2733 
Q 2419 3097 1959 3097 
z
M 1959 3584 
Q 2709 3584 3137 3096 
Q 3566 2609 3566 1747 
Q 3566 888 3137 398 
Q 2709 -91 1959 -91 
Q 1206 -91 779 398 
Q 353 888 353 1747 
Q 353 2609 779 3096 
Q 1206 3584 1959 3584 
z
" id="DejaVuSans-6f" transform="scale(0.015625)"/>
      <path d="M 544 1381 
L 544 3500 
L 1119 3500 
L 1119 1403 
Q 1119 906 1312 657 
Q 1506 409 1894 409 
Q 2359 409 2629 706 
Q 2900 1003 2900 1516 
L 2900 3500 
L 3475 3500 
L 3475 0 
L 2900 0 
L 2900 538 
Q 2691 219 2414 64 
Q 2138 -91 1772 -91 
Q 1169 -91 856 284 
Q 544 659 544 1381 
z
M 1991 3584 
L 1991 3584 
z
" id="DejaVuSans-75" transform="scale(0.015625)"/>
      <path d="M 1172 4494 
L 1172 3500 
L 2356 3500 
L 2356 3053 
L 1172 3053 
L 1172 1153 
Q 1172 725 1289 603 
Q 1406 481 1766 481 
L 2356 481 
L 2356 0 
L 1766 0 
Q 1100 0 847 248 
Q 594 497 594 1153 
L 594 3053 
L 172 3053 
L 172 3500 
L 594 3500 
L 594 4494 
L 1172 4494 
z
" id="DejaVuSans-74" transform="scale(0.015625)"/>
      <path d="M 3513 2113 
L 3513 0 
L 2938 0 
L 2938 2094 
Q 2938 2591 2744 2837 
Q 2550 3084 2163 3084 
Q 1697 3084 1428 2787 
Q 1159 2491 1159 1978 
L 1159 0 
L 581 0 
L 581 4863 
L 1159 4863 
L 1159 2956 
Q 1366 3272 1645 3428 
Q 1925 3584 2291 3584 
Q 2894 3584 3203 3211 
Q 3513 2838 3513 2113 
z
" id="DejaVuSans-68" transform="scale(0.015625)"/>
      <path id="DejaVuSans-20" transform="scale(0.015625)"/>
      <path d="M 2194 1759 
Q 1497 1759 1228 1600 
Q 959 1441 959 1056 
Q 959 750 1161 570 
Q 1363 391 1709 391 
Q 2188 391 2477 730 
Q 2766 1069 2766 1631 
L 2766 1759 
L 2194 1759 
z
M 3341 1997 
L 3341 0 
L 2766 0 
L 2766 531 
Q 2569 213 2275 61 
Q 1981 -91 1556 -91 
Q 1019 -91 701 211 
Q 384 513 384 1019 
Q 384 1609 779 1909 
Q 1175 2209 1959 2209 
L 2766 2209 
L 2766 2266 
Q 2766 2663 2505 2880 
Q 2244 3097 1772 3097 
Q 1472 3097 1187 3025 
Q 903 2953 641 2809 
L 641 3341 
Q 956 3463 1253 3523 
Q 1550 3584 1831 3584 
Q 2591 3584 2966 3190 
Q 3341 2797 3341 1997 
z
" id="DejaVuSans-61" transform="scale(0.015625)"/>
      <path d="M 2631 2963 
Q 2534 3019 2420 3045 
Q 2306 3072 2169 3072 
Q 1681 3072 1420 2755 
Q 1159 2438 1159 1844 
L 1159 0 
L 581 0 
L 581 3500 
L 1159 3500 
L 1159 2956 
Q 1341 3275 1631 3429 
Q 1922 3584 2338 3584 
Q 2397 3584 2469 3576 
Q 2541 3569 2628 3553 
L 2631 2963 
z
" id="DejaVuSans-72" transform="scale(0.015625)"/>
      <path d="M -19 4666 
L 3928 4666 
L 3928 4134 
L 2272 4134 
L 2272 0 
L 1638 0 
L 1638 4134 
L -19 4134 
L -19 4666 
z
" id="DejaVuSans-54" transform="scale(0.015625)"/>
      <path d="M 603 3500 
L 1178 3500 
L 1178 0 
L 603 0 
L 603 3500 
z
M 603 4863 
L 1178 4863 
L 1178 4134 
L 603 4134 
L 603 4863 
z
" id="DejaVuSans-69" transform="scale(0.015625)"/>
      <path d="M 1159 525 
L 1159 -1331 
L 581 -1331 
L 581 3500 
L 1159 3500 
L 1159 2969 
Q 1341 3281 1617 3432 
Q 1894 3584 2278 3584 
Q 2916 3584 3314 3078 
Q 3713 2572 3713 1747 
Q 3713 922 3314 415 
Q 2916 -91 2278 -91 
Q 1894 -91 1617 61 
Q 1341 213 1159 525 
z
M 3116 1747 
Q 3116 2381 2855 2742 
Q 2594 3103 2138 3103 
Q 1681 3103 1420 2742 
Q 1159 2381 1159 1747 
Q 1159 1113 1420 752 
Q 1681 391 2138 391 
Q 2594 391 2855 752 
Q 3116 1113 3116 1747 
z
" id="DejaVuSans-70" transform="scale(0.015625)"/>
      <path d="M 603 4863 
L 1178 4863 
L 1178 0 
L 603 0 
L 603 4863 
z
" id="DejaVuSans-6c" transform="scale(0.015625)"/>
      <path d="M 3597 1894 
L 3597 1613 
L 953 1613 
Q 991 1019 1311 708 
Q 1631 397 2203 397 
Q 2534 397 2845 478 
Q 3156 559 3463 722 
L 3463 178 
Q 3153 47 2828 -22 
Q 2503 -91 2169 -91 
Q 1331 -91 842 396 
Q 353 884 353 1716 
Q 353 2575 817 3079 
Q 1281 3584 2069 3584 
Q 2775 3584 3186 3129 
Q 3597 2675 3597 1894 
z
M 3022 2063 
Q 3016 2534 2758 2815 
Q 2500 3097 2075 3097 
Q 1594 3097 1305 2825 
Q 1016 2553 972 2059 
L 3022 2063 
z
" id="DejaVuSans-65" transform="scale(0.015625)"/>
     </defs>
     <use xlink:href="#DejaVuSans-53"/>
     <use x="63.476562" xlink:href="#DejaVuSans-6f"/>
     <use x="124.658203" xlink:href="#DejaVuSans-75"/>
     <use x="188.037109" xlink:href="#DejaVuSans-74"/>
     <use x="227.246094" xlink:href="#DejaVuSans-68"/>
     <use x="290.625" xlink:href="#DejaVuSans-20"/>
     <use x="322.412109" xlink:href="#DejaVuSans-53"/>
     <use x="385.888672" xlink:href="#DejaVuSans-74"/>
     <use x="425.097656" xlink:href="#DejaVuSans-61"/>
     <use x="486.376953" xlink:href="#DejaVuSans-72"/>
     <use x="527.490234" xlink:href="#DejaVuSans-20"/>
     <use x="559.277344" xlink:href="#DejaVuSans-54"/>
     <use x="605.611328" xlink:href="#DejaVuSans-72"/>
     <use x="646.724609" xlink:href="#DejaVuSans-69"/>
     <use x="674.507812" xlink:href="#DejaVuSans-70"/>
     <use x="737.984375" xlink:href="#DejaVuSans-6c"/>
     <use x="765.767578" xlink:href="#DejaVuSans-65"/>
    </g>
   </g>
   <g id="text_2">
    <g id="patch_3">
     <path d="M 60.720636 131.605275 
L 64.943667 149.199302 
L 66.864728 148.738197 
L 62.641697 131.144169 
z
" style="fill:#ffffff;"/>
    </g>
    <!-- North Star Double -->
    <g style="fill:#808080;" transform="translate(61.149202 131.522976)rotate(-283.497162)scale(0.02 -0.02)">
     <defs>
      <path d="M 628 4666 
L 1478 4666 
L 3547 763 
L 3547 4666 
L 4159 4666 
L 4159 0 
L 3309 0 
L 1241 3903 
L 1241 0 
L 628 0 
L 628 4666 
z
" id="DejaVuSans-4e" transform="scale(0.015625)"/>
      <path d="M 1259 4147 
L 1259 519 
L 2022 519 
Q 2988 519 3436 956 
Q 3884 1394 3884 2338 
Q 3884 3275 3436 3711 
Q 2988 4147 2022 4147 
L 1259 4147 
z
M 628 4666 
L 1925 4666 
Q 3281 4666 3915 4102 
Q 4550 3538 4550 2338 
Q 4550 1131 3912 565 
Q 3275 0 1925 0 
L 628 0 
L 628 4666 
z
" id="DejaVuSans-44" transform="scale(0.015625)"/>
      <path d="M 3116 1747 
Q 3116 2381 2855 2742 
Q 2594 3103 2138 3103 
Q 1681 3103 1420 2742 
Q 1159 2381 1159 1747 
Q 1159 1113 1420 752 
Q 1681 391 2138 391 
Q 2594 391 2855 752 
Q 3116 1113 3116 1747 
z
M 1159 2969 
Q 1341 3281 1617 3432 
Q 1894 3584 2278 3584 
Q 2916 3584 3314 3078 
Q 3713 2572 3713 1747 
Q 3713 922 3314 415 
Q 2916 -91 2278 -91 
Q 1894 -91 1617 61 
Q 1341 213 1159 525 
L 1159 0 
L 581 0 
L 581 4863 
L 1159 4863 
L 1159 2969 
z
" id="DejaVuSans-62" transform="scale(0.015625)"/>
     </defs>
     <use xlink:href="#DejaVuSans-4e"/>
     <use x="74.804688" xlink:href="#DejaVuSans-6f"/>
     <use x="135.986328" xlink:href="#DejaVuSans-72"/>
     <use x="177.099609" xlink:href="#DejaVuSans-74"/>
     <use x="216.308594" xlink:href="#DejaVuSans-68"/>
     <use x="279.6875" xlink:href="#DejaVuSans-20"/>
     <use x="311.474609" xlink:href="#DejaVuSans-53"/>
     <use x="374.951172" xlink:href="#DejaVuSans-74"/>
     <use x="414.160156" xlink:href="#DejaVuSans-61"/>
     <use x="475.439453" xlink:href="#DejaVuSans-72"/>
     <use x="516.552734" xlink:href="#DejaVuSans-20"/>
     <use x="548.339844" xlink:href="#DejaVuSans-44"/>
     <use x="625.341797" xlink:href="#DejaVuSans-6f"/>
     <use x="686.523438" xlink:href="#DejaVuSans-75"/>
     <use x="749.902344" xlink:href="#DejaVuSans-62"/>
     <use x="813.378906" xlink:href="#DejaVuSans-6c"/>
     <use x="841.162109" xlink:href="#DejaVuSans-65"/>
    </g>
   </g>
   <g id="text_3">
    <g id="patch_4">
     <path d="M 5.900824 71.871431 
L 6.780479 59.826322 
L 4.810101 59.682425 
L 3.930446 71.727534 
z
" style="fill:#ffffff;"/>
    </g>
    <!-- Elbow 23.7째 -->
    <g style="fill:#4169e1;" transform="translate(5.467501 71.819732)rotate(-85.823102)scale(0.02 -0.02)">
     <defs>
      <path d="M 628 4666 
L 3578 4666 
L 3578 4134 
L 1259 4134 
L 1259 2753 
L 3481 2753 
L 3481 2222 
L 1259 2222 
L 1259 531 
L 3634 531 
L 3634 0 
L 628 0 
L 628 4666 
z
" id="DejaVuSans-45" transform="scale(0.015625)"/>
      <path d="M 269 3500 
L 844 3500 
L 1563 769 
L 2278 3500 
L 2956 3500 
L 3675 769 
L 4391 3500 
L 4966 3500 
L 4050 0 
L 3372 0 
L 2619 2869 
L 1863 0 
L 1184 0 
L 269 3500 
z
" id="DejaVuSans-77" transform="scale(0.015625)"/>
      <path d="M 1228 531 
L 3431 531 
L 3431 0 
L 469 0 
L 469 531 
Q 828 903 1448 1529 
Q 2069 2156 2228 2338 
Q 2531 2678 2651 2914 
Q 2772 3150 2772 3378 
Q 2772 3750 2511 3984 
Q 2250 4219 1831 4219 
Q 1534 4219 1204 4116 
Q 875 4013 500 3803 
L 500 4441 
Q 881 4594 1212 4672 
Q 1544 4750 1819 4750 
Q 2544 4750 2975 4387 
Q 3406 4025 3406 3419 
Q 3406 3131 3298 2873 
Q 3191 2616 2906 2266 
Q 2828 2175 2409 1742 
Q 1991 1309 1228 531 
z
" id="DejaVuSans-32" transform="scale(0.015625)"/>
      <path d="M 2597 2516 
Q 3050 2419 3304 2112 
Q 3559 1806 3559 1356 
Q 3559 666 3084 287 
Q 2609 -91 1734 -91 
Q 1441 -91 1130 -33 
Q 819 25 488 141 
L 488 750 
Q 750 597 1062 519 
Q 1375 441 1716 441 
Q 2309 441 2620 675 
Q 2931 909 2931 1356 
Q 2931 1769 2642 2001 
Q 2353 2234 1838 2234 
L 1294 2234 
L 1294 2753 
L 1863 2753 
Q 2328 2753 2575 2939 
Q 2822 3125 2822 3475 
Q 2822 3834 2567 4026 
Q 2313 4219 1838 4219 
Q 1578 4219 1281 4162 
Q 984 4106 628 3988 
L 628 4550 
Q 988 4650 1302 4700 
Q 1616 4750 1894 4750 
Q 2613 4750 3031 4423 
Q 3450 4097 3450 3541 
Q 3450 3153 3228 2886 
Q 3006 2619 2597 2516 
z
" id="DejaVuSans-33" transform="scale(0.015625)"/>
      <path d="M 684 794 
L 1344 794 
L 1344 0 
L 684 0 
L 684 794 
z
" id="DejaVuSans-2e" transform="scale(0.015625)"/>
      <path d="M 525 4666 
L 3525 4666 
L 3525 4397 
L 1831 0 
L 1172 0 
L 2766 4134 
L 525 4134 
L 525 4666 
z
" id="DejaVuSans-37" transform="scale(0.015625)"/>
      <path d="M 1600 4347 
Q 1350 4347 1178 4173 
Q 1006 4000 1006 3750 
Q 1006 3503 1178 3333 
Q 1350 3163 1600 3163 
Q 1850 3163 2022 3333 
Q 2194 3503 2194 3750 
Q 2194 3997 2020 4172 
Q 1847 4347 1600 4347 
z
M 1600 4750 
Q 1800 4750 1984 4673 
Q 2169 4597 2303 4453 
Q 2447 4313 2519 4134 
Q 2591 3956 2591 3750 
Q 2591 3338 2302 3052 
Q 2013 2766 1594 2766 
Q 1172 2766 890 3047 
Q 609 3328 609 3750 
Q 609 4169 896 4459 
Q 1184 4750 1600 4750 
z
" id="DejaVuSans-b0" transform="scale(0.015625)"/>
     </defs>
     <use xlink:href="#DejaVuSans-45"/>
     <use x="63.183594" xlink:href="#DejaVuSans-6c"/>
     <use x="90.966797" xlink:href="#DejaVuSans-62"/>
     <use x="154.443359" xlink:href="#DejaVuSans-6f"/>
     <use x="215.625" xlink:href="#DejaVuSans-77"/>
     <use x="297.412109" xlink:href="#DejaVuSans-20"/>
     <use x="329.199219" xlink:href="#DejaVuSans-32"/>
     <use x="392.822266" xlink:href="#DejaVuSans-33"/>
     <use x="456.445312" xlink:href="#DejaVuSans-2e"/>
     <use x="488.232422" xlink:href="#DejaVuSans-37"/>
     <use x="551.855469" xlink:href="#DejaVuSans-b0"/>
    </g>
   </g>
   <g id="text_4">
    <g id="patch_5">
     <path d="M 11.186792 70.131791 
L 14.516901 58.386959 
L 12.616201 57.848038 
L 9.286093 69.59287 
z
" style="fill:#ffffff;"/>
    </g>
    <!-- Snake 19.3째 -->
    <g style="fill:#4169e1;" transform="translate(10.772843 69.993632)rotate(-74.16994)scale(0.02 -0.02)">
     <defs>
      <path d="M 3513 2113 
L 3513 0 
L 2938 0 
L 2938 2094 
Q 2938 2591 2744 2837 
Q 2550 3084 2163 3084 
Q 1697 3084 1428 2787 
Q 1159 2491 1159 1978 
L 1159 0 
L 581 0 
L 581 3500 
L 1159 3500 
L 1159 2956 
Q 1366 3272 1645 3428 
Q 1925 3584 2291 3584 
Q 2894 3584 3203 3211 
Q 3513 2838 3513 2113 
z
" id="DejaVuSans-6e" transform="scale(0.015625)"/>
      <path d="M 581 4863 
L 1159 4863 
L 1159 1991 
L 2875 3500 
L 3609 3500 
L 1753 1863 
L 3688 0 
L 2938 0 
L 1159 1709 
L 1159 0 
L 581 0 
L 581 4863 
z
" id="DejaVuSans-6b" transform="scale(0.015625)"/>
      <path d="M 794 531 
L 1825 531 
L 1825 4091 
L 703 3866 
L 703 4441 
L 1819 4666 
L 2450 4666 
L 2450 531 
L 3481 531 
L 3481 0 
L 794 0 
L 794 531 
z
" id="DejaVuSans-31" transform="scale(0.015625)"/>
      <path d="M 703 97 
L 703 672 
Q 941 559 1184 500 
Q 1428 441 1663 441 
Q 2288 441 2617 861 
Q 2947 1281 2994 2138 
Q 2813 1869 2534 1725 
Q 2256 1581 1919 1581 
Q 1219 1581 811 2004 
Q 403 2428 403 3163 
Q 403 3881 828 4315 
Q 1253 4750 1959 4750 
Q 2769 4750 3195 4129 
Q 3622 3509 3622 2328 
Q 3622 1225 3098 567 
Q 2575 -91 1691 -91 
Q 1453 -91 1209 -44 
Q 966 3 703 97 
z
M 1959 2075 
Q 2384 2075 2632 2365 
Q 2881 2656 2881 3163 
Q 2881 3666 2632 3958 
Q 2384 4250 1959 4250 
Q 1534 4250 1286 3958 
Q 1038 3666 1038 3163 
Q 1038 2656 1286 2365 
Q 1534 2075 1959 2075 
z
" id="DejaVuSans-39" transform="scale(0.015625)"/>
     </defs>
     <use xlink:href="#DejaVuSans-53"/>
     <use x="63.476562" xlink:href="#DejaVuSans-6e"/>
     <use x="126.855469" xlink:href="#DejaVuSans-61"/>
     <use x="188.134766" xlink:href="#DejaVuSans-6b"/>
     <use x="242.419922" xlink:href="#DejaVuSans-65"/>
     <use x="303.943359" xlink:href="#DejaVuSans-20"/>
     <use x="335.730469" xlink:href="#DejaVuSans-31"/>
     <use x="399.353516" xlink:href="#DejaVuSans-39"/>
     <use x="462.976562" xlink:href="#DejaVuSans-2e"/>
     <use x="494.763672" xlink:href="#DejaVuSans-33"/>
     <use x="558.386719" xlink:href="#DejaVuSans-b0"/>
    </g>
   </g>
   <g id="text_5">
    <g id="patch_6">
     <path d="M 14.99671 76.618799 
L 33.979458 70.171314 
L 33.344086 68.300646 
L 14.361338 74.748131 
z
" style="fill:#ffffff;"/>
    </g>
    <!-- Family Access 11.7째 -->
    <g style="fill:#008000;" transform="translate(14.875447 76.199589)rotate(-18.760042)scale(0.02 -0.02)">
     <defs>
      <path d="M 628 4666 
L 3309 4666 
L 3309 4134 
L 1259 4134 
L 1259 2759 
L 3109 2759 
L 3109 2228 
L 1259 2228 
L 1259 0 
L 628 0 
L 628 4666 
z
" id="DejaVuSans-46" transform="scale(0.015625)"/>
      <path d="M 3328 2828 
Q 3544 3216 3844 3400 
Q 4144 3584 4550 3584 
Q 5097 3584 5394 3201 
Q 5691 2819 5691 2113 
L 5691 0 
L 5113 0 
L 5113 2094 
Q 5113 2597 4934 2840 
Q 4756 3084 4391 3084 
Q 3944 3084 3684 2787 
Q 3425 2491 3425 1978 
L 3425 0 
L 2847 0 
L 2847 2094 
Q 2847 2600 2669 2842 
Q 2491 3084 2119 3084 
Q 1678 3084 1418 2786 
Q 1159 2488 1159 1978 
L 1159 0 
L 581 0 
L 581 3500 
L 1159 3500 
L 1159 2956 
Q 1356 3278 1631 3431 
Q 1906 3584 2284 3584 
Q 2666 3584 2933 3390 
Q 3200 3197 3328 2828 
z
" id="DejaVuSans-6d" transform="scale(0.015625)"/>
      <path d="M 2059 -325 
Q 1816 -950 1584 -1140 
Q 1353 -1331 966 -1331 
L 506 -1331 
L 506 -850 
L 844 -850 
Q 1081 -850 1212 -737 
Q 1344 -625 1503 -206 
L 1606 56 
L 191 3500 
L 800 3500 
L 1894 763 
L 2988 3500 
L 3597 3500 
L 2059 -325 
z
" id="DejaVuSans-79" transform="scale(0.015625)"/>
      <path d="M 2188 4044 
L 1331 1722 
L 3047 1722 
L 2188 4044 
z
M 1831 4666 
L 2547 4666 
L 4325 0 
L 3669 0 
L 3244 1197 
L 1141 1197 
L 716 0 
L 50 0 
L 1831 4666 
z
" id="DejaVuSans-41" transform="scale(0.015625)"/>
      <path d="M 3122 3366 
L 3122 2828 
Q 2878 2963 2633 3030 
Q 2388 3097 2138 3097 
Q 1578 3097 1268 2742 
Q 959 2388 959 1747 
Q 959 1106 1268 751 
Q 1578 397 2138 397 
Q 2388 397 2633 464 
Q 2878 531 3122 666 
L 3122 134 
Q 2881 22 2623 -34 
Q 2366 -91 2075 -91 
Q 1284 -91 818 406 
Q 353 903 353 1747 
Q 353 2603 823 3093 
Q 1294 3584 2113 3584 
Q 2378 3584 2631 3529 
Q 2884 3475 3122 3366 
z
" id="DejaVuSans-63" transform="scale(0.015625)"/>
      <path d="M 2834 3397 
L 2834 2853 
Q 2591 2978 2328 3040 
Q 2066 3103 1784 3103 
Q 1356 3103 1142 2972 
Q 928 2841 928 2578 
Q 928 2378 1081 2264 
Q 1234 2150 1697 2047 
L 1894 2003 
Q 2506 1872 2764 1633 
Q 3022 1394 3022 966 
Q 3022 478 2636 193 
Q 2250 -91 1575 -91 
Q 1294 -91 989 -36 
Q 684 19 347 128 
L 347 722 
Q 666 556 975 473 
Q 1284 391 1588 391 
Q 1994 391 2212 530 
Q 2431 669 2431 922 
Q 2431 1156 2273 1281 
Q 2116 1406 1581 1522 
L 1381 1569 
Q 847 1681 609 1914 
Q 372 2147 372 2553 
Q 372 3047 722 3315 
Q 1072 3584 1716 3584 
Q 2034 3584 2315 3537 
Q 2597 3491 2834 3397 
z
" id="DejaVuSans-73" transform="scale(0.015625)"/>
     </defs>
     <use xlink:href="#DejaVuSans-46"/>
     <use x="48.394531" xlink:href="#DejaVuSans-61"/>
     <use x="109.673828" xlink:href="#DejaVuSans-6d"/>
     <use x="207.085938" xlink:href="#DejaVuSans-69"/>
     <use x="234.869141" xlink:href="#DejaVuSans-6c"/>
     <use x="262.652344" xlink:href="#DejaVuSans-79"/>
     <use x="321.832031" xlink:href="#DejaVuSans-20"/>
     <use x="353.619141" xlink:href="#DejaVuSans-41"/>
     <use x="420.277344" xlink:href="#DejaVuSans-63"/>
     <use x="475.257812" xlink:href="#DejaVuSans-63"/>
     <use x="530.238281" xlink:href="#DejaVuSans-65"/>
     <use x="591.761719" xlink:href="#DejaVuSans-73"/>
     <use x="643.861328" xlink:href="#DejaVuSans-73"/>
     <use x="695.960938" xlink:href="#DejaVuSans-20"/>
     <use x="727.748047" xlink:href="#DejaVuSans-31"/>
     <use x="791.371094" xlink:href="#DejaVuSans-31"/>
     <use x="854.994141" xlink:href="#DejaVuSans-2e"/>
     <use x="886.78125" xlink:href="#DejaVuSans-37"/>
     <use x="950.404297" xlink:href="#DejaVuSans-b0"/>
    </g>
   </g>
   <g id="text_6">
    <g id="patch_7">
     <path d="M 37.236084 77.283653 
L 40.297522 89.841494 
L 42.216933 89.373567 
L 39.155495 76.815726 
z
" style="fill:#ffffff;"/>
    </g>
    <!-- Plunge 22.9째 -->
    <g style="fill:#4169e1;" transform="translate(37.664354 77.199832)rotate(-283.700717)scale(0.02 -0.02)">
     <defs>
      <path d="M 1259 4147 
L 1259 2394 
L 2053 2394 
Q 2494 2394 2734 2622 
Q 2975 2850 2975 3272 
Q 2975 3691 2734 3919 
Q 2494 4147 2053 4147 
L 1259 4147 
z
M 628 4666 
L 2053 4666 
Q 2838 4666 3239 4311 
Q 3641 3956 3641 3272 
Q 3641 2581 3239 2228 
Q 2838 1875 2053 1875 
L 1259 1875 
L 1259 0 
L 628 0 
L 628 4666 
z
" id="DejaVuSans-50" transform="scale(0.015625)"/>
      <path d="M 2906 1791 
Q 2906 2416 2648 2759 
Q 2391 3103 1925 3103 
Q 1463 3103 1205 2759 
Q 947 2416 947 1791 
Q 947 1169 1205 825 
Q 1463 481 1925 481 
Q 2391 481 2648 825 
Q 2906 1169 2906 1791 
z
M 3481 434 
Q 3481 -459 3084 -895 
Q 2688 -1331 1869 -1331 
Q 1566 -1331 1297 -1286 
Q 1028 -1241 775 -1147 
L 775 -588 
Q 1028 -725 1275 -790 
Q 1522 -856 1778 -856 
Q 2344 -856 2625 -561 
Q 2906 -266 2906 331 
L 2906 616 
Q 2728 306 2450 153 
Q 2172 0 1784 0 
Q 1141 0 747 490 
Q 353 981 353 1791 
Q 353 2603 747 3093 
Q 1141 3584 1784 3584 
Q 2172 3584 2450 3431 
Q 2728 3278 2906 2969 
L 2906 3500 
L 3481 3500 
L 3481 434 
z
" id="DejaVuSans-67" transform="scale(0.015625)"/>
     </defs>
     <use xlink:href="#DejaVuSans-50"/>
     <use x="60.302734" xlink:href="#DejaVuSans-6c"/>
     <use x="88.085938" xlink:href="#DejaVuSans-75"/>
     <use x="151.464844" xlink:href="#DejaVuSans-6e"/>
     <use x="214.84375" xlink:href="#DejaVuSans-67"/>
     <use x="278.320312" xlink:href="#DejaVuSans-65"/>
     <use x="339.84375" xlink:href="#DejaVuSans-20"/>
     <use x="371.630859" xlink:href="#DejaVuSans-32"/>
     <use x="435.253906" xlink:href="#DejaVuSans-32"/>
     <use x="498.876953" xlink:href="#DejaVuSans-2e"/>
     <use x="530.664062" xlink:href="#DejaVuSans-39"/>
     <use x="594.287109" xlink:href="#DejaVuSans-b0"/>
    </g>
   </g>
   <g id="text_7">
    <g id="patch_8">
     <path d="M 34.483846 85.904008 
L 36.682599 100.825062 
L 38.637117 100.537046 
L 36.438364 85.615992 
z
" style="fill:#ffffff;"/>
    </g>
    <!-- Waterfall 23.2째 -->
    <g style="fill:#4169e1;" transform="translate(34.918042 85.860241)rotate(-278.382724)scale(0.02 -0.02)">
     <defs>
      <path d="M 213 4666 
L 850 4666 
L 1831 722 
L 2809 4666 
L 3519 4666 
L 4500 722 
L 5478 4666 
L 6119 4666 
L 4947 0 
L 4153 0 
L 3169 4050 
L 2175 0 
L 1381 0 
L 213 4666 
z
" id="DejaVuSans-57" transform="scale(0.015625)"/>
      <path d="M 2375 4863 
L 2375 4384 
L 1825 4384 
Q 1516 4384 1395 4259 
Q 1275 4134 1275 3809 
L 1275 3500 
L 2222 3500 
L 2222 3053 
L 1275 3053 
L 1275 0 
L 697 0 
L 697 3053 
L 147 3053 
L 147 3500 
L 697 3500 
L 697 3744 
Q 697 4328 969 4595 
Q 1241 4863 1831 4863 
L 2375 4863 
z
" id="DejaVuSans-66" transform="scale(0.015625)"/>
     </defs>
     <use xlink:href="#DejaVuSans-57"/>
     <use x="92.501953" xlink:href="#DejaVuSans-61"/>
     <use x="153.78125" xlink:href="#DejaVuSans-74"/>
     <use x="192.990234" xlink:href="#DejaVuSans-65"/>
     <use x="254.513672" xlink:href="#DejaVuSans-72"/>
     <use x="295.626953" xlink:href="#DejaVuSans-66"/>
     <use x="330.832031" xlink:href="#DejaVuSans-61"/>
     <use x="392.111328" xlink:href="#DejaVuSans-6c"/>
     <use x="419.894531" xlink:href="#DejaVuSans-6c"/>
     <use x="447.677734" xlink:href="#DejaVuSans-20"/>
     <use x="479.464844" xlink:href="#DejaVuSans-32"/>
     <use x="543.087891" xlink:href="#DejaVuSans-33"/>
     <use x="606.710938" xlink:href="#DejaVuSans-2e"/>
     <use x="638.498047" xlink:href="#DejaVuSans-32"/>
     <use x="702.121094" xlink:href="#DejaVuSans-b0"/>
    </g>
   </g>
   <g id="text_8">
    <g id="patch_9">
     <path d="M 34.589261 112.173252 
L 39.228328 128.825709 
L 41.131483 128.295525 
L 36.492417 111.643068 
z
" style="fill:#ffffff;"/>
    </g>
    <!-- Family Trail 18.1째 -->
    <g style="fill:#4169e1;" transform="translate(35.014575 112.075529)rotate(-285.566853)scale(0.02 -0.02)">
     <defs>
      <path d="M 2034 2216 
Q 1584 2216 1326 1975 
Q 1069 1734 1069 1313 
Q 1069 891 1326 650 
Q 1584 409 2034 409 
Q 2484 409 2743 651 
Q 3003 894 3003 1313 
Q 3003 1734 2745 1975 
Q 2488 2216 2034 2216 
z
M 1403 2484 
Q 997 2584 770 2862 
Q 544 3141 544 3541 
Q 544 4100 942 4425 
Q 1341 4750 2034 4750 
Q 2731 4750 3128 4425 
Q 3525 4100 3525 3541 
Q 3525 3141 3298 2862 
Q 3072 2584 2669 2484 
Q 3125 2378 3379 2068 
Q 3634 1759 3634 1313 
Q 3634 634 3220 271 
Q 2806 -91 2034 -91 
Q 1263 -91 848 271 
Q 434 634 434 1313 
Q 434 1759 690 2068 
Q 947 2378 1403 2484 
z
M 1172 3481 
Q 1172 3119 1398 2916 
Q 1625 2713 2034 2713 
Q 2441 2713 2670 2916 
Q 2900 3119 2900 3481 
Q 2900 3844 2670 4047 
Q 2441 4250 2034 4250 
Q 1625 4250 1398 4047 
Q 1172 3844 1172 3481 
z
" id="DejaVuSans-38" transform="scale(0.015625)"/>
     </defs>
     <use xlink:href="#DejaVuSans-46"/>
     <use x="48.394531" xlink:href="#DejaVuSans-61"/>
     <use x="109.673828" xlink:href="#DejaVuSans-6d"/>
     <use x="207.085938" xlink:href="#DejaVuSans-69"/>
     <use x="234.869141" xlink:href="#DejaVuSans-6c"/>
     <use x="262.652344" xlink:href="#DejaVuSans-79"/>
     <use x="321.832031" xlink:href="#DejaVuSans-20"/>
     <use x="353.619141" xlink:href="#DejaVuSans-54"/>
     <use x="399.953125" xlink:href="#DejaVuSans-72"/>
     <use x="441.066406" xlink:href="#DejaVuSans-61"/>
     <use x="502.345703" xlink:href="#DejaVuSans-69"/>
     <use x="530.128906" xlink:href="#DejaVuSans-6c"/>
     <use x="557.912109" xlink:href="#DejaVuSans-20"/>
     <use x="589.699219" xlink:href="#DejaVuSans-31"/>
     <use x="653.322266" xlink:href="#DejaVuSans-38"/>
     <use x="716.945312" xlink:href="#DejaVuSans-2e"/>
     <use x="748.732422" xlink:href="#DejaVuSans-31"/>
     <use x="812.355469" xlink:href="#DejaVuSans-b0"/>
    </g>
   </g>
   <g id="text_9">
    <g id="patch_10">
     <path d="M 54.509571 120.6133 
L 59.756418 135.866087 
L 61.6246 135.223445 
L 56.377754 119.970659 
z
" style="fill:#ffffff;"/>
    </g>
    <!-- Milky Way 17.8째 -->
    <g style="fill:#4169e1;" transform="translate(54.928307 120.490408)rotate(-288.982839)scale(0.02 -0.02)">
     <defs>
      <path d="M 628 4666 
L 1569 4666 
L 2759 1491 
L 3956 4666 
L 4897 4666 
L 4897 0 
L 4281 0 
L 4281 4097 
L 3078 897 
L 2444 897 
L 1241 4097 
L 1241 0 
L 628 0 
L 628 4666 
z
" id="DejaVuSans-4d" transform="scale(0.015625)"/>
     </defs>
     <use xlink:href="#DejaVuSans-4d"/>
     <use x="86.279297" xlink:href="#DejaVuSans-69"/>
     <use x="114.0625" xlink:href="#DejaVuSans-6c"/>
     <use x="141.845703" xlink:href="#DejaVuSans-6b"/>
     <use x="196.130859" xlink:href="#DejaVuSans-79"/>
     <use x="255.310547" xlink:href="#DejaVuSans-20"/>
     <use x="287.097656" xlink:href="#DejaVuSans-57"/>
     <use x="379.599609" xlink:href="#DejaVuSans-61"/>
     <use x="440.878906" xlink:href="#DejaVuSans-79"/>
     <use x="500.058594" xlink:href="#DejaVuSans-20"/>
     <use x="531.845703" xlink:href="#DejaVuSans-31"/>
     <use x="595.46875" xlink:href="#DejaVuSans-37"/>
     <use x="659.091797" xlink:href="#DejaVuSans-2e"/>
     <use x="690.878906" xlink:href="#DejaVuSans-38"/>
     <use x="754.501953" xlink:href="#DejaVuSans-b0"/>
    </g>
   </g>
   <g id="text_10">
    <g id="patch_11">
     <path d="M 43.343559 112.849887 
L 47.596204 124.94035 
L 49.459903 124.284821 
L 45.207259 112.194358 
z
" style="fill:#ffffff;"/>
    </g>
    <!-- Dipper 15.6째 -->
    <g style="fill:#008000;" transform="translate(43.761436 112.724106)rotate(-289.378581)scale(0.02 -0.02)">
     <defs>
      <path d="M 691 4666 
L 3169 4666 
L 3169 4134 
L 1269 4134 
L 1269 2991 
Q 1406 3038 1543 3061 
Q 1681 3084 1819 3084 
Q 2600 3084 3056 2656 
Q 3513 2228 3513 1497 
Q 3513 744 3044 326 
Q 2575 -91 1722 -91 
Q 1428 -91 1123 -41 
Q 819 9 494 109 
L 494 744 
Q 775 591 1075 516 
Q 1375 441 1709 441 
Q 2250 441 2565 725 
Q 2881 1009 2881 1497 
Q 2881 1984 2565 2268 
Q 2250 2553 1709 2553 
Q 1456 2553 1204 2497 
Q 953 2441 691 2322 
L 691 4666 
z
" id="DejaVuSans-35" transform="scale(0.015625)"/>
      <path d="M 2113 2584 
Q 1688 2584 1439 2293 
Q 1191 2003 1191 1497 
Q 1191 994 1439 701 
Q 1688 409 2113 409 
Q 2538 409 2786 701 
Q 3034 994 3034 1497 
Q 3034 2003 2786 2293 
Q 2538 2584 2113 2584 
z
M 3366 4563 
L 3366 3988 
Q 3128 4100 2886 4159 
Q 2644 4219 2406 4219 
Q 1781 4219 1451 3797 
Q 1122 3375 1075 2522 
Q 1259 2794 1537 2939 
Q 1816 3084 2150 3084 
Q 2853 3084 3261 2657 
Q 3669 2231 3669 1497 
Q 3669 778 3244 343 
Q 2819 -91 2113 -91 
Q 1303 -91 875 529 
Q 447 1150 447 2328 
Q 447 3434 972 4092 
Q 1497 4750 2381 4750 
Q 2619 4750 2861 4703 
Q 3103 4656 3366 4563 
z
" id="DejaVuSans-36" transform="scale(0.015625)"/>
     </defs>
     <use xlink:href="#DejaVuSans-44"/>
     <use x="77.001953" xlink:href="#DejaVuSans-69"/>
     <use x="104.785156" xlink:href="#DejaVuSans-70"/>
     <use x="168.261719" xlink:href="#DejaVuSans-70"/>
     <use x="231.738281" xlink:href="#DejaVuSans-65"/>
     <use x="293.261719" xlink:href="#DejaVuSans-72"/>
     <use x="334.375" xlink:href="#DejaVuSans-20"/>
     <use x="366.162109" xlink:href="#DejaVuSans-31"/>
     <use x="429.785156" xlink:href="#DejaVuSans-35"/>
     <use x="493.408203" xlink:href="#DejaVuSans-2e"/>
     <use x="525.195312" xlink:href="#DejaVuSans-36"/>
     <use x="588.818359" xlink:href="#DejaVuSans-b0"/>
    </g>
   </g>
   <g id="text_11">
    <g id="patch_12">
     <path d="M 25.35848 24.549585 
L 29.82034 43.433048 
L 31.743023 42.978749 
L 27.281162 24.095286 
z
" style="fill:#ffffff;"/>
    </g>
    <!-- Upper Comet 17.6째 -->
    <g style="fill:#4169e1;" transform="translate(25.787334 24.468804)rotate(-283.294251)scale(0.02 -0.02)">
     <defs>
      <path d="M 556 4666 
L 1191 4666 
L 1191 1831 
Q 1191 1081 1462 751 
Q 1734 422 2344 422 
Q 2950 422 3222 751 
Q 3494 1081 3494 1831 
L 3494 4666 
L 4128 4666 
L 4128 1753 
Q 4128 841 3676 375 
Q 3225 -91 2344 -91 
Q 1459 -91 1007 375 
Q 556 841 556 1753 
L 556 4666 
z
" id="DejaVuSans-55" transform="scale(0.015625)"/>
      <path d="M 4122 4306 
L 4122 3641 
Q 3803 3938 3442 4084 
Q 3081 4231 2675 4231 
Q 1875 4231 1450 3742 
Q 1025 3253 1025 2328 
Q 1025 1406 1450 917 
Q 1875 428 2675 428 
Q 3081 428 3442 575 
Q 3803 722 4122 1019 
L 4122 359 
Q 3791 134 3420 21 
Q 3050 -91 2638 -91 
Q 1578 -91 968 557 
Q 359 1206 359 2328 
Q 359 3453 968 4101 
Q 1578 4750 2638 4750 
Q 3056 4750 3426 4639 
Q 3797 4528 4122 4306 
z
" id="DejaVuSans-43" transform="scale(0.015625)"/>
     </defs>
     <use xlink:href="#DejaVuSans-55"/>
     <use x="73.193359" xlink:href="#DejaVuSans-70"/>
     <use x="136.669922" xlink:href="#DejaVuSans-70"/>
     <use x="200.146484" xlink:href="#DejaVuSans-65"/>
     <use x="261.669922" xlink:href="#DejaVuSans-72"/>
     <use x="302.783203" xlink:href="#DejaVuSans-20"/>
     <use x="334.570312" xlink:href="#DejaVuSans-43"/>
     <use x="404.394531" xlink:href="#DejaVuSans-6f"/>
     <use x="465.576172" xlink:href="#DejaVuSans-6d"/>
     <use x="562.988281" xlink:href="#DejaVuSans-65"/>
     <use x="624.511719" xlink:href="#DejaVuSans-74"/>
     <use x="663.720703" xlink:href="#DejaVuSans-20"/>
     <use x="695.507812" xlink:href="#DejaVuSans-31"/>
     <use x="759.130859" xlink:href="#DejaVuSans-37"/>
     <use x="822.753906" xlink:href="#DejaVuSans-2e"/>
     <use x="854.541016" xlink:href="#DejaVuSans-36"/>
     <use x="918.164062" xlink:href="#DejaVuSans-b0"/>
    </g>
   </g>
   <g id="text_12">
    <g id="patch_13">
     <path d="M 41.971872 73.426674 
L 46.370745 92.258807 
L 48.294583 91.809431 
L 43.895711 72.977297 
z
" style="fill:#ffffff;"/>
    </g>
    <!-- Lower Comet 21.5째 -->
    <g style="fill:#4169e1;" transform="translate(42.400932 73.346991)rotate(-283.147606)scale(0.02 -0.02)">
     <defs>
      <path d="M 628 4666 
L 1259 4666 
L 1259 531 
L 3531 531 
L 3531 0 
L 628 0 
L 628 4666 
z
" id="DejaVuSans-4c" transform="scale(0.015625)"/>
     </defs>
     <use xlink:href="#DejaVuSans-4c"/>
     <use x="53.962891" xlink:href="#DejaVuSans-6f"/>
     <use x="115.144531" xlink:href="#DejaVuSans-77"/>
     <use x="196.931641" xlink:href="#DejaVuSans-65"/>
     <use x="258.455078" xlink:href="#DejaVuSans-72"/>
     <use x="299.568359" xlink:href="#DejaVuSans-20"/>
     <use x="331.355469" xlink:href="#DejaVuSans-43"/>
     <use x="401.179688" xlink:href="#DejaVuSans-6f"/>
     <use x="462.361328" xlink:href="#DejaVuSans-6d"/>
     <use x="559.773438" xlink:href="#DejaVuSans-65"/>
     <use x="621.296875" xlink:href="#DejaVuSans-74"/>
     <use x="660.505859" xlink:href="#DejaVuSans-20"/>
     <use x="692.292969" xlink:href="#DejaVuSans-32"/>
     <use x="755.916016" xlink:href="#DejaVuSans-31"/>
     <use x="819.539062" xlink:href="#DejaVuSans-2e"/>
     <use x="851.326172" xlink:href="#DejaVuSans-35"/>
     <use x="914.949219" xlink:href="#DejaVuSans-b0"/>
    </g>
   </g>
   <g id="text_13">
    <g id="patch_14">
     <path d="M 30.181461 23.923521 
L 36.828899 47.581419 
L 38.730869 47.047 
L 32.083431 23.389102 
z
" style="fill:#ffffff;"/>
    </g>
    <!-- Upper Uncle Bud's 22.9째 -->
    <g style="fill:#4169e1;" transform="translate(30.606556 23.824852)rotate(-285.694396)scale(0.02 -0.02)">
     <defs>
      <path d="M 1259 2228 
L 1259 519 
L 2272 519 
Q 2781 519 3026 730 
Q 3272 941 3272 1375 
Q 3272 1813 3026 2020 
Q 2781 2228 2272 2228 
L 1259 2228 
z
M 1259 4147 
L 1259 2741 
L 2194 2741 
Q 2656 2741 2882 2914 
Q 3109 3088 3109 3444 
Q 3109 3797 2882 3972 
Q 2656 4147 2194 4147 
L 1259 4147 
z
M 628 4666 
L 2241 4666 
Q 2963 4666 3353 4366 
Q 3744 4066 3744 3513 
Q 3744 3084 3544 2831 
Q 3344 2578 2956 2516 
Q 3422 2416 3680 2098 
Q 3938 1781 3938 1306 
Q 3938 681 3513 340 
Q 3088 0 2303 0 
L 628 0 
L 628 4666 
z
" id="DejaVuSans-42" transform="scale(0.015625)"/>
      <path d="M 2906 2969 
L 2906 4863 
L 3481 4863 
L 3481 0 
L 2906 0 
L 2906 525 
Q 2725 213 2448 61 
Q 2172 -91 1784 -91 
Q 1150 -91 751 415 
Q 353 922 353 1747 
Q 353 2572 751 3078 
Q 1150 3584 1784 3584 
Q 2172 3584 2448 3432 
Q 2725 3281 2906 2969 
z
M 947 1747 
Q 947 1113 1208 752 
Q 1469 391 1925 391 
Q 2381 391 2643 752 
Q 2906 1113 2906 1747 
Q 2906 2381 2643 2742 
Q 2381 3103 1925 3103 
Q 1469 3103 1208 2742 
Q 947 2381 947 1747 
z
" id="DejaVuSans-64" transform="scale(0.015625)"/>
      <path d="M 1147 4666 
L 1147 2931 
L 616 2931 
L 616 4666 
L 1147 4666 
z
" id="DejaVuSans-27" transform="scale(0.015625)"/>
     </defs>
     <use xlink:href="#DejaVuSans-55"/>
     <use x="73.193359" xlink:href="#DejaVuSans-70"/>
     <use x="136.669922" xlink:href="#DejaVuSans-70"/>
     <use x="200.146484" xlink:href="#DejaVuSans-65"/>
     <use x="261.669922" xlink:href="#DejaVuSans-72"/>
     <use x="302.783203" xlink:href="#DejaVuSans-20"/>
     <use x="334.570312" xlink:href="#DejaVuSans-55"/>
     <use x="407.763672" xlink:href="#DejaVuSans-6e"/>
     <use x="471.142578" xlink:href="#DejaVuSans-63"/>
     <use x="526.123047" xlink:href="#DejaVuSans-6c"/>
     <use x="553.90625" xlink:href="#DejaVuSans-65"/>
     <use x="615.429688" xlink:href="#DejaVuSans-20"/>
     <use x="647.216797" xlink:href="#DejaVuSans-42"/>
     <use x="715.820312" xlink:href="#DejaVuSans-75"/>
     <use x="779.199219" xlink:href="#DejaVuSans-64"/>
     <use x="842.675781" xlink:href="#DejaVuSans-27"/>
     <use x="870.166016" xlink:href="#DejaVuSans-73"/>
     <use x="922.265625" xlink:href="#DejaVuSans-20"/>
     <use x="954.052734" xlink:href="#DejaVuSans-32"/>
     <use x="1017.675781" xlink:href="#DejaVuSans-32"/>
     <use x="1081.298828" xlink:href="#DejaVuSans-2e"/>
     <use x="1113.085938" xlink:href="#DejaVuSans-39"/>
     <use x="1176.708984" xlink:href="#DejaVuSans-b0"/>
    </g>
   </g>
   <g id="text_14">
    <g id="patch_15">
     <path d="M 64.905997 110.151724 
L 71.657481 133.713181 
L 73.556673 133.168971 
L 66.805189 109.607515 
z
" style="fill:#ffffff;"/>
    </g>
    <!-- Lower Uncle Bud's 17.6째 -->
    <g style="fill:#4169e1;" transform="translate(65.330578 110.050866)rotate(-285.98954)scale(0.02 -0.02)">
     <use xlink:href="#DejaVuSans-4c"/>
     <use x="53.962891" xlink:href="#DejaVuSans-6f"/>
     <use x="115.144531" xlink:href="#DejaVuSans-77"/>
     <use x="196.931641" xlink:href="#DejaVuSans-65"/>
     <use x="258.455078" xlink:href="#DejaVuSans-72"/>
     <use x="299.568359" xlink:href="#DejaVuSans-20"/>
     <use x="331.355469" xlink:href="#DejaVuSans-55"/>
     <use x="404.548828" xlink:href="#DejaVuSans-6e"/>
     <use x="467.927734" xlink:href="#DejaVuSans-63"/>
     <use x="522.908203" xlink:href="#DejaVuSans-6c"/>
     <use x="550.691406" xlink:href="#DejaVuSans-65"/>
     <use x="612.214844" xlink:href="#DejaVuSans-20"/>
     <use x="644.001953" xlink:href="#DejaVuSans-42"/>
     <use x="712.605469" xlink:href="#DejaVuSans-75"/>
     <use x="775.984375" xlink:href="#DejaVuSans-64"/>
     <use x="839.460938" xlink:href="#DejaVuSans-27"/>
     <use x="866.951172" xlink:href="#DejaVuSans-73"/>
     <use x="919.050781" xlink:href="#DejaVuSans-20"/>
     <use x="950.837891" xlink:href="#DejaVuSans-31"/>
     <use x="1014.460938" xlink:href="#DejaVuSans-37"/>
     <use x="1078.083984" xlink:href="#DejaVuSans-2e"/>
     <use x="1109.871094" xlink:href="#DejaVuSans-36"/>
     <use x="1173.494141" xlink:href="#DejaVuSans-b0"/>
    </g>
   </g>
   <g id="text_15">
    <g id="patch_16">
     <path d="M 37.827606 21.997133 
L 50.70202 15.064757 
L 49.765376 13.325276 
L 36.890963 20.257652 
z
" style="fill:#ffffff;"/>
    </g>
    <!-- Slow Ride 6.1째 -->
    <g style="fill:#008000;" transform="translate(37.638538 21.603821)rotate(-28.300756)scale(0.02 -0.02)">
     <defs>
      <path d="M 2841 2188 
Q 3044 2119 3236 1894 
Q 3428 1669 3622 1275 
L 4263 0 
L 3584 0 
L 2988 1197 
Q 2756 1666 2539 1819 
Q 2322 1972 1947 1972 
L 1259 1972 
L 1259 0 
L 628 0 
L 628 4666 
L 2053 4666 
Q 2853 4666 3247 4331 
Q 3641 3997 3641 3322 
Q 3641 2881 3436 2590 
Q 3231 2300 2841 2188 
z
M 1259 4147 
L 1259 2491 
L 2053 2491 
Q 2509 2491 2742 2702 
Q 2975 2913 2975 3322 
Q 2975 3731 2742 3939 
Q 2509 4147 2053 4147 
L 1259 4147 
z
" id="DejaVuSans-52" transform="scale(0.015625)"/>
     </defs>
     <use xlink:href="#DejaVuSans-53"/>
     <use x="63.476562" xlink:href="#DejaVuSans-6c"/>
     <use x="91.259766" xlink:href="#DejaVuSans-6f"/>
     <use x="152.441406" xlink:href="#DejaVuSans-77"/>
     <use x="234.228516" xlink:href="#DejaVuSans-20"/>
     <use x="266.015625" xlink:href="#DejaVuSans-52"/>
     <use x="335.498047" xlink:href="#DejaVuSans-69"/>
     <use x="363.28125" xlink:href="#DejaVuSans-64"/>
     <use x="426.757812" xlink:href="#DejaVuSans-65"/>
     <use x="488.28125" xlink:href="#DejaVuSans-20"/>
     <use x="520.068359" xlink:href="#DejaVuSans-36"/>
     <use x="583.691406" xlink:href="#DejaVuSans-2e"/>
     <use x="615.478516" xlink:href="#DejaVuSans-31"/>
     <use x="679.101562" xlink:href="#DejaVuSans-b0"/>
    </g>
   </g>
   <g id="text_16">
    <g id="patch_17">
     <path d="M 39.562507 34.471555 
L 51.105262 40.565874 
L 52.027675 38.818805 
L 40.484921 32.724486 
z
" style="fill:#ffffff;"/>
    </g>
    <!-- Galaxy 19.7째 -->
    <g style="fill:#4169e1;" transform="translate(39.783731 34.095388)rotate(-332.166939)scale(0.02 -0.02)">
     <defs>
      <path d="M 3809 666 
L 3809 1919 
L 2778 1919 
L 2778 2438 
L 4434 2438 
L 4434 434 
Q 4069 175 3628 42 
Q 3188 -91 2688 -91 
Q 1594 -91 976 548 
Q 359 1188 359 2328 
Q 359 3472 976 4111 
Q 1594 4750 2688 4750 
Q 3144 4750 3555 4637 
Q 3966 4525 4313 4306 
L 4313 3634 
Q 3963 3931 3569 4081 
Q 3175 4231 2741 4231 
Q 1884 4231 1454 3753 
Q 1025 3275 1025 2328 
Q 1025 1384 1454 906 
Q 1884 428 2741 428 
Q 3075 428 3337 486 
Q 3600 544 3809 666 
z
" id="DejaVuSans-47" transform="scale(0.015625)"/>
      <path d="M 3513 3500 
L 2247 1797 
L 3578 0 
L 2900 0 
L 1881 1375 
L 863 0 
L 184 0 
L 1544 1831 
L 300 3500 
L 978 3500 
L 1906 2253 
L 2834 3500 
L 3513 3500 
z
" id="DejaVuSans-78" transform="scale(0.015625)"/>
     </defs>
     <use xlink:href="#DejaVuSans-47"/>
     <use x="77.490234" xlink:href="#DejaVuSans-61"/>
     <use x="138.769531" xlink:href="#DejaVuSans-6c"/>
     <use x="166.552734" xlink:href="#DejaVuSans-61"/>
     <use x="227.832031" xlink:href="#DejaVuSans-78"/>
     <use x="287.011719" xlink:href="#DejaVuSans-79"/>
     <use x="346.191406" xlink:href="#DejaVuSans-20"/>
     <use x="377.978516" xlink:href="#DejaVuSans-31"/>
     <use x="441.601562" xlink:href="#DejaVuSans-39"/>
     <use x="505.224609" xlink:href="#DejaVuSans-2e"/>
     <use x="537.011719" xlink:href="#DejaVuSans-37"/>
     <use x="600.634766" xlink:href="#DejaVuSans-b0"/>
    </g>
   </g>
   <g id="text_17">
    <g id="patch_18">
     <path d="M 57.456103 25.917243 
L 59.539327 41.899545 
L 61.49838 41.644191 
L 59.415156 25.661889 
z
" style="fill:#ffffff;"/>
    </g>
    <!-- Chair Trail 32.2째 -->
    <g style="fill:#ff0000;" transform="translate(57.890969 25.880729)rotate(-277.426387)scale(0.02 -0.02)">
     <use xlink:href="#DejaVuSans-43"/>
     <use x="69.824219" xlink:href="#DejaVuSans-68"/>
     <use x="133.203125" xlink:href="#DejaVuSans-61"/>
     <use x="194.482422" xlink:href="#DejaVuSans-69"/>
     <use x="222.265625" xlink:href="#DejaVuSans-72"/>
     <use x="263.378906" xlink:href="#DejaVuSans-20"/>
     <use x="295.166016" xlink:href="#DejaVuSans-54"/>
     <use x="341.5" xlink:href="#DejaVuSans-72"/>
     <use x="382.613281" xlink:href="#DejaVuSans-61"/>
     <use x="443.892578" xlink:href="#DejaVuSans-69"/>
     <use x="471.675781" xlink:href="#DejaVuSans-6c"/>
     <use x="499.458984" xlink:href="#DejaVuSans-20"/>
     <use x="531.246094" xlink:href="#DejaVuSans-33"/>
     <use x="594.869141" xlink:href="#DejaVuSans-32"/>
     <use x="658.492188" xlink:href="#DejaVuSans-2e"/>
     <use x="690.279297" xlink:href="#DejaVuSans-32"/>
     <use x="753.902344" xlink:href="#DejaVuSans-b0"/>
    </g>
   </g>
   <g id="text_18">
    <g id="patch_19">
     <path d="M 77.325791 52.041812 
L 80.547965 64.065033 
L 82.45625 63.553621 
L 79.234076 51.5304 
z
" style="fill:#ffffff;"/>
    </g>
    <!-- Hooch 25.2째 -->
    <g transform="translate(77.752047 51.948283)rotate(-285.002495)scale(0.02 -0.02)">
     <defs>
      <path d="M 628 4666 
L 1259 4666 
L 1259 2753 
L 3553 2753 
L 3553 4666 
L 4184 4666 
L 4184 0 
L 3553 0 
L 3553 2222 
L 1259 2222 
L 1259 0 
L 628 0 
L 628 4666 
z
" id="DejaVuSans-48" transform="scale(0.015625)"/>
     </defs>
     <use xlink:href="#DejaVuSans-48"/>
     <use x="75.195312" xlink:href="#DejaVuSans-6f"/>
     <use x="136.376953" xlink:href="#DejaVuSans-6f"/>
     <use x="197.558594" xlink:href="#DejaVuSans-63"/>
     <use x="252.539062" xlink:href="#DejaVuSans-68"/>
     <use x="315.917969" xlink:href="#DejaVuSans-20"/>
     <use x="347.705078" xlink:href="#DejaVuSans-32"/>
     <use x="411.328125" xlink:href="#DejaVuSans-35"/>
     <use x="474.951172" xlink:href="#DejaVuSans-2e"/>
     <use x="506.738281" xlink:href="#DejaVuSans-32"/>
     <use x="570.361328" xlink:href="#DejaVuSans-b0"/>
    </g>
   </g>
   <g id="text_19">
    <g id="patch_20">
     <path d="M 100.504995 71.96541 
L 104.155505 95.828426 
L 106.108411 95.529675 
L 102.457901 71.666658 
z
" style="fill:#ffffff;"/>
    </g>
    <!-- Upper Outer Orbit 20.4째 -->
    <g style="fill:#4169e1;" transform="translate(100.938944 71.919258)rotate(-278.697549)scale(0.02 -0.02)">
     <defs>
      <path d="M 2522 4238 
Q 1834 4238 1429 3725 
Q 1025 3213 1025 2328 
Q 1025 1447 1429 934 
Q 1834 422 2522 422 
Q 3209 422 3611 934 
Q 4013 1447 4013 2328 
Q 4013 3213 3611 3725 
Q 3209 4238 2522 4238 
z
M 2522 4750 
Q 3503 4750 4090 4092 
Q 4678 3434 4678 2328 
Q 4678 1225 4090 567 
Q 3503 -91 2522 -91 
Q 1538 -91 948 565 
Q 359 1222 359 2328 
Q 359 3434 948 4092 
Q 1538 4750 2522 4750 
z
" id="DejaVuSans-4f" transform="scale(0.015625)"/>
      <path d="M 2034 4250 
Q 1547 4250 1301 3770 
Q 1056 3291 1056 2328 
Q 1056 1369 1301 889 
Q 1547 409 2034 409 
Q 2525 409 2770 889 
Q 3016 1369 3016 2328 
Q 3016 3291 2770 3770 
Q 2525 4250 2034 4250 
z
M 2034 4750 
Q 2819 4750 3233 4129 
Q 3647 3509 3647 2328 
Q 3647 1150 3233 529 
Q 2819 -91 2034 -91 
Q 1250 -91 836 529 
Q 422 1150 422 2328 
Q 422 3509 836 4129 
Q 1250 4750 2034 4750 
z
" id="DejaVuSans-30" transform="scale(0.015625)"/>
      <path d="M 2419 4116 
L 825 1625 
L 2419 1625 
L 2419 4116 
z
M 2253 4666 
L 3047 4666 
L 3047 1625 
L 3713 1625 
L 3713 1100 
L 3047 1100 
L 3047 0 
L 2419 0 
L 2419 1100 
L 313 1100 
L 313 1709 
L 2253 4666 
z
" id="DejaVuSans-34" transform="scale(0.015625)"/>
     </defs>
     <use xlink:href="#DejaVuSans-55"/>
     <use x="73.193359" xlink:href="#DejaVuSans-70"/>
     <use x="136.669922" xlink:href="#DejaVuSans-70"/>
     <use x="200.146484" xlink:href="#DejaVuSans-65"/>
     <use x="261.669922" xlink:href="#DejaVuSans-72"/>
     <use x="302.783203" xlink:href="#DejaVuSans-20"/>
     <use x="334.570312" xlink:href="#DejaVuSans-4f"/>
     <use x="413.28125" xlink:href="#DejaVuSans-75"/>
     <use x="476.660156" xlink:href="#DejaVuSans-74"/>
     <use x="515.869141" xlink:href="#DejaVuSans-65"/>
     <use x="577.392578" xlink:href="#DejaVuSans-72"/>
     <use x="618.505859" xlink:href="#DejaVuSans-20"/>
     <use x="650.292969" xlink:href="#DejaVuSans-4f"/>
     <use x="729.003906" xlink:href="#DejaVuSans-72"/>
     <use x="770.117188" xlink:href="#DejaVuSans-62"/>
     <use x="833.59375" xlink:href="#DejaVuSans-69"/>
     <use x="861.376953" xlink:href="#DejaVuSans-74"/>
     <use x="900.585938" xlink:href="#DejaVuSans-20"/>
     <use x="932.373047" xlink:href="#DejaVuSans-32"/>
     <use x="995.996094" xlink:href="#DejaVuSans-30"/>
     <use x="1059.619141" xlink:href="#DejaVuSans-2e"/>
     <use x="1091.40625" xlink:href="#DejaVuSans-34"/>
     <use x="1155.029297" xlink:href="#DejaVuSans-b0"/>
    </g>
   </g>
   <g id="text_20">
    <g id="patch_21">
     <path d="M 97.660344 134.356477 
L 103.604945 111.025649 
L 101.690487 110.537853 
L 95.745886 133.868681 
z
" style="fill:#ffffff;"/>
    </g>
    <!-- Lower Outer Orbit 16.0째 -->
    <g style="fill:#008000;" transform="translate(97.242842 134.22946)rotate(-75.705426)scale(0.02 -0.02)">
     <use xlink:href="#DejaVuSans-4c"/>
     <use x="53.962891" xlink:href="#DejaVuSans-6f"/>
     <use x="115.144531" xlink:href="#DejaVuSans-77"/>
     <use x="196.931641" xlink:href="#DejaVuSans-65"/>
     <use x="258.455078" xlink:href="#DejaVuSans-72"/>
     <use x="299.568359" xlink:href="#DejaVuSans-20"/>
     <use x="331.355469" xlink:href="#DejaVuSans-4f"/>
     <use x="410.066406" xlink:href="#DejaVuSans-75"/>
     <use x="473.445312" xlink:href="#DejaVuSans-74"/>
     <use x="512.654297" xlink:href="#DejaVuSans-65"/>
     <use x="574.177734" xlink:href="#DejaVuSans-72"/>
     <use x="615.291016" xlink:href="#DejaVuSans-20"/>
     <use x="647.078125" xlink:href="#DejaVuSans-4f"/>
     <use x="725.789062" xlink:href="#DejaVuSans-72"/>
     <use x="766.902344" xlink:href="#DejaVuSans-62"/>
     <use x="830.378906" xlink:href="#DejaVuSans-69"/>
     <use x="858.162109" xlink:href="#DejaVuSans-74"/>
     <use x="897.371094" xlink:href="#DejaVuSans-20"/>
     <use x="929.158203" xlink:href="#DejaVuSans-31"/>
     <use x="992.78125" xlink:href="#DejaVuSans-36"/>
     <use x="1056.404297" xlink:href="#DejaVuSans-2e"/>
     <use x="1088.191406" xlink:href="#DejaVuSans-30"/>
     <use x="1151.814453" xlink:href="#DejaVuSans-b0"/>
    </g>
   </g>
   <g id="text_21">
    <g id="patch_22">
     <path d="M 82.585253 123.502628 
L 85.642622 140.437291 
L 87.586816 140.086288 
L 84.529447 123.151625 
z
" style="fill:#ffffff;"/>
    </g>
    <!-- Bunny Trail 11.1째 -->
    <g style="fill:#008000;" transform="translate(83.017808 123.444858)rotate(-280.23389)scale(0.02 -0.02)">
     <use xlink:href="#DejaVuSans-42"/>
     <use x="68.603516" xlink:href="#DejaVuSans-75"/>
     <use x="131.982422" xlink:href="#DejaVuSans-6e"/>
     <use x="195.361328" xlink:href="#DejaVuSans-6e"/>
     <use x="258.740234" xlink:href="#DejaVuSans-79"/>
     <use x="317.919922" xlink:href="#DejaVuSans-20"/>
     <use x="349.707031" xlink:href="#DejaVuSans-54"/>
     <use x="396.041016" xlink:href="#DejaVuSans-72"/>
     <use x="437.154297" xlink:href="#DejaVuSans-61"/>
     <use x="498.433594" xlink:href="#DejaVuSans-69"/>
     <use x="526.216797" xlink:href="#DejaVuSans-6c"/>
     <use x="554" xlink:href="#DejaVuSans-20"/>
     <use x="585.787109" xlink:href="#DejaVuSans-31"/>
     <use x="649.410156" xlink:href="#DejaVuSans-31"/>
     <use x="713.033203" xlink:href="#DejaVuSans-2e"/>
     <use x="744.820312" xlink:href="#DejaVuSans-31"/>
     <use x="808.443359" xlink:href="#DejaVuSans-b0"/>
    </g>
   </g>
   <g id="text_22">
    <!-- Big Rock -->
    <g transform="translate(41.148901 7.197615)scale(0.07 -0.07)">
     <use xlink:href="#DejaVuSans-42"/>
     <use x="68.603516" xlink:href="#DejaVuSans-69"/>
     <use x="96.386719" xlink:href="#DejaVuSans-67"/>
     <use x="159.863281" xlink:href="#DejaVuSans-20"/>
     <use x="191.650391" xlink:href="#DejaVuSans-52"/>
     <use x="256.632812" xlink:href="#DejaVuSans-6f"/>
     <use x="317.814453" xlink:href="#DejaVuSans-63"/>
     <use x="372.794922" xlink:href="#DejaVuSans-6b"/>
    </g>
   </g>
   <g id="legend_1">
    <g id="line2d_43">
     <path d="M 7.22269 163.043055 
L 14.22269 163.043055 
" style="fill:none;stroke:#008000;stroke-linecap:square;stroke-width:1.5;"/>
    </g>
    <g id="line2d_44"/>
    <g id="text_23">
     <!-- Easy -->
     <g transform="translate(17.02269 164.268055)scale(0.035 -0.035)">
      <use xlink:href="#DejaVuSans-45"/>
      <use x="63.183594" xlink:href="#DejaVuSans-61"/>
      <use x="124.462891" xlink:href="#DejaVuSans-73"/>
      <use x="176.5625" xlink:href="#DejaVuSans-79"/>
     </g>
    </g>
    <g id="line2d_45">
     <path d="M 7.22269 168.180399 
L 14.22269 168.180399 
" style="fill:none;stroke:#4169e1;stroke-linecap:square;stroke-width:1.5;"/>
    </g>
    <g id="line2d_46"/>
    <g id="text_24">
     <!-- Intermediate -->
     <g transform="translate(17.02269 169.405399)scale(0.035 -0.035)">
      <defs>
       <path d="M 628 4666 
L 1259 4666 
L 1259 0 
L 628 0 
L 628 4666 
z
" id="DejaVuSans-49" transform="scale(0.015625)"/>
      </defs>
      <use xlink:href="#DejaVuSans-49"/>
      <use x="29.492188" xlink:href="#DejaVuSans-6e"/>
      <use x="92.871094" xlink:href="#DejaVuSans-74"/>
      <use x="132.080078" xlink:href="#DejaVuSans-65"/>
      <use x="193.603516" xlink:href="#DejaVuSans-72"/>
      <use x="232.966797" xlink:href="#DejaVuSans-6d"/>
      <use x="330.378906" xlink:href="#DejaVuSans-65"/>
      <use x="391.902344" xlink:href="#DejaVuSans-64"/>
      <use x="455.378906" xlink:href="#DejaVuSans-69"/>
      <use x="483.162109" xlink:href="#DejaVuSans-61"/>
      <use x="544.441406" xlink:href="#DejaVuSans-74"/>
      <use x="583.650391" xlink:href="#DejaVuSans-65"/>
     </g>
    </g>
    <g id="line2d_47">
     <path d="M 46.604253 163.043055 
L 53.604253 163.043055 
" style="fill:none;stroke:#000000;stroke-linecap:square;stroke-width:1.5;"/>
    </g>
    <g id="line2d_48"/>
    <g id="text_25">
     <!-- Advanced -->
     <g transform="translate(56.404253 164.268055)scale(0.035 -0.035)">
      <defs>
       <path d="M 191 3500 
L 800 3500 
L 1894 563 
L 2988 3500 
L 3597 3500 
L 2284 0 
L 1503 0 
L 191 3500 
z
" id="DejaVuSans-76" transform="scale(0.015625)"/>
      </defs>
      <use xlink:href="#DejaVuSans-41"/>
      <use x="66.658203" xlink:href="#DejaVuSans-64"/>
      <use x="130.134766" xlink:href="#DejaVuSans-76"/>
      <use x="189.314453" xlink:href="#DejaVuSans-61"/>
      <use x="250.59375" xlink:href="#DejaVuSans-6e"/>
      <use x="313.972656" xlink:href="#DejaVuSans-63"/>
      <use x="368.953125" xlink:href="#DejaVuSans-65"/>
      <use x="430.476562" xlink:href="#DejaVuSans-64"/>
     </g>
    </g>
    <g id="line2d_49">
     <path d="M 46.604253 168.180399 
L 53.604253 168.180399 
" style="fill:none;stroke:#ff0000;stroke-linecap:square;stroke-width:1.5;"/>
    </g>
    <g id="line2d_50"/>
    <g id="text_26">
     <!-- Expert -->
     <g transform="translate(56.404253 169.405399)scale(0.035 -0.035)">
      <use xlink:href="#DejaVuSans-45"/>
      <use x="63.183594" xlink:href="#DejaVuSans-78"/>
      <use x="122.363281" xlink:href="#DejaVuSans-70"/>
      <use x="185.839844" xlink:href="#DejaVuSans-65"/>
      <use x="247.363281" xlink:href="#DejaVuSans-72"/>
      <use x="288.476562" xlink:href="#DejaVuSans-74"/>
     </g>
    </g>
    <g id="line2d_51">
     <path d="M 80.693706 163.043055 
L 87.693706 163.043055 
" style="fill:none;stroke:#ffd700;stroke-linecap:square;stroke-width:1.5;"/>
    </g>
    <g id="line2d_52"/>
    <g id="text_27">
     <!-- Extreme -->
     <g transform="translate(90.493706 164.268055)scale(0.035 -0.035)">
      <use xlink:href="#DejaVuSans-45"/>
      <use x="63.183594" xlink:href="#DejaVuSans-78"/>
      <use x="122.363281" xlink:href="#DejaVuSans-74"/>
      <use x="161.572266" xlink:href="#DejaVuSans-72"/>
      <use x="200.435547" xlink:href="#DejaVuSans-65"/>
      <use x="261.958984" xlink:href="#DejaVuSans-6d"/>
      <use x="359.371094" xlink:href="#DejaVuSans-65"/>
     </g>
    </g>
    <g id="line2d_53">
     <path d="M 80.693706 168.180399 
L 87.693706 168.180399 
" style="fill:none;stroke:#000000;stroke-dasharray:1.5,2.475;stroke-dashoffset:0;stroke-width:1.5;"/>
    </g>
    <g id="line2d_54"/>
    <g id="text_28">
     <!-- Gladed -->
     <g transform="translate(90.493706 169.405399)scale(0.035 -0.035)">
      <use xlink:href="#DejaVuSans-47"/>
      <use x="77.490234" xlink:href="#DejaVuSans-6c"/>
      <use x="105.273438" xlink:href="#DejaVuSans-61"/>
      <use x="166.552734" xlink:href="#DejaVuSans-64"/>
      <use x="230.029297" xlink:href="#DejaVuSans-65"/>
      <use x="291.552734" xlink:href="#DejaVuSans-64"/>
     </g>
    </g>
   </g>
  </g>
  <g id="text_29">
   <!-- Sources: USGS and OpenStreetMaps -->
   <g transform="translate(28.461592 173.961255)scale(0.030435 -0.030435)">
    <defs>
     <path d="M 750 794 
L 1409 794 
L 1409 0 
L 750 0 
L 750 794 
z
M 750 3309 
L 1409 3309 
L 1409 2516 
L 750 2516 
L 750 3309 
z
" id="DejaVuSans-3a" transform="scale(0.015625)"/>
    </defs>
    <use xlink:href="#DejaVuSans-53"/>
    <use x="63.476562" xlink:href="#DejaVuSans-6f"/>
    <use x="124.658203" xlink:href="#DejaVuSans-75"/>
    <use x="188.037109" xlink:href="#DejaVuSans-72"/>
    <use x="226.900391" xlink:href="#DejaVuSans-63"/>
    <use x="281.880859" xlink:href="#DejaVuSans-65"/>
    <use x="343.404297" xlink:href="#DejaVuSans-73"/>
    <use x="395.503906" xlink:href="#DejaVuSans-3a"/>
    <use x="429.195312" xlink:href="#DejaVuSans-20"/>
    <use x="460.982422" xlink:href="#DejaVuSans-55"/>
    <use x="534.175781" xlink:href="#DejaVuSans-53"/>
    <use x="597.652344" xlink:href="#DejaVuSans-47"/>
    <use x="675.142578" xlink:href="#DejaVuSans-53"/>
    <use x="738.619141" xlink:href="#DejaVuSans-20"/>
    <use x="770.40625" xlink:href="#DejaVuSans-61"/>
    <use x="831.685547" xlink:href="#DejaVuSans-6e"/>
    <use x="895.064453" xlink:href="#DejaVuSans-64"/>
    <use x="958.541016" xlink:href="#DejaVuSans-20"/>
    <use x="990.328125" xlink:href="#DejaVuSans-4f"/>
    <use x="1069.039062" xlink:href="#DejaVuSans-70"/>
    <use x="1132.515625" xlink:href="#DejaVuSans-65"/>
    <use x="1194.039062" xlink:href="#DejaVuSans-6e"/>
    <use x="1257.417969" xlink:href="#DejaVuSans-53"/>
    <use x="1320.894531" xlink:href="#DejaVuSans-74"/>
    <use x="1360.103516" xlink:href="#DejaVuSans-72"/>
    <use x="1398.966797" xlink:href="#DejaVuSans-65"/>
    <use x="1460.490234" xlink:href="#DejaVuSans-65"/>
    <use x="1522.013672" xlink:href="#DejaVuSans-74"/>
    <use x="1561.222656" xlink:href="#DejaVuSans-4d"/>
    <use x="1647.501953" xlink:href="#DejaVuSans-61"/>
    <use x="1708.78125" xlink:href="#DejaVuSans-70"/>
    <use x="1772.257812" xlink:href="#DejaVuSans-73"/>
   </g>
  </g>
 </g>
 <defs>
  <clipPath id="peb6e5fdf08">
   <rect height="153.198973" width="112.448115" x="0" y="10.697615"/>
  </clipPath>
 </defs>
</svg>
