<?xml version="1.0" encoding="utf-8" standalone="no"?>
<!DOCTYPE svg PUBLIC "-//W3C//DTD SVG 1.1//EN"
  "http://www.w3.org/Graphics/SVG/1.1/DTD/svg11.dtd">
<svg height="162.55448pt" version="1.1" viewBox="0 0 86.487711 162.55448" width="86.487711pt" xmlns="http://www.w3.org/2000/svg" xmlns:xlink="http://www.w3.org/1999/xlink">
 <metadata>
  <rdf:RDF xmlns:cc="http://creativecommons.org/ns#" xmlns:dc="http://purl.org/dc/elements/1.1/" xmlns:rdf="http://www.w3.org/1999/02/22-rdf-syntax-ns#">
   <cc:Work>
    <dc:type rdf:resource="http://purl.org/dc/dcmitype/StillImage"/>
    <dc:date>2022-04-14T21:27:28.081832</dc:date>
    <dc:format>image/svg+xml</dc:format>
    <dc:creator>
     <cc:Agent>
      <dc:title>Matplotlib v3.4.3, https://matplotlib.org/</dc:title>
     </cc:Agent>
    </dc:creator>
   </cc:Work>
  </rdf:RDF>
 </metadata>
 <defs>
  <style type="text/css">*{stroke-linecap:butt;stroke-linejoin:round;}</style>
 </defs>
 <g id="figure_1">
  <g id="patch_1">
   <path d="M 0 162.55448 
L 86.487711 162.55448 
L 86.487711 0 
L 0 0 
z
" style="fill:#ffffff;"/>
  </g>
  <g id="axes_1">
   <g id="line2d_1">
    <path clip-path="url(#p9af29c1f0d)" d="M 31.43421 55.499171 
" style="fill:none;stroke:#008000;stroke-linecap:square;stroke-width:1.5;"/>
   </g>
   <g id="line2d_2">
    <path clip-path="url(#p9af29c1f0d)" d="M 31.43421 55.499171 
" style="fill:none;stroke:#4169e1;stroke-linecap:square;stroke-width:1.5;"/>
   </g>
   <g id="line2d_3">
    <path clip-path="url(#p9af29c1f0d)" d="M 31.43421 55.499171 
" style="fill:none;stroke:#000000;stroke-linecap:square;stroke-width:1.5;"/>
   </g>
   <g id="line2d_4">
    <path clip-path="url(#p9af29c1f0d)" d="M 31.43421 55.499171 
" style="fill:none;stroke:#ff0000;stroke-linecap:square;stroke-width:1.5;"/>
   </g>
   <g id="line2d_5">
    <path clip-path="url(#p9af29c1f0d)" d="M 31.43421 55.499171 
" style="fill:none;stroke:#ffd700;stroke-linecap:square;stroke-width:1.5;"/>
   </g>
   <g id="line2d_6">
    <path clip-path="url(#p9af29c1f0d)" d="M 31.43421 55.499171 
" style="fill:none;stroke:#000000;stroke-dasharray:1.5,2.475;stroke-dashoffset:0;stroke-width:1.5;"/>
   </g>
   <g id="line2d_7">
    <path clip-path="url(#p9af29c1f0d)" d="M 67.298384 135.900765 
L 72.735217 139.297787 
L 78.17205 142.694809 
" style="fill:none;stroke:#808080;stroke-linecap:square;stroke-width:1.5;"/>
   </g>
   <g id="line2d_8">
    <path clip-path="url(#p9af29c1f0d)" d="M 82.556452 132.793865 
L 79.498142 127.794679 
L 76.684381 123.192786 
L 73.574396 118.10862 
L 70.464411 113.024454 
L 68.181233 109.291844 
L 65.898054 105.559234 
L 64.176026 102.743267 
L 62.453999 99.927301 
L 60.731971 97.111334 
L 59.009943 94.295368 
L 55.928343 89.25721 
L 52.846744 84.219052 
L 50.318289 80.084277 
L 47.789834 75.949502 
L 45.644214 72.443143 
L 43.568464 69.049369 
L 41.492715 65.655595 
L 39.166595 61.851537 
L 36.364479 57.270212 
L 33.562363 52.688888 
L 31.069571 48.613111 
L 28.57678 44.537335 
L 26.588369 41.285915 
L 24.599959 38.034496 
L 22.402663 34.441533 
L 20.205367 30.848571 
L 18.438215 27.959263 
L 16.671062 25.069954 
" style="fill:none;stroke:#808080;stroke-linecap:square;stroke-width:1.5;"/>
   </g>
   <g id="line2d_9">
    <path clip-path="url(#p9af29c1f0d)" d="M 7.231206 68.333808 
L 11.940217 72.49727 
L 15.172476 75.354644 
L 18.404735 78.212018 
L 21.370611 80.833938 
L 24.336487 83.455859 
L 28.260177 86.92487 
L 32.183867 90.393881 
L 34.961237 92.84909 
L 37.738607 95.304298 
L 42.597549 99.59929 
L 47.456491 103.894282 
L 49.736031 105.909978 
L 53.922465 109.610653 
L 58.108899 113.311328 
L 62.043507 116.790082 
L 65.978114 120.268836 
L 69.802821 123.649619 
L 73.627527 127.030403 
L 76.532994 129.599279 
" style="fill:none;stroke:#808080;stroke-linecap:square;stroke-width:1.5;"/>
   </g>
   <g id="line2d_10">
    <path clip-path="url(#p9af29c1f0d)" d="M 67.027634 136.052321 
L 69.925823 137.849885 
L 72.824011 139.647448 
L 75.7222 141.445012 
L 78.620388 143.242576 
" style="fill:none;stroke:#808080;stroke-linecap:square;stroke-width:1.5;"/>
   </g>
   <g id="line2d_11">
    <path clip-path="url(#p9af29c1f0d)" d="M 77.674219 137.26477 
L 72.153687 135.469913 
L 66.633154 133.675055 
L 62.607569 132.36626 
L 58.581984 131.057465 
L 52.589095 129.108887 
L 46.596205 127.160308 
L 43.470936 126.144341 
L 40.345667 125.128374 
" style="fill:none;stroke:#808080;stroke-linecap:square;stroke-width:1.5;"/>
   </g>
   <g id="line2d_12">
    <path clip-path="url(#p9af29c1f0d)" d="M 81.620472 133.199819 
L 78.61311 128.292649 
L 75.834285 123.757874 
L 72.728667 118.691029 
L 69.623049 113.624183 
L 67.331136 109.885078 
L 65.039224 106.145972 
L 63.307734 103.320263 
L 61.576245 100.494554 
L 59.844755 97.668844 
L 58.113266 94.843135 
L 55.031666 89.815261 
L 51.950067 84.787388 
L 49.408511 80.640704 
L 46.866955 76.494021 
L 44.770827 73.073184 
L 42.668148 69.642062 
L 40.565469 66.21094 
L 38.243716 62.424202 
L 35.479447 57.913785 
L 32.715178 53.403367 
L 30.168527 49.248023 
L 27.621877 45.09268 
L 25.640744 41.859663 
L 23.659612 38.626647 
L 21.460861 35.039098 
L 19.262109 31.451548 
L 17.484767 28.550873 
L 15.707425 25.650197 
" style="fill:none;stroke:#808080;stroke-linecap:square;stroke-width:1.5;"/>
   </g>
   <g id="line2d_13">
    <path clip-path="url(#p9af29c1f0d)" d="M 31.43421 55.499171 
L 31.507356 54.07928 
L 31.580503 52.659389 
L 31.653649 51.239497 
L 31.726795 49.819606 
L 31.799941 48.399715 
L 31.873087 46.979824 
L 31.946233 45.559933 
L 32.019379 44.140041 
L 31.960972 43.12739 
L 31.902564 42.114738 
L 31.844156 41.102086 
L 31.785749 40.089434 
L 31.727341 39.076782 
L 31.668933 38.06413 
L 31.610525 37.051478 
L 31.552118 36.038827 
L 31.49371 35.026175 
L 31.435302 34.013523 
L 31.376894 33.000871 
L 31.318487 31.988219 
L 31.260079 30.975567 
L 31.201671 29.962915 
L 31.143263 28.950264 
L 31.084856 27.937612 
L 31.077577 26.62381 
L 31.070299 25.310008 
L 31.063021 23.996206 
L 31.055743 22.682404 
L 31.048464 21.368602 
L 31.041186 20.0548 
L 31.033908 18.740998 
L 31.02663 17.427196 
L 29.667422 16.991472 
L 28.308213 16.555748 
L 26.949005 16.120025 
L 25.589797 15.684301 
L 24.201476 16.410417 
L 22.813155 17.136533 
L 21.424834 17.862649 
L 20.036512 18.588765 
L 18.80067 19.856424 
L 17.564828 21.124082 
L 16.328985 22.391741 
L 15.093143 23.659399 
" style="fill:none;stroke:#4169e1;stroke-linecap:square;stroke-width:1.5;"/>
   </g>
   <g id="line2d_14">
    <path clip-path="url(#p9af29c1f0d)" d="M 79.469029 133.151104 
L 79.450106 132.170861 
L 79.431183 131.190618 
L 78.729562 130.029049 
L 78.031216 128.88025 
L 77.332871 127.731451 
L 76.634525 126.582653 
L 75.93618 125.433854 
L 75.237834 124.285056 
L 74.539489 123.136257 
L 73.841143 121.987458 
L 73.142798 120.83866 
L 72.444452 119.689861 
L 71.746106 118.541062 
L 71.047761 117.392264 
L 70.349415 116.243465 
L 69.65107 115.094667 
L 68.952724 113.945868 
L 68.254379 112.797069 
L 67.556033 111.648271 
L 66.857688 110.499472 
L 66.159342 109.350673 
L 65.460997 108.201875 
L 64.762651 107.053076 
L 64.064306 105.904278 
L 63.36596 104.755479 
L 62.667614 103.60668 
L 61.969269 102.457882 
L 61.270923 101.309083 
L 60.572578 100.160284 
L 59.874232 99.011486 
L 59.175887 97.862687 
L 58.477541 96.713889 
L 57.779196 95.56509 
L 57.08085 94.416291 
L 56.382505 93.267493 
L 55.684159 92.118694 
L 54.985814 90.969895 
L 54.287468 89.821097 
L 53.589122 88.672298 
L 52.890777 87.5235 
L 52.192431 86.374701 
L 51.494086 85.225902 
L 50.79574 84.077104 
L 50.097395 82.928305 
L 49.399049 81.779506 
L 48.700704 80.630708 
L 48.002358 79.481909 
L 47.304013 78.333111 
L 46.605667 77.184312 
L 45.907322 76.035513 
L 45.208976 74.886715 
L 44.51063 73.737916 
L 43.812285 72.589117 
L 43.113939 71.440319 
L 42.415594 70.29152 
L 41.717248 69.142722 
L 41.018903 67.993923 
L 40.320557 66.845124 
L 39.622212 65.696326 
L 38.923866 64.547527 
L 38.225521 63.398728 
L 37.527175 62.24993 
L 36.82883 61.101131 
L 36.130484 59.952333 
L 35.432138 58.803534 
L 34.733793 57.654735 
L 34.035447 56.505937 
" style="fill:none;stroke:#4169e1;stroke-linecap:square;stroke-width:1.5;"/>
   </g>
   <g id="line2d_15">
    <path clip-path="url(#p9af29c1f0d)" d="M 31.43421 55.499171 
L 31.273544 56.506004 
L 31.112877 57.512837 
L 30.95221 58.519671 
L 30.791543 59.526504 
L 30.630876 60.533337 
L 30.47021 61.54017 
L 30.309543 62.547003 
L 30.148876 63.553837 
L 29.988209 64.56067 
L 29.827542 65.567503 
L 29.666876 66.574336 
L 29.506209 67.581169 
L 29.345542 68.588003 
L 29.184875 69.594836 
L 29.024209 70.601669 
L 28.863542 71.608502 
L 28.60935 73.191045 
L 28.355158 74.773589 
L 28.100966 76.356132 
L 27.846774 77.938676 
L 27.592582 79.521219 
L 27.33839 81.103762 
L 27.084198 82.686306 
L 26.830006 84.268849 
" style="fill:none;stroke:#008000;stroke-linecap:square;stroke-width:1.5;"/>
   </g>
   <g id="line2d_16">
    <path clip-path="url(#p9af29c1f0d)" d="M 7.408795 64.523254 
L 6.794877 63.027991 
L 6.180958 61.532728 
L 5.56704 60.037464 
L 4.953122 58.542201 
L 4.931288 57.279143 
L 4.909453 56.016086 
L 4.887618 54.753028 
L 4.865783 53.48997 
L 4.843949 52.226913 
L 4.822114 50.963855 
L 4.800279 49.700797 
L 4.778445 48.437739 
L 5.34833 47.073058 
L 5.918215 45.708376 
L 6.488099 44.343695 
L 7.057984 42.979013 
L 7.627869 41.614332 
L 8.197754 40.24965 
L 8.767639 38.884969 
L 9.337524 37.520287 
L 10.060979 36.511221 
L 10.784435 35.502156 
L 11.50789 34.49309 
L 12.231346 33.484024 
L 12.954801 32.474958 
L 13.678256 31.465892 
L 14.401712 30.456826 
L 15.125167 29.44776 
L 14.891536 28.489709 
L 14.657905 27.531658 
L 14.424274 26.573607 
L 14.190643 25.615556 
L 14.641893 24.637478 
L 15.093143 23.659399 
" style="fill:none;stroke:#008000;stroke-linecap:square;stroke-width:1.5;"/>
   </g>
   <g id="line2d_17">
    <path clip-path="url(#p9af29c1f0d)" d="M 29.480735 57.015815 
L 27.967229 57.397411 
L 26.453722 57.779008 
L 24.940215 58.160604 
L 23.426709 58.542201 
L 22.418311 59.072106 
L 21.409913 59.602011 
L 20.401515 60.131916 
L 19.393117 60.661821 
L 18.38472 61.191727 
L 17.376322 61.721632 
L 16.367924 62.251537 
L 15.359526 62.781442 
L 13.698999 62.677788 
L 12.038473 62.574135 
L 10.377946 62.470481 
L 8.717419 62.366828 
" style="fill:none;stroke:#008000;stroke-linecap:square;stroke-width:1.5;"/>
   </g>
   <g id="line2d_18">
    <path clip-path="url(#p9af29c1f0d)" d="M 26.394768 81.43042 
L 25.612359 79.713506 
L 24.82995 77.996592 
L 24.2819 77.121829 
L 23.73385 76.247066 
L 23.1858 75.372303 
L 22.637749 74.49754 
L 22.089699 73.622777 
L 21.541649 72.748015 
L 20.993599 71.873252 
L 20.445549 70.998489 
L 19.897498 70.123726 
L 19.349448 69.248963 
L 18.801398 68.3742 
L 18.253348 67.499437 
L 17.705297 66.624674 
L 17.157247 65.749912 
L 16.609197 64.875149 
L 16.061147 64.000386 
L 14.200833 64.056949 
L 12.340519 64.113512 
L 10.480205 64.170075 
L 8.619891 64.226637 
" style="fill:none;stroke:#4169e1;stroke-linecap:square;stroke-width:1.5;"/>
   </g>
   <g id="line2d_19">
    <path clip-path="url(#p9af29c1f0d)" d="M 25.004628 76.137864 
L 24.887812 74.439354 
L 24.770997 72.740843 
L 24.654181 71.042332 
L 24.537366 69.343821 
L 23.923448 68.516216 
L 23.309529 67.688612 
L 22.695611 66.861007 
L 22.081693 66.033403 
L 20.415708 65.743281 
L 18.749723 65.453159 
" style="fill:none;stroke:#4169e1;stroke-linecap:square;stroke-width:1.5;"/>
   </g>
   <g id="line2d_20">
    <path clip-path="url(#p9af29c1f0d)" d="M 39.668792 89.080755 
L 40.75252 88.806601 
L 41.836247 88.532447 
L 42.919975 88.258293 
L 44.003702 87.984139 
L 45.712629 87.71242 
L 47.421556 87.440702 
L 49.130483 87.168983 
L 50.83941 86.897265 
" style="fill:none;stroke:#008000;stroke-linecap:square;stroke-width:1.5;"/>
   </g>
   <g id="line2d_21">
    <path clip-path="url(#p9af29c1f0d)" d="M 61.490362 110.033386 
L 60.327666 109.222697 
L 59.164969 108.412007 
L 58.002273 107.601317 
L 56.839577 106.790627 
L 55.676881 105.979937 
L 54.514185 105.169247 
L 53.351488 104.358558 
L 52.188792 103.547868 
L 51.443411 102.763903 
L 50.69803 101.979939 
L 49.952649 101.195974 
L 49.207268 100.41201 
L 48.461887 99.628045 
L 47.716506 98.844081 
L 46.971125 98.060116 
L 46.225744 97.276152 
L 45.480363 96.492187 
L 44.734982 95.708222 
L 43.989601 94.924258 
L 43.24422 94.140293 
L 42.498839 93.356329 
L 41.753457 92.572364 
L 41.008076 91.7884 
L 40.262695 91.004435 
L 38.756103 89.885085 
L 37.249511 88.765735 
L 35.742919 87.646385 
L 34.236326 86.527035 
L 32.729734 85.407685 
L 31.223142 84.288335 
L 29.71655 83.168985 
L 28.209957 82.049635 
" style="fill:none;stroke:#4169e1;stroke-linecap:square;stroke-width:1.5;"/>
   </g>
   <g id="line2d_22">
    <path clip-path="url(#p9af29c1f0d)" d="M 60.991076 118.889675 
L 60.763631 117.507808 
L 60.536187 116.125942 
L 60.308742 114.744075 
L 60.081298 113.362208 
L 58.298133 113.042857 
L 56.514968 112.723507 
L 55.148482 111.518501 
L 53.781995 110.313494 
L 52.415509 109.108488 
L 51.049022 107.903482 
L 49.682536 106.698476 
L 48.31605 105.493469 
L 46.949563 104.288463 
L 45.583077 103.083457 
L 44.651373 102.09983 
L 43.71967 101.116204 
L 42.787966 100.132578 
L 41.856262 99.148952 
L 40.924559 98.165326 
L 39.992855 97.1817 
L 39.061152 96.198073 
L 38.129448 95.214447 
L 37.197744 94.230821 
L 36.266041 93.247195 
L 35.334337 92.263569 
L 34.402634 91.279943 
L 33.47093 90.296317 
L 32.539227 89.31269 
L 31.607523 88.329064 
L 30.675819 87.345438 
L 29.96874 86.526494 
L 29.261661 85.70755 
L 28.554581 84.888605 
L 27.847502 84.069661 
" style="fill:none;stroke:#4169e1;stroke-linecap:square;stroke-width:1.5;"/>
   </g>
   <g id="line2d_23">
    <path clip-path="url(#p9af29c1f0d)" d="M 25.882381 84.198484 
L 24.778821 83.183599 
L 23.67526 82.168715 
L 22.5717 81.15383 
L 21.468139 80.138945 
L 20.364578 79.124061 
L 19.261018 78.109176 
L 18.157457 77.094292 
L 17.053896 76.079407 
L 15.841162 75.628257 
L 14.628428 75.177107 
L 13.415695 74.725957 
L 12.202961 74.274807 
L 10.990227 73.823657 
L 9.777493 73.372507 
L 8.564759 72.921357 
L 7.352025 72.470207 
" style="fill:none;stroke:#000000;stroke-linecap:square;stroke-width:1.5;"/>
   </g>
   <g id="line2d_24">
    <path clip-path="url(#p9af29c1f0d)" d="M 17.173259 111.399556 
L 16.404042 110.596715 
L 15.634825 109.793874 
L 14.865608 108.991032 
L 14.09639 108.188191 
L 13.327173 107.385349 
L 12.557956 106.582508 
L 11.788739 105.779667 
L 11.019521 104.976825 
L 10.250304 104.173984 
L 9.481087 103.371143 
L 8.71187 102.568301 
L 7.942652 101.76546 
L 7.173435 100.962618 
L 6.404218 100.159777 
L 5.635001 99.356936 
L 4.865783 98.554094 
L 4.632153 96.81174 
L 4.398522 95.069386 
L 4.164891 93.327033 
L 3.93126 91.584679 
L 4.092108 90.066005 
L 4.252957 88.547332 
L 4.413806 87.028659 
L 4.574655 85.509985 
L 4.735503 83.991312 
L 4.896352 82.472639 
L 5.057201 80.953965 
L 5.21805 79.435292 
L 5.378898 77.916619 
L 5.539747 76.397945 
L 5.700596 74.879272 
L 5.861444 73.360599 
L 6.022293 71.841926 
L 6.183142 70.323252 
L 6.343991 68.804579 
L 6.504839 67.285906 
" style="fill:none;stroke:#000000;stroke-linecap:square;stroke-width:1.5;"/>
   </g>
   <g id="line2d_25">
    <path clip-path="url(#p9af29c1f0d)" d="M 19.243186 112.468027 
L 19.59436 111.498203 
L 19.945535 110.528379 
L 20.296709 109.558556 
L 20.647883 108.588732 
L 20.999057 107.618908 
L 21.350232 106.649084 
L 21.701406 105.679261 
L 22.05258 104.709437 
L 22.30095 103.359235 
L 22.549319 102.009032 
L 22.797688 100.65883 
L 23.046058 99.308627 
L 23.294427 97.958425 
L 23.542797 96.608222 
L 23.791166 95.25802 
L 24.039535 93.907817 
L 24.388344 92.702946 
L 24.737153 91.498075 
L 25.085962 90.293204 
L 25.434771 89.088333 
L 25.78358 87.883462 
L 26.132388 86.678591 
L 26.481197 85.47372 
L 26.830006 84.268849 
" style="fill:none;stroke:#008000;stroke-linecap:square;stroke-width:1.5;"/>
   </g>
   <g id="line2d_26">
    <path clip-path="url(#p9af29c1f0d)" d="M 61.119172 124.715925 
L 59.407334 124.537982 
L 57.695496 124.360039 
L 55.983658 124.182096 
L 54.27182 124.004152 
L 52.559982 123.826209 
L 50.848144 123.648266 
L 49.136305 123.470323 
L 47.424467 123.29238 
L 46.138223 122.595493 
L 44.851979 121.898605 
L 43.565735 121.201718 
L 42.279491 120.50483 
L 40.993247 119.807943 
L 39.707003 119.111055 
L 38.420759 118.414168 
L 37.134515 117.717281 
L 36.053335 116.58494 
L 34.972155 115.452599 
L 33.890975 114.320259 
L 32.809795 113.187918 
L 31.728251 113.173439 
L 30.646707 113.15896 
L 29.565163 113.144481 
L 28.483619 113.130002 
L 27.402075 113.115523 
L 26.320531 113.101044 
L 25.238987 113.086565 
L 24.157443 113.072086 
L 23.221463 112.461802 
L 22.285483 111.851518 
L 21.349504 111.241234 
L 20.413524 110.63095 
" style="fill:none;stroke:#008000;stroke-linecap:square;stroke-width:1.5;"/>
   </g>
   <g id="line2d_27">
    <path clip-path="url(#p9af29c1f0d)" d="M 39.467913 133.841767 
L 38.284838 135.121875 
L 37.101763 136.401983 
L 35.918688 137.682091 
L 34.735612 138.962198 
L 33.552537 140.242306 
L 32.369462 141.522414 
L 31.186387 142.802522 
L 30.003312 144.082629 
L 28.512368 144.779517 
L 27.021423 145.476404 
L 25.530479 146.173292 
L 24.039535 146.870179 
L 23.162873 145.273157 
L 22.286211 143.676134 
L 21.409549 142.079112 
L 20.532887 140.48209 
L 20.225928 138.899546 
L 19.918969 137.317003 
L 19.61201 135.734459 
L 19.305051 134.151916 
L 18.998092 132.569373 
L 18.691133 130.986829 
L 18.384174 129.404286 
L 18.077215 127.821742 
L 18.00425 126.486154 
L 17.931286 125.150566 
L 17.858322 123.814978 
L 17.785358 122.47939 
L 17.712394 121.143802 
L 17.63943 119.808214 
L 17.566465 118.472625 
L 17.493501 117.137037 
L 17.712212 115.856929 
L 17.930922 114.576822 
L 18.149633 113.296714 
L 18.368344 112.016606 
" style="fill:none;stroke:#008000;stroke-linecap:square;stroke-width:1.5;"/>
   </g>
   <g id="line2d_28">
    <path clip-path="url(#p9af29c1f0d)" d="M 81.796605 136.71159 
L 80.539838 136.177761 
L 79.283071 135.643932 
L 78.026303 135.110102 
L 76.769536 134.576273 
L 75.512769 134.042444 
L 74.256002 133.508614 
L 72.999235 132.974785 
L 71.742467 132.440956 
L 70.4857 131.907127 
L 69.228933 131.373297 
L 67.972166 130.839468 
L 66.715398 130.305639 
L 65.458631 129.771809 
L 64.201864 129.23798 
L 62.945097 128.704151 
L 61.688329 128.170321 
L 60.402267 128.489807 
L 59.116205 128.809293 
L 57.830143 129.128778 
L 56.544081 129.448264 
L 55.258019 129.76775 
L 53.971957 130.087235 
L 52.685895 130.406721 
L 51.399833 130.726207 
L 49.645781 131.597113 
L 47.891729 132.468019 
L 46.725758 131.996707 
L 45.559786 131.525395 
L 44.393815 131.054082 
L 43.227844 130.58277 
L 42.061872 130.111457 
L 40.895901 129.640145 
L 39.729929 129.168833 
L 38.563958 128.69752 
" style="fill:none;stroke:#008000;stroke-linecap:square;stroke-width:1.5;"/>
   </g>
   <g id="line2d_29">
    <path clip-path="url(#p9af29c1f0d)" d="M 79.575291 141.221467 
L 77.978631 140.397651 
L 76.381971 139.573835 
L 74.785311 138.75002 
L 73.18865 137.926204 
L 71.59199 137.102388 
L 69.99533 136.278573 
L 68.39867 135.454757 
L 66.802009 134.630941 
" style="fill:none;stroke:#008000;stroke-linecap:square;stroke-width:1.5;"/>
   </g>
   <g id="text_1">
    <g id="patch_2">
     <path d="M 65.543574 104.592921 
L 73.586955 122.274055 
L 75.385249 121.455987 
L 67.341867 103.774854 
z
" style="fill:#ffffff;"/>
    </g>
    <!-- Thundercloud Lift 1 -->
    <g style="fill:#808080;" transform="translate(65.948663 104.430613)rotate(-294.461416)scale(0.02 -0.02)">
     <defs>
      <path d="M -19 4666 
L 3928 4666 
L 3928 4134 
L 2272 4134 
L 2272 0 
L 1638 0 
L 1638 4134 
L -19 4134 
L -19 4666 
z
" id="DejaVuSans-54" transform="scale(0.015625)"/>
      <path d="M 3513 2113 
L 3513 0 
L 2938 0 
L 2938 2094 
Q 2938 2591 2744 2837 
Q 2550 3084 2163 3084 
Q 1697 3084 1428 2787 
Q 1159 2491 1159 1978 
L 1159 0 
L 581 0 
L 581 4863 
L 1159 4863 
L 1159 2956 
Q 1366 3272 1645 3428 
Q 1925 3584 2291 3584 
Q 2894 3584 3203 3211 
Q 3513 2838 3513 2113 
z
" id="DejaVuSans-68" transform="scale(0.015625)"/>
      <path d="M 544 1381 
L 544 3500 
L 1119 3500 
L 1119 1403 
Q 1119 906 1312 657 
Q 1506 409 1894 409 
Q 2359 409 2629 706 
Q 2900 1003 2900 1516 
L 2900 3500 
L 3475 3500 
L 3475 0 
L 2900 0 
L 2900 538 
Q 2691 219 2414 64 
Q 2138 -91 1772 -91 
Q 1169 -91 856 284 
Q 544 659 544 1381 
z
M 1991 3584 
L 1991 3584 
z
" id="DejaVuSans-75" transform="scale(0.015625)"/>
      <path d="M 3513 2113 
L 3513 0 
L 2938 0 
L 2938 2094 
Q 2938 2591 2744 2837 
Q 2550 3084 2163 3084 
Q 1697 3084 1428 2787 
Q 1159 2491 1159 1978 
L 1159 0 
L 581 0 
L 581 3500 
L 1159 3500 
L 1159 2956 
Q 1366 3272 1645 3428 
Q 1925 3584 2291 3584 
Q 2894 3584 3203 3211 
Q 3513 2838 3513 2113 
z
" id="DejaVuSans-6e" transform="scale(0.015625)"/>
      <path d="M 2906 2969 
L 2906 4863 
L 3481 4863 
L 3481 0 
L 2906 0 
L 2906 525 
Q 2725 213 2448 61 
Q 2172 -91 1784 -91 
Q 1150 -91 751 415 
Q 353 922 353 1747 
Q 353 2572 751 3078 
Q 1150 3584 1784 3584 
Q 2172 3584 2448 3432 
Q 2725 3281 2906 2969 
z
M 947 1747 
Q 947 1113 1208 752 
Q 1469 391 1925 391 
Q 2381 391 2643 752 
Q 2906 1113 2906 1747 
Q 2906 2381 2643 2742 
Q 2381 3103 1925 3103 
Q 1469 3103 1208 2742 
Q 947 2381 947 1747 
z
" id="DejaVuSans-64" transform="scale(0.015625)"/>
      <path d="M 3597 1894 
L 3597 1613 
L 953 1613 
Q 991 1019 1311 708 
Q 1631 397 2203 397 
Q 2534 397 2845 478 
Q 3156 559 3463 722 
L 3463 178 
Q 3153 47 2828 -22 
Q 2503 -91 2169 -91 
Q 1331 -91 842 396 
Q 353 884 353 1716 
Q 353 2575 817 3079 
Q 1281 3584 2069 3584 
Q 2775 3584 3186 3129 
Q 3597 2675 3597 1894 
z
M 3022 2063 
Q 3016 2534 2758 2815 
Q 2500 3097 2075 3097 
Q 1594 3097 1305 2825 
Q 1016 2553 972 2059 
L 3022 2063 
z
" id="DejaVuSans-65" transform="scale(0.015625)"/>
      <path d="M 2631 2963 
Q 2534 3019 2420 3045 
Q 2306 3072 2169 3072 
Q 1681 3072 1420 2755 
Q 1159 2438 1159 1844 
L 1159 0 
L 581 0 
L 581 3500 
L 1159 3500 
L 1159 2956 
Q 1341 3275 1631 3429 
Q 1922 3584 2338 3584 
Q 2397 3584 2469 3576 
Q 2541 3569 2628 3553 
L 2631 2963 
z
" id="DejaVuSans-72" transform="scale(0.015625)"/>
      <path d="M 3122 3366 
L 3122 2828 
Q 2878 2963 2633 3030 
Q 2388 3097 2138 3097 
Q 1578 3097 1268 2742 
Q 959 2388 959 1747 
Q 959 1106 1268 751 
Q 1578 397 2138 397 
Q 2388 397 2633 464 
Q 2878 531 3122 666 
L 3122 134 
Q 2881 22 2623 -34 
Q 2366 -91 2075 -91 
Q 1284 -91 818 406 
Q 353 903 353 1747 
Q 353 2603 823 3093 
Q 1294 3584 2113 3584 
Q 2378 3584 2631 3529 
Q 2884 3475 3122 3366 
z
" id="DejaVuSans-63" transform="scale(0.015625)"/>
      <path d="M 603 4863 
L 1178 4863 
L 1178 0 
L 603 0 
L 603 4863 
z
" id="DejaVuSans-6c" transform="scale(0.015625)"/>
      <path d="M 1959 3097 
Q 1497 3097 1228 2736 
Q 959 2375 959 1747 
Q 959 1119 1226 758 
Q 1494 397 1959 397 
Q 2419 397 2687 759 
Q 2956 1122 2956 1747 
Q 2956 2369 2687 2733 
Q 2419 3097 1959 3097 
z
M 1959 3584 
Q 2709 3584 3137 3096 
Q 3566 2609 3566 1747 
Q 3566 888 3137 398 
Q 2709 -91 1959 -91 
Q 1206 -91 779 398 
Q 353 888 353 1747 
Q 353 2609 779 3096 
Q 1206 3584 1959 3584 
z
" id="DejaVuSans-6f" transform="scale(0.015625)"/>
      <path id="DejaVuSans-20" transform="scale(0.015625)"/>
      <path d="M 628 4666 
L 1259 4666 
L 1259 531 
L 3531 531 
L 3531 0 
L 628 0 
L 628 4666 
z
" id="DejaVuSans-4c" transform="scale(0.015625)"/>
      <path d="M 603 3500 
L 1178 3500 
L 1178 0 
L 603 0 
L 603 3500 
z
M 603 4863 
L 1178 4863 
L 1178 4134 
L 603 4134 
L 603 4863 
z
" id="DejaVuSans-69" transform="scale(0.015625)"/>
      <path d="M 2375 4863 
L 2375 4384 
L 1825 4384 
Q 1516 4384 1395 4259 
Q 1275 4134 1275 3809 
L 1275 3500 
L 2222 3500 
L 2222 3053 
L 1275 3053 
L 1275 0 
L 697 0 
L 697 3053 
L 147 3053 
L 147 3500 
L 697 3500 
L 697 3744 
Q 697 4328 969 4595 
Q 1241 4863 1831 4863 
L 2375 4863 
z
" id="DejaVuSans-66" transform="scale(0.015625)"/>
      <path d="M 1172 4494 
L 1172 3500 
L 2356 3500 
L 2356 3053 
L 1172 3053 
L 1172 1153 
Q 1172 725 1289 603 
Q 1406 481 1766 481 
L 2356 481 
L 2356 0 
L 1766 0 
Q 1100 0 847 248 
Q 594 497 594 1153 
L 594 3053 
L 172 3053 
L 172 3500 
L 594 3500 
L 594 4494 
L 1172 4494 
z
" id="DejaVuSans-74" transform="scale(0.015625)"/>
      <path d="M 794 531 
L 1825 531 
L 1825 4091 
L 703 3866 
L 703 4441 
L 1819 4666 
L 2450 4666 
L 2450 531 
L 3481 531 
L 3481 0 
L 794 0 
L 794 531 
z
" id="DejaVuSans-31" transform="scale(0.015625)"/>
     </defs>
     <use xlink:href="#DejaVuSans-54"/>
     <use x="61.083984" xlink:href="#DejaVuSans-68"/>
     <use x="124.462891" xlink:href="#DejaVuSans-75"/>
     <use x="187.841797" xlink:href="#DejaVuSans-6e"/>
     <use x="251.220703" xlink:href="#DejaVuSans-64"/>
     <use x="314.697266" xlink:href="#DejaVuSans-65"/>
     <use x="376.220703" xlink:href="#DejaVuSans-72"/>
     <use x="415.083984" xlink:href="#DejaVuSans-63"/>
     <use x="470.064453" xlink:href="#DejaVuSans-6c"/>
     <use x="497.847656" xlink:href="#DejaVuSans-6f"/>
     <use x="559.029297" xlink:href="#DejaVuSans-75"/>
     <use x="622.408203" xlink:href="#DejaVuSans-64"/>
     <use x="685.884766" xlink:href="#DejaVuSans-20"/>
     <use x="717.671875" xlink:href="#DejaVuSans-4c"/>
     <use x="773.384766" xlink:href="#DejaVuSans-69"/>
     <use x="801.167969" xlink:href="#DejaVuSans-66"/>
     <use x="834.623047" xlink:href="#DejaVuSans-74"/>
     <use x="873.832031" xlink:href="#DejaVuSans-20"/>
     <use x="905.619141" xlink:href="#DejaVuSans-31"/>
    </g>
   </g>
   <g id="text_2">
    <g id="patch_3">
     <path d="M 14.248188 74.805598 
L 21.049473 82.890259 
L 22.561281 81.618438 
L 15.759997 73.533777 
z
" style="fill:#ffffff;"/>
    </g>
    <!-- Grizzly Lift -->
    <g style="fill:#808080;" transform="translate(14.594656 74.540265)rotate(-310.072487)scale(0.02 -0.02)">
     <defs>
      <path d="M 3809 666 
L 3809 1919 
L 2778 1919 
L 2778 2438 
L 4434 2438 
L 4434 434 
Q 4069 175 3628 42 
Q 3188 -91 2688 -91 
Q 1594 -91 976 548 
Q 359 1188 359 2328 
Q 359 3472 976 4111 
Q 1594 4750 2688 4750 
Q 3144 4750 3555 4637 
Q 3966 4525 4313 4306 
L 4313 3634 
Q 3963 3931 3569 4081 
Q 3175 4231 2741 4231 
Q 1884 4231 1454 3753 
Q 1025 3275 1025 2328 
Q 1025 1384 1454 906 
Q 1884 428 2741 428 
Q 3075 428 3337 486 
Q 3600 544 3809 666 
z
" id="DejaVuSans-47" transform="scale(0.015625)"/>
      <path d="M 353 3500 
L 3084 3500 
L 3084 2975 
L 922 459 
L 3084 459 
L 3084 0 
L 275 0 
L 275 525 
L 2438 3041 
L 353 3041 
L 353 3500 
z
" id="DejaVuSans-7a" transform="scale(0.015625)"/>
      <path d="M 2059 -325 
Q 1816 -950 1584 -1140 
Q 1353 -1331 966 -1331 
L 506 -1331 
L 506 -850 
L 844 -850 
Q 1081 -850 1212 -737 
Q 1344 -625 1503 -206 
L 1606 56 
L 191 3500 
L 800 3500 
L 1894 763 
L 2988 3500 
L 3597 3500 
L 2059 -325 
z
" id="DejaVuSans-79" transform="scale(0.015625)"/>
     </defs>
     <use xlink:href="#DejaVuSans-47"/>
     <use x="77.490234" xlink:href="#DejaVuSans-72"/>
     <use x="118.603516" xlink:href="#DejaVuSans-69"/>
     <use x="146.386719" xlink:href="#DejaVuSans-7a"/>
     <use x="198.876953" xlink:href="#DejaVuSans-7a"/>
     <use x="251.367188" xlink:href="#DejaVuSans-6c"/>
     <use x="279.150391" xlink:href="#DejaVuSans-79"/>
     <use x="338.330078" xlink:href="#DejaVuSans-20"/>
     <use x="370.117188" xlink:href="#DejaVuSans-4c"/>
     <use x="425.830078" xlink:href="#DejaVuSans-69"/>
     <use x="453.613281" xlink:href="#DejaVuSans-66"/>
     <use x="487.068359" xlink:href="#DejaVuSans-74"/>
    </g>
   </g>
   <g id="text_3">
    <g id="patch_4">
     <path d="M 55.747903 130.445487 
L 68.675866 136.097234 
L 69.467235 134.287033 
L 56.539273 128.635286 
z
" style="fill:#ffffff;"/>
    </g>
    <!-- Little Bear Lift -->
    <g style="fill:#808080;" transform="translate(55.94085 130.054063)rotate(-336.386383)scale(0.02 -0.02)">
     <defs>
      <path d="M 1259 2228 
L 1259 519 
L 2272 519 
Q 2781 519 3026 730 
Q 3272 941 3272 1375 
Q 3272 1813 3026 2020 
Q 2781 2228 2272 2228 
L 1259 2228 
z
M 1259 4147 
L 1259 2741 
L 2194 2741 
Q 2656 2741 2882 2914 
Q 3109 3088 3109 3444 
Q 3109 3797 2882 3972 
Q 2656 4147 2194 4147 
L 1259 4147 
z
M 628 4666 
L 2241 4666 
Q 2963 4666 3353 4366 
Q 3744 4066 3744 3513 
Q 3744 3084 3544 2831 
Q 3344 2578 2956 2516 
Q 3422 2416 3680 2098 
Q 3938 1781 3938 1306 
Q 3938 681 3513 340 
Q 3088 0 2303 0 
L 628 0 
L 628 4666 
z
" id="DejaVuSans-42" transform="scale(0.015625)"/>
      <path d="M 2194 1759 
Q 1497 1759 1228 1600 
Q 959 1441 959 1056 
Q 959 750 1161 570 
Q 1363 391 1709 391 
Q 2188 391 2477 730 
Q 2766 1069 2766 1631 
L 2766 1759 
L 2194 1759 
z
M 3341 1997 
L 3341 0 
L 2766 0 
L 2766 531 
Q 2569 213 2275 61 
Q 1981 -91 1556 -91 
Q 1019 -91 701 211 
Q 384 513 384 1019 
Q 384 1609 779 1909 
Q 1175 2209 1959 2209 
L 2766 2209 
L 2766 2266 
Q 2766 2663 2505 2880 
Q 2244 3097 1772 3097 
Q 1472 3097 1187 3025 
Q 903 2953 641 2809 
L 641 3341 
Q 956 3463 1253 3523 
Q 1550 3584 1831 3584 
Q 2591 3584 2966 3190 
Q 3341 2797 3341 1997 
z
" id="DejaVuSans-61" transform="scale(0.015625)"/>
     </defs>
     <use xlink:href="#DejaVuSans-4c"/>
     <use x="55.712891" xlink:href="#DejaVuSans-69"/>
     <use x="83.496094" xlink:href="#DejaVuSans-74"/>
     <use x="122.705078" xlink:href="#DejaVuSans-74"/>
     <use x="161.914062" xlink:href="#DejaVuSans-6c"/>
     <use x="189.697266" xlink:href="#DejaVuSans-65"/>
     <use x="251.220703" xlink:href="#DejaVuSans-20"/>
     <use x="283.007812" xlink:href="#DejaVuSans-42"/>
     <use x="351.611328" xlink:href="#DejaVuSans-65"/>
     <use x="413.134766" xlink:href="#DejaVuSans-61"/>
     <use x="474.414062" xlink:href="#DejaVuSans-72"/>
     <use x="515.527344" xlink:href="#DejaVuSans-20"/>
     <use x="547.314453" xlink:href="#DejaVuSans-4c"/>
     <use x="603.027344" xlink:href="#DejaVuSans-69"/>
     <use x="630.810547" xlink:href="#DejaVuSans-66"/>
     <use x="664.265625" xlink:href="#DejaVuSans-74"/>
    </g>
   </g>
   <g id="text_4">
    <g id="patch_5">
     <path d="M 64.695829 105.196378 
L 72.752595 122.871417 
L 74.550269 122.051988 
L 66.493502 104.37695 
z
" style="fill:#ffffff;"/>
    </g>
    <!-- Thundercloud Lift 2 -->
    <g style="fill:#808080;" transform="translate(65.100795 105.033763)rotate(-294.504797)scale(0.02 -0.02)">
     <defs>
      <path d="M 1228 531 
L 3431 531 
L 3431 0 
L 469 0 
L 469 531 
Q 828 903 1448 1529 
Q 2069 2156 2228 2338 
Q 2531 2678 2651 2914 
Q 2772 3150 2772 3378 
Q 2772 3750 2511 3984 
Q 2250 4219 1831 4219 
Q 1534 4219 1204 4116 
Q 875 4013 500 3803 
L 500 4441 
Q 881 4594 1212 4672 
Q 1544 4750 1819 4750 
Q 2544 4750 2975 4387 
Q 3406 4025 3406 3419 
Q 3406 3131 3298 2873 
Q 3191 2616 2906 2266 
Q 2828 2175 2409 1742 
Q 1991 1309 1228 531 
z
" id="DejaVuSans-32" transform="scale(0.015625)"/>
     </defs>
     <use xlink:href="#DejaVuSans-54"/>
     <use x="61.083984" xlink:href="#DejaVuSans-68"/>
     <use x="124.462891" xlink:href="#DejaVuSans-75"/>
     <use x="187.841797" xlink:href="#DejaVuSans-6e"/>
     <use x="251.220703" xlink:href="#DejaVuSans-64"/>
     <use x="314.697266" xlink:href="#DejaVuSans-65"/>
     <use x="376.220703" xlink:href="#DejaVuSans-72"/>
     <use x="415.083984" xlink:href="#DejaVuSans-63"/>
     <use x="470.064453" xlink:href="#DejaVuSans-6c"/>
     <use x="497.847656" xlink:href="#DejaVuSans-6f"/>
     <use x="559.029297" xlink:href="#DejaVuSans-75"/>
     <use x="622.408203" xlink:href="#DejaVuSans-64"/>
     <use x="685.884766" xlink:href="#DejaVuSans-20"/>
     <use x="717.671875" xlink:href="#DejaVuSans-4c"/>
     <use x="773.384766" xlink:href="#DejaVuSans-69"/>
     <use x="801.167969" xlink:href="#DejaVuSans-66"/>
     <use x="834.623047" xlink:href="#DejaVuSans-74"/>
     <use x="873.832031" xlink:href="#DejaVuSans-20"/>
     <use x="905.619141" xlink:href="#DejaVuSans-32"/>
    </g>
   </g>
   <g id="text_5">
    <g id="patch_6">
     <path d="M 30.463486 31.615514 
L 31.367832 52.698627 
L 33.341642 52.613962 
L 32.437296 31.530848 
z
" style="fill:#ffffff;"/>
    </g>
    <!-- Lower Thunder 17.9° -->
    <g style="fill:#4169e1;" transform="translate(30.89988 31.616813)rotate(-272.456161)scale(0.02 -0.02)">
     <defs>
      <path d="M 269 3500 
L 844 3500 
L 1563 769 
L 2278 3500 
L 2956 3500 
L 3675 769 
L 4391 3500 
L 4966 3500 
L 4050 0 
L 3372 0 
L 2619 2869 
L 1863 0 
L 1184 0 
L 269 3500 
z
" id="DejaVuSans-77" transform="scale(0.015625)"/>
      <path d="M 525 4666 
L 3525 4666 
L 3525 4397 
L 1831 0 
L 1172 0 
L 2766 4134 
L 525 4134 
L 525 4666 
z
" id="DejaVuSans-37" transform="scale(0.015625)"/>
      <path d="M 684 794 
L 1344 794 
L 1344 0 
L 684 0 
L 684 794 
z
" id="DejaVuSans-2e" transform="scale(0.015625)"/>
      <path d="M 703 97 
L 703 672 
Q 941 559 1184 500 
Q 1428 441 1663 441 
Q 2288 441 2617 861 
Q 2947 1281 2994 2138 
Q 2813 1869 2534 1725 
Q 2256 1581 1919 1581 
Q 1219 1581 811 2004 
Q 403 2428 403 3163 
Q 403 3881 828 4315 
Q 1253 4750 1959 4750 
Q 2769 4750 3195 4129 
Q 3622 3509 3622 2328 
Q 3622 1225 3098 567 
Q 2575 -91 1691 -91 
Q 1453 -91 1209 -44 
Q 966 3 703 97 
z
M 1959 2075 
Q 2384 2075 2632 2365 
Q 2881 2656 2881 3163 
Q 2881 3666 2632 3958 
Q 2384 4250 1959 4250 
Q 1534 4250 1286 3958 
Q 1038 3666 1038 3163 
Q 1038 2656 1286 2365 
Q 1534 2075 1959 2075 
z
" id="DejaVuSans-39" transform="scale(0.015625)"/>
      <path d="M 1600 4347 
Q 1350 4347 1178 4173 
Q 1006 4000 1006 3750 
Q 1006 3503 1178 3333 
Q 1350 3163 1600 3163 
Q 1850 3163 2022 3333 
Q 2194 3503 2194 3750 
Q 2194 3997 2020 4172 
Q 1847 4347 1600 4347 
z
M 1600 4750 
Q 1800 4750 1984 4673 
Q 2169 4597 2303 4453 
Q 2447 4313 2519 4134 
Q 2591 3956 2591 3750 
Q 2591 3338 2302 3052 
Q 2013 2766 1594 2766 
Q 1172 2766 890 3047 
Q 609 3328 609 3750 
Q 609 4169 896 4459 
Q 1184 4750 1600 4750 
z
" id="DejaVuSans-b0" transform="scale(0.015625)"/>
     </defs>
     <use xlink:href="#DejaVuSans-4c"/>
     <use x="53.962891" xlink:href="#DejaVuSans-6f"/>
     <use x="115.144531" xlink:href="#DejaVuSans-77"/>
     <use x="196.931641" xlink:href="#DejaVuSans-65"/>
     <use x="258.455078" xlink:href="#DejaVuSans-72"/>
     <use x="299.568359" xlink:href="#DejaVuSans-20"/>
     <use x="331.355469" xlink:href="#DejaVuSans-54"/>
     <use x="392.439453" xlink:href="#DejaVuSans-68"/>
     <use x="455.818359" xlink:href="#DejaVuSans-75"/>
     <use x="519.197266" xlink:href="#DejaVuSans-6e"/>
     <use x="582.576172" xlink:href="#DejaVuSans-64"/>
     <use x="646.052734" xlink:href="#DejaVuSans-65"/>
     <use x="707.576172" xlink:href="#DejaVuSans-72"/>
     <use x="748.689453" xlink:href="#DejaVuSans-20"/>
     <use x="780.476562" xlink:href="#DejaVuSans-31"/>
     <use x="844.099609" xlink:href="#DejaVuSans-37"/>
     <use x="907.722656" xlink:href="#DejaVuSans-2e"/>
     <use x="939.509766" xlink:href="#DejaVuSans-39"/>
     <use x="1003.132812" xlink:href="#DejaVuSans-b0"/>
    </g>
   </g>
   <g id="text_6">
    <g id="patch_7">
     <path d="M 67.197853 110.482372 
L 75.890841 129.711191 
L 77.691051 128.89735 
L 68.998063 109.668531 
z
" style="fill:#ffffff;"/>
    </g>
    <!-- Lower Thunder 21.2° -->
    <g style="fill:#4169e1;" transform="translate(67.603323 110.321016)rotate(-294.326832)scale(0.02 -0.02)">
     <use xlink:href="#DejaVuSans-4c"/>
     <use x="53.962891" xlink:href="#DejaVuSans-6f"/>
     <use x="115.144531" xlink:href="#DejaVuSans-77"/>
     <use x="196.931641" xlink:href="#DejaVuSans-65"/>
     <use x="258.455078" xlink:href="#DejaVuSans-72"/>
     <use x="299.568359" xlink:href="#DejaVuSans-20"/>
     <use x="331.355469" xlink:href="#DejaVuSans-54"/>
     <use x="392.439453" xlink:href="#DejaVuSans-68"/>
     <use x="455.818359" xlink:href="#DejaVuSans-75"/>
     <use x="519.197266" xlink:href="#DejaVuSans-6e"/>
     <use x="582.576172" xlink:href="#DejaVuSans-64"/>
     <use x="646.052734" xlink:href="#DejaVuSans-65"/>
     <use x="707.576172" xlink:href="#DejaVuSans-72"/>
     <use x="748.689453" xlink:href="#DejaVuSans-20"/>
     <use x="780.476562" xlink:href="#DejaVuSans-32"/>
     <use x="844.099609" xlink:href="#DejaVuSans-31"/>
     <use x="907.722656" xlink:href="#DejaVuSans-2e"/>
     <use x="939.509766" xlink:href="#DejaVuSans-32"/>
     <use x="1003.132812" xlink:href="#DejaVuSans-b0"/>
    </g>
   </g>
   <g id="text_7">
    <g id="patch_8">
     <path d="M 29.729788 74.426309 
L 31.565821 58.955186 
L 29.603963 58.722363 
L 27.76793 74.193486 
z
" style="fill:#ffffff;"/>
    </g>
    <!-- Short Cut 12.4° -->
    <g style="fill:#008000;" transform="translate(29.299246 74.355074)rotate(-83.232088)scale(0.02 -0.02)">
     <defs>
      <path d="M 3425 4513 
L 3425 3897 
Q 3066 4069 2747 4153 
Q 2428 4238 2131 4238 
Q 1616 4238 1336 4038 
Q 1056 3838 1056 3469 
Q 1056 3159 1242 3001 
Q 1428 2844 1947 2747 
L 2328 2669 
Q 3034 2534 3370 2195 
Q 3706 1856 3706 1288 
Q 3706 609 3251 259 
Q 2797 -91 1919 -91 
Q 1588 -91 1214 -16 
Q 841 59 441 206 
L 441 856 
Q 825 641 1194 531 
Q 1563 422 1919 422 
Q 2459 422 2753 634 
Q 3047 847 3047 1241 
Q 3047 1584 2836 1778 
Q 2625 1972 2144 2069 
L 1759 2144 
Q 1053 2284 737 2584 
Q 422 2884 422 3419 
Q 422 4038 858 4394 
Q 1294 4750 2059 4750 
Q 2388 4750 2728 4690 
Q 3069 4631 3425 4513 
z
" id="DejaVuSans-53" transform="scale(0.015625)"/>
      <path d="M 4122 4306 
L 4122 3641 
Q 3803 3938 3442 4084 
Q 3081 4231 2675 4231 
Q 1875 4231 1450 3742 
Q 1025 3253 1025 2328 
Q 1025 1406 1450 917 
Q 1875 428 2675 428 
Q 3081 428 3442 575 
Q 3803 722 4122 1019 
L 4122 359 
Q 3791 134 3420 21 
Q 3050 -91 2638 -91 
Q 1578 -91 968 557 
Q 359 1206 359 2328 
Q 359 3453 968 4101 
Q 1578 4750 2638 4750 
Q 3056 4750 3426 4639 
Q 3797 4528 4122 4306 
z
" id="DejaVuSans-43" transform="scale(0.015625)"/>
      <path d="M 2419 4116 
L 825 1625 
L 2419 1625 
L 2419 4116 
z
M 2253 4666 
L 3047 4666 
L 3047 1625 
L 3713 1625 
L 3713 1100 
L 3047 1100 
L 3047 0 
L 2419 0 
L 2419 1100 
L 313 1100 
L 313 1709 
L 2253 4666 
z
" id="DejaVuSans-34" transform="scale(0.015625)"/>
     </defs>
     <use xlink:href="#DejaVuSans-53"/>
     <use x="63.476562" xlink:href="#DejaVuSans-68"/>
     <use x="126.855469" xlink:href="#DejaVuSans-6f"/>
     <use x="188.037109" xlink:href="#DejaVuSans-72"/>
     <use x="229.150391" xlink:href="#DejaVuSans-74"/>
     <use x="268.359375" xlink:href="#DejaVuSans-20"/>
     <use x="300.146484" xlink:href="#DejaVuSans-43"/>
     <use x="369.970703" xlink:href="#DejaVuSans-75"/>
     <use x="433.349609" xlink:href="#DejaVuSans-74"/>
     <use x="472.558594" xlink:href="#DejaVuSans-20"/>
     <use x="504.345703" xlink:href="#DejaVuSans-31"/>
     <use x="567.96875" xlink:href="#DejaVuSans-32"/>
     <use x="631.591797" xlink:href="#DejaVuSans-2e"/>
     <use x="663.378906" xlink:href="#DejaVuSans-34"/>
     <use x="727.001953" xlink:href="#DejaVuSans-b0"/>
    </g>
   </g>
   <g id="text_8">
    <g id="patch_9">
     <path d="M 3.790732 46.710574 
L 3.965373 60.294764 
L 5.940835 60.269367 
L 5.766194 46.685177 
z
" style="fill:#ffffff;"/>
    </g>
    <!-- Cruisin' 11.0° -->
    <g style="fill:#008000;" transform="translate(4.226891 46.724968)rotate(-270.736567)scale(0.02 -0.02)">
     <defs>
      <path d="M 2834 3397 
L 2834 2853 
Q 2591 2978 2328 3040 
Q 2066 3103 1784 3103 
Q 1356 3103 1142 2972 
Q 928 2841 928 2578 
Q 928 2378 1081 2264 
Q 1234 2150 1697 2047 
L 1894 2003 
Q 2506 1872 2764 1633 
Q 3022 1394 3022 966 
Q 3022 478 2636 193 
Q 2250 -91 1575 -91 
Q 1294 -91 989 -36 
Q 684 19 347 128 
L 347 722 
Q 666 556 975 473 
Q 1284 391 1588 391 
Q 1994 391 2212 530 
Q 2431 669 2431 922 
Q 2431 1156 2273 1281 
Q 2116 1406 1581 1522 
L 1381 1569 
Q 847 1681 609 1914 
Q 372 2147 372 2553 
Q 372 3047 722 3315 
Q 1072 3584 1716 3584 
Q 2034 3584 2315 3537 
Q 2597 3491 2834 3397 
z
" id="DejaVuSans-73" transform="scale(0.015625)"/>
      <path d="M 1147 4666 
L 1147 2931 
L 616 2931 
L 616 4666 
L 1147 4666 
z
" id="DejaVuSans-27" transform="scale(0.015625)"/>
      <path d="M 2034 4250 
Q 1547 4250 1301 3770 
Q 1056 3291 1056 2328 
Q 1056 1369 1301 889 
Q 1547 409 2034 409 
Q 2525 409 2770 889 
Q 3016 1369 3016 2328 
Q 3016 3291 2770 3770 
Q 2525 4250 2034 4250 
z
M 2034 4750 
Q 2819 4750 3233 4129 
Q 3647 3509 3647 2328 
Q 3647 1150 3233 529 
Q 2819 -91 2034 -91 
Q 1250 -91 836 529 
Q 422 1150 422 2328 
Q 422 3509 836 4129 
Q 1250 4750 2034 4750 
z
" id="DejaVuSans-30" transform="scale(0.015625)"/>
     </defs>
     <use xlink:href="#DejaVuSans-43"/>
     <use x="69.824219" xlink:href="#DejaVuSans-72"/>
     <use x="110.9375" xlink:href="#DejaVuSans-75"/>
     <use x="174.316406" xlink:href="#DejaVuSans-69"/>
     <use x="202.099609" xlink:href="#DejaVuSans-73"/>
     <use x="254.199219" xlink:href="#DejaVuSans-69"/>
     <use x="281.982422" xlink:href="#DejaVuSans-6e"/>
     <use x="345.361328" xlink:href="#DejaVuSans-27"/>
     <use x="372.851562" xlink:href="#DejaVuSans-20"/>
     <use x="404.638672" xlink:href="#DejaVuSans-31"/>
     <use x="468.261719" xlink:href="#DejaVuSans-31"/>
     <use x="531.884766" xlink:href="#DejaVuSans-2e"/>
     <use x="563.671875" xlink:href="#DejaVuSans-30"/>
     <use x="627.294922" xlink:href="#DejaVuSans-b0"/>
    </g>
   </g>
   <g id="text_9">
    <g id="patch_10">
     <path d="M 15.457251 62.932775 
L 22.546962 78.149055 
L 24.337746 77.314677 
L 17.248035 62.098397 
z
" style="fill:#ffffff;"/>
    </g>
    <!-- Devil's Dip 21.8° -->
    <g style="fill:#4169e1;" transform="translate(15.860849 62.766792)rotate(-294.982191)scale(0.02 -0.02)">
     <defs>
      <path d="M 1259 4147 
L 1259 519 
L 2022 519 
Q 2988 519 3436 956 
Q 3884 1394 3884 2338 
Q 3884 3275 3436 3711 
Q 2988 4147 2022 4147 
L 1259 4147 
z
M 628 4666 
L 1925 4666 
Q 3281 4666 3915 4102 
Q 4550 3538 4550 2338 
Q 4550 1131 3912 565 
Q 3275 0 1925 0 
L 628 0 
L 628 4666 
z
" id="DejaVuSans-44" transform="scale(0.015625)"/>
      <path d="M 191 3500 
L 800 3500 
L 1894 563 
L 2988 3500 
L 3597 3500 
L 2284 0 
L 1503 0 
L 191 3500 
z
" id="DejaVuSans-76" transform="scale(0.015625)"/>
      <path d="M 1159 525 
L 1159 -1331 
L 581 -1331 
L 581 3500 
L 1159 3500 
L 1159 2969 
Q 1341 3281 1617 3432 
Q 1894 3584 2278 3584 
Q 2916 3584 3314 3078 
Q 3713 2572 3713 1747 
Q 3713 922 3314 415 
Q 2916 -91 2278 -91 
Q 1894 -91 1617 61 
Q 1341 213 1159 525 
z
M 3116 1747 
Q 3116 2381 2855 2742 
Q 2594 3103 2138 3103 
Q 1681 3103 1420 2742 
Q 1159 2381 1159 1747 
Q 1159 1113 1420 752 
Q 1681 391 2138 391 
Q 2594 391 2855 752 
Q 3116 1113 3116 1747 
z
" id="DejaVuSans-70" transform="scale(0.015625)"/>
      <path d="M 2034 2216 
Q 1584 2216 1326 1975 
Q 1069 1734 1069 1313 
Q 1069 891 1326 650 
Q 1584 409 2034 409 
Q 2484 409 2743 651 
Q 3003 894 3003 1313 
Q 3003 1734 2745 1975 
Q 2488 2216 2034 2216 
z
M 1403 2484 
Q 997 2584 770 2862 
Q 544 3141 544 3541 
Q 544 4100 942 4425 
Q 1341 4750 2034 4750 
Q 2731 4750 3128 4425 
Q 3525 4100 3525 3541 
Q 3525 3141 3298 2862 
Q 3072 2584 2669 2484 
Q 3125 2378 3379 2068 
Q 3634 1759 3634 1313 
Q 3634 634 3220 271 
Q 2806 -91 2034 -91 
Q 1263 -91 848 271 
Q 434 634 434 1313 
Q 434 1759 690 2068 
Q 947 2378 1403 2484 
z
M 1172 3481 
Q 1172 3119 1398 2916 
Q 1625 2713 2034 2713 
Q 2441 2713 2670 2916 
Q 2900 3119 2900 3481 
Q 2900 3844 2670 4047 
Q 2441 4250 2034 4250 
Q 1625 4250 1398 4047 
Q 1172 3844 1172 3481 
z
" id="DejaVuSans-38" transform="scale(0.015625)"/>
     </defs>
     <use xlink:href="#DejaVuSans-44"/>
     <use x="77.001953" xlink:href="#DejaVuSans-65"/>
     <use x="138.525391" xlink:href="#DejaVuSans-76"/>
     <use x="197.705078" xlink:href="#DejaVuSans-69"/>
     <use x="225.488281" xlink:href="#DejaVuSans-6c"/>
     <use x="253.271484" xlink:href="#DejaVuSans-27"/>
     <use x="280.761719" xlink:href="#DejaVuSans-73"/>
     <use x="332.861328" xlink:href="#DejaVuSans-20"/>
     <use x="364.648438" xlink:href="#DejaVuSans-44"/>
     <use x="441.650391" xlink:href="#DejaVuSans-69"/>
     <use x="469.433594" xlink:href="#DejaVuSans-70"/>
     <use x="532.910156" xlink:href="#DejaVuSans-20"/>
     <use x="564.697266" xlink:href="#DejaVuSans-32"/>
     <use x="628.320312" xlink:href="#DejaVuSans-31"/>
     <use x="691.943359" xlink:href="#DejaVuSans-2e"/>
     <use x="723.730469" xlink:href="#DejaVuSans-38"/>
     <use x="787.353516" xlink:href="#DejaVuSans-b0"/>
    </g>
   </g>
   <g id="text_10">
    <g id="patch_11">
     <path d="M 42.44218 93.366004 
L 49.886963 103.894833 
L 51.50007 102.754228 
L 44.055287 92.225399 
z
" style="fill:#ffffff;"/>
    </g>
    <!-- Grizzly 20.0° -->
    <g style="fill:#4169e1;" transform="translate(42.809672 93.130651)rotate(-305.263578)scale(0.02 -0.02)">
     <use xlink:href="#DejaVuSans-47"/>
     <use x="77.490234" xlink:href="#DejaVuSans-72"/>
     <use x="118.603516" xlink:href="#DejaVuSans-69"/>
     <use x="146.386719" xlink:href="#DejaVuSans-7a"/>
     <use x="198.876953" xlink:href="#DejaVuSans-7a"/>
     <use x="251.367188" xlink:href="#DejaVuSans-6c"/>
     <use x="279.150391" xlink:href="#DejaVuSans-79"/>
     <use x="338.330078" xlink:href="#DejaVuSans-20"/>
     <use x="370.117188" xlink:href="#DejaVuSans-32"/>
     <use x="433.740234" xlink:href="#DejaVuSans-30"/>
     <use x="497.363281" xlink:href="#DejaVuSans-2e"/>
     <use x="529.150391" xlink:href="#DejaVuSans-30"/>
     <use x="592.773438" xlink:href="#DejaVuSans-b0"/>
    </g>
   </g>
   <g id="text_11">
    <g id="patch_12">
     <path d="M 35.338317 91.272426 
L 48.622488 110.130474 
L 50.237614 108.99273 
L 36.953444 90.134683 
z
" style="fill:#ffffff;"/>
    </g>
    <!-- Upper Polar Bear 17.8° -->
    <g style="fill:#4169e1;" transform="translate(35.706226 91.037724)rotate(-305.162006)scale(0.02 -0.02)">
     <defs>
      <path d="M 556 4666 
L 1191 4666 
L 1191 1831 
Q 1191 1081 1462 751 
Q 1734 422 2344 422 
Q 2950 422 3222 751 
Q 3494 1081 3494 1831 
L 3494 4666 
L 4128 4666 
L 4128 1753 
Q 4128 841 3676 375 
Q 3225 -91 2344 -91 
Q 1459 -91 1007 375 
Q 556 841 556 1753 
L 556 4666 
z
" id="DejaVuSans-55" transform="scale(0.015625)"/>
      <path d="M 1259 4147 
L 1259 2394 
L 2053 2394 
Q 2494 2394 2734 2622 
Q 2975 2850 2975 3272 
Q 2975 3691 2734 3919 
Q 2494 4147 2053 4147 
L 1259 4147 
z
M 628 4666 
L 2053 4666 
Q 2838 4666 3239 4311 
Q 3641 3956 3641 3272 
Q 3641 2581 3239 2228 
Q 2838 1875 2053 1875 
L 1259 1875 
L 1259 0 
L 628 0 
L 628 4666 
z
" id="DejaVuSans-50" transform="scale(0.015625)"/>
     </defs>
     <use xlink:href="#DejaVuSans-55"/>
     <use x="73.193359" xlink:href="#DejaVuSans-70"/>
     <use x="136.669922" xlink:href="#DejaVuSans-70"/>
     <use x="200.146484" xlink:href="#DejaVuSans-65"/>
     <use x="261.669922" xlink:href="#DejaVuSans-72"/>
     <use x="302.783203" xlink:href="#DejaVuSans-20"/>
     <use x="334.570312" xlink:href="#DejaVuSans-50"/>
     <use x="391.248047" xlink:href="#DejaVuSans-6f"/>
     <use x="452.429688" xlink:href="#DejaVuSans-6c"/>
     <use x="480.212891" xlink:href="#DejaVuSans-61"/>
     <use x="541.492188" xlink:href="#DejaVuSans-72"/>
     <use x="582.605469" xlink:href="#DejaVuSans-20"/>
     <use x="614.392578" xlink:href="#DejaVuSans-42"/>
     <use x="682.996094" xlink:href="#DejaVuSans-65"/>
     <use x="744.519531" xlink:href="#DejaVuSans-61"/>
     <use x="805.798828" xlink:href="#DejaVuSans-72"/>
     <use x="846.912109" xlink:href="#DejaVuSans-20"/>
     <use x="878.699219" xlink:href="#DejaVuSans-31"/>
     <use x="942.322266" xlink:href="#DejaVuSans-37"/>
     <use x="1005.945312" xlink:href="#DejaVuSans-2e"/>
     <use x="1037.732422" xlink:href="#DejaVuSans-38"/>
     <use x="1101.355469" xlink:href="#DejaVuSans-b0"/>
    </g>
   </g>
   <g id="text_12">
    <g id="patch_13">
     <path d="M 4.914562 94.821261 
L 6.847666 70.27915 
L 4.878142 70.124017 
L 2.945038 94.666127 
z
" style="fill:#ffffff;"/>
    </g>
    <!-- Screaming Demon 25.6° -->
    <g transform="translate(4.481541 94.767091)rotate(-85.496292)scale(0.02 -0.02)">
     <defs>
      <path d="M 3328 2828 
Q 3544 3216 3844 3400 
Q 4144 3584 4550 3584 
Q 5097 3584 5394 3201 
Q 5691 2819 5691 2113 
L 5691 0 
L 5113 0 
L 5113 2094 
Q 5113 2597 4934 2840 
Q 4756 3084 4391 3084 
Q 3944 3084 3684 2787 
Q 3425 2491 3425 1978 
L 3425 0 
L 2847 0 
L 2847 2094 
Q 2847 2600 2669 2842 
Q 2491 3084 2119 3084 
Q 1678 3084 1418 2786 
Q 1159 2488 1159 1978 
L 1159 0 
L 581 0 
L 581 3500 
L 1159 3500 
L 1159 2956 
Q 1356 3278 1631 3431 
Q 1906 3584 2284 3584 
Q 2666 3584 2933 3390 
Q 3200 3197 3328 2828 
z
" id="DejaVuSans-6d" transform="scale(0.015625)"/>
      <path d="M 2906 1791 
Q 2906 2416 2648 2759 
Q 2391 3103 1925 3103 
Q 1463 3103 1205 2759 
Q 947 2416 947 1791 
Q 947 1169 1205 825 
Q 1463 481 1925 481 
Q 2391 481 2648 825 
Q 2906 1169 2906 1791 
z
M 3481 434 
Q 3481 -459 3084 -895 
Q 2688 -1331 1869 -1331 
Q 1566 -1331 1297 -1286 
Q 1028 -1241 775 -1147 
L 775 -588 
Q 1028 -725 1275 -790 
Q 1522 -856 1778 -856 
Q 2344 -856 2625 -561 
Q 2906 -266 2906 331 
L 2906 616 
Q 2728 306 2450 153 
Q 2172 0 1784 0 
Q 1141 0 747 490 
Q 353 981 353 1791 
Q 353 2603 747 3093 
Q 1141 3584 1784 3584 
Q 2172 3584 2450 3431 
Q 2728 3278 2906 2969 
L 2906 3500 
L 3481 3500 
L 3481 434 
z
" id="DejaVuSans-67" transform="scale(0.015625)"/>
      <path d="M 691 4666 
L 3169 4666 
L 3169 4134 
L 1269 4134 
L 1269 2991 
Q 1406 3038 1543 3061 
Q 1681 3084 1819 3084 
Q 2600 3084 3056 2656 
Q 3513 2228 3513 1497 
Q 3513 744 3044 326 
Q 2575 -91 1722 -91 
Q 1428 -91 1123 -41 
Q 819 9 494 109 
L 494 744 
Q 775 591 1075 516 
Q 1375 441 1709 441 
Q 2250 441 2565 725 
Q 2881 1009 2881 1497 
Q 2881 1984 2565 2268 
Q 2250 2553 1709 2553 
Q 1456 2553 1204 2497 
Q 953 2441 691 2322 
L 691 4666 
z
" id="DejaVuSans-35" transform="scale(0.015625)"/>
      <path d="M 2113 2584 
Q 1688 2584 1439 2293 
Q 1191 2003 1191 1497 
Q 1191 994 1439 701 
Q 1688 409 2113 409 
Q 2538 409 2786 701 
Q 3034 994 3034 1497 
Q 3034 2003 2786 2293 
Q 2538 2584 2113 2584 
z
M 3366 4563 
L 3366 3988 
Q 3128 4100 2886 4159 
Q 2644 4219 2406 4219 
Q 1781 4219 1451 3797 
Q 1122 3375 1075 2522 
Q 1259 2794 1537 2939 
Q 1816 3084 2150 3084 
Q 2853 3084 3261 2657 
Q 3669 2231 3669 1497 
Q 3669 778 3244 343 
Q 2819 -91 2113 -91 
Q 1303 -91 875 529 
Q 447 1150 447 2328 
Q 447 3434 972 4092 
Q 1497 4750 2381 4750 
Q 2619 4750 2861 4703 
Q 3103 4656 3366 4563 
z
" id="DejaVuSans-36" transform="scale(0.015625)"/>
     </defs>
     <use xlink:href="#DejaVuSans-53"/>
     <use x="63.476562" xlink:href="#DejaVuSans-63"/>
     <use x="118.457031" xlink:href="#DejaVuSans-72"/>
     <use x="157.320312" xlink:href="#DejaVuSans-65"/>
     <use x="218.84375" xlink:href="#DejaVuSans-61"/>
     <use x="280.123047" xlink:href="#DejaVuSans-6d"/>
     <use x="377.535156" xlink:href="#DejaVuSans-69"/>
     <use x="405.318359" xlink:href="#DejaVuSans-6e"/>
     <use x="468.697266" xlink:href="#DejaVuSans-67"/>
     <use x="532.173828" xlink:href="#DejaVuSans-20"/>
     <use x="563.960938" xlink:href="#DejaVuSans-44"/>
     <use x="640.962891" xlink:href="#DejaVuSans-65"/>
     <use x="702.486328" xlink:href="#DejaVuSans-6d"/>
     <use x="799.898438" xlink:href="#DejaVuSans-6f"/>
     <use x="861.080078" xlink:href="#DejaVuSans-6e"/>
     <use x="924.458984" xlink:href="#DejaVuSans-20"/>
     <use x="956.246094" xlink:href="#DejaVuSans-32"/>
     <use x="1019.869141" xlink:href="#DejaVuSans-35"/>
     <use x="1083.492188" xlink:href="#DejaVuSans-2e"/>
     <use x="1115.279297" xlink:href="#DejaVuSans-36"/>
     <use x="1178.902344" xlink:href="#DejaVuSans-b0"/>
    </g>
   </g>
   <g id="text_13">
    <g id="patch_14">
     <path d="M 22.603019 109.835248 
L 25.446491 89.049779 
L 23.489097 88.782006 
L 20.645625 109.567475 
z
" style="fill:#ffffff;"/>
    </g>
    <!-- Lower Jamboree 4.9° -->
    <g style="fill:#008000;" transform="translate(22.173815 109.756347)rotate(-82.210236)scale(0.02 -0.02)">
     <defs>
      <path d="M 628 4666 
L 1259 4666 
L 1259 325 
Q 1259 -519 939 -900 
Q 619 -1281 -91 -1281 
L -331 -1281 
L -331 -750 
L -134 -750 
Q 284 -750 456 -515 
Q 628 -281 628 325 
L 628 4666 
z
" id="DejaVuSans-4a" transform="scale(0.015625)"/>
      <path d="M 3116 1747 
Q 3116 2381 2855 2742 
Q 2594 3103 2138 3103 
Q 1681 3103 1420 2742 
Q 1159 2381 1159 1747 
Q 1159 1113 1420 752 
Q 1681 391 2138 391 
Q 2594 391 2855 752 
Q 3116 1113 3116 1747 
z
M 1159 2969 
Q 1341 3281 1617 3432 
Q 1894 3584 2278 3584 
Q 2916 3584 3314 3078 
Q 3713 2572 3713 1747 
Q 3713 922 3314 415 
Q 2916 -91 2278 -91 
Q 1894 -91 1617 61 
Q 1341 213 1159 525 
L 1159 0 
L 581 0 
L 581 4863 
L 1159 4863 
L 1159 2969 
z
" id="DejaVuSans-62" transform="scale(0.015625)"/>
     </defs>
     <use xlink:href="#DejaVuSans-4c"/>
     <use x="53.962891" xlink:href="#DejaVuSans-6f"/>
     <use x="115.144531" xlink:href="#DejaVuSans-77"/>
     <use x="196.931641" xlink:href="#DejaVuSans-65"/>
     <use x="258.455078" xlink:href="#DejaVuSans-72"/>
     <use x="299.568359" xlink:href="#DejaVuSans-20"/>
     <use x="331.355469" xlink:href="#DejaVuSans-4a"/>
     <use x="360.847656" xlink:href="#DejaVuSans-61"/>
     <use x="422.126953" xlink:href="#DejaVuSans-6d"/>
     <use x="519.539062" xlink:href="#DejaVuSans-62"/>
     <use x="583.015625" xlink:href="#DejaVuSans-6f"/>
     <use x="644.197266" xlink:href="#DejaVuSans-72"/>
     <use x="683.060547" xlink:href="#DejaVuSans-65"/>
     <use x="744.583984" xlink:href="#DejaVuSans-65"/>
     <use x="806.107422" xlink:href="#DejaVuSans-20"/>
     <use x="837.894531" xlink:href="#DejaVuSans-34"/>
     <use x="901.517578" xlink:href="#DejaVuSans-2e"/>
     <use x="933.304688" xlink:href="#DejaVuSans-39"/>
     <use x="996.927734" xlink:href="#DejaVuSans-b0"/>
    </g>
   </g>
   <g id="text_14">
    <g id="patch_15">
     <path d="M 27.534411 111.945448 
L 45.571296 125.085914 
L 46.734619 123.489113 
L 28.697734 110.348647 
z
" style="fill:#ffffff;"/>
    </g>
    <!-- Upper Jamboree 15.2° -->
    <g style="fill:#008000;" transform="translate(27.807273 111.604878)rotate(-323.925426)scale(0.02 -0.02)">
     <use xlink:href="#DejaVuSans-55"/>
     <use x="73.193359" xlink:href="#DejaVuSans-70"/>
     <use x="136.669922" xlink:href="#DejaVuSans-70"/>
     <use x="200.146484" xlink:href="#DejaVuSans-65"/>
     <use x="261.669922" xlink:href="#DejaVuSans-72"/>
     <use x="302.783203" xlink:href="#DejaVuSans-20"/>
     <use x="334.570312" xlink:href="#DejaVuSans-4a"/>
     <use x="364.0625" xlink:href="#DejaVuSans-61"/>
     <use x="425.341797" xlink:href="#DejaVuSans-6d"/>
     <use x="522.753906" xlink:href="#DejaVuSans-62"/>
     <use x="586.230469" xlink:href="#DejaVuSans-6f"/>
     <use x="647.412109" xlink:href="#DejaVuSans-72"/>
     <use x="686.275391" xlink:href="#DejaVuSans-65"/>
     <use x="747.798828" xlink:href="#DejaVuSans-65"/>
     <use x="809.322266" xlink:href="#DejaVuSans-20"/>
     <use x="841.109375" xlink:href="#DejaVuSans-31"/>
     <use x="904.732422" xlink:href="#DejaVuSans-35"/>
     <use x="968.355469" xlink:href="#DejaVuSans-2e"/>
     <use x="1000.142578" xlink:href="#DejaVuSans-32"/>
     <use x="1063.765625" xlink:href="#DejaVuSans-b0"/>
    </g>
   </g>
   <g id="text_15">
    <g id="patch_16">
     <path d="M 16.599444 116.242551 
L 17.43506 136.809958 
L 19.409057 136.729758 
L 18.573441 116.162351 
z
" style="fill:#ffffff;"/>
    </g>
    <!-- Whispering Run 8.2° -->
    <g style="fill:#008000;" transform="translate(17.035834 116.244837)rotate(-272.326543)scale(0.02 -0.02)">
     <defs>
      <path d="M 213 4666 
L 850 4666 
L 1831 722 
L 2809 4666 
L 3519 4666 
L 4500 722 
L 5478 4666 
L 6119 4666 
L 4947 0 
L 4153 0 
L 3169 4050 
L 2175 0 
L 1381 0 
L 213 4666 
z
" id="DejaVuSans-57" transform="scale(0.015625)"/>
      <path d="M 2841 2188 
Q 3044 2119 3236 1894 
Q 3428 1669 3622 1275 
L 4263 0 
L 3584 0 
L 2988 1197 
Q 2756 1666 2539 1819 
Q 2322 1972 1947 1972 
L 1259 1972 
L 1259 0 
L 628 0 
L 628 4666 
L 2053 4666 
Q 2853 4666 3247 4331 
Q 3641 3997 3641 3322 
Q 3641 2881 3436 2590 
Q 3231 2300 2841 2188 
z
M 1259 4147 
L 1259 2491 
L 2053 2491 
Q 2509 2491 2742 2702 
Q 2975 2913 2975 3322 
Q 2975 3731 2742 3939 
Q 2509 4147 2053 4147 
L 1259 4147 
z
" id="DejaVuSans-52" transform="scale(0.015625)"/>
     </defs>
     <use xlink:href="#DejaVuSans-57"/>
     <use x="98.876953" xlink:href="#DejaVuSans-68"/>
     <use x="162.255859" xlink:href="#DejaVuSans-69"/>
     <use x="190.039062" xlink:href="#DejaVuSans-73"/>
     <use x="242.138672" xlink:href="#DejaVuSans-70"/>
     <use x="305.615234" xlink:href="#DejaVuSans-65"/>
     <use x="367.138672" xlink:href="#DejaVuSans-72"/>
     <use x="408.251953" xlink:href="#DejaVuSans-69"/>
     <use x="436.035156" xlink:href="#DejaVuSans-6e"/>
     <use x="499.414062" xlink:href="#DejaVuSans-67"/>
     <use x="562.890625" xlink:href="#DejaVuSans-20"/>
     <use x="594.677734" xlink:href="#DejaVuSans-52"/>
     <use x="659.660156" xlink:href="#DejaVuSans-75"/>
     <use x="723.039062" xlink:href="#DejaVuSans-6e"/>
     <use x="786.417969" xlink:href="#DejaVuSans-20"/>
     <use x="818.205078" xlink:href="#DejaVuSans-38"/>
     <use x="881.828125" xlink:href="#DejaVuSans-2e"/>
     <use x="913.615234" xlink:href="#DejaVuSans-32"/>
     <use x="977.238281" xlink:href="#DejaVuSans-b0"/>
    </g>
   </g>
   <g id="text_16">
    <g id="patch_17">
     <path d="M 64.563046 129.477942 
L 77.942052 137.119491 
L 78.921888 135.403969 
L 65.542883 127.762421 
z
" style="fill:#ffffff;"/>
    </g>
    <!-- Snowbird 12.7° -->
    <g style="fill:#008000;" transform="translate(64.796622 129.109318)rotate(-330.266733)scale(0.02 -0.02)">
     <use xlink:href="#DejaVuSans-53"/>
     <use x="63.476562" xlink:href="#DejaVuSans-6e"/>
     <use x="126.855469" xlink:href="#DejaVuSans-6f"/>
     <use x="188.037109" xlink:href="#DejaVuSans-77"/>
     <use x="269.824219" xlink:href="#DejaVuSans-62"/>
     <use x="333.300781" xlink:href="#DejaVuSans-69"/>
     <use x="361.083984" xlink:href="#DejaVuSans-72"/>
     <use x="400.447266" xlink:href="#DejaVuSans-64"/>
     <use x="463.923828" xlink:href="#DejaVuSans-20"/>
     <use x="495.710938" xlink:href="#DejaVuSans-31"/>
     <use x="559.333984" xlink:href="#DejaVuSans-32"/>
     <use x="622.957031" xlink:href="#DejaVuSans-2e"/>
     <use x="654.744141" xlink:href="#DejaVuSans-37"/>
     <use x="718.367188" xlink:href="#DejaVuSans-b0"/>
    </g>
   </g>
   <g id="text_17">
    <!-- Big Bear -->
    <g transform="translate(30.518231 6.125007)scale(0.06 -0.06)">
     <use xlink:href="#DejaVuSans-42"/>
     <use x="68.603516" xlink:href="#DejaVuSans-69"/>
     <use x="96.386719" xlink:href="#DejaVuSans-67"/>
     <use x="159.863281" xlink:href="#DejaVuSans-20"/>
     <use x="191.650391" xlink:href="#DejaVuSans-42"/>
     <use x="260.253906" xlink:href="#DejaVuSans-65"/>
     <use x="321.777344" xlink:href="#DejaVuSans-61"/>
     <use x="383.056641" xlink:href="#DejaVuSans-72"/>
    </g>
   </g>
   <g id="legend_1">
    <g id="line2d_30">
     <path d="M 1.242684 152.752671 
L 7.242684 152.752671 
" style="fill:none;stroke:#008000;stroke-linecap:square;stroke-width:1.5;"/>
    </g>
    <g id="line2d_31"/>
    <g id="text_18">
     <!-- Easy -->
     <g transform="translate(9.642684 153.802671)scale(0.03 -0.03)">
      <defs>
       <path d="M 628 4666 
L 3578 4666 
L 3578 4134 
L 1259 4134 
L 1259 2753 
L 3481 2753 
L 3481 2222 
L 1259 2222 
L 1259 531 
L 3634 531 
L 3634 0 
L 628 0 
L 628 4666 
z
" id="DejaVuSans-45" transform="scale(0.015625)"/>
      </defs>
      <use xlink:href="#DejaVuSans-45"/>
      <use x="63.183594" xlink:href="#DejaVuSans-61"/>
      <use x="124.462891" xlink:href="#DejaVuSans-73"/>
      <use x="176.5625" xlink:href="#DejaVuSans-79"/>
     </g>
    </g>
    <g id="line2d_32">
     <path d="M 1.242684 157.156108 
L 7.242684 157.156108 
" style="fill:none;stroke:#4169e1;stroke-linecap:square;stroke-width:1.5;"/>
    </g>
    <g id="line2d_33"/>
    <g id="text_19">
     <!-- Intermediate -->
     <g transform="translate(9.642684 158.206108)scale(0.03 -0.03)">
      <defs>
       <path d="M 628 4666 
L 1259 4666 
L 1259 0 
L 628 0 
L 628 4666 
z
" id="DejaVuSans-49" transform="scale(0.015625)"/>
      </defs>
      <use xlink:href="#DejaVuSans-49"/>
      <use x="29.492188" xlink:href="#DejaVuSans-6e"/>
      <use x="92.871094" xlink:href="#DejaVuSans-74"/>
      <use x="132.080078" xlink:href="#DejaVuSans-65"/>
      <use x="193.603516" xlink:href="#DejaVuSans-72"/>
      <use x="232.966797" xlink:href="#DejaVuSans-6d"/>
      <use x="330.378906" xlink:href="#DejaVuSans-65"/>
      <use x="391.902344" xlink:href="#DejaVuSans-64"/>
      <use x="455.378906" xlink:href="#DejaVuSans-69"/>
      <use x="483.162109" xlink:href="#DejaVuSans-61"/>
      <use x="544.441406" xlink:href="#DejaVuSans-74"/>
      <use x="583.650391" xlink:href="#DejaVuSans-65"/>
     </g>
    </g>
    <g id="line2d_34">
     <path d="M 34.998309 152.752671 
L 40.998309 152.752671 
" style="fill:none;stroke:#000000;stroke-linecap:square;stroke-width:1.5;"/>
    </g>
    <g id="line2d_35"/>
    <g id="text_20">
     <!-- Advanced -->
     <g transform="translate(43.398309 153.802671)scale(0.03 -0.03)">
      <defs>
       <path d="M 2188 4044 
L 1331 1722 
L 3047 1722 
L 2188 4044 
z
M 1831 4666 
L 2547 4666 
L 4325 0 
L 3669 0 
L 3244 1197 
L 1141 1197 
L 716 0 
L 50 0 
L 1831 4666 
z
" id="DejaVuSans-41" transform="scale(0.015625)"/>
      </defs>
      <use xlink:href="#DejaVuSans-41"/>
      <use x="66.658203" xlink:href="#DejaVuSans-64"/>
      <use x="130.134766" xlink:href="#DejaVuSans-76"/>
      <use x="189.314453" xlink:href="#DejaVuSans-61"/>
      <use x="250.59375" xlink:href="#DejaVuSans-6e"/>
      <use x="313.972656" xlink:href="#DejaVuSans-63"/>
      <use x="368.953125" xlink:href="#DejaVuSans-65"/>
      <use x="430.476562" xlink:href="#DejaVuSans-64"/>
     </g>
    </g>
    <g id="line2d_36">
     <path d="M 34.998309 157.156108 
L 40.998309 157.156108 
" style="fill:none;stroke:#ff0000;stroke-linecap:square;stroke-width:1.5;"/>
    </g>
    <g id="line2d_37"/>
    <g id="text_21">
     <!-- Expert -->
     <g transform="translate(43.398309 158.206108)scale(0.03 -0.03)">
      <defs>
       <path d="M 3513 3500 
L 2247 1797 
L 3578 0 
L 2900 0 
L 1881 1375 
L 863 0 
L 184 0 
L 1544 1831 
L 300 3500 
L 978 3500 
L 1906 2253 
L 2834 3500 
L 3513 3500 
z
" id="DejaVuSans-78" transform="scale(0.015625)"/>
      </defs>
      <use xlink:href="#DejaVuSans-45"/>
      <use x="63.183594" xlink:href="#DejaVuSans-78"/>
      <use x="122.363281" xlink:href="#DejaVuSans-70"/>
      <use x="185.839844" xlink:href="#DejaVuSans-65"/>
      <use x="247.363281" xlink:href="#DejaVuSans-72"/>
      <use x="288.476562" xlink:href="#DejaVuSans-74"/>
     </g>
    </g>
    <g id="line2d_38">
     <path d="M 64.21784 152.752671 
L 70.21784 152.752671 
" style="fill:none;stroke:#ffd700;stroke-linecap:square;stroke-width:1.5;"/>
    </g>
    <g id="line2d_39"/>
    <g id="text_22">
     <!-- Extreme -->
     <g transform="translate(72.61784 153.802671)scale(0.03 -0.03)">
      <use xlink:href="#DejaVuSans-45"/>
      <use x="63.183594" xlink:href="#DejaVuSans-78"/>
      <use x="122.363281" xlink:href="#DejaVuSans-74"/>
      <use x="161.572266" xlink:href="#DejaVuSans-72"/>
      <use x="200.435547" xlink:href="#DejaVuSans-65"/>
      <use x="261.958984" xlink:href="#DejaVuSans-6d"/>
      <use x="359.371094" xlink:href="#DejaVuSans-65"/>
     </g>
    </g>
    <g id="line2d_40">
     <path d="M 64.21784 157.156108 
L 70.21784 157.156108 
" style="fill:none;stroke:#000000;stroke-dasharray:1.5,2.475;stroke-dashoffset:0;stroke-width:1.5;"/>
    </g>
    <g id="line2d_41"/>
    <g id="text_23">
     <!-- Gladed -->
     <g transform="translate(72.61784 158.206108)scale(0.03 -0.03)">
      <use xlink:href="#DejaVuSans-47"/>
      <use x="77.490234" xlink:href="#DejaVuSans-6c"/>
      <use x="105.273438" xlink:href="#DejaVuSans-61"/>
      <use x="166.552734" xlink:href="#DejaVuSans-64"/>
      <use x="230.029297" xlink:href="#DejaVuSans-65"/>
      <use x="291.552734" xlink:href="#DejaVuSans-64"/>
     </g>
    </g>
   </g>
  </g>
  <g id="text_24">
   <!-- Sources: USGS and OpenStreetMaps -->
   <g transform="translate(19.447456 162.011953)scale(0.026087 -0.026087)">
    <defs>
     <path d="M 750 794 
L 1409 794 
L 1409 0 
L 750 0 
L 750 794 
z
M 750 3309 
L 1409 3309 
L 1409 2516 
L 750 2516 
L 750 3309 
z
" id="DejaVuSans-3a" transform="scale(0.015625)"/>
     <path d="M 2522 4238 
Q 1834 4238 1429 3725 
Q 1025 3213 1025 2328 
Q 1025 1447 1429 934 
Q 1834 422 2522 422 
Q 3209 422 3611 934 
Q 4013 1447 4013 2328 
Q 4013 3213 3611 3725 
Q 3209 4238 2522 4238 
z
M 2522 4750 
Q 3503 4750 4090 4092 
Q 4678 3434 4678 2328 
Q 4678 1225 4090 567 
Q 3503 -91 2522 -91 
Q 1538 -91 948 565 
Q 359 1222 359 2328 
Q 359 3434 948 4092 
Q 1538 4750 2522 4750 
z
" id="DejaVuSans-4f" transform="scale(0.015625)"/>
     <path d="M 628 4666 
L 1569 4666 
L 2759 1491 
L 3956 4666 
L 4897 4666 
L 4897 0 
L 4281 0 
L 4281 4097 
L 3078 897 
L 2444 897 
L 1241 4097 
L 1241 0 
L 628 0 
L 628 4666 
z
" id="DejaVuSans-4d" transform="scale(0.015625)"/>
    </defs>
    <use xlink:href="#DejaVuSans-53"/>
    <use x="63.476562" xlink:href="#DejaVuSans-6f"/>
    <use x="124.658203" xlink:href="#DejaVuSans-75"/>
    <use x="188.037109" xlink:href="#DejaVuSans-72"/>
    <use x="226.900391" xlink:href="#DejaVuSans-63"/>
    <use x="281.880859" xlink:href="#DejaVuSans-65"/>
    <use x="343.404297" xlink:href="#DejaVuSans-73"/>
    <use x="395.503906" xlink:href="#DejaVuSans-3a"/>
    <use x="429.195312" xlink:href="#DejaVuSans-20"/>
    <use x="460.982422" xlink:href="#DejaVuSans-55"/>
    <use x="534.175781" xlink:href="#DejaVuSans-53"/>
    <use x="597.652344" xlink:href="#DejaVuSans-47"/>
    <use x="675.142578" xlink:href="#DejaVuSans-53"/>
    <use x="738.619141" xlink:href="#DejaVuSans-20"/>
    <use x="770.40625" xlink:href="#DejaVuSans-61"/>
    <use x="831.685547" xlink:href="#DejaVuSans-6e"/>
    <use x="895.064453" xlink:href="#DejaVuSans-64"/>
    <use x="958.541016" xlink:href="#DejaVuSans-20"/>
    <use x="990.328125" xlink:href="#DejaVuSans-4f"/>
    <use x="1069.039062" xlink:href="#DejaVuSans-70"/>
    <use x="1132.515625" xlink:href="#DejaVuSans-65"/>
    <use x="1194.039062" xlink:href="#DejaVuSans-6e"/>
    <use x="1257.417969" xlink:href="#DejaVuSans-53"/>
    <use x="1320.894531" xlink:href="#DejaVuSans-74"/>
    <use x="1360.103516" xlink:href="#DejaVuSans-72"/>
    <use x="1398.966797" xlink:href="#DejaVuSans-65"/>
    <use x="1460.490234" xlink:href="#DejaVuSans-65"/>
    <use x="1522.013672" xlink:href="#DejaVuSans-74"/>
    <use x="1561.222656" xlink:href="#DejaVuSans-4d"/>
    <use x="1647.501953" xlink:href="#DejaVuSans-61"/>
    <use x="1708.78125" xlink:href="#DejaVuSans-70"/>
    <use x="1772.257812" xlink:href="#DejaVuSans-73"/>
   </g>
  </g>
 </g>
 <defs>
  <clipPath id="p9af29c1f0d">
   <rect height="144.304466" width="86.487711" x="0" y="9.125007"/>
  </clipPath>
 </defs>
</svg>
