<?xml version="1.0" encoding="utf-8" standalone="no"?>
<!DOCTYPE svg PUBLIC "-//W3C//DTD SVG 1.1//EN"
  "http://www.w3.org/Graphics/SVG/1.1/DTD/svg11.dtd">
<svg height="224.794965pt" version="1.1" viewBox="0 0 190.585521 224.794965" width="190.585521pt" xmlns="http://www.w3.org/2000/svg" xmlns:xlink="http://www.w3.org/1999/xlink">
 <metadata>
  <rdf:RDF xmlns:cc="http://creativecommons.org/ns#" xmlns:dc="http://purl.org/dc/elements/1.1/" xmlns:rdf="http://www.w3.org/1999/02/22-rdf-syntax-ns#">
   <cc:Work>
    <dc:type rdf:resource="http://purl.org/dc/dcmitype/StillImage"/>
    <dc:date>2022-04-14T21:27:49.726744</dc:date>
    <dc:format>image/svg+xml</dc:format>
    <dc:creator>
     <cc:Agent>
      <dc:title>Matplotlib v3.4.3, https://matplotlib.org/</dc:title>
     </cc:Agent>
    </dc:creator>
   </cc:Work>
  </rdf:RDF>
 </metadata>
 <defs>
  <style type="text/css">*{stroke-linecap:butt;stroke-linejoin:round;}</style>
 </defs>
 <g id="figure_1">
  <g id="patch_1">
   <path d="M 0 224.794965 
L 190.585521 224.794965 
L 190.585521 0 
L 0 0 
z
" style="fill:#ffffff;"/>
  </g>
  <g id="axes_1">
   <g id="line2d_1">
    <path clip-path="url(#pafea8818de)" d="M 63.513126 126.622776 
" style="fill:none;stroke:#008000;stroke-linecap:square;stroke-width:1.5;"/>
   </g>
   <g id="line2d_2">
    <path clip-path="url(#pafea8818de)" d="M 63.513126 126.622776 
" style="fill:none;stroke:#4169e1;stroke-linecap:square;stroke-width:1.5;"/>
   </g>
   <g id="line2d_3">
    <path clip-path="url(#pafea8818de)" d="M 63.513126 126.622776 
" style="fill:none;stroke:#000000;stroke-linecap:square;stroke-width:1.5;"/>
   </g>
   <g id="line2d_4">
    <path clip-path="url(#pafea8818de)" d="M 63.513126 126.622776 
" style="fill:none;stroke:#ff0000;stroke-linecap:square;stroke-width:1.5;"/>
   </g>
   <g id="line2d_5">
    <path clip-path="url(#pafea8818de)" d="M 63.513126 126.622776 
" style="fill:none;stroke:#ffd700;stroke-linecap:square;stroke-width:1.5;"/>
   </g>
   <g id="line2d_6">
    <path clip-path="url(#pafea8818de)" d="M 63.513126 126.622776 
" style="fill:none;stroke:#000000;stroke-dasharray:1.5,2.475;stroke-dashoffset:0;stroke-width:1.5;"/>
   </g>
   <g id="line2d_7">
    <path clip-path="url(#pafea8818de)" d="M 54.124217 116.615947 
L 53.574348 121.24903 
L 53.024478 125.882114 
L 52.474608 130.515197 
L 51.924738 135.14828 
L 51.374869 139.781363 
L 50.824999 144.414446 
L 50.275129 149.047529 
L 49.725259 153.680612 
L 49.175389 158.313695 
L 48.62552 162.946778 
L 48.07565 167.579861 
L 47.52578 172.212944 
L 46.97591 176.846028 
L 46.426041 181.479111 
L 45.876171 186.112194 
L 45.326301 190.745277 
" style="fill:none;stroke:#808080;stroke-linecap:square;stroke-width:1.5;"/>
   </g>
   <g id="line2d_8">
    <path clip-path="url(#pafea8818de)" d="M 53.94954 192.78757 
L 54.904443 187.416115 
L 55.997632 181.27142 
L 57.090821 175.126724 
L 57.766968 171.325677 
L 58.443115 167.52463 
L 59.119262 163.723583 
L 59.795409 159.922535 
L 60.37985 156.637661 
L 60.964292 153.352786 
L 61.548733 150.067912 
L 62.133175 146.783037 
L 63.11719 141.24767 
L 64.101206 135.712303 
L 64.823934 131.650115 
L 65.546661 127.587927 
L 66.269389 123.525739 
L 66.992116 119.463551 
L 67.623866 115.910664 
L 68.255616 112.357777 
L 68.887366 108.804889 
L 69.519116 105.252002 
L 70.201813 101.414304 
L 70.88451 97.576605 
L 71.567208 93.738907 
L 72.249905 89.901208 
L 73.347461 83.732078 
L 74.445017 77.562949 
L 75.461057 71.849415 
L 76.477097 66.135882 
L 77.359218 61.170646 
L 77.98187 57.671463 
L 78.604522 54.17228 
L 79.227174 50.673097 
L 79.849826 47.173914 
L 80.516511 43.425299 
L 81.183197 39.676683 
L 81.469959 38.061989 
" style="fill:none;stroke:#808080;stroke-linecap:square;stroke-width:1.5;"/>
   </g>
   <g id="line2d_9">
    <path clip-path="url(#pafea8818de)" d="M 59.88857 192.412912 
L 63.679069 188.953435 
L 66.978288 185.943445 
L 70.277507 182.933455 
L 72.951526 180.493088 
L 75.625545 178.052721 
L 78.883278 175.079383 
L 82.141011 172.106045 
L 85.200048 169.314436 
L 88.259085 166.522827 
L 91.774467 163.314819 
" style="fill:none;stroke:#808080;stroke-linecap:square;stroke-width:1.5;"/>
   </g>
   <g id="line2d_10">
    <path clip-path="url(#pafea8818de)" d="M 63.513126 126.622776 
L 63.401769 127.824634 
L 63.290412 129.026491 
L 63.195795 130.856003 
L 63.101178 132.685515 
L 62.629549 134.058921 
L 62.181211 135.365642 
L 61.732872 136.672364 
L 61.065459 138.419919 
L 60.398046 140.167474 
L 60.342368 141.259887 
L 60.286689 142.3523 
L 60.231011 143.444713 
L 60.175332 144.537126 
L 59.841626 145.738475 
L 59.507919 146.939824 
L 59.174213 148.141172 
L 58.840506 149.342521 
L 58.403813 150.366722 
L 57.967119 151.390923 
L 57.530426 152.415124 
L 57.093733 153.439324 
L 56.815704 154.586205 
L 56.537676 155.733086 
L 56.259648 156.879967 
L 55.98162 158.026848 
L 55.528187 159.241941 
L 55.074753 160.457034 
L 54.62132 161.672127 
L 54.167887 162.88722 
L 54.167887 164.198014 
L 54.167887 165.508807 
L 54.167887 166.819601 
L 54.167887 168.130395 
L 54.112208 169.168085 
L 54.05653 170.205776 
L 54.000852 171.243466 
L 53.945173 172.281157 
L 53.898229 174.06969 
L 53.851284 175.858224 
L 53.80434 177.646757 
L 53.757395 179.435291 
L 53.35964 180.923741 
L 52.961885 182.412192 
L 52.56413 183.900643 
L 52.166375 185.389094 
L 51.943662 186.918268 
L 51.720948 188.447443 
L 51.498234 189.976617 
L 51.275521 191.505792 
" style="fill:none;stroke:#4169e1;stroke-linecap:square;stroke-width:1.5;"/>
   </g>
   <g id="line2d_11">
    <path clip-path="url(#pafea8818de)" d="M 73.335816 74.138086 
L 71.98425 75.372523 
L 70.632684 76.60696 
L 69.870654 77.338968 
L 69.108624 78.070977 
L 68.201757 79.081433 
L 67.294891 80.09189 
L 66.755574 81.047369 
L 66.216258 82.002849 
L 66.310875 83.231686 
L 66.405492 84.460523 
L 66.524855 85.430002 
L 66.644217 86.39948 
L 66.76358 87.368958 
L 66.882943 88.338436 
L 67.105657 89.758166 
L 67.32837 91.177896 
L 67.097651 92.174608 
L 66.866931 93.17132 
L 66.636211 94.168032 
L 66.405492 95.164745 
L 66.182778 96.202435 
L 65.960064 97.240126 
L 65.737351 98.277816 
L 65.514637 99.315507 
L 65.181294 101.063571 
L 64.847952 102.811635 
L 64.085922 104.531702 
L 63.323892 106.251769 
L 62.536752 107.084568 
L 61.749612 107.917368 
L 60.962472 108.750167 
L 60.175332 109.582966 
L 59.340884 110.620657 
L 58.506436 111.658347 
L 57.671987 112.696038 
L 56.837539 113.733728 
L 55.725427 114.717205 
L 54.613314 115.700683 
" style="fill:none;stroke:#4169e1;stroke-linecap:square;stroke-width:1.5;"/>
   </g>
   <g id="line2d_12">
    <path clip-path="url(#pafea8818de)" d="M 76.076795 129.687233 
L 76.405771 131.211317 
L 76.583723 132.180541 
L 76.761676 133.149765 
L 76.939628 134.118989 
L 77.117581 135.088212 
L 77.217656 136.194115 
L 77.317732 137.300018 
L 77.417808 138.40592 
L 77.517883 139.511823 
L 77.540446 141.341844 
L 77.563008 143.171864 
L 77.117945 144.646316 
L 76.672881 146.120768 
L 76.227818 147.595221 
L 75.782755 149.069673 
L 75.115342 150.380466 
L 74.447929 151.69126 
" style="fill:none;stroke:#4169e1;stroke-linecap:square;stroke-width:1.5;"/>
   </g>
   <g id="line2d_13">
    <path clip-path="url(#pafea8818de)" d="M 83.078446 37.639481 
L 83.301887 39.207343 
L 83.525329 40.775205 
L 83.831014 42.112978 
L 84.1367 43.450751 
L 84.256062 44.635811 
L 84.375425 45.82087 
L 84.273894 46.799766 
L 84.172363 47.778661 
L 84.070832 48.757557 
L 83.9693 49.736453 
L 83.774972 51.030957 
L 83.580643 52.325461 
L 83.574821 53.728901 
L 83.568998 55.132341 
L 83.51332 56.934619 
L 83.457641 58.736897 
L 83.401963 60.539174 
L 83.346285 62.341452 
L 83.185436 63.614576 
L 83.024587 64.887701 
L 82.648303 65.886958 
L 82.272019 66.886216 
L 81.521634 67.909907 
L 80.771249 68.933599 
L 79.986657 69.597395 
L 79.202064 70.261191 
L 78.22096 70.935677 
L 77.239855 71.610163 
L 76.263845 72.242144 
L 75.287836 72.874125 
L 74.311826 73.506106 
L 73.335816 74.138086 
L 73.113102 75.284967 
L 72.890389 76.431848 
L 72.667675 77.578729 
L 72.444961 78.72561 
L 72.316865 80.500654 
L 72.188768 82.275697 
L 72.030467 83.245176 
L 71.872165 84.214654 
L 71.713864 85.184132 
L 71.555563 86.153611 
L 71.444206 87.300491 
L 71.332849 88.447372 
L 71.221492 89.594253 
L 71.110135 90.741134 
L 70.776429 92.161118 
L 70.442722 93.581102 
L 70.109016 95.001086 
L 69.775309 96.42107 
L 69.441603 97.841055 
L 69.107896 99.261039 
L 68.774189 100.681023 
L 68.440483 102.101007 
L 68.134616 103.275249 
L 67.828748 104.449491 
L 67.522881 105.623733 
L 67.217014 106.797975 
L 66.911146 107.972217 
L 66.605279 109.146459 
L 66.299412 110.320702 
L 65.993544 111.494944 
L 65.993544 113.024118 
L 65.993544 114.553293 
L 66.104901 116.191912 
L 66.216258 117.830531 
L 65.715516 119.468896 
L 65.214774 121.107261 
L 64.714033 122.745626 
L 64.213291 124.383991 
L 63.863208 125.503383 
L 63.513126 126.622776 
" style="fill:none;stroke:#4169e1;stroke-linecap:square;stroke-width:1.5;"/>
   </g>
   <g id="line2d_14">
    <path clip-path="url(#pafea8818de)" d="M 93.653705 163.1112 
L 93.318906 164.203613 
L 93.318906 165.296026 
L 93.318906 166.388439 
L 93.318906 168.081526 
L 93.318906 169.774614 
L 93.318906 170.479133 
L 93.318906 172.36464 
L 93.318906 174.034311 
L 92.76285 175.836335 
L 92.206794 177.638358 
L 91.827234 178.606564 
L 91.447675 179.574769 
L 91.068116 180.542975 
L 90.688556 181.511181 
L 90.104479 182.384958 
L 89.520401 183.258736 
L 88.936324 184.132513 
L 88.352247 185.006291 
L 87.165168 186.292651 
L 85.97809 187.57901 
L 85.115985 188.124962 
L 84.253879 188.670914 
L 83.391773 189.216866 
L 82.529668 189.762818 
L 81.584227 190.254556 
L 80.638785 190.746295 
L 79.081246 190.800763 
L 77.523706 190.855231 
L 75.985817 190.661284 
L 74.447929 190.467338 
L 73.001018 190.14053 
L 72.000262 189.594324 
L 70.999506 189.048117 
L 69.756386 189.023174 
L 68.513265 188.998231 
L 67.289068 188.998231 
L 65.954242 189.762818 
L 64.619416 190.527405 
L 63.359555 191.480848 
L 62.099695 192.434292 
L 61.023245 193.173936 
L 59.946796 193.91358 
" style="fill:none;stroke:#008000;stroke-linecap:square;stroke-width:1.5;"/>
   </g>
   <g id="line2d_15">
    <path clip-path="url(#pafea8818de)" d="M 73.335816 154.749609 
L 72.557046 155.950958 
L 71.778276 157.152307 
L 71.094123 157.944382 
L 70.40997 158.736458 
L 69.519843 159.61049 
L 68.629717 160.484522 
L 66.882943 160.866307 
L 66.19879 161.986208 
L 65.514637 163.10611 
L 64.307908 164.061589 
L 63.101178 165.017069 
L 62.25836 165.631487 
L 61.415542 166.245906 
L 60.572723 166.860325 
L 59.729905 167.474743 
L 58.283722 168.676347 
L 56.837539 169.87795 
L 55.391356 171.079553 
L 53.945173 172.281157 
" style="fill:none;stroke:#008000;stroke-linecap:square;stroke-width:1.5;"/>
   </g>
   <g id="line2d_16">
    <path clip-path="url(#pafea8818de)" d="M 92.429507 166.606311 
L 90.688556 167.092959 
L 89.334079 168.160428 
L 87.979602 169.227898 
L 86.811447 170.047462 
L 85.643292 170.867027 
L 84.308466 172.068375 
L 82.973639 173.269724 
L 81.583499 174.252692 
L 80.193358 175.23566 
L 78.988812 176.625865 
L 77.784266 178.01607 
L 76.922161 178.753169 
L 76.060055 179.490268 
L 75.197949 180.227366 
L 74.335844 180.964465 
L 73.817634 182.361288 
L 73.299425 183.75811 
" style="fill:none;stroke:#008000;stroke-linecap:square;stroke-width:1.5;"/>
   </g>
   <g id="line2d_17">
    <path clip-path="url(#pafea8818de)" d="M 78.407282 39.905754 
L 78.185296 41.544374 
L 77.96331 43.182993 
L 77.684918 44.165961 
L 77.406526 45.148929 
L 77.128134 46.131897 
L 76.849742 47.114865 
L 76.093535 47.846873 
L 75.337327 48.578882 
L 75.059299 49.725763 
L 74.781271 50.872643 
L 74.503243 52.019524 
L 74.225215 53.166405 
L 73.883138 54.220385 
L 73.541062 55.274365 
L 73.198985 56.328345 
L 72.856909 57.382325 
L 72.467524 58.638651 
L 72.078139 59.894977 
L 71.688754 61.151302 
L 71.299369 62.407628 
L 71.093395 63.466953 
L 70.887422 64.526278 
L 69.647212 65.760715 
L 68.407003 66.995152 
L 67.183534 68.1965 
L 65.960064 69.397849 
L 65.086678 70.676064 
L 64.213291 71.954279 
L 64.324648 73.046183 
L 64.436004 74.138086 
L 64.975321 75.372523 
L 65.514637 76.60696 
L 65.690042 77.955932 
L 65.865447 79.304904 
L 66.040853 80.653877 
L 66.216258 82.002849 
" style="fill:none;stroke:#4169e1;stroke-linecap:square;stroke-width:1.5;"/>
   </g>
   <g id="line2d_18">
    <path clip-path="url(#pafea8818de)" d="M 66.216258 82.002849 
L 65.420748 80.937924 
L 64.625238 79.873 
L 63.418509 80.391718 
L 62.211779 80.910436 
L 61.377331 81.784213 
L 60.542883 82.657991 
L 59.708434 83.531769 
L 58.873986 84.405546 
L 58.078476 85.525448 
L 57.282966 86.645349 
L 56.40958 88.365416 
L 55.536193 90.085483 
L 55.083123 91.082195 
L 54.630054 92.078907 
L 54.176985 93.075619 
L 53.723915 94.072332 
L 53.167495 95.219467 
L 52.611075 96.366603 
L 52.054655 97.513738 
L 51.498234 98.660873 
L 51.562283 99.630097 
L 51.626331 100.599321 
L 51.69038 101.568545 
L 51.754428 102.537768 
L 51.198372 103.521245 
L 50.642315 104.504723 
L 50.133204 105.446712 
L 49.624092 106.388702 
L 49.11498 107.330692 
L 48.605868 108.272682 
L 48.383883 110.020237 
L 48.161897 111.767792 
L 48.05054 112.96965 
L 47.939183 114.171508 
L 48.177909 115.563749 
L 48.416635 116.95599 
L 48.185915 117.952702 
L 47.955195 118.949415 
L 47.724476 119.946127 
L 47.493756 120.942839 
L 48.272526 122.144697 
L 49.051296 123.346555 
L 49.290021 124.739305 
L 49.528747 126.132055 
" style="fill:none;stroke:#4169e1;stroke-linecap:square;stroke-width:1.5;"/>
   </g>
   <g id="line2d_19">
    <path clip-path="url(#pafea8818de)" d="M 82.411761 40.124644 
L 82.245089 41.653819 
L 82.078418 43.182993 
L 81.911747 44.712167 
L 81.745075 46.241342 
L 81.533643 47.645037 
L 81.322211 49.048731 
L 81.110778 50.452426 
L 80.899346 51.85612 
L 80.699195 52.901956 
L 80.499044 53.947791 
L 80.298892 54.993626 
L 80.098741 56.039461 
L 79.89859 57.085297 
L 79.698439 58.131132 
L 79.498288 59.176967 
L 79.298137 60.222802 
L 79.075605 61.178536 
L 78.853073 62.13427 
L 78.630542 63.090004 
L 78.40801 64.045738 
L 78.185478 65.001472 
L 77.962947 65.957207 
L 77.740415 66.912941 
L 77.517883 67.868675 
L 77.378869 69.739419 
L 77.239855 71.610163 
" style="fill:none;stroke:#4169e1;stroke-linecap:square;stroke-width:1.5;"/>
   </g>
   <g id="line2d_20">
    <path clip-path="url(#pafea8818de)" d="M 62.629549 134.058921 
L 64.406164 134.49161 
L 66.182778 134.924299 
L 67.645701 135.334082 
L 69.108624 135.743864 
L 70.09264 136.863256 
L 71.076655 137.982648 
L 71.110135 139.894626 
L 71.093395 141.232908 
L 71.076655 142.57119 
L 71.427466 143.52667 
L 71.778276 144.482149 
L 72.445689 145.792943 
L 73.113102 147.103736 
L 73.446809 148.250617 
L 73.780515 149.397498 
L 74.114222 150.544379 
L 74.447929 151.69126 
L 74.837314 153.002054 
L 75.226698 154.312847 
L 75.616083 155.623641 
L 76.005468 156.934435 
L 75.894112 158.354164 
L 75.782755 159.773894 
L 74.981422 161.440002 
L 74.18009 163.10611 
L 73.312526 164.826177 
L 72.444961 166.546243 
L 71.658186 167.379297 
L 70.87141 168.212351 
L 70.084634 169.045405 
L 69.297858 169.878459 
L 68.407731 170.806705 
L 67.517604 171.73495 
L 66.627477 172.663196 
L 65.737351 173.591441 
L 65.125616 174.465473 
L 64.513881 175.339506 
L 63.902147 176.213538 
L 63.290412 177.08757 
L 62.742362 178.329897 
L 62.194312 179.572224 
L 61.646261 180.814551 
L 61.098211 182.056878 
L 60.486476 183.040101 
L 59.874742 184.023323 
L 59.263007 185.006546 
L 58.651272 185.989768 
L 57.633777 186.999716 
L 56.616281 188.009663 
L 56.282211 189.757727 
L 55.94814 191.505792 
" style="fill:none;stroke:#000000;stroke-linecap:square;stroke-width:1.5;"/>
   </g>
   <g id="line2d_21">
    <path clip-path="url(#pafea8818de)" d="M 57.389228 117.671709 
L 56.891398 118.652132 
L 56.393568 119.632555 
L 56.410307 121.025305 
L 56.427047 122.418055 
L 56.410307 123.755828 
L 56.393568 125.093601 
L 56.560239 126.131292 
L 56.72691 127.168982 
L 56.893581 128.206673 
L 57.060253 129.244363 
L 57.076993 131.073875 
L 57.093733 132.903386 
L 57.530426 134.118734 
L 57.967119 135.334082 
L 58.403813 136.549429 
L 58.840506 137.764777 
L 59.619276 138.966126 
L 60.398046 140.167474 
" style="fill:none;stroke:#008000;stroke-linecap:square;stroke-width:1.5;"/>
   </g>
   <g id="line2d_22">
    <path clip-path="url(#pafea8818de)" d="M 54.613314 115.700683 
L 54.057258 117.065944 
L 53.501202 118.431206 
L 52.945145 119.796467 
L 52.389089 121.161729 
L 51.674004 122.404311 
L 50.958918 123.646892 
L 50.243833 124.889474 
L 49.528747 126.132055 
L 49.187035 127.838632 
L 48.845322 129.545209 
L 48.503609 131.251786 
L 48.161897 132.958363 
L 48.05054 134.43307 
L 47.939183 135.907777 
L 47.827826 137.382483 
L 47.71647 138.85719 
L 47.613483 140.26343 
L 47.510496 141.669669 
L 47.407509 143.075909 
L 47.304522 144.482149 
L 47.193165 146.066046 
L 47.081808 147.649943 
L 46.970452 149.23384 
L 46.859095 150.817737 
L 46.525388 152.620015 
L 46.191682 154.422292 
L 45.857975 156.22457 
L 45.524269 158.026848 
L 45.301919 159.829125 
L 45.079569 161.631403 
L 44.857219 163.433681 
L 44.63487 165.235959 
L 44.63487 166.246288 
L 44.63487 167.256617 
L 44.63487 168.266946 
L 44.63487 169.277276 
L 44.63487 170.287605 
L 44.63487 171.297934 
L 44.63487 172.308263 
L 44.63487 173.318593 
L 44.53625 174.409733 
L 44.43763 175.500873 
L 44.33901 176.592014 
L 44.24039 177.683154 
L 44.155963 178.616744 
L 44.108654 180.022984 
L 44.061346 181.429224 
L 44.014037 182.835464 
L 43.966729 184.241704 
L 43.82353 185.20431 
L 43.680331 186.166916 
L 43.537132 187.129522 
L 43.393933 188.092129 
L 43.250734 189.054735 
L 43.107535 190.017341 
L 42.964335 190.979947 
L 42.821136 191.942553 
" style="fill:none;stroke:#4169e1;stroke-linecap:square;stroke-width:1.5;"/>
   </g>
   <g id="line2d_23">
    <path clip-path="url(#pafea8818de)" d="M 93.318906 170.479133 
L 91.761366 171.193834 
L 91.594695 172.286247 
L 91.428024 173.37866 
L 91.038639 174.634986 
L 90.649254 175.891312 
L 89.703813 177.038192 
L 88.758371 178.185073 
L 87.646259 178.895193 
L 86.534146 179.605312 
L 85.532663 180.096541 
L 84.531179 180.587771 
L 82.973639 181.352358 
L 81.638813 181.516271 
L 80.303987 181.680184 
L 79.025203 181.680184 
L 77.746419 181.680184 
L 75.893384 182.056878 
L 74.817662 182.742563 
L 73.741941 183.428248 
L 73.299425 183.75811 
L 71.778276 184.897355 
L 70.868498 185.855889 
L 69.95872 186.814423 
L 69.235993 187.906327 
L 68.513265 188.998231 
" style="fill:none;stroke:#008000;stroke-linecap:square;stroke-width:1.5;"/>
   </g>
   <g id="line2d_24">
    <path clip-path="url(#pafea8818de)" d="M 93.318906 164.203613 
L 91.594695 163.657407 
L 89.870484 163.1112 
L 88.091686 163.33009 
L 86.534146 163.002264 
L 85.015909 162.614371 
L 84.217488 163.190611 
L 83.419067 163.766852 
L 82.103892 164.719786 
L 80.788717 165.67272 
L 79.600911 166.521809 
L 78.413105 167.370898 
L 77.300992 168.955049 
L 76.18888 170.539201 
L 75.493445 171.249066 
L 74.798011 171.95893 
L 74.102577 172.668795 
L 73.407143 173.37866 
L 72.29503 174.907835 
L 71.182918 176.437009 
L 69.756386 177.608833 
L 68.329854 178.780657 
L 67.791629 179.942555 
L 67.253405 181.104453 
L 66.71518 182.26635 
L 66.176955 183.428248 
L 65.78757 184.575129 
L 65.398186 185.72201 
L 64.953486 187.415097 
L 64.508787 189.108185 
L 64.619416 190.527405 
" style="fill:none;stroke:#008000;stroke-linecap:square;stroke-width:1.5;"/>
   </g>
   <g id="line2d_25">
    <path clip-path="url(#pafea8818de)" d="M 55.942318 116.907122 
L 57.389228 117.671709 
L 58.167998 118.436296 
L 58.946768 119.200884 
L 59.89221 119.74709 
L 60.837651 120.293296 
L 61.560378 121.549622 
L 62.283106 122.805948 
L 62.950519 123.843384 
L 63.617932 124.88082 
L 64.285345 126.246082 
L 64.952758 127.611343 
L 65.898199 128.649288 
L 66.843641 129.687233 
L 67.78981 130.123995 
L 68.735979 130.560756 
L 70.626861 130.669692 
L 71.850331 130.396843 
L 73.0738 130.123995 
L 74.575297 129.905614 
L 76.076795 129.687233 
L 77.912363 129.741701 
L 79.747931 129.796169 
L 81.528184 130.506288 
L 83.308438 131.216408 
L 84.253879 131.789848 
L 85.19932 132.363289 
L 86.144761 132.936729 
L 87.090203 133.510169 
L 87.757616 134.493137 
L 88.425029 135.476105 
L 89.481827 136.568518 
L 90.538625 137.660931 
L 92.023382 138.911149 
L 92.61583 139.869682 
L 93.208277 140.828216 
L 93.931005 141.866161 
L 94.653732 142.904106 
L 95.118083 144.512183 
L 95.582434 146.120259 
L 95.674867 147.461087 
L 95.767301 148.801914 
L 95.711258 150.167685 
L 95.655216 151.533456 
L 95.321873 153.389947 
L 94.988531 155.246438 
L 94.765817 156.448296 
L 94.543103 157.650154 
L 94.265075 159.124351 
L 93.987047 160.598549 
L 93.820376 161.854874 
L 93.653705 163.1112 
" style="fill:none;stroke:#4169e1;stroke-linecap:square;stroke-width:1.5;"/>
   </g>
   <g id="line2d_26">
    <path clip-path="url(#pafea8818de)" d="M 82.667954 37.202719 
L 80.467019 35.395606 
L 78.547024 34.439617 
L 76.354823 33.816545 
L 71.332849 34.078194 
L 57.761874 36.836206 
L 50.437069 36.76494 
L 46.431135 37.639481 
L 38.449835 41.189568 
L 34.566903 42.024913 
L 33.426406 42.215805 
L 30.606822 42.445894 
L 28.104569 43.319417 
L 24.916707 44.947347 
L 18.96312 48.791917 
L 16.155181 50.872643 
L 10.332603 57.054499 
L 8.662978 59.130389 
L 8.830377 61.751977 
L 10.315135 63.379906 
L 12.2788 64.26361 
L 13.946968 65.738826 
L 15.115851 67.213023 
L 15.722855 68.574213 
L 15.115851 72.183349 
L 11.806443 80.127014 
L 10.665945 82.718568 
L 9.664462 86.541504 
L 9.108405 89.87372 
L 9.269982 92.986027 
L 9.692119 95.552638 
L 11.444715 100.195138 
L 13.781025 101.068661 
L 16.267266 102.537768 
L 17.785503 105.984011 
L 17.896132 111.773901 
L 16.533649 117.098269 
L 15.782536 120.948948 
L 14.114368 124.552994 
L 13.781025 132.089931 
L 12.484046 136.071689 
L 12.89017 138.316583 
L 13.930956 140.550277 
L 16.377895 142.516213 
L 19.12033 143.121978 
L 24.905062 143.613716 
L 28.075456 143.668693 
L 29.68831 143.668693 
L 33.248817 144.105455 
L 35.362413 146.835978 
L 36.180485 150.05315 
L 36.196497 154.48236 
L 36.030554 157.431264 
L 33.916958 163.984723 
L 33.58216 167.153026 
L 35.473042 170.320311 
L 37.588094 173.050834 
L 40.407678 175.503418 
L 44.24039 177.683154 
L 44.24039 177.683154 
" style="fill:none;stroke:#4169e1;stroke-linecap:square;stroke-width:1.5;"/>
   </g>
   <g id="line2d_27">
    <path clip-path="url(#pafea8818de)" d="M 57.761874 36.836206 
L 57.083179 37.595703 
L 56.404485 38.3552 
L 55.725791 39.114697 
L 55.047096 39.874193 
L 54.63151 40.750771 
L 54.215923 41.627348 
L 53.800336 42.503926 
L 53.38475 43.380503 
L 52.969163 44.25708 
L 52.553577 45.133658 
L 52.13799 46.010235 
L 51.722404 46.886812 
L 51.068819 48.149756 
L 50.415235 49.412699 
L 49.76165 50.675643 
L 49.108066 51.938586 
L 48.128417 53.579751 
L 47.148768 55.220915 
L 45.958779 56.39223 
L 44.768789 57.563545 
L 43.302955 58.699736 
L 41.837121 59.835927 
L 40.692984 60.326139 
L 39.548847 60.81635 
L 38.40471 61.306561 
L 37.260574 61.796773 
L 36.110251 62.33738 
L 34.959927 62.877987 
L 33.809604 63.418594 
L 32.659281 63.959201 
L 30.945987 64.732951 
L 30.050766 65.137642 
L 29.155544 65.542334 
L 28.034698 66.441309 
L 26.913851 67.340285 
L 26.296658 68.475967 
L 25.679465 69.611648 
L 25.190732 70.560001 
L 24.701999 71.508354 
L 24.213267 72.456707 
L 23.724534 73.40506 
L 23.235801 74.353413 
L 22.747068 75.301766 
L 22.258336 76.250119 
L 21.769603 77.198472 
L 21.188983 78.212237 
L 20.608362 79.226002 
L 20.027742 80.239768 
L 19.447122 81.253533 
L 18.866502 82.267298 
L 18.285881 83.281063 
L 17.705261 84.294829 
L 17.124641 85.308594 
L 16.019079 86.789918 
L 14.913517 88.271242 
L 13.807954 89.752567 
L 12.702392 91.233891 
L 11.949824 92.313577 
L 11.197256 93.393264 
L 10.444687 94.472951 
L 9.692119 95.552638 
" style="fill:none;stroke:#008000;stroke-linecap:square;stroke-width:1.5;"/>
   </g>
   <g id="line2d_28">
    <path clip-path="url(#pafea8818de)" d="M 13.599069 139.837612 
L 12.992429 141.511102 
L 12.38579 143.184591 
L 11.77915 144.85808 
L 11.17251 146.531569 
L 10.449782 147.460069 
L 9.727054 148.388569 
L 9.727054 149.589918 
L 9.727054 150.791266 
L 10.561139 151.993124 
L 11.395223 153.194982 
L 11.729294 154.396331 
L 12.063364 155.59768 
L 12.174721 156.962941 
L 12.286078 158.328203 
L 12.897449 159.475084 
L 13.508819 160.621965 
L 13.620176 162.424497 
L 13.731533 164.227029 
L 13.676219 165.646759 
L 13.620904 167.066488 
L 14.232275 168.213369 
L 14.843646 169.36025 
L 14.62166 170.99887 
L 14.399674 172.637489 
L 14.343632 174.166663 
L 14.287589 175.695838 
L 14.329803 176.760762 
L 14.372017 177.825687 
L 15.609315 179.054524 
L 16.846613 180.283361 
L 18.098103 181.266584 
L 19.349594 182.249806 
L 20.601084 183.233029 
L 21.852575 184.216252 
L 22.909373 185.090029 
L 23.966171 185.963807 
L 25.022969 186.837584 
L 26.079767 187.711362 
L 26.844708 188.366759 
L 27.609649 189.022156 
L 28.374591 189.677553 
L 29.139532 190.33295 
L 29.904473 190.988346 
L 30.669415 191.643743 
L 31.434356 192.29914 
L 32.199297 192.954537 
L 32.977703 193.582445 
L 33.756109 194.210354 
L 34.534515 194.838262 
L 35.312921 195.46617 
L 36.759832 196.012886 
" style="fill:none;stroke:#4169e1;stroke-linecap:square;stroke-width:1.5;"/>
   </g>
   <g id="line2d_29">
    <path clip-path="url(#pafea8818de)" d="M 129.922548 32.359655 
L 128.990935 31.800213 
L 128.059322 31.240771 
L 126.773988 30.887493 
L 125.488654 30.534215 
L 124.128354 30.317362 
L 122.768054 30.100508 
L 120.949954 29.809843 
L 119.131853 29.519178 
L 118.100165 29.438494 
L 117.068477 29.35781 
L 116.036789 29.277126 
L 115.005101 29.196442 
L 114.010895 29.230548 
L 113.01669 29.264655 
L 112.022485 29.298761 
L 111.02828 29.332867 
L 109.184706 29.057473 
L 107.341132 28.782079 
L 105.819983 28.852836 
L 104.298834 28.923594 
L 102.936351 29.619969 
L 101.573867 30.316344 
L 99.994493 30.532179 
L 98.415118 30.748015 
L 96.656336 30.925672 
L 94.897553 31.103329 
L 93.13877 31.280986 
L 91.379988 31.458643 
L 90.347935 31.876061 
L 89.315883 32.293479 
L 88.283831 32.710897 
L 87.251779 33.128314 
L 86.194981 33.770222 
L 85.138183 34.412129 
L 84.385615 35.258163 
" style="fill:none;stroke:#4169e1;stroke-linecap:square;stroke-width:1.5;"/>
   </g>
   <g id="line2d_30">
    <path clip-path="url(#pafea8818de)" d="M 129.922548 32.359655 
L 134.427768 36.619353 
L 135.500578 38.098641 
L 136.028977 40.201001 
L 139.365315 43.450751 
L 148.097727 46.891903 
L 150.333597 48.279563 
L 152.380234 49.841316 
L 153.71506 52.680775 
L 155.728217 54.506214 
L 157.774853 55.958014 
L 161.000562 56.558688 
L 163.623633 57.633794 
L 164.566891 58.085827 
L 167.28458 59.070322 
L 171.40551 60.160699 
L 172.567114 60.545537 
L 175.014053 61.910799 
L 176.999552 63.844156 
L 178.073818 66.197985 
L 178.584749 68.322744 
L 178.267419 70.949422 
L 177.072335 72.751445 
L 175.893262 73.929378 
L 176.861266 80.884729 
L 177.695351 85.63642 
L 177.028665 93.937944 
L 177.918064 99.181118 
L 181.033144 106.390229 
L 181.922543 111.851276 
L 179.25289 116.657689 
L 175.471125 128.672195 
L 170.799962 132.822957 
L 165.01523 136.755847 
L 160.344066 140.906609 
L 156.562301 148.333592 
L 154.916331 154.847091 
L 153.476334 161.768337 
L 150.66694 169.934454 
L 149.82121 173.788951 
L 149.549733 178.183037 
L 149.432553 179.196039 
L 147.707614 180.752702 
L 144.112172 180.995517 
L 142.563366 181.134486 
L 139.810742 182.499748 
L 136.832493 185.035307 
L 135.733481 185.909339 
L 132.024498 187.497563 
L 129.89489 188.120635 
L 127.268907 189.791324 
L 123.404171 194.187447 
L 121.718534 194.620136 
L 119.733035 194.187447 
L 119.02268 192.681688 
L 119.558357 188.34207 
L 119.650063 187.033313 
L 118.743196 184.598036 
L 117.286096 182.418301 
L 107.805482 178.061121 
L 104.56085 176.788251 
L 101.934867 176.491986 
L 99.265215 177.447975 
L 97.190921 178.481338 
L 95.400478 180.452365 
L 93.397511 181.653713 
L 91.227145 182.001901 
L 91.227145 182.001901 
" style="fill:none;stroke:#000000;stroke-linecap:square;stroke-width:1.5;"/>
   </g>
   <g id="line2d_31">
    <path clip-path="url(#pafea8818de)" d="M 175.893262 73.929378 
L 175.676371 75.545344 
L 175.45948 77.161311 
L 175.242589 78.777278 
L 175.025698 80.393245 
L 174.358649 81.813229 
L 173.6916 83.233213 
L 173.024551 84.653197 
L 172.357501 86.073181 
L 171.801081 87.547633 
L 171.244661 89.022085 
L 170.688241 90.496537 
L 170.131821 91.970989 
L 170.15966 92.954085 
L 170.187499 93.93718 
L 170.215338 94.920275 
L 170.243178 95.903371 
L 170.271017 96.886466 
L 170.298856 97.869561 
L 170.326695 98.852656 
L 170.354534 99.835752 
L 171.021947 101.364926 
L 171.689361 102.894101 
L 172.245417 103.877323 
L 172.801473 104.860546 
L 173.357529 105.843768 
L 173.913586 106.826991 
L 173.969264 107.809959 
L 174.024942 108.792927 
L 174.080621 109.775895 
L 174.136299 110.758863 
L 173.468886 111.632641 
L 172.801473 112.506418 
L 172.13406 113.380196 
L 171.466647 114.253973 
L 170.021192 115.128006 
L 168.575737 116.002038 
L 167.46326 116.711903 
L 166.350784 117.421767 
L 165.238307 118.131632 
L 164.125831 118.841497 
L 163.069033 118.841497 
L 162.012235 118.841497 
L 160.955437 118.841497 
L 159.898639 118.841497 
L 158.508498 119.00541 
L 157.118357 119.169323 
L 155.728217 119.333235 
L 154.338076 119.497148 
L 153.726341 120.261736 
L 153.114607 121.026323 
L 152.502872 121.79091 
L 151.891137 122.555497 
L 150.667668 123.374807 
L 149.444198 124.194117 
L 148.220729 125.013426 
L 146.99726 125.832736 
L 145.271593 126.746983 
L 143.545926 127.66123 
L 142.059713 127.743695 
L 140.5735 127.826161 
L 138.871123 127.609816 
L 137.168747 127.393471 
L 135.742215 126.872717 
L 134.315683 126.351963 
L 133.295276 125.957961 
L 132.274869 125.56396 
L 131.112537 125.316054 
L 129.950205 125.068149 
L 128.720913 125.046769 
L 127.491621 125.025389 
L 126.412988 125.401574 
L 125.334356 125.777759 
L 124.230249 127.022886 
L 123.126143 128.268013 
L 122.180701 129.483106 
L 121.23526 130.698199 
L 120.086756 132.156616 
L 118.938253 133.615033 
L 118.215161 134.741552 
L 117.49207 135.868071 
L 116.768978 136.99459 
L 116.045887 138.121109 
L 115.413045 139.486371 
L 114.780204 140.851632 
L 114.147362 142.216894 
L 113.514521 143.582156 
L 112.86967 145.332256 
L 112.224819 147.082357 
L 111.483896 147.968606 
L 110.742973 148.854855 
L 110.00205 149.741104 
L 109.261127 150.627354 
L 108.694517 151.432919 
L 108.127907 152.238485 
L 107.561298 153.04405 
L 106.994688 153.849615 
L 106.428078 154.655181 
L 105.861469 155.460746 
L 105.294859 156.266312 
L 104.728249 157.071877 
L 103.963672 158.075462 
L 103.199095 159.079046 
L 102.434517 160.08263 
L 101.66994 161.086215 
L 100.95449 162.276365 
L 100.239041 163.466514 
L 99.522136 164.789016 
L 98.805231 166.111518 
L 98.339425 166.964679 
L 97.873618 167.81784 
L 97.407812 168.671002 
L 96.942006 169.524163 
L 96.036231 170.234282 
L 95.130456 170.944402 
L 94.224681 171.654521 
L 93.318906 172.36464 
" style="fill:none;stroke:#4169e1;stroke-linecap:square;stroke-width:1.5;"/>
   </g>
   <g id="line2d_32">
    <path clip-path="url(#pafea8818de)" d="M 164.566891 58.085827 
L 164.082161 59.777387 
L 163.597432 61.468947 
L 163.494081 62.604629 
L 163.39073 63.740311 
L 162.382696 64.443558 
L 161.374662 65.146805 
L 160.366628 65.850052 
L 159.358594 66.5533 
L 158.448089 68.020879 
L 157.537583 69.488459 
L 156.827956 70.214614 
L 156.118329 70.940768 
L 155.408703 71.666922 
L 154.699076 72.393076 
L 153.656106 73.444257 
L 152.613137 74.495437 
L 151.71646 75.36896 
L 150.819783 76.242483 
L 149.923106 77.116006 
L 149.026428 77.989529 
L 148.325536 78.961807 
L 147.624643 79.934085 
L 147.894665 80.928252 
L 148.164687 81.922419 
L 149.429642 83.178745 
L 150.694597 84.435071 
L 151.557067 85.336083 
L 152.419536 86.237094 
L 152.835851 87.266385 
L 152.363494 88.526784 
L 151.891137 89.787182 
L 150.744817 90.936099 
L 149.598497 92.085016 
L 148.709098 93.081728 
L 147.819699 94.07844 
L 147.116623 95.441666 
L 146.413546 96.804891 
L 146.594046 98.648147 
L 146.774546 100.491403 
L 146.496518 102.307171 
L 146.21849 104.122938 
L 146.115139 105.927506 
L 146.011788 107.732075 
L 145.353109 109.145187 
L 144.69443 110.558299 
L 143.483333 111.618642 
L 142.272237 112.678985 
L 141.061141 113.739328 
L 139.850044 114.799671 
L 138.637492 115.613381 
L 137.42494 116.427091 
L 136.212388 117.240801 
L 134.999836 118.054512 
L 133.967056 118.906655 
L 132.934276 119.758798 
L 131.901497 120.610941 
L 130.868717 121.463084 
L 130.024443 122.353661 
L 129.180169 123.244237 
L 128.335895 124.134813 
L 127.491621 125.025389 
" style="fill:none;stroke:#4169e1;stroke-linecap:square;stroke-width:1.5;"/>
   </g>
   <g id="line2d_33">
    <path clip-path="url(#pafea8818de)" d="M 157.537583 69.488459 
L 158.127847 70.794672 
L 158.718111 72.100884 
L 159.308375 73.407096 
L 159.898639 74.713309 
L 159.509618 76.351673 
L 159.120597 77.990038 
L 158.731575 79.628403 
L 158.342554 81.266768 
L 157.73082 82.140546 
L 157.119085 83.014323 
L 156.50735 83.888101 
L 155.895616 84.761879 
L 155.130674 85.388005 
L 154.365733 86.014132 
L 153.600792 86.640259 
L 152.835851 87.266385 
" style="fill:none;stroke:#000000;stroke-linecap:square;stroke-width:1.5;"/>
   </g>
   <g id="line2d_34">
    <path clip-path="url(#pafea8818de)" d="M 143.545926 127.66123 
L 143.711506 128.622054 
L 143.877085 129.582879 
L 144.042665 130.543703 
L 144.208245 131.504528 
L 144.322877 132.836447 
L 144.437509 134.168366 
L 144.552141 135.500285 
L 144.666773 136.832204 
L 145.054338 138.09642 
L 145.441903 139.360636 
L 145.829469 140.624852 
L 146.217034 141.889068 
L 146.85679 143.336541 
L 147.496546 144.784013 
L 148.136302 146.231486 
L 148.776058 147.678959 
L 149.099938 148.970409 
L 149.423819 150.261859 
L 149.7477 151.553308 
L 150.071581 152.844758 
L 150.883831 154.398876 
L 151.696081 155.952994 
L 152.267785 156.792665 
L 152.83949 157.632337 
L 153.411194 158.472009 
L 153.982899 159.31168 
" style="fill:none;stroke:#008000;stroke-linecap:square;stroke-width:1.5;"/>
   </g>
   <g id="line2d_35">
    <path clip-path="url(#pafea8818de)" d="M 60.939546 36.155103 
L 59.828889 35.187915 
L 58.718232 34.220727 
L 57.328091 33.593074 
L 55.937951 32.96542 
L 54.811282 32.760274 
L 53.684613 32.555129 
L 52.502629 32.432448 
L 51.320646 32.309768 
L 50.069519 32.487425 
L 48.818393 32.665082 
L 47.650238 33.128823 
L 46.482083 33.592564 
L 45.439113 33.865922 
L 44.396144 34.13928 
L 42.615891 34.548553 
L 41.517607 35.040292 
L 40.419323 35.53203 
L 39.223511 36.160193 
L 38.027698 36.788356 
L 36.775844 37.402775 
L 35.52399 38.017193 
L 33.938793 39.136077 
L 33.1058 39.963531 
L 32.272807 40.790985 
L 31.439815 41.61844 
L 30.606822 42.445894 
L 30.006368 43.876823 
L 29.405915 45.307751 
L 28.905173 46.673013 
L 28.404431 48.038275 
L 27.917882 49.130688 
L 27.431333 50.223101 
L 26.944784 51.315514 
L 26.458235 52.407926 
L 25.873793 54.101014 
L 25.289352 55.794101 
L 24.621939 56.5312 
L 23.954526 57.268299 
L 23.175756 58.060374 
L 22.396986 58.85245 
L 21.312531 59.698994 
L 20.228075 60.545537 
L 19.588319 61.528505 
L 18.948564 62.511473 
L 18.142136 64.027158 
L 17.335709 65.542843 
L 16.529282 67.058528 
L 15.722855 68.574213 
" style="fill:none;stroke:#4169e1;stroke-linecap:square;stroke-width:1.5;"/>
   </g>
   <g id="line2d_36">
    <path clip-path="url(#pafea8818de)" d="M 30.945987 64.732951 
L 31.066078 65.807038 
L 31.186168 66.881125 
L 31.547896 68.000518 
L 31.909624 69.11991 
L 31.797539 71.031887 
L 30.796056 72.123282 
L 29.627901 73.051782 
L 28.459746 73.980282 
L 27.570347 74.963759 
L 26.680948 75.947236 
L 25.902178 77.257521 
L 25.123408 78.567806 
L 23.954526 80.09698 
L 23.092784 81.407774 
L 22.231042 82.718568 
L 21.757958 83.5926 
L 21.284873 84.466632 
L 20.811789 85.340664 
L 20.338704 86.214696 
L 19.365606 87.579958 
L 18.392507 88.945219 
L 17.752751 89.737041 
L 17.112996 90.528862 
L 16.47324 91.320683 
L 15.833484 92.112504 
L 14.582357 93.532743 
L 13.331231 94.952982 
L 12.787547 96.007725 
L 12.243864 97.062469 
L 11.84429 98.628803 
L 11.444715 100.195138 
" style="fill:none;stroke:#008000;stroke-linecap:square;stroke-width:1.5;"/>
   </g>
   <g id="line2d_37">
    <path clip-path="url(#pafea8818de)" d="M 55.047096 39.874193 
L 53.461899 40.788949 
L 51.876702 41.703705 
L 51.09866 42.358847 
L 50.320618 43.01399 
L 49.763834 43.969978 
L 49.20705 44.925967 
L 48.484322 46.154804 
L 47.761595 47.383641 
L 46.843811 48.284653 
L 45.926027 49.185665 
L 44.646515 50.332545 
L 43.367003 51.479426 
L 42.254891 52.271502 
L 41.142778 53.063578 
L 39.779567 54.401351 
L 38.416356 55.739124 
L 37.3319 56.722092 
L 36.247445 57.70506 
L 35.441018 58.87943 
L 34.634591 60.053799 
L 34.140763 61.030149 
L 33.646936 62.0065 
L 33.153108 62.98285 
L 32.659281 63.959201 
" style="fill:none;stroke:#008000;stroke-linecap:square;stroke-width:1.5;"/>
   </g>
   <g id="text_1">
    <g id="patch_2">
     <path d="M 50.49675 156.327568 
L 50.922622 151.197088 
L 48.953769 151.033657 
L 48.527896 156.164136 
z
" style="fill:#ffffff;"/>
    </g>
    <!-- T-Bar -->
    <g style="fill:#808080;" transform="translate(50.063961 156.271574)rotate(-85.254854)scale(0.02 -0.02)">
     <defs>
      <path d="M -19 4666 
L 3928 4666 
L 3928 4134 
L 2272 4134 
L 2272 0 
L 1638 0 
L 1638 4134 
L -19 4134 
L -19 4666 
z
" id="DejaVuSans-54" transform="scale(0.015625)"/>
      <path d="M 313 2009 
L 1997 2009 
L 1997 1497 
L 313 1497 
L 313 2009 
z
" id="DejaVuSans-2d" transform="scale(0.015625)"/>
      <path d="M 1259 2228 
L 1259 519 
L 2272 519 
Q 2781 519 3026 730 
Q 3272 941 3272 1375 
Q 3272 1813 3026 2020 
Q 2781 2228 2272 2228 
L 1259 2228 
z
M 1259 4147 
L 1259 2741 
L 2194 2741 
Q 2656 2741 2882 2914 
Q 3109 3088 3109 3444 
Q 3109 3797 2882 3972 
Q 2656 4147 2194 4147 
L 1259 4147 
z
M 628 4666 
L 2241 4666 
Q 2963 4666 3353 4366 
Q 3744 4066 3744 3513 
Q 3744 3084 3544 2831 
Q 3344 2578 2956 2516 
Q 3422 2416 3680 2098 
Q 3938 1781 3938 1306 
Q 3938 681 3513 340 
Q 3088 0 2303 0 
L 628 0 
L 628 4666 
z
" id="DejaVuSans-42" transform="scale(0.015625)"/>
      <path d="M 2194 1759 
Q 1497 1759 1228 1600 
Q 959 1441 959 1056 
Q 959 750 1161 570 
Q 1363 391 1709 391 
Q 2188 391 2477 730 
Q 2766 1069 2766 1631 
L 2766 1759 
L 2194 1759 
z
M 3341 1997 
L 3341 0 
L 2766 0 
L 2766 531 
Q 2569 213 2275 61 
Q 1981 -91 1556 -91 
Q 1019 -91 701 211 
Q 384 513 384 1019 
Q 384 1609 779 1909 
Q 1175 2209 1959 2209 
L 2766 2209 
L 2766 2266 
Q 2766 2663 2505 2880 
Q 2244 3097 1772 3097 
Q 1472 3097 1187 3025 
Q 903 2953 641 2809 
L 641 3341 
Q 956 3463 1253 3523 
Q 1550 3584 1831 3584 
Q 2591 3584 2966 3190 
Q 3341 2797 3341 1997 
z
" id="DejaVuSans-61" transform="scale(0.015625)"/>
      <path d="M 2631 2963 
Q 2534 3019 2420 3045 
Q 2306 3072 2169 3072 
Q 1681 3072 1420 2755 
Q 1159 2438 1159 1844 
L 1159 0 
L 581 0 
L 581 3500 
L 1159 3500 
L 1159 2956 
Q 1341 3275 1631 3429 
Q 1922 3584 2338 3584 
Q 2397 3584 2469 3576 
Q 2541 3569 2628 3553 
L 2631 2963 
z
" id="DejaVuSans-72" transform="scale(0.015625)"/>
     </defs>
     <use xlink:href="#DejaVuSans-54"/>
     <use x="51.958984" xlink:href="#DejaVuSans-2d"/>
     <use x="84.417969" xlink:href="#DejaVuSans-42"/>
     <use x="153.021484" xlink:href="#DejaVuSans-61"/>
     <use x="214.300781" xlink:href="#DejaVuSans-72"/>
    </g>
   </g>
   <g id="text_2">
    <g id="patch_3">
     <path d="M 57.218515 182.100391 
L 58.923634 168.397005 
L 56.963127 168.153058 
L 55.258009 181.856444 
z
" style="fill:#ffffff;"/>
    </g>
    <!-- Summit Triple -->
    <g style="fill:#808080;" transform="translate(56.788383 182.026715)rotate(-82.907116)scale(0.02 -0.02)">
     <defs>
      <path d="M 3425 4513 
L 3425 3897 
Q 3066 4069 2747 4153 
Q 2428 4238 2131 4238 
Q 1616 4238 1336 4038 
Q 1056 3838 1056 3469 
Q 1056 3159 1242 3001 
Q 1428 2844 1947 2747 
L 2328 2669 
Q 3034 2534 3370 2195 
Q 3706 1856 3706 1288 
Q 3706 609 3251 259 
Q 2797 -91 1919 -91 
Q 1588 -91 1214 -16 
Q 841 59 441 206 
L 441 856 
Q 825 641 1194 531 
Q 1563 422 1919 422 
Q 2459 422 2753 634 
Q 3047 847 3047 1241 
Q 3047 1584 2836 1778 
Q 2625 1972 2144 2069 
L 1759 2144 
Q 1053 2284 737 2584 
Q 422 2884 422 3419 
Q 422 4038 858 4394 
Q 1294 4750 2059 4750 
Q 2388 4750 2728 4690 
Q 3069 4631 3425 4513 
z
" id="DejaVuSans-53" transform="scale(0.015625)"/>
      <path d="M 544 1381 
L 544 3500 
L 1119 3500 
L 1119 1403 
Q 1119 906 1312 657 
Q 1506 409 1894 409 
Q 2359 409 2629 706 
Q 2900 1003 2900 1516 
L 2900 3500 
L 3475 3500 
L 3475 0 
L 2900 0 
L 2900 538 
Q 2691 219 2414 64 
Q 2138 -91 1772 -91 
Q 1169 -91 856 284 
Q 544 659 544 1381 
z
M 1991 3584 
L 1991 3584 
z
" id="DejaVuSans-75" transform="scale(0.015625)"/>
      <path d="M 3328 2828 
Q 3544 3216 3844 3400 
Q 4144 3584 4550 3584 
Q 5097 3584 5394 3201 
Q 5691 2819 5691 2113 
L 5691 0 
L 5113 0 
L 5113 2094 
Q 5113 2597 4934 2840 
Q 4756 3084 4391 3084 
Q 3944 3084 3684 2787 
Q 3425 2491 3425 1978 
L 3425 0 
L 2847 0 
L 2847 2094 
Q 2847 2600 2669 2842 
Q 2491 3084 2119 3084 
Q 1678 3084 1418 2786 
Q 1159 2488 1159 1978 
L 1159 0 
L 581 0 
L 581 3500 
L 1159 3500 
L 1159 2956 
Q 1356 3278 1631 3431 
Q 1906 3584 2284 3584 
Q 2666 3584 2933 3390 
Q 3200 3197 3328 2828 
z
" id="DejaVuSans-6d" transform="scale(0.015625)"/>
      <path d="M 603 3500 
L 1178 3500 
L 1178 0 
L 603 0 
L 603 3500 
z
M 603 4863 
L 1178 4863 
L 1178 4134 
L 603 4134 
L 603 4863 
z
" id="DejaVuSans-69" transform="scale(0.015625)"/>
      <path d="M 1172 4494 
L 1172 3500 
L 2356 3500 
L 2356 3053 
L 1172 3053 
L 1172 1153 
Q 1172 725 1289 603 
Q 1406 481 1766 481 
L 2356 481 
L 2356 0 
L 1766 0 
Q 1100 0 847 248 
Q 594 497 594 1153 
L 594 3053 
L 172 3053 
L 172 3500 
L 594 3500 
L 594 4494 
L 1172 4494 
z
" id="DejaVuSans-74" transform="scale(0.015625)"/>
      <path id="DejaVuSans-20" transform="scale(0.015625)"/>
      <path d="M 1159 525 
L 1159 -1331 
L 581 -1331 
L 581 3500 
L 1159 3500 
L 1159 2969 
Q 1341 3281 1617 3432 
Q 1894 3584 2278 3584 
Q 2916 3584 3314 3078 
Q 3713 2572 3713 1747 
Q 3713 922 3314 415 
Q 2916 -91 2278 -91 
Q 1894 -91 1617 61 
Q 1341 213 1159 525 
z
M 3116 1747 
Q 3116 2381 2855 2742 
Q 2594 3103 2138 3103 
Q 1681 3103 1420 2742 
Q 1159 2381 1159 1747 
Q 1159 1113 1420 752 
Q 1681 391 2138 391 
Q 2594 391 2855 752 
Q 3116 1113 3116 1747 
z
" id="DejaVuSans-70" transform="scale(0.015625)"/>
      <path d="M 603 4863 
L 1178 4863 
L 1178 0 
L 603 0 
L 603 4863 
z
" id="DejaVuSans-6c" transform="scale(0.015625)"/>
      <path d="M 3597 1894 
L 3597 1613 
L 953 1613 
Q 991 1019 1311 708 
Q 1631 397 2203 397 
Q 2534 397 2845 478 
Q 3156 559 3463 722 
L 3463 178 
Q 3153 47 2828 -22 
Q 2503 -91 2169 -91 
Q 1331 -91 842 396 
Q 353 884 353 1716 
Q 353 2575 817 3079 
Q 1281 3584 2069 3584 
Q 2775 3584 3186 3129 
Q 3597 2675 3597 1894 
z
M 3022 2063 
Q 3016 2534 2758 2815 
Q 2500 3097 2075 3097 
Q 1594 3097 1305 2825 
Q 1016 2553 972 2059 
L 3022 2063 
z
" id="DejaVuSans-65" transform="scale(0.015625)"/>
     </defs>
     <use xlink:href="#DejaVuSans-53"/>
     <use x="63.476562" xlink:href="#DejaVuSans-75"/>
     <use x="126.855469" xlink:href="#DejaVuSans-6d"/>
     <use x="224.267578" xlink:href="#DejaVuSans-6d"/>
     <use x="321.679688" xlink:href="#DejaVuSans-69"/>
     <use x="349.462891" xlink:href="#DejaVuSans-74"/>
     <use x="388.671875" xlink:href="#DejaVuSans-20"/>
     <use x="420.458984" xlink:href="#DejaVuSans-54"/>
     <use x="466.792969" xlink:href="#DejaVuSans-72"/>
     <use x="507.90625" xlink:href="#DejaVuSans-69"/>
     <use x="535.689453" xlink:href="#DejaVuSans-70"/>
     <use x="599.166016" xlink:href="#DejaVuSans-6c"/>
     <use x="626.949219" xlink:href="#DejaVuSans-65"/>
    </g>
   </g>
   <g id="text_3">
    <g id="patch_4">
     <path d="M 66.634545 189.309066 
L 75.488376 177.759827 
L 73.920469 176.557844 
L 65.066638 188.107084 
z
" style="fill:#ffffff;"/>
    </g>
    <!-- Novice Double -->
    <g style="fill:#808080;" transform="translate(66.300741 189.027967)rotate(-52.525651)scale(0.02 -0.02)">
     <defs>
      <path d="M 628 4666 
L 1478 4666 
L 3547 763 
L 3547 4666 
L 4159 4666 
L 4159 0 
L 3309 0 
L 1241 3903 
L 1241 0 
L 628 0 
L 628 4666 
z
" id="DejaVuSans-4e" transform="scale(0.015625)"/>
      <path d="M 1959 3097 
Q 1497 3097 1228 2736 
Q 959 2375 959 1747 
Q 959 1119 1226 758 
Q 1494 397 1959 397 
Q 2419 397 2687 759 
Q 2956 1122 2956 1747 
Q 2956 2369 2687 2733 
Q 2419 3097 1959 3097 
z
M 1959 3584 
Q 2709 3584 3137 3096 
Q 3566 2609 3566 1747 
Q 3566 888 3137 398 
Q 2709 -91 1959 -91 
Q 1206 -91 779 398 
Q 353 888 353 1747 
Q 353 2609 779 3096 
Q 1206 3584 1959 3584 
z
" id="DejaVuSans-6f" transform="scale(0.015625)"/>
      <path d="M 191 3500 
L 800 3500 
L 1894 563 
L 2988 3500 
L 3597 3500 
L 2284 0 
L 1503 0 
L 191 3500 
z
" id="DejaVuSans-76" transform="scale(0.015625)"/>
      <path d="M 3122 3366 
L 3122 2828 
Q 2878 2963 2633 3030 
Q 2388 3097 2138 3097 
Q 1578 3097 1268 2742 
Q 959 2388 959 1747 
Q 959 1106 1268 751 
Q 1578 397 2138 397 
Q 2388 397 2633 464 
Q 2878 531 3122 666 
L 3122 134 
Q 2881 22 2623 -34 
Q 2366 -91 2075 -91 
Q 1284 -91 818 406 
Q 353 903 353 1747 
Q 353 2603 823 3093 
Q 1294 3584 2113 3584 
Q 2378 3584 2631 3529 
Q 2884 3475 3122 3366 
z
" id="DejaVuSans-63" transform="scale(0.015625)"/>
      <path d="M 1259 4147 
L 1259 519 
L 2022 519 
Q 2988 519 3436 956 
Q 3884 1394 3884 2338 
Q 3884 3275 3436 3711 
Q 2988 4147 2022 4147 
L 1259 4147 
z
M 628 4666 
L 1925 4666 
Q 3281 4666 3915 4102 
Q 4550 3538 4550 2338 
Q 4550 1131 3912 565 
Q 3275 0 1925 0 
L 628 0 
L 628 4666 
z
" id="DejaVuSans-44" transform="scale(0.015625)"/>
      <path d="M 3116 1747 
Q 3116 2381 2855 2742 
Q 2594 3103 2138 3103 
Q 1681 3103 1420 2742 
Q 1159 2381 1159 1747 
Q 1159 1113 1420 752 
Q 1681 391 2138 391 
Q 2594 391 2855 752 
Q 3116 1113 3116 1747 
z
M 1159 2969 
Q 1341 3281 1617 3432 
Q 1894 3584 2278 3584 
Q 2916 3584 3314 3078 
Q 3713 2572 3713 1747 
Q 3713 922 3314 415 
Q 2916 -91 2278 -91 
Q 1894 -91 1617 61 
Q 1341 213 1159 525 
L 1159 0 
L 581 0 
L 581 4863 
L 1159 4863 
L 1159 2969 
z
" id="DejaVuSans-62" transform="scale(0.015625)"/>
     </defs>
     <use xlink:href="#DejaVuSans-4e"/>
     <use x="74.804688" xlink:href="#DejaVuSans-6f"/>
     <use x="135.986328" xlink:href="#DejaVuSans-76"/>
     <use x="195.166016" xlink:href="#DejaVuSans-69"/>
     <use x="222.949219" xlink:href="#DejaVuSans-63"/>
     <use x="277.929688" xlink:href="#DejaVuSans-65"/>
     <use x="339.453125" xlink:href="#DejaVuSans-20"/>
     <use x="371.240234" xlink:href="#DejaVuSans-44"/>
     <use x="448.242188" xlink:href="#DejaVuSans-6f"/>
     <use x="509.423828" xlink:href="#DejaVuSans-75"/>
     <use x="572.802734" xlink:href="#DejaVuSans-62"/>
     <use x="636.279297" xlink:href="#DejaVuSans-6c"/>
     <use x="664.0625" xlink:href="#DejaVuSans-65"/>
    </g>
   </g>
   <g id="text_4">
    <g id="patch_5">
     <path d="M 57.7485 160.659185 
L 62.53929 135.999939 
L 60.599926 135.62316 
L 55.809136 160.282406 
z
" style="fill:#ffffff;"/>
    </g>
    <!-- Lower Androscogin 23.1° -->
    <g style="fill:#4169e1;" transform="translate(57.324378 160.556413)rotate(-79.005557)scale(0.02 -0.02)">
     <defs>
      <path d="M 628 4666 
L 1259 4666 
L 1259 531 
L 3531 531 
L 3531 0 
L 628 0 
L 628 4666 
z
" id="DejaVuSans-4c" transform="scale(0.015625)"/>
      <path d="M 269 3500 
L 844 3500 
L 1563 769 
L 2278 3500 
L 2956 3500 
L 3675 769 
L 4391 3500 
L 4966 3500 
L 4050 0 
L 3372 0 
L 2619 2869 
L 1863 0 
L 1184 0 
L 269 3500 
z
" id="DejaVuSans-77" transform="scale(0.015625)"/>
      <path d="M 2188 4044 
L 1331 1722 
L 3047 1722 
L 2188 4044 
z
M 1831 4666 
L 2547 4666 
L 4325 0 
L 3669 0 
L 3244 1197 
L 1141 1197 
L 716 0 
L 50 0 
L 1831 4666 
z
" id="DejaVuSans-41" transform="scale(0.015625)"/>
      <path d="M 3513 2113 
L 3513 0 
L 2938 0 
L 2938 2094 
Q 2938 2591 2744 2837 
Q 2550 3084 2163 3084 
Q 1697 3084 1428 2787 
Q 1159 2491 1159 1978 
L 1159 0 
L 581 0 
L 581 3500 
L 1159 3500 
L 1159 2956 
Q 1366 3272 1645 3428 
Q 1925 3584 2291 3584 
Q 2894 3584 3203 3211 
Q 3513 2838 3513 2113 
z
" id="DejaVuSans-6e" transform="scale(0.015625)"/>
      <path d="M 2906 2969 
L 2906 4863 
L 3481 4863 
L 3481 0 
L 2906 0 
L 2906 525 
Q 2725 213 2448 61 
Q 2172 -91 1784 -91 
Q 1150 -91 751 415 
Q 353 922 353 1747 
Q 353 2572 751 3078 
Q 1150 3584 1784 3584 
Q 2172 3584 2448 3432 
Q 2725 3281 2906 2969 
z
M 947 1747 
Q 947 1113 1208 752 
Q 1469 391 1925 391 
Q 2381 391 2643 752 
Q 2906 1113 2906 1747 
Q 2906 2381 2643 2742 
Q 2381 3103 1925 3103 
Q 1469 3103 1208 2742 
Q 947 2381 947 1747 
z
" id="DejaVuSans-64" transform="scale(0.015625)"/>
      <path d="M 2834 3397 
L 2834 2853 
Q 2591 2978 2328 3040 
Q 2066 3103 1784 3103 
Q 1356 3103 1142 2972 
Q 928 2841 928 2578 
Q 928 2378 1081 2264 
Q 1234 2150 1697 2047 
L 1894 2003 
Q 2506 1872 2764 1633 
Q 3022 1394 3022 966 
Q 3022 478 2636 193 
Q 2250 -91 1575 -91 
Q 1294 -91 989 -36 
Q 684 19 347 128 
L 347 722 
Q 666 556 975 473 
Q 1284 391 1588 391 
Q 1994 391 2212 530 
Q 2431 669 2431 922 
Q 2431 1156 2273 1281 
Q 2116 1406 1581 1522 
L 1381 1569 
Q 847 1681 609 1914 
Q 372 2147 372 2553 
Q 372 3047 722 3315 
Q 1072 3584 1716 3584 
Q 2034 3584 2315 3537 
Q 2597 3491 2834 3397 
z
" id="DejaVuSans-73" transform="scale(0.015625)"/>
      <path d="M 2906 1791 
Q 2906 2416 2648 2759 
Q 2391 3103 1925 3103 
Q 1463 3103 1205 2759 
Q 947 2416 947 1791 
Q 947 1169 1205 825 
Q 1463 481 1925 481 
Q 2391 481 2648 825 
Q 2906 1169 2906 1791 
z
M 3481 434 
Q 3481 -459 3084 -895 
Q 2688 -1331 1869 -1331 
Q 1566 -1331 1297 -1286 
Q 1028 -1241 775 -1147 
L 775 -588 
Q 1028 -725 1275 -790 
Q 1522 -856 1778 -856 
Q 2344 -856 2625 -561 
Q 2906 -266 2906 331 
L 2906 616 
Q 2728 306 2450 153 
Q 2172 0 1784 0 
Q 1141 0 747 490 
Q 353 981 353 1791 
Q 353 2603 747 3093 
Q 1141 3584 1784 3584 
Q 2172 3584 2450 3431 
Q 2728 3278 2906 2969 
L 2906 3500 
L 3481 3500 
L 3481 434 
z
" id="DejaVuSans-67" transform="scale(0.015625)"/>
      <path d="M 1228 531 
L 3431 531 
L 3431 0 
L 469 0 
L 469 531 
Q 828 903 1448 1529 
Q 2069 2156 2228 2338 
Q 2531 2678 2651 2914 
Q 2772 3150 2772 3378 
Q 2772 3750 2511 3984 
Q 2250 4219 1831 4219 
Q 1534 4219 1204 4116 
Q 875 4013 500 3803 
L 500 4441 
Q 881 4594 1212 4672 
Q 1544 4750 1819 4750 
Q 2544 4750 2975 4387 
Q 3406 4025 3406 3419 
Q 3406 3131 3298 2873 
Q 3191 2616 2906 2266 
Q 2828 2175 2409 1742 
Q 1991 1309 1228 531 
z
" id="DejaVuSans-32" transform="scale(0.015625)"/>
      <path d="M 2597 2516 
Q 3050 2419 3304 2112 
Q 3559 1806 3559 1356 
Q 3559 666 3084 287 
Q 2609 -91 1734 -91 
Q 1441 -91 1130 -33 
Q 819 25 488 141 
L 488 750 
Q 750 597 1062 519 
Q 1375 441 1716 441 
Q 2309 441 2620 675 
Q 2931 909 2931 1356 
Q 2931 1769 2642 2001 
Q 2353 2234 1838 2234 
L 1294 2234 
L 1294 2753 
L 1863 2753 
Q 2328 2753 2575 2939 
Q 2822 3125 2822 3475 
Q 2822 3834 2567 4026 
Q 2313 4219 1838 4219 
Q 1578 4219 1281 4162 
Q 984 4106 628 3988 
L 628 4550 
Q 988 4650 1302 4700 
Q 1616 4750 1894 4750 
Q 2613 4750 3031 4423 
Q 3450 4097 3450 3541 
Q 3450 3153 3228 2886 
Q 3006 2619 2597 2516 
z
" id="DejaVuSans-33" transform="scale(0.015625)"/>
      <path d="M 684 794 
L 1344 794 
L 1344 0 
L 684 0 
L 684 794 
z
" id="DejaVuSans-2e" transform="scale(0.015625)"/>
      <path d="M 794 531 
L 1825 531 
L 1825 4091 
L 703 3866 
L 703 4441 
L 1819 4666 
L 2450 4666 
L 2450 531 
L 3481 531 
L 3481 0 
L 794 0 
L 794 531 
z
" id="DejaVuSans-31" transform="scale(0.015625)"/>
      <path d="M 1600 4347 
Q 1350 4347 1178 4173 
Q 1006 4000 1006 3750 
Q 1006 3503 1178 3333 
Q 1350 3163 1600 3163 
Q 1850 3163 2022 3333 
Q 2194 3503 2194 3750 
Q 2194 3997 2020 4172 
Q 1847 4347 1600 4347 
z
M 1600 4750 
Q 1800 4750 1984 4673 
Q 2169 4597 2303 4453 
Q 2447 4313 2519 4134 
Q 2591 3956 2591 3750 
Q 2591 3338 2302 3052 
Q 2013 2766 1594 2766 
Q 1172 2766 890 3047 
Q 609 3328 609 3750 
Q 609 4169 896 4459 
Q 1184 4750 1600 4750 
z
" id="DejaVuSans-b0" transform="scale(0.015625)"/>
     </defs>
     <use xlink:href="#DejaVuSans-4c"/>
     <use x="53.962891" xlink:href="#DejaVuSans-6f"/>
     <use x="115.144531" xlink:href="#DejaVuSans-77"/>
     <use x="196.931641" xlink:href="#DejaVuSans-65"/>
     <use x="258.455078" xlink:href="#DejaVuSans-72"/>
     <use x="299.568359" xlink:href="#DejaVuSans-20"/>
     <use x="331.355469" xlink:href="#DejaVuSans-41"/>
     <use x="399.763672" xlink:href="#DejaVuSans-6e"/>
     <use x="463.142578" xlink:href="#DejaVuSans-64"/>
     <use x="526.619141" xlink:href="#DejaVuSans-72"/>
     <use x="565.482422" xlink:href="#DejaVuSans-6f"/>
     <use x="626.664062" xlink:href="#DejaVuSans-73"/>
     <use x="678.763672" xlink:href="#DejaVuSans-63"/>
     <use x="733.744141" xlink:href="#DejaVuSans-6f"/>
     <use x="794.925781" xlink:href="#DejaVuSans-67"/>
     <use x="858.402344" xlink:href="#DejaVuSans-69"/>
     <use x="886.185547" xlink:href="#DejaVuSans-6e"/>
     <use x="949.564453" xlink:href="#DejaVuSans-20"/>
     <use x="981.351562" xlink:href="#DejaVuSans-32"/>
     <use x="1044.974609" xlink:href="#DejaVuSans-33"/>
     <use x="1108.597656" xlink:href="#DejaVuSans-2e"/>
     <use x="1140.384766" xlink:href="#DejaVuSans-31"/>
     <use x="1204.007812" xlink:href="#DejaVuSans-b0"/>
    </g>
   </g>
   <g id="text_5">
    <g id="patch_6">
     <path d="M 65.903431 104.446624 
L 68.857783 86.198607 
L 66.907552 85.882865 
L 63.9532 104.130882 
z
" style="fill:#ffffff;"/>
    </g>
    <!-- Upper Rapid 23.0° -->
    <g style="fill:#4169e1;" transform="translate(65.476293 104.35721)rotate(-80.803616)scale(0.02 -0.02)">
     <defs>
      <path d="M 556 4666 
L 1191 4666 
L 1191 1831 
Q 1191 1081 1462 751 
Q 1734 422 2344 422 
Q 2950 422 3222 751 
Q 3494 1081 3494 1831 
L 3494 4666 
L 4128 4666 
L 4128 1753 
Q 4128 841 3676 375 
Q 3225 -91 2344 -91 
Q 1459 -91 1007 375 
Q 556 841 556 1753 
L 556 4666 
z
" id="DejaVuSans-55" transform="scale(0.015625)"/>
      <path d="M 2841 2188 
Q 3044 2119 3236 1894 
Q 3428 1669 3622 1275 
L 4263 0 
L 3584 0 
L 2988 1197 
Q 2756 1666 2539 1819 
Q 2322 1972 1947 1972 
L 1259 1972 
L 1259 0 
L 628 0 
L 628 4666 
L 2053 4666 
Q 2853 4666 3247 4331 
Q 3641 3997 3641 3322 
Q 3641 2881 3436 2590 
Q 3231 2300 2841 2188 
z
M 1259 4147 
L 1259 2491 
L 2053 2491 
Q 2509 2491 2742 2702 
Q 2975 2913 2975 3322 
Q 2975 3731 2742 3939 
Q 2509 4147 2053 4147 
L 1259 4147 
z
" id="DejaVuSans-52" transform="scale(0.015625)"/>
      <path d="M 2034 4250 
Q 1547 4250 1301 3770 
Q 1056 3291 1056 2328 
Q 1056 1369 1301 889 
Q 1547 409 2034 409 
Q 2525 409 2770 889 
Q 3016 1369 3016 2328 
Q 3016 3291 2770 3770 
Q 2525 4250 2034 4250 
z
M 2034 4750 
Q 2819 4750 3233 4129 
Q 3647 3509 3647 2328 
Q 3647 1150 3233 529 
Q 2819 -91 2034 -91 
Q 1250 -91 836 529 
Q 422 1150 422 2328 
Q 422 3509 836 4129 
Q 1250 4750 2034 4750 
z
" id="DejaVuSans-30" transform="scale(0.015625)"/>
     </defs>
     <use xlink:href="#DejaVuSans-55"/>
     <use x="73.193359" xlink:href="#DejaVuSans-70"/>
     <use x="136.669922" xlink:href="#DejaVuSans-70"/>
     <use x="200.146484" xlink:href="#DejaVuSans-65"/>
     <use x="261.669922" xlink:href="#DejaVuSans-72"/>
     <use x="302.783203" xlink:href="#DejaVuSans-20"/>
     <use x="334.570312" xlink:href="#DejaVuSans-52"/>
     <use x="401.802734" xlink:href="#DejaVuSans-61"/>
     <use x="463.082031" xlink:href="#DejaVuSans-70"/>
     <use x="526.558594" xlink:href="#DejaVuSans-69"/>
     <use x="554.341797" xlink:href="#DejaVuSans-64"/>
     <use x="617.818359" xlink:href="#DejaVuSans-20"/>
     <use x="649.605469" xlink:href="#DejaVuSans-32"/>
     <use x="713.228516" xlink:href="#DejaVuSans-33"/>
     <use x="776.851562" xlink:href="#DejaVuSans-2e"/>
     <use x="808.638672" xlink:href="#DejaVuSans-30"/>
     <use x="872.261719" xlink:href="#DejaVuSans-b0"/>
    </g>
   </g>
   <g id="text_6">
    <g id="patch_7">
     <path d="M 71.465217 101.077708 
L 73.171566 75.950892 
L 71.20048 75.817037 
L 69.494132 100.943852 
z
" style="fill:#ffffff;"/>
    </g>
    <!-- Upper Androscogin 22.2° -->
    <g style="fill:#4169e1;" transform="translate(71.031637 101.028217)rotate(-86.11504)scale(0.02 -0.02)">
     <use xlink:href="#DejaVuSans-55"/>
     <use x="73.193359" xlink:href="#DejaVuSans-70"/>
     <use x="136.669922" xlink:href="#DejaVuSans-70"/>
     <use x="200.146484" xlink:href="#DejaVuSans-65"/>
     <use x="261.669922" xlink:href="#DejaVuSans-72"/>
     <use x="302.783203" xlink:href="#DejaVuSans-20"/>
     <use x="334.570312" xlink:href="#DejaVuSans-41"/>
     <use x="402.978516" xlink:href="#DejaVuSans-6e"/>
     <use x="466.357422" xlink:href="#DejaVuSans-64"/>
     <use x="529.833984" xlink:href="#DejaVuSans-72"/>
     <use x="568.697266" xlink:href="#DejaVuSans-6f"/>
     <use x="629.878906" xlink:href="#DejaVuSans-73"/>
     <use x="681.978516" xlink:href="#DejaVuSans-63"/>
     <use x="736.958984" xlink:href="#DejaVuSans-6f"/>
     <use x="798.140625" xlink:href="#DejaVuSans-67"/>
     <use x="861.617188" xlink:href="#DejaVuSans-69"/>
     <use x="889.400391" xlink:href="#DejaVuSans-6e"/>
     <use x="952.779297" xlink:href="#DejaVuSans-20"/>
     <use x="984.566406" xlink:href="#DejaVuSans-32"/>
     <use x="1048.189453" xlink:href="#DejaVuSans-32"/>
     <use x="1111.8125" xlink:href="#DejaVuSans-2e"/>
     <use x="1143.599609" xlink:href="#DejaVuSans-32"/>
     <use x="1207.222656" xlink:href="#DejaVuSans-b0"/>
    </g>
   </g>
   <g id="text_7">
    <g id="patch_8">
     <path d="M 91.037472 187.738838 
L 95.307278 167.95466 
L 93.376116 167.537878 
L 89.10631 187.322056 
z
" style="fill:#ffffff;"/>
    </g>
    <!-- Lower Sunday 10.1° -->
    <g style="fill:#008000;" transform="translate(90.615565 187.627322)rotate(-77.821264)scale(0.02 -0.02)">
     <defs>
      <path d="M 2059 -325 
Q 1816 -950 1584 -1140 
Q 1353 -1331 966 -1331 
L 506 -1331 
L 506 -850 
L 844 -850 
Q 1081 -850 1212 -737 
Q 1344 -625 1503 -206 
L 1606 56 
L 191 3500 
L 800 3500 
L 1894 763 
L 2988 3500 
L 3597 3500 
L 2059 -325 
z
" id="DejaVuSans-79" transform="scale(0.015625)"/>
     </defs>
     <use xlink:href="#DejaVuSans-4c"/>
     <use x="53.962891" xlink:href="#DejaVuSans-6f"/>
     <use x="115.144531" xlink:href="#DejaVuSans-77"/>
     <use x="196.931641" xlink:href="#DejaVuSans-65"/>
     <use x="258.455078" xlink:href="#DejaVuSans-72"/>
     <use x="299.568359" xlink:href="#DejaVuSans-20"/>
     <use x="331.355469" xlink:href="#DejaVuSans-53"/>
     <use x="394.832031" xlink:href="#DejaVuSans-75"/>
     <use x="458.210938" xlink:href="#DejaVuSans-6e"/>
     <use x="521.589844" xlink:href="#DejaVuSans-64"/>
     <use x="585.066406" xlink:href="#DejaVuSans-61"/>
     <use x="646.345703" xlink:href="#DejaVuSans-79"/>
     <use x="705.525391" xlink:href="#DejaVuSans-20"/>
     <use x="737.3125" xlink:href="#DejaVuSans-31"/>
     <use x="800.935547" xlink:href="#DejaVuSans-30"/>
     <use x="864.558594" xlink:href="#DejaVuSans-2e"/>
     <use x="896.345703" xlink:href="#DejaVuSans-31"/>
     <use x="959.96875" xlink:href="#DejaVuSans-b0"/>
    </g>
   </g>
   <g id="text_8">
    <g id="patch_9">
     <path d="M 59.938406 170.500339 
L 70.158094 158.930764 
L 68.67741 157.622839 
L 58.457721 169.192414 
z
" style="fill:#ffffff;"/>
    </g>
    <!-- Rangeley 13.7° -->
    <g style="fill:#008000;" transform="translate(59.624921 170.196746)rotate(-48.545052)scale(0.02 -0.02)">
     <defs>
      <path d="M 525 4666 
L 3525 4666 
L 3525 4397 
L 1831 0 
L 1172 0 
L 2766 4134 
L 525 4134 
L 525 4666 
z
" id="DejaVuSans-37" transform="scale(0.015625)"/>
     </defs>
     <use xlink:href="#DejaVuSans-52"/>
     <use x="67.232422" xlink:href="#DejaVuSans-61"/>
     <use x="128.511719" xlink:href="#DejaVuSans-6e"/>
     <use x="191.890625" xlink:href="#DejaVuSans-67"/>
     <use x="255.367188" xlink:href="#DejaVuSans-65"/>
     <use x="316.890625" xlink:href="#DejaVuSans-6c"/>
     <use x="344.673828" xlink:href="#DejaVuSans-65"/>
     <use x="406.197266" xlink:href="#DejaVuSans-79"/>
     <use x="465.376953" xlink:href="#DejaVuSans-20"/>
     <use x="497.164062" xlink:href="#DejaVuSans-31"/>
     <use x="560.787109" xlink:href="#DejaVuSans-33"/>
     <use x="624.410156" xlink:href="#DejaVuSans-2e"/>
     <use x="656.197266" xlink:href="#DejaVuSans-37"/>
     <use x="719.820312" xlink:href="#DejaVuSans-b0"/>
    </g>
   </g>
   <g id="text_9">
    <g id="patch_10">
     <path d="M 82.379714 176.160123 
L 87.797179 169.188903 
L 86.237217 167.976628 
L 80.819752 174.947847 
z
" style="fill:#ffffff;"/>
    </g>
    <!-- Ellis 9.0° -->
    <g style="fill:#008000;" transform="translate(82.047769 175.876833)rotate(-52.148555)scale(0.02 -0.02)">
     <defs>
      <path d="M 628 4666 
L 3578 4666 
L 3578 4134 
L 1259 4134 
L 1259 2753 
L 3481 2753 
L 3481 2222 
L 1259 2222 
L 1259 531 
L 3634 531 
L 3634 0 
L 628 0 
L 628 4666 
z
" id="DejaVuSans-45" transform="scale(0.015625)"/>
      <path d="M 703 97 
L 703 672 
Q 941 559 1184 500 
Q 1428 441 1663 441 
Q 2288 441 2617 861 
Q 2947 1281 2994 2138 
Q 2813 1869 2534 1725 
Q 2256 1581 1919 1581 
Q 1219 1581 811 2004 
Q 403 2428 403 3163 
Q 403 3881 828 4315 
Q 1253 4750 1959 4750 
Q 2769 4750 3195 4129 
Q 3622 3509 3622 2328 
Q 3622 1225 3098 567 
Q 2575 -91 1691 -91 
Q 1453 -91 1209 -44 
Q 966 3 703 97 
z
M 1959 2075 
Q 2384 2075 2632 2365 
Q 2881 2656 2881 3163 
Q 2881 3666 2632 3958 
Q 2384 4250 1959 4250 
Q 1534 4250 1286 3958 
Q 1038 3666 1038 3163 
Q 1038 2656 1286 2365 
Q 1534 2075 1959 2075 
z
" id="DejaVuSans-39" transform="scale(0.015625)"/>
     </defs>
     <use xlink:href="#DejaVuSans-45"/>
     <use x="63.183594" xlink:href="#DejaVuSans-6c"/>
     <use x="90.966797" xlink:href="#DejaVuSans-6c"/>
     <use x="118.75" xlink:href="#DejaVuSans-69"/>
     <use x="146.533203" xlink:href="#DejaVuSans-73"/>
     <use x="198.632812" xlink:href="#DejaVuSans-20"/>
     <use x="230.419922" xlink:href="#DejaVuSans-39"/>
     <use x="294.042969" xlink:href="#DejaVuSans-2e"/>
     <use x="325.830078" xlink:href="#DejaVuSans-30"/>
     <use x="389.453125" xlink:href="#DejaVuSans-b0"/>
    </g>
   </g>
   <g id="text_10">
    <g id="patch_11">
     <path d="M 74.026417 60.740974 
L 76.927895 43.628332 
L 74.980069 43.298074 
L 72.078591 60.410717 
z
" style="fill:#ffffff;"/>
    </g>
    <!-- Piscataquis 22.7° -->
    <g style="fill:#4169e1;" transform="translate(73.599957 60.648382)rotate(-80.37692)scale(0.02 -0.02)">
     <defs>
      <path d="M 1259 4147 
L 1259 2394 
L 2053 2394 
Q 2494 2394 2734 2622 
Q 2975 2850 2975 3272 
Q 2975 3691 2734 3919 
Q 2494 4147 2053 4147 
L 1259 4147 
z
M 628 4666 
L 2053 4666 
Q 2838 4666 3239 4311 
Q 3641 3956 3641 3272 
Q 3641 2581 3239 2228 
Q 2838 1875 2053 1875 
L 1259 1875 
L 1259 0 
L 628 0 
L 628 4666 
z
" id="DejaVuSans-50" transform="scale(0.015625)"/>
      <path d="M 947 1747 
Q 947 1113 1208 752 
Q 1469 391 1925 391 
Q 2381 391 2643 752 
Q 2906 1113 2906 1747 
Q 2906 2381 2643 2742 
Q 2381 3103 1925 3103 
Q 1469 3103 1208 2742 
Q 947 2381 947 1747 
z
M 2906 525 
Q 2725 213 2448 61 
Q 2172 -91 1784 -91 
Q 1150 -91 751 415 
Q 353 922 353 1747 
Q 353 2572 751 3078 
Q 1150 3584 1784 3584 
Q 2172 3584 2448 3432 
Q 2725 3281 2906 2969 
L 2906 3500 
L 3481 3500 
L 3481 -1331 
L 2906 -1331 
L 2906 525 
z
" id="DejaVuSans-71" transform="scale(0.015625)"/>
     </defs>
     <use xlink:href="#DejaVuSans-50"/>
     <use x="58.052734" xlink:href="#DejaVuSans-69"/>
     <use x="85.835938" xlink:href="#DejaVuSans-73"/>
     <use x="137.935547" xlink:href="#DejaVuSans-63"/>
     <use x="192.916016" xlink:href="#DejaVuSans-61"/>
     <use x="254.195312" xlink:href="#DejaVuSans-74"/>
     <use x="293.404297" xlink:href="#DejaVuSans-61"/>
     <use x="354.683594" xlink:href="#DejaVuSans-71"/>
     <use x="418.160156" xlink:href="#DejaVuSans-75"/>
     <use x="481.539062" xlink:href="#DejaVuSans-69"/>
     <use x="509.322266" xlink:href="#DejaVuSans-73"/>
     <use x="561.421875" xlink:href="#DejaVuSans-20"/>
     <use x="593.208984" xlink:href="#DejaVuSans-32"/>
     <use x="656.832031" xlink:href="#DejaVuSans-32"/>
     <use x="720.455078" xlink:href="#DejaVuSans-2e"/>
     <use x="752.242188" xlink:href="#DejaVuSans-37"/>
     <use x="815.865234" xlink:href="#DejaVuSans-b0"/>
    </g>
   </g>
   <g id="text_11">
    <g id="patch_12">
     <path d="M 53.086504 100.194254 
L 58.056367 84.56214 
L 56.173604 83.96356 
L 51.203741 99.595674 
z
" style="fill:#ffffff;"/>
    </g>
    <!-- Penobscot 19.2° -->
    <g style="fill:#4169e1;" transform="translate(52.677117 100.043113)rotate(-72.363163)scale(0.02 -0.02)">
     <use xlink:href="#DejaVuSans-50"/>
     <use x="56.677734" xlink:href="#DejaVuSans-65"/>
     <use x="118.201172" xlink:href="#DejaVuSans-6e"/>
     <use x="181.580078" xlink:href="#DejaVuSans-6f"/>
     <use x="242.761719" xlink:href="#DejaVuSans-62"/>
     <use x="306.238281" xlink:href="#DejaVuSans-73"/>
     <use x="358.337891" xlink:href="#DejaVuSans-63"/>
     <use x="413.318359" xlink:href="#DejaVuSans-6f"/>
     <use x="474.5" xlink:href="#DejaVuSans-74"/>
     <use x="513.708984" xlink:href="#DejaVuSans-20"/>
     <use x="545.496094" xlink:href="#DejaVuSans-31"/>
     <use x="609.119141" xlink:href="#DejaVuSans-39"/>
     <use x="672.742188" xlink:href="#DejaVuSans-2e"/>
     <use x="704.529297" xlink:href="#DejaVuSans-32"/>
     <use x="768.152344" xlink:href="#DejaVuSans-b0"/>
    </g>
   </g>
   <g id="text_12">
    <g id="patch_13">
     <path d="M 81.726113 54.643243 
L 82.88306 43.661204 
L 80.918308 43.454219 
L 79.761361 54.436258 
z
" style="fill:#ffffff;"/>
    </g>
    <!-- Swift 19.9° -->
    <g style="fill:#4169e1;" transform="translate(81.29467 54.57768)rotate(-83.986127)scale(0.02 -0.02)">
     <defs>
      <path d="M 2375 4863 
L 2375 4384 
L 1825 4384 
Q 1516 4384 1395 4259 
Q 1275 4134 1275 3809 
L 1275 3500 
L 2222 3500 
L 2222 3053 
L 1275 3053 
L 1275 0 
L 697 0 
L 697 3053 
L 147 3053 
L 147 3500 
L 697 3500 
L 697 3744 
Q 697 4328 969 4595 
Q 1241 4863 1831 4863 
L 2375 4863 
z
" id="DejaVuSans-66" transform="scale(0.015625)"/>
     </defs>
     <use xlink:href="#DejaVuSans-53"/>
     <use x="63.476562" xlink:href="#DejaVuSans-77"/>
     <use x="145.263672" xlink:href="#DejaVuSans-69"/>
     <use x="173.046875" xlink:href="#DejaVuSans-66"/>
     <use x="206.501953" xlink:href="#DejaVuSans-74"/>
     <use x="245.710938" xlink:href="#DejaVuSans-20"/>
     <use x="277.498047" xlink:href="#DejaVuSans-31"/>
     <use x="341.121094" xlink:href="#DejaVuSans-39"/>
     <use x="404.744141" xlink:href="#DejaVuSans-2e"/>
     <use x="436.53125" xlink:href="#DejaVuSans-39"/>
     <use x="500.154297" xlink:href="#DejaVuSans-b0"/>
    </g>
   </g>
   <g id="text_13">
    <g id="patch_14">
     <path d="M 68.534466 137.191093 
L 75.830605 157.67916 
L 77.691738 157.01638 
L 70.3956 136.528313 
z
" style="fill:#ffffff;"/>
    </g>
    <!-- Dead Cambride 28.1° -->
    <g transform="translate(68.95185 137.063686)rotate(-289.601654)scale(0.02 -0.02)">
     <defs>
      <path d="M 4122 4306 
L 4122 3641 
Q 3803 3938 3442 4084 
Q 3081 4231 2675 4231 
Q 1875 4231 1450 3742 
Q 1025 3253 1025 2328 
Q 1025 1406 1450 917 
Q 1875 428 2675 428 
Q 3081 428 3442 575 
Q 3803 722 4122 1019 
L 4122 359 
Q 3791 134 3420 21 
Q 3050 -91 2638 -91 
Q 1578 -91 968 557 
Q 359 1206 359 2328 
Q 359 3453 968 4101 
Q 1578 4750 2638 4750 
Q 3056 4750 3426 4639 
Q 3797 4528 4122 4306 
z
" id="DejaVuSans-43" transform="scale(0.015625)"/>
      <path d="M 2034 2216 
Q 1584 2216 1326 1975 
Q 1069 1734 1069 1313 
Q 1069 891 1326 650 
Q 1584 409 2034 409 
Q 2484 409 2743 651 
Q 3003 894 3003 1313 
Q 3003 1734 2745 1975 
Q 2488 2216 2034 2216 
z
M 1403 2484 
Q 997 2584 770 2862 
Q 544 3141 544 3541 
Q 544 4100 942 4425 
Q 1341 4750 2034 4750 
Q 2731 4750 3128 4425 
Q 3525 4100 3525 3541 
Q 3525 3141 3298 2862 
Q 3072 2584 2669 2484 
Q 3125 2378 3379 2068 
Q 3634 1759 3634 1313 
Q 3634 634 3220 271 
Q 2806 -91 2034 -91 
Q 1263 -91 848 271 
Q 434 634 434 1313 
Q 434 1759 690 2068 
Q 947 2378 1403 2484 
z
M 1172 3481 
Q 1172 3119 1398 2916 
Q 1625 2713 2034 2713 
Q 2441 2713 2670 2916 
Q 2900 3119 2900 3481 
Q 2900 3844 2670 4047 
Q 2441 4250 2034 4250 
Q 1625 4250 1398 4047 
Q 1172 3844 1172 3481 
z
" id="DejaVuSans-38" transform="scale(0.015625)"/>
     </defs>
     <use xlink:href="#DejaVuSans-44"/>
     <use x="77.001953" xlink:href="#DejaVuSans-65"/>
     <use x="138.525391" xlink:href="#DejaVuSans-61"/>
     <use x="199.804688" xlink:href="#DejaVuSans-64"/>
     <use x="263.28125" xlink:href="#DejaVuSans-20"/>
     <use x="295.068359" xlink:href="#DejaVuSans-43"/>
     <use x="364.892578" xlink:href="#DejaVuSans-61"/>
     <use x="426.171875" xlink:href="#DejaVuSans-6d"/>
     <use x="523.583984" xlink:href="#DejaVuSans-62"/>
     <use x="587.060547" xlink:href="#DejaVuSans-72"/>
     <use x="628.173828" xlink:href="#DejaVuSans-69"/>
     <use x="655.957031" xlink:href="#DejaVuSans-64"/>
     <use x="719.433594" xlink:href="#DejaVuSans-65"/>
     <use x="780.957031" xlink:href="#DejaVuSans-20"/>
     <use x="812.744141" xlink:href="#DejaVuSans-32"/>
     <use x="876.367188" xlink:href="#DejaVuSans-38"/>
     <use x="939.990234" xlink:href="#DejaVuSans-2e"/>
     <use x="971.777344" xlink:href="#DejaVuSans-31"/>
     <use x="1035.400391" xlink:href="#DejaVuSans-b0"/>
    </g>
   </g>
   <g id="text_14">
    <g id="patch_15">
     <path d="M 48.128835 149.512527 
L 49.071168 131.115395 
L 47.09813 131.014332 
L 46.155797 149.411464 
z
" style="fill:#ffffff;"/>
    </g>
    <!-- Lower Rapid 18.9° -->
    <g style="fill:#4169e1;" transform="translate(47.694492 149.470253)rotate(-87.067774)scale(0.02 -0.02)">
     <use xlink:href="#DejaVuSans-4c"/>
     <use x="53.962891" xlink:href="#DejaVuSans-6f"/>
     <use x="115.144531" xlink:href="#DejaVuSans-77"/>
     <use x="196.931641" xlink:href="#DejaVuSans-65"/>
     <use x="258.455078" xlink:href="#DejaVuSans-72"/>
     <use x="299.568359" xlink:href="#DejaVuSans-20"/>
     <use x="331.355469" xlink:href="#DejaVuSans-52"/>
     <use x="398.587891" xlink:href="#DejaVuSans-61"/>
     <use x="459.867188" xlink:href="#DejaVuSans-70"/>
     <use x="523.34375" xlink:href="#DejaVuSans-69"/>
     <use x="551.126953" xlink:href="#DejaVuSans-64"/>
     <use x="614.603516" xlink:href="#DejaVuSans-20"/>
     <use x="646.390625" xlink:href="#DejaVuSans-31"/>
     <use x="710.013672" xlink:href="#DejaVuSans-38"/>
     <use x="773.636719" xlink:href="#DejaVuSans-2e"/>
     <use x="805.423828" xlink:href="#DejaVuSans-39"/>
     <use x="869.046875" xlink:href="#DejaVuSans-b0"/>
    </g>
   </g>
   <g id="text_15">
    <g id="patch_16">
     <path d="M 79.006767 185.668607 
L 91.189958 177.124436 
L 90.055592 175.506935 
L 77.872401 184.051106 
z
" style="fill:#ffffff;"/>
    </g>
    <!-- Aroostook 9.3° -->
    <g style="fill:#008000;" transform="translate(78.772834 185.300209)rotate(-35.042292)scale(0.02 -0.02)">
     <defs>
      <path d="M 581 4863 
L 1159 4863 
L 1159 1991 
L 2875 3500 
L 3609 3500 
L 1753 1863 
L 3688 0 
L 2938 0 
L 1159 1709 
L 1159 0 
L 581 0 
L 581 4863 
z
" id="DejaVuSans-6b" transform="scale(0.015625)"/>
     </defs>
     <use xlink:href="#DejaVuSans-41"/>
     <use x="68.408203" xlink:href="#DejaVuSans-72"/>
     <use x="107.271484" xlink:href="#DejaVuSans-6f"/>
     <use x="168.453125" xlink:href="#DejaVuSans-6f"/>
     <use x="229.634766" xlink:href="#DejaVuSans-73"/>
     <use x="281.734375" xlink:href="#DejaVuSans-74"/>
     <use x="320.943359" xlink:href="#DejaVuSans-6f"/>
     <use x="382.125" xlink:href="#DejaVuSans-6f"/>
     <use x="443.306641" xlink:href="#DejaVuSans-6b"/>
     <use x="501.216797" xlink:href="#DejaVuSans-20"/>
     <use x="533.003906" xlink:href="#DejaVuSans-39"/>
     <use x="596.626953" xlink:href="#DejaVuSans-2e"/>
     <use x="628.414062" xlink:href="#DejaVuSans-33"/>
     <use x="692.037109" xlink:href="#DejaVuSans-b0"/>
    </g>
   </g>
   <g id="text_16">
    <g id="patch_17">
     <path d="M 69.105246 183.357649 
L 77.245728 167.353718 
L 75.484814 166.45802 
L 67.344332 182.461951 
z
" style="fill:#ffffff;"/>
    </g>
    <!-- Magalloway 14.8° -->
    <g style="fill:#008000;" transform="translate(68.725754 183.14218)rotate(-63.039602)scale(0.02 -0.02)">
     <defs>
      <path d="M 628 4666 
L 1569 4666 
L 2759 1491 
L 3956 4666 
L 4897 4666 
L 4897 0 
L 4281 0 
L 4281 4097 
L 3078 897 
L 2444 897 
L 1241 4097 
L 1241 0 
L 628 0 
L 628 4666 
z
" id="DejaVuSans-4d" transform="scale(0.015625)"/>
      <path d="M 2419 4116 
L 825 1625 
L 2419 1625 
L 2419 4116 
z
M 2253 4666 
L 3047 4666 
L 3047 1625 
L 3713 1625 
L 3713 1100 
L 3047 1100 
L 3047 0 
L 2419 0 
L 2419 1100 
L 313 1100 
L 313 1709 
L 2253 4666 
z
" id="DejaVuSans-34" transform="scale(0.015625)"/>
     </defs>
     <use xlink:href="#DejaVuSans-4d"/>
     <use x="86.279297" xlink:href="#DejaVuSans-61"/>
     <use x="147.558594" xlink:href="#DejaVuSans-67"/>
     <use x="211.035156" xlink:href="#DejaVuSans-61"/>
     <use x="272.314453" xlink:href="#DejaVuSans-6c"/>
     <use x="300.097656" xlink:href="#DejaVuSans-6c"/>
     <use x="327.880859" xlink:href="#DejaVuSans-6f"/>
     <use x="389.0625" xlink:href="#DejaVuSans-77"/>
     <use x="470.849609" xlink:href="#DejaVuSans-61"/>
     <use x="532.128906" xlink:href="#DejaVuSans-79"/>
     <use x="591.308594" xlink:href="#DejaVuSans-20"/>
     <use x="623.095703" xlink:href="#DejaVuSans-31"/>
     <use x="686.71875" xlink:href="#DejaVuSans-34"/>
     <use x="750.341797" xlink:href="#DejaVuSans-2e"/>
     <use x="782.128906" xlink:href="#DejaVuSans-38"/>
     <use x="845.751953" xlink:href="#DejaVuSans-b0"/>
    </g>
   </g>
   <g id="text_17">
    <g id="patch_18">
     <path d="M 84.849638 131.820513 
L 97.677383 147.264112 
L 99.197127 146.001784 
L 86.369382 130.558185 
z
" style="fill:#ffffff;"/>
    </g>
    <!-- Upper sunday 17.0° -->
    <g style="fill:#4169e1;" transform="translate(85.197761 131.557355)rotate(-309.713663)scale(0.02 -0.02)">
     <use xlink:href="#DejaVuSans-55"/>
     <use x="73.193359" xlink:href="#DejaVuSans-70"/>
     <use x="136.669922" xlink:href="#DejaVuSans-70"/>
     <use x="200.146484" xlink:href="#DejaVuSans-65"/>
     <use x="261.669922" xlink:href="#DejaVuSans-72"/>
     <use x="302.783203" xlink:href="#DejaVuSans-20"/>
     <use x="334.570312" xlink:href="#DejaVuSans-73"/>
     <use x="386.669922" xlink:href="#DejaVuSans-75"/>
     <use x="450.048828" xlink:href="#DejaVuSans-6e"/>
     <use x="513.427734" xlink:href="#DejaVuSans-64"/>
     <use x="576.904297" xlink:href="#DejaVuSans-61"/>
     <use x="638.183594" xlink:href="#DejaVuSans-79"/>
     <use x="697.363281" xlink:href="#DejaVuSans-20"/>
     <use x="729.150391" xlink:href="#DejaVuSans-31"/>
     <use x="792.773438" xlink:href="#DejaVuSans-37"/>
     <use x="856.396484" xlink:href="#DejaVuSans-2e"/>
     <use x="888.183594" xlink:href="#DejaVuSans-30"/>
     <use x="951.806641" xlink:href="#DejaVuSans-b0"/>
    </g>
   </g>
   <g id="text_18">
    <g id="patch_19">
     <path d="M 57.531644 38.371585 
L 71.629791 34.431268 
L 71.098 32.528562 
L 56.999853 36.468879 
z
" style="fill:#ffffff;"/>
    </g>
    <!-- Allagash 19.6° -->
    <g style="fill:#4169e1;" transform="translate(57.433562 37.946354)rotate(-15.615244)scale(0.02 -0.02)">
     <defs>
      <path d="M 3513 2113 
L 3513 0 
L 2938 0 
L 2938 2094 
Q 2938 2591 2744 2837 
Q 2550 3084 2163 3084 
Q 1697 3084 1428 2787 
Q 1159 2491 1159 1978 
L 1159 0 
L 581 0 
L 581 4863 
L 1159 4863 
L 1159 2956 
Q 1366 3272 1645 3428 
Q 1925 3584 2291 3584 
Q 2894 3584 3203 3211 
Q 3513 2838 3513 2113 
z
" id="DejaVuSans-68" transform="scale(0.015625)"/>
      <path d="M 2113 2584 
Q 1688 2584 1439 2293 
Q 1191 2003 1191 1497 
Q 1191 994 1439 701 
Q 1688 409 2113 409 
Q 2538 409 2786 701 
Q 3034 994 3034 1497 
Q 3034 2003 2786 2293 
Q 2538 2584 2113 2584 
z
M 3366 4563 
L 3366 3988 
Q 3128 4100 2886 4159 
Q 2644 4219 2406 4219 
Q 1781 4219 1451 3797 
Q 1122 3375 1075 2522 
Q 1259 2794 1537 2939 
Q 1816 3084 2150 3084 
Q 2853 3084 3261 2657 
Q 3669 2231 3669 1497 
Q 3669 778 3244 343 
Q 2819 -91 2113 -91 
Q 1303 -91 875 529 
Q 447 1150 447 2328 
Q 447 3434 972 4092 
Q 1497 4750 2381 4750 
Q 2619 4750 2861 4703 
Q 3103 4656 3366 4563 
z
" id="DejaVuSans-36" transform="scale(0.015625)"/>
     </defs>
     <use xlink:href="#DejaVuSans-41"/>
     <use x="68.408203" xlink:href="#DejaVuSans-6c"/>
     <use x="96.191406" xlink:href="#DejaVuSans-6c"/>
     <use x="123.974609" xlink:href="#DejaVuSans-61"/>
     <use x="185.253906" xlink:href="#DejaVuSans-67"/>
     <use x="248.730469" xlink:href="#DejaVuSans-61"/>
     <use x="310.009766" xlink:href="#DejaVuSans-73"/>
     <use x="362.109375" xlink:href="#DejaVuSans-68"/>
     <use x="425.488281" xlink:href="#DejaVuSans-20"/>
     <use x="457.275391" xlink:href="#DejaVuSans-31"/>
     <use x="520.898438" xlink:href="#DejaVuSans-39"/>
     <use x="584.521484" xlink:href="#DejaVuSans-2e"/>
     <use x="616.308594" xlink:href="#DejaVuSans-36"/>
     <use x="679.931641" xlink:href="#DejaVuSans-b0"/>
    </g>
   </g>
   <g id="text_19">
    <g id="patch_20">
     <path d="M 51.003535 52.569994 
L 55.147666 40.072283 
L 53.272445 39.450476 
L 49.128315 51.948187 
z
" style="fill:#ffffff;"/>
    </g>
    <!-- St John 16.0° -->
    <g style="fill:#008000;" transform="translate(50.596047 52.413804)rotate(-71.654935)scale(0.02 -0.02)">
     <defs>
      <path d="M 628 4666 
L 1259 4666 
L 1259 325 
Q 1259 -519 939 -900 
Q 619 -1281 -91 -1281 
L -331 -1281 
L -331 -750 
L -134 -750 
Q 284 -750 456 -515 
Q 628 -281 628 325 
L 628 4666 
z
" id="DejaVuSans-4a" transform="scale(0.015625)"/>
     </defs>
     <use xlink:href="#DejaVuSans-53"/>
     <use x="63.476562" xlink:href="#DejaVuSans-74"/>
     <use x="102.685547" xlink:href="#DejaVuSans-20"/>
     <use x="134.472656" xlink:href="#DejaVuSans-4a"/>
     <use x="163.964844" xlink:href="#DejaVuSans-6f"/>
     <use x="225.146484" xlink:href="#DejaVuSans-68"/>
     <use x="288.525391" xlink:href="#DejaVuSans-6e"/>
     <use x="351.904297" xlink:href="#DejaVuSans-20"/>
     <use x="383.691406" xlink:href="#DejaVuSans-31"/>
     <use x="447.314453" xlink:href="#DejaVuSans-36"/>
     <use x="510.9375" xlink:href="#DejaVuSans-2e"/>
     <use x="542.724609" xlink:href="#DejaVuSans-30"/>
     <use x="606.347656" xlink:href="#DejaVuSans-b0"/>
    </g>
   </g>
   <g id="text_20">
    <g id="patch_21">
     <path d="M 17.73307 179.749257 
L 30.804519 195.201835 
L 32.312868 193.925912 
L 19.241418 178.473334 
z
" style="fill:#ffffff;"/>
    </g>
    <!-- Lower Sunday 23.4° -->
    <g style="fill:#4169e1;" transform="translate(18.078816 179.482984)rotate(-310.228128)scale(0.02 -0.02)">
     <use xlink:href="#DejaVuSans-4c"/>
     <use x="53.962891" xlink:href="#DejaVuSans-6f"/>
     <use x="115.144531" xlink:href="#DejaVuSans-77"/>
     <use x="196.931641" xlink:href="#DejaVuSans-65"/>
     <use x="258.455078" xlink:href="#DejaVuSans-72"/>
     <use x="299.568359" xlink:href="#DejaVuSans-20"/>
     <use x="331.355469" xlink:href="#DejaVuSans-53"/>
     <use x="394.832031" xlink:href="#DejaVuSans-75"/>
     <use x="458.210938" xlink:href="#DejaVuSans-6e"/>
     <use x="521.589844" xlink:href="#DejaVuSans-64"/>
     <use x="585.066406" xlink:href="#DejaVuSans-61"/>
     <use x="646.345703" xlink:href="#DejaVuSans-79"/>
     <use x="705.525391" xlink:href="#DejaVuSans-20"/>
     <use x="737.3125" xlink:href="#DejaVuSans-32"/>
     <use x="800.935547" xlink:href="#DejaVuSans-33"/>
     <use x="864.558594" xlink:href="#DejaVuSans-2e"/>
     <use x="896.345703" xlink:href="#DejaVuSans-34"/>
     <use x="959.96875" xlink:href="#DejaVuSans-b0"/>
    </g>
   </g>
   <g id="text_21">
    <g id="patch_22">
     <path d="M 112.034699 29.754243 
L 123.946092 31.086134 
L 124.165631 29.122745 
L 112.254239 27.790854 
z
" style="fill:#ffffff;"/>
    </g>
    <!-- Moxie 19.8° -->
    <g style="fill:#4169e1;" transform="translate(112.103019 29.323228)rotate(-353.619884)scale(0.02 -0.02)">
     <defs>
      <path d="M 3513 3500 
L 2247 1797 
L 3578 0 
L 2900 0 
L 1881 1375 
L 863 0 
L 184 0 
L 1544 1831 
L 300 3500 
L 978 3500 
L 1906 2253 
L 2834 3500 
L 3513 3500 
z
" id="DejaVuSans-78" transform="scale(0.015625)"/>
     </defs>
     <use xlink:href="#DejaVuSans-4d"/>
     <use x="86.279297" xlink:href="#DejaVuSans-6f"/>
     <use x="144.335938" xlink:href="#DejaVuSans-78"/>
     <use x="203.515625" xlink:href="#DejaVuSans-69"/>
     <use x="231.298828" xlink:href="#DejaVuSans-65"/>
     <use x="292.822266" xlink:href="#DejaVuSans-20"/>
     <use x="324.609375" xlink:href="#DejaVuSans-31"/>
     <use x="388.232422" xlink:href="#DejaVuSans-39"/>
     <use x="451.855469" xlink:href="#DejaVuSans-2e"/>
     <use x="483.642578" xlink:href="#DejaVuSans-38"/>
     <use x="547.265625" xlink:href="#DejaVuSans-b0"/>
    </g>
   </g>
   <g id="text_22">
    <g id="patch_23">
     <path d="M 177.218882 128.114111 
L 179.546928 117.417011 
L 177.616491 116.996883 
L 175.288445 127.693984 
z
" style="fill:#ffffff;"/>
    </g>
    <!-- Saco 24.3° -->
    <g transform="translate(176.797169 128.001864)rotate(-77.721985)scale(0.02 -0.02)">
     <use xlink:href="#DejaVuSans-53"/>
     <use x="63.476562" xlink:href="#DejaVuSans-61"/>
     <use x="124.755859" xlink:href="#DejaVuSans-63"/>
     <use x="179.736328" xlink:href="#DejaVuSans-6f"/>
     <use x="240.917969" xlink:href="#DejaVuSans-20"/>
     <use x="272.705078" xlink:href="#DejaVuSans-32"/>
     <use x="336.328125" xlink:href="#DejaVuSans-34"/>
     <use x="399.951172" xlink:href="#DejaVuSans-2e"/>
     <use x="431.738281" xlink:href="#DejaVuSans-33"/>
     <use x="495.361328" xlink:href="#DejaVuSans-b0"/>
    </g>
   </g>
   <g id="text_23">
    <g id="patch_24">
     <path d="M 104.329961 161.504157 
L 111.432144 147.067156 
L 109.659415 146.195074 
L 102.557232 160.632075 
z
" style="fill:#ffffff;"/>
    </g>
    <!-- Bagaduce 19.1° -->
    <g style="fill:#4169e1;" transform="translate(103.947623 161.293779)rotate(-63.805437)scale(0.02 -0.02)">
     <use xlink:href="#DejaVuSans-42"/>
     <use x="68.603516" xlink:href="#DejaVuSans-61"/>
     <use x="129.882812" xlink:href="#DejaVuSans-67"/>
     <use x="193.359375" xlink:href="#DejaVuSans-61"/>
     <use x="254.638672" xlink:href="#DejaVuSans-64"/>
     <use x="318.115234" xlink:href="#DejaVuSans-75"/>
     <use x="381.494141" xlink:href="#DejaVuSans-63"/>
     <use x="436.474609" xlink:href="#DejaVuSans-65"/>
     <use x="497.998047" xlink:href="#DejaVuSans-20"/>
     <use x="529.785156" xlink:href="#DejaVuSans-31"/>
     <use x="593.408203" xlink:href="#DejaVuSans-39"/>
     <use x="657.03125" xlink:href="#DejaVuSans-2e"/>
     <use x="688.818359" xlink:href="#DejaVuSans-31"/>
     <use x="752.441406" xlink:href="#DejaVuSans-b0"/>
    </g>
   </g>
   <g id="text_24">
    <g id="patch_25">
     <path d="M 150.827158 80.120648 
L 161.621291 64.328 
L 159.990247 63.213196 
L 149.196114 79.005844 
z
" style="fill:#ffffff;"/>
    </g>
    <!-- Wisserunsett 23.4° -->
    <g style="fill:#4169e1;" transform="translate(150.478541 79.858146)rotate(-55.647742)scale(0.02 -0.02)">
     <defs>
      <path d="M 213 4666 
L 850 4666 
L 1831 722 
L 2809 4666 
L 3519 4666 
L 4500 722 
L 5478 4666 
L 6119 4666 
L 4947 0 
L 4153 0 
L 3169 4050 
L 2175 0 
L 1381 0 
L 213 4666 
z
" id="DejaVuSans-57" transform="scale(0.015625)"/>
     </defs>
     <use xlink:href="#DejaVuSans-57"/>
     <use x="96.626953" xlink:href="#DejaVuSans-69"/>
     <use x="124.410156" xlink:href="#DejaVuSans-73"/>
     <use x="176.509766" xlink:href="#DejaVuSans-73"/>
     <use x="228.609375" xlink:href="#DejaVuSans-65"/>
     <use x="290.132812" xlink:href="#DejaVuSans-72"/>
     <use x="331.246094" xlink:href="#DejaVuSans-75"/>
     <use x="394.625" xlink:href="#DejaVuSans-6e"/>
     <use x="458.003906" xlink:href="#DejaVuSans-73"/>
     <use x="510.103516" xlink:href="#DejaVuSans-65"/>
     <use x="571.626953" xlink:href="#DejaVuSans-74"/>
     <use x="610.835938" xlink:href="#DejaVuSans-74"/>
     <use x="650.044922" xlink:href="#DejaVuSans-20"/>
     <use x="681.832031" xlink:href="#DejaVuSans-32"/>
     <use x="745.455078" xlink:href="#DejaVuSans-33"/>
     <use x="809.078125" xlink:href="#DejaVuSans-2e"/>
     <use x="840.865234" xlink:href="#DejaVuSans-34"/>
     <use x="904.488281" xlink:href="#DejaVuSans-b0"/>
    </g>
   </g>
   <g id="text_25">
    <g id="patch_26">
     <path d="M 143.152722 129.836962 
L 143.520975 135.954639 
L 145.493031 135.835931 
L 145.124778 129.718255 
z
" style="fill:#ffffff;"/>
    </g>
    <!--  14.0° -->
    <g style="fill:#008000;" transform="translate(143.589074 129.830733)rotate(-273.444758)scale(0.02 -0.02)">
     <use xlink:href="#DejaVuSans-20"/>
     <use x="31.787109" xlink:href="#DejaVuSans-31"/>
     <use x="95.410156" xlink:href="#DejaVuSans-34"/>
     <use x="159.033203" xlink:href="#DejaVuSans-2e"/>
     <use x="190.820312" xlink:href="#DejaVuSans-30"/>
     <use x="254.443359" xlink:href="#DejaVuSans-b0"/>
    </g>
   </g>
   <g id="text_26">
    <g id="patch_27">
     <path d="M 49.326447 32.959736 
L 55.388807 33.859385 
L 55.678812 31.905161 
L 49.616452 31.005512 
z
" style="fill:#ffffff;"/>
    </g>
    <!--  17.9° -->
    <g style="fill:#4169e1;" transform="translate(49.410222 32.531457)rotate(-351.558967)scale(0.02 -0.02)">
     <use xlink:href="#DejaVuSans-20"/>
     <use x="31.787109" xlink:href="#DejaVuSans-31"/>
     <use x="95.410156" xlink:href="#DejaVuSans-37"/>
     <use x="159.033203" xlink:href="#DejaVuSans-2e"/>
     <use x="190.820312" xlink:href="#DejaVuSans-39"/>
     <use x="254.443359" xlink:href="#DejaVuSans-b0"/>
    </g>
   </g>
   <g id="text_27">
    <g id="patch_28">
     <path d="M 27.177008 76.933374 
L 31.225661 72.332288 
L 29.742484 71.02719 
L 25.693831 75.628276 
z
" style="fill:#ffffff;"/>
    </g>
    <!--  15.9° -->
    <g style="fill:#008000;" transform="translate(26.862945 76.630379)rotate(-48.654347)scale(0.02 -0.02)">
     <defs>
      <path d="M 691 4666 
L 3169 4666 
L 3169 4134 
L 1269 4134 
L 1269 2991 
Q 1406 3038 1543 3061 
Q 1681 3084 1819 3084 
Q 2600 3084 3056 2656 
Q 3513 2228 3513 1497 
Q 3513 744 3044 326 
Q 2575 -91 1722 -91 
Q 1428 -91 1123 -41 
Q 819 9 494 109 
L 494 744 
Q 775 591 1075 516 
Q 1375 441 1709 441 
Q 2250 441 2565 725 
Q 2881 1009 2881 1497 
Q 2881 1984 2565 2268 
Q 2250 2553 1709 2553 
Q 1456 2553 1204 2497 
Q 953 2441 691 2322 
L 691 4666 
z
" id="DejaVuSans-35" transform="scale(0.015625)"/>
     </defs>
     <use xlink:href="#DejaVuSans-20"/>
     <use x="31.787109" xlink:href="#DejaVuSans-31"/>
     <use x="95.410156" xlink:href="#DejaVuSans-35"/>
     <use x="159.033203" xlink:href="#DejaVuSans-2e"/>
     <use x="190.820312" xlink:href="#DejaVuSans-39"/>
     <use x="254.443359" xlink:href="#DejaVuSans-b0"/>
    </g>
   </g>
   <g id="text_28">
    <g id="patch_29">
     <path d="M 48.232108 49.364564 
L 50.56362 43.696616 
L 48.736537 42.945045 
L 46.405024 48.612992 
z
" style="fill:#ffffff;"/>
    </g>
    <!--  16.3° -->
    <g style="fill:#008000;" transform="translate(47.836555 49.180227)rotate(-67.640162)scale(0.02 -0.02)">
     <use xlink:href="#DejaVuSans-20"/>
     <use x="31.787109" xlink:href="#DejaVuSans-31"/>
     <use x="95.410156" xlink:href="#DejaVuSans-36"/>
     <use x="159.033203" xlink:href="#DejaVuSans-2e"/>
     <use x="190.820312" xlink:href="#DejaVuSans-33"/>
     <use x="254.443359" xlink:href="#DejaVuSans-b0"/>
    </g>
   </g>
   <g id="text_29">
    <!-- Black Mountain, ME -->
    <g transform="translate(31.512526 13.920538)scale(0.13 -0.13)">
     <defs>
      <path d="M 750 794 
L 1409 794 
L 1409 256 
L 897 -744 
L 494 -744 
L 750 256 
L 750 794 
z
" id="DejaVuSans-2c" transform="scale(0.015625)"/>
     </defs>
     <use xlink:href="#DejaVuSans-42"/>
     <use x="68.603516" xlink:href="#DejaVuSans-6c"/>
     <use x="96.386719" xlink:href="#DejaVuSans-61"/>
     <use x="157.666016" xlink:href="#DejaVuSans-63"/>
     <use x="212.646484" xlink:href="#DejaVuSans-6b"/>
     <use x="270.556641" xlink:href="#DejaVuSans-20"/>
     <use x="302.34375" xlink:href="#DejaVuSans-4d"/>
     <use x="388.623047" xlink:href="#DejaVuSans-6f"/>
     <use x="449.804688" xlink:href="#DejaVuSans-75"/>
     <use x="513.183594" xlink:href="#DejaVuSans-6e"/>
     <use x="576.5625" xlink:href="#DejaVuSans-74"/>
     <use x="615.771484" xlink:href="#DejaVuSans-61"/>
     <use x="677.050781" xlink:href="#DejaVuSans-69"/>
     <use x="704.833984" xlink:href="#DejaVuSans-6e"/>
     <use x="768.212891" xlink:href="#DejaVuSans-2c"/>
     <use x="800" xlink:href="#DejaVuSans-20"/>
     <use x="831.787109" xlink:href="#DejaVuSans-4d"/>
     <use x="918.066406" xlink:href="#DejaVuSans-45"/>
    </g>
   </g>
   <g id="legend_1">
    <g id="line2d_38">
     <path d="M 4.290221 202.067353 
L 17.290221 202.067353 
" style="fill:none;stroke:#008000;stroke-linecap:square;stroke-width:1.5;"/>
    </g>
    <g id="line2d_39"/>
    <g id="text_30">
     <!-- Easy -->
     <g transform="translate(22.490221 204.342353)scale(0.065 -0.065)">
      <use xlink:href="#DejaVuSans-45"/>
      <use x="63.183594" xlink:href="#DejaVuSans-61"/>
      <use x="124.462891" xlink:href="#DejaVuSans-73"/>
      <use x="176.5625" xlink:href="#DejaVuSans-79"/>
     </g>
    </g>
    <g id="line2d_40">
     <path d="M 4.290221 211.608135 
L 17.290221 211.608135 
" style="fill:none;stroke:#4169e1;stroke-linecap:square;stroke-width:1.5;"/>
    </g>
    <g id="line2d_41"/>
    <g id="text_31">
     <!-- Intermediate -->
     <g transform="translate(22.490221 213.883135)scale(0.065 -0.065)">
      <defs>
       <path d="M 628 4666 
L 1259 4666 
L 1259 0 
L 628 0 
L 628 4666 
z
" id="DejaVuSans-49" transform="scale(0.015625)"/>
      </defs>
      <use xlink:href="#DejaVuSans-49"/>
      <use x="29.492188" xlink:href="#DejaVuSans-6e"/>
      <use x="92.871094" xlink:href="#DejaVuSans-74"/>
      <use x="132.080078" xlink:href="#DejaVuSans-65"/>
      <use x="193.603516" xlink:href="#DejaVuSans-72"/>
      <use x="232.966797" xlink:href="#DejaVuSans-6d"/>
      <use x="330.378906" xlink:href="#DejaVuSans-65"/>
      <use x="391.902344" xlink:href="#DejaVuSans-64"/>
      <use x="455.378906" xlink:href="#DejaVuSans-69"/>
      <use x="483.162109" xlink:href="#DejaVuSans-61"/>
      <use x="544.441406" xlink:href="#DejaVuSans-74"/>
      <use x="583.650391" xlink:href="#DejaVuSans-65"/>
     </g>
    </g>
    <g id="line2d_42">
     <path d="M 77.427409 202.067353 
L 90.427409 202.067353 
" style="fill:none;stroke:#000000;stroke-linecap:square;stroke-width:1.5;"/>
    </g>
    <g id="line2d_43"/>
    <g id="text_32">
     <!-- Advanced -->
     <g transform="translate(95.627409 204.342353)scale(0.065 -0.065)">
      <use xlink:href="#DejaVuSans-41"/>
      <use x="66.658203" xlink:href="#DejaVuSans-64"/>
      <use x="130.134766" xlink:href="#DejaVuSans-76"/>
      <use x="189.314453" xlink:href="#DejaVuSans-61"/>
      <use x="250.59375" xlink:href="#DejaVuSans-6e"/>
      <use x="313.972656" xlink:href="#DejaVuSans-63"/>
      <use x="368.953125" xlink:href="#DejaVuSans-65"/>
      <use x="430.476562" xlink:href="#DejaVuSans-64"/>
     </g>
    </g>
    <g id="line2d_44">
     <path d="M 77.427409 211.608135 
L 90.427409 211.608135 
" style="fill:none;stroke:#ff0000;stroke-linecap:square;stroke-width:1.5;"/>
    </g>
    <g id="line2d_45"/>
    <g id="text_33">
     <!-- Expert -->
     <g transform="translate(95.627409 213.883135)scale(0.065 -0.065)">
      <use xlink:href="#DejaVuSans-45"/>
      <use x="63.183594" xlink:href="#DejaVuSans-78"/>
      <use x="122.363281" xlink:href="#DejaVuSans-70"/>
      <use x="185.839844" xlink:href="#DejaVuSans-65"/>
      <use x="247.363281" xlink:href="#DejaVuSans-72"/>
      <use x="288.476562" xlink:href="#DejaVuSans-74"/>
     </g>
    </g>
    <g id="line2d_46">
     <path d="M 140.736393 202.067353 
L 153.736393 202.067353 
" style="fill:none;stroke:#ffd700;stroke-linecap:square;stroke-width:1.5;"/>
    </g>
    <g id="line2d_47"/>
    <g id="text_34">
     <!-- Extreme -->
     <g transform="translate(158.936393 204.342353)scale(0.065 -0.065)">
      <use xlink:href="#DejaVuSans-45"/>
      <use x="63.183594" xlink:href="#DejaVuSans-78"/>
      <use x="122.363281" xlink:href="#DejaVuSans-74"/>
      <use x="161.572266" xlink:href="#DejaVuSans-72"/>
      <use x="200.435547" xlink:href="#DejaVuSans-65"/>
      <use x="261.958984" xlink:href="#DejaVuSans-6d"/>
      <use x="359.371094" xlink:href="#DejaVuSans-65"/>
     </g>
    </g>
    <g id="line2d_48">
     <path d="M 140.736393 211.608135 
L 153.736393 211.608135 
" style="fill:none;stroke:#000000;stroke-dasharray:1.5,2.475;stroke-dashoffset:0;stroke-width:1.5;"/>
    </g>
    <g id="line2d_49"/>
    <g id="text_35">
     <!-- Gladed -->
     <g transform="translate(158.936393 213.883135)scale(0.065 -0.065)">
      <defs>
       <path d="M 3809 666 
L 3809 1919 
L 2778 1919 
L 2778 2438 
L 4434 2438 
L 4434 434 
Q 4069 175 3628 42 
Q 3188 -91 2688 -91 
Q 1594 -91 976 548 
Q 359 1188 359 2328 
Q 359 3472 976 4111 
Q 1594 4750 2688 4750 
Q 3144 4750 3555 4637 
Q 3966 4525 4313 4306 
L 4313 3634 
Q 3963 3931 3569 4081 
Q 3175 4231 2741 4231 
Q 1884 4231 1454 3753 
Q 1025 3275 1025 2328 
Q 1025 1384 1454 906 
Q 1884 428 2741 428 
Q 3075 428 3337 486 
Q 3600 544 3809 666 
z
" id="DejaVuSans-47" transform="scale(0.015625)"/>
      </defs>
      <use xlink:href="#DejaVuSans-47"/>
      <use x="77.490234" xlink:href="#DejaVuSans-6c"/>
      <use x="105.273438" xlink:href="#DejaVuSans-61"/>
      <use x="166.552734" xlink:href="#DejaVuSans-64"/>
      <use x="230.029297" xlink:href="#DejaVuSans-65"/>
      <use x="291.552734" xlink:href="#DejaVuSans-64"/>
     </g>
    </g>
   </g>
  </g>
  <g id="text_36">
   <!-- Sources: USGS and OpenStreetMaps -->
   <g transform="translate(43.733895 223.619489)scale(0.056522 -0.056522)">
    <defs>
     <path d="M 750 794 
L 1409 794 
L 1409 0 
L 750 0 
L 750 794 
z
M 750 3309 
L 1409 3309 
L 1409 2516 
L 750 2516 
L 750 3309 
z
" id="DejaVuSans-3a" transform="scale(0.015625)"/>
     <path d="M 2522 4238 
Q 1834 4238 1429 3725 
Q 1025 3213 1025 2328 
Q 1025 1447 1429 934 
Q 1834 422 2522 422 
Q 3209 422 3611 934 
Q 4013 1447 4013 2328 
Q 4013 3213 3611 3725 
Q 3209 4238 2522 4238 
z
M 2522 4750 
Q 3503 4750 4090 4092 
Q 4678 3434 4678 2328 
Q 4678 1225 4090 567 
Q 3503 -91 2522 -91 
Q 1538 -91 948 565 
Q 359 1222 359 2328 
Q 359 3434 948 4092 
Q 1538 4750 2522 4750 
z
" id="DejaVuSans-4f" transform="scale(0.015625)"/>
    </defs>
    <use xlink:href="#DejaVuSans-53"/>
    <use x="63.476562" xlink:href="#DejaVuSans-6f"/>
    <use x="124.658203" xlink:href="#DejaVuSans-75"/>
    <use x="188.037109" xlink:href="#DejaVuSans-72"/>
    <use x="226.900391" xlink:href="#DejaVuSans-63"/>
    <use x="281.880859" xlink:href="#DejaVuSans-65"/>
    <use x="343.404297" xlink:href="#DejaVuSans-73"/>
    <use x="395.503906" xlink:href="#DejaVuSans-3a"/>
    <use x="429.195312" xlink:href="#DejaVuSans-20"/>
    <use x="460.982422" xlink:href="#DejaVuSans-55"/>
    <use x="534.175781" xlink:href="#DejaVuSans-53"/>
    <use x="597.652344" xlink:href="#DejaVuSans-47"/>
    <use x="675.142578" xlink:href="#DejaVuSans-53"/>
    <use x="738.619141" xlink:href="#DejaVuSans-20"/>
    <use x="770.40625" xlink:href="#DejaVuSans-61"/>
    <use x="831.685547" xlink:href="#DejaVuSans-6e"/>
    <use x="895.064453" xlink:href="#DejaVuSans-64"/>
    <use x="958.541016" xlink:href="#DejaVuSans-20"/>
    <use x="990.328125" xlink:href="#DejaVuSans-4f"/>
    <use x="1069.039062" xlink:href="#DejaVuSans-70"/>
    <use x="1132.515625" xlink:href="#DejaVuSans-65"/>
    <use x="1194.039062" xlink:href="#DejaVuSans-6e"/>
    <use x="1257.417969" xlink:href="#DejaVuSans-53"/>
    <use x="1320.894531" xlink:href="#DejaVuSans-74"/>
    <use x="1360.103516" xlink:href="#DejaVuSans-72"/>
    <use x="1398.966797" xlink:href="#DejaVuSans-65"/>
    <use x="1460.490234" xlink:href="#DejaVuSans-65"/>
    <use x="1522.013672" xlink:href="#DejaVuSans-74"/>
    <use x="1561.222656" xlink:href="#DejaVuSans-4d"/>
    <use x="1647.501953" xlink:href="#DejaVuSans-61"/>
    <use x="1708.78125" xlink:href="#DejaVuSans-70"/>
    <use x="1772.257812" xlink:href="#DejaVuSans-73"/>
   </g>
  </g>
 </g>
 <defs>
  <clipPath id="pafea8818de">
   <rect height="183.953888" width="190.585521" x="0" y="20.420538"/>
  </clipPath>
 </defs>
</svg>
