<?xml version="1.0" encoding="utf-8" standalone="no"?>
<!DOCTYPE svg PUBLIC "-//W3C//DTD SVG 1.1//EN"
  "http://www.w3.org/Graphics/SVG/1.1/DTD/svg11.dtd">
<svg height="138.09706pt" version="1.1" viewBox="0 0 105.571679 138.09706" width="105.571679pt" xmlns="http://www.w3.org/2000/svg" xmlns:xlink="http://www.w3.org/1999/xlink">
 <metadata>
  <rdf:RDF xmlns:cc="http://creativecommons.org/ns#" xmlns:dc="http://purl.org/dc/elements/1.1/" xmlns:rdf="http://www.w3.org/1999/02/22-rdf-syntax-ns#">
   <cc:Work>
    <dc:type rdf:resource="http://purl.org/dc/dcmitype/StillImage"/>
    <dc:date>2022-04-14T21:27:57.876086</dc:date>
    <dc:format>image/svg+xml</dc:format>
    <dc:creator>
     <cc:Agent>
      <dc:title>Matplotlib v3.4.3, https://matplotlib.org/</dc:title>
     </cc:Agent>
    </dc:creator>
   </cc:Work>
  </rdf:RDF>
 </metadata>
 <defs>
  <style type="text/css">*{stroke-linecap:butt;stroke-linejoin:round;}</style>
 </defs>
 <g id="figure_1">
  <g id="patch_1">
   <path d="M 0 138.09706 
L 105.571679 138.09706 
L 105.571679 0 
L 0 0 
z
" style="fill:#ffffff;"/>
  </g>
  <g id="axes_1">
   <g id="line2d_1">
    <path clip-path="url(#p437c0b72be)" d="M 58.222349 45.434805 
" style="fill:none;stroke:#008000;stroke-linecap:square;stroke-width:1.5;"/>
   </g>
   <g id="line2d_2">
    <path clip-path="url(#p437c0b72be)" d="M 58.222349 45.434805 
" style="fill:none;stroke:#4169e1;stroke-linecap:square;stroke-width:1.5;"/>
   </g>
   <g id="line2d_3">
    <path clip-path="url(#p437c0b72be)" d="M 58.222349 45.434805 
" style="fill:none;stroke:#000000;stroke-linecap:square;stroke-width:1.5;"/>
   </g>
   <g id="line2d_4">
    <path clip-path="url(#p437c0b72be)" d="M 58.222349 45.434805 
" style="fill:none;stroke:#ff0000;stroke-linecap:square;stroke-width:1.5;"/>
   </g>
   <g id="line2d_5">
    <path clip-path="url(#p437c0b72be)" d="M 58.222349 45.434805 
" style="fill:none;stroke:#ffd700;stroke-linecap:square;stroke-width:1.5;"/>
   </g>
   <g id="line2d_6">
    <path clip-path="url(#p437c0b72be)" d="M 58.222349 45.434805 
" style="fill:none;stroke:#000000;stroke-dasharray:1.5,2.475;stroke-dashoffset:0;stroke-width:1.5;"/>
   </g>
   <g id="line2d_7">
    <path clip-path="url(#p437c0b72be)" d="M 48.245653 121.934745 
L 49.094687 120.445558 
L 52.100701 115.178119 
L 54.62846 110.749334 
L 57.319578 106.03262 
L 60.010696 101.315906 
L 63.077969 95.940045 
L 66.145241 90.564183 
L 67.905645 87.478825 
L 69.666049 84.393467 
L 70.696713 82.586913 
L 72.634447 79.191008 
L 74.572181 75.795104 
L 76.509915 72.399199 
L 78.447649 69.003295 
L 80.187633 65.95312 
L 81.927617 62.902945 
L 84.158752 58.991856 
L 86.389886 55.080768 
L 89.46092 49.698444 
L 92.531955 44.31612 
L 93.686212 42.292723 
L 95.909286 38.396713 
L 98.13236 34.500703 
" style="fill:none;stroke:#808080;stroke-linecap:square;stroke-width:1.5;"/>
   </g>
   <g id="line2d_8">
    <path clip-path="url(#p437c0b72be)" d="M 22.611249 115.775517 
L 24.386699 112.961572 
L 26.162149 110.147628 
L 28.064954 107.132636 
L 29.967759 104.117644 
L 32.089272 100.75441 
L 34.210784 97.391176 
L 36.474161 93.804635 
L 38.737537 90.218095 
L 40.985867 86.654531 
L 43.234198 83.090967 
L 45.62278 79.305533 
L 48.011362 75.5201 
L 50.23981 71.988847 
L 52.468257 68.457595 
L 54.444144 65.325565 
L 56.420031 62.193535 
L 58.801627 58.418153 
L 61.574425 54.023833 
L 64.347222 49.629514 
" style="fill:none;stroke:#808080;stroke-linecap:square;stroke-width:1.5;"/>
   </g>
   <g id="line2d_9">
    <path clip-path="url(#p437c0b72be)" d="M 34.751372 118.6189 
L 38.3415 116.657971 
L 41.931628 114.697041 
" style="fill:none;stroke:#808080;stroke-linecap:square;stroke-width:1.5;"/>
   </g>
   <g id="line2d_10">
    <path clip-path="url(#p437c0b72be)" d="M 7.776783 108.438726 
L 11.988641 105.943585 
L 16.200498 103.448444 
" style="fill:none;stroke:#808080;stroke-linecap:square;stroke-width:1.5;"/>
   </g>
   <g id="line2d_11">
    <path clip-path="url(#p437c0b72be)" d="M 58.222349 45.434805 
L 57.02564 44.741192 
L 55.828931 44.047578 
L 54.632222 43.353965 
L 53.435512 42.660352 
L 52.520247 41.80267 
L 51.604982 40.944987 
L 50.689718 40.087305 
L 49.774453 39.229623 
L 48.859188 38.371941 
L 47.943923 37.514259 
L 47.028658 36.656576 
L 46.113393 35.798894 
L 44.740697 35.573075 
L 43.368001 35.347256 
L 41.995305 35.121437 
L 40.622609 34.895617 
L 39.558763 35.223037 
L 38.494917 35.550457 
L 37.431071 35.877877 
L 36.367225 36.205297 
L 35.303379 36.532717 
L 34.239533 36.860137 
L 33.175687 37.187557 
L 32.111841 37.514977 
L 31.127928 37.661634 
L 30.144015 37.80829 
L 29.160102 37.954947 
L 28.176188 38.101604 
L 27.192275 38.248261 
L 26.208362 38.394918 
L 25.224449 38.541575 
L 24.240536 38.688231 
L 23.508378 39.703879 
L 22.776219 40.719527 
L 22.044061 41.735175 
L 21.311903 42.750823 
L 20.945958 44.534041 
L 20.580013 46.317259 
L 20.214069 48.100477 
L 19.848124 49.883695 
L 19.8938 50.978326 
L 19.939476 52.072956 
L 19.985152 53.167587 
L 20.030828 54.262218 
L 20.076504 55.356849 
L 20.122179 56.45148 
L 20.167855 57.546111 
L 20.213531 58.640741 
L 19.847452 60.186831 
L 19.481373 61.732921 
L 19.115294 63.279011 
L 18.749215 64.8251 
L 18.383136 66.37119 
L 18.017057 67.91728 
L 17.650978 69.46337 
L 17.284898 71.00946 
L 17.353547 72.510314 
L 17.422195 74.011168 
L 17.490843 75.512022 
L 17.559491 77.012876 
L 17.62814 78.51373 
L 17.696788 80.014584 
L 17.765436 81.515438 
L 17.834084 83.016292 
L 18.063673 84.125822 
L 18.293262 85.235352 
L 18.52285 86.344882 
L 18.752439 87.454412 
L 18.982028 88.563942 
L 19.211616 89.673472 
L 19.441205 90.783002 
L 19.670794 91.892531 
L 20.015781 92.841942 
L 20.360769 93.791352 
L 20.705757 94.740762 
L 21.050744 95.690172 
L 21.395732 96.639582 
L 21.740719 97.588992 
L 22.085707 98.538402 
L 22.430694 99.487812 
" style="fill:none;stroke:#008000;stroke-linecap:square;stroke-width:1.5;"/>
   </g>
   <g id="line2d_12">
    <path clip-path="url(#p437c0b72be)" d="M 94.409504 38.728441 
L 93.139713 38.875277 
L 91.869922 39.022114 
L 90.600132 39.16895 
L 89.330341 39.315786 
L 88.06055 39.462623 
L 86.79076 39.609459 
L 85.520969 39.756295 
L 84.251178 39.903132 
L 82.958415 40.128771 
L 81.665652 40.354411 
L 80.372889 40.580051 
L 79.080126 40.80569 
L 77.787363 41.03133 
L 76.4946 41.25697 
L 75.201837 41.48261 
L 73.909074 41.708249 
L 72.124489 42.227382 
L 70.339903 42.746515 
L 68.555318 43.265648 
L 66.770733 43.784781 
L 64.940472 44.145948 
L 63.110211 44.507115 
L 61.279949 44.868282 
L 59.449688 45.229449 
" style="fill:none;stroke:#000000;stroke-linecap:square;stroke-width:1.5;"/>
   </g>
   <g id="line2d_13">
    <path clip-path="url(#p437c0b72be)" d="M 100.772966 29.025036 
L 100.355166 27.766695 
L 99.937366 26.508354 
L 99.519565 25.250013 
L 99.101765 23.991673 
L 98.139346 23.342218 
L 97.176928 22.692763 
L 96.214509 22.043309 
L 95.25209 21.393854 
L 93.885574 21.07146 
L 92.519058 20.749067 
L 91.152542 20.426673 
L 89.786026 20.104279 
L 88.592003 20.574586 
L 87.397981 21.044893 
L 86.203958 21.5152 
L 85.009936 21.985508 
L 84.00211 22.760258 
L 82.994284 23.535008 
L 81.986458 24.309758 
L 80.978632 25.084508 
L 80.197843 25.926394 
L 79.417053 26.76828 
L 78.636264 27.610165 
L 77.855474 28.452051 
L 76.257354 28.41615 
L 75.013357 27.484511 
L 73.769359 26.552872 
L 72.525362 25.621233 
L 71.281365 24.689594 
L 69.756058 23.543265 
L 68.23075 22.396937 
L 66.705443 21.250608 
L 65.180136 20.104279 
L 63.636558 19.754959 
L 62.092981 19.40564 
L 60.549403 19.05632 
L 59.005826 18.707 
L 57.988865 18.388915 
L 56.971904 18.070829 
L 55.954943 17.752744 
L 54.937982 17.434658 
L 53.921021 17.116572 
L 52.90406 16.798487 
L 51.887098 16.480401 
L 50.870137 16.162316 
L 49.789767 16.699758 
L 48.709398 17.237201 
L 47.629028 17.774643 
L 46.548658 18.312086 
L 45.699623 19.234749 
L 44.850588 20.157413 
L 44.001553 21.080077 
L 43.152518 22.00274 
L 42.303483 22.925404 
L 41.454449 23.848067 
L 40.605414 24.770731 
L 39.756379 25.693394 
L 38.739686 25.988862 
L 37.722994 26.28433 
L 36.706302 26.579798 
L 35.689609 26.875266 
L 34.173169 27.81588 
L 32.656728 28.756494 
L 31.140287 29.697108 
L 29.623847 30.637722 
L 28.690177 31.807028 
L 27.756507 32.976334 
L 26.822838 34.145639 
L 25.889168 35.314945 
" style="fill:none;stroke:#000000;stroke-linecap:square;stroke-width:1.5;"/>
   </g>
   <g id="line2d_14">
    <path clip-path="url(#p437c0b72be)" d="M 39.819788 75.80731 
L 39.0304 76.659428 
L 38.241013 77.511545 
L 37.451625 78.363663 
L 36.662238 79.21578 
L 35.87285 80.067898 
L 35.083463 80.920015 
L 34.294076 81.772133 
L 33.504688 82.62425 
L 32.497937 84.204087 
L 31.491186 85.783924 
L 30.484435 87.363761 
L 29.477684 88.943598 
L 28.470933 90.523435 
L 27.464181 92.103272 
L 26.45743 93.683109 
L 25.450679 95.262946 
L 24.901762 96.188482 
L 24.352845 97.114017 
L 23.803928 98.039553 
L 23.255011 98.965089 
" style="fill:none;stroke:#008000;stroke-linecap:square;stroke-width:1.5;"/>
   </g>
   <g id="line2d_15">
    <path clip-path="url(#p437c0b72be)" d="M 92.425557 43.526291 
L 91.407521 43.65051 
L 90.389485 43.774728 
L 89.371449 43.898947 
L 88.353414 44.023166 
L 87.049232 44.880848 
L 85.74505 45.73853 
L 84.440868 46.596212 
L 83.136686 47.453894 
" style="fill:none;stroke:#ff0000;stroke-linecap:square;stroke-width:1.5;"/>
   </g>
   <g id="line2d_16">
    <path clip-path="url(#p437c0b72be)" d="M 98.50744 39.005599 
L 98.593956 40.398929 
L 98.680472 41.792258 
L 98.766987 43.185588 
L 98.853503 44.578918 
L 98.276911 45.773354 
L 97.70032 46.967791 
L 97.123729 48.162227 
L 96.547137 49.356664 
L 94.990394 50.067509 
L 93.433651 50.778355 
L 91.833919 50.508018 
L 90.234187 50.237682 
L 88.634455 49.967345 
L 87.034723 49.697008 
L 85.737526 49.470112 
L 84.44033 49.243215 
" style="fill:none;stroke:#008000;stroke-linecap:square;stroke-width:1.5;"/>
   </g>
   <g id="line2d_17">
    <path clip-path="url(#p437c0b72be)" d="M 80.75079 48.559655 
L 79.280563 48.474568 
L 77.810335 48.389482 
L 76.340108 48.304396 
L 74.869881 48.21931 
L 73.082608 48.404202 
L 71.295336 48.589094 
L 69.508064 48.773985 
L 67.720792 48.958877 
L 66.798273 48.624636 
L 65.875754 48.290395 
L 64.953234 47.956154 
L 64.030715 47.621912 
L 63.108195 47.287671 
L 62.185676 46.95343 
L 61.263157 46.619189 
L 60.340637 46.284948 
" style="fill:none;stroke:#008000;stroke-linecap:square;stroke-width:1.5;"/>
   </g>
   <g id="line2d_18">
    <path clip-path="url(#p437c0b72be)" d="M 82.270455 49.854974 
L 81.634888 51.583622 
L 80.999321 53.31227 
L 80.363754 55.040917 
L 79.728187 56.769565 
L 79.09262 58.498213 
L 78.457053 60.226861 
L 77.821486 61.955509 
L 77.185919 63.684157 
L 76.677438 64.745579 
L 76.168958 65.807001 
L 75.660477 66.868423 
L 75.151997 67.929845 
L 74.643516 68.991268 
L 74.135035 70.05269 
L 73.626555 71.114112 
L 73.118074 72.175534 
L 72.609594 73.236956 
L 72.101113 74.298378 
L 71.592633 75.3598 
L 71.084152 76.421222 
L 70.575672 77.482645 
L 70.067191 78.544067 
L 69.558711 79.605489 
L 69.05023 80.666911 
L 68.641699 81.652222 
L 68.233169 82.637534 
L 67.824638 83.622845 
L 67.416107 84.608156 
L 67.007576 85.593468 
L 66.599045 86.578779 
L 66.190514 87.56409 
L 65.781984 88.549402 
L 65.391589 89.946681 
L 65.001194 91.343959 
L 64.610799 92.741238 
L 64.220404 94.138517 
L 63.830009 95.535796 
L 63.439615 96.933075 
L 63.04922 98.330354 
L 62.658825 99.727633 
L 62.014123 100.891912 
L 61.369421 102.056191 
L 60.724718 103.220471 
L 60.080016 104.38475 
L 59.435314 105.549029 
L 58.790612 106.713309 
L 58.145909 107.877588 
L 57.501207 109.041868 
" style="fill:none;stroke:#4169e1;stroke-linecap:square;stroke-width:1.5;"/>
   </g>
   <g id="line2d_19">
    <path clip-path="url(#p437c0b72be)" d="M 56.998234 86.762953 
L 56.94114 87.89151 
L 56.884045 89.020068 
L 56.82695 90.148625 
L 56.769855 91.277183 
L 56.71276 92.405741 
L 56.655665 93.534298 
L 56.59857 94.662856 
L 56.541475 95.791413 
L 56.324112 96.919791 
L 56.106748 98.048169 
L 55.889384 99.176548 
L 55.672021 100.304926 
L 55.454657 101.433304 
L 55.237293 102.561682 
L 55.01993 103.69006 
L 54.802566 104.818438 
L 54.207704 105.834086 
L 53.612842 106.849734 
L 53.017981 107.865382 
L 52.423119 108.88103 
" style="fill:none;stroke:#008000;stroke-linecap:square;stroke-width:1.5;"/>
   </g>
   <g id="line2d_20">
    <path clip-path="url(#p437c0b72be)" d="M 46.565853 95.610471 
L 46.543015 96.897174 
L 46.520177 98.183876 
L 46.497339 99.470579 
L 46.474501 100.757282 
L 46.405719 101.795189 
L 46.336936 102.833096 
L 46.268154 103.871002 
L 46.199371 104.908909 
L 45.627347 106.150376 
L 45.055324 107.391843 
L 44.4833 108.633311 
L 43.911276 109.874778 
" style="fill:none;stroke:#008000;stroke-linecap:square;stroke-width:1.5;"/>
   </g>
   <g id="line2d_21">
    <path clip-path="url(#p437c0b72be)" d="M 77.329932 50.390621 
L 76.757908 51.270921 
L 76.185885 52.151221 
L 75.613861 53.031521 
L 75.041837 53.911821 
L 74.469813 54.792121 
L 73.897789 55.672421 
L 73.325766 56.552721 
L 72.753742 57.433021 
L 72.090366 59.125768 
L 71.426991 60.818515 
L 70.763615 62.511261 
L 70.100239 64.204008 
L 69.653959 65.072999 
L 69.207678 65.94199 
L 68.761397 66.810981 
L 68.315117 67.679972 
L 67.868836 68.548963 
L 67.422555 69.417955 
L 66.976275 70.286946 
L 66.529994 71.155937 
" style="fill:none;stroke:#000000;stroke-linecap:square;stroke-width:1.5;"/>
   </g>
   <g id="line2d_22">
    <path clip-path="url(#p437c0b72be)" d="M 62.093518 55.314844 
L 61.444316 56.313619 
L 60.795113 57.312393 
L 60.14591 58.311167 
L 59.496708 59.309942 
L 58.847505 60.308716 
L 58.198302 61.30749 
L 57.5491 62.306265 
L 56.899897 63.305039 
L 56.250694 64.303814 
L 55.601492 65.302588 
L 54.952289 66.301362 
L 54.303086 67.300137 
L 53.653884 68.298911 
L 53.004681 69.297685 
L 52.355478 70.29646 
L 51.706276 71.295234 
L 50.870943 72.566858 
L 50.035611 73.838482 
L 49.200279 75.110107 
L 48.364947 76.381731 
" style="fill:none;stroke:#4169e1;stroke-linecap:square;stroke-width:1.5;"/>
   </g>
   <g id="line2d_23">
    <path clip-path="url(#p437c0b72be)" d="M 46.838834 79.176289 
L 46.203267 80.251174 
L 45.5677 81.326059 
L 44.932133 82.400944 
L 44.296566 83.475829 
L 43.660999 84.550714 
L 43.025432 85.625599 
L 42.389865 86.700485 
L 41.754298 87.77537 
L 41.018915 88.97555 
L 40.283533 90.175731 
L 39.54815 91.375912 
L 38.812768 92.576092 
L 38.077386 93.776273 
L 37.342003 94.976454 
L 36.606621 96.176634 
L 35.871238 97.376815 
L 34.935957 98.962217 
L 34.000675 100.547618 
L 33.065393 102.13302 
L 32.130111 103.718422 
L 31.19483 105.303823 
L 30.259548 106.889225 
L 29.324266 108.474627 
L 28.388985 110.060029 
" style="fill:none;stroke:#008000;stroke-linecap:square;stroke-width:1.5;"/>
   </g>
   <g id="line2d_24">
    <path clip-path="url(#p437c0b72be)" d="M 67.412345 51.456172 
L 67.063462 52.500002 
L 66.714578 53.543833 
L 66.365695 54.587663 
L 66.016812 55.631494 
L 65.667928 56.675324 
L 65.319045 57.719155 
L 64.970161 58.762985 
L 64.621278 59.806816 
L 64.272394 60.850646 
L 63.923511 61.894477 
L 63.574627 62.938307 
L 63.225744 63.982138 
L 62.87686 65.025968 
L 62.527977 66.069799 
L 62.179093 67.113629 
L 61.83021 68.15746 
L 60.800621 69.737476 
L 59.771032 71.317493 
L 58.741443 72.897509 
L 57.711854 74.477526 
L 56.682265 76.057542 
L 55.652675 77.637559 
L 54.623086 79.217575 
L 53.593497 80.797592 
L 52.678232 82.309755 
L 51.762967 83.821918 
L 50.847703 85.334081 
L 49.932438 86.846244 
L 49.017173 88.358407 
L 48.101908 89.87057 
L 47.186643 91.382733 
L 46.271378 92.894896 
L 44.898682 93.775196 
L 43.525986 94.655496 
L 42.15329 95.535796 
L 40.780594 96.416096 
" style="fill:none;stroke:#008000;stroke-linecap:square;stroke-width:1.5;"/>
   </g>
   <g id="line2d_25">
    <path clip-path="url(#p437c0b72be)" d="M 34.465495 72.040545 
L 32.955502 71.882579 
L 31.44551 71.724614 
L 29.935518 71.566648 
L 28.425525 71.408682 
L 27.007153 72.446948 
L 25.588782 73.485214 
L 24.17041 74.523479 
L 22.752038 75.561745 
L 21.836639 76.644888 
L 20.921239 77.72803 
L 20.00584 78.811172 
L 19.090441 79.894315 
" style="fill:none;stroke:#008000;stroke-linecap:square;stroke-width:1.5;"/>
   </g>
   <g id="line2d_26">
    <path clip-path="url(#p437c0b72be)" d="M 53.669803 55.307664 
L 52.598434 55.424164 
L 51.527065 55.540664 
L 50.455696 55.657163 
L 49.384326 55.773663 
L 48.312957 55.890163 
L 47.241588 56.006663 
L 46.170219 56.123162 
L 45.09885 56.239662 
L 44.517691 57.162326 
L 43.936532 58.084989 
L 43.355373 59.007653 
L 42.774214 59.930316 
L 42.193055 60.85298 
L 41.611896 61.775644 
L 41.030737 62.698307 
L 40.449578 63.620971 
L 40.059183 64.677905 
L 39.668789 65.73484 
L 39.278394 66.791774 
L 38.887999 67.848709 
L 38.497604 68.905643 
L 38.107209 69.962577 
L 37.716814 71.019512 
L 37.32642 72.076446 
" style="fill:none;stroke:#4169e1;stroke-linecap:square;stroke-width:1.5;"/>
   </g>
   <g id="line2d_27">
    <path clip-path="url(#p437c0b72be)" d="M 15.061287 101.621785 
L 13.778465 102.368174 
L 12.495643 103.114562 
L 11.212822 103.86095 
L 9.93 104.607338 
L 8.647178 105.353726 
L 7.364356 106.100114 
L 6.081534 106.846503 
L 4.798713 107.592891 
" style="fill:none;stroke:#008000;stroke-linecap:square;stroke-width:1.5;"/>
   </g>
   <g id="line2d_28">
    <path clip-path="url(#p437c0b72be)" d="M 43.752216 117.174231 
L 42.772065 117.611509 
L 41.791913 118.048787 
L 40.811761 118.486065 
L 39.83161 118.923343 
L 38.851458 119.360621 
L 37.871307 119.797899 
L 36.891155 120.235177 
L 35.911003 120.672455 
" style="fill:none;stroke:#008000;stroke-linecap:square;stroke-width:1.5;"/>
   </g>
   <g id="text_1">
    <g id="patch_2">
     <path d="M 73.478794 78.858353 
L 77.236631 73.929709 
L 75.665568 72.731854 
L 71.907731 77.660499 
z
" style="fill:#ffffff;"/>
    </g>
    <!-- Yellow -->
    <g style="fill:#808080;" transform="translate(73.144252 78.578133)rotate(-52.676347)scale(0.02 -0.02)">
     <defs>
      <path d="M -13 4666 
L 666 4666 
L 1959 2747 
L 3244 4666 
L 3922 4666 
L 2272 2222 
L 2272 0 
L 1638 0 
L 1638 2222 
L -13 4666 
z
" id="DejaVuSans-59" transform="scale(0.015625)"/>
      <path d="M 3597 1894 
L 3597 1613 
L 953 1613 
Q 991 1019 1311 708 
Q 1631 397 2203 397 
Q 2534 397 2845 478 
Q 3156 559 3463 722 
L 3463 178 
Q 3153 47 2828 -22 
Q 2503 -91 2169 -91 
Q 1331 -91 842 396 
Q 353 884 353 1716 
Q 353 2575 817 3079 
Q 1281 3584 2069 3584 
Q 2775 3584 3186 3129 
Q 3597 2675 3597 1894 
z
M 3022 2063 
Q 3016 2534 2758 2815 
Q 2500 3097 2075 3097 
Q 1594 3097 1305 2825 
Q 1016 2553 972 2059 
L 3022 2063 
z
" id="DejaVuSans-65" transform="scale(0.015625)"/>
      <path d="M 603 4863 
L 1178 4863 
L 1178 0 
L 603 0 
L 603 4863 
z
" id="DejaVuSans-6c" transform="scale(0.015625)"/>
      <path d="M 1959 3097 
Q 1497 3097 1228 2736 
Q 959 2375 959 1747 
Q 959 1119 1226 758 
Q 1494 397 1959 397 
Q 2419 397 2687 759 
Q 2956 1122 2956 1747 
Q 2956 2369 2687 2733 
Q 2419 3097 1959 3097 
z
M 1959 3584 
Q 2709 3584 3137 3096 
Q 3566 2609 3566 1747 
Q 3566 888 3137 398 
Q 2709 -91 1959 -91 
Q 1206 -91 779 398 
Q 353 888 353 1747 
Q 353 2609 779 3096 
Q 1206 3584 1959 3584 
z
" id="DejaVuSans-6f" transform="scale(0.015625)"/>
      <path d="M 269 3500 
L 844 3500 
L 1563 769 
L 2278 3500 
L 2956 3500 
L 3675 769 
L 4391 3500 
L 4966 3500 
L 4050 0 
L 3372 0 
L 2619 2869 
L 1863 0 
L 1184 0 
L 269 3500 
z
" id="DejaVuSans-77" transform="scale(0.015625)"/>
     </defs>
     <use xlink:href="#DejaVuSans-59"/>
     <use x="47.833984" xlink:href="#DejaVuSans-65"/>
     <use x="109.357422" xlink:href="#DejaVuSans-6c"/>
     <use x="137.140625" xlink:href="#DejaVuSans-6c"/>
     <use x="164.923828" xlink:href="#DejaVuSans-6f"/>
     <use x="226.105469" xlink:href="#DejaVuSans-77"/>
    </g>
   </g>
   <g id="text_2">
    <g id="patch_3">
     <path d="M 26.794055 109.413377 
L 34.651755 100.095534 
L 33.141464 98.821912 
L 25.283764 108.139754 
z
" style="fill:#ffffff;"/>
    </g>
    <!-- Blue Double -->
    <g style="fill:#808080;" transform="translate(26.473691 109.117053)rotate(-49.859198)scale(0.02 -0.02)">
     <defs>
      <path d="M 1259 2228 
L 1259 519 
L 2272 519 
Q 2781 519 3026 730 
Q 3272 941 3272 1375 
Q 3272 1813 3026 2020 
Q 2781 2228 2272 2228 
L 1259 2228 
z
M 1259 4147 
L 1259 2741 
L 2194 2741 
Q 2656 2741 2882 2914 
Q 3109 3088 3109 3444 
Q 3109 3797 2882 3972 
Q 2656 4147 2194 4147 
L 1259 4147 
z
M 628 4666 
L 2241 4666 
Q 2963 4666 3353 4366 
Q 3744 4066 3744 3513 
Q 3744 3084 3544 2831 
Q 3344 2578 2956 2516 
Q 3422 2416 3680 2098 
Q 3938 1781 3938 1306 
Q 3938 681 3513 340 
Q 3088 0 2303 0 
L 628 0 
L 628 4666 
z
" id="DejaVuSans-42" transform="scale(0.015625)"/>
      <path d="M 544 1381 
L 544 3500 
L 1119 3500 
L 1119 1403 
Q 1119 906 1312 657 
Q 1506 409 1894 409 
Q 2359 409 2629 706 
Q 2900 1003 2900 1516 
L 2900 3500 
L 3475 3500 
L 3475 0 
L 2900 0 
L 2900 538 
Q 2691 219 2414 64 
Q 2138 -91 1772 -91 
Q 1169 -91 856 284 
Q 544 659 544 1381 
z
M 1991 3584 
L 1991 3584 
z
" id="DejaVuSans-75" transform="scale(0.015625)"/>
      <path id="DejaVuSans-20" transform="scale(0.015625)"/>
      <path d="M 1259 4147 
L 1259 519 
L 2022 519 
Q 2988 519 3436 956 
Q 3884 1394 3884 2338 
Q 3884 3275 3436 3711 
Q 2988 4147 2022 4147 
L 1259 4147 
z
M 628 4666 
L 1925 4666 
Q 3281 4666 3915 4102 
Q 4550 3538 4550 2338 
Q 4550 1131 3912 565 
Q 3275 0 1925 0 
L 628 0 
L 628 4666 
z
" id="DejaVuSans-44" transform="scale(0.015625)"/>
      <path d="M 3116 1747 
Q 3116 2381 2855 2742 
Q 2594 3103 2138 3103 
Q 1681 3103 1420 2742 
Q 1159 2381 1159 1747 
Q 1159 1113 1420 752 
Q 1681 391 2138 391 
Q 2594 391 2855 752 
Q 3116 1113 3116 1747 
z
M 1159 2969 
Q 1341 3281 1617 3432 
Q 1894 3584 2278 3584 
Q 2916 3584 3314 3078 
Q 3713 2572 3713 1747 
Q 3713 922 3314 415 
Q 2916 -91 2278 -91 
Q 1894 -91 1617 61 
Q 1341 213 1159 525 
L 1159 0 
L 581 0 
L 581 4863 
L 1159 4863 
L 1159 2969 
z
" id="DejaVuSans-62" transform="scale(0.015625)"/>
     </defs>
     <use xlink:href="#DejaVuSans-42"/>
     <use x="68.603516" xlink:href="#DejaVuSans-6c"/>
     <use x="96.386719" xlink:href="#DejaVuSans-75"/>
     <use x="159.765625" xlink:href="#DejaVuSans-65"/>
     <use x="221.289062" xlink:href="#DejaVuSans-20"/>
     <use x="253.076172" xlink:href="#DejaVuSans-44"/>
     <use x="330.078125" xlink:href="#DejaVuSans-6f"/>
     <use x="391.259766" xlink:href="#DejaVuSans-75"/>
     <use x="454.638672" xlink:href="#DejaVuSans-62"/>
     <use x="518.115234" xlink:href="#DejaVuSans-6c"/>
     <use x="545.898438" xlink:href="#DejaVuSans-65"/>
    </g>
   </g>
   <g id="text_3">
    <g id="patch_4">
     <path d="M 27.281299 39.558901 
L 39.513515 36.741429 
L 39.070076 34.816213 
L 26.83786 37.633685 
z
" style="fill:#ffffff;"/>
    </g>
    <!-- Drifter 13.0° -->
    <g style="fill:#008000;" transform="translate(27.20294 39.129597)rotate(-12.970836)scale(0.02 -0.02)">
     <defs>
      <path d="M 2631 2963 
Q 2534 3019 2420 3045 
Q 2306 3072 2169 3072 
Q 1681 3072 1420 2755 
Q 1159 2438 1159 1844 
L 1159 0 
L 581 0 
L 581 3500 
L 1159 3500 
L 1159 2956 
Q 1341 3275 1631 3429 
Q 1922 3584 2338 3584 
Q 2397 3584 2469 3576 
Q 2541 3569 2628 3553 
L 2631 2963 
z
" id="DejaVuSans-72" transform="scale(0.015625)"/>
      <path d="M 603 3500 
L 1178 3500 
L 1178 0 
L 603 0 
L 603 3500 
z
M 603 4863 
L 1178 4863 
L 1178 4134 
L 603 4134 
L 603 4863 
z
" id="DejaVuSans-69" transform="scale(0.015625)"/>
      <path d="M 2375 4863 
L 2375 4384 
L 1825 4384 
Q 1516 4384 1395 4259 
Q 1275 4134 1275 3809 
L 1275 3500 
L 2222 3500 
L 2222 3053 
L 1275 3053 
L 1275 0 
L 697 0 
L 697 3053 
L 147 3053 
L 147 3500 
L 697 3500 
L 697 3744 
Q 697 4328 969 4595 
Q 1241 4863 1831 4863 
L 2375 4863 
z
" id="DejaVuSans-66" transform="scale(0.015625)"/>
      <path d="M 1172 4494 
L 1172 3500 
L 2356 3500 
L 2356 3053 
L 1172 3053 
L 1172 1153 
Q 1172 725 1289 603 
Q 1406 481 1766 481 
L 2356 481 
L 2356 0 
L 1766 0 
Q 1100 0 847 248 
Q 594 497 594 1153 
L 594 3053 
L 172 3053 
L 172 3500 
L 594 3500 
L 594 4494 
L 1172 4494 
z
" id="DejaVuSans-74" transform="scale(0.015625)"/>
      <path d="M 794 531 
L 1825 531 
L 1825 4091 
L 703 3866 
L 703 4441 
L 1819 4666 
L 2450 4666 
L 2450 531 
L 3481 531 
L 3481 0 
L 794 0 
L 794 531 
z
" id="DejaVuSans-31" transform="scale(0.015625)"/>
      <path d="M 2597 2516 
Q 3050 2419 3304 2112 
Q 3559 1806 3559 1356 
Q 3559 666 3084 287 
Q 2609 -91 1734 -91 
Q 1441 -91 1130 -33 
Q 819 25 488 141 
L 488 750 
Q 750 597 1062 519 
Q 1375 441 1716 441 
Q 2309 441 2620 675 
Q 2931 909 2931 1356 
Q 2931 1769 2642 2001 
Q 2353 2234 1838 2234 
L 1294 2234 
L 1294 2753 
L 1863 2753 
Q 2328 2753 2575 2939 
Q 2822 3125 2822 3475 
Q 2822 3834 2567 4026 
Q 2313 4219 1838 4219 
Q 1578 4219 1281 4162 
Q 984 4106 628 3988 
L 628 4550 
Q 988 4650 1302 4700 
Q 1616 4750 1894 4750 
Q 2613 4750 3031 4423 
Q 3450 4097 3450 3541 
Q 3450 3153 3228 2886 
Q 3006 2619 2597 2516 
z
" id="DejaVuSans-33" transform="scale(0.015625)"/>
      <path d="M 684 794 
L 1344 794 
L 1344 0 
L 684 0 
L 684 794 
z
" id="DejaVuSans-2e" transform="scale(0.015625)"/>
      <path d="M 2034 4250 
Q 1547 4250 1301 3770 
Q 1056 3291 1056 2328 
Q 1056 1369 1301 889 
Q 1547 409 2034 409 
Q 2525 409 2770 889 
Q 3016 1369 3016 2328 
Q 3016 3291 2770 3770 
Q 2525 4250 2034 4250 
z
M 2034 4750 
Q 2819 4750 3233 4129 
Q 3647 3509 3647 2328 
Q 3647 1150 3233 529 
Q 2819 -91 2034 -91 
Q 1250 -91 836 529 
Q 422 1150 422 2328 
Q 422 3509 836 4129 
Q 1250 4750 2034 4750 
z
" id="DejaVuSans-30" transform="scale(0.015625)"/>
      <path d="M 1600 4347 
Q 1350 4347 1178 4173 
Q 1006 4000 1006 3750 
Q 1006 3503 1178 3333 
Q 1350 3163 1600 3163 
Q 1850 3163 2022 3333 
Q 2194 3503 2194 3750 
Q 2194 3997 2020 4172 
Q 1847 4347 1600 4347 
z
M 1600 4750 
Q 1800 4750 1984 4673 
Q 2169 4597 2303 4453 
Q 2447 4313 2519 4134 
Q 2591 3956 2591 3750 
Q 2591 3338 2302 3052 
Q 2013 2766 1594 2766 
Q 1172 2766 890 3047 
Q 609 3328 609 3750 
Q 609 4169 896 4459 
Q 1184 4750 1600 4750 
z
" id="DejaVuSans-b0" transform="scale(0.015625)"/>
     </defs>
     <use xlink:href="#DejaVuSans-44"/>
     <use x="77.001953" xlink:href="#DejaVuSans-72"/>
     <use x="118.115234" xlink:href="#DejaVuSans-69"/>
     <use x="145.898438" xlink:href="#DejaVuSans-66"/>
     <use x="179.353516" xlink:href="#DejaVuSans-74"/>
     <use x="218.5625" xlink:href="#DejaVuSans-65"/>
     <use x="280.085938" xlink:href="#DejaVuSans-72"/>
     <use x="321.199219" xlink:href="#DejaVuSans-20"/>
     <use x="352.986328" xlink:href="#DejaVuSans-31"/>
     <use x="416.609375" xlink:href="#DejaVuSans-33"/>
     <use x="480.232422" xlink:href="#DejaVuSans-2e"/>
     <use x="512.019531" xlink:href="#DejaVuSans-30"/>
     <use x="575.642578" xlink:href="#DejaVuSans-b0"/>
    </g>
   </g>
   <g id="text_4">
    <g id="patch_5">
     <path d="M 69.750758 43.020539 
L 88.665385 40.549825 
L 88.409494 38.590842 
L 69.494867 41.061556 
z
" style="fill:#ffffff;"/>
    </g>
    <!-- Upper Jewett 27.4° -->
    <g transform="translate(69.714125 42.585683)rotate(-7.442098)scale(0.02 -0.02)">
     <defs>
      <path d="M 556 4666 
L 1191 4666 
L 1191 1831 
Q 1191 1081 1462 751 
Q 1734 422 2344 422 
Q 2950 422 3222 751 
Q 3494 1081 3494 1831 
L 3494 4666 
L 4128 4666 
L 4128 1753 
Q 4128 841 3676 375 
Q 3225 -91 2344 -91 
Q 1459 -91 1007 375 
Q 556 841 556 1753 
L 556 4666 
z
" id="DejaVuSans-55" transform="scale(0.015625)"/>
      <path d="M 1159 525 
L 1159 -1331 
L 581 -1331 
L 581 3500 
L 1159 3500 
L 1159 2969 
Q 1341 3281 1617 3432 
Q 1894 3584 2278 3584 
Q 2916 3584 3314 3078 
Q 3713 2572 3713 1747 
Q 3713 922 3314 415 
Q 2916 -91 2278 -91 
Q 1894 -91 1617 61 
Q 1341 213 1159 525 
z
M 3116 1747 
Q 3116 2381 2855 2742 
Q 2594 3103 2138 3103 
Q 1681 3103 1420 2742 
Q 1159 2381 1159 1747 
Q 1159 1113 1420 752 
Q 1681 391 2138 391 
Q 2594 391 2855 752 
Q 3116 1113 3116 1747 
z
" id="DejaVuSans-70" transform="scale(0.015625)"/>
      <path d="M 628 4666 
L 1259 4666 
L 1259 325 
Q 1259 -519 939 -900 
Q 619 -1281 -91 -1281 
L -331 -1281 
L -331 -750 
L -134 -750 
Q 284 -750 456 -515 
Q 628 -281 628 325 
L 628 4666 
z
" id="DejaVuSans-4a" transform="scale(0.015625)"/>
      <path d="M 1228 531 
L 3431 531 
L 3431 0 
L 469 0 
L 469 531 
Q 828 903 1448 1529 
Q 2069 2156 2228 2338 
Q 2531 2678 2651 2914 
Q 2772 3150 2772 3378 
Q 2772 3750 2511 3984 
Q 2250 4219 1831 4219 
Q 1534 4219 1204 4116 
Q 875 4013 500 3803 
L 500 4441 
Q 881 4594 1212 4672 
Q 1544 4750 1819 4750 
Q 2544 4750 2975 4387 
Q 3406 4025 3406 3419 
Q 3406 3131 3298 2873 
Q 3191 2616 2906 2266 
Q 2828 2175 2409 1742 
Q 1991 1309 1228 531 
z
" id="DejaVuSans-32" transform="scale(0.015625)"/>
      <path d="M 525 4666 
L 3525 4666 
L 3525 4397 
L 1831 0 
L 1172 0 
L 2766 4134 
L 525 4134 
L 525 4666 
z
" id="DejaVuSans-37" transform="scale(0.015625)"/>
      <path d="M 2419 4116 
L 825 1625 
L 2419 1625 
L 2419 4116 
z
M 2253 4666 
L 3047 4666 
L 3047 1625 
L 3713 1625 
L 3713 1100 
L 3047 1100 
L 3047 0 
L 2419 0 
L 2419 1100 
L 313 1100 
L 313 1709 
L 2253 4666 
z
" id="DejaVuSans-34" transform="scale(0.015625)"/>
     </defs>
     <use xlink:href="#DejaVuSans-55"/>
     <use x="73.193359" xlink:href="#DejaVuSans-70"/>
     <use x="136.669922" xlink:href="#DejaVuSans-70"/>
     <use x="200.146484" xlink:href="#DejaVuSans-65"/>
     <use x="261.669922" xlink:href="#DejaVuSans-72"/>
     <use x="302.783203" xlink:href="#DejaVuSans-20"/>
     <use x="334.570312" xlink:href="#DejaVuSans-4a"/>
     <use x="364.0625" xlink:href="#DejaVuSans-65"/>
     <use x="425.585938" xlink:href="#DejaVuSans-77"/>
     <use x="507.373047" xlink:href="#DejaVuSans-65"/>
     <use x="568.896484" xlink:href="#DejaVuSans-74"/>
     <use x="608.105469" xlink:href="#DejaVuSans-74"/>
     <use x="647.314453" xlink:href="#DejaVuSans-20"/>
     <use x="679.101562" xlink:href="#DejaVuSans-32"/>
     <use x="742.724609" xlink:href="#DejaVuSans-37"/>
     <use x="806.347656" xlink:href="#DejaVuSans-2e"/>
     <use x="838.134766" xlink:href="#DejaVuSans-34"/>
     <use x="901.757812" xlink:href="#DejaVuSans-b0"/>
    </g>
   </g>
   <g id="text_5">
    <g id="patch_6">
     <path d="M 47.325801 16.827366 
L 66.16772 21.237918 
L 66.618006 19.314292 
L 47.776087 14.90374 
z
" style="fill:#ffffff;"/>
    </g>
    <!-- Louise's Folly 27.4° -->
    <g transform="translate(47.444634 16.407461)rotate(-346.825309)scale(0.02 -0.02)">
     <defs>
      <path d="M 628 4666 
L 1259 4666 
L 1259 531 
L 3531 531 
L 3531 0 
L 628 0 
L 628 4666 
z
" id="DejaVuSans-4c" transform="scale(0.015625)"/>
      <path d="M 2834 3397 
L 2834 2853 
Q 2591 2978 2328 3040 
Q 2066 3103 1784 3103 
Q 1356 3103 1142 2972 
Q 928 2841 928 2578 
Q 928 2378 1081 2264 
Q 1234 2150 1697 2047 
L 1894 2003 
Q 2506 1872 2764 1633 
Q 3022 1394 3022 966 
Q 3022 478 2636 193 
Q 2250 -91 1575 -91 
Q 1294 -91 989 -36 
Q 684 19 347 128 
L 347 722 
Q 666 556 975 473 
Q 1284 391 1588 391 
Q 1994 391 2212 530 
Q 2431 669 2431 922 
Q 2431 1156 2273 1281 
Q 2116 1406 1581 1522 
L 1381 1569 
Q 847 1681 609 1914 
Q 372 2147 372 2553 
Q 372 3047 722 3315 
Q 1072 3584 1716 3584 
Q 2034 3584 2315 3537 
Q 2597 3491 2834 3397 
z
" id="DejaVuSans-73" transform="scale(0.015625)"/>
      <path d="M 1147 4666 
L 1147 2931 
L 616 2931 
L 616 4666 
L 1147 4666 
z
" id="DejaVuSans-27" transform="scale(0.015625)"/>
      <path d="M 628 4666 
L 3309 4666 
L 3309 4134 
L 1259 4134 
L 1259 2759 
L 3109 2759 
L 3109 2228 
L 1259 2228 
L 1259 0 
L 628 0 
L 628 4666 
z
" id="DejaVuSans-46" transform="scale(0.015625)"/>
      <path d="M 2059 -325 
Q 1816 -950 1584 -1140 
Q 1353 -1331 966 -1331 
L 506 -1331 
L 506 -850 
L 844 -850 
Q 1081 -850 1212 -737 
Q 1344 -625 1503 -206 
L 1606 56 
L 191 3500 
L 800 3500 
L 1894 763 
L 2988 3500 
L 3597 3500 
L 2059 -325 
z
" id="DejaVuSans-79" transform="scale(0.015625)"/>
     </defs>
     <use xlink:href="#DejaVuSans-4c"/>
     <use x="53.962891" xlink:href="#DejaVuSans-6f"/>
     <use x="115.144531" xlink:href="#DejaVuSans-75"/>
     <use x="178.523438" xlink:href="#DejaVuSans-69"/>
     <use x="206.306641" xlink:href="#DejaVuSans-73"/>
     <use x="258.40625" xlink:href="#DejaVuSans-65"/>
     <use x="319.929688" xlink:href="#DejaVuSans-27"/>
     <use x="347.419922" xlink:href="#DejaVuSans-73"/>
     <use x="399.519531" xlink:href="#DejaVuSans-20"/>
     <use x="431.306641" xlink:href="#DejaVuSans-46"/>
     <use x="485.201172" xlink:href="#DejaVuSans-6f"/>
     <use x="546.382812" xlink:href="#DejaVuSans-6c"/>
     <use x="574.166016" xlink:href="#DejaVuSans-6c"/>
     <use x="601.949219" xlink:href="#DejaVuSans-79"/>
     <use x="661.128906" xlink:href="#DejaVuSans-20"/>
     <use x="692.916016" xlink:href="#DejaVuSans-32"/>
     <use x="756.539062" xlink:href="#DejaVuSans-37"/>
     <use x="820.162109" xlink:href="#DejaVuSans-2e"/>
     <use x="851.949219" xlink:href="#DejaVuSans-34"/>
     <use x="915.572266" xlink:href="#DejaVuSans-b0"/>
    </g>
   </g>
   <g id="text_6">
    <g id="patch_7">
     <path d="M 24.96962 96.159075 
L 33.476442 86.16861 
L 31.972245 84.887796 
L 23.465423 94.87826 
z
" style="fill:#ffffff;"/>
    </g>
    <!-- Russell 15.7° -->
    <g style="fill:#008000;" transform="translate(24.650673 95.861225)rotate(-49.5858)scale(0.02 -0.02)">
     <defs>
      <path d="M 2841 2188 
Q 3044 2119 3236 1894 
Q 3428 1669 3622 1275 
L 4263 0 
L 3584 0 
L 2988 1197 
Q 2756 1666 2539 1819 
Q 2322 1972 1947 1972 
L 1259 1972 
L 1259 0 
L 628 0 
L 628 4666 
L 2053 4666 
Q 2853 4666 3247 4331 
Q 3641 3997 3641 3322 
Q 3641 2881 3436 2590 
Q 3231 2300 2841 2188 
z
M 1259 4147 
L 1259 2491 
L 2053 2491 
Q 2509 2491 2742 2702 
Q 2975 2913 2975 3322 
Q 2975 3731 2742 3939 
Q 2509 4147 2053 4147 
L 1259 4147 
z
" id="DejaVuSans-52" transform="scale(0.015625)"/>
      <path d="M 691 4666 
L 3169 4666 
L 3169 4134 
L 1269 4134 
L 1269 2991 
Q 1406 3038 1543 3061 
Q 1681 3084 1819 3084 
Q 2600 3084 3056 2656 
Q 3513 2228 3513 1497 
Q 3513 744 3044 326 
Q 2575 -91 1722 -91 
Q 1428 -91 1123 -41 
Q 819 9 494 109 
L 494 744 
Q 775 591 1075 516 
Q 1375 441 1709 441 
Q 2250 441 2565 725 
Q 2881 1009 2881 1497 
Q 2881 1984 2565 2268 
Q 2250 2553 1709 2553 
Q 1456 2553 1204 2497 
Q 953 2441 691 2322 
L 691 4666 
z
" id="DejaVuSans-35" transform="scale(0.015625)"/>
     </defs>
     <use xlink:href="#DejaVuSans-52"/>
     <use x="64.982422" xlink:href="#DejaVuSans-75"/>
     <use x="128.361328" xlink:href="#DejaVuSans-73"/>
     <use x="180.460938" xlink:href="#DejaVuSans-73"/>
     <use x="232.560547" xlink:href="#DejaVuSans-65"/>
     <use x="294.083984" xlink:href="#DejaVuSans-6c"/>
     <use x="321.867188" xlink:href="#DejaVuSans-6c"/>
     <use x="349.650391" xlink:href="#DejaVuSans-20"/>
     <use x="381.4375" xlink:href="#DejaVuSans-31"/>
     <use x="445.060547" xlink:href="#DejaVuSans-35"/>
     <use x="508.683594" xlink:href="#DejaVuSans-2e"/>
     <use x="540.470703" xlink:href="#DejaVuSans-37"/>
     <use x="604.09375" xlink:href="#DejaVuSans-b0"/>
    </g>
   </g>
   <g id="text_7">
    <g id="patch_8">
     <path d="M 72.20511 73.564596 
L 82.813691 56.991666 
L 81.149766 55.926562 
L 70.541185 72.499492 
z
" style="fill:#ffffff;"/>
    </g>
    <!-- Grand Slalom 22.9° -->
    <g style="fill:#4169e1;" transform="translate(71.848734 73.312728)rotate(-57.376083)scale(0.02 -0.02)">
     <defs>
      <path d="M 3809 666 
L 3809 1919 
L 2778 1919 
L 2778 2438 
L 4434 2438 
L 4434 434 
Q 4069 175 3628 42 
Q 3188 -91 2688 -91 
Q 1594 -91 976 548 
Q 359 1188 359 2328 
Q 359 3472 976 4111 
Q 1594 4750 2688 4750 
Q 3144 4750 3555 4637 
Q 3966 4525 4313 4306 
L 4313 3634 
Q 3963 3931 3569 4081 
Q 3175 4231 2741 4231 
Q 1884 4231 1454 3753 
Q 1025 3275 1025 2328 
Q 1025 1384 1454 906 
Q 1884 428 2741 428 
Q 3075 428 3337 486 
Q 3600 544 3809 666 
z
" id="DejaVuSans-47" transform="scale(0.015625)"/>
      <path d="M 2194 1759 
Q 1497 1759 1228 1600 
Q 959 1441 959 1056 
Q 959 750 1161 570 
Q 1363 391 1709 391 
Q 2188 391 2477 730 
Q 2766 1069 2766 1631 
L 2766 1759 
L 2194 1759 
z
M 3341 1997 
L 3341 0 
L 2766 0 
L 2766 531 
Q 2569 213 2275 61 
Q 1981 -91 1556 -91 
Q 1019 -91 701 211 
Q 384 513 384 1019 
Q 384 1609 779 1909 
Q 1175 2209 1959 2209 
L 2766 2209 
L 2766 2266 
Q 2766 2663 2505 2880 
Q 2244 3097 1772 3097 
Q 1472 3097 1187 3025 
Q 903 2953 641 2809 
L 641 3341 
Q 956 3463 1253 3523 
Q 1550 3584 1831 3584 
Q 2591 3584 2966 3190 
Q 3341 2797 3341 1997 
z
" id="DejaVuSans-61" transform="scale(0.015625)"/>
      <path d="M 3513 2113 
L 3513 0 
L 2938 0 
L 2938 2094 
Q 2938 2591 2744 2837 
Q 2550 3084 2163 3084 
Q 1697 3084 1428 2787 
Q 1159 2491 1159 1978 
L 1159 0 
L 581 0 
L 581 3500 
L 1159 3500 
L 1159 2956 
Q 1366 3272 1645 3428 
Q 1925 3584 2291 3584 
Q 2894 3584 3203 3211 
Q 3513 2838 3513 2113 
z
" id="DejaVuSans-6e" transform="scale(0.015625)"/>
      <path d="M 2906 2969 
L 2906 4863 
L 3481 4863 
L 3481 0 
L 2906 0 
L 2906 525 
Q 2725 213 2448 61 
Q 2172 -91 1784 -91 
Q 1150 -91 751 415 
Q 353 922 353 1747 
Q 353 2572 751 3078 
Q 1150 3584 1784 3584 
Q 2172 3584 2448 3432 
Q 2725 3281 2906 2969 
z
M 947 1747 
Q 947 1113 1208 752 
Q 1469 391 1925 391 
Q 2381 391 2643 752 
Q 2906 1113 2906 1747 
Q 2906 2381 2643 2742 
Q 2381 3103 1925 3103 
Q 1469 3103 1208 2742 
Q 947 2381 947 1747 
z
" id="DejaVuSans-64" transform="scale(0.015625)"/>
      <path d="M 3425 4513 
L 3425 3897 
Q 3066 4069 2747 4153 
Q 2428 4238 2131 4238 
Q 1616 4238 1336 4038 
Q 1056 3838 1056 3469 
Q 1056 3159 1242 3001 
Q 1428 2844 1947 2747 
L 2328 2669 
Q 3034 2534 3370 2195 
Q 3706 1856 3706 1288 
Q 3706 609 3251 259 
Q 2797 -91 1919 -91 
Q 1588 -91 1214 -16 
Q 841 59 441 206 
L 441 856 
Q 825 641 1194 531 
Q 1563 422 1919 422 
Q 2459 422 2753 634 
Q 3047 847 3047 1241 
Q 3047 1584 2836 1778 
Q 2625 1972 2144 2069 
L 1759 2144 
Q 1053 2284 737 2584 
Q 422 2884 422 3419 
Q 422 4038 858 4394 
Q 1294 4750 2059 4750 
Q 2388 4750 2728 4690 
Q 3069 4631 3425 4513 
z
" id="DejaVuSans-53" transform="scale(0.015625)"/>
      <path d="M 3328 2828 
Q 3544 3216 3844 3400 
Q 4144 3584 4550 3584 
Q 5097 3584 5394 3201 
Q 5691 2819 5691 2113 
L 5691 0 
L 5113 0 
L 5113 2094 
Q 5113 2597 4934 2840 
Q 4756 3084 4391 3084 
Q 3944 3084 3684 2787 
Q 3425 2491 3425 1978 
L 3425 0 
L 2847 0 
L 2847 2094 
Q 2847 2600 2669 2842 
Q 2491 3084 2119 3084 
Q 1678 3084 1418 2786 
Q 1159 2488 1159 1978 
L 1159 0 
L 581 0 
L 581 3500 
L 1159 3500 
L 1159 2956 
Q 1356 3278 1631 3431 
Q 1906 3584 2284 3584 
Q 2666 3584 2933 3390 
Q 3200 3197 3328 2828 
z
" id="DejaVuSans-6d" transform="scale(0.015625)"/>
      <path d="M 703 97 
L 703 672 
Q 941 559 1184 500 
Q 1428 441 1663 441 
Q 2288 441 2617 861 
Q 2947 1281 2994 2138 
Q 2813 1869 2534 1725 
Q 2256 1581 1919 1581 
Q 1219 1581 811 2004 
Q 403 2428 403 3163 
Q 403 3881 828 4315 
Q 1253 4750 1959 4750 
Q 2769 4750 3195 4129 
Q 3622 3509 3622 2328 
Q 3622 1225 3098 567 
Q 2575 -91 1691 -91 
Q 1453 -91 1209 -44 
Q 966 3 703 97 
z
M 1959 2075 
Q 2384 2075 2632 2365 
Q 2881 2656 2881 3163 
Q 2881 3666 2632 3958 
Q 2384 4250 1959 4250 
Q 1534 4250 1286 3958 
Q 1038 3666 1038 3163 
Q 1038 2656 1286 2365 
Q 1534 2075 1959 2075 
z
" id="DejaVuSans-39" transform="scale(0.015625)"/>
     </defs>
     <use xlink:href="#DejaVuSans-47"/>
     <use x="77.490234" xlink:href="#DejaVuSans-72"/>
     <use x="118.603516" xlink:href="#DejaVuSans-61"/>
     <use x="179.882812" xlink:href="#DejaVuSans-6e"/>
     <use x="243.261719" xlink:href="#DejaVuSans-64"/>
     <use x="306.738281" xlink:href="#DejaVuSans-20"/>
     <use x="338.525391" xlink:href="#DejaVuSans-53"/>
     <use x="402.001953" xlink:href="#DejaVuSans-6c"/>
     <use x="429.785156" xlink:href="#DejaVuSans-61"/>
     <use x="491.064453" xlink:href="#DejaVuSans-6c"/>
     <use x="518.847656" xlink:href="#DejaVuSans-6f"/>
     <use x="580.029297" xlink:href="#DejaVuSans-6d"/>
     <use x="677.441406" xlink:href="#DejaVuSans-20"/>
     <use x="709.228516" xlink:href="#DejaVuSans-32"/>
     <use x="772.851562" xlink:href="#DejaVuSans-32"/>
     <use x="836.474609" xlink:href="#DejaVuSans-2e"/>
     <use x="868.261719" xlink:href="#DejaVuSans-39"/>
     <use x="931.884766" xlink:href="#DejaVuSans-b0"/>
    </g>
   </g>
   <g id="text_8">
    <g id="patch_9">
     <path d="M 33.91462 99.816082 
L 46.710323 84.187279 
L 45.181681 82.935741 
L 32.385978 98.564544 
z
" style="fill:#ffffff;"/>
    </g>
    <!-- Lower Beeline 14.3° -->
    <g style="fill:#008000;" transform="translate(33.589983 99.524445)rotate(-50.691932)scale(0.02 -0.02)">
     <use xlink:href="#DejaVuSans-4c"/>
     <use x="53.962891" xlink:href="#DejaVuSans-6f"/>
     <use x="115.144531" xlink:href="#DejaVuSans-77"/>
     <use x="196.931641" xlink:href="#DejaVuSans-65"/>
     <use x="258.455078" xlink:href="#DejaVuSans-72"/>
     <use x="299.568359" xlink:href="#DejaVuSans-20"/>
     <use x="331.355469" xlink:href="#DejaVuSans-42"/>
     <use x="399.958984" xlink:href="#DejaVuSans-65"/>
     <use x="461.482422" xlink:href="#DejaVuSans-65"/>
     <use x="523.005859" xlink:href="#DejaVuSans-6c"/>
     <use x="550.789062" xlink:href="#DejaVuSans-69"/>
     <use x="578.572266" xlink:href="#DejaVuSans-6e"/>
     <use x="641.951172" xlink:href="#DejaVuSans-65"/>
     <use x="703.474609" xlink:href="#DejaVuSans-20"/>
     <use x="735.261719" xlink:href="#DejaVuSans-31"/>
     <use x="798.884766" xlink:href="#DejaVuSans-34"/>
     <use x="862.507812" xlink:href="#DejaVuSans-2e"/>
     <use x="894.294922" xlink:href="#DejaVuSans-33"/>
     <use x="957.917969" xlink:href="#DejaVuSans-b0"/>
    </g>
   </g>
   <g id="text_9">
    <g id="patch_10">
     <path d="M 48.554856 88.088677 
L 60.122111 74.803842 
L 58.632139 73.506507 
L 47.064884 86.791342 
z
" style="fill:#ffffff;"/>
    </g>
    <!-- Main Street 16.7° -->
    <g style="fill:#008000;" transform="translate(48.239215 87.787326)rotate(-48.953546)scale(0.02 -0.02)">
     <defs>
      <path d="M 628 4666 
L 1569 4666 
L 2759 1491 
L 3956 4666 
L 4897 4666 
L 4897 0 
L 4281 0 
L 4281 4097 
L 3078 897 
L 2444 897 
L 1241 4097 
L 1241 0 
L 628 0 
L 628 4666 
z
" id="DejaVuSans-4d" transform="scale(0.015625)"/>
      <path d="M 2113 2584 
Q 1688 2584 1439 2293 
Q 1191 2003 1191 1497 
Q 1191 994 1439 701 
Q 1688 409 2113 409 
Q 2538 409 2786 701 
Q 3034 994 3034 1497 
Q 3034 2003 2786 2293 
Q 2538 2584 2113 2584 
z
M 3366 4563 
L 3366 3988 
Q 3128 4100 2886 4159 
Q 2644 4219 2406 4219 
Q 1781 4219 1451 3797 
Q 1122 3375 1075 2522 
Q 1259 2794 1537 2939 
Q 1816 3084 2150 3084 
Q 2853 3084 3261 2657 
Q 3669 2231 3669 1497 
Q 3669 778 3244 343 
Q 2819 -91 2113 -91 
Q 1303 -91 875 529 
Q 447 1150 447 2328 
Q 447 3434 972 4092 
Q 1497 4750 2381 4750 
Q 2619 4750 2861 4703 
Q 3103 4656 3366 4563 
z
" id="DejaVuSans-36" transform="scale(0.015625)"/>
     </defs>
     <use xlink:href="#DejaVuSans-4d"/>
     <use x="86.279297" xlink:href="#DejaVuSans-61"/>
     <use x="147.558594" xlink:href="#DejaVuSans-69"/>
     <use x="175.341797" xlink:href="#DejaVuSans-6e"/>
     <use x="238.720703" xlink:href="#DejaVuSans-20"/>
     <use x="270.507812" xlink:href="#DejaVuSans-53"/>
     <use x="333.984375" xlink:href="#DejaVuSans-74"/>
     <use x="373.193359" xlink:href="#DejaVuSans-72"/>
     <use x="412.056641" xlink:href="#DejaVuSans-65"/>
     <use x="473.580078" xlink:href="#DejaVuSans-65"/>
     <use x="535.103516" xlink:href="#DejaVuSans-74"/>
     <use x="574.3125" xlink:href="#DejaVuSans-20"/>
     <use x="606.099609" xlink:href="#DejaVuSans-31"/>
     <use x="669.722656" xlink:href="#DejaVuSans-36"/>
     <use x="733.345703" xlink:href="#DejaVuSans-2e"/>
     <use x="765.132812" xlink:href="#DejaVuSans-37"/>
     <use x="828.755859" xlink:href="#DejaVuSans-b0"/>
    </g>
   </g>
   <g id="text_10">
    <g id="patch_11">
     <path d="M 38.007618 67.127866 
L 49.052338 54.004921 
L 47.54081 52.732767 
L 36.49609 65.855712 
z
" style="fill:#ffffff;"/>
    </g>
    <!-- Parker Trail 21.7° -->
    <g style="fill:#4169e1;" transform="translate(37.686966 66.831853)rotate(-49.914886)scale(0.02 -0.02)">
     <defs>
      <path d="M 1259 4147 
L 1259 2394 
L 2053 2394 
Q 2494 2394 2734 2622 
Q 2975 2850 2975 3272 
Q 2975 3691 2734 3919 
Q 2494 4147 2053 4147 
L 1259 4147 
z
M 628 4666 
L 2053 4666 
Q 2838 4666 3239 4311 
Q 3641 3956 3641 3272 
Q 3641 2581 3239 2228 
Q 2838 1875 2053 1875 
L 1259 1875 
L 1259 0 
L 628 0 
L 628 4666 
z
" id="DejaVuSans-50" transform="scale(0.015625)"/>
      <path d="M 581 4863 
L 1159 4863 
L 1159 1991 
L 2875 3500 
L 3609 3500 
L 1753 1863 
L 3688 0 
L 2938 0 
L 1159 1709 
L 1159 0 
L 581 0 
L 581 4863 
z
" id="DejaVuSans-6b" transform="scale(0.015625)"/>
      <path d="M -19 4666 
L 3928 4666 
L 3928 4134 
L 2272 4134 
L 2272 0 
L 1638 0 
L 1638 4134 
L -19 4134 
L -19 4666 
z
" id="DejaVuSans-54" transform="scale(0.015625)"/>
     </defs>
     <use xlink:href="#DejaVuSans-50"/>
     <use x="55.802734" xlink:href="#DejaVuSans-61"/>
     <use x="117.082031" xlink:href="#DejaVuSans-72"/>
     <use x="158.195312" xlink:href="#DejaVuSans-6b"/>
     <use x="212.480469" xlink:href="#DejaVuSans-65"/>
     <use x="274.003906" xlink:href="#DejaVuSans-72"/>
     <use x="315.117188" xlink:href="#DejaVuSans-20"/>
     <use x="346.904297" xlink:href="#DejaVuSans-54"/>
     <use x="393.238281" xlink:href="#DejaVuSans-72"/>
     <use x="434.351562" xlink:href="#DejaVuSans-61"/>
     <use x="495.630859" xlink:href="#DejaVuSans-69"/>
     <use x="523.414062" xlink:href="#DejaVuSans-6c"/>
     <use x="551.197266" xlink:href="#DejaVuSans-20"/>
     <use x="582.984375" xlink:href="#DejaVuSans-32"/>
     <use x="646.607422" xlink:href="#DejaVuSans-31"/>
     <use x="710.230469" xlink:href="#DejaVuSans-2e"/>
     <use x="742.017578" xlink:href="#DejaVuSans-37"/>
     <use x="805.640625" xlink:href="#DejaVuSans-b0"/>
    </g>
   </g>
   <g id="text_11">
    <!-- Bousquet -->
    <g transform="translate(36.235761 7.373694)scale(0.07 -0.07)">
     <defs>
      <path d="M 947 1747 
Q 947 1113 1208 752 
Q 1469 391 1925 391 
Q 2381 391 2643 752 
Q 2906 1113 2906 1747 
Q 2906 2381 2643 2742 
Q 2381 3103 1925 3103 
Q 1469 3103 1208 2742 
Q 947 2381 947 1747 
z
M 2906 525 
Q 2725 213 2448 61 
Q 2172 -91 1784 -91 
Q 1150 -91 751 415 
Q 353 922 353 1747 
Q 353 2572 751 3078 
Q 1150 3584 1784 3584 
Q 2172 3584 2448 3432 
Q 2725 3281 2906 2969 
L 2906 3500 
L 3481 3500 
L 3481 -1331 
L 2906 -1331 
L 2906 525 
z
" id="DejaVuSans-71" transform="scale(0.015625)"/>
     </defs>
     <use xlink:href="#DejaVuSans-42"/>
     <use x="68.603516" xlink:href="#DejaVuSans-6f"/>
     <use x="129.785156" xlink:href="#DejaVuSans-75"/>
     <use x="193.164062" xlink:href="#DejaVuSans-73"/>
     <use x="245.263672" xlink:href="#DejaVuSans-71"/>
     <use x="308.740234" xlink:href="#DejaVuSans-75"/>
     <use x="372.119141" xlink:href="#DejaVuSans-65"/>
     <use x="433.642578" xlink:href="#DejaVuSans-74"/>
    </g>
   </g>
   <g id="legend_1">
    <g id="line2d_29">
     <path d="M 3.784472 126.144447 
L 10.784472 126.144447 
" style="fill:none;stroke:#008000;stroke-linecap:square;stroke-width:1.5;"/>
    </g>
    <g id="line2d_30"/>
    <g id="text_12">
     <!-- Easy -->
     <g transform="translate(13.584472 127.369447)scale(0.035 -0.035)">
      <defs>
       <path d="M 628 4666 
L 3578 4666 
L 3578 4134 
L 1259 4134 
L 1259 2753 
L 3481 2753 
L 3481 2222 
L 1259 2222 
L 1259 531 
L 3634 531 
L 3634 0 
L 628 0 
L 628 4666 
z
" id="DejaVuSans-45" transform="scale(0.015625)"/>
      </defs>
      <use xlink:href="#DejaVuSans-45"/>
      <use x="63.183594" xlink:href="#DejaVuSans-61"/>
      <use x="124.462891" xlink:href="#DejaVuSans-73"/>
      <use x="176.5625" xlink:href="#DejaVuSans-79"/>
     </g>
    </g>
    <g id="line2d_31">
     <path d="M 3.784472 131.281791 
L 10.784472 131.281791 
" style="fill:none;stroke:#4169e1;stroke-linecap:square;stroke-width:1.5;"/>
    </g>
    <g id="line2d_32"/>
    <g id="text_13">
     <!-- Intermediate -->
     <g transform="translate(13.584472 132.506791)scale(0.035 -0.035)">
      <defs>
       <path d="M 628 4666 
L 1259 4666 
L 1259 0 
L 628 0 
L 628 4666 
z
" id="DejaVuSans-49" transform="scale(0.015625)"/>
      </defs>
      <use xlink:href="#DejaVuSans-49"/>
      <use x="29.492188" xlink:href="#DejaVuSans-6e"/>
      <use x="92.871094" xlink:href="#DejaVuSans-74"/>
      <use x="132.080078" xlink:href="#DejaVuSans-65"/>
      <use x="193.603516" xlink:href="#DejaVuSans-72"/>
      <use x="232.966797" xlink:href="#DejaVuSans-6d"/>
      <use x="330.378906" xlink:href="#DejaVuSans-65"/>
      <use x="391.902344" xlink:href="#DejaVuSans-64"/>
      <use x="455.378906" xlink:href="#DejaVuSans-69"/>
      <use x="483.162109" xlink:href="#DejaVuSans-61"/>
      <use x="544.441406" xlink:href="#DejaVuSans-74"/>
      <use x="583.650391" xlink:href="#DejaVuSans-65"/>
     </g>
    </g>
    <g id="line2d_33">
     <path d="M 43.166035 126.144447 
L 50.166035 126.144447 
" style="fill:none;stroke:#000000;stroke-linecap:square;stroke-width:1.5;"/>
    </g>
    <g id="line2d_34"/>
    <g id="text_14">
     <!-- Advanced -->
     <g transform="translate(52.966035 127.369447)scale(0.035 -0.035)">
      <defs>
       <path d="M 2188 4044 
L 1331 1722 
L 3047 1722 
L 2188 4044 
z
M 1831 4666 
L 2547 4666 
L 4325 0 
L 3669 0 
L 3244 1197 
L 1141 1197 
L 716 0 
L 50 0 
L 1831 4666 
z
" id="DejaVuSans-41" transform="scale(0.015625)"/>
       <path d="M 191 3500 
L 800 3500 
L 1894 563 
L 2988 3500 
L 3597 3500 
L 2284 0 
L 1503 0 
L 191 3500 
z
" id="DejaVuSans-76" transform="scale(0.015625)"/>
       <path d="M 3122 3366 
L 3122 2828 
Q 2878 2963 2633 3030 
Q 2388 3097 2138 3097 
Q 1578 3097 1268 2742 
Q 959 2388 959 1747 
Q 959 1106 1268 751 
Q 1578 397 2138 397 
Q 2388 397 2633 464 
Q 2878 531 3122 666 
L 3122 134 
Q 2881 22 2623 -34 
Q 2366 -91 2075 -91 
Q 1284 -91 818 406 
Q 353 903 353 1747 
Q 353 2603 823 3093 
Q 1294 3584 2113 3584 
Q 2378 3584 2631 3529 
Q 2884 3475 3122 3366 
z
" id="DejaVuSans-63" transform="scale(0.015625)"/>
      </defs>
      <use xlink:href="#DejaVuSans-41"/>
      <use x="66.658203" xlink:href="#DejaVuSans-64"/>
      <use x="130.134766" xlink:href="#DejaVuSans-76"/>
      <use x="189.314453" xlink:href="#DejaVuSans-61"/>
      <use x="250.59375" xlink:href="#DejaVuSans-6e"/>
      <use x="313.972656" xlink:href="#DejaVuSans-63"/>
      <use x="368.953125" xlink:href="#DejaVuSans-65"/>
      <use x="430.476562" xlink:href="#DejaVuSans-64"/>
     </g>
    </g>
    <g id="line2d_35">
     <path d="M 43.166035 131.281791 
L 50.166035 131.281791 
" style="fill:none;stroke:#ff0000;stroke-linecap:square;stroke-width:1.5;"/>
    </g>
    <g id="line2d_36"/>
    <g id="text_15">
     <!-- Expert -->
     <g transform="translate(52.966035 132.506791)scale(0.035 -0.035)">
      <defs>
       <path d="M 3513 3500 
L 2247 1797 
L 3578 0 
L 2900 0 
L 1881 1375 
L 863 0 
L 184 0 
L 1544 1831 
L 300 3500 
L 978 3500 
L 1906 2253 
L 2834 3500 
L 3513 3500 
z
" id="DejaVuSans-78" transform="scale(0.015625)"/>
      </defs>
      <use xlink:href="#DejaVuSans-45"/>
      <use x="63.183594" xlink:href="#DejaVuSans-78"/>
      <use x="122.363281" xlink:href="#DejaVuSans-70"/>
      <use x="185.839844" xlink:href="#DejaVuSans-65"/>
      <use x="247.363281" xlink:href="#DejaVuSans-72"/>
      <use x="288.476562" xlink:href="#DejaVuSans-74"/>
     </g>
    </g>
    <g id="line2d_37">
     <path d="M 77.255488 126.144447 
L 84.255488 126.144447 
" style="fill:none;stroke:#ffd700;stroke-linecap:square;stroke-width:1.5;"/>
    </g>
    <g id="line2d_38"/>
    <g id="text_16">
     <!-- Extreme -->
     <g transform="translate(87.055488 127.369447)scale(0.035 -0.035)">
      <use xlink:href="#DejaVuSans-45"/>
      <use x="63.183594" xlink:href="#DejaVuSans-78"/>
      <use x="122.363281" xlink:href="#DejaVuSans-74"/>
      <use x="161.572266" xlink:href="#DejaVuSans-72"/>
      <use x="200.435547" xlink:href="#DejaVuSans-65"/>
      <use x="261.958984" xlink:href="#DejaVuSans-6d"/>
      <use x="359.371094" xlink:href="#DejaVuSans-65"/>
     </g>
    </g>
    <g id="line2d_39">
     <path d="M 77.255488 131.281791 
L 84.255488 131.281791 
" style="fill:none;stroke:#000000;stroke-dasharray:1.5,2.475;stroke-dashoffset:0;stroke-width:1.5;"/>
    </g>
    <g id="line2d_40"/>
    <g id="text_17">
     <!-- Gladed -->
     <g transform="translate(87.055488 132.506791)scale(0.035 -0.035)">
      <use xlink:href="#DejaVuSans-47"/>
      <use x="77.490234" xlink:href="#DejaVuSans-6c"/>
      <use x="105.273438" xlink:href="#DejaVuSans-61"/>
      <use x="166.552734" xlink:href="#DejaVuSans-64"/>
      <use x="230.029297" xlink:href="#DejaVuSans-65"/>
      <use x="291.552734" xlink:href="#DejaVuSans-64"/>
     </g>
    </g>
   </g>
  </g>
  <g id="text_18">
   <!-- Sources: USGS and OpenStreetMaps -->
   <g transform="translate(25.023373 137.464112)scale(0.030435 -0.030435)">
    <defs>
     <path d="M 750 794 
L 1409 794 
L 1409 0 
L 750 0 
L 750 794 
z
M 750 3309 
L 1409 3309 
L 1409 2516 
L 750 2516 
L 750 3309 
z
" id="DejaVuSans-3a" transform="scale(0.015625)"/>
     <path d="M 2522 4238 
Q 1834 4238 1429 3725 
Q 1025 3213 1025 2328 
Q 1025 1447 1429 934 
Q 1834 422 2522 422 
Q 3209 422 3611 934 
Q 4013 1447 4013 2328 
Q 4013 3213 3611 3725 
Q 3209 4238 2522 4238 
z
M 2522 4750 
Q 3503 4750 4090 4092 
Q 4678 3434 4678 2328 
Q 4678 1225 4090 567 
Q 3503 -91 2522 -91 
Q 1538 -91 948 565 
Q 359 1222 359 2328 
Q 359 3434 948 4092 
Q 1538 4750 2522 4750 
z
" id="DejaVuSans-4f" transform="scale(0.015625)"/>
    </defs>
    <use xlink:href="#DejaVuSans-53"/>
    <use x="63.476562" xlink:href="#DejaVuSans-6f"/>
    <use x="124.658203" xlink:href="#DejaVuSans-75"/>
    <use x="188.037109" xlink:href="#DejaVuSans-72"/>
    <use x="226.900391" xlink:href="#DejaVuSans-63"/>
    <use x="281.880859" xlink:href="#DejaVuSans-65"/>
    <use x="343.404297" xlink:href="#DejaVuSans-73"/>
    <use x="395.503906" xlink:href="#DejaVuSans-3a"/>
    <use x="429.195312" xlink:href="#DejaVuSans-20"/>
    <use x="460.982422" xlink:href="#DejaVuSans-55"/>
    <use x="534.175781" xlink:href="#DejaVuSans-53"/>
    <use x="597.652344" xlink:href="#DejaVuSans-47"/>
    <use x="675.142578" xlink:href="#DejaVuSans-53"/>
    <use x="738.619141" xlink:href="#DejaVuSans-20"/>
    <use x="770.40625" xlink:href="#DejaVuSans-61"/>
    <use x="831.685547" xlink:href="#DejaVuSans-6e"/>
    <use x="895.064453" xlink:href="#DejaVuSans-64"/>
    <use x="958.541016" xlink:href="#DejaVuSans-20"/>
    <use x="990.328125" xlink:href="#DejaVuSans-4f"/>
    <use x="1069.039062" xlink:href="#DejaVuSans-70"/>
    <use x="1132.515625" xlink:href="#DejaVuSans-65"/>
    <use x="1194.039062" xlink:href="#DejaVuSans-6e"/>
    <use x="1257.417969" xlink:href="#DejaVuSans-53"/>
    <use x="1320.894531" xlink:href="#DejaVuSans-74"/>
    <use x="1360.103516" xlink:href="#DejaVuSans-72"/>
    <use x="1398.966797" xlink:href="#DejaVuSans-65"/>
    <use x="1460.490234" xlink:href="#DejaVuSans-65"/>
    <use x="1522.013672" xlink:href="#DejaVuSans-74"/>
    <use x="1561.222656" xlink:href="#DejaVuSans-4d"/>
    <use x="1647.501953" xlink:href="#DejaVuSans-61"/>
    <use x="1708.78125" xlink:href="#DejaVuSans-70"/>
    <use x="1772.257812" xlink:href="#DejaVuSans-73"/>
   </g>
  </g>
 </g>
 <defs>
  <clipPath id="p437c0b72be">
   <rect height="116.349672" width="105.571679" x="0" y="10.873694"/>
  </clipPath>
 </defs>
</svg>
