<?xml version="1.0" encoding="utf-8" standalone="no"?>
<!DOCTYPE svg PUBLIC "-//W3C//DTD SVG 1.1//EN"
  "http://www.w3.org/Graphics/SVG/1.1/DTD/svg11.dtd">
<svg height="128.462134pt" version="1.1" viewBox="0 0 56.282685 128.462134" width="56.282685pt" xmlns="http://www.w3.org/2000/svg" xmlns:xlink="http://www.w3.org/1999/xlink">
 <metadata>
  <rdf:RDF xmlns:cc="http://creativecommons.org/ns#" xmlns:dc="http://purl.org/dc/elements/1.1/" xmlns:rdf="http://www.w3.org/1999/02/22-rdf-syntax-ns#">
   <cc:Work>
    <dc:type rdf:resource="http://purl.org/dc/dcmitype/StillImage"/>
    <dc:date>2022-04-14T21:28:21.244405</dc:date>
    <dc:format>image/svg+xml</dc:format>
    <dc:creator>
     <cc:Agent>
      <dc:title>Matplotlib v3.4.3, https://matplotlib.org/</dc:title>
     </cc:Agent>
    </dc:creator>
   </cc:Work>
  </rdf:RDF>
 </metadata>
 <defs>
  <style type="text/css">*{stroke-linecap:butt;stroke-linejoin:round;}</style>
 </defs>
 <g id="figure_1">
  <g id="patch_1">
   <path d="M 0 128.462134 
L 56.282685 128.462134 
L 56.282685 0 
L 0 0 
z
" style="fill:#ffffff;"/>
  </g>
  <g id="axes_1">
   <g id="line2d_1">
    <path clip-path="url(#p65ae122112)" d="M 9.961726 115.688852 
L 10.40296 112.118555 
L 10.844193 108.548258 
L 11.285427 104.977961 
L 11.72666 101.407664 
" style="fill:none;stroke:#808080;stroke-linecap:square;stroke-width:1.5;"/>
   </g>
   <g id="line2d_2">
    <path clip-path="url(#p65ae122112)" d="M 16.199113 111.220292 
L 16.989703 104.864911 
L 17.780294 98.50953 
" style="fill:none;stroke:#808080;stroke-linecap:square;stroke-width:1.5;"/>
   </g>
   <g id="line2d_3">
    <path clip-path="url(#p65ae122112)" d="M 30.407059 111.975888 
L 31.836248 107.264613 
" style="fill:none;stroke:#808080;stroke-linecap:square;stroke-width:1.5;"/>
   </g>
   <g id="line2d_4">
    <path clip-path="url(#p65ae122112)" d="M 14.799415 114.270124 
L 15.552575 109.324802 
L 16.305735 104.379481 
L 17.08952 99.232618 
L 17.873305 94.085756 
L 18.723445 88.50114 
L 19.573585 82.916524 
L 20.273717 78.317216 
L 20.973849 73.717908 
L 21.673981 69.1186 
L 22.374114 64.519291 
L 22.966206 60.635849 
L 23.494495 57.164877 
L 24.022784 53.693905 
L 24.551074 50.222934 
L 25.079363 46.751962 
L 25.827418 41.839147 
L 26.575474 36.926332 
L 27.462478 31.102612 
L 28.398256 24.956717 
" style="fill:none;stroke:#808080;stroke-linecap:square;stroke-width:1.5;"/>
   </g>
   <g id="line2d_5">
    <path clip-path="url(#p65ae122112)" d="M 27.806164 106.855753 
L 28.20316 104.877913 
L 29.15255 100.147135 
L 30.101939 95.416356 
L 31.146041 90.214594 
L 32.190142 85.012832 
L 32.698298 82.480215 
L 33.529723 78.334553 
L 34.361147 74.188891 
L 35.139261 70.313394 
L 35.917375 66.437897 
L 36.69322 62.568902 
L 37.600074 58.051221 
L 38.506928 53.53354 
L 39.686008 47.659255 
L 40.865088 41.78497 
L 41.594145 38.151104 
L 42.323201 34.517239 
L 43.052257 30.883374 
L 43.781313 27.249509 
L 44.525966 23.538712 
L 45.270618 19.827914 
L 45.963094 16.300598 
L 46.65557 12.773282 
" style="fill:none;stroke:#808080;stroke-linecap:square;stroke-width:1.5;"/>
   </g>
   <g id="line2d_6">
    <path clip-path="url(#p65ae122112)" d="M 24.71526 32.379756 
L 24.604952 33.855551 
L 24.494643 35.331346 
L 24.384335 36.807141 
L 24.274027 38.282936 
L 23.970608 40.157478 
L 23.667189 42.032019 
L 23.36377 43.90656 
L 23.060351 45.781102 
L 22.80528 47.012556 
L 22.55021 48.244011 
L 22.29514 49.475465 
L 22.040069 50.70692 
L 21.784999 51.938374 
L 21.529928 53.169828 
L 21.274858 54.401283 
L 21.019788 55.632737 
L 20.923374 57.062482 
L 20.826961 58.492226 
L 20.730547 59.92197 
L 20.634134 61.351714 
L 20.53772 62.781458 
L 20.441307 64.211202 
L 20.344893 65.640946 
L 20.24848 67.07069 
L 20.634134 68.466302 
L 21.019788 69.861915 
L 21.529928 71.216713 
L 22.040069 72.571512 
L 22.55021 73.92631 
L 23.060351 75.281109 
L 23.281535 76.759071 
L 23.225955 78.127233 
L 22.674697 79.385596 
L 21.782021 80.297223 
" style="fill:none;stroke:#4169e1;stroke-linecap:square;stroke-width:1.5;"/>
   </g>
   <g id="line2d_7">
    <path clip-path="url(#p65ae122112)" d="M 45.352286 41.982898 
L 45.361927 42.981209 
L 45.371569 43.979519 
L 45.38121 44.97783 
L 45.390852 45.976141 
L 45.234889 47.001901 
L 45.078926 48.027662 
L 44.679377 48.946873 
L 44.279828 49.866085 
L 43.880279 50.785296 
L 43.48073 51.704508 
L 43.061473 52.904178 
L 42.642216 54.103848 
L 42.222959 55.303519 
L 41.803702 56.503189 
L 41.384445 57.70286 
L 40.965188 58.90253 
L 40.545931 60.1022 
L 40.126674 61.301871 
L 39.366709 62.579015 
L 38.606744 63.856159 
L 38.284893 64.862416 
L 37.963042 65.868672 
L 37.641191 66.874929 
L 37.31934 67.881186 
L 36.676205 68.674344 
L 36.033071 69.467503 
L 34.69746 70.231766 
L 33.36185 70.99603 
L 32.026239 71.760294 
L 30.690629 72.524558 
" style="fill:none;stroke:#4169e1;stroke-linecap:square;stroke-width:1.5;"/>
   </g>
   <g id="line2d_8">
    <path clip-path="url(#p65ae122112)" d="M 49.668208 14.923045 
L 49.637299 15.966052 
L 49.60639 17.009059 
L 49.575481 18.052066 
L 49.544572 19.095073 
L 49.513663 20.138081 
L 49.482754 21.181088 
L 49.451845 22.224095 
L 49.420936 23.267102 
L 49.390027 24.310109 
L 49.359118 25.353116 
L 49.328209 26.396123 
L 49.2973 27.43913 
L 49.266391 28.482137 
L 49.235482 29.525144 
L 49.204573 30.568151 
L 49.173664 31.611158 
L 48.930078 32.608024 
L 48.686492 33.60489 
L 48.442906 34.601756 
L 48.19932 35.598622 
L 47.760639 36.769217 
L 47.321957 37.939812 
L 46.883276 39.110407 
L 46.444594 40.281002 
L 45.89844 41.13195 
L 45.352286 41.982898 
L 44.22595 43.000713 
L 43.099613 44.018527 
" style="fill:none;stroke:#4169e1;stroke-linecap:square;stroke-width:1.5;"/>
   </g>
   <g id="line2d_9">
    <path clip-path="url(#p65ae122112)" d="M 28.398256 24.956717 
L 27.52146 26.177517 
L 26.644664 27.398316 
L 26.369035 28.369899 
L 26.093406 29.341483 
L 25.817777 30.313066 
L 25.542148 31.284649 
L 24.71526 32.379756 
L 23.501584 33.419964 
L 22.508809 34.008332 
L 21.516033 34.5967 
L 20.523258 35.185067 
L 19.530483 35.773435 
L 18.303479 37.237311 
L 17.076475 38.701187 
L 15.849472 40.165063 
L 14.622468 41.628938 
L 13.602754 42.669146 
L 12.583039 43.709354 
L 11.838387 44.85864 
L 11.093734 46.007925 
L 10.6111 46.938333 
L 10.128465 47.868741 
L 9.64583 48.799149 
L 9.163196 49.729558 
L 8.611937 51.385222 
L 8.060679 53.040886 
L 7.509421 54.69655 
L 6.958162 56.352215 
L 6.902583 57.890855 
L 6.847003 59.429496 
L 6.515794 60.53255 
L 6.184586 61.635604 
L 6.018698 62.951395 
L 5.85281 64.267185 
L 5.686922 65.582976 
L 5.521034 66.898767 
L 5.01458 68.369505 
L 4.508125 69.840244 
L 4.020386 70.923794 
L 3.532647 72.007344 
L 3.064758 73.535871 
L 2.596869 75.064399 
L 2.577587 76.070656 
L 2.558304 77.076912 
L 2.87023 78.082447 
L 3.533214 78.817816 
L 4.196199 79.553185 
L 5.131977 79.940374 
L 6.165303 79.843576 
L 7.198629 79.746779 
L 8.407484 79.311553 
L 9.616339 78.876328 
L 10.825194 78.441102 
L 12.034049 78.005876 
L 13.496132 77.657695 
L 14.958214 77.309514 
L 15.933125 77.17371 
L 16.908035 77.037905 
L 18.058192 77.061743 
L 19.208348 77.085581 
L 19.98873 77.82095 
L 20.885376 79.059086 
L 21.782021 80.297223 
L 21.918702 81.400277 
L 22.055382 82.50333 
L 21.996967 84.089647 
L 21.938551 85.675964 
L 21.760612 87.046294 
L 21.582672 88.416623 
L 21.404733 89.786953 
L 21.226793 91.157282 
L 21.048853 92.527612 
L 20.870914 93.897941 
L 20.692974 95.268271 
L 20.515034 96.6386 
L 20.467395 98.537702 
L 20.419755 100.436804 
L 20.538004 101.453173 
L 20.656252 102.469543 
L 20.7745 103.485913 
L 20.892749 104.502283 
L 21.239837 106.028643 
L 21.586926 107.555004 
L 21.934014 109.081365 
L 22.281103 110.607725 
" style="fill:none;stroke:#008000;stroke-linecap:square;stroke-width:1.5;"/>
   </g>
   <g id="line2d_10">
    <path clip-path="url(#p65ae122112)" d="M 46.65557 12.773282 
L 45.459617 13.674796 
L 44.263664 14.576309 
L 43.067712 15.477823 
L 41.871759 16.379336 
L 40.675806 17.28085 
L 39.479853 18.182363 
L 38.283901 19.083877 
L 37.087948 19.98539 
L 36.254396 20.507842 
L 35.420845 21.030294 
L 34.587294 21.552745 
L 33.753742 22.075197 
L 32.920191 22.597649 
L 32.086639 23.1201 
L 31.253088 23.642552 
L 30.419537 24.165003 
L 29.408896 24.56086 
L 28.398256 24.956717 
L 29.23365 26.49608 
L 30.069045 28.035444 
L 30.927125 28.751309 
L 31.785205 29.467174 
L 32.798681 30.667025 
L 33.812157 31.866876 
L 34.75786 32.766584 
L 35.703563 33.666291 
L 36.649266 34.565999 
L 37.594969 35.465707 
L 38.861956 36.336881 
L 40.128943 37.208055 
L 41.201401 38.214312 
L 42.27386 39.220568 
L 43.099613 40.29545 
L 43.099613 42.156988 
L 43.099613 44.018527 
L 42.65838 45.38669 
L 41.831492 46.754852 
L 40.893445 47.903415 
L 39.542522 49.093875 
L 38.191599 50.284335 
L 37.309132 51.516693 
L 36.63367 52.877992 
L 35.958208 54.239292 
L 35.282747 55.600592 
L 34.607285 56.961892 
L 34.166052 58.384954 
L 33.724818 59.808016 
L 33.476412 61.340156 
L 33.228005 62.872296 
L 32.85256 64.218787 
L 32.477114 65.565278 
L 32.101669 66.91177 
L 31.726223 68.258261 
L 31.467324 69.324835 
L 31.208426 70.391409 
L 30.949527 71.457984 
L 30.690629 72.524558 
L 30.478519 74.178778 
L 30.122781 75.267203 
L 29.767044 76.355629 
L 29.411307 77.444055 
L 29.055569 78.532481 
L 28.699832 79.620907 
L 28.344094 80.709333 
L 27.988357 81.797759 
L 27.632619 82.886185 
L 27.495939 84.153577 
L 27.359259 85.420969 
L 27.222578 86.688361 
L 27.085898 87.955753 
L 26.773972 88.884717 
L 26.462046 89.81368 
L 25.955308 90.674741 
L 25.44857 91.535802 
L 24.941832 92.396863 
L 24.435094 93.257924 
L 23.323503 94.302466 
L 22.211912 95.347009 
L 21.363473 95.992804 
L 20.515034 96.6386 
" style="fill:none;stroke:#4169e1;stroke-linecap:square;stroke-width:1.5;"/>
   </g>
   <g id="line2d_11">
    <path clip-path="url(#p65ae122112)" d="M 46.65557 12.773282 
L 48.161889 13.848164 
L 49.668208 14.923045 
L 50.233645 15.793497 
L 50.799082 16.663949 
L 51.247688 17.612416 
L 51.696294 18.560883 
L 52.00822 20.205712 
L 52.320146 21.850541 
L 52.407769 22.905196 
L 52.495392 23.959851 
L 52.583015 25.014507 
L 52.670638 26.069162 
L 52.934074 27.549291 
L 53.197509 29.02942 
L 53.460945 30.509549 
L 53.724381 31.989678 
L 53.578059 33.044334 
L 53.431737 34.098989 
L 53.285416 35.153644 
L 53.139094 36.208299 
L 52.593507 38.066226 
L 51.930522 39.594754 
L 51.267538 41.123282 
L 50.526288 42.380922 
L 49.785039 43.638562 
L 49.185573 44.867308 
L 48.586108 46.096054 
L 47.986643 47.324799 
L 47.387178 48.553545 
L 46.787713 49.78229 
L 46.188248 51.011036 
L 45.588783 52.239781 
L 44.989318 53.468527 
L 44.701779 54.571581 
L 44.414239 55.674635 
L 44.1267 56.777688 
L 43.839161 57.880742 
L 43.551622 58.983796 
L 43.264083 60.08685 
L 42.976544 61.189904 
L 42.689005 62.292957 
L 42.289173 64.063478 
L 41.88934 65.833999 
L 41.489508 67.604519 
L 41.089675 69.37504 
L 40.499851 70.922891 
L 39.910028 72.470742 
L 39.320204 74.018593 
L 38.73038 75.566444 
L 38.140556 77.114295 
L 37.550733 78.662146 
L 36.960909 80.209997 
L 36.371085 81.757848 
L 35.698459 83.257481 
L 35.025833 84.757114 
L 34.353207 86.256747 
L 33.680581 87.75638 
L 32.959182 89.110818 
L 32.237782 90.465255 
L 31.389626 91.384467 
L 30.541471 92.303678 
L 29.693316 93.22289 
L 28.845161 94.142101 
L 28.279724 94.974267 
L 27.714287 95.806434 
L 26.954322 96.561307 
L 26.194357 97.31618 
L 25.804166 98.243699 
L 25.60907 99.21167 
L 25.628353 100.740198 
L 25.647635 102.268725 
L 25.998694 103.197689 
L 26.349753 104.126652 
L 27.077958 105.491203 
L 27.806164 106.855753 
" style="fill:none;stroke:#4169e1;stroke-linecap:square;stroke-width:1.5;"/>
   </g>
   <g id="text_1">
    <g id="patch_2">
     <path d="M 16.968561 105.043881 
L 19.149956 93.797547 
L 17.210478 93.421356 
L 15.029084 104.66769 
z
" style="fill:#ffffff;"/>
    </g>
    <!-- Chairlift #2 -->
    <g style="fill:#808080;" transform="translate(16.544408 104.941237)rotate(-79.022936)scale(0.02 -0.02)">
     <defs>
      <path d="M 4122 4306 
L 4122 3641 
Q 3803 3938 3442 4084 
Q 3081 4231 2675 4231 
Q 1875 4231 1450 3742 
Q 1025 3253 1025 2328 
Q 1025 1406 1450 917 
Q 1875 428 2675 428 
Q 3081 428 3442 575 
Q 3803 722 4122 1019 
L 4122 359 
Q 3791 134 3420 21 
Q 3050 -91 2638 -91 
Q 1578 -91 968 557 
Q 359 1206 359 2328 
Q 359 3453 968 4101 
Q 1578 4750 2638 4750 
Q 3056 4750 3426 4639 
Q 3797 4528 4122 4306 
z
" id="DejaVuSans-43" transform="scale(0.015625)"/>
      <path d="M 3513 2113 
L 3513 0 
L 2938 0 
L 2938 2094 
Q 2938 2591 2744 2837 
Q 2550 3084 2163 3084 
Q 1697 3084 1428 2787 
Q 1159 2491 1159 1978 
L 1159 0 
L 581 0 
L 581 4863 
L 1159 4863 
L 1159 2956 
Q 1366 3272 1645 3428 
Q 1925 3584 2291 3584 
Q 2894 3584 3203 3211 
Q 3513 2838 3513 2113 
z
" id="DejaVuSans-68" transform="scale(0.015625)"/>
      <path d="M 2194 1759 
Q 1497 1759 1228 1600 
Q 959 1441 959 1056 
Q 959 750 1161 570 
Q 1363 391 1709 391 
Q 2188 391 2477 730 
Q 2766 1069 2766 1631 
L 2766 1759 
L 2194 1759 
z
M 3341 1997 
L 3341 0 
L 2766 0 
L 2766 531 
Q 2569 213 2275 61 
Q 1981 -91 1556 -91 
Q 1019 -91 701 211 
Q 384 513 384 1019 
Q 384 1609 779 1909 
Q 1175 2209 1959 2209 
L 2766 2209 
L 2766 2266 
Q 2766 2663 2505 2880 
Q 2244 3097 1772 3097 
Q 1472 3097 1187 3025 
Q 903 2953 641 2809 
L 641 3341 
Q 956 3463 1253 3523 
Q 1550 3584 1831 3584 
Q 2591 3584 2966 3190 
Q 3341 2797 3341 1997 
z
" id="DejaVuSans-61" transform="scale(0.015625)"/>
      <path d="M 603 3500 
L 1178 3500 
L 1178 0 
L 603 0 
L 603 3500 
z
M 603 4863 
L 1178 4863 
L 1178 4134 
L 603 4134 
L 603 4863 
z
" id="DejaVuSans-69" transform="scale(0.015625)"/>
      <path d="M 2631 2963 
Q 2534 3019 2420 3045 
Q 2306 3072 2169 3072 
Q 1681 3072 1420 2755 
Q 1159 2438 1159 1844 
L 1159 0 
L 581 0 
L 581 3500 
L 1159 3500 
L 1159 2956 
Q 1341 3275 1631 3429 
Q 1922 3584 2338 3584 
Q 2397 3584 2469 3576 
Q 2541 3569 2628 3553 
L 2631 2963 
z
" id="DejaVuSans-72" transform="scale(0.015625)"/>
      <path d="M 603 4863 
L 1178 4863 
L 1178 0 
L 603 0 
L 603 4863 
z
" id="DejaVuSans-6c" transform="scale(0.015625)"/>
      <path d="M 2375 4863 
L 2375 4384 
L 1825 4384 
Q 1516 4384 1395 4259 
Q 1275 4134 1275 3809 
L 1275 3500 
L 2222 3500 
L 2222 3053 
L 1275 3053 
L 1275 0 
L 697 0 
L 697 3053 
L 147 3053 
L 147 3500 
L 697 3500 
L 697 3744 
Q 697 4328 969 4595 
Q 1241 4863 1831 4863 
L 2375 4863 
z
" id="DejaVuSans-66" transform="scale(0.015625)"/>
      <path d="M 1172 4494 
L 1172 3500 
L 2356 3500 
L 2356 3053 
L 1172 3053 
L 1172 1153 
Q 1172 725 1289 603 
Q 1406 481 1766 481 
L 2356 481 
L 2356 0 
L 1766 0 
Q 1100 0 847 248 
Q 594 497 594 1153 
L 594 3053 
L 172 3053 
L 172 3500 
L 594 3500 
L 594 4494 
L 1172 4494 
z
" id="DejaVuSans-74" transform="scale(0.015625)"/>
      <path id="DejaVuSans-20" transform="scale(0.015625)"/>
      <path d="M 3272 2816 
L 2363 2816 
L 2100 1772 
L 3016 1772 
L 3272 2816 
z
M 2803 4594 
L 2478 3297 
L 3391 3297 
L 3719 4594 
L 4219 4594 
L 3897 3297 
L 4872 3297 
L 4872 2816 
L 3775 2816 
L 3519 1772 
L 4513 1772 
L 4513 1294 
L 3397 1294 
L 3072 0 
L 2572 0 
L 2894 1294 
L 1978 1294 
L 1656 0 
L 1153 0 
L 1478 1294 
L 494 1294 
L 494 1772 
L 1594 1772 
L 1856 2816 
L 850 2816 
L 850 3297 
L 1978 3297 
L 2297 4594 
L 2803 4594 
z
" id="DejaVuSans-23" transform="scale(0.015625)"/>
      <path d="M 1228 531 
L 3431 531 
L 3431 0 
L 469 0 
L 469 531 
Q 828 903 1448 1529 
Q 2069 2156 2228 2338 
Q 2531 2678 2651 2914 
Q 2772 3150 2772 3378 
Q 2772 3750 2511 3984 
Q 2250 4219 1831 4219 
Q 1534 4219 1204 4116 
Q 875 4013 500 3803 
L 500 4441 
Q 881 4594 1212 4672 
Q 1544 4750 1819 4750 
Q 2544 4750 2975 4387 
Q 3406 4025 3406 3419 
Q 3406 3131 3298 2873 
Q 3191 2616 2906 2266 
Q 2828 2175 2409 1742 
Q 1991 1309 1228 531 
z
" id="DejaVuSans-32" transform="scale(0.015625)"/>
     </defs>
     <use xlink:href="#DejaVuSans-43"/>
     <use x="69.824219" xlink:href="#DejaVuSans-68"/>
     <use x="133.203125" xlink:href="#DejaVuSans-61"/>
     <use x="194.482422" xlink:href="#DejaVuSans-69"/>
     <use x="222.265625" xlink:href="#DejaVuSans-72"/>
     <use x="263.378906" xlink:href="#DejaVuSans-6c"/>
     <use x="291.162109" xlink:href="#DejaVuSans-69"/>
     <use x="318.945312" xlink:href="#DejaVuSans-66"/>
     <use x="352.400391" xlink:href="#DejaVuSans-74"/>
     <use x="391.609375" xlink:href="#DejaVuSans-20"/>
     <use x="423.396484" xlink:href="#DejaVuSans-23"/>
     <use x="507.185547" xlink:href="#DejaVuSans-32"/>
    </g>
   </g>
   <g id="text_2">
    <g id="patch_3">
     <path d="M 30.684298 96.008745 
L 33.521845 84.909789 
L 31.607783 84.420442 
L 28.770236 95.519398 
z
" style="fill:#ffffff;"/>
    </g>
    <!-- Chairlift #1 -->
    <g style="fill:#808080;" transform="translate(30.266899 95.88139)rotate(-75.659005)scale(0.02 -0.02)">
     <defs>
      <path d="M 794 531 
L 1825 531 
L 1825 4091 
L 703 3866 
L 703 4441 
L 1819 4666 
L 2450 4666 
L 2450 531 
L 3481 531 
L 3481 0 
L 794 0 
L 794 531 
z
" id="DejaVuSans-31" transform="scale(0.015625)"/>
     </defs>
     <use xlink:href="#DejaVuSans-43"/>
     <use x="69.824219" xlink:href="#DejaVuSans-68"/>
     <use x="133.203125" xlink:href="#DejaVuSans-61"/>
     <use x="194.482422" xlink:href="#DejaVuSans-69"/>
     <use x="222.265625" xlink:href="#DejaVuSans-72"/>
     <use x="263.378906" xlink:href="#DejaVuSans-6c"/>
     <use x="291.162109" xlink:href="#DejaVuSans-69"/>
     <use x="318.945312" xlink:href="#DejaVuSans-66"/>
     <use x="352.400391" xlink:href="#DejaVuSans-74"/>
     <use x="391.609375" xlink:href="#DejaVuSans-20"/>
     <use x="423.396484" xlink:href="#DejaVuSans-23"/>
     <use x="507.185547" xlink:href="#DejaVuSans-31"/>
    </g>
   </g>
   <g id="text_3">
    <g id="patch_4">
     <path d="M 21.17542 65.671099 
L 22.639706 48.62293 
L 20.671328 48.453864 
L 19.207042 65.502033 
z
" style="fill:#ffffff;"/>
    </g>
    <!-- Bootlegger 17.4° -->
    <g style="fill:#4169e1;" transform="translate(20.742793 65.613866)rotate(-85.09085)scale(0.02 -0.02)">
     <defs>
      <path d="M 1259 2228 
L 1259 519 
L 2272 519 
Q 2781 519 3026 730 
Q 3272 941 3272 1375 
Q 3272 1813 3026 2020 
Q 2781 2228 2272 2228 
L 1259 2228 
z
M 1259 4147 
L 1259 2741 
L 2194 2741 
Q 2656 2741 2882 2914 
Q 3109 3088 3109 3444 
Q 3109 3797 2882 3972 
Q 2656 4147 2194 4147 
L 1259 4147 
z
M 628 4666 
L 2241 4666 
Q 2963 4666 3353 4366 
Q 3744 4066 3744 3513 
Q 3744 3084 3544 2831 
Q 3344 2578 2956 2516 
Q 3422 2416 3680 2098 
Q 3938 1781 3938 1306 
Q 3938 681 3513 340 
Q 3088 0 2303 0 
L 628 0 
L 628 4666 
z
" id="DejaVuSans-42" transform="scale(0.015625)"/>
      <path d="M 1959 3097 
Q 1497 3097 1228 2736 
Q 959 2375 959 1747 
Q 959 1119 1226 758 
Q 1494 397 1959 397 
Q 2419 397 2687 759 
Q 2956 1122 2956 1747 
Q 2956 2369 2687 2733 
Q 2419 3097 1959 3097 
z
M 1959 3584 
Q 2709 3584 3137 3096 
Q 3566 2609 3566 1747 
Q 3566 888 3137 398 
Q 2709 -91 1959 -91 
Q 1206 -91 779 398 
Q 353 888 353 1747 
Q 353 2609 779 3096 
Q 1206 3584 1959 3584 
z
" id="DejaVuSans-6f" transform="scale(0.015625)"/>
      <path d="M 3597 1894 
L 3597 1613 
L 953 1613 
Q 991 1019 1311 708 
Q 1631 397 2203 397 
Q 2534 397 2845 478 
Q 3156 559 3463 722 
L 3463 178 
Q 3153 47 2828 -22 
Q 2503 -91 2169 -91 
Q 1331 -91 842 396 
Q 353 884 353 1716 
Q 353 2575 817 3079 
Q 1281 3584 2069 3584 
Q 2775 3584 3186 3129 
Q 3597 2675 3597 1894 
z
M 3022 2063 
Q 3016 2534 2758 2815 
Q 2500 3097 2075 3097 
Q 1594 3097 1305 2825 
Q 1016 2553 972 2059 
L 3022 2063 
z
" id="DejaVuSans-65" transform="scale(0.015625)"/>
      <path d="M 2906 1791 
Q 2906 2416 2648 2759 
Q 2391 3103 1925 3103 
Q 1463 3103 1205 2759 
Q 947 2416 947 1791 
Q 947 1169 1205 825 
Q 1463 481 1925 481 
Q 2391 481 2648 825 
Q 2906 1169 2906 1791 
z
M 3481 434 
Q 3481 -459 3084 -895 
Q 2688 -1331 1869 -1331 
Q 1566 -1331 1297 -1286 
Q 1028 -1241 775 -1147 
L 775 -588 
Q 1028 -725 1275 -790 
Q 1522 -856 1778 -856 
Q 2344 -856 2625 -561 
Q 2906 -266 2906 331 
L 2906 616 
Q 2728 306 2450 153 
Q 2172 0 1784 0 
Q 1141 0 747 490 
Q 353 981 353 1791 
Q 353 2603 747 3093 
Q 1141 3584 1784 3584 
Q 2172 3584 2450 3431 
Q 2728 3278 2906 2969 
L 2906 3500 
L 3481 3500 
L 3481 434 
z
" id="DejaVuSans-67" transform="scale(0.015625)"/>
      <path d="M 525 4666 
L 3525 4666 
L 3525 4397 
L 1831 0 
L 1172 0 
L 2766 4134 
L 525 4134 
L 525 4666 
z
" id="DejaVuSans-37" transform="scale(0.015625)"/>
      <path d="M 684 794 
L 1344 794 
L 1344 0 
L 684 0 
L 684 794 
z
" id="DejaVuSans-2e" transform="scale(0.015625)"/>
      <path d="M 2419 4116 
L 825 1625 
L 2419 1625 
L 2419 4116 
z
M 2253 4666 
L 3047 4666 
L 3047 1625 
L 3713 1625 
L 3713 1100 
L 3047 1100 
L 3047 0 
L 2419 0 
L 2419 1100 
L 313 1100 
L 313 1709 
L 2253 4666 
z
" id="DejaVuSans-34" transform="scale(0.015625)"/>
      <path d="M 1600 4347 
Q 1350 4347 1178 4173 
Q 1006 4000 1006 3750 
Q 1006 3503 1178 3333 
Q 1350 3163 1600 3163 
Q 1850 3163 2022 3333 
Q 2194 3503 2194 3750 
Q 2194 3997 2020 4172 
Q 1847 4347 1600 4347 
z
M 1600 4750 
Q 1800 4750 1984 4673 
Q 2169 4597 2303 4453 
Q 2447 4313 2519 4134 
Q 2591 3956 2591 3750 
Q 2591 3338 2302 3052 
Q 2013 2766 1594 2766 
Q 1172 2766 890 3047 
Q 609 3328 609 3750 
Q 609 4169 896 4459 
Q 1184 4750 1600 4750 
z
" id="DejaVuSans-b0" transform="scale(0.015625)"/>
     </defs>
     <use xlink:href="#DejaVuSans-42"/>
     <use x="68.603516" xlink:href="#DejaVuSans-6f"/>
     <use x="129.785156" xlink:href="#DejaVuSans-6f"/>
     <use x="190.966797" xlink:href="#DejaVuSans-74"/>
     <use x="230.175781" xlink:href="#DejaVuSans-6c"/>
     <use x="257.958984" xlink:href="#DejaVuSans-65"/>
     <use x="319.482422" xlink:href="#DejaVuSans-67"/>
     <use x="382.958984" xlink:href="#DejaVuSans-67"/>
     <use x="446.435547" xlink:href="#DejaVuSans-65"/>
     <use x="507.958984" xlink:href="#DejaVuSans-72"/>
     <use x="549.072266" xlink:href="#DejaVuSans-20"/>
     <use x="580.859375" xlink:href="#DejaVuSans-31"/>
     <use x="644.482422" xlink:href="#DejaVuSans-37"/>
     <use x="708.105469" xlink:href="#DejaVuSans-2e"/>
     <use x="739.892578" xlink:href="#DejaVuSans-34"/>
     <use x="803.515625" xlink:href="#DejaVuSans-b0"/>
    </g>
   </g>
   <g id="text_4">
    <g id="patch_5">
     <path d="M 39.901404 62.948049 
L 46.349404 48.462399 
L 44.544515 47.658989 
L 38.096514 62.144638 
z
" style="fill:#ffffff;"/>
    </g>
    <!-- Hangover 23.2° -->
    <g style="fill:#4169e1;" transform="translate(39.511274 62.752498)rotate(-66.004709)scale(0.02 -0.02)">
     <defs>
      <path d="M 628 4666 
L 1259 4666 
L 1259 2753 
L 3553 2753 
L 3553 4666 
L 4184 4666 
L 4184 0 
L 3553 0 
L 3553 2222 
L 1259 2222 
L 1259 0 
L 628 0 
L 628 4666 
z
" id="DejaVuSans-48" transform="scale(0.015625)"/>
      <path d="M 3513 2113 
L 3513 0 
L 2938 0 
L 2938 2094 
Q 2938 2591 2744 2837 
Q 2550 3084 2163 3084 
Q 1697 3084 1428 2787 
Q 1159 2491 1159 1978 
L 1159 0 
L 581 0 
L 581 3500 
L 1159 3500 
L 1159 2956 
Q 1366 3272 1645 3428 
Q 1925 3584 2291 3584 
Q 2894 3584 3203 3211 
Q 3513 2838 3513 2113 
z
" id="DejaVuSans-6e" transform="scale(0.015625)"/>
      <path d="M 191 3500 
L 800 3500 
L 1894 563 
L 2988 3500 
L 3597 3500 
L 2284 0 
L 1503 0 
L 191 3500 
z
" id="DejaVuSans-76" transform="scale(0.015625)"/>
      <path d="M 2597 2516 
Q 3050 2419 3304 2112 
Q 3559 1806 3559 1356 
Q 3559 666 3084 287 
Q 2609 -91 1734 -91 
Q 1441 -91 1130 -33 
Q 819 25 488 141 
L 488 750 
Q 750 597 1062 519 
Q 1375 441 1716 441 
Q 2309 441 2620 675 
Q 2931 909 2931 1356 
Q 2931 1769 2642 2001 
Q 2353 2234 1838 2234 
L 1294 2234 
L 1294 2753 
L 1863 2753 
Q 2328 2753 2575 2939 
Q 2822 3125 2822 3475 
Q 2822 3834 2567 4026 
Q 2313 4219 1838 4219 
Q 1578 4219 1281 4162 
Q 984 4106 628 3988 
L 628 4550 
Q 988 4650 1302 4700 
Q 1616 4750 1894 4750 
Q 2613 4750 3031 4423 
Q 3450 4097 3450 3541 
Q 3450 3153 3228 2886 
Q 3006 2619 2597 2516 
z
" id="DejaVuSans-33" transform="scale(0.015625)"/>
     </defs>
     <use xlink:href="#DejaVuSans-48"/>
     <use x="75.195312" xlink:href="#DejaVuSans-61"/>
     <use x="136.474609" xlink:href="#DejaVuSans-6e"/>
     <use x="199.853516" xlink:href="#DejaVuSans-67"/>
     <use x="263.330078" xlink:href="#DejaVuSans-6f"/>
     <use x="324.511719" xlink:href="#DejaVuSans-76"/>
     <use x="383.691406" xlink:href="#DejaVuSans-65"/>
     <use x="445.214844" xlink:href="#DejaVuSans-72"/>
     <use x="486.328125" xlink:href="#DejaVuSans-20"/>
     <use x="518.115234" xlink:href="#DejaVuSans-32"/>
     <use x="581.738281" xlink:href="#DejaVuSans-33"/>
     <use x="645.361328" xlink:href="#DejaVuSans-2e"/>
     <use x="677.148438" xlink:href="#DejaVuSans-32"/>
     <use x="740.771484" xlink:href="#DejaVuSans-b0"/>
    </g>
   </g>
   <g id="text_5">
    <g id="patch_6">
     <path d="M 49.93976 36.607231 
L 50.629059 18.345548 
L 48.65484 18.271029 
L 47.965541 36.532713 
z
" style="fill:#ffffff;"/>
    </g>
    <!-- Locher Bowl 18.0° -->
    <g style="fill:#4169e1;" transform="translate(49.504887 36.570802)rotate(-87.83836)scale(0.02 -0.02)">
     <defs>
      <path d="M 628 4666 
L 1259 4666 
L 1259 531 
L 3531 531 
L 3531 0 
L 628 0 
L 628 4666 
z
" id="DejaVuSans-4c" transform="scale(0.015625)"/>
      <path d="M 3122 3366 
L 3122 2828 
Q 2878 2963 2633 3030 
Q 2388 3097 2138 3097 
Q 1578 3097 1268 2742 
Q 959 2388 959 1747 
Q 959 1106 1268 751 
Q 1578 397 2138 397 
Q 2388 397 2633 464 
Q 2878 531 3122 666 
L 3122 134 
Q 2881 22 2623 -34 
Q 2366 -91 2075 -91 
Q 1284 -91 818 406 
Q 353 903 353 1747 
Q 353 2603 823 3093 
Q 1294 3584 2113 3584 
Q 2378 3584 2631 3529 
Q 2884 3475 3122 3366 
z
" id="DejaVuSans-63" transform="scale(0.015625)"/>
      <path d="M 269 3500 
L 844 3500 
L 1563 769 
L 2278 3500 
L 2956 3500 
L 3675 769 
L 4391 3500 
L 4966 3500 
L 4050 0 
L 3372 0 
L 2619 2869 
L 1863 0 
L 1184 0 
L 269 3500 
z
" id="DejaVuSans-77" transform="scale(0.015625)"/>
      <path d="M 2034 2216 
Q 1584 2216 1326 1975 
Q 1069 1734 1069 1313 
Q 1069 891 1326 650 
Q 1584 409 2034 409 
Q 2484 409 2743 651 
Q 3003 894 3003 1313 
Q 3003 1734 2745 1975 
Q 2488 2216 2034 2216 
z
M 1403 2484 
Q 997 2584 770 2862 
Q 544 3141 544 3541 
Q 544 4100 942 4425 
Q 1341 4750 2034 4750 
Q 2731 4750 3128 4425 
Q 3525 4100 3525 3541 
Q 3525 3141 3298 2862 
Q 3072 2584 2669 2484 
Q 3125 2378 3379 2068 
Q 3634 1759 3634 1313 
Q 3634 634 3220 271 
Q 2806 -91 2034 -91 
Q 1263 -91 848 271 
Q 434 634 434 1313 
Q 434 1759 690 2068 
Q 947 2378 1403 2484 
z
M 1172 3481 
Q 1172 3119 1398 2916 
Q 1625 2713 2034 2713 
Q 2441 2713 2670 2916 
Q 2900 3119 2900 3481 
Q 2900 3844 2670 4047 
Q 2441 4250 2034 4250 
Q 1625 4250 1398 4047 
Q 1172 3844 1172 3481 
z
" id="DejaVuSans-38" transform="scale(0.015625)"/>
      <path d="M 2034 4250 
Q 1547 4250 1301 3770 
Q 1056 3291 1056 2328 
Q 1056 1369 1301 889 
Q 1547 409 2034 409 
Q 2525 409 2770 889 
Q 3016 1369 3016 2328 
Q 3016 3291 2770 3770 
Q 2525 4250 2034 4250 
z
M 2034 4750 
Q 2819 4750 3233 4129 
Q 3647 3509 3647 2328 
Q 3647 1150 3233 529 
Q 2819 -91 2034 -91 
Q 1250 -91 836 529 
Q 422 1150 422 2328 
Q 422 3509 836 4129 
Q 1250 4750 2034 4750 
z
" id="DejaVuSans-30" transform="scale(0.015625)"/>
     </defs>
     <use xlink:href="#DejaVuSans-4c"/>
     <use x="53.962891" xlink:href="#DejaVuSans-6f"/>
     <use x="115.144531" xlink:href="#DejaVuSans-63"/>
     <use x="170.125" xlink:href="#DejaVuSans-68"/>
     <use x="233.503906" xlink:href="#DejaVuSans-65"/>
     <use x="295.027344" xlink:href="#DejaVuSans-72"/>
     <use x="336.140625" xlink:href="#DejaVuSans-20"/>
     <use x="367.927734" xlink:href="#DejaVuSans-42"/>
     <use x="436.53125" xlink:href="#DejaVuSans-6f"/>
     <use x="497.712891" xlink:href="#DejaVuSans-77"/>
     <use x="579.5" xlink:href="#DejaVuSans-6c"/>
     <use x="607.283203" xlink:href="#DejaVuSans-20"/>
     <use x="639.070312" xlink:href="#DejaVuSans-31"/>
     <use x="702.693359" xlink:href="#DejaVuSans-38"/>
     <use x="766.316406" xlink:href="#DejaVuSans-2e"/>
     <use x="798.103516" xlink:href="#DejaVuSans-30"/>
     <use x="861.726562" xlink:href="#DejaVuSans-b0"/>
    </g>
   </g>
   <g id="text_6">
    <g id="patch_7">
     <path d="M 21.039349 98.344273 
L 23.363383 84.292666 
L 21.414237 83.970291 
L 19.090203 98.021899 
z
" style="fill:#ffffff;"/>
    </g>
    <!-- Red Eye 13.6° -->
    <g style="fill:#008000;" transform="translate(20.612518 98.253407)rotate(-80.608711)scale(0.02 -0.02)">
     <defs>
      <path d="M 2841 2188 
Q 3044 2119 3236 1894 
Q 3428 1669 3622 1275 
L 4263 0 
L 3584 0 
L 2988 1197 
Q 2756 1666 2539 1819 
Q 2322 1972 1947 1972 
L 1259 1972 
L 1259 0 
L 628 0 
L 628 4666 
L 2053 4666 
Q 2853 4666 3247 4331 
Q 3641 3997 3641 3322 
Q 3641 2881 3436 2590 
Q 3231 2300 2841 2188 
z
M 1259 4147 
L 1259 2491 
L 2053 2491 
Q 2509 2491 2742 2702 
Q 2975 2913 2975 3322 
Q 2975 3731 2742 3939 
Q 2509 4147 2053 4147 
L 1259 4147 
z
" id="DejaVuSans-52" transform="scale(0.015625)"/>
      <path d="M 2906 2969 
L 2906 4863 
L 3481 4863 
L 3481 0 
L 2906 0 
L 2906 525 
Q 2725 213 2448 61 
Q 2172 -91 1784 -91 
Q 1150 -91 751 415 
Q 353 922 353 1747 
Q 353 2572 751 3078 
Q 1150 3584 1784 3584 
Q 2172 3584 2448 3432 
Q 2725 3281 2906 2969 
z
M 947 1747 
Q 947 1113 1208 752 
Q 1469 391 1925 391 
Q 2381 391 2643 752 
Q 2906 1113 2906 1747 
Q 2906 2381 2643 2742 
Q 2381 3103 1925 3103 
Q 1469 3103 1208 2742 
Q 947 2381 947 1747 
z
" id="DejaVuSans-64" transform="scale(0.015625)"/>
      <path d="M 628 4666 
L 3578 4666 
L 3578 4134 
L 1259 4134 
L 1259 2753 
L 3481 2753 
L 3481 2222 
L 1259 2222 
L 1259 531 
L 3634 531 
L 3634 0 
L 628 0 
L 628 4666 
z
" id="DejaVuSans-45" transform="scale(0.015625)"/>
      <path d="M 2059 -325 
Q 1816 -950 1584 -1140 
Q 1353 -1331 966 -1331 
L 506 -1331 
L 506 -850 
L 844 -850 
Q 1081 -850 1212 -737 
Q 1344 -625 1503 -206 
L 1606 56 
L 191 3500 
L 800 3500 
L 1894 763 
L 2988 3500 
L 3597 3500 
L 2059 -325 
z
" id="DejaVuSans-79" transform="scale(0.015625)"/>
      <path d="M 2113 2584 
Q 1688 2584 1439 2293 
Q 1191 2003 1191 1497 
Q 1191 994 1439 701 
Q 1688 409 2113 409 
Q 2538 409 2786 701 
Q 3034 994 3034 1497 
Q 3034 2003 2786 2293 
Q 2538 2584 2113 2584 
z
M 3366 4563 
L 3366 3988 
Q 3128 4100 2886 4159 
Q 2644 4219 2406 4219 
Q 1781 4219 1451 3797 
Q 1122 3375 1075 2522 
Q 1259 2794 1537 2939 
Q 1816 3084 2150 3084 
Q 2853 3084 3261 2657 
Q 3669 2231 3669 1497 
Q 3669 778 3244 343 
Q 2819 -91 2113 -91 
Q 1303 -91 875 529 
Q 447 1150 447 2328 
Q 447 3434 972 4092 
Q 1497 4750 2381 4750 
Q 2619 4750 2861 4703 
Q 3103 4656 3366 4563 
z
" id="DejaVuSans-36" transform="scale(0.015625)"/>
     </defs>
     <use xlink:href="#DejaVuSans-52"/>
     <use x="64.982422" xlink:href="#DejaVuSans-65"/>
     <use x="126.505859" xlink:href="#DejaVuSans-64"/>
     <use x="189.982422" xlink:href="#DejaVuSans-20"/>
     <use x="221.769531" xlink:href="#DejaVuSans-45"/>
     <use x="284.953125" xlink:href="#DejaVuSans-79"/>
     <use x="344.132812" xlink:href="#DejaVuSans-65"/>
     <use x="405.65625" xlink:href="#DejaVuSans-20"/>
     <use x="437.443359" xlink:href="#DejaVuSans-31"/>
     <use x="501.066406" xlink:href="#DejaVuSans-33"/>
     <use x="564.689453" xlink:href="#DejaVuSans-2e"/>
     <use x="596.476562" xlink:href="#DejaVuSans-36"/>
     <use x="660.099609" xlink:href="#DejaVuSans-b0"/>
    </g>
   </g>
   <g id="text_7">
    <g id="patch_8">
     <path d="M 29.702713 85.057538 
L 33.204118 63.618454 
L 31.254325 63.300017 
L 27.75292 84.739101 
z
" style="fill:#ffffff;"/>
    </g>
    <!-- Revenuer's Run 17.6° -->
    <g style="fill:#4169e1;" transform="translate(29.275699 84.967534)rotate(-80.724414)scale(0.02 -0.02)">
     <defs>
      <path d="M 544 1381 
L 544 3500 
L 1119 3500 
L 1119 1403 
Q 1119 906 1312 657 
Q 1506 409 1894 409 
Q 2359 409 2629 706 
Q 2900 1003 2900 1516 
L 2900 3500 
L 3475 3500 
L 3475 0 
L 2900 0 
L 2900 538 
Q 2691 219 2414 64 
Q 2138 -91 1772 -91 
Q 1169 -91 856 284 
Q 544 659 544 1381 
z
M 1991 3584 
L 1991 3584 
z
" id="DejaVuSans-75" transform="scale(0.015625)"/>
      <path d="M 1147 4666 
L 1147 2931 
L 616 2931 
L 616 4666 
L 1147 4666 
z
" id="DejaVuSans-27" transform="scale(0.015625)"/>
      <path d="M 2834 3397 
L 2834 2853 
Q 2591 2978 2328 3040 
Q 2066 3103 1784 3103 
Q 1356 3103 1142 2972 
Q 928 2841 928 2578 
Q 928 2378 1081 2264 
Q 1234 2150 1697 2047 
L 1894 2003 
Q 2506 1872 2764 1633 
Q 3022 1394 3022 966 
Q 3022 478 2636 193 
Q 2250 -91 1575 -91 
Q 1294 -91 989 -36 
Q 684 19 347 128 
L 347 722 
Q 666 556 975 473 
Q 1284 391 1588 391 
Q 1994 391 2212 530 
Q 2431 669 2431 922 
Q 2431 1156 2273 1281 
Q 2116 1406 1581 1522 
L 1381 1569 
Q 847 1681 609 1914 
Q 372 2147 372 2553 
Q 372 3047 722 3315 
Q 1072 3584 1716 3584 
Q 2034 3584 2315 3537 
Q 2597 3491 2834 3397 
z
" id="DejaVuSans-73" transform="scale(0.015625)"/>
     </defs>
     <use xlink:href="#DejaVuSans-52"/>
     <use x="64.982422" xlink:href="#DejaVuSans-65"/>
     <use x="126.505859" xlink:href="#DejaVuSans-76"/>
     <use x="185.685547" xlink:href="#DejaVuSans-65"/>
     <use x="247.208984" xlink:href="#DejaVuSans-6e"/>
     <use x="310.587891" xlink:href="#DejaVuSans-75"/>
     <use x="373.966797" xlink:href="#DejaVuSans-65"/>
     <use x="435.490234" xlink:href="#DejaVuSans-72"/>
     <use x="476.603516" xlink:href="#DejaVuSans-27"/>
     <use x="504.09375" xlink:href="#DejaVuSans-73"/>
     <use x="556.193359" xlink:href="#DejaVuSans-20"/>
     <use x="587.980469" xlink:href="#DejaVuSans-52"/>
     <use x="652.962891" xlink:href="#DejaVuSans-75"/>
     <use x="716.341797" xlink:href="#DejaVuSans-6e"/>
     <use x="779.720703" xlink:href="#DejaVuSans-20"/>
     <use x="811.507812" xlink:href="#DejaVuSans-31"/>
     <use x="875.130859" xlink:href="#DejaVuSans-37"/>
     <use x="938.753906" xlink:href="#DejaVuSans-2e"/>
     <use x="970.541016" xlink:href="#DejaVuSans-36"/>
     <use x="1034.164062" xlink:href="#DejaVuSans-b0"/>
    </g>
   </g>
   <g id="text_8">
    <g id="patch_9">
     <path d="M 39.407605 78.41592 
L 45.470053 57.33924 
L 43.57141 56.793118 
L 37.508962 77.869799 
z
" style="fill:#ffffff;"/>
    </g>
    <!-- White Lightning 20.6° -->
    <g style="fill:#4169e1;" transform="translate(38.994183 78.276193)rotate(-73.95277)scale(0.02 -0.02)">
     <defs>
      <path d="M 213 4666 
L 850 4666 
L 1831 722 
L 2809 4666 
L 3519 4666 
L 4500 722 
L 5478 4666 
L 6119 4666 
L 4947 0 
L 4153 0 
L 3169 4050 
L 2175 0 
L 1381 0 
L 213 4666 
z
" id="DejaVuSans-57" transform="scale(0.015625)"/>
     </defs>
     <use xlink:href="#DejaVuSans-57"/>
     <use x="98.876953" xlink:href="#DejaVuSans-68"/>
     <use x="162.255859" xlink:href="#DejaVuSans-69"/>
     <use x="190.039062" xlink:href="#DejaVuSans-74"/>
     <use x="229.248047" xlink:href="#DejaVuSans-65"/>
     <use x="290.771484" xlink:href="#DejaVuSans-20"/>
     <use x="322.558594" xlink:href="#DejaVuSans-4c"/>
     <use x="378.271484" xlink:href="#DejaVuSans-69"/>
     <use x="406.054688" xlink:href="#DejaVuSans-67"/>
     <use x="469.53125" xlink:href="#DejaVuSans-68"/>
     <use x="532.910156" xlink:href="#DejaVuSans-74"/>
     <use x="572.119141" xlink:href="#DejaVuSans-6e"/>
     <use x="635.498047" xlink:href="#DejaVuSans-69"/>
     <use x="663.28125" xlink:href="#DejaVuSans-6e"/>
     <use x="726.660156" xlink:href="#DejaVuSans-67"/>
     <use x="790.136719" xlink:href="#DejaVuSans-20"/>
     <use x="821.923828" xlink:href="#DejaVuSans-32"/>
     <use x="885.546875" xlink:href="#DejaVuSans-30"/>
     <use x="949.169922" xlink:href="#DejaVuSans-2e"/>
     <use x="980.957031" xlink:href="#DejaVuSans-36"/>
     <use x="1044.580078" xlink:href="#DejaVuSans-b0"/>
    </g>
   </g>
   <g id="text_9">
    <!-- Bryce Resort -->
    <g transform="translate(12.20853 5.127504)scale(0.05 -0.05)">
     <use xlink:href="#DejaVuSans-42"/>
     <use x="68.603516" xlink:href="#DejaVuSans-72"/>
     <use x="109.716797" xlink:href="#DejaVuSans-79"/>
     <use x="168.896484" xlink:href="#DejaVuSans-63"/>
     <use x="223.876953" xlink:href="#DejaVuSans-65"/>
     <use x="285.400391" xlink:href="#DejaVuSans-20"/>
     <use x="317.1875" xlink:href="#DejaVuSans-52"/>
     <use x="382.169922" xlink:href="#DejaVuSans-65"/>
     <use x="443.693359" xlink:href="#DejaVuSans-73"/>
     <use x="495.792969" xlink:href="#DejaVuSans-6f"/>
     <use x="556.974609" xlink:href="#DejaVuSans-72"/>
     <use x="598.087891" xlink:href="#DejaVuSans-74"/>
    </g>
   </g>
  </g>
  <g id="text_10">
   <!-- Sources: USGS and OpenStreetMaps -->
   <g transform="translate(8.311009 128.010028)scale(0.021739 -0.021739)">
    <defs>
     <path d="M 3425 4513 
L 3425 3897 
Q 3066 4069 2747 4153 
Q 2428 4238 2131 4238 
Q 1616 4238 1336 4038 
Q 1056 3838 1056 3469 
Q 1056 3159 1242 3001 
Q 1428 2844 1947 2747 
L 2328 2669 
Q 3034 2534 3370 2195 
Q 3706 1856 3706 1288 
Q 3706 609 3251 259 
Q 2797 -91 1919 -91 
Q 1588 -91 1214 -16 
Q 841 59 441 206 
L 441 856 
Q 825 641 1194 531 
Q 1563 422 1919 422 
Q 2459 422 2753 634 
Q 3047 847 3047 1241 
Q 3047 1584 2836 1778 
Q 2625 1972 2144 2069 
L 1759 2144 
Q 1053 2284 737 2584 
Q 422 2884 422 3419 
Q 422 4038 858 4394 
Q 1294 4750 2059 4750 
Q 2388 4750 2728 4690 
Q 3069 4631 3425 4513 
z
" id="DejaVuSans-53" transform="scale(0.015625)"/>
     <path d="M 750 794 
L 1409 794 
L 1409 0 
L 750 0 
L 750 794 
z
M 750 3309 
L 1409 3309 
L 1409 2516 
L 750 2516 
L 750 3309 
z
" id="DejaVuSans-3a" transform="scale(0.015625)"/>
     <path d="M 556 4666 
L 1191 4666 
L 1191 1831 
Q 1191 1081 1462 751 
Q 1734 422 2344 422 
Q 2950 422 3222 751 
Q 3494 1081 3494 1831 
L 3494 4666 
L 4128 4666 
L 4128 1753 
Q 4128 841 3676 375 
Q 3225 -91 2344 -91 
Q 1459 -91 1007 375 
Q 556 841 556 1753 
L 556 4666 
z
" id="DejaVuSans-55" transform="scale(0.015625)"/>
     <path d="M 3809 666 
L 3809 1919 
L 2778 1919 
L 2778 2438 
L 4434 2438 
L 4434 434 
Q 4069 175 3628 42 
Q 3188 -91 2688 -91 
Q 1594 -91 976 548 
Q 359 1188 359 2328 
Q 359 3472 976 4111 
Q 1594 4750 2688 4750 
Q 3144 4750 3555 4637 
Q 3966 4525 4313 4306 
L 4313 3634 
Q 3963 3931 3569 4081 
Q 3175 4231 2741 4231 
Q 1884 4231 1454 3753 
Q 1025 3275 1025 2328 
Q 1025 1384 1454 906 
Q 1884 428 2741 428 
Q 3075 428 3337 486 
Q 3600 544 3809 666 
z
" id="DejaVuSans-47" transform="scale(0.015625)"/>
     <path d="M 2522 4238 
Q 1834 4238 1429 3725 
Q 1025 3213 1025 2328 
Q 1025 1447 1429 934 
Q 1834 422 2522 422 
Q 3209 422 3611 934 
Q 4013 1447 4013 2328 
Q 4013 3213 3611 3725 
Q 3209 4238 2522 4238 
z
M 2522 4750 
Q 3503 4750 4090 4092 
Q 4678 3434 4678 2328 
Q 4678 1225 4090 567 
Q 3503 -91 2522 -91 
Q 1538 -91 948 565 
Q 359 1222 359 2328 
Q 359 3434 948 4092 
Q 1538 4750 2522 4750 
z
" id="DejaVuSans-4f" transform="scale(0.015625)"/>
     <path d="M 1159 525 
L 1159 -1331 
L 581 -1331 
L 581 3500 
L 1159 3500 
L 1159 2969 
Q 1341 3281 1617 3432 
Q 1894 3584 2278 3584 
Q 2916 3584 3314 3078 
Q 3713 2572 3713 1747 
Q 3713 922 3314 415 
Q 2916 -91 2278 -91 
Q 1894 -91 1617 61 
Q 1341 213 1159 525 
z
M 3116 1747 
Q 3116 2381 2855 2742 
Q 2594 3103 2138 3103 
Q 1681 3103 1420 2742 
Q 1159 2381 1159 1747 
Q 1159 1113 1420 752 
Q 1681 391 2138 391 
Q 2594 391 2855 752 
Q 3116 1113 3116 1747 
z
" id="DejaVuSans-70" transform="scale(0.015625)"/>
     <path d="M 628 4666 
L 1569 4666 
L 2759 1491 
L 3956 4666 
L 4897 4666 
L 4897 0 
L 4281 0 
L 4281 4097 
L 3078 897 
L 2444 897 
L 1241 4097 
L 1241 0 
L 628 0 
L 628 4666 
z
" id="DejaVuSans-4d" transform="scale(0.015625)"/>
    </defs>
    <use xlink:href="#DejaVuSans-53"/>
    <use x="63.476562" xlink:href="#DejaVuSans-6f"/>
    <use x="124.658203" xlink:href="#DejaVuSans-75"/>
    <use x="188.037109" xlink:href="#DejaVuSans-72"/>
    <use x="226.900391" xlink:href="#DejaVuSans-63"/>
    <use x="281.880859" xlink:href="#DejaVuSans-65"/>
    <use x="343.404297" xlink:href="#DejaVuSans-73"/>
    <use x="395.503906" xlink:href="#DejaVuSans-3a"/>
    <use x="429.195312" xlink:href="#DejaVuSans-20"/>
    <use x="460.982422" xlink:href="#DejaVuSans-55"/>
    <use x="534.175781" xlink:href="#DejaVuSans-53"/>
    <use x="597.652344" xlink:href="#DejaVuSans-47"/>
    <use x="675.142578" xlink:href="#DejaVuSans-53"/>
    <use x="738.619141" xlink:href="#DejaVuSans-20"/>
    <use x="770.40625" xlink:href="#DejaVuSans-61"/>
    <use x="831.685547" xlink:href="#DejaVuSans-6e"/>
    <use x="895.064453" xlink:href="#DejaVuSans-64"/>
    <use x="958.541016" xlink:href="#DejaVuSans-20"/>
    <use x="990.328125" xlink:href="#DejaVuSans-4f"/>
    <use x="1069.039062" xlink:href="#DejaVuSans-70"/>
    <use x="1132.515625" xlink:href="#DejaVuSans-65"/>
    <use x="1194.039062" xlink:href="#DejaVuSans-6e"/>
    <use x="1257.417969" xlink:href="#DejaVuSans-53"/>
    <use x="1320.894531" xlink:href="#DejaVuSans-74"/>
    <use x="1360.103516" xlink:href="#DejaVuSans-72"/>
    <use x="1398.966797" xlink:href="#DejaVuSans-65"/>
    <use x="1460.490234" xlink:href="#DejaVuSans-65"/>
    <use x="1522.013672" xlink:href="#DejaVuSans-74"/>
    <use x="1561.222656" xlink:href="#DejaVuSans-4d"/>
    <use x="1647.501953" xlink:href="#DejaVuSans-61"/>
    <use x="1708.78125" xlink:href="#DejaVuSans-70"/>
    <use x="1772.257812" xlink:href="#DejaVuSans-73"/>
   </g>
  </g>
 </g>
 <defs>
  <clipPath id="p65ae122112">
   <rect height="113.207127" width="56.282685" x="0" y="7.627504"/>
  </clipPath>
 </defs>
</svg>
