<?xml version="1.0" encoding="utf-8" standalone="no"?>
<!DOCTYPE svg PUBLIC "-//W3C//DTD SVG 1.1//EN"
  "http://www.w3.org/Graphics/SVG/1.1/DTD/svg11.dtd">
<svg height="80.817308pt" version="1.1" viewBox="0 0 46.358207 80.817308" width="46.358207pt" xmlns="http://www.w3.org/2000/svg" xmlns:xlink="http://www.w3.org/1999/xlink">
 <metadata>
  <rdf:RDF xmlns:cc="http://creativecommons.org/ns#" xmlns:dc="http://purl.org/dc/elements/1.1/" xmlns:rdf="http://www.w3.org/1999/02/22-rdf-syntax-ns#">
   <cc:Work>
    <dc:type rdf:resource="http://purl.org/dc/dcmitype/StillImage"/>
    <dc:date>2022-04-14T21:28:27.983999</dc:date>
    <dc:format>image/svg+xml</dc:format>
    <dc:creator>
     <cc:Agent>
      <dc:title>Matplotlib v3.4.3, https://matplotlib.org/</dc:title>
     </cc:Agent>
    </dc:creator>
   </cc:Work>
  </rdf:RDF>
 </metadata>
 <defs>
  <style type="text/css">*{stroke-linecap:butt;stroke-linejoin:round;}</style>
 </defs>
 <g id="figure_1">
  <g id="patch_1">
   <path d="M 0 80.817308 
L 46.358207 80.817308 
L 46.358207 0 
L 0 0 
z
" style="fill:#ffffff;"/>
  </g>
  <g id="axes_1">
   <g id="line2d_1">
    <path clip-path="url(#p0b4e277dcd)" d="M 36.243515 65.51143 
L 35.73695 63.020007 
L 34.725277 58.039311 
L 33.713604 53.058614 
L 32.827845 48.702653 
L 31.942085 44.346692 
L 31.100722 40.205601 
L 30.259359 36.064511 
L 29.479134 32.222627 
L 29.150158 30.607876 
L 28.39759 26.902973 
L 27.645022 23.198069 
L 26.892453 19.493166 
L 26.139885 15.788262 
L 25.301434 11.665973 
" style="fill:none;stroke:#808080;stroke-linecap:square;stroke-width:1.5;"/>
   </g>
   <g id="line2d_2">
    <path clip-path="url(#p0b4e277dcd)" d="M 27.569328 67.688068 
L 26.276716 61.839294 
L 25.382222 57.791672 
L 24.487728 53.744051 
L 23.428747 48.950828 
L 22.369765 44.157606 
L 21.383566 39.693673 
L 20.397367 35.229739 
L 19.659355 31.89119 
L 18.921343 28.55264 
L 18.183331 25.214091 
L 17.445319 21.875542 
L 16.221122 16.334033 
L 15.780062 14.338961 
" style="fill:none;stroke:#808080;stroke-linecap:square;stroke-width:1.5;"/>
   </g>
   <g id="line2d_3">
    <path clip-path="url(#p0b4e277dcd)" d="M 13.16718 62.790096 
L 12.386954 58.265999 
L 11.606728 53.741902 
" style="fill:none;stroke:#808080;stroke-linecap:square;stroke-width:1.5;"/>
   </g>
   <g id="line2d_4">
    <path clip-path="url(#p0b4e277dcd)" d="M 14.503461 68.183344 
L 14.037655 64.608974 
" style="fill:none;stroke:#808080;stroke-linecap:square;stroke-width:1.5;"/>
   </g>
   <g id="line2d_5">
    <path clip-path="url(#p0b4e277dcd)" d="M 10.437846 69.353313 
L 10.996813 68.517467 
L 11.615462 67.595673 
L 12.02741 66.759827 
L 12.32145 65.923981 
L 12.352019 65.060202 
L 12.234111 64.195349 
L 10.813402 58.122573 
L 9.392693 52.049797 
L 7.971984 45.977021 
L 6.551274 39.904246 
L 6.169896 39.327318 
" style="fill:none;stroke:#808080;stroke-linecap:square;stroke-width:1.5;"/>
   </g>
   <g id="line2d_6">
    <path clip-path="url(#p0b4e277dcd)" d="M 9.878878 69.958174 
L 9.113209 69.20935 
L 8.612467 68.690438 
L 8.111726 68.027563 
L 7.788572 67.220724 
L 7.089317 63.925015 
L 6.390062 60.629305 
L 5.690807 57.333595 
L 4.991551 54.037886 
L 4.292296 50.742176 
L 3.593041 47.446467 
L 2.893785 44.150757 
L 2.19453 40.855047 
L 2.136304 40.134157 
L 2.107191 39.327318 
" style="fill:none;stroke:#808080;stroke-linecap:square;stroke-width:1.5;"/>
   </g>
   <g id="line2d_7">
    <path clip-path="url(#p0b4e277dcd)" d="M 19.122222 62.350686 
L 18.371473 59.181078 
L 17.620724 56.011471 
L 16.869976 52.841863 
L 16.119227 49.672256 
" style="fill:none;stroke:#808080;stroke-linecap:square;stroke-width:1.5;"/>
   </g>
   <g id="line2d_8">
    <path clip-path="url(#p0b4e277dcd)" d="M 30.572323 31.725202 
L 30.118162 33.044507 
L 31.481373 33.507821 
L 32.844584 33.971136 
L 34.207796 34.43445 
L 35.571007 34.897764 
L 36.557934 35.833928 
L 37.544861 36.770092 
L 38.531788 37.706255 
L 39.518715 38.642419 
L 40.505642 39.578583 
L 41.49257 40.514746 
L 42.479497 41.45091 
L 43.466424 42.387074 
L 44.160766 43.940587 
L 44.205891 45.123986 
L 44.251016 46.307385 
L 44.114186 48.150973 
L 43.319404 49.649157 
L 42.524622 51.147341 
L 41.847747 52.314356 
L 41.170872 53.481371 
L 40.493997 54.648386 
L 39.817123 55.815402 
L 39.08093 57.19863 
L 38.344738 58.581858 
L 37.608546 59.965087 
L 36.872353 61.348315 
L 36.541922 62.370561 
L 36.211491 63.392808 
L 35.881059 64.415054 
L 35.550628 65.4373 
" style="fill:none;stroke:#008000;stroke-linecap:square;stroke-width:1.5;"/>
   </g>
   <g id="line2d_9">
    <path clip-path="url(#p0b4e277dcd)" d="M 19.836944 13.37097 
L 20.161643 14.919648 
L 20.486343 16.468327 
L 20.811043 18.017006 
L 21.135743 19.565684 
L 21.460442 21.114363 
L 21.785142 22.663042 
L 22.109842 24.21172 
L 22.434541 25.760399 
L 22.759241 27.309078 
L 23.083941 28.857756 
L 23.408641 30.406435 
L 23.73334 31.955114 
L 24.05804 33.503792 
L 24.38274 35.052471 
L 24.70744 36.60115 
L 25.032139 38.149828 
" style="fill:none;stroke:#4169e1;stroke-linecap:square;stroke-width:1.5;"/>
   </g>
   <g id="line2d_10">
    <path clip-path="url(#p0b4e277dcd)" d="M 30.118162 33.044507 
L 31.685891 34.169891 
L 33.253621 35.295275 
L 34.258743 36.753171 
L 35.263866 38.211067 
L 35.91745 39.470745 
L 36.571035 40.730422 
L 37.814883 41.879979 
L 39.058732 43.029536 
L 40.260366 43.403948 
L 41.462001 43.77836 
L 42.811384 43.859473 
L 44.160766 43.940587 
" style="fill:none;stroke:#008000;stroke-linecap:square;stroke-width:1.5;"/>
   </g>
   <g id="line2d_11">
    <path clip-path="url(#p0b4e277dcd)" d="M 25.062708 10.859134 
L 25.746861 11.349039 
L 27.273832 12.443804 
L 27.972178 13.275084 
L 28.670523 14.106364 
L 29.368869 14.937644 
L 30.067214 15.768924 
L 31.204801 17.170416 
L 32.342387 18.571909 
L 33.185205 19.93365 
L 34.028024 21.295391 
L 34.079699 22.309043 
L 34.131374 23.322694 
L 33.712149 25.11149 
L 33.292923 26.900287 
L 32.612773 28.106516 
L 31.932623 29.312745 
L 31.252473 30.518973 
L 30.572323 31.725202 
L 29.979876 32.526132 
L 29.387428 33.327062 
L 28.794981 34.127991 
L 28.202534 34.928921 
L 27.409935 35.734148 
L 26.617336 36.539375 
L 25.824738 37.344602 
L 25.032139 38.149828 
" style="fill:none;stroke:#4169e1;stroke-linecap:square;stroke-width:1.5;"/>
   </g>
   <g id="line2d_12">
    <path clip-path="url(#p0b4e277dcd)" d="M 20.299839 56.640504 
L 20.565858 57.834109 
L 20.831877 59.027715 
L 21.097896 60.22132 
L 21.363915 61.414925 
" style="fill:none;stroke:#008000;stroke-linecap:square;stroke-width:1.5;"/>
   </g>
   <g id="line2d_13">
    <path clip-path="url(#p0b4e277dcd)" d="M 14.382643 52.01112 
L 14.626645 53.262606 
L 14.870648 54.514092 
L 15.11465 55.765578 
L 15.358653 57.017064 
L 15.602655 58.26855 
L 15.846658 59.520036 
L 16.09066 60.771522 
L 16.334662 62.023008 
" style="fill:none;stroke:#008000;stroke-linecap:square;stroke-width:1.5;"/>
   </g>
   <g id="line2d_14">
    <path clip-path="url(#p0b4e277dcd)" d="M 13.488877 14.311028 
L 12.144589 14.889566 
L 10.800301 15.468105 
L 9.456013 16.046644 
L 8.111726 16.625182 
L 7.356974 17.516895 
L 6.602222 18.408607 
L 6.81693 19.417961 
L 7.031637 20.427315 
L 7.246345 21.436669 
L 7.461052 22.446023 
L 7.695411 23.386618 
L 7.92977 24.327213 
L 8.652498 25.351608 
L 9.375225 26.376003 
L 10.835237 27.59217 
L 12.336006 28.595614 
L 13.800385 29.013537 
L 15.258941 29.214979 
L 16.717497 29.41642 
" style="fill:none;stroke:#4169e1;stroke-linecap:square;stroke-width:1.5;"/>
   </g>
   <g id="line2d_15">
    <path clip-path="url(#p0b4e277dcd)" d="M 28.407779 55.446899 
L 27.2913 56.678375 
L 26.17482 57.909851 
L 25.058341 59.141327 
L 23.941862 60.372804 
" style="fill:none;stroke:#008000;stroke-linecap:square;stroke-width:1.5;"/>
   </g>
   <g id="line2d_16">
    <path clip-path="url(#p0b4e277dcd)" d="M 28.202534 34.928921 
L 29.602864 36.044098 
L 29.956131 37.776693 
L 30.309397 39.509287 
L 30.662664 41.241881 
L 31.015931 42.974476 
L 31.369198 44.70707 
L 31.722464 46.439664 
L 32.075731 48.172259 
L 32.428998 49.904853 
L 32.782265 51.637447 
L 33.135531 53.370042 
L 33.488798 55.102636 
L 33.842065 56.83523 
L 34.195332 58.567825 
L 34.548599 60.300419 
L 34.901865 62.033013 
L 35.255132 63.765608 
L 35.550628 65.4373 
" style="fill:none;stroke:#008000;stroke-linecap:square;stroke-width:1.5;"/>
   </g>
   <g id="line2d_17">
    <path clip-path="url(#p0b4e277dcd)" d="M 27.826977 29.790294 
L 26.090393 30.305983 
L 25.189349 31.636031 
L 25.150047 33.264481 
L 25.110744 34.89293 
L 25.071442 36.521379 
L 25.032139 38.149828 
L 25.243117 39.230895 
L 25.454094 40.311962 
L 25.665072 41.393029 
L 25.876049 42.474096 
L 26.087027 43.555163 
L 26.298004 44.63623 
L 26.508982 45.717297 
L 26.719959 46.798364 
L 26.930937 47.87943 
L 27.141914 48.960497 
L 27.352892 50.041564 
L 27.563869 51.122631 
L 27.774847 52.203698 
L 27.985824 53.284765 
L 28.196802 54.365832 
L 28.407779 55.446899 
L 28.715466 56.5794 
L 29.023153 57.711902 
L 29.33084 58.844403 
L 29.638527 59.976905 
L 29.946214 61.109406 
L 30.253901 62.241908 
L 30.561588 63.374409 
L 30.869275 64.506911 
L 31.664784 65.30784 
L 32.460294 66.10877 
L 34.005461 65.773035 
L 35.550628 65.4373 
" style="fill:none;stroke:#008000;stroke-linecap:square;stroke-width:1.5;"/>
   </g>
   <g id="line2d_18">
    <path clip-path="url(#p0b4e277dcd)" d="M 27.273832 12.443804 
L 27.208328 13.603567 
L 27.142824 14.76333 
L 27.07732 15.923093 
L 27.011816 17.082856 
L 27.350436 18.703785 
L 27.689055 20.324714 
L 28.027674 21.945643 
L 28.366294 23.566572 
L 28.704913 25.187501 
L 29.043532 26.80843 
L 29.382152 28.429358 
L 29.720771 30.050287 
L 30.572323 31.725202 
" style="fill:none;stroke:#4169e1;stroke-linecap:square;stroke-width:1.5;"/>
   </g>
   <g id="line2d_19">
    <path clip-path="url(#p0b4e277dcd)" d="M 12.336006 28.595614 
L 12.263224 30.490772 
L 12.518963 31.450235 
L 12.774701 32.409699 
L 13.03044 33.369163 
L 13.286179 34.328626 
L 13.541917 35.28809 
L 13.797656 36.247554 
L 14.053394 37.207017 
L 14.309133 38.166481 
L 14.564871 39.125945 
L 14.82061 40.085408 
L 15.076349 41.044872 
L 15.332087 42.004336 
L 15.587826 42.963799 
L 15.843564 43.923263 
L 16.099303 44.882727 
L 16.355041 45.84219 
L 17.1793 46.562543 
L 18.003559 47.282896 
L 18.827818 48.00325 
L 19.652077 48.723603 
L 20.491984 49.699652 
L 21.331891 50.675701 
" style="fill:none;stroke:#008000;stroke-linecap:square;stroke-width:1.5;"/>
   </g>
   <g id="line2d_20">
    <path clip-path="url(#p0b4e277dcd)" d="M 25.062708 10.859134 
L 23.663833 11.079376 
L 22.36831 11.771259 
L 21.043673 12.607105 
L 19.836944 13.37097 
L 18.291777 13.256014 
L 16.74661 13.141058 
L 15.711646 13.227544 
L 14.676683 13.314029 
L 13.488877 14.311028 
L 13.690666 15.255115 
L 13.892455 16.199202 
L 14.094243 17.143289 
L 14.296032 18.087376 
L 14.497821 19.031463 
L 14.69961 19.97555 
L 14.901398 20.919637 
L 15.103187 21.863724 
L 15.304976 22.807811 
L 15.506765 23.751898 
L 15.708553 24.695985 
L 15.910342 25.640072 
L 16.112131 26.584159 
L 16.313919 27.528246 
L 16.515708 28.472333 
L 16.717497 29.41642 
L 17.00062 30.725585 
L 17.283743 32.03475 
L 17.566866 33.343915 
L 17.849989 34.653081 
L 18.133111 35.962246 
L 18.416234 37.271411 
L 18.699357 38.580577 
L 18.98248 39.889742 
L 19.265603 41.198907 
L 19.548726 42.508072 
L 19.831849 43.817238 
L 20.114972 45.126403 
L 20.398095 46.435568 
L 20.681217 47.744734 
L 20.96434 49.053899 
L 21.247463 50.363064 
L 21.331891 50.675701 
L 21.658137 51.887839 
L 21.984383 53.099976 
L 22.31063 54.312114 
L 22.636876 55.524252 
L 22.963122 56.73639 
L 23.289369 57.948528 
L 23.615615 59.160666 
L 23.941862 60.372804 
L 24.277024 61.931151 
L 24.612186 63.489499 
L 24.947348 65.047847 
L 25.28251 66.606195 
L 26.06128 68.064091 
L 27.365538 68.030786 
" style="fill:none;stroke:#4169e1;stroke-linecap:square;stroke-width:1.5;"/>
   </g>
   <g id="text_1">
    <g id="patch_2">
     <path d="M 32.360784 50.69746 
L 33.112632 55.712667 
L 35.066425 55.419767 
L 34.314576 50.40456 
z
" style="fill:#ffffff;"/>
    </g>
    <!-- Lift 2 -->
    <g style="fill:#808080;" transform="translate(32.794869 50.652609)rotate(-278.525931)scale(0.02 -0.02)">
     <defs>
      <path d="M 628 4666 
L 1259 4666 
L 1259 531 
L 3531 531 
L 3531 0 
L 628 0 
L 628 4666 
z
" id="DejaVuSans-4c" transform="scale(0.015625)"/>
      <path d="M 603 3500 
L 1178 3500 
L 1178 0 
L 603 0 
L 603 3500 
z
M 603 4863 
L 1178 4863 
L 1178 4134 
L 603 4134 
L 603 4863 
z
" id="DejaVuSans-69" transform="scale(0.015625)"/>
      <path d="M 2375 4863 
L 2375 4384 
L 1825 4384 
Q 1516 4384 1395 4259 
Q 1275 4134 1275 3809 
L 1275 3500 
L 2222 3500 
L 2222 3053 
L 1275 3053 
L 1275 0 
L 697 0 
L 697 3053 
L 147 3053 
L 147 3500 
L 697 3500 
L 697 3744 
Q 697 4328 969 4595 
Q 1241 4863 1831 4863 
L 2375 4863 
z
" id="DejaVuSans-66" transform="scale(0.015625)"/>
      <path d="M 1172 4494 
L 1172 3500 
L 2356 3500 
L 2356 3053 
L 1172 3053 
L 1172 1153 
Q 1172 725 1289 603 
Q 1406 481 1766 481 
L 2356 481 
L 2356 0 
L 1766 0 
Q 1100 0 847 248 
Q 594 497 594 1153 
L 594 3053 
L 172 3053 
L 172 3500 
L 594 3500 
L 594 4494 
L 1172 4494 
z
" id="DejaVuSans-74" transform="scale(0.015625)"/>
      <path id="DejaVuSans-20" transform="scale(0.015625)"/>
      <path d="M 1228 531 
L 3431 531 
L 3431 0 
L 469 0 
L 469 531 
Q 828 903 1448 1529 
Q 2069 2156 2228 2338 
Q 2531 2678 2651 2914 
Q 2772 3150 2772 3378 
Q 2772 3750 2511 3984 
Q 2250 4219 1831 4219 
Q 1534 4219 1204 4116 
Q 875 4013 500 3803 
L 500 4441 
Q 881 4594 1212 4672 
Q 1544 4750 1819 4750 
Q 2544 4750 2975 4387 
Q 3406 4025 3406 3419 
Q 3406 3131 3298 2873 
Q 3191 2616 2906 2266 
Q 2828 2175 2409 1742 
Q 1991 1309 1228 531 
z
" id="DejaVuSans-32" transform="scale(0.015625)"/>
     </defs>
     <use xlink:href="#DejaVuSans-4c"/>
     <use x="55.712891" xlink:href="#DejaVuSans-69"/>
     <use x="83.496094" xlink:href="#DejaVuSans-66"/>
     <use x="116.951172" xlink:href="#DejaVuSans-74"/>
     <use x="156.160156" xlink:href="#DejaVuSans-20"/>
     <use x="187.947266" xlink:href="#DejaVuSans-32"/>
    </g>
   </g>
   <g id="text_2">
    <g id="patch_3">
     <path d="M 19.014369 32.886134 
L 19.830491 37.891284 
L 21.780365 37.573344 
L 20.964242 32.568195 
z
" style="fill:#ffffff;"/>
    </g>
    <!-- Lift 1 -->
    <g style="fill:#808080;" transform="translate(19.447842 32.835718)rotate(-279.260952)scale(0.02 -0.02)">
     <defs>
      <path d="M 794 531 
L 1825 531 
L 1825 4091 
L 703 3866 
L 703 4441 
L 1819 4666 
L 2450 4666 
L 2450 531 
L 3481 531 
L 3481 0 
L 794 0 
L 794 531 
z
" id="DejaVuSans-31" transform="scale(0.015625)"/>
     </defs>
     <use xlink:href="#DejaVuSans-4c"/>
     <use x="55.712891" xlink:href="#DejaVuSans-69"/>
     <use x="83.496094" xlink:href="#DejaVuSans-66"/>
     <use x="116.951172" xlink:href="#DejaVuSans-74"/>
     <use x="156.160156" xlink:href="#DejaVuSans-20"/>
     <use x="187.947266" xlink:href="#DejaVuSans-31"/>
    </g>
   </g>
   <g id="text_3">
    <g id="patch_4">
     <path d="M 11.217441 63.958129 
L 11.285082 64.630359 
L 13.250781 64.432568 
L 13.183141 63.760338 
z
" style="fill:#ffffff;"/>
    </g>
    <!--   -->
    <g style="fill:#808080;" transform="translate(11.653191 63.934384)rotate(-275.745826)scale(0.02 -0.02)">
     <use xlink:href="#DejaVuSans-20"/>
    </g>
   </g>
   <g id="text_4">
    <g id="patch_5">
     <path d="M 4.662624 57.152674 
L 4.76715 57.820165 
L 6.718989 57.514517 
L 6.614463 56.847026 
z
" style="fill:#ffffff;"/>
    </g>
    <!--   -->
    <g style="fill:#808080;" transform="translate(5.096407 57.10499)rotate(-278.899959)scale(0.02 -0.02)">
     <use xlink:href="#DejaVuSans-20"/>
    </g>
   </g>
   <g id="text_5">
    <g id="patch_6">
     <path d="M 32.970686 31.835382 
L 44.507509 46.662667 
L 46.066744 45.449456 
L 34.529921 30.622171 
z
" style="fill:#ffffff;"/>
    </g>
    <!-- Lower Lenape 7.8° -->
    <g style="fill:#008000;" transform="translate(33.327026 31.583462)rotate(-307.885793)scale(0.02 -0.02)">
     <defs>
      <path d="M 1959 3097 
Q 1497 3097 1228 2736 
Q 959 2375 959 1747 
Q 959 1119 1226 758 
Q 1494 397 1959 397 
Q 2419 397 2687 759 
Q 2956 1122 2956 1747 
Q 2956 2369 2687 2733 
Q 2419 3097 1959 3097 
z
M 1959 3584 
Q 2709 3584 3137 3096 
Q 3566 2609 3566 1747 
Q 3566 888 3137 398 
Q 2709 -91 1959 -91 
Q 1206 -91 779 398 
Q 353 888 353 1747 
Q 353 2609 779 3096 
Q 1206 3584 1959 3584 
z
" id="DejaVuSans-6f" transform="scale(0.015625)"/>
      <path d="M 269 3500 
L 844 3500 
L 1563 769 
L 2278 3500 
L 2956 3500 
L 3675 769 
L 4391 3500 
L 4966 3500 
L 4050 0 
L 3372 0 
L 2619 2869 
L 1863 0 
L 1184 0 
L 269 3500 
z
" id="DejaVuSans-77" transform="scale(0.015625)"/>
      <path d="M 3597 1894 
L 3597 1613 
L 953 1613 
Q 991 1019 1311 708 
Q 1631 397 2203 397 
Q 2534 397 2845 478 
Q 3156 559 3463 722 
L 3463 178 
Q 3153 47 2828 -22 
Q 2503 -91 2169 -91 
Q 1331 -91 842 396 
Q 353 884 353 1716 
Q 353 2575 817 3079 
Q 1281 3584 2069 3584 
Q 2775 3584 3186 3129 
Q 3597 2675 3597 1894 
z
M 3022 2063 
Q 3016 2534 2758 2815 
Q 2500 3097 2075 3097 
Q 1594 3097 1305 2825 
Q 1016 2553 972 2059 
L 3022 2063 
z
" id="DejaVuSans-65" transform="scale(0.015625)"/>
      <path d="M 2631 2963 
Q 2534 3019 2420 3045 
Q 2306 3072 2169 3072 
Q 1681 3072 1420 2755 
Q 1159 2438 1159 1844 
L 1159 0 
L 581 0 
L 581 3500 
L 1159 3500 
L 1159 2956 
Q 1341 3275 1631 3429 
Q 1922 3584 2338 3584 
Q 2397 3584 2469 3576 
Q 2541 3569 2628 3553 
L 2631 2963 
z
" id="DejaVuSans-72" transform="scale(0.015625)"/>
      <path d="M 3513 2113 
L 3513 0 
L 2938 0 
L 2938 2094 
Q 2938 2591 2744 2837 
Q 2550 3084 2163 3084 
Q 1697 3084 1428 2787 
Q 1159 2491 1159 1978 
L 1159 0 
L 581 0 
L 581 3500 
L 1159 3500 
L 1159 2956 
Q 1366 3272 1645 3428 
Q 1925 3584 2291 3584 
Q 2894 3584 3203 3211 
Q 3513 2838 3513 2113 
z
" id="DejaVuSans-6e" transform="scale(0.015625)"/>
      <path d="M 2194 1759 
Q 1497 1759 1228 1600 
Q 959 1441 959 1056 
Q 959 750 1161 570 
Q 1363 391 1709 391 
Q 2188 391 2477 730 
Q 2766 1069 2766 1631 
L 2766 1759 
L 2194 1759 
z
M 3341 1997 
L 3341 0 
L 2766 0 
L 2766 531 
Q 2569 213 2275 61 
Q 1981 -91 1556 -91 
Q 1019 -91 701 211 
Q 384 513 384 1019 
Q 384 1609 779 1909 
Q 1175 2209 1959 2209 
L 2766 2209 
L 2766 2266 
Q 2766 2663 2505 2880 
Q 2244 3097 1772 3097 
Q 1472 3097 1187 3025 
Q 903 2953 641 2809 
L 641 3341 
Q 956 3463 1253 3523 
Q 1550 3584 1831 3584 
Q 2591 3584 2966 3190 
Q 3341 2797 3341 1997 
z
" id="DejaVuSans-61" transform="scale(0.015625)"/>
      <path d="M 1159 525 
L 1159 -1331 
L 581 -1331 
L 581 3500 
L 1159 3500 
L 1159 2969 
Q 1341 3281 1617 3432 
Q 1894 3584 2278 3584 
Q 2916 3584 3314 3078 
Q 3713 2572 3713 1747 
Q 3713 922 3314 415 
Q 2916 -91 2278 -91 
Q 1894 -91 1617 61 
Q 1341 213 1159 525 
z
M 3116 1747 
Q 3116 2381 2855 2742 
Q 2594 3103 2138 3103 
Q 1681 3103 1420 2742 
Q 1159 2381 1159 1747 
Q 1159 1113 1420 752 
Q 1681 391 2138 391 
Q 2594 391 2855 752 
Q 3116 1113 3116 1747 
z
" id="DejaVuSans-70" transform="scale(0.015625)"/>
      <path d="M 525 4666 
L 3525 4666 
L 3525 4397 
L 1831 0 
L 1172 0 
L 2766 4134 
L 525 4134 
L 525 4666 
z
" id="DejaVuSans-37" transform="scale(0.015625)"/>
      <path d="M 684 794 
L 1344 794 
L 1344 0 
L 684 0 
L 684 794 
z
" id="DejaVuSans-2e" transform="scale(0.015625)"/>
      <path d="M 2034 2216 
Q 1584 2216 1326 1975 
Q 1069 1734 1069 1313 
Q 1069 891 1326 650 
Q 1584 409 2034 409 
Q 2484 409 2743 651 
Q 3003 894 3003 1313 
Q 3003 1734 2745 1975 
Q 2488 2216 2034 2216 
z
M 1403 2484 
Q 997 2584 770 2862 
Q 544 3141 544 3541 
Q 544 4100 942 4425 
Q 1341 4750 2034 4750 
Q 2731 4750 3128 4425 
Q 3525 4100 3525 3541 
Q 3525 3141 3298 2862 
Q 3072 2584 2669 2484 
Q 3125 2378 3379 2068 
Q 3634 1759 3634 1313 
Q 3634 634 3220 271 
Q 2806 -91 2034 -91 
Q 1263 -91 848 271 
Q 434 634 434 1313 
Q 434 1759 690 2068 
Q 947 2378 1403 2484 
z
M 1172 3481 
Q 1172 3119 1398 2916 
Q 1625 2713 2034 2713 
Q 2441 2713 2670 2916 
Q 2900 3119 2900 3481 
Q 2900 3844 2670 4047 
Q 2441 4250 2034 4250 
Q 1625 4250 1398 4047 
Q 1172 3844 1172 3481 
z
" id="DejaVuSans-38" transform="scale(0.015625)"/>
      <path d="M 1600 4347 
Q 1350 4347 1178 4173 
Q 1006 4000 1006 3750 
Q 1006 3503 1178 3333 
Q 1350 3163 1600 3163 
Q 1850 3163 2022 3333 
Q 2194 3503 2194 3750 
Q 2194 3997 2020 4172 
Q 1847 4347 1600 4347 
z
M 1600 4750 
Q 1800 4750 1984 4673 
Q 2169 4597 2303 4453 
Q 2447 4313 2519 4134 
Q 2591 3956 2591 3750 
Q 2591 3338 2302 3052 
Q 2013 2766 1594 2766 
Q 1172 2766 890 3047 
Q 609 3328 609 3750 
Q 609 4169 896 4459 
Q 1184 4750 1600 4750 
z
" id="DejaVuSans-b0" transform="scale(0.015625)"/>
     </defs>
     <use xlink:href="#DejaVuSans-4c"/>
     <use x="53.962891" xlink:href="#DejaVuSans-6f"/>
     <use x="115.144531" xlink:href="#DejaVuSans-77"/>
     <use x="196.931641" xlink:href="#DejaVuSans-65"/>
     <use x="258.455078" xlink:href="#DejaVuSans-72"/>
     <use x="299.568359" xlink:href="#DejaVuSans-20"/>
     <use x="331.355469" xlink:href="#DejaVuSans-4c"/>
     <use x="385.318359" xlink:href="#DejaVuSans-65"/>
     <use x="446.841797" xlink:href="#DejaVuSans-6e"/>
     <use x="510.220703" xlink:href="#DejaVuSans-61"/>
     <use x="571.5" xlink:href="#DejaVuSans-70"/>
     <use x="634.976562" xlink:href="#DejaVuSans-65"/>
     <use x="696.5" xlink:href="#DejaVuSans-20"/>
     <use x="728.287109" xlink:href="#DejaVuSans-37"/>
     <use x="791.910156" xlink:href="#DejaVuSans-2e"/>
     <use x="823.697266" xlink:href="#DejaVuSans-38"/>
     <use x="887.320312" xlink:href="#DejaVuSans-b0"/>
    </g>
   </g>
   <g id="text_6">
    <g id="patch_7">
     <path d="M 32.765941 13.305075 
L 33.522579 33.414595 
L 35.496807 33.340313 
L 34.740169 13.230793 
z
" style="fill:#ffffff;"/>
    </g>
    <!-- Upper Lenape 19.7° -->
    <g style="fill:#4169e1;" transform="translate(33.202323 13.30867)rotate(-272.154787)scale(0.02 -0.02)">
     <defs>
      <path d="M 556 4666 
L 1191 4666 
L 1191 1831 
Q 1191 1081 1462 751 
Q 1734 422 2344 422 
Q 2950 422 3222 751 
Q 3494 1081 3494 1831 
L 3494 4666 
L 4128 4666 
L 4128 1753 
Q 4128 841 3676 375 
Q 3225 -91 2344 -91 
Q 1459 -91 1007 375 
Q 556 841 556 1753 
L 556 4666 
z
" id="DejaVuSans-55" transform="scale(0.015625)"/>
      <path d="M 703 97 
L 703 672 
Q 941 559 1184 500 
Q 1428 441 1663 441 
Q 2288 441 2617 861 
Q 2947 1281 2994 2138 
Q 2813 1869 2534 1725 
Q 2256 1581 1919 1581 
Q 1219 1581 811 2004 
Q 403 2428 403 3163 
Q 403 3881 828 4315 
Q 1253 4750 1959 4750 
Q 2769 4750 3195 4129 
Q 3622 3509 3622 2328 
Q 3622 1225 3098 567 
Q 2575 -91 1691 -91 
Q 1453 -91 1209 -44 
Q 966 3 703 97 
z
M 1959 2075 
Q 2384 2075 2632 2365 
Q 2881 2656 2881 3163 
Q 2881 3666 2632 3958 
Q 2384 4250 1959 4250 
Q 1534 4250 1286 3958 
Q 1038 3666 1038 3163 
Q 1038 2656 1286 2365 
Q 1534 2075 1959 2075 
z
" id="DejaVuSans-39" transform="scale(0.015625)"/>
     </defs>
     <use xlink:href="#DejaVuSans-55"/>
     <use x="73.193359" xlink:href="#DejaVuSans-70"/>
     <use x="136.669922" xlink:href="#DejaVuSans-70"/>
     <use x="200.146484" xlink:href="#DejaVuSans-65"/>
     <use x="261.669922" xlink:href="#DejaVuSans-72"/>
     <use x="302.783203" xlink:href="#DejaVuSans-20"/>
     <use x="334.570312" xlink:href="#DejaVuSans-4c"/>
     <use x="388.533203" xlink:href="#DejaVuSans-65"/>
     <use x="450.056641" xlink:href="#DejaVuSans-6e"/>
     <use x="513.435547" xlink:href="#DejaVuSans-61"/>
     <use x="574.714844" xlink:href="#DejaVuSans-70"/>
     <use x="638.191406" xlink:href="#DejaVuSans-65"/>
     <use x="699.714844" xlink:href="#DejaVuSans-20"/>
     <use x="731.501953" xlink:href="#DejaVuSans-31"/>
     <use x="795.125" xlink:href="#DejaVuSans-39"/>
     <use x="858.748047" xlink:href="#DejaVuSans-2e"/>
     <use x="890.535156" xlink:href="#DejaVuSans-37"/>
     <use x="954.158203" xlink:href="#DejaVuSans-b0"/>
    </g>
   </g>
   <g id="text_7">
    <g id="patch_8">
     <path d="M 30.007952 40.454754 
L 32.896416 59.648946 
L 34.850044 59.354952 
L 31.96158 40.16076 
z
" style="fill:#ffffff;"/>
    </g>
    <!-- Lower Lift Line 8.8° -->
    <g style="fill:#008000;" transform="translate(30.442012 40.409659)rotate(-278.558018)scale(0.02 -0.02)">
     <use xlink:href="#DejaVuSans-4c"/>
     <use x="53.962891" xlink:href="#DejaVuSans-6f"/>
     <use x="115.144531" xlink:href="#DejaVuSans-77"/>
     <use x="196.931641" xlink:href="#DejaVuSans-65"/>
     <use x="258.455078" xlink:href="#DejaVuSans-72"/>
     <use x="299.568359" xlink:href="#DejaVuSans-20"/>
     <use x="331.355469" xlink:href="#DejaVuSans-4c"/>
     <use x="387.068359" xlink:href="#DejaVuSans-69"/>
     <use x="414.851562" xlink:href="#DejaVuSans-66"/>
     <use x="448.306641" xlink:href="#DejaVuSans-74"/>
     <use x="487.515625" xlink:href="#DejaVuSans-20"/>
     <use x="519.302734" xlink:href="#DejaVuSans-4c"/>
     <use x="575.015625" xlink:href="#DejaVuSans-69"/>
     <use x="602.798828" xlink:href="#DejaVuSans-6e"/>
     <use x="666.177734" xlink:href="#DejaVuSans-65"/>
     <use x="727.701172" xlink:href="#DejaVuSans-20"/>
     <use x="759.488281" xlink:href="#DejaVuSans-38"/>
     <use x="823.111328" xlink:href="#DejaVuSans-2e"/>
     <use x="854.898438" xlink:href="#DejaVuSans-38"/>
     <use x="918.521484" xlink:href="#DejaVuSans-b0"/>
    </g>
   </g>
   <g id="text_8">
    <g id="patch_9">
     <path d="M 24.924095 39.724419 
L 28.248199 62.8025 
L 30.203644 62.520843 
L 26.87954 39.442762 
z
" style="fill:#ffffff;"/>
    </g>
    <!-- Lower Mighty Gaw 8.9° -->
    <g style="fill:#008000;" transform="translate(25.358431 39.682065)rotate(-278.196355)scale(0.02 -0.02)">
     <defs>
      <path d="M 628 4666 
L 1569 4666 
L 2759 1491 
L 3956 4666 
L 4897 4666 
L 4897 0 
L 4281 0 
L 4281 4097 
L 3078 897 
L 2444 897 
L 1241 4097 
L 1241 0 
L 628 0 
L 628 4666 
z
" id="DejaVuSans-4d" transform="scale(0.015625)"/>
      <path d="M 2906 1791 
Q 2906 2416 2648 2759 
Q 2391 3103 1925 3103 
Q 1463 3103 1205 2759 
Q 947 2416 947 1791 
Q 947 1169 1205 825 
Q 1463 481 1925 481 
Q 2391 481 2648 825 
Q 2906 1169 2906 1791 
z
M 3481 434 
Q 3481 -459 3084 -895 
Q 2688 -1331 1869 -1331 
Q 1566 -1331 1297 -1286 
Q 1028 -1241 775 -1147 
L 775 -588 
Q 1028 -725 1275 -790 
Q 1522 -856 1778 -856 
Q 2344 -856 2625 -561 
Q 2906 -266 2906 331 
L 2906 616 
Q 2728 306 2450 153 
Q 2172 0 1784 0 
Q 1141 0 747 490 
Q 353 981 353 1791 
Q 353 2603 747 3093 
Q 1141 3584 1784 3584 
Q 2172 3584 2450 3431 
Q 2728 3278 2906 2969 
L 2906 3500 
L 3481 3500 
L 3481 434 
z
" id="DejaVuSans-67" transform="scale(0.015625)"/>
      <path d="M 3513 2113 
L 3513 0 
L 2938 0 
L 2938 2094 
Q 2938 2591 2744 2837 
Q 2550 3084 2163 3084 
Q 1697 3084 1428 2787 
Q 1159 2491 1159 1978 
L 1159 0 
L 581 0 
L 581 4863 
L 1159 4863 
L 1159 2956 
Q 1366 3272 1645 3428 
Q 1925 3584 2291 3584 
Q 2894 3584 3203 3211 
Q 3513 2838 3513 2113 
z
" id="DejaVuSans-68" transform="scale(0.015625)"/>
      <path d="M 2059 -325 
Q 1816 -950 1584 -1140 
Q 1353 -1331 966 -1331 
L 506 -1331 
L 506 -850 
L 844 -850 
Q 1081 -850 1212 -737 
Q 1344 -625 1503 -206 
L 1606 56 
L 191 3500 
L 800 3500 
L 1894 763 
L 2988 3500 
L 3597 3500 
L 2059 -325 
z
" id="DejaVuSans-79" transform="scale(0.015625)"/>
      <path d="M 3809 666 
L 3809 1919 
L 2778 1919 
L 2778 2438 
L 4434 2438 
L 4434 434 
Q 4069 175 3628 42 
Q 3188 -91 2688 -91 
Q 1594 -91 976 548 
Q 359 1188 359 2328 
Q 359 3472 976 4111 
Q 1594 4750 2688 4750 
Q 3144 4750 3555 4637 
Q 3966 4525 4313 4306 
L 4313 3634 
Q 3963 3931 3569 4081 
Q 3175 4231 2741 4231 
Q 1884 4231 1454 3753 
Q 1025 3275 1025 2328 
Q 1025 1384 1454 906 
Q 1884 428 2741 428 
Q 3075 428 3337 486 
Q 3600 544 3809 666 
z
" id="DejaVuSans-47" transform="scale(0.015625)"/>
     </defs>
     <use xlink:href="#DejaVuSans-4c"/>
     <use x="53.962891" xlink:href="#DejaVuSans-6f"/>
     <use x="115.144531" xlink:href="#DejaVuSans-77"/>
     <use x="196.931641" xlink:href="#DejaVuSans-65"/>
     <use x="258.455078" xlink:href="#DejaVuSans-72"/>
     <use x="299.568359" xlink:href="#DejaVuSans-20"/>
     <use x="331.355469" xlink:href="#DejaVuSans-4d"/>
     <use x="417.634766" xlink:href="#DejaVuSans-69"/>
     <use x="445.417969" xlink:href="#DejaVuSans-67"/>
     <use x="508.894531" xlink:href="#DejaVuSans-68"/>
     <use x="572.273438" xlink:href="#DejaVuSans-74"/>
     <use x="611.482422" xlink:href="#DejaVuSans-79"/>
     <use x="670.662109" xlink:href="#DejaVuSans-20"/>
     <use x="702.449219" xlink:href="#DejaVuSans-47"/>
     <use x="779.939453" xlink:href="#DejaVuSans-61"/>
     <use x="841.21875" xlink:href="#DejaVuSans-77"/>
     <use x="923.005859" xlink:href="#DejaVuSans-20"/>
     <use x="954.792969" xlink:href="#DejaVuSans-38"/>
     <use x="1018.416016" xlink:href="#DejaVuSans-2e"/>
     <use x="1050.203125" xlink:href="#DejaVuSans-39"/>
     <use x="1113.826172" xlink:href="#DejaVuSans-b0"/>
    </g>
   </g>
   <g id="text_9">
    <g id="patch_10">
     <path d="M 13.186064 14.709974 
L 16.683128 36.878022 
L 18.63462 36.570169 
L 15.137556 14.402122 
z
" style="fill:#ffffff;"/>
    </g>
    <!-- Upper Race Trail 19.1° -->
    <g style="fill:#4169e1;" transform="translate(13.619793 14.6618)rotate(-278.964675)scale(0.02 -0.02)">
     <defs>
      <path d="M 2841 2188 
Q 3044 2119 3236 1894 
Q 3428 1669 3622 1275 
L 4263 0 
L 3584 0 
L 2988 1197 
Q 2756 1666 2539 1819 
Q 2322 1972 1947 1972 
L 1259 1972 
L 1259 0 
L 628 0 
L 628 4666 
L 2053 4666 
Q 2853 4666 3247 4331 
Q 3641 3997 3641 3322 
Q 3641 2881 3436 2590 
Q 3231 2300 2841 2188 
z
M 1259 4147 
L 1259 2491 
L 2053 2491 
Q 2509 2491 2742 2702 
Q 2975 2913 2975 3322 
Q 2975 3731 2742 3939 
Q 2509 4147 2053 4147 
L 1259 4147 
z
" id="DejaVuSans-52" transform="scale(0.015625)"/>
      <path d="M 3122 3366 
L 3122 2828 
Q 2878 2963 2633 3030 
Q 2388 3097 2138 3097 
Q 1578 3097 1268 2742 
Q 959 2388 959 1747 
Q 959 1106 1268 751 
Q 1578 397 2138 397 
Q 2388 397 2633 464 
Q 2878 531 3122 666 
L 3122 134 
Q 2881 22 2623 -34 
Q 2366 -91 2075 -91 
Q 1284 -91 818 406 
Q 353 903 353 1747 
Q 353 2603 823 3093 
Q 1294 3584 2113 3584 
Q 2378 3584 2631 3529 
Q 2884 3475 3122 3366 
z
" id="DejaVuSans-63" transform="scale(0.015625)"/>
      <path d="M -19 4666 
L 3928 4666 
L 3928 4134 
L 2272 4134 
L 2272 0 
L 1638 0 
L 1638 4134 
L -19 4134 
L -19 4666 
z
" id="DejaVuSans-54" transform="scale(0.015625)"/>
      <path d="M 603 4863 
L 1178 4863 
L 1178 0 
L 603 0 
L 603 4863 
z
" id="DejaVuSans-6c" transform="scale(0.015625)"/>
     </defs>
     <use xlink:href="#DejaVuSans-55"/>
     <use x="73.193359" xlink:href="#DejaVuSans-70"/>
     <use x="136.669922" xlink:href="#DejaVuSans-70"/>
     <use x="200.146484" xlink:href="#DejaVuSans-65"/>
     <use x="261.669922" xlink:href="#DejaVuSans-72"/>
     <use x="302.783203" xlink:href="#DejaVuSans-20"/>
     <use x="334.570312" xlink:href="#DejaVuSans-52"/>
     <use x="401.802734" xlink:href="#DejaVuSans-61"/>
     <use x="463.082031" xlink:href="#DejaVuSans-63"/>
     <use x="518.0625" xlink:href="#DejaVuSans-65"/>
     <use x="579.585938" xlink:href="#DejaVuSans-20"/>
     <use x="611.373047" xlink:href="#DejaVuSans-54"/>
     <use x="657.707031" xlink:href="#DejaVuSans-72"/>
     <use x="698.820312" xlink:href="#DejaVuSans-61"/>
     <use x="760.099609" xlink:href="#DejaVuSans-69"/>
     <use x="787.882812" xlink:href="#DejaVuSans-6c"/>
     <use x="815.666016" xlink:href="#DejaVuSans-20"/>
     <use x="847.453125" xlink:href="#DejaVuSans-31"/>
     <use x="911.076172" xlink:href="#DejaVuSans-39"/>
     <use x="974.699219" xlink:href="#DejaVuSans-2e"/>
     <use x="1006.486328" xlink:href="#DejaVuSans-31"/>
     <use x="1070.109375" xlink:href="#DejaVuSans-b0"/>
    </g>
   </g>
   <g id="text_10">
    <!-- Campgaw -->
    <g transform="translate(10.715432 5.404182)scale(0.05 -0.05)">
     <defs>
      <path d="M 4122 4306 
L 4122 3641 
Q 3803 3938 3442 4084 
Q 3081 4231 2675 4231 
Q 1875 4231 1450 3742 
Q 1025 3253 1025 2328 
Q 1025 1406 1450 917 
Q 1875 428 2675 428 
Q 3081 428 3442 575 
Q 3803 722 4122 1019 
L 4122 359 
Q 3791 134 3420 21 
Q 3050 -91 2638 -91 
Q 1578 -91 968 557 
Q 359 1206 359 2328 
Q 359 3453 968 4101 
Q 1578 4750 2638 4750 
Q 3056 4750 3426 4639 
Q 3797 4528 4122 4306 
z
" id="DejaVuSans-43" transform="scale(0.015625)"/>
      <path d="M 3328 2828 
Q 3544 3216 3844 3400 
Q 4144 3584 4550 3584 
Q 5097 3584 5394 3201 
Q 5691 2819 5691 2113 
L 5691 0 
L 5113 0 
L 5113 2094 
Q 5113 2597 4934 2840 
Q 4756 3084 4391 3084 
Q 3944 3084 3684 2787 
Q 3425 2491 3425 1978 
L 3425 0 
L 2847 0 
L 2847 2094 
Q 2847 2600 2669 2842 
Q 2491 3084 2119 3084 
Q 1678 3084 1418 2786 
Q 1159 2488 1159 1978 
L 1159 0 
L 581 0 
L 581 3500 
L 1159 3500 
L 1159 2956 
Q 1356 3278 1631 3431 
Q 1906 3584 2284 3584 
Q 2666 3584 2933 3390 
Q 3200 3197 3328 2828 
z
" id="DejaVuSans-6d" transform="scale(0.015625)"/>
     </defs>
     <use xlink:href="#DejaVuSans-43"/>
     <use x="69.824219" xlink:href="#DejaVuSans-61"/>
     <use x="131.103516" xlink:href="#DejaVuSans-6d"/>
     <use x="228.515625" xlink:href="#DejaVuSans-70"/>
     <use x="291.992188" xlink:href="#DejaVuSans-67"/>
     <use x="355.46875" xlink:href="#DejaVuSans-61"/>
     <use x="416.748047" xlink:href="#DejaVuSans-77"/>
    </g>
   </g>
  </g>
  <g id="text_11">
   <!-- Sources: USGS and OpenStreetMaps -->
   <g transform="translate(3.348771 80.365202)scale(0.021739 -0.021739)">
    <defs>
     <path d="M 3425 4513 
L 3425 3897 
Q 3066 4069 2747 4153 
Q 2428 4238 2131 4238 
Q 1616 4238 1336 4038 
Q 1056 3838 1056 3469 
Q 1056 3159 1242 3001 
Q 1428 2844 1947 2747 
L 2328 2669 
Q 3034 2534 3370 2195 
Q 3706 1856 3706 1288 
Q 3706 609 3251 259 
Q 2797 -91 1919 -91 
Q 1588 -91 1214 -16 
Q 841 59 441 206 
L 441 856 
Q 825 641 1194 531 
Q 1563 422 1919 422 
Q 2459 422 2753 634 
Q 3047 847 3047 1241 
Q 3047 1584 2836 1778 
Q 2625 1972 2144 2069 
L 1759 2144 
Q 1053 2284 737 2584 
Q 422 2884 422 3419 
Q 422 4038 858 4394 
Q 1294 4750 2059 4750 
Q 2388 4750 2728 4690 
Q 3069 4631 3425 4513 
z
" id="DejaVuSans-53" transform="scale(0.015625)"/>
     <path d="M 544 1381 
L 544 3500 
L 1119 3500 
L 1119 1403 
Q 1119 906 1312 657 
Q 1506 409 1894 409 
Q 2359 409 2629 706 
Q 2900 1003 2900 1516 
L 2900 3500 
L 3475 3500 
L 3475 0 
L 2900 0 
L 2900 538 
Q 2691 219 2414 64 
Q 2138 -91 1772 -91 
Q 1169 -91 856 284 
Q 544 659 544 1381 
z
M 1991 3584 
L 1991 3584 
z
" id="DejaVuSans-75" transform="scale(0.015625)"/>
     <path d="M 2834 3397 
L 2834 2853 
Q 2591 2978 2328 3040 
Q 2066 3103 1784 3103 
Q 1356 3103 1142 2972 
Q 928 2841 928 2578 
Q 928 2378 1081 2264 
Q 1234 2150 1697 2047 
L 1894 2003 
Q 2506 1872 2764 1633 
Q 3022 1394 3022 966 
Q 3022 478 2636 193 
Q 2250 -91 1575 -91 
Q 1294 -91 989 -36 
Q 684 19 347 128 
L 347 722 
Q 666 556 975 473 
Q 1284 391 1588 391 
Q 1994 391 2212 530 
Q 2431 669 2431 922 
Q 2431 1156 2273 1281 
Q 2116 1406 1581 1522 
L 1381 1569 
Q 847 1681 609 1914 
Q 372 2147 372 2553 
Q 372 3047 722 3315 
Q 1072 3584 1716 3584 
Q 2034 3584 2315 3537 
Q 2597 3491 2834 3397 
z
" id="DejaVuSans-73" transform="scale(0.015625)"/>
     <path d="M 750 794 
L 1409 794 
L 1409 0 
L 750 0 
L 750 794 
z
M 750 3309 
L 1409 3309 
L 1409 2516 
L 750 2516 
L 750 3309 
z
" id="DejaVuSans-3a" transform="scale(0.015625)"/>
     <path d="M 2906 2969 
L 2906 4863 
L 3481 4863 
L 3481 0 
L 2906 0 
L 2906 525 
Q 2725 213 2448 61 
Q 2172 -91 1784 -91 
Q 1150 -91 751 415 
Q 353 922 353 1747 
Q 353 2572 751 3078 
Q 1150 3584 1784 3584 
Q 2172 3584 2448 3432 
Q 2725 3281 2906 2969 
z
M 947 1747 
Q 947 1113 1208 752 
Q 1469 391 1925 391 
Q 2381 391 2643 752 
Q 2906 1113 2906 1747 
Q 2906 2381 2643 2742 
Q 2381 3103 1925 3103 
Q 1469 3103 1208 2742 
Q 947 2381 947 1747 
z
" id="DejaVuSans-64" transform="scale(0.015625)"/>
     <path d="M 2522 4238 
Q 1834 4238 1429 3725 
Q 1025 3213 1025 2328 
Q 1025 1447 1429 934 
Q 1834 422 2522 422 
Q 3209 422 3611 934 
Q 4013 1447 4013 2328 
Q 4013 3213 3611 3725 
Q 3209 4238 2522 4238 
z
M 2522 4750 
Q 3503 4750 4090 4092 
Q 4678 3434 4678 2328 
Q 4678 1225 4090 567 
Q 3503 -91 2522 -91 
Q 1538 -91 948 565 
Q 359 1222 359 2328 
Q 359 3434 948 4092 
Q 1538 4750 2522 4750 
z
" id="DejaVuSans-4f" transform="scale(0.015625)"/>
    </defs>
    <use xlink:href="#DejaVuSans-53"/>
    <use x="63.476562" xlink:href="#DejaVuSans-6f"/>
    <use x="124.658203" xlink:href="#DejaVuSans-75"/>
    <use x="188.037109" xlink:href="#DejaVuSans-72"/>
    <use x="226.900391" xlink:href="#DejaVuSans-63"/>
    <use x="281.880859" xlink:href="#DejaVuSans-65"/>
    <use x="343.404297" xlink:href="#DejaVuSans-73"/>
    <use x="395.503906" xlink:href="#DejaVuSans-3a"/>
    <use x="429.195312" xlink:href="#DejaVuSans-20"/>
    <use x="460.982422" xlink:href="#DejaVuSans-55"/>
    <use x="534.175781" xlink:href="#DejaVuSans-53"/>
    <use x="597.652344" xlink:href="#DejaVuSans-47"/>
    <use x="675.142578" xlink:href="#DejaVuSans-53"/>
    <use x="738.619141" xlink:href="#DejaVuSans-20"/>
    <use x="770.40625" xlink:href="#DejaVuSans-61"/>
    <use x="831.685547" xlink:href="#DejaVuSans-6e"/>
    <use x="895.064453" xlink:href="#DejaVuSans-64"/>
    <use x="958.541016" xlink:href="#DejaVuSans-20"/>
    <use x="990.328125" xlink:href="#DejaVuSans-4f"/>
    <use x="1069.039062" xlink:href="#DejaVuSans-70"/>
    <use x="1132.515625" xlink:href="#DejaVuSans-65"/>
    <use x="1194.039062" xlink:href="#DejaVuSans-6e"/>
    <use x="1257.417969" xlink:href="#DejaVuSans-53"/>
    <use x="1320.894531" xlink:href="#DejaVuSans-74"/>
    <use x="1360.103516" xlink:href="#DejaVuSans-72"/>
    <use x="1398.966797" xlink:href="#DejaVuSans-65"/>
    <use x="1460.490234" xlink:href="#DejaVuSans-65"/>
    <use x="1522.013672" xlink:href="#DejaVuSans-74"/>
    <use x="1561.222656" xlink:href="#DejaVuSans-4d"/>
    <use x="1647.501953" xlink:href="#DejaVuSans-61"/>
    <use x="1708.78125" xlink:href="#DejaVuSans-70"/>
    <use x="1772.257812" xlink:href="#DejaVuSans-73"/>
   </g>
  </g>
 </g>
 <defs>
  <clipPath id="p0b4e277dcd">
   <rect height="65.008943" width="46.358207" x="0" y="7.904182"/>
  </clipPath>
 </defs>
</svg>
