<?xml version="1.0" encoding="utf-8" standalone="no"?>
<!DOCTYPE svg PUBLIC "-//W3C//DTD SVG 1.1//EN"
  "http://www.w3.org/Graphics/SVG/1.1/DTD/svg11.dtd">
<svg height="189.209009pt" version="1.1" viewBox="0 0 194.483623 189.209009" width="194.483623pt" xmlns="http://www.w3.org/2000/svg" xmlns:xlink="http://www.w3.org/1999/xlink">
 <metadata>
  <rdf:RDF xmlns:cc="http://creativecommons.org/ns#" xmlns:dc="http://purl.org/dc/elements/1.1/" xmlns:rdf="http://www.w3.org/1999/02/22-rdf-syntax-ns#">
   <cc:Work>
    <dc:type rdf:resource="http://purl.org/dc/dcmitype/StillImage"/>
    <dc:date>2022-04-14T21:28:28.726881</dc:date>
    <dc:format>image/svg+xml</dc:format>
    <dc:creator>
     <cc:Agent>
      <dc:title>Matplotlib v3.4.3, https://matplotlib.org/</dc:title>
     </cc:Agent>
    </dc:creator>
   </cc:Work>
  </rdf:RDF>
 </metadata>
 <defs>
  <style type="text/css">*{stroke-linecap:butt;stroke-linejoin:round;}</style>
 </defs>
 <g id="figure_1">
  <g id="patch_1">
   <path d="M 0 189.209009 
L 194.483623 189.209009 
L 194.483623 0 
L 0 0 
z
" style="fill:#ffffff;"/>
  </g>
  <g id="axes_1">
   <g id="line2d_1">
    <path clip-path="url(#p865ea363dd)" d="M 146.017728 128.185807 
" style="fill:none;stroke:#008000;stroke-linecap:square;stroke-width:1.5;"/>
   </g>
   <g id="line2d_2">
    <path clip-path="url(#p865ea363dd)" d="M 146.017728 128.185807 
" style="fill:none;stroke:#4169e1;stroke-linecap:square;stroke-width:1.5;"/>
   </g>
   <g id="line2d_3">
    <path clip-path="url(#p865ea363dd)" d="M 146.017728 128.185807 
" style="fill:none;stroke:#000000;stroke-linecap:square;stroke-width:1.5;"/>
   </g>
   <g id="line2d_4">
    <path clip-path="url(#p865ea363dd)" d="M 146.017728 128.185807 
" style="fill:none;stroke:#ff0000;stroke-linecap:square;stroke-width:1.5;"/>
   </g>
   <g id="line2d_5">
    <path clip-path="url(#p865ea363dd)" d="M 146.017728 128.185807 
" style="fill:none;stroke:#ffd700;stroke-linecap:square;stroke-width:1.5;"/>
   </g>
   <g id="line2d_6">
    <path clip-path="url(#p865ea363dd)" d="M 146.017728 128.185807 
" style="fill:none;stroke:#000000;stroke-dasharray:1.5,2.475;stroke-dashoffset:0;stroke-width:1.5;"/>
   </g>
   <g id="line2d_7">
    <path clip-path="url(#p865ea363dd)" d="M 164.169906 161.046255 
L 162.881402 155.385642 
L 162.036917 151.676574 
L 161.192433 147.967505 
L 160.182219 143.53121 
L 159.172005 139.094915 
L 157.918004 133.587253 
L 156.664004 128.079591 
L 155.917373 124.798219 
" style="fill:none;stroke:#808080;stroke-linecap:square;stroke-width:1.5;"/>
   </g>
   <g id="line2d_8">
    <path clip-path="url(#p865ea363dd)" d="M 111.980416 140.147163 
L 111.073712 136.729127 
L 110.167008 133.311091 
L 108.99559 128.896039 
L 107.824171 124.480987 
L 106.890883 120.963816 
L 105.957595 117.446644 
L 105.099535 114.212008 
L 104.241475 110.977372 
L 102.915074 105.978839 
L 101.588673 100.980307 
L 100.148581 95.552661 
L 98.708489 90.125015 
L 97.413763 85.245444 
L 96.119037 80.365873 
L 94.886531 75.719978 
L 93.654025 71.074083 
L 92.482606 66.577599 
L 91.311188 62.081115 
L 89.875621 56.573453 
L 88.440053 51.065791 
L 87.07519 45.828626 
L 85.710326 40.591461 
L 84.220458 34.87349 
L 82.730591 29.15552 
" style="fill:none;stroke:#808080;stroke-linecap:square;stroke-width:1.5;"/>
   </g>
   <g id="line2d_9">
    <path clip-path="url(#p865ea363dd)" d="M 106.823007 141.682341 
L 105.830894 138.433542 
L 104.83878 135.184744 
L 103.481269 130.739951 
L 102.123759 126.295159 
L 100.945553 122.435972 
L 99.767347 118.576784 
L 98.742992 115.22177 
L 97.718637 111.866755 
L 96.086231 106.52125 
L 94.453825 101.175744 
L 92.683405 95.379174 
L 90.912985 89.582604 
L 89.109193 83.674861 
L 87.305401 77.767118 
L 85.738607 72.636169 
L 84.577936 68.551804 
L 83.189882 64.148789 
L 81.801827 59.745775 
L 80.805471 56.482461 
L 79.809115 53.219146 
L 78.812759 49.955832 
L 77.816403 46.692517 
L 76.264881 41.611844 
L 74.71336 36.531171 
L 73.604726 32.898578 
L 72.183865 28.52672 
" style="fill:none;stroke:#808080;stroke-linecap:square;stroke-width:1.5;"/>
   </g>
   <g id="line2d_10">
    <path clip-path="url(#p865ea363dd)" d="M 146.017728 128.185807 
L 147.900426 128.369207 
L 149.783123 128.552607 
L 151.66582 128.736006 
L 153.548518 128.919406 
L 154.985216 129.294703 
L 156.255054 129.832157 
L 157.524892 130.369611 
L 158.546419 131.256162 
L 159.567945 132.142713 
L 160.175431 133.377653 
L 160.452024 134.331474 
L 160.728617 135.285295 
L 161.005209 136.239116 
L 161.281802 137.192937 
L 161.390403 137.568235 
L 161.535346 138.602249 
L 161.680288 139.636263 
L 161.825231 140.670278 
L 161.970173 141.704292 
L 162.115116 142.738306 
L 162.260058 143.772321 
L 162.405001 144.806335 
L 162.549943 145.840349 
L 162.936268 147.129814 
L 163.322593 148.419278 
L 163.957795 149.628018 
L 164.592997 150.836758 
L 165.200482 151.642584 
L 165.807968 152.448411 
L 166.415454 153.254238 
L 167.02294 154.060064 
L 167.464131 155.295004 
L 167.574994 156.637577 
L 167.219779 157.5829 
L 166.864564 158.528224 
" style="fill:none;stroke:#008000;stroke-linecap:square;stroke-width:1.5;"/>
   </g>
   <g id="line2d_11">
    <path clip-path="url(#p865ea363dd)" d="M 111.980416 140.147163 
L 113.266091 140.41412 
L 114.551767 140.681076 
L 115.837443 140.948033 
L 117.123118 141.21499 
L 118.118626 141.271638 
L 119.114133 141.328287 
L 120.09041 141.48053 
L 121.066686 141.632773 
L 122.081849 141.841665 
L 123.097013 142.050557 
L 124.112176 142.259448 
L 125.127339 142.46834 
L 126.142502 142.677232 
L 127.157666 142.886124 
L 128.172829 143.095016 
L 129.187992 143.303907 
L 130.579016 143.455797 
L 131.97004 143.607686 
L 133.361064 143.759575 
L 134.752088 143.911464 
L 136.143112 144.063353 
L 137.534136 144.215242 
L 138.92516 144.367131 
L 140.316184 144.51902 
L 141.800396 144.955923 
L 143.284607 145.392825 
L 144.202058 145.886376 
L 145.119509 146.379928 
L 146.310159 147.253733 
L 147.500809 148.127537 
L 148.59417 149.171996 
L 149.687532 150.216455 
L 150.556338 150.795688 
L 151.425145 151.37492 
L 152.293952 151.954152 
L 153.162758 152.533384 
L 154.373205 153.093851 
L 155.583652 153.654319 
L 156.794099 154.214786 
L 158.004546 154.775253 
L 159.390903 155.287923 
L 160.777261 155.800593 
L 161.753537 156.076047 
L 162.729813 156.351501 
L 163.70609 156.626955 
L 164.682366 156.902409 
L 165.621876 157.393128 
L 166.561387 157.883846 
L 166.864564 158.528224 
L 166.919996 159.280235 
L 166.31251 160.568991 
L 165.733305 160.918796 
L 164.169906 161.046255 
" style="fill:none;stroke:#008000;stroke-linecap:square;stroke-width:1.5;"/>
   </g>
   <g id="line2d_12">
    <path clip-path="url(#p865ea363dd)" d="M 78.940874 107.973579 
L 79.520644 109.357221 
L 80.100414 110.740864 
L 81.011077 111.921988 
L 82.16383 112.737905 
L 83.316583 113.553822 
L 84.469335 114.369739 
L 85.622088 115.185656 
L 86.77484 116.001574 
L 87.927593 116.817491 
L 89.080346 117.633408 
L 90.233098 118.449325 
L 91.013101 119.147696 
L 91.793104 119.846068 
L 92.573107 120.544439 
L 93.35311 121.24281 
L 94.133113 121.941181 
L 94.913116 122.639553 
L 95.693119 123.337924 
L 96.473121 124.036295 
L 97.736172 124.929219 
L 98.999222 125.822143 
L 100.262273 126.715067 
L 101.525323 127.607991 
L 102.72672 128.58872 
L 103.928116 129.569449 
L 104.976793 130.777481 
L 105.499435 131.621546 
L 106.42537 133.119902 
L 107.351305 134.618258 
L 108.508583 136.000484 
L 109.665861 137.38271 
L 110.823138 138.764937 
L 111.980416 140.147163 
" style="fill:none;stroke:#008000;stroke-linecap:square;stroke-width:1.5;"/>
   </g>
   <g id="line2d_13">
    <path clip-path="url(#p865ea363dd)" d="M 155.917373 124.798219 
L 154.998791 124.57729 
L 153.124296 124.767062 
L 151.429104 125.315138 
L 149.733913 125.863213 
L 148.804867 126.443862 
L 147.875821 127.02451 
L 146.946775 127.605158 
L 146.017728 128.185807 
L 145.148922 129.002432 
L 144.280115 129.819057 
L 143.411308 130.635683 
L 142.542502 131.452308 
L 141.673695 132.268933 
L 140.804888 133.085558 
L 139.936081 133.902184 
L 139.067275 134.718809 
L 137.837031 135.497727 
L 136.606787 136.276646 
L 135.240227 136.808435 
L 133.873666 137.340224 
L 132.468077 137.738889 
L 131.062488 138.137553 
L 129.869859 138.263154 
L 128.677229 138.388754 
L 127.4846 138.514355 
L 126.29197 138.639956 
L 125.099341 138.765556 
L 123.906711 138.891157 
L 122.714082 139.016758 
L 121.521452 139.142358 
L 120.328823 139.267959 
L 119.136193 139.393559 
L 117.943563 139.51916 
L 116.750934 139.644761 
L 115.558304 139.770361 
L 114.365675 139.895962 
L 113.173045 140.021562 
L 111.980416 140.147163 
" style="fill:none;stroke:#008000;stroke-linecap:square;stroke-width:1.5;"/>
   </g>
   <g id="line2d_14">
    <path clip-path="url(#p865ea363dd)" d="M 24.77055 40.802477 
L 24.024202 41.758422 
L 23.277854 42.714368 
L 22.531506 43.670313 
L 21.785158 44.626259 
L 21.550988 45.613361 
L 21.883012 46.582052 
L 22.215037 47.550744 
L 22.888418 48.918454 
L 23.5618 50.286164 
L 24.235182 51.653874 
L 24.908564 53.021584 
L 25.250204 54.455502 
L 25.591844 55.889421 
L 25.933484 57.323339 
L 26.275124 58.757257 
" style="fill:none;stroke:#008000;stroke-linecap:square;stroke-width:1.5;"/>
   </g>
   <g id="line2d_15">
    <path clip-path="url(#p865ea363dd)" d="M 72.183865 28.52672 
L 64.900256 31.875008 
L 61.474239 33.09968 
L 55.656176 36.87956 
L 54.757956 37.353992 
L 52.844998 38.038024 
L 48.90143 38.570521 
L 44.840211 38.608759 
L 39.023279 38.106002 
L 38.00854 38.106002 
L 37.070726 38.295775 
L 34.649832 39.815374 
L 31.916711 40.878952 
L 31.018492 41.030487 
L 24.77055 40.802477 
L 19.694592 40.081623 
L 17.743171 40.081623 
L 14.892399 40.537644 
L 10.245188 42.626562 
L 9.542676 43.385654 
L 9.074335 44.374172 
L 8.840165 45.361274 
L 8.956684 46.311555 
L 10.050612 48.095987 
L 10.71466 48.780019 
L 19.772649 55.352675 
L 28.509926 60.036808 
L 30.744727 61.316358 
L 36.250563 62.912433 
L 39.297043 63.405276 
L 43.396725 66.141405 
L 43.90466 66.938734 
L 44.841342 69.78816 
L 45.817618 71.649067 
L 46.52013 72.446396 
L 50.113008 74.878038 
L 50.853982 75.600308 
L 52.533901 79.05729 
L 54.915201 82.209786 
L 58.351965 84.869439 
L 65.145457 88.847942 
L 69.948498 91.440679 
L 71.275465 92.998516 
L 72.369392 94.782947 
L 73.749528 97.713097 
L 74.080986 99.19021 
L 75.876294 104.078986 
L 78.940874 107.973579 
L 78.940874 107.973579 
" style="fill:none;stroke:#008000;stroke-linecap:square;stroke-width:1.5;"/>
   </g>
   <g id="line2d_16">
    <path clip-path="url(#p865ea363dd)" d="M 67.542311 30.71619 
L 67.761209 32.46557 
L 67.980108 34.21495 
L 68.199007 35.96433 
L 68.417905 37.713711 
L 68.618138 38.687536 
L 68.818371 39.661361 
L 69.018604 40.635186 
L 69.218836 41.609011 
L 69.419069 42.582837 
L 69.619302 43.556662 
L 69.819535 44.530487 
L 70.019768 45.504312 
L 69.899571 46.828828 
L 69.779375 48.153343 
L 69.659179 49.477859 
L 69.538983 50.802374 
L 69.619302 51.970752 
L 69.699621 53.13913 
L 69.779941 54.307508 
L 69.86026 55.475886 
L 70.220566 57.111969 
L 70.580872 58.748052 
L 70.941178 60.384135 
L 71.301484 62.020218 
L 71.541593 63.480867 
L 71.781703 64.941516 
L 72.021813 66.402165 
L 72.261922 67.862815 
L 72.502032 69.323464 
L 72.742142 70.784113 
L 72.982251 72.244763 
L 73.222361 73.705412 
L 73.50263 75.536224 
L 73.7829 77.367037 
L 74.063169 79.19785 
L 74.343438 81.028662 
L 74.383598 82.742283 
L 74.423758 84.455904 
L 74.463917 86.169525 
L 74.504077 87.883145 
L 74.984579 89.051877 
L 75.465081 90.220609 
L 75.945584 91.389341 
L 76.426086 92.558073 
L 76.746232 93.960126 
L 77.066378 95.36218 
L 77.386524 96.764233 
L 77.706671 98.166286 
L 77.706671 99.880615 
L 77.706671 101.594944 
L 78.187173 103.113835 
L 78.667675 104.632726 
L 79.148177 106.151618 
L 79.628679 107.670509 
L 79.864547 109.205686 
L 80.100414 110.740864 
" style="fill:none;stroke:#4169e1;stroke-linecap:square;stroke-width:1.5;"/>
   </g>
   <g id="line2d_17">
    <path clip-path="url(#p865ea363dd)" d="M 87.899312 40.738747 
L 87.460383 41.932263 
L 87.021455 43.125778 
L 86.582526 44.319294 
L 86.143598 45.512809 
L 86.118286 46.549125 
L 86.092974 47.585441 
L 86.067662 48.621757 
L 86.04235 49.658072 
L 86.017038 50.694388 
L 85.991727 51.730704 
L 85.966415 52.767019 
L 85.941103 53.803335 
L 85.93276 54.830445 
L 85.924417 55.857556 
L 85.916074 56.884666 
L 85.907731 57.911776 
L 85.899388 58.938887 
L 85.891045 59.965997 
L 85.882702 60.993107 
L 85.874358 62.020218 
L 85.674126 63.110704 
L 85.473893 64.201189 
L 85.27366 65.291675 
L 85.073427 66.382161 
L 84.825682 67.466982 
L 84.577936 68.551804 
" style="fill:none;stroke:#4169e1;stroke-linecap:square;stroke-width:1.5;"/>
   </g>
   <g id="line2d_18">
    <path clip-path="url(#p865ea363dd)" d="M 161.281802 137.192937 
L 163.001881 137.218075 
L 164.72196 137.243213 
L 166.442039 137.268351 
L 168.162118 137.293489 
L 168.57029 138.582599 
L 168.978462 139.871709 
L 169.386635 141.160819 
L 169.794807 142.449929 
L 170.202979 143.73904 
L 170.611151 145.02815 
L 171.019324 146.31726 
L 171.427496 147.60637 
L 171.835668 148.89548 
L 172.243841 150.184591 
L 172.652013 151.473701 
L 173.060185 152.762811 
L 173.468357 154.051921 
L 173.87653 155.341031 
L 174.284702 156.630141 
L 174.692874 157.919252 
L 173.810493 158.348365 
L 172.928111 158.777478 
L 172.045729 159.206592 
L 171.163347 159.635705 
L 170.091197 160.157226 
L 169.019046 160.678748 
L 167.946896 161.200269 
L 166.874745 161.72179 
L 165.522326 161.384023 
L 164.169906 161.046255 
" style="fill:none;stroke:#008000;stroke-linecap:square;stroke-width:1.5;"/>
   </g>
   <g id="line2d_19">
    <path clip-path="url(#p865ea363dd)" d="M 113.719161 56.264718 
L 114.697558 56.840409 
L 115.675955 57.416101 
L 116.654353 57.991793 
L 117.63275 58.567484 
L 118.611148 59.143176 
L 119.589545 59.718867 
L 120.567942 60.294559 
L 121.54634 60.870251 
L 122.561644 61.467539 
L 123.576949 62.064828 
L 124.592254 62.662117 
L 125.607559 63.259406 
L 126.622863 63.856695 
L 127.638168 64.453984 
L 128.653473 65.051273 
L 129.668777 65.648562 
L 129.750228 67.060529 
L 129.831679 68.472495 
L 129.913129 69.884462 
L 129.99458 71.296429 
L 130.093141 73.003677 
L 130.191702 74.710925 
L 130.290263 76.418173 
L 130.388823 78.12542 
L 130.487384 79.832668 
L 130.585945 81.539916 
L 130.684506 83.247164 
L 130.783067 84.954412 
L 130.881487 86.666616 
L 130.37539 88.321287 
L 129.869293 89.975958 
L 129.363196 91.630629 
L 128.857099 93.2853 
L 128.351002 94.93997 
L 127.844905 96.594641 
L 127.338809 98.249312 
L 126.832712 99.903983 
L 126.326615 101.558654 
L 125.820518 103.213324 
L 125.314421 104.867995 
L 124.808324 106.522666 
L 124.302227 108.177337 
L 123.79613 109.832008 
L 123.290034 111.486678 
L 122.783937 113.141349 
L 122.429287 114.300522 
L 122.074638 115.459694 
L 121.943906 116.620991 
L 121.813175 117.782288 
L 121.682444 118.943584 
L 121.551713 120.104881 
L 121.420982 121.266178 
L 121.290251 122.427474 
L 121.15952 123.588771 
L 121.028789 124.750068 
L 120.898058 125.911365 
L 120.767327 127.072661 
L 120.636596 128.233958 
L 120.505864 129.395255 
L 120.375133 130.556552 
L 120.244402 131.717848 
L 120.113671 132.879145 
L 119.98294 134.040442 
L 118.518526 135.157836 
L 117.054111 136.27523 
L 115.589697 137.392624 
L 114.125282 138.510018 
L 113.052849 139.32859 
L 111.980416 140.147163 
" style="fill:none;stroke:#4169e1;stroke-linecap:square;stroke-width:1.5;"/>
   </g>
   <g id="line2d_20">
    <path clip-path="url(#p865ea363dd)" d="M 130.783067 84.954412 
L 131.917154 85.426011 
L 133.051241 85.897611 
L 134.185328 86.369211 
L 135.319415 86.840811 
L 135.140746 88.351116 
L 134.962078 89.861421 
L 134.78341 91.371727 
L 134.604742 92.882032 
L 134.426074 94.392338 
L 134.247406 95.902643 
L 134.068737 97.412948 
L 133.890069 98.923254 
L 133.711401 100.433559 
L 133.532733 101.943864 
L 133.354065 103.45417 
L 133.175397 104.964475 
L 132.996728 106.47478 
L 132.81806 107.985086 
L 132.639392 109.495391 
L 132.460724 111.005696 
L 132.150759 112.756139 
L 131.840794 114.506581 
L 131.530829 116.257023 
L 131.220864 118.007466 
L 130.155784 119.206646 
L 129.090704 120.405827 
L 128.025624 121.605007 
L 126.960544 122.804188 
L 126.57634 123.852718 
L 126.192136 124.901249 
L 125.807933 125.949779 
L 125.423729 126.99831 
L 125.039525 128.046841 
L 124.655321 129.095371 
L 124.271118 130.143902 
L 123.886914 131.192432 
L 122.910921 131.904435 
L 121.934927 132.616437 
L 120.958934 133.328439 
L 119.98294 134.040442 
" style="fill:none;stroke:#4169e1;stroke-linecap:square;stroke-width:1.5;"/>
   </g>
   <g id="line2d_21">
    <path clip-path="url(#p865ea363dd)" d="M 135.319415 86.840811 
L 136.399767 86.434003 
L 137.480119 86.027195 
L 138.560471 85.620387 
L 139.640823 85.213579 
L 139.971999 86.60386 
L 140.303175 87.994141 
L 140.634351 89.384422 
L 140.965527 90.774703 
L 141.296703 92.164985 
L 141.627879 93.555266 
L 141.959055 94.945547 
L 142.290231 96.335828 
L 142.621407 97.726109 
L 142.952583 99.11639 
L 143.283759 100.506671 
L 143.614935 101.896952 
L 143.946111 103.287233 
L 144.277287 104.677514 
L 144.608463 106.067795 
L 144.939639 107.458076 
L 144.451501 108.91607 
L 143.963362 110.374064 
L 143.475224 111.832058 
L 142.987086 113.290052 
L 141.516308 113.879729 
L 140.045531 114.469405 
L 138.574753 115.059082 
L 137.103975 115.648759 
L 135.633198 116.238436 
L 134.16242 116.828112 
L 132.691642 117.417789 
L 131.220864 118.007466 
" style="fill:none;stroke:#4169e1;stroke-linecap:square;stroke-width:1.5;"/>
   </g>
   <g id="line2d_22">
    <path clip-path="url(#p865ea363dd)" d="M 129.668777 65.648562 
L 130.905809 65.604305 
L 132.14284 65.560048 
L 133.379872 65.515792 
L 134.616903 65.471535 
L 135.622875 66.153266 
L 136.628847 66.834996 
L 137.634818 67.516727 
L 138.64079 68.198458 
L 139.646762 68.880189 
L 140.652734 69.561919 
L 141.658706 70.24365 
L 142.664677 70.925381 
L 143.395471 71.581797 
L 144.126264 72.238213 
L 144.857057 72.894628 
L 145.58785 73.551044 
L 146.318643 74.20746 
L 147.049436 74.863876 
L 147.780229 75.520292 
L 148.511023 76.176708 
L 149.394253 76.857199 
L 150.277483 77.537691 
L 151.160713 78.218183 
L 152.043944 78.898674 
L 152.989358 79.339515 
L 153.934772 79.780357 
L 154.880186 80.221198 
L 155.8256 80.66204 
L 156.771014 81.102881 
L 157.716428 81.543722 
L 158.661842 81.984564 
L 159.607257 82.425405 
L 160.552671 82.866246 
L 161.498085 83.307088 
L 162.443499 83.747929 
L 163.388913 84.18877 
L 164.334327 84.629612 
L 165.279741 85.070453 
L 166.225155 85.511294 
L 167.170569 85.952136 
L 168.115984 86.392977 
L 169.061398 86.833818 
L 170.006812 87.27466 
L 170.952226 87.715501 
L 171.89764 88.156342 
L 172.843054 88.597184 
L 173.788468 89.038025 
L 174.733882 89.478866 
L 175.679297 89.919708 
L 176.624711 90.360549 
L 177.570125 90.80139 
L 178.515539 91.242232 
L 179.460953 91.683073 
L 180.406367 92.123914 
L 181.351781 92.564756 
L 182.297195 93.005597 
L 182.663158 93.988982 
L 183.02912 94.972366 
L 183.395082 95.955751 
L 183.761044 96.939136 
L 184.127006 97.92252 
L 184.492969 98.905905 
L 184.858931 99.88929 
L 185.224893 100.872674 
L 185.277214 102.330668 
L 185.329534 103.788662 
L 185.381855 105.246656 
L 185.434176 106.70465 
L 185.486497 108.162644 
L 185.538817 109.620637 
L 185.591138 111.078631 
L 185.643459 112.536625 
L 185.390764 113.697922 
L 185.138069 114.859219 
L 184.885374 116.020515 
L 184.632679 117.181812 
L 184.379984 118.343109 
L 184.127289 119.504406 
L 183.874594 120.665702 
L 183.621899 121.826999 
L 183.369205 122.988296 
L 183.11651 124.149593 
L 182.863815 125.310889 
L 182.61112 126.472186 
L 182.358425 127.633483 
L 182.10573 128.794779 
L 181.853035 129.956076 
L 181.60034 131.117373 
L 181.661357 132.236272 
L 181.722375 133.35517 
L 181.783392 134.474069 
L 181.844409 135.592968 
L 181.905426 136.711867 
L 181.966444 137.830766 
L 182.027461 138.949664 
L 182.088478 140.068563 
L 182.149496 141.187462 
L 182.210513 142.306361 
L 182.27153 143.425259 
L 182.332547 144.544158 
L 182.393565 145.663057 
L 182.454582 146.781956 
L 182.515599 147.900855 
L 182.576616 149.019753 
L 181.687871 150.291338 
L 180.799126 151.562922 
L 179.910381 152.834507 
L 179.021636 154.106091 
L 178.132891 155.377676 
L 177.244146 156.64926 
L 176.3554 157.920845 
L 175.466655 159.192429 
L 174.390828 159.303248 
L 173.315001 159.414067 
L 172.239174 159.524886 
L 171.163347 159.635705 
" style="fill:none;stroke:#4169e1;stroke-linecap:square;stroke-width:1.5;"/>
   </g>
   <g id="line2d_23">
    <path clip-path="url(#p865ea363dd)" d="M 96.718605 46.260571 
L 98.144698 45.728782 
L 99.570791 45.196993 
L 100.996884 44.665204 
L 102.422977 44.133416 
L 103.84907 43.601627 
L 105.275163 43.069838 
L 106.701256 42.538049 
L 108.127349 42.00626 
L 109.207701 42.481046 
L 110.288053 42.955832 
L 111.368405 43.430619 
L 112.448757 43.905405 
L 112.607558 45.450319 
L 112.766358 46.995233 
L 112.925158 48.540147 
L 113.083959 50.085061 
L 113.242759 51.629975 
L 113.40156 53.174889 
L 113.56036 54.719804 
L 113.719161 56.264718 
" style="fill:none;stroke:#4169e1;stroke-linecap:square;stroke-width:1.5;"/>
   </g>
   <g id="line2d_24">
    <path clip-path="url(#p865ea363dd)" d="M 107.351305 134.618258 
L 107.219231 136.384278 
L 107.087156 138.150299 
L 106.955082 139.91632 
L 106.823007 141.682341 
" style="fill:none;stroke:#008000;stroke-linecap:square;stroke-width:1.5;"/>
   </g>
   <g id="line2d_25">
    <path clip-path="url(#p865ea363dd)" d="M 95.281906 69.541738 
L 95.574619 70.618062 
L 95.867332 71.694386 
L 96.160046 72.77071 
L 96.452759 73.847033 
L 96.745472 74.923357 
L 97.038185 75.999681 
L 97.330898 77.076005 
L 97.623612 78.152329 
L 97.901901 79.17519 
L 98.180191 80.198052 
L 98.45848 81.220914 
L 98.73677 82.243775 
L 99.138508 83.968018 
L 99.540247 85.69226 
L 99.941985 87.416502 
L 100.343723 89.140745 
L 100.745461 90.864987 
L 101.1472 92.58923 
L 101.548938 94.313472 
L 101.950676 96.037714 
L 102.16406 97.111029 
L 102.377444 98.184343 
L 102.590827 99.257657 
L 102.804211 100.330972 
L 103.017595 101.404286 
L 103.230978 102.4776 
L 103.444362 103.550915 
L 103.657746 104.624229 
L 103.574315 106.455042 
L 103.490885 108.285854 
L 103.407455 110.116667 
L 103.324024 111.94748 
L 103.236917 113.854414 
L 103.14981 115.761348 
" style="fill:none;stroke:#008000;stroke-linecap:square;stroke-width:1.5;"/>
   </g>
   <g id="line2d_26">
    <path clip-path="url(#p865ea363dd)" d="M 80.100414 110.740864 
L 81.478429 110.974717 
L 82.856443 111.208569 
L 84.234458 111.442422 
L 85.612472 111.676274 
L 86.990487 111.910127 
L 88.368501 112.143979 
L 89.746516 112.377832 
L 91.12453 112.611685 
L 92.550482 113.136392 
L 93.976433 113.6611 
L 95.402385 114.185808 
L 96.828337 114.710516 
L 98.408705 114.973224 
L 99.989074 115.235932 
L 101.569442 115.49864 
L 103.14981 115.761348 
" style="fill:none;stroke:#008000;stroke-linecap:square;stroke-width:1.5;"/>
   </g>
   <g id="line2d_27">
    <path clip-path="url(#p865ea363dd)" d="M 148.511023 76.176708 
L 147.63458 77.448824 
L 146.758137 78.720939 
L 145.881694 79.993055 
L 145.005252 81.26517 
L 143.664145 82.252273 
L 142.323037 83.239375 
L 140.98193 84.226477 
L 139.640823 85.213579 
" style="fill:none;stroke:#008000;stroke-linecap:square;stroke-width:1.5;"/>
   </g>
   <g id="line2d_28">
    <path clip-path="url(#p865ea363dd)" d="M 145.005252 81.26517 
L 145.968801 81.865115 
L 146.932351 82.465059 
L 147.895901 83.065003 
L 148.85945 83.664947 
L 149.823 84.264892 
L 150.786549 84.864836 
L 151.750099 85.46478 
L 152.713649 86.064725 
L 153.455613 87.184951 
L 154.197577 88.305178 
L 154.939542 89.425404 
L 155.681506 90.545631 
L 156.42347 91.665857 
L 157.165435 92.786084 
L 157.907399 93.90631 
L 158.649363 95.026537 
L 159.391328 96.146763 
L 160.133292 97.266989 
L 160.875256 98.387216 
L 161.61722 99.507442 
L 162.359185 100.627669 
L 163.101149 101.747895 
L 163.843113 102.868122 
L 164.585078 103.988348 
L 164.797047 105.234972 
L 165.009017 106.481596 
L 165.220987 107.728219 
L 165.432956 108.974843 
L 165.644926 110.221467 
L 165.856895 111.468091 
L 166.068865 112.714714 
L 166.280835 113.961338 
L 166.398415 115.419597 
L 166.515995 116.877857 
L 166.633575 118.336116 
L 166.751155 119.794376 
L 166.868736 121.252635 
L 166.986316 122.710895 
L 167.103896 124.169154 
L 167.221476 125.627413 
L 167.339056 127.085673 
L 167.456637 128.543932 
L 167.574217 130.002192 
L 167.691797 131.460451 
L 167.809377 132.91871 
L 167.926957 134.37697 
L 168.044538 135.835229 
L 168.162118 137.293489 
" style="fill:none;stroke:#4169e1;stroke-linecap:square;stroke-width:1.5;"/>
   </g>
   <g id="line2d_29">
    <path clip-path="url(#p865ea363dd)" d="M 73.604726 32.898578 
L 74.159043 34.714874 
L 74.71336 36.531171 
L 75.10124 37.801339 
L 75.489121 39.071507 
L 75.877001 40.341676 
L 76.264881 41.611844 
L 76.652762 42.882012 
L 77.040642 44.15218 
L 77.428522 45.422349 
L 77.816403 46.692517 
L 78.314581 48.324174 
L 78.812759 49.955832 
L 79.310937 51.587489 
L 79.809115 53.219146 
L 80.307293 54.850804 
L 80.805471 56.482461 
L 81.303649 58.114118 
L 81.801827 59.745775 
L 82.148841 60.846529 
L 82.495854 61.947282 
L 82.842868 63.048036 
L 83.189882 64.148789 
L 83.536895 65.249543 
L 83.883909 66.350297 
L 84.230922 67.45105 
L 84.577936 68.551804 
" style="fill:none;stroke:#4169e1;stroke-linecap:square;stroke-width:1.5;"/>
   </g>
   <g id="line2d_30">
    <path clip-path="url(#p865ea363dd)" d="M 95.039817 45.153091 
L 94.601312 46.276681 
L 94.162808 47.400271 
L 93.724304 48.523861 
L 93.2858 49.647451 
L 92.847296 50.771041 
L 92.408792 51.894631 
L 91.970288 53.018221 
L 91.531783 54.141811 
L 91.736824 55.652559 
L 91.941865 57.163306 
L 92.146905 58.674054 
L 92.351946 60.184802 
L 92.718191 61.354419 
L 93.084436 62.524036 
L 93.450681 63.693653 
L 93.816926 64.86327 
L 94.183171 66.032887 
L 94.549416 67.202504 
L 94.915661 68.372121 
L 95.281906 69.541738 
" style="fill:none;stroke:#4169e1;stroke-linecap:square;stroke-width:1.5;"/>
   </g>
   <g id="line2d_31">
    <path clip-path="url(#p865ea363dd)" d="M 82.730591 29.15552 
L 82.043916 27.817197 
L 80.91492 27.652207 
L 79.785924 27.487218 
L 78.365346 27.623529 
L 76.944768 27.75984 
L 75.52419 27.896151 
L 74.103612 28.032461 
" style="fill:none;stroke:#008000;stroke-linecap:square;stroke-width:1.5;"/>
   </g>
   <g id="line2d_32">
    <path clip-path="url(#p865ea363dd)" d="M 72.183865 28.52672 
L 73.143738 28.279591 
L 74.103612 28.032461 
" style="fill:none;stroke:#008000;stroke-linecap:square;stroke-width:1.5;"/>
   </g>
   <g id="line2d_33">
    <path clip-path="url(#p865ea363dd)" d="M 74.103612 28.032461 
L 74.784064 29.60092 
L 75.464516 31.169379 
L 76.46568 32.338111 
L 77.466844 33.506842 
L 78.468008 34.675574 
L 79.469172 35.844306 
L 80.356644 36.327944 
L 81.244117 36.811581 
L 82.358406 37.41843 
L 83.472696 38.025278 
L 84.57935 38.703645 
L 85.686004 39.382012 
L 86.792658 40.06038 
L 87.899312 40.738747 
L 88.791875 41.29054 
L 89.684438 41.842333 
L 90.577001 42.394126 
L 91.469564 42.945919 
L 92.362127 43.497712 
L 93.25469 44.049505 
L 94.147254 44.601298 
L 95.039817 45.153091 
L 95.879211 45.706831 
L 96.718605 46.260571 
" style="fill:none;stroke:#008000;stroke-linecap:square;stroke-width:1.5;"/>
   </g>
   <g id="line2d_34">
    <path clip-path="url(#p865ea363dd)" d="M 96.718605 46.260571 
L 97.663206 46.816436 
L 98.607807 47.3723 
L 99.552408 47.928165 
L 100.497009 48.48403 
L 102.149778 49.456616 
L 103.802547 50.429202 
L 105.455316 51.401788 
L 107.108085 52.374374 
L 108.760854 53.34696 
L 110.413623 54.319546 
L 112.066392 55.292132 
L 113.719161 56.264718 
" style="fill:none;stroke:#4169e1;stroke-linecap:square;stroke-width:1.5;"/>
   </g>
   <g id="line2d_35">
    <path clip-path="url(#p865ea363dd)" d="M 103.14981 115.761348 
L 103.47731 117.317238 
L 103.804809 118.873128 
L 104.132309 120.429017 
L 104.459808 121.984907 
L 104.787307 123.540797 
L 105.114807 125.096687 
L 105.442306 126.652576 
L 105.769806 128.208466 
L 105.63462 129.915006 
L 105.499435 131.621546 
" style="fill:none;stroke:#4169e1;stroke-linecap:square;stroke-width:1.5;"/>
   </g>
   <g id="line2d_36">
    <path clip-path="url(#p865ea363dd)" d="M 100.497009 48.48403 
L 101.074516 49.886437 
L 101.652024 51.288844 
L 102.229531 52.691252 
L 102.807039 54.093659 
L 102.776778 55.487923 
L 102.746517 56.882188 
L 102.716255 58.276452 
L 102.685994 59.670716 
L 102.610624 60.661536 
L 102.535254 61.652356 
L 102.459884 62.643175 
L 102.384514 63.633995 
L 102.309144 64.624815 
L 102.233774 65.615635 
L 102.158404 66.606455 
L 102.083033 67.597274 
L 102.253571 68.749366 
L 102.424108 69.901457 
L 102.594645 71.053548 
L 102.765182 72.20564 
" style="fill:none;stroke:#4169e1;stroke-linecap:square;stroke-width:1.5;"/>
   </g>
   <g id="line2d_37">
    <path clip-path="url(#p865ea363dd)" d="M 113.719161 56.264718 
L 113.570966 57.233763 
L 113.422771 58.202809 
L 113.274576 59.171854 
L 113.126381 60.1409 
L 112.522996 60.992222 
L 111.919611 61.843545 
L 111.316226 62.694867 
L 110.712841 63.54619 
L 110.109455 64.397512 
L 109.50607 65.248835 
L 108.902685 66.100157 
L 108.2993 66.95148 
L 107.116569 68.074539 
L 105.933838 69.197598 
L 104.751107 70.320657 
L 103.568376 71.443716 
L 102.765182 72.20564 
L 102.122486 72.948976 
L 101.47979 73.692312 
L 100.837093 74.435648 
L 100.194397 75.178984 
L 99.551701 75.92232 
L 98.909004 76.665656 
L 98.266308 77.408992 
L 97.623612 78.152329 
" style="fill:none;stroke:#008000;stroke-linecap:square;stroke-width:1.5;"/>
   </g>
   <g id="line2d_38">
    <path clip-path="url(#p865ea363dd)" d="M 103.568376 71.443716 
L 104.315855 72.81532 
L 105.063335 74.186925 
L 105.810814 75.55853 
L 106.558293 76.930135 
L 106.203643 78.43628 
L 105.848994 79.942425 
L 106.300366 81.009189 
L 106.751738 82.075954 
L 107.20311 83.142718 
L 107.654483 84.209482 
L 107.848211 85.213579 
L 108.041939 86.217676 
L 108.235667 87.221773 
L 108.429395 88.22587 
L 108.138944 89.998617 
L 107.848493 91.771365 
L 107.558043 93.544113 
L 107.267592 95.316861 
L 106.848461 96.854163 
L 106.429329 98.391465 
L 106.509932 99.403351 
L 106.590534 100.415237 
L 106.671136 101.427123 
L 106.751738 102.439009 
L 106.83234 103.450895 
L 106.912943 104.462781 
L 106.993545 105.474667 
L 107.074147 106.486553 
L 106.084296 107.92826 
L 105.394228 108.933065 
L 104.70416 109.93787 
L 104.014092 110.942675 
L 103.324024 111.94748 
" style="fill:none;stroke:#008000;stroke-linecap:square;stroke-width:1.5;"/>
   </g>
   <g id="line2d_39">
    <path clip-path="url(#p865ea363dd)" d="M 122.783937 113.141349 
L 121.454142 112.934582 
L 120.124347 112.727814 
L 118.794553 112.521047 
L 117.464758 112.314279 
L 116.046725 111.656801 
L 114.628693 110.999323 
L 113.21066 110.341845 
L 111.792627 109.684367 
L 110.365544 109.24534 
L 108.938461 108.806314 
L 107.511378 108.367287 
L 106.084296 107.92826 
" style="fill:none;stroke:#008000;stroke-linecap:square;stroke-width:1.5;"/>
   </g>
   <g id="text_1">
    <g id="patch_2">
     <path d="M 158.511658 141.274291 
L 159.952848 146.329754 
L 161.852779 145.788129 
L 160.411589 140.732666 
z
" style="fill:#ffffff;"/>
    </g>
    <!-- B-Lift -->
    <g style="fill:#808080;" transform="translate(158.936376 141.174011)rotate(-285.91157)scale(0.02 -0.02)">
     <defs>
      <path d="M 1259 2228 
L 1259 519 
L 2272 519 
Q 2781 519 3026 730 
Q 3272 941 3272 1375 
Q 3272 1813 3026 2020 
Q 2781 2228 2272 2228 
L 1259 2228 
z
M 1259 4147 
L 1259 2741 
L 2194 2741 
Q 2656 2741 2882 2914 
Q 3109 3088 3109 3444 
Q 3109 3797 2882 3972 
Q 2656 4147 2194 4147 
L 1259 4147 
z
M 628 4666 
L 2241 4666 
Q 2963 4666 3353 4366 
Q 3744 4066 3744 3513 
Q 3744 3084 3544 2831 
Q 3344 2578 2956 2516 
Q 3422 2416 3680 2098 
Q 3938 1781 3938 1306 
Q 3938 681 3513 340 
Q 3088 0 2303 0 
L 628 0 
L 628 4666 
z
" id="DejaVuSans-42" transform="scale(0.015625)"/>
      <path d="M 313 2009 
L 1997 2009 
L 1997 1497 
L 313 1497 
L 313 2009 
z
" id="DejaVuSans-2d" transform="scale(0.015625)"/>
      <path d="M 628 4666 
L 1259 4666 
L 1259 531 
L 3531 531 
L 3531 0 
L 628 0 
L 628 4666 
z
" id="DejaVuSans-4c" transform="scale(0.015625)"/>
      <path d="M 603 3500 
L 1178 3500 
L 1178 0 
L 603 0 
L 603 3500 
z
M 603 4863 
L 1178 4863 
L 1178 4134 
L 603 4134 
L 603 4863 
z
" id="DejaVuSans-69" transform="scale(0.015625)"/>
      <path d="M 2375 4863 
L 2375 4384 
L 1825 4384 
Q 1516 4384 1395 4259 
Q 1275 4134 1275 3809 
L 1275 3500 
L 2222 3500 
L 2222 3053 
L 1275 3053 
L 1275 0 
L 697 0 
L 697 3053 
L 147 3053 
L 147 3500 
L 697 3500 
L 697 3744 
Q 697 4328 969 4595 
Q 1241 4863 1831 4863 
L 2375 4863 
z
" id="DejaVuSans-66" transform="scale(0.015625)"/>
      <path d="M 1172 4494 
L 1172 3500 
L 2356 3500 
L 2356 3053 
L 1172 3053 
L 1172 1153 
Q 1172 725 1289 603 
Q 1406 481 1766 481 
L 2356 481 
L 2356 0 
L 1766 0 
Q 1100 0 847 248 
Q 594 497 594 1153 
L 594 3053 
L 172 3053 
L 172 3500 
L 594 3500 
L 594 4494 
L 1172 4494 
z
" id="DejaVuSans-74" transform="scale(0.015625)"/>
     </defs>
     <use xlink:href="#DejaVuSans-42"/>
     <use x="68.603516" xlink:href="#DejaVuSans-2d"/>
     <use x="104.6875" xlink:href="#DejaVuSans-4c"/>
     <use x="160.400391" xlink:href="#DejaVuSans-69"/>
     <use x="188.183594" xlink:href="#DejaVuSans-66"/>
     <use x="221.638672" xlink:href="#DejaVuSans-74"/>
    </g>
   </g>
   <g id="text_2">
    <g id="patch_3">
     <path d="M 96.950222 87.965246 
L 98.591853 92.907549 
L 100.466755 92.284783 
L 98.825124 87.34248 
z
" style="fill:#ffffff;"/>
    </g>
    <!-- A-Lift -->
    <g style="fill:#808080;" transform="translate(97.370239 87.846808)rotate(-288.37438)scale(0.02 -0.02)">
     <defs>
      <path d="M 2188 4044 
L 1331 1722 
L 3047 1722 
L 2188 4044 
z
M 1831 4666 
L 2547 4666 
L 4325 0 
L 3669 0 
L 3244 1197 
L 1141 1197 
L 716 0 
L 50 0 
L 1831 4666 
z
" id="DejaVuSans-41" transform="scale(0.015625)"/>
     </defs>
     <use xlink:href="#DejaVuSans-41"/>
     <use x="66.158203" xlink:href="#DejaVuSans-2d"/>
     <use x="102.242188" xlink:href="#DejaVuSans-4c"/>
     <use x="157.955078" xlink:href="#DejaVuSans-69"/>
     <use x="185.738281" xlink:href="#DejaVuSans-66"/>
     <use x="219.193359" xlink:href="#DejaVuSans-74"/>
    </g>
   </g>
   <g id="text_3">
    <g id="patch_4">
     <path d="M 87.243673 81.560976 
L 89.129305 86.494129 
L 90.974712 85.788746 
L 89.089081 80.855593 
z
" style="fill:#ffffff;"/>
    </g>
    <!-- C-Lift -->
    <g style="fill:#808080;" transform="translate(87.658018 81.424009)rotate(-290.918686)scale(0.02 -0.02)">
     <defs>
      <path d="M 4122 4306 
L 4122 3641 
Q 3803 3938 3442 4084 
Q 3081 4231 2675 4231 
Q 1875 4231 1450 3742 
Q 1025 3253 1025 2328 
Q 1025 1406 1450 917 
Q 1875 428 2675 428 
Q 3081 428 3442 575 
Q 3803 722 4122 1019 
L 4122 359 
Q 3791 134 3420 21 
Q 3050 -91 2638 -91 
Q 1578 -91 968 557 
Q 359 1206 359 2328 
Q 359 3453 968 4101 
Q 1578 4750 2638 4750 
Q 3056 4750 3426 4639 
Q 3797 4528 4122 4306 
z
" id="DejaVuSans-43" transform="scale(0.015625)"/>
     </defs>
     <use xlink:href="#DejaVuSans-43"/>
     <use x="69.824219" xlink:href="#DejaVuSans-2d"/>
     <use x="105.908203" xlink:href="#DejaVuSans-4c"/>
     <use x="161.621094" xlink:href="#DejaVuSans-69"/>
     <use x="189.404297" xlink:href="#DejaVuSans-66"/>
     <use x="222.859375" xlink:href="#DejaVuSans-74"/>
    </g>
   </g>
   <g id="text_4">
    <g id="patch_5">
     <path d="M 159.669529 134.101035 
L 162.035041 147.580992 
L 163.980932 147.23952 
L 161.61542 133.759563 
z
" style="fill:#ffffff;"/>
    </g>
    <!-- B Slope 16.7째 -->
    <g style="fill:#008000;" transform="translate(160.102362 134.045386)rotate(-279.953131)scale(0.02 -0.02)">
     <defs>
      <path id="DejaVuSans-20" transform="scale(0.015625)"/>
      <path d="M 3425 4513 
L 3425 3897 
Q 3066 4069 2747 4153 
Q 2428 4238 2131 4238 
Q 1616 4238 1336 4038 
Q 1056 3838 1056 3469 
Q 1056 3159 1242 3001 
Q 1428 2844 1947 2747 
L 2328 2669 
Q 3034 2534 3370 2195 
Q 3706 1856 3706 1288 
Q 3706 609 3251 259 
Q 2797 -91 1919 -91 
Q 1588 -91 1214 -16 
Q 841 59 441 206 
L 441 856 
Q 825 641 1194 531 
Q 1563 422 1919 422 
Q 2459 422 2753 634 
Q 3047 847 3047 1241 
Q 3047 1584 2836 1778 
Q 2625 1972 2144 2069 
L 1759 2144 
Q 1053 2284 737 2584 
Q 422 2884 422 3419 
Q 422 4038 858 4394 
Q 1294 4750 2059 4750 
Q 2388 4750 2728 4690 
Q 3069 4631 3425 4513 
z
" id="DejaVuSans-53" transform="scale(0.015625)"/>
      <path d="M 603 4863 
L 1178 4863 
L 1178 0 
L 603 0 
L 603 4863 
z
" id="DejaVuSans-6c" transform="scale(0.015625)"/>
      <path d="M 1959 3097 
Q 1497 3097 1228 2736 
Q 959 2375 959 1747 
Q 959 1119 1226 758 
Q 1494 397 1959 397 
Q 2419 397 2687 759 
Q 2956 1122 2956 1747 
Q 2956 2369 2687 2733 
Q 2419 3097 1959 3097 
z
M 1959 3584 
Q 2709 3584 3137 3096 
Q 3566 2609 3566 1747 
Q 3566 888 3137 398 
Q 2709 -91 1959 -91 
Q 1206 -91 779 398 
Q 353 888 353 1747 
Q 353 2609 779 3096 
Q 1206 3584 1959 3584 
z
" id="DejaVuSans-6f" transform="scale(0.015625)"/>
      <path d="M 1159 525 
L 1159 -1331 
L 581 -1331 
L 581 3500 
L 1159 3500 
L 1159 2969 
Q 1341 3281 1617 3432 
Q 1894 3584 2278 3584 
Q 2916 3584 3314 3078 
Q 3713 2572 3713 1747 
Q 3713 922 3314 415 
Q 2916 -91 2278 -91 
Q 1894 -91 1617 61 
Q 1341 213 1159 525 
z
M 3116 1747 
Q 3116 2381 2855 2742 
Q 2594 3103 2138 3103 
Q 1681 3103 1420 2742 
Q 1159 2381 1159 1747 
Q 1159 1113 1420 752 
Q 1681 391 2138 391 
Q 2594 391 2855 752 
Q 3116 1113 3116 1747 
z
" id="DejaVuSans-70" transform="scale(0.015625)"/>
      <path d="M 3597 1894 
L 3597 1613 
L 953 1613 
Q 991 1019 1311 708 
Q 1631 397 2203 397 
Q 2534 397 2845 478 
Q 3156 559 3463 722 
L 3463 178 
Q 3153 47 2828 -22 
Q 2503 -91 2169 -91 
Q 1331 -91 842 396 
Q 353 884 353 1716 
Q 353 2575 817 3079 
Q 1281 3584 2069 3584 
Q 2775 3584 3186 3129 
Q 3597 2675 3597 1894 
z
M 3022 2063 
Q 3016 2534 2758 2815 
Q 2500 3097 2075 3097 
Q 1594 3097 1305 2825 
Q 1016 2553 972 2059 
L 3022 2063 
z
" id="DejaVuSans-65" transform="scale(0.015625)"/>
      <path d="M 794 531 
L 1825 531 
L 1825 4091 
L 703 3866 
L 703 4441 
L 1819 4666 
L 2450 4666 
L 2450 531 
L 3481 531 
L 3481 0 
L 794 0 
L 794 531 
z
" id="DejaVuSans-31" transform="scale(0.015625)"/>
      <path d="M 2113 2584 
Q 1688 2584 1439 2293 
Q 1191 2003 1191 1497 
Q 1191 994 1439 701 
Q 1688 409 2113 409 
Q 2538 409 2786 701 
Q 3034 994 3034 1497 
Q 3034 2003 2786 2293 
Q 2538 2584 2113 2584 
z
M 3366 4563 
L 3366 3988 
Q 3128 4100 2886 4159 
Q 2644 4219 2406 4219 
Q 1781 4219 1451 3797 
Q 1122 3375 1075 2522 
Q 1259 2794 1537 2939 
Q 1816 3084 2150 3084 
Q 2853 3084 3261 2657 
Q 3669 2231 3669 1497 
Q 3669 778 3244 343 
Q 2819 -91 2113 -91 
Q 1303 -91 875 529 
Q 447 1150 447 2328 
Q 447 3434 972 4092 
Q 1497 4750 2381 4750 
Q 2619 4750 2861 4703 
Q 3103 4656 3366 4563 
z
" id="DejaVuSans-36" transform="scale(0.015625)"/>
      <path d="M 684 794 
L 1344 794 
L 1344 0 
L 684 0 
L 684 794 
z
" id="DejaVuSans-2e" transform="scale(0.015625)"/>
      <path d="M 525 4666 
L 3525 4666 
L 3525 4397 
L 1831 0 
L 1172 0 
L 2766 4134 
L 525 4134 
L 525 4666 
z
" id="DejaVuSans-37" transform="scale(0.015625)"/>
      <path d="M 1600 4347 
Q 1350 4347 1178 4173 
Q 1006 4000 1006 3750 
Q 1006 3503 1178 3333 
Q 1350 3163 1600 3163 
Q 1850 3163 2022 3333 
Q 2194 3503 2194 3750 
Q 2194 3997 2020 4172 
Q 1847 4347 1600 4347 
z
M 1600 4750 
Q 1800 4750 1984 4673 
Q 2169 4597 2303 4453 
Q 2447 4313 2519 4134 
Q 2591 3956 2591 3750 
Q 2591 3338 2302 3052 
Q 2013 2766 1594 2766 
Q 1172 2766 890 3047 
Q 609 3328 609 3750 
Q 609 4169 896 4459 
Q 1184 4750 1600 4750 
z
" id="DejaVuSans-b0" transform="scale(0.015625)"/>
     </defs>
     <use xlink:href="#DejaVuSans-42"/>
     <use x="68.603516" xlink:href="#DejaVuSans-20"/>
     <use x="100.390625" xlink:href="#DejaVuSans-53"/>
     <use x="163.867188" xlink:href="#DejaVuSans-6c"/>
     <use x="191.650391" xlink:href="#DejaVuSans-6f"/>
     <use x="252.832031" xlink:href="#DejaVuSans-70"/>
     <use x="316.308594" xlink:href="#DejaVuSans-65"/>
     <use x="377.832031" xlink:href="#DejaVuSans-20"/>
     <use x="409.619141" xlink:href="#DejaVuSans-31"/>
     <use x="473.242188" xlink:href="#DejaVuSans-36"/>
     <use x="536.865234" xlink:href="#DejaVuSans-2e"/>
     <use x="568.652344" xlink:href="#DejaVuSans-37"/>
     <use x="632.275391" xlink:href="#DejaVuSans-b0"/>
    </g>
   </g>
   <g id="text_5">
    <g id="patch_6">
     <path d="M 115.904357 141.953442 
L 134.029891 144.932705 
L 134.350321 142.983239 
L 116.224788 140.003976 
z
" style="fill:#ffffff;"/>
    </g>
    <!-- Bunny Buster 7.8째 -->
    <g style="fill:#008000;" transform="translate(115.994798 141.52652)rotate(-350.665853)scale(0.02 -0.02)">
     <defs>
      <path d="M 544 1381 
L 544 3500 
L 1119 3500 
L 1119 1403 
Q 1119 906 1312 657 
Q 1506 409 1894 409 
Q 2359 409 2629 706 
Q 2900 1003 2900 1516 
L 2900 3500 
L 3475 3500 
L 3475 0 
L 2900 0 
L 2900 538 
Q 2691 219 2414 64 
Q 2138 -91 1772 -91 
Q 1169 -91 856 284 
Q 544 659 544 1381 
z
M 1991 3584 
L 1991 3584 
z
" id="DejaVuSans-75" transform="scale(0.015625)"/>
      <path d="M 3513 2113 
L 3513 0 
L 2938 0 
L 2938 2094 
Q 2938 2591 2744 2837 
Q 2550 3084 2163 3084 
Q 1697 3084 1428 2787 
Q 1159 2491 1159 1978 
L 1159 0 
L 581 0 
L 581 3500 
L 1159 3500 
L 1159 2956 
Q 1366 3272 1645 3428 
Q 1925 3584 2291 3584 
Q 2894 3584 3203 3211 
Q 3513 2838 3513 2113 
z
" id="DejaVuSans-6e" transform="scale(0.015625)"/>
      <path d="M 2059 -325 
Q 1816 -950 1584 -1140 
Q 1353 -1331 966 -1331 
L 506 -1331 
L 506 -850 
L 844 -850 
Q 1081 -850 1212 -737 
Q 1344 -625 1503 -206 
L 1606 56 
L 191 3500 
L 800 3500 
L 1894 763 
L 2988 3500 
L 3597 3500 
L 2059 -325 
z
" id="DejaVuSans-79" transform="scale(0.015625)"/>
      <path d="M 2834 3397 
L 2834 2853 
Q 2591 2978 2328 3040 
Q 2066 3103 1784 3103 
Q 1356 3103 1142 2972 
Q 928 2841 928 2578 
Q 928 2378 1081 2264 
Q 1234 2150 1697 2047 
L 1894 2003 
Q 2506 1872 2764 1633 
Q 3022 1394 3022 966 
Q 3022 478 2636 193 
Q 2250 -91 1575 -91 
Q 1294 -91 989 -36 
Q 684 19 347 128 
L 347 722 
Q 666 556 975 473 
Q 1284 391 1588 391 
Q 1994 391 2212 530 
Q 2431 669 2431 922 
Q 2431 1156 2273 1281 
Q 2116 1406 1581 1522 
L 1381 1569 
Q 847 1681 609 1914 
Q 372 2147 372 2553 
Q 372 3047 722 3315 
Q 1072 3584 1716 3584 
Q 2034 3584 2315 3537 
Q 2597 3491 2834 3397 
z
" id="DejaVuSans-73" transform="scale(0.015625)"/>
      <path d="M 2631 2963 
Q 2534 3019 2420 3045 
Q 2306 3072 2169 3072 
Q 1681 3072 1420 2755 
Q 1159 2438 1159 1844 
L 1159 0 
L 581 0 
L 581 3500 
L 1159 3500 
L 1159 2956 
Q 1341 3275 1631 3429 
Q 1922 3584 2338 3584 
Q 2397 3584 2469 3576 
Q 2541 3569 2628 3553 
L 2631 2963 
z
" id="DejaVuSans-72" transform="scale(0.015625)"/>
      <path d="M 2034 2216 
Q 1584 2216 1326 1975 
Q 1069 1734 1069 1313 
Q 1069 891 1326 650 
Q 1584 409 2034 409 
Q 2484 409 2743 651 
Q 3003 894 3003 1313 
Q 3003 1734 2745 1975 
Q 2488 2216 2034 2216 
z
M 1403 2484 
Q 997 2584 770 2862 
Q 544 3141 544 3541 
Q 544 4100 942 4425 
Q 1341 4750 2034 4750 
Q 2731 4750 3128 4425 
Q 3525 4100 3525 3541 
Q 3525 3141 3298 2862 
Q 3072 2584 2669 2484 
Q 3125 2378 3379 2068 
Q 3634 1759 3634 1313 
Q 3634 634 3220 271 
Q 2806 -91 2034 -91 
Q 1263 -91 848 271 
Q 434 634 434 1313 
Q 434 1759 690 2068 
Q 947 2378 1403 2484 
z
M 1172 3481 
Q 1172 3119 1398 2916 
Q 1625 2713 2034 2713 
Q 2441 2713 2670 2916 
Q 2900 3119 2900 3481 
Q 2900 3844 2670 4047 
Q 2441 4250 2034 4250 
Q 1625 4250 1398 4047 
Q 1172 3844 1172 3481 
z
" id="DejaVuSans-38" transform="scale(0.015625)"/>
     </defs>
     <use xlink:href="#DejaVuSans-42"/>
     <use x="68.603516" xlink:href="#DejaVuSans-75"/>
     <use x="131.982422" xlink:href="#DejaVuSans-6e"/>
     <use x="195.361328" xlink:href="#DejaVuSans-6e"/>
     <use x="258.740234" xlink:href="#DejaVuSans-79"/>
     <use x="317.919922" xlink:href="#DejaVuSans-20"/>
     <use x="349.707031" xlink:href="#DejaVuSans-42"/>
     <use x="418.310547" xlink:href="#DejaVuSans-75"/>
     <use x="481.689453" xlink:href="#DejaVuSans-73"/>
     <use x="533.789062" xlink:href="#DejaVuSans-74"/>
     <use x="572.998047" xlink:href="#DejaVuSans-65"/>
     <use x="634.521484" xlink:href="#DejaVuSans-72"/>
     <use x="675.634766" xlink:href="#DejaVuSans-20"/>
     <use x="707.421875" xlink:href="#DejaVuSans-37"/>
     <use x="771.044922" xlink:href="#DejaVuSans-2e"/>
     <use x="802.832031" xlink:href="#DejaVuSans-38"/>
     <use x="866.455078" xlink:href="#DejaVuSans-b0"/>
    </g>
   </g>
   <g id="text_6">
    <g id="patch_7">
     <path d="M 82.829763 114.931042 
L 102.727184 129.161521 
L 103.876457 127.554578 
L 83.979036 113.324099 
z
" style="fill:#ffffff;"/>
    </g>
    <!-- Lower Timber Trail 10.1째 -->
    <g style="fill:#008000;" transform="translate(83.099627 114.588092)rotate(-324.427947)scale(0.02 -0.02)">
     <defs>
      <path d="M 269 3500 
L 844 3500 
L 1563 769 
L 2278 3500 
L 2956 3500 
L 3675 769 
L 4391 3500 
L 4966 3500 
L 4050 0 
L 3372 0 
L 2619 2869 
L 1863 0 
L 1184 0 
L 269 3500 
z
" id="DejaVuSans-77" transform="scale(0.015625)"/>
      <path d="M -19 4666 
L 3928 4666 
L 3928 4134 
L 2272 4134 
L 2272 0 
L 1638 0 
L 1638 4134 
L -19 4134 
L -19 4666 
z
" id="DejaVuSans-54" transform="scale(0.015625)"/>
      <path d="M 3328 2828 
Q 3544 3216 3844 3400 
Q 4144 3584 4550 3584 
Q 5097 3584 5394 3201 
Q 5691 2819 5691 2113 
L 5691 0 
L 5113 0 
L 5113 2094 
Q 5113 2597 4934 2840 
Q 4756 3084 4391 3084 
Q 3944 3084 3684 2787 
Q 3425 2491 3425 1978 
L 3425 0 
L 2847 0 
L 2847 2094 
Q 2847 2600 2669 2842 
Q 2491 3084 2119 3084 
Q 1678 3084 1418 2786 
Q 1159 2488 1159 1978 
L 1159 0 
L 581 0 
L 581 3500 
L 1159 3500 
L 1159 2956 
Q 1356 3278 1631 3431 
Q 1906 3584 2284 3584 
Q 2666 3584 2933 3390 
Q 3200 3197 3328 2828 
z
" id="DejaVuSans-6d" transform="scale(0.015625)"/>
      <path d="M 3116 1747 
Q 3116 2381 2855 2742 
Q 2594 3103 2138 3103 
Q 1681 3103 1420 2742 
Q 1159 2381 1159 1747 
Q 1159 1113 1420 752 
Q 1681 391 2138 391 
Q 2594 391 2855 752 
Q 3116 1113 3116 1747 
z
M 1159 2969 
Q 1341 3281 1617 3432 
Q 1894 3584 2278 3584 
Q 2916 3584 3314 3078 
Q 3713 2572 3713 1747 
Q 3713 922 3314 415 
Q 2916 -91 2278 -91 
Q 1894 -91 1617 61 
Q 1341 213 1159 525 
L 1159 0 
L 581 0 
L 581 4863 
L 1159 4863 
L 1159 2969 
z
" id="DejaVuSans-62" transform="scale(0.015625)"/>
      <path d="M 2194 1759 
Q 1497 1759 1228 1600 
Q 959 1441 959 1056 
Q 959 750 1161 570 
Q 1363 391 1709 391 
Q 2188 391 2477 730 
Q 2766 1069 2766 1631 
L 2766 1759 
L 2194 1759 
z
M 3341 1997 
L 3341 0 
L 2766 0 
L 2766 531 
Q 2569 213 2275 61 
Q 1981 -91 1556 -91 
Q 1019 -91 701 211 
Q 384 513 384 1019 
Q 384 1609 779 1909 
Q 1175 2209 1959 2209 
L 2766 2209 
L 2766 2266 
Q 2766 2663 2505 2880 
Q 2244 3097 1772 3097 
Q 1472 3097 1187 3025 
Q 903 2953 641 2809 
L 641 3341 
Q 956 3463 1253 3523 
Q 1550 3584 1831 3584 
Q 2591 3584 2966 3190 
Q 3341 2797 3341 1997 
z
" id="DejaVuSans-61" transform="scale(0.015625)"/>
      <path d="M 2034 4250 
Q 1547 4250 1301 3770 
Q 1056 3291 1056 2328 
Q 1056 1369 1301 889 
Q 1547 409 2034 409 
Q 2525 409 2770 889 
Q 3016 1369 3016 2328 
Q 3016 3291 2770 3770 
Q 2525 4250 2034 4250 
z
M 2034 4750 
Q 2819 4750 3233 4129 
Q 3647 3509 3647 2328 
Q 3647 1150 3233 529 
Q 2819 -91 2034 -91 
Q 1250 -91 836 529 
Q 422 1150 422 2328 
Q 422 3509 836 4129 
Q 1250 4750 2034 4750 
z
" id="DejaVuSans-30" transform="scale(0.015625)"/>
     </defs>
     <use xlink:href="#DejaVuSans-4c"/>
     <use x="53.962891" xlink:href="#DejaVuSans-6f"/>
     <use x="115.144531" xlink:href="#DejaVuSans-77"/>
     <use x="196.931641" xlink:href="#DejaVuSans-65"/>
     <use x="258.455078" xlink:href="#DejaVuSans-72"/>
     <use x="299.568359" xlink:href="#DejaVuSans-20"/>
     <use x="331.355469" xlink:href="#DejaVuSans-54"/>
     <use x="389.314453" xlink:href="#DejaVuSans-69"/>
     <use x="417.097656" xlink:href="#DejaVuSans-6d"/>
     <use x="514.509766" xlink:href="#DejaVuSans-62"/>
     <use x="577.986328" xlink:href="#DejaVuSans-65"/>
     <use x="639.509766" xlink:href="#DejaVuSans-72"/>
     <use x="680.623047" xlink:href="#DejaVuSans-20"/>
     <use x="712.410156" xlink:href="#DejaVuSans-54"/>
     <use x="758.744141" xlink:href="#DejaVuSans-72"/>
     <use x="799.857422" xlink:href="#DejaVuSans-61"/>
     <use x="861.136719" xlink:href="#DejaVuSans-69"/>
     <use x="888.919922" xlink:href="#DejaVuSans-6c"/>
     <use x="916.703125" xlink:href="#DejaVuSans-20"/>
     <use x="948.490234" xlink:href="#DejaVuSans-31"/>
     <use x="1012.113281" xlink:href="#DejaVuSans-30"/>
     <use x="1075.736328" xlink:href="#DejaVuSans-2e"/>
     <use x="1107.523438" xlink:href="#DejaVuSans-31"/>
     <use x="1171.146484" xlink:href="#DejaVuSans-b0"/>
    </g>
   </g>
   <g id="text_7">
    <g id="patch_8">
     <path d="M 115.792656 140.539771 
L 134.571638 138.960012 
L 134.406025 136.991341 
L 115.627043 138.5711 
z
" style="fill:#ffffff;"/>
    </g>
    <!-- Sissy Schuss 10.3째 -->
    <g style="fill:#008000;" transform="translate(115.776042 140.103692)rotate(-4.808616)scale(0.02 -0.02)">
     <defs>
      <path d="M 3122 3366 
L 3122 2828 
Q 2878 2963 2633 3030 
Q 2388 3097 2138 3097 
Q 1578 3097 1268 2742 
Q 959 2388 959 1747 
Q 959 1106 1268 751 
Q 1578 397 2138 397 
Q 2388 397 2633 464 
Q 2878 531 3122 666 
L 3122 134 
Q 2881 22 2623 -34 
Q 2366 -91 2075 -91 
Q 1284 -91 818 406 
Q 353 903 353 1747 
Q 353 2603 823 3093 
Q 1294 3584 2113 3584 
Q 2378 3584 2631 3529 
Q 2884 3475 3122 3366 
z
" id="DejaVuSans-63" transform="scale(0.015625)"/>
      <path d="M 3513 2113 
L 3513 0 
L 2938 0 
L 2938 2094 
Q 2938 2591 2744 2837 
Q 2550 3084 2163 3084 
Q 1697 3084 1428 2787 
Q 1159 2491 1159 1978 
L 1159 0 
L 581 0 
L 581 4863 
L 1159 4863 
L 1159 2956 
Q 1366 3272 1645 3428 
Q 1925 3584 2291 3584 
Q 2894 3584 3203 3211 
Q 3513 2838 3513 2113 
z
" id="DejaVuSans-68" transform="scale(0.015625)"/>
      <path d="M 2597 2516 
Q 3050 2419 3304 2112 
Q 3559 1806 3559 1356 
Q 3559 666 3084 287 
Q 2609 -91 1734 -91 
Q 1441 -91 1130 -33 
Q 819 25 488 141 
L 488 750 
Q 750 597 1062 519 
Q 1375 441 1716 441 
Q 2309 441 2620 675 
Q 2931 909 2931 1356 
Q 2931 1769 2642 2001 
Q 2353 2234 1838 2234 
L 1294 2234 
L 1294 2753 
L 1863 2753 
Q 2328 2753 2575 2939 
Q 2822 3125 2822 3475 
Q 2822 3834 2567 4026 
Q 2313 4219 1838 4219 
Q 1578 4219 1281 4162 
Q 984 4106 628 3988 
L 628 4550 
Q 988 4650 1302 4700 
Q 1616 4750 1894 4750 
Q 2613 4750 3031 4423 
Q 3450 4097 3450 3541 
Q 3450 3153 3228 2886 
Q 3006 2619 2597 2516 
z
" id="DejaVuSans-33" transform="scale(0.015625)"/>
     </defs>
     <use xlink:href="#DejaVuSans-53"/>
     <use x="63.476562" xlink:href="#DejaVuSans-69"/>
     <use x="91.259766" xlink:href="#DejaVuSans-73"/>
     <use x="143.359375" xlink:href="#DejaVuSans-73"/>
     <use x="195.458984" xlink:href="#DejaVuSans-79"/>
     <use x="254.638672" xlink:href="#DejaVuSans-20"/>
     <use x="286.425781" xlink:href="#DejaVuSans-53"/>
     <use x="349.902344" xlink:href="#DejaVuSans-63"/>
     <use x="404.882812" xlink:href="#DejaVuSans-68"/>
     <use x="468.261719" xlink:href="#DejaVuSans-75"/>
     <use x="531.640625" xlink:href="#DejaVuSans-73"/>
     <use x="583.740234" xlink:href="#DejaVuSans-73"/>
     <use x="635.839844" xlink:href="#DejaVuSans-20"/>
     <use x="667.626953" xlink:href="#DejaVuSans-31"/>
     <use x="731.25" xlink:href="#DejaVuSans-30"/>
     <use x="794.873047" xlink:href="#DejaVuSans-2e"/>
     <use x="826.660156" xlink:href="#DejaVuSans-33"/>
     <use x="890.283203" xlink:href="#DejaVuSans-b0"/>
    </g>
   </g>
   <g id="text_8">
    <g id="patch_9">
     <path d="M 12.790022 53.674299 
L 29.244226 60.555981 
L 30.006513 58.733342 
L 13.552309 51.85166 
z
" style="fill:#ffffff;"/>
    </g>
    <!-- Timber Trail 14.1째 -->
    <g style="fill:#008000;" transform="translate(12.976678 53.279836)rotate(-337.303737)scale(0.02 -0.02)">
     <defs>
      <path d="M 2419 4116 
L 825 1625 
L 2419 1625 
L 2419 4116 
z
M 2253 4666 
L 3047 4666 
L 3047 1625 
L 3713 1625 
L 3713 1100 
L 3047 1100 
L 3047 0 
L 2419 0 
L 2419 1100 
L 313 1100 
L 313 1709 
L 2253 4666 
z
" id="DejaVuSans-34" transform="scale(0.015625)"/>
     </defs>
     <use xlink:href="#DejaVuSans-54"/>
     <use x="57.958984" xlink:href="#DejaVuSans-69"/>
     <use x="85.742188" xlink:href="#DejaVuSans-6d"/>
     <use x="183.154297" xlink:href="#DejaVuSans-62"/>
     <use x="246.630859" xlink:href="#DejaVuSans-65"/>
     <use x="308.154297" xlink:href="#DejaVuSans-72"/>
     <use x="349.267578" xlink:href="#DejaVuSans-20"/>
     <use x="381.054688" xlink:href="#DejaVuSans-54"/>
     <use x="427.388672" xlink:href="#DejaVuSans-72"/>
     <use x="468.501953" xlink:href="#DejaVuSans-61"/>
     <use x="529.78125" xlink:href="#DejaVuSans-69"/>
     <use x="557.564453" xlink:href="#DejaVuSans-6c"/>
     <use x="585.347656" xlink:href="#DejaVuSans-20"/>
     <use x="617.134766" xlink:href="#DejaVuSans-31"/>
     <use x="680.757812" xlink:href="#DejaVuSans-34"/>
     <use x="744.380859" xlink:href="#DejaVuSans-2e"/>
     <use x="776.167969" xlink:href="#DejaVuSans-31"/>
     <use x="839.791016" xlink:href="#DejaVuSans-b0"/>
    </g>
   </g>
   <g id="text_9">
    <g id="patch_10">
     <path d="M 66.387621 34.376751 
L 69.73633 47.386109 
L 71.649587 46.893622 
L 68.300877 33.884264 
z
" style="fill:#ffffff;"/>
    </g>
    <!-- Gravity 23.7째 -->
    <g style="fill:#4169e1;" transform="translate(66.814782 34.287448)rotate(-284.435008)scale(0.02 -0.02)">
     <defs>
      <path d="M 3809 666 
L 3809 1919 
L 2778 1919 
L 2778 2438 
L 4434 2438 
L 4434 434 
Q 4069 175 3628 42 
Q 3188 -91 2688 -91 
Q 1594 -91 976 548 
Q 359 1188 359 2328 
Q 359 3472 976 4111 
Q 1594 4750 2688 4750 
Q 3144 4750 3555 4637 
Q 3966 4525 4313 4306 
L 4313 3634 
Q 3963 3931 3569 4081 
Q 3175 4231 2741 4231 
Q 1884 4231 1454 3753 
Q 1025 3275 1025 2328 
Q 1025 1384 1454 906 
Q 1884 428 2741 428 
Q 3075 428 3337 486 
Q 3600 544 3809 666 
z
" id="DejaVuSans-47" transform="scale(0.015625)"/>
      <path d="M 191 3500 
L 800 3500 
L 1894 563 
L 2988 3500 
L 3597 3500 
L 2284 0 
L 1503 0 
L 191 3500 
z
" id="DejaVuSans-76" transform="scale(0.015625)"/>
      <path d="M 1228 531 
L 3431 531 
L 3431 0 
L 469 0 
L 469 531 
Q 828 903 1448 1529 
Q 2069 2156 2228 2338 
Q 2531 2678 2651 2914 
Q 2772 3150 2772 3378 
Q 2772 3750 2511 3984 
Q 2250 4219 1831 4219 
Q 1534 4219 1204 4116 
Q 875 4013 500 3803 
L 500 4441 
Q 881 4594 1212 4672 
Q 1544 4750 1819 4750 
Q 2544 4750 2975 4387 
Q 3406 4025 3406 3419 
Q 3406 3131 3298 2873 
Q 3191 2616 2906 2266 
Q 2828 2175 2409 1742 
Q 1991 1309 1228 531 
z
" id="DejaVuSans-32" transform="scale(0.015625)"/>
     </defs>
     <use xlink:href="#DejaVuSans-47"/>
     <use x="77.490234" xlink:href="#DejaVuSans-72"/>
     <use x="118.603516" xlink:href="#DejaVuSans-61"/>
     <use x="179.882812" xlink:href="#DejaVuSans-76"/>
     <use x="239.0625" xlink:href="#DejaVuSans-69"/>
     <use x="266.845703" xlink:href="#DejaVuSans-74"/>
     <use x="306.054688" xlink:href="#DejaVuSans-79"/>
     <use x="365.234375" xlink:href="#DejaVuSans-20"/>
     <use x="397.021484" xlink:href="#DejaVuSans-32"/>
     <use x="460.644531" xlink:href="#DejaVuSans-33"/>
     <use x="524.267578" xlink:href="#DejaVuSans-2e"/>
     <use x="556.054688" xlink:href="#DejaVuSans-37"/>
     <use x="619.677734" xlink:href="#DejaVuSans-b0"/>
    </g>
   </g>
   <g id="text_10">
    <g id="patch_11">
     <path d="M 86.796718 67.015173 
L 87.044324 42.665807 
L 85.068802 42.645718 
L 84.821195 66.995084 
z
" style="fill:#ffffff;"/>
    </g>
    <!-- Upper Valley Vista 22.8째 -->
    <g style="fill:#4169e1;" transform="translate(86.361006 66.990741)rotate(-89.417385)scale(0.02 -0.02)">
     <defs>
      <path d="M 556 4666 
L 1191 4666 
L 1191 1831 
Q 1191 1081 1462 751 
Q 1734 422 2344 422 
Q 2950 422 3222 751 
Q 3494 1081 3494 1831 
L 3494 4666 
L 4128 4666 
L 4128 1753 
Q 4128 841 3676 375 
Q 3225 -91 2344 -91 
Q 1459 -91 1007 375 
Q 556 841 556 1753 
L 556 4666 
z
" id="DejaVuSans-55" transform="scale(0.015625)"/>
      <path d="M 1831 0 
L 50 4666 
L 709 4666 
L 2188 738 
L 3669 4666 
L 4325 4666 
L 2547 0 
L 1831 0 
z
" id="DejaVuSans-56" transform="scale(0.015625)"/>
     </defs>
     <use xlink:href="#DejaVuSans-55"/>
     <use x="73.193359" xlink:href="#DejaVuSans-70"/>
     <use x="136.669922" xlink:href="#DejaVuSans-70"/>
     <use x="200.146484" xlink:href="#DejaVuSans-65"/>
     <use x="261.669922" xlink:href="#DejaVuSans-72"/>
     <use x="302.783203" xlink:href="#DejaVuSans-20"/>
     <use x="334.570312" xlink:href="#DejaVuSans-56"/>
     <use x="395.228516" xlink:href="#DejaVuSans-61"/>
     <use x="456.507812" xlink:href="#DejaVuSans-6c"/>
     <use x="484.291016" xlink:href="#DejaVuSans-6c"/>
     <use x="512.074219" xlink:href="#DejaVuSans-65"/>
     <use x="573.597656" xlink:href="#DejaVuSans-79"/>
     <use x="632.777344" xlink:href="#DejaVuSans-20"/>
     <use x="664.564453" xlink:href="#DejaVuSans-56"/>
     <use x="730.722656" xlink:href="#DejaVuSans-69"/>
     <use x="758.505859" xlink:href="#DejaVuSans-73"/>
     <use x="810.605469" xlink:href="#DejaVuSans-74"/>
     <use x="849.814453" xlink:href="#DejaVuSans-61"/>
     <use x="911.09375" xlink:href="#DejaVuSans-20"/>
     <use x="942.880859" xlink:href="#DejaVuSans-32"/>
     <use x="1006.503906" xlink:href="#DejaVuSans-32"/>
     <use x="1070.126953" xlink:href="#DejaVuSans-2e"/>
     <use x="1101.914062" xlink:href="#DejaVuSans-38"/>
     <use x="1165.537109" xlink:href="#DejaVuSans-b0"/>
    </g>
   </g>
   <g id="text_11">
    <g id="patch_12">
     <path d="M 166.939989 139.225436 
L 174.894748 159.293532 
L 176.731348 158.565525 
L 168.776589 138.497429 
z
" style="fill:#ffffff;"/>
    </g>
    <!-- Allegheny Alley 12.1째 -->
    <g style="fill:#008000;" transform="translate(167.352619 139.083388)rotate(-291.622798)scale(0.02 -0.02)">
     <defs>
      <path d="M 2906 1791 
Q 2906 2416 2648 2759 
Q 2391 3103 1925 3103 
Q 1463 3103 1205 2759 
Q 947 2416 947 1791 
Q 947 1169 1205 825 
Q 1463 481 1925 481 
Q 2391 481 2648 825 
Q 2906 1169 2906 1791 
z
M 3481 434 
Q 3481 -459 3084 -895 
Q 2688 -1331 1869 -1331 
Q 1566 -1331 1297 -1286 
Q 1028 -1241 775 -1147 
L 775 -588 
Q 1028 -725 1275 -790 
Q 1522 -856 1778 -856 
Q 2344 -856 2625 -561 
Q 2906 -266 2906 331 
L 2906 616 
Q 2728 306 2450 153 
Q 2172 0 1784 0 
Q 1141 0 747 490 
Q 353 981 353 1791 
Q 353 2603 747 3093 
Q 1141 3584 1784 3584 
Q 2172 3584 2450 3431 
Q 2728 3278 2906 2969 
L 2906 3500 
L 3481 3500 
L 3481 434 
z
" id="DejaVuSans-67" transform="scale(0.015625)"/>
     </defs>
     <use xlink:href="#DejaVuSans-41"/>
     <use x="68.408203" xlink:href="#DejaVuSans-6c"/>
     <use x="96.191406" xlink:href="#DejaVuSans-6c"/>
     <use x="123.974609" xlink:href="#DejaVuSans-65"/>
     <use x="185.498047" xlink:href="#DejaVuSans-67"/>
     <use x="248.974609" xlink:href="#DejaVuSans-68"/>
     <use x="312.353516" xlink:href="#DejaVuSans-65"/>
     <use x="373.876953" xlink:href="#DejaVuSans-6e"/>
     <use x="437.255859" xlink:href="#DejaVuSans-79"/>
     <use x="496.435547" xlink:href="#DejaVuSans-20"/>
     <use x="528.222656" xlink:href="#DejaVuSans-41"/>
     <use x="596.630859" xlink:href="#DejaVuSans-6c"/>
     <use x="624.414062" xlink:href="#DejaVuSans-6c"/>
     <use x="652.197266" xlink:href="#DejaVuSans-65"/>
     <use x="713.720703" xlink:href="#DejaVuSans-79"/>
     <use x="772.900391" xlink:href="#DejaVuSans-20"/>
     <use x="804.6875" xlink:href="#DejaVuSans-31"/>
     <use x="868.310547" xlink:href="#DejaVuSans-32"/>
     <use x="931.933594" xlink:href="#DejaVuSans-2e"/>
     <use x="963.720703" xlink:href="#DejaVuSans-31"/>
     <use x="1027.34375" xlink:href="#DejaVuSans-b0"/>
    </g>
   </g>
   <g id="text_12">
    <g id="patch_13">
     <path d="M 115.28754 59.260941 
L 131.026126 66.656761 
L 131.866358 64.868716 
L 116.127772 57.472896 
z
" style="fill:#ffffff;"/>
    </g>
    <!-- Meadows 1 22.0째 -->
    <g style="fill:#4169e1;" transform="translate(115.491045 58.8749)rotate(-334.830397)scale(0.02 -0.02)">
     <defs>
      <path d="M 628 4666 
L 1569 4666 
L 2759 1491 
L 3956 4666 
L 4897 4666 
L 4897 0 
L 4281 0 
L 4281 4097 
L 3078 897 
L 2444 897 
L 1241 4097 
L 1241 0 
L 628 0 
L 628 4666 
z
" id="DejaVuSans-4d" transform="scale(0.015625)"/>
      <path d="M 2906 2969 
L 2906 4863 
L 3481 4863 
L 3481 0 
L 2906 0 
L 2906 525 
Q 2725 213 2448 61 
Q 2172 -91 1784 -91 
Q 1150 -91 751 415 
Q 353 922 353 1747 
Q 353 2572 751 3078 
Q 1150 3584 1784 3584 
Q 2172 3584 2448 3432 
Q 2725 3281 2906 2969 
z
M 947 1747 
Q 947 1113 1208 752 
Q 1469 391 1925 391 
Q 2381 391 2643 752 
Q 2906 1113 2906 1747 
Q 2906 2381 2643 2742 
Q 2381 3103 1925 3103 
Q 1469 3103 1208 2742 
Q 947 2381 947 1747 
z
" id="DejaVuSans-64" transform="scale(0.015625)"/>
     </defs>
     <use xlink:href="#DejaVuSans-4d"/>
     <use x="86.279297" xlink:href="#DejaVuSans-65"/>
     <use x="147.802734" xlink:href="#DejaVuSans-61"/>
     <use x="209.082031" xlink:href="#DejaVuSans-64"/>
     <use x="272.558594" xlink:href="#DejaVuSans-6f"/>
     <use x="333.740234" xlink:href="#DejaVuSans-77"/>
     <use x="415.527344" xlink:href="#DejaVuSans-73"/>
     <use x="467.626953" xlink:href="#DejaVuSans-20"/>
     <use x="499.414062" xlink:href="#DejaVuSans-31"/>
     <use x="563.037109" xlink:href="#DejaVuSans-20"/>
     <use x="594.824219" xlink:href="#DejaVuSans-32"/>
     <use x="658.447266" xlink:href="#DejaVuSans-32"/>
     <use x="722.070312" xlink:href="#DejaVuSans-2e"/>
     <use x="753.857422" xlink:href="#DejaVuSans-30"/>
     <use x="817.480469" xlink:href="#DejaVuSans-b0"/>
    </g>
   </g>
   <g id="text_13">
    <g id="patch_14">
     <path d="M 133.772094 106.158695 
L 136.31969 88.956631 
L 134.36538 88.667202 
L 131.817785 105.869265 
z
" style="fill:#ffffff;"/>
    </g>
    <!-- Meadows 2 22.3째 -->
    <g style="fill:#4169e1;" transform="translate(133.34379 106.075046)rotate(-81.57583)scale(0.02 -0.02)">
     <use xlink:href="#DejaVuSans-4d"/>
     <use x="86.279297" xlink:href="#DejaVuSans-65"/>
     <use x="147.802734" xlink:href="#DejaVuSans-61"/>
     <use x="209.082031" xlink:href="#DejaVuSans-64"/>
     <use x="272.558594" xlink:href="#DejaVuSans-6f"/>
     <use x="333.740234" xlink:href="#DejaVuSans-77"/>
     <use x="415.527344" xlink:href="#DejaVuSans-73"/>
     <use x="467.626953" xlink:href="#DejaVuSans-20"/>
     <use x="499.414062" xlink:href="#DejaVuSans-32"/>
     <use x="563.037109" xlink:href="#DejaVuSans-20"/>
     <use x="594.824219" xlink:href="#DejaVuSans-32"/>
     <use x="658.447266" xlink:href="#DejaVuSans-32"/>
     <use x="722.070312" xlink:href="#DejaVuSans-2e"/>
     <use x="753.857422" xlink:href="#DejaVuSans-33"/>
     <use x="817.480469" xlink:href="#DejaVuSans-b0"/>
    </g>
   </g>
   <g id="text_14">
    <g id="patch_15">
     <path d="M 138.527671 86.895597 
L 143.497203 103.56008 
L 145.390438 102.995496 
L 140.420907 86.331014 
z
" style="fill:#ffffff;"/>
    </g>
    <!-- Meadows 3 20.4째 -->
    <g style="fill:#4169e1;" transform="translate(138.951144 86.790183)rotate(-286.605159)scale(0.02 -0.02)">
     <use xlink:href="#DejaVuSans-4d"/>
     <use x="86.279297" xlink:href="#DejaVuSans-65"/>
     <use x="147.802734" xlink:href="#DejaVuSans-61"/>
     <use x="209.082031" xlink:href="#DejaVuSans-64"/>
     <use x="272.558594" xlink:href="#DejaVuSans-6f"/>
     <use x="333.740234" xlink:href="#DejaVuSans-77"/>
     <use x="415.527344" xlink:href="#DejaVuSans-73"/>
     <use x="467.626953" xlink:href="#DejaVuSans-20"/>
     <use x="499.414062" xlink:href="#DejaVuSans-33"/>
     <use x="563.037109" xlink:href="#DejaVuSans-20"/>
     <use x="594.824219" xlink:href="#DejaVuSans-32"/>
     <use x="658.447266" xlink:href="#DejaVuSans-30"/>
     <use x="722.070312" xlink:href="#DejaVuSans-2e"/>
     <use x="753.857422" xlink:href="#DejaVuSans-34"/>
     <use x="817.480469" xlink:href="#DejaVuSans-b0"/>
    </g>
   </g>
   <g id="text_15">
    <g id="patch_16">
     <path d="M 153.521949 81.922526 
L 180.129608 91.833115 
L 180.81919 89.981745 
L 154.211531 80.071156 
z
" style="fill:#ffffff;"/>
    </g>
    <!-- Dark Side of the Moon 19.0째 -->
    <g style="fill:#4169e1;" transform="translate(153.692853 81.520987)rotate(-339.571082)scale(0.02 -0.02)">
     <defs>
      <path d="M 1259 4147 
L 1259 519 
L 2022 519 
Q 2988 519 3436 956 
Q 3884 1394 3884 2338 
Q 3884 3275 3436 3711 
Q 2988 4147 2022 4147 
L 1259 4147 
z
M 628 4666 
L 1925 4666 
Q 3281 4666 3915 4102 
Q 4550 3538 4550 2338 
Q 4550 1131 3912 565 
Q 3275 0 1925 0 
L 628 0 
L 628 4666 
z
" id="DejaVuSans-44" transform="scale(0.015625)"/>
      <path d="M 581 4863 
L 1159 4863 
L 1159 1991 
L 2875 3500 
L 3609 3500 
L 1753 1863 
L 3688 0 
L 2938 0 
L 1159 1709 
L 1159 0 
L 581 0 
L 581 4863 
z
" id="DejaVuSans-6b" transform="scale(0.015625)"/>
      <path d="M 703 97 
L 703 672 
Q 941 559 1184 500 
Q 1428 441 1663 441 
Q 2288 441 2617 861 
Q 2947 1281 2994 2138 
Q 2813 1869 2534 1725 
Q 2256 1581 1919 1581 
Q 1219 1581 811 2004 
Q 403 2428 403 3163 
Q 403 3881 828 4315 
Q 1253 4750 1959 4750 
Q 2769 4750 3195 4129 
Q 3622 3509 3622 2328 
Q 3622 1225 3098 567 
Q 2575 -91 1691 -91 
Q 1453 -91 1209 -44 
Q 966 3 703 97 
z
M 1959 2075 
Q 2384 2075 2632 2365 
Q 2881 2656 2881 3163 
Q 2881 3666 2632 3958 
Q 2384 4250 1959 4250 
Q 1534 4250 1286 3958 
Q 1038 3666 1038 3163 
Q 1038 2656 1286 2365 
Q 1534 2075 1959 2075 
z
" id="DejaVuSans-39" transform="scale(0.015625)"/>
     </defs>
     <use xlink:href="#DejaVuSans-44"/>
     <use x="77.001953" xlink:href="#DejaVuSans-61"/>
     <use x="138.28125" xlink:href="#DejaVuSans-72"/>
     <use x="179.394531" xlink:href="#DejaVuSans-6b"/>
     <use x="237.304688" xlink:href="#DejaVuSans-20"/>
     <use x="269.091797" xlink:href="#DejaVuSans-53"/>
     <use x="332.568359" xlink:href="#DejaVuSans-69"/>
     <use x="360.351562" xlink:href="#DejaVuSans-64"/>
     <use x="423.828125" xlink:href="#DejaVuSans-65"/>
     <use x="485.351562" xlink:href="#DejaVuSans-20"/>
     <use x="517.138672" xlink:href="#DejaVuSans-6f"/>
     <use x="578.320312" xlink:href="#DejaVuSans-66"/>
     <use x="613.525391" xlink:href="#DejaVuSans-20"/>
     <use x="645.3125" xlink:href="#DejaVuSans-74"/>
     <use x="684.521484" xlink:href="#DejaVuSans-68"/>
     <use x="747.900391" xlink:href="#DejaVuSans-65"/>
     <use x="809.423828" xlink:href="#DejaVuSans-20"/>
     <use x="841.210938" xlink:href="#DejaVuSans-4d"/>
     <use x="927.490234" xlink:href="#DejaVuSans-6f"/>
     <use x="988.671875" xlink:href="#DejaVuSans-6f"/>
     <use x="1049.853516" xlink:href="#DejaVuSans-6e"/>
     <use x="1113.232422" xlink:href="#DejaVuSans-20"/>
     <use x="1145.019531" xlink:href="#DejaVuSans-31"/>
     <use x="1208.642578" xlink:href="#DejaVuSans-39"/>
     <use x="1272.265625" xlink:href="#DejaVuSans-2e"/>
     <use x="1304.052734" xlink:href="#DejaVuSans-30"/>
     <use x="1367.675781" xlink:href="#DejaVuSans-b0"/>
    </g>
   </g>
   <g id="text_16">
    <g id="patch_17">
     <path d="M 98.4926 39.861983 
L 121.429118 47.913782 
L 122.083506 46.049681 
L 99.146987 37.997883 
z
" style="fill:#ffffff;"/>
    </g>
    <!-- Old Canaan Curve 20.9째 -->
    <g style="fill:#4169e1;" transform="translate(98.655867 39.457279)rotate(-340.656523)scale(0.02 -0.02)">
     <defs>
      <path d="M 2522 4238 
Q 1834 4238 1429 3725 
Q 1025 3213 1025 2328 
Q 1025 1447 1429 934 
Q 1834 422 2522 422 
Q 3209 422 3611 934 
Q 4013 1447 4013 2328 
Q 4013 3213 3611 3725 
Q 3209 4238 2522 4238 
z
M 2522 4750 
Q 3503 4750 4090 4092 
Q 4678 3434 4678 2328 
Q 4678 1225 4090 567 
Q 3503 -91 2522 -91 
Q 1538 -91 948 565 
Q 359 1222 359 2328 
Q 359 3434 948 4092 
Q 1538 4750 2522 4750 
z
" id="DejaVuSans-4f" transform="scale(0.015625)"/>
     </defs>
     <use xlink:href="#DejaVuSans-4f"/>
     <use x="78.710938" xlink:href="#DejaVuSans-6c"/>
     <use x="106.494141" xlink:href="#DejaVuSans-64"/>
     <use x="169.970703" xlink:href="#DejaVuSans-20"/>
     <use x="201.757812" xlink:href="#DejaVuSans-43"/>
     <use x="271.582031" xlink:href="#DejaVuSans-61"/>
     <use x="332.861328" xlink:href="#DejaVuSans-6e"/>
     <use x="396.240234" xlink:href="#DejaVuSans-61"/>
     <use x="457.519531" xlink:href="#DejaVuSans-61"/>
     <use x="518.798828" xlink:href="#DejaVuSans-6e"/>
     <use x="582.177734" xlink:href="#DejaVuSans-20"/>
     <use x="613.964844" xlink:href="#DejaVuSans-43"/>
     <use x="683.789062" xlink:href="#DejaVuSans-75"/>
     <use x="747.167969" xlink:href="#DejaVuSans-72"/>
     <use x="788.28125" xlink:href="#DejaVuSans-76"/>
     <use x="847.460938" xlink:href="#DejaVuSans-65"/>
     <use x="908.984375" xlink:href="#DejaVuSans-20"/>
     <use x="940.771484" xlink:href="#DejaVuSans-32"/>
     <use x="1004.394531" xlink:href="#DejaVuSans-30"/>
     <use x="1068.017578" xlink:href="#DejaVuSans-2e"/>
     <use x="1099.804688" xlink:href="#DejaVuSans-39"/>
     <use x="1163.427734" xlink:href="#DejaVuSans-b0"/>
    </g>
   </g>
   <g id="text_17">
    <g id="patch_18">
     <path d="M 94.70653 73.269082 
L 100.340307 89.809714 
L 102.210431 89.172745 
L 96.576654 72.632113 
z
" style="fill:#ffffff;"/>
    </g>
    <!-- Valley View 15.6째 -->
    <g style="fill:#008000;" transform="translate(95.125636 73.147462)rotate(-288.80896)scale(0.02 -0.02)">
     <defs>
      <path d="M 691 4666 
L 3169 4666 
L 3169 4134 
L 1269 4134 
L 1269 2991 
Q 1406 3038 1543 3061 
Q 1681 3084 1819 3084 
Q 2600 3084 3056 2656 
Q 3513 2228 3513 1497 
Q 3513 744 3044 326 
Q 2575 -91 1722 -91 
Q 1428 -91 1123 -41 
Q 819 9 494 109 
L 494 744 
Q 775 591 1075 516 
Q 1375 441 1709 441 
Q 2250 441 2565 725 
Q 2881 1009 2881 1497 
Q 2881 1984 2565 2268 
Q 2250 2553 1709 2553 
Q 1456 2553 1204 2497 
Q 953 2441 691 2322 
L 691 4666 
z
" id="DejaVuSans-35" transform="scale(0.015625)"/>
     </defs>
     <use xlink:href="#DejaVuSans-56"/>
     <use x="60.658203" xlink:href="#DejaVuSans-61"/>
     <use x="121.9375" xlink:href="#DejaVuSans-6c"/>
     <use x="149.720703" xlink:href="#DejaVuSans-6c"/>
     <use x="177.503906" xlink:href="#DejaVuSans-65"/>
     <use x="239.027344" xlink:href="#DejaVuSans-79"/>
     <use x="298.207031" xlink:href="#DejaVuSans-20"/>
     <use x="329.994141" xlink:href="#DejaVuSans-56"/>
     <use x="396.152344" xlink:href="#DejaVuSans-69"/>
     <use x="423.935547" xlink:href="#DejaVuSans-65"/>
     <use x="485.458984" xlink:href="#DejaVuSans-77"/>
     <use x="567.246094" xlink:href="#DejaVuSans-20"/>
     <use x="599.033203" xlink:href="#DejaVuSans-31"/>
     <use x="662.65625" xlink:href="#DejaVuSans-35"/>
     <use x="726.279297" xlink:href="#DejaVuSans-2e"/>
     <use x="758.066406" xlink:href="#DejaVuSans-36"/>
     <use x="821.689453" xlink:href="#DejaVuSans-b0"/>
    </g>
   </g>
   <g id="text_18">
    <g id="patch_19">
     <path d="M 152.722476 89.426165 
L 163.055425 101.887934 
L 164.57625 100.626908 
L 154.243301 88.165139 
z
" style="fill:#ffffff;"/>
    </g>
    <!-- Prosperity 22.6째 -->
    <g style="fill:#4169e1;" transform="translate(153.070824 89.163305)rotate(-309.66457)scale(0.02 -0.02)">
     <defs>
      <path d="M 1259 4147 
L 1259 2394 
L 2053 2394 
Q 2494 2394 2734 2622 
Q 2975 2850 2975 3272 
Q 2975 3691 2734 3919 
Q 2494 4147 2053 4147 
L 1259 4147 
z
M 628 4666 
L 2053 4666 
Q 2838 4666 3239 4311 
Q 3641 3956 3641 3272 
Q 3641 2581 3239 2228 
Q 2838 1875 2053 1875 
L 1259 1875 
L 1259 0 
L 628 0 
L 628 4666 
z
" id="DejaVuSans-50" transform="scale(0.015625)"/>
     </defs>
     <use xlink:href="#DejaVuSans-50"/>
     <use x="58.552734" xlink:href="#DejaVuSans-72"/>
     <use x="97.416016" xlink:href="#DejaVuSans-6f"/>
     <use x="158.597656" xlink:href="#DejaVuSans-73"/>
     <use x="210.697266" xlink:href="#DejaVuSans-70"/>
     <use x="274.173828" xlink:href="#DejaVuSans-65"/>
     <use x="335.697266" xlink:href="#DejaVuSans-72"/>
     <use x="376.810547" xlink:href="#DejaVuSans-69"/>
     <use x="404.59375" xlink:href="#DejaVuSans-74"/>
     <use x="443.802734" xlink:href="#DejaVuSans-79"/>
     <use x="502.982422" xlink:href="#DejaVuSans-20"/>
     <use x="534.769531" xlink:href="#DejaVuSans-32"/>
     <use x="598.392578" xlink:href="#DejaVuSans-32"/>
     <use x="662.015625" xlink:href="#DejaVuSans-2e"/>
     <use x="693.802734" xlink:href="#DejaVuSans-36"/>
     <use x="757.425781" xlink:href="#DejaVuSans-b0"/>
    </g>
   </g>
   <g id="text_19">
    <g id="patch_20">
     <path d="M 71.901555 34.969499 
L 84.874906 68.910848 
L 86.720319 68.205479 
L 73.746968 34.264129 
z
" style="fill:#ffffff;"/>
    </g>
    <!-- Upper &amp;quot;C&amp;quot; Lift Line 22.7째 -->
    <g style="fill:#4169e1;" transform="translate(72.315901 34.832535)rotate(-290.91828)scale(0.02 -0.02)">
     <defs>
      <path d="M 1556 2509 
Q 1272 2256 1139 2004 
Q 1006 1753 1006 1478 
Q 1006 1022 1337 719 
Q 1669 416 2169 416 
Q 2466 416 2725 514 
Q 2984 613 3213 813 
L 1556 2509 
z
M 1997 2859 
L 3584 1234 
Q 3769 1513 3872 1830 
Q 3975 2147 3994 2503 
L 4575 2503 
Q 4538 2091 4375 1687 
Q 4213 1284 3922 891 
L 4794 0 
L 4006 0 
L 3559 459 
Q 3234 181 2878 45 
Q 2522 -91 2113 -91 
Q 1359 -91 881 339 
Q 403 769 403 1441 
Q 403 1841 612 2192 
Q 822 2544 1241 2853 
Q 1091 3050 1012 3245 
Q 934 3441 934 3628 
Q 934 4134 1281 4442 
Q 1628 4750 2203 4750 
Q 2463 4750 2720 4694 
Q 2978 4638 3244 4525 
L 3244 3956 
Q 2972 4103 2725 4179 
Q 2478 4256 2266 4256 
Q 1938 4256 1733 4082 
Q 1528 3909 1528 3634 
Q 1528 3475 1620 3314 
Q 1713 3153 1997 2859 
z
" id="DejaVuSans-26" transform="scale(0.015625)"/>
      <path d="M 947 1747 
Q 947 1113 1208 752 
Q 1469 391 1925 391 
Q 2381 391 2643 752 
Q 2906 1113 2906 1747 
Q 2906 2381 2643 2742 
Q 2381 3103 1925 3103 
Q 1469 3103 1208 2742 
Q 947 2381 947 1747 
z
M 2906 525 
Q 2725 213 2448 61 
Q 2172 -91 1784 -91 
Q 1150 -91 751 415 
Q 353 922 353 1747 
Q 353 2572 751 3078 
Q 1150 3584 1784 3584 
Q 2172 3584 2448 3432 
Q 2725 3281 2906 2969 
L 2906 3500 
L 3481 3500 
L 3481 -1331 
L 2906 -1331 
L 2906 525 
z
" id="DejaVuSans-71" transform="scale(0.015625)"/>
      <path d="M 750 3309 
L 1409 3309 
L 1409 2516 
L 750 2516 
L 750 3309 
z
M 750 794 
L 1409 794 
L 1409 256 
L 897 -744 
L 494 -744 
L 750 256 
L 750 794 
z
" id="DejaVuSans-3b" transform="scale(0.015625)"/>
     </defs>
     <use xlink:href="#DejaVuSans-55"/>
     <use x="73.193359" xlink:href="#DejaVuSans-70"/>
     <use x="136.669922" xlink:href="#DejaVuSans-70"/>
     <use x="200.146484" xlink:href="#DejaVuSans-65"/>
     <use x="261.669922" xlink:href="#DejaVuSans-72"/>
     <use x="302.783203" xlink:href="#DejaVuSans-20"/>
     <use x="334.570312" xlink:href="#DejaVuSans-26"/>
     <use x="412.548828" xlink:href="#DejaVuSans-71"/>
     <use x="476.025391" xlink:href="#DejaVuSans-75"/>
     <use x="539.404297" xlink:href="#DejaVuSans-6f"/>
     <use x="600.585938" xlink:href="#DejaVuSans-74"/>
     <use x="639.794922" xlink:href="#DejaVuSans-3b"/>
     <use x="673.486328" xlink:href="#DejaVuSans-43"/>
     <use x="743.310547" xlink:href="#DejaVuSans-26"/>
     <use x="821.289062" xlink:href="#DejaVuSans-71"/>
     <use x="884.765625" xlink:href="#DejaVuSans-75"/>
     <use x="948.144531" xlink:href="#DejaVuSans-6f"/>
     <use x="1009.326172" xlink:href="#DejaVuSans-74"/>
     <use x="1048.535156" xlink:href="#DejaVuSans-3b"/>
     <use x="1082.226562" xlink:href="#DejaVuSans-20"/>
     <use x="1114.013672" xlink:href="#DejaVuSans-4c"/>
     <use x="1169.726562" xlink:href="#DejaVuSans-69"/>
     <use x="1197.509766" xlink:href="#DejaVuSans-66"/>
     <use x="1230.964844" xlink:href="#DejaVuSans-74"/>
     <use x="1270.173828" xlink:href="#DejaVuSans-20"/>
     <use x="1301.960938" xlink:href="#DejaVuSans-4c"/>
     <use x="1357.673828" xlink:href="#DejaVuSans-69"/>
     <use x="1385.457031" xlink:href="#DejaVuSans-6e"/>
     <use x="1448.835938" xlink:href="#DejaVuSans-65"/>
     <use x="1510.359375" xlink:href="#DejaVuSans-20"/>
     <use x="1542.146484" xlink:href="#DejaVuSans-32"/>
     <use x="1605.769531" xlink:href="#DejaVuSans-32"/>
     <use x="1669.392578" xlink:href="#DejaVuSans-2e"/>
     <use x="1701.179688" xlink:href="#DejaVuSans-37"/>
     <use x="1764.802734" xlink:href="#DejaVuSans-b0"/>
    </g>
   </g>
   <g id="text_20">
    <g id="patch_21">
     <path d="M 90.366761 54.398074 
L 92.38942 66.302463 
L 94.33713 65.97153 
L 92.314472 54.067141 
z
" style="fill:#ffffff;"/>
    </g>
    <!-- Chute 20.1째 -->
    <g style="fill:#4169e1;" transform="translate(90.79989 54.344769)rotate(-279.642956)scale(0.02 -0.02)">
     <use xlink:href="#DejaVuSans-43"/>
     <use x="69.824219" xlink:href="#DejaVuSans-68"/>
     <use x="133.203125" xlink:href="#DejaVuSans-75"/>
     <use x="196.582031" xlink:href="#DejaVuSans-74"/>
     <use x="235.791016" xlink:href="#DejaVuSans-65"/>
     <use x="297.314453" xlink:href="#DejaVuSans-20"/>
     <use x="329.101562" xlink:href="#DejaVuSans-32"/>
     <use x="392.724609" xlink:href="#DejaVuSans-30"/>
     <use x="456.347656" xlink:href="#DejaVuSans-2e"/>
     <use x="488.134766" xlink:href="#DejaVuSans-31"/>
     <use x="551.757812" xlink:href="#DejaVuSans-b0"/>
    </g>
   </g>
   <g id="text_21">
    <g id="patch_22">
     <path d="M 73.142773 34.340095 
L 97.360431 46.198268 
L 98.229235 44.42393 
L 74.011577 32.565757 
z
" style="fill:#ffffff;"/>
    </g>
    <!-- Upper Canaan Curve 13.5째 -->
    <g style="fill:#008000;" transform="translate(73.352444 33.957368)rotate(-333.911324)scale(0.02 -0.02)">
     <use xlink:href="#DejaVuSans-55"/>
     <use x="73.193359" xlink:href="#DejaVuSans-70"/>
     <use x="136.669922" xlink:href="#DejaVuSans-70"/>
     <use x="200.146484" xlink:href="#DejaVuSans-65"/>
     <use x="261.669922" xlink:href="#DejaVuSans-72"/>
     <use x="302.783203" xlink:href="#DejaVuSans-20"/>
     <use x="334.570312" xlink:href="#DejaVuSans-43"/>
     <use x="404.394531" xlink:href="#DejaVuSans-61"/>
     <use x="465.673828" xlink:href="#DejaVuSans-6e"/>
     <use x="529.052734" xlink:href="#DejaVuSans-61"/>
     <use x="590.332031" xlink:href="#DejaVuSans-61"/>
     <use x="651.611328" xlink:href="#DejaVuSans-6e"/>
     <use x="714.990234" xlink:href="#DejaVuSans-20"/>
     <use x="746.777344" xlink:href="#DejaVuSans-43"/>
     <use x="816.601562" xlink:href="#DejaVuSans-75"/>
     <use x="879.980469" xlink:href="#DejaVuSans-72"/>
     <use x="921.09375" xlink:href="#DejaVuSans-76"/>
     <use x="980.273438" xlink:href="#DejaVuSans-65"/>
     <use x="1041.796875" xlink:href="#DejaVuSans-20"/>
     <use x="1073.583984" xlink:href="#DejaVuSans-31"/>
     <use x="1137.207031" xlink:href="#DejaVuSans-33"/>
     <use x="1200.830078" xlink:href="#DejaVuSans-2e"/>
     <use x="1232.617188" xlink:href="#DejaVuSans-35"/>
     <use x="1296.240234" xlink:href="#DejaVuSans-b0"/>
    </g>
   </g>
   <g id="text_22">
    <g id="patch_23">
     <path d="M 96.997096 76.98986 
L 118.429951 60.733281 
L 117.236042 59.159218 
L 95.803187 75.415797 
z
" style="fill:#ffffff;"/>
    </g>
    <!-- Lower Canaan Curve 12.0째 -->
    <g style="fill:#008000;" transform="translate(96.749586 76.630444)rotate(-37.179908)scale(0.02 -0.02)">
     <use xlink:href="#DejaVuSans-4c"/>
     <use x="53.962891" xlink:href="#DejaVuSans-6f"/>
     <use x="115.144531" xlink:href="#DejaVuSans-77"/>
     <use x="196.931641" xlink:href="#DejaVuSans-65"/>
     <use x="258.455078" xlink:href="#DejaVuSans-72"/>
     <use x="299.568359" xlink:href="#DejaVuSans-20"/>
     <use x="331.355469" xlink:href="#DejaVuSans-43"/>
     <use x="401.179688" xlink:href="#DejaVuSans-61"/>
     <use x="462.458984" xlink:href="#DejaVuSans-6e"/>
     <use x="525.837891" xlink:href="#DejaVuSans-61"/>
     <use x="587.117188" xlink:href="#DejaVuSans-61"/>
     <use x="648.396484" xlink:href="#DejaVuSans-6e"/>
     <use x="711.775391" xlink:href="#DejaVuSans-20"/>
     <use x="743.5625" xlink:href="#DejaVuSans-43"/>
     <use x="813.386719" xlink:href="#DejaVuSans-75"/>
     <use x="876.765625" xlink:href="#DejaVuSans-72"/>
     <use x="917.878906" xlink:href="#DejaVuSans-76"/>
     <use x="977.058594" xlink:href="#DejaVuSans-65"/>
     <use x="1038.582031" xlink:href="#DejaVuSans-20"/>
     <use x="1070.369141" xlink:href="#DejaVuSans-31"/>
     <use x="1133.992188" xlink:href="#DejaVuSans-32"/>
     <use x="1197.615234" xlink:href="#DejaVuSans-2e"/>
     <use x="1229.402344" xlink:href="#DejaVuSans-30"/>
     <use x="1293.025391" xlink:href="#DejaVuSans-b0"/>
    </g>
   </g>
   <g id="text_23">
    <g id="patch_24">
     <path d="M 106.445007 104.243475 
L 110.025511 86.787208 
L 108.090178 86.390246 
L 104.509673 103.846513 
z
" style="fill:#ffffff;"/>
    </g>
    <!-- Snow Fields 13.7째 -->
    <g style="fill:#008000;" transform="translate(106.021978 104.13629)rotate(-78.408669)scale(0.02 -0.02)">
     <defs>
      <path d="M 628 4666 
L 3309 4666 
L 3309 4134 
L 1259 4134 
L 1259 2759 
L 3109 2759 
L 3109 2228 
L 1259 2228 
L 1259 0 
L 628 0 
L 628 4666 
z
" id="DejaVuSans-46" transform="scale(0.015625)"/>
     </defs>
     <use xlink:href="#DejaVuSans-53"/>
     <use x="63.476562" xlink:href="#DejaVuSans-6e"/>
     <use x="126.855469" xlink:href="#DejaVuSans-6f"/>
     <use x="188.037109" xlink:href="#DejaVuSans-77"/>
     <use x="269.824219" xlink:href="#DejaVuSans-20"/>
     <use x="301.611328" xlink:href="#DejaVuSans-46"/>
     <use x="351.880859" xlink:href="#DejaVuSans-69"/>
     <use x="379.664062" xlink:href="#DejaVuSans-65"/>
     <use x="441.1875" xlink:href="#DejaVuSans-6c"/>
     <use x="468.970703" xlink:href="#DejaVuSans-64"/>
     <use x="532.447266" xlink:href="#DejaVuSans-73"/>
     <use x="584.546875" xlink:href="#DejaVuSans-20"/>
     <use x="616.333984" xlink:href="#DejaVuSans-31"/>
     <use x="679.957031" xlink:href="#DejaVuSans-33"/>
     <use x="743.580078" xlink:href="#DejaVuSans-2e"/>
     <use x="775.367188" xlink:href="#DejaVuSans-37"/>
     <use x="838.990234" xlink:href="#DejaVuSans-b0"/>
    </g>
   </g>
   <g id="text_24">
    <!-- Canaan Valley -->
    <g transform="translate(51.06439 14.27549)scale(0.13 -0.13)">
     <use xlink:href="#DejaVuSans-43"/>
     <use x="69.824219" xlink:href="#DejaVuSans-61"/>
     <use x="131.103516" xlink:href="#DejaVuSans-6e"/>
     <use x="194.482422" xlink:href="#DejaVuSans-61"/>
     <use x="255.761719" xlink:href="#DejaVuSans-61"/>
     <use x="317.041016" xlink:href="#DejaVuSans-6e"/>
     <use x="380.419922" xlink:href="#DejaVuSans-20"/>
     <use x="412.207031" xlink:href="#DejaVuSans-56"/>
     <use x="472.865234" xlink:href="#DejaVuSans-61"/>
     <use x="534.144531" xlink:href="#DejaVuSans-6c"/>
     <use x="561.927734" xlink:href="#DejaVuSans-6c"/>
     <use x="589.710938" xlink:href="#DejaVuSans-65"/>
     <use x="651.234375" xlink:href="#DejaVuSans-79"/>
    </g>
   </g>
   <g id="legend_1">
    <g id="line2d_40">
     <path d="M 6.239273 165.629058 
L 19.239273 165.629058 
" style="fill:none;stroke:#008000;stroke-linecap:square;stroke-width:1.5;"/>
    </g>
    <g id="line2d_41"/>
    <g id="text_25">
     <!-- Easy -->
     <g transform="translate(24.439273 167.904058)scale(0.065 -0.065)">
      <defs>
       <path d="M 628 4666 
L 3578 4666 
L 3578 4134 
L 1259 4134 
L 1259 2753 
L 3481 2753 
L 3481 2222 
L 1259 2222 
L 1259 531 
L 3634 531 
L 3634 0 
L 628 0 
L 628 4666 
z
" id="DejaVuSans-45" transform="scale(0.015625)"/>
      </defs>
      <use xlink:href="#DejaVuSans-45"/>
      <use x="63.183594" xlink:href="#DejaVuSans-61"/>
      <use x="124.462891" xlink:href="#DejaVuSans-73"/>
      <use x="176.5625" xlink:href="#DejaVuSans-79"/>
     </g>
    </g>
    <g id="line2d_42">
     <path d="M 6.239273 175.169839 
L 19.239273 175.169839 
" style="fill:none;stroke:#4169e1;stroke-linecap:square;stroke-width:1.5;"/>
    </g>
    <g id="line2d_43"/>
    <g id="text_26">
     <!-- Intermediate -->
     <g transform="translate(24.439273 177.444839)scale(0.065 -0.065)">
      <defs>
       <path d="M 628 4666 
L 1259 4666 
L 1259 0 
L 628 0 
L 628 4666 
z
" id="DejaVuSans-49" transform="scale(0.015625)"/>
      </defs>
      <use xlink:href="#DejaVuSans-49"/>
      <use x="29.492188" xlink:href="#DejaVuSans-6e"/>
      <use x="92.871094" xlink:href="#DejaVuSans-74"/>
      <use x="132.080078" xlink:href="#DejaVuSans-65"/>
      <use x="193.603516" xlink:href="#DejaVuSans-72"/>
      <use x="232.966797" xlink:href="#DejaVuSans-6d"/>
      <use x="330.378906" xlink:href="#DejaVuSans-65"/>
      <use x="391.902344" xlink:href="#DejaVuSans-64"/>
      <use x="455.378906" xlink:href="#DejaVuSans-69"/>
      <use x="483.162109" xlink:href="#DejaVuSans-61"/>
      <use x="544.441406" xlink:href="#DejaVuSans-74"/>
      <use x="583.650391" xlink:href="#DejaVuSans-65"/>
     </g>
    </g>
    <g id="line2d_44">
     <path d="M 79.37646 165.629058 
L 92.37646 165.629058 
" style="fill:none;stroke:#000000;stroke-linecap:square;stroke-width:1.5;"/>
    </g>
    <g id="line2d_45"/>
    <g id="text_27">
     <!-- Advanced -->
     <g transform="translate(97.57646 167.904058)scale(0.065 -0.065)">
      <use xlink:href="#DejaVuSans-41"/>
      <use x="66.658203" xlink:href="#DejaVuSans-64"/>
      <use x="130.134766" xlink:href="#DejaVuSans-76"/>
      <use x="189.314453" xlink:href="#DejaVuSans-61"/>
      <use x="250.59375" xlink:href="#DejaVuSans-6e"/>
      <use x="313.972656" xlink:href="#DejaVuSans-63"/>
      <use x="368.953125" xlink:href="#DejaVuSans-65"/>
      <use x="430.476562" xlink:href="#DejaVuSans-64"/>
     </g>
    </g>
    <g id="line2d_46">
     <path d="M 79.37646 175.169839 
L 92.37646 175.169839 
" style="fill:none;stroke:#ff0000;stroke-linecap:square;stroke-width:1.5;"/>
    </g>
    <g id="line2d_47"/>
    <g id="text_28">
     <!-- Expert -->
     <g transform="translate(97.57646 177.444839)scale(0.065 -0.065)">
      <defs>
       <path d="M 3513 3500 
L 2247 1797 
L 3578 0 
L 2900 0 
L 1881 1375 
L 863 0 
L 184 0 
L 1544 1831 
L 300 3500 
L 978 3500 
L 1906 2253 
L 2834 3500 
L 3513 3500 
z
" id="DejaVuSans-78" transform="scale(0.015625)"/>
      </defs>
      <use xlink:href="#DejaVuSans-45"/>
      <use x="63.183594" xlink:href="#DejaVuSans-78"/>
      <use x="122.363281" xlink:href="#DejaVuSans-70"/>
      <use x="185.839844" xlink:href="#DejaVuSans-65"/>
      <use x="247.363281" xlink:href="#DejaVuSans-72"/>
      <use x="288.476562" xlink:href="#DejaVuSans-74"/>
     </g>
    </g>
    <g id="line2d_48">
     <path d="M 142.685445 165.629058 
L 155.685445 165.629058 
" style="fill:none;stroke:#ffd700;stroke-linecap:square;stroke-width:1.5;"/>
    </g>
    <g id="line2d_49"/>
    <g id="text_29">
     <!-- Extreme -->
     <g transform="translate(160.885445 167.904058)scale(0.065 -0.065)">
      <use xlink:href="#DejaVuSans-45"/>
      <use x="63.183594" xlink:href="#DejaVuSans-78"/>
      <use x="122.363281" xlink:href="#DejaVuSans-74"/>
      <use x="161.572266" xlink:href="#DejaVuSans-72"/>
      <use x="200.435547" xlink:href="#DejaVuSans-65"/>
      <use x="261.958984" xlink:href="#DejaVuSans-6d"/>
      <use x="359.371094" xlink:href="#DejaVuSans-65"/>
     </g>
    </g>
    <g id="line2d_50">
     <path d="M 142.685445 175.169839 
L 155.685445 175.169839 
" style="fill:none;stroke:#000000;stroke-dasharray:1.5,2.475;stroke-dashoffset:0;stroke-width:1.5;"/>
    </g>
    <g id="line2d_51"/>
    <g id="text_30">
     <!-- Gladed -->
     <g transform="translate(160.885445 177.444839)scale(0.065 -0.065)">
      <use xlink:href="#DejaVuSans-47"/>
      <use x="77.490234" xlink:href="#DejaVuSans-6c"/>
      <use x="105.273438" xlink:href="#DejaVuSans-61"/>
      <use x="166.552734" xlink:href="#DejaVuSans-64"/>
      <use x="230.029297" xlink:href="#DejaVuSans-65"/>
      <use x="291.552734" xlink:href="#DejaVuSans-64"/>
     </g>
    </g>
   </g>
  </g>
  <g id="text_31">
   <!-- Sources: USGS and OpenStreetMaps -->
   <g transform="translate(45.682946 188.033533)scale(0.056522 -0.056522)">
    <defs>
     <path d="M 750 794 
L 1409 794 
L 1409 0 
L 750 0 
L 750 794 
z
M 750 3309 
L 1409 3309 
L 1409 2516 
L 750 2516 
L 750 3309 
z
" id="DejaVuSans-3a" transform="scale(0.015625)"/>
    </defs>
    <use xlink:href="#DejaVuSans-53"/>
    <use x="63.476562" xlink:href="#DejaVuSans-6f"/>
    <use x="124.658203" xlink:href="#DejaVuSans-75"/>
    <use x="188.037109" xlink:href="#DejaVuSans-72"/>
    <use x="226.900391" xlink:href="#DejaVuSans-63"/>
    <use x="281.880859" xlink:href="#DejaVuSans-65"/>
    <use x="343.404297" xlink:href="#DejaVuSans-73"/>
    <use x="395.503906" xlink:href="#DejaVuSans-3a"/>
    <use x="429.195312" xlink:href="#DejaVuSans-20"/>
    <use x="460.982422" xlink:href="#DejaVuSans-55"/>
    <use x="534.175781" xlink:href="#DejaVuSans-53"/>
    <use x="597.652344" xlink:href="#DejaVuSans-47"/>
    <use x="675.142578" xlink:href="#DejaVuSans-53"/>
    <use x="738.619141" xlink:href="#DejaVuSans-20"/>
    <use x="770.40625" xlink:href="#DejaVuSans-61"/>
    <use x="831.685547" xlink:href="#DejaVuSans-6e"/>
    <use x="895.064453" xlink:href="#DejaVuSans-64"/>
    <use x="958.541016" xlink:href="#DejaVuSans-20"/>
    <use x="990.328125" xlink:href="#DejaVuSans-4f"/>
    <use x="1069.039062" xlink:href="#DejaVuSans-70"/>
    <use x="1132.515625" xlink:href="#DejaVuSans-65"/>
    <use x="1194.039062" xlink:href="#DejaVuSans-6e"/>
    <use x="1257.417969" xlink:href="#DejaVuSans-53"/>
    <use x="1320.894531" xlink:href="#DejaVuSans-74"/>
    <use x="1360.103516" xlink:href="#DejaVuSans-72"/>
    <use x="1398.966797" xlink:href="#DejaVuSans-65"/>
    <use x="1460.490234" xlink:href="#DejaVuSans-65"/>
    <use x="1522.013672" xlink:href="#DejaVuSans-74"/>
    <use x="1561.222656" xlink:href="#DejaVuSans-4d"/>
    <use x="1647.501953" xlink:href="#DejaVuSans-61"/>
    <use x="1708.78125" xlink:href="#DejaVuSans-70"/>
    <use x="1772.257812" xlink:href="#DejaVuSans-73"/>
   </g>
  </g>
 </g>
 <defs>
  <clipPath id="p865ea363dd">
   <rect height="147.658029" width="194.483623" x="0" y="20.77549"/>
  </clipPath>
 </defs>
</svg>
