<?xml version="1.0" encoding="utf-8" standalone="no"?>
<!DOCTYPE svg PUBLIC "-//W3C//DTD SVG 1.1//EN"
  "http://www.w3.org/Graphics/SVG/1.1/DTD/svg11.dtd">
<svg height="133.736517pt" version="1.1" viewBox="0 0 56.48279 133.736517" width="56.48279pt" xmlns="http://www.w3.org/2000/svg" xmlns:xlink="http://www.w3.org/1999/xlink">
 <metadata>
  <rdf:RDF xmlns:cc="http://creativecommons.org/ns#" xmlns:dc="http://purl.org/dc/elements/1.1/" xmlns:rdf="http://www.w3.org/1999/02/22-rdf-syntax-ns#">
   <cc:Work>
    <dc:type rdf:resource="http://purl.org/dc/dcmitype/StillImage"/>
    <dc:date>2022-04-14T21:28:32.391983</dc:date>
    <dc:format>image/svg+xml</dc:format>
    <dc:creator>
     <cc:Agent>
      <dc:title>Matplotlib v3.4.3, https://matplotlib.org/</dc:title>
     </cc:Agent>
    </dc:creator>
   </cc:Work>
  </rdf:RDF>
 </metadata>
 <defs>
  <style type="text/css">*{stroke-linecap:butt;stroke-linejoin:round;}</style>
 </defs>
 <g id="figure_1">
  <g id="patch_1">
   <path d="M 0 133.736517 
L 56.48279 133.736517 
L 56.48279 0 
L 0 0 
z
" style="fill:#ffffff;"/>
  </g>
  <g id="axes_1">
   <g id="line2d_1">
    <path clip-path="url(#p5efb687b2e)" d="M 44.324132 118.131737 
L 47.133178 114.536405 
" style="fill:none;stroke:#808080;stroke-linecap:square;stroke-width:1.5;"/>
   </g>
   <g id="line2d_2">
    <path clip-path="url(#p5efb687b2e)" d="M 43.164749 119.496431 
L 44.335975 113.270015 
L 45.056 109.439042 
L 45.776025 105.608069 
L 46.651188 100.955967 
L 47.52635 96.303865 
L 48.346445 91.943061 
L 49.166539 87.582257 
L 49.986634 83.220731 
L 50.806729 78.859204 
" style="fill:none;stroke:#808080;stroke-linecap:square;stroke-width:1.5;"/>
   </g>
   <g id="line2d_3">
    <path clip-path="url(#p5efb687b2e)" d="M 33.029919 113.874297 
L 35.062096 108.574544 
" style="fill:none;stroke:#808080;stroke-linecap:square;stroke-width:1.5;"/>
   </g>
   <g id="line2d_4">
    <path clip-path="url(#p5efb687b2e)" d="M 31.568552 118.289313 
L 30.976426 115.995066 
L 29.481899 110.204514 
L 27.987373 104.413962 
L 27.028129 100.696473 
L 26.068885 96.978983 
L 24.974635 92.738891 
L 24.015983 89.024293 
L 23.057331 85.309695 
L 22.098679 81.595097 
L 21.140027 77.880499 
L 20.282036 74.556226 
L 19.424045 71.231954 
L 18.566055 67.907681 
L 17.708064 64.583408 
L 16.575919 60.196583 
L 15.443774 55.809757 
L 14.386237 51.711339 
L 13.328699 47.612921 
L 12.271162 43.514503 
L 11.213625 39.416084 
L 9.678834 33.470125 
L 8.144043 27.524166 
L 7.267104 24.12472 
L 6.390166 20.725273 
L 5.512635 17.325104 
L 4.635104 13.924935 
" style="fill:none;stroke:#808080;stroke-linecap:square;stroke-width:1.5;"/>
   </g>
   <g id="line2d_5">
    <path clip-path="url(#p5efb687b2e)" d="M 28.551077 118.131737 
L 27.392286 113.190505 
L 26.233496 108.249272 
L 25.172998 103.725833 
L 24.1125 99.202393 
L 23.151479 95.106144 
L 22.190459 91.009894 
L 21.326251 87.323847 
L 20.462042 83.637801 
L 19.597834 79.951754 
L 18.733626 76.265708 
L 17.955277 72.946133 
L 17.176927 69.626559 
L 16.398577 66.306985 
L 15.620227 62.987411 
L 14.842174 59.669643 
L 14.06412 56.351876 
L 13.286066 53.034109 
L 12.508013 49.716342 
L 11.349814 44.778001 
L 10.191615 39.83966 
" style="fill:none;stroke:#808080;stroke-linecap:square;stroke-width:1.5;"/>
   </g>
   <g id="line2d_6">
    <path clip-path="url(#p5efb687b2e)" d="M 12.769732 37.646609 
L 13.045663 39.373076 
L 13.321594 41.099544 
L 13.597525 42.826012 
L 13.873455 44.552479 
L 14.403112 46.260154 
L 14.932769 47.967828 
L 15.462426 49.675502 
L 15.992083 51.383177 
L 16.137153 52.543311 
L 16.282224 53.703445 
L 16.427295 54.863579 
L 16.572366 56.023714 
L 16.956952 57.450209 
L 17.341538 58.876704 
L 17.726124 60.3032 
L 18.11071 61.729695 
L 18.763233 63.233894 
L 19.415756 64.738093 
" style="fill:none;stroke:#4169e1;stroke-linecap:square;stroke-width:1.5;"/>
   </g>
   <g id="line2d_7">
    <path clip-path="url(#p5efb687b2e)" d="M 47.133178 114.536405 
L 48.158741 115.77099 
L 48.405065 116.239381 
L 48.487963 116.788728 
L 48.281903 117.258564 
L 47.482533 117.910552 
L 46.968567 118.092704 
L 45.963137 118.215585 
L 44.324132 118.131737 
" style="fill:none;stroke:#008000;stroke-linecap:square;stroke-width:1.5;"/>
   </g>
   <g id="line2d_8">
    <path clip-path="url(#p5efb687b2e)" d="M 50.806729 78.859204 
L 49.868209 79.816947 
L 48.929689 80.774691 
L 48.305588 81.783754 
L 47.885179 82.432851 
L 47.362923 82.980753 
L 47.043175 83.64286 
L 46.753033 85.429684 
L 46.462892 87.216508 
L 46.17275 89.003331 
L 45.882608 90.790155 
L 45.388775 92.173642 
L 45.388775 93.341005 
L 45.388775 94.508367 
L 45.040605 95.919322 
L 44.779477 96.986212 
L 44.51835 98.053102 
L 44.054123 99.464056 
L 43.168302 100.912598 
" style="fill:none;stroke:#008000;stroke-linecap:square;stroke-width:1.5;"/>
   </g>
   <g id="line2d_9">
    <path clip-path="url(#p5efb687b2e)" d="M 19.030874 67.380742 
L 19.667409 68.216327 
L 20.303945 69.051913 
L 21.022194 69.83654 
L 21.740443 70.621166 
L 22.458692 71.405793 
L 23.176941 72.19042 
L 23.730875 73.484277 
L 24.284809 74.778134 
L 24.838743 76.07199 
L 25.392677 77.365847 
L 25.956973 78.313471 
L 26.521269 79.261095 
L 27.085565 80.208718 
L 27.649861 81.156342 
L 28.040072 82.154564 
L 28.430283 83.152785 
L 28.748255 84.202327 
L 29.066227 85.251869 
L 29.384199 86.301411 
L 29.70217 87.350953 
L 30.28275 88.623125 
L 30.86333 89.895298 
L 31.443909 91.16747 
L 32.024489 92.439642 
L 32.815569 93.102472 
L 33.60665 93.765303 
L 34.39773 94.428134 
L 35.188811 95.090964 
L 36.186247 95.818668 
L 37.183684 96.546373 
L 38.18112 97.274077 
L 39.178556 98.001781 
L 40.175993 98.729485 
L 41.173429 99.457189 
L 42.170866 100.184893 
L 43.168302 100.912598 
" style="fill:none;stroke:#008000;stroke-linecap:square;stroke-width:1.5;"/>
   </g>
   <g id="line2d_10">
    <path clip-path="url(#p5efb687b2e)" d="M 11.123622 37.781054 
L 12.769732 37.646609 
L 13.843849 37.387114 
L 14.917966 37.12762 
L 16.332555 36.630316 
L 17.747144 36.133013 
L 19.161734 35.635709 
L 20.576323 35.138405 
L 21.853243 34.778439 
L 23.130163 34.418472 
L 24.407083 34.058505 
L 25.684003 33.698538 
L 26.4964 33.611799 
L 27.048261 34.044048 
L 26.859373 35.124672 
L 26.670485 36.205295 
L 26.177836 37.55987 
L 25.481495 38.885531 
L 24.755845 39.764486 
L 24.030194 40.643441 
L 23.304544 41.522397 
L 22.578893 42.401352 
L 21.969596 43.748698 
L 21.360298 45.096044 
L 20.751 46.44339 
L 20.141702 47.790736 
L 20.105286 48.886177 
L 20.068871 49.981619 
L 20.032455 51.07706 
L 19.996039 52.172502 
L 19.698792 53.829578 
L 19.401545 55.486655 
L 19.104297 57.143731 
L 18.80705 58.800808 
L 18.959226 60.285129 
L 19.111403 61.76945 
L 19.263579 63.253772 
L 19.415756 64.738093 
L 19.223315 66.059417 
L 19.030874 67.380742 
" style="fill:none;stroke:#008000;stroke-linecap:square;stroke-width:1.5;"/>
   </g>
   <g id="line2d_11">
    <path clip-path="url(#p5efb687b2e)" d="M 47.885179 82.432851 
L 48.795869 84.053425 
L 49.706558 85.673999 
L 50.722351 87.266383 
L 51.738143 88.858766 
L 52.753935 90.45115 
L 53.769728 92.043534 
L 53.915391 92.763468 
L 53.827756 93.512314 
L 53.625249 94.233694 
L 52.841274 95.501529 
L 51.553992 96.413011 
L 50.26671 97.324494 
L 49.097853 98.152851 
L 48.618823 99.400448 
L 48.139793 100.648044 
L 48.098936 101.901061 
L 48.058079 103.154078 
L 48.017223 104.407096 
L 47.976366 105.660113 
L 47.811755 106.760253 
L 47.257525 108.227588 
L 46.744744 109.124613 
L 46.231963 110.021639 
L 45.492989 110.795785 
L 44.754016 111.569931 
L 43.295313 112.528758 
L 41.83661 113.487586 
L 40.377908 114.446413 
L 38.919205 115.405241 
" style="fill:none;stroke:#4169e1;stroke-linecap:square;stroke-width:1.5;"/>
   </g>
   <g id="line2d_12">
    <path clip-path="url(#p5efb687b2e)" d="M 43.168302 100.912598 
L 42.641014 102.109596 
L 42.113725 103.306594 
L 41.586437 104.503593 
L 41.059149 105.700591 
L 40.669234 107.218885 
L 40.279319 108.737179 
L 39.889404 110.255473 
L 39.499489 111.773767 
L 39.209347 113.589504 
L 38.919205 115.405241 
L 38.735942 116.738853 
L 38.552679 118.072465 
L 38.369416 119.406078 
L 38.186153 120.73969 
" style="fill:none;stroke:#008000;stroke-linecap:square;stroke-width:1.5;"/>
   </g>
   <g id="line2d_13">
    <path clip-path="url(#p5efb687b2e)" d="M 10.191615 39.83966 
L 9.295136 39.971214 
L 8.656824 40.316724 
L 8.162991 40.893539 
L 7.814821 41.917059 
L 7.466651 42.94058 
L 7.234537 44.611751 
L 7.002424 46.282923 
L 6.596226 46.917563 
L 6.364112 48.415257 
L 6.436352 50.288819 
L 6.508591 52.162382 
L 6.856761 53.905836 
L 7.204931 55.64929 
L 8.05404 56.939172 
L 8.903149 58.229053 
L 9.752258 59.518934 
L 10.601367 60.808816 
L 11.384749 61.673315 
L 12.168132 62.537813 
L 12.966318 63.344486 
L 13.764504 64.151159 
L 14.953493 65.102397 
L 15.972838 65.671983 
L 16.992184 66.241569 
L 18.011529 66.811155 
L 19.030874 67.380742 
" style="fill:none;stroke:#008000;stroke-linecap:square;stroke-width:1.5;"/>
   </g>
   <g id="line2d_14">
    <path clip-path="url(#p5efb687b2e)" d="M 19.996039 52.172502 
L 20.981929 52.132746 
L 21.967819 52.092991 
L 22.953709 52.053235 
L 23.939599 52.01348 
L 24.693968 52.158045 
L 25.274251 52.590295 
L 26.188494 53.714288 
L 27.102737 54.838281 
L 27.639499 56.092021 
L 28.176261 57.345761 
L 28.713024 58.599501 
L 29.249786 59.853241 
L 30.004451 60.782433 
L 30.759115 61.711624 
L 31.51378 62.640816 
L 32.268445 63.570008 
L 32.80728 64.571843 
L 33.346114 65.573679 
" style="fill:none;stroke:#008000;stroke-linecap:square;stroke-width:1.5;"/>
   </g>
   <g id="line2d_15">
    <path clip-path="url(#p5efb687b2e)" d="M 40.45518 66.581297 
L 41.340409 67.309182 
L 42.225637 68.037067 
L 43.110866 68.764952 
L 43.996094 69.492836 
L 44.779477 70.285053 
L 45.56286 71.077269 
L 46.491906 72.705794 
L 47.420952 74.334319 
L 47.783333 75.789366 
L 48.145714 77.244413 
L 48.073475 78.267933 
L 48.001235 79.291453 
L 47.739516 80.977082 
L 47.885179 82.432851 
" style="fill:none;stroke:#008000;stroke-linecap:square;stroke-width:1.5;"/>
   </g>
   <g id="line2d_16">
    <path clip-path="url(#p5efb687b2e)" d="M 3.306373 17.685071 
L 3.196237 18.724493 
L 3.360849 19.824633 
L 3.668754 20.864056 
L 3.97666 21.903478 
L 4.284565 22.942901 
L 4.592471 23.982323 
L 4.735765 25.021745 
L 4.87906 26.061168 
L 4.87906 27.691139 
L 4.87906 29.321109 
L 4.786688 30.350412 
L 4.694317 31.379715 
L 4.601945 32.409018 
L 4.509573 33.438321 
L 4.530298 34.987335 
L 4.551022 36.536349 
L 4.806672 37.834001 
L 5.062323 39.131653 
L 5.317973 40.429304 
L 5.573624 41.726956 
L 5.829274 43.024608 
L 6.084925 44.32226 
L 6.340575 45.619911 
L 6.596226 46.917563 
" style="fill:none;stroke:#4169e1;stroke-linecap:square;stroke-width:1.5;"/>
   </g>
   <g id="line2d_17">
    <path clip-path="url(#p5efb687b2e)" d="M 4.635104 13.924935 
L 3.592962 14.016011 
L 2.813724 14.750401 
L 2.5674 15.72766 
L 2.772275 16.787322 
L 3.306373 17.685071 
L 4.167324 18.337059 
L 5.234336 18.66233 
L 6.301347 18.702809 
L 7.327501 18.621852 
L 8.353656 18.540896 
L 9.34902 18.225021 
L 10.344384 17.909147 
L 11.339748 17.593272 
L 12.335112 17.277397 
L 13.494495 16.614928 
L 14.653878 15.952459 
L 15.81326 15.28999 
L 16.972643 14.627521 
L 18.449998 13.975532 
L 19.927353 13.323544 
L 20.974232 13.160186 
L 22.02111 12.996827 
L 22.923511 13.608337 
L 23.497873 14.464162 
L 23.703933 15.483346 
L 23.662484 16.583485 
L 23.333854 17.541229 
L 23.005224 18.498972 
L 22.440928 19.360037 
L 21.876632 20.221103 
L 21.312336 21.082168 
L 20.748039 21.943233 
L 20.183743 22.804299 
L 19.619447 23.665364 
L 19.055151 24.52643 
L 18.490855 25.387495 
L 17.700958 27.048547 
L 16.911062 28.709599 
L 16.121166 30.370651 
L 15.33127 32.031703 
L 14.656542 33.051248 
L 13.981814 34.070793 
L 13.307087 35.090338 
L 12.632359 36.109882 
L 11.87799 36.945468 
L 11.123622 37.781054 
L 10.31004 39.019976 
L 10.191615 39.83966 
" style="fill:none;stroke:#008000;stroke-linecap:square;stroke-width:1.5;"/>
   </g>
   <g id="line2d_18">
    <path clip-path="url(#p5efb687b2e)" d="M 19.030874 67.380742 
L 19.85156 67.302676 
L 21.346087 67.504345 
L 22.840613 67.706013 
L 23.870912 68.152719 
L 24.901212 68.599425 
L 26.351921 68.771457 
L 27.860658 68.397034 
L 29.529269 67.388693 
L 31.197881 66.380352 
L 32.271998 65.977015 
L 33.346114 65.573679 
L 34.383519 65.580546 
L 35.420924 65.587413 
L 36.458329 65.594279 
L 37.495734 65.601146 
L 38.975457 66.091222 
L 40.45518 66.581297 
" style="fill:none;stroke:#008000;stroke-linecap:square;stroke-width:1.5;"/>
   </g>
   <g id="line2d_19">
    <path clip-path="url(#p5efb687b2e)" d="M 19.996039 52.172502 
L 20.406975 53.342033 
L 21.084367 54.320015 
L 21.761759 55.297997 
L 22.233684 56.27598 
L 22.705608 57.253962 
L 22.972361 58.324105 
L 23.239114 59.394247 
L 23.505867 60.46439 
L 23.77262 61.534532 
L 24.346982 63.082824 
L 24.921344 64.631115 
L 25.824336 65.976292 
L 26.727329 67.32147 
L 27.860658 68.397034 
" style="fill:none;stroke:#4169e1;stroke-dasharray:5.55,2.4;stroke-dashoffset:0;stroke-width:1.5;"/>
   </g>
   <g id="line2d_20">
    <path clip-path="url(#p5efb687b2e)" d="M 35.062096 108.574544 
L 33.805604 107.997729 
L 33.109264 108.055555 
L 31.920275 108.920054 
L 31.339399 109.842379 
L 30.758523 110.764704 
L 30.642467 112.206017 
L 30.932608 112.925951 
L 32.09436 113.790449 
L 33.029919 113.874297 
" style="fill:none;stroke:#008000;stroke-linecap:square;stroke-width:1.5;"/>
   </g>
   <g id="text_1">
    <g id="patch_2">
     <path d="M 44.939813 114.36275 
L 47.097781 104.957131 
L 45.172188 104.515335 
L 43.014219 113.920954 
z
" style="fill:#ffffff;"/>
    </g>
    <!-- Easy Way -->
    <g style="fill:#808080;" transform="translate(44.519387 114.245771)rotate(-77.078041)scale(0.02 -0.02)">
     <defs>
      <path d="M 628 4666 
L 3578 4666 
L 3578 4134 
L 1259 4134 
L 1259 2753 
L 3481 2753 
L 3481 2222 
L 1259 2222 
L 1259 531 
L 3634 531 
L 3634 0 
L 628 0 
L 628 4666 
z
" id="DejaVuSans-45" transform="scale(0.015625)"/>
      <path d="M 2194 1759 
Q 1497 1759 1228 1600 
Q 959 1441 959 1056 
Q 959 750 1161 570 
Q 1363 391 1709 391 
Q 2188 391 2477 730 
Q 2766 1069 2766 1631 
L 2766 1759 
L 2194 1759 
z
M 3341 1997 
L 3341 0 
L 2766 0 
L 2766 531 
Q 2569 213 2275 61 
Q 1981 -91 1556 -91 
Q 1019 -91 701 211 
Q 384 513 384 1019 
Q 384 1609 779 1909 
Q 1175 2209 1959 2209 
L 2766 2209 
L 2766 2266 
Q 2766 2663 2505 2880 
Q 2244 3097 1772 3097 
Q 1472 3097 1187 3025 
Q 903 2953 641 2809 
L 641 3341 
Q 956 3463 1253 3523 
Q 1550 3584 1831 3584 
Q 2591 3584 2966 3190 
Q 3341 2797 3341 1997 
z
" id="DejaVuSans-61" transform="scale(0.015625)"/>
      <path d="M 2834 3397 
L 2834 2853 
Q 2591 2978 2328 3040 
Q 2066 3103 1784 3103 
Q 1356 3103 1142 2972 
Q 928 2841 928 2578 
Q 928 2378 1081 2264 
Q 1234 2150 1697 2047 
L 1894 2003 
Q 2506 1872 2764 1633 
Q 3022 1394 3022 966 
Q 3022 478 2636 193 
Q 2250 -91 1575 -91 
Q 1294 -91 989 -36 
Q 684 19 347 128 
L 347 722 
Q 666 556 975 473 
Q 1284 391 1588 391 
Q 1994 391 2212 530 
Q 2431 669 2431 922 
Q 2431 1156 2273 1281 
Q 2116 1406 1581 1522 
L 1381 1569 
Q 847 1681 609 1914 
Q 372 2147 372 2553 
Q 372 3047 722 3315 
Q 1072 3584 1716 3584 
Q 2034 3584 2315 3537 
Q 2597 3491 2834 3397 
z
" id="DejaVuSans-73" transform="scale(0.015625)"/>
      <path d="M 2059 -325 
Q 1816 -950 1584 -1140 
Q 1353 -1331 966 -1331 
L 506 -1331 
L 506 -850 
L 844 -850 
Q 1081 -850 1212 -737 
Q 1344 -625 1503 -206 
L 1606 56 
L 191 3500 
L 800 3500 
L 1894 763 
L 2988 3500 
L 3597 3500 
L 2059 -325 
z
" id="DejaVuSans-79" transform="scale(0.015625)"/>
      <path id="DejaVuSans-20" transform="scale(0.015625)"/>
      <path d="M 213 4666 
L 850 4666 
L 1831 722 
L 2809 4666 
L 3519 4666 
L 4500 722 
L 5478 4666 
L 6119 4666 
L 4947 0 
L 4153 0 
L 3169 4050 
L 2175 0 
L 1381 0 
L 213 4666 
z
" id="DejaVuSans-57" transform="scale(0.015625)"/>
     </defs>
     <use xlink:href="#DejaVuSans-45"/>
     <use x="63.183594" xlink:href="#DejaVuSans-61"/>
     <use x="124.462891" xlink:href="#DejaVuSans-73"/>
     <use x="176.5625" xlink:href="#DejaVuSans-79"/>
     <use x="235.742188" xlink:href="#DejaVuSans-20"/>
     <use x="267.529297" xlink:href="#DejaVuSans-57"/>
     <use x="360.03125" xlink:href="#DejaVuSans-61"/>
     <use x="421.310547" xlink:href="#DejaVuSans-79"/>
    </g>
   </g>
   <g id="text_2">
    <g id="patch_3">
     <path d="M 25.704826 100.456497 
L 28.385608 108.965112 
L 30.26992 108.371428 
L 27.589138 99.862813 
z
" style="fill:#ffffff;"/>
    </g>
    <!-- Omigosh -->
    <g style="fill:#808080;" transform="translate(26.126625 100.344571)rotate(-287.487908)scale(0.02 -0.02)">
     <defs>
      <path d="M 2522 4238 
Q 1834 4238 1429 3725 
Q 1025 3213 1025 2328 
Q 1025 1447 1429 934 
Q 1834 422 2522 422 
Q 3209 422 3611 934 
Q 4013 1447 4013 2328 
Q 4013 3213 3611 3725 
Q 3209 4238 2522 4238 
z
M 2522 4750 
Q 3503 4750 4090 4092 
Q 4678 3434 4678 2328 
Q 4678 1225 4090 567 
Q 3503 -91 2522 -91 
Q 1538 -91 948 565 
Q 359 1222 359 2328 
Q 359 3434 948 4092 
Q 1538 4750 2522 4750 
z
" id="DejaVuSans-4f" transform="scale(0.015625)"/>
      <path d="M 3328 2828 
Q 3544 3216 3844 3400 
Q 4144 3584 4550 3584 
Q 5097 3584 5394 3201 
Q 5691 2819 5691 2113 
L 5691 0 
L 5113 0 
L 5113 2094 
Q 5113 2597 4934 2840 
Q 4756 3084 4391 3084 
Q 3944 3084 3684 2787 
Q 3425 2491 3425 1978 
L 3425 0 
L 2847 0 
L 2847 2094 
Q 2847 2600 2669 2842 
Q 2491 3084 2119 3084 
Q 1678 3084 1418 2786 
Q 1159 2488 1159 1978 
L 1159 0 
L 581 0 
L 581 3500 
L 1159 3500 
L 1159 2956 
Q 1356 3278 1631 3431 
Q 1906 3584 2284 3584 
Q 2666 3584 2933 3390 
Q 3200 3197 3328 2828 
z
" id="DejaVuSans-6d" transform="scale(0.015625)"/>
      <path d="M 603 3500 
L 1178 3500 
L 1178 0 
L 603 0 
L 603 3500 
z
M 603 4863 
L 1178 4863 
L 1178 4134 
L 603 4134 
L 603 4863 
z
" id="DejaVuSans-69" transform="scale(0.015625)"/>
      <path d="M 2906 1791 
Q 2906 2416 2648 2759 
Q 2391 3103 1925 3103 
Q 1463 3103 1205 2759 
Q 947 2416 947 1791 
Q 947 1169 1205 825 
Q 1463 481 1925 481 
Q 2391 481 2648 825 
Q 2906 1169 2906 1791 
z
M 3481 434 
Q 3481 -459 3084 -895 
Q 2688 -1331 1869 -1331 
Q 1566 -1331 1297 -1286 
Q 1028 -1241 775 -1147 
L 775 -588 
Q 1028 -725 1275 -790 
Q 1522 -856 1778 -856 
Q 2344 -856 2625 -561 
Q 2906 -266 2906 331 
L 2906 616 
Q 2728 306 2450 153 
Q 2172 0 1784 0 
Q 1141 0 747 490 
Q 353 981 353 1791 
Q 353 2603 747 3093 
Q 1141 3584 1784 3584 
Q 2172 3584 2450 3431 
Q 2728 3278 2906 2969 
L 2906 3500 
L 3481 3500 
L 3481 434 
z
" id="DejaVuSans-67" transform="scale(0.015625)"/>
      <path d="M 1959 3097 
Q 1497 3097 1228 2736 
Q 959 2375 959 1747 
Q 959 1119 1226 758 
Q 1494 397 1959 397 
Q 2419 397 2687 759 
Q 2956 1122 2956 1747 
Q 2956 2369 2687 2733 
Q 2419 3097 1959 3097 
z
M 1959 3584 
Q 2709 3584 3137 3096 
Q 3566 2609 3566 1747 
Q 3566 888 3137 398 
Q 2709 -91 1959 -91 
Q 1206 -91 779 398 
Q 353 888 353 1747 
Q 353 2609 779 3096 
Q 1206 3584 1959 3584 
z
" id="DejaVuSans-6f" transform="scale(0.015625)"/>
      <path d="M 3513 2113 
L 3513 0 
L 2938 0 
L 2938 2094 
Q 2938 2591 2744 2837 
Q 2550 3084 2163 3084 
Q 1697 3084 1428 2787 
Q 1159 2491 1159 1978 
L 1159 0 
L 581 0 
L 581 4863 
L 1159 4863 
L 1159 2956 
Q 1366 3272 1645 3428 
Q 1925 3584 2291 3584 
Q 2894 3584 3203 3211 
Q 3513 2838 3513 2113 
z
" id="DejaVuSans-68" transform="scale(0.015625)"/>
     </defs>
     <use xlink:href="#DejaVuSans-4f"/>
     <use x="78.710938" xlink:href="#DejaVuSans-6d"/>
     <use x="176.123047" xlink:href="#DejaVuSans-69"/>
     <use x="203.90625" xlink:href="#DejaVuSans-67"/>
     <use x="267.382812" xlink:href="#DejaVuSans-6f"/>
     <use x="328.564453" xlink:href="#DejaVuSans-73"/>
     <use x="380.664062" xlink:href="#DejaVuSans-68"/>
    </g>
   </g>
   <g id="text_3">
    <g id="patch_4">
     <path d="M 20.932618 91.681573 
L 25.393012 107.266802 
L 27.292382 106.723214 
L 22.831988 91.137985 
z
" style="fill:#ffffff;"/>
    </g>
    <!-- Rock Island Line -->
    <g style="fill:#808080;" transform="translate(21.357232 91.580854)rotate(-285.970787)scale(0.02 -0.02)">
     <defs>
      <path d="M 2841 2188 
Q 3044 2119 3236 1894 
Q 3428 1669 3622 1275 
L 4263 0 
L 3584 0 
L 2988 1197 
Q 2756 1666 2539 1819 
Q 2322 1972 1947 1972 
L 1259 1972 
L 1259 0 
L 628 0 
L 628 4666 
L 2053 4666 
Q 2853 4666 3247 4331 
Q 3641 3997 3641 3322 
Q 3641 2881 3436 2590 
Q 3231 2300 2841 2188 
z
M 1259 4147 
L 1259 2491 
L 2053 2491 
Q 2509 2491 2742 2702 
Q 2975 2913 2975 3322 
Q 2975 3731 2742 3939 
Q 2509 4147 2053 4147 
L 1259 4147 
z
" id="DejaVuSans-52" transform="scale(0.015625)"/>
      <path d="M 3122 3366 
L 3122 2828 
Q 2878 2963 2633 3030 
Q 2388 3097 2138 3097 
Q 1578 3097 1268 2742 
Q 959 2388 959 1747 
Q 959 1106 1268 751 
Q 1578 397 2138 397 
Q 2388 397 2633 464 
Q 2878 531 3122 666 
L 3122 134 
Q 2881 22 2623 -34 
Q 2366 -91 2075 -91 
Q 1284 -91 818 406 
Q 353 903 353 1747 
Q 353 2603 823 3093 
Q 1294 3584 2113 3584 
Q 2378 3584 2631 3529 
Q 2884 3475 3122 3366 
z
" id="DejaVuSans-63" transform="scale(0.015625)"/>
      <path d="M 581 4863 
L 1159 4863 
L 1159 1991 
L 2875 3500 
L 3609 3500 
L 1753 1863 
L 3688 0 
L 2938 0 
L 1159 1709 
L 1159 0 
L 581 0 
L 581 4863 
z
" id="DejaVuSans-6b" transform="scale(0.015625)"/>
      <path d="M 628 4666 
L 1259 4666 
L 1259 0 
L 628 0 
L 628 4666 
z
" id="DejaVuSans-49" transform="scale(0.015625)"/>
      <path d="M 603 4863 
L 1178 4863 
L 1178 0 
L 603 0 
L 603 4863 
z
" id="DejaVuSans-6c" transform="scale(0.015625)"/>
      <path d="M 3513 2113 
L 3513 0 
L 2938 0 
L 2938 2094 
Q 2938 2591 2744 2837 
Q 2550 3084 2163 3084 
Q 1697 3084 1428 2787 
Q 1159 2491 1159 1978 
L 1159 0 
L 581 0 
L 581 3500 
L 1159 3500 
L 1159 2956 
Q 1366 3272 1645 3428 
Q 1925 3584 2291 3584 
Q 2894 3584 3203 3211 
Q 3513 2838 3513 2113 
z
" id="DejaVuSans-6e" transform="scale(0.015625)"/>
      <path d="M 2906 2969 
L 2906 4863 
L 3481 4863 
L 3481 0 
L 2906 0 
L 2906 525 
Q 2725 213 2448 61 
Q 2172 -91 1784 -91 
Q 1150 -91 751 415 
Q 353 922 353 1747 
Q 353 2572 751 3078 
Q 1150 3584 1784 3584 
Q 2172 3584 2448 3432 
Q 2725 3281 2906 2969 
z
M 947 1747 
Q 947 1113 1208 752 
Q 1469 391 1925 391 
Q 2381 391 2643 752 
Q 2906 1113 2906 1747 
Q 2906 2381 2643 2742 
Q 2381 3103 1925 3103 
Q 1469 3103 1208 2742 
Q 947 2381 947 1747 
z
" id="DejaVuSans-64" transform="scale(0.015625)"/>
      <path d="M 628 4666 
L 1259 4666 
L 1259 531 
L 3531 531 
L 3531 0 
L 628 0 
L 628 4666 
z
" id="DejaVuSans-4c" transform="scale(0.015625)"/>
      <path d="M 3597 1894 
L 3597 1613 
L 953 1613 
Q 991 1019 1311 708 
Q 1631 397 2203 397 
Q 2534 397 2845 478 
Q 3156 559 3463 722 
L 3463 178 
Q 3153 47 2828 -22 
Q 2503 -91 2169 -91 
Q 1331 -91 842 396 
Q 353 884 353 1716 
Q 353 2575 817 3079 
Q 1281 3584 2069 3584 
Q 2775 3584 3186 3129 
Q 3597 2675 3597 1894 
z
M 3022 2063 
Q 3016 2534 2758 2815 
Q 2500 3097 2075 3097 
Q 1594 3097 1305 2825 
Q 1016 2553 972 2059 
L 3022 2063 
z
" id="DejaVuSans-65" transform="scale(0.015625)"/>
     </defs>
     <use xlink:href="#DejaVuSans-52"/>
     <use x="64.982422" xlink:href="#DejaVuSans-6f"/>
     <use x="126.164062" xlink:href="#DejaVuSans-63"/>
     <use x="181.144531" xlink:href="#DejaVuSans-6b"/>
     <use x="239.054688" xlink:href="#DejaVuSans-20"/>
     <use x="270.841797" xlink:href="#DejaVuSans-49"/>
     <use x="300.333984" xlink:href="#DejaVuSans-73"/>
     <use x="352.433594" xlink:href="#DejaVuSans-6c"/>
     <use x="380.216797" xlink:href="#DejaVuSans-61"/>
     <use x="441.496094" xlink:href="#DejaVuSans-6e"/>
     <use x="504.875" xlink:href="#DejaVuSans-64"/>
     <use x="568.351562" xlink:href="#DejaVuSans-20"/>
     <use x="600.138672" xlink:href="#DejaVuSans-4c"/>
     <use x="655.851562" xlink:href="#DejaVuSans-69"/>
     <use x="683.634766" xlink:href="#DejaVuSans-6e"/>
     <use x="747.013672" xlink:href="#DejaVuSans-65"/>
    </g>
   </g>
   <g id="text_4">
    <g id="patch_5">
     <path d="M 11.871516 42.981102 
L 17.205711 57.069458 
L 19.053335 56.369902 
L 13.719141 42.281547 
z
" style="fill:#ffffff;"/>
    </g>
    <!-- Alley Cat 22.0° -->
    <g style="fill:#4169e1;" transform="translate(12.286291 42.845444)rotate(-290.737885)scale(0.02 -0.02)">
     <defs>
      <path d="M 2188 4044 
L 1331 1722 
L 3047 1722 
L 2188 4044 
z
M 1831 4666 
L 2547 4666 
L 4325 0 
L 3669 0 
L 3244 1197 
L 1141 1197 
L 716 0 
L 50 0 
L 1831 4666 
z
" id="DejaVuSans-41" transform="scale(0.015625)"/>
      <path d="M 4122 4306 
L 4122 3641 
Q 3803 3938 3442 4084 
Q 3081 4231 2675 4231 
Q 1875 4231 1450 3742 
Q 1025 3253 1025 2328 
Q 1025 1406 1450 917 
Q 1875 428 2675 428 
Q 3081 428 3442 575 
Q 3803 722 4122 1019 
L 4122 359 
Q 3791 134 3420 21 
Q 3050 -91 2638 -91 
Q 1578 -91 968 557 
Q 359 1206 359 2328 
Q 359 3453 968 4101 
Q 1578 4750 2638 4750 
Q 3056 4750 3426 4639 
Q 3797 4528 4122 4306 
z
" id="DejaVuSans-43" transform="scale(0.015625)"/>
      <path d="M 1172 4494 
L 1172 3500 
L 2356 3500 
L 2356 3053 
L 1172 3053 
L 1172 1153 
Q 1172 725 1289 603 
Q 1406 481 1766 481 
L 2356 481 
L 2356 0 
L 1766 0 
Q 1100 0 847 248 
Q 594 497 594 1153 
L 594 3053 
L 172 3053 
L 172 3500 
L 594 3500 
L 594 4494 
L 1172 4494 
z
" id="DejaVuSans-74" transform="scale(0.015625)"/>
      <path d="M 1228 531 
L 3431 531 
L 3431 0 
L 469 0 
L 469 531 
Q 828 903 1448 1529 
Q 2069 2156 2228 2338 
Q 2531 2678 2651 2914 
Q 2772 3150 2772 3378 
Q 2772 3750 2511 3984 
Q 2250 4219 1831 4219 
Q 1534 4219 1204 4116 
Q 875 4013 500 3803 
L 500 4441 
Q 881 4594 1212 4672 
Q 1544 4750 1819 4750 
Q 2544 4750 2975 4387 
Q 3406 4025 3406 3419 
Q 3406 3131 3298 2873 
Q 3191 2616 2906 2266 
Q 2828 2175 2409 1742 
Q 1991 1309 1228 531 
z
" id="DejaVuSans-32" transform="scale(0.015625)"/>
      <path d="M 684 794 
L 1344 794 
L 1344 0 
L 684 0 
L 684 794 
z
" id="DejaVuSans-2e" transform="scale(0.015625)"/>
      <path d="M 2034 4250 
Q 1547 4250 1301 3770 
Q 1056 3291 1056 2328 
Q 1056 1369 1301 889 
Q 1547 409 2034 409 
Q 2525 409 2770 889 
Q 3016 1369 3016 2328 
Q 3016 3291 2770 3770 
Q 2525 4250 2034 4250 
z
M 2034 4750 
Q 2819 4750 3233 4129 
Q 3647 3509 3647 2328 
Q 3647 1150 3233 529 
Q 2819 -91 2034 -91 
Q 1250 -91 836 529 
Q 422 1150 422 2328 
Q 422 3509 836 4129 
Q 1250 4750 2034 4750 
z
" id="DejaVuSans-30" transform="scale(0.015625)"/>
      <path d="M 1600 4347 
Q 1350 4347 1178 4173 
Q 1006 4000 1006 3750 
Q 1006 3503 1178 3333 
Q 1350 3163 1600 3163 
Q 1850 3163 2022 3333 
Q 2194 3503 2194 3750 
Q 2194 3997 2020 4172 
Q 1847 4347 1600 4347 
z
M 1600 4750 
Q 1800 4750 1984 4673 
Q 2169 4597 2303 4453 
Q 2447 4313 2519 4134 
Q 2591 3956 2591 3750 
Q 2591 3338 2302 3052 
Q 2013 2766 1594 2766 
Q 1172 2766 890 3047 
Q 609 3328 609 3750 
Q 609 4169 896 4459 
Q 1184 4750 1600 4750 
z
" id="DejaVuSans-b0" transform="scale(0.015625)"/>
     </defs>
     <use xlink:href="#DejaVuSans-41"/>
     <use x="68.408203" xlink:href="#DejaVuSans-6c"/>
     <use x="96.191406" xlink:href="#DejaVuSans-6c"/>
     <use x="123.974609" xlink:href="#DejaVuSans-65"/>
     <use x="185.498047" xlink:href="#DejaVuSans-79"/>
     <use x="244.677734" xlink:href="#DejaVuSans-20"/>
     <use x="276.464844" xlink:href="#DejaVuSans-43"/>
     <use x="346.289062" xlink:href="#DejaVuSans-61"/>
     <use x="407.568359" xlink:href="#DejaVuSans-74"/>
     <use x="446.777344" xlink:href="#DejaVuSans-20"/>
     <use x="478.564453" xlink:href="#DejaVuSans-32"/>
     <use x="542.1875" xlink:href="#DejaVuSans-32"/>
     <use x="605.810547" xlink:href="#DejaVuSans-2e"/>
     <use x="637.597656" xlink:href="#DejaVuSans-30"/>
     <use x="701.220703" xlink:href="#DejaVuSans-b0"/>
    </g>
   </g>
   <g id="text_5">
    <g id="patch_6">
     <path d="M 24.387127 75.447769 
L 31.892364 95.74126 
L 33.745327 95.05597 
L 26.24009 74.762479 
z
" style="fill:#ffffff;"/>
    </g>
    <!-- Lower Omigosh 12.7° -->
    <g style="fill:#008000;" transform="translate(24.802935 75.315312)rotate(-290.296143)scale(0.02 -0.02)">
     <defs>
      <path d="M 269 3500 
L 844 3500 
L 1563 769 
L 2278 3500 
L 2956 3500 
L 3675 769 
L 4391 3500 
L 4966 3500 
L 4050 0 
L 3372 0 
L 2619 2869 
L 1863 0 
L 1184 0 
L 269 3500 
z
" id="DejaVuSans-77" transform="scale(0.015625)"/>
      <path d="M 2631 2963 
Q 2534 3019 2420 3045 
Q 2306 3072 2169 3072 
Q 1681 3072 1420 2755 
Q 1159 2438 1159 1844 
L 1159 0 
L 581 0 
L 581 3500 
L 1159 3500 
L 1159 2956 
Q 1341 3275 1631 3429 
Q 1922 3584 2338 3584 
Q 2397 3584 2469 3576 
Q 2541 3569 2628 3553 
L 2631 2963 
z
" id="DejaVuSans-72" transform="scale(0.015625)"/>
      <path d="M 794 531 
L 1825 531 
L 1825 4091 
L 703 3866 
L 703 4441 
L 1819 4666 
L 2450 4666 
L 2450 531 
L 3481 531 
L 3481 0 
L 794 0 
L 794 531 
z
" id="DejaVuSans-31" transform="scale(0.015625)"/>
      <path d="M 525 4666 
L 3525 4666 
L 3525 4397 
L 1831 0 
L 1172 0 
L 2766 4134 
L 525 4134 
L 525 4666 
z
" id="DejaVuSans-37" transform="scale(0.015625)"/>
     </defs>
     <use xlink:href="#DejaVuSans-4c"/>
     <use x="53.962891" xlink:href="#DejaVuSans-6f"/>
     <use x="115.144531" xlink:href="#DejaVuSans-77"/>
     <use x="196.931641" xlink:href="#DejaVuSans-65"/>
     <use x="258.455078" xlink:href="#DejaVuSans-72"/>
     <use x="299.568359" xlink:href="#DejaVuSans-20"/>
     <use x="331.355469" xlink:href="#DejaVuSans-4f"/>
     <use x="410.066406" xlink:href="#DejaVuSans-6d"/>
     <use x="507.478516" xlink:href="#DejaVuSans-69"/>
     <use x="535.261719" xlink:href="#DejaVuSans-67"/>
     <use x="598.738281" xlink:href="#DejaVuSans-6f"/>
     <use x="659.919922" xlink:href="#DejaVuSans-73"/>
     <use x="712.019531" xlink:href="#DejaVuSans-68"/>
     <use x="775.398438" xlink:href="#DejaVuSans-20"/>
     <use x="807.185547" xlink:href="#DejaVuSans-31"/>
     <use x="870.808594" xlink:href="#DejaVuSans-32"/>
     <use x="934.431641" xlink:href="#DejaVuSans-2e"/>
     <use x="966.21875" xlink:href="#DejaVuSans-37"/>
     <use x="1029.841797" xlink:href="#DejaVuSans-b0"/>
    </g>
   </g>
   <g id="text_6">
    <g id="patch_7">
     <path d="M 17.509833 53.871353 
L 28.158941 34.580839 
L 26.429358 33.626043 
L 15.78025 52.916557 
z
" style="fill:#ffffff;"/>
    </g>
    <!-- Lower Snowbird 13.7° -->
    <g style="fill:#008000;" transform="translate(17.137852 53.643161)rotate(-61.099606)scale(0.02 -0.02)">
     <defs>
      <path d="M 3425 4513 
L 3425 3897 
Q 3066 4069 2747 4153 
Q 2428 4238 2131 4238 
Q 1616 4238 1336 4038 
Q 1056 3838 1056 3469 
Q 1056 3159 1242 3001 
Q 1428 2844 1947 2747 
L 2328 2669 
Q 3034 2534 3370 2195 
Q 3706 1856 3706 1288 
Q 3706 609 3251 259 
Q 2797 -91 1919 -91 
Q 1588 -91 1214 -16 
Q 841 59 441 206 
L 441 856 
Q 825 641 1194 531 
Q 1563 422 1919 422 
Q 2459 422 2753 634 
Q 3047 847 3047 1241 
Q 3047 1584 2836 1778 
Q 2625 1972 2144 2069 
L 1759 2144 
Q 1053 2284 737 2584 
Q 422 2884 422 3419 
Q 422 4038 858 4394 
Q 1294 4750 2059 4750 
Q 2388 4750 2728 4690 
Q 3069 4631 3425 4513 
z
" id="DejaVuSans-53" transform="scale(0.015625)"/>
      <path d="M 3116 1747 
Q 3116 2381 2855 2742 
Q 2594 3103 2138 3103 
Q 1681 3103 1420 2742 
Q 1159 2381 1159 1747 
Q 1159 1113 1420 752 
Q 1681 391 2138 391 
Q 2594 391 2855 752 
Q 3116 1113 3116 1747 
z
M 1159 2969 
Q 1341 3281 1617 3432 
Q 1894 3584 2278 3584 
Q 2916 3584 3314 3078 
Q 3713 2572 3713 1747 
Q 3713 922 3314 415 
Q 2916 -91 2278 -91 
Q 1894 -91 1617 61 
Q 1341 213 1159 525 
L 1159 0 
L 581 0 
L 581 4863 
L 1159 4863 
L 1159 2969 
z
" id="DejaVuSans-62" transform="scale(0.015625)"/>
      <path d="M 2597 2516 
Q 3050 2419 3304 2112 
Q 3559 1806 3559 1356 
Q 3559 666 3084 287 
Q 2609 -91 1734 -91 
Q 1441 -91 1130 -33 
Q 819 25 488 141 
L 488 750 
Q 750 597 1062 519 
Q 1375 441 1716 441 
Q 2309 441 2620 675 
Q 2931 909 2931 1356 
Q 2931 1769 2642 2001 
Q 2353 2234 1838 2234 
L 1294 2234 
L 1294 2753 
L 1863 2753 
Q 2328 2753 2575 2939 
Q 2822 3125 2822 3475 
Q 2822 3834 2567 4026 
Q 2313 4219 1838 4219 
Q 1578 4219 1281 4162 
Q 984 4106 628 3988 
L 628 4550 
Q 988 4650 1302 4700 
Q 1616 4750 1894 4750 
Q 2613 4750 3031 4423 
Q 3450 4097 3450 3541 
Q 3450 3153 3228 2886 
Q 3006 2619 2597 2516 
z
" id="DejaVuSans-33" transform="scale(0.015625)"/>
     </defs>
     <use xlink:href="#DejaVuSans-4c"/>
     <use x="53.962891" xlink:href="#DejaVuSans-6f"/>
     <use x="115.144531" xlink:href="#DejaVuSans-77"/>
     <use x="196.931641" xlink:href="#DejaVuSans-65"/>
     <use x="258.455078" xlink:href="#DejaVuSans-72"/>
     <use x="299.568359" xlink:href="#DejaVuSans-20"/>
     <use x="331.355469" xlink:href="#DejaVuSans-53"/>
     <use x="394.832031" xlink:href="#DejaVuSans-6e"/>
     <use x="458.210938" xlink:href="#DejaVuSans-6f"/>
     <use x="519.392578" xlink:href="#DejaVuSans-77"/>
     <use x="601.179688" xlink:href="#DejaVuSans-62"/>
     <use x="664.65625" xlink:href="#DejaVuSans-69"/>
     <use x="692.439453" xlink:href="#DejaVuSans-72"/>
     <use x="731.802734" xlink:href="#DejaVuSans-64"/>
     <use x="795.279297" xlink:href="#DejaVuSans-20"/>
     <use x="827.066406" xlink:href="#DejaVuSans-31"/>
     <use x="890.689453" xlink:href="#DejaVuSans-33"/>
     <use x="954.3125" xlink:href="#DejaVuSans-2e"/>
     <use x="986.099609" xlink:href="#DejaVuSans-37"/>
     <use x="1049.722656" xlink:href="#DejaVuSans-b0"/>
    </g>
   </g>
   <g id="text_7">
    <g id="patch_8">
     <path d="M 46.056398 107.194889 
L 52.97012 92.444475 
L 51.181248 91.606006 
L 44.267525 106.35642 
z
" style="fill:#ffffff;"/>
    </g>
    <!-- Over Easy 17.1° -->
    <g style="fill:#4169e1;" transform="translate(45.670157 106.991765)rotate(-64.886866)scale(0.02 -0.02)">
     <defs>
      <path d="M 191 3500 
L 800 3500 
L 1894 563 
L 2988 3500 
L 3597 3500 
L 2284 0 
L 1503 0 
L 191 3500 
z
" id="DejaVuSans-76" transform="scale(0.015625)"/>
     </defs>
     <use xlink:href="#DejaVuSans-4f"/>
     <use x="78.710938" xlink:href="#DejaVuSans-76"/>
     <use x="137.890625" xlink:href="#DejaVuSans-65"/>
     <use x="199.414062" xlink:href="#DejaVuSans-72"/>
     <use x="240.527344" xlink:href="#DejaVuSans-20"/>
     <use x="272.314453" xlink:href="#DejaVuSans-45"/>
     <use x="335.498047" xlink:href="#DejaVuSans-61"/>
     <use x="396.777344" xlink:href="#DejaVuSans-73"/>
     <use x="448.876953" xlink:href="#DejaVuSans-79"/>
     <use x="508.056641" xlink:href="#DejaVuSans-20"/>
     <use x="539.84375" xlink:href="#DejaVuSans-31"/>
     <use x="603.466797" xlink:href="#DejaVuSans-37"/>
     <use x="667.089844" xlink:href="#DejaVuSans-2e"/>
     <use x="698.876953" xlink:href="#DejaVuSans-31"/>
     <use x="762.5" xlink:href="#DejaVuSans-b0"/>
    </g>
   </g>
   <g id="text_8">
    <g id="patch_9">
     <path d="M 3.643927 45.212621 
L 8.846522 66.553876 
L 10.765935 66.085959 
L 5.563341 44.744705 
z
" style="fill:#ffffff;"/>
    </g>
    <!-- Rock Island Run 16.3° -->
    <g style="fill:#008000;" transform="translate(4.072198 45.128803)rotate(-283.700399)scale(0.02 -0.02)">
     <defs>
      <path d="M 544 1381 
L 544 3500 
L 1119 3500 
L 1119 1403 
Q 1119 906 1312 657 
Q 1506 409 1894 409 
Q 2359 409 2629 706 
Q 2900 1003 2900 1516 
L 2900 3500 
L 3475 3500 
L 3475 0 
L 2900 0 
L 2900 538 
Q 2691 219 2414 64 
Q 2138 -91 1772 -91 
Q 1169 -91 856 284 
Q 544 659 544 1381 
z
M 1991 3584 
L 1991 3584 
z
" id="DejaVuSans-75" transform="scale(0.015625)"/>
      <path d="M 2113 2584 
Q 1688 2584 1439 2293 
Q 1191 2003 1191 1497 
Q 1191 994 1439 701 
Q 1688 409 2113 409 
Q 2538 409 2786 701 
Q 3034 994 3034 1497 
Q 3034 2003 2786 2293 
Q 2538 2584 2113 2584 
z
M 3366 4563 
L 3366 3988 
Q 3128 4100 2886 4159 
Q 2644 4219 2406 4219 
Q 1781 4219 1451 3797 
Q 1122 3375 1075 2522 
Q 1259 2794 1537 2939 
Q 1816 3084 2150 3084 
Q 2853 3084 3261 2657 
Q 3669 2231 3669 1497 
Q 3669 778 3244 343 
Q 2819 -91 2113 -91 
Q 1303 -91 875 529 
Q 447 1150 447 2328 
Q 447 3434 972 4092 
Q 1497 4750 2381 4750 
Q 2619 4750 2861 4703 
Q 3103 4656 3366 4563 
z
" id="DejaVuSans-36" transform="scale(0.015625)"/>
     </defs>
     <use xlink:href="#DejaVuSans-52"/>
     <use x="64.982422" xlink:href="#DejaVuSans-6f"/>
     <use x="126.164062" xlink:href="#DejaVuSans-63"/>
     <use x="181.144531" xlink:href="#DejaVuSans-6b"/>
     <use x="239.054688" xlink:href="#DejaVuSans-20"/>
     <use x="270.841797" xlink:href="#DejaVuSans-49"/>
     <use x="300.333984" xlink:href="#DejaVuSans-73"/>
     <use x="352.433594" xlink:href="#DejaVuSans-6c"/>
     <use x="380.216797" xlink:href="#DejaVuSans-61"/>
     <use x="441.496094" xlink:href="#DejaVuSans-6e"/>
     <use x="504.875" xlink:href="#DejaVuSans-64"/>
     <use x="568.351562" xlink:href="#DejaVuSans-20"/>
     <use x="600.138672" xlink:href="#DejaVuSans-52"/>
     <use x="665.121094" xlink:href="#DejaVuSans-75"/>
     <use x="728.5" xlink:href="#DejaVuSans-6e"/>
     <use x="791.878906" xlink:href="#DejaVuSans-20"/>
     <use x="823.666016" xlink:href="#DejaVuSans-31"/>
     <use x="887.289062" xlink:href="#DejaVuSans-36"/>
     <use x="950.912109" xlink:href="#DejaVuSans-2e"/>
     <use x="982.699219" xlink:href="#DejaVuSans-33"/>
     <use x="1046.322266" xlink:href="#DejaVuSans-b0"/>
    </g>
   </g>
   <g id="text_9">
    <g id="patch_10">
     <path d="M 4.494632 42.273381 
L 6.857877 20.701193 
L 4.894001 20.486049 
L 2.530756 42.058237 
z
" style="fill:#ffffff;"/>
    </g>
    <!-- Upper Omigosh 22.5° -->
    <g style="fill:#4169e1;" transform="translate(4.063465 42.206027)rotate(-83.748146)scale(0.02 -0.02)">
     <defs>
      <path d="M 556 4666 
L 1191 4666 
L 1191 1831 
Q 1191 1081 1462 751 
Q 1734 422 2344 422 
Q 2950 422 3222 751 
Q 3494 1081 3494 1831 
L 3494 4666 
L 4128 4666 
L 4128 1753 
Q 4128 841 3676 375 
Q 3225 -91 2344 -91 
Q 1459 -91 1007 375 
Q 556 841 556 1753 
L 556 4666 
z
" id="DejaVuSans-55" transform="scale(0.015625)"/>
      <path d="M 1159 525 
L 1159 -1331 
L 581 -1331 
L 581 3500 
L 1159 3500 
L 1159 2969 
Q 1341 3281 1617 3432 
Q 1894 3584 2278 3584 
Q 2916 3584 3314 3078 
Q 3713 2572 3713 1747 
Q 3713 922 3314 415 
Q 2916 -91 2278 -91 
Q 1894 -91 1617 61 
Q 1341 213 1159 525 
z
M 3116 1747 
Q 3116 2381 2855 2742 
Q 2594 3103 2138 3103 
Q 1681 3103 1420 2742 
Q 1159 2381 1159 1747 
Q 1159 1113 1420 752 
Q 1681 391 2138 391 
Q 2594 391 2855 752 
Q 3116 1113 3116 1747 
z
" id="DejaVuSans-70" transform="scale(0.015625)"/>
      <path d="M 691 4666 
L 3169 4666 
L 3169 4134 
L 1269 4134 
L 1269 2991 
Q 1406 3038 1543 3061 
Q 1681 3084 1819 3084 
Q 2600 3084 3056 2656 
Q 3513 2228 3513 1497 
Q 3513 744 3044 326 
Q 2575 -91 1722 -91 
Q 1428 -91 1123 -41 
Q 819 9 494 109 
L 494 744 
Q 775 591 1075 516 
Q 1375 441 1709 441 
Q 2250 441 2565 725 
Q 2881 1009 2881 1497 
Q 2881 1984 2565 2268 
Q 2250 2553 1709 2553 
Q 1456 2553 1204 2497 
Q 953 2441 691 2322 
L 691 4666 
z
" id="DejaVuSans-35" transform="scale(0.015625)"/>
     </defs>
     <use xlink:href="#DejaVuSans-55"/>
     <use x="73.193359" xlink:href="#DejaVuSans-70"/>
     <use x="136.669922" xlink:href="#DejaVuSans-70"/>
     <use x="200.146484" xlink:href="#DejaVuSans-65"/>
     <use x="261.669922" xlink:href="#DejaVuSans-72"/>
     <use x="302.783203" xlink:href="#DejaVuSans-20"/>
     <use x="334.570312" xlink:href="#DejaVuSans-4f"/>
     <use x="413.28125" xlink:href="#DejaVuSans-6d"/>
     <use x="510.693359" xlink:href="#DejaVuSans-69"/>
     <use x="538.476562" xlink:href="#DejaVuSans-67"/>
     <use x="601.953125" xlink:href="#DejaVuSans-6f"/>
     <use x="663.134766" xlink:href="#DejaVuSans-73"/>
     <use x="715.234375" xlink:href="#DejaVuSans-68"/>
     <use x="778.613281" xlink:href="#DejaVuSans-20"/>
     <use x="810.400391" xlink:href="#DejaVuSans-32"/>
     <use x="874.023438" xlink:href="#DejaVuSans-32"/>
     <use x="937.646484" xlink:href="#DejaVuSans-2e"/>
     <use x="969.433594" xlink:href="#DejaVuSans-35"/>
     <use x="1033.056641" xlink:href="#DejaVuSans-b0"/>
    </g>
   </g>
   <g id="text_10">
    <g id="patch_11">
     <path d="M 13.007901 37.100568 
L 24.102619 17.988378 
L 22.394016 16.996526 
L 11.299298 36.108716 
z
" style="fill:#ffffff;"/>
    </g>
    <!-- Upper Snowbird 17.0° -->
    <g style="fill:#008000;" transform="translate(12.640925 36.864411)rotate(-59.86463)scale(0.02 -0.02)">
     <use xlink:href="#DejaVuSans-55"/>
     <use x="73.193359" xlink:href="#DejaVuSans-70"/>
     <use x="136.669922" xlink:href="#DejaVuSans-70"/>
     <use x="200.146484" xlink:href="#DejaVuSans-65"/>
     <use x="261.669922" xlink:href="#DejaVuSans-72"/>
     <use x="302.783203" xlink:href="#DejaVuSans-20"/>
     <use x="334.570312" xlink:href="#DejaVuSans-53"/>
     <use x="398.046875" xlink:href="#DejaVuSans-6e"/>
     <use x="461.425781" xlink:href="#DejaVuSans-6f"/>
     <use x="522.607422" xlink:href="#DejaVuSans-77"/>
     <use x="604.394531" xlink:href="#DejaVuSans-62"/>
     <use x="667.871094" xlink:href="#DejaVuSans-69"/>
     <use x="695.654297" xlink:href="#DejaVuSans-72"/>
     <use x="735.017578" xlink:href="#DejaVuSans-64"/>
     <use x="798.494141" xlink:href="#DejaVuSans-20"/>
     <use x="830.28125" xlink:href="#DejaVuSans-31"/>
     <use x="893.904297" xlink:href="#DejaVuSans-37"/>
     <use x="957.527344" xlink:href="#DejaVuSans-2e"/>
     <use x="989.314453" xlink:href="#DejaVuSans-30"/>
     <use x="1052.9375" xlink:href="#DejaVuSans-b0"/>
    </g>
   </g>
   <g id="text_11">
    <!-- Cataloochee -->
    <g transform="translate(12.662098 5.109684)scale(0.05 -0.05)">
     <use xlink:href="#DejaVuSans-43"/>
     <use x="69.824219" xlink:href="#DejaVuSans-61"/>
     <use x="131.103516" xlink:href="#DejaVuSans-74"/>
     <use x="170.3125" xlink:href="#DejaVuSans-61"/>
     <use x="231.591797" xlink:href="#DejaVuSans-6c"/>
     <use x="259.375" xlink:href="#DejaVuSans-6f"/>
     <use x="320.556641" xlink:href="#DejaVuSans-6f"/>
     <use x="381.738281" xlink:href="#DejaVuSans-63"/>
     <use x="436.71875" xlink:href="#DejaVuSans-68"/>
     <use x="500.097656" xlink:href="#DejaVuSans-65"/>
     <use x="561.621094" xlink:href="#DejaVuSans-65"/>
    </g>
   </g>
  </g>
  <g id="text_12">
   <!-- Sources: USGS and OpenStreetMaps -->
   <g transform="translate(8.411062 133.284411)scale(0.021739 -0.021739)">
    <defs>
     <path d="M 750 794 
L 1409 794 
L 1409 0 
L 750 0 
L 750 794 
z
M 750 3309 
L 1409 3309 
L 1409 2516 
L 750 2516 
L 750 3309 
z
" id="DejaVuSans-3a" transform="scale(0.015625)"/>
     <path d="M 3809 666 
L 3809 1919 
L 2778 1919 
L 2778 2438 
L 4434 2438 
L 4434 434 
Q 4069 175 3628 42 
Q 3188 -91 2688 -91 
Q 1594 -91 976 548 
Q 359 1188 359 2328 
Q 359 3472 976 4111 
Q 1594 4750 2688 4750 
Q 3144 4750 3555 4637 
Q 3966 4525 4313 4306 
L 4313 3634 
Q 3963 3931 3569 4081 
Q 3175 4231 2741 4231 
Q 1884 4231 1454 3753 
Q 1025 3275 1025 2328 
Q 1025 1384 1454 906 
Q 1884 428 2741 428 
Q 3075 428 3337 486 
Q 3600 544 3809 666 
z
" id="DejaVuSans-47" transform="scale(0.015625)"/>
     <path d="M 628 4666 
L 1569 4666 
L 2759 1491 
L 3956 4666 
L 4897 4666 
L 4897 0 
L 4281 0 
L 4281 4097 
L 3078 897 
L 2444 897 
L 1241 4097 
L 1241 0 
L 628 0 
L 628 4666 
z
" id="DejaVuSans-4d" transform="scale(0.015625)"/>
    </defs>
    <use xlink:href="#DejaVuSans-53"/>
    <use x="63.476562" xlink:href="#DejaVuSans-6f"/>
    <use x="124.658203" xlink:href="#DejaVuSans-75"/>
    <use x="188.037109" xlink:href="#DejaVuSans-72"/>
    <use x="226.900391" xlink:href="#DejaVuSans-63"/>
    <use x="281.880859" xlink:href="#DejaVuSans-65"/>
    <use x="343.404297" xlink:href="#DejaVuSans-73"/>
    <use x="395.503906" xlink:href="#DejaVuSans-3a"/>
    <use x="429.195312" xlink:href="#DejaVuSans-20"/>
    <use x="460.982422" xlink:href="#DejaVuSans-55"/>
    <use x="534.175781" xlink:href="#DejaVuSans-53"/>
    <use x="597.652344" xlink:href="#DejaVuSans-47"/>
    <use x="675.142578" xlink:href="#DejaVuSans-53"/>
    <use x="738.619141" xlink:href="#DejaVuSans-20"/>
    <use x="770.40625" xlink:href="#DejaVuSans-61"/>
    <use x="831.685547" xlink:href="#DejaVuSans-6e"/>
    <use x="895.064453" xlink:href="#DejaVuSans-64"/>
    <use x="958.541016" xlink:href="#DejaVuSans-20"/>
    <use x="990.328125" xlink:href="#DejaVuSans-4f"/>
    <use x="1069.039062" xlink:href="#DejaVuSans-70"/>
    <use x="1132.515625" xlink:href="#DejaVuSans-65"/>
    <use x="1194.039062" xlink:href="#DejaVuSans-6e"/>
    <use x="1257.417969" xlink:href="#DejaVuSans-53"/>
    <use x="1320.894531" xlink:href="#DejaVuSans-74"/>
    <use x="1360.103516" xlink:href="#DejaVuSans-72"/>
    <use x="1398.966797" xlink:href="#DejaVuSans-65"/>
    <use x="1460.490234" xlink:href="#DejaVuSans-65"/>
    <use x="1522.013672" xlink:href="#DejaVuSans-74"/>
    <use x="1561.222656" xlink:href="#DejaVuSans-4d"/>
    <use x="1647.501953" xlink:href="#DejaVuSans-61"/>
    <use x="1708.78125" xlink:href="#DejaVuSans-70"/>
    <use x="1772.257812" xlink:href="#DejaVuSans-73"/>
   </g>
  </g>
 </g>
 <defs>
  <clipPath id="p5efb687b2e">
   <rect height="118.517149" width="56.48279" x="0" y="7.609684"/>
  </clipPath>
 </defs>
</svg>
