<?xml version="1.0" encoding="utf-8" standalone="no"?>
<!DOCTYPE svg PUBLIC "-//W3C//DTD SVG 1.1//EN"
  "http://www.w3.org/Graphics/SVG/1.1/DTD/svg11.dtd">
<svg height="115.541927pt" version="1.1" viewBox="0 0 95.865993 115.541927" width="95.865993pt" xmlns="http://www.w3.org/2000/svg" xmlns:xlink="http://www.w3.org/1999/xlink">
 <metadata>
  <rdf:RDF xmlns:cc="http://creativecommons.org/ns#" xmlns:dc="http://purl.org/dc/elements/1.1/" xmlns:rdf="http://www.w3.org/1999/02/22-rdf-syntax-ns#">
   <cc:Work>
    <dc:type rdf:resource="http://purl.org/dc/dcmitype/StillImage"/>
    <dc:date>2022-04-14T21:28:34.153059</dc:date>
    <dc:format>image/svg+xml</dc:format>
    <dc:creator>
     <cc:Agent>
      <dc:title>Matplotlib v3.4.3, https://matplotlib.org/</dc:title>
     </cc:Agent>
    </dc:creator>
   </cc:Work>
  </rdf:RDF>
 </metadata>
 <defs>
  <style type="text/css">*{stroke-linecap:butt;stroke-linejoin:round;}</style>
 </defs>
 <g id="figure_1">
  <g id="patch_1">
   <path d="M 0 115.541927 
L 95.865993 115.541927 
L 95.865993 0 
L 0 0 
z
" style="fill:#ffffff;"/>
  </g>
  <g id="axes_1">
   <g id="patch_2">
    <path clip-path="url(#p7d868e3f4b)" d="M 41.482307 52.106296 
L 41.482307 52.106296 
L 42.539378 51.393173 
L 43.596449 50.680049 
L 44.65352 49.966926 
L 45.710591 49.253802 
L 46.767662 48.540678 
L 47.824733 47.827555 
L 48.881804 47.114431 
L 49.938875 46.401308 
L 50.995946 45.688184 
L 52.053017 44.975061 
L 53.110088 44.261937 
L 54.167159 43.548813 
L 55.22423 42.83569 
L 56.281301 42.122566 
L 57.338372 41.409443 
L 58.395443 40.696319 
L 57.404695 39.756452 
L 56.413947 38.816586 
L 55.423198 37.876719 
L 54.43245 36.936852 
L 53.441702 35.996985 
L 52.450954 35.057119 
L 51.460206 34.117252 
L 50.469458 33.177385 
L 48.894086 32.662488 
L 47.318715 32.14759 
L 45.743343 31.632693 
L 44.167972 31.117796 
L 42.476513 31.068985 
L 40.785053 31.020175 
z
" style="fill:#008000;opacity:0.1;"/>
   </g>
   <g id="patch_3">
    <path clip-path="url(#p7d868e3f4b)" d="M 41.482307 52.106296 
L 41.482307 52.106296 
L 42.539378 51.393173 
L 43.596449 50.680049 
L 44.65352 49.966926 
L 45.710591 49.253802 
L 46.767662 48.540678 
L 47.824733 47.827555 
L 48.881804 47.114431 
L 49.938875 46.401308 
L 50.995946 45.688184 
L 52.053017 44.975061 
L 53.110088 44.261937 
L 54.167159 43.548813 
L 55.22423 42.83569 
L 56.281301 42.122566 
L 57.338372 41.409443 
L 58.395443 40.696319 
L 57.404695 39.756452 
L 56.413947 38.816586 
L 55.423198 37.876719 
L 54.43245 36.936852 
L 53.441702 35.996985 
L 52.450954 35.057119 
L 51.460206 34.117252 
L 50.469458 33.177385 
L 48.894086 32.662488 
L 47.318715 32.14759 
L 45.743343 31.632693 
L 44.167972 31.117796 
L 42.476513 31.068985 
L 40.785053 31.020175 
z
" style="fill:none;stroke:#008000;stroke-linejoin:miter;"/>
   </g>
   <g id="patch_4">
    <path clip-path="url(#p7d868e3f4b)" d="M 58.443479 36.319294 
L 58.443479 36.319294 
L 59.50055 35.60617 
L 60.557621 34.893046 
L 61.614692 34.179923 
L 62.671763 33.466799 
L 63.728834 32.753676 
L 64.785905 32.040552 
L 65.842976 31.327429 
L 66.900047 30.614305 
L 67.957118 29.901181 
L 69.014189 29.188058 
L 70.07126 28.474934 
L 71.128331 27.761811 
L 72.185402 27.048687 
L 73.242473 26.335563 
L 74.299544 25.62244 
L 75.356615 24.909316 
L 76.366104 24.396674 
L 77.375594 23.884031 
L 78.385084 23.371389 
L 79.394573 22.858746 
L 80.404063 22.346104 
L 81.413552 21.833461 
L 82.423042 21.320819 
L 83.432531 20.808176 
L 84.442021 20.295533 
L 85.451511 19.782891 
L 86.461 19.270248 
L 87.47049 18.757606 
L 88.479979 18.244963 
L 89.489469 17.732321 
L 90.498959 17.219678 
L 91.508448 16.707036 
L 90.553545 15.224152 
L 89.598642 13.741269 
L 88.277463 14.124856 
L 86.956283 14.508442 
L 85.635104 14.892029 
L 84.313924 15.275616 
L 82.992745 15.659202 
L 81.671565 16.042789 
L 80.350386 16.426375 
L 79.029206 16.809962 
L 77.400704 16.897503 
L 75.772201 16.985043 
L 74.143699 17.072584 
L 72.515196 17.160124 
L 70.887058 17.73126 
L 69.258919 18.302395 
L 67.630781 18.873531 
L 66.002642 19.444666 
L 65.147542 20.018256 
L 64.292441 20.591845 
L 63.437341 21.165434 
L 62.582241 21.739023 
L 61.727141 22.312613 
L 60.87204 22.886202 
L 60.01694 23.459791 
L 59.16184 24.033381 
L 58.30674 24.60697 
L 57.451639 25.180559 
L 56.596539 25.754149 
L 55.741439 26.327738 
L 54.886338 26.901327 
L 54.031238 27.474917 
L 53.176138 28.048506 
L 52.321038 28.622095 
z
" style="fill:#4169e1;opacity:0.1;"/>
   </g>
   <g id="patch_5">
    <path clip-path="url(#p7d868e3f4b)" d="M 58.443479 36.319294 
L 58.443479 36.319294 
L 59.50055 35.60617 
L 60.557621 34.893046 
L 61.614692 34.179923 
L 62.671763 33.466799 
L 63.728834 32.753676 
L 64.785905 32.040552 
L 65.842976 31.327429 
L 66.900047 30.614305 
L 67.957118 29.901181 
L 69.014189 29.188058 
L 70.07126 28.474934 
L 71.128331 27.761811 
L 72.185402 27.048687 
L 73.242473 26.335563 
L 74.299544 25.62244 
L 75.356615 24.909316 
L 76.366104 24.396674 
L 77.375594 23.884031 
L 78.385084 23.371389 
L 79.394573 22.858746 
L 80.404063 22.346104 
L 81.413552 21.833461 
L 82.423042 21.320819 
L 83.432531 20.808176 
L 84.442021 20.295533 
L 85.451511 19.782891 
L 86.461 19.270248 
L 87.47049 18.757606 
L 88.479979 18.244963 
L 89.489469 17.732321 
L 90.498959 17.219678 
L 91.508448 16.707036 
L 90.553545 15.224152 
L 89.598642 13.741269 
L 88.277463 14.124856 
L 86.956283 14.508442 
L 85.635104 14.892029 
L 84.313924 15.275616 
L 82.992745 15.659202 
L 81.671565 16.042789 
L 80.350386 16.426375 
L 79.029206 16.809962 
L 77.400704 16.897503 
L 75.772201 16.985043 
L 74.143699 17.072584 
L 72.515196 17.160124 
L 70.887058 17.73126 
L 69.258919 18.302395 
L 67.630781 18.873531 
L 66.002642 19.444666 
L 65.147542 20.018256 
L 64.292441 20.591845 
L 63.437341 21.165434 
L 62.582241 21.739023 
L 61.727141 22.312613 
L 60.87204 22.886202 
L 60.01694 23.459791 
L 59.16184 24.033381 
L 58.30674 24.60697 
L 57.451639 25.180559 
L 56.596539 25.754149 
L 55.741439 26.327738 
L 54.886338 26.901327 
L 54.031238 27.474917 
L 53.176138 28.048506 
L 52.321038 28.622095 
z
" style="fill:none;stroke:#4169e1;stroke-linejoin:miter;"/>
   </g>
   <g id="line2d_1">
    <path clip-path="url(#p7d868e3f4b)" d="M 41.482307 52.106296 
" style="fill:none;stroke:#008000;stroke-linecap:square;stroke-width:1.5;"/>
   </g>
   <g id="line2d_2">
    <path clip-path="url(#p7d868e3f4b)" d="M 41.482307 52.106296 
" style="fill:none;stroke:#4169e1;stroke-linecap:square;stroke-width:1.5;"/>
   </g>
   <g id="line2d_3">
    <path clip-path="url(#p7d868e3f4b)" d="M 41.482307 52.106296 
" style="fill:none;stroke:#000000;stroke-linecap:square;stroke-width:1.5;"/>
   </g>
   <g id="line2d_4">
    <path clip-path="url(#p7d868e3f4b)" d="M 41.482307 52.106296 
" style="fill:none;stroke:#ff0000;stroke-linecap:square;stroke-width:1.5;"/>
   </g>
   <g id="line2d_5">
    <path clip-path="url(#p7d868e3f4b)" d="M 41.482307 52.106296 
" style="fill:none;stroke:#ffd700;stroke-linecap:square;stroke-width:1.5;"/>
   </g>
   <g id="line2d_6">
    <path clip-path="url(#p7d868e3f4b)" d="M 41.482307 52.106296 
" style="fill:none;stroke:#000000;stroke-dasharray:1.5,2.475;stroke-dashoffset:0;stroke-width:1.5;"/>
   </g>
   <g id="line2d_7">
    <path clip-path="url(#p7d868e3f4b)" d="M 22.289632 23.890663 
L 28.020505 26.964661 
L 33.751378 30.03866 
" style="fill:none;stroke:#808080;stroke-linecap:square;stroke-width:1.5;"/>
   </g>
   <g id="line2d_8">
    <path clip-path="url(#p7d868e3f4b)" d="M 13.889107 99.596759 
L 15.427723 94.952867 
L 16.966339 90.308976 
L 17.334618 89.198007 
L 18.999875 84.170529 
L 20.665133 79.143051 
L 21.729209 75.930579 
L 22.793285 72.718108 
L 23.170297 71.581673 
L 24.988397 66.094209 
L 26.806498 60.606745 
L 27.51103 58.477123 
L 28.805825 54.568572 
L 30.100621 50.660021 
L 31.805181 45.515822 
L 33.509741 40.371623 
L 35.204112 35.256074 
L 36.291478 31.974101 
" style="fill:none;stroke:#808080;stroke-linecap:square;stroke-width:1.5;"/>
   </g>
   <g id="line2d_9">
    <path clip-path="url(#p7d868e3f4b)" d="M 8.43335 100.08168 
L 10.167023 94.533203 
L 11.581182 90.124875 
L 12.995341 85.716547 
L 14.12201 82.088656 
L 15.248679 78.460765 
L 16.653376 73.934125 
L 18.058073 69.407485 
L 19.461314 64.885619 
L 20.864556 60.363754 
L 22.085114 56.432389 
L 23.305672 52.501024 
L 24.778784 47.790814 
L 26.003709 43.871652 
L 27.228634 39.95249 
L 28.467388 35.988231 
" style="fill:none;stroke:#808080;stroke-linecap:square;stroke-width:1.5;"/>
   </g>
   <g id="line2d_10">
    <path clip-path="url(#p7d868e3f4b)" d="M 40.477912 49.818571 
L 40.319247 44.725305 
L 40.131469 38.70464 
L 40.015017 34.969578 
L 39.929134 32.201176 
" style="fill:none;stroke:#808080;stroke-linecap:square;stroke-width:1.5;"/>
   </g>
   <g id="line2d_11">
    <path clip-path="url(#p7d868e3f4b)" d="M 28.987053 100.678017 
L 31.138496 96.660703 
L 33.289939 92.643389 
L 34.34237 90.679299 
L 37.255115 85.516 
L 39.241706 81.737698 
L 41.228297 77.959397 
L 43.214888 74.181095 
L 45.201479 70.402794 
L 47.486842 66.137183 
L 50.286046 60.91075 
L 53.085251 55.684316 
L 55.182107 51.769398 
L 57.278963 47.85448 
" style="fill:none;stroke:#808080;stroke-linecap:square;stroke-width:1.5;"/>
   </g>
   <g id="line2d_12">
    <path clip-path="url(#p7d868e3f4b)" d="M 42.21013 53.092056 
L 45.523177 50.843591 
L 49.54949 48.111266 
L 53.789783 45.23357 
L 56.385198 43.472149 
" style="fill:none;stroke:#808080;stroke-linecap:square;stroke-width:1.5;"/>
   </g>
   <g id="line2d_13">
    <path clip-path="url(#p7d868e3f4b)" d="M 61.811841 35.50331 
L 63.956006 34.184366 
L 69.162847 30.980914 
L 74.627337 27.620419 
L 77.60413 25.788966 
L 80.580924 23.957512 
L 84.154531 21.75998 
L 86.956647 20.036228 
L 89.758763 18.312476 
" style="fill:none;stroke:#808080;stroke-linecap:square;stroke-width:1.5;"/>
   </g>
   <g id="line2d_14">
    <path clip-path="url(#p7d868e3f4b)" d="M 63.225272 38.139075 
L 65.738806 41.027116 
L 68.252341 43.915157 
L 70.765875 46.803198 
L 73.27941 49.691239 
" style="fill:none;stroke:#808080;stroke-linecap:square;stroke-width:1.5;"/>
   </g>
   <g id="line2d_15">
    <path clip-path="url(#p7d868e3f4b)" d="M 33.247725 31.058374 
L 31.560633 30.473975 
L 29.873541 29.889576 
L 28.186449 29.305176 
L 26.499356 28.720777 
L 24.812264 28.136378 
L 23.125172 27.551979 
L 21.43808 26.967579 
L 19.750988 26.38318 
L 18.31645 26.236218 
L 16.881912 26.089256 
L 15.447374 25.942294 
L 14.012836 25.795332 
" style="fill:none;stroke:#008000;stroke-linecap:square;stroke-width:1.5;"/>
   </g>
   <g id="line2d_16">
    <path clip-path="url(#p7d868e3f4b)" d="M 33.413669 26.988006 
L 32.053733 26.244177 
L 30.693797 25.500347 
L 29.333861 24.756518 
L 27.973925 24.012689 
L 26.581236 23.334383 
L 25.188548 22.656077 
L 23.79586 21.97777 
L 22.403172 21.299464 
" style="fill:none;stroke:#008000;stroke-linecap:square;stroke-width:1.5;"/>
   </g>
   <g id="line2d_17">
    <path clip-path="url(#p7d868e3f4b)" d="M 33.84454 28.508558 
L 32.484967 27.764729 
L 31.125395 27.0209 
L 29.765823 26.277071 
L 28.406251 25.533241 
L 27.013199 24.854935 
L 25.620147 24.176629 
L 24.227095 23.498322 
L 22.834043 22.820016 
" style="fill:none;stroke:#008000;stroke-linecap:square;stroke-width:1.5;"/>
   </g>
   <g id="line2d_18">
    <path clip-path="url(#p7d868e3f4b)" d="M 14.012836 25.795332 
L 13.746817 26.731618 
L 13.480798 27.667904 
L 13.214779 28.604189 
L 12.94876 29.540475 
L 12.682741 30.47676 
L 12.416722 31.413046 
L 12.150703 32.349331 
L 11.884684 33.285617 
L 11.570174 35.003069 
L 11.255663 36.720521 
L 10.941153 38.437973 
L 10.626643 40.155425 
L 10.312133 41.872877 
L 9.997622 43.590329 
L 9.683112 45.307781 
L 9.368602 47.025233 
L 9.054092 48.742685 
L 8.739582 50.460137 
L 8.425071 52.177589 
L 8.110561 53.895041 
L 7.796051 55.612493 
L 7.481541 57.329945 
L 7.16703 59.047397 
L 6.85252 60.764849 
L 6.595417 62.312459 
L 6.338314 63.860069 
L 6.08121 65.407679 
L 5.824107 66.955289 
L 5.567004 68.502899 
L 5.309901 70.05051 
L 5.052797 71.59812 
L 4.795694 73.14573 
L 4.711995 74.74215 
L 4.628295 76.338571 
L 4.560608 77.621703 
L 4.49292 78.904834 
L 4.425233 80.187966 
L 4.357545 81.471098 
L 4.363186 83.223632 
L 4.368826 84.976167 
L 4.374467 86.728701 
L 4.380108 88.481236 
L 4.385748 90.23377 
L 4.391389 91.986305 
L 4.39703 93.738839 
L 4.40267 95.491374 
L 5.212009 97.217248 
L 6.021347 98.943123 
L 6.590504 99.857789 
L 7.552685 101.401685 
" style="fill:none;stroke:#008000;stroke-linecap:square;stroke-width:1.5;"/>
   </g>
   <g id="line2d_19">
    <path clip-path="url(#p7d868e3f4b)" d="M 27.05978 34.447518 
L 26.444042 35.278357 
L 25.828304 36.109196 
L 25.212567 36.940035 
L 24.596829 37.770874 
L 23.529841 39.367295 
L 22.462854 40.963716 
L 21.395866 42.560136 
L 20.328879 44.156557 
L 19.574127 45.45083 
L 18.819375 46.745103 
L 18.064623 48.039376 
L 17.309872 49.33365 
L 16.937954 50.908052 
L 16.566037 52.482455 
L 16.19412 54.056858 
L 15.822203 55.631261 
L 15.625327 57.097962 
L 15.428451 58.564664 
L 15.231575 60.031365 
L 15.034699 61.498067 
L 15.111484 63.180436 
L 15.188269 64.862806 
L 15.265055 66.545175 
L 15.34184 68.227545 
L 15.122765 69.651537 
L 14.903691 71.075529 
" style="fill:none;stroke:#008000;stroke-linecap:square;stroke-width:1.5;"/>
   </g>
   <g id="line2d_20">
    <path clip-path="url(#p7d868e3f4b)" d="M 14.903691 71.075529 
L 13.102331 71.688844 
L 11.30097 72.302158 
L 10.117895 72.911758 
L 8.93482 73.521358 
L 7.751745 74.130959 
L 6.568669 74.740559 
L 5.598482 75.539565 
L 4.628295 76.338571 
" style="fill:none;stroke:#008000;stroke-linecap:square;stroke-width:1.5;"/>
   </g>
   <g id="line2d_21">
    <path clip-path="url(#p7d868e3f4b)" d="M 14.903691 71.075529 
L 14.523586 72.385586 
L 14.14348 73.695643 
L 13.763375 75.0057 
L 13.38327 76.315757 
L 13.003165 77.625815 
L 12.62306 78.935872 
L 12.242954 80.245929 
L 11.862849 81.555986 
L 11.284594 83.079456 
L 10.706339 84.602926 
L 10.128085 86.126396 
L 9.54983 87.649866 
L 9.221582 89.159807 
L 8.893334 90.669749 
L 8.565086 92.17969 
L 8.236838 93.689631 
L 7.825255 95.23167 
L 7.413671 96.77371 
L 7.002088 98.315749 
L 6.590504 99.857789 
" style="fill:none;stroke:#008000;stroke-linecap:square;stroke-width:1.5;"/>
   </g>
   <g id="line2d_22">
    <path clip-path="url(#p7d868e3f4b)" d="M 29.582412 38.080715 
L 29.302655 39.347996 
L 29.022899 40.615278 
L 28.743142 41.882559 
L 28.463385 43.149841 
L 28.183628 44.417122 
L 27.903872 45.684404 
L 27.624115 46.951686 
L 27.344358 48.218967 
L 27.064602 49.486249 
L 26.784845 50.75353 
L 26.505088 52.020812 
L 26.225331 53.288093 
L 25.945575 54.555375 
L 25.665818 55.822656 
L 25.386061 57.089938 
L 25.106305 58.357219 
L 24.687807 59.700038 
L 24.269309 61.042856 
L 23.850811 62.385675 
L 23.432313 63.728493 
L 23.013815 65.071311 
L 22.595317 66.41413 
L 22.17682 67.756948 
L 21.758322 69.099767 
" style="fill:none;stroke:#000000;stroke-linecap:square;stroke-width:1.5;"/>
   </g>
   <g id="line2d_23">
    <path clip-path="url(#p7d868e3f4b)" d="M 21.758322 69.099767 
L 21.419157 70.496436 
L 21.079991 71.893105 
L 20.740826 73.289774 
L 20.401661 74.686443 
L 20.062496 76.083112 
L 19.72333 77.479781 
L 19.384165 78.87645 
L 19.045 80.273119 
L 19.395083 81.351459 
L 19.745165 82.429799 
L 20.095248 83.508139 
L 20.44533 84.586479 
L 20.926421 86.09642 
L 21.407511 87.606361 
L 21.59347 88.889758 
L 21.779429 90.173155 
L 21.965387 91.456552 
L 22.151346 92.739949 
L 21.69209 94.508798 
L 21.232834 96.277647 
L 20.29176 97.075592 
L 19.350685 97.873537 
L 18.333554 98.455814 
L 17.316422 99.038091 
L 16.29929 99.620368 
L 15.282159 100.202645 
" style="fill:none;stroke:#4169e1;stroke-linecap:square;stroke-width:1.5;"/>
   </g>
   <g id="line2d_24">
    <path clip-path="url(#p7d868e3f4b)" d="M 37.974204 32.938638 
L 37.905788 33.91697 
L 37.837373 34.895301 
L 37.768958 35.873633 
L 37.700542 36.851964 
L 37.632127 37.830296 
L 37.563712 38.808627 
L 37.495296 39.786959 
L 37.426881 40.76529 
L 37.34027 42.38028 
L 37.253659 43.99527 
L 37.167049 45.61026 
L 37.080438 47.22525 
L 36.89266 48.427738 
L 36.704881 49.630226 
L 36.517103 50.832715 
L 36.329325 52.035203 
L 36.040743 53.387041 
L 35.752162 54.738878 
L 35.46358 56.090716 
L 35.174999 57.442554 
L 34.583279 59.079296 
L 33.99156 60.716038 
L 33.413669 62.338456 
L 32.835778 63.960873 
L 32.041724 65.184318 
L 31.247669 66.407763 
L 30.613008 67.589295 
L 29.978347 68.770826 
L 29.241791 69.424993 
L 28.505235 70.079159 
L 27.062691 70.392183 
L 25.618691 70.648968 
" style="fill:none;stroke:#008000;stroke-linecap:square;stroke-width:1.5;"/>
   </g>
   <g id="line2d_25">
    <path clip-path="url(#p7d868e3f4b)" d="M 25.618691 70.648968 
L 24.826093 72.218862 
L 24.033494 73.788755 
L 23.465065 74.826508 
L 22.896636 75.864261 
L 22.744157 77.047119 
L 22.591678 78.229977 
L 22.4392 79.412835 
L 22.286721 80.595693 
L 22.667736 81.947796 
L 23.048751 83.299899 
L 23.429766 84.652002 
L 23.810781 86.004105 
L 23.998559 86.8116 
L 24.266398 87.966073 
L 24.534236 89.120547 
L 24.496389 90.566292 
L 24.458543 92.012036 
L 24.24893 92.988511 
L 24.039317 93.964986 
L 23.829704 94.94146 
L 23.620091 95.917935 
L 22.762717 97.101058 
L 21.905342 98.284181 
" style="fill:none;stroke:#4169e1;stroke-linecap:square;stroke-width:1.5;"/>
   </g>
   <g id="line2d_26">
    <path clip-path="url(#p7d868e3f4b)" d="M 56.648669 45.503089 
L 55.853705 46.074026 
L 55.058741 46.644962 
L 54.263777 47.215899 
L 53.468813 47.786835 
L 52.673849 48.357772 
L 51.878886 48.928708 
L 51.083922 49.499645 
L 50.288958 50.070582 
L 49.493994 50.641518 
L 48.69903 51.212455 
L 47.904066 51.783391 
L 47.109102 52.354328 
L 46.314138 52.925264 
L 45.519174 53.496201 
L 44.72421 54.067138 
L 43.929246 54.638074 
L 43.10062 55.44411 
L 42.271994 56.250146 
L 41.443369 57.056182 
L 40.614743 57.862218 
L 39.786117 58.668254 
L 38.957492 59.474289 
L 38.128866 60.280325 
L 37.30024 61.086361 
L 36.521106 62.157008 
L 35.741972 63.227655 
L 34.962839 64.298302 
L 34.183705 65.368949 
" style="fill:none;stroke:#4169e1;stroke-linecap:square;stroke-width:1.5;"/>
   </g>
   <g id="line2d_27">
    <path clip-path="url(#p7d868e3f4b)" d="M 34.183705 65.368949 
L 33.570151 66.962717 
L 32.956596 68.556485 
L 32.343042 70.150253 
L 31.729488 71.744021 
L 31.426896 72.753389 
L 31.124304 73.762758 
L 30.821711 74.772126 
L 30.519119 75.781495 
L 30.216527 76.790864 
L 29.913935 77.800232 
L 29.611343 78.809601 
L 29.308751 79.81897 
L 28.910632 80.759102 
L 28.512513 81.699234 
L 28.114394 82.639366 
L 27.716275 83.579498 
L 26.786846 84.387523 
L 25.857417 85.195549 
L 24.927988 86.003574 
L 23.998559 86.8116 
" style="fill:none;stroke:#008000;stroke-linecap:square;stroke-width:1.5;"/>
   </g>
   <g id="line2d_28">
    <path clip-path="url(#p7d868e3f4b)" d="M 56.648669 45.503089 
L 55.830597 46.73436 
L 55.012525 47.96563 
L 54.194452 49.196901 
L 53.37638 50.428171 
L 52.558308 51.659442 
L 51.740235 52.890712 
L 50.922163 54.121983 
L 50.104091 55.353254 
L 49.134267 56.769022 
L 48.164444 58.184791 
L 47.194621 59.60056 
L 46.224798 61.016329 
L 45.46768 61.720499 
L 44.710563 62.42467 
L 43.953446 63.128841 
L 43.196329 63.833011 
L 42.439212 64.537182 
L 41.682094 65.241352 
L 40.924977 65.945523 
L 40.16786 66.649693 
L 39.434579 68.006306 
L 38.701298 69.362919 
L 37.968017 70.719531 
L 37.234736 72.076144 
L 36.501455 73.432757 
L 35.768174 74.789369 
L 35.034893 76.145982 
L 34.301612 77.502595 
L 33.977731 78.441666 
L 33.65385 79.380736 
L 33.063586 80.835766 
L 32.473322 82.290795 
L 31.883058 83.745825 
L 31.292794 85.200854 
L 30.769126 86.205448 
L 30.245458 87.210042 
L 29.72179 88.214635 
L 29.198122 89.219229 
L 28.750511 90.204988 
L 28.3029 91.190747 
L 27.85529 92.176507 
L 27.407679 93.162266 
L 27.083798 94.758686 
L 26.759917 96.355107 
L 26.930955 97.556799 
L 27.101993 98.758492 
L 27.483372 100.279575 
L 27.864751 101.800657 
" style="fill:none;stroke:#000000;stroke-linecap:square;stroke-width:1.5;"/>
   </g>
   <g id="line2d_29">
    <path clip-path="url(#p7d868e3f4b)" d="M 57.59775 49.908764 
L 57.539524 51.696713 
L 57.481298 53.484662 
L 56.967455 54.957199 
L 56.453613 56.429737 
L 55.93977 57.902274 
L 55.425928 59.374812 
L 54.932646 60.367866 
L 54.439365 61.36092 
L 53.946083 62.353974 
L 53.452801 63.347029 
L 52.95952 64.340083 
L 52.466238 65.333137 
L 51.972957 66.326191 
L 51.479675 67.319246 
L 50.824817 68.418542 
L 50.169959 69.517839 
L 49.5151 70.617135 
L 48.860242 71.716432 
L 48.205384 72.815729 
L 47.550526 73.915025 
L 46.895668 75.014322 
L 46.24081 76.113618 
L 45.80539 77.364121 
L 45.36997 78.614624 
L 44.934551 79.865127 
L 44.499131 81.11563 
L 44.063711 82.366133 
L 43.628291 83.616636 
L 43.192872 84.867139 
L 42.757452 86.117642 
L 42.309841 87.253812 
L 41.862231 88.389981 
L 41.41462 89.526151 
L 40.967009 90.662321 
L 40.138019 92.231684 
L 39.30903 93.801046 
L 38.67073 94.650985 
L 38.032429 95.500924 
L 37.394129 96.350863 
L 36.755829 97.200801 
L 35.654634 98.229535 
L 34.553439 99.258269 
L 33.07887 100.499222 
L 31.604302 101.740175 
L 30.615192 101.726381 
L 29.626081 101.712586 
" style="fill:none;stroke:#ff0000;stroke-linecap:square;stroke-width:1.5;"/>
   </g>
   <g id="line2d_30">
    <path clip-path="url(#p7d868e3f4b)" d="M 57.481298 53.484662 
L 57.717294 54.433017 
L 57.953291 55.381373 
L 58.189287 56.329728 
L 58.425284 57.278084 
L 58.66128 58.226439 
L 58.897276 59.174795 
L 59.133273 60.12315 
L 59.369269 61.071506 
L 59.642566 62.861842 
L 59.915864 64.652178 
L 60.189161 66.442514 
L 60.462458 68.23285 
L 60.429706 69.731915 
L 60.396954 71.23098 
L 60.364202 72.730045 
L 60.33145 74.22911 
L 60.145492 75.782026 
L 59.959533 77.334941 
L 59.773574 78.887857 
L 59.587616 80.440772 
L 58.898368 82.101655 
L 58.20912 83.762537 
L 57.519873 85.423419 
L 56.830625 87.084302 
L 55.528915 87.95785 
L 54.227204 88.831398 
L 52.925494 89.704946 
L 51.623784 90.578494 
L 50.540784 91.506158 
L 49.457784 92.433823 
L 48.374785 93.361487 
L 47.291785 94.289151 
L 46.351075 95.31364 
L 45.410364 96.338129 
L 44.469654 97.362619 
L 43.528944 98.387108 
L 42.697407 98.947898 
L 41.86587 99.508688 
L 41.034333 100.069477 
L 40.202796 100.630267 
L 38.365044 101.039851 
L 36.527293 101.449434 
L 35.296545 101.522119 
L 34.065798 101.594804 
L 32.83505 101.66749 
L 31.604302 101.740175 
" style="fill:none;stroke:#000000;stroke-linecap:square;stroke-width:1.5;"/>
   </g>
   <g id="text_1">
    <g id="patch_6">
     <path d="M 16.799914 95.616351 
L 19.789675 83.243703 
L 17.869321 82.779663 
L 14.87956 95.152311 
z
" style="fill:#ffffff;"/>
    </g>
    <!-- Village Quad -->
    <g style="fill:#808080;" transform="translate(16.38087 95.494516)rotate(-76.415301)scale(0.02 -0.02)">
     <defs>
      <path d="M 1831 0 
L 50 4666 
L 709 4666 
L 2188 738 
L 3669 4666 
L 4325 4666 
L 2547 0 
L 1831 0 
z
" id="DejaVuSans-56" transform="scale(0.015625)"/>
      <path d="M 603 3500 
L 1178 3500 
L 1178 0 
L 603 0 
L 603 3500 
z
M 603 4863 
L 1178 4863 
L 1178 4134 
L 603 4134 
L 603 4863 
z
" id="DejaVuSans-69" transform="scale(0.015625)"/>
      <path d="M 603 4863 
L 1178 4863 
L 1178 0 
L 603 0 
L 603 4863 
z
" id="DejaVuSans-6c" transform="scale(0.015625)"/>
      <path d="M 2194 1759 
Q 1497 1759 1228 1600 
Q 959 1441 959 1056 
Q 959 750 1161 570 
Q 1363 391 1709 391 
Q 2188 391 2477 730 
Q 2766 1069 2766 1631 
L 2766 1759 
L 2194 1759 
z
M 3341 1997 
L 3341 0 
L 2766 0 
L 2766 531 
Q 2569 213 2275 61 
Q 1981 -91 1556 -91 
Q 1019 -91 701 211 
Q 384 513 384 1019 
Q 384 1609 779 1909 
Q 1175 2209 1959 2209 
L 2766 2209 
L 2766 2266 
Q 2766 2663 2505 2880 
Q 2244 3097 1772 3097 
Q 1472 3097 1187 3025 
Q 903 2953 641 2809 
L 641 3341 
Q 956 3463 1253 3523 
Q 1550 3584 1831 3584 
Q 2591 3584 2966 3190 
Q 3341 2797 3341 1997 
z
" id="DejaVuSans-61" transform="scale(0.015625)"/>
      <path d="M 2906 1791 
Q 2906 2416 2648 2759 
Q 2391 3103 1925 3103 
Q 1463 3103 1205 2759 
Q 947 2416 947 1791 
Q 947 1169 1205 825 
Q 1463 481 1925 481 
Q 2391 481 2648 825 
Q 2906 1169 2906 1791 
z
M 3481 434 
Q 3481 -459 3084 -895 
Q 2688 -1331 1869 -1331 
Q 1566 -1331 1297 -1286 
Q 1028 -1241 775 -1147 
L 775 -588 
Q 1028 -725 1275 -790 
Q 1522 -856 1778 -856 
Q 2344 -856 2625 -561 
Q 2906 -266 2906 331 
L 2906 616 
Q 2728 306 2450 153 
Q 2172 0 1784 0 
Q 1141 0 747 490 
Q 353 981 353 1791 
Q 353 2603 747 3093 
Q 1141 3584 1784 3584 
Q 2172 3584 2450 3431 
Q 2728 3278 2906 2969 
L 2906 3500 
L 3481 3500 
L 3481 434 
z
" id="DejaVuSans-67" transform="scale(0.015625)"/>
      <path d="M 3597 1894 
L 3597 1613 
L 953 1613 
Q 991 1019 1311 708 
Q 1631 397 2203 397 
Q 2534 397 2845 478 
Q 3156 559 3463 722 
L 3463 178 
Q 3153 47 2828 -22 
Q 2503 -91 2169 -91 
Q 1331 -91 842 396 
Q 353 884 353 1716 
Q 353 2575 817 3079 
Q 1281 3584 2069 3584 
Q 2775 3584 3186 3129 
Q 3597 2675 3597 1894 
z
M 3022 2063 
Q 3016 2534 2758 2815 
Q 2500 3097 2075 3097 
Q 1594 3097 1305 2825 
Q 1016 2553 972 2059 
L 3022 2063 
z
" id="DejaVuSans-65" transform="scale(0.015625)"/>
      <path id="DejaVuSans-20" transform="scale(0.015625)"/>
      <path d="M 2522 4238 
Q 1834 4238 1429 3725 
Q 1025 3213 1025 2328 
Q 1025 1447 1429 934 
Q 1834 422 2522 422 
Q 3209 422 3611 934 
Q 4013 1447 4013 2328 
Q 4013 3213 3611 3725 
Q 3209 4238 2522 4238 
z
M 3406 84 
L 4238 -825 
L 3475 -825 
L 2784 -78 
Q 2681 -84 2626 -87 
Q 2572 -91 2522 -91 
Q 1538 -91 948 567 
Q 359 1225 359 2328 
Q 359 3434 948 4092 
Q 1538 4750 2522 4750 
Q 3503 4750 4090 4092 
Q 4678 3434 4678 2328 
Q 4678 1516 4351 937 
Q 4025 359 3406 84 
z
" id="DejaVuSans-51" transform="scale(0.015625)"/>
      <path d="M 544 1381 
L 544 3500 
L 1119 3500 
L 1119 1403 
Q 1119 906 1312 657 
Q 1506 409 1894 409 
Q 2359 409 2629 706 
Q 2900 1003 2900 1516 
L 2900 3500 
L 3475 3500 
L 3475 0 
L 2900 0 
L 2900 538 
Q 2691 219 2414 64 
Q 2138 -91 1772 -91 
Q 1169 -91 856 284 
Q 544 659 544 1381 
z
M 1991 3584 
L 1991 3584 
z
" id="DejaVuSans-75" transform="scale(0.015625)"/>
      <path d="M 2906 2969 
L 2906 4863 
L 3481 4863 
L 3481 0 
L 2906 0 
L 2906 525 
Q 2725 213 2448 61 
Q 2172 -91 1784 -91 
Q 1150 -91 751 415 
Q 353 922 353 1747 
Q 353 2572 751 3078 
Q 1150 3584 1784 3584 
Q 2172 3584 2448 3432 
Q 2725 3281 2906 2969 
z
M 947 1747 
Q 947 1113 1208 752 
Q 1469 391 1925 391 
Q 2381 391 2643 752 
Q 2906 1113 2906 1747 
Q 2906 2381 2643 2742 
Q 2381 3103 1925 3103 
Q 1469 3103 1208 2742 
Q 947 2381 947 1747 
z
" id="DejaVuSans-64" transform="scale(0.015625)"/>
     </defs>
     <use xlink:href="#DejaVuSans-56"/>
     <use x="66.158203" xlink:href="#DejaVuSans-69"/>
     <use x="93.941406" xlink:href="#DejaVuSans-6c"/>
     <use x="121.724609" xlink:href="#DejaVuSans-6c"/>
     <use x="149.507812" xlink:href="#DejaVuSans-61"/>
     <use x="210.787109" xlink:href="#DejaVuSans-67"/>
     <use x="274.263672" xlink:href="#DejaVuSans-65"/>
     <use x="335.787109" xlink:href="#DejaVuSans-20"/>
     <use x="367.574219" xlink:href="#DejaVuSans-51"/>
     <use x="446.285156" xlink:href="#DejaVuSans-75"/>
     <use x="509.664062" xlink:href="#DejaVuSans-61"/>
     <use x="570.943359" xlink:href="#DejaVuSans-64"/>
    </g>
   </g>
   <g id="text_2">
    <g id="patch_7">
     <path d="M 12.052031 94.088713 
L 15.862378 77.794232 
L 13.93865 77.344382 
L 10.128303 93.638863 
z
" style="fill:#ffffff;"/>
    </g>
    <!-- Blackhawk Triple -->
    <g style="fill:#808080;" transform="translate(11.632099 93.969975)rotate(-76.838297)scale(0.02 -0.02)">
     <defs>
      <path d="M 1259 2228 
L 1259 519 
L 2272 519 
Q 2781 519 3026 730 
Q 3272 941 3272 1375 
Q 3272 1813 3026 2020 
Q 2781 2228 2272 2228 
L 1259 2228 
z
M 1259 4147 
L 1259 2741 
L 2194 2741 
Q 2656 2741 2882 2914 
Q 3109 3088 3109 3444 
Q 3109 3797 2882 3972 
Q 2656 4147 2194 4147 
L 1259 4147 
z
M 628 4666 
L 2241 4666 
Q 2963 4666 3353 4366 
Q 3744 4066 3744 3513 
Q 3744 3084 3544 2831 
Q 3344 2578 2956 2516 
Q 3422 2416 3680 2098 
Q 3938 1781 3938 1306 
Q 3938 681 3513 340 
Q 3088 0 2303 0 
L 628 0 
L 628 4666 
z
" id="DejaVuSans-42" transform="scale(0.015625)"/>
      <path d="M 3122 3366 
L 3122 2828 
Q 2878 2963 2633 3030 
Q 2388 3097 2138 3097 
Q 1578 3097 1268 2742 
Q 959 2388 959 1747 
Q 959 1106 1268 751 
Q 1578 397 2138 397 
Q 2388 397 2633 464 
Q 2878 531 3122 666 
L 3122 134 
Q 2881 22 2623 -34 
Q 2366 -91 2075 -91 
Q 1284 -91 818 406 
Q 353 903 353 1747 
Q 353 2603 823 3093 
Q 1294 3584 2113 3584 
Q 2378 3584 2631 3529 
Q 2884 3475 3122 3366 
z
" id="DejaVuSans-63" transform="scale(0.015625)"/>
      <path d="M 581 4863 
L 1159 4863 
L 1159 1991 
L 2875 3500 
L 3609 3500 
L 1753 1863 
L 3688 0 
L 2938 0 
L 1159 1709 
L 1159 0 
L 581 0 
L 581 4863 
z
" id="DejaVuSans-6b" transform="scale(0.015625)"/>
      <path d="M 3513 2113 
L 3513 0 
L 2938 0 
L 2938 2094 
Q 2938 2591 2744 2837 
Q 2550 3084 2163 3084 
Q 1697 3084 1428 2787 
Q 1159 2491 1159 1978 
L 1159 0 
L 581 0 
L 581 4863 
L 1159 4863 
L 1159 2956 
Q 1366 3272 1645 3428 
Q 1925 3584 2291 3584 
Q 2894 3584 3203 3211 
Q 3513 2838 3513 2113 
z
" id="DejaVuSans-68" transform="scale(0.015625)"/>
      <path d="M 269 3500 
L 844 3500 
L 1563 769 
L 2278 3500 
L 2956 3500 
L 3675 769 
L 4391 3500 
L 4966 3500 
L 4050 0 
L 3372 0 
L 2619 2869 
L 1863 0 
L 1184 0 
L 269 3500 
z
" id="DejaVuSans-77" transform="scale(0.015625)"/>
      <path d="M -19 4666 
L 3928 4666 
L 3928 4134 
L 2272 4134 
L 2272 0 
L 1638 0 
L 1638 4134 
L -19 4134 
L -19 4666 
z
" id="DejaVuSans-54" transform="scale(0.015625)"/>
      <path d="M 2631 2963 
Q 2534 3019 2420 3045 
Q 2306 3072 2169 3072 
Q 1681 3072 1420 2755 
Q 1159 2438 1159 1844 
L 1159 0 
L 581 0 
L 581 3500 
L 1159 3500 
L 1159 2956 
Q 1341 3275 1631 3429 
Q 1922 3584 2338 3584 
Q 2397 3584 2469 3576 
Q 2541 3569 2628 3553 
L 2631 2963 
z
" id="DejaVuSans-72" transform="scale(0.015625)"/>
      <path d="M 1159 525 
L 1159 -1331 
L 581 -1331 
L 581 3500 
L 1159 3500 
L 1159 2969 
Q 1341 3281 1617 3432 
Q 1894 3584 2278 3584 
Q 2916 3584 3314 3078 
Q 3713 2572 3713 1747 
Q 3713 922 3314 415 
Q 2916 -91 2278 -91 
Q 1894 -91 1617 61 
Q 1341 213 1159 525 
z
M 3116 1747 
Q 3116 2381 2855 2742 
Q 2594 3103 2138 3103 
Q 1681 3103 1420 2742 
Q 1159 2381 1159 1747 
Q 1159 1113 1420 752 
Q 1681 391 2138 391 
Q 2594 391 2855 752 
Q 3116 1113 3116 1747 
z
" id="DejaVuSans-70" transform="scale(0.015625)"/>
     </defs>
     <use xlink:href="#DejaVuSans-42"/>
     <use x="68.603516" xlink:href="#DejaVuSans-6c"/>
     <use x="96.386719" xlink:href="#DejaVuSans-61"/>
     <use x="157.666016" xlink:href="#DejaVuSans-63"/>
     <use x="212.646484" xlink:href="#DejaVuSans-6b"/>
     <use x="270.556641" xlink:href="#DejaVuSans-68"/>
     <use x="333.935547" xlink:href="#DejaVuSans-61"/>
     <use x="395.214844" xlink:href="#DejaVuSans-77"/>
     <use x="477.001953" xlink:href="#DejaVuSans-6b"/>
     <use x="534.912109" xlink:href="#DejaVuSans-20"/>
     <use x="566.699219" xlink:href="#DejaVuSans-54"/>
     <use x="613.033203" xlink:href="#DejaVuSans-72"/>
     <use x="654.146484" xlink:href="#DejaVuSans-69"/>
     <use x="681.929688" xlink:href="#DejaVuSans-70"/>
     <use x="745.40625" xlink:href="#DejaVuSans-6c"/>
     <use x="773.189453" xlink:href="#DejaVuSans-65"/>
    </g>
   </g>
   <g id="text_3">
    <g id="patch_8">
     <path d="M 32.811349 97.314006 
L 37.713618 84.763383 
L 35.873391 84.044592 
L 30.971122 96.595214 
z
" style="fill:#ffffff;"/>
    </g>
    <!-- Apache Quad -->
    <g style="fill:#808080;" transform="translate(32.412565 97.136769)rotate(-68.6644)scale(0.02 -0.02)">
     <defs>
      <path d="M 2188 4044 
L 1331 1722 
L 3047 1722 
L 2188 4044 
z
M 1831 4666 
L 2547 4666 
L 4325 0 
L 3669 0 
L 3244 1197 
L 1141 1197 
L 716 0 
L 50 0 
L 1831 4666 
z
" id="DejaVuSans-41" transform="scale(0.015625)"/>
     </defs>
     <use xlink:href="#DejaVuSans-41"/>
     <use x="68.408203" xlink:href="#DejaVuSans-70"/>
     <use x="131.884766" xlink:href="#DejaVuSans-61"/>
     <use x="193.164062" xlink:href="#DejaVuSans-63"/>
     <use x="248.144531" xlink:href="#DejaVuSans-68"/>
     <use x="311.523438" xlink:href="#DejaVuSans-65"/>
     <use x="373.046875" xlink:href="#DejaVuSans-20"/>
     <use x="404.833984" xlink:href="#DejaVuSans-51"/>
     <use x="483.544922" xlink:href="#DejaVuSans-75"/>
     <use x="546.923828" xlink:href="#DejaVuSans-61"/>
     <use x="608.203125" xlink:href="#DejaVuSans-64"/>
    </g>
   </g>
   <g id="text_4">
    <g id="patch_9">
     <path d="M 72.887005 31.062886 
L 83.595507 22.024806 
L 82.321255 20.515046 
L 71.612753 29.553126 
z
" style="fill:#ffffff;"/>
    </g>
    <!-- Far Side Triple -->
    <g style="fill:#808080;" transform="translate(72.621115 30.716846)rotate(-40.164693)scale(0.02 -0.02)">
     <defs>
      <path d="M 628 4666 
L 3309 4666 
L 3309 4134 
L 1259 4134 
L 1259 2759 
L 3109 2759 
L 3109 2228 
L 1259 2228 
L 1259 0 
L 628 0 
L 628 4666 
z
" id="DejaVuSans-46" transform="scale(0.015625)"/>
      <path d="M 3425 4513 
L 3425 3897 
Q 3066 4069 2747 4153 
Q 2428 4238 2131 4238 
Q 1616 4238 1336 4038 
Q 1056 3838 1056 3469 
Q 1056 3159 1242 3001 
Q 1428 2844 1947 2747 
L 2328 2669 
Q 3034 2534 3370 2195 
Q 3706 1856 3706 1288 
Q 3706 609 3251 259 
Q 2797 -91 1919 -91 
Q 1588 -91 1214 -16 
Q 841 59 441 206 
L 441 856 
Q 825 641 1194 531 
Q 1563 422 1919 422 
Q 2459 422 2753 634 
Q 3047 847 3047 1241 
Q 3047 1584 2836 1778 
Q 2625 1972 2144 2069 
L 1759 2144 
Q 1053 2284 737 2584 
Q 422 2884 422 3419 
Q 422 4038 858 4394 
Q 1294 4750 2059 4750 
Q 2388 4750 2728 4690 
Q 3069 4631 3425 4513 
z
" id="DejaVuSans-53" transform="scale(0.015625)"/>
     </defs>
     <use xlink:href="#DejaVuSans-46"/>
     <use x="48.394531" xlink:href="#DejaVuSans-61"/>
     <use x="109.673828" xlink:href="#DejaVuSans-72"/>
     <use x="150.787109" xlink:href="#DejaVuSans-20"/>
     <use x="182.574219" xlink:href="#DejaVuSans-53"/>
     <use x="246.050781" xlink:href="#DejaVuSans-69"/>
     <use x="273.833984" xlink:href="#DejaVuSans-64"/>
     <use x="337.310547" xlink:href="#DejaVuSans-65"/>
     <use x="398.833984" xlink:href="#DejaVuSans-20"/>
     <use x="430.621094" xlink:href="#DejaVuSans-54"/>
     <use x="476.955078" xlink:href="#DejaVuSans-72"/>
     <use x="518.068359" xlink:href="#DejaVuSans-69"/>
     <use x="545.851562" xlink:href="#DejaVuSans-70"/>
     <use x="609.328125" xlink:href="#DejaVuSans-6c"/>
     <use x="637.111328" xlink:href="#DejaVuSans-65"/>
    </g>
   </g>
   <g id="text_5">
    <g id="patch_10">
     <path d="M 50.857072 48.753596 
L 65.161569 35.515257 
L 63.819672 34.065289 
L 49.515174 47.303629 
z
" style="fill:#ffffff;"/>
    </g>
    <!-- Rookie's Ridge 6.9° -->
    <g style="fill:#008000;" transform="translate(50.57565 48.420065)rotate(-42.783239)scale(0.02 -0.02)">
     <defs>
      <path d="M 2841 2188 
Q 3044 2119 3236 1894 
Q 3428 1669 3622 1275 
L 4263 0 
L 3584 0 
L 2988 1197 
Q 2756 1666 2539 1819 
Q 2322 1972 1947 1972 
L 1259 1972 
L 1259 0 
L 628 0 
L 628 4666 
L 2053 4666 
Q 2853 4666 3247 4331 
Q 3641 3997 3641 3322 
Q 3641 2881 3436 2590 
Q 3231 2300 2841 2188 
z
M 1259 4147 
L 1259 2491 
L 2053 2491 
Q 2509 2491 2742 2702 
Q 2975 2913 2975 3322 
Q 2975 3731 2742 3939 
Q 2509 4147 2053 4147 
L 1259 4147 
z
" id="DejaVuSans-52" transform="scale(0.015625)"/>
      <path d="M 1959 3097 
Q 1497 3097 1228 2736 
Q 959 2375 959 1747 
Q 959 1119 1226 758 
Q 1494 397 1959 397 
Q 2419 397 2687 759 
Q 2956 1122 2956 1747 
Q 2956 2369 2687 2733 
Q 2419 3097 1959 3097 
z
M 1959 3584 
Q 2709 3584 3137 3096 
Q 3566 2609 3566 1747 
Q 3566 888 3137 398 
Q 2709 -91 1959 -91 
Q 1206 -91 779 398 
Q 353 888 353 1747 
Q 353 2609 779 3096 
Q 1206 3584 1959 3584 
z
" id="DejaVuSans-6f" transform="scale(0.015625)"/>
      <path d="M 1147 4666 
L 1147 2931 
L 616 2931 
L 616 4666 
L 1147 4666 
z
" id="DejaVuSans-27" transform="scale(0.015625)"/>
      <path d="M 2834 3397 
L 2834 2853 
Q 2591 2978 2328 3040 
Q 2066 3103 1784 3103 
Q 1356 3103 1142 2972 
Q 928 2841 928 2578 
Q 928 2378 1081 2264 
Q 1234 2150 1697 2047 
L 1894 2003 
Q 2506 1872 2764 1633 
Q 3022 1394 3022 966 
Q 3022 478 2636 193 
Q 2250 -91 1575 -91 
Q 1294 -91 989 -36 
Q 684 19 347 128 
L 347 722 
Q 666 556 975 473 
Q 1284 391 1588 391 
Q 1994 391 2212 530 
Q 2431 669 2431 922 
Q 2431 1156 2273 1281 
Q 2116 1406 1581 1522 
L 1381 1569 
Q 847 1681 609 1914 
Q 372 2147 372 2553 
Q 372 3047 722 3315 
Q 1072 3584 1716 3584 
Q 2034 3584 2315 3537 
Q 2597 3491 2834 3397 
z
" id="DejaVuSans-73" transform="scale(0.015625)"/>
      <path d="M 2113 2584 
Q 1688 2584 1439 2293 
Q 1191 2003 1191 1497 
Q 1191 994 1439 701 
Q 1688 409 2113 409 
Q 2538 409 2786 701 
Q 3034 994 3034 1497 
Q 3034 2003 2786 2293 
Q 2538 2584 2113 2584 
z
M 3366 4563 
L 3366 3988 
Q 3128 4100 2886 4159 
Q 2644 4219 2406 4219 
Q 1781 4219 1451 3797 
Q 1122 3375 1075 2522 
Q 1259 2794 1537 2939 
Q 1816 3084 2150 3084 
Q 2853 3084 3261 2657 
Q 3669 2231 3669 1497 
Q 3669 778 3244 343 
Q 2819 -91 2113 -91 
Q 1303 -91 875 529 
Q 447 1150 447 2328 
Q 447 3434 972 4092 
Q 1497 4750 2381 4750 
Q 2619 4750 2861 4703 
Q 3103 4656 3366 4563 
z
" id="DejaVuSans-36" transform="scale(0.015625)"/>
      <path d="M 684 794 
L 1344 794 
L 1344 0 
L 684 0 
L 684 794 
z
" id="DejaVuSans-2e" transform="scale(0.015625)"/>
      <path d="M 703 97 
L 703 672 
Q 941 559 1184 500 
Q 1428 441 1663 441 
Q 2288 441 2617 861 
Q 2947 1281 2994 2138 
Q 2813 1869 2534 1725 
Q 2256 1581 1919 1581 
Q 1219 1581 811 2004 
Q 403 2428 403 3163 
Q 403 3881 828 4315 
Q 1253 4750 1959 4750 
Q 2769 4750 3195 4129 
Q 3622 3509 3622 2328 
Q 3622 1225 3098 567 
Q 2575 -91 1691 -91 
Q 1453 -91 1209 -44 
Q 966 3 703 97 
z
M 1959 2075 
Q 2384 2075 2632 2365 
Q 2881 2656 2881 3163 
Q 2881 3666 2632 3958 
Q 2384 4250 1959 4250 
Q 1534 4250 1286 3958 
Q 1038 3666 1038 3163 
Q 1038 2656 1286 2365 
Q 1534 2075 1959 2075 
z
" id="DejaVuSans-39" transform="scale(0.015625)"/>
      <path d="M 1600 4347 
Q 1350 4347 1178 4173 
Q 1006 4000 1006 3750 
Q 1006 3503 1178 3333 
Q 1350 3163 1600 3163 
Q 1850 3163 2022 3333 
Q 2194 3503 2194 3750 
Q 2194 3997 2020 4172 
Q 1847 4347 1600 4347 
z
M 1600 4750 
Q 1800 4750 1984 4673 
Q 2169 4597 2303 4453 
Q 2447 4313 2519 4134 
Q 2591 3956 2591 3750 
Q 2591 3338 2302 3052 
Q 2013 2766 1594 2766 
Q 1172 2766 890 3047 
Q 609 3328 609 3750 
Q 609 4169 896 4459 
Q 1184 4750 1600 4750 
z
" id="DejaVuSans-b0" transform="scale(0.015625)"/>
     </defs>
     <use xlink:href="#DejaVuSans-52"/>
     <use x="64.982422" xlink:href="#DejaVuSans-6f"/>
     <use x="126.164062" xlink:href="#DejaVuSans-6f"/>
     <use x="187.345703" xlink:href="#DejaVuSans-6b"/>
     <use x="245.255859" xlink:href="#DejaVuSans-69"/>
     <use x="273.039062" xlink:href="#DejaVuSans-65"/>
     <use x="334.5625" xlink:href="#DejaVuSans-27"/>
     <use x="362.052734" xlink:href="#DejaVuSans-73"/>
     <use x="414.152344" xlink:href="#DejaVuSans-20"/>
     <use x="445.939453" xlink:href="#DejaVuSans-52"/>
     <use x="515.421875" xlink:href="#DejaVuSans-69"/>
     <use x="543.205078" xlink:href="#DejaVuSans-64"/>
     <use x="606.681641" xlink:href="#DejaVuSans-67"/>
     <use x="670.158203" xlink:href="#DejaVuSans-65"/>
     <use x="731.681641" xlink:href="#DejaVuSans-20"/>
     <use x="763.46875" xlink:href="#DejaVuSans-36"/>
     <use x="827.091797" xlink:href="#DejaVuSans-2e"/>
     <use x="858.878906" xlink:href="#DejaVuSans-39"/>
     <use x="922.501953" xlink:href="#DejaVuSans-b0"/>
    </g>
   </g>
   <g id="text_6">
    <g id="patch_11">
     <path d="M 11.246489 44.254771 
L 13.223093 29.447679 
L 11.264838 29.186271 
L 9.288234 43.993362 
z
" style="fill:#ffffff;"/>
    </g>
    <!-- Old Main 13.2° -->
    <g style="fill:#008000;" transform="translate(10.81703 44.177265)rotate(-82.396517)scale(0.02 -0.02)">
     <defs>
      <path d="M 2522 4238 
Q 1834 4238 1429 3725 
Q 1025 3213 1025 2328 
Q 1025 1447 1429 934 
Q 1834 422 2522 422 
Q 3209 422 3611 934 
Q 4013 1447 4013 2328 
Q 4013 3213 3611 3725 
Q 3209 4238 2522 4238 
z
M 2522 4750 
Q 3503 4750 4090 4092 
Q 4678 3434 4678 2328 
Q 4678 1225 4090 567 
Q 3503 -91 2522 -91 
Q 1538 -91 948 565 
Q 359 1222 359 2328 
Q 359 3434 948 4092 
Q 1538 4750 2522 4750 
z
" id="DejaVuSans-4f" transform="scale(0.015625)"/>
      <path d="M 628 4666 
L 1569 4666 
L 2759 1491 
L 3956 4666 
L 4897 4666 
L 4897 0 
L 4281 0 
L 4281 4097 
L 3078 897 
L 2444 897 
L 1241 4097 
L 1241 0 
L 628 0 
L 628 4666 
z
" id="DejaVuSans-4d" transform="scale(0.015625)"/>
      <path d="M 3513 2113 
L 3513 0 
L 2938 0 
L 2938 2094 
Q 2938 2591 2744 2837 
Q 2550 3084 2163 3084 
Q 1697 3084 1428 2787 
Q 1159 2491 1159 1978 
L 1159 0 
L 581 0 
L 581 3500 
L 1159 3500 
L 1159 2956 
Q 1366 3272 1645 3428 
Q 1925 3584 2291 3584 
Q 2894 3584 3203 3211 
Q 3513 2838 3513 2113 
z
" id="DejaVuSans-6e" transform="scale(0.015625)"/>
      <path d="M 794 531 
L 1825 531 
L 1825 4091 
L 703 3866 
L 703 4441 
L 1819 4666 
L 2450 4666 
L 2450 531 
L 3481 531 
L 3481 0 
L 794 0 
L 794 531 
z
" id="DejaVuSans-31" transform="scale(0.015625)"/>
      <path d="M 2597 2516 
Q 3050 2419 3304 2112 
Q 3559 1806 3559 1356 
Q 3559 666 3084 287 
Q 2609 -91 1734 -91 
Q 1441 -91 1130 -33 
Q 819 25 488 141 
L 488 750 
Q 750 597 1062 519 
Q 1375 441 1716 441 
Q 2309 441 2620 675 
Q 2931 909 2931 1356 
Q 2931 1769 2642 2001 
Q 2353 2234 1838 2234 
L 1294 2234 
L 1294 2753 
L 1863 2753 
Q 2328 2753 2575 2939 
Q 2822 3125 2822 3475 
Q 2822 3834 2567 4026 
Q 2313 4219 1838 4219 
Q 1578 4219 1281 4162 
Q 984 4106 628 3988 
L 628 4550 
Q 988 4650 1302 4700 
Q 1616 4750 1894 4750 
Q 2613 4750 3031 4423 
Q 3450 4097 3450 3541 
Q 3450 3153 3228 2886 
Q 3006 2619 2597 2516 
z
" id="DejaVuSans-33" transform="scale(0.015625)"/>
      <path d="M 1228 531 
L 3431 531 
L 3431 0 
L 469 0 
L 469 531 
Q 828 903 1448 1529 
Q 2069 2156 2228 2338 
Q 2531 2678 2651 2914 
Q 2772 3150 2772 3378 
Q 2772 3750 2511 3984 
Q 2250 4219 1831 4219 
Q 1534 4219 1204 4116 
Q 875 4013 500 3803 
L 500 4441 
Q 881 4594 1212 4672 
Q 1544 4750 1819 4750 
Q 2544 4750 2975 4387 
Q 3406 4025 3406 3419 
Q 3406 3131 3298 2873 
Q 3191 2616 2906 2266 
Q 2828 2175 2409 1742 
Q 1991 1309 1228 531 
z
" id="DejaVuSans-32" transform="scale(0.015625)"/>
     </defs>
     <use xlink:href="#DejaVuSans-4f"/>
     <use x="78.710938" xlink:href="#DejaVuSans-6c"/>
     <use x="106.494141" xlink:href="#DejaVuSans-64"/>
     <use x="169.970703" xlink:href="#DejaVuSans-20"/>
     <use x="201.757812" xlink:href="#DejaVuSans-4d"/>
     <use x="288.037109" xlink:href="#DejaVuSans-61"/>
     <use x="349.316406" xlink:href="#DejaVuSans-69"/>
     <use x="377.099609" xlink:href="#DejaVuSans-6e"/>
     <use x="440.478516" xlink:href="#DejaVuSans-20"/>
     <use x="472.265625" xlink:href="#DejaVuSans-31"/>
     <use x="535.888672" xlink:href="#DejaVuSans-33"/>
     <use x="599.511719" xlink:href="#DejaVuSans-2e"/>
     <use x="631.298828" xlink:href="#DejaVuSans-32"/>
     <use x="694.921875" xlink:href="#DejaVuSans-b0"/>
    </g>
   </g>
   <g id="text_7">
    <g id="patch_12">
     <path d="M 17.021201 53.981513 
L 23.945225 37.693029 
L 22.127053 36.920148 
L 15.203029 53.208631 
z
" style="fill:#ffffff;"/>
    </g>
    <!-- Black Hawk 16.2° -->
    <g style="fill:#008000;" transform="translate(16.627831 53.792564)rotate(-66.970281)scale(0.02 -0.02)">
     <defs>
      <path d="M 628 4666 
L 1259 4666 
L 1259 2753 
L 3553 2753 
L 3553 4666 
L 4184 4666 
L 4184 0 
L 3553 0 
L 3553 2222 
L 1259 2222 
L 1259 0 
L 628 0 
L 628 4666 
z
" id="DejaVuSans-48" transform="scale(0.015625)"/>
     </defs>
     <use xlink:href="#DejaVuSans-42"/>
     <use x="68.603516" xlink:href="#DejaVuSans-6c"/>
     <use x="96.386719" xlink:href="#DejaVuSans-61"/>
     <use x="157.666016" xlink:href="#DejaVuSans-63"/>
     <use x="212.646484" xlink:href="#DejaVuSans-6b"/>
     <use x="270.556641" xlink:href="#DejaVuSans-20"/>
     <use x="302.34375" xlink:href="#DejaVuSans-48"/>
     <use x="377.539062" xlink:href="#DejaVuSans-61"/>
     <use x="438.818359" xlink:href="#DejaVuSans-77"/>
     <use x="520.605469" xlink:href="#DejaVuSans-6b"/>
     <use x="578.515625" xlink:href="#DejaVuSans-20"/>
     <use x="610.302734" xlink:href="#DejaVuSans-31"/>
     <use x="673.925781" xlink:href="#DejaVuSans-36"/>
     <use x="737.548828" xlink:href="#DejaVuSans-2e"/>
     <use x="769.335938" xlink:href="#DejaVuSans-32"/>
     <use x="832.958984" xlink:href="#DejaVuSans-b0"/>
    </g>
   </g>
   <g id="text_8">
    <g id="patch_13">
     <path d="M 12.005478 86.142534 
L 14.413297 74.758127 
L 12.48043 74.349323 
L 10.072612 85.73373 
z
" style="fill:#ffffff;"/>
    </g>
    <!-- Fever 16.0° -->
    <g style="fill:#008000;" transform="translate(11.583114 86.032761)rotate(-78.057852)scale(0.02 -0.02)">
     <defs>
      <path d="M 191 3500 
L 800 3500 
L 1894 563 
L 2988 3500 
L 3597 3500 
L 2284 0 
L 1503 0 
L 191 3500 
z
" id="DejaVuSans-76" transform="scale(0.015625)"/>
      <path d="M 2034 4250 
Q 1547 4250 1301 3770 
Q 1056 3291 1056 2328 
Q 1056 1369 1301 889 
Q 1547 409 2034 409 
Q 2525 409 2770 889 
Q 3016 1369 3016 2328 
Q 3016 3291 2770 3770 
Q 2525 4250 2034 4250 
z
M 2034 4750 
Q 2819 4750 3233 4129 
Q 3647 3509 3647 2328 
Q 3647 1150 3233 529 
Q 2819 -91 2034 -91 
Q 1250 -91 836 529 
Q 422 1150 422 2328 
Q 422 3509 836 4129 
Q 1250 4750 2034 4750 
z
" id="DejaVuSans-30" transform="scale(0.015625)"/>
     </defs>
     <use xlink:href="#DejaVuSans-46"/>
     <use x="52.019531" xlink:href="#DejaVuSans-65"/>
     <use x="113.542969" xlink:href="#DejaVuSans-76"/>
     <use x="172.722656" xlink:href="#DejaVuSans-65"/>
     <use x="234.246094" xlink:href="#DejaVuSans-72"/>
     <use x="275.359375" xlink:href="#DejaVuSans-20"/>
     <use x="307.146484" xlink:href="#DejaVuSans-31"/>
     <use x="370.769531" xlink:href="#DejaVuSans-36"/>
     <use x="434.392578" xlink:href="#DejaVuSans-2e"/>
     <use x="466.179688" xlink:href="#DejaVuSans-30"/>
     <use x="529.802734" xlink:href="#DejaVuSans-b0"/>
    </g>
   </g>
   <g id="text_9">
    <g id="patch_14">
     <path d="M 27.672022 52.871518 
L 29.52674 41.345731 
L 27.576208 41.031853 
L 25.72149 52.55764 
z
" style="fill:#ffffff;"/>
    </g>
    <!-- Eagle 26.6° -->
    <g transform="translate(27.244799 52.782512)rotate(-80.858393)scale(0.02 -0.02)">
     <defs>
      <path d="M 628 4666 
L 3578 4666 
L 3578 4134 
L 1259 4134 
L 1259 2753 
L 3481 2753 
L 3481 2222 
L 1259 2222 
L 1259 531 
L 3634 531 
L 3634 0 
L 628 0 
L 628 4666 
z
" id="DejaVuSans-45" transform="scale(0.015625)"/>
     </defs>
     <use xlink:href="#DejaVuSans-45"/>
     <use x="63.183594" xlink:href="#DejaVuSans-61"/>
     <use x="124.462891" xlink:href="#DejaVuSans-67"/>
     <use x="187.939453" xlink:href="#DejaVuSans-6c"/>
     <use x="215.722656" xlink:href="#DejaVuSans-65"/>
     <use x="277.246094" xlink:href="#DejaVuSans-20"/>
     <use x="309.033203" xlink:href="#DejaVuSans-32"/>
     <use x="372.65625" xlink:href="#DejaVuSans-36"/>
     <use x="436.279297" xlink:href="#DejaVuSans-2e"/>
     <use x="468.066406" xlink:href="#DejaVuSans-36"/>
     <use x="531.689453" xlink:href="#DejaVuSans-b0"/>
    </g>
   </g>
   <g id="text_10">
    <g id="patch_15">
     <path d="M 18.068413 78.157318 
L 21.860026 94.482476 
L 23.784429 94.035522 
L 19.992816 77.710364 
z
" style="fill:#ffffff;"/>
    </g>
    <!-- Mine Shaft 20.9° -->
    <g style="fill:#4169e1;" transform="translate(18.497573 78.078175)rotate(-283.075458)scale(0.02 -0.02)">
     <defs>
      <path d="M 2375 4863 
L 2375 4384 
L 1825 4384 
Q 1516 4384 1395 4259 
Q 1275 4134 1275 3809 
L 1275 3500 
L 2222 3500 
L 2222 3053 
L 1275 3053 
L 1275 0 
L 697 0 
L 697 3053 
L 147 3053 
L 147 3500 
L 697 3500 
L 697 3744 
Q 697 4328 969 4595 
Q 1241 4863 1831 4863 
L 2375 4863 
z
" id="DejaVuSans-66" transform="scale(0.015625)"/>
      <path d="M 1172 4494 
L 1172 3500 
L 2356 3500 
L 2356 3053 
L 1172 3053 
L 1172 1153 
Q 1172 725 1289 603 
Q 1406 481 1766 481 
L 2356 481 
L 2356 0 
L 1766 0 
Q 1100 0 847 248 
Q 594 497 594 1153 
L 594 3053 
L 172 3053 
L 172 3500 
L 594 3500 
L 594 4494 
L 1172 4494 
z
" id="DejaVuSans-74" transform="scale(0.015625)"/>
     </defs>
     <use xlink:href="#DejaVuSans-4d"/>
     <use x="86.279297" xlink:href="#DejaVuSans-69"/>
     <use x="114.0625" xlink:href="#DejaVuSans-6e"/>
     <use x="177.441406" xlink:href="#DejaVuSans-65"/>
     <use x="238.964844" xlink:href="#DejaVuSans-20"/>
     <use x="270.751953" xlink:href="#DejaVuSans-53"/>
     <use x="334.228516" xlink:href="#DejaVuSans-68"/>
     <use x="397.607422" xlink:href="#DejaVuSans-61"/>
     <use x="458.886719" xlink:href="#DejaVuSans-66"/>
     <use x="492.341797" xlink:href="#DejaVuSans-74"/>
     <use x="531.550781" xlink:href="#DejaVuSans-20"/>
     <use x="563.337891" xlink:href="#DejaVuSans-32"/>
     <use x="626.960938" xlink:href="#DejaVuSans-30"/>
     <use x="690.583984" xlink:href="#DejaVuSans-2e"/>
     <use x="722.371094" xlink:href="#DejaVuSans-39"/>
     <use x="785.994141" xlink:href="#DejaVuSans-b0"/>
    </g>
   </g>
   <g id="text_11">
    <g id="patch_16">
     <path d="M 38.089573 48.500628 
L 38.565085 36.337107 
L 36.590968 36.259932 
L 36.115456 48.423454 
z
" style="fill:#ffffff;"/>
    </g>
    <!-- Moser 14.2° -->
    <g style="fill:#008000;" transform="translate(37.654749 48.463614)rotate(-87.761259)scale(0.02 -0.02)">
     <defs>
      <path d="M 2419 4116 
L 825 1625 
L 2419 1625 
L 2419 4116 
z
M 2253 4666 
L 3047 4666 
L 3047 1625 
L 3713 1625 
L 3713 1100 
L 3047 1100 
L 3047 0 
L 2419 0 
L 2419 1100 
L 313 1100 
L 313 1709 
L 2253 4666 
z
" id="DejaVuSans-34" transform="scale(0.015625)"/>
     </defs>
     <use xlink:href="#DejaVuSans-4d"/>
     <use x="86.279297" xlink:href="#DejaVuSans-6f"/>
     <use x="147.460938" xlink:href="#DejaVuSans-73"/>
     <use x="199.560547" xlink:href="#DejaVuSans-65"/>
     <use x="261.083984" xlink:href="#DejaVuSans-72"/>
     <use x="302.197266" xlink:href="#DejaVuSans-20"/>
     <use x="333.984375" xlink:href="#DejaVuSans-31"/>
     <use x="397.607422" xlink:href="#DejaVuSans-34"/>
     <use x="461.230469" xlink:href="#DejaVuSans-2e"/>
     <use x="493.017578" xlink:href="#DejaVuSans-32"/>
     <use x="556.640625" xlink:href="#DejaVuSans-b0"/>
    </g>
   </g>
   <g id="text_12">
    <g id="patch_17">
     <path d="M 21.882219 81.524762 
L 23.804124 90.88097 
L 25.739342 90.483447 
L 23.817437 81.127239 
z
" style="fill:#ffffff;"/>
    </g>
    <!-- Fox 20.4° -->
    <g style="fill:#4169e1;" transform="translate(22.313265 81.456636)rotate(-281.60794)scale(0.02 -0.02)">
     <defs>
      <path d="M 3513 3500 
L 2247 1797 
L 3578 0 
L 2900 0 
L 1881 1375 
L 863 0 
L 184 0 
L 1544 1831 
L 300 3500 
L 978 3500 
L 1906 2253 
L 2834 3500 
L 3513 3500 
z
" id="DejaVuSans-78" transform="scale(0.015625)"/>
     </defs>
     <use xlink:href="#DejaVuSans-46"/>
     <use x="53.894531" xlink:href="#DejaVuSans-6f"/>
     <use x="111.951172" xlink:href="#DejaVuSans-78"/>
     <use x="171.130859" xlink:href="#DejaVuSans-20"/>
     <use x="202.917969" xlink:href="#DejaVuSans-32"/>
     <use x="266.541016" xlink:href="#DejaVuSans-30"/>
     <use x="330.164062" xlink:href="#DejaVuSans-2e"/>
     <use x="361.951172" xlink:href="#DejaVuSans-34"/>
     <use x="425.574219" xlink:href="#DejaVuSans-b0"/>
    </g>
   </g>
   <g id="text_13">
    <g id="patch_18">
     <path d="M 47.054984 54.643516 
L 54.909483 46.904974 
L 53.522932 45.497647 
L 45.668433 53.236189 
z
" style="fill:#ffffff;"/>
    </g>
    <!-- Buck 17.6° -->
    <g style="fill:#4169e1;" transform="translate(46.763277 54.318942)rotate(-44.573931)scale(0.02 -0.02)">
     <defs>
      <path d="M 525 4666 
L 3525 4666 
L 3525 4397 
L 1831 0 
L 1172 0 
L 2766 4134 
L 525 4134 
L 525 4666 
z
" id="DejaVuSans-37" transform="scale(0.015625)"/>
     </defs>
     <use xlink:href="#DejaVuSans-42"/>
     <use x="68.603516" xlink:href="#DejaVuSans-75"/>
     <use x="131.982422" xlink:href="#DejaVuSans-63"/>
     <use x="186.962891" xlink:href="#DejaVuSans-6b"/>
     <use x="244.873047" xlink:href="#DejaVuSans-20"/>
     <use x="276.660156" xlink:href="#DejaVuSans-31"/>
     <use x="340.283203" xlink:href="#DejaVuSans-37"/>
     <use x="403.90625" xlink:href="#DejaVuSans-2e"/>
     <use x="435.693359" xlink:href="#DejaVuSans-36"/>
     <use x="499.316406" xlink:href="#DejaVuSans-b0"/>
    </g>
   </g>
   <g id="text_14">
    <g id="patch_19">
     <path d="M 48.849301 60.668054 
L 54.773085 48.437073 
L 52.995025 47.575912 
L 47.071241 59.806893 
z
" style="fill:#ffffff;"/>
    </g>
    <!-- Apache 24.8° -->
    <g transform="translate(48.465676 60.460032)rotate(-64.157878)scale(0.02 -0.02)">
     <defs>
      <path d="M 2034 2216 
Q 1584 2216 1326 1975 
Q 1069 1734 1069 1313 
Q 1069 891 1326 650 
Q 1584 409 2034 409 
Q 2484 409 2743 651 
Q 3003 894 3003 1313 
Q 3003 1734 2745 1975 
Q 2488 2216 2034 2216 
z
M 1403 2484 
Q 997 2584 770 2862 
Q 544 3141 544 3541 
Q 544 4100 942 4425 
Q 1341 4750 2034 4750 
Q 2731 4750 3128 4425 
Q 3525 4100 3525 3541 
Q 3525 3141 3298 2862 
Q 3072 2584 2669 2484 
Q 3125 2378 3379 2068 
Q 3634 1759 3634 1313 
Q 3634 634 3220 271 
Q 2806 -91 2034 -91 
Q 1263 -91 848 271 
Q 434 634 434 1313 
Q 434 1759 690 2068 
Q 947 2378 1403 2484 
z
M 1172 3481 
Q 1172 3119 1398 2916 
Q 1625 2713 2034 2713 
Q 2441 2713 2670 2916 
Q 2900 3119 2900 3481 
Q 2900 3844 2670 4047 
Q 2441 4250 2034 4250 
Q 1625 4250 1398 4047 
Q 1172 3844 1172 3481 
z
" id="DejaVuSans-38" transform="scale(0.015625)"/>
     </defs>
     <use xlink:href="#DejaVuSans-41"/>
     <use x="68.408203" xlink:href="#DejaVuSans-70"/>
     <use x="131.884766" xlink:href="#DejaVuSans-61"/>
     <use x="193.164062" xlink:href="#DejaVuSans-63"/>
     <use x="248.144531" xlink:href="#DejaVuSans-68"/>
     <use x="311.523438" xlink:href="#DejaVuSans-65"/>
     <use x="373.046875" xlink:href="#DejaVuSans-20"/>
     <use x="404.833984" xlink:href="#DejaVuSans-32"/>
     <use x="468.457031" xlink:href="#DejaVuSans-34"/>
     <use x="532.080078" xlink:href="#DejaVuSans-2e"/>
     <use x="563.867188" xlink:href="#DejaVuSans-38"/>
     <use x="627.490234" xlink:href="#DejaVuSans-b0"/>
    </g>
   </g>
   <g id="text_15">
    <g id="patch_20">
     <path d="M 52.39403 69.541684 
L 57.355734 55.83889 
L 55.498136 55.166264 
L 50.536432 68.869059 
z
" style="fill:#ffffff;"/>
    </g>
    <!-- Warpath 32.8° -->
    <g style="fill:#ff0000;" transform="translate(51.990945 69.374459)rotate(-70.094967)scale(0.02 -0.02)">
     <defs>
      <path d="M 213 4666 
L 850 4666 
L 1831 722 
L 2809 4666 
L 3519 4666 
L 4500 722 
L 5478 4666 
L 6119 4666 
L 4947 0 
L 4153 0 
L 3169 4050 
L 2175 0 
L 1381 0 
L 213 4666 
z
" id="DejaVuSans-57" transform="scale(0.015625)"/>
     </defs>
     <use xlink:href="#DejaVuSans-57"/>
     <use x="92.501953" xlink:href="#DejaVuSans-61"/>
     <use x="153.78125" xlink:href="#DejaVuSans-72"/>
     <use x="194.894531" xlink:href="#DejaVuSans-70"/>
     <use x="258.371094" xlink:href="#DejaVuSans-61"/>
     <use x="319.650391" xlink:href="#DejaVuSans-74"/>
     <use x="358.859375" xlink:href="#DejaVuSans-68"/>
     <use x="422.238281" xlink:href="#DejaVuSans-20"/>
     <use x="454.025391" xlink:href="#DejaVuSans-33"/>
     <use x="517.648438" xlink:href="#DejaVuSans-32"/>
     <use x="581.271484" xlink:href="#DejaVuSans-2e"/>
     <use x="613.058594" xlink:href="#DejaVuSans-38"/>
     <use x="676.681641" xlink:href="#DejaVuSans-b0"/>
    </g>
   </g>
   <g id="text_16">
    <g id="patch_21">
     <path d="M 41.217289 104.378479 
L 51.245229 89.396699 
L 49.603439 88.29778 
L 39.5755 103.27956 
z
" style="fill:#ffffff;"/>
    </g>
    <!-- Crazy horse 25.2° -->
    <g transform="translate(40.86614 104.119373)rotate(-56.203931)scale(0.02 -0.02)">
     <defs>
      <path d="M 4122 4306 
L 4122 3641 
Q 3803 3938 3442 4084 
Q 3081 4231 2675 4231 
Q 1875 4231 1450 3742 
Q 1025 3253 1025 2328 
Q 1025 1406 1450 917 
Q 1875 428 2675 428 
Q 3081 428 3442 575 
Q 3803 722 4122 1019 
L 4122 359 
Q 3791 134 3420 21 
Q 3050 -91 2638 -91 
Q 1578 -91 968 557 
Q 359 1206 359 2328 
Q 359 3453 968 4101 
Q 1578 4750 2638 4750 
Q 3056 4750 3426 4639 
Q 3797 4528 4122 4306 
z
" id="DejaVuSans-43" transform="scale(0.015625)"/>
      <path d="M 353 3500 
L 3084 3500 
L 3084 2975 
L 922 459 
L 3084 459 
L 3084 0 
L 275 0 
L 275 525 
L 2438 3041 
L 353 3041 
L 353 3500 
z
" id="DejaVuSans-7a" transform="scale(0.015625)"/>
      <path d="M 2059 -325 
Q 1816 -950 1584 -1140 
Q 1353 -1331 966 -1331 
L 506 -1331 
L 506 -850 
L 844 -850 
Q 1081 -850 1212 -737 
Q 1344 -625 1503 -206 
L 1606 56 
L 191 3500 
L 800 3500 
L 1894 763 
L 2988 3500 
L 3597 3500 
L 2059 -325 
z
" id="DejaVuSans-79" transform="scale(0.015625)"/>
      <path d="M 691 4666 
L 3169 4666 
L 3169 4134 
L 1269 4134 
L 1269 2991 
Q 1406 3038 1543 3061 
Q 1681 3084 1819 3084 
Q 2600 3084 3056 2656 
Q 3513 2228 3513 1497 
Q 3513 744 3044 326 
Q 2575 -91 1722 -91 
Q 1428 -91 1123 -41 
Q 819 9 494 109 
L 494 744 
Q 775 591 1075 516 
Q 1375 441 1709 441 
Q 2250 441 2565 725 
Q 2881 1009 2881 1497 
Q 2881 1984 2565 2268 
Q 2250 2553 1709 2553 
Q 1456 2553 1204 2497 
Q 953 2441 691 2322 
L 691 4666 
z
" id="DejaVuSans-35" transform="scale(0.015625)"/>
     </defs>
     <use xlink:href="#DejaVuSans-43"/>
     <use x="69.824219" xlink:href="#DejaVuSans-72"/>
     <use x="110.9375" xlink:href="#DejaVuSans-61"/>
     <use x="172.216797" xlink:href="#DejaVuSans-7a"/>
     <use x="224.707031" xlink:href="#DejaVuSans-79"/>
     <use x="283.886719" xlink:href="#DejaVuSans-20"/>
     <use x="315.673828" xlink:href="#DejaVuSans-68"/>
     <use x="379.052734" xlink:href="#DejaVuSans-6f"/>
     <use x="440.234375" xlink:href="#DejaVuSans-72"/>
     <use x="481.347656" xlink:href="#DejaVuSans-73"/>
     <use x="533.447266" xlink:href="#DejaVuSans-65"/>
     <use x="594.970703" xlink:href="#DejaVuSans-20"/>
     <use x="626.757812" xlink:href="#DejaVuSans-32"/>
     <use x="690.380859" xlink:href="#DejaVuSans-35"/>
     <use x="754.003906" xlink:href="#DejaVuSans-2e"/>
     <use x="785.791016" xlink:href="#DejaVuSans-32"/>
     <use x="849.414062" xlink:href="#DejaVuSans-b0"/>
    </g>
   </g>
   <g id="text_17">
    <g id="patch_22">
     <path d="M 67.351281 33.398751 
L 82.589703 19.296096 
L 81.247806 17.846129 
L 66.009384 31.948784 
z
" style="fill:#ffffff;"/>
    </g>
    <!-- Rookie's Ridge 21.4° -->
    <g style="fill:#4169e1;" transform="translate(67.06986 33.06522)rotate(-42.783239)scale(0.02 -0.02)">
     <use xlink:href="#DejaVuSans-52"/>
     <use x="64.982422" xlink:href="#DejaVuSans-6f"/>
     <use x="126.164062" xlink:href="#DejaVuSans-6f"/>
     <use x="187.345703" xlink:href="#DejaVuSans-6b"/>
     <use x="245.255859" xlink:href="#DejaVuSans-69"/>
     <use x="273.039062" xlink:href="#DejaVuSans-65"/>
     <use x="334.5625" xlink:href="#DejaVuSans-27"/>
     <use x="362.052734" xlink:href="#DejaVuSans-73"/>
     <use x="414.152344" xlink:href="#DejaVuSans-20"/>
     <use x="445.939453" xlink:href="#DejaVuSans-52"/>
     <use x="515.421875" xlink:href="#DejaVuSans-69"/>
     <use x="543.205078" xlink:href="#DejaVuSans-64"/>
     <use x="606.681641" xlink:href="#DejaVuSans-67"/>
     <use x="670.158203" xlink:href="#DejaVuSans-65"/>
     <use x="731.681641" xlink:href="#DejaVuSans-20"/>
     <use x="763.46875" xlink:href="#DejaVuSans-32"/>
     <use x="827.091797" xlink:href="#DejaVuSans-31"/>
     <use x="890.714844" xlink:href="#DejaVuSans-2e"/>
     <use x="922.501953" xlink:href="#DejaVuSans-34"/>
     <use x="986.125" xlink:href="#DejaVuSans-b0"/>
    </g>
   </g>
   <g id="text_18">
    <!-- Chestnut Mountain -->
    <g transform="translate(19.444247 6.3383)scale(0.06 -0.06)">
     <use xlink:href="#DejaVuSans-43"/>
     <use x="69.824219" xlink:href="#DejaVuSans-68"/>
     <use x="133.203125" xlink:href="#DejaVuSans-65"/>
     <use x="194.726562" xlink:href="#DejaVuSans-73"/>
     <use x="246.826172" xlink:href="#DejaVuSans-74"/>
     <use x="286.035156" xlink:href="#DejaVuSans-6e"/>
     <use x="349.414062" xlink:href="#DejaVuSans-75"/>
     <use x="412.792969" xlink:href="#DejaVuSans-74"/>
     <use x="452.001953" xlink:href="#DejaVuSans-20"/>
     <use x="483.789062" xlink:href="#DejaVuSans-4d"/>
     <use x="570.068359" xlink:href="#DejaVuSans-6f"/>
     <use x="631.25" xlink:href="#DejaVuSans-75"/>
     <use x="694.628906" xlink:href="#DejaVuSans-6e"/>
     <use x="758.007812" xlink:href="#DejaVuSans-74"/>
     <use x="797.216797" xlink:href="#DejaVuSans-61"/>
     <use x="858.496094" xlink:href="#DejaVuSans-69"/>
     <use x="886.279297" xlink:href="#DejaVuSans-6e"/>
    </g>
   </g>
   <g id="legend_1">
    <g id="line2d_31">
     <path d="M 5.931825 105.255107 
L 11.931825 105.255107 
" style="fill:none;stroke:#008000;stroke-linecap:square;stroke-width:1.5;"/>
    </g>
    <g id="line2d_32"/>
    <g id="text_19">
     <!-- Easy -->
     <g transform="translate(14.331825 106.305107)scale(0.03 -0.03)">
      <use xlink:href="#DejaVuSans-45"/>
      <use x="63.183594" xlink:href="#DejaVuSans-61"/>
      <use x="124.462891" xlink:href="#DejaVuSans-73"/>
      <use x="176.5625" xlink:href="#DejaVuSans-79"/>
     </g>
    </g>
    <g id="line2d_33">
     <path d="M 5.931825 109.658545 
L 11.931825 109.658545 
" style="fill:none;stroke:#4169e1;stroke-linecap:square;stroke-width:1.5;"/>
    </g>
    <g id="line2d_34"/>
    <g id="text_20">
     <!-- Intermediate -->
     <g transform="translate(14.331825 110.708545)scale(0.03 -0.03)">
      <defs>
       <path d="M 628 4666 
L 1259 4666 
L 1259 0 
L 628 0 
L 628 4666 
z
" id="DejaVuSans-49" transform="scale(0.015625)"/>
       <path d="M 3328 2828 
Q 3544 3216 3844 3400 
Q 4144 3584 4550 3584 
Q 5097 3584 5394 3201 
Q 5691 2819 5691 2113 
L 5691 0 
L 5113 0 
L 5113 2094 
Q 5113 2597 4934 2840 
Q 4756 3084 4391 3084 
Q 3944 3084 3684 2787 
Q 3425 2491 3425 1978 
L 3425 0 
L 2847 0 
L 2847 2094 
Q 2847 2600 2669 2842 
Q 2491 3084 2119 3084 
Q 1678 3084 1418 2786 
Q 1159 2488 1159 1978 
L 1159 0 
L 581 0 
L 581 3500 
L 1159 3500 
L 1159 2956 
Q 1356 3278 1631 3431 
Q 1906 3584 2284 3584 
Q 2666 3584 2933 3390 
Q 3200 3197 3328 2828 
z
" id="DejaVuSans-6d" transform="scale(0.015625)"/>
      </defs>
      <use xlink:href="#DejaVuSans-49"/>
      <use x="29.492188" xlink:href="#DejaVuSans-6e"/>
      <use x="92.871094" xlink:href="#DejaVuSans-74"/>
      <use x="132.080078" xlink:href="#DejaVuSans-65"/>
      <use x="193.603516" xlink:href="#DejaVuSans-72"/>
      <use x="232.966797" xlink:href="#DejaVuSans-6d"/>
      <use x="330.378906" xlink:href="#DejaVuSans-65"/>
      <use x="391.902344" xlink:href="#DejaVuSans-64"/>
      <use x="455.378906" xlink:href="#DejaVuSans-69"/>
      <use x="483.162109" xlink:href="#DejaVuSans-61"/>
      <use x="544.441406" xlink:href="#DejaVuSans-74"/>
      <use x="583.650391" xlink:href="#DejaVuSans-65"/>
     </g>
    </g>
    <g id="line2d_35">
     <path d="M 39.68745 105.255107 
L 45.68745 105.255107 
" style="fill:none;stroke:#000000;stroke-linecap:square;stroke-width:1.5;"/>
    </g>
    <g id="line2d_36"/>
    <g id="text_21">
     <!-- Advanced -->
     <g transform="translate(48.08745 106.305107)scale(0.03 -0.03)">
      <use xlink:href="#DejaVuSans-41"/>
      <use x="66.658203" xlink:href="#DejaVuSans-64"/>
      <use x="130.134766" xlink:href="#DejaVuSans-76"/>
      <use x="189.314453" xlink:href="#DejaVuSans-61"/>
      <use x="250.59375" xlink:href="#DejaVuSans-6e"/>
      <use x="313.972656" xlink:href="#DejaVuSans-63"/>
      <use x="368.953125" xlink:href="#DejaVuSans-65"/>
      <use x="430.476562" xlink:href="#DejaVuSans-64"/>
     </g>
    </g>
    <g id="line2d_37">
     <path d="M 39.68745 109.658545 
L 45.68745 109.658545 
" style="fill:none;stroke:#ff0000;stroke-linecap:square;stroke-width:1.5;"/>
    </g>
    <g id="line2d_38"/>
    <g id="text_22">
     <!-- Expert -->
     <g transform="translate(48.08745 110.708545)scale(0.03 -0.03)">
      <use xlink:href="#DejaVuSans-45"/>
      <use x="63.183594" xlink:href="#DejaVuSans-78"/>
      <use x="122.363281" xlink:href="#DejaVuSans-70"/>
      <use x="185.839844" xlink:href="#DejaVuSans-65"/>
      <use x="247.363281" xlink:href="#DejaVuSans-72"/>
      <use x="288.476562" xlink:href="#DejaVuSans-74"/>
     </g>
    </g>
    <g id="line2d_39">
     <path d="M 68.906981 105.255107 
L 74.906981 105.255107 
" style="fill:none;stroke:#ffd700;stroke-linecap:square;stroke-width:1.5;"/>
    </g>
    <g id="line2d_40"/>
    <g id="text_23">
     <!-- Extreme -->
     <g transform="translate(77.306981 106.305107)scale(0.03 -0.03)">
      <use xlink:href="#DejaVuSans-45"/>
      <use x="63.183594" xlink:href="#DejaVuSans-78"/>
      <use x="122.363281" xlink:href="#DejaVuSans-74"/>
      <use x="161.572266" xlink:href="#DejaVuSans-72"/>
      <use x="200.435547" xlink:href="#DejaVuSans-65"/>
      <use x="261.958984" xlink:href="#DejaVuSans-6d"/>
      <use x="359.371094" xlink:href="#DejaVuSans-65"/>
     </g>
    </g>
    <g id="line2d_41">
     <path d="M 68.906981 109.658545 
L 74.906981 109.658545 
" style="fill:none;stroke:#000000;stroke-dasharray:1.5,2.475;stroke-dashoffset:0;stroke-width:1.5;"/>
    </g>
    <g id="line2d_42"/>
    <g id="text_24">
     <!-- Gladed -->
     <g transform="translate(77.306981 110.708545)scale(0.03 -0.03)">
      <defs>
       <path d="M 3809 666 
L 3809 1919 
L 2778 1919 
L 2778 2438 
L 4434 2438 
L 4434 434 
Q 4069 175 3628 42 
Q 3188 -91 2688 -91 
Q 1594 -91 976 548 
Q 359 1188 359 2328 
Q 359 3472 976 4111 
Q 1594 4750 2688 4750 
Q 3144 4750 3555 4637 
Q 3966 4525 4313 4306 
L 4313 3634 
Q 3963 3931 3569 4081 
Q 3175 4231 2741 4231 
Q 1884 4231 1454 3753 
Q 1025 3275 1025 2328 
Q 1025 1384 1454 906 
Q 1884 428 2741 428 
Q 3075 428 3337 486 
Q 3600 544 3809 666 
z
" id="DejaVuSans-47" transform="scale(0.015625)"/>
      </defs>
      <use xlink:href="#DejaVuSans-47"/>
      <use x="77.490234" xlink:href="#DejaVuSans-6c"/>
      <use x="105.273438" xlink:href="#DejaVuSans-61"/>
      <use x="166.552734" xlink:href="#DejaVuSans-64"/>
      <use x="230.029297" xlink:href="#DejaVuSans-65"/>
      <use x="291.552734" xlink:href="#DejaVuSans-64"/>
     </g>
    </g>
   </g>
  </g>
  <g id="text_25">
   <!-- Sources: USGS and OpenStreetMaps -->
   <g transform="translate(24.136597 114.999399)scale(0.026087 -0.026087)">
    <defs>
     <path d="M 750 794 
L 1409 794 
L 1409 0 
L 750 0 
L 750 794 
z
M 750 3309 
L 1409 3309 
L 1409 2516 
L 750 2516 
L 750 3309 
z
" id="DejaVuSans-3a" transform="scale(0.015625)"/>
     <path d="M 556 4666 
L 1191 4666 
L 1191 1831 
Q 1191 1081 1462 751 
Q 1734 422 2344 422 
Q 2950 422 3222 751 
Q 3494 1081 3494 1831 
L 3494 4666 
L 4128 4666 
L 4128 1753 
Q 4128 841 3676 375 
Q 3225 -91 2344 -91 
Q 1459 -91 1007 375 
Q 556 841 556 1753 
L 556 4666 
z
" id="DejaVuSans-55" transform="scale(0.015625)"/>
    </defs>
    <use xlink:href="#DejaVuSans-53"/>
    <use x="63.476562" xlink:href="#DejaVuSans-6f"/>
    <use x="124.658203" xlink:href="#DejaVuSans-75"/>
    <use x="188.037109" xlink:href="#DejaVuSans-72"/>
    <use x="226.900391" xlink:href="#DejaVuSans-63"/>
    <use x="281.880859" xlink:href="#DejaVuSans-65"/>
    <use x="343.404297" xlink:href="#DejaVuSans-73"/>
    <use x="395.503906" xlink:href="#DejaVuSans-3a"/>
    <use x="429.195312" xlink:href="#DejaVuSans-20"/>
    <use x="460.982422" xlink:href="#DejaVuSans-55"/>
    <use x="534.175781" xlink:href="#DejaVuSans-53"/>
    <use x="597.652344" xlink:href="#DejaVuSans-47"/>
    <use x="675.142578" xlink:href="#DejaVuSans-53"/>
    <use x="738.619141" xlink:href="#DejaVuSans-20"/>
    <use x="770.40625" xlink:href="#DejaVuSans-61"/>
    <use x="831.685547" xlink:href="#DejaVuSans-6e"/>
    <use x="895.064453" xlink:href="#DejaVuSans-64"/>
    <use x="958.541016" xlink:href="#DejaVuSans-20"/>
    <use x="990.328125" xlink:href="#DejaVuSans-4f"/>
    <use x="1069.039062" xlink:href="#DejaVuSans-70"/>
    <use x="1132.515625" xlink:href="#DejaVuSans-65"/>
    <use x="1194.039062" xlink:href="#DejaVuSans-6e"/>
    <use x="1257.417969" xlink:href="#DejaVuSans-53"/>
    <use x="1320.894531" xlink:href="#DejaVuSans-74"/>
    <use x="1360.103516" xlink:href="#DejaVuSans-72"/>
    <use x="1398.966797" xlink:href="#DejaVuSans-65"/>
    <use x="1460.490234" xlink:href="#DejaVuSans-65"/>
    <use x="1522.013672" xlink:href="#DejaVuSans-74"/>
    <use x="1561.222656" xlink:href="#DejaVuSans-4d"/>
    <use x="1647.501953" xlink:href="#DejaVuSans-61"/>
    <use x="1708.78125" xlink:href="#DejaVuSans-70"/>
    <use x="1772.257812" xlink:href="#DejaVuSans-73"/>
   </g>
  </g>
 </g>
 <defs>
  <clipPath id="p7d868e3f4b">
   <rect height="96.865327" width="95.865993" x="0" y="9.3383"/>
  </clipPath>
 </defs>
</svg>
