<?xml version="1.0" encoding="utf-8" standalone="no"?>
<!DOCTYPE svg PUBLIC "-//W3C//DTD SVG 1.1//EN"
  "http://www.w3.org/Graphics/SVG/1.1/DTD/svg11.dtd">
<svg height="89.301362pt" version="1.1" viewBox="0 0 33.657192 89.301362" width="33.657192pt" xmlns="http://www.w3.org/2000/svg" xmlns:xlink="http://www.w3.org/1999/xlink">
 <metadata>
  <rdf:RDF xmlns:cc="http://creativecommons.org/ns#" xmlns:dc="http://purl.org/dc/elements/1.1/" xmlns:rdf="http://www.w3.org/1999/02/22-rdf-syntax-ns#">
   <cc:Work>
    <dc:type rdf:resource="http://purl.org/dc/dcmitype/StillImage"/>
    <dc:date>2022-04-14T21:28:34.519304</dc:date>
    <dc:format>image/svg+xml</dc:format>
    <dc:creator>
     <cc:Agent>
      <dc:title>Matplotlib v3.4.3, https://matplotlib.org/</dc:title>
     </cc:Agent>
    </dc:creator>
   </cc:Work>
  </rdf:RDF>
 </metadata>
 <defs>
  <style type="text/css">*{stroke-linecap:butt;stroke-linejoin:round;}</style>
 </defs>
 <g id="figure_1">
  <g id="patch_1">
   <path d="M 0 89.301362 
L 33.657192 89.301362 
L 33.657192 0 
L 0 0 
z
" style="fill:#ffffff;"/>
  </g>
  <g id="axes_1">
   <g id="line2d_1">
    <path clip-path="url(#p1b9748a2e5)" d="M 20.066215 78.122741 
L 21.077288 74.799363 
L 22.088361 71.475985 
L 23.099435 68.152607 
L 24.110508 64.829229 
" style="fill:none;stroke:#808080;stroke-linecap:square;stroke-width:1.5;"/>
   </g>
   <g id="line2d_2">
    <path clip-path="url(#p1b9748a2e5)" d="M 11.121545 69.119674 
L 10.923258 63.10636 
L 10.72497 57.093045 
L 10.526682 51.079731 
L 10.328394 45.066416 
L 10.130106 39.053102 
L 9.931818 33.039787 
L 9.73353 27.026473 
L 9.535242 21.013158 
" style="fill:none;stroke:#808080;stroke-linecap:square;stroke-width:1.5;"/>
   </g>
   <g id="line2d_3">
    <path clip-path="url(#p1b9748a2e5)" d="M 10.130236 69.228438 
L 10.029792 65.600325 
L 9.929348 61.972211 
L 9.828903 58.344097 
L 9.728459 54.715984 
L 9.628015 51.08787 
L 9.527571 47.459757 
L 9.427127 43.831643 
L 9.326682 40.203529 
L 9.226238 36.575416 
L 9.125794 32.947302 
L 9.02535 29.319189 
L 8.924906 25.691075 
L 8.824461 22.062961 
L 8.724017 18.434848 
L 8.623573 14.806734 
L 8.523129 11.178621 
" style="fill:none;stroke:#808080;stroke-linecap:square;stroke-width:1.5;"/>
   </g>
   <g id="line2d_4">
    <path clip-path="url(#p1b9748a2e5)" d="M 22.34321 63.212083 
L 22.13413 64.816349 
L 21.92505 66.420615 
L 21.520413 68.148671 
L 21.115775 69.876728 
L 20.780831 70.864188 
L 20.445887 71.851649 
L 20.110943 72.83911 
L 19.775999 73.826571 
L 19.357579 74.793281 
L 18.939159 75.759991 
L 18.52074 76.726701 
L 18.10232 77.69341 
" style="fill:none;stroke:#008000;stroke-linecap:square;stroke-width:1.5;"/>
   </g>
   <g id="line2d_5">
    <path clip-path="url(#p1b9748a2e5)" d="M 10.616009 12.751402 
L 11.024807 14.378566 
L 11.433605 16.00573 
L 11.696515 17.036839 
L 11.959426 18.067949 
L 12.222336 19.099058 
L 12.485246 20.130168 
L 12.633994 21.684345 
L 12.782743 23.238523 
L 12.931491 24.7927 
L 13.08024 26.346878 
L 13.212865 27.780127 
L 13.34549 29.213376 
L 13.478116 30.646626 
L 13.610741 32.079875 
L 13.617632 33.509547 
L 13.624524 34.939218 
L 13.631415 36.36889 
L 13.638306 37.798561 
L 13.645198 39.228233 
L 13.652089 40.657904 
L 13.65898 42.087576 
L 13.665872 43.517248 
L 13.652089 44.593795 
L 13.638306 45.670342 
L 13.624524 46.746889 
L 13.610741 47.823436 
L 13.540788 49.222338 
L 13.470834 50.621241 
L 13.400881 52.020144 
L 13.330928 53.419047 
L 13.205584 54.44801 
L 13.08024 55.476973 
L 13.010546 57.012546 
L 12.940853 58.548119 
L 13.03135 59.659012 
L 13.121848 60.769906 
L 13.212345 61.880799 
L 13.302842 62.991693 
L 13.477336 64.164481 
L 13.651829 65.33727 
L 13.826322 66.510059 
L 14.000816 67.682847 
L 13.735565 68.944364 
L 13.470314 70.205881 
L 13.261234 71.275631 
L 13.052154 72.34538 
L 12.843074 73.415129 
L 12.633994 74.484878 
" style="fill:none;stroke:#008000;stroke-linecap:square;stroke-width:1.5;"/>
   </g>
   <g id="line2d_6">
    <path clip-path="url(#p1b9748a2e5)" d="M 11.433605 16.00573 
L 10.443336 16.334884 
L 9.453067 16.664037 
L 7.890688 17.308749 
L 6.328309 17.953461 
L 5.616813 18.996019 
L 4.905317 20.038577 
L 4.556331 21.409574 
L 4.207344 22.78057 
L 3.984221 24.316859 
L 3.761099 25.853147 
L 3.537976 27.389436 
L 3.314854 28.925725 
L 3.056884 30.585088 
L 2.798915 32.244452 
L 2.540946 33.903815 
L 2.282976 35.563179 
L 2.0947 36.797505 
L 1.906424 38.031831 
L 1.718148 39.266157 
L 1.529872 40.500483 
L 1.808646 42.255731 
L 2.087419 44.010978 
L 2.868608 45.711844 
L 3.649798 47.412709 
L 4.005546 48.45491 
L 4.361293 49.49711 
L 4.717041 50.539311 
L 5.072789 51.581511 
L 5.212176 53.309568 
L 5.351563 55.037624 
L 5.261065 56.066229 
L 5.170568 57.094834 
L 5.080071 58.123439 
L 4.989574 59.152044 
L 4.794016 60.742715 
L 4.598459 62.333385 
L 4.486637 64.006345 
L 4.374816 65.679304 
L 4.458552 67.435267 
L 4.542288 69.191229 
L 5.058747 70.246668 
L 5.575205 71.302106 
L 6.412045 71.946818 
L 7.248885 72.591529 
" style="fill:none;stroke:#4169e1;stroke-linecap:square;stroke-width:1.5;"/>
   </g>
   <g id="line2d_7">
    <path clip-path="url(#p1b9748a2e5)" d="M 11.090339 11.490601 
L 12.457681 11.764657 
L 13.825022 12.038713 
L 15.108107 12.340676 
L 16.391193 12.642639 
L 17.869835 12.998983 
L 19.348478 13.355328 
L 20.325224 14.109519 
L 21.301971 14.86371 
L 21.971339 16.399999 
L 22.640707 17.936287 
L 22.640707 19.307284 
L 22.640707 20.67828 
L 22.321626 21.855362 
L 22.002545 23.032444 
L 21.683464 24.209526 
L 21.364383 25.386608 
L 20.830761 26.32398 
L 20.297139 27.261352 
L 19.51595 27.974757 
L 18.73476 28.688162 
L 17.453756 29.53609 
L 16.172751 30.384018 
L 14.891746 31.231947 
L 13.610741 32.079875 
" style="fill:none;stroke:#008000;stroke-linecap:square;stroke-width:1.5;"/>
   </g>
   <g id="line2d_8">
    <path clip-path="url(#p1b9748a2e5)" d="M 20.297139 27.261352 
L 21.803867 27.865278 
L 23.310595 28.469203 
L 24.85425 29.392264 
L 26.100408 30.223735 
L 26.937508 30.827302 
L 27.774608 31.43087 
L 28.611708 32.034438 
L 29.448808 32.638005 
L 30.285648 33.790043 
L 31.122488 34.94208 
L 31.373696 36.176406 
L 31.624904 37.410733 
L 31.876112 38.645059 
L 32.12732 39.879385 
L 31.941124 40.89189 
L 31.754929 41.904395 
L 31.568733 42.9169 
L 31.382538 43.929405 
L 30.517612 45.464978 
L 29.652687 47.000552 
L 28.850694 47.741147 
L 28.0487 48.481743 
L 27.246707 49.222338 
L 26.444714 49.962934 
L 25.426359 51.210856 
L 24.408005 52.458777 
L 23.486909 53.830489 
L 22.565813 55.202201 
L 22.175218 56.710583 
L 21.784623 58.218965 
L 21.92453 59.371003 
L 22.064437 60.523041 
L 22.203823 61.867562 
L 22.34321 63.212083 
" style="fill:none;stroke:#008000;stroke-linecap:square;stroke-width:1.5;"/>
   </g>
   <g id="line2d_9">
    <path clip-path="url(#p1b9748a2e5)" d="M 24.85425 29.392264 
L 25.007679 30.468811 
L 25.161109 31.545358 
L 25.314538 32.621905 
L 25.467967 33.698452 
L 25.579529 34.727057 
L 25.69109 35.755662 
L 25.802651 36.784267 
L 25.914212 37.812872 
L 25.858562 39.527333 
L 25.802911 41.241794 
L 25.175151 42.969135 
L 24.547391 44.696476 
L 24.107907 45.635995 
L 23.668423 46.575514 
L 23.228939 47.515033 
L 22.789455 48.454552 
L 22.719762 50.251301 
L 22.650069 52.048051 
L 22.607941 53.625126 
L 22.565813 55.202201 
" style="fill:none;stroke:#4169e1;stroke-linecap:square;stroke-width:1.5;"/>
   </g>
   <g id="line2d_10">
    <path clip-path="url(#p1b9748a2e5)" d="M 22.789455 48.454552 
L 21.097052 49.111428 
L 19.404648 49.768304 
L 17.981656 50.398705 
L 16.558665 51.029106 
L 15.75173 51.626591 
L 14.944796 52.224076 
L 14.137862 52.821562 
L 13.330928 53.419047 
" style="fill:none;stroke:#008000;stroke-linecap:square;stroke-width:1.5;"/>
   </g>
   <g id="line2d_11">
    <path clip-path="url(#p1b9748a2e5)" d="M 21.784623 58.218965 
L 20.455249 59.492647 
L 19.125875 60.766328 
L 18.42114 61.589212 
L 17.716406 62.412096 
L 17.011671 63.23498 
L 16.306936 64.057864 
L 15.730406 64.96411 
L 15.153876 65.870356 
L 14.577346 66.776602 
L 14.000816 67.682847 
" style="fill:none;stroke:#008000;stroke-linecap:square;stroke-width:1.5;"/>
   </g>
   <g id="text_1">
    <g id="patch_2">
     <path d="M 9.183768 43.27476 
L 9.896001 58.974237 
L 11.869596 58.884702 
L 11.157363 43.185224 
z
" style="fill:#ffffff;"/>
    </g>
    <!-- 1100' Rope Tow -->
    <g style="fill:#808080;" transform="translate(9.620164 43.274982)rotate(-272.597537)scale(0.02 -0.02)">
     <defs>
      <path d="M 794 531 
L 1825 531 
L 1825 4091 
L 703 3866 
L 703 4441 
L 1819 4666 
L 2450 4666 
L 2450 531 
L 3481 531 
L 3481 0 
L 794 0 
L 794 531 
z
" id="DejaVuSans-31" transform="scale(0.015625)"/>
      <path d="M 2034 4250 
Q 1547 4250 1301 3770 
Q 1056 3291 1056 2328 
Q 1056 1369 1301 889 
Q 1547 409 2034 409 
Q 2525 409 2770 889 
Q 3016 1369 3016 2328 
Q 3016 3291 2770 3770 
Q 2525 4250 2034 4250 
z
M 2034 4750 
Q 2819 4750 3233 4129 
Q 3647 3509 3647 2328 
Q 3647 1150 3233 529 
Q 2819 -91 2034 -91 
Q 1250 -91 836 529 
Q 422 1150 422 2328 
Q 422 3509 836 4129 
Q 1250 4750 2034 4750 
z
" id="DejaVuSans-30" transform="scale(0.015625)"/>
      <path d="M 1147 4666 
L 1147 2931 
L 616 2931 
L 616 4666 
L 1147 4666 
z
" id="DejaVuSans-27" transform="scale(0.015625)"/>
      <path id="DejaVuSans-20" transform="scale(0.015625)"/>
      <path d="M 2841 2188 
Q 3044 2119 3236 1894 
Q 3428 1669 3622 1275 
L 4263 0 
L 3584 0 
L 2988 1197 
Q 2756 1666 2539 1819 
Q 2322 1972 1947 1972 
L 1259 1972 
L 1259 0 
L 628 0 
L 628 4666 
L 2053 4666 
Q 2853 4666 3247 4331 
Q 3641 3997 3641 3322 
Q 3641 2881 3436 2590 
Q 3231 2300 2841 2188 
z
M 1259 4147 
L 1259 2491 
L 2053 2491 
Q 2509 2491 2742 2702 
Q 2975 2913 2975 3322 
Q 2975 3731 2742 3939 
Q 2509 4147 2053 4147 
L 1259 4147 
z
" id="DejaVuSans-52" transform="scale(0.015625)"/>
      <path d="M 1959 3097 
Q 1497 3097 1228 2736 
Q 959 2375 959 1747 
Q 959 1119 1226 758 
Q 1494 397 1959 397 
Q 2419 397 2687 759 
Q 2956 1122 2956 1747 
Q 2956 2369 2687 2733 
Q 2419 3097 1959 3097 
z
M 1959 3584 
Q 2709 3584 3137 3096 
Q 3566 2609 3566 1747 
Q 3566 888 3137 398 
Q 2709 -91 1959 -91 
Q 1206 -91 779 398 
Q 353 888 353 1747 
Q 353 2609 779 3096 
Q 1206 3584 1959 3584 
z
" id="DejaVuSans-6f" transform="scale(0.015625)"/>
      <path d="M 1159 525 
L 1159 -1331 
L 581 -1331 
L 581 3500 
L 1159 3500 
L 1159 2969 
Q 1341 3281 1617 3432 
Q 1894 3584 2278 3584 
Q 2916 3584 3314 3078 
Q 3713 2572 3713 1747 
Q 3713 922 3314 415 
Q 2916 -91 2278 -91 
Q 1894 -91 1617 61 
Q 1341 213 1159 525 
z
M 3116 1747 
Q 3116 2381 2855 2742 
Q 2594 3103 2138 3103 
Q 1681 3103 1420 2742 
Q 1159 2381 1159 1747 
Q 1159 1113 1420 752 
Q 1681 391 2138 391 
Q 2594 391 2855 752 
Q 3116 1113 3116 1747 
z
" id="DejaVuSans-70" transform="scale(0.015625)"/>
      <path d="M 3597 1894 
L 3597 1613 
L 953 1613 
Q 991 1019 1311 708 
Q 1631 397 2203 397 
Q 2534 397 2845 478 
Q 3156 559 3463 722 
L 3463 178 
Q 3153 47 2828 -22 
Q 2503 -91 2169 -91 
Q 1331 -91 842 396 
Q 353 884 353 1716 
Q 353 2575 817 3079 
Q 1281 3584 2069 3584 
Q 2775 3584 3186 3129 
Q 3597 2675 3597 1894 
z
M 3022 2063 
Q 3016 2534 2758 2815 
Q 2500 3097 2075 3097 
Q 1594 3097 1305 2825 
Q 1016 2553 972 2059 
L 3022 2063 
z
" id="DejaVuSans-65" transform="scale(0.015625)"/>
      <path d="M -19 4666 
L 3928 4666 
L 3928 4134 
L 2272 4134 
L 2272 0 
L 1638 0 
L 1638 4134 
L -19 4134 
L -19 4666 
z
" id="DejaVuSans-54" transform="scale(0.015625)"/>
      <path d="M 269 3500 
L 844 3500 
L 1563 769 
L 2278 3500 
L 2956 3500 
L 3675 769 
L 4391 3500 
L 4966 3500 
L 4050 0 
L 3372 0 
L 2619 2869 
L 1863 0 
L 1184 0 
L 269 3500 
z
" id="DejaVuSans-77" transform="scale(0.015625)"/>
     </defs>
     <use xlink:href="#DejaVuSans-31"/>
     <use x="63.623047" xlink:href="#DejaVuSans-31"/>
     <use x="127.246094" xlink:href="#DejaVuSans-30"/>
     <use x="190.869141" xlink:href="#DejaVuSans-30"/>
     <use x="254.492188" xlink:href="#DejaVuSans-27"/>
     <use x="281.982422" xlink:href="#DejaVuSans-20"/>
     <use x="313.769531" xlink:href="#DejaVuSans-52"/>
     <use x="378.751953" xlink:href="#DejaVuSans-6f"/>
     <use x="439.933594" xlink:href="#DejaVuSans-70"/>
     <use x="503.410156" xlink:href="#DejaVuSans-65"/>
     <use x="564.933594" xlink:href="#DejaVuSans-20"/>
     <use x="596.720703" xlink:href="#DejaVuSans-54"/>
     <use x="640.804688" xlink:href="#DejaVuSans-6f"/>
     <use x="701.986328" xlink:href="#DejaVuSans-77"/>
    </g>
   </g>
   <g id="text_2">
    <g id="patch_3">
     <path d="M 8.442998 46.920199 
L 9.039727 62.586964 
L 11.013921 62.511769 
L 10.417191 46.845004 
z
" style="fill:#ffffff;"/>
    </g>
    <!-- Cochran's T-Bar -->
    <g style="fill:#808080;" transform="translate(8.87938 46.923592)rotate(-272.181279)scale(0.02 -0.02)">
     <defs>
      <path d="M 4122 4306 
L 4122 3641 
Q 3803 3938 3442 4084 
Q 3081 4231 2675 4231 
Q 1875 4231 1450 3742 
Q 1025 3253 1025 2328 
Q 1025 1406 1450 917 
Q 1875 428 2675 428 
Q 3081 428 3442 575 
Q 3803 722 4122 1019 
L 4122 359 
Q 3791 134 3420 21 
Q 3050 -91 2638 -91 
Q 1578 -91 968 557 
Q 359 1206 359 2328 
Q 359 3453 968 4101 
Q 1578 4750 2638 4750 
Q 3056 4750 3426 4639 
Q 3797 4528 4122 4306 
z
" id="DejaVuSans-43" transform="scale(0.015625)"/>
      <path d="M 3122 3366 
L 3122 2828 
Q 2878 2963 2633 3030 
Q 2388 3097 2138 3097 
Q 1578 3097 1268 2742 
Q 959 2388 959 1747 
Q 959 1106 1268 751 
Q 1578 397 2138 397 
Q 2388 397 2633 464 
Q 2878 531 3122 666 
L 3122 134 
Q 2881 22 2623 -34 
Q 2366 -91 2075 -91 
Q 1284 -91 818 406 
Q 353 903 353 1747 
Q 353 2603 823 3093 
Q 1294 3584 2113 3584 
Q 2378 3584 2631 3529 
Q 2884 3475 3122 3366 
z
" id="DejaVuSans-63" transform="scale(0.015625)"/>
      <path d="M 3513 2113 
L 3513 0 
L 2938 0 
L 2938 2094 
Q 2938 2591 2744 2837 
Q 2550 3084 2163 3084 
Q 1697 3084 1428 2787 
Q 1159 2491 1159 1978 
L 1159 0 
L 581 0 
L 581 4863 
L 1159 4863 
L 1159 2956 
Q 1366 3272 1645 3428 
Q 1925 3584 2291 3584 
Q 2894 3584 3203 3211 
Q 3513 2838 3513 2113 
z
" id="DejaVuSans-68" transform="scale(0.015625)"/>
      <path d="M 2631 2963 
Q 2534 3019 2420 3045 
Q 2306 3072 2169 3072 
Q 1681 3072 1420 2755 
Q 1159 2438 1159 1844 
L 1159 0 
L 581 0 
L 581 3500 
L 1159 3500 
L 1159 2956 
Q 1341 3275 1631 3429 
Q 1922 3584 2338 3584 
Q 2397 3584 2469 3576 
Q 2541 3569 2628 3553 
L 2631 2963 
z
" id="DejaVuSans-72" transform="scale(0.015625)"/>
      <path d="M 2194 1759 
Q 1497 1759 1228 1600 
Q 959 1441 959 1056 
Q 959 750 1161 570 
Q 1363 391 1709 391 
Q 2188 391 2477 730 
Q 2766 1069 2766 1631 
L 2766 1759 
L 2194 1759 
z
M 3341 1997 
L 3341 0 
L 2766 0 
L 2766 531 
Q 2569 213 2275 61 
Q 1981 -91 1556 -91 
Q 1019 -91 701 211 
Q 384 513 384 1019 
Q 384 1609 779 1909 
Q 1175 2209 1959 2209 
L 2766 2209 
L 2766 2266 
Q 2766 2663 2505 2880 
Q 2244 3097 1772 3097 
Q 1472 3097 1187 3025 
Q 903 2953 641 2809 
L 641 3341 
Q 956 3463 1253 3523 
Q 1550 3584 1831 3584 
Q 2591 3584 2966 3190 
Q 3341 2797 3341 1997 
z
" id="DejaVuSans-61" transform="scale(0.015625)"/>
      <path d="M 3513 2113 
L 3513 0 
L 2938 0 
L 2938 2094 
Q 2938 2591 2744 2837 
Q 2550 3084 2163 3084 
Q 1697 3084 1428 2787 
Q 1159 2491 1159 1978 
L 1159 0 
L 581 0 
L 581 3500 
L 1159 3500 
L 1159 2956 
Q 1366 3272 1645 3428 
Q 1925 3584 2291 3584 
Q 2894 3584 3203 3211 
Q 3513 2838 3513 2113 
z
" id="DejaVuSans-6e" transform="scale(0.015625)"/>
      <path d="M 2834 3397 
L 2834 2853 
Q 2591 2978 2328 3040 
Q 2066 3103 1784 3103 
Q 1356 3103 1142 2972 
Q 928 2841 928 2578 
Q 928 2378 1081 2264 
Q 1234 2150 1697 2047 
L 1894 2003 
Q 2506 1872 2764 1633 
Q 3022 1394 3022 966 
Q 3022 478 2636 193 
Q 2250 -91 1575 -91 
Q 1294 -91 989 -36 
Q 684 19 347 128 
L 347 722 
Q 666 556 975 473 
Q 1284 391 1588 391 
Q 1994 391 2212 530 
Q 2431 669 2431 922 
Q 2431 1156 2273 1281 
Q 2116 1406 1581 1522 
L 1381 1569 
Q 847 1681 609 1914 
Q 372 2147 372 2553 
Q 372 3047 722 3315 
Q 1072 3584 1716 3584 
Q 2034 3584 2315 3537 
Q 2597 3491 2834 3397 
z
" id="DejaVuSans-73" transform="scale(0.015625)"/>
      <path d="M 313 2009 
L 1997 2009 
L 1997 1497 
L 313 1497 
L 313 2009 
z
" id="DejaVuSans-2d" transform="scale(0.015625)"/>
      <path d="M 1259 2228 
L 1259 519 
L 2272 519 
Q 2781 519 3026 730 
Q 3272 941 3272 1375 
Q 3272 1813 3026 2020 
Q 2781 2228 2272 2228 
L 1259 2228 
z
M 1259 4147 
L 1259 2741 
L 2194 2741 
Q 2656 2741 2882 2914 
Q 3109 3088 3109 3444 
Q 3109 3797 2882 3972 
Q 2656 4147 2194 4147 
L 1259 4147 
z
M 628 4666 
L 2241 4666 
Q 2963 4666 3353 4366 
Q 3744 4066 3744 3513 
Q 3744 3084 3544 2831 
Q 3344 2578 2956 2516 
Q 3422 2416 3680 2098 
Q 3938 1781 3938 1306 
Q 3938 681 3513 340 
Q 3088 0 2303 0 
L 628 0 
L 628 4666 
z
" id="DejaVuSans-42" transform="scale(0.015625)"/>
     </defs>
     <use xlink:href="#DejaVuSans-43"/>
     <use x="69.824219" xlink:href="#DejaVuSans-6f"/>
     <use x="131.005859" xlink:href="#DejaVuSans-63"/>
     <use x="185.986328" xlink:href="#DejaVuSans-68"/>
     <use x="249.365234" xlink:href="#DejaVuSans-72"/>
     <use x="290.478516" xlink:href="#DejaVuSans-61"/>
     <use x="351.757812" xlink:href="#DejaVuSans-6e"/>
     <use x="415.136719" xlink:href="#DejaVuSans-27"/>
     <use x="442.626953" xlink:href="#DejaVuSans-73"/>
     <use x="494.726562" xlink:href="#DejaVuSans-20"/>
     <use x="526.513672" xlink:href="#DejaVuSans-54"/>
     <use x="578.472656" xlink:href="#DejaVuSans-2d"/>
     <use x="610.931641" xlink:href="#DejaVuSans-42"/>
     <use x="679.535156" xlink:href="#DejaVuSans-61"/>
     <use x="740.814453" xlink:href="#DejaVuSans-72"/>
    </g>
   </g>
   <g id="text_3">
    <g id="patch_4">
     <path d="M 11.867691 25.818694 
L 13.128734 35.724058 
L 15.08854 35.474557 
L 13.827498 25.569193 
z
" style="fill:#ffffff;"/>
    </g>
    <!-- I-89 15.8° -->
    <g style="fill:#008000;" transform="translate(12.302664 25.78348)rotate(-277.255242)scale(0.02 -0.02)">
     <defs>
      <path d="M 628 4666 
L 1259 4666 
L 1259 0 
L 628 0 
L 628 4666 
z
" id="DejaVuSans-49" transform="scale(0.015625)"/>
      <path d="M 2034 2216 
Q 1584 2216 1326 1975 
Q 1069 1734 1069 1313 
Q 1069 891 1326 650 
Q 1584 409 2034 409 
Q 2484 409 2743 651 
Q 3003 894 3003 1313 
Q 3003 1734 2745 1975 
Q 2488 2216 2034 2216 
z
M 1403 2484 
Q 997 2584 770 2862 
Q 544 3141 544 3541 
Q 544 4100 942 4425 
Q 1341 4750 2034 4750 
Q 2731 4750 3128 4425 
Q 3525 4100 3525 3541 
Q 3525 3141 3298 2862 
Q 3072 2584 2669 2484 
Q 3125 2378 3379 2068 
Q 3634 1759 3634 1313 
Q 3634 634 3220 271 
Q 2806 -91 2034 -91 
Q 1263 -91 848 271 
Q 434 634 434 1313 
Q 434 1759 690 2068 
Q 947 2378 1403 2484 
z
M 1172 3481 
Q 1172 3119 1398 2916 
Q 1625 2713 2034 2713 
Q 2441 2713 2670 2916 
Q 2900 3119 2900 3481 
Q 2900 3844 2670 4047 
Q 2441 4250 2034 4250 
Q 1625 4250 1398 4047 
Q 1172 3844 1172 3481 
z
" id="DejaVuSans-38" transform="scale(0.015625)"/>
      <path d="M 703 97 
L 703 672 
Q 941 559 1184 500 
Q 1428 441 1663 441 
Q 2288 441 2617 861 
Q 2947 1281 2994 2138 
Q 2813 1869 2534 1725 
Q 2256 1581 1919 1581 
Q 1219 1581 811 2004 
Q 403 2428 403 3163 
Q 403 3881 828 4315 
Q 1253 4750 1959 4750 
Q 2769 4750 3195 4129 
Q 3622 3509 3622 2328 
Q 3622 1225 3098 567 
Q 2575 -91 1691 -91 
Q 1453 -91 1209 -44 
Q 966 3 703 97 
z
M 1959 2075 
Q 2384 2075 2632 2365 
Q 2881 2656 2881 3163 
Q 2881 3666 2632 3958 
Q 2384 4250 1959 4250 
Q 1534 4250 1286 3958 
Q 1038 3666 1038 3163 
Q 1038 2656 1286 2365 
Q 1534 2075 1959 2075 
z
" id="DejaVuSans-39" transform="scale(0.015625)"/>
      <path d="M 691 4666 
L 3169 4666 
L 3169 4134 
L 1269 4134 
L 1269 2991 
Q 1406 3038 1543 3061 
Q 1681 3084 1819 3084 
Q 2600 3084 3056 2656 
Q 3513 2228 3513 1497 
Q 3513 744 3044 326 
Q 2575 -91 1722 -91 
Q 1428 -91 1123 -41 
Q 819 9 494 109 
L 494 744 
Q 775 591 1075 516 
Q 1375 441 1709 441 
Q 2250 441 2565 725 
Q 2881 1009 2881 1497 
Q 2881 1984 2565 2268 
Q 2250 2553 1709 2553 
Q 1456 2553 1204 2497 
Q 953 2441 691 2322 
L 691 4666 
z
" id="DejaVuSans-35" transform="scale(0.015625)"/>
      <path d="M 684 794 
L 1344 794 
L 1344 0 
L 684 0 
L 684 794 
z
" id="DejaVuSans-2e" transform="scale(0.015625)"/>
      <path d="M 1600 4347 
Q 1350 4347 1178 4173 
Q 1006 4000 1006 3750 
Q 1006 3503 1178 3333 
Q 1350 3163 1600 3163 
Q 1850 3163 2022 3333 
Q 2194 3503 2194 3750 
Q 2194 3997 2020 4172 
Q 1847 4347 1600 4347 
z
M 1600 4750 
Q 1800 4750 1984 4673 
Q 2169 4597 2303 4453 
Q 2447 4313 2519 4134 
Q 2591 3956 2591 3750 
Q 2591 3338 2302 3052 
Q 2013 2766 1594 2766 
Q 1172 2766 890 3047 
Q 609 3328 609 3750 
Q 609 4169 896 4459 
Q 1184 4750 1600 4750 
z
" id="DejaVuSans-b0" transform="scale(0.015625)"/>
     </defs>
     <use xlink:href="#DejaVuSans-49"/>
     <use x="29.492188" xlink:href="#DejaVuSans-2d"/>
     <use x="65.576172" xlink:href="#DejaVuSans-38"/>
     <use x="129.199219" xlink:href="#DejaVuSans-39"/>
     <use x="192.822266" xlink:href="#DejaVuSans-20"/>
     <use x="224.609375" xlink:href="#DejaVuSans-31"/>
     <use x="288.232422" xlink:href="#DejaVuSans-35"/>
     <use x="351.855469" xlink:href="#DejaVuSans-2e"/>
     <use x="383.642578" xlink:href="#DejaVuSans-38"/>
     <use x="447.265625" xlink:href="#DejaVuSans-b0"/>
    </g>
   </g>
   <g id="text_4">
    <g id="patch_5">
     <path d="M 2.37569 38.492825 
L 5.670007 23.090563 
L 3.738078 22.677352 
L 0.443761 38.079614 
z
" style="fill:#ffffff;"/>
    </g>
    <!-- Race Trail 21.8° -->
    <g style="fill:#4169e1;" transform="translate(1.953578 38.382089)rotate(-77.92718)scale(0.02 -0.02)">
     <defs>
      <path d="M 603 3500 
L 1178 3500 
L 1178 0 
L 603 0 
L 603 3500 
z
M 603 4863 
L 1178 4863 
L 1178 4134 
L 603 4134 
L 603 4863 
z
" id="DejaVuSans-69" transform="scale(0.015625)"/>
      <path d="M 603 4863 
L 1178 4863 
L 1178 0 
L 603 0 
L 603 4863 
z
" id="DejaVuSans-6c" transform="scale(0.015625)"/>
      <path d="M 1228 531 
L 3431 531 
L 3431 0 
L 469 0 
L 469 531 
Q 828 903 1448 1529 
Q 2069 2156 2228 2338 
Q 2531 2678 2651 2914 
Q 2772 3150 2772 3378 
Q 2772 3750 2511 3984 
Q 2250 4219 1831 4219 
Q 1534 4219 1204 4116 
Q 875 4013 500 3803 
L 500 4441 
Q 881 4594 1212 4672 
Q 1544 4750 1819 4750 
Q 2544 4750 2975 4387 
Q 3406 4025 3406 3419 
Q 3406 3131 3298 2873 
Q 3191 2616 2906 2266 
Q 2828 2175 2409 1742 
Q 1991 1309 1228 531 
z
" id="DejaVuSans-32" transform="scale(0.015625)"/>
     </defs>
     <use xlink:href="#DejaVuSans-52"/>
     <use x="67.232422" xlink:href="#DejaVuSans-61"/>
     <use x="128.511719" xlink:href="#DejaVuSans-63"/>
     <use x="183.492188" xlink:href="#DejaVuSans-65"/>
     <use x="245.015625" xlink:href="#DejaVuSans-20"/>
     <use x="276.802734" xlink:href="#DejaVuSans-54"/>
     <use x="323.136719" xlink:href="#DejaVuSans-72"/>
     <use x="364.25" xlink:href="#DejaVuSans-61"/>
     <use x="425.529297" xlink:href="#DejaVuSans-69"/>
     <use x="453.3125" xlink:href="#DejaVuSans-6c"/>
     <use x="481.095703" xlink:href="#DejaVuSans-20"/>
     <use x="512.882812" xlink:href="#DejaVuSans-32"/>
     <use x="576.505859" xlink:href="#DejaVuSans-31"/>
     <use x="640.128906" xlink:href="#DejaVuSans-2e"/>
     <use x="671.916016" xlink:href="#DejaVuSans-38"/>
     <use x="735.539062" xlink:href="#DejaVuSans-b0"/>
    </g>
   </g>
   <g id="text_5">
    <g id="patch_6">
     <path d="M 20.19046 31.039637 
L 25.027549 18.069773 
L 23.176468 17.379415 
L 18.339379 30.349279 
z
" style="fill:#ffffff;"/>
    </g>
    <!-- Route 2 11.1° -->
    <g style="fill:#008000;" transform="translate(19.788993 30.868565)rotate(-69.547084)scale(0.02 -0.02)">
     <defs>
      <path d="M 544 1381 
L 544 3500 
L 1119 3500 
L 1119 1403 
Q 1119 906 1312 657 
Q 1506 409 1894 409 
Q 2359 409 2629 706 
Q 2900 1003 2900 1516 
L 2900 3500 
L 3475 3500 
L 3475 0 
L 2900 0 
L 2900 538 
Q 2691 219 2414 64 
Q 2138 -91 1772 -91 
Q 1169 -91 856 284 
Q 544 659 544 1381 
z
M 1991 3584 
L 1991 3584 
z
" id="DejaVuSans-75" transform="scale(0.015625)"/>
      <path d="M 1172 4494 
L 1172 3500 
L 2356 3500 
L 2356 3053 
L 1172 3053 
L 1172 1153 
Q 1172 725 1289 603 
Q 1406 481 1766 481 
L 2356 481 
L 2356 0 
L 1766 0 
Q 1100 0 847 248 
Q 594 497 594 1153 
L 594 3053 
L 172 3053 
L 172 3500 
L 594 3500 
L 594 4494 
L 1172 4494 
z
" id="DejaVuSans-74" transform="scale(0.015625)"/>
     </defs>
     <use xlink:href="#DejaVuSans-52"/>
     <use x="64.982422" xlink:href="#DejaVuSans-6f"/>
     <use x="126.164062" xlink:href="#DejaVuSans-75"/>
     <use x="189.542969" xlink:href="#DejaVuSans-74"/>
     <use x="228.751953" xlink:href="#DejaVuSans-65"/>
     <use x="290.275391" xlink:href="#DejaVuSans-20"/>
     <use x="322.0625" xlink:href="#DejaVuSans-32"/>
     <use x="385.685547" xlink:href="#DejaVuSans-20"/>
     <use x="417.472656" xlink:href="#DejaVuSans-31"/>
     <use x="481.095703" xlink:href="#DejaVuSans-31"/>
     <use x="544.71875" xlink:href="#DejaVuSans-2e"/>
     <use x="576.505859" xlink:href="#DejaVuSans-31"/>
     <use x="640.128906" xlink:href="#DejaVuSans-b0"/>
    </g>
   </g>
   <g id="text_6">
    <g id="patch_7">
     <path d="M 28.709537 30.999449 
L 33.140231 46.823356 
L 35.042687 46.290668 
L 30.611993 30.466762 
z
" style="fill:#ffffff;"/>
    </g>
    <!-- The Elbow 12.9° -->
    <g style="fill:#008000;" transform="translate(29.134722 30.901167)rotate(-285.642246)scale(0.02 -0.02)">
     <defs>
      <path d="M 628 4666 
L 3578 4666 
L 3578 4134 
L 1259 4134 
L 1259 2753 
L 3481 2753 
L 3481 2222 
L 1259 2222 
L 1259 531 
L 3634 531 
L 3634 0 
L 628 0 
L 628 4666 
z
" id="DejaVuSans-45" transform="scale(0.015625)"/>
      <path d="M 3116 1747 
Q 3116 2381 2855 2742 
Q 2594 3103 2138 3103 
Q 1681 3103 1420 2742 
Q 1159 2381 1159 1747 
Q 1159 1113 1420 752 
Q 1681 391 2138 391 
Q 2594 391 2855 752 
Q 3116 1113 3116 1747 
z
M 1159 2969 
Q 1341 3281 1617 3432 
Q 1894 3584 2278 3584 
Q 2916 3584 3314 3078 
Q 3713 2572 3713 1747 
Q 3713 922 3314 415 
Q 2916 -91 2278 -91 
Q 1894 -91 1617 61 
Q 1341 213 1159 525 
L 1159 0 
L 581 0 
L 581 4863 
L 1159 4863 
L 1159 2969 
z
" id="DejaVuSans-62" transform="scale(0.015625)"/>
     </defs>
     <use xlink:href="#DejaVuSans-54"/>
     <use x="61.083984" xlink:href="#DejaVuSans-68"/>
     <use x="124.462891" xlink:href="#DejaVuSans-65"/>
     <use x="185.986328" xlink:href="#DejaVuSans-20"/>
     <use x="217.773438" xlink:href="#DejaVuSans-45"/>
     <use x="280.957031" xlink:href="#DejaVuSans-6c"/>
     <use x="308.740234" xlink:href="#DejaVuSans-62"/>
     <use x="372.216797" xlink:href="#DejaVuSans-6f"/>
     <use x="433.398438" xlink:href="#DejaVuSans-77"/>
     <use x="515.185547" xlink:href="#DejaVuSans-20"/>
     <use x="546.972656" xlink:href="#DejaVuSans-31"/>
     <use x="610.595703" xlink:href="#DejaVuSans-32"/>
     <use x="674.21875" xlink:href="#DejaVuSans-2e"/>
     <use x="706.005859" xlink:href="#DejaVuSans-39"/>
     <use x="769.628906" xlink:href="#DejaVuSans-b0"/>
    </g>
   </g>
   <g id="text_7">
    <g id="patch_8">
     <path d="M 26.454966 48.782299 
L 27.124514 33.789429 
L 25.150856 33.70129 
L 24.481308 48.69416 
z
" style="fill:#ffffff;"/>
    </g>
    <!-- The Face 23.0° -->
    <g style="fill:#4169e1;" transform="translate(26.020355 48.74287)rotate(-87.442998)scale(0.02 -0.02)">
     <defs>
      <path d="M 628 4666 
L 3309 4666 
L 3309 4134 
L 1259 4134 
L 1259 2759 
L 3109 2759 
L 3109 2228 
L 1259 2228 
L 1259 0 
L 628 0 
L 628 4666 
z
" id="DejaVuSans-46" transform="scale(0.015625)"/>
      <path d="M 2597 2516 
Q 3050 2419 3304 2112 
Q 3559 1806 3559 1356 
Q 3559 666 3084 287 
Q 2609 -91 1734 -91 
Q 1441 -91 1130 -33 
Q 819 25 488 141 
L 488 750 
Q 750 597 1062 519 
Q 1375 441 1716 441 
Q 2309 441 2620 675 
Q 2931 909 2931 1356 
Q 2931 1769 2642 2001 
Q 2353 2234 1838 2234 
L 1294 2234 
L 1294 2753 
L 1863 2753 
Q 2328 2753 2575 2939 
Q 2822 3125 2822 3475 
Q 2822 3834 2567 4026 
Q 2313 4219 1838 4219 
Q 1578 4219 1281 4162 
Q 984 4106 628 3988 
L 628 4550 
Q 988 4650 1302 4700 
Q 1616 4750 1894 4750 
Q 2613 4750 3031 4423 
Q 3450 4097 3450 3541 
Q 3450 3153 3228 2886 
Q 3006 2619 2597 2516 
z
" id="DejaVuSans-33" transform="scale(0.015625)"/>
     </defs>
     <use xlink:href="#DejaVuSans-54"/>
     <use x="61.083984" xlink:href="#DejaVuSans-68"/>
     <use x="124.462891" xlink:href="#DejaVuSans-65"/>
     <use x="185.986328" xlink:href="#DejaVuSans-20"/>
     <use x="217.773438" xlink:href="#DejaVuSans-46"/>
     <use x="266.167969" xlink:href="#DejaVuSans-61"/>
     <use x="327.447266" xlink:href="#DejaVuSans-63"/>
     <use x="382.427734" xlink:href="#DejaVuSans-65"/>
     <use x="443.951172" xlink:href="#DejaVuSans-20"/>
     <use x="475.738281" xlink:href="#DejaVuSans-32"/>
     <use x="539.361328" xlink:href="#DejaVuSans-33"/>
     <use x="602.984375" xlink:href="#DejaVuSans-2e"/>
     <use x="634.771484" xlink:href="#DejaVuSans-30"/>
     <use x="698.394531" xlink:href="#DejaVuSans-b0"/>
    </g>
   </g>
   <g id="text_8">
    <!-- Cochran's -->
    <g transform="translate(4.460627 5.331415)scale(0.05 -0.05)">
     <use xlink:href="#DejaVuSans-43"/>
     <use x="69.824219" xlink:href="#DejaVuSans-6f"/>
     <use x="131.005859" xlink:href="#DejaVuSans-63"/>
     <use x="185.986328" xlink:href="#DejaVuSans-68"/>
     <use x="249.365234" xlink:href="#DejaVuSans-72"/>
     <use x="290.478516" xlink:href="#DejaVuSans-61"/>
     <use x="351.757812" xlink:href="#DejaVuSans-6e"/>
     <use x="415.136719" xlink:href="#DejaVuSans-27"/>
     <use x="442.626953" xlink:href="#DejaVuSans-73"/>
    </g>
   </g>
  </g>
  <g id="text_9">
   <!-- Sources: USGS and OpenStreetMaps -->
   <g transform="translate(-3.001737 88.849256)scale(0.021739 -0.021739)">
    <defs>
     <path d="M 3425 4513 
L 3425 3897 
Q 3066 4069 2747 4153 
Q 2428 4238 2131 4238 
Q 1616 4238 1336 4038 
Q 1056 3838 1056 3469 
Q 1056 3159 1242 3001 
Q 1428 2844 1947 2747 
L 2328 2669 
Q 3034 2534 3370 2195 
Q 3706 1856 3706 1288 
Q 3706 609 3251 259 
Q 2797 -91 1919 -91 
Q 1588 -91 1214 -16 
Q 841 59 441 206 
L 441 856 
Q 825 641 1194 531 
Q 1563 422 1919 422 
Q 2459 422 2753 634 
Q 3047 847 3047 1241 
Q 3047 1584 2836 1778 
Q 2625 1972 2144 2069 
L 1759 2144 
Q 1053 2284 737 2584 
Q 422 2884 422 3419 
Q 422 4038 858 4394 
Q 1294 4750 2059 4750 
Q 2388 4750 2728 4690 
Q 3069 4631 3425 4513 
z
" id="DejaVuSans-53" transform="scale(0.015625)"/>
     <path d="M 750 794 
L 1409 794 
L 1409 0 
L 750 0 
L 750 794 
z
M 750 3309 
L 1409 3309 
L 1409 2516 
L 750 2516 
L 750 3309 
z
" id="DejaVuSans-3a" transform="scale(0.015625)"/>
     <path d="M 556 4666 
L 1191 4666 
L 1191 1831 
Q 1191 1081 1462 751 
Q 1734 422 2344 422 
Q 2950 422 3222 751 
Q 3494 1081 3494 1831 
L 3494 4666 
L 4128 4666 
L 4128 1753 
Q 4128 841 3676 375 
Q 3225 -91 2344 -91 
Q 1459 -91 1007 375 
Q 556 841 556 1753 
L 556 4666 
z
" id="DejaVuSans-55" transform="scale(0.015625)"/>
     <path d="M 3809 666 
L 3809 1919 
L 2778 1919 
L 2778 2438 
L 4434 2438 
L 4434 434 
Q 4069 175 3628 42 
Q 3188 -91 2688 -91 
Q 1594 -91 976 548 
Q 359 1188 359 2328 
Q 359 3472 976 4111 
Q 1594 4750 2688 4750 
Q 3144 4750 3555 4637 
Q 3966 4525 4313 4306 
L 4313 3634 
Q 3963 3931 3569 4081 
Q 3175 4231 2741 4231 
Q 1884 4231 1454 3753 
Q 1025 3275 1025 2328 
Q 1025 1384 1454 906 
Q 1884 428 2741 428 
Q 3075 428 3337 486 
Q 3600 544 3809 666 
z
" id="DejaVuSans-47" transform="scale(0.015625)"/>
     <path d="M 2906 2969 
L 2906 4863 
L 3481 4863 
L 3481 0 
L 2906 0 
L 2906 525 
Q 2725 213 2448 61 
Q 2172 -91 1784 -91 
Q 1150 -91 751 415 
Q 353 922 353 1747 
Q 353 2572 751 3078 
Q 1150 3584 1784 3584 
Q 2172 3584 2448 3432 
Q 2725 3281 2906 2969 
z
M 947 1747 
Q 947 1113 1208 752 
Q 1469 391 1925 391 
Q 2381 391 2643 752 
Q 2906 1113 2906 1747 
Q 2906 2381 2643 2742 
Q 2381 3103 1925 3103 
Q 1469 3103 1208 2742 
Q 947 2381 947 1747 
z
" id="DejaVuSans-64" transform="scale(0.015625)"/>
     <path d="M 2522 4238 
Q 1834 4238 1429 3725 
Q 1025 3213 1025 2328 
Q 1025 1447 1429 934 
Q 1834 422 2522 422 
Q 3209 422 3611 934 
Q 4013 1447 4013 2328 
Q 4013 3213 3611 3725 
Q 3209 4238 2522 4238 
z
M 2522 4750 
Q 3503 4750 4090 4092 
Q 4678 3434 4678 2328 
Q 4678 1225 4090 567 
Q 3503 -91 2522 -91 
Q 1538 -91 948 565 
Q 359 1222 359 2328 
Q 359 3434 948 4092 
Q 1538 4750 2522 4750 
z
" id="DejaVuSans-4f" transform="scale(0.015625)"/>
     <path d="M 628 4666 
L 1569 4666 
L 2759 1491 
L 3956 4666 
L 4897 4666 
L 4897 0 
L 4281 0 
L 4281 4097 
L 3078 897 
L 2444 897 
L 1241 4097 
L 1241 0 
L 628 0 
L 628 4666 
z
" id="DejaVuSans-4d" transform="scale(0.015625)"/>
    </defs>
    <use xlink:href="#DejaVuSans-53"/>
    <use x="63.476562" xlink:href="#DejaVuSans-6f"/>
    <use x="124.658203" xlink:href="#DejaVuSans-75"/>
    <use x="188.037109" xlink:href="#DejaVuSans-72"/>
    <use x="226.900391" xlink:href="#DejaVuSans-63"/>
    <use x="281.880859" xlink:href="#DejaVuSans-65"/>
    <use x="343.404297" xlink:href="#DejaVuSans-73"/>
    <use x="395.503906" xlink:href="#DejaVuSans-3a"/>
    <use x="429.195312" xlink:href="#DejaVuSans-20"/>
    <use x="460.982422" xlink:href="#DejaVuSans-55"/>
    <use x="534.175781" xlink:href="#DejaVuSans-53"/>
    <use x="597.652344" xlink:href="#DejaVuSans-47"/>
    <use x="675.142578" xlink:href="#DejaVuSans-53"/>
    <use x="738.619141" xlink:href="#DejaVuSans-20"/>
    <use x="770.40625" xlink:href="#DejaVuSans-61"/>
    <use x="831.685547" xlink:href="#DejaVuSans-6e"/>
    <use x="895.064453" xlink:href="#DejaVuSans-64"/>
    <use x="958.541016" xlink:href="#DejaVuSans-20"/>
    <use x="990.328125" xlink:href="#DejaVuSans-4f"/>
    <use x="1069.039062" xlink:href="#DejaVuSans-70"/>
    <use x="1132.515625" xlink:href="#DejaVuSans-65"/>
    <use x="1194.039062" xlink:href="#DejaVuSans-6e"/>
    <use x="1257.417969" xlink:href="#DejaVuSans-53"/>
    <use x="1320.894531" xlink:href="#DejaVuSans-74"/>
    <use x="1360.103516" xlink:href="#DejaVuSans-72"/>
    <use x="1398.966797" xlink:href="#DejaVuSans-65"/>
    <use x="1460.490234" xlink:href="#DejaVuSans-65"/>
    <use x="1522.013672" xlink:href="#DejaVuSans-74"/>
    <use x="1561.222656" xlink:href="#DejaVuSans-4d"/>
    <use x="1647.501953" xlink:href="#DejaVuSans-61"/>
    <use x="1708.78125" xlink:href="#DejaVuSans-70"/>
    <use x="1772.257812" xlink:href="#DejaVuSans-73"/>
   </g>
  </g>
 </g>
 <defs>
  <clipPath id="p1b9748a2e5">
   <rect height="73.638533" width="33.657192" x="0" y="7.831415"/>
  </clipPath>
 </defs>
</svg>
