<?xml version="1.0" encoding="utf-8" standalone="no"?>
<!DOCTYPE svg PUBLIC "-//W3C//DTD SVG 1.1//EN"
  "http://www.w3.org/Graphics/SVG/1.1/DTD/svg11.dtd">
<svg height="190.807715pt" version="1.1" viewBox="0 0 132.346681 190.807715" width="132.346681pt" xmlns="http://www.w3.org/2000/svg" xmlns:xlink="http://www.w3.org/1999/xlink">
 <metadata>
  <rdf:RDF xmlns:cc="http://creativecommons.org/ns#" xmlns:dc="http://purl.org/dc/elements/1.1/" xmlns:rdf="http://www.w3.org/1999/02/22-rdf-syntax-ns#">
   <cc:Work>
    <dc:type rdf:resource="http://purl.org/dc/dcmitype/StillImage"/>
    <dc:date>2022-04-14T21:28:56.288183</dc:date>
    <dc:format>image/svg+xml</dc:format>
    <dc:creator>
     <cc:Agent>
      <dc:title>Matplotlib v3.4.3, https://matplotlib.org/</dc:title>
     </cc:Agent>
    </dc:creator>
   </cc:Work>
  </rdf:RDF>
 </metadata>
 <defs>
  <style type="text/css">*{stroke-linecap:butt;stroke-linejoin:round;}</style>
 </defs>
 <g id="figure_1">
  <g id="patch_1">
   <path d="M 0 190.807715 
L 132.346681 190.807715 
L 132.346681 0 
L 0 0 
z
" style="fill:#ffffff;"/>
  </g>
  <g id="axes_1">
   <g id="patch_2">
    <path clip-path="url(#p9aba0d2359)" d="M 56.265596 22.795592 
L 56.265596 22.795592 
L 58.091828 23.34312 
L 59.918059 23.890648 
L 59.014258 25.567048 
L 58.693829 26.646995 
L 58.373401 27.726942 
L 57.836602 28.900422 
L 57.299804 30.073902 
L 56.763006 31.247382 
L 56.226208 32.420862 
L 56.301259 33.407276 
L 56.376309 34.39369 
L 56.107378 35.629765 
L 55.838447 36.86584 
L 55.569515 38.101915 
L 55.300584 39.337991 
L 55.031653 40.574066 
L 54.762721 41.810141 
L 54.49379 43.046216 
L 54.224859 44.282291 
L 53.471159 45.157545 
L 52.717459 46.032798 
L 51.96376 46.908052 
L 51.21006 47.783305 
L 50.202466 49.301059 
L 49.194872 50.818812 
L 48.187277 52.336566 
L 47.179683 53.85432 
L 46.173153 53.758268 
L 45.166624 53.662217 
L 44.160094 53.566166 
L 43.153564 53.470115 
L 42.147034 53.374063 
L 41.140505 53.278012 
L 40.133975 53.181961 
L 39.127445 53.08591 
L 40.079683 52.743435 
L 41.031921 52.40096 
L 42.243908 51.631111 
L 43.455896 50.861262 
L 44.581122 50.091413 
L 45.706349 49.321564 
L 46.441952 48.166071 
L 47.177554 47.010578 
L 47.783281 45.941424 
L 48.389009 44.872269 
L 48.951622 43.45992 
L 49.514236 42.047571 
L 50.228281 40.849629 
L 50.942326 39.651686 
L 51.656372 38.453744 
L 52.370417 37.255801 
L 52.630166 36.057859 
L 52.889916 34.859916 
L 53.106285 33.897605 
L 53.322655 32.935294 
L 53.539024 31.972983 
L 53.755393 31.010671 
L 54.382944 29.320601 
L 55.010495 27.630531 
L 55.638046 25.940461 
L 56.265596 24.250391 
z
" style="fill:#4169e1;opacity:0.1;"/>
   </g>
   <g id="patch_3">
    <path clip-path="url(#p9aba0d2359)" d="M 56.265596 22.795592 
L 56.265596 22.795592 
L 58.091828 23.34312 
L 59.918059 23.890648 
L 59.014258 25.567048 
L 58.693829 26.646995 
L 58.373401 27.726942 
L 57.836602 28.900422 
L 57.299804 30.073902 
L 56.763006 31.247382 
L 56.226208 32.420862 
L 56.301259 33.407276 
L 56.376309 34.39369 
L 56.107378 35.629765 
L 55.838447 36.86584 
L 55.569515 38.101915 
L 55.300584 39.337991 
L 55.031653 40.574066 
L 54.762721 41.810141 
L 54.49379 43.046216 
L 54.224859 44.282291 
L 53.471159 45.157545 
L 52.717459 46.032798 
L 51.96376 46.908052 
L 51.21006 47.783305 
L 50.202466 49.301059 
L 49.194872 50.818812 
L 48.187277 52.336566 
L 47.179683 53.85432 
L 46.173153 53.758268 
L 45.166624 53.662217 
L 44.160094 53.566166 
L 43.153564 53.470115 
L 42.147034 53.374063 
L 41.140505 53.278012 
L 40.133975 53.181961 
L 39.127445 53.08591 
L 40.079683 52.743435 
L 41.031921 52.40096 
L 42.243908 51.631111 
L 43.455896 50.861262 
L 44.581122 50.091413 
L 45.706349 49.321564 
L 46.441952 48.166071 
L 47.177554 47.010578 
L 47.783281 45.941424 
L 48.389009 44.872269 
L 48.951622 43.45992 
L 49.514236 42.047571 
L 50.228281 40.849629 
L 50.942326 39.651686 
L 51.656372 38.453744 
L 52.370417 37.255801 
L 52.630166 36.057859 
L 52.889916 34.859916 
L 53.106285 33.897605 
L 53.322655 32.935294 
L 53.539024 31.972983 
L 53.755393 31.010671 
L 54.382944 29.320601 
L 55.010495 27.630531 
L 55.638046 25.940461 
L 56.265596 24.250391 
z
" style="fill:none;stroke:#4169e1;stroke-linejoin:miter;"/>
   </g>
   <g id="line2d_1">
    <path clip-path="url(#p9aba0d2359)" d="M 86.886242 166.813461 
" style="fill:none;stroke:#008000;stroke-linecap:square;stroke-width:1.5;"/>
   </g>
   <g id="line2d_2">
    <path clip-path="url(#p9aba0d2359)" d="M 86.886242 166.813461 
" style="fill:none;stroke:#4169e1;stroke-linecap:square;stroke-width:1.5;"/>
   </g>
   <g id="line2d_3">
    <path clip-path="url(#p9aba0d2359)" d="M 86.886242 166.813461 
" style="fill:none;stroke:#000000;stroke-linecap:square;stroke-width:1.5;"/>
   </g>
   <g id="line2d_4">
    <path clip-path="url(#p9aba0d2359)" d="M 86.886242 166.813461 
" style="fill:none;stroke:#ff0000;stroke-linecap:square;stroke-width:1.5;"/>
   </g>
   <g id="line2d_5">
    <path clip-path="url(#p9aba0d2359)" d="M 86.886242 166.813461 
" style="fill:none;stroke:#ffd700;stroke-linecap:square;stroke-width:1.5;"/>
   </g>
   <g id="line2d_6">
    <path clip-path="url(#p9aba0d2359)" d="M 86.886242 166.813461 
" style="fill:none;stroke:#000000;stroke-dasharray:1.5,2.475;stroke-dashoffset:0;stroke-width:1.5;"/>
   </g>
   <g id="line2d_7">
    <path clip-path="url(#p9aba0d2359)" d="M 50.324356 147.643503 
L 50.696948 144.413016 
L 51.18664 140.170932 
L 51.876467 134.193451 
L 52.513066 128.673562 
L 53.149666 123.153674 
L 53.597308 119.276369 
L 54.04495 115.399065 
L 54.469971 111.714942 
L 54.894991 108.030819 
L 55.320012 104.346696 
L 55.745033 100.662573 
L 56.165529 97.02126 
L 56.586025 93.379946 
L 57.137461 88.59681 
L 57.688896 83.813674 
L 58.285043 78.648491 
L 58.88119 73.483309 
L 59.540145 67.772037 
L 60.1991 62.060765 
L 60.589789 58.677027 
L 60.980477 55.29329 
L 61.580882 50.085657 
L 62.181287 44.878025 
L 62.766788 39.804217 
L 63.352289 34.730409 
L 63.937791 29.656601 
L 64.523292 24.582793 
" style="fill:none;stroke:#808080;stroke-linecap:square;stroke-width:1.5;"/>
   </g>
   <g id="line2d_8">
    <path clip-path="url(#p9aba0d2359)" d="M 74.987794 169.494262 
L 81.129169 168.433022 
L 87.270544 167.371782 
" style="fill:none;stroke:#808080;stroke-linecap:square;stroke-width:1.5;"/>
   </g>
   <g id="line2d_9">
    <path clip-path="url(#p9aba0d2359)" d="M 35.759217 143.749651 
L 35.786895 141.212747 
L 35.832671 136.93325 
L 35.886963 131.855125 
L 35.954029 125.569704 
L 36.021096 119.284284 
L 36.060484 115.638653 
L 36.099872 111.993023 
L 36.149906 107.28831 
L 36.19994 102.583598 
L 36.262216 96.78383 
L 36.324492 90.984061 
L 36.371864 86.590886 
L 36.419236 82.197711 
L 36.463947 78.016784 
L 36.508658 73.835856 
L 36.55816 69.194459 
L 36.607661 64.553061 
L 36.653437 60.309539 
" style="fill:none;stroke:#808080;stroke-linecap:square;stroke-width:1.5;"/>
   </g>
   <g id="line2d_10">
    <path clip-path="url(#p9aba0d2359)" d="M 55.591738 151.640962 
L 57.759157 147.31254 
L 59.344002 144.148245 
L 60.928847 140.98395 
L 62.513692 137.819656 
L 64.098537 134.655361 
L 66.02111 130.817628 
L 67.943683 126.979895 
L 70.02168 122.828467 
L 71.787764 119.30299 
" style="fill:none;stroke:#808080;stroke-linecap:square;stroke-width:1.5;"/>
   </g>
   <g id="line2d_11">
    <path clip-path="url(#p9aba0d2359)" d="M 74.836628 164.200292 
L 76.321672 158.012721 
L 77.350025 153.728188 
L 78.378378 149.443655 
L 79.377456 145.282154 
L 80.376534 141.120653 
L 81.711477 135.554717 
L 82.866511 130.742801 
L 84.021545 125.930886 
L 85.16274 121.176529 
L 86.303935 116.422172 
L 87.454711 111.627524 
L 88.605486 106.832876 
L 89.60829 102.654108 
L 90.686145 98.164521 
L 91.763999 93.674935 
L 92.528078 90.490495 
L 93.292157 87.306054 
L 94.056236 84.121614 
L 94.820315 80.937173 
L 96.03177 75.889986 
L 97.243225 70.842799 
L 98.118283 67.199327 
L 98.992277 63.555855 
" style="fill:none;stroke:#808080;stroke-linecap:square;stroke-width:1.5;"/>
   </g>
   <g id="line2d_12">
    <path clip-path="url(#p9aba0d2359)" d="M 86.886242 166.813461 
L 85.287292 166.813461 
L 84.031126 166.92714 
L 82.432175 166.92714 
L 81.404355 166.98326 
L 80.376534 167.03938 
L 78.548706 167.03938 
L 77.441044 167.680441 
L 76.333382 168.321502 
L 75.122992 169.071205 
L 74.505554 169.449654 
" style="fill:none;stroke:#008000;stroke-linecap:square;stroke-width:1.5;"/>
   </g>
   <g id="line2d_13">
    <path clip-path="url(#p9aba0d2359)" d="M 62.216417 51.86998 
L 62.101579 53.493498 
L 61.986741 55.117016 
L 61.871903 56.740534 
L 61.757065 58.364051 
L 61.642227 59.987569 
L 61.527389 61.611087 
L 61.412551 63.234605 
L 61.297713 64.858123 
L 61.182875 66.481641 
L 61.068037 68.105159 
L 60.953198 69.728676 
L 60.83836 71.352194 
L 60.723522 72.975712 
L 60.608684 74.59923 
L 60.493846 76.222748 
L 60.379008 77.846266 
L 60.26417 79.469784 
L 60.149332 81.093301 
L 60.034494 82.716819 
L 59.919656 84.340337 
L 59.804818 85.963855 
L 59.68998 87.587373 
L 59.575142 89.210891 
L 59.460304 90.834408 
L 59.345466 92.457926 
L 59.230627 94.081444 
L 59.115789 95.704962 
L 59.000951 97.32848 
L 58.886113 98.951998 
L 58.771275 100.575516 
L 58.656437 102.199033 
L 58.541599 103.822551 
" style="fill:none;stroke:#4169e1;stroke-linecap:square;stroke-width:1.5;"/>
   </g>
   <g id="line2d_14">
    <path clip-path="url(#p9aba0d2359)" d="M 64.682974 23.847479 
L 65.793297 24.242476 
L 66.90362 24.637474 
L 68.241756 25.113773 
L 69.579893 25.590072 
L 70.918029 26.066371 
L 72.256165 26.54267 
L 73.944538 26.971483 
L 75.285868 27.163585 
L 76.627197 27.355688 
L 77.601258 27.634128 
L 78.575319 27.912569 
L 79.960296 28.511181 
L 80.955648 29.452267 
L 81.539818 30.543366 
L 82.123989 31.634465 
L 82.708159 32.725564 
L 83.29233 33.816663 
L 83.725601 34.970717 
L 83.768182 35.655667 
L 83.638308 36.297447 
L 83.162455 37.025566 
L 81.734897 37.966652 
L 80.587447 38.79442 
L 79.439998 39.622187 
L 78.292549 40.449955 
L 77.1451 41.277722 
L 75.997651 42.10549 
L 74.850201 42.933257 
L 73.702752 43.761025 
L 72.555303 44.588792 
L 71.001064 45.70975 
L 69.536246 46.820994 
L 68.071429 47.932239 
L 66.606611 49.043483 
L 65.141794 50.154728 
L 63.659411 51.03178 
L 62.177029 51.908832 
L 60.694646 52.785884 
L 59.212264 53.662937 
L 57.65696 54.386738 
L 56.101656 55.11054 
L 54.546352 55.834342 
L 52.991048 56.558144 
L 51.435744 57.281946 
L 49.88044 58.005748 
L 48.325136 58.72955 
L 46.769832 59.453352 
L 45.092638 59.980734 
L 43.415443 60.508117 
L 42.333863 60.679354 
L 41.208636 60.722523 
L 39.780013 60.636185 
L 39.052927 60.367098 
L 37.963629 60.602009 
L 36.87433 60.836921 
L 35.785032 61.071833 
L 34.695734 61.306745 
" style="fill:none;stroke:#008000;stroke-linecap:square;stroke-width:1.5;"/>
   </g>
   <g id="line2d_15">
    <path clip-path="url(#p9aba0d2359)" d="M 62.216417 51.86998 
L 63.185688 52.853156 
L 64.154958 53.836332 
L 65.124229 54.819509 
L 66.093499 55.802685 
L 67.44441 56.560303 
L 68.795321 57.31792 
L 69.778298 57.718314 
L 70.761274 58.118707 
L 71.744251 58.5191 
L 72.727227 58.919494 
L 73.710204 59.319887 
L 74.693181 59.720281 
L 75.676157 60.120674 
L 76.659134 60.521067 
L 77.953091 61.04845 
L 79.247049 61.575832 
L 81.092974 62.134872 
L 82.9389 62.693912 
L 83.94676 62.889252 
L 84.954621 63.084592 
L 85.962481 63.279933 
L 86.970341 63.475273 
L 87.997364 63.287127 
L 89.024386 63.098982 
L 90.051408 62.910837 
L 91.07843 62.722691 
L 92.105453 62.534546 
L 93.132475 62.346401 
L 94.159497 62.158255 
L 95.186519 61.97011 
L 96.95633 61.645622 
L 98.72614 61.321135 
" style="fill:none;stroke:#008000;stroke-linecap:square;stroke-width:1.5;"/>
   </g>
   <g id="line2d_16">
    <path clip-path="url(#p9aba0d2359)" d="M 42.333863 60.679354 
L 42.415783 62.003813 
L 42.497703 63.328273 
L 42.579623 64.652732 
L 42.661544 65.977192 
L 42.743464 67.301651 
L 42.825384 68.626111 
L 42.907304 69.95057 
L 42.989225 71.275029 
L 43.071145 72.599489 
L 43.153065 73.923948 
L 43.234985 75.248408 
L 43.316906 76.572867 
L 43.398826 77.897327 
L 43.480746 79.221786 
L 43.562666 80.546245 
L 43.644587 81.870705 
L 43.726507 83.195164 
L 43.808427 84.519624 
L 43.890348 85.844083 
L 43.972268 87.168543 
L 44.054188 88.493002 
L 44.136108 89.817461 
L 44.218029 91.141921 
L 44.299949 92.46638 
L 44.381869 93.79084 
L 44.463789 95.115299 
L 44.54571 96.439759 
L 44.62763 97.764218 
L 44.70955 99.088677 
L 44.79147 100.413137 
L 44.873391 101.737596 
L 44.955311 103.062056 
L 45.037231 104.386515 
L 45.119151 105.710975 
L 45.201072 107.035434 
L 45.282992 108.359893 
L 45.364912 109.684353 
L 45.446832 111.008812 
L 45.528753 112.333272 
L 45.610673 113.657731 
L 45.692593 114.982191 
L 45.774514 116.30665 
L 45.856434 117.631109 
L 45.938354 118.955569 
L 46.020274 120.280028 
L 46.102195 121.604488 
L 46.184115 122.928947 
L 46.266035 124.253407 
L 46.347955 125.577866 
L 46.429876 126.902325 
L 46.511796 128.226785 
L 46.593716 129.551244 
L 46.675636 130.875704 
L 46.757557 132.200163 
L 46.839477 133.524623 
L 46.921397 134.849082 
L 47.003317 136.173541 
L 47.085238 137.498001 
L 47.167158 138.82246 
L 47.249078 140.14692 
L 47.330998 141.471379 
L 47.412919 142.795839 
L 47.494839 144.120298 
L 47.576759 145.444757 
" style="fill:none;stroke:#4169e1;stroke-linecap:square;stroke-width:1.5;"/>
   </g>
   <g id="line2d_17">
    <path clip-path="url(#p9aba0d2359)" d="M 76.659134 60.521067 
L 76.152675 61.615044 
L 75.646217 62.709021 
L 75.139758 63.802998 
L 74.6333 64.896975 
L 74.126841 65.990952 
L 73.620383 67.084929 
L 73.113924 68.178906 
L 72.607466 69.272883 
L 72.101007 70.36686 
L 71.594549 71.460836 
L 71.08809 72.554813 
L 70.581632 73.64879 
L 70.075173 74.742767 
L 69.568715 75.836744 
L 69.062256 76.930721 
L 68.555798 78.024698 
" style="fill:none;stroke:#4169e1;stroke-linecap:square;stroke-width:1.5;"/>
   </g>
   <g id="line2d_18">
    <path clip-path="url(#p9aba0d2359)" d="M 68.555798 78.024698 
L 68.497248 79.357184 
L 68.438698 80.68967 
L 68.405297 81.784457 
L 68.371897 82.879243 
L 68.338497 83.974029 
L 68.305097 85.068816 
L 68.271697 86.163602 
L 68.238297 87.258388 
L 68.204896 88.353175 
L 68.171496 89.447961 
L 68.138096 90.542747 
L 68.104696 91.637534 
L 68.071296 92.73232 
L 68.037895 93.827106 
L 68.004495 94.921893 
L 67.971095 96.016679 
L 67.937695 97.111465 
L 67.904295 98.206252 
" style="fill:none;stroke:#4169e1;stroke-linecap:square;stroke-width:1.5;"/>
   </g>
   <g id="line2d_19">
    <path clip-path="url(#p9aba0d2359)" d="M 42.333863 60.679354 
L 43.431411 61.391644 
L 44.52896 62.103934 
L 45.626508 62.816224 
L 46.724057 63.528515 
L 48.409102 64.148891 
L 50.094148 64.769266 
L 51.779194 65.389642 
L 53.464239 66.010018 
L 55.149285 66.630394 
L 56.834331 67.25077 
L 58.519377 67.871146 
L 60.204422 68.491522 
L 61.297713 69.572188 
L 62.391003 70.652855 
L 63.335789 72.078155 
L 64.280575 73.503454 
L 64.80034 74.401731 
L 65.320106 75.300008 
L 65.839871 76.198285 
L 66.359636 77.096562 
L 66.879402 77.994839 
L 67.399167 78.893116 
L 67.918932 79.791393 
L 68.438698 80.68967 
" style="fill:none;stroke:#4169e1;stroke-linecap:square;stroke-width:1.5;"/>
   </g>
   <g id="line2d_20">
    <path clip-path="url(#p9aba0d2359)" d="M 53.971496 37.529205 
L 55.297923 38.463816 
L 56.624349 39.398427 
L 57.620034 39.722825 
L 58.615718 40.047223 
L 59.611403 40.371621 
L 60.607087 40.696019 
L 61.602772 41.020416 
L 62.598457 41.344814 
L 63.594141 41.669212 
L 64.589826 41.99361 
L 65.585511 42.318007 
L 66.581195 42.642405 
L 67.57688 42.966803 
L 68.572564 43.291201 
L 69.568249 43.615599 
L 70.563934 43.939996 
L 71.559618 44.264394 
L 72.555303 44.588792 
" style="fill:none;stroke:#008000;stroke-linecap:square;stroke-width:1.5;"/>
   </g>
   <g id="line2d_21">
    <path clip-path="url(#p9aba0d2359)" d="M 58.640602 21.950917 
L 58.348783 22.92456 
L 58.056964 23.898203 
L 57.765145 24.871846 
L 57.473326 25.845489 
L 57.181506 26.819132 
L 56.889687 27.792775 
L 56.597868 28.766418 
L 56.306049 29.740061 
L 56.01423 30.713704 
L 55.722411 31.687347 
L 55.430592 32.66099 
L 55.138773 33.634633 
L 54.846954 34.608276 
L 54.555135 35.581919 
L 54.263315 36.555562 
L 53.971496 37.529205 
L 53.508418 39.151644 
L 53.04534 40.774083 
L 52.523179 41.953678 
L 52.001019 43.133274 
L 51.478858 44.31287 
L 50.956698 45.492465 
L 50.298009 46.327787 
L 49.63932 47.163109 
L 48.980631 47.998431 
L 48.321943 48.833753 
L 47.663254 49.669075 
L 47.004565 50.504397 
L 46.345876 51.33972 
L 45.687187 52.175042 
L 45.268022 53.238081 
L 44.848856 54.30112 
L 44.429691 55.364159 
L 44.010525 56.427198 
L 43.591359 57.490237 
L 43.172194 58.553276 
L 42.753028 59.616315 
L 42.333863 60.679354 
" style="fill:none;stroke:#4169e1;stroke-linecap:square;stroke-width:1.5;"/>
   </g>
   <g id="line2d_22">
    <path clip-path="url(#p9aba0d2359)" d="M 64.682974 23.847479 
L 63.172381 23.373338 
L 61.661788 22.899198 
L 60.151195 22.425057 
L 58.640602 21.950917 
L 56.922422 21.411303 
L 55.630061 21.362378 
L 54.337701 21.313453 
L 53.343413 21.362378 
L 52.349126 21.411303 
L 51.305337 21.902711 
L 50.261548 22.394119 
L 48.968655 23.42658 
L 47.675762 24.459041 
L 46.507421 25.761309 
L 45.33908 27.063577 
L 44.170739 28.365845 
L 43.002398 29.668113 
L 41.859074 30.503435 
L 40.71575 31.338757 
L 39.77123 32.026944 
L 38.826711 32.715131 
L 37.882191 33.403319 
L 36.937671 34.091506 
L 36.09242 35.000575 
L 35.247169 35.909645 
L 34.401919 36.818714 
L 33.556668 37.727783 
L 32.985006 38.563105 
L 32.413344 39.398427 
L 31.841682 40.233749 
L 31.27002 41.069071 
L 30.698358 41.904394 
L 30.126696 42.739716 
L 29.555034 43.575038 
L 28.983372 44.41036 
L 28.510979 45.294967 
L 28.038586 46.179573 
L 27.566193 47.06418 
L 27.0938 47.948787 
L 26.497653 49.374087 
L 25.901507 50.799386 
L 26.000509 52.372181 
L 26.795726 53.452847 
L 28.087555 53.838491 
L 29.379383 54.224135 
L 30.671212 54.609779 
L 31.96304 54.995423 
L 33.230916 55.634325 
L 34.498793 56.273228 
" style="fill:none;stroke:#000000;stroke-linecap:square;stroke-width:1.5;"/>
   </g>
   <g id="line2d_23">
    <path clip-path="url(#p9aba0d2359)" d="M 45.687187 52.175042 
L 44.25404 52.885533 
L 42.820893 53.596024 
L 41.387746 54.306516 
L 39.954599 55.017007 
L 38.590647 55.331062 
L 37.226696 55.645118 
L 35.862744 55.959173 
L 34.498793 56.273228 
L 34.548028 57.531607 
L 34.597263 58.789987 
L 34.646499 60.048366 
L 34.695734 61.306745 
" style="fill:none;stroke:#008000;stroke-linecap:square;stroke-width:1.5;"/>
   </g>
   <g id="line2d_24">
    <path clip-path="url(#p9aba0d2359)" d="M 26.795726 53.452847 
L 25.950742 54.976356 
L 25.105757 56.499866 
L 24.260773 58.023375 
L 23.415788 59.546885 
L 22.570537 60.284357 
L 21.725286 61.021829 
L 20.283357 61.857151 
L 18.841427 62.692473 
L 17.40003 63.724214 
L 15.958632 64.755956 
L 14.86481 66.082686 
L 13.770987 67.409417 
L 13.236584 68.269381 
L 12.702181 69.129345 
L 12.167779 69.98931 
L 11.633376 70.849274 
L 11.098973 71.709239 
L 10.56457 72.569203 
L 10.030167 73.429168 
L 9.495764 74.289132 
L 8.750049 75.738894 
L 8.004333 77.188656 
L 7.258617 78.638419 
L 6.512902 80.088181 
L 6.26433 81.120642 
L 6.015758 82.153103 
L 6.372116 83.760432 
L 6.728473 85.367762 
L 7.08483 86.975091 
L 7.441187 88.582421 
" style="fill:none;stroke:#008000;stroke-linecap:square;stroke-width:1.5;"/>
   </g>
   <g id="line2d_25">
    <path clip-path="url(#p9aba0d2359)" d="M 34.695734 61.306745 
L 33.272434 62.242075 
L 31.849134 63.177406 
L 30.697293 63.557294 
L 29.545453 63.937182 
L 28.145573 64.908487 
L 26.745693 65.879791 
L 25.831246 66.800732 
L 24.9168 67.721673 
L 24.238683 68.52246 
L 23.560566 69.323247 
L 22.543924 70.700341 
L 21.432536 72.134274 
L 20.321148 73.568208 
L 19.382217 74.428712 
L 18.443286 75.289216 
L 17.47375 76.34578 
L 16.504213 77.402343 
L 15.534676 78.458907 
L 14.56514 79.515471 
L 13.372048 80.817739 
L 12.178956 82.120006 
L 10.985865 83.422274 
L 9.792773 84.724542 
L 8.748452 86.296617 
L 7.704131 87.868691 
L 7.441187 88.582421 
L 6.908914 90.031463 
L 6.809911 91.799957 
L 7.158018 92.881343 
L 7.506125 93.962729 
L 8.947788 95.055987 
L 10.389452 96.149244 
L 11.831115 97.242501 
L 13.272779 98.335759 
L 14.714442 99.429016 
L 16.156106 100.522274 
L 17.597769 101.615531 
L 19.039433 102.708789 
L 20.739782 103.571451 
L 22.44013 104.434114 
L 24.140479 105.296776 
L 25.840827 106.159439 
L 26.595592 106.542205 
L 28.170057 107.337235 
L 29.744523 108.132266 
L 31.437686 108.987015 
L 33.130849 109.841763 
L 34.425073 110.134953 
L 35.719296 110.428143 
L 37.01352 110.721333 
L 38.307744 111.014523 
L 39.515473 111.287927 
L 40.723202 111.561332 
L 41.754749 111.782573 
L 42.786295 112.003815 
L 43.817842 112.225057 
L 44.849388 112.446298 
L 45.880935 112.66754 
L 46.912482 112.888782 
L 47.944028 113.110023 
L 48.975575 113.331265 
L 49.994879 113.625894 
L 51.014183 113.920523 
L 52.033488 114.215152 
L 53.052792 114.509781 
L 54.643226 115.099759 
L 56.23366 115.689737 
L 57.457091 115.966379 
L 58.680522 116.243021 
L 59.903954 116.519662 
L 61.127385 116.796304 
L 62.220942 116.992724 
L 63.314498 117.189143 
L 64.408054 117.385563 
L 65.501611 117.581982 
L 67.390917 117.704654 
L 69.280222 117.827326 
L 71.169528 117.949999 
L 73.058834 118.072671 
" style="fill:none;stroke:#008000;stroke-linecap:square;stroke-width:1.5;"/>
   </g>
   <g id="line2d_26">
    <path clip-path="url(#p9aba0d2359)" d="M 98.72614 61.321135 
L 100.034469 61.10457 
L 101.342798 60.888005 
L 102.651127 60.67144 
L 103.959456 60.454875 
L 105.849028 60.552725 
L 107.340459 61.240552 
L 107.936606 62.223369 
L 107.936606 63.895452 
L 107.824828 65.19772 
L 107.713051 66.499988 
L 107.601273 67.802255 
L 107.489496 69.104523 
L 107.377718 70.406791 
L 107.265941 71.709059 
L 107.154163 73.011327 
L 107.042386 74.313594 
L 106.694279 75.640325 
L 106.346171 76.967055 
L 105.998064 78.293785 
L 105.649957 79.620516 
L 105.351884 81.045815 
L 105.053811 82.471115 
L 105.053811 83.600707 
L 105.053811 84.730298 
L 105.153346 85.713114 
L 105.252881 86.695931 
L 105.750025 88.170875 
L 106.545242 88.957272 
L 107.340459 89.743669 
L 108.583318 90.431497 
L 109.826177 91.119325 
L 111.496453 92.088471 
L 113.166728 93.057617 
L 114.618504 92.597506 
L 116.070281 92.137396 
L 117.522058 91.677285 
L 118.973835 91.217175 
L 120.514767 91.266819 
L 122.0557 91.316463 
L 123.199024 91.610733 
L 124.342348 91.905002 
L 125.138629 92.692119 
L 125.685275 93.772785 
L 126.23192 94.853452 
L 126.330923 96.721235 
L 126.082351 97.802621 
L 125.833779 98.884006 
L 125.038562 100.161092 
L 124.243345 101.438178 
L 123.423111 102.003334 
L 122.602877 102.568489 
L 121.782643 103.133644 
L 120.962409 103.6988 
L 120.142175 104.263955 
L 119.321942 104.829111 
L 118.501708 105.394266 
L 117.681474 105.959422 
L 116.288247 107.0516 
L 114.895021 108.143778 
L 113.501794 109.235956 
L 112.108567 110.328135 
L 111.339166 110.931423 
L 110.569764 111.534711 
L 109.800362 112.137999 
L 109.03096 112.741287 
L 107.788101 113.306443 
L 106.545242 113.871598 
L 105.302383 114.436753 
L 104.059523 115.001909 
L 102.369022 115.591167 
L 100.67852 116.180425 
L 99.510179 116.499877 
L 98.341838 116.819328 
L 97.173497 117.138779 
L 96.005157 117.458231 
L 94.538742 117.777682 
L 93.072328 118.097133 
L 91.605914 118.416585 
L 90.1395 118.736036 
L 88.859647 118.757261 
L 87.579795 118.778486 
L 86.299943 118.79971 
L 85.02009 118.820935 
L 84.272778 118.833886 
L 82.587865 119.036781 
L 80.902953 119.239675 
L 79.21804 119.44257 
L 77.533127 119.645465 
L 75.742558 119.645465 
L 74.251127 119.154776 
L 73.058834 118.072671 
" style="fill:none;stroke:#008000;stroke-linecap:square;stroke-width:1.5;"/>
   </g>
   <g id="line2d_27">
    <path clip-path="url(#p9aba0d2359)" d="M 95.186519 61.97011 
L 95.087517 63.36735 
L 94.988514 64.76459 
L 94.814992 65.920083 
L 94.251847 67.117306 
L 93.646119 67.994358 
L 93.040392 68.87141 
L 92.109977 70.026183 
L 91.179562 71.180957 
L 90.368111 72.218454 
L 89.55666 73.255951 
L 88.745208 74.293449 
L 87.933757 75.330946 
L 86.873468 76.935398 
L 85.813178 78.539849 
L 85.271856 79.887445 
L 84.730533 81.23504 
L 84.276238 82.903526 
L 83.821942 84.572011 
L 83.367646 86.240497 
L 82.913351 87.908983 
L 82.276219 89.696183 
L 81.639087 91.483384 
L 81.001956 93.270585 
L 80.364824 95.057785 
L 80.012592 96.046358 
L 79.66036 97.03493 
L 79.308127 98.023502 
L 78.955895 99.012075 
L 78.603663 100.000647 
L 78.251431 100.989219 
L 77.899199 101.977792 
L 77.546967 102.966364 
L 77.070581 104.849256 
L 76.594196 106.732149 
L 76.291333 107.994125 
L 75.988469 109.256102 
L 75.685605 110.518079 
L 75.382741 111.780055 
L 74.801765 113.353209 
L 74.220788 114.926363 
L 73.639811 116.499517 
L 73.058834 118.072671 
" style="fill:none;stroke:#4169e1;stroke-linecap:square;stroke-width:1.5;"/>
   </g>
   <g id="line2d_28">
    <path clip-path="url(#p9aba0d2359)" d="M 105.053811 84.730298 
L 104.160256 85.229441 
L 103.266702 85.728583 
L 102.373147 86.227726 
L 101.479592 86.726869 
L 100.586038 87.226011 
L 99.692483 87.725154 
L 98.798929 88.224297 
L 97.905374 88.72344 
L 97.011819 89.222582 
L 96.118265 89.721725 
L 95.22471 90.220868 
L 94.331156 90.72001 
L 93.437601 91.219153 
L 92.544046 91.718296 
L 91.650492 92.217438 
L 90.756937 92.716581 
L 89.457923 93.009232 
L 88.158909 93.301882 
L 86.859895 93.594533 
L 85.56088 93.887183 
L 84.261866 94.179834 
L 82.962852 94.472484 
L 81.663838 94.765135 
L 80.364824 95.057785 
L 78.807258 95.451344 
L 77.249692 95.844902 
L 75.692125 96.23846 
L 74.134559 96.632018 
L 72.576993 97.025577 
L 71.019427 97.419135 
L 69.461861 97.812693 
L 67.904295 98.206252 
L 66.902023 98.45951 
L 65.899752 98.712769 
L 64.880447 99.056683 
L 63.861143 99.400597 
L 62.841839 99.74451 
L 61.822535 100.088424 
L 60.927782 100.776252 
L 60.03303 101.46408 
L 59.287315 102.643315 
L 58.541599 103.822551 
L 58.044455 105.198207 
L 57.547312 106.573862 
L 57.249238 108.39272 
L 56.951165 110.211578 
L 56.876647 111.292604 
L 56.802128 112.37363 
L 56.72761 113.454656 
L 56.653092 114.535683 
L 56.23366 115.689737 
L 56.123147 116.655645 
L 56.012633 117.621554 
L 55.90212 118.587462 
L 55.791607 119.553371 
L 55.681093 120.519279 
L 55.57058 121.485188 
L 55.460067 122.451097 
L 55.349553 123.417005 
L 55.23904 124.382914 
L 55.128527 125.348822 
L 55.018013 126.314731 
L 54.9075 127.28064 
L 54.796986 128.246548 
L 54.686473 129.212457 
L 54.57596 130.178365 
L 54.465446 131.144274 
L 54.22925 132.950181 
L 53.993053 134.756089 
L 53.756857 136.561996 
L 53.520661 138.367903 
L 53.284464 140.17381 
L 53.048268 141.979718 
L 52.812071 143.785625 
L 52.575875 145.591532 
" style="fill:none;stroke:#008000;stroke-linecap:square;stroke-width:1.5;"/>
   </g>
   <g id="line2d_29">
    <path clip-path="url(#p9aba0d2359)" d="M 25.840827 106.159439 
L 25.939564 107.241904 
L 26.038301 108.324369 
L 26.137038 109.406834 
L 26.235774 110.489299 
L 26.334511 111.571764 
L 26.433248 112.654229 
L 26.531985 113.736695 
L 26.630722 114.81916 
L 26.729458 115.901625 
L 26.828195 116.98409 
L 26.926932 118.066555 
L 27.025669 119.14902 
L 27.124406 120.231486 
L 27.223142 121.313951 
L 27.321879 122.396416 
L 27.420616 123.478881 
L 27.520151 124.854536 
L 27.619686 126.230192 
L 27.569653 127.507997 
L 27.519619 128.785802 
L 27.321081 129.916113 
L 27.122543 131.046424 
L 26.973506 132.22566 
L 26.824469 133.404896 
L 26.923472 134.682701 
L 27.022475 135.960506 
L 27.569653 136.942603 
L 28.11683 137.9247 
L 29.608261 139.104656 
L 31.099692 140.284611 
L 32.019461 140.923154 
L 32.93923 141.561697 
L 33.858999 142.20024 
L 34.778769 142.838783 
" style="fill:none;stroke:#4169e1;stroke-linecap:square;stroke-width:1.5;"/>
   </g>
   <g id="line2d_30">
    <path clip-path="url(#p9aba0d2359)" d="M 39.052927 60.367098 
L 39.02964 61.94983 
L 39.006353 63.532562 
L 38.983066 65.115294 
L 38.959779 66.698026 
L 38.936492 68.280758 
L 38.913205 69.86349 
L 38.889918 71.446222 
L 38.866631 73.028954 
L 38.843344 74.611686 
L 38.820057 76.194418 
L 38.79677 77.77715 
L 38.773483 79.359882 
L 38.750196 80.942614 
L 38.726909 82.525346 
L 38.703622 84.108078 
L 38.680335 85.69081 
L 38.657048 87.273542 
L 38.633761 88.856274 
L 38.610474 90.439007 
L 38.587187 92.021739 
L 38.5639 93.604471 
L 38.540613 95.187203 
L 38.517326 96.769935 
L 38.49404 98.352667 
L 38.470753 99.935399 
L 38.447466 101.518131 
L 38.424179 103.100863 
L 38.400892 104.683595 
L 38.377605 106.266327 
L 38.354318 107.849059 
L 38.331031 109.431791 
L 38.307744 111.014523 
" style="fill:none;stroke:#4169e1;stroke-linecap:square;stroke-width:1.5;"/>
   </g>
   <g id="line2d_31">
    <path clip-path="url(#p9aba0d2359)" d="M 38.307744 111.014523 
L 38.340379 112.098113 
L 38.373014 113.181702 
L 38.405649 114.265291 
L 38.438284 115.348881 
L 38.470919 116.43247 
L 38.503554 117.516059 
L 38.536189 118.599649 
L 38.568824 119.683238 
L 38.601459 120.766827 
L 38.634094 121.850417 
L 38.666729 122.934006 
L 38.699364 124.017595 
L 38.731999 125.101185 
L 38.764634 126.184774 
L 38.797269 127.268363 
L 38.829904 128.351953 
L 38.862539 129.435542 
L 38.895174 130.519131 
L 38.927809 131.602721 
L 38.960444 132.68631 
L 38.993079 133.769899 
L 39.025714 134.853489 
L 39.05835 135.937078 
L 39.090985 137.020667 
L 39.12362 138.104257 
L 39.156255 139.187846 
L 39.18889 140.271436 
L 39.221525 141.355025 
L 39.25416 142.438614 
L 39.286795 143.522204 
L 39.31943 144.605793 
L 39.352065 145.689382 
" style="fill:none;stroke:#4169e1;stroke-linecap:square;stroke-width:1.5;"/>
   </g>
   <g id="line2d_32">
    <path clip-path="url(#p9aba0d2359)" d="M 94.988514 64.76459 
L 95.435624 65.645959 
L 95.882734 66.527328 
L 96.532108 68.067026 
L 96.770034 69.222519 
L 97.00796 70.378012 
L 97.072898 72.024913 
L 97.137835 73.671814 
L 96.921732 75.425918 
L 96.640425 76.634293 
L 96.359119 77.842668 
L 96.077812 79.051043 
L 95.796505 80.259418 
L 95.455717 81.441352 
L 95.114929 82.623286 
L 94.77414 83.80522 
L 94.433352 84.987154 
L 94.092564 86.169088 
L 93.751775 87.351022 
L 93.410987 88.532956 
L 93.070199 89.71489 
L 92.550833 91.436617 
L 92.031467 93.158345 
L 91.512101 94.880073 
L 90.992734 96.6018 
L 90.473368 98.323528 
L 89.954002 100.045255 
L 89.434636 101.766983 
L 88.91527 103.48871 
L 88.671821 104.446974 
L 88.428372 105.405238 
L 88.184924 106.363502 
L 87.941475 107.321767 
L 87.698026 108.280031 
L 87.454578 109.238295 
L 87.211129 110.196559 
L 86.96768 111.154823 
L 86.724231 112.113087 
L 86.480783 113.071351 
L 86.237334 114.029615 
L 85.993885 114.987879 
L 85.750436 115.946143 
L 85.506988 116.904407 
L 85.263539 117.862671 
L 85.02009 118.820935 
" style="fill:none;stroke:#4169e1;stroke-linecap:square;stroke-width:1.5;"/>
   </g>
   <g id="line2d_33">
    <path clip-path="url(#p9aba0d2359)" d="M 85.02009 118.820935 
L 84.522148 120.080394 
L 84.024206 121.339852 
L 83.526264 122.599311 
L 83.028322 123.858769 
L 82.431643 124.841586 
L 81.834964 125.824402 
L 81.238285 126.807218 
L 80.641606 127.790035 
L 79.684578 129.030787 
L 78.72755 130.271539 
L 77.770521 131.51229 
L 76.813493 132.753042 
L 75.856465 133.993794 
L 74.899437 135.234546 
L 73.942408 136.475298 
L 72.98538 137.71605 
L 71.967673 139.372304 
L 71.113107 140.762349 
L 70.258542 142.152394 
L 69.403976 143.542439 
L 68.549411 144.932484 
L 67.694845 146.322529 
L 66.840279 147.712574 
L 65.985714 149.102619 
L 65.131148 150.492664 
" style="fill:none;stroke:#4169e1;stroke-linecap:square;stroke-width:1.5;"/>
   </g>
   <g id="line2d_34">
    <path clip-path="url(#p9aba0d2359)" d="M 71.967673 139.372304 
L 72.453905 140.589403 
L 72.940137 141.806502 
L 73.426369 143.0236 
L 73.912601 144.240699 
L 74.398833 145.457798 
L 74.885065 146.674897 
L 75.371297 147.891996 
L 75.85753 149.109094 
L 76.343762 150.326193 
L 76.829994 151.543292 
L 77.316226 152.760391 
L 77.802458 153.977489 
L 78.28869 155.194588 
L 78.774922 156.411687 
L 79.261154 157.628786 
L 79.747386 158.845885 
L 79.747386 160.712229 
L 79.150175 162.285023 
L 78.454493 162.97285 
L 77.758811 163.660678 
L 76.366383 164.348506 
L 74.973955 165.036333 
" style="fill:none;stroke:#008000;stroke-linecap:square;stroke-width:1.5;"/>
   </g>
   <g id="line2d_35">
    <path clip-path="url(#p9aba0d2359)" d="M 75.742558 119.645465 
L 75.225122 120.669247 
L 74.707685 121.693029 
L 74.190248 122.716811 
L 73.672812 123.740594 
L 73.155375 124.764376 
L 72.637939 125.788158 
L 72.120502 126.81194 
L 71.603065 127.835722 
L 71.085629 128.859504 
L 70.568192 129.883287 
L 70.050755 130.907069 
L 69.533319 131.930851 
L 69.015882 132.954633 
L 68.498445 133.978415 
L 67.981009 135.002197 
L 67.463572 136.025979 
L 66.946135 137.049762 
L 66.428699 138.073544 
L 65.911262 139.097326 
L 65.393826 140.121108 
L 64.876389 141.14489 
L 64.358952 142.168672 
L 63.841516 143.192455 
L 63.324079 144.216237 
L 62.806642 145.240019 
L 62.289206 146.263801 
L 61.771769 147.287583 
L 61.254332 148.311365 
L 60.736896 149.335148 
L 60.219459 150.35893 
L 59.702022 151.382712 
L 59.184586 152.406494 
" style="fill:none;stroke:#4169e1;stroke-linecap:square;stroke-width:1.5;"/>
   </g>
   <g id="line2d_36">
    <path clip-path="url(#p9aba0d2359)" d="M 66.90362 24.637474 
L 66.343934 25.625686 
L 65.784248 26.613899 
L 65.224562 27.602111 
L 64.664877 28.590324 
L 64.105191 29.578537 
L 63.545505 30.566749 
L 62.985819 31.554962 
L 62.426133 32.543174 
L 61.820406 34.21238 
L 61.820406 35.281534 
L 62.036509 36.179452 
L 62.051412 37.570216 
L 62.066316 38.96098 
L 61.891198 40.333758 
L 61.71608 41.706535 
L 61.540962 43.079313 
L 61.365844 44.45209 
L 61.578487 46.306562 
L 61.79113 48.161035 
L 62.003774 50.015507 
L 62.216417 51.86998 
" style="fill:none;stroke:#000000;stroke-linecap:square;stroke-width:1.5;"/>
   </g>
   <g id="line2d_37">
    <path clip-path="url(#p9aba0d2359)" d="M 54.337701 21.313453 
L 53.676484 22.258047 
L 53.015267 23.202641 
L 52.354049 24.147234 
L 51.692832 25.091828 
L 51.031615 26.036422 
L 50.370398 26.981016 
L 49.709181 27.92561 
L 49.047964 28.870204 
L 48.386747 29.814798 
L 47.72553 30.759391 
L 47.064313 31.703985 
L 46.403096 32.648579 
L 45.741878 33.593173 
L 45.080661 34.537767 
L 44.419444 35.482361 
L 43.758227 36.426954 
L 42.925086 37.475064 
L 42.091944 38.523174 
L 41.258803 39.571284 
L 40.425661 40.619393 
L 39.59252 41.667503 
L 38.759378 42.715613 
L 37.926236 43.763723 
L 37.093095 44.811832 
L 36.451838 46.084781 
L 35.810581 47.35773 
L 35.169324 48.630679 
L 34.528068 49.903628 
L 33.886811 51.176576 
L 33.245554 52.449525 
L 32.604297 53.722474 
L 31.96304 54.995423 
" style="fill:none;stroke:#ff0000;stroke-dasharray:5.55,2.4;stroke-dashoffset:0;stroke-width:1.5;"/>
   </g>
   <g id="line2d_38">
    <path clip-path="url(#p9aba0d2359)" d="M 113.166728 93.057617 
L 112.864662 94.399457 
L 112.562597 95.741296 
L 112.260532 97.083136 
L 111.958466 98.424975 
L 111.044552 98.989051 
L 110.130638 99.553127 
L 109.902825 101.359035 
L 110.302562 102.770664 
L 110.7023 104.182294 
L 112.072373 105.536365 
L 112.081421 106.734307 
L 112.09047 107.93225 
L 112.099519 109.130192 
L 112.108567 110.328135 
" style="fill:none;stroke:#4169e1;stroke-dasharray:5.55,2.4;stroke-dashoffset:0;stroke-width:1.5;"/>
   </g>
   <g id="line2d_39">
    <path clip-path="url(#p9aba0d2359)" d="M 31.849134 63.177406 
L 31.330699 64.980435 
L 30.812264 66.783465 
L 30.29383 68.586494 
L 29.775395 70.389523 
L 29.229814 71.383132 
L 28.684234 72.376741 
L 28.138653 73.37035 
L 27.593073 74.363958 
L 27.363396 75.401456 
L 27.13372 76.438953 
L 26.904044 77.47645 
L 26.674368 78.513948 
L 27.19919 80.070194 
L 27.724012 81.62644 
L 29.036067 83.052459 
L 30.348122 84.478478 
L 30.15118 85.515976 
L 29.954239 86.553473 
L 29.724563 88.044965 
L 29.494887 89.536458 
L 29.265211 91.02795 
L 29.035535 92.519442 
L 29.232476 94.140442 
L 29.429417 95.761442 
L 28.773124 97.123427 
L 28.11683 98.485412 
L 28.576182 100.300672 
L 29.035535 102.115933 
L 29.212782 103.620016 
L 29.390029 105.1241 
L 29.567276 106.628183 
L 29.744523 108.132266 
" style="fill:none;stroke:#4169e1;stroke-dasharray:5.55,2.4;stroke-dashoffset:0;stroke-width:1.5;"/>
   </g>
   <g id="text_1">
    <g id="patch_4">
     <path d="M 52.222328 136.951633 
L 54.755852 120.6998 
L 52.803804 120.395492 
L 50.270281 136.647325 
z
" style="fill:#ffffff;"/>
    </g>
    <!-- Crotched Rocket -->
    <g style="fill:#808080;" transform="translate(51.794674 136.864724)rotate(-81.13939)scale(0.02 -0.02)">
     <defs>
      <path d="M 4122 4306 
L 4122 3641 
Q 3803 3938 3442 4084 
Q 3081 4231 2675 4231 
Q 1875 4231 1450 3742 
Q 1025 3253 1025 2328 
Q 1025 1406 1450 917 
Q 1875 428 2675 428 
Q 3081 428 3442 575 
Q 3803 722 4122 1019 
L 4122 359 
Q 3791 134 3420 21 
Q 3050 -91 2638 -91 
Q 1578 -91 968 557 
Q 359 1206 359 2328 
Q 359 3453 968 4101 
Q 1578 4750 2638 4750 
Q 3056 4750 3426 4639 
Q 3797 4528 4122 4306 
z
" id="DejaVuSans-43" transform="scale(0.015625)"/>
      <path d="M 2631 2963 
Q 2534 3019 2420 3045 
Q 2306 3072 2169 3072 
Q 1681 3072 1420 2755 
Q 1159 2438 1159 1844 
L 1159 0 
L 581 0 
L 581 3500 
L 1159 3500 
L 1159 2956 
Q 1341 3275 1631 3429 
Q 1922 3584 2338 3584 
Q 2397 3584 2469 3576 
Q 2541 3569 2628 3553 
L 2631 2963 
z
" id="DejaVuSans-72" transform="scale(0.015625)"/>
      <path d="M 1959 3097 
Q 1497 3097 1228 2736 
Q 959 2375 959 1747 
Q 959 1119 1226 758 
Q 1494 397 1959 397 
Q 2419 397 2687 759 
Q 2956 1122 2956 1747 
Q 2956 2369 2687 2733 
Q 2419 3097 1959 3097 
z
M 1959 3584 
Q 2709 3584 3137 3096 
Q 3566 2609 3566 1747 
Q 3566 888 3137 398 
Q 2709 -91 1959 -91 
Q 1206 -91 779 398 
Q 353 888 353 1747 
Q 353 2609 779 3096 
Q 1206 3584 1959 3584 
z
" id="DejaVuSans-6f" transform="scale(0.015625)"/>
      <path d="M 1172 4494 
L 1172 3500 
L 2356 3500 
L 2356 3053 
L 1172 3053 
L 1172 1153 
Q 1172 725 1289 603 
Q 1406 481 1766 481 
L 2356 481 
L 2356 0 
L 1766 0 
Q 1100 0 847 248 
Q 594 497 594 1153 
L 594 3053 
L 172 3053 
L 172 3500 
L 594 3500 
L 594 4494 
L 1172 4494 
z
" id="DejaVuSans-74" transform="scale(0.015625)"/>
      <path d="M 3122 3366 
L 3122 2828 
Q 2878 2963 2633 3030 
Q 2388 3097 2138 3097 
Q 1578 3097 1268 2742 
Q 959 2388 959 1747 
Q 959 1106 1268 751 
Q 1578 397 2138 397 
Q 2388 397 2633 464 
Q 2878 531 3122 666 
L 3122 134 
Q 2881 22 2623 -34 
Q 2366 -91 2075 -91 
Q 1284 -91 818 406 
Q 353 903 353 1747 
Q 353 2603 823 3093 
Q 1294 3584 2113 3584 
Q 2378 3584 2631 3529 
Q 2884 3475 3122 3366 
z
" id="DejaVuSans-63" transform="scale(0.015625)"/>
      <path d="M 3513 2113 
L 3513 0 
L 2938 0 
L 2938 2094 
Q 2938 2591 2744 2837 
Q 2550 3084 2163 3084 
Q 1697 3084 1428 2787 
Q 1159 2491 1159 1978 
L 1159 0 
L 581 0 
L 581 4863 
L 1159 4863 
L 1159 2956 
Q 1366 3272 1645 3428 
Q 1925 3584 2291 3584 
Q 2894 3584 3203 3211 
Q 3513 2838 3513 2113 
z
" id="DejaVuSans-68" transform="scale(0.015625)"/>
      <path d="M 3597 1894 
L 3597 1613 
L 953 1613 
Q 991 1019 1311 708 
Q 1631 397 2203 397 
Q 2534 397 2845 478 
Q 3156 559 3463 722 
L 3463 178 
Q 3153 47 2828 -22 
Q 2503 -91 2169 -91 
Q 1331 -91 842 396 
Q 353 884 353 1716 
Q 353 2575 817 3079 
Q 1281 3584 2069 3584 
Q 2775 3584 3186 3129 
Q 3597 2675 3597 1894 
z
M 3022 2063 
Q 3016 2534 2758 2815 
Q 2500 3097 2075 3097 
Q 1594 3097 1305 2825 
Q 1016 2553 972 2059 
L 3022 2063 
z
" id="DejaVuSans-65" transform="scale(0.015625)"/>
      <path d="M 2906 2969 
L 2906 4863 
L 3481 4863 
L 3481 0 
L 2906 0 
L 2906 525 
Q 2725 213 2448 61 
Q 2172 -91 1784 -91 
Q 1150 -91 751 415 
Q 353 922 353 1747 
Q 353 2572 751 3078 
Q 1150 3584 1784 3584 
Q 2172 3584 2448 3432 
Q 2725 3281 2906 2969 
z
M 947 1747 
Q 947 1113 1208 752 
Q 1469 391 1925 391 
Q 2381 391 2643 752 
Q 2906 1113 2906 1747 
Q 2906 2381 2643 2742 
Q 2381 3103 1925 3103 
Q 1469 3103 1208 2742 
Q 947 2381 947 1747 
z
" id="DejaVuSans-64" transform="scale(0.015625)"/>
      <path id="DejaVuSans-20" transform="scale(0.015625)"/>
      <path d="M 2841 2188 
Q 3044 2119 3236 1894 
Q 3428 1669 3622 1275 
L 4263 0 
L 3584 0 
L 2988 1197 
Q 2756 1666 2539 1819 
Q 2322 1972 1947 1972 
L 1259 1972 
L 1259 0 
L 628 0 
L 628 4666 
L 2053 4666 
Q 2853 4666 3247 4331 
Q 3641 3997 3641 3322 
Q 3641 2881 3436 2590 
Q 3231 2300 2841 2188 
z
M 1259 4147 
L 1259 2491 
L 2053 2491 
Q 2509 2491 2742 2702 
Q 2975 2913 2975 3322 
Q 2975 3731 2742 3939 
Q 2509 4147 2053 4147 
L 1259 4147 
z
" id="DejaVuSans-52" transform="scale(0.015625)"/>
      <path d="M 581 4863 
L 1159 4863 
L 1159 1991 
L 2875 3500 
L 3609 3500 
L 1753 1863 
L 3688 0 
L 2938 0 
L 1159 1709 
L 1159 0 
L 581 0 
L 581 4863 
z
" id="DejaVuSans-6b" transform="scale(0.015625)"/>
     </defs>
     <use xlink:href="#DejaVuSans-43"/>
     <use x="69.824219" xlink:href="#DejaVuSans-72"/>
     <use x="108.6875" xlink:href="#DejaVuSans-6f"/>
     <use x="169.869141" xlink:href="#DejaVuSans-74"/>
     <use x="209.078125" xlink:href="#DejaVuSans-63"/>
     <use x="264.058594" xlink:href="#DejaVuSans-68"/>
     <use x="327.4375" xlink:href="#DejaVuSans-65"/>
     <use x="388.960938" xlink:href="#DejaVuSans-64"/>
     <use x="452.4375" xlink:href="#DejaVuSans-20"/>
     <use x="484.224609" xlink:href="#DejaVuSans-52"/>
     <use x="549.207031" xlink:href="#DejaVuSans-6f"/>
     <use x="610.388672" xlink:href="#DejaVuSans-63"/>
     <use x="665.369141" xlink:href="#DejaVuSans-6b"/>
     <use x="719.654297" xlink:href="#DejaVuSans-65"/>
     <use x="781.177734" xlink:href="#DejaVuSans-74"/>
    </g>
   </g>
   <g id="text_2">
    <g id="patch_5">
     <path d="M 37.144497 105.599674 
L 37.230803 99.595919 
L 35.255382 99.567522 
L 35.169076 105.571277 
z
" style="fill:#ffffff;"/>
    </g>
    <!-- Valley -->
    <g style="fill:#808080;" transform="translate(36.708892 105.57341)rotate(-89.176413)scale(0.02 -0.02)">
     <defs>
      <path d="M 1831 0 
L 50 4666 
L 709 4666 
L 2188 738 
L 3669 4666 
L 4325 4666 
L 2547 0 
L 1831 0 
z
" id="DejaVuSans-56" transform="scale(0.015625)"/>
      <path d="M 2194 1759 
Q 1497 1759 1228 1600 
Q 959 1441 959 1056 
Q 959 750 1161 570 
Q 1363 391 1709 391 
Q 2188 391 2477 730 
Q 2766 1069 2766 1631 
L 2766 1759 
L 2194 1759 
z
M 3341 1997 
L 3341 0 
L 2766 0 
L 2766 531 
Q 2569 213 2275 61 
Q 1981 -91 1556 -91 
Q 1019 -91 701 211 
Q 384 513 384 1019 
Q 384 1609 779 1909 
Q 1175 2209 1959 2209 
L 2766 2209 
L 2766 2266 
Q 2766 2663 2505 2880 
Q 2244 3097 1772 3097 
Q 1472 3097 1187 3025 
Q 903 2953 641 2809 
L 641 3341 
Q 956 3463 1253 3523 
Q 1550 3584 1831 3584 
Q 2591 3584 2966 3190 
Q 3341 2797 3341 1997 
z
" id="DejaVuSans-61" transform="scale(0.015625)"/>
      <path d="M 603 4863 
L 1178 4863 
L 1178 0 
L 603 0 
L 603 4863 
z
" id="DejaVuSans-6c" transform="scale(0.015625)"/>
      <path d="M 2059 -325 
Q 1816 -950 1584 -1140 
Q 1353 -1331 966 -1331 
L 506 -1331 
L 506 -850 
L 844 -850 
Q 1081 -850 1212 -737 
Q 1344 -625 1503 -206 
L 1606 56 
L 191 3500 
L 800 3500 
L 1894 763 
L 2988 3500 
L 3597 3500 
L 2059 -325 
z
" id="DejaVuSans-79" transform="scale(0.015625)"/>
     </defs>
     <use xlink:href="#DejaVuSans-56"/>
     <use x="60.658203" xlink:href="#DejaVuSans-61"/>
     <use x="121.9375" xlink:href="#DejaVuSans-6c"/>
     <use x="149.720703" xlink:href="#DejaVuSans-6c"/>
     <use x="177.503906" xlink:href="#DejaVuSans-65"/>
     <use x="239.027344" xlink:href="#DejaVuSans-79"/>
    </g>
   </g>
   <g id="text_3">
    <g id="patch_6">
     <path d="M 59.470549 144.899979 
L 64.02311 138.175491 
L 62.387144 137.067922 
L 57.834583 143.79241 
z
" style="fill:#ffffff;"/>
    </g>
    <!-- Park Lift -->
    <g style="fill:#808080;" transform="translate(59.120773 144.639024)rotate(-55.901517)scale(0.02 -0.02)">
     <defs>
      <path d="M 1259 4147 
L 1259 2394 
L 2053 2394 
Q 2494 2394 2734 2622 
Q 2975 2850 2975 3272 
Q 2975 3691 2734 3919 
Q 2494 4147 2053 4147 
L 1259 4147 
z
M 628 4666 
L 2053 4666 
Q 2838 4666 3239 4311 
Q 3641 3956 3641 3272 
Q 3641 2581 3239 2228 
Q 2838 1875 2053 1875 
L 1259 1875 
L 1259 0 
L 628 0 
L 628 4666 
z
" id="DejaVuSans-50" transform="scale(0.015625)"/>
      <path d="M 628 4666 
L 1259 4666 
L 1259 531 
L 3531 531 
L 3531 0 
L 628 0 
L 628 4666 
z
" id="DejaVuSans-4c" transform="scale(0.015625)"/>
      <path d="M 603 3500 
L 1178 3500 
L 1178 0 
L 603 0 
L 603 3500 
z
M 603 4863 
L 1178 4863 
L 1178 4134 
L 603 4134 
L 603 4863 
z
" id="DejaVuSans-69" transform="scale(0.015625)"/>
      <path d="M 2375 4863 
L 2375 4384 
L 1825 4384 
Q 1516 4384 1395 4259 
Q 1275 4134 1275 3809 
L 1275 3500 
L 2222 3500 
L 2222 3053 
L 1275 3053 
L 1275 0 
L 697 0 
L 697 3053 
L 147 3053 
L 147 3500 
L 697 3500 
L 697 3744 
Q 697 4328 969 4595 
Q 1241 4863 1831 4863 
L 2375 4863 
z
" id="DejaVuSans-66" transform="scale(0.015625)"/>
     </defs>
     <use xlink:href="#DejaVuSans-50"/>
     <use x="55.802734" xlink:href="#DejaVuSans-61"/>
     <use x="117.082031" xlink:href="#DejaVuSans-72"/>
     <use x="158.195312" xlink:href="#DejaVuSans-6b"/>
     <use x="216.105469" xlink:href="#DejaVuSans-20"/>
     <use x="247.892578" xlink:href="#DejaVuSans-4c"/>
     <use x="303.605469" xlink:href="#DejaVuSans-69"/>
     <use x="331.388672" xlink:href="#DejaVuSans-66"/>
     <use x="364.84375" xlink:href="#DejaVuSans-74"/>
    </g>
   </g>
   <g id="text_4">
    <g id="patch_7">
     <path d="M 88.780301 109.495036 
L 90.309874 104.780386 
L 88.430672 104.170717 
L 86.901099 108.885367 
z
" style="fill:#ffffff;"/>
    </g>
    <!-- West -->
    <g style="fill:#808080;" transform="translate(88.371812 109.341483)rotate(-72.025394)scale(0.02 -0.02)">
     <defs>
      <path d="M 213 4666 
L 850 4666 
L 1831 722 
L 2809 4666 
L 3519 4666 
L 4500 722 
L 5478 4666 
L 6119 4666 
L 4947 0 
L 4153 0 
L 3169 4050 
L 2175 0 
L 1381 0 
L 213 4666 
z
" id="DejaVuSans-57" transform="scale(0.015625)"/>
      <path d="M 2834 3397 
L 2834 2853 
Q 2591 2978 2328 3040 
Q 2066 3103 1784 3103 
Q 1356 3103 1142 2972 
Q 928 2841 928 2578 
Q 928 2378 1081 2264 
Q 1234 2150 1697 2047 
L 1894 2003 
Q 2506 1872 2764 1633 
Q 3022 1394 3022 966 
Q 3022 478 2636 193 
Q 2250 -91 1575 -91 
Q 1294 -91 989 -36 
Q 684 19 347 128 
L 347 722 
Q 666 556 975 473 
Q 1284 391 1588 391 
Q 1994 391 2212 530 
Q 2431 669 2431 922 
Q 2431 1156 2273 1281 
Q 2116 1406 1581 1522 
L 1381 1569 
Q 847 1681 609 1914 
Q 372 2147 372 2553 
Q 372 3047 722 3315 
Q 1072 3584 1716 3584 
Q 2034 3584 2315 3537 
Q 2597 3491 2834 3397 
z
" id="DejaVuSans-73" transform="scale(0.015625)"/>
     </defs>
     <use xlink:href="#DejaVuSans-57"/>
     <use x="93.001953" xlink:href="#DejaVuSans-65"/>
     <use x="154.525391" xlink:href="#DejaVuSans-73"/>
     <use x="206.625" xlink:href="#DejaVuSans-74"/>
    </g>
   </g>
   <g id="text_5">
    <g id="patch_8">
     <path d="M 61.205389 76.624675 
L 63.127016 56.526644 
L 61.16036 56.338607 
L 59.238733 76.436637 
z
" style="fill:#ffffff;"/>
    </g>
    <!-- Pluto's Plunge 22.7° -->
    <g style="fill:#4169e1;" transform="translate(60.773335 76.563273)rotate(-84.5384)scale(0.02 -0.02)">
     <defs>
      <path d="M 544 1381 
L 544 3500 
L 1119 3500 
L 1119 1403 
Q 1119 906 1312 657 
Q 1506 409 1894 409 
Q 2359 409 2629 706 
Q 2900 1003 2900 1516 
L 2900 3500 
L 3475 3500 
L 3475 0 
L 2900 0 
L 2900 538 
Q 2691 219 2414 64 
Q 2138 -91 1772 -91 
Q 1169 -91 856 284 
Q 544 659 544 1381 
z
M 1991 3584 
L 1991 3584 
z
" id="DejaVuSans-75" transform="scale(0.015625)"/>
      <path d="M 1147 4666 
L 1147 2931 
L 616 2931 
L 616 4666 
L 1147 4666 
z
" id="DejaVuSans-27" transform="scale(0.015625)"/>
      <path d="M 3513 2113 
L 3513 0 
L 2938 0 
L 2938 2094 
Q 2938 2591 2744 2837 
Q 2550 3084 2163 3084 
Q 1697 3084 1428 2787 
Q 1159 2491 1159 1978 
L 1159 0 
L 581 0 
L 581 3500 
L 1159 3500 
L 1159 2956 
Q 1366 3272 1645 3428 
Q 1925 3584 2291 3584 
Q 2894 3584 3203 3211 
Q 3513 2838 3513 2113 
z
" id="DejaVuSans-6e" transform="scale(0.015625)"/>
      <path d="M 2906 1791 
Q 2906 2416 2648 2759 
Q 2391 3103 1925 3103 
Q 1463 3103 1205 2759 
Q 947 2416 947 1791 
Q 947 1169 1205 825 
Q 1463 481 1925 481 
Q 2391 481 2648 825 
Q 2906 1169 2906 1791 
z
M 3481 434 
Q 3481 -459 3084 -895 
Q 2688 -1331 1869 -1331 
Q 1566 -1331 1297 -1286 
Q 1028 -1241 775 -1147 
L 775 -588 
Q 1028 -725 1275 -790 
Q 1522 -856 1778 -856 
Q 2344 -856 2625 -561 
Q 2906 -266 2906 331 
L 2906 616 
Q 2728 306 2450 153 
Q 2172 0 1784 0 
Q 1141 0 747 490 
Q 353 981 353 1791 
Q 353 2603 747 3093 
Q 1141 3584 1784 3584 
Q 2172 3584 2450 3431 
Q 2728 3278 2906 2969 
L 2906 3500 
L 3481 3500 
L 3481 434 
z
" id="DejaVuSans-67" transform="scale(0.015625)"/>
      <path d="M 1228 531 
L 3431 531 
L 3431 0 
L 469 0 
L 469 531 
Q 828 903 1448 1529 
Q 2069 2156 2228 2338 
Q 2531 2678 2651 2914 
Q 2772 3150 2772 3378 
Q 2772 3750 2511 3984 
Q 2250 4219 1831 4219 
Q 1534 4219 1204 4116 
Q 875 4013 500 3803 
L 500 4441 
Q 881 4594 1212 4672 
Q 1544 4750 1819 4750 
Q 2544 4750 2975 4387 
Q 3406 4025 3406 3419 
Q 3406 3131 3298 2873 
Q 3191 2616 2906 2266 
Q 2828 2175 2409 1742 
Q 1991 1309 1228 531 
z
" id="DejaVuSans-32" transform="scale(0.015625)"/>
      <path d="M 684 794 
L 1344 794 
L 1344 0 
L 684 0 
L 684 794 
z
" id="DejaVuSans-2e" transform="scale(0.015625)"/>
      <path d="M 525 4666 
L 3525 4666 
L 3525 4397 
L 1831 0 
L 1172 0 
L 2766 4134 
L 525 4134 
L 525 4666 
z
" id="DejaVuSans-37" transform="scale(0.015625)"/>
      <path d="M 1600 4347 
Q 1350 4347 1178 4173 
Q 1006 4000 1006 3750 
Q 1006 3503 1178 3333 
Q 1350 3163 1600 3163 
Q 1850 3163 2022 3333 
Q 2194 3503 2194 3750 
Q 2194 3997 2020 4172 
Q 1847 4347 1600 4347 
z
M 1600 4750 
Q 1800 4750 1984 4673 
Q 2169 4597 2303 4453 
Q 2447 4313 2519 4134 
Q 2591 3956 2591 3750 
Q 2591 3338 2302 3052 
Q 2013 2766 1594 2766 
Q 1172 2766 890 3047 
Q 609 3328 609 3750 
Q 609 4169 896 4459 
Q 1184 4750 1600 4750 
z
" id="DejaVuSans-b0" transform="scale(0.015625)"/>
     </defs>
     <use xlink:href="#DejaVuSans-50"/>
     <use x="60.302734" xlink:href="#DejaVuSans-6c"/>
     <use x="88.085938" xlink:href="#DejaVuSans-75"/>
     <use x="151.464844" xlink:href="#DejaVuSans-74"/>
     <use x="190.673828" xlink:href="#DejaVuSans-6f"/>
     <use x="251.855469" xlink:href="#DejaVuSans-27"/>
     <use x="279.345703" xlink:href="#DejaVuSans-73"/>
     <use x="331.445312" xlink:href="#DejaVuSans-20"/>
     <use x="363.232422" xlink:href="#DejaVuSans-50"/>
     <use x="423.535156" xlink:href="#DejaVuSans-6c"/>
     <use x="451.318359" xlink:href="#DejaVuSans-75"/>
     <use x="514.697266" xlink:href="#DejaVuSans-6e"/>
     <use x="578.076172" xlink:href="#DejaVuSans-67"/>
     <use x="641.552734" xlink:href="#DejaVuSans-65"/>
     <use x="703.076172" xlink:href="#DejaVuSans-20"/>
     <use x="734.863281" xlink:href="#DejaVuSans-32"/>
     <use x="798.486328" xlink:href="#DejaVuSans-32"/>
     <use x="862.109375" xlink:href="#DejaVuSans-2e"/>
     <use x="893.896484" xlink:href="#DejaVuSans-37"/>
     <use x="957.519531" xlink:href="#DejaVuSans-b0"/>
    </g>
   </g>
   <g id="text_6">
    <g id="patch_9">
     <path d="M 67.818885 47.80548 
L 82.811707 39.803976 
L 81.881518 38.061035 
L 66.888696 46.062538 
z
" style="fill:#ffffff;"/>
    </g>
    <!-- Moon Walk 16.5° -->
    <g style="fill:#008000;" transform="translate(67.631275 47.411469)rotate(-28.088349)scale(0.02 -0.02)">
     <defs>
      <path d="M 628 4666 
L 1569 4666 
L 2759 1491 
L 3956 4666 
L 4897 4666 
L 4897 0 
L 4281 0 
L 4281 4097 
L 3078 897 
L 2444 897 
L 1241 4097 
L 1241 0 
L 628 0 
L 628 4666 
z
" id="DejaVuSans-4d" transform="scale(0.015625)"/>
      <path d="M 794 531 
L 1825 531 
L 1825 4091 
L 703 3866 
L 703 4441 
L 1819 4666 
L 2450 4666 
L 2450 531 
L 3481 531 
L 3481 0 
L 794 0 
L 794 531 
z
" id="DejaVuSans-31" transform="scale(0.015625)"/>
      <path d="M 2113 2584 
Q 1688 2584 1439 2293 
Q 1191 2003 1191 1497 
Q 1191 994 1439 701 
Q 1688 409 2113 409 
Q 2538 409 2786 701 
Q 3034 994 3034 1497 
Q 3034 2003 2786 2293 
Q 2538 2584 2113 2584 
z
M 3366 4563 
L 3366 3988 
Q 3128 4100 2886 4159 
Q 2644 4219 2406 4219 
Q 1781 4219 1451 3797 
Q 1122 3375 1075 2522 
Q 1259 2794 1537 2939 
Q 1816 3084 2150 3084 
Q 2853 3084 3261 2657 
Q 3669 2231 3669 1497 
Q 3669 778 3244 343 
Q 2819 -91 2113 -91 
Q 1303 -91 875 529 
Q 447 1150 447 2328 
Q 447 3434 972 4092 
Q 1497 4750 2381 4750 
Q 2619 4750 2861 4703 
Q 3103 4656 3366 4563 
z
" id="DejaVuSans-36" transform="scale(0.015625)"/>
      <path d="M 691 4666 
L 3169 4666 
L 3169 4134 
L 1269 4134 
L 1269 2991 
Q 1406 3038 1543 3061 
Q 1681 3084 1819 3084 
Q 2600 3084 3056 2656 
Q 3513 2228 3513 1497 
Q 3513 744 3044 326 
Q 2575 -91 1722 -91 
Q 1428 -91 1123 -41 
Q 819 9 494 109 
L 494 744 
Q 775 591 1075 516 
Q 1375 441 1709 441 
Q 2250 441 2565 725 
Q 2881 1009 2881 1497 
Q 2881 1984 2565 2268 
Q 2250 2553 1709 2553 
Q 1456 2553 1204 2497 
Q 953 2441 691 2322 
L 691 4666 
z
" id="DejaVuSans-35" transform="scale(0.015625)"/>
     </defs>
     <use xlink:href="#DejaVuSans-4d"/>
     <use x="86.279297" xlink:href="#DejaVuSans-6f"/>
     <use x="147.460938" xlink:href="#DejaVuSans-6f"/>
     <use x="208.642578" xlink:href="#DejaVuSans-6e"/>
     <use x="272.021484" xlink:href="#DejaVuSans-20"/>
     <use x="303.808594" xlink:href="#DejaVuSans-57"/>
     <use x="396.310547" xlink:href="#DejaVuSans-61"/>
     <use x="457.589844" xlink:href="#DejaVuSans-6c"/>
     <use x="485.373047" xlink:href="#DejaVuSans-6b"/>
     <use x="543.283203" xlink:href="#DejaVuSans-20"/>
     <use x="575.070312" xlink:href="#DejaVuSans-31"/>
     <use x="638.693359" xlink:href="#DejaVuSans-36"/>
     <use x="702.316406" xlink:href="#DejaVuSans-2e"/>
     <use x="734.103516" xlink:href="#DejaVuSans-35"/>
     <use x="797.726562" xlink:href="#DejaVuSans-b0"/>
    </g>
   </g>
   <g id="text_7">
    <g id="patch_10">
     <path d="M 64.720204 57.538344 
L 80.164234 62.19225 
L 80.734251 60.300644 
L 65.290221 55.646737 
z
" style="fill:#ffffff;"/>
    </g>
    <!-- Milky Way 16.6° -->
    <g style="fill:#008000;" transform="translate(64.865132 57.126716)rotate(-343.230335)scale(0.02 -0.02)">
     <use xlink:href="#DejaVuSans-4d"/>
     <use x="86.279297" xlink:href="#DejaVuSans-69"/>
     <use x="114.0625" xlink:href="#DejaVuSans-6c"/>
     <use x="141.845703" xlink:href="#DejaVuSans-6b"/>
     <use x="196.130859" xlink:href="#DejaVuSans-79"/>
     <use x="255.310547" xlink:href="#DejaVuSans-20"/>
     <use x="287.097656" xlink:href="#DejaVuSans-57"/>
     <use x="379.599609" xlink:href="#DejaVuSans-61"/>
     <use x="440.878906" xlink:href="#DejaVuSans-79"/>
     <use x="500.058594" xlink:href="#DejaVuSans-20"/>
     <use x="531.845703" xlink:href="#DejaVuSans-31"/>
     <use x="595.46875" xlink:href="#DejaVuSans-36"/>
     <use x="659.091797" xlink:href="#DejaVuSans-2e"/>
     <use x="690.878906" xlink:href="#DejaVuSans-36"/>
     <use x="754.501953" xlink:href="#DejaVuSans-b0"/>
    </g>
   </g>
   <g id="text_8">
    <g id="patch_11">
     <path d="M 41.453271 66.483175 
L 43.375624 89.476079 
L 45.344381 89.311479 
L 43.422027 66.318574 
z
" style="fill:#ffffff;"/>
    </g>
    <!-- Meteor (FIS Trail) 20.8° -->
    <g style="fill:#4169e1;" transform="translate(41.889359 66.466785)rotate(-274.779177)scale(0.02 -0.02)">
     <defs>
      <path d="M 1984 4856 
Q 1566 4138 1362 3434 
Q 1159 2731 1159 2009 
Q 1159 1288 1364 580 
Q 1569 -128 1984 -844 
L 1484 -844 
Q 1016 -109 783 600 
Q 550 1309 550 2009 
Q 550 2706 781 3412 
Q 1013 4119 1484 4856 
L 1984 4856 
z
" id="DejaVuSans-28" transform="scale(0.015625)"/>
      <path d="M 628 4666 
L 3309 4666 
L 3309 4134 
L 1259 4134 
L 1259 2759 
L 3109 2759 
L 3109 2228 
L 1259 2228 
L 1259 0 
L 628 0 
L 628 4666 
z
" id="DejaVuSans-46" transform="scale(0.015625)"/>
      <path d="M 628 4666 
L 1259 4666 
L 1259 0 
L 628 0 
L 628 4666 
z
" id="DejaVuSans-49" transform="scale(0.015625)"/>
      <path d="M 3425 4513 
L 3425 3897 
Q 3066 4069 2747 4153 
Q 2428 4238 2131 4238 
Q 1616 4238 1336 4038 
Q 1056 3838 1056 3469 
Q 1056 3159 1242 3001 
Q 1428 2844 1947 2747 
L 2328 2669 
Q 3034 2534 3370 2195 
Q 3706 1856 3706 1288 
Q 3706 609 3251 259 
Q 2797 -91 1919 -91 
Q 1588 -91 1214 -16 
Q 841 59 441 206 
L 441 856 
Q 825 641 1194 531 
Q 1563 422 1919 422 
Q 2459 422 2753 634 
Q 3047 847 3047 1241 
Q 3047 1584 2836 1778 
Q 2625 1972 2144 2069 
L 1759 2144 
Q 1053 2284 737 2584 
Q 422 2884 422 3419 
Q 422 4038 858 4394 
Q 1294 4750 2059 4750 
Q 2388 4750 2728 4690 
Q 3069 4631 3425 4513 
z
" id="DejaVuSans-53" transform="scale(0.015625)"/>
      <path d="M -19 4666 
L 3928 4666 
L 3928 4134 
L 2272 4134 
L 2272 0 
L 1638 0 
L 1638 4134 
L -19 4134 
L -19 4666 
z
" id="DejaVuSans-54" transform="scale(0.015625)"/>
      <path d="M 513 4856 
L 1013 4856 
Q 1481 4119 1714 3412 
Q 1947 2706 1947 2009 
Q 1947 1309 1714 600 
Q 1481 -109 1013 -844 
L 513 -844 
Q 928 -128 1133 580 
Q 1338 1288 1338 2009 
Q 1338 2731 1133 3434 
Q 928 4138 513 4856 
z
" id="DejaVuSans-29" transform="scale(0.015625)"/>
      <path d="M 2034 4250 
Q 1547 4250 1301 3770 
Q 1056 3291 1056 2328 
Q 1056 1369 1301 889 
Q 1547 409 2034 409 
Q 2525 409 2770 889 
Q 3016 1369 3016 2328 
Q 3016 3291 2770 3770 
Q 2525 4250 2034 4250 
z
M 2034 4750 
Q 2819 4750 3233 4129 
Q 3647 3509 3647 2328 
Q 3647 1150 3233 529 
Q 2819 -91 2034 -91 
Q 1250 -91 836 529 
Q 422 1150 422 2328 
Q 422 3509 836 4129 
Q 1250 4750 2034 4750 
z
" id="DejaVuSans-30" transform="scale(0.015625)"/>
      <path d="M 2034 2216 
Q 1584 2216 1326 1975 
Q 1069 1734 1069 1313 
Q 1069 891 1326 650 
Q 1584 409 2034 409 
Q 2484 409 2743 651 
Q 3003 894 3003 1313 
Q 3003 1734 2745 1975 
Q 2488 2216 2034 2216 
z
M 1403 2484 
Q 997 2584 770 2862 
Q 544 3141 544 3541 
Q 544 4100 942 4425 
Q 1341 4750 2034 4750 
Q 2731 4750 3128 4425 
Q 3525 4100 3525 3541 
Q 3525 3141 3298 2862 
Q 3072 2584 2669 2484 
Q 3125 2378 3379 2068 
Q 3634 1759 3634 1313 
Q 3634 634 3220 271 
Q 2806 -91 2034 -91 
Q 1263 -91 848 271 
Q 434 634 434 1313 
Q 434 1759 690 2068 
Q 947 2378 1403 2484 
z
M 1172 3481 
Q 1172 3119 1398 2916 
Q 1625 2713 2034 2713 
Q 2441 2713 2670 2916 
Q 2900 3119 2900 3481 
Q 2900 3844 2670 4047 
Q 2441 4250 2034 4250 
Q 1625 4250 1398 4047 
Q 1172 3844 1172 3481 
z
" id="DejaVuSans-38" transform="scale(0.015625)"/>
     </defs>
     <use xlink:href="#DejaVuSans-4d"/>
     <use x="86.279297" xlink:href="#DejaVuSans-65"/>
     <use x="147.802734" xlink:href="#DejaVuSans-74"/>
     <use x="187.011719" xlink:href="#DejaVuSans-65"/>
     <use x="248.535156" xlink:href="#DejaVuSans-6f"/>
     <use x="309.716797" xlink:href="#DejaVuSans-72"/>
     <use x="350.830078" xlink:href="#DejaVuSans-20"/>
     <use x="382.617188" xlink:href="#DejaVuSans-28"/>
     <use x="421.630859" xlink:href="#DejaVuSans-46"/>
     <use x="479.150391" xlink:href="#DejaVuSans-49"/>
     <use x="508.642578" xlink:href="#DejaVuSans-53"/>
     <use x="572.119141" xlink:href="#DejaVuSans-20"/>
     <use x="603.90625" xlink:href="#DejaVuSans-54"/>
     <use x="650.240234" xlink:href="#DejaVuSans-72"/>
     <use x="691.353516" xlink:href="#DejaVuSans-61"/>
     <use x="752.632812" xlink:href="#DejaVuSans-69"/>
     <use x="780.416016" xlink:href="#DejaVuSans-6c"/>
     <use x="808.199219" xlink:href="#DejaVuSans-29"/>
     <use x="847.212891" xlink:href="#DejaVuSans-20"/>
     <use x="879" xlink:href="#DejaVuSans-32"/>
     <use x="942.623047" xlink:href="#DejaVuSans-30"/>
     <use x="1006.246094" xlink:href="#DejaVuSans-2e"/>
     <use x="1038.033203" xlink:href="#DejaVuSans-38"/>
     <use x="1101.65625" xlink:href="#DejaVuSans-b0"/>
    </g>
   </g>
   <g id="text_9">
    <g id="patch_12">
     <path d="M 45.177812 64.615432 
L 57.861391 68.070037 
L 58.380575 66.163852 
L 45.696997 62.709247 
z
" style="fill:#ffffff;"/>
    </g>
    <!-- Eclipse 19.5° -->
    <g style="fill:#4169e1;" transform="translate(45.311672 64.200073)rotate(-344.764026)scale(0.02 -0.02)">
     <defs>
      <path d="M 628 4666 
L 3578 4666 
L 3578 4134 
L 1259 4134 
L 1259 2753 
L 3481 2753 
L 3481 2222 
L 1259 2222 
L 1259 531 
L 3634 531 
L 3634 0 
L 628 0 
L 628 4666 
z
" id="DejaVuSans-45" transform="scale(0.015625)"/>
      <path d="M 1159 525 
L 1159 -1331 
L 581 -1331 
L 581 3500 
L 1159 3500 
L 1159 2969 
Q 1341 3281 1617 3432 
Q 1894 3584 2278 3584 
Q 2916 3584 3314 3078 
Q 3713 2572 3713 1747 
Q 3713 922 3314 415 
Q 2916 -91 2278 -91 
Q 1894 -91 1617 61 
Q 1341 213 1159 525 
z
M 3116 1747 
Q 3116 2381 2855 2742 
Q 2594 3103 2138 3103 
Q 1681 3103 1420 2742 
Q 1159 2381 1159 1747 
Q 1159 1113 1420 752 
Q 1681 391 2138 391 
Q 2594 391 2855 752 
Q 3116 1113 3116 1747 
z
" id="DejaVuSans-70" transform="scale(0.015625)"/>
      <path d="M 703 97 
L 703 672 
Q 941 559 1184 500 
Q 1428 441 1663 441 
Q 2288 441 2617 861 
Q 2947 1281 2994 2138 
Q 2813 1869 2534 1725 
Q 2256 1581 1919 1581 
Q 1219 1581 811 2004 
Q 403 2428 403 3163 
Q 403 3881 828 4315 
Q 1253 4750 1959 4750 
Q 2769 4750 3195 4129 
Q 3622 3509 3622 2328 
Q 3622 1225 3098 567 
Q 2575 -91 1691 -91 
Q 1453 -91 1209 -44 
Q 966 3 703 97 
z
M 1959 2075 
Q 2384 2075 2632 2365 
Q 2881 2656 2881 3163 
Q 2881 3666 2632 3958 
Q 2384 4250 1959 4250 
Q 1534 4250 1286 3958 
Q 1038 3666 1038 3163 
Q 1038 2656 1286 2365 
Q 1534 2075 1959 2075 
z
" id="DejaVuSans-39" transform="scale(0.015625)"/>
     </defs>
     <use xlink:href="#DejaVuSans-45"/>
     <use x="63.183594" xlink:href="#DejaVuSans-63"/>
     <use x="118.164062" xlink:href="#DejaVuSans-6c"/>
     <use x="145.947266" xlink:href="#DejaVuSans-69"/>
     <use x="173.730469" xlink:href="#DejaVuSans-70"/>
     <use x="237.207031" xlink:href="#DejaVuSans-73"/>
     <use x="289.306641" xlink:href="#DejaVuSans-65"/>
     <use x="350.830078" xlink:href="#DejaVuSans-20"/>
     <use x="382.617188" xlink:href="#DejaVuSans-31"/>
     <use x="446.240234" xlink:href="#DejaVuSans-39"/>
     <use x="509.863281" xlink:href="#DejaVuSans-2e"/>
     <use x="541.650391" xlink:href="#DejaVuSans-35"/>
     <use x="605.273438" xlink:href="#DejaVuSans-b0"/>
    </g>
   </g>
   <g id="text_10">
    <g id="patch_13">
     <path d="M 42.027159 55.659187 
L 58.603215 40.107833 
L 57.251481 38.667031 
L 40.675425 54.218386 
z
" style="fill:#ffffff;"/>
    </g>
    <!-- Satellite Summit 21.3° -->
    <g style="fill:#4169e1;" transform="translate(41.743474 55.327579)rotate(-43.173174)scale(0.02 -0.02)">
     <defs>
      <path d="M 3328 2828 
Q 3544 3216 3844 3400 
Q 4144 3584 4550 3584 
Q 5097 3584 5394 3201 
Q 5691 2819 5691 2113 
L 5691 0 
L 5113 0 
L 5113 2094 
Q 5113 2597 4934 2840 
Q 4756 3084 4391 3084 
Q 3944 3084 3684 2787 
Q 3425 2491 3425 1978 
L 3425 0 
L 2847 0 
L 2847 2094 
Q 2847 2600 2669 2842 
Q 2491 3084 2119 3084 
Q 1678 3084 1418 2786 
Q 1159 2488 1159 1978 
L 1159 0 
L 581 0 
L 581 3500 
L 1159 3500 
L 1159 2956 
Q 1356 3278 1631 3431 
Q 1906 3584 2284 3584 
Q 2666 3584 2933 3390 
Q 3200 3197 3328 2828 
z
" id="DejaVuSans-6d" transform="scale(0.015625)"/>
      <path d="M 2597 2516 
Q 3050 2419 3304 2112 
Q 3559 1806 3559 1356 
Q 3559 666 3084 287 
Q 2609 -91 1734 -91 
Q 1441 -91 1130 -33 
Q 819 25 488 141 
L 488 750 
Q 750 597 1062 519 
Q 1375 441 1716 441 
Q 2309 441 2620 675 
Q 2931 909 2931 1356 
Q 2931 1769 2642 2001 
Q 2353 2234 1838 2234 
L 1294 2234 
L 1294 2753 
L 1863 2753 
Q 2328 2753 2575 2939 
Q 2822 3125 2822 3475 
Q 2822 3834 2567 4026 
Q 2313 4219 1838 4219 
Q 1578 4219 1281 4162 
Q 984 4106 628 3988 
L 628 4550 
Q 988 4650 1302 4700 
Q 1616 4750 1894 4750 
Q 2613 4750 3031 4423 
Q 3450 4097 3450 3541 
Q 3450 3153 3228 2886 
Q 3006 2619 2597 2516 
z
" id="DejaVuSans-33" transform="scale(0.015625)"/>
     </defs>
     <use xlink:href="#DejaVuSans-53"/>
     <use x="63.476562" xlink:href="#DejaVuSans-61"/>
     <use x="124.755859" xlink:href="#DejaVuSans-74"/>
     <use x="163.964844" xlink:href="#DejaVuSans-65"/>
     <use x="225.488281" xlink:href="#DejaVuSans-6c"/>
     <use x="253.271484" xlink:href="#DejaVuSans-6c"/>
     <use x="281.054688" xlink:href="#DejaVuSans-69"/>
     <use x="308.837891" xlink:href="#DejaVuSans-74"/>
     <use x="348.046875" xlink:href="#DejaVuSans-65"/>
     <use x="409.570312" xlink:href="#DejaVuSans-20"/>
     <use x="441.357422" xlink:href="#DejaVuSans-53"/>
     <use x="504.833984" xlink:href="#DejaVuSans-75"/>
     <use x="568.212891" xlink:href="#DejaVuSans-6d"/>
     <use x="665.625" xlink:href="#DejaVuSans-6d"/>
     <use x="763.037109" xlink:href="#DejaVuSans-69"/>
     <use x="790.820312" xlink:href="#DejaVuSans-74"/>
     <use x="830.029297" xlink:href="#DejaVuSans-20"/>
     <use x="861.816406" xlink:href="#DejaVuSans-32"/>
     <use x="925.439453" xlink:href="#DejaVuSans-31"/>
     <use x="989.0625" xlink:href="#DejaVuSans-2e"/>
     <use x="1020.849609" xlink:href="#DejaVuSans-33"/>
     <use x="1084.472656" xlink:href="#DejaVuSans-b0"/>
    </g>
   </g>
   <g id="text_11">
    <g id="patch_14">
     <path d="M 25.474481 48.571389 
L 39.659141 33.237693 
L 38.208883 31.89611 
L 24.024223 47.229806 
z
" style="fill:#ffffff;"/>
    </g>
    <!-- Jupiter's Storm 26.1° -->
    <g transform="translate(25.168051 48.260677)rotate(-47.22918)scale(0.02 -0.02)">
     <defs>
      <path d="M 628 4666 
L 1259 4666 
L 1259 325 
Q 1259 -519 939 -900 
Q 619 -1281 -91 -1281 
L -331 -1281 
L -331 -750 
L -134 -750 
Q 284 -750 456 -515 
Q 628 -281 628 325 
L 628 4666 
z
" id="DejaVuSans-4a" transform="scale(0.015625)"/>
     </defs>
     <use xlink:href="#DejaVuSans-4a"/>
     <use x="29.492188" xlink:href="#DejaVuSans-75"/>
     <use x="92.871094" xlink:href="#DejaVuSans-70"/>
     <use x="156.347656" xlink:href="#DejaVuSans-69"/>
     <use x="184.130859" xlink:href="#DejaVuSans-74"/>
     <use x="223.339844" xlink:href="#DejaVuSans-65"/>
     <use x="284.863281" xlink:href="#DejaVuSans-72"/>
     <use x="325.976562" xlink:href="#DejaVuSans-27"/>
     <use x="353.466797" xlink:href="#DejaVuSans-73"/>
     <use x="405.566406" xlink:href="#DejaVuSans-20"/>
     <use x="437.353516" xlink:href="#DejaVuSans-53"/>
     <use x="500.830078" xlink:href="#DejaVuSans-74"/>
     <use x="540.039062" xlink:href="#DejaVuSans-6f"/>
     <use x="601.220703" xlink:href="#DejaVuSans-72"/>
     <use x="640.583984" xlink:href="#DejaVuSans-6d"/>
     <use x="737.996094" xlink:href="#DejaVuSans-20"/>
     <use x="769.783203" xlink:href="#DejaVuSans-32"/>
     <use x="833.40625" xlink:href="#DejaVuSans-36"/>
     <use x="897.029297" xlink:href="#DejaVuSans-2e"/>
     <use x="928.816406" xlink:href="#DejaVuSans-31"/>
     <use x="992.439453" xlink:href="#DejaVuSans-b0"/>
    </g>
   </g>
   <g id="text_12">
    <g id="patch_15">
     <path d="M 5.56717 80.278118 
L 16.005916 67.850916 
L 14.493164 66.580217 
L 4.054418 79.007419 
z
" style="fill:#ffffff;"/>
    </g>
    <!-- NCC-1701 10.9° -->
    <g style="fill:#008000;" transform="translate(5.246233 79.982414)rotate(-49.970022)scale(0.02 -0.02)">
     <defs>
      <path d="M 628 4666 
L 1478 4666 
L 3547 763 
L 3547 4666 
L 4159 4666 
L 4159 0 
L 3309 0 
L 1241 3903 
L 1241 0 
L 628 0 
L 628 4666 
z
" id="DejaVuSans-4e" transform="scale(0.015625)"/>
      <path d="M 313 2009 
L 1997 2009 
L 1997 1497 
L 313 1497 
L 313 2009 
z
" id="DejaVuSans-2d" transform="scale(0.015625)"/>
     </defs>
     <use xlink:href="#DejaVuSans-4e"/>
     <use x="74.804688" xlink:href="#DejaVuSans-43"/>
     <use x="144.628906" xlink:href="#DejaVuSans-43"/>
     <use x="214.453125" xlink:href="#DejaVuSans-2d"/>
     <use x="250.537109" xlink:href="#DejaVuSans-31"/>
     <use x="314.160156" xlink:href="#DejaVuSans-37"/>
     <use x="377.783203" xlink:href="#DejaVuSans-30"/>
     <use x="441.40625" xlink:href="#DejaVuSans-31"/>
     <use x="505.029297" xlink:href="#DejaVuSans-20"/>
     <use x="536.816406" xlink:href="#DejaVuSans-31"/>
     <use x="600.439453" xlink:href="#DejaVuSans-30"/>
     <use x="664.0625" xlink:href="#DejaVuSans-2e"/>
     <use x="695.849609" xlink:href="#DejaVuSans-39"/>
     <use x="759.472656" xlink:href="#DejaVuSans-b0"/>
    </g>
   </g>
   <g id="text_13">
    <g id="patch_16">
     <path d="M 12.043344 82.267567 
L 22.205054 74.075159 
L 20.965082 72.53712 
L 10.803372 80.729528 
z
" style="fill:#ffffff;"/>
    </g>
    <!-- Galaxy 12.5° -->
    <g style="fill:#008000;" transform="translate(11.785304 81.915634)rotate(-38.875888)scale(0.02 -0.02)">
     <defs>
      <path d="M 3809 666 
L 3809 1919 
L 2778 1919 
L 2778 2438 
L 4434 2438 
L 4434 434 
Q 4069 175 3628 42 
Q 3188 -91 2688 -91 
Q 1594 -91 976 548 
Q 359 1188 359 2328 
Q 359 3472 976 4111 
Q 1594 4750 2688 4750 
Q 3144 4750 3555 4637 
Q 3966 4525 4313 4306 
L 4313 3634 
Q 3963 3931 3569 4081 
Q 3175 4231 2741 4231 
Q 1884 4231 1454 3753 
Q 1025 3275 1025 2328 
Q 1025 1384 1454 906 
Q 1884 428 2741 428 
Q 3075 428 3337 486 
Q 3600 544 3809 666 
z
" id="DejaVuSans-47" transform="scale(0.015625)"/>
      <path d="M 3513 3500 
L 2247 1797 
L 3578 0 
L 2900 0 
L 1881 1375 
L 863 0 
L 184 0 
L 1544 1831 
L 300 3500 
L 978 3500 
L 1906 2253 
L 2834 3500 
L 3513 3500 
z
" id="DejaVuSans-78" transform="scale(0.015625)"/>
     </defs>
     <use xlink:href="#DejaVuSans-47"/>
     <use x="77.490234" xlink:href="#DejaVuSans-61"/>
     <use x="138.769531" xlink:href="#DejaVuSans-6c"/>
     <use x="166.552734" xlink:href="#DejaVuSans-61"/>
     <use x="227.832031" xlink:href="#DejaVuSans-78"/>
     <use x="287.011719" xlink:href="#DejaVuSans-79"/>
     <use x="346.191406" xlink:href="#DejaVuSans-20"/>
     <use x="377.978516" xlink:href="#DejaVuSans-31"/>
     <use x="441.601562" xlink:href="#DejaVuSans-32"/>
     <use x="505.224609" xlink:href="#DejaVuSans-2e"/>
     <use x="537.011719" xlink:href="#DejaVuSans-35"/>
     <use x="600.634766" xlink:href="#DejaVuSans-b0"/>
    </g>
   </g>
   <g id="text_14">
    <g id="patch_17">
     <path d="M 110.22153 110.87075 
L 126.038624 102.80824 
L 125.141418 101.048094 
L 109.324323 109.110604 
z
" style="fill:#ffffff;"/>
    </g>
    <!-- Super Nova 11.4° -->
    <g style="fill:#008000;" transform="translate(110.041373 110.473277)rotate(-27.009483)scale(0.02 -0.02)">
     <defs>
      <path d="M 191 3500 
L 800 3500 
L 1894 563 
L 2988 3500 
L 3597 3500 
L 2284 0 
L 1503 0 
L 191 3500 
z
" id="DejaVuSans-76" transform="scale(0.015625)"/>
      <path d="M 2419 4116 
L 825 1625 
L 2419 1625 
L 2419 4116 
z
M 2253 4666 
L 3047 4666 
L 3047 1625 
L 3713 1625 
L 3713 1100 
L 3047 1100 
L 3047 0 
L 2419 0 
L 2419 1100 
L 313 1100 
L 313 1709 
L 2253 4666 
z
" id="DejaVuSans-34" transform="scale(0.015625)"/>
     </defs>
     <use xlink:href="#DejaVuSans-53"/>
     <use x="63.476562" xlink:href="#DejaVuSans-75"/>
     <use x="126.855469" xlink:href="#DejaVuSans-70"/>
     <use x="190.332031" xlink:href="#DejaVuSans-65"/>
     <use x="251.855469" xlink:href="#DejaVuSans-72"/>
     <use x="292.96875" xlink:href="#DejaVuSans-20"/>
     <use x="324.755859" xlink:href="#DejaVuSans-4e"/>
     <use x="399.560547" xlink:href="#DejaVuSans-6f"/>
     <use x="460.742188" xlink:href="#DejaVuSans-76"/>
     <use x="519.921875" xlink:href="#DejaVuSans-61"/>
     <use x="581.201172" xlink:href="#DejaVuSans-20"/>
     <use x="612.988281" xlink:href="#DejaVuSans-31"/>
     <use x="676.611328" xlink:href="#DejaVuSans-31"/>
     <use x="740.234375" xlink:href="#DejaVuSans-2e"/>
     <use x="772.021484" xlink:href="#DejaVuSans-34"/>
     <use x="835.644531" xlink:href="#DejaVuSans-b0"/>
    </g>
   </g>
   <g id="text_15">
    <g id="patch_18">
     <path d="M 80.132756 96.419761 
L 86.199443 83.830244 
L 84.419682 82.972606 
L 78.352995 95.562122 
z
" style="fill:#ffffff;"/>
    </g>
    <!-- Velocity 21.4° -->
    <g style="fill:#4169e1;" transform="translate(79.74872 96.212499)rotate(-64.271324)scale(0.02 -0.02)">
     <use xlink:href="#DejaVuSans-56"/>
     <use x="60.658203" xlink:href="#DejaVuSans-65"/>
     <use x="122.181641" xlink:href="#DejaVuSans-6c"/>
     <use x="149.964844" xlink:href="#DejaVuSans-6f"/>
     <use x="211.146484" xlink:href="#DejaVuSans-63"/>
     <use x="266.126953" xlink:href="#DejaVuSans-69"/>
     <use x="293.910156" xlink:href="#DejaVuSans-74"/>
     <use x="333.119141" xlink:href="#DejaVuSans-79"/>
     <use x="392.298828" xlink:href="#DejaVuSans-20"/>
     <use x="424.085938" xlink:href="#DejaVuSans-32"/>
     <use x="487.708984" xlink:href="#DejaVuSans-31"/>
     <use x="551.332031" xlink:href="#DejaVuSans-2e"/>
     <use x="583.119141" xlink:href="#DejaVuSans-34"/>
     <use x="646.742188" xlink:href="#DejaVuSans-b0"/>
    </g>
   </g>
   <g id="text_16">
    <g id="patch_19">
     <path d="M 66.177825 99.021878 
L 85.569439 95.39703 
L 85.206426 93.455042 
L 65.814811 97.079891 
z
" style="fill:#ffffff;"/>
    </g>
    <!-- Shooting Star 17.0° -->
    <g style="fill:#008000;" transform="translate(66.117382 98.589688)rotate(-10.588029)scale(0.02 -0.02)">
     <use xlink:href="#DejaVuSans-53"/>
     <use x="63.476562" xlink:href="#DejaVuSans-68"/>
     <use x="126.855469" xlink:href="#DejaVuSans-6f"/>
     <use x="188.037109" xlink:href="#DejaVuSans-6f"/>
     <use x="249.21875" xlink:href="#DejaVuSans-74"/>
     <use x="288.427734" xlink:href="#DejaVuSans-69"/>
     <use x="316.210938" xlink:href="#DejaVuSans-6e"/>
     <use x="379.589844" xlink:href="#DejaVuSans-67"/>
     <use x="443.066406" xlink:href="#DejaVuSans-20"/>
     <use x="474.853516" xlink:href="#DejaVuSans-53"/>
     <use x="538.330078" xlink:href="#DejaVuSans-74"/>
     <use x="577.539062" xlink:href="#DejaVuSans-61"/>
     <use x="638.818359" xlink:href="#DejaVuSans-72"/>
     <use x="679.931641" xlink:href="#DejaVuSans-20"/>
     <use x="711.71875" xlink:href="#DejaVuSans-31"/>
     <use x="775.341797" xlink:href="#DejaVuSans-37"/>
     <use x="838.964844" xlink:href="#DejaVuSans-2e"/>
     <use x="870.751953" xlink:href="#DejaVuSans-30"/>
     <use x="934.375" xlink:href="#DejaVuSans-b0"/>
    </g>
   </g>
   <g id="text_17">
    <g id="patch_20">
     <path d="M 24.927831 109.925155 
L 26.965256 126.449713 
L 28.926033 126.207955 
L 26.888608 109.683398 
z
" style="fill:#ffffff;"/>
    </g>
    <!-- Big Dipper 18.5° -->
    <g style="fill:#4169e1;" transform="translate(25.36294 109.891659)rotate(-277.02891)scale(0.02 -0.02)">
     <defs>
      <path d="M 1259 2228 
L 1259 519 
L 2272 519 
Q 2781 519 3026 730 
Q 3272 941 3272 1375 
Q 3272 1813 3026 2020 
Q 2781 2228 2272 2228 
L 1259 2228 
z
M 1259 4147 
L 1259 2741 
L 2194 2741 
Q 2656 2741 2882 2914 
Q 3109 3088 3109 3444 
Q 3109 3797 2882 3972 
Q 2656 4147 2194 4147 
L 1259 4147 
z
M 628 4666 
L 2241 4666 
Q 2963 4666 3353 4366 
Q 3744 4066 3744 3513 
Q 3744 3084 3544 2831 
Q 3344 2578 2956 2516 
Q 3422 2416 3680 2098 
Q 3938 1781 3938 1306 
Q 3938 681 3513 340 
Q 3088 0 2303 0 
L 628 0 
L 628 4666 
z
" id="DejaVuSans-42" transform="scale(0.015625)"/>
      <path d="M 1259 4147 
L 1259 519 
L 2022 519 
Q 2988 519 3436 956 
Q 3884 1394 3884 2338 
Q 3884 3275 3436 3711 
Q 2988 4147 2022 4147 
L 1259 4147 
z
M 628 4666 
L 1925 4666 
Q 3281 4666 3915 4102 
Q 4550 3538 4550 2338 
Q 4550 1131 3912 565 
Q 3275 0 1925 0 
L 628 0 
L 628 4666 
z
" id="DejaVuSans-44" transform="scale(0.015625)"/>
     </defs>
     <use xlink:href="#DejaVuSans-42"/>
     <use x="68.603516" xlink:href="#DejaVuSans-69"/>
     <use x="96.386719" xlink:href="#DejaVuSans-67"/>
     <use x="159.863281" xlink:href="#DejaVuSans-20"/>
     <use x="191.650391" xlink:href="#DejaVuSans-44"/>
     <use x="268.652344" xlink:href="#DejaVuSans-69"/>
     <use x="296.435547" xlink:href="#DejaVuSans-70"/>
     <use x="359.912109" xlink:href="#DejaVuSans-70"/>
     <use x="423.388672" xlink:href="#DejaVuSans-65"/>
     <use x="484.912109" xlink:href="#DejaVuSans-72"/>
     <use x="526.025391" xlink:href="#DejaVuSans-20"/>
     <use x="557.8125" xlink:href="#DejaVuSans-31"/>
     <use x="621.435547" xlink:href="#DejaVuSans-38"/>
     <use x="685.058594" xlink:href="#DejaVuSans-2e"/>
     <use x="716.845703" xlink:href="#DejaVuSans-35"/>
     <use x="780.46875" xlink:href="#DejaVuSans-b0"/>
    </g>
   </g>
   <g id="text_18">
    <g id="patch_21">
     <path d="M 39.68797 81.409286 
L 40.020526 64.687905 
L 38.045292 64.648622 
L 37.712736 81.370003 
z
" style="fill:#ffffff;"/>
    </g>
    <!-- Magnitude 21.0° -->
    <g style="fill:#4169e1;" transform="translate(39.252517 81.380622)rotate(-88.860648)scale(0.02 -0.02)">
     <use xlink:href="#DejaVuSans-4d"/>
     <use x="86.279297" xlink:href="#DejaVuSans-61"/>
     <use x="147.558594" xlink:href="#DejaVuSans-67"/>
     <use x="211.035156" xlink:href="#DejaVuSans-6e"/>
     <use x="274.414062" xlink:href="#DejaVuSans-69"/>
     <use x="302.197266" xlink:href="#DejaVuSans-74"/>
     <use x="341.40625" xlink:href="#DejaVuSans-75"/>
     <use x="404.785156" xlink:href="#DejaVuSans-64"/>
     <use x="468.261719" xlink:href="#DejaVuSans-65"/>
     <use x="529.785156" xlink:href="#DejaVuSans-20"/>
     <use x="561.572266" xlink:href="#DejaVuSans-32"/>
     <use x="625.195312" xlink:href="#DejaVuSans-31"/>
     <use x="688.818359" xlink:href="#DejaVuSans-2e"/>
     <use x="720.605469" xlink:href="#DejaVuSans-30"/>
     <use x="784.228516" xlink:href="#DejaVuSans-b0"/>
    </g>
   </g>
   <g id="text_19">
    <g id="patch_22">
     <path d="M 37.325487 113.708669 
L 37.903441 127.905347 
L 39.877431 127.824985 
L 39.299477 113.628307 
z
" style="fill:#ffffff;"/>
    </g>
    <!-- CM Park 17.4° -->
    <g style="fill:#4169e1;" transform="translate(37.761878 113.71092)rotate(-272.33125)scale(0.02 -0.02)">
     <use xlink:href="#DejaVuSans-43"/>
     <use x="69.824219" xlink:href="#DejaVuSans-4d"/>
     <use x="156.103516" xlink:href="#DejaVuSans-20"/>
     <use x="187.890625" xlink:href="#DejaVuSans-50"/>
     <use x="243.693359" xlink:href="#DejaVuSans-61"/>
     <use x="304.972656" xlink:href="#DejaVuSans-72"/>
     <use x="346.085938" xlink:href="#DejaVuSans-6b"/>
     <use x="403.996094" xlink:href="#DejaVuSans-20"/>
     <use x="435.783203" xlink:href="#DejaVuSans-31"/>
     <use x="499.40625" xlink:href="#DejaVuSans-37"/>
     <use x="563.029297" xlink:href="#DejaVuSans-2e"/>
     <use x="594.816406" xlink:href="#DejaVuSans-34"/>
     <use x="658.439453" xlink:href="#DejaVuSans-b0"/>
    </g>
   </g>
   <g id="text_20">
    <g id="patch_23">
     <path d="M 91.715998 94.987086 
L 98.30989 78.068513 
L 96.46913 77.35109 
L 89.875238 94.269663 
z
" style="fill:#ffffff;"/>
    </g>
    <!-- Comet Drop 19.6° -->
    <g style="fill:#4169e1;" transform="translate(91.317082 94.810146)rotate(-68.707008)scale(0.02 -0.02)">
     <use xlink:href="#DejaVuSans-43"/>
     <use x="69.824219" xlink:href="#DejaVuSans-6f"/>
     <use x="131.005859" xlink:href="#DejaVuSans-6d"/>
     <use x="228.417969" xlink:href="#DejaVuSans-65"/>
     <use x="289.941406" xlink:href="#DejaVuSans-74"/>
     <use x="329.150391" xlink:href="#DejaVuSans-20"/>
     <use x="360.9375" xlink:href="#DejaVuSans-44"/>
     <use x="437.939453" xlink:href="#DejaVuSans-72"/>
     <use x="476.802734" xlink:href="#DejaVuSans-6f"/>
     <use x="537.984375" xlink:href="#DejaVuSans-70"/>
     <use x="601.460938" xlink:href="#DejaVuSans-20"/>
     <use x="633.248047" xlink:href="#DejaVuSans-31"/>
     <use x="696.871094" xlink:href="#DejaVuSans-39"/>
     <use x="760.494141" xlink:href="#DejaVuSans-2e"/>
     <use x="792.28125" xlink:href="#DejaVuSans-36"/>
     <use x="855.904297" xlink:href="#DejaVuSans-b0"/>
    </g>
   </g>
   <g id="text_21">
    <g id="patch_24">
     <path d="M 75.781237 134.143286 
L 84.95545 125.344104 
L 83.587919 123.918288 
L 74.413706 132.717469 
z
" style="fill:#ffffff;"/>
    </g>
    <!-- Comet 19.6° -->
    <g style="fill:#4169e1;" transform="translate(75.493915 133.814824)rotate(-43.804648)scale(0.02 -0.02)">
     <use xlink:href="#DejaVuSans-43"/>
     <use x="69.824219" xlink:href="#DejaVuSans-6f"/>
     <use x="131.005859" xlink:href="#DejaVuSans-6d"/>
     <use x="228.417969" xlink:href="#DejaVuSans-65"/>
     <use x="289.941406" xlink:href="#DejaVuSans-74"/>
     <use x="329.150391" xlink:href="#DejaVuSans-20"/>
     <use x="360.9375" xlink:href="#DejaVuSans-31"/>
     <use x="424.560547" xlink:href="#DejaVuSans-39"/>
     <use x="488.183594" xlink:href="#DejaVuSans-2e"/>
     <use x="519.970703" xlink:href="#DejaVuSans-36"/>
     <use x="583.59375" xlink:href="#DejaVuSans-b0"/>
    </g>
   </g>
   <g id="text_22">
    <g id="patch_25">
     <path d="M 71.495496 143.110368 
L 78.481209 156.046555 
L 80.219563 155.107821 
L 73.23385 142.171634 
z
" style="fill:#ffffff;"/>
    </g>
    <!-- Re-Entry 11.6° -->
    <g style="fill:#008000;" transform="translate(71.888581 142.920827)rotate(-298.369636)scale(0.02 -0.02)">
     <use xlink:href="#DejaVuSans-52"/>
     <use x="64.982422" xlink:href="#DejaVuSans-65"/>
     <use x="126.505859" xlink:href="#DejaVuSans-2d"/>
     <use x="162.589844" xlink:href="#DejaVuSans-45"/>
     <use x="225.773438" xlink:href="#DejaVuSans-6e"/>
     <use x="289.152344" xlink:href="#DejaVuSans-74"/>
     <use x="328.361328" xlink:href="#DejaVuSans-72"/>
     <use x="369.474609" xlink:href="#DejaVuSans-79"/>
     <use x="428.654297" xlink:href="#DejaVuSans-20"/>
     <use x="460.441406" xlink:href="#DejaVuSans-31"/>
     <use x="524.064453" xlink:href="#DejaVuSans-31"/>
     <use x="587.6875" xlink:href="#DejaVuSans-2e"/>
     <use x="619.474609" xlink:href="#DejaVuSans-36"/>
     <use x="683.097656" xlink:href="#DejaVuSans-b0"/>
    </g>
   </g>
   <g id="text_23">
    <g id="patch_26">
     <path d="M 59.737337 149.086287 
L 76.821087 124.080132 
L 75.189807 122.965672 
L 58.106057 147.971827 
z
" style="fill:#ffffff;"/>
    </g>
    <!-- Zero-G Progression Park 21.2° -->
    <g style="fill:#4169e1;" transform="translate(59.388664 148.823858)rotate(-55.659822)scale(0.02 -0.02)">
     <defs>
      <path d="M 359 4666 
L 4025 4666 
L 4025 4184 
L 1075 531 
L 4097 531 
L 4097 0 
L 288 0 
L 288 481 
L 3238 4134 
L 359 4134 
L 359 4666 
z
" id="DejaVuSans-5a" transform="scale(0.015625)"/>
     </defs>
     <use xlink:href="#DejaVuSans-5a"/>
     <use x="68.505859" xlink:href="#DejaVuSans-65"/>
     <use x="130.029297" xlink:href="#DejaVuSans-72"/>
     <use x="168.892578" xlink:href="#DejaVuSans-6f"/>
     <use x="231.949219" xlink:href="#DejaVuSans-2d"/>
     <use x="271.658203" xlink:href="#DejaVuSans-47"/>
     <use x="349.148438" xlink:href="#DejaVuSans-20"/>
     <use x="380.935547" xlink:href="#DejaVuSans-50"/>
     <use x="439.488281" xlink:href="#DejaVuSans-72"/>
     <use x="478.351562" xlink:href="#DejaVuSans-6f"/>
     <use x="539.533203" xlink:href="#DejaVuSans-67"/>
     <use x="603.009766" xlink:href="#DejaVuSans-72"/>
     <use x="641.873047" xlink:href="#DejaVuSans-65"/>
     <use x="703.396484" xlink:href="#DejaVuSans-73"/>
     <use x="755.496094" xlink:href="#DejaVuSans-73"/>
     <use x="807.595703" xlink:href="#DejaVuSans-69"/>
     <use x="835.378906" xlink:href="#DejaVuSans-6f"/>
     <use x="896.560547" xlink:href="#DejaVuSans-6e"/>
     <use x="959.939453" xlink:href="#DejaVuSans-20"/>
     <use x="991.726562" xlink:href="#DejaVuSans-50"/>
     <use x="1047.529297" xlink:href="#DejaVuSans-61"/>
     <use x="1108.808594" xlink:href="#DejaVuSans-72"/>
     <use x="1149.921875" xlink:href="#DejaVuSans-6b"/>
     <use x="1207.832031" xlink:href="#DejaVuSans-20"/>
     <use x="1239.619141" xlink:href="#DejaVuSans-32"/>
     <use x="1303.242188" xlink:href="#DejaVuSans-31"/>
     <use x="1366.865234" xlink:href="#DejaVuSans-2e"/>
     <use x="1398.652344" xlink:href="#DejaVuSans-32"/>
     <use x="1462.275391" xlink:href="#DejaVuSans-b0"/>
    </g>
   </g>
   <g id="text_24">
    <g id="patch_27">
     <path d="M 53.579696 48.04736 
L 59.992557 26.24173 
L 58.097197 25.68432 
L 51.684337 47.48995 
z
" style="fill:#ffffff;"/>
    </g>
    <!-- Satellite Summit 22.1° -->
    <g style="fill:#4169e1;" transform="translate(53.167113 47.905176)rotate(-73.611814)scale(0.02 -0.02)">
     <use xlink:href="#DejaVuSans-53"/>
     <use x="63.476562" xlink:href="#DejaVuSans-61"/>
     <use x="124.755859" xlink:href="#DejaVuSans-74"/>
     <use x="163.964844" xlink:href="#DejaVuSans-65"/>
     <use x="225.488281" xlink:href="#DejaVuSans-6c"/>
     <use x="253.271484" xlink:href="#DejaVuSans-6c"/>
     <use x="281.054688" xlink:href="#DejaVuSans-69"/>
     <use x="308.837891" xlink:href="#DejaVuSans-74"/>
     <use x="348.046875" xlink:href="#DejaVuSans-65"/>
     <use x="409.570312" xlink:href="#DejaVuSans-20"/>
     <use x="441.357422" xlink:href="#DejaVuSans-53"/>
     <use x="504.833984" xlink:href="#DejaVuSans-75"/>
     <use x="568.212891" xlink:href="#DejaVuSans-6d"/>
     <use x="665.625" xlink:href="#DejaVuSans-6d"/>
     <use x="763.037109" xlink:href="#DejaVuSans-69"/>
     <use x="790.820312" xlink:href="#DejaVuSans-74"/>
     <use x="830.029297" xlink:href="#DejaVuSans-20"/>
     <use x="861.816406" xlink:href="#DejaVuSans-32"/>
     <use x="925.439453" xlink:href="#DejaVuSans-32"/>
     <use x="989.0625" xlink:href="#DejaVuSans-2e"/>
     <use x="1020.849609" xlink:href="#DejaVuSans-31"/>
     <use x="1084.472656" xlink:href="#DejaVuSans-b0"/>
    </g>
   </g>
   <g id="text_25">
    <g id="patch_28">
     <path d="M 60.9642 30.715244 
L 61.163207 44.453803 
L 63.138624 44.425188 
L 62.939618 30.686629 
z
" style="fill:#ffffff;"/>
    </g>
    <!-- Blastoff 24.6° -->
    <g transform="translate(61.400382 30.728928)rotate(-270.829886)scale(0.02 -0.02)">
     <use xlink:href="#DejaVuSans-42"/>
     <use x="68.603516" xlink:href="#DejaVuSans-6c"/>
     <use x="96.386719" xlink:href="#DejaVuSans-61"/>
     <use x="157.666016" xlink:href="#DejaVuSans-73"/>
     <use x="209.765625" xlink:href="#DejaVuSans-74"/>
     <use x="248.974609" xlink:href="#DejaVuSans-6f"/>
     <use x="310.15625" xlink:href="#DejaVuSans-66"/>
     <use x="345.361328" xlink:href="#DejaVuSans-66"/>
     <use x="380.566406" xlink:href="#DejaVuSans-20"/>
     <use x="412.353516" xlink:href="#DejaVuSans-32"/>
     <use x="475.976562" xlink:href="#DejaVuSans-34"/>
     <use x="539.599609" xlink:href="#DejaVuSans-2e"/>
     <use x="571.386719" xlink:href="#DejaVuSans-36"/>
     <use x="635.009766" xlink:href="#DejaVuSans-b0"/>
    </g>
   </g>
   <g id="text_26">
    <g id="patch_29">
     <path d="M 39.168763 41.977223 
L 53.750037 26.566968 
L 52.314994 25.209122 
L 37.73372 40.619377 
z
" style="fill:#ffffff;"/>
    </g>
    <!-- Darkstar Glade 25.9° -->
    <g style="fill:#ff0000;" transform="translate(38.865856 41.663076)rotate(-46.583282)scale(0.02 -0.02)">
     <use xlink:href="#DejaVuSans-44"/>
     <use x="77.001953" xlink:href="#DejaVuSans-61"/>
     <use x="138.28125" xlink:href="#DejaVuSans-72"/>
     <use x="179.394531" xlink:href="#DejaVuSans-6b"/>
     <use x="237.304688" xlink:href="#DejaVuSans-73"/>
     <use x="289.404297" xlink:href="#DejaVuSans-74"/>
     <use x="328.613281" xlink:href="#DejaVuSans-61"/>
     <use x="389.892578" xlink:href="#DejaVuSans-72"/>
     <use x="431.005859" xlink:href="#DejaVuSans-20"/>
     <use x="462.792969" xlink:href="#DejaVuSans-47"/>
     <use x="540.283203" xlink:href="#DejaVuSans-6c"/>
     <use x="568.066406" xlink:href="#DejaVuSans-61"/>
     <use x="629.345703" xlink:href="#DejaVuSans-64"/>
     <use x="692.822266" xlink:href="#DejaVuSans-65"/>
     <use x="754.345703" xlink:href="#DejaVuSans-20"/>
     <use x="786.132812" xlink:href="#DejaVuSans-32"/>
     <use x="849.755859" xlink:href="#DejaVuSans-35"/>
     <use x="913.378906" xlink:href="#DejaVuSans-2e"/>
     <use x="945.166016" xlink:href="#DejaVuSans-39"/>
     <use x="1008.789062" xlink:href="#DejaVuSans-b0"/>
    </g>
   </g>
   <g id="text_27">
    <g id="patch_30">
     <path d="M 22.078559 71.218509 
L 30.522161 89.741339 
L 32.31982 88.921879 
L 23.876219 70.399049 
z
" style="fill:#ffffff;"/>
    </g>
    <!-- Solstice Glade 16.9° -->
    <g style="fill:#4169e1;" transform="translate(22.483523 71.055887)rotate(-294.505793)scale(0.02 -0.02)">
     <use xlink:href="#DejaVuSans-53"/>
     <use x="63.476562" xlink:href="#DejaVuSans-6f"/>
     <use x="124.658203" xlink:href="#DejaVuSans-6c"/>
     <use x="152.441406" xlink:href="#DejaVuSans-73"/>
     <use x="204.541016" xlink:href="#DejaVuSans-74"/>
     <use x="243.75" xlink:href="#DejaVuSans-69"/>
     <use x="271.533203" xlink:href="#DejaVuSans-63"/>
     <use x="326.513672" xlink:href="#DejaVuSans-65"/>
     <use x="388.037109" xlink:href="#DejaVuSans-20"/>
     <use x="419.824219" xlink:href="#DejaVuSans-47"/>
     <use x="497.314453" xlink:href="#DejaVuSans-6c"/>
     <use x="525.097656" xlink:href="#DejaVuSans-61"/>
     <use x="586.376953" xlink:href="#DejaVuSans-64"/>
     <use x="649.853516" xlink:href="#DejaVuSans-65"/>
     <use x="711.376953" xlink:href="#DejaVuSans-20"/>
     <use x="743.164062" xlink:href="#DejaVuSans-31"/>
     <use x="806.787109" xlink:href="#DejaVuSans-36"/>
     <use x="870.410156" xlink:href="#DejaVuSans-2e"/>
     <use x="902.197266" xlink:href="#DejaVuSans-39"/>
     <use x="965.820312" xlink:href="#DejaVuSans-b0"/>
    </g>
   </g>
   <g id="text_28">
    <!-- Crotched Mountain -->
    <g transform="translate(23.419122 9.404412)scale(0.09 -0.09)">
     <use xlink:href="#DejaVuSans-43"/>
     <use x="69.824219" xlink:href="#DejaVuSans-72"/>
     <use x="108.6875" xlink:href="#DejaVuSans-6f"/>
     <use x="169.869141" xlink:href="#DejaVuSans-74"/>
     <use x="209.078125" xlink:href="#DejaVuSans-63"/>
     <use x="264.058594" xlink:href="#DejaVuSans-68"/>
     <use x="327.4375" xlink:href="#DejaVuSans-65"/>
     <use x="388.960938" xlink:href="#DejaVuSans-64"/>
     <use x="452.4375" xlink:href="#DejaVuSans-20"/>
     <use x="484.224609" xlink:href="#DejaVuSans-4d"/>
     <use x="570.503906" xlink:href="#DejaVuSans-6f"/>
     <use x="631.685547" xlink:href="#DejaVuSans-75"/>
     <use x="695.064453" xlink:href="#DejaVuSans-6e"/>
     <use x="758.443359" xlink:href="#DejaVuSans-74"/>
     <use x="797.652344" xlink:href="#DejaVuSans-61"/>
     <use x="858.931641" xlink:href="#DejaVuSans-69"/>
     <use x="886.714844" xlink:href="#DejaVuSans-6e"/>
    </g>
   </g>
   <g id="legend_1">
    <g id="line2d_40">
     <path d="M 3.171583 175.615233 
L 12.171583 175.615233 
" style="fill:none;stroke:#008000;stroke-linecap:square;stroke-width:1.5;"/>
    </g>
    <g id="line2d_41"/>
    <g id="text_29">
     <!-- Easy -->
     <g transform="translate(15.771583 177.190233)scale(0.045 -0.045)">
      <use xlink:href="#DejaVuSans-45"/>
      <use x="63.183594" xlink:href="#DejaVuSans-61"/>
      <use x="124.462891" xlink:href="#DejaVuSans-73"/>
      <use x="176.5625" xlink:href="#DejaVuSans-79"/>
     </g>
    </g>
    <g id="line2d_42">
     <path d="M 3.171583 182.22039 
L 12.171583 182.22039 
" style="fill:none;stroke:#4169e1;stroke-linecap:square;stroke-width:1.5;"/>
    </g>
    <g id="line2d_43"/>
    <g id="text_30">
     <!-- Intermediate -->
     <g transform="translate(15.771583 183.79539)scale(0.045 -0.045)">
      <use xlink:href="#DejaVuSans-49"/>
      <use x="29.492188" xlink:href="#DejaVuSans-6e"/>
      <use x="92.871094" xlink:href="#DejaVuSans-74"/>
      <use x="132.080078" xlink:href="#DejaVuSans-65"/>
      <use x="193.603516" xlink:href="#DejaVuSans-72"/>
      <use x="232.966797" xlink:href="#DejaVuSans-6d"/>
      <use x="330.378906" xlink:href="#DejaVuSans-65"/>
      <use x="391.902344" xlink:href="#DejaVuSans-64"/>
      <use x="455.378906" xlink:href="#DejaVuSans-69"/>
      <use x="483.162109" xlink:href="#DejaVuSans-61"/>
      <use x="544.441406" xlink:href="#DejaVuSans-74"/>
      <use x="583.650391" xlink:href="#DejaVuSans-65"/>
     </g>
    </g>
    <g id="line2d_44">
     <path d="M 53.80502 175.615233 
L 62.80502 175.615233 
" style="fill:none;stroke:#000000;stroke-linecap:square;stroke-width:1.5;"/>
    </g>
    <g id="line2d_45"/>
    <g id="text_31">
     <!-- Advanced -->
     <g transform="translate(66.40502 177.190233)scale(0.045 -0.045)">
      <defs>
       <path d="M 2188 4044 
L 1331 1722 
L 3047 1722 
L 2188 4044 
z
M 1831 4666 
L 2547 4666 
L 4325 0 
L 3669 0 
L 3244 1197 
L 1141 1197 
L 716 0 
L 50 0 
L 1831 4666 
z
" id="DejaVuSans-41" transform="scale(0.015625)"/>
      </defs>
      <use xlink:href="#DejaVuSans-41"/>
      <use x="66.658203" xlink:href="#DejaVuSans-64"/>
      <use x="130.134766" xlink:href="#DejaVuSans-76"/>
      <use x="189.314453" xlink:href="#DejaVuSans-61"/>
      <use x="250.59375" xlink:href="#DejaVuSans-6e"/>
      <use x="313.972656" xlink:href="#DejaVuSans-63"/>
      <use x="368.953125" xlink:href="#DejaVuSans-65"/>
      <use x="430.476562" xlink:href="#DejaVuSans-64"/>
     </g>
    </g>
    <g id="line2d_46">
     <path d="M 53.80502 182.22039 
L 62.80502 182.22039 
" style="fill:none;stroke:#ff0000;stroke-linecap:square;stroke-width:1.5;"/>
    </g>
    <g id="line2d_47"/>
    <g id="text_32">
     <!-- Expert -->
     <g transform="translate(66.40502 183.79539)scale(0.045 -0.045)">
      <use xlink:href="#DejaVuSans-45"/>
      <use x="63.183594" xlink:href="#DejaVuSans-78"/>
      <use x="122.363281" xlink:href="#DejaVuSans-70"/>
      <use x="185.839844" xlink:href="#DejaVuSans-65"/>
      <use x="247.363281" xlink:href="#DejaVuSans-72"/>
      <use x="288.476562" xlink:href="#DejaVuSans-74"/>
     </g>
    </g>
    <g id="line2d_48">
     <path d="M 97.634317 175.615233 
L 106.634317 175.615233 
" style="fill:none;stroke:#ffd700;stroke-linecap:square;stroke-width:1.5;"/>
    </g>
    <g id="line2d_49"/>
    <g id="text_33">
     <!-- Extreme -->
     <g transform="translate(110.234317 177.190233)scale(0.045 -0.045)">
      <use xlink:href="#DejaVuSans-45"/>
      <use x="63.183594" xlink:href="#DejaVuSans-78"/>
      <use x="122.363281" xlink:href="#DejaVuSans-74"/>
      <use x="161.572266" xlink:href="#DejaVuSans-72"/>
      <use x="200.435547" xlink:href="#DejaVuSans-65"/>
      <use x="261.958984" xlink:href="#DejaVuSans-6d"/>
      <use x="359.371094" xlink:href="#DejaVuSans-65"/>
     </g>
    </g>
    <g id="line2d_50">
     <path d="M 97.634317 182.22039 
L 106.634317 182.22039 
" style="fill:none;stroke:#000000;stroke-dasharray:1.5,2.475;stroke-dashoffset:0;stroke-width:1.5;"/>
    </g>
    <g id="line2d_51"/>
    <g id="text_34">
     <!-- Gladed -->
     <g transform="translate(110.234317 183.79539)scale(0.045 -0.045)">
      <use xlink:href="#DejaVuSans-47"/>
      <use x="77.490234" xlink:href="#DejaVuSans-6c"/>
      <use x="105.273438" xlink:href="#DejaVuSans-61"/>
      <use x="166.552734" xlink:href="#DejaVuSans-64"/>
      <use x="230.029297" xlink:href="#DejaVuSans-65"/>
      <use x="291.552734" xlink:href="#DejaVuSans-64"/>
     </g>
    </g>
   </g>
  </g>
  <g id="text_35">
   <!-- Sources: USGS and OpenStreetMaps -->
   <g transform="translate(30.478741 189.993924)scale(0.03913 -0.03913)">
    <defs>
     <path d="M 750 794 
L 1409 794 
L 1409 0 
L 750 0 
L 750 794 
z
M 750 3309 
L 1409 3309 
L 1409 2516 
L 750 2516 
L 750 3309 
z
" id="DejaVuSans-3a" transform="scale(0.015625)"/>
     <path d="M 556 4666 
L 1191 4666 
L 1191 1831 
Q 1191 1081 1462 751 
Q 1734 422 2344 422 
Q 2950 422 3222 751 
Q 3494 1081 3494 1831 
L 3494 4666 
L 4128 4666 
L 4128 1753 
Q 4128 841 3676 375 
Q 3225 -91 2344 -91 
Q 1459 -91 1007 375 
Q 556 841 556 1753 
L 556 4666 
z
" id="DejaVuSans-55" transform="scale(0.015625)"/>
     <path d="M 2522 4238 
Q 1834 4238 1429 3725 
Q 1025 3213 1025 2328 
Q 1025 1447 1429 934 
Q 1834 422 2522 422 
Q 3209 422 3611 934 
Q 4013 1447 4013 2328 
Q 4013 3213 3611 3725 
Q 3209 4238 2522 4238 
z
M 2522 4750 
Q 3503 4750 4090 4092 
Q 4678 3434 4678 2328 
Q 4678 1225 4090 567 
Q 3503 -91 2522 -91 
Q 1538 -91 948 565 
Q 359 1222 359 2328 
Q 359 3434 948 4092 
Q 1538 4750 2522 4750 
z
" id="DejaVuSans-4f" transform="scale(0.015625)"/>
    </defs>
    <use xlink:href="#DejaVuSans-53"/>
    <use x="63.476562" xlink:href="#DejaVuSans-6f"/>
    <use x="124.658203" xlink:href="#DejaVuSans-75"/>
    <use x="188.037109" xlink:href="#DejaVuSans-72"/>
    <use x="226.900391" xlink:href="#DejaVuSans-63"/>
    <use x="281.880859" xlink:href="#DejaVuSans-65"/>
    <use x="343.404297" xlink:href="#DejaVuSans-73"/>
    <use x="395.503906" xlink:href="#DejaVuSans-3a"/>
    <use x="429.195312" xlink:href="#DejaVuSans-20"/>
    <use x="460.982422" xlink:href="#DejaVuSans-55"/>
    <use x="534.175781" xlink:href="#DejaVuSans-53"/>
    <use x="597.652344" xlink:href="#DejaVuSans-47"/>
    <use x="675.142578" xlink:href="#DejaVuSans-53"/>
    <use x="738.619141" xlink:href="#DejaVuSans-20"/>
    <use x="770.40625" xlink:href="#DejaVuSans-61"/>
    <use x="831.685547" xlink:href="#DejaVuSans-6e"/>
    <use x="895.064453" xlink:href="#DejaVuSans-64"/>
    <use x="958.541016" xlink:href="#DejaVuSans-20"/>
    <use x="990.328125" xlink:href="#DejaVuSans-4f"/>
    <use x="1069.039062" xlink:href="#DejaVuSans-70"/>
    <use x="1132.515625" xlink:href="#DejaVuSans-65"/>
    <use x="1194.039062" xlink:href="#DejaVuSans-6e"/>
    <use x="1257.417969" xlink:href="#DejaVuSans-53"/>
    <use x="1320.894531" xlink:href="#DejaVuSans-74"/>
    <use x="1360.103516" xlink:href="#DejaVuSans-72"/>
    <use x="1398.966797" xlink:href="#DejaVuSans-65"/>
    <use x="1460.490234" xlink:href="#DejaVuSans-65"/>
    <use x="1522.013672" xlink:href="#DejaVuSans-74"/>
    <use x="1561.222656" xlink:href="#DejaVuSans-4d"/>
    <use x="1647.501953" xlink:href="#DejaVuSans-61"/>
    <use x="1708.78125" xlink:href="#DejaVuSans-70"/>
    <use x="1772.257812" xlink:href="#DejaVuSans-73"/>
   </g>
  </g>
 </g>
 <defs>
  <clipPath id="p9aba0d2359">
   <rect height="162.99889" width="132.346681" x="0" y="13.904412"/>
  </clipPath>
 </defs>
</svg>
