<?xml version="1.0" encoding="utf-8" standalone="no"?>
<!DOCTYPE svg PUBLIC "-//W3C//DTD SVG 1.1//EN"
  "http://www.w3.org/Graphics/SVG/1.1/DTD/svg11.dtd">
<svg height="112.757634pt" version="1.1" viewBox="0 0 72.180908 112.757634" width="72.180908pt" xmlns="http://www.w3.org/2000/svg" xmlns:xlink="http://www.w3.org/1999/xlink">
 <metadata>
  <rdf:RDF xmlns:cc="http://creativecommons.org/ns#" xmlns:dc="http://purl.org/dc/elements/1.1/" xmlns:rdf="http://www.w3.org/1999/02/22-rdf-syntax-ns#">
   <cc:Work>
    <dc:type rdf:resource="http://purl.org/dc/dcmitype/StillImage"/>
    <dc:date>2022-04-14T21:29:14.197870</dc:date>
    <dc:format>image/svg+xml</dc:format>
    <dc:creator>
     <cc:Agent>
      <dc:title>Matplotlib v3.4.3, https://matplotlib.org/</dc:title>
     </cc:Agent>
    </dc:creator>
   </cc:Work>
  </rdf:RDF>
 </metadata>
 <defs>
  <style type="text/css">*{stroke-linecap:butt;stroke-linejoin:round;}</style>
 </defs>
 <g id="figure_1">
  <g id="patch_1">
   <path d="M 0 112.757634 
L 72.180908 112.757634 
L 72.180908 0 
L 0 0 
z
" style="fill:#ffffff;"/>
  </g>
  <g id="axes_1">
   <g id="line2d_1">
    <path clip-path="url(#p8503f85535)" d="M 6.259199 30.632648 
L 7.824199 35.008131 
L 9.389199 39.383614 
L 10.954199 43.759096 
L 12.519199 48.134579 
L 14.084199 52.510062 
L 15.649199 56.885545 
L 17.214199 61.261027 
L 18.779199 65.63651 
L 20.344199 70.011993 
L 21.909199 74.387476 
L 23.474199 78.762958 
L 25.039199 83.138441 
L 26.604199 87.513924 
L 28.169199 91.889407 
L 29.734199 96.26489 
L 31.299199 100.640372 
" style="fill:none;stroke:#808080;stroke-linecap:square;stroke-width:1.5;"/>
   </g>
   <g id="line2d_2">
    <path clip-path="url(#p8503f85535)" d="M 59.330549 37.557501 
L 60.69558 38.346369 
L 62.060611 39.135238 
L 63.425641 39.924106 
L 64.790672 40.712975 
L 65.790336 41.673481 
L 66.79 42.633987 
L 67.789664 43.594493 
L 68.789328 44.554999 
L 68.844643 46.229426 
L 68.899957 47.903853 
L 67.888284 49.495403 
L 66.876611 51.086953 
L 66.172261 51.821081 
L 65.467911 52.55521 
L 64.763561 53.289338 
L 64.059211 54.023467 
L 63.354861 54.757595 
L 62.650511 55.491724 
L 61.946161 56.225852 
L 61.24181 56.959981 
L 59.862951 58.105682 
L 58.484092 59.251383 
L 57.105232 60.397084 
L 55.726373 61.542784 
L 55.125555 62.709205 
L 54.524738 63.875625 
L 53.923921 65.042045 
L 53.323103 66.208465 
L 52.013023 66.757399 
L 50.702943 67.306333 
L 49.392863 67.855267 
L 48.082783 68.4042 
" style="fill:none;stroke:#008000;stroke-linecap:square;stroke-width:1.5;"/>
   </g>
   <g id="line2d_3">
    <path clip-path="url(#p8503f85535)" d="M 15.256539 37.063307 
L 16.351366 37.420012 
L 17.446193 37.776716 
L 18.541019 38.133421 
L 19.635846 38.490126 
L 20.730673 38.84683 
L 21.8255 39.203535 
L 22.920326 39.560239 
L 24.015153 39.916944 
L 24.867797 40.602983 
L 25.720441 41.289023 
L 26.573085 41.975062 
L 27.425729 42.661101 
L 27.686471 43.793245 
L 27.947213 44.925389 
L 28.207956 46.057533 
L 28.468698 47.189676 
L 28.729441 48.32182 
L 28.990183 49.453964 
L 29.250925 50.586108 
L 29.511668 51.718252 
L 29.594821 52.706256 
L 29.677975 53.69426 
L 29.761129 54.682264 
L 29.844282 55.670268 
L 29.927436 56.658272 
L 30.01059 57.646276 
L 30.093744 58.63428 
L 30.176897 59.622284 
L 30.627055 60.699432 
L 31.077213 61.77658 
L 31.527372 62.853728 
L 31.97753 63.930876 
L 32.594359 64.712966 
L 33.211189 65.495056 
L 33.828018 66.277146 
L 34.444847 67.059236 
L 35.061677 67.841326 
L 35.678506 68.623416 
L 36.295336 69.405506 
L 36.912165 70.187595 
" style="fill:none;stroke:#000000;stroke-linecap:square;stroke-width:1.5;"/>
   </g>
   <g id="line2d_4">
    <path clip-path="url(#p8503f85535)" d="M 3.28095 33.962062 
L 3.675976 35.015165 
L 4.071001 36.068269 
L 4.466027 37.121372 
L 4.861053 38.174476 
L 5.256078 39.227579 
L 5.651104 40.280683 
L 6.046129 41.333786 
L 6.441155 42.38689 
L 6.518304 43.501768 
L 6.595453 44.616646 
L 6.672602 45.731523 
L 6.749752 46.846401 
L 6.826901 47.961279 
L 6.90405 49.076157 
L 6.981199 50.191034 
L 7.058348 51.305912 
L 7.525246 52.266546 
L 7.992144 53.22718 
L 8.459042 54.187814 
L 8.92594 55.148448 
L 9.392838 56.109082 
L 9.859737 57.069716 
L 10.326635 58.03035 
L 10.793533 58.990984 
L 11.116504 60.61016 
L 11.439475 62.229335 
L 11.762446 63.848511 
L 12.085417 65.467686 
L 12.408388 67.086862 
L 12.73136 68.706037 
L 13.054331 70.325213 
L 13.377302 71.944388 
L 14.17354 72.925486 
L 14.969777 73.906583 
L 15.766015 74.887681 
L 16.562252 75.868778 
L 17.35849 76.849876 
L 18.154728 77.830973 
L 18.950965 78.812071 
L 19.747203 79.793168 
" style="fill:none;stroke:#000000;stroke-linecap:square;stroke-width:1.5;"/>
   </g>
   <g id="line2d_5">
    <path clip-path="url(#p8503f85535)" d="M 12.623278 22.517842 
L 13.634951 21.076955 
L 14.646624 19.636068 
L 15.658297 18.195181 
L 16.66997 16.754294 
L 17.882522 15.931149 
L 19.095074 15.108004 
L 20.307626 14.284859 
L 21.520178 13.461714 
L 22.829895 13.125601 
L 24.139611 12.789488 
L 25.449327 12.453375 
L 26.759043 12.117262 
L 28.491625 12.364103 
L 30.224206 12.610944 
L 31.956787 12.857785 
L 33.689368 13.104626 
L 34.950684 13.564288 
L 36.212 14.023949 
L 37.473316 14.483611 
L 38.734632 14.943273 
L 39.995948 15.402934 
L 41.257265 15.862596 
L 42.518581 16.322258 
L 43.779897 16.781919 
L 45.179499 17.543674 
L 46.579102 18.305428 
L 47.978704 19.067182 
L 49.378306 19.828937 
L 50.024613 21.393116 
L 50.670919 22.957296 
L 51.317225 24.521476 
L 51.963531 26.085656 
L 52.633856 26.991166 
L 53.30418 27.896676 
L 53.974504 28.802187 
L 54.644829 29.707697 
L 55.213258 31.107402 
L 55.781687 32.507106 
L 56.350117 33.90681 
L 56.918546 35.306515 
L 56.88543 36.857137 
L 56.852314 38.40776 
L 56.819198 39.958383 
L 56.786082 41.509005 
L 56.666719 43.224103 
L 56.547356 44.939202 
L 56.427993 46.6543 
L 56.308631 48.369398 
L 56.178714 49.933834 
L 56.048798 51.498269 
L 55.918882 53.062705 
L 55.788965 54.62714 
L 54.85153 56.143487 
L 53.914095 57.659833 
L 52.97666 59.176179 
L 52.039225 60.692525 
L 51.412934 61.639347 
L 50.786643 62.586168 
L 50.160351 63.532989 
L 49.53406 64.47981 
L 48.907769 65.426631 
L 48.281478 66.373452 
L 47.655187 67.320274 
L 47.028896 68.267095 
L 46.685909 69.5123 
L 46.342923 70.757504 
L 45.999937 72.002709 
L 45.656951 73.247914 
L 45.313964 74.493119 
L 44.970978 75.738323 
L 44.627992 76.983528 
L 44.285006 78.228733 
" style="fill:none;stroke:#008000;stroke-linecap:square;stroke-width:1.5;"/>
   </g>
   <g id="line2d_6">
    <path clip-path="url(#p8503f85535)" d="M 30.668905 51.745878 
L 31.701321 52.177914 
L 32.733737 52.609949 
L 33.766153 53.041985 
L 34.798569 53.474021 
L 35.160661 54.667811 
L 35.522752 55.861602 
L 35.884844 57.055392 
L 36.246936 58.249182 
L 36.460915 59.724346 
L 36.674895 61.199509 
L 36.888875 62.674673 
L 37.102855 64.149836 
L 37.316834 65.624999 
L 37.530814 67.100163 
L 37.744794 68.575326 
L 37.958774 70.05049 
" style="fill:none;stroke:#000000;stroke-linecap:square;stroke-width:1.5;"/>
   </g>
   <g id="line2d_7">
    <path clip-path="url(#p8503f85535)" d="M 9.79496 32.123415 
L 11.520627 31.69803 
L 13.246294 31.272645 
L 14.971961 30.847259 
L 16.697627 30.421874 
L 17.974592 31.156003 
L 19.251556 31.890131 
L 20.52852 32.62426 
L 21.805485 33.358388 
L 23.163601 33.042738 
L 24.521718 32.727089 
L 25.879834 32.411439 
L 27.237951 32.095789 
L 28.252353 32.208978 
L 29.266755 32.322167 
L 30.281158 32.435356 
L 31.29556 32.548545 
L 32.309963 32.661733 
L 33.324365 32.774922 
L 34.338767 32.888111 
L 35.35317 33.0013 
L 36.738943 34.016802 
L 38.124717 35.032303 
L 40.009777 35.059929 
L 41.035279 34.154419 
L 42.06078 33.248908 
L 43.322097 33.502656 
L 44.583413 33.756403 
L 45.844729 34.010151 
L 47.106045 34.263899 
L 48.410666 34.648101 
L 49.715288 35.032303 
L 51.01991 35.416506 
L 52.324531 35.800708 
L 53.135325 36.994499 
L 53.946119 38.188289 
L 54.756913 39.382079 
L 55.567707 40.575869 
" style="fill:none;stroke:#4169e1;stroke-linecap:square;stroke-width:1.5;"/>
   </g>
   <g id="line2d_8">
    <path clip-path="url(#p8503f85535)" d="M 7.660985 33.138405 
L 8.151265 34.508885 
L 8.641544 35.879365 
L 9.131823 37.249845 
L 9.622103 38.620325 
L 10.112382 39.990804 
L 10.602661 41.361284 
L 11.09294 42.731764 
L 11.58322 44.102244 
L 12.073499 45.472724 
L 12.563778 46.843204 
L 13.054058 48.213683 
L 13.544337 49.584163 
L 14.034616 50.954643 
L 14.524896 52.325123 
L 15.015175 53.695603 
L 15.505454 55.066083 
L 15.995734 56.436562 
L 16.486013 57.807042 
L 16.976292 59.177522 
L 17.466572 60.548002 
L 17.956851 61.918482 
L 18.44713 63.288962 
L 18.93741 64.659441 
L 19.427689 66.029921 
L 19.917968 67.400401 
L 20.408248 68.770881 
L 20.898527 70.141361 
L 21.388806 71.511841 
L 21.879086 72.88232 
L 22.369365 74.2528 
L 22.859644 75.62328 
L 23.349924 76.99376 
" style="fill:none;stroke:#000000;stroke-linecap:square;stroke-width:1.5;"/>
   </g>
   <g id="line2d_9">
    <path clip-path="url(#p8503f85535)" d="M 9.268017 34.620987 
L 10.598476 35.622676 
L 11.928935 36.624365 
L 12.677501 37.468229 
L 13.426066 38.312093 
L 14.174631 39.155957 
L 14.923197 39.999821 
L 15.671762 40.843685 
L 16.420327 41.687549 
L 17.168892 42.531414 
L 17.917458 43.375278 
L 18.687494 44.586206 
L 19.45753 45.797134 
L 20.227566 47.008063 
L 20.997602 48.218991 
L 21.767638 49.42992 
L 22.537674 50.640848 
L 23.30771 51.851776 
L 24.077746 53.062705 
L 24.425554 54.169013 
L 24.773362 55.275322 
L 25.12117 56.381631 
L 25.468978 57.487939 
L 25.816786 58.594248 
L 26.164595 59.700557 
L 26.512403 60.806865 
L 26.860211 61.913174 
L 27.208019 63.019483 
L 27.555827 64.125791 
L 27.903635 65.2321 
L 28.251443 66.338409 
L 28.599251 67.444717 
L 28.947059 68.551026 
L 29.294868 69.657335 
L 29.642676 70.763643 
" style="fill:none;stroke:#000000;stroke-linecap:square;stroke-width:1.5;"/>
   </g>
   <g id="line2d_10">
    <path clip-path="url(#p8503f85535)" d="M 6.607098 25.591462 
L 7.9099 25.117987 
L 9.212702 24.644513 
L 10.515504 24.171038 
L 11.818306 23.697564 
L 13.405323 23.855388 
L 14.99234 24.013213 
L 16.579356 24.171038 
L 18.166373 24.328863 
L 19.559425 24.116298 
L 20.952477 23.903734 
L 22.345529 23.691169 
L 23.738581 23.478604 
L 25.221519 22.963947 
L 26.704457 22.449289 
L 28.187395 21.934632 
L 29.670333 21.419975 
L 30.747874 21.608623 
L 31.825415 21.797271 
L 32.902956 21.985919 
L 33.980497 22.174567 
L 35.058038 22.363215 
L 36.135579 22.551863 
L 37.21312 22.740511 
L 38.290661 22.929159 
L 40.030156 23.347893 
L 41.769652 23.766628 
L 43.509147 24.185363 
L 45.248642 24.604097 
L 46.655523 25.01567 
L 48.062403 25.427242 
L 49.469284 25.838814 
L 50.876165 26.250387 
" style="fill:none;stroke:#4169e1;stroke-linecap:square;stroke-width:1.5;"/>
   </g>
   <g id="text_1">
    <g id="patch_2">
     <path d="M 17.738833 65.549744 
L 17.903566 66.204979 
L 19.819566 65.723276 
L 19.654833 65.068042 
z
" style="fill:#ffffff;"/>
    </g>
    <!--   -->
    <g style="fill:#808080;" transform="translate(18.16649 65.462849)rotate(-284.112273)scale(0.02 -0.02)">
     <defs>
      <path id="DejaVuSans-20" transform="scale(0.015625)"/>
     </defs>
     <use xlink:href="#DejaVuSans-20"/>
    </g>
   </g>
   <g id="text_2">
    <g id="patch_3">
     <path d="M 65.183109 41.704509 
L 68.801716 46.650948 
L 70.396219 45.484477 
L 66.777612 40.538038 
z
" style="fill:#ffffff;"/>
    </g>
    <!--  12.4° -->
    <g style="fill:#008000;" transform="translate(65.546758 41.46326)rotate(-306.187632)scale(0.02 -0.02)">
     <defs>
      <path d="M 794 531 
L 1825 531 
L 1825 4091 
L 703 3866 
L 703 4441 
L 1819 4666 
L 2450 4666 
L 2450 531 
L 3481 531 
L 3481 0 
L 794 0 
L 794 531 
z
" id="DejaVuSans-31" transform="scale(0.015625)"/>
      <path d="M 1228 531 
L 3431 531 
L 3431 0 
L 469 0 
L 469 531 
Q 828 903 1448 1529 
Q 2069 2156 2228 2338 
Q 2531 2678 2651 2914 
Q 2772 3150 2772 3378 
Q 2772 3750 2511 3984 
Q 2250 4219 1831 4219 
Q 1534 4219 1204 4116 
Q 875 4013 500 3803 
L 500 4441 
Q 881 4594 1212 4672 
Q 1544 4750 1819 4750 
Q 2544 4750 2975 4387 
Q 3406 4025 3406 3419 
Q 3406 3131 3298 2873 
Q 3191 2616 2906 2266 
Q 2828 2175 2409 1742 
Q 1991 1309 1228 531 
z
" id="DejaVuSans-32" transform="scale(0.015625)"/>
      <path d="M 684 794 
L 1344 794 
L 1344 0 
L 684 0 
L 684 794 
z
" id="DejaVuSans-2e" transform="scale(0.015625)"/>
      <path d="M 2419 4116 
L 825 1625 
L 2419 1625 
L 2419 4116 
z
M 2253 4666 
L 3047 4666 
L 3047 1625 
L 3713 1625 
L 3713 1100 
L 3047 1100 
L 3047 0 
L 2419 0 
L 2419 1100 
L 313 1100 
L 313 1709 
L 2253 4666 
z
" id="DejaVuSans-34" transform="scale(0.015625)"/>
      <path d="M 1600 4347 
Q 1350 4347 1178 4173 
Q 1006 4000 1006 3750 
Q 1006 3503 1178 3333 
Q 1350 3163 1600 3163 
Q 1850 3163 2022 3333 
Q 2194 3503 2194 3750 
Q 2194 3997 2020 4172 
Q 1847 4347 1600 4347 
z
M 1600 4750 
Q 1800 4750 1984 4673 
Q 2169 4597 2303 4453 
Q 2447 4313 2519 4134 
Q 2591 3956 2591 3750 
Q 2591 3338 2302 3052 
Q 2013 2766 1594 2766 
Q 1172 2766 890 3047 
Q 609 3328 609 3750 
Q 609 4169 896 4459 
Q 1184 4750 1600 4750 
z
" id="DejaVuSans-b0" transform="scale(0.015625)"/>
     </defs>
     <use xlink:href="#DejaVuSans-20"/>
     <use x="31.787109" xlink:href="#DejaVuSans-31"/>
     <use x="95.410156" xlink:href="#DejaVuSans-32"/>
     <use x="159.033203" xlink:href="#DejaVuSans-2e"/>
     <use x="190.820312" xlink:href="#DejaVuSans-34"/>
     <use x="254.443359" xlink:href="#DejaVuSans-b0"/>
    </g>
   </g>
   <g id="text_3">
    <g id="patch_4">
     <path d="M 17.53503 38.454355 
L 23.095487 41.031738 
L 23.926316 39.239305 
L 18.365859 36.661922 
z
" style="fill:#ffffff;"/>
    </g>
    <!--  26.0° -->
    <g transform="translate(17.736505 38.067251)rotate(-335.131333)scale(0.02 -0.02)">
     <defs>
      <path d="M 2113 2584 
Q 1688 2584 1439 2293 
Q 1191 2003 1191 1497 
Q 1191 994 1439 701 
Q 1688 409 2113 409 
Q 2538 409 2786 701 
Q 3034 994 3034 1497 
Q 3034 2003 2786 2293 
Q 2538 2584 2113 2584 
z
M 3366 4563 
L 3366 3988 
Q 3128 4100 2886 4159 
Q 2644 4219 2406 4219 
Q 1781 4219 1451 3797 
Q 1122 3375 1075 2522 
Q 1259 2794 1537 2939 
Q 1816 3084 2150 3084 
Q 2853 3084 3261 2657 
Q 3669 2231 3669 1497 
Q 3669 778 3244 343 
Q 2819 -91 2113 -91 
Q 1303 -91 875 529 
Q 447 1150 447 2328 
Q 447 3434 972 4092 
Q 1497 4750 2381 4750 
Q 2619 4750 2861 4703 
Q 3103 4656 3366 4563 
z
" id="DejaVuSans-36" transform="scale(0.015625)"/>
      <path d="M 2034 4250 
Q 1547 4250 1301 3770 
Q 1056 3291 1056 2328 
Q 1056 1369 1301 889 
Q 1547 409 2034 409 
Q 2525 409 2770 889 
Q 3016 1369 3016 2328 
Q 3016 3291 2770 3770 
Q 2525 4250 2034 4250 
z
M 2034 4750 
Q 2819 4750 3233 4129 
Q 3647 3509 3647 2328 
Q 3647 1150 3233 529 
Q 2819 -91 2034 -91 
Q 1250 -91 836 529 
Q 422 1150 422 2328 
Q 422 3509 836 4129 
Q 1250 4750 2034 4750 
z
" id="DejaVuSans-30" transform="scale(0.015625)"/>
     </defs>
     <use xlink:href="#DejaVuSans-20"/>
     <use x="31.787109" xlink:href="#DejaVuSans-32"/>
     <use x="95.410156" xlink:href="#DejaVuSans-36"/>
     <use x="159.033203" xlink:href="#DejaVuSans-2e"/>
     <use x="190.820312" xlink:href="#DejaVuSans-30"/>
     <use x="254.443359" xlink:href="#DejaVuSans-b0"/>
    </g>
   </g>
   <g id="text_4">
    <g id="patch_5">
     <path d="M 3.519647 36.516312 
L 5.082171 42.442533 
L 6.99251 41.938847 
L 5.429986 36.012626 
z
" style="fill:#ffffff;"/>
    </g>
    <!--  25.8° -->
    <g transform="translate(3.946277 36.424509)rotate(-284.770618)scale(0.02 -0.02)">
     <defs>
      <path d="M 691 4666 
L 3169 4666 
L 3169 4134 
L 1269 4134 
L 1269 2991 
Q 1406 3038 1543 3061 
Q 1681 3084 1819 3084 
Q 2600 3084 3056 2656 
Q 3513 2228 3513 1497 
Q 3513 744 3044 326 
Q 2575 -91 1722 -91 
Q 1428 -91 1123 -41 
Q 819 9 494 109 
L 494 744 
Q 775 591 1075 516 
Q 1375 441 1709 441 
Q 2250 441 2565 725 
Q 2881 1009 2881 1497 
Q 2881 1984 2565 2268 
Q 2250 2553 1709 2553 
Q 1456 2553 1204 2497 
Q 953 2441 691 2322 
L 691 4666 
z
" id="DejaVuSans-35" transform="scale(0.015625)"/>
      <path d="M 2034 2216 
Q 1584 2216 1326 1975 
Q 1069 1734 1069 1313 
Q 1069 891 1326 650 
Q 1584 409 2034 409 
Q 2484 409 2743 651 
Q 3003 894 3003 1313 
Q 3003 1734 2745 1975 
Q 2488 2216 2034 2216 
z
M 1403 2484 
Q 997 2584 770 2862 
Q 544 3141 544 3541 
Q 544 4100 942 4425 
Q 1341 4750 2034 4750 
Q 2731 4750 3128 4425 
Q 3525 4100 3525 3541 
Q 3525 3141 3298 2862 
Q 3072 2584 2669 2484 
Q 3125 2378 3379 2068 
Q 3634 1759 3634 1313 
Q 3634 634 3220 271 
Q 2806 -91 2034 -91 
Q 1263 -91 848 271 
Q 434 634 434 1313 
Q 434 1759 690 2068 
Q 947 2378 1403 2484 
z
M 1172 3481 
Q 1172 3119 1398 2916 
Q 1625 2713 2034 2713 
Q 2441 2713 2670 2916 
Q 2900 3119 2900 3481 
Q 2900 3844 2670 4047 
Q 2441 4250 2034 4250 
Q 1625 4250 1398 4047 
Q 1172 3844 1172 3481 
z
" id="DejaVuSans-38" transform="scale(0.015625)"/>
     </defs>
     <use xlink:href="#DejaVuSans-20"/>
     <use x="31.787109" xlink:href="#DejaVuSans-32"/>
     <use x="95.410156" xlink:href="#DejaVuSans-35"/>
     <use x="159.033203" xlink:href="#DejaVuSans-2e"/>
     <use x="190.820312" xlink:href="#DejaVuSans-38"/>
     <use x="254.443359" xlink:href="#DejaVuSans-b0"/>
    </g>
   </g>
   <g id="text_5">
    <g id="patch_6">
     <path d="M 18.789635 17.124202 
L 23.198074 12.866592 
L 21.825618 11.445516 
L 17.417179 15.703126 
z
" style="fill:#ffffff;"/>
    </g>
    <!--  14.7° -->
    <g style="fill:#008000;" transform="translate(18.501177 16.796737)rotate(-44.002892)scale(0.02 -0.02)">
     <defs>
      <path d="M 525 4666 
L 3525 4666 
L 3525 4397 
L 1831 0 
L 1172 0 
L 2766 4134 
L 525 4134 
L 525 4666 
z
" id="DejaVuSans-37" transform="scale(0.015625)"/>
     </defs>
     <use xlink:href="#DejaVuSans-20"/>
     <use x="31.787109" xlink:href="#DejaVuSans-31"/>
     <use x="95.410156" xlink:href="#DejaVuSans-34"/>
     <use x="159.033203" xlink:href="#DejaVuSans-2e"/>
     <use x="190.820312" xlink:href="#DejaVuSans-37"/>
     <use x="254.443359" xlink:href="#DejaVuSans-b0"/>
    </g>
   </g>
   <g id="text_6">
    <g id="patch_7">
     <path d="M 17.531104 31.448818 
L 22.275157 35.328964 
L 23.525937 33.799701 
L 18.781883 29.919555 
z
" style="fill:#ffffff;"/>
    </g>
    <!--  19.4° -->
    <g style="fill:#4169e1;" transform="translate(17.82258 31.124036)rotate(-320.720375)scale(0.02 -0.02)">
     <defs>
      <path d="M 703 97 
L 703 672 
Q 941 559 1184 500 
Q 1428 441 1663 441 
Q 2288 441 2617 861 
Q 2947 1281 2994 2138 
Q 2813 1869 2534 1725 
Q 2256 1581 1919 1581 
Q 1219 1581 811 2004 
Q 403 2428 403 3163 
Q 403 3881 828 4315 
Q 1253 4750 1959 4750 
Q 2769 4750 3195 4129 
Q 3622 3509 3622 2328 
Q 3622 1225 3098 567 
Q 2575 -91 1691 -91 
Q 1453 -91 1209 -44 
Q 966 3 703 97 
z
M 1959 2075 
Q 2384 2075 2632 2365 
Q 2881 2656 2881 3163 
Q 2881 3666 2632 3958 
Q 2384 4250 1959 4250 
Q 1534 4250 1286 3958 
Q 1038 3666 1038 3163 
Q 1038 2656 1286 2365 
Q 1534 2075 1959 2075 
z
" id="DejaVuSans-39" transform="scale(0.015625)"/>
     </defs>
     <use xlink:href="#DejaVuSans-20"/>
     <use x="31.787109" xlink:href="#DejaVuSans-31"/>
     <use x="95.410156" xlink:href="#DejaVuSans-39"/>
     <use x="159.033203" xlink:href="#DejaVuSans-2e"/>
     <use x="190.820312" xlink:href="#DejaVuSans-34"/>
     <use x="254.443359" xlink:href="#DejaVuSans-b0"/>
    </g>
   </g>
   <g id="text_7">
    <g id="patch_8">
     <path d="M 7.916815 35.889361 
L 9.411411 41.833077 
L 11.32739 41.351288 
L 9.832794 35.407572 
z
" style="fill:#ffffff;"/>
    </g>
    <!--  24.9° -->
    <g transform="translate(8.344469 35.802447)rotate(-284.114849)scale(0.02 -0.02)">
     <use xlink:href="#DejaVuSans-20"/>
     <use x="31.787109" xlink:href="#DejaVuSans-32"/>
     <use x="95.410156" xlink:href="#DejaVuSans-34"/>
     <use x="159.033203" xlink:href="#DejaVuSans-2e"/>
     <use x="190.820312" xlink:href="#DejaVuSans-39"/>
     <use x="254.443359" xlink:href="#DejaVuSans-b0"/>
    </g>
   </g>
   <g id="text_8">
    <g id="patch_9">
     <path d="M 12.463626 37.922159 
L 15.706328 43.12278 
L 17.382768 42.077483 
L 14.140065 36.876862 
z
" style="fill:#ffffff;"/>
    </g>
    <!--  26.3° -->
    <g transform="translate(12.844127 37.708477)rotate(-301.944459)scale(0.02 -0.02)">
     <defs>
      <path d="M 2597 2516 
Q 3050 2419 3304 2112 
Q 3559 1806 3559 1356 
Q 3559 666 3084 287 
Q 2609 -91 1734 -91 
Q 1441 -91 1130 -33 
Q 819 25 488 141 
L 488 750 
Q 750 597 1062 519 
Q 1375 441 1716 441 
Q 2309 441 2620 675 
Q 2931 909 2931 1356 
Q 2931 1769 2642 2001 
Q 2353 2234 1838 2234 
L 1294 2234 
L 1294 2753 
L 1863 2753 
Q 2328 2753 2575 2939 
Q 2822 3125 2822 3475 
Q 2822 3834 2567 4026 
Q 2313 4219 1838 4219 
Q 1578 4219 1281 4162 
Q 984 4106 628 3988 
L 628 4550 
Q 988 4650 1302 4700 
Q 1616 4750 1894 4750 
Q 2613 4750 3031 4423 
Q 3450 4097 3450 3541 
Q 3450 3153 3228 2886 
Q 3006 2619 2597 2516 
z
" id="DejaVuSans-33" transform="scale(0.015625)"/>
     </defs>
     <use xlink:href="#DejaVuSans-20"/>
     <use x="31.787109" xlink:href="#DejaVuSans-32"/>
     <use x="95.410156" xlink:href="#DejaVuSans-36"/>
     <use x="159.033203" xlink:href="#DejaVuSans-2e"/>
     <use x="190.820312" xlink:href="#DejaVuSans-33"/>
     <use x="254.443359" xlink:href="#DejaVuSans-b0"/>
    </g>
   </g>
   <g id="text_9">
    <g id="patch_10">
     <path d="M 13.406819 24.719833 
L 19.475136 25.578387 
L 19.751893 23.622243 
L 13.683577 22.763689 
z
" style="fill:#ffffff;"/>
    </g>
    <!--  17.7° -->
    <g style="fill:#4169e1;" transform="translate(13.487691 24.290996)rotate(-351.947165)scale(0.02 -0.02)">
     <use xlink:href="#DejaVuSans-20"/>
     <use x="31.787109" xlink:href="#DejaVuSans-31"/>
     <use x="95.410156" xlink:href="#DejaVuSans-37"/>
     <use x="159.033203" xlink:href="#DejaVuSans-2e"/>
     <use x="190.820312" xlink:href="#DejaVuSans-37"/>
     <use x="254.443359" xlink:href="#DejaVuSans-b0"/>
    </g>
   </g>
   <g id="text_10">
    <!-- Eaton -->
    <g transform="translate(28.884594 5.191106)scale(0.05 -0.05)">
     <defs>
      <path d="M 628 4666 
L 3578 4666 
L 3578 4134 
L 1259 4134 
L 1259 2753 
L 3481 2753 
L 3481 2222 
L 1259 2222 
L 1259 531 
L 3634 531 
L 3634 0 
L 628 0 
L 628 4666 
z
" id="DejaVuSans-45" transform="scale(0.015625)"/>
      <path d="M 2194 1759 
Q 1497 1759 1228 1600 
Q 959 1441 959 1056 
Q 959 750 1161 570 
Q 1363 391 1709 391 
Q 2188 391 2477 730 
Q 2766 1069 2766 1631 
L 2766 1759 
L 2194 1759 
z
M 3341 1997 
L 3341 0 
L 2766 0 
L 2766 531 
Q 2569 213 2275 61 
Q 1981 -91 1556 -91 
Q 1019 -91 701 211 
Q 384 513 384 1019 
Q 384 1609 779 1909 
Q 1175 2209 1959 2209 
L 2766 2209 
L 2766 2266 
Q 2766 2663 2505 2880 
Q 2244 3097 1772 3097 
Q 1472 3097 1187 3025 
Q 903 2953 641 2809 
L 641 3341 
Q 956 3463 1253 3523 
Q 1550 3584 1831 3584 
Q 2591 3584 2966 3190 
Q 3341 2797 3341 1997 
z
" id="DejaVuSans-61" transform="scale(0.015625)"/>
      <path d="M 1172 4494 
L 1172 3500 
L 2356 3500 
L 2356 3053 
L 1172 3053 
L 1172 1153 
Q 1172 725 1289 603 
Q 1406 481 1766 481 
L 2356 481 
L 2356 0 
L 1766 0 
Q 1100 0 847 248 
Q 594 497 594 1153 
L 594 3053 
L 172 3053 
L 172 3500 
L 594 3500 
L 594 4494 
L 1172 4494 
z
" id="DejaVuSans-74" transform="scale(0.015625)"/>
      <path d="M 1959 3097 
Q 1497 3097 1228 2736 
Q 959 2375 959 1747 
Q 959 1119 1226 758 
Q 1494 397 1959 397 
Q 2419 397 2687 759 
Q 2956 1122 2956 1747 
Q 2956 2369 2687 2733 
Q 2419 3097 1959 3097 
z
M 1959 3584 
Q 2709 3584 3137 3096 
Q 3566 2609 3566 1747 
Q 3566 888 3137 398 
Q 2709 -91 1959 -91 
Q 1206 -91 779 398 
Q 353 888 353 1747 
Q 353 2609 779 3096 
Q 1206 3584 1959 3584 
z
" id="DejaVuSans-6f" transform="scale(0.015625)"/>
      <path d="M 3513 2113 
L 3513 0 
L 2938 0 
L 2938 2094 
Q 2938 2591 2744 2837 
Q 2550 3084 2163 3084 
Q 1697 3084 1428 2787 
Q 1159 2491 1159 1978 
L 1159 0 
L 581 0 
L 581 3500 
L 1159 3500 
L 1159 2956 
Q 1366 3272 1645 3428 
Q 1925 3584 2291 3584 
Q 2894 3584 3203 3211 
Q 3513 2838 3513 2113 
z
" id="DejaVuSans-6e" transform="scale(0.015625)"/>
     </defs>
     <use xlink:href="#DejaVuSans-45"/>
     <use x="63.183594" xlink:href="#DejaVuSans-61"/>
     <use x="124.462891" xlink:href="#DejaVuSans-74"/>
     <use x="163.671875" xlink:href="#DejaVuSans-6f"/>
     <use x="224.853516" xlink:href="#DejaVuSans-6e"/>
    </g>
   </g>
  </g>
  <g id="text_11">
   <!-- Sources: USGS and OpenStreetMaps -->
   <g transform="translate(16.260121 112.305528)scale(0.021739 -0.021739)">
    <defs>
     <path d="M 3425 4513 
L 3425 3897 
Q 3066 4069 2747 4153 
Q 2428 4238 2131 4238 
Q 1616 4238 1336 4038 
Q 1056 3838 1056 3469 
Q 1056 3159 1242 3001 
Q 1428 2844 1947 2747 
L 2328 2669 
Q 3034 2534 3370 2195 
Q 3706 1856 3706 1288 
Q 3706 609 3251 259 
Q 2797 -91 1919 -91 
Q 1588 -91 1214 -16 
Q 841 59 441 206 
L 441 856 
Q 825 641 1194 531 
Q 1563 422 1919 422 
Q 2459 422 2753 634 
Q 3047 847 3047 1241 
Q 3047 1584 2836 1778 
Q 2625 1972 2144 2069 
L 1759 2144 
Q 1053 2284 737 2584 
Q 422 2884 422 3419 
Q 422 4038 858 4394 
Q 1294 4750 2059 4750 
Q 2388 4750 2728 4690 
Q 3069 4631 3425 4513 
z
" id="DejaVuSans-53" transform="scale(0.015625)"/>
     <path d="M 544 1381 
L 544 3500 
L 1119 3500 
L 1119 1403 
Q 1119 906 1312 657 
Q 1506 409 1894 409 
Q 2359 409 2629 706 
Q 2900 1003 2900 1516 
L 2900 3500 
L 3475 3500 
L 3475 0 
L 2900 0 
L 2900 538 
Q 2691 219 2414 64 
Q 2138 -91 1772 -91 
Q 1169 -91 856 284 
Q 544 659 544 1381 
z
M 1991 3584 
L 1991 3584 
z
" id="DejaVuSans-75" transform="scale(0.015625)"/>
     <path d="M 2631 2963 
Q 2534 3019 2420 3045 
Q 2306 3072 2169 3072 
Q 1681 3072 1420 2755 
Q 1159 2438 1159 1844 
L 1159 0 
L 581 0 
L 581 3500 
L 1159 3500 
L 1159 2956 
Q 1341 3275 1631 3429 
Q 1922 3584 2338 3584 
Q 2397 3584 2469 3576 
Q 2541 3569 2628 3553 
L 2631 2963 
z
" id="DejaVuSans-72" transform="scale(0.015625)"/>
     <path d="M 3122 3366 
L 3122 2828 
Q 2878 2963 2633 3030 
Q 2388 3097 2138 3097 
Q 1578 3097 1268 2742 
Q 959 2388 959 1747 
Q 959 1106 1268 751 
Q 1578 397 2138 397 
Q 2388 397 2633 464 
Q 2878 531 3122 666 
L 3122 134 
Q 2881 22 2623 -34 
Q 2366 -91 2075 -91 
Q 1284 -91 818 406 
Q 353 903 353 1747 
Q 353 2603 823 3093 
Q 1294 3584 2113 3584 
Q 2378 3584 2631 3529 
Q 2884 3475 3122 3366 
z
" id="DejaVuSans-63" transform="scale(0.015625)"/>
     <path d="M 3597 1894 
L 3597 1613 
L 953 1613 
Q 991 1019 1311 708 
Q 1631 397 2203 397 
Q 2534 397 2845 478 
Q 3156 559 3463 722 
L 3463 178 
Q 3153 47 2828 -22 
Q 2503 -91 2169 -91 
Q 1331 -91 842 396 
Q 353 884 353 1716 
Q 353 2575 817 3079 
Q 1281 3584 2069 3584 
Q 2775 3584 3186 3129 
Q 3597 2675 3597 1894 
z
M 3022 2063 
Q 3016 2534 2758 2815 
Q 2500 3097 2075 3097 
Q 1594 3097 1305 2825 
Q 1016 2553 972 2059 
L 3022 2063 
z
" id="DejaVuSans-65" transform="scale(0.015625)"/>
     <path d="M 2834 3397 
L 2834 2853 
Q 2591 2978 2328 3040 
Q 2066 3103 1784 3103 
Q 1356 3103 1142 2972 
Q 928 2841 928 2578 
Q 928 2378 1081 2264 
Q 1234 2150 1697 2047 
L 1894 2003 
Q 2506 1872 2764 1633 
Q 3022 1394 3022 966 
Q 3022 478 2636 193 
Q 2250 -91 1575 -91 
Q 1294 -91 989 -36 
Q 684 19 347 128 
L 347 722 
Q 666 556 975 473 
Q 1284 391 1588 391 
Q 1994 391 2212 530 
Q 2431 669 2431 922 
Q 2431 1156 2273 1281 
Q 2116 1406 1581 1522 
L 1381 1569 
Q 847 1681 609 1914 
Q 372 2147 372 2553 
Q 372 3047 722 3315 
Q 1072 3584 1716 3584 
Q 2034 3584 2315 3537 
Q 2597 3491 2834 3397 
z
" id="DejaVuSans-73" transform="scale(0.015625)"/>
     <path d="M 750 794 
L 1409 794 
L 1409 0 
L 750 0 
L 750 794 
z
M 750 3309 
L 1409 3309 
L 1409 2516 
L 750 2516 
L 750 3309 
z
" id="DejaVuSans-3a" transform="scale(0.015625)"/>
     <path d="M 556 4666 
L 1191 4666 
L 1191 1831 
Q 1191 1081 1462 751 
Q 1734 422 2344 422 
Q 2950 422 3222 751 
Q 3494 1081 3494 1831 
L 3494 4666 
L 4128 4666 
L 4128 1753 
Q 4128 841 3676 375 
Q 3225 -91 2344 -91 
Q 1459 -91 1007 375 
Q 556 841 556 1753 
L 556 4666 
z
" id="DejaVuSans-55" transform="scale(0.015625)"/>
     <path d="M 3809 666 
L 3809 1919 
L 2778 1919 
L 2778 2438 
L 4434 2438 
L 4434 434 
Q 4069 175 3628 42 
Q 3188 -91 2688 -91 
Q 1594 -91 976 548 
Q 359 1188 359 2328 
Q 359 3472 976 4111 
Q 1594 4750 2688 4750 
Q 3144 4750 3555 4637 
Q 3966 4525 4313 4306 
L 4313 3634 
Q 3963 3931 3569 4081 
Q 3175 4231 2741 4231 
Q 1884 4231 1454 3753 
Q 1025 3275 1025 2328 
Q 1025 1384 1454 906 
Q 1884 428 2741 428 
Q 3075 428 3337 486 
Q 3600 544 3809 666 
z
" id="DejaVuSans-47" transform="scale(0.015625)"/>
     <path d="M 2906 2969 
L 2906 4863 
L 3481 4863 
L 3481 0 
L 2906 0 
L 2906 525 
Q 2725 213 2448 61 
Q 2172 -91 1784 -91 
Q 1150 -91 751 415 
Q 353 922 353 1747 
Q 353 2572 751 3078 
Q 1150 3584 1784 3584 
Q 2172 3584 2448 3432 
Q 2725 3281 2906 2969 
z
M 947 1747 
Q 947 1113 1208 752 
Q 1469 391 1925 391 
Q 2381 391 2643 752 
Q 2906 1113 2906 1747 
Q 2906 2381 2643 2742 
Q 2381 3103 1925 3103 
Q 1469 3103 1208 2742 
Q 947 2381 947 1747 
z
" id="DejaVuSans-64" transform="scale(0.015625)"/>
     <path d="M 2522 4238 
Q 1834 4238 1429 3725 
Q 1025 3213 1025 2328 
Q 1025 1447 1429 934 
Q 1834 422 2522 422 
Q 3209 422 3611 934 
Q 4013 1447 4013 2328 
Q 4013 3213 3611 3725 
Q 3209 4238 2522 4238 
z
M 2522 4750 
Q 3503 4750 4090 4092 
Q 4678 3434 4678 2328 
Q 4678 1225 4090 567 
Q 3503 -91 2522 -91 
Q 1538 -91 948 565 
Q 359 1222 359 2328 
Q 359 3434 948 4092 
Q 1538 4750 2522 4750 
z
" id="DejaVuSans-4f" transform="scale(0.015625)"/>
     <path d="M 1159 525 
L 1159 -1331 
L 581 -1331 
L 581 3500 
L 1159 3500 
L 1159 2969 
Q 1341 3281 1617 3432 
Q 1894 3584 2278 3584 
Q 2916 3584 3314 3078 
Q 3713 2572 3713 1747 
Q 3713 922 3314 415 
Q 2916 -91 2278 -91 
Q 1894 -91 1617 61 
Q 1341 213 1159 525 
z
M 3116 1747 
Q 3116 2381 2855 2742 
Q 2594 3103 2138 3103 
Q 1681 3103 1420 2742 
Q 1159 2381 1159 1747 
Q 1159 1113 1420 752 
Q 1681 391 2138 391 
Q 2594 391 2855 752 
Q 3116 1113 3116 1747 
z
" id="DejaVuSans-70" transform="scale(0.015625)"/>
     <path d="M 628 4666 
L 1569 4666 
L 2759 1491 
L 3956 4666 
L 4897 4666 
L 4897 0 
L 4281 0 
L 4281 4097 
L 3078 897 
L 2444 897 
L 1241 4097 
L 1241 0 
L 628 0 
L 628 4666 
z
" id="DejaVuSans-4d" transform="scale(0.015625)"/>
    </defs>
    <use xlink:href="#DejaVuSans-53"/>
    <use x="63.476562" xlink:href="#DejaVuSans-6f"/>
    <use x="124.658203" xlink:href="#DejaVuSans-75"/>
    <use x="188.037109" xlink:href="#DejaVuSans-72"/>
    <use x="226.900391" xlink:href="#DejaVuSans-63"/>
    <use x="281.880859" xlink:href="#DejaVuSans-65"/>
    <use x="343.404297" xlink:href="#DejaVuSans-73"/>
    <use x="395.503906" xlink:href="#DejaVuSans-3a"/>
    <use x="429.195312" xlink:href="#DejaVuSans-20"/>
    <use x="460.982422" xlink:href="#DejaVuSans-55"/>
    <use x="534.175781" xlink:href="#DejaVuSans-53"/>
    <use x="597.652344" xlink:href="#DejaVuSans-47"/>
    <use x="675.142578" xlink:href="#DejaVuSans-53"/>
    <use x="738.619141" xlink:href="#DejaVuSans-20"/>
    <use x="770.40625" xlink:href="#DejaVuSans-61"/>
    <use x="831.685547" xlink:href="#DejaVuSans-6e"/>
    <use x="895.064453" xlink:href="#DejaVuSans-64"/>
    <use x="958.541016" xlink:href="#DejaVuSans-20"/>
    <use x="990.328125" xlink:href="#DejaVuSans-4f"/>
    <use x="1069.039062" xlink:href="#DejaVuSans-70"/>
    <use x="1132.515625" xlink:href="#DejaVuSans-65"/>
    <use x="1194.039062" xlink:href="#DejaVuSans-6e"/>
    <use x="1257.417969" xlink:href="#DejaVuSans-53"/>
    <use x="1320.894531" xlink:href="#DejaVuSans-74"/>
    <use x="1360.103516" xlink:href="#DejaVuSans-72"/>
    <use x="1398.966797" xlink:href="#DejaVuSans-65"/>
    <use x="1460.490234" xlink:href="#DejaVuSans-65"/>
    <use x="1522.013672" xlink:href="#DejaVuSans-74"/>
    <use x="1561.222656" xlink:href="#DejaVuSans-4d"/>
    <use x="1647.501953" xlink:href="#DejaVuSans-61"/>
    <use x="1708.78125" xlink:href="#DejaVuSans-70"/>
    <use x="1772.257812" xlink:href="#DejaVuSans-73"/>
   </g>
  </g>
 </g>
 <defs>
  <clipPath id="p8503f85535">
   <rect height="97.375422" width="72.180908" x="0" y="7.691106"/>
  </clipPath>
 </defs>
</svg>
