<?xml version="1.0" encoding="utf-8" standalone="no"?>
<!DOCTYPE svg PUBLIC "-//W3C//DTD SVG 1.1//EN"
  "http://www.w3.org/Graphics/SVG/1.1/DTD/svg11.dtd">
<svg height="216.177148pt" version="1.1" viewBox="0 0 184.169084 216.177148" width="184.169084pt" xmlns="http://www.w3.org/2000/svg" xmlns:xlink="http://www.w3.org/1999/xlink">
 <metadata>
  <rdf:RDF xmlns:cc="http://creativecommons.org/ns#" xmlns:dc="http://purl.org/dc/elements/1.1/" xmlns:rdf="http://www.w3.org/1999/02/22-rdf-syntax-ns#">
   <cc:Work>
    <dc:type rdf:resource="http://purl.org/dc/dcmitype/StillImage"/>
    <dc:date>2022-04-14T21:29:34.328080</dc:date>
    <dc:format>image/svg+xml</dc:format>
    <dc:creator>
     <cc:Agent>
      <dc:title>Matplotlib v3.4.3, https://matplotlib.org/</dc:title>
     </cc:Agent>
    </dc:creator>
   </cc:Work>
  </rdf:RDF>
 </metadata>
 <defs>
  <style type="text/css">*{stroke-linecap:butt;stroke-linejoin:round;}</style>
 </defs>
 <g id="figure_1">
  <g id="patch_1">
   <path d="M 0 216.177148 
L 184.169084 216.177148 
L 184.169084 0 
L 0 0 
z
" style="fill:#ffffff;"/>
  </g>
  <g id="axes_1">
   <g id="patch_2">
    <path clip-path="url(#pb20d6b17ce)" d="M 108.111841 84.682964 
L 108.111841 84.682964 
L 107.079214 84.808585 
L 106.046588 84.934206 
L 105.013961 85.059827 
L 103.981335 85.185448 
L 102.94843 84.968564 
L 101.915525 84.751679 
L 100.88262 84.534795 
L 99.849715 84.317911 
L 98.457466 83.336563 
L 97.065217 82.355215 
L 96.043454 82.8577 
L 96.786655 84.409532 
L 98.156062 85.367974 
L 99.525469 86.326417 
L 100.738046 87.245133 
L 101.950623 88.163849 
L 103.1632 89.082566 
L 104.375778 90.001282 
L 105.588355 90.919998 
L 106.800932 91.838714 
L 108.013509 92.75743 
L 109.226086 93.676147 
L 110.438663 94.469242 
L 111.65124 95.262337 
L 112.863817 96.055432 
L 114.076394 96.848527 
L 115.288971 97.641622 
L 116.501548 98.434717 
L 117.714125 99.227812 
L 118.926702 100.020907 
L 120.37146 101.02516 
L 121.816217 102.029414 
L 123.260975 103.033667 
L 124.705733 104.03792 
L 126.150491 105.042173 
L 127.595249 106.046426 
L 129.040006 107.050679 
L 130.484764 108.054932 
L 131.378389 108.773585 
L 132.272013 109.492238 
L 133.165637 110.210891 
L 134.059262 110.929544 
L 134.616384 110.382681 
L 134.175422 109.332617 
L 133.734459 108.282553 
L 133.293497 107.23249 
L 132.852535 106.182426 
L 131.773388 105.338152 
L 130.694242 104.493878 
L 129.615096 103.649604 
L 128.53595 102.80533 
L 127.909187 101.607098 
L 127.282424 100.408865 
L 126.655662 99.210633 
L 126.028899 98.012401 
L 125.460355 97.099411 
L 124.891812 96.186421 
L 124.323268 95.273432 
L 123.754725 94.360442 
L 122.141577 93.812862 
L 120.528429 93.265283 
L 118.915281 92.717704 
L 117.302133 92.170125 
L 116.397087 91.222777 
L 115.492042 90.275429 
L 114.586996 89.328081 
L 113.681951 88.380734 
z
" style="opacity:0.1;"/>
   </g>
   <g id="patch_3">
    <path clip-path="url(#pb20d6b17ce)" d="M 108.111841 84.682964 
L 108.111841 84.682964 
L 107.079214 84.808585 
L 106.046588 84.934206 
L 105.013961 85.059827 
L 103.981335 85.185448 
L 102.94843 84.968564 
L 101.915525 84.751679 
L 100.88262 84.534795 
L 99.849715 84.317911 
L 98.457466 83.336563 
L 97.065217 82.355215 
L 96.043454 82.8577 
L 96.786655 84.409532 
L 98.156062 85.367974 
L 99.525469 86.326417 
L 100.738046 87.245133 
L 101.950623 88.163849 
L 103.1632 89.082566 
L 104.375778 90.001282 
L 105.588355 90.919998 
L 106.800932 91.838714 
L 108.013509 92.75743 
L 109.226086 93.676147 
L 110.438663 94.469242 
L 111.65124 95.262337 
L 112.863817 96.055432 
L 114.076394 96.848527 
L 115.288971 97.641622 
L 116.501548 98.434717 
L 117.714125 99.227812 
L 118.926702 100.020907 
L 120.37146 101.02516 
L 121.816217 102.029414 
L 123.260975 103.033667 
L 124.705733 104.03792 
L 126.150491 105.042173 
L 127.595249 106.046426 
L 129.040006 107.050679 
L 130.484764 108.054932 
L 131.378389 108.773585 
L 132.272013 109.492238 
L 133.165637 110.210891 
L 134.059262 110.929544 
L 134.616384 110.382681 
L 134.175422 109.332617 
L 133.734459 108.282553 
L 133.293497 107.23249 
L 132.852535 106.182426 
L 131.773388 105.338152 
L 130.694242 104.493878 
L 129.615096 103.649604 
L 128.53595 102.80533 
L 127.909187 101.607098 
L 127.282424 100.408865 
L 126.655662 99.210633 
L 126.028899 98.012401 
L 125.460355 97.099411 
L 124.891812 96.186421 
L 124.323268 95.273432 
L 123.754725 94.360442 
L 122.141577 93.812862 
L 120.528429 93.265283 
L 118.915281 92.717704 
L 117.302133 92.170125 
L 116.397087 91.222777 
L 115.492042 90.275429 
L 114.586996 89.328081 
L 113.681951 88.380734 
z
" style="fill:none;stroke:#000000;stroke-dasharray:3.7,1.6;stroke-dashoffset:0;stroke-linejoin:miter;"/>
   </g>
   <g id="line2d_1">
    <path clip-path="url(#pb20d6b17ce)" d="M 108.111841 84.682964 
" style="fill:none;stroke:#008000;stroke-linecap:square;stroke-width:1.5;"/>
   </g>
   <g id="line2d_2">
    <path clip-path="url(#pb20d6b17ce)" d="M 108.111841 84.682964 
" style="fill:none;stroke:#4169e1;stroke-linecap:square;stroke-width:1.5;"/>
   </g>
   <g id="line2d_3">
    <path clip-path="url(#pb20d6b17ce)" d="M 108.111841 84.682964 
" style="fill:none;stroke:#000000;stroke-linecap:square;stroke-width:1.5;"/>
   </g>
   <g id="line2d_4">
    <path clip-path="url(#pb20d6b17ce)" d="M 108.111841 84.682964 
" style="fill:none;stroke:#ff0000;stroke-linecap:square;stroke-width:1.5;"/>
   </g>
   <g id="line2d_5">
    <path clip-path="url(#pb20d6b17ce)" d="M 108.111841 84.682964 
" style="fill:none;stroke:#ffd700;stroke-linecap:square;stroke-width:1.5;"/>
   </g>
   <g id="line2d_6">
    <path clip-path="url(#pb20d6b17ce)" d="M 108.111841 84.682964 
" style="fill:none;stroke:#000000;stroke-dasharray:1.5,2.475;stroke-dashoffset:0;stroke-width:1.5;"/>
   </g>
   <g id="line2d_7">
    <path clip-path="url(#pb20d6b17ce)" d="M 136.393605 114.169209 
L 132.981787 111.734092 
L 130.017896 109.619649 
L 127.054004 107.505206 
L 123.841636 105.212531 
L 120.629268 102.919856 
L 116.611301 100.053834 
L 112.905879 97.40899 
L 109.200458 94.764147 
L 105.945191 92.442125 
L 102.689925 90.120103 
L 99.195653 87.626291 
L 95.701381 85.13248 
L 92.272849 82.68591 
" style="fill:none;stroke:#808080;stroke-linecap:square;stroke-width:1.5;"/>
   </g>
   <g id="line2d_8">
    <path clip-path="url(#pb20d6b17ce)" d="M 138.889514 109.81148 
L 139.169189 103.923393 
L 139.394824 99.164107 
L 139.620458 94.404821 
L 139.869492 89.157366 
L 140.118526 83.909911 
L 140.368117 78.653866 
L 140.617707 73.397822 
L 140.877326 67.932766 
L 141.136946 62.467711 
L 141.389322 57.147962 
L 141.641698 51.828212 
L 141.918031 46.006693 
L 142.194364 40.185175 
L 142.379329 36.280542 
L 142.564293 32.375908 
L 142.821684 26.961674 
" style="fill:none;stroke:#808080;stroke-linecap:square;stroke-width:1.5;"/>
   </g>
   <g id="line2d_9">
    <path clip-path="url(#pb20d6b17ce)" d="M 139.950275 109.81148 
L 140.23775 103.841793 
L 140.466727 99.094675 
L 140.695705 94.347557 
L 140.943624 89.196018 
L 141.191544 84.044479 
L 141.446706 78.746919 
L 141.701868 73.449358 
L 141.963158 68.024388 
L 142.224449 62.599417 
L 142.484068 57.213814 
L 142.743687 51.828212 
L 143.023919 46.018862 
L 143.304152 40.209512 
L 143.490231 36.345678 
L 143.67631 32.481845 
L 143.944843 26.900116 
" style="fill:none;stroke:#808080;stroke-linecap:square;stroke-width:1.5;"/>
   </g>
   <g id="line2d_10">
    <path clip-path="url(#pb20d6b17ce)" d="M 145.629581 104.902594 
L 145.971654 100.645434 
L 146.313727 96.388274 
L 146.655801 92.131114 
L 146.997874 87.873954 
L 147.436886 82.413194 
L 147.875899 76.952434 
L 148.284827 71.859589 
L 148.693754 66.766745 
L 149.170094 60.840005 
L 149.646434 54.913266 
L 150.076532 49.554863 
L 150.496603 44.329598 
" style="fill:none;stroke:#808080;stroke-linecap:square;stroke-width:1.5;"/>
   </g>
   <g id="line2d_11">
    <path clip-path="url(#pb20d6b17ce)" d="M 154.803159 111.038344 
L 160.611718 108.992617 
L 166.420277 106.946889 
L 171.527975 105.147394 
" style="fill:none;stroke:#808080;stroke-linecap:square;stroke-width:1.5;"/>
   </g>
   <g id="line2d_12">
    <path clip-path="url(#pb20d6b17ce)" d="M 140.511854 121.380075 
L 142.414984 118.587063 
" style="fill:none;stroke:#808080;stroke-linecap:square;stroke-width:1.5;"/>
   </g>
   <g id="line2d_13">
    <path clip-path="url(#pb20d6b17ce)" d="M 54.885476 186.073157 
L 55.349002 180.557639 
L 55.812527 175.042121 
L 56.276053 169.526602 
L 56.739579 164.011084 
L 57.144607 159.190955 
L 57.549635 154.370827 
L 57.973605 149.324509 
L 58.397576 144.278191 
L 58.835474 139.067241 
L 59.273372 133.856291 
L 59.76364 128.020457 
L 60.253908 122.184623 
L 60.744733 116.348789 
L 61.235557 110.512954 
L 61.691284 105.089415 
L 62.14701 99.665876 
L 62.523625 95.177874 
L 62.925867 90.392103 
" style="fill:none;stroke:#808080;stroke-linecap:square;stroke-width:1.5;"/>
   </g>
   <g id="line2d_14">
    <path clip-path="url(#pb20d6b17ce)" d="M 64.970506 92.599599 
L 70.410807 90.816208 
L 75.851108 89.032818 
L 81.291409 87.249428 
L 86.731709 85.466038 
" style="fill:none;stroke:#808080;stroke-linecap:square;stroke-width:1.5;"/>
   </g>
   <g id="line2d_15">
    <path clip-path="url(#pb20d6b17ce)" d="M 62.925867 90.392103 
L 61.543089 90.71564 
L 61.301855 92.031262 
L 61.060621 93.346883 
" style="fill:none;stroke:#008000;stroke-linecap:square;stroke-width:1.5;"/>
   </g>
   <g id="line2d_16">
    <path clip-path="url(#pb20d6b17ce)" d="M 56.237055 95.096274 
L 54.508025 95.473137 
L 52.778996 95.85 
L 51.049966 96.226864 
L 49.320937 96.603727 
L 47.661547 96.706443 
L 46.002158 96.809159 
L 44.342769 96.911874 
L 42.68338 97.01459 
L 41.012291 97.516717 
L 39.341202 98.018843 
L 37.670113 98.52097 
L 35.999024 99.023096 
L 34.977819 99.855918 
L 33.956614 100.688739 
L 32.935408 101.521561 
L 31.914203 102.354382 
L 31.454577 103.801709 
L 30.994951 105.249036 
L 30.535325 106.696363 
L 30.075699 108.14369 
L 30.727253 109.871249 
L 31.378808 111.598807 
L 32.030363 113.326366 
L 32.681917 115.053925 
L 33.436122 115.852746 
L 34.190326 116.651568 
L 34.944531 117.450389 
L 35.698735 118.24921 
L 36.45294 119.048032 
L 37.207145 119.846853 
L 37.961349 120.645675 
L 38.715554 121.444496 
L 39.678679 122.266223 
L 40.641804 123.087949 
L 41.60493 123.909676 
L 42.568055 124.731403 
L 43.531181 125.55313 
L 44.494306 126.374856 
L 45.457432 127.196583 
L 46.420557 128.01831 
L 47.009436 128.852742 
L 47.598314 129.687174 
L 48.187192 130.521605 
L 48.776071 131.356037 
L 49.364949 132.190469 
L 49.953828 133.024901 
L 50.542706 133.859333 
L 51.131585 134.693765 
" style="fill:none;stroke:#008000;stroke-linecap:square;stroke-width:1.5;"/>
   </g>
   <g id="line2d_17">
    <path clip-path="url(#pb20d6b17ce)" d="M 60.056686 118.648621 
L 59.26028 119.929527 
L 58.463873 121.210433 
L 57.667467 122.491339 
L 56.87106 123.772245 
L 56.058776 125.004477 
L 55.246491 126.236709 
L 54.434206 127.468941 
L 53.621922 128.701173 
L 52.999338 130.199321 
L 52.376753 131.697469 
L 51.754169 133.195617 
L 51.131585 134.693765 
" style="fill:none;stroke:#008000;stroke-linecap:square;stroke-width:1.5;"/>
   </g>
   <g id="line2d_18">
    <path clip-path="url(#pb20d6b17ce)" d="M 61.060621 93.346883 
L 61.00658 95.242295 
L 60.952539 97.137706 
L 60.991259 98.63478 
L 61.029979 100.131855 
L 61.068699 101.628929 
L 61.107419 103.126004 
L 60.972317 104.804173 
L 60.837215 106.482342 
L 60.702113 108.160511 
L 60.56701 109.83868 
L 60.50322 110.939923 
L 60.439429 112.041165 
L 60.375639 113.142408 
L 60.311848 114.243651 
L 60.248058 115.344893 
L 60.184267 116.446136 
L 60.120477 117.547379 
L 60.056686 118.648621 
L 60.103067 119.846853 
L 60.149447 121.045085 
L 60.195828 122.243318 
L 60.242208 123.44155 
L 60.288589 124.639782 
L 60.334969 125.838014 
L 60.381349 127.036246 
L 60.42773 128.234478 
L 60.346529 129.3869 
L 60.265329 130.539321 
L 60.184128 131.691743 
L 60.102927 132.844164 
L 60.021727 133.996586 
L 59.940526 135.149008 
L 59.859326 136.301429 
L 59.778125 137.453851 
L 59.661965 139.085851 
L 59.545805 140.717852 
L 59.429645 142.349853 
L 59.313485 143.981854 
" style="fill:none;stroke:#4169e1;stroke-linecap:square;stroke-width:1.5;"/>
   </g>
   <g id="line2d_19">
    <path clip-path="url(#pb20d6b17ce)" d="M 31.205543 158.748597 
L 31.223092 160.244956 
L 31.240642 161.741314 
L 31.258191 163.237673 
L 31.27574 164.734032 
L 30.783523 166.573611 
L 30.291305 168.413191 
L 29.799087 170.252771 
L 29.30687 172.092351 
L 28.863679 173.467741 
L 28.420488 174.843131 
L 27.977297 176.218521 
L 27.534106 177.593911 
" style="fill:none;stroke:#008000;stroke-linecap:square;stroke-width:1.5;"/>
   </g>
   <g id="line2d_20">
    <path clip-path="url(#pb20d6b17ce)" d="M 12.753647 149.255793 
L 12.183432 150.641204 
L 11.613218 152.026615 
L 11.043003 153.412026 
L 10.472788 154.797438 
L 9.947421 156.459502 
L 9.422055 158.121565 
L 8.896688 159.783629 
L 8.371322 161.445693 
L 8.437062 162.430262 
L 8.502803 163.414831 
L 8.568543 164.3994 
L 8.634284 165.383969 
L 9.536822 166.62658 
L 10.439361 167.869191 
L 11.341899 169.111802 
L 12.244437 170.354413 
L 13.491834 171.290308 
L 14.739232 172.226203 
L 15.986629 173.162099 
L 17.234026 174.097994 
L 18.579755 174.27551 
L 19.925485 174.453026 
L 21.271214 174.630541 
L 22.616943 174.808057 
L 23.846234 175.504521 
L 25.075525 176.200984 
L 26.304815 176.897448 
L 27.534106 177.593911 
" style="fill:none;stroke:#4169e1;stroke-linecap:square;stroke-width:1.5;"/>
   </g>
   <g id="line2d_21">
    <path clip-path="url(#pb20d6b17ce)" d="M 66.229603 139.781599 
L 65.365088 140.306631 
L 64.500574 140.831663 
L 63.636059 141.356695 
L 62.771544 141.881726 
L 61.907029 142.406758 
L 61.042514 142.93179 
L 60.178 143.456822 
L 59.313485 143.981854 
L 58.663602 144.780317 
L 58.013718 145.578781 
L 57.363835 146.377244 
L 56.713952 147.175708 
L 56.0773 148.186582 
L 55.440648 149.197456 
L 54.803997 150.20833 
L 54.167345 151.219204 
L 53.530693 152.230079 
L 52.894041 153.240953 
L 52.25739 154.251827 
L 51.620738 155.262701 
" style="fill:none;stroke:#008000;stroke-linecap:square;stroke-width:1.5;"/>
   </g>
   <g id="line2d_22">
    <path clip-path="url(#pb20d6b17ce)" d="M 90.764162 81.805489 
L 91.917127 81.560331 
L 93.070092 81.315173 
L 94.223056 81.070015 
L 95.376021 80.824857 
L 96.559628 80.767593 
L 97.743235 80.71033 
L 98.926841 80.653067 
L 100.110448 80.595804 
L 101.096833 80.715699 
L 102.083219 80.835593 
L 103.069604 80.955488 
L 104.055989 81.075383 
L 105.042375 81.195278 
L 106.02876 81.315173 
L 107.015145 81.435067 
L 108.00153 81.554962 
L 109.533339 82.616121 
L 111.065147 83.677279 
L 112.596955 84.738437 
L 114.128763 85.799596 
L 115.38201 86.530059 
L 116.635257 87.260523 
L 117.888504 87.990986 
L 119.141751 88.72145 
L 120.511158 89.611534 
L 121.880565 90.501619 
L 123.249972 91.391703 
L 124.619379 92.281788 
L 125.327203 93.274589 
L 126.035027 94.267389 
L 126.742851 95.260189 
L 127.450675 96.25299 
L 128.158499 97.24579 
L 128.866323 98.238591 
L 129.574148 99.231391 
L 130.281972 100.224192 
L 130.897035 101.068645 
L 131.512098 101.913098 
L 132.127161 102.757551 
L 132.742224 103.602004 
L 133.357288 104.446457 
L 133.972351 105.29091 
L 134.587414 106.135363 
L 135.202477 106.979816 
L 136.124236 107.687732 
L 137.045995 108.395648 
L 137.967754 109.103564 
L 138.889514 109.81148 
" style="fill:none;stroke:#4169e1;stroke-linecap:square;stroke-width:1.5;"/>
   </g>
   <g id="line2d_23">
    <path clip-path="url(#pb20d6b17ce)" d="M 135.202477 106.979816 
L 135.585777 108.023795 
L 135.969078 109.067775 
L 136.352378 110.111754 
L 136.735678 111.155734 
L 136.564642 112.662471 
L 136.393605 114.169209 
" style="fill:none;stroke:#008000;stroke-linecap:square;stroke-width:1.5;"/>
   </g>
   <g id="line2d_24">
    <path clip-path="url(#pb20d6b17ce)" d="M 56.237055 95.096274 
L 55.633691 96.368948 
L 55.030328 97.641622 
L 54.426964 98.914296 
L 53.8236 100.186971 
L 53.661199 101.522098 
L 53.498798 102.857224 
L 53.336397 104.192351 
L 53.173995 105.527478 
L 53.011594 106.862605 
L 52.849193 108.197732 
L 52.686792 109.532859 
L 52.524391 110.867986 
L 52.45475 112.374187 
L 52.38511 113.880387 
L 52.31547 115.386588 
L 52.245829 116.892789 
L 52.176189 118.398989 
L 52.106549 119.90519 
L 52.036909 121.411391 
L 51.967268 122.917592 
L 51.862808 124.389613 
L 51.758347 125.861635 
L 51.653887 127.333657 
L 51.549426 128.805678 
L 51.444966 130.2777 
L 51.340505 131.749722 
L 51.236045 133.221744 
L 51.131585 134.693765 
" style="fill:none;stroke:#4169e1;stroke-linecap:square;stroke-width:1.5;"/>
   </g>
   <g id="line2d_25">
    <path clip-path="url(#pb20d6b17ce)" d="M 51.131585 134.693765 
L 51.173787 136.153261 
L 51.215989 137.612756 
L 51.258191 139.072251 
L 51.300393 140.531747 
L 51.342595 141.991242 
L 51.384797 143.450738 
L 51.426999 144.910233 
L 51.469201 146.369729 
L 51.488143 147.48135 
L 51.507085 148.592972 
L 51.526027 149.704593 
L 51.544969 150.816215 
L 51.563912 151.927836 
L 51.582854 153.039458 
L 51.601796 154.151079 
L 51.620738 155.262701 
L 51.582714 156.594249 
L 51.544691 157.925797 
L 51.506667 159.257345 
L 51.468644 160.588893 
L 51.43062 161.920441 
L 51.392596 163.251989 
L 51.354573 164.583537 
L 51.316549 165.915085 
L 51.214874 167.038517 
L 51.1132 168.161949 
L 51.011525 169.285381 
L 50.90985 170.408813 
L 50.798286 171.63854 
L 50.686722 172.868267 
L 50.575159 174.097994 
L 50.463595 175.327721 
L 50.352031 176.557448 
L 50.240467 177.787174 
L 50.128903 179.016901 
L 50.01734 180.246628 
L 50.1218 181.387597 
L 50.226261 182.528566 
L 50.330721 183.669535 
L 50.435182 184.810504 
L 51.270865 185.85341 
L 52.106549 186.896315 
L 53.496012 186.484736 
L 54.885476 186.073157 
" style="fill:none;stroke:#008000;stroke-linecap:square;stroke-width:1.5;"/>
   </g>
   <g id="line2d_26">
    <path clip-path="url(#pb20d6b17ce)" d="M 66.229603 139.781599 
L 66.624324 141.230716 
L 67.019046 142.679832 
L 67.413767 144.128949 
L 67.808488 145.578065 
L 68.04053 146.662129 
L 68.272571 147.746192 
L 68.504613 148.830256 
L 68.736654 149.91432 
L 68.516034 151.044194 
L 68.295413 152.174068 
L 68.074793 153.303942 
L 67.854172 154.433816 
L 67.297328 155.449164 
L 66.740484 156.464512 
L 66.18364 157.47986 
L 65.626797 158.495208 
L 64.071868 159.556724 
L 62.516939 160.61824 
L 60.96201 161.679757 
L 59.407082 162.741273 
L 58.188655 163.562642 
L 56.970228 164.38401 
L 55.751801 165.205379 
L 54.533374 166.026748 
L 53.627493 167.122264 
L 52.721612 168.217781 
L 51.815731 169.313297 
L 50.90985 170.408813 
" style="fill:none;stroke:#4169e1;stroke-linecap:square;stroke-width:1.5;"/>
   </g>
   <g id="line2d_27">
    <path clip-path="url(#pb20d6b17ce)" d="M 162.149376 80.323804 
L 161.705071 81.727825 
L 161.260766 83.131847 
L 160.816461 84.535869 
L 160.372155 85.93989 
L 160.314632 87.045249 
L 160.25711 88.150607 
L 160.199587 89.255966 
L 160.142064 90.361324 
L 160.084541 91.466682 
L 160.027018 92.572041 
L 159.969495 93.677399 
L 159.911972 94.782758 
L 159.633132 96.122358 
L 159.354293 97.461959 
L 159.075453 98.801559 
L 158.796613 100.14116 
L 158.296039 101.036792 
L 157.795464 101.932424 
L 157.294889 102.828056 
L 156.794315 103.723688 
L 156.29374 104.61932 
L 155.793166 105.514952 
L 155.292591 106.410584 
L 154.792017 107.306216 
" style="fill:none;stroke:#000000;stroke-linecap:square;stroke-width:1.5;"/>
   </g>
   <g id="line2d_28">
    <path clip-path="url(#pb20d6b17ce)" d="M 88.171314 83.685153 
L 88.848775 84.798206 
L 89.526236 85.911259 
L 90.203697 87.024312 
L 90.881157 88.137365 
L 92.144711 89.557492 
L 93.408265 90.977619 
L 94.671819 92.397746 
L 95.935372 93.817873 
L 97.166334 94.802442 
L 98.397296 95.787011 
L 99.628259 96.77158 
L 100.859221 97.756148 
L 102.319717 98.805138 
L 103.780214 99.854128 
L 105.24071 100.903118 
L 106.701207 101.952108 
L 107.65305 102.557309 
L 108.604894 103.162509 
L 109.556738 103.767709 
L 110.508581 104.372909 
L 111.460425 104.97811 
L 112.412269 105.58331 
L 113.364113 106.18851 
L 114.315956 106.79371 
L 115.255543 107.390858 
L 116.19513 107.988006 
L 117.134717 108.585153 
L 118.074304 109.182301 
L 119.013891 109.779449 
L 119.953478 110.376596 
L 120.893065 110.973744 
L 121.832652 111.570892 
L 123.424351 112.506787 
L 125.01605 113.442682 
L 126.607749 114.378577 
L 128.199448 115.314472 
L 129.372748 115.516325 
L 130.546048 115.718178 
L 131.719348 115.92003 
L 132.892647 116.121883 
L 133.767887 115.633715 
L 134.643126 115.145546 
L 135.518366 114.657377 
L 136.393605 114.169209 
" style="fill:none;stroke:#4169e1;stroke-linecap:square;stroke-width:1.5;"/>
   </g>
   <g id="line2d_29">
    <path clip-path="url(#pb20d6b17ce)" d="M 129.075244 76.422749 
L 129.601168 77.618834 
L 130.127092 78.814919 
L 130.653015 80.011004 
L 131.178939 81.207088 
L 131.439533 82.233531 
L 131.700127 83.259973 
L 131.960721 84.286416 
L 132.221315 85.312859 
L 132.481909 86.339301 
L 132.742503 87.365744 
L 133.003097 88.392186 
L 133.263691 89.418629 
L 133.484869 90.36705 
L 133.706046 91.315472 
L 133.927224 92.263893 
L 134.148401 93.212315 
L 134.369579 94.160736 
L 134.590757 95.109158 
L 134.811934 96.057579 
L 135.033112 97.006001 
L 135.565164 98.338801 
L 136.097216 99.671602 
L 137.351298 100.717013 
L 138.605381 101.762424 
L 139.859464 102.807835 
L 141.113546 103.853246 
L 141.853962 104.624152 
L 142.594378 105.395057 
" style="fill:none;stroke:#008000;stroke-linecap:square;stroke-width:1.5;"/>
   </g>
   <g id="line2d_30">
    <path clip-path="url(#pb20d6b17ce)" d="M 100.110448 80.595804 
L 101.658691 79.477024 
L 103.206935 78.358245 
L 104.755178 77.239465 
L 106.303421 76.120686 
L 107.515998 74.854096 
L 108.728575 73.587506 
L 109.941152 72.320916 
L 111.153729 71.054326 
L 112.174935 69.867188 
L 113.19614 68.680051 
L 114.217346 67.492914 
L 115.238551 66.305776 
L 116.215744 65.680892 
L 117.192937 65.056007 
L 119.142308 64.896386 
L 121.09168 64.736765 
L 122.437687 65.466871 
L 123.783695 66.196976 
L 124.201537 67.258492 
L 124.619379 68.320009 
L 125.037221 69.381525 
L 125.455063 70.443041 
L 126.360108 71.937968 
L 127.265154 73.432895 
L 128.170199 74.927822 
L 129.075244 76.422749 
L 130.103971 77.209044 
L 131.132698 77.995339 
L 132.161424 78.781635 
L 133.190151 79.56793 
L 134.218877 80.354225 
L 135.247604 81.14052 
L 136.276331 81.926815 
L 137.305057 82.71311 
" style="fill:none;stroke:#4169e1;stroke-linecap:square;stroke-width:1.5;"/>
   </g>
   <g id="line2d_31">
    <path clip-path="url(#pb20d6b17ce)" d="M 111.701938 64.540639 
L 113.074688 64.669481 
L 114.447437 64.798323 
L 115.820187 64.927165 
L 117.192937 65.056007 
" style="fill:none;stroke:#008000;stroke-linecap:square;stroke-width:1.5;"/>
   </g>
   <g id="line2d_32">
    <path clip-path="url(#pb20d6b17ce)" d="M 132.013508 56.100045 
L 132.036907 57.823309 
L 132.060306 59.546573 
L 132.083706 61.269837 
L 132.107105 62.993101 
L 132.211565 64.41967 
L 132.316026 65.846239 
L 132.420486 67.272808 
L 132.524947 68.699377 
L 132.97162 69.880431 
L 133.418292 71.061484 
L 133.864965 72.242537 
L 134.311638 73.42359 
L 134.758311 74.604643 
L 135.204984 75.785696 
L 135.651657 76.96675 
L 136.09833 78.147803 
L 136.400012 79.28913 
L 136.701694 80.430456 
L 137.003375 81.571783 
L 137.305057 82.71311 
L 137.74602 84.356206 
L 138.186982 85.999301 
L 138.627945 87.642396 
L 139.068907 89.285492 
L 139.382288 90.797598 
L 139.69567 92.309704 
L 140.009051 93.82181 
L 140.322432 95.333916 
L 140.635814 96.846022 
L 140.949195 98.358128 
L 141.262577 99.870234 
L 141.575958 101.38234 
L 141.830563 102.385519 
L 142.085168 103.388698 
L 142.339773 104.391878 
L 142.594378 105.395057 
L 142.856783 106.429016 
L 143.119187 107.462974 
L 143.381592 108.496932 
L 143.643997 109.530891 
" style="fill:none;stroke:#008000;stroke-linecap:square;stroke-width:1.5;"/>
   </g>
   <g id="line2d_33">
    <path clip-path="url(#pb20d6b17ce)" d="M 90.764162 81.805489 
L 91.961836 80.837562 
L 93.15951 79.869635 
L 94.357184 78.901708 
L 95.554858 77.933782 
L 96.752532 76.965855 
L 97.950206 75.997928 
L 99.14788 75.030001 
L 100.345554 74.062075 
L 101.765102 72.871895 
L 103.18465 71.681716 
L 104.604198 70.491536 
L 106.023746 69.301357 
L 107.443294 68.111177 
L 108.862842 66.920998 
L 110.28239 65.730818 
L 111.701938 64.540639 
L 112.793201 63.689207 
L 113.884465 62.837775 
L 114.975729 61.986343 
L 116.066992 61.134911 
L 117.158256 60.283479 
L 118.249519 59.432047 
L 119.340783 58.580615 
L 120.432047 57.729183 
L 122.056616 56.986909 
L 123.681185 56.244635 
L 125.305754 55.502361 
L 126.930323 54.760087 
L 128.306973 54.616213 
L 129.683622 54.472339 
L 130.848565 55.286192 
L 132.013508 56.100045 
" style="fill:none;stroke:#008000;stroke-linecap:square;stroke-width:1.5;"/>
   </g>
   <g id="line2d_34">
    <path clip-path="url(#pb20d6b17ce)" d="M 17.181656 161.474325 
L 18.147568 161.236325 
L 19.113479 160.998325 
L 20.07939 160.760325 
L 21.045301 160.522324 
L 22.011212 160.284324 
L 22.977123 160.046324 
L 23.943034 159.808324 
L 24.908945 159.570324 
L 26.483094 159.364892 
L 28.057244 159.159461 
L 29.631393 158.954029 
L 31.205543 158.748597 
" style="fill:none;stroke:#008000;stroke-linecap:square;stroke-width:1.5;"/>
   </g>
   <g id="line2d_35">
    <path clip-path="url(#pb20d6b17ce)" d="M 12.753647 149.255793 
L 12.904627 151.145478 
L 13.055608 153.035163 
L 13.382638 154.170406 
L 13.709669 155.305648 
L 14.0367 156.440891 
L 14.363731 157.576134 
L 15.068212 158.550681 
L 15.772694 159.525229 
L 16.477175 160.499777 
L 17.181656 161.474325 
L 17.736411 162.374431 
L 18.291166 163.274536 
L 18.845921 164.174642 
L 19.400675 165.074748 
L 19.95543 165.974853 
L 20.510185 166.874959 
L 21.064939 167.775065 
L 21.619694 168.67517 
L 22.358995 169.790013 
L 23.098297 170.904855 
L 23.837598 172.019698 
L 24.5769 173.134541 
L 25.316201 174.249383 
L 26.055503 175.364226 
L 26.794804 176.479069 
L 27.534106 177.593911 
L 28.436784 178.618743 
L 29.339461 179.643575 
L 30.242139 180.668407 
L 31.144817 181.693239 
L 32.047494 182.718071 
L 32.950172 183.742903 
L 33.85285 184.767735 
L 34.755527 185.792568 
L 36.133848 186.663684 
L 37.512169 187.5348 
L 38.89049 188.405916 
L 40.268811 189.277032 
L 42.172498 188.954569 
L 44.076186 188.632106 
L 45.979873 188.309642 
L 47.883561 187.987179 
L 48.939308 187.714463 
L 49.995055 187.441747 
L 51.050802 187.169031 
L 52.106549 186.896315 
" style="fill:none;stroke:#4169e1;stroke-linecap:square;stroke-width:1.5;"/>
   </g>
   <g id="line2d_36">
    <path clip-path="url(#pb20d6b17ce)" d="M 143.944843 26.900116 
L 144.752949 27.844959 
L 145.561055 28.789801 
L 146.369161 29.734644 
L 147.177267 30.679486 
L 147.833836 32.390224 
L 148.490405 34.100962 
L 149.146974 35.811699 
L 149.803542 37.522437 
L 149.976807 39.224227 
L 150.150073 40.926017 
L 150.323338 42.627808 
L 150.496603 44.329598 
L 150.869457 45.375009 
L 151.242311 46.42042 
L 151.615165 47.465831 
L 151.98802 48.511242 
L 152.360874 49.556653 
L 152.733728 50.602064 
L 153.106582 51.647475 
L 153.479436 52.692886 
L 153.824017 53.992223 
L 154.168597 55.291561 
L 154.513177 56.590898 
L 154.857757 57.890236 
L 155.202338 59.189573 
L 155.546918 60.48891 
L 155.891498 61.788248 
L 156.236078 63.087585 
L 156.990979 63.975165 
L 157.74588 64.862744 
L 158.500781 65.750323 
L 159.255682 66.637903 
L 160.929556 67.589903 
L 162.603431 68.541904 
L 164.277305 69.493904 
L 165.95118 70.445904 
L 166.689645 71.139863 
L 167.428111 71.833821 
L 168.166577 72.527779 
L 168.905043 73.221737 
L 169.643509 73.915696 
L 170.381974 74.609654 
L 171.12044 75.303612 
L 171.858906 75.99757 
L 172.302097 77.337171 
L 172.745288 78.676771 
L 173.188479 80.016372 
L 173.63167 81.355973 
L 173.97625 82.969721 
L 174.32083 84.583469 
L 174.66541 86.197217 
L 175.009991 87.810965 
L 175.206933 89.00526 
L 175.403876 90.199556 
L 175.600819 91.393851 
L 175.797762 92.588146 
L 175.682995 93.653241 
L 175.568227 94.718337 
L 175.45346 95.783432 
L 175.338693 96.848527 
L 174.518052 97.671685 
L 173.69741 98.494844 
L 172.876769 99.318002 
L 172.056127 100.14116 
L 170.677528 100.835118 
L 169.298928 101.529076 
L 167.920329 102.223035 
L 166.541729 102.916993 
L 165.073015 103.465646 
L 163.604301 104.014299 
L 162.135587 104.562952 
L 160.666873 105.111604 
L 159.198159 105.660257 
L 157.729445 106.20891 
L 156.260731 106.757563 
L 154.792017 107.306216 
L 153.168005 107.736048 
L 151.543993 108.16588 
L 149.919981 108.595711 
L 148.295969 109.025543 
L 147.132976 109.15188 
L 145.969983 109.278217 
L 144.80699 109.404554 
L 143.643997 109.530891 
L 141.797136 109.671185 
L 139.950275 109.81148 
" style="fill:none;stroke:#008000;stroke-linecap:square;stroke-width:1.5;"/>
   </g>
   <g id="line2d_37">
    <path clip-path="url(#pb20d6b17ce)" d="M 156.236078 63.087585 
L 156.674812 64.899249 
L 157.113546 66.710913 
L 157.55228 68.522577 
L 157.991014 70.334241 
L 158.293253 71.517084 
L 158.595492 72.699927 
L 158.897731 73.882769 
L 159.19997 75.065612 
L 159.937321 76.38016 
L 160.674673 77.694708 
L 161.412024 79.009256 
L 162.149376 80.323804 
L 163.575888 81.308015 
L 165.0024 82.292226 
L 166.428912 83.276437 
L 167.855424 84.260648 
L 168.56102 85.196901 
L 169.266615 86.133154 
L 169.972211 87.069407 
L 170.677807 88.00566 
L 170.776139 89.280481 
L 170.874471 90.555303 
L 170.972803 91.830125 
L 171.071135 93.104946 
L 170.480585 94.7348 
L 169.890035 96.364653 
L 169.299486 97.994506 
L 168.708936 99.62436 
L 168.167134 100.447518 
L 167.625333 101.270676 
L 167.083531 102.093835 
L 166.541729 102.916993 
" style="fill:none;stroke:#4169e1;stroke-linecap:square;stroke-width:1.5;"/>
   </g>
   <g id="line2d_38">
    <path clip-path="url(#pb20d6b17ce)" d="M 89.428182 82.774668 
L 90.882272 83.479721 
L 92.336361 84.184774 
L 93.194887 84.6869 
L 94.053413 85.189027 
L 94.911938 85.691153 
L 95.770464 86.19328 
L 97.113686 87.105017 
L 98.456909 88.016755 
L 99.800131 88.928492 
L 101.143353 89.840229 
L 102.486575 90.751966 
L 103.829797 91.663704 
L 105.17302 92.575441 
L 106.516242 93.487178 
L 107.862389 94.434347 
L 109.208536 95.381516 
L 110.554683 96.328685 
L 111.90083 97.275854 
L 113.246978 98.223022 
L 114.593125 99.170191 
L 115.939272 100.11736 
L 117.285419 101.064529 
L 118.495071 101.772087 
L 119.704723 102.479645 
L 120.914375 103.187204 
L 122.124028 103.894762 
L 123.33368 104.60232 
L 124.543332 105.309878 
L 125.752984 106.017436 
L 126.962636 106.724995 
L 127.79818 107.292616 
L 128.633725 107.860237 
L 129.469269 108.427859 
L 130.304814 108.99548 
L 131.140358 109.563101 
L 131.975902 110.130723 
L 132.811447 110.698344 
L 133.646991 111.265965 
L 134.761236 111.962429 
L 135.875481 112.658892 
L 136.393605 114.169209 
" style="fill:none;stroke:#4169e1;stroke-linecap:square;stroke-width:1.5;"/>
   </g>
   <g id="line2d_39">
    <path clip-path="url(#pb20d6b17ce)" d="M 143.944843 26.900116 
L 144.235939 28.130917 
L 144.527036 29.361717 
L 144.818132 30.592518 
L 145.109229 31.823318 
L 145.103518 32.975919 
L 145.097808 34.128519 
L 145.092097 35.28112 
L 145.086387 36.433721 
L 145.080676 37.586321 
L 145.074966 38.738922 
L 145.069255 39.891522 
L 145.063545 41.044123 
L 144.924264 42.128365 
L 144.784983 43.212608 
L 144.645703 44.29685 
L 144.506422 45.381093 
L 144.367141 46.465336 
L 144.227861 47.549578 
L 144.08858 48.633821 
L 143.9493 49.718063 
L 143.775199 51.181675 
L 143.601098 52.645286 
L 143.426997 54.108897 
L 143.252897 55.572508 
L 143.078796 57.036119 
L 142.904695 58.499731 
L 142.730594 59.963342 
L 142.556494 61.426953 
L 142.382393 62.890564 
L 142.208292 64.354175 
L 142.034191 65.817787 
L 141.86009 67.281398 
L 141.68599 68.745009 
L 141.511889 70.20862 
L 141.337788 71.672231 
L 141.163687 73.135843 
L 141.032764 74.145196 
L 140.90184 75.154549 
L 140.770916 76.163902 
L 140.639992 77.173255 
L 140.509069 78.182608 
L 140.378145 79.191961 
L 140.247221 80.201314 
L 140.116297 81.210667 
L 139.985373 82.22002 
L 139.85445 83.229373 
L 139.723526 84.238727 
L 139.592602 85.24808 
L 139.461678 86.257433 
L 139.330755 87.266786 
L 139.199831 88.276139 
L 139.068907 89.285492 
" style="fill:none;stroke:#008000;stroke-linecap:square;stroke-width:1.5;"/>
   </g>
   <g id="line2d_40">
    <path clip-path="url(#pb20d6b17ce)" d="M 60.056686 118.648621 
L 60.943068 119.290327 
L 61.82945 119.932032 
L 62.715832 120.573738 
L 63.602214 121.215443 
L 65.078588 122.465212 
L 66.554963 123.714981 
" style="fill:none;stroke:#008000;stroke-linecap:square;stroke-width:1.5;"/>
   </g>
   <g id="line2d_41">
    <path clip-path="url(#pb20d6b17ce)" d="M 159.19997 75.065612 
L 158.681846 76.255433 
L 158.163722 77.445255 
L 157.645598 78.635077 
L 157.127474 79.824898 
L 156.60935 81.01472 
L 156.091226 82.204541 
L 155.573103 83.394363 
L 155.054979 84.584185 
L 154.505238 86.109175 
L 153.955497 87.634165 
L 153.405757 89.159155 
L 152.856016 90.684145 
L 152.306276 92.209135 
L 151.756535 93.734126 
L 151.206795 95.259116 
L 150.657054 96.784106 
L 150.02862 97.798917 
L 149.400186 98.813728 
L 148.771752 99.828539 
L 148.143317 100.84335 
L 147.514883 101.858161 
L 146.886449 102.872972 
L 146.258015 103.887783 
L 145.629581 104.902594 
L 145.133185 106.059668 
L 144.636789 107.216742 
L 144.140393 108.373816 
L 143.643997 109.530891 
" style="fill:none;stroke:#000000;stroke-linecap:square;stroke-width:1.5;"/>
   </g>
   <g id="line2d_42">
    <path clip-path="url(#pb20d6b17ce)" d="M 142.821684 26.961674 
L 141.512167 27.261948 
L 140.202651 27.562222 
L 138.893135 27.862496 
L 137.583618 28.162769 
L 136.736514 28.80197 
L 135.889409 29.44117 
L 135.042304 30.08037 
L 134.1952 30.719571 
L 133.882097 32.169045 
L 133.568994 33.618519 
L 133.255891 35.067994 
L 132.942788 36.517468 
L 132.867298 37.618711 
L 132.791808 38.719953 
L 132.716318 39.821196 
L 132.640828 40.922438 
L 132.565338 42.023681 
L 132.489848 43.124924 
L 132.414358 44.226166 
L 132.338868 45.327409 
L 132.298198 46.673988 
L 132.257528 48.020568 
L 132.216858 49.367147 
L 132.176188 50.713727 
L 132.135518 52.060307 
L 132.094848 53.406886 
L 132.054178 54.753466 
L 132.013508 56.100045 
" style="fill:none;stroke:#008000;stroke-linecap:square;stroke-width:1.5;"/>
   </g>
   <g id="line2d_43">
    <path clip-path="url(#pb20d6b17ce)" d="M 60.56701 109.83868 
L 61.766774 110.674365 
L 62.966537 111.510049 
L 64.1663 112.345734 
L 65.366063 113.181419 
L 65.651589 114.445503 
L 65.937114 115.709588 
L 66.222639 116.973673 
L 66.508164 118.237758 
L 66.519864 119.607064 
L 66.531563 120.97637 
L 66.543263 122.345675 
L 66.554963 123.714981 
L 66.554963 124.696329 
L 66.554963 125.677677 
L 66.554963 126.659025 
L 66.554963 127.640373 
L 66.554963 128.62172 
L 66.554963 129.603068 
L 66.554963 130.584416 
L 66.554963 131.565764 
L 66.531842 132.957975 
L 66.508721 134.350186 
L 66.485601 135.742397 
L 66.46248 137.134609 
L 66.346042 138.458104 
L 66.229603 139.781599 
" style="fill:none;stroke:#008000;stroke-linecap:square;stroke-width:1.5;"/>
   </g>
   <g id="line2d_44">
    <path clip-path="url(#pb20d6b17ce)" d="M 30.075699 108.14369 
L 29.533897 109.348543 
L 28.992095 110.553396 
L 28.450294 111.75825 
L 27.908492 112.963103 
L 27.366691 114.167956 
L 26.824889 115.372809 
L 26.283087 116.577662 
L 25.741286 117.782515 
L 25.166893 119.191906 
L 24.592499 120.601296 
L 24.018106 122.010686 
L 23.443713 123.420076 
L 22.86932 124.829466 
L 22.294926 126.238856 
L 21.720533 127.648246 
L 21.14614 129.057636 
L 20.478846 130.307048 
L 19.811553 131.556459 
L 19.14426 132.80587 
L 18.476966 134.055281 
L 17.809673 135.304692 
L 17.142379 136.554103 
L 16.475086 137.803514 
L 15.807793 139.052925 
L 15.426024 140.328284 
L 15.044256 141.603642 
L 14.662488 142.879001 
L 14.28072 144.154359 
L 13.898952 145.429718 
L 13.517184 146.705076 
L 13.135415 147.980434 
L 12.753647 149.255793 
L 13.976949 148.570424 
L 15.20025 147.885056 
L 16.423552 147.199687 
L 17.646854 146.514318 
L 18.870155 145.828949 
L 20.093457 145.143581 
L 21.316759 144.458212 
L 22.54006 143.772843 
L 23.74623 142.820664 
L 24.9524 141.868484 
L 26.158571 140.916305 
L 27.364741 139.964126 
L 28.570911 139.011946 
L 29.777081 138.059767 
L 30.983251 137.107587 
L 32.189421 136.155408 
L 33.699223 134.92926 
L 35.209025 133.703112 
L 36.161147 134.380965 
L 37.113269 135.058818 
L 37.17901 136.317177 
L 37.24475 137.575535 
L 36.801559 139.108757 
L 36.358368 140.641979 
L 35.915178 142.1752 
L 35.471987 143.708422 
L 35.028796 145.241644 
L 34.585605 146.774866 
L 34.142414 148.308087 
L 33.699223 149.841309 
L 33.174135 151.309752 
L 32.649047 152.778195 
L 32.123959 154.246637 
L 31.598871 155.71508 
L 31.402207 157.231839 
L 31.205543 158.748597 
L 32.362547 158.320913 
L 33.519551 157.893228 
L 34.676555 157.465544 
L 35.833559 157.03786 
L 36.990563 156.610175 
L 38.147567 156.182491 
L 39.304571 155.754806 
L 40.461575 155.327122 
L 41.971099 154.714048 
L 43.480622 154.100974 
L 44.990145 153.4879 
L 46.499668 152.874826 
L 47.779936 153.471795 
L 49.060203 154.068764 
L 50.340471 154.665732 
L 51.620738 155.262701 
" style="fill:none;stroke:#008000;stroke-linecap:square;stroke-width:1.5;"/>
   </g>
   <g id="line2d_45">
    <path clip-path="url(#pb20d6b17ce)" d="M 35.209025 133.703112 
L 36.0734 133.24447 
L 36.937776 132.785828 
L 37.802151 132.327185 
L 38.666527 131.868543 
L 39.530902 131.409901 
L 40.395278 130.951258 
L 41.259653 130.492616 
L 42.124029 130.033974 
L 43.141334 130.1145 
L 44.15864 130.195026 
L 45.175946 130.275553 
L 46.193251 130.356079 
L 47.427835 131.440501 
L 48.662418 132.524922 
L 49.897001 133.609344 
L 51.131585 134.693765 
" style="fill:none;stroke:#008000;stroke-linecap:square;stroke-width:1.5;"/>
   </g>
   <g id="text_1">
    <g id="patch_4">
     <path d="M 118.263712 103.243996 
L 128.460188 108.908115 
L 129.41956 107.181066 
L 119.223084 101.516947 
z
" style="fill:#ffffff;"/>
    </g>
    <!-- Blizzard Lift -->
    <g style="fill:#808080;" transform="translate(118.492889 102.872621)rotate(-330.947927)scale(0.02 -0.02)">
     <defs>
      <path d="M 1259 2228 
L 1259 519 
L 2272 519 
Q 2781 519 3026 730 
Q 3272 941 3272 1375 
Q 3272 1813 3026 2020 
Q 2781 2228 2272 2228 
L 1259 2228 
z
M 1259 4147 
L 1259 2741 
L 2194 2741 
Q 2656 2741 2882 2914 
Q 3109 3088 3109 3444 
Q 3109 3797 2882 3972 
Q 2656 4147 2194 4147 
L 1259 4147 
z
M 628 4666 
L 2241 4666 
Q 2963 4666 3353 4366 
Q 3744 4066 3744 3513 
Q 3744 3084 3544 2831 
Q 3344 2578 2956 2516 
Q 3422 2416 3680 2098 
Q 3938 1781 3938 1306 
Q 3938 681 3513 340 
Q 3088 0 2303 0 
L 628 0 
L 628 4666 
z
" id="DejaVuSans-42" transform="scale(0.015625)"/>
      <path d="M 603 4863 
L 1178 4863 
L 1178 0 
L 603 0 
L 603 4863 
z
" id="DejaVuSans-6c" transform="scale(0.015625)"/>
      <path d="M 603 3500 
L 1178 3500 
L 1178 0 
L 603 0 
L 603 3500 
z
M 603 4863 
L 1178 4863 
L 1178 4134 
L 603 4134 
L 603 4863 
z
" id="DejaVuSans-69" transform="scale(0.015625)"/>
      <path d="M 353 3500 
L 3084 3500 
L 3084 2975 
L 922 459 
L 3084 459 
L 3084 0 
L 275 0 
L 275 525 
L 2438 3041 
L 353 3041 
L 353 3500 
z
" id="DejaVuSans-7a" transform="scale(0.015625)"/>
      <path d="M 2194 1759 
Q 1497 1759 1228 1600 
Q 959 1441 959 1056 
Q 959 750 1161 570 
Q 1363 391 1709 391 
Q 2188 391 2477 730 
Q 2766 1069 2766 1631 
L 2766 1759 
L 2194 1759 
z
M 3341 1997 
L 3341 0 
L 2766 0 
L 2766 531 
Q 2569 213 2275 61 
Q 1981 -91 1556 -91 
Q 1019 -91 701 211 
Q 384 513 384 1019 
Q 384 1609 779 1909 
Q 1175 2209 1959 2209 
L 2766 2209 
L 2766 2266 
Q 2766 2663 2505 2880 
Q 2244 3097 1772 3097 
Q 1472 3097 1187 3025 
Q 903 2953 641 2809 
L 641 3341 
Q 956 3463 1253 3523 
Q 1550 3584 1831 3584 
Q 2591 3584 2966 3190 
Q 3341 2797 3341 1997 
z
" id="DejaVuSans-61" transform="scale(0.015625)"/>
      <path d="M 2631 2963 
Q 2534 3019 2420 3045 
Q 2306 3072 2169 3072 
Q 1681 3072 1420 2755 
Q 1159 2438 1159 1844 
L 1159 0 
L 581 0 
L 581 3500 
L 1159 3500 
L 1159 2956 
Q 1341 3275 1631 3429 
Q 1922 3584 2338 3584 
Q 2397 3584 2469 3576 
Q 2541 3569 2628 3553 
L 2631 2963 
z
" id="DejaVuSans-72" transform="scale(0.015625)"/>
      <path d="M 2906 2969 
L 2906 4863 
L 3481 4863 
L 3481 0 
L 2906 0 
L 2906 525 
Q 2725 213 2448 61 
Q 2172 -91 1784 -91 
Q 1150 -91 751 415 
Q 353 922 353 1747 
Q 353 2572 751 3078 
Q 1150 3584 1784 3584 
Q 2172 3584 2448 3432 
Q 2725 3281 2906 2969 
z
M 947 1747 
Q 947 1113 1208 752 
Q 1469 391 1925 391 
Q 2381 391 2643 752 
Q 2906 1113 2906 1747 
Q 2906 2381 2643 2742 
Q 2381 3103 1925 3103 
Q 1469 3103 1208 2742 
Q 947 2381 947 1747 
z
" id="DejaVuSans-64" transform="scale(0.015625)"/>
      <path id="DejaVuSans-20" transform="scale(0.015625)"/>
      <path d="M 628 4666 
L 1259 4666 
L 1259 531 
L 3531 531 
L 3531 0 
L 628 0 
L 628 4666 
z
" id="DejaVuSans-4c" transform="scale(0.015625)"/>
      <path d="M 2375 4863 
L 2375 4384 
L 1825 4384 
Q 1516 4384 1395 4259 
Q 1275 4134 1275 3809 
L 1275 3500 
L 2222 3500 
L 2222 3053 
L 1275 3053 
L 1275 0 
L 697 0 
L 697 3053 
L 147 3053 
L 147 3500 
L 697 3500 
L 697 3744 
Q 697 4328 969 4595 
Q 1241 4863 1831 4863 
L 2375 4863 
z
" id="DejaVuSans-66" transform="scale(0.015625)"/>
      <path d="M 1172 4494 
L 1172 3500 
L 2356 3500 
L 2356 3053 
L 1172 3053 
L 1172 1153 
Q 1172 725 1289 603 
Q 1406 481 1766 481 
L 2356 481 
L 2356 0 
L 1766 0 
Q 1100 0 847 248 
Q 594 497 594 1153 
L 594 3053 
L 172 3053 
L 172 3500 
L 594 3500 
L 594 4494 
L 1172 4494 
z
" id="DejaVuSans-74" transform="scale(0.015625)"/>
     </defs>
     <use xlink:href="#DejaVuSans-42"/>
     <use x="68.603516" xlink:href="#DejaVuSans-6c"/>
     <use x="96.386719" xlink:href="#DejaVuSans-69"/>
     <use x="124.169922" xlink:href="#DejaVuSans-7a"/>
     <use x="176.660156" xlink:href="#DejaVuSans-7a"/>
     <use x="229.150391" xlink:href="#DejaVuSans-61"/>
     <use x="290.429688" xlink:href="#DejaVuSans-72"/>
     <use x="329.792969" xlink:href="#DejaVuSans-64"/>
     <use x="393.269531" xlink:href="#DejaVuSans-20"/>
     <use x="425.056641" xlink:href="#DejaVuSans-4c"/>
     <use x="480.769531" xlink:href="#DejaVuSans-69"/>
     <use x="508.552734" xlink:href="#DejaVuSans-66"/>
     <use x="542.007812" xlink:href="#DejaVuSans-74"/>
    </g>
   </g>
   <g id="text_2">
    <g id="patch_5">
     <path d="M 140.264336 100.081344 
L 140.94855 88.848413 
L 138.97658 88.728297 
L 138.292366 99.961228 
z
" style="fill:#ffffff;"/>
    </g>
    <!-- Sunrise Lift -->
    <g style="fill:#808080;" transform="translate(139.830421 100.034876)rotate(-86.51434)scale(0.02 -0.02)">
     <defs>
      <path d="M 3425 4513 
L 3425 3897 
Q 3066 4069 2747 4153 
Q 2428 4238 2131 4238 
Q 1616 4238 1336 4038 
Q 1056 3838 1056 3469 
Q 1056 3159 1242 3001 
Q 1428 2844 1947 2747 
L 2328 2669 
Q 3034 2534 3370 2195 
Q 3706 1856 3706 1288 
Q 3706 609 3251 259 
Q 2797 -91 1919 -91 
Q 1588 -91 1214 -16 
Q 841 59 441 206 
L 441 856 
Q 825 641 1194 531 
Q 1563 422 1919 422 
Q 2459 422 2753 634 
Q 3047 847 3047 1241 
Q 3047 1584 2836 1778 
Q 2625 1972 2144 2069 
L 1759 2144 
Q 1053 2284 737 2584 
Q 422 2884 422 3419 
Q 422 4038 858 4394 
Q 1294 4750 2059 4750 
Q 2388 4750 2728 4690 
Q 3069 4631 3425 4513 
z
" id="DejaVuSans-53" transform="scale(0.015625)"/>
      <path d="M 544 1381 
L 544 3500 
L 1119 3500 
L 1119 1403 
Q 1119 906 1312 657 
Q 1506 409 1894 409 
Q 2359 409 2629 706 
Q 2900 1003 2900 1516 
L 2900 3500 
L 3475 3500 
L 3475 0 
L 2900 0 
L 2900 538 
Q 2691 219 2414 64 
Q 2138 -91 1772 -91 
Q 1169 -91 856 284 
Q 544 659 544 1381 
z
M 1991 3584 
L 1991 3584 
z
" id="DejaVuSans-75" transform="scale(0.015625)"/>
      <path d="M 3513 2113 
L 3513 0 
L 2938 0 
L 2938 2094 
Q 2938 2591 2744 2837 
Q 2550 3084 2163 3084 
Q 1697 3084 1428 2787 
Q 1159 2491 1159 1978 
L 1159 0 
L 581 0 
L 581 3500 
L 1159 3500 
L 1159 2956 
Q 1366 3272 1645 3428 
Q 1925 3584 2291 3584 
Q 2894 3584 3203 3211 
Q 3513 2838 3513 2113 
z
" id="DejaVuSans-6e" transform="scale(0.015625)"/>
      <path d="M 2834 3397 
L 2834 2853 
Q 2591 2978 2328 3040 
Q 2066 3103 1784 3103 
Q 1356 3103 1142 2972 
Q 928 2841 928 2578 
Q 928 2378 1081 2264 
Q 1234 2150 1697 2047 
L 1894 2003 
Q 2506 1872 2764 1633 
Q 3022 1394 3022 966 
Q 3022 478 2636 193 
Q 2250 -91 1575 -91 
Q 1294 -91 989 -36 
Q 684 19 347 128 
L 347 722 
Q 666 556 975 473 
Q 1284 391 1588 391 
Q 1994 391 2212 530 
Q 2431 669 2431 922 
Q 2431 1156 2273 1281 
Q 2116 1406 1581 1522 
L 1381 1569 
Q 847 1681 609 1914 
Q 372 2147 372 2553 
Q 372 3047 722 3315 
Q 1072 3584 1716 3584 
Q 2034 3584 2315 3537 
Q 2597 3491 2834 3397 
z
" id="DejaVuSans-73" transform="scale(0.015625)"/>
      <path d="M 3597 1894 
L 3597 1613 
L 953 1613 
Q 991 1019 1311 708 
Q 1631 397 2203 397 
Q 2534 397 2845 478 
Q 3156 559 3463 722 
L 3463 178 
Q 3153 47 2828 -22 
Q 2503 -91 2169 -91 
Q 1331 -91 842 396 
Q 353 884 353 1716 
Q 353 2575 817 3079 
Q 1281 3584 2069 3584 
Q 2775 3584 3186 3129 
Q 3597 2675 3597 1894 
z
M 3022 2063 
Q 3016 2534 2758 2815 
Q 2500 3097 2075 3097 
Q 1594 3097 1305 2825 
Q 1016 2553 972 2059 
L 3022 2063 
z
" id="DejaVuSans-65" transform="scale(0.015625)"/>
     </defs>
     <use xlink:href="#DejaVuSans-53"/>
     <use x="63.476562" xlink:href="#DejaVuSans-75"/>
     <use x="126.855469" xlink:href="#DejaVuSans-6e"/>
     <use x="190.234375" xlink:href="#DejaVuSans-72"/>
     <use x="231.347656" xlink:href="#DejaVuSans-69"/>
     <use x="259.130859" xlink:href="#DejaVuSans-73"/>
     <use x="311.230469" xlink:href="#DejaVuSans-65"/>
     <use x="372.753906" xlink:href="#DejaVuSans-20"/>
     <use x="404.541016" xlink:href="#DejaVuSans-4c"/>
     <use x="460.253906" xlink:href="#DejaVuSans-69"/>
     <use x="488.037109" xlink:href="#DejaVuSans-66"/>
     <use x="521.492188" xlink:href="#DejaVuSans-74"/>
    </g>
   </g>
   <g id="text_3">
    <g id="patch_6">
     <path d="M 141.351946 99.728451 
L 142.011305 89.088863 
L 140.039463 88.966663 
L 139.380104 99.606252 
z
" style="fill:#ffffff;"/>
    </g>
    <!-- Sunset Lift -->
    <g style="fill:#808080;" transform="translate(140.91808 99.681525)rotate(-86.453786)scale(0.02 -0.02)">
     <use xlink:href="#DejaVuSans-53"/>
     <use x="63.476562" xlink:href="#DejaVuSans-75"/>
     <use x="126.855469" xlink:href="#DejaVuSans-6e"/>
     <use x="190.234375" xlink:href="#DejaVuSans-73"/>
     <use x="242.333984" xlink:href="#DejaVuSans-65"/>
     <use x="303.857422" xlink:href="#DejaVuSans-74"/>
     <use x="343.066406" xlink:href="#DejaVuSans-20"/>
     <use x="374.853516" xlink:href="#DejaVuSans-4c"/>
     <use x="430.566406" xlink:href="#DejaVuSans-69"/>
     <use x="458.349609" xlink:href="#DejaVuSans-66"/>
     <use x="491.804688" xlink:href="#DejaVuSans-74"/>
    </g>
   </g>
   <g id="text_4">
    <g id="patch_7">
     <path d="M 147.014784 98.273106 
L 148.261997 86.192002 
L 146.296817 85.989123 
L 145.049604 98.070227 
z
" style="fill:#ffffff;"/>
    </g>
    <!-- Thunder Lift -->
    <g style="fill:#808080;" transform="translate(146.583205 98.208445)rotate(-84.105856)scale(0.02 -0.02)">
     <defs>
      <path d="M -19 4666 
L 3928 4666 
L 3928 4134 
L 2272 4134 
L 2272 0 
L 1638 0 
L 1638 4134 
L -19 4134 
L -19 4666 
z
" id="DejaVuSans-54" transform="scale(0.015625)"/>
      <path d="M 3513 2113 
L 3513 0 
L 2938 0 
L 2938 2094 
Q 2938 2591 2744 2837 
Q 2550 3084 2163 3084 
Q 1697 3084 1428 2787 
Q 1159 2491 1159 1978 
L 1159 0 
L 581 0 
L 581 4863 
L 1159 4863 
L 1159 2956 
Q 1366 3272 1645 3428 
Q 1925 3584 2291 3584 
Q 2894 3584 3203 3211 
Q 3513 2838 3513 2113 
z
" id="DejaVuSans-68" transform="scale(0.015625)"/>
     </defs>
     <use xlink:href="#DejaVuSans-54"/>
     <use x="61.083984" xlink:href="#DejaVuSans-68"/>
     <use x="124.462891" xlink:href="#DejaVuSans-75"/>
     <use x="187.841797" xlink:href="#DejaVuSans-6e"/>
     <use x="251.220703" xlink:href="#DejaVuSans-64"/>
     <use x="314.697266" xlink:href="#DejaVuSans-65"/>
     <use x="376.220703" xlink:href="#DejaVuSans-72"/>
     <use x="417.333984" xlink:href="#DejaVuSans-20"/>
     <use x="449.121094" xlink:href="#DejaVuSans-4c"/>
     <use x="504.833984" xlink:href="#DejaVuSans-69"/>
     <use x="532.617188" xlink:href="#DejaVuSans-66"/>
     <use x="566.072266" xlink:href="#DejaVuSans-74"/>
    </g>
   </g>
   <g id="text_5">
    <g id="patch_8">
     <path d="M 56.501049 176.644545 
L 58.015266 162.620744 
L 56.051058 162.408659 
L 54.53684 176.43246 
z
" style="fill:#ffffff;"/>
    </g>
    <!-- Avalanche Lift -->
    <g style="fill:#808080;" transform="translate(56.069777 176.577862)rotate(-83.837373)scale(0.02 -0.02)">
     <defs>
      <path d="M 2188 4044 
L 1331 1722 
L 3047 1722 
L 2188 4044 
z
M 1831 4666 
L 2547 4666 
L 4325 0 
L 3669 0 
L 3244 1197 
L 1141 1197 
L 716 0 
L 50 0 
L 1831 4666 
z
" id="DejaVuSans-41" transform="scale(0.015625)"/>
      <path d="M 191 3500 
L 800 3500 
L 1894 563 
L 2988 3500 
L 3597 3500 
L 2284 0 
L 1503 0 
L 191 3500 
z
" id="DejaVuSans-76" transform="scale(0.015625)"/>
      <path d="M 3122 3366 
L 3122 2828 
Q 2878 2963 2633 3030 
Q 2388 3097 2138 3097 
Q 1578 3097 1268 2742 
Q 959 2388 959 1747 
Q 959 1106 1268 751 
Q 1578 397 2138 397 
Q 2388 397 2633 464 
Q 2878 531 3122 666 
L 3122 134 
Q 2881 22 2623 -34 
Q 2366 -91 2075 -91 
Q 1284 -91 818 406 
Q 353 903 353 1747 
Q 353 2603 823 3093 
Q 1294 3584 2113 3584 
Q 2378 3584 2631 3529 
Q 2884 3475 3122 3366 
z
" id="DejaVuSans-63" transform="scale(0.015625)"/>
     </defs>
     <use xlink:href="#DejaVuSans-41"/>
     <use x="62.533203" xlink:href="#DejaVuSans-76"/>
     <use x="121.712891" xlink:href="#DejaVuSans-61"/>
     <use x="182.992188" xlink:href="#DejaVuSans-6c"/>
     <use x="210.775391" xlink:href="#DejaVuSans-61"/>
     <use x="272.054688" xlink:href="#DejaVuSans-6e"/>
     <use x="335.433594" xlink:href="#DejaVuSans-63"/>
     <use x="390.414062" xlink:href="#DejaVuSans-68"/>
     <use x="453.792969" xlink:href="#DejaVuSans-65"/>
     <use x="515.316406" xlink:href="#DejaVuSans-20"/>
     <use x="547.103516" xlink:href="#DejaVuSans-4c"/>
     <use x="602.816406" xlink:href="#DejaVuSans-69"/>
     <use x="630.599609" xlink:href="#DejaVuSans-66"/>
     <use x="664.054688" xlink:href="#DejaVuSans-74"/>
    </g>
   </g>
   <g id="text_6">
    <g id="patch_9">
     <path d="M 97.699042 85.015419 
L 103.747548 86.003929 
L 104.066198 84.054171 
L 98.017692 83.065661 
z
" style="fill:#ffffff;"/>
    </g>
    <!--  20.6 -->
    <g transform="translate(97.789093 84.588415)rotate(-350.718184)scale(0.02 -0.02)">
     <defs>
      <path d="M 1228 531 
L 3431 531 
L 3431 0 
L 469 0 
L 469 531 
Q 828 903 1448 1529 
Q 2069 2156 2228 2338 
Q 2531 2678 2651 2914 
Q 2772 3150 2772 3378 
Q 2772 3750 2511 3984 
Q 2250 4219 1831 4219 
Q 1534 4219 1204 4116 
Q 875 4013 500 3803 
L 500 4441 
Q 881 4594 1212 4672 
Q 1544 4750 1819 4750 
Q 2544 4750 2975 4387 
Q 3406 4025 3406 3419 
Q 3406 3131 3298 2873 
Q 3191 2616 2906 2266 
Q 2828 2175 2409 1742 
Q 1991 1309 1228 531 
z
" id="DejaVuSans-32" transform="scale(0.015625)"/>
      <path d="M 2034 4250 
Q 1547 4250 1301 3770 
Q 1056 3291 1056 2328 
Q 1056 1369 1301 889 
Q 1547 409 2034 409 
Q 2525 409 2770 889 
Q 3016 1369 3016 2328 
Q 3016 3291 2770 3770 
Q 2525 4250 2034 4250 
z
M 2034 4750 
Q 2819 4750 3233 4129 
Q 3647 3509 3647 2328 
Q 3647 1150 3233 529 
Q 2819 -91 2034 -91 
Q 1250 -91 836 529 
Q 422 1150 422 2328 
Q 422 3509 836 4129 
Q 1250 4750 2034 4750 
z
" id="DejaVuSans-30" transform="scale(0.015625)"/>
      <path d="M 684 794 
L 1344 794 
L 1344 0 
L 684 0 
L 684 794 
z
" id="DejaVuSans-2e" transform="scale(0.015625)"/>
      <path d="M 2113 2584 
Q 1688 2584 1439 2293 
Q 1191 2003 1191 1497 
Q 1191 994 1439 701 
Q 1688 409 2113 409 
Q 2538 409 2786 701 
Q 3034 994 3034 1497 
Q 3034 2003 2786 2293 
Q 2538 2584 2113 2584 
z
M 3366 4563 
L 3366 3988 
Q 3128 4100 2886 4159 
Q 2644 4219 2406 4219 
Q 1781 4219 1451 3797 
Q 1122 3375 1075 2522 
Q 1259 2794 1537 2939 
Q 1816 3084 2150 3084 
Q 2853 3084 3261 2657 
Q 3669 2231 3669 1497 
Q 3669 778 3244 343 
Q 2819 -91 2113 -91 
Q 1303 -91 875 529 
Q 447 1150 447 2328 
Q 447 3434 972 4092 
Q 1497 4750 2381 4750 
Q 2619 4750 2861 4703 
Q 3103 4656 3366 4563 
z
" id="DejaVuSans-36" transform="scale(0.015625)"/>
      <path d="M 1600 4347 
Q 1350 4347 1178 4173 
Q 1006 4000 1006 3750 
Q 1006 3503 1178 3333 
Q 1350 3163 1600 3163 
Q 1850 3163 2022 3333 
Q 2194 3503 2194 3750 
Q 2194 3997 2020 4172 
Q 1847 4347 1600 4347 
z
M 1600 4750 
Q 1800 4750 1984 4673 
Q 2169 4597 2303 4453 
Q 2447 4313 2519 4134 
Q 2591 3956 2591 3750 
Q 2591 3338 2302 3052 
Q 2013 2766 1594 2766 
Q 1172 2766 890 3047 
Q 609 3328 609 3750 
Q 609 4169 896 4459 
Q 1184 4750 1600 4750 
z
" id="DejaVuSans-b0" transform="scale(0.015625)"/>
     </defs>
     <use xlink:href="#DejaVuSans-20"/>
     <use x="31.787109" xlink:href="#DejaVuSans-32"/>
     <use x="95.410156" xlink:href="#DejaVuSans-30"/>
     <use x="159.033203" xlink:href="#DejaVuSans-2e"/>
     <use x="190.820312" xlink:href="#DejaVuSans-36"/>
     <use x="254.443359" xlink:href="#DejaVuSans-b0"/>
    </g>
   </g>
   <g id="text_7">
    <g id="patch_10">
     <path d="M 31.766543 118.37999 
L 48.424154 129.441703 
L 49.517066 127.795909 
L 32.859455 116.734196 
z
" style="fill:#ffffff;"/>
    </g>
    <!-- Angel's Elbow 14.4 -->
    <g style="fill:#008000;" transform="translate(32.024364 118.027896)rotate(-326.413309)scale(0.02 -0.02)">
     <defs>
      <path d="M 2906 1791 
Q 2906 2416 2648 2759 
Q 2391 3103 1925 3103 
Q 1463 3103 1205 2759 
Q 947 2416 947 1791 
Q 947 1169 1205 825 
Q 1463 481 1925 481 
Q 2391 481 2648 825 
Q 2906 1169 2906 1791 
z
M 3481 434 
Q 3481 -459 3084 -895 
Q 2688 -1331 1869 -1331 
Q 1566 -1331 1297 -1286 
Q 1028 -1241 775 -1147 
L 775 -588 
Q 1028 -725 1275 -790 
Q 1522 -856 1778 -856 
Q 2344 -856 2625 -561 
Q 2906 -266 2906 331 
L 2906 616 
Q 2728 306 2450 153 
Q 2172 0 1784 0 
Q 1141 0 747 490 
Q 353 981 353 1791 
Q 353 2603 747 3093 
Q 1141 3584 1784 3584 
Q 2172 3584 2450 3431 
Q 2728 3278 2906 2969 
L 2906 3500 
L 3481 3500 
L 3481 434 
z
" id="DejaVuSans-67" transform="scale(0.015625)"/>
      <path d="M 1147 4666 
L 1147 2931 
L 616 2931 
L 616 4666 
L 1147 4666 
z
" id="DejaVuSans-27" transform="scale(0.015625)"/>
      <path d="M 628 4666 
L 3578 4666 
L 3578 4134 
L 1259 4134 
L 1259 2753 
L 3481 2753 
L 3481 2222 
L 1259 2222 
L 1259 531 
L 3634 531 
L 3634 0 
L 628 0 
L 628 4666 
z
" id="DejaVuSans-45" transform="scale(0.015625)"/>
      <path d="M 3116 1747 
Q 3116 2381 2855 2742 
Q 2594 3103 2138 3103 
Q 1681 3103 1420 2742 
Q 1159 2381 1159 1747 
Q 1159 1113 1420 752 
Q 1681 391 2138 391 
Q 2594 391 2855 752 
Q 3116 1113 3116 1747 
z
M 1159 2969 
Q 1341 3281 1617 3432 
Q 1894 3584 2278 3584 
Q 2916 3584 3314 3078 
Q 3713 2572 3713 1747 
Q 3713 922 3314 415 
Q 2916 -91 2278 -91 
Q 1894 -91 1617 61 
Q 1341 213 1159 525 
L 1159 0 
L 581 0 
L 581 4863 
L 1159 4863 
L 1159 2969 
z
" id="DejaVuSans-62" transform="scale(0.015625)"/>
      <path d="M 1959 3097 
Q 1497 3097 1228 2736 
Q 959 2375 959 1747 
Q 959 1119 1226 758 
Q 1494 397 1959 397 
Q 2419 397 2687 759 
Q 2956 1122 2956 1747 
Q 2956 2369 2687 2733 
Q 2419 3097 1959 3097 
z
M 1959 3584 
Q 2709 3584 3137 3096 
Q 3566 2609 3566 1747 
Q 3566 888 3137 398 
Q 2709 -91 1959 -91 
Q 1206 -91 779 398 
Q 353 888 353 1747 
Q 353 2609 779 3096 
Q 1206 3584 1959 3584 
z
" id="DejaVuSans-6f" transform="scale(0.015625)"/>
      <path d="M 269 3500 
L 844 3500 
L 1563 769 
L 2278 3500 
L 2956 3500 
L 3675 769 
L 4391 3500 
L 4966 3500 
L 4050 0 
L 3372 0 
L 2619 2869 
L 1863 0 
L 1184 0 
L 269 3500 
z
" id="DejaVuSans-77" transform="scale(0.015625)"/>
      <path d="M 794 531 
L 1825 531 
L 1825 4091 
L 703 3866 
L 703 4441 
L 1819 4666 
L 2450 4666 
L 2450 531 
L 3481 531 
L 3481 0 
L 794 0 
L 794 531 
z
" id="DejaVuSans-31" transform="scale(0.015625)"/>
      <path d="M 2419 4116 
L 825 1625 
L 2419 1625 
L 2419 4116 
z
M 2253 4666 
L 3047 4666 
L 3047 1625 
L 3713 1625 
L 3713 1100 
L 3047 1100 
L 3047 0 
L 2419 0 
L 2419 1100 
L 313 1100 
L 313 1709 
L 2253 4666 
z
" id="DejaVuSans-34" transform="scale(0.015625)"/>
     </defs>
     <use xlink:href="#DejaVuSans-41"/>
     <use x="68.408203" xlink:href="#DejaVuSans-6e"/>
     <use x="131.787109" xlink:href="#DejaVuSans-67"/>
     <use x="195.263672" xlink:href="#DejaVuSans-65"/>
     <use x="256.787109" xlink:href="#DejaVuSans-6c"/>
     <use x="284.570312" xlink:href="#DejaVuSans-27"/>
     <use x="312.060547" xlink:href="#DejaVuSans-73"/>
     <use x="364.160156" xlink:href="#DejaVuSans-20"/>
     <use x="395.947266" xlink:href="#DejaVuSans-45"/>
     <use x="459.130859" xlink:href="#DejaVuSans-6c"/>
     <use x="486.914062" xlink:href="#DejaVuSans-62"/>
     <use x="550.390625" xlink:href="#DejaVuSans-6f"/>
     <use x="611.572266" xlink:href="#DejaVuSans-77"/>
     <use x="693.359375" xlink:href="#DejaVuSans-20"/>
     <use x="725.146484" xlink:href="#DejaVuSans-31"/>
     <use x="788.769531" xlink:href="#DejaVuSans-34"/>
     <use x="852.392578" xlink:href="#DejaVuSans-2e"/>
     <use x="884.179688" xlink:href="#DejaVuSans-34"/>
     <use x="947.802734" xlink:href="#DejaVuSans-b0"/>
    </g>
   </g>
   <g id="text_8">
    <g id="patch_11">
     <path d="M 60.974893 114.752425 
L 62.664677 98.41552 
L 60.699537 98.212259 
L 59.009752 114.549164 
z
" style="fill:#ffffff;"/>
    </g>
    <!-- Barracuda 20.8 -->
    <g style="fill:#4169e1;" transform="translate(60.543327 114.68768)rotate(-84.094693)scale(0.02 -0.02)">
     <defs>
      <path d="M 2034 2216 
Q 1584 2216 1326 1975 
Q 1069 1734 1069 1313 
Q 1069 891 1326 650 
Q 1584 409 2034 409 
Q 2484 409 2743 651 
Q 3003 894 3003 1313 
Q 3003 1734 2745 1975 
Q 2488 2216 2034 2216 
z
M 1403 2484 
Q 997 2584 770 2862 
Q 544 3141 544 3541 
Q 544 4100 942 4425 
Q 1341 4750 2034 4750 
Q 2731 4750 3128 4425 
Q 3525 4100 3525 3541 
Q 3525 3141 3298 2862 
Q 3072 2584 2669 2484 
Q 3125 2378 3379 2068 
Q 3634 1759 3634 1313 
Q 3634 634 3220 271 
Q 2806 -91 2034 -91 
Q 1263 -91 848 271 
Q 434 634 434 1313 
Q 434 1759 690 2068 
Q 947 2378 1403 2484 
z
M 1172 3481 
Q 1172 3119 1398 2916 
Q 1625 2713 2034 2713 
Q 2441 2713 2670 2916 
Q 2900 3119 2900 3481 
Q 2900 3844 2670 4047 
Q 2441 4250 2034 4250 
Q 1625 4250 1398 4047 
Q 1172 3844 1172 3481 
z
" id="DejaVuSans-38" transform="scale(0.015625)"/>
     </defs>
     <use xlink:href="#DejaVuSans-42"/>
     <use x="68.603516" xlink:href="#DejaVuSans-61"/>
     <use x="129.882812" xlink:href="#DejaVuSans-72"/>
     <use x="169.246094" xlink:href="#DejaVuSans-72"/>
     <use x="210.359375" xlink:href="#DejaVuSans-61"/>
     <use x="271.638672" xlink:href="#DejaVuSans-63"/>
     <use x="326.619141" xlink:href="#DejaVuSans-75"/>
     <use x="389.998047" xlink:href="#DejaVuSans-64"/>
     <use x="453.474609" xlink:href="#DejaVuSans-61"/>
     <use x="514.753906" xlink:href="#DejaVuSans-20"/>
     <use x="546.541016" xlink:href="#DejaVuSans-32"/>
     <use x="610.164062" xlink:href="#DejaVuSans-30"/>
     <use x="673.787109" xlink:href="#DejaVuSans-2e"/>
     <use x="705.574219" xlink:href="#DejaVuSans-38"/>
     <use x="769.197266" xlink:href="#DejaVuSans-b0"/>
    </g>
   </g>
   <g id="text_9">
    <g id="patch_12">
     <path d="M 10.635786 171.388755 
L 22.836001 178.513266 
L 23.832266 176.807233 
L 11.632051 169.682721 
z
" style="fill:#ffffff;"/>
    </g>
    <!-- Charger 23.4 -->
    <g style="fill:#4169e1;" transform="translate(10.87289 171.02239)rotate(-329.716522)scale(0.02 -0.02)">
     <defs>
      <path d="M 4122 4306 
L 4122 3641 
Q 3803 3938 3442 4084 
Q 3081 4231 2675 4231 
Q 1875 4231 1450 3742 
Q 1025 3253 1025 2328 
Q 1025 1406 1450 917 
Q 1875 428 2675 428 
Q 3081 428 3442 575 
Q 3803 722 4122 1019 
L 4122 359 
Q 3791 134 3420 21 
Q 3050 -91 2638 -91 
Q 1578 -91 968 557 
Q 359 1206 359 2328 
Q 359 3453 968 4101 
Q 1578 4750 2638 4750 
Q 3056 4750 3426 4639 
Q 3797 4528 4122 4306 
z
" id="DejaVuSans-43" transform="scale(0.015625)"/>
      <path d="M 2597 2516 
Q 3050 2419 3304 2112 
Q 3559 1806 3559 1356 
Q 3559 666 3084 287 
Q 2609 -91 1734 -91 
Q 1441 -91 1130 -33 
Q 819 25 488 141 
L 488 750 
Q 750 597 1062 519 
Q 1375 441 1716 441 
Q 2309 441 2620 675 
Q 2931 909 2931 1356 
Q 2931 1769 2642 2001 
Q 2353 2234 1838 2234 
L 1294 2234 
L 1294 2753 
L 1863 2753 
Q 2328 2753 2575 2939 
Q 2822 3125 2822 3475 
Q 2822 3834 2567 4026 
Q 2313 4219 1838 4219 
Q 1578 4219 1281 4162 
Q 984 4106 628 3988 
L 628 4550 
Q 988 4650 1302 4700 
Q 1616 4750 1894 4750 
Q 2613 4750 3031 4423 
Q 3450 4097 3450 3541 
Q 3450 3153 3228 2886 
Q 3006 2619 2597 2516 
z
" id="DejaVuSans-33" transform="scale(0.015625)"/>
     </defs>
     <use xlink:href="#DejaVuSans-43"/>
     <use x="69.824219" xlink:href="#DejaVuSans-68"/>
     <use x="133.203125" xlink:href="#DejaVuSans-61"/>
     <use x="194.482422" xlink:href="#DejaVuSans-72"/>
     <use x="233.845703" xlink:href="#DejaVuSans-67"/>
     <use x="297.322266" xlink:href="#DejaVuSans-65"/>
     <use x="358.845703" xlink:href="#DejaVuSans-72"/>
     <use x="399.958984" xlink:href="#DejaVuSans-20"/>
     <use x="431.746094" xlink:href="#DejaVuSans-32"/>
     <use x="495.369141" xlink:href="#DejaVuSans-33"/>
     <use x="558.992188" xlink:href="#DejaVuSans-2e"/>
     <use x="590.779297" xlink:href="#DejaVuSans-34"/>
     <use x="654.402344" xlink:href="#DejaVuSans-b0"/>
    </g>
   </g>
   <g id="text_10">
    <g id="patch_13">
     <path d="M 110.732825 85.667555 
L 121.721496 90.652635 
L 122.53769 88.853491 
L 111.549018 83.86841 
z
" style="fill:#ffffff;"/>
    </g>
    <!-- Cobra 19.8 -->
    <g style="fill:#4169e1;" transform="translate(110.931138 85.278822)rotate(-335.598278)scale(0.02 -0.02)">
     <defs>
      <path d="M 703 97 
L 703 672 
Q 941 559 1184 500 
Q 1428 441 1663 441 
Q 2288 441 2617 861 
Q 2947 1281 2994 2138 
Q 2813 1869 2534 1725 
Q 2256 1581 1919 1581 
Q 1219 1581 811 2004 
Q 403 2428 403 3163 
Q 403 3881 828 4315 
Q 1253 4750 1959 4750 
Q 2769 4750 3195 4129 
Q 3622 3509 3622 2328 
Q 3622 1225 3098 567 
Q 2575 -91 1691 -91 
Q 1453 -91 1209 -44 
Q 966 3 703 97 
z
M 1959 2075 
Q 2384 2075 2632 2365 
Q 2881 2656 2881 3163 
Q 2881 3666 2632 3958 
Q 2384 4250 1959 4250 
Q 1534 4250 1286 3958 
Q 1038 3666 1038 3163 
Q 1038 2656 1286 2365 
Q 1534 2075 1959 2075 
z
" id="DejaVuSans-39" transform="scale(0.015625)"/>
     </defs>
     <use xlink:href="#DejaVuSans-43"/>
     <use x="69.824219" xlink:href="#DejaVuSans-6f"/>
     <use x="131.005859" xlink:href="#DejaVuSans-62"/>
     <use x="194.482422" xlink:href="#DejaVuSans-72"/>
     <use x="235.595703" xlink:href="#DejaVuSans-61"/>
     <use x="296.875" xlink:href="#DejaVuSans-20"/>
     <use x="328.662109" xlink:href="#DejaVuSans-31"/>
     <use x="392.285156" xlink:href="#DejaVuSans-39"/>
     <use x="455.908203" xlink:href="#DejaVuSans-2e"/>
     <use x="487.695312" xlink:href="#DejaVuSans-38"/>
     <use x="551.318359" xlink:href="#DejaVuSans-b0"/>
    </g>
   </g>
   <g id="text_11">
    <g id="patch_14">
     <path d="M 52.84377 114.62997 
L 54.806549 102.070541 
L 52.854616 101.765494 
L 50.891837 114.324923 
z
" style="fill:#ffffff;"/>
    </g>
    <!-- Comet 20.7 -->
    <g style="fill:#4169e1;" transform="translate(52.416148 114.542899)rotate(-81.117701)scale(0.02 -0.02)">
     <defs>
      <path d="M 3328 2828 
Q 3544 3216 3844 3400 
Q 4144 3584 4550 3584 
Q 5097 3584 5394 3201 
Q 5691 2819 5691 2113 
L 5691 0 
L 5113 0 
L 5113 2094 
Q 5113 2597 4934 2840 
Q 4756 3084 4391 3084 
Q 3944 3084 3684 2787 
Q 3425 2491 3425 1978 
L 3425 0 
L 2847 0 
L 2847 2094 
Q 2847 2600 2669 2842 
Q 2491 3084 2119 3084 
Q 1678 3084 1418 2786 
Q 1159 2488 1159 1978 
L 1159 0 
L 581 0 
L 581 3500 
L 1159 3500 
L 1159 2956 
Q 1356 3278 1631 3431 
Q 1906 3584 2284 3584 
Q 2666 3584 2933 3390 
Q 3200 3197 3328 2828 
z
" id="DejaVuSans-6d" transform="scale(0.015625)"/>
      <path d="M 525 4666 
L 3525 4666 
L 3525 4397 
L 1831 0 
L 1172 0 
L 2766 4134 
L 525 4134 
L 525 4666 
z
" id="DejaVuSans-37" transform="scale(0.015625)"/>
     </defs>
     <use xlink:href="#DejaVuSans-43"/>
     <use x="69.824219" xlink:href="#DejaVuSans-6f"/>
     <use x="131.005859" xlink:href="#DejaVuSans-6d"/>
     <use x="228.417969" xlink:href="#DejaVuSans-65"/>
     <use x="289.941406" xlink:href="#DejaVuSans-74"/>
     <use x="329.150391" xlink:href="#DejaVuSans-20"/>
     <use x="360.9375" xlink:href="#DejaVuSans-32"/>
     <use x="424.560547" xlink:href="#DejaVuSans-30"/>
     <use x="488.183594" xlink:href="#DejaVuSans-2e"/>
     <use x="519.970703" xlink:href="#DejaVuSans-37"/>
     <use x="583.59375" xlink:href="#DejaVuSans-b0"/>
    </g>
   </g>
   <g id="text_12">
    <g id="patch_15">
     <path d="M 50.185322 137.771666 
L 50.610008 149.203155 
L 52.584271 149.12981 
L 52.159585 137.698321 
z
" style="fill:#ffffff;"/>
    </g>
    <!-- Comet 8.3 -->
    <g style="fill:#008000;" transform="translate(50.621702 137.775468)rotate(-272.127592)scale(0.02 -0.02)">
     <use xlink:href="#DejaVuSans-43"/>
     <use x="69.824219" xlink:href="#DejaVuSans-6f"/>
     <use x="131.005859" xlink:href="#DejaVuSans-6d"/>
     <use x="228.417969" xlink:href="#DejaVuSans-65"/>
     <use x="289.941406" xlink:href="#DejaVuSans-74"/>
     <use x="329.150391" xlink:href="#DejaVuSans-20"/>
     <use x="360.9375" xlink:href="#DejaVuSans-38"/>
     <use x="424.560547" xlink:href="#DejaVuSans-2e"/>
     <use x="456.347656" xlink:href="#DejaVuSans-33"/>
     <use x="519.970703" xlink:href="#DejaVuSans-b0"/>
    </g>
   </g>
   <g id="text_13">
    <g id="patch_16">
     <path d="M 52.743887 167.534993 
L 64.551337 161.339726 
L 63.633423 159.59029 
L 51.825972 165.785557 
z
" style="fill:#ffffff;"/>
    </g>
    <!-- Cougar 17.4 -->
    <g style="fill:#4169e1;" transform="translate(52.559052 167.139674)rotate(-27.685608)scale(0.02 -0.02)">
     <use xlink:href="#DejaVuSans-43"/>
     <use x="69.824219" xlink:href="#DejaVuSans-6f"/>
     <use x="131.005859" xlink:href="#DejaVuSans-75"/>
     <use x="194.384766" xlink:href="#DejaVuSans-67"/>
     <use x="257.861328" xlink:href="#DejaVuSans-61"/>
     <use x="319.140625" xlink:href="#DejaVuSans-72"/>
     <use x="360.253906" xlink:href="#DejaVuSans-20"/>
     <use x="392.041016" xlink:href="#DejaVuSans-31"/>
     <use x="455.664062" xlink:href="#DejaVuSans-37"/>
     <use x="519.287109" xlink:href="#DejaVuSans-2e"/>
     <use x="551.074219" xlink:href="#DejaVuSans-34"/>
     <use x="614.697266" xlink:href="#DejaVuSans-b0"/>
    </g>
   </g>
   <g id="text_14">
    <g id="patch_17">
     <path d="M 160.502143 100.518016 
L 161.408071 86.96858 
L 159.436847 86.836782 
L 158.530919 100.386218 
z
" style="fill:#ffffff;"/>
    </g>
    <!-- Firebird 24.5 -->
    <g transform="translate(160.068511 100.468978)rotate(-86.174844)scale(0.02 -0.02)">
     <defs>
      <path d="M 628 4666 
L 3309 4666 
L 3309 4134 
L 1259 4134 
L 1259 2759 
L 3109 2759 
L 3109 2228 
L 1259 2228 
L 1259 0 
L 628 0 
L 628 4666 
z
" id="DejaVuSans-46" transform="scale(0.015625)"/>
      <path d="M 691 4666 
L 3169 4666 
L 3169 4134 
L 1269 4134 
L 1269 2991 
Q 1406 3038 1543 3061 
Q 1681 3084 1819 3084 
Q 2600 3084 3056 2656 
Q 3513 2228 3513 1497 
Q 3513 744 3044 326 
Q 2575 -91 1722 -91 
Q 1428 -91 1123 -41 
Q 819 9 494 109 
L 494 744 
Q 775 591 1075 516 
Q 1375 441 1709 441 
Q 2250 441 2565 725 
Q 2881 1009 2881 1497 
Q 2881 1984 2565 2268 
Q 2250 2553 1709 2553 
Q 1456 2553 1204 2497 
Q 953 2441 691 2322 
L 691 4666 
z
" id="DejaVuSans-35" transform="scale(0.015625)"/>
     </defs>
     <use xlink:href="#DejaVuSans-46"/>
     <use x="50.269531" xlink:href="#DejaVuSans-69"/>
     <use x="78.052734" xlink:href="#DejaVuSans-72"/>
     <use x="116.916016" xlink:href="#DejaVuSans-65"/>
     <use x="178.439453" xlink:href="#DejaVuSans-62"/>
     <use x="241.916016" xlink:href="#DejaVuSans-69"/>
     <use x="269.699219" xlink:href="#DejaVuSans-72"/>
     <use x="309.0625" xlink:href="#DejaVuSans-64"/>
     <use x="372.539062" xlink:href="#DejaVuSans-20"/>
     <use x="404.326172" xlink:href="#DejaVuSans-32"/>
     <use x="467.949219" xlink:href="#DejaVuSans-34"/>
     <use x="531.572266" xlink:href="#DejaVuSans-2e"/>
     <use x="563.359375" xlink:href="#DejaVuSans-35"/>
     <use x="626.982422" xlink:href="#DejaVuSans-b0"/>
    </g>
   </g>
   <g id="text_15">
    <g id="patch_18">
     <path d="M 98.506247 98.270032 
L 111.011148 105.260661 
L 111.975173 103.536204 
L 99.470272 96.545576 
z
" style="fill:#ffffff;"/>
    </g>
    <!-- Imperial 20.5 -->
    <g style="fill:#4169e1;" transform="translate(98.736424 97.899276)rotate(-330.793452)scale(0.02 -0.02)">
     <defs>
      <path d="M 628 4666 
L 1259 4666 
L 1259 0 
L 628 0 
L 628 4666 
z
" id="DejaVuSans-49" transform="scale(0.015625)"/>
      <path d="M 1159 525 
L 1159 -1331 
L 581 -1331 
L 581 3500 
L 1159 3500 
L 1159 2969 
Q 1341 3281 1617 3432 
Q 1894 3584 2278 3584 
Q 2916 3584 3314 3078 
Q 3713 2572 3713 1747 
Q 3713 922 3314 415 
Q 2916 -91 2278 -91 
Q 1894 -91 1617 61 
Q 1341 213 1159 525 
z
M 3116 1747 
Q 3116 2381 2855 2742 
Q 2594 3103 2138 3103 
Q 1681 3103 1420 2742 
Q 1159 2381 1159 1747 
Q 1159 1113 1420 752 
Q 1681 391 2138 391 
Q 2594 391 2855 752 
Q 3116 1113 3116 1747 
z
" id="DejaVuSans-70" transform="scale(0.015625)"/>
     </defs>
     <use xlink:href="#DejaVuSans-49"/>
     <use x="29.492188" xlink:href="#DejaVuSans-6d"/>
     <use x="126.904297" xlink:href="#DejaVuSans-70"/>
     <use x="190.380859" xlink:href="#DejaVuSans-65"/>
     <use x="251.904297" xlink:href="#DejaVuSans-72"/>
     <use x="293.017578" xlink:href="#DejaVuSans-69"/>
     <use x="320.800781" xlink:href="#DejaVuSans-61"/>
     <use x="382.080078" xlink:href="#DejaVuSans-6c"/>
     <use x="409.863281" xlink:href="#DejaVuSans-20"/>
     <use x="441.650391" xlink:href="#DejaVuSans-32"/>
     <use x="505.273438" xlink:href="#DejaVuSans-30"/>
     <use x="568.896484" xlink:href="#DejaVuSans-2e"/>
     <use x="600.683594" xlink:href="#DejaVuSans-35"/>
     <use x="664.306641" xlink:href="#DejaVuSans-b0"/>
    </g>
   </g>
   <g id="text_16">
    <g id="patch_19">
     <path d="M 129.60163 81.058514 
L 135.91796 102.139466 
L 137.810462 101.572429 
L 131.494132 80.491478 
z
" style="fill:#ffffff;"/>
    </g>
    <!-- Jaguar Half Pipe 12.3 -->
    <g style="fill:#008000;" transform="translate(130.024966 80.952552)rotate(-286.679406)scale(0.02 -0.02)">
     <defs>
      <path d="M 628 4666 
L 1259 4666 
L 1259 325 
Q 1259 -519 939 -900 
Q 619 -1281 -91 -1281 
L -331 -1281 
L -331 -750 
L -134 -750 
Q 284 -750 456 -515 
Q 628 -281 628 325 
L 628 4666 
z
" id="DejaVuSans-4a" transform="scale(0.015625)"/>
      <path d="M 628 4666 
L 1259 4666 
L 1259 2753 
L 3553 2753 
L 3553 4666 
L 4184 4666 
L 4184 0 
L 3553 0 
L 3553 2222 
L 1259 2222 
L 1259 0 
L 628 0 
L 628 4666 
z
" id="DejaVuSans-48" transform="scale(0.015625)"/>
      <path d="M 1259 4147 
L 1259 2394 
L 2053 2394 
Q 2494 2394 2734 2622 
Q 2975 2850 2975 3272 
Q 2975 3691 2734 3919 
Q 2494 4147 2053 4147 
L 1259 4147 
z
M 628 4666 
L 2053 4666 
Q 2838 4666 3239 4311 
Q 3641 3956 3641 3272 
Q 3641 2581 3239 2228 
Q 2838 1875 2053 1875 
L 1259 1875 
L 1259 0 
L 628 0 
L 628 4666 
z
" id="DejaVuSans-50" transform="scale(0.015625)"/>
     </defs>
     <use xlink:href="#DejaVuSans-4a"/>
     <use x="29.492188" xlink:href="#DejaVuSans-61"/>
     <use x="90.771484" xlink:href="#DejaVuSans-67"/>
     <use x="154.248047" xlink:href="#DejaVuSans-75"/>
     <use x="217.626953" xlink:href="#DejaVuSans-61"/>
     <use x="278.90625" xlink:href="#DejaVuSans-72"/>
     <use x="320.019531" xlink:href="#DejaVuSans-20"/>
     <use x="351.806641" xlink:href="#DejaVuSans-48"/>
     <use x="427.001953" xlink:href="#DejaVuSans-61"/>
     <use x="488.28125" xlink:href="#DejaVuSans-6c"/>
     <use x="516.064453" xlink:href="#DejaVuSans-66"/>
     <use x="551.269531" xlink:href="#DejaVuSans-20"/>
     <use x="583.056641" xlink:href="#DejaVuSans-50"/>
     <use x="641.109375" xlink:href="#DejaVuSans-69"/>
     <use x="668.892578" xlink:href="#DejaVuSans-70"/>
     <use x="732.369141" xlink:href="#DejaVuSans-65"/>
     <use x="793.892578" xlink:href="#DejaVuSans-20"/>
     <use x="825.679688" xlink:href="#DejaVuSans-31"/>
     <use x="889.302734" xlink:href="#DejaVuSans-32"/>
     <use x="952.925781" xlink:href="#DejaVuSans-2e"/>
     <use x="984.712891" xlink:href="#DejaVuSans-33"/>
     <use x="1048.335938" xlink:href="#DejaVuSans-b0"/>
    </g>
   </g>
   <g id="text_17">
    <g id="patch_20">
     <path d="M 106.915953 75.772729 
L 116.637784 67.868855 
L 115.391506 66.335922 
L 105.669674 74.239796 
z
" style="fill:#ffffff;"/>
    </g>
    <!-- Jaguar 18.0 -->
    <g style="fill:#4169e1;" transform="translate(106.65647 75.421859)rotate(-39.111198)scale(0.02 -0.02)">
     <use xlink:href="#DejaVuSans-4a"/>
     <use x="29.492188" xlink:href="#DejaVuSans-61"/>
     <use x="90.771484" xlink:href="#DejaVuSans-67"/>
     <use x="154.248047" xlink:href="#DejaVuSans-75"/>
     <use x="217.626953" xlink:href="#DejaVuSans-61"/>
     <use x="278.90625" xlink:href="#DejaVuSans-72"/>
     <use x="320.019531" xlink:href="#DejaVuSans-20"/>
     <use x="351.806641" xlink:href="#DejaVuSans-31"/>
     <use x="415.429688" xlink:href="#DejaVuSans-38"/>
     <use x="479.052734" xlink:href="#DejaVuSans-2e"/>
     <use x="510.839844" xlink:href="#DejaVuSans-30"/>
     <use x="574.462891" xlink:href="#DejaVuSans-b0"/>
    </g>
   </g>
   <g id="text_18">
    <g id="patch_21">
     <path d="M 135.926372 82.328128 
L 142.182625 105.823833 
L 144.09173 105.315491 
L 137.835477 81.819787 
z
" style="fill:#ffffff;"/>
    </g>
    <!-- Lower Continental 11.4 -->
    <g style="fill:#008000;" transform="translate(136.352778 82.235285)rotate(-284.910314)scale(0.02 -0.02)">
     <use xlink:href="#DejaVuSans-4c"/>
     <use x="53.962891" xlink:href="#DejaVuSans-6f"/>
     <use x="115.144531" xlink:href="#DejaVuSans-77"/>
     <use x="196.931641" xlink:href="#DejaVuSans-65"/>
     <use x="258.455078" xlink:href="#DejaVuSans-72"/>
     <use x="299.568359" xlink:href="#DejaVuSans-20"/>
     <use x="331.355469" xlink:href="#DejaVuSans-43"/>
     <use x="401.179688" xlink:href="#DejaVuSans-6f"/>
     <use x="462.361328" xlink:href="#DejaVuSans-6e"/>
     <use x="525.740234" xlink:href="#DejaVuSans-74"/>
     <use x="564.949219" xlink:href="#DejaVuSans-69"/>
     <use x="592.732422" xlink:href="#DejaVuSans-6e"/>
     <use x="656.111328" xlink:href="#DejaVuSans-65"/>
     <use x="717.634766" xlink:href="#DejaVuSans-6e"/>
     <use x="781.013672" xlink:href="#DejaVuSans-74"/>
     <use x="820.222656" xlink:href="#DejaVuSans-61"/>
     <use x="881.501953" xlink:href="#DejaVuSans-6c"/>
     <use x="909.285156" xlink:href="#DejaVuSans-20"/>
     <use x="941.072266" xlink:href="#DejaVuSans-31"/>
     <use x="1004.695312" xlink:href="#DejaVuSans-31"/>
     <use x="1068.318359" xlink:href="#DejaVuSans-2e"/>
     <use x="1100.105469" xlink:href="#DejaVuSans-34"/>
     <use x="1163.728516" xlink:href="#DejaVuSans-b0"/>
    </g>
   </g>
   <g id="text_19">
    <g id="patch_22">
     <path d="M 94.290863 79.252183 
L 105.056813 72.480113 
L 104.004896 70.80782 
L 93.238946 77.579889 
z
" style="fill:#ffffff;"/>
    </g>
    <!-- Model T 9.3 -->
    <g style="fill:#008000;" transform="translate(94.075679 78.872529)rotate(-32.170986)scale(0.02 -0.02)">
     <defs>
      <path d="M 628 4666 
L 1569 4666 
L 2759 1491 
L 3956 4666 
L 4897 4666 
L 4897 0 
L 4281 0 
L 4281 4097 
L 3078 897 
L 2444 897 
L 1241 4097 
L 1241 0 
L 628 0 
L 628 4666 
z
" id="DejaVuSans-4d" transform="scale(0.015625)"/>
     </defs>
     <use xlink:href="#DejaVuSans-4d"/>
     <use x="86.279297" xlink:href="#DejaVuSans-6f"/>
     <use x="147.460938" xlink:href="#DejaVuSans-64"/>
     <use x="210.9375" xlink:href="#DejaVuSans-65"/>
     <use x="272.460938" xlink:href="#DejaVuSans-6c"/>
     <use x="300.244141" xlink:href="#DejaVuSans-20"/>
     <use x="332.03125" xlink:href="#DejaVuSans-54"/>
     <use x="393.115234" xlink:href="#DejaVuSans-20"/>
     <use x="424.902344" xlink:href="#DejaVuSans-39"/>
     <use x="488.525391" xlink:href="#DejaVuSans-2e"/>
     <use x="520.3125" xlink:href="#DejaVuSans-33"/>
     <use x="583.935547" xlink:href="#DejaVuSans-b0"/>
    </g>
   </g>
   <g id="text_20">
    <g id="patch_23">
     <path d="M 13.568341 159.100976 
L 22.574657 170.474757 
L 24.1235 169.248307 
L 15.117184 157.874526 
z
" style="fill:#ffffff;"/>
    </g>
    <!-- Outback 22.0 -->
    <g style="fill:#4169e1;" transform="translate(13.922521 158.84603)rotate(-308.373904)scale(0.02 -0.02)">
     <defs>
      <path d="M 2522 4238 
Q 1834 4238 1429 3725 
Q 1025 3213 1025 2328 
Q 1025 1447 1429 934 
Q 1834 422 2522 422 
Q 3209 422 3611 934 
Q 4013 1447 4013 2328 
Q 4013 3213 3611 3725 
Q 3209 4238 2522 4238 
z
M 2522 4750 
Q 3503 4750 4090 4092 
Q 4678 3434 4678 2328 
Q 4678 1225 4090 567 
Q 3503 -91 2522 -91 
Q 1538 -91 948 565 
Q 359 1222 359 2328 
Q 359 3434 948 4092 
Q 1538 4750 2522 4750 
z
" id="DejaVuSans-4f" transform="scale(0.015625)"/>
      <path d="M 581 4863 
L 1159 4863 
L 1159 1991 
L 2875 3500 
L 3609 3500 
L 1753 1863 
L 3688 0 
L 2938 0 
L 1159 1709 
L 1159 0 
L 581 0 
L 581 4863 
z
" id="DejaVuSans-6b" transform="scale(0.015625)"/>
     </defs>
     <use xlink:href="#DejaVuSans-4f"/>
     <use x="78.710938" xlink:href="#DejaVuSans-75"/>
     <use x="142.089844" xlink:href="#DejaVuSans-74"/>
     <use x="181.298828" xlink:href="#DejaVuSans-62"/>
     <use x="244.775391" xlink:href="#DejaVuSans-61"/>
     <use x="306.054688" xlink:href="#DejaVuSans-63"/>
     <use x="361.035156" xlink:href="#DejaVuSans-6b"/>
     <use x="418.945312" xlink:href="#DejaVuSans-20"/>
     <use x="450.732422" xlink:href="#DejaVuSans-32"/>
     <use x="514.355469" xlink:href="#DejaVuSans-32"/>
     <use x="577.978516" xlink:href="#DejaVuSans-2e"/>
     <use x="609.765625" xlink:href="#DejaVuSans-30"/>
     <use x="673.388672" xlink:href="#DejaVuSans-b0"/>
    </g>
   </g>
   <g id="text_21">
    <g id="patch_24">
     <path d="M 149.183087 45.456502 
L 155.234038 58.661452 
L 157.030077 57.838447 
L 150.979127 44.633497 
z
" style="fill:#ffffff;"/>
    </g>
    <!-- Rambler 15.9 -->
    <g style="fill:#008000;" transform="translate(149.58773 45.293082)rotate(-294.618837)scale(0.02 -0.02)">
     <defs>
      <path d="M 2841 2188 
Q 3044 2119 3236 1894 
Q 3428 1669 3622 1275 
L 4263 0 
L 3584 0 
L 2988 1197 
Q 2756 1666 2539 1819 
Q 2322 1972 1947 1972 
L 1259 1972 
L 1259 0 
L 628 0 
L 628 4666 
L 2053 4666 
Q 2853 4666 3247 4331 
Q 3641 3997 3641 3322 
Q 3641 2881 3436 2590 
Q 3231 2300 2841 2188 
z
M 1259 4147 
L 1259 2491 
L 2053 2491 
Q 2509 2491 2742 2702 
Q 2975 2913 2975 3322 
Q 2975 3731 2742 3939 
Q 2509 4147 2053 4147 
L 1259 4147 
z
" id="DejaVuSans-52" transform="scale(0.015625)"/>
     </defs>
     <use xlink:href="#DejaVuSans-52"/>
     <use x="67.232422" xlink:href="#DejaVuSans-61"/>
     <use x="128.511719" xlink:href="#DejaVuSans-6d"/>
     <use x="225.923828" xlink:href="#DejaVuSans-62"/>
     <use x="289.400391" xlink:href="#DejaVuSans-6c"/>
     <use x="317.183594" xlink:href="#DejaVuSans-65"/>
     <use x="378.707031" xlink:href="#DejaVuSans-72"/>
     <use x="419.820312" xlink:href="#DejaVuSans-20"/>
     <use x="451.607422" xlink:href="#DejaVuSans-31"/>
     <use x="515.230469" xlink:href="#DejaVuSans-35"/>
     <use x="578.853516" xlink:href="#DejaVuSans-2e"/>
     <use x="610.640625" xlink:href="#DejaVuSans-39"/>
     <use x="674.263672" xlink:href="#DejaVuSans-b0"/>
    </g>
   </g>
   <g id="text_22">
    <g id="patch_25">
     <path d="M 155.615202 66.788671 
L 159.698719 79.227404 
L 161.575782 78.611182 
L 157.492265 66.172449 
z
" style="fill:#ffffff;"/>
    </g>
    <!-- Riviera 19.8 -->
    <g style="fill:#4169e1;" transform="translate(156.035629 66.671699)rotate(-288.174515)scale(0.02 -0.02)">
     <use xlink:href="#DejaVuSans-52"/>
     <use x="69.482422" xlink:href="#DejaVuSans-69"/>
     <use x="97.265625" xlink:href="#DejaVuSans-76"/>
     <use x="156.445312" xlink:href="#DejaVuSans-69"/>
     <use x="184.228516" xlink:href="#DejaVuSans-65"/>
     <use x="245.751953" xlink:href="#DejaVuSans-72"/>
     <use x="286.865234" xlink:href="#DejaVuSans-61"/>
     <use x="348.144531" xlink:href="#DejaVuSans-20"/>
     <use x="379.931641" xlink:href="#DejaVuSans-31"/>
     <use x="443.554688" xlink:href="#DejaVuSans-39"/>
     <use x="507.177734" xlink:href="#DejaVuSans-2e"/>
     <use x="538.964844" xlink:href="#DejaVuSans-38"/>
     <use x="602.587891" xlink:href="#DejaVuSans-b0"/>
    </g>
   </g>
   <g id="text_23">
    <g id="patch_26">
     <path d="M 93.652681 87.202145 
L 110.397605 96.048618 
L 111.320469 94.301788 
L 94.575545 85.455314 
z
" style="fill:#ffffff;"/>
    </g>
    <!-- Road Runner 20.2 -->
    <g style="fill:#4169e1;" transform="translate(93.874002 86.826035)rotate(-332.152159)scale(0.02 -0.02)">
     <use xlink:href="#DejaVuSans-52"/>
     <use x="64.982422" xlink:href="#DejaVuSans-6f"/>
     <use x="126.164062" xlink:href="#DejaVuSans-61"/>
     <use x="187.443359" xlink:href="#DejaVuSans-64"/>
     <use x="250.919922" xlink:href="#DejaVuSans-20"/>
     <use x="282.707031" xlink:href="#DejaVuSans-52"/>
     <use x="347.689453" xlink:href="#DejaVuSans-75"/>
     <use x="411.068359" xlink:href="#DejaVuSans-6e"/>
     <use x="474.447266" xlink:href="#DejaVuSans-6e"/>
     <use x="537.826172" xlink:href="#DejaVuSans-65"/>
     <use x="599.349609" xlink:href="#DejaVuSans-72"/>
     <use x="640.462891" xlink:href="#DejaVuSans-20"/>
     <use x="672.25" xlink:href="#DejaVuSans-32"/>
     <use x="735.873047" xlink:href="#DejaVuSans-30"/>
     <use x="799.496094" xlink:href="#DejaVuSans-2e"/>
     <use x="831.283203" xlink:href="#DejaVuSans-32"/>
     <use x="894.90625" xlink:href="#DejaVuSans-b0"/>
    </g>
   </g>
   <g id="text_24">
    <g id="patch_27">
     <path d="M 144.717736 49.445843 
L 147.080047 35.1326 
L 145.130792 34.810888 
L 142.768481 49.12413 
z
" style="fill:#ffffff;"/>
    </g>
    <!-- Stingray 15.7 -->
    <g style="fill:#008000;" transform="translate(144.290874 49.355121)rotate(-80.628175)scale(0.02 -0.02)">
     <defs>
      <path d="M 2059 -325 
Q 1816 -950 1584 -1140 
Q 1353 -1331 966 -1331 
L 506 -1331 
L 506 -850 
L 844 -850 
Q 1081 -850 1212 -737 
Q 1344 -625 1503 -206 
L 1606 56 
L 191 3500 
L 800 3500 
L 1894 763 
L 2988 3500 
L 3597 3500 
L 2059 -325 
z
" id="DejaVuSans-79" transform="scale(0.015625)"/>
     </defs>
     <use xlink:href="#DejaVuSans-53"/>
     <use x="63.476562" xlink:href="#DejaVuSans-74"/>
     <use x="102.685547" xlink:href="#DejaVuSans-69"/>
     <use x="130.46875" xlink:href="#DejaVuSans-6e"/>
     <use x="193.847656" xlink:href="#DejaVuSans-67"/>
     <use x="257.324219" xlink:href="#DejaVuSans-72"/>
     <use x="298.4375" xlink:href="#DejaVuSans-61"/>
     <use x="359.716797" xlink:href="#DejaVuSans-79"/>
     <use x="418.896484" xlink:href="#DejaVuSans-20"/>
     <use x="450.683594" xlink:href="#DejaVuSans-31"/>
     <use x="514.306641" xlink:href="#DejaVuSans-35"/>
     <use x="577.929688" xlink:href="#DejaVuSans-2e"/>
     <use x="609.716797" xlink:href="#DejaVuSans-37"/>
     <use x="673.339844" xlink:href="#DejaVuSans-b0"/>
    </g>
   </g>
   <g id="text_25">
    <g id="patch_28">
     <path d="M 150.994319 96.378114 
L 158.70936 79.720505 
L 156.916676 78.890216 
L 149.201635 95.547825 
z
" style="fill:#ffffff;"/>
    </g>
    <!-- Thunderbird 24.3 -->
    <g transform="translate(150.607154 96.176756)rotate(-65.148589)scale(0.02 -0.02)">
     <use xlink:href="#DejaVuSans-54"/>
     <use x="61.083984" xlink:href="#DejaVuSans-68"/>
     <use x="124.462891" xlink:href="#DejaVuSans-75"/>
     <use x="187.841797" xlink:href="#DejaVuSans-6e"/>
     <use x="251.220703" xlink:href="#DejaVuSans-64"/>
     <use x="314.697266" xlink:href="#DejaVuSans-65"/>
     <use x="376.220703" xlink:href="#DejaVuSans-72"/>
     <use x="417.333984" xlink:href="#DejaVuSans-62"/>
     <use x="480.810547" xlink:href="#DejaVuSans-69"/>
     <use x="508.59375" xlink:href="#DejaVuSans-72"/>
     <use x="547.957031" xlink:href="#DejaVuSans-64"/>
     <use x="611.433594" xlink:href="#DejaVuSans-20"/>
     <use x="643.220703" xlink:href="#DejaVuSans-32"/>
     <use x="706.84375" xlink:href="#DejaVuSans-34"/>
     <use x="770.466797" xlink:href="#DejaVuSans-2e"/>
     <use x="802.253906" xlink:href="#DejaVuSans-33"/>
     <use x="865.876953" xlink:href="#DejaVuSans-b0"/>
    </g>
   </g>
   <g id="text_26">
    <g id="patch_29">
     <path d="M 132.706399 50.94899 
L 134.845225 26.664244 
L 132.877218 26.490916 
L 130.738392 50.775662 
z
" style="fill:#ffffff;"/>
    </g>
    <!-- Upper Continental 15.2 -->
    <g style="fill:#008000;" transform="translate(132.273897 50.890821)rotate(-84.966787)scale(0.02 -0.02)">
     <defs>
      <path d="M 556 4666 
L 1191 4666 
L 1191 1831 
Q 1191 1081 1462 751 
Q 1734 422 2344 422 
Q 2950 422 3222 751 
Q 3494 1081 3494 1831 
L 3494 4666 
L 4128 4666 
L 4128 1753 
Q 4128 841 3676 375 
Q 3225 -91 2344 -91 
Q 1459 -91 1007 375 
Q 556 841 556 1753 
L 556 4666 
z
" id="DejaVuSans-55" transform="scale(0.015625)"/>
     </defs>
     <use xlink:href="#DejaVuSans-55"/>
     <use x="73.193359" xlink:href="#DejaVuSans-70"/>
     <use x="136.669922" xlink:href="#DejaVuSans-70"/>
     <use x="200.146484" xlink:href="#DejaVuSans-65"/>
     <use x="261.669922" xlink:href="#DejaVuSans-72"/>
     <use x="302.783203" xlink:href="#DejaVuSans-20"/>
     <use x="334.570312" xlink:href="#DejaVuSans-43"/>
     <use x="404.394531" xlink:href="#DejaVuSans-6f"/>
     <use x="465.576172" xlink:href="#DejaVuSans-6e"/>
     <use x="528.955078" xlink:href="#DejaVuSans-74"/>
     <use x="568.164062" xlink:href="#DejaVuSans-69"/>
     <use x="595.947266" xlink:href="#DejaVuSans-6e"/>
     <use x="659.326172" xlink:href="#DejaVuSans-65"/>
     <use x="720.849609" xlink:href="#DejaVuSans-6e"/>
     <use x="784.228516" xlink:href="#DejaVuSans-74"/>
     <use x="823.4375" xlink:href="#DejaVuSans-61"/>
     <use x="884.716797" xlink:href="#DejaVuSans-6c"/>
     <use x="912.5" xlink:href="#DejaVuSans-20"/>
     <use x="944.287109" xlink:href="#DejaVuSans-31"/>
     <use x="1007.910156" xlink:href="#DejaVuSans-35"/>
     <use x="1071.533203" xlink:href="#DejaVuSans-2e"/>
     <use x="1103.320312" xlink:href="#DejaVuSans-32"/>
     <use x="1166.943359" xlink:href="#DejaVuSans-b0"/>
    </g>
   </g>
   <g id="text_27">
    <g id="patch_30">
     <path d="M 67.542775 131.342677 
L 67.542775 120.012677 
L 65.56715 120.012677 
L 65.56715 131.342677 
z
" style="fill:#ffffff;"/>
    </g>
    <!-- Viper 16.5 -->
    <g style="fill:#008000;" transform="translate(67.106838 131.322677)rotate(-90)scale(0.02 -0.02)">
     <defs>
      <path d="M 1831 0 
L 50 4666 
L 709 4666 
L 2188 738 
L 3669 4666 
L 4325 4666 
L 2547 0 
L 1831 0 
z
" id="DejaVuSans-56" transform="scale(0.015625)"/>
     </defs>
     <use xlink:href="#DejaVuSans-56"/>
     <use x="66.158203" xlink:href="#DejaVuSans-69"/>
     <use x="93.941406" xlink:href="#DejaVuSans-70"/>
     <use x="157.417969" xlink:href="#DejaVuSans-65"/>
     <use x="218.941406" xlink:href="#DejaVuSans-72"/>
     <use x="260.054688" xlink:href="#DejaVuSans-20"/>
     <use x="291.841797" xlink:href="#DejaVuSans-31"/>
     <use x="355.464844" xlink:href="#DejaVuSans-36"/>
     <use x="419.087891" xlink:href="#DejaVuSans-2e"/>
     <use x="450.875" xlink:href="#DejaVuSans-35"/>
     <use x="514.498047" xlink:href="#DejaVuSans-b0"/>
    </g>
   </g>
   <g id="text_28">
    <g id="patch_31">
     <path d="M 23.020371 124.466603 
L 30.172845 112.086755 
L 28.462201 111.098428 
L 21.309727 123.478276 
z
" style="fill:#ffffff;"/>
    </g>
    <!-- Voyager 11.0 -->
    <g style="fill:#008000;" transform="translate(22.652909 124.231203)rotate(-59.982767)scale(0.02 -0.02)">
     <use xlink:href="#DejaVuSans-56"/>
     <use x="60.658203" xlink:href="#DejaVuSans-6f"/>
     <use x="121.839844" xlink:href="#DejaVuSans-79"/>
     <use x="181.019531" xlink:href="#DejaVuSans-61"/>
     <use x="242.298828" xlink:href="#DejaVuSans-67"/>
     <use x="305.775391" xlink:href="#DejaVuSans-65"/>
     <use x="367.298828" xlink:href="#DejaVuSans-72"/>
     <use x="408.412109" xlink:href="#DejaVuSans-20"/>
     <use x="440.199219" xlink:href="#DejaVuSans-31"/>
     <use x="503.822266" xlink:href="#DejaVuSans-31"/>
     <use x="567.445312" xlink:href="#DejaVuSans-2e"/>
     <use x="599.232422" xlink:href="#DejaVuSans-30"/>
     <use x="662.855469" xlink:href="#DejaVuSans-b0"/>
    </g>
   </g>
   <g id="text_29">
    <!-- Hidden Valley -->
    <g transform="translate(50.992979 12.78127)scale(0.12 -0.12)">
     <use xlink:href="#DejaVuSans-48"/>
     <use x="75.195312" xlink:href="#DejaVuSans-69"/>
     <use x="102.978516" xlink:href="#DejaVuSans-64"/>
     <use x="166.455078" xlink:href="#DejaVuSans-64"/>
     <use x="229.931641" xlink:href="#DejaVuSans-65"/>
     <use x="291.455078" xlink:href="#DejaVuSans-6e"/>
     <use x="354.833984" xlink:href="#DejaVuSans-20"/>
     <use x="386.621094" xlink:href="#DejaVuSans-56"/>
     <use x="447.279297" xlink:href="#DejaVuSans-61"/>
     <use x="508.558594" xlink:href="#DejaVuSans-6c"/>
     <use x="536.341797" xlink:href="#DejaVuSans-6c"/>
     <use x="564.125" xlink:href="#DejaVuSans-65"/>
     <use x="625.648438" xlink:href="#DejaVuSans-79"/>
    </g>
   </g>
   <g id="legend_1">
    <g id="line2d_46">
     <path d="M 8.082198 195.359062 
L 20.082198 195.359062 
" style="fill:none;stroke:#008000;stroke-linecap:square;stroke-width:1.5;"/>
    </g>
    <g id="line2d_47"/>
    <g id="text_30">
     <!-- Easy -->
     <g transform="translate(24.882198 197.459062)scale(0.06 -0.06)">
      <use xlink:href="#DejaVuSans-45"/>
      <use x="63.183594" xlink:href="#DejaVuSans-61"/>
      <use x="124.462891" xlink:href="#DejaVuSans-73"/>
      <use x="176.5625" xlink:href="#DejaVuSans-79"/>
     </g>
    </g>
    <g id="line2d_48">
     <path d="M 8.082198 204.165937 
L 20.082198 204.165937 
" style="fill:none;stroke:#4169e1;stroke-linecap:square;stroke-width:1.5;"/>
    </g>
    <g id="line2d_49"/>
    <g id="text_31">
     <!-- Intermediate -->
     <g transform="translate(24.882198 206.265937)scale(0.06 -0.06)">
      <use xlink:href="#DejaVuSans-49"/>
      <use x="29.492188" xlink:href="#DejaVuSans-6e"/>
      <use x="92.871094" xlink:href="#DejaVuSans-74"/>
      <use x="132.080078" xlink:href="#DejaVuSans-65"/>
      <use x="193.603516" xlink:href="#DejaVuSans-72"/>
      <use x="232.966797" xlink:href="#DejaVuSans-6d"/>
      <use x="330.378906" xlink:href="#DejaVuSans-65"/>
      <use x="391.902344" xlink:href="#DejaVuSans-64"/>
      <use x="455.378906" xlink:href="#DejaVuSans-69"/>
      <use x="483.162109" xlink:href="#DejaVuSans-61"/>
      <use x="544.441406" xlink:href="#DejaVuSans-74"/>
      <use x="583.650391" xlink:href="#DejaVuSans-65"/>
     </g>
    </g>
    <g id="line2d_50">
     <path d="M 75.593448 195.359062 
L 87.593448 195.359062 
" style="fill:none;stroke:#000000;stroke-linecap:square;stroke-width:1.5;"/>
    </g>
    <g id="line2d_51"/>
    <g id="text_32">
     <!-- Advanced -->
     <g transform="translate(92.393448 197.459062)scale(0.06 -0.06)">
      <use xlink:href="#DejaVuSans-41"/>
      <use x="66.658203" xlink:href="#DejaVuSans-64"/>
      <use x="130.134766" xlink:href="#DejaVuSans-76"/>
      <use x="189.314453" xlink:href="#DejaVuSans-61"/>
      <use x="250.59375" xlink:href="#DejaVuSans-6e"/>
      <use x="313.972656" xlink:href="#DejaVuSans-63"/>
      <use x="368.953125" xlink:href="#DejaVuSans-65"/>
      <use x="430.476562" xlink:href="#DejaVuSans-64"/>
     </g>
    </g>
    <g id="line2d_52">
     <path d="M 75.593448 204.165937 
L 87.593448 204.165937 
" style="fill:none;stroke:#ff0000;stroke-linecap:square;stroke-width:1.5;"/>
    </g>
    <g id="line2d_53"/>
    <g id="text_33">
     <!-- Expert -->
     <g transform="translate(92.393448 206.265937)scale(0.06 -0.06)">
      <defs>
       <path d="M 3513 3500 
L 2247 1797 
L 3578 0 
L 2900 0 
L 1881 1375 
L 863 0 
L 184 0 
L 1544 1831 
L 300 3500 
L 978 3500 
L 1906 2253 
L 2834 3500 
L 3513 3500 
z
" id="DejaVuSans-78" transform="scale(0.015625)"/>
      </defs>
      <use xlink:href="#DejaVuSans-45"/>
      <use x="63.183594" xlink:href="#DejaVuSans-78"/>
      <use x="122.363281" xlink:href="#DejaVuSans-70"/>
      <use x="185.839844" xlink:href="#DejaVuSans-65"/>
      <use x="247.363281" xlink:href="#DejaVuSans-72"/>
      <use x="288.476562" xlink:href="#DejaVuSans-74"/>
     </g>
    </g>
    <g id="line2d_54">
     <path d="M 134.032511 195.359062 
L 146.032511 195.359062 
" style="fill:none;stroke:#ffd700;stroke-linecap:square;stroke-width:1.5;"/>
    </g>
    <g id="line2d_55"/>
    <g id="text_34">
     <!-- Extreme -->
     <g transform="translate(150.832511 197.459062)scale(0.06 -0.06)">
      <use xlink:href="#DejaVuSans-45"/>
      <use x="63.183594" xlink:href="#DejaVuSans-78"/>
      <use x="122.363281" xlink:href="#DejaVuSans-74"/>
      <use x="161.572266" xlink:href="#DejaVuSans-72"/>
      <use x="200.435547" xlink:href="#DejaVuSans-65"/>
      <use x="261.958984" xlink:href="#DejaVuSans-6d"/>
      <use x="359.371094" xlink:href="#DejaVuSans-65"/>
     </g>
    </g>
    <g id="line2d_56">
     <path d="M 134.032511 204.165937 
L 146.032511 204.165937 
" style="fill:none;stroke:#000000;stroke-dasharray:1.5,2.475;stroke-dashoffset:0;stroke-width:1.5;"/>
    </g>
    <g id="line2d_57"/>
    <g id="text_35">
     <!-- Gladed -->
     <g transform="translate(150.832511 206.265937)scale(0.06 -0.06)">
      <defs>
       <path d="M 3809 666 
L 3809 1919 
L 2778 1919 
L 2778 2438 
L 4434 2438 
L 4434 434 
Q 4069 175 3628 42 
Q 3188 -91 2688 -91 
Q 1594 -91 976 548 
Q 359 1188 359 2328 
Q 359 3472 976 4111 
Q 1594 4750 2688 4750 
Q 3144 4750 3555 4637 
Q 3966 4525 4313 4306 
L 4313 3634 
Q 3963 3931 3569 4081 
Q 3175 4231 2741 4231 
Q 1884 4231 1454 3753 
Q 1025 3275 1025 2328 
Q 1025 1384 1454 906 
Q 1884 428 2741 428 
Q 3075 428 3337 486 
Q 3600 544 3809 666 
z
" id="DejaVuSans-47" transform="scale(0.015625)"/>
      </defs>
      <use xlink:href="#DejaVuSans-47"/>
      <use x="77.490234" xlink:href="#DejaVuSans-6c"/>
      <use x="105.273438" xlink:href="#DejaVuSans-61"/>
      <use x="166.552734" xlink:href="#DejaVuSans-64"/>
      <use x="230.029297" xlink:href="#DejaVuSans-65"/>
      <use x="291.552734" xlink:href="#DejaVuSans-64"/>
     </g>
    </g>
   </g>
  </g>
  <g id="text_36">
   <!-- Sources: USGS and OpenStreetMaps -->
   <g transform="translate(44.491743 215.092094)scale(0.052174 -0.052174)">
    <defs>
     <path d="M 750 794 
L 1409 794 
L 1409 0 
L 750 0 
L 750 794 
z
M 750 3309 
L 1409 3309 
L 1409 2516 
L 750 2516 
L 750 3309 
z
" id="DejaVuSans-3a" transform="scale(0.015625)"/>
    </defs>
    <use xlink:href="#DejaVuSans-53"/>
    <use x="63.476562" xlink:href="#DejaVuSans-6f"/>
    <use x="124.658203" xlink:href="#DejaVuSans-75"/>
    <use x="188.037109" xlink:href="#DejaVuSans-72"/>
    <use x="226.900391" xlink:href="#DejaVuSans-63"/>
    <use x="281.880859" xlink:href="#DejaVuSans-65"/>
    <use x="343.404297" xlink:href="#DejaVuSans-73"/>
    <use x="395.503906" xlink:href="#DejaVuSans-3a"/>
    <use x="429.195312" xlink:href="#DejaVuSans-20"/>
    <use x="460.982422" xlink:href="#DejaVuSans-55"/>
    <use x="534.175781" xlink:href="#DejaVuSans-53"/>
    <use x="597.652344" xlink:href="#DejaVuSans-47"/>
    <use x="675.142578" xlink:href="#DejaVuSans-53"/>
    <use x="738.619141" xlink:href="#DejaVuSans-20"/>
    <use x="770.40625" xlink:href="#DejaVuSans-61"/>
    <use x="831.685547" xlink:href="#DejaVuSans-6e"/>
    <use x="895.064453" xlink:href="#DejaVuSans-64"/>
    <use x="958.541016" xlink:href="#DejaVuSans-20"/>
    <use x="990.328125" xlink:href="#DejaVuSans-4f"/>
    <use x="1069.039062" xlink:href="#DejaVuSans-70"/>
    <use x="1132.515625" xlink:href="#DejaVuSans-65"/>
    <use x="1194.039062" xlink:href="#DejaVuSans-6e"/>
    <use x="1257.417969" xlink:href="#DejaVuSans-53"/>
    <use x="1320.894531" xlink:href="#DejaVuSans-74"/>
    <use x="1360.103516" xlink:href="#DejaVuSans-72"/>
    <use x="1398.966797" xlink:href="#DejaVuSans-65"/>
    <use x="1460.490234" xlink:href="#DejaVuSans-65"/>
    <use x="1522.013672" xlink:href="#DejaVuSans-74"/>
    <use x="1561.222656" xlink:href="#DejaVuSans-4d"/>
    <use x="1647.501953" xlink:href="#DejaVuSans-61"/>
    <use x="1708.78125" xlink:href="#DejaVuSans-70"/>
    <use x="1772.257812" xlink:href="#DejaVuSans-73"/>
   </g>
  </g>
 </g>
 <defs>
  <clipPath id="pb20d6b17ce">
   <rect height="178.614608" width="184.169084" x="0" y="18.78127"/>
  </clipPath>
 </defs>
</svg>
