<?xml version="1.0" encoding="utf-8" standalone="no"?>
<!DOCTYPE svg PUBLIC "-//W3C//DTD SVG 1.1//EN"
  "http://www.w3.org/Graphics/SVG/1.1/DTD/svg11.dtd">
<svg height="162.542924pt" version="1.1" viewBox="0 0 115.443978 162.542924" width="115.443978pt" xmlns="http://www.w3.org/2000/svg" xmlns:xlink="http://www.w3.org/1999/xlink">
 <metadata>
  <rdf:RDF xmlns:cc="http://creativecommons.org/ns#" xmlns:dc="http://purl.org/dc/elements/1.1/" xmlns:rdf="http://www.w3.org/1999/02/22-rdf-syntax-ns#">
   <cc:Work>
    <dc:type rdf:resource="http://purl.org/dc/dcmitype/StillImage"/>
    <dc:date>2022-04-14T21:29:36.648298</dc:date>
    <dc:format>image/svg+xml</dc:format>
    <dc:creator>
     <cc:Agent>
      <dc:title>Matplotlib v3.4.3, https://matplotlib.org/</dc:title>
     </cc:Agent>
    </dc:creator>
   </cc:Work>
  </rdf:RDF>
 </metadata>
 <defs>
  <style type="text/css">*{stroke-linecap:butt;stroke-linejoin:round;}</style>
 </defs>
 <g id="figure_1">
  <g id="patch_1">
   <path d="M 0 162.542924 
L 115.443978 162.542924 
L 115.443978 0 
L 0 0 
z
" style="fill:#ffffff;"/>
  </g>
  <g id="axes_1">
   <g id="line2d_1">
    <path clip-path="url(#p0167978d90)" d="M 15.112358 111.495856 
" style="fill:none;stroke:#008000;stroke-linecap:square;stroke-width:1.5;"/>
   </g>
   <g id="line2d_2">
    <path clip-path="url(#p0167978d90)" d="M 15.112358 111.495856 
" style="fill:none;stroke:#4169e1;stroke-linecap:square;stroke-width:1.5;"/>
   </g>
   <g id="line2d_3">
    <path clip-path="url(#p0167978d90)" d="M 15.112358 111.495856 
" style="fill:none;stroke:#000000;stroke-linecap:square;stroke-width:1.5;"/>
   </g>
   <g id="line2d_4">
    <path clip-path="url(#p0167978d90)" d="M 15.112358 111.495856 
" style="fill:none;stroke:#ff0000;stroke-linecap:square;stroke-width:1.5;"/>
   </g>
   <g id="line2d_5">
    <path clip-path="url(#p0167978d90)" d="M 15.112358 111.495856 
" style="fill:none;stroke:#ffd700;stroke-linecap:square;stroke-width:1.5;"/>
   </g>
   <g id="line2d_6">
    <path clip-path="url(#p0167978d90)" d="M 15.112358 111.495856 
" style="fill:none;stroke:#000000;stroke-dasharray:1.5,2.475;stroke-dashoffset:0;stroke-width:1.5;"/>
   </g>
   <g id="line2d_7">
    <path clip-path="url(#p0167978d90)" d="M 98.031702 141.888894 
L 95.553284 139.269517 
L 93.074867 136.650139 
L 90.59645 134.030762 
L 88.118033 131.411384 
L 85.639616 128.792007 
L 83.161199 126.172629 
L 80.682782 123.553252 
L 78.204365 120.933875 
L 75.725948 118.314497 
L 73.247531 115.69512 
L 70.769114 113.075742 
L 68.290697 110.456365 
L 65.81228 107.836988 
L 63.333863 105.21761 
L 60.855446 102.598233 
L 58.377029 99.978855 
L 55.898612 97.359478 
L 53.420195 94.740101 
L 50.941778 92.120723 
L 48.463361 89.501346 
L 45.984944 86.881968 
L 43.506527 84.262591 
L 41.02811 81.643214 
L 38.549693 79.023836 
L 36.071276 76.404459 
L 33.592859 73.785081 
L 31.114442 71.165704 
L 28.636025 68.546326 
L 26.157607 65.926949 
L 23.67919 63.307572 
L 21.200773 60.688194 
L 18.722356 58.068817 
" style="fill:none;stroke:#808080;stroke-linecap:square;stroke-width:1.5;"/>
   </g>
   <g id="line2d_8">
    <path clip-path="url(#p0167978d90)" d="M 110.196524 135.331314 
L 108.344034 132.019086 
L 106.491545 128.706859 
L 104.639055 125.394631 
L 102.786565 122.082403 
L 100.934075 118.770175 
L 99.081585 115.457947 
L 97.229095 112.145719 
L 95.376606 108.833491 
" style="fill:none;stroke:#808080;stroke-linecap:square;stroke-width:1.5;"/>
   </g>
   <g id="line2d_9">
    <path clip-path="url(#p0167978d90)" d="M 95.730327 143.883024 
L 92.902737 140.967726 
L 90.075148 138.052427 
L 87.247558 135.137129 
L 84.419968 132.22183 
L 81.592378 129.306532 
L 78.764788 126.391233 
L 75.937199 123.475935 
L 73.109609 120.560636 
L 70.282019 117.645338 
L 67.454429 114.730039 
L 64.626839 111.814741 
L 61.79925 108.899442 
L 58.97166 105.984144 
L 56.14407 103.068845 
L 53.31648 100.153547 
L 50.48889 97.238248 
L 47.661301 94.32295 
L 44.833711 91.407651 
L 42.006121 88.492353 
L 39.178531 85.577054 
L 36.350941 82.661756 
L 33.523352 79.746457 
L 30.695762 76.831159 
L 27.868172 73.91586 
L 25.040582 71.000562 
L 22.212992 68.085263 
L 19.385403 65.169965 
L 16.557813 62.254666 
L 13.730223 59.339368 
L 10.902633 56.424069 
L 8.075043 53.508771 
L 5.247454 50.593472 
" style="fill:none;stroke:#808080;stroke-linecap:square;stroke-width:1.5;"/>
   </g>
   <g id="line2d_10">
    <path clip-path="url(#p0167978d90)" d="M 15.112358 111.495856 
L 16.04579 112.36082 
L 16.979222 113.225785 
L 17.912654 114.090749 
L 18.846086 114.955714 
L 19.779518 115.820678 
L 20.712951 116.685643 
L 21.646383 117.550607 
L 22.579815 118.415572 
L 23.513247 119.280536 
L 24.446679 120.145501 
L 25.380111 121.010465 
L 26.313543 121.87543 
L 27.246976 122.740394 
L 28.180408 123.605359 
L 29.11384 124.470323 
L 30.047272 125.335288 
L 30.987891 125.945039 
L 31.928511 126.554789 
L 32.86913 127.16454 
L 33.80975 127.774291 
L 34.750369 128.384042 
L 35.690988 128.993792 
L 36.631608 129.603543 
L 37.572227 130.213294 
L 38.512847 130.823045 
L 39.453466 131.432795 
L 40.394085 132.042546 
L 41.334705 132.652297 
L 42.275324 133.262048 
L 43.215944 133.871798 
L 44.156563 134.481549 
L 45.097182 135.0913 
L 46.044807 135.530886 
L 46.992432 135.970472 
L 47.940057 136.410058 
L 48.887681 136.849645 
L 50.122796 137.175832 
L 51.35791 137.502019 
L 52.593025 137.828206 
L 53.828139 138.154394 
L 55.122935 138.193515 
L 56.417731 138.232636 
L 57.712527 138.271758 
L 59.007323 138.310879 
L 60.187123 138.236601 
L 61.366923 138.162324 
L 62.546723 138.088046 
L 63.726523 138.013768 
L 64.935072 137.939491 
L 66.143621 137.865213 
L 67.35217 137.790935 
L 68.560719 137.716658 
L 69.769268 137.64238 
L 70.977817 137.568102 
L 72.186366 137.493825 
L 73.394915 137.419547 
" style="fill:none;stroke:#000000;stroke-linecap:square;stroke-width:1.5;"/>
   </g>
   <g id="line2d_11">
    <path clip-path="url(#p0167978d90)" d="M 17.493792 100.840053 
L 18.451015 101.447887 
L 19.408238 102.055722 
L 20.365461 102.663556 
L 21.322684 103.27139 
L 22.279907 103.879225 
L 23.237129 104.487059 
L 24.194352 105.094893 
L 25.151575 105.702728 
L 26.108798 106.310562 
L 27.066021 106.918396 
L 28.023244 107.526231 
L 28.980466 108.134065 
L 29.937689 108.741899 
L 30.894912 109.349734 
L 31.852135 109.957568 
L 32.809358 110.565402 
L 33.766581 111.173237 
L 34.723804 111.781071 
L 35.681026 112.388905 
L 36.638249 112.99674 
L 37.595472 113.604574 
L 38.552695 114.212408 
L 39.509918 114.820243 
L 40.467141 115.428077 
L 41.424363 116.035911 
L 42.381586 116.643746 
L 43.338809 117.25158 
L 44.296032 117.859414 
L 45.253255 118.467249 
L 46.210478 119.075083 
L 47.167701 119.682917 
L 48.124923 120.290752 
L 49.091017 120.945637 
L 50.05711 121.600523 
L 51.023203 122.255409 
L 51.989296 122.910294 
L 52.955389 123.56518 
L 53.921483 124.220066 
L 54.887576 124.874951 
L 55.853669 125.529837 
L 56.819762 126.184723 
L 57.785855 126.839608 
L 58.751948 127.494494 
L 59.718042 128.14938 
L 60.684135 128.804265 
L 61.650228 129.459151 
L 62.616321 130.114037 
L 63.582414 130.768922 
L 64.808977 131.60025 
L 66.03554 132.431579 
L 67.262102 133.262907 
L 68.488665 134.094235 
L 69.715227 134.925563 
L 70.94179 135.756891 
L 72.168353 136.588219 
L 73.394915 137.419547 
" style="fill:none;stroke:#ff0000;stroke-linecap:square;stroke-width:1.5;"/>
   </g>
   <g id="line2d_12">
    <path clip-path="url(#p0167978d90)" d="M 20.885444 63.185251 
L 20.583762 64.113061 
L 20.28208 65.040871 
L 19.980397 65.968681 
L 19.678715 66.89649 
L 19.505857 68.008805 
L 19.332999 69.121119 
L 19.160142 70.233434 
L 18.987284 71.345748 
L 18.901219 72.380877 
L 18.815154 73.416006 
L 18.729089 74.451135 
L 18.643024 75.486264 
L 18.556959 76.521393 
L 18.470894 77.556522 
L 18.384829 78.591651 
L 18.298764 79.62678 
L 18.365178 80.878927 
L 18.431591 82.131074 
L 18.498005 83.38322 
L 18.564419 84.635367 
L 18.630833 85.887514 
L 18.697247 87.13966 
L 18.76366 88.391807 
L 18.830074 89.643954 
L 18.811879 90.769749 
L 18.793683 91.895544 
L 18.775487 93.02134 
L 18.757292 94.147135 
L 18.441417 95.820365 
L 18.125542 97.493594 
L 17.809667 99.166824 
L 17.493792 100.840053 
L 17.157174 101.915625 
L 16.820557 102.991197 
L 16.483939 104.066769 
L 16.147321 105.142341 
L 15.843819 106.110858 
L 15.540317 107.079375 
L 15.433327 108.183495 
L 15.326337 109.287616 
L 15.219347 110.391736 
L 15.112358 111.495856 
" style="fill:none;stroke:#008000;stroke-linecap:square;stroke-width:1.5;"/>
   </g>
   <g id="line2d_13">
    <path clip-path="url(#p0167978d90)" d="M 73.394915 137.419547 
L 74.62166 137.341172 
L 75.848404 137.262798 
L 77.075149 137.184423 
L 78.301893 137.106048 
L 79.528638 137.027673 
L 80.755383 136.949298 
L 81.982127 136.870923 
L 83.208872 136.792549 
L 85.161619 136.920486 
L 87.114366 137.048423 
L 89.010344 137.487745 
L 90.906321 137.927067 
L 92.177099 138.544021 
L 93.447876 139.160975 
L 94.54616 140.117861 
L 95.644444 141.074747 
" style="fill:none;stroke:#008000;stroke-linecap:square;stroke-width:1.5;"/>
   </g>
   <g id="line2d_14">
    <path clip-path="url(#p0167978d90)" d="M 6.554622 49.968588 
L 7.279534 50.890318 
L 8.004445 51.812049 
L 8.729356 52.733779 
L 9.454267 53.655509 
L 10.201012 54.435556 
L 10.947758 55.215604 
L 11.694504 55.995651 
L 12.44125 56.775699 
L 13.906356 57.966784 
L 15.371462 59.15787 
L 16.225926 59.803107 
L 17.080389 60.448345 
L 17.934853 61.093582 
L 18.789316 61.73882 
L 19.83738 62.462036 
L 20.885444 63.185251 
" style="fill:none;stroke:#008000;stroke-linecap:square;stroke-width:1.5;"/>
   </g>
   <g id="line2d_15">
    <path clip-path="url(#p0167978d90)" d="M 18.830074 89.643954 
L 20.309737 89.941857 
L 21.7894 90.239761 
L 23.269063 90.537664 
L 24.748725 90.835568 
L 26.400154 91.629625 
L 28.051583 92.423682 
L 29.703012 93.217739 
L 31.354441 94.011796 
L 32.37412 94.621613 
L 33.393799 95.23143 
L 34.413478 95.841247 
L 35.433157 96.451064 
L 36.452837 97.060881 
L 37.472516 97.670697 
L 38.492195 98.280514 
L 39.511874 98.890331 
L 40.553024 99.741088 
L 41.594174 100.591844 
L 42.635323 101.442601 
L 43.676473 102.293357 
L 44.717623 103.144114 
L 45.758773 103.994871 
L 46.799923 104.845627 
L 47.841073 105.696384 
L 48.824725 106.45502 
L 49.808377 107.213657 
L 50.792028 107.972293 
L 51.77568 108.73093 
L 52.759332 109.489566 
L 53.742984 110.248203 
L 54.726636 111.006839 
L 55.710288 111.765475 
L 56.614971 112.502701 
L 57.519654 113.239926 
L 58.424337 113.977152 
L 59.329021 114.714377 
" style="fill:none;stroke:#000000;stroke-linecap:square;stroke-width:1.5;"/>
   </g>
   <g id="line2d_16">
    <path clip-path="url(#p0167978d90)" d="M 59.329021 114.714377 
L 60.075266 115.40432 
L 60.821511 116.094263 
L 61.567757 116.784206 
L 62.314002 117.474149 
L 63.060247 118.164092 
L 63.806493 118.854034 
L 64.552738 119.543977 
L 65.298983 120.23392 
L 66.045229 120.923863 
L 66.791474 121.613806 
L 67.537719 122.303749 
L 68.283965 122.993692 
L 69.03021 123.683634 
L 69.776455 124.373577 
L 70.522701 125.06352 
L 71.268946 125.753463 
L 72.015191 126.443406 
L 72.761437 127.133349 
L 73.507682 127.823292 
L 74.253928 128.513234 
L 75.000173 129.203177 
L 75.746418 129.89312 
L 76.492664 130.583063 
L 77.238909 131.273006 
L 77.985154 131.962949 
L 78.7314 132.652892 
L 79.477645 133.342834 
L 80.22389 134.032777 
L 80.970136 134.72272 
L 81.716381 135.412663 
L 82.462626 136.102606 
L 83.208872 136.792549 
" style="fill:none;stroke:#4169e1;stroke-linecap:square;stroke-width:1.5;"/>
   </g>
   <g id="line2d_17">
    <path clip-path="url(#p0167978d90)" d="M 20.885444 63.185251 
L 22.154994 64.523472 
L 23.424544 65.861692 
L 24.694093 67.199912 
L 25.963643 68.538132 
L 27.233192 69.876352 
L 28.502742 71.214573 
L 29.772292 72.552793 
L 31.041841 73.891013 
L 32.311391 75.229233 
L 33.580941 76.567453 
L 34.85049 77.905673 
L 36.12004 79.243894 
L 37.389589 80.582114 
L 38.659139 81.920334 
L 39.928689 83.258554 
L 41.198238 84.596774 
L 42.467788 85.934994 
L 43.737337 87.273215 
L 45.006887 88.611435 
L 46.276437 89.949655 
L 47.545986 91.287875 
L 48.815536 92.626095 
L 50.085085 93.964315 
L 51.354635 95.302536 
L 52.624185 96.640756 
L 53.893734 97.978976 
L 55.163284 99.317196 
L 56.432834 100.655416 
L 57.702383 101.993637 
L 58.971933 103.331857 
L 60.241482 104.670077 
L 61.511032 106.008297 
" style="fill:none;stroke:#4169e1;stroke-linecap:square;stroke-width:1.5;"/>
   </g>
   <g id="line2d_18">
    <path clip-path="url(#p0167978d90)" d="M 61.511032 106.008297 
L 62.577701 107.104124 
L 63.64437 108.19995 
L 64.711039 109.295777 
L 65.777708 110.391603 
L 66.844378 111.48743 
L 67.911047 112.583257 
L 68.977716 113.679083 
L 70.044385 114.77491 
L 71.111054 115.870736 
L 72.177723 116.966563 
L 73.244392 118.062389 
L 74.311062 119.158216 
L 75.377731 120.254043 
L 76.4444 121.349869 
L 77.511069 122.445696 
L 78.577738 123.541522 
L 79.644407 124.637349 
L 80.711076 125.733175 
L 81.777745 126.829002 
L 82.844415 127.924829 
L 83.911084 129.020655 
L 84.977753 130.116482 
L 86.044422 131.212308 
L 87.111091 132.308135 
L 88.17776 133.403961 
L 89.244429 134.499788 
L 90.311099 135.595615 
L 91.377768 136.691441 
L 92.444437 137.787268 
L 93.511106 138.883094 
L 94.577775 139.978921 
L 95.644444 141.074747 
" style="fill:none;stroke:#008000;stroke-linecap:square;stroke-width:1.5;"/>
   </g>
   <g id="line2d_19">
    <path clip-path="url(#p0167978d90)" d="M 19.678715 66.89649 
L 19.899609 67.893027 
L 20.120503 68.889563 
L 20.341397 69.8861 
L 20.562291 70.882636 
L 20.783185 71.879172 
L 21.004079 72.875709 
L 21.224974 73.872245 
L 21.445868 74.868782 
L 21.840711 76.01731 
L 22.235555 77.165838 
L 22.630398 78.314366 
L 23.025242 79.462894 
L 23.355673 81.008715 
L 23.686105 82.554535 
L 24.016536 84.100356 
L 24.346967 85.646177 
L 24.447407 86.943525 
L 24.547846 88.240873 
L 24.648286 89.53822 
L 24.748725 90.835568 
" style="fill:none;stroke:#008000;stroke-linecap:square;stroke-width:1.5;"/>
   </g>
   <g id="line2d_20">
    <path clip-path="url(#p0167978d90)" d="M 16.147321 105.142341 
L 17.071655 106.115616 
L 17.99599 107.088891 
L 18.920324 108.062167 
L 19.844658 109.035442 
L 20.725596 109.760838 
L 21.606534 110.486235 
L 22.487472 111.211631 
L 23.36841 111.937028 
L 24.249348 112.662424 
L 25.130286 113.387821 
L 26.011224 114.113217 
L 26.892162 114.838614 
L 27.7731 115.564011 
L 28.654038 116.289407 
L 29.534976 117.014804 
L 30.415914 117.7402 
L 31.296852 118.465597 
L 32.17779 119.190993 
L 33.058728 119.91639 
L 33.939666 120.641786 
L 35.461906 121.563516 
L 36.984147 122.485247 
L 38.506387 123.406977 
L 40.028628 124.328707 
L 41.363818 125.10849 
L 42.699008 125.888273 
L 44.034198 126.668056 
L 45.369388 127.447839 
L 46.647808 128.128497 
L 47.926228 128.809155 
L 49.204648 129.489814 
L 50.483068 130.170472 
L 52.177438 130.624596 
L 53.871809 131.078721 
L 55.681175 131.191856 
L 57.490541 131.30499 
L 59.01351 131.170973 
L 60.536478 131.036956 
L 62.059446 130.902939 
L 63.582414 130.768922 
" style="fill:none;stroke:#ff0000;stroke-dasharray:5.55,2.4;stroke-dashoffset:0;stroke-width:1.5;"/>
   </g>
   <g id="line2d_21">
    <path clip-path="url(#p0167978d90)" d="M 94.194622 111.679832 
L 94.338003 113.097715 
L 94.481384 114.515599 
L 95.041443 115.834357 
L 95.601503 117.153116 
L 96.161562 118.471875 
L 96.721621 119.790633 
L 97.726744 121.407296 
L 98.731867 123.023958 
L 99.736989 124.64062 
L 100.742112 126.257282 
L 101.646795 127.731997 
L 102.551478 129.206713 
L 103.456161 130.681428 
L 104.360845 132.156143 
L 105.537733 133.51746 
L 106.714622 134.878776 
L 108.093118 135.843064 
" style="fill:none;stroke:#008000;stroke-linecap:square;stroke-width:1.5;"/>
   </g>
   <g id="line2d_22">
    <path clip-path="url(#p0167978d90)" d="M 25.668693 55.867449 
L 27.076301 55.584084 
L 28.48391 55.300719 
L 29.804907 55.64118 
L 31.125905 55.981641 
L 32.158321 56.699306 
L 33.190737 57.416971 
L 34.223153 58.134636 
L 35.255569 58.852301 
" style="fill:none;stroke:#4169e1;stroke-linecap:square;stroke-width:1.5;"/>
   </g>
   <g id="line2d_23">
    <path clip-path="url(#p0167978d90)" d="M 35.255569 58.852301 
L 35.960465 59.538245 
L 36.665361 60.22419 
L 37.370257 60.910135 
L 38.075153 61.59608 
L 38.778957 62.418685 
L 39.482761 63.24129 
L 40.186565 64.063895 
L 40.890369 64.8865 
L 41.694613 65.623726 
L 42.498857 66.360951 
L 43.3031 67.098177 
L 44.107344 67.835402 
L 45.370844 68.60144 
L 46.634343 69.367478 
L 47.452779 69.934473 
L 48.271216 70.501467 
L 49.089652 71.068462 
L 49.908088 71.635457 
L 51.229086 72.855091 
L 52.550083 74.074724 
L 53.871809 75.350925 
L 55.193534 76.627126 
L 56.01197 77.222669 
L 56.830406 77.818212 
L 57.648843 78.413755 
L 58.467279 79.009298 
" style="fill:none;stroke:#000000;stroke-linecap:square;stroke-width:1.5;"/>
   </g>
   <g id="line2d_24">
    <path clip-path="url(#p0167978d90)" d="M 21.849081 58.250678 
L 22.803984 57.654871 
L 23.758887 57.059064 
L 24.71379 56.463257 
L 25.668693 55.867449 
L 26.899986 54.775753 
L 28.13128 53.684057 
L 29.362573 52.59236 
L 30.593867 51.500664 
L 31.82516 50.408968 
L 33.056454 49.317271 
L 34.287747 48.225575 
L 35.51904 47.133879 
L 36.294535 46.424805 
L 37.07003 45.715731 
L 37.845525 45.006657 
L 38.621019 44.297583 
L 39.396514 43.588509 
L 40.172009 42.879435 
L 40.947503 42.170361 
L 41.722998 41.461287 
L 42.642238 40.09997 
L 43.561477 38.738654 
L 44.193227 37.15054 
L 44.824977 35.562426 
L 45.19835 33.747514 
L 45.571723 31.932601 
L 45.858485 30.032045 
L 46.145247 28.131489 
L 46.288992 27.110634 
L 46.432736 26.089779 
L 46.576481 25.068924 
L 46.720226 24.048069 
L 46.863607 22.54507 
L 47.006988 21.042071 
L 47.638738 19.509995 
L 48.845468 18.715938 
L 50.510725 18.6599 
L 51.947446 19.964649 
L 52.521698 20.843821 
L 53.09595 21.722993 
L 53.670202 22.602166 
L 54.244454 23.481338 
L 54.905316 24.700708 
L 55.566179 25.920077 
L 56.227042 27.139446 
L 56.887904 28.358816 
L 57.361717 29.606733 
L 57.835529 30.85465 
L 58.309341 32.102568 
L 58.783154 33.350485 
L 59.041531 34.55558 
L 59.299908 35.760676 
L 59.558285 36.965771 
L 59.816662 38.170866 
L 60.103787 39.589014 
L 60.390913 41.007162 
L 60.678039 42.42531 
L 60.965165 43.843458 
L 61.252291 45.573255 
L 61.539417 47.303052 
L 61.826543 49.032849 
L 62.113669 50.762646 
L 62.315276 52.549538 
L 62.516882 54.336431 
L 62.545268 55.867978 
L 62.573653 57.399525 
L 62.458657 58.477212 
L 62.343661 59.554898 
L 62.228665 60.632585 
L 62.113669 61.710272 
L 61.855292 62.887084 
L 61.596915 64.063895 
L 61.338538 65.240707 
L 61.080161 66.417519 
L 60.778843 67.537763 
L 60.477524 68.658007 
L 60.176206 69.778252 
L 59.874887 70.898496 
L 59.673644 71.905341 
L 59.472402 72.912187 
L 59.271159 73.919032 
L 59.069916 74.925878 
L 58.919257 75.946733 
L 58.768597 76.967588 
L 58.617938 77.988443 
L 58.467279 79.009298 
" style="fill:none;stroke:#4169e1;stroke-linecap:square;stroke-width:1.5;"/>
   </g>
   <g id="line2d_25">
    <path clip-path="url(#p0167978d90)" d="M 58.467279 79.009298 
L 58.345005 80.072975 
L 58.222731 81.136652 
L 58.100456 82.200329 
L 57.978182 83.264006 
L 58.006931 84.85212 
L 58.03568 86.440234 
L 58.064429 88.028349 
L 58.093178 89.616463 
L 58.165233 91.119462 
L 58.237287 92.622461 
L 58.309341 94.12546 
L 58.381396 95.628459 
L 58.657604 96.883249 
L 58.933813 98.138039 
L 59.210022 99.392829 
L 59.48623 100.647619 
L 59.992431 101.987788 
L 60.498631 103.327958 
L 61.004832 104.668127 
L 61.511032 106.008297 
" style="fill:none;stroke:#008000;stroke-linecap:square;stroke-width:1.5;"/>
   </g>
   <g id="line2d_26">
    <path clip-path="url(#p0167978d90)" d="M 44.824977 35.562426 
L 45.844656 35.61212 
L 46.864335 35.661815 
L 47.884014 35.71151 
L 48.903693 35.761204 
L 50.598064 36.314189 
L 52.292434 36.867175 
L 53.297557 37.689251 
L 54.302679 38.511328 
L 54.761935 39.475615 
L 55.221191 40.439903 
L 55.336187 42.056565 
L 55.451183 43.673227 
L 55.307438 44.665799 
L 55.163693 45.65837 
L 55.019948 46.650942 
L 54.876203 47.643513 
L 54.79032 49.345291 
L 54.704437 51.047068 
L 55.307802 52.578086 
L 55.911167 54.109105 
L 56.801294 55.130488 
L 57.69142 56.151872 
L 58.294785 57.541208 
L 58.89815 58.930543 
L 58.985488 60.854889 
L 59.069916 62.730598 
L 59.069916 63.822559 
L 59.069916 64.91452 
L 59.069916 66.00648 
L 59.069916 67.098441 
L 59.069916 68.076871 
L 59.069916 69.0553 
L 59.069916 70.03373 
L 59.069916 71.012159 
L 59.069916 71.990589 
L 59.069916 72.969018 
L 59.069916 73.947448 
L 59.069916 74.925878 
" style="fill:none;stroke:#4169e1;stroke-linecap:square;stroke-width:1.5;"/>
   </g>
   <g id="line2d_27">
    <path clip-path="url(#p0167978d90)" d="M 35.51904 47.133879 
L 36.587484 47.755326 
L 37.655927 48.376774 
L 38.72437 48.998221 
L 39.792813 49.619668 
L 40.861256 50.241116 
L 41.9297 50.862563 
L 42.998143 51.484011 
L 44.066586 52.105458 
L 45.130662 52.731796 
L 46.194739 53.358134 
L 47.258815 53.984471 
L 48.322891 54.610809 
L 49.386967 55.237147 
L 50.451044 55.863484 
L 51.51512 56.489822 
L 52.579196 57.11616 
L 54.180769 58.050842 
L 55.782342 58.985525 
L 57.383915 59.920207 
L 58.985488 60.854889 
" style="fill:none;stroke:#000000;stroke-linecap:square;stroke-width:1.5;"/>
   </g>
   <g id="line2d_28">
    <path clip-path="url(#p0167978d90)" d="M 21.849081 58.250678 
L 22.983028 59.498331 
L 24.116976 60.745984 
L 25.595911 61.540041 
L 27.074846 62.334098 
L 28.712446 62.334098 
L 30.350046 62.334098 
L 31.576427 61.463649 
L 32.802807 60.593199 
L 34.029188 59.72275 
L 35.255569 58.852301 
L 36.369865 58.148645 
L 37.484161 57.44499 
L 38.598457 56.741335 
L 39.712753 56.03768 
L 41.148746 54.818575 
L 42.58474 53.59947 
L 43.325663 52.852464 
L 44.066586 52.105458 
L 45.189616 51.004246 
L 46.312646 49.903034 
L 47.435676 48.801821 
L 48.558706 47.700609 
L 49.247953 46.778879 
L 49.937201 45.857149 
L 50.626449 44.935419 
L 51.315697 44.013689 
L 52.292434 42.850622 
L 53.269172 41.687556 
L 54.245182 41.06373 
L 55.221191 40.439903 
" style="fill:none;stroke:#008000;stroke-linecap:square;stroke-width:1.5;"/>
   </g>
   <g id="line2d_29">
    <path clip-path="url(#p0167978d90)" d="M 58.467279 79.009298 
L 59.594312 80.101258 
L 60.721345 81.193219 
L 61.848378 82.28518 
L 62.975411 83.377141 
L 64.081337 84.851856 
L 65.187263 86.326571 
L 66.293189 87.801286 
L 67.399115 89.276002 
L 68.49012 90.509381 
L 69.581126 91.74276 
L 70.902124 92.834985 
L 72.223121 93.92721 
L 73.2428 94.551036 
L 74.262479 95.174863 
L 75.913908 95.742122 
L 77.565337 96.309381 
L 78.699648 96.904924 
L 79.833959 97.500467 
L 80.968271 98.09601 
L 82.102582 98.691552 
L 82.964323 99.499619 
L 83.826065 100.307686 
L 84.687807 101.115753 
L 85.549548 101.92382 
L 86.088137 102.84555 
L 86.626725 103.76728 
L 87.165314 104.68901 
L 87.703902 105.61074 
L 88.069997 106.617585 
L 88.436092 107.624431 
L 88.802186 108.631276 
L 89.168281 109.638121 
L 89.656286 111.24051 
L 90.144291 112.842898 
L 90.632296 114.445286 
L 91.120301 116.047674 
L 91.723665 117.564947 
L 92.32703 119.08222 
L 92.930395 120.599493 
L 93.533759 122.116766 
L 94.179884 123.350409 
L 94.826008 124.584053 
L 95.472132 125.817696 
L 96.118257 127.051339 
L 96.764381 128.284983 
L 97.410505 129.518626 
L 98.056629 130.752269 
L 98.702754 131.985913 
L 99.047378 133.162724 
L 99.392001 134.339536 
L 99.736625 135.516348 
L 100.081249 136.693159 
L 99.937868 137.941341 
L 99.794487 139.189523 
" style="fill:none;stroke:#4169e1;stroke-linecap:square;stroke-width:1.5;"/>
   </g>
   <g id="line2d_30">
    <path clip-path="url(#p0167978d90)" d="M 72.223121 93.92721 
L 72.510611 95.543343 
L 72.798101 97.159477 
L 73.386909 98.37911 
L 73.975717 99.598744 
L 74.564526 100.818378 
L 75.153334 102.038011 
L 76.07221 103.200814 
L 76.991085 104.363616 
L 77.909961 105.526418 
L 78.828837 106.68922 
L 79.482239 107.525834 
L 80.135642 108.362449 
L 80.789044 109.199064 
L 81.442447 110.035679 
L 82.095849 110.872293 
L 82.749252 111.708908 
L 83.402654 112.545523 
L 84.056057 113.382138 
L 85.118677 114.686622 
L 86.181298 115.991107 
L 87.243919 117.295592 
L 88.306539 118.600076 
L 89.570039 119.663753 
L 90.833539 120.72743 
L 92.183649 121.422098 
L 93.533759 122.116766 
" style="fill:none;stroke:#008000;stroke-linecap:square;stroke-width:1.5;"/>
   </g>
   <g id="line2d_31">
    <path clip-path="url(#p0167978d90)" d="M 59.48623 100.647619 
L 60.390913 100.158602 
L 61.295597 99.669585 
L 62.20028 99.180569 
L 63.104963 98.691552 
L 64.368826 98.230555 
L 65.63269 97.769558 
L 66.896553 97.308561 
L 68.160417 96.847564 
L 69.26234 96.244884 
L 70.364263 95.642204 
L 71.293692 94.784707 
L 72.223121 93.92721 
" style="fill:none;stroke:#008000;stroke-linecap:square;stroke-width:1.5;"/>
   </g>
   <g id="text_1">
    <g id="patch_2">
     <path d="M 57.371607 100.259957 
L 57.754284 100.816758 
L 59.382451 99.697754 
L 58.999773 99.140953 
z
" style="fill:#ffffff;"/>
    </g>
    <!--   -->
    <g style="fill:#808080;" transform="translate(57.742203 100.029522)rotate(-304.499903)scale(0.02 -0.02)">
     <defs>
      <path id="DejaVuSans-20" transform="scale(0.015625)"/>
     </defs>
     <use xlink:href="#DejaVuSans-20"/>
    </g>
   </g>
   <g id="text_2">
    <g id="patch_3">
     <path d="M 101.744245 122.14122 
L 101.998534 122.767164 
L 103.828885 122.023586 
L 103.574596 121.397642 
z
" style="fill:#ffffff;"/>
    </g>
    <!--   -->
    <g style="fill:#808080;" transform="translate(102.155654 121.995672)rotate(-292.109387)scale(0.02 -0.02)">
     <use xlink:href="#DejaVuSans-20"/>
    </g>
   </g>
   <g id="text_3">
    <g id="patch_4">
     <path d="M 49.486801 97.531006 
L 49.875918 98.083325 
L 51.49098 96.945491 
L 51.101863 96.393171 
z
" style="fill:#ffffff;"/>
    </g>
    <!--   -->
    <g style="fill:#808080;" transform="translate(49.854696 97.296283)rotate(-305.165243)scale(0.02 -0.02)">
     <use xlink:href="#DejaVuSans-20"/>
    </g>
   </g>
   <g id="text_4">
    <g id="patch_5">
     <path d="M 17.682607 113.117562 
L 29.655885 128.392244 
L 31.210752 127.17344 
L 19.237473 111.898757 
z
" style="fill:#ffffff;"/>
    </g>
    <!-- Ragged Edge 28.7° -->
    <g transform="translate(18.038039 112.864363)rotate(-308.091631)scale(0.02 -0.02)">
     <defs>
      <path d="M 2841 2188 
Q 3044 2119 3236 1894 
Q 3428 1669 3622 1275 
L 4263 0 
L 3584 0 
L 2988 1197 
Q 2756 1666 2539 1819 
Q 2322 1972 1947 1972 
L 1259 1972 
L 1259 0 
L 628 0 
L 628 4666 
L 2053 4666 
Q 2853 4666 3247 4331 
Q 3641 3997 3641 3322 
Q 3641 2881 3436 2590 
Q 3231 2300 2841 2188 
z
M 1259 4147 
L 1259 2491 
L 2053 2491 
Q 2509 2491 2742 2702 
Q 2975 2913 2975 3322 
Q 2975 3731 2742 3939 
Q 2509 4147 2053 4147 
L 1259 4147 
z
" id="DejaVuSans-52" transform="scale(0.015625)"/>
      <path d="M 2194 1759 
Q 1497 1759 1228 1600 
Q 959 1441 959 1056 
Q 959 750 1161 570 
Q 1363 391 1709 391 
Q 2188 391 2477 730 
Q 2766 1069 2766 1631 
L 2766 1759 
L 2194 1759 
z
M 3341 1997 
L 3341 0 
L 2766 0 
L 2766 531 
Q 2569 213 2275 61 
Q 1981 -91 1556 -91 
Q 1019 -91 701 211 
Q 384 513 384 1019 
Q 384 1609 779 1909 
Q 1175 2209 1959 2209 
L 2766 2209 
L 2766 2266 
Q 2766 2663 2505 2880 
Q 2244 3097 1772 3097 
Q 1472 3097 1187 3025 
Q 903 2953 641 2809 
L 641 3341 
Q 956 3463 1253 3523 
Q 1550 3584 1831 3584 
Q 2591 3584 2966 3190 
Q 3341 2797 3341 1997 
z
" id="DejaVuSans-61" transform="scale(0.015625)"/>
      <path d="M 2906 1791 
Q 2906 2416 2648 2759 
Q 2391 3103 1925 3103 
Q 1463 3103 1205 2759 
Q 947 2416 947 1791 
Q 947 1169 1205 825 
Q 1463 481 1925 481 
Q 2391 481 2648 825 
Q 2906 1169 2906 1791 
z
M 3481 434 
Q 3481 -459 3084 -895 
Q 2688 -1331 1869 -1331 
Q 1566 -1331 1297 -1286 
Q 1028 -1241 775 -1147 
L 775 -588 
Q 1028 -725 1275 -790 
Q 1522 -856 1778 -856 
Q 2344 -856 2625 -561 
Q 2906 -266 2906 331 
L 2906 616 
Q 2728 306 2450 153 
Q 2172 0 1784 0 
Q 1141 0 747 490 
Q 353 981 353 1791 
Q 353 2603 747 3093 
Q 1141 3584 1784 3584 
Q 2172 3584 2450 3431 
Q 2728 3278 2906 2969 
L 2906 3500 
L 3481 3500 
L 3481 434 
z
" id="DejaVuSans-67" transform="scale(0.015625)"/>
      <path d="M 3597 1894 
L 3597 1613 
L 953 1613 
Q 991 1019 1311 708 
Q 1631 397 2203 397 
Q 2534 397 2845 478 
Q 3156 559 3463 722 
L 3463 178 
Q 3153 47 2828 -22 
Q 2503 -91 2169 -91 
Q 1331 -91 842 396 
Q 353 884 353 1716 
Q 353 2575 817 3079 
Q 1281 3584 2069 3584 
Q 2775 3584 3186 3129 
Q 3597 2675 3597 1894 
z
M 3022 2063 
Q 3016 2534 2758 2815 
Q 2500 3097 2075 3097 
Q 1594 3097 1305 2825 
Q 1016 2553 972 2059 
L 3022 2063 
z
" id="DejaVuSans-65" transform="scale(0.015625)"/>
      <path d="M 2906 2969 
L 2906 4863 
L 3481 4863 
L 3481 0 
L 2906 0 
L 2906 525 
Q 2725 213 2448 61 
Q 2172 -91 1784 -91 
Q 1150 -91 751 415 
Q 353 922 353 1747 
Q 353 2572 751 3078 
Q 1150 3584 1784 3584 
Q 2172 3584 2448 3432 
Q 2725 3281 2906 2969 
z
M 947 1747 
Q 947 1113 1208 752 
Q 1469 391 1925 391 
Q 2381 391 2643 752 
Q 2906 1113 2906 1747 
Q 2906 2381 2643 2742 
Q 2381 3103 1925 3103 
Q 1469 3103 1208 2742 
Q 947 2381 947 1747 
z
" id="DejaVuSans-64" transform="scale(0.015625)"/>
      <path d="M 628 4666 
L 3578 4666 
L 3578 4134 
L 1259 4134 
L 1259 2753 
L 3481 2753 
L 3481 2222 
L 1259 2222 
L 1259 531 
L 3634 531 
L 3634 0 
L 628 0 
L 628 4666 
z
" id="DejaVuSans-45" transform="scale(0.015625)"/>
      <path d="M 1228 531 
L 3431 531 
L 3431 0 
L 469 0 
L 469 531 
Q 828 903 1448 1529 
Q 2069 2156 2228 2338 
Q 2531 2678 2651 2914 
Q 2772 3150 2772 3378 
Q 2772 3750 2511 3984 
Q 2250 4219 1831 4219 
Q 1534 4219 1204 4116 
Q 875 4013 500 3803 
L 500 4441 
Q 881 4594 1212 4672 
Q 1544 4750 1819 4750 
Q 2544 4750 2975 4387 
Q 3406 4025 3406 3419 
Q 3406 3131 3298 2873 
Q 3191 2616 2906 2266 
Q 2828 2175 2409 1742 
Q 1991 1309 1228 531 
z
" id="DejaVuSans-32" transform="scale(0.015625)"/>
      <path d="M 2034 2216 
Q 1584 2216 1326 1975 
Q 1069 1734 1069 1313 
Q 1069 891 1326 650 
Q 1584 409 2034 409 
Q 2484 409 2743 651 
Q 3003 894 3003 1313 
Q 3003 1734 2745 1975 
Q 2488 2216 2034 2216 
z
M 1403 2484 
Q 997 2584 770 2862 
Q 544 3141 544 3541 
Q 544 4100 942 4425 
Q 1341 4750 2034 4750 
Q 2731 4750 3128 4425 
Q 3525 4100 3525 3541 
Q 3525 3141 3298 2862 
Q 3072 2584 2669 2484 
Q 3125 2378 3379 2068 
Q 3634 1759 3634 1313 
Q 3634 634 3220 271 
Q 2806 -91 2034 -91 
Q 1263 -91 848 271 
Q 434 634 434 1313 
Q 434 1759 690 2068 
Q 947 2378 1403 2484 
z
M 1172 3481 
Q 1172 3119 1398 2916 
Q 1625 2713 2034 2713 
Q 2441 2713 2670 2916 
Q 2900 3119 2900 3481 
Q 2900 3844 2670 4047 
Q 2441 4250 2034 4250 
Q 1625 4250 1398 4047 
Q 1172 3844 1172 3481 
z
" id="DejaVuSans-38" transform="scale(0.015625)"/>
      <path d="M 684 794 
L 1344 794 
L 1344 0 
L 684 0 
L 684 794 
z
" id="DejaVuSans-2e" transform="scale(0.015625)"/>
      <path d="M 525 4666 
L 3525 4666 
L 3525 4397 
L 1831 0 
L 1172 0 
L 2766 4134 
L 525 4134 
L 525 4666 
z
" id="DejaVuSans-37" transform="scale(0.015625)"/>
      <path d="M 1600 4347 
Q 1350 4347 1178 4173 
Q 1006 4000 1006 3750 
Q 1006 3503 1178 3333 
Q 1350 3163 1600 3163 
Q 1850 3163 2022 3333 
Q 2194 3503 2194 3750 
Q 2194 3997 2020 4172 
Q 1847 4347 1600 4347 
z
M 1600 4750 
Q 1800 4750 1984 4673 
Q 2169 4597 2303 4453 
Q 2447 4313 2519 4134 
Q 2591 3956 2591 3750 
Q 2591 3338 2302 3052 
Q 2013 2766 1594 2766 
Q 1172 2766 890 3047 
Q 609 3328 609 3750 
Q 609 4169 896 4459 
Q 1184 4750 1600 4750 
z
" id="DejaVuSans-b0" transform="scale(0.015625)"/>
     </defs>
     <use xlink:href="#DejaVuSans-52"/>
     <use x="67.232422" xlink:href="#DejaVuSans-61"/>
     <use x="128.511719" xlink:href="#DejaVuSans-67"/>
     <use x="191.988281" xlink:href="#DejaVuSans-67"/>
     <use x="255.464844" xlink:href="#DejaVuSans-65"/>
     <use x="316.988281" xlink:href="#DejaVuSans-64"/>
     <use x="380.464844" xlink:href="#DejaVuSans-20"/>
     <use x="412.251953" xlink:href="#DejaVuSans-45"/>
     <use x="475.435547" xlink:href="#DejaVuSans-64"/>
     <use x="538.912109" xlink:href="#DejaVuSans-67"/>
     <use x="602.388672" xlink:href="#DejaVuSans-65"/>
     <use x="663.912109" xlink:href="#DejaVuSans-20"/>
     <use x="695.699219" xlink:href="#DejaVuSans-32"/>
     <use x="759.322266" xlink:href="#DejaVuSans-38"/>
     <use x="822.945312" xlink:href="#DejaVuSans-2e"/>
     <use x="854.732422" xlink:href="#DejaVuSans-37"/>
     <use x="918.355469" xlink:href="#DejaVuSans-b0"/>
    </g>
   </g>
   <g id="text_5">
    <g id="patch_6">
     <path d="M 19.95575 102.243567 
L 30.961553 111.864949 
L 32.261846 110.377558 
L 21.256042 100.756175 
z
" style="fill:#ffffff;"/>
    </g>
    <!-- Cascade 31.3° -->
    <g style="fill:#ff0000;" transform="translate(20.257727 101.928525)rotate(-318.839723)scale(0.02 -0.02)">
     <defs>
      <path d="M 4122 4306 
L 4122 3641 
Q 3803 3938 3442 4084 
Q 3081 4231 2675 4231 
Q 1875 4231 1450 3742 
Q 1025 3253 1025 2328 
Q 1025 1406 1450 917 
Q 1875 428 2675 428 
Q 3081 428 3442 575 
Q 3803 722 4122 1019 
L 4122 359 
Q 3791 134 3420 21 
Q 3050 -91 2638 -91 
Q 1578 -91 968 557 
Q 359 1206 359 2328 
Q 359 3453 968 4101 
Q 1578 4750 2638 4750 
Q 3056 4750 3426 4639 
Q 3797 4528 4122 4306 
z
" id="DejaVuSans-43" transform="scale(0.015625)"/>
      <path d="M 2834 3397 
L 2834 2853 
Q 2591 2978 2328 3040 
Q 2066 3103 1784 3103 
Q 1356 3103 1142 2972 
Q 928 2841 928 2578 
Q 928 2378 1081 2264 
Q 1234 2150 1697 2047 
L 1894 2003 
Q 2506 1872 2764 1633 
Q 3022 1394 3022 966 
Q 3022 478 2636 193 
Q 2250 -91 1575 -91 
Q 1294 -91 989 -36 
Q 684 19 347 128 
L 347 722 
Q 666 556 975 473 
Q 1284 391 1588 391 
Q 1994 391 2212 530 
Q 2431 669 2431 922 
Q 2431 1156 2273 1281 
Q 2116 1406 1581 1522 
L 1381 1569 
Q 847 1681 609 1914 
Q 372 2147 372 2553 
Q 372 3047 722 3315 
Q 1072 3584 1716 3584 
Q 2034 3584 2315 3537 
Q 2597 3491 2834 3397 
z
" id="DejaVuSans-73" transform="scale(0.015625)"/>
      <path d="M 3122 3366 
L 3122 2828 
Q 2878 2963 2633 3030 
Q 2388 3097 2138 3097 
Q 1578 3097 1268 2742 
Q 959 2388 959 1747 
Q 959 1106 1268 751 
Q 1578 397 2138 397 
Q 2388 397 2633 464 
Q 2878 531 3122 666 
L 3122 134 
Q 2881 22 2623 -34 
Q 2366 -91 2075 -91 
Q 1284 -91 818 406 
Q 353 903 353 1747 
Q 353 2603 823 3093 
Q 1294 3584 2113 3584 
Q 2378 3584 2631 3529 
Q 2884 3475 3122 3366 
z
" id="DejaVuSans-63" transform="scale(0.015625)"/>
      <path d="M 2597 2516 
Q 3050 2419 3304 2112 
Q 3559 1806 3559 1356 
Q 3559 666 3084 287 
Q 2609 -91 1734 -91 
Q 1441 -91 1130 -33 
Q 819 25 488 141 
L 488 750 
Q 750 597 1062 519 
Q 1375 441 1716 441 
Q 2309 441 2620 675 
Q 2931 909 2931 1356 
Q 2931 1769 2642 2001 
Q 2353 2234 1838 2234 
L 1294 2234 
L 1294 2753 
L 1863 2753 
Q 2328 2753 2575 2939 
Q 2822 3125 2822 3475 
Q 2822 3834 2567 4026 
Q 2313 4219 1838 4219 
Q 1578 4219 1281 4162 
Q 984 4106 628 3988 
L 628 4550 
Q 988 4650 1302 4700 
Q 1616 4750 1894 4750 
Q 2613 4750 3031 4423 
Q 3450 4097 3450 3541 
Q 3450 3153 3228 2886 
Q 3006 2619 2597 2516 
z
" id="DejaVuSans-33" transform="scale(0.015625)"/>
      <path d="M 794 531 
L 1825 531 
L 1825 4091 
L 703 3866 
L 703 4441 
L 1819 4666 
L 2450 4666 
L 2450 531 
L 3481 531 
L 3481 0 
L 794 0 
L 794 531 
z
" id="DejaVuSans-31" transform="scale(0.015625)"/>
     </defs>
     <use xlink:href="#DejaVuSans-43"/>
     <use x="69.824219" xlink:href="#DejaVuSans-61"/>
     <use x="131.103516" xlink:href="#DejaVuSans-73"/>
     <use x="183.203125" xlink:href="#DejaVuSans-63"/>
     <use x="238.183594" xlink:href="#DejaVuSans-61"/>
     <use x="299.462891" xlink:href="#DejaVuSans-64"/>
     <use x="362.939453" xlink:href="#DejaVuSans-65"/>
     <use x="424.462891" xlink:href="#DejaVuSans-20"/>
     <use x="456.25" xlink:href="#DejaVuSans-33"/>
     <use x="519.873047" xlink:href="#DejaVuSans-31"/>
     <use x="583.496094" xlink:href="#DejaVuSans-2e"/>
     <use x="615.283203" xlink:href="#DejaVuSans-33"/>
     <use x="678.90625" xlink:href="#DejaVuSans-b0"/>
    </g>
   </g>
   <g id="text_6">
    <g id="patch_7">
     <path d="M 19.001318 85.159826 
L 19.912502 70.072316 
L 17.94047 69.953218 
L 17.029286 85.040729 
z
" style="fill:#ffffff;"/>
    </g>
    <!-- Route 66 10.0° -->
    <g style="fill:#008000;" transform="translate(18.567379 85.113583)rotate(-86.543919)scale(0.02 -0.02)">
     <defs>
      <path d="M 1959 3097 
Q 1497 3097 1228 2736 
Q 959 2375 959 1747 
Q 959 1119 1226 758 
Q 1494 397 1959 397 
Q 2419 397 2687 759 
Q 2956 1122 2956 1747 
Q 2956 2369 2687 2733 
Q 2419 3097 1959 3097 
z
M 1959 3584 
Q 2709 3584 3137 3096 
Q 3566 2609 3566 1747 
Q 3566 888 3137 398 
Q 2709 -91 1959 -91 
Q 1206 -91 779 398 
Q 353 888 353 1747 
Q 353 2609 779 3096 
Q 1206 3584 1959 3584 
z
" id="DejaVuSans-6f" transform="scale(0.015625)"/>
      <path d="M 544 1381 
L 544 3500 
L 1119 3500 
L 1119 1403 
Q 1119 906 1312 657 
Q 1506 409 1894 409 
Q 2359 409 2629 706 
Q 2900 1003 2900 1516 
L 2900 3500 
L 3475 3500 
L 3475 0 
L 2900 0 
L 2900 538 
Q 2691 219 2414 64 
Q 2138 -91 1772 -91 
Q 1169 -91 856 284 
Q 544 659 544 1381 
z
M 1991 3584 
L 1991 3584 
z
" id="DejaVuSans-75" transform="scale(0.015625)"/>
      <path d="M 1172 4494 
L 1172 3500 
L 2356 3500 
L 2356 3053 
L 1172 3053 
L 1172 1153 
Q 1172 725 1289 603 
Q 1406 481 1766 481 
L 2356 481 
L 2356 0 
L 1766 0 
Q 1100 0 847 248 
Q 594 497 594 1153 
L 594 3053 
L 172 3053 
L 172 3500 
L 594 3500 
L 594 4494 
L 1172 4494 
z
" id="DejaVuSans-74" transform="scale(0.015625)"/>
      <path d="M 2113 2584 
Q 1688 2584 1439 2293 
Q 1191 2003 1191 1497 
Q 1191 994 1439 701 
Q 1688 409 2113 409 
Q 2538 409 2786 701 
Q 3034 994 3034 1497 
Q 3034 2003 2786 2293 
Q 2538 2584 2113 2584 
z
M 3366 4563 
L 3366 3988 
Q 3128 4100 2886 4159 
Q 2644 4219 2406 4219 
Q 1781 4219 1451 3797 
Q 1122 3375 1075 2522 
Q 1259 2794 1537 2939 
Q 1816 3084 2150 3084 
Q 2853 3084 3261 2657 
Q 3669 2231 3669 1497 
Q 3669 778 3244 343 
Q 2819 -91 2113 -91 
Q 1303 -91 875 529 
Q 447 1150 447 2328 
Q 447 3434 972 4092 
Q 1497 4750 2381 4750 
Q 2619 4750 2861 4703 
Q 3103 4656 3366 4563 
z
" id="DejaVuSans-36" transform="scale(0.015625)"/>
      <path d="M 2034 4250 
Q 1547 4250 1301 3770 
Q 1056 3291 1056 2328 
Q 1056 1369 1301 889 
Q 1547 409 2034 409 
Q 2525 409 2770 889 
Q 3016 1369 3016 2328 
Q 3016 3291 2770 3770 
Q 2525 4250 2034 4250 
z
M 2034 4750 
Q 2819 4750 3233 4129 
Q 3647 3509 3647 2328 
Q 3647 1150 3233 529 
Q 2819 -91 2034 -91 
Q 1250 -91 836 529 
Q 422 1150 422 2328 
Q 422 3509 836 4129 
Q 1250 4750 2034 4750 
z
" id="DejaVuSans-30" transform="scale(0.015625)"/>
     </defs>
     <use xlink:href="#DejaVuSans-52"/>
     <use x="64.982422" xlink:href="#DejaVuSans-6f"/>
     <use x="126.164062" xlink:href="#DejaVuSans-75"/>
     <use x="189.542969" xlink:href="#DejaVuSans-74"/>
     <use x="228.751953" xlink:href="#DejaVuSans-65"/>
     <use x="290.275391" xlink:href="#DejaVuSans-20"/>
     <use x="322.0625" xlink:href="#DejaVuSans-36"/>
     <use x="385.685547" xlink:href="#DejaVuSans-36"/>
     <use x="449.308594" xlink:href="#DejaVuSans-20"/>
     <use x="481.095703" xlink:href="#DejaVuSans-31"/>
     <use x="544.71875" xlink:href="#DejaVuSans-30"/>
     <use x="608.341797" xlink:href="#DejaVuSans-2e"/>
     <use x="640.128906" xlink:href="#DejaVuSans-30"/>
     <use x="703.751953" xlink:href="#DejaVuSans-b0"/>
    </g>
   </g>
   <g id="text_7">
    <g id="patch_8">
     <path d="M 28.149355 92.193013 
L 37.382496 99.795033 
L 38.638244 98.269847 
L 29.405102 90.667827 
z
" style="fill:#ffffff;"/>
    </g>
    <!-- Glade 27.8° -->
    <g transform="translate(28.441885 91.869181)rotate(-320.533991)scale(0.02 -0.02)">
     <defs>
      <path d="M 3809 666 
L 3809 1919 
L 2778 1919 
L 2778 2438 
L 4434 2438 
L 4434 434 
Q 4069 175 3628 42 
Q 3188 -91 2688 -91 
Q 1594 -91 976 548 
Q 359 1188 359 2328 
Q 359 3472 976 4111 
Q 1594 4750 2688 4750 
Q 3144 4750 3555 4637 
Q 3966 4525 4313 4306 
L 4313 3634 
Q 3963 3931 3569 4081 
Q 3175 4231 2741 4231 
Q 1884 4231 1454 3753 
Q 1025 3275 1025 2328 
Q 1025 1384 1454 906 
Q 1884 428 2741 428 
Q 3075 428 3337 486 
Q 3600 544 3809 666 
z
" id="DejaVuSans-47" transform="scale(0.015625)"/>
      <path d="M 603 4863 
L 1178 4863 
L 1178 0 
L 603 0 
L 603 4863 
z
" id="DejaVuSans-6c" transform="scale(0.015625)"/>
     </defs>
     <use xlink:href="#DejaVuSans-47"/>
     <use x="77.490234" xlink:href="#DejaVuSans-6c"/>
     <use x="105.273438" xlink:href="#DejaVuSans-61"/>
     <use x="166.552734" xlink:href="#DejaVuSans-64"/>
     <use x="230.029297" xlink:href="#DejaVuSans-65"/>
     <use x="291.552734" xlink:href="#DejaVuSans-20"/>
     <use x="323.339844" xlink:href="#DejaVuSans-32"/>
     <use x="386.962891" xlink:href="#DejaVuSans-37"/>
     <use x="450.585938" xlink:href="#DejaVuSans-2e"/>
     <use x="482.373047" xlink:href="#DejaVuSans-38"/>
     <use x="545.996094" xlink:href="#DejaVuSans-b0"/>
    </g>
   </g>
   <g id="text_8">
    <g id="patch_9">
     <path d="M 61.232561 116.137133 
L 70.796863 128.310994 
L 72.350387 127.090479 
L 62.786085 114.916618 
z
" style="fill:#ffffff;"/>
    </g>
    <!-- Meadows 17.4° -->
    <g style="fill:#4169e1;" transform="translate(61.587714 115.883543)rotate(-308.154682)scale(0.02 -0.02)">
     <defs>
      <path d="M 628 4666 
L 1569 4666 
L 2759 1491 
L 3956 4666 
L 4897 4666 
L 4897 0 
L 4281 0 
L 4281 4097 
L 3078 897 
L 2444 897 
L 1241 4097 
L 1241 0 
L 628 0 
L 628 4666 
z
" id="DejaVuSans-4d" transform="scale(0.015625)"/>
      <path d="M 269 3500 
L 844 3500 
L 1563 769 
L 2278 3500 
L 2956 3500 
L 3675 769 
L 4391 3500 
L 4966 3500 
L 4050 0 
L 3372 0 
L 2619 2869 
L 1863 0 
L 1184 0 
L 269 3500 
z
" id="DejaVuSans-77" transform="scale(0.015625)"/>
      <path d="M 2419 4116 
L 825 1625 
L 2419 1625 
L 2419 4116 
z
M 2253 4666 
L 3047 4666 
L 3047 1625 
L 3713 1625 
L 3713 1100 
L 3047 1100 
L 3047 0 
L 2419 0 
L 2419 1100 
L 313 1100 
L 313 1709 
L 2253 4666 
z
" id="DejaVuSans-34" transform="scale(0.015625)"/>
     </defs>
     <use xlink:href="#DejaVuSans-4d"/>
     <use x="86.279297" xlink:href="#DejaVuSans-65"/>
     <use x="147.802734" xlink:href="#DejaVuSans-61"/>
     <use x="209.082031" xlink:href="#DejaVuSans-64"/>
     <use x="272.558594" xlink:href="#DejaVuSans-6f"/>
     <use x="333.740234" xlink:href="#DejaVuSans-77"/>
     <use x="415.527344" xlink:href="#DejaVuSans-73"/>
     <use x="467.626953" xlink:href="#DejaVuSans-20"/>
     <use x="499.414062" xlink:href="#DejaVuSans-31"/>
     <use x="563.037109" xlink:href="#DejaVuSans-37"/>
     <use x="626.660156" xlink:href="#DejaVuSans-2e"/>
     <use x="658.447266" xlink:href="#DejaVuSans-34"/>
     <use x="722.070312" xlink:href="#DejaVuSans-b0"/>
    </g>
   </g>
   <g id="text_9">
    <g id="patch_10">
     <path d="M 25.871535 67.120598 
L 39.66356 87.135318 
L 41.290346 86.014309 
L 27.498321 65.999589 
z
" style="fill:#ffffff;"/>
    </g>
    <!-- Upper Main Street 23.6° -->
    <g style="fill:#4169e1;" transform="translate(26.241847 66.889707)rotate(-304.570497)scale(0.02 -0.02)">
     <defs>
      <path d="M 556 4666 
L 1191 4666 
L 1191 1831 
Q 1191 1081 1462 751 
Q 1734 422 2344 422 
Q 2950 422 3222 751 
Q 3494 1081 3494 1831 
L 3494 4666 
L 4128 4666 
L 4128 1753 
Q 4128 841 3676 375 
Q 3225 -91 2344 -91 
Q 1459 -91 1007 375 
Q 556 841 556 1753 
L 556 4666 
z
" id="DejaVuSans-55" transform="scale(0.015625)"/>
      <path d="M 1159 525 
L 1159 -1331 
L 581 -1331 
L 581 3500 
L 1159 3500 
L 1159 2969 
Q 1341 3281 1617 3432 
Q 1894 3584 2278 3584 
Q 2916 3584 3314 3078 
Q 3713 2572 3713 1747 
Q 3713 922 3314 415 
Q 2916 -91 2278 -91 
Q 1894 -91 1617 61 
Q 1341 213 1159 525 
z
M 3116 1747 
Q 3116 2381 2855 2742 
Q 2594 3103 2138 3103 
Q 1681 3103 1420 2742 
Q 1159 2381 1159 1747 
Q 1159 1113 1420 752 
Q 1681 391 2138 391 
Q 2594 391 2855 752 
Q 3116 1113 3116 1747 
z
" id="DejaVuSans-70" transform="scale(0.015625)"/>
      <path d="M 2631 2963 
Q 2534 3019 2420 3045 
Q 2306 3072 2169 3072 
Q 1681 3072 1420 2755 
Q 1159 2438 1159 1844 
L 1159 0 
L 581 0 
L 581 3500 
L 1159 3500 
L 1159 2956 
Q 1341 3275 1631 3429 
Q 1922 3584 2338 3584 
Q 2397 3584 2469 3576 
Q 2541 3569 2628 3553 
L 2631 2963 
z
" id="DejaVuSans-72" transform="scale(0.015625)"/>
      <path d="M 603 3500 
L 1178 3500 
L 1178 0 
L 603 0 
L 603 3500 
z
M 603 4863 
L 1178 4863 
L 1178 4134 
L 603 4134 
L 603 4863 
z
" id="DejaVuSans-69" transform="scale(0.015625)"/>
      <path d="M 3513 2113 
L 3513 0 
L 2938 0 
L 2938 2094 
Q 2938 2591 2744 2837 
Q 2550 3084 2163 3084 
Q 1697 3084 1428 2787 
Q 1159 2491 1159 1978 
L 1159 0 
L 581 0 
L 581 3500 
L 1159 3500 
L 1159 2956 
Q 1366 3272 1645 3428 
Q 1925 3584 2291 3584 
Q 2894 3584 3203 3211 
Q 3513 2838 3513 2113 
z
" id="DejaVuSans-6e" transform="scale(0.015625)"/>
      <path d="M 3425 4513 
L 3425 3897 
Q 3066 4069 2747 4153 
Q 2428 4238 2131 4238 
Q 1616 4238 1336 4038 
Q 1056 3838 1056 3469 
Q 1056 3159 1242 3001 
Q 1428 2844 1947 2747 
L 2328 2669 
Q 3034 2534 3370 2195 
Q 3706 1856 3706 1288 
Q 3706 609 3251 259 
Q 2797 -91 1919 -91 
Q 1588 -91 1214 -16 
Q 841 59 441 206 
L 441 856 
Q 825 641 1194 531 
Q 1563 422 1919 422 
Q 2459 422 2753 634 
Q 3047 847 3047 1241 
Q 3047 1584 2836 1778 
Q 2625 1972 2144 2069 
L 1759 2144 
Q 1053 2284 737 2584 
Q 422 2884 422 3419 
Q 422 4038 858 4394 
Q 1294 4750 2059 4750 
Q 2388 4750 2728 4690 
Q 3069 4631 3425 4513 
z
" id="DejaVuSans-53" transform="scale(0.015625)"/>
     </defs>
     <use xlink:href="#DejaVuSans-55"/>
     <use x="73.193359" xlink:href="#DejaVuSans-70"/>
     <use x="136.669922" xlink:href="#DejaVuSans-70"/>
     <use x="200.146484" xlink:href="#DejaVuSans-65"/>
     <use x="261.669922" xlink:href="#DejaVuSans-72"/>
     <use x="302.783203" xlink:href="#DejaVuSans-20"/>
     <use x="334.570312" xlink:href="#DejaVuSans-4d"/>
     <use x="420.849609" xlink:href="#DejaVuSans-61"/>
     <use x="482.128906" xlink:href="#DejaVuSans-69"/>
     <use x="509.912109" xlink:href="#DejaVuSans-6e"/>
     <use x="573.291016" xlink:href="#DejaVuSans-20"/>
     <use x="605.078125" xlink:href="#DejaVuSans-53"/>
     <use x="668.554688" xlink:href="#DejaVuSans-74"/>
     <use x="707.763672" xlink:href="#DejaVuSans-72"/>
     <use x="746.626953" xlink:href="#DejaVuSans-65"/>
     <use x="808.150391" xlink:href="#DejaVuSans-65"/>
     <use x="869.673828" xlink:href="#DejaVuSans-74"/>
     <use x="908.882812" xlink:href="#DejaVuSans-20"/>
     <use x="940.669922" xlink:href="#DejaVuSans-32"/>
     <use x="1004.292969" xlink:href="#DejaVuSans-33"/>
     <use x="1067.916016" xlink:href="#DejaVuSans-2e"/>
     <use x="1099.703125" xlink:href="#DejaVuSans-36"/>
     <use x="1163.326172" xlink:href="#DejaVuSans-b0"/>
    </g>
   </g>
   <g id="text_10">
    <g id="patch_11">
     <path d="M 65.440142 108.735527 
L 79.435501 128.529808 
L 81.048643 127.389252 
L 67.053283 107.594971 
z
" style="fill:#ffffff;"/>
    </g>
    <!-- Lower Main Street 16.5° -->
    <g style="fill:#008000;" transform="translate(65.807641 108.500185)rotate(-305.26186)scale(0.02 -0.02)">
     <defs>
      <path d="M 628 4666 
L 1259 4666 
L 1259 531 
L 3531 531 
L 3531 0 
L 628 0 
L 628 4666 
z
" id="DejaVuSans-4c" transform="scale(0.015625)"/>
      <path d="M 691 4666 
L 3169 4666 
L 3169 4134 
L 1269 4134 
L 1269 2991 
Q 1406 3038 1543 3061 
Q 1681 3084 1819 3084 
Q 2600 3084 3056 2656 
Q 3513 2228 3513 1497 
Q 3513 744 3044 326 
Q 2575 -91 1722 -91 
Q 1428 -91 1123 -41 
Q 819 9 494 109 
L 494 744 
Q 775 591 1075 516 
Q 1375 441 1709 441 
Q 2250 441 2565 725 
Q 2881 1009 2881 1497 
Q 2881 1984 2565 2268 
Q 2250 2553 1709 2553 
Q 1456 2553 1204 2497 
Q 953 2441 691 2322 
L 691 4666 
z
" id="DejaVuSans-35" transform="scale(0.015625)"/>
     </defs>
     <use xlink:href="#DejaVuSans-4c"/>
     <use x="53.962891" xlink:href="#DejaVuSans-6f"/>
     <use x="115.144531" xlink:href="#DejaVuSans-77"/>
     <use x="196.931641" xlink:href="#DejaVuSans-65"/>
     <use x="258.455078" xlink:href="#DejaVuSans-72"/>
     <use x="299.568359" xlink:href="#DejaVuSans-20"/>
     <use x="331.355469" xlink:href="#DejaVuSans-4d"/>
     <use x="417.634766" xlink:href="#DejaVuSans-61"/>
     <use x="478.914062" xlink:href="#DejaVuSans-69"/>
     <use x="506.697266" xlink:href="#DejaVuSans-6e"/>
     <use x="570.076172" xlink:href="#DejaVuSans-20"/>
     <use x="601.863281" xlink:href="#DejaVuSans-53"/>
     <use x="665.339844" xlink:href="#DejaVuSans-74"/>
     <use x="704.548828" xlink:href="#DejaVuSans-72"/>
     <use x="743.412109" xlink:href="#DejaVuSans-65"/>
     <use x="804.935547" xlink:href="#DejaVuSans-65"/>
     <use x="866.458984" xlink:href="#DejaVuSans-74"/>
     <use x="905.667969" xlink:href="#DejaVuSans-20"/>
     <use x="937.455078" xlink:href="#DejaVuSans-31"/>
     <use x="1001.078125" xlink:href="#DejaVuSans-36"/>
     <use x="1064.701172" xlink:href="#DejaVuSans-2e"/>
     <use x="1096.488281" xlink:href="#DejaVuSans-35"/>
     <use x="1160.111328" xlink:href="#DejaVuSans-b0"/>
    </g>
   </g>
   <g id="text_11">
    <g id="patch_12">
     <path d="M 20.698653 109.037402 
L 33.365976 123.397539 
L 34.847548 122.090619 
L 22.180224 107.730482 
z
" style="fill:#ffffff;"/>
    </g>
    <!-- The Gauntlet 28.2° -->
    <g style="fill:#ff0000;" transform="translate(21.038804 108.764018)rotate(-311.416069)scale(0.02 -0.02)">
     <defs>
      <path d="M -19 4666 
L 3928 4666 
L 3928 4134 
L 2272 4134 
L 2272 0 
L 1638 0 
L 1638 4134 
L -19 4134 
L -19 4666 
z
" id="DejaVuSans-54" transform="scale(0.015625)"/>
      <path d="M 3513 2113 
L 3513 0 
L 2938 0 
L 2938 2094 
Q 2938 2591 2744 2837 
Q 2550 3084 2163 3084 
Q 1697 3084 1428 2787 
Q 1159 2491 1159 1978 
L 1159 0 
L 581 0 
L 581 4863 
L 1159 4863 
L 1159 2956 
Q 1366 3272 1645 3428 
Q 1925 3584 2291 3584 
Q 2894 3584 3203 3211 
Q 3513 2838 3513 2113 
z
" id="DejaVuSans-68" transform="scale(0.015625)"/>
     </defs>
     <use xlink:href="#DejaVuSans-54"/>
     <use x="61.083984" xlink:href="#DejaVuSans-68"/>
     <use x="124.462891" xlink:href="#DejaVuSans-65"/>
     <use x="185.986328" xlink:href="#DejaVuSans-20"/>
     <use x="217.773438" xlink:href="#DejaVuSans-47"/>
     <use x="295.263672" xlink:href="#DejaVuSans-61"/>
     <use x="356.542969" xlink:href="#DejaVuSans-75"/>
     <use x="419.921875" xlink:href="#DejaVuSans-6e"/>
     <use x="483.300781" xlink:href="#DejaVuSans-74"/>
     <use x="522.509766" xlink:href="#DejaVuSans-6c"/>
     <use x="550.292969" xlink:href="#DejaVuSans-65"/>
     <use x="611.816406" xlink:href="#DejaVuSans-74"/>
     <use x="651.025391" xlink:href="#DejaVuSans-20"/>
     <use x="682.8125" xlink:href="#DejaVuSans-32"/>
     <use x="746.435547" xlink:href="#DejaVuSans-38"/>
     <use x="810.058594" xlink:href="#DejaVuSans-2e"/>
     <use x="841.845703" xlink:href="#DejaVuSans-32"/>
     <use x="905.46875" xlink:href="#DejaVuSans-b0"/>
    </g>
   </g>
   <g id="text_12">
    <g id="patch_13">
     <path d="M 94.989777 117.137766 
L 100.673422 129.723274 
L 102.473956 128.910149 
L 96.790311 116.324641 
z
" style="fill:#ffffff;"/>
    </g>
    <!-- Lovejoy 13.8° -->
    <g style="fill:#008000;" transform="translate(95.395311 116.976571)rotate(-294.304047)scale(0.02 -0.02)">
     <defs>
      <path d="M 191 3500 
L 800 3500 
L 1894 563 
L 2988 3500 
L 3597 3500 
L 2284 0 
L 1503 0 
L 191 3500 
z
" id="DejaVuSans-76" transform="scale(0.015625)"/>
      <path d="M 603 3500 
L 1178 3500 
L 1178 -63 
Q 1178 -731 923 -1031 
Q 669 -1331 103 -1331 
L -116 -1331 
L -116 -844 
L 38 -844 
Q 366 -844 484 -692 
Q 603 -541 603 -63 
L 603 3500 
z
M 603 4863 
L 1178 4863 
L 1178 4134 
L 603 4134 
L 603 4863 
z
" id="DejaVuSans-6a" transform="scale(0.015625)"/>
      <path d="M 2059 -325 
Q 1816 -950 1584 -1140 
Q 1353 -1331 966 -1331 
L 506 -1331 
L 506 -850 
L 844 -850 
Q 1081 -850 1212 -737 
Q 1344 -625 1503 -206 
L 1606 56 
L 191 3500 
L 800 3500 
L 1894 763 
L 2988 3500 
L 3597 3500 
L 2059 -325 
z
" id="DejaVuSans-79" transform="scale(0.015625)"/>
     </defs>
     <use xlink:href="#DejaVuSans-4c"/>
     <use x="53.962891" xlink:href="#DejaVuSans-6f"/>
     <use x="115.144531" xlink:href="#DejaVuSans-76"/>
     <use x="174.324219" xlink:href="#DejaVuSans-65"/>
     <use x="235.847656" xlink:href="#DejaVuSans-6a"/>
     <use x="263.630859" xlink:href="#DejaVuSans-6f"/>
     <use x="324.8125" xlink:href="#DejaVuSans-79"/>
     <use x="383.992188" xlink:href="#DejaVuSans-20"/>
     <use x="415.779297" xlink:href="#DejaVuSans-31"/>
     <use x="479.402344" xlink:href="#DejaVuSans-33"/>
     <use x="543.025391" xlink:href="#DejaVuSans-2e"/>
     <use x="574.8125" xlink:href="#DejaVuSans-38"/>
     <use x="638.435547" xlink:href="#DejaVuSans-b0"/>
    </g>
   </g>
   <g id="text_13">
    <g id="patch_14">
     <path d="M 42.383693 66.037666 
L 54.432079 77.528901 
L 55.795611 76.099259 
L 43.747225 64.608024 
z
" style="fill:#ffffff;"/>
    </g>
    <!-- Big Dipper 24.3° -->
    <g transform="translate(42.69904 65.736007)rotate(-316.35586)scale(0.02 -0.02)">
     <defs>
      <path d="M 1259 2228 
L 1259 519 
L 2272 519 
Q 2781 519 3026 730 
Q 3272 941 3272 1375 
Q 3272 1813 3026 2020 
Q 2781 2228 2272 2228 
L 1259 2228 
z
M 1259 4147 
L 1259 2741 
L 2194 2741 
Q 2656 2741 2882 2914 
Q 3109 3088 3109 3444 
Q 3109 3797 2882 3972 
Q 2656 4147 2194 4147 
L 1259 4147 
z
M 628 4666 
L 2241 4666 
Q 2963 4666 3353 4366 
Q 3744 4066 3744 3513 
Q 3744 3084 3544 2831 
Q 3344 2578 2956 2516 
Q 3422 2416 3680 2098 
Q 3938 1781 3938 1306 
Q 3938 681 3513 340 
Q 3088 0 2303 0 
L 628 0 
L 628 4666 
z
" id="DejaVuSans-42" transform="scale(0.015625)"/>
      <path d="M 1259 4147 
L 1259 519 
L 2022 519 
Q 2988 519 3436 956 
Q 3884 1394 3884 2338 
Q 3884 3275 3436 3711 
Q 2988 4147 2022 4147 
L 1259 4147 
z
M 628 4666 
L 1925 4666 
Q 3281 4666 3915 4102 
Q 4550 3538 4550 2338 
Q 4550 1131 3912 565 
Q 3275 0 1925 0 
L 628 0 
L 628 4666 
z
" id="DejaVuSans-44" transform="scale(0.015625)"/>
     </defs>
     <use xlink:href="#DejaVuSans-42"/>
     <use x="68.603516" xlink:href="#DejaVuSans-69"/>
     <use x="96.386719" xlink:href="#DejaVuSans-67"/>
     <use x="159.863281" xlink:href="#DejaVuSans-20"/>
     <use x="191.650391" xlink:href="#DejaVuSans-44"/>
     <use x="268.652344" xlink:href="#DejaVuSans-69"/>
     <use x="296.435547" xlink:href="#DejaVuSans-70"/>
     <use x="359.912109" xlink:href="#DejaVuSans-70"/>
     <use x="423.388672" xlink:href="#DejaVuSans-65"/>
     <use x="484.912109" xlink:href="#DejaVuSans-72"/>
     <use x="526.025391" xlink:href="#DejaVuSans-20"/>
     <use x="557.8125" xlink:href="#DejaVuSans-32"/>
     <use x="621.435547" xlink:href="#DejaVuSans-34"/>
     <use x="685.058594" xlink:href="#DejaVuSans-2e"/>
     <use x="716.845703" xlink:href="#DejaVuSans-33"/>
     <use x="780.46875" xlink:href="#DejaVuSans-b0"/>
    </g>
   </g>
   <g id="text_14">
    <g id="patch_15">
     <path d="M 31.46105 54.097257 
L 42.674934 39.981234 
L 41.12802 38.752352 
L 29.914136 52.868375 
z
" style="fill:#ffffff;"/>
    </g>
    <!-- Sky Coaster 19.2° -->
    <g style="fill:#4169e1;" transform="translate(31.132152 53.810434)rotate(-51.536083)scale(0.02 -0.02)">
     <defs>
      <path d="M 581 4863 
L 1159 4863 
L 1159 1991 
L 2875 3500 
L 3609 3500 
L 1753 1863 
L 3688 0 
L 2938 0 
L 1159 1709 
L 1159 0 
L 581 0 
L 581 4863 
z
" id="DejaVuSans-6b" transform="scale(0.015625)"/>
      <path d="M 703 97 
L 703 672 
Q 941 559 1184 500 
Q 1428 441 1663 441 
Q 2288 441 2617 861 
Q 2947 1281 2994 2138 
Q 2813 1869 2534 1725 
Q 2256 1581 1919 1581 
Q 1219 1581 811 2004 
Q 403 2428 403 3163 
Q 403 3881 828 4315 
Q 1253 4750 1959 4750 
Q 2769 4750 3195 4129 
Q 3622 3509 3622 2328 
Q 3622 1225 3098 567 
Q 2575 -91 1691 -91 
Q 1453 -91 1209 -44 
Q 966 3 703 97 
z
M 1959 2075 
Q 2384 2075 2632 2365 
Q 2881 2656 2881 3163 
Q 2881 3666 2632 3958 
Q 2384 4250 1959 4250 
Q 1534 4250 1286 3958 
Q 1038 3666 1038 3163 
Q 1038 2656 1286 2365 
Q 1534 2075 1959 2075 
z
" id="DejaVuSans-39" transform="scale(0.015625)"/>
     </defs>
     <use xlink:href="#DejaVuSans-53"/>
     <use x="63.476562" xlink:href="#DejaVuSans-6b"/>
     <use x="117.761719" xlink:href="#DejaVuSans-79"/>
     <use x="176.941406" xlink:href="#DejaVuSans-20"/>
     <use x="208.728516" xlink:href="#DejaVuSans-43"/>
     <use x="278.552734" xlink:href="#DejaVuSans-6f"/>
     <use x="339.734375" xlink:href="#DejaVuSans-61"/>
     <use x="401.013672" xlink:href="#DejaVuSans-73"/>
     <use x="453.113281" xlink:href="#DejaVuSans-74"/>
     <use x="492.322266" xlink:href="#DejaVuSans-65"/>
     <use x="553.845703" xlink:href="#DejaVuSans-72"/>
     <use x="594.958984" xlink:href="#DejaVuSans-20"/>
     <use x="626.746094" xlink:href="#DejaVuSans-31"/>
     <use x="690.369141" xlink:href="#DejaVuSans-39"/>
     <use x="753.992188" xlink:href="#DejaVuSans-2e"/>
     <use x="785.779297" xlink:href="#DejaVuSans-32"/>
     <use x="849.402344" xlink:href="#DejaVuSans-b0"/>
    </g>
   </g>
   <g id="text_15">
    <g id="patch_16">
     <path d="M 56.997321 82.004358 
L 57.156083 94.078315 
L 59.131537 94.052339 
L 58.972775 81.978383 
z
" style="fill:#ffffff;"/>
    </g>
    <!-- Chute 15.6° -->
    <g style="fill:#008000;" transform="translate(57.433484 82.018625)rotate(-270.753346)scale(0.02 -0.02)">
     <use xlink:href="#DejaVuSans-43"/>
     <use x="69.824219" xlink:href="#DejaVuSans-68"/>
     <use x="133.203125" xlink:href="#DejaVuSans-75"/>
     <use x="196.582031" xlink:href="#DejaVuSans-74"/>
     <use x="235.791016" xlink:href="#DejaVuSans-65"/>
     <use x="297.314453" xlink:href="#DejaVuSans-20"/>
     <use x="329.101562" xlink:href="#DejaVuSans-31"/>
     <use x="392.724609" xlink:href="#DejaVuSans-35"/>
     <use x="456.347656" xlink:href="#DejaVuSans-2e"/>
     <use x="488.134766" xlink:href="#DejaVuSans-36"/>
     <use x="551.757812" xlink:href="#DejaVuSans-b0"/>
    </g>
   </g>
   <g id="text_16">
    <g id="patch_17">
     <path d="M 55.276479 54.402394 
L 57.303182 35.135886 
L 55.338398 34.929204 
L 53.311695 54.195712 
z
" style="fill:#ffffff;"/>
    </g>
    <!-- Wayne's Way 22.6° -->
    <g style="fill:#4169e1;" transform="translate(54.845026 54.336898)rotate(-83.994965)scale(0.02 -0.02)">
     <defs>
      <path d="M 213 4666 
L 850 4666 
L 1831 722 
L 2809 4666 
L 3519 4666 
L 4500 722 
L 5478 4666 
L 6119 4666 
L 4947 0 
L 4153 0 
L 3169 4050 
L 2175 0 
L 1381 0 
L 213 4666 
z
" id="DejaVuSans-57" transform="scale(0.015625)"/>
      <path d="M 1147 4666 
L 1147 2931 
L 616 2931 
L 616 4666 
L 1147 4666 
z
" id="DejaVuSans-27" transform="scale(0.015625)"/>
     </defs>
     <use xlink:href="#DejaVuSans-57"/>
     <use x="92.501953" xlink:href="#DejaVuSans-61"/>
     <use x="153.78125" xlink:href="#DejaVuSans-79"/>
     <use x="212.960938" xlink:href="#DejaVuSans-6e"/>
     <use x="276.339844" xlink:href="#DejaVuSans-65"/>
     <use x="337.863281" xlink:href="#DejaVuSans-27"/>
     <use x="365.353516" xlink:href="#DejaVuSans-73"/>
     <use x="417.453125" xlink:href="#DejaVuSans-20"/>
     <use x="449.240234" xlink:href="#DejaVuSans-57"/>
     <use x="541.742188" xlink:href="#DejaVuSans-61"/>
     <use x="603.021484" xlink:href="#DejaVuSans-79"/>
     <use x="662.201172" xlink:href="#DejaVuSans-20"/>
     <use x="693.988281" xlink:href="#DejaVuSans-32"/>
     <use x="757.611328" xlink:href="#DejaVuSans-32"/>
     <use x="821.234375" xlink:href="#DejaVuSans-2e"/>
     <use x="853.021484" xlink:href="#DejaVuSans-36"/>
     <use x="916.644531" xlink:href="#DejaVuSans-b0"/>
    </g>
   </g>
   <g id="text_17">
    <g id="patch_18">
     <path d="M 37.29594 48.183456 
L 47.465478 56.326706 
L 48.700346 54.784566 
L 38.530808 46.641316 
z
" style="fill:#ffffff;"/>
    </g>
    <!-- Bumps 25.0° -->
    <g transform="translate(37.584035 47.855671)rotate(-321.314023)scale(0.02 -0.02)">
     <defs>
      <path d="M 3328 2828 
Q 3544 3216 3844 3400 
Q 4144 3584 4550 3584 
Q 5097 3584 5394 3201 
Q 5691 2819 5691 2113 
L 5691 0 
L 5113 0 
L 5113 2094 
Q 5113 2597 4934 2840 
Q 4756 3084 4391 3084 
Q 3944 3084 3684 2787 
Q 3425 2491 3425 1978 
L 3425 0 
L 2847 0 
L 2847 2094 
Q 2847 2600 2669 2842 
Q 2491 3084 2119 3084 
Q 1678 3084 1418 2786 
Q 1159 2488 1159 1978 
L 1159 0 
L 581 0 
L 581 3500 
L 1159 3500 
L 1159 2956 
Q 1356 3278 1631 3431 
Q 1906 3584 2284 3584 
Q 2666 3584 2933 3390 
Q 3200 3197 3328 2828 
z
" id="DejaVuSans-6d" transform="scale(0.015625)"/>
     </defs>
     <use xlink:href="#DejaVuSans-42"/>
     <use x="68.603516" xlink:href="#DejaVuSans-75"/>
     <use x="131.982422" xlink:href="#DejaVuSans-6d"/>
     <use x="229.394531" xlink:href="#DejaVuSans-70"/>
     <use x="292.871094" xlink:href="#DejaVuSans-73"/>
     <use x="344.970703" xlink:href="#DejaVuSans-20"/>
     <use x="376.757812" xlink:href="#DejaVuSans-32"/>
     <use x="440.380859" xlink:href="#DejaVuSans-35"/>
     <use x="504.003906" xlink:href="#DejaVuSans-2e"/>
     <use x="535.791016" xlink:href="#DejaVuSans-30"/>
     <use x="599.414062" xlink:href="#DejaVuSans-b0"/>
    </g>
   </g>
   <g id="text_18">
    <g id="patch_19">
     <path d="M 34.339484 61.752859 
L 44.153623 53.220776 
L 42.857429 51.729812 
L 33.04329 60.261895 
z
" style="fill:#ffffff;"/>
    </g>
    <!-- Joyride 15.6° -->
    <g style="fill:#008000;" transform="translate(34.068562 61.410744)rotate(-41.002601)scale(0.02 -0.02)">
     <defs>
      <path d="M 628 4666 
L 1259 4666 
L 1259 325 
Q 1259 -519 939 -900 
Q 619 -1281 -91 -1281 
L -331 -1281 
L -331 -750 
L -134 -750 
Q 284 -750 456 -515 
Q 628 -281 628 325 
L 628 4666 
z
" id="DejaVuSans-4a" transform="scale(0.015625)"/>
     </defs>
     <use xlink:href="#DejaVuSans-4a"/>
     <use x="29.492188" xlink:href="#DejaVuSans-6f"/>
     <use x="90.673828" xlink:href="#DejaVuSans-79"/>
     <use x="149.853516" xlink:href="#DejaVuSans-72"/>
     <use x="190.966797" xlink:href="#DejaVuSans-69"/>
     <use x="218.75" xlink:href="#DejaVuSans-64"/>
     <use x="282.226562" xlink:href="#DejaVuSans-65"/>
     <use x="343.75" xlink:href="#DejaVuSans-20"/>
     <use x="375.537109" xlink:href="#DejaVuSans-31"/>
     <use x="439.160156" xlink:href="#DejaVuSans-35"/>
     <use x="502.783203" xlink:href="#DejaVuSans-2e"/>
     <use x="534.570312" xlink:href="#DejaVuSans-36"/>
     <use x="598.193359" xlink:href="#DejaVuSans-b0"/>
    </g>
   </g>
   <g id="text_19">
    <g id="patch_20">
     <path d="M 88.076778 108.499031 
L 93.472522 127.17911 
L 95.370553 126.630864 
L 89.974808 107.950784 
z
" style="fill:#ffffff;"/>
    </g>
    <!-- Lower Dipper 18.8° -->
    <g style="fill:#4169e1;" transform="translate(88.501144 108.39727)rotate(-286.111371)scale(0.02 -0.02)">
     <use xlink:href="#DejaVuSans-4c"/>
     <use x="53.962891" xlink:href="#DejaVuSans-6f"/>
     <use x="115.144531" xlink:href="#DejaVuSans-77"/>
     <use x="196.931641" xlink:href="#DejaVuSans-65"/>
     <use x="258.455078" xlink:href="#DejaVuSans-72"/>
     <use x="299.568359" xlink:href="#DejaVuSans-20"/>
     <use x="331.355469" xlink:href="#DejaVuSans-44"/>
     <use x="408.357422" xlink:href="#DejaVuSans-69"/>
     <use x="436.140625" xlink:href="#DejaVuSans-70"/>
     <use x="499.617188" xlink:href="#DejaVuSans-70"/>
     <use x="563.09375" xlink:href="#DejaVuSans-65"/>
     <use x="624.617188" xlink:href="#DejaVuSans-72"/>
     <use x="665.730469" xlink:href="#DejaVuSans-20"/>
     <use x="697.517578" xlink:href="#DejaVuSans-31"/>
     <use x="761.140625" xlink:href="#DejaVuSans-38"/>
     <use x="824.763672" xlink:href="#DejaVuSans-2e"/>
     <use x="856.550781" xlink:href="#DejaVuSans-38"/>
     <use x="920.173828" xlink:href="#DejaVuSans-b0"/>
    </g>
   </g>
   <g id="text_20">
    <g id="patch_21">
     <path d="M 76.739139 103.431742 
L 85.734188 119.287675 
L 87.452559 118.312845 
L 78.457511 102.456912 
z
" style="fill:#ffffff;"/>
    </g>
    <!-- Seven Turns 15.7° -->
    <g style="fill:#008000;" transform="translate(77.12818 103.234033)rotate(-299.56618)scale(0.02 -0.02)">
     <use xlink:href="#DejaVuSans-53"/>
     <use x="63.476562" xlink:href="#DejaVuSans-65"/>
     <use x="125" xlink:href="#DejaVuSans-76"/>
     <use x="184.179688" xlink:href="#DejaVuSans-65"/>
     <use x="245.703125" xlink:href="#DejaVuSans-6e"/>
     <use x="309.082031" xlink:href="#DejaVuSans-20"/>
     <use x="340.869141" xlink:href="#DejaVuSans-54"/>
     <use x="386.828125" xlink:href="#DejaVuSans-75"/>
     <use x="450.207031" xlink:href="#DejaVuSans-72"/>
     <use x="489.570312" xlink:href="#DejaVuSans-6e"/>
     <use x="552.949219" xlink:href="#DejaVuSans-73"/>
     <use x="605.048828" xlink:href="#DejaVuSans-20"/>
     <use x="636.835938" xlink:href="#DejaVuSans-31"/>
     <use x="700.458984" xlink:href="#DejaVuSans-35"/>
     <use x="764.082031" xlink:href="#DejaVuSans-2e"/>
     <use x="795.869141" xlink:href="#DejaVuSans-37"/>
     <use x="859.492188" xlink:href="#DejaVuSans-b0"/>
    </g>
   </g>
   <g id="text_21">
    <!-- Hunt Hollow -->
    <g transform="translate(33.407614 8.398743)scale(0.08 -0.08)">
     <defs>
      <path d="M 628 4666 
L 1259 4666 
L 1259 2753 
L 3553 2753 
L 3553 4666 
L 4184 4666 
L 4184 0 
L 3553 0 
L 3553 2222 
L 1259 2222 
L 1259 0 
L 628 0 
L 628 4666 
z
" id="DejaVuSans-48" transform="scale(0.015625)"/>
     </defs>
     <use xlink:href="#DejaVuSans-48"/>
     <use x="75.195312" xlink:href="#DejaVuSans-75"/>
     <use x="138.574219" xlink:href="#DejaVuSans-6e"/>
     <use x="201.953125" xlink:href="#DejaVuSans-74"/>
     <use x="241.162109" xlink:href="#DejaVuSans-20"/>
     <use x="272.949219" xlink:href="#DejaVuSans-48"/>
     <use x="348.144531" xlink:href="#DejaVuSans-6f"/>
     <use x="409.326172" xlink:href="#DejaVuSans-6c"/>
     <use x="437.109375" xlink:href="#DejaVuSans-6c"/>
     <use x="464.892578" xlink:href="#DejaVuSans-6f"/>
     <use x="526.074219" xlink:href="#DejaVuSans-77"/>
    </g>
   </g>
   <g id="legend_1">
    <g id="line2d_32">
     <path d="M 1.720426 148.948251 
L 9.720426 148.948251 
" style="fill:none;stroke:#008000;stroke-linecap:square;stroke-width:1.5;"/>
    </g>
    <g id="line2d_33"/>
    <g id="text_22">
     <!-- Easy -->
     <g transform="translate(12.920426 150.348251)scale(0.04 -0.04)">
      <use xlink:href="#DejaVuSans-45"/>
      <use x="63.183594" xlink:href="#DejaVuSans-61"/>
      <use x="124.462891" xlink:href="#DejaVuSans-73"/>
      <use x="176.5625" xlink:href="#DejaVuSans-79"/>
     </g>
    </g>
    <g id="line2d_34">
     <path d="M 1.720426 154.819501 
L 9.720426 154.819501 
" style="fill:none;stroke:#4169e1;stroke-linecap:square;stroke-width:1.5;"/>
    </g>
    <g id="line2d_35"/>
    <g id="text_23">
     <!-- Intermediate -->
     <g transform="translate(12.920426 156.219501)scale(0.04 -0.04)">
      <defs>
       <path d="M 628 4666 
L 1259 4666 
L 1259 0 
L 628 0 
L 628 4666 
z
" id="DejaVuSans-49" transform="scale(0.015625)"/>
      </defs>
      <use xlink:href="#DejaVuSans-49"/>
      <use x="29.492188" xlink:href="#DejaVuSans-6e"/>
      <use x="92.871094" xlink:href="#DejaVuSans-74"/>
      <use x="132.080078" xlink:href="#DejaVuSans-65"/>
      <use x="193.603516" xlink:href="#DejaVuSans-72"/>
      <use x="232.966797" xlink:href="#DejaVuSans-6d"/>
      <use x="330.378906" xlink:href="#DejaVuSans-65"/>
      <use x="391.902344" xlink:href="#DejaVuSans-64"/>
      <use x="455.378906" xlink:href="#DejaVuSans-69"/>
      <use x="483.162109" xlink:href="#DejaVuSans-61"/>
      <use x="544.441406" xlink:href="#DejaVuSans-74"/>
      <use x="583.650391" xlink:href="#DejaVuSans-65"/>
     </g>
    </g>
    <g id="line2d_36">
     <path d="M 46.727926 148.948251 
L 54.727926 148.948251 
" style="fill:none;stroke:#000000;stroke-linecap:square;stroke-width:1.5;"/>
    </g>
    <g id="line2d_37"/>
    <g id="text_24">
     <!-- Advanced -->
     <g transform="translate(57.927926 150.348251)scale(0.04 -0.04)">
      <defs>
       <path d="M 2188 4044 
L 1331 1722 
L 3047 1722 
L 2188 4044 
z
M 1831 4666 
L 2547 4666 
L 4325 0 
L 3669 0 
L 3244 1197 
L 1141 1197 
L 716 0 
L 50 0 
L 1831 4666 
z
" id="DejaVuSans-41" transform="scale(0.015625)"/>
      </defs>
      <use xlink:href="#DejaVuSans-41"/>
      <use x="66.658203" xlink:href="#DejaVuSans-64"/>
      <use x="130.134766" xlink:href="#DejaVuSans-76"/>
      <use x="189.314453" xlink:href="#DejaVuSans-61"/>
      <use x="250.59375" xlink:href="#DejaVuSans-6e"/>
      <use x="313.972656" xlink:href="#DejaVuSans-63"/>
      <use x="368.953125" xlink:href="#DejaVuSans-65"/>
      <use x="430.476562" xlink:href="#DejaVuSans-64"/>
     </g>
    </g>
    <g id="line2d_38">
     <path d="M 46.727926 154.819501 
L 54.727926 154.819501 
" style="fill:none;stroke:#ff0000;stroke-linecap:square;stroke-width:1.5;"/>
    </g>
    <g id="line2d_39"/>
    <g id="text_25">
     <!-- Expert -->
     <g transform="translate(57.927926 156.219501)scale(0.04 -0.04)">
      <defs>
       <path d="M 3513 3500 
L 2247 1797 
L 3578 0 
L 2900 0 
L 1881 1375 
L 863 0 
L 184 0 
L 1544 1831 
L 300 3500 
L 978 3500 
L 1906 2253 
L 2834 3500 
L 3513 3500 
z
" id="DejaVuSans-78" transform="scale(0.015625)"/>
      </defs>
      <use xlink:href="#DejaVuSans-45"/>
      <use x="63.183594" xlink:href="#DejaVuSans-78"/>
      <use x="122.363281" xlink:href="#DejaVuSans-70"/>
      <use x="185.839844" xlink:href="#DejaVuSans-65"/>
      <use x="247.363281" xlink:href="#DejaVuSans-72"/>
      <use x="288.476562" xlink:href="#DejaVuSans-74"/>
     </g>
    </g>
    <g id="line2d_40">
     <path d="M 85.687301 148.948251 
L 93.687301 148.948251 
" style="fill:none;stroke:#ffd700;stroke-linecap:square;stroke-width:1.5;"/>
    </g>
    <g id="line2d_41"/>
    <g id="text_26">
     <!-- Extreme -->
     <g transform="translate(96.887301 150.348251)scale(0.04 -0.04)">
      <use xlink:href="#DejaVuSans-45"/>
      <use x="63.183594" xlink:href="#DejaVuSans-78"/>
      <use x="122.363281" xlink:href="#DejaVuSans-74"/>
      <use x="161.572266" xlink:href="#DejaVuSans-72"/>
      <use x="200.435547" xlink:href="#DejaVuSans-65"/>
      <use x="261.958984" xlink:href="#DejaVuSans-6d"/>
      <use x="359.371094" xlink:href="#DejaVuSans-65"/>
     </g>
    </g>
    <g id="line2d_42">
     <path d="M 85.687301 154.819501 
L 93.687301 154.819501 
" style="fill:none;stroke:#000000;stroke-dasharray:1.5,2.475;stroke-dashoffset:0;stroke-width:1.5;"/>
    </g>
    <g id="line2d_43"/>
    <g id="text_27">
     <!-- Gladed -->
     <g transform="translate(96.887301 156.219501)scale(0.04 -0.04)">
      <use xlink:href="#DejaVuSans-47"/>
      <use x="77.490234" xlink:href="#DejaVuSans-6c"/>
      <use x="105.273438" xlink:href="#DejaVuSans-61"/>
      <use x="166.552734" xlink:href="#DejaVuSans-64"/>
      <use x="230.029297" xlink:href="#DejaVuSans-65"/>
      <use x="291.552734" xlink:href="#DejaVuSans-64"/>
     </g>
    </g>
   </g>
  </g>
  <g id="text_28">
   <!-- Sources: USGS and OpenStreetMaps -->
   <g transform="translate(25.993456 161.819554)scale(0.034783 -0.034783)">
    <defs>
     <path d="M 750 794 
L 1409 794 
L 1409 0 
L 750 0 
L 750 794 
z
M 750 3309 
L 1409 3309 
L 1409 2516 
L 750 2516 
L 750 3309 
z
" id="DejaVuSans-3a" transform="scale(0.015625)"/>
     <path d="M 2522 4238 
Q 1834 4238 1429 3725 
Q 1025 3213 1025 2328 
Q 1025 1447 1429 934 
Q 1834 422 2522 422 
Q 3209 422 3611 934 
Q 4013 1447 4013 2328 
Q 4013 3213 3611 3725 
Q 3209 4238 2522 4238 
z
M 2522 4750 
Q 3503 4750 4090 4092 
Q 4678 3434 4678 2328 
Q 4678 1225 4090 567 
Q 3503 -91 2522 -91 
Q 1538 -91 948 565 
Q 359 1222 359 2328 
Q 359 3434 948 4092 
Q 1538 4750 2522 4750 
z
" id="DejaVuSans-4f" transform="scale(0.015625)"/>
    </defs>
    <use xlink:href="#DejaVuSans-53"/>
    <use x="63.476562" xlink:href="#DejaVuSans-6f"/>
    <use x="124.658203" xlink:href="#DejaVuSans-75"/>
    <use x="188.037109" xlink:href="#DejaVuSans-72"/>
    <use x="226.900391" xlink:href="#DejaVuSans-63"/>
    <use x="281.880859" xlink:href="#DejaVuSans-65"/>
    <use x="343.404297" xlink:href="#DejaVuSans-73"/>
    <use x="395.503906" xlink:href="#DejaVuSans-3a"/>
    <use x="429.195312" xlink:href="#DejaVuSans-20"/>
    <use x="460.982422" xlink:href="#DejaVuSans-55"/>
    <use x="534.175781" xlink:href="#DejaVuSans-53"/>
    <use x="597.652344" xlink:href="#DejaVuSans-47"/>
    <use x="675.142578" xlink:href="#DejaVuSans-53"/>
    <use x="738.619141" xlink:href="#DejaVuSans-20"/>
    <use x="770.40625" xlink:href="#DejaVuSans-61"/>
    <use x="831.685547" xlink:href="#DejaVuSans-6e"/>
    <use x="895.064453" xlink:href="#DejaVuSans-64"/>
    <use x="958.541016" xlink:href="#DejaVuSans-20"/>
    <use x="990.328125" xlink:href="#DejaVuSans-4f"/>
    <use x="1069.039062" xlink:href="#DejaVuSans-70"/>
    <use x="1132.515625" xlink:href="#DejaVuSans-65"/>
    <use x="1194.039062" xlink:href="#DejaVuSans-6e"/>
    <use x="1257.417969" xlink:href="#DejaVuSans-53"/>
    <use x="1320.894531" xlink:href="#DejaVuSans-74"/>
    <use x="1360.103516" xlink:href="#DejaVuSans-72"/>
    <use x="1398.966797" xlink:href="#DejaVuSans-65"/>
    <use x="1460.490234" xlink:href="#DejaVuSans-65"/>
    <use x="1522.013672" xlink:href="#DejaVuSans-74"/>
    <use x="1561.222656" xlink:href="#DejaVuSans-4d"/>
    <use x="1647.501953" xlink:href="#DejaVuSans-61"/>
    <use x="1708.78125" xlink:href="#DejaVuSans-70"/>
    <use x="1772.257812" xlink:href="#DejaVuSans-73"/>
   </g>
  </g>
 </g>
 <defs>
  <clipPath id="p0167978d90">
   <rect height="137.745437" width="115.443978" x="0" y="12.398743"/>
  </clipPath>
 </defs>
</svg>
