<?xml version="1.0" encoding="utf-8" standalone="no"?>
<!DOCTYPE svg PUBLIC "-//W3C//DTD SVG 1.1//EN"
  "http://www.w3.org/Graphics/SVG/1.1/DTD/svg11.dtd">
<svg height="153.994316pt" version="1.1" viewBox="0 0 132.807997 153.994316" width="132.807997pt" xmlns="http://www.w3.org/2000/svg" xmlns:xlink="http://www.w3.org/1999/xlink">
 <metadata>
  <rdf:RDF xmlns:cc="http://creativecommons.org/ns#" xmlns:dc="http://purl.org/dc/elements/1.1/" xmlns:rdf="http://www.w3.org/1999/02/22-rdf-syntax-ns#">
   <cc:Work>
    <dc:type rdf:resource="http://purl.org/dc/dcmitype/StillImage"/>
    <dc:date>2022-04-14T21:29:39.936954</dc:date>
    <dc:format>image/svg+xml</dc:format>
    <dc:creator>
     <cc:Agent>
      <dc:title>Matplotlib v3.4.3, https://matplotlib.org/</dc:title>
     </cc:Agent>
    </dc:creator>
   </cc:Work>
  </rdf:RDF>
 </metadata>
 <defs>
  <style type="text/css">*{stroke-linecap:butt;stroke-linejoin:round;}</style>
 </defs>
 <g id="figure_1">
  <g id="patch_1">
   <path d="M 0 153.994316 
L 132.807997 153.994316 
L 132.807997 0 
L 0 0 
z
" style="fill:#ffffff;"/>
  </g>
  <g id="axes_1">
   <g id="line2d_1">
    <path clip-path="url(#pacc8b3b2c6)" d="M 115.23942 34.93567 
" style="fill:none;stroke:#008000;stroke-linecap:square;stroke-width:1.5;"/>
   </g>
   <g id="line2d_2">
    <path clip-path="url(#pacc8b3b2c6)" d="M 115.23942 34.93567 
" style="fill:none;stroke:#4169e1;stroke-linecap:square;stroke-width:1.5;"/>
   </g>
   <g id="line2d_3">
    <path clip-path="url(#pacc8b3b2c6)" d="M 115.23942 34.93567 
" style="fill:none;stroke:#000000;stroke-linecap:square;stroke-width:1.5;"/>
   </g>
   <g id="line2d_4">
    <path clip-path="url(#pacc8b3b2c6)" d="M 115.23942 34.93567 
" style="fill:none;stroke:#ff0000;stroke-linecap:square;stroke-width:1.5;"/>
   </g>
   <g id="line2d_5">
    <path clip-path="url(#pacc8b3b2c6)" d="M 115.23942 34.93567 
" style="fill:none;stroke:#ffd700;stroke-linecap:square;stroke-width:1.5;"/>
   </g>
   <g id="line2d_6">
    <path clip-path="url(#pacc8b3b2c6)" d="M 115.23942 34.93567 
" style="fill:none;stroke:#000000;stroke-dasharray:1.5,2.475;stroke-dashoffset:0;stroke-width:1.5;"/>
   </g>
   <g id="line2d_7">
    <path clip-path="url(#pacc8b3b2c6)" d="M 107.511304 68.878575 
L 107.17568 64.631426 
L 106.793442 59.793562 
L 106.411204 54.955698 
L 106.081613 50.780693 
L 105.752022 46.605687 
L 105.395559 42.094252 
L 105.039096 37.582817 
" style="fill:none;stroke:#808080;stroke-linecap:square;stroke-width:1.5;"/>
   </g>
   <g id="line2d_8">
    <path clip-path="url(#pacc8b3b2c6)" d="M 91.662413 38.051389 
L 91.455117 44.162826 
L 91.240142 50.510692 
L 91.025167 56.858558 
L 90.798128 62.547852 
L 90.571088 68.237146 
L 90.372566 74.285725 
L 90.175689 80.271448 
L 89.978812 86.257171 
L 89.795096 91.866464 
L 89.611381 97.475758 
L 89.436988 102.789337 
L 89.262595 108.102915 
L 89.090396 113.336494 
L 88.918197 118.570073 
L 88.762999 123.301508 
L 88.6078 128.032943 
L 88.410375 134.055809 
" style="fill:none;stroke:#808080;stroke-linecap:square;stroke-width:1.5;"/>
   </g>
   <g id="line2d_9">
    <path clip-path="url(#pacc8b3b2c6)" d="M 74.154051 41.355679 
L 73.882042 44.910684 
L 73.610034 48.465689 
L 73.194343 53.898554 
L 72.778653 59.331419 
L 72.430416 63.880711 
L 72.082179 68.430003 
L 71.78604 72.30858 
L 71.40106 77.342873 
L 71.057211 81.837165 
L 70.713361 86.331456 
L 70.296574 91.777178 
L 69.993306 95.738612 
L 69.690038 99.700047 
L 69.420772 103.219337 
L 69.151505 106.738628 
L 68.838915 110.825062 
L 68.526324 114.911496 
L 68.260074 118.390787 
L 67.993823 121.870078 
L 67.727573 125.349368 
L 67.461322 128.828659 
" style="fill:none;stroke:#808080;stroke-linecap:square;stroke-width:1.5;"/>
   </g>
   <g id="line2d_10">
    <path clip-path="url(#pacc8b3b2c6)" d="M 90.561217 37.79996 
L 90.344049 43.995683 
L 90.119752 50.384263 
L 89.895454 56.772844 
L 89.690351 62.615709 
L 89.485248 68.458574 
L 89.280144 74.302868 
L 89.071202 80.265019 
L 88.86226 86.227171 
L 88.665931 91.814321 
L 88.469602 97.401472 
L 88.282596 102.730765 
L 88.095591 108.060058 
L 87.914617 113.217208 
L 87.733644 118.374358 
L 87.564735 123.182936 
L 87.395826 127.991515 
L 87.180852 134.130095 
" style="fill:none;stroke:#808080;stroke-linecap:square;stroke-width:1.5;"/>
   </g>
   <g id="line2d_11">
    <path clip-path="url(#pacc8b3b2c6)" d="M 21.852713 24.557085 
L 22.227822 28.929948 
L 22.764161 35.169242 
L 23.300501 41.408537 
L 23.608293 44.992113 
L 23.916085 48.57569 
L 24.223877 52.159266 
L 24.531669 55.742842 
L 24.839461 59.326419 
L 25.147253 62.909995 
L 25.455045 66.493572 
L 25.762837 70.077148 
L 26.262982 75.899299 
L 26.763127 81.72145 
L 27.263272 87.543601 
L 27.763417 93.365752 
L 28.243271 98.954331 
L 28.723125 104.54291 
L 29.062587 108.494702 
L 29.40205 112.446493 
L 29.741512 116.398284 
L 30.080974 120.350075 
L 30.379855 123.827937 
L 30.678735 127.305799 
" style="fill:none;stroke:#808080;stroke-linecap:square;stroke-width:1.5;"/>
   </g>
   <g id="line2d_12">
    <path clip-path="url(#pacc8b3b2c6)" d="M 72.88614 41.07425 
L 72.609196 44.79497 
L 72.332251 48.515689 
L 71.932464 53.88284 
L 71.532678 59.24999 
L 71.193215 63.809282 
L 70.853753 68.368574 
L 70.570776 72.17858 
L 70.189087 77.307158 
L 69.852915 81.818593 
L 69.516743 86.330028 
L 69.113117 91.757178 
L 68.818075 95.717898 
L 68.523034 99.678618 
L 68.256509 103.257194 
L 67.989984 106.835771 
L 67.705362 110.657205 
L 67.420741 114.478639 
L 67.155587 118.040786 
L 66.890433 121.602934 
L 66.62528 125.165082 
L 66.360126 128.72723 
" style="fill:none;stroke:#808080;stroke-linecap:square;stroke-width:1.5;"/>
   </g>
   <g id="line2d_13">
    <path clip-path="url(#pacc8b3b2c6)" d="M 89.008136 40.652821 
L 88.427924 37.371388 
" style="fill:none;stroke:#808080;stroke-linecap:square;stroke-width:1.5;"/>
   </g>
   <g id="line2d_14">
    <path clip-path="url(#pacc8b3b2c6)" d="M 23.29392 24.21137 
L 23.681094 28.748519 
L 24.219627 35.052099 
L 24.75816 41.355679 
L 25.161512 46.076043 
L 25.564863 50.796407 
L 25.968215 55.516771 
L 26.371566 60.237134 
L 26.791096 65.147855 
L 27.210625 70.058577 
L 27.708851 75.893942 
L 28.207076 81.729307 
L 28.705302 87.564672 
L 29.203527 93.400038 
L 29.671865 98.882903 
L 30.140202 104.365767 
L 30.476648 108.302559 
L 30.813094 112.23935 
L 31.149541 116.176141 
L 31.485987 120.112932 
L 31.788158 123.651509 
L 32.090329 127.190085 
" style="fill:none;stroke:#808080;stroke-linecap:square;stroke-width:1.5;"/>
   </g>
   <g id="line2d_15">
    <path clip-path="url(#pacc8b3b2c6)" d="M 112.511656 34.868528 
L 113.975896 39.74282 
L 115.115481 43.537111 
L 116.255065 47.331402 
L 117.292647 50.787121 
L 118.330228 54.24284 
L 119.273209 57.38213 
L 120.216191 60.52142 
L 121.159173 63.660711 
L 122.102154 66.800001 
" style="fill:none;stroke:#808080;stroke-linecap:square;stroke-width:1.5;"/>
   </g>
   <g id="line2d_16">
    <path clip-path="url(#pacc8b3b2c6)" d="M 50.496977 125.577226 
L 50.889498 121.327934 
L 51.282018 117.078642 
L 51.674539 112.829351 
L 52.06706 108.580059 
L 52.45958 104.330767 
L 52.852101 100.081476 
L 53.244621 95.832184 
L 53.637142 91.582892 
L 53.985927 87.81003 
L 54.334712 84.037168 
L 54.826083 78.716446 
L 55.317453 73.395724 
L 55.648964 69.806791 
L 55.980474 66.217857 
L 56.311985 62.628923 
L 56.643495 59.03999 
L 56.975006 55.451056 
L 57.306516 51.862123 
L 57.638027 48.273189 
L 57.969537 44.684256 
" style="fill:none;stroke:#808080;stroke-linecap:square;stroke-width:1.5;"/>
   </g>
   <g id="line2d_17">
    <path clip-path="url(#pacc8b3b2c6)" d="M 115.23942 34.93567 
L 115.544641 35.949734 
L 115.849863 36.963798 
L 116.155084 37.977862 
L 116.460306 38.991926 
L 116.765527 40.00599 
L 117.070748 41.020054 
L 117.37597 42.034118 
L 117.681191 43.048182 
L 117.986413 44.062246 
L 118.291634 45.07631 
L 118.596855 46.090374 
L 118.902077 47.104437 
L 119.207298 48.118501 
L 119.512519 49.132565 
L 119.817741 50.146629 
L 120.122962 51.160693 
L 120.428184 52.174757 
L 120.733405 53.188821 
L 121.038626 54.202885 
L 121.343848 55.216949 
L 121.649069 56.231013 
L 121.954291 57.245077 
L 122.259512 58.259141 
L 122.564733 59.273204 
L 122.869955 60.287268 
L 123.175176 61.301332 
L 123.480397 62.315396 
L 123.785619 63.32946 
L 124.09084 64.343524 
L 124.396062 65.357588 
L 124.701283 66.371652 
L 125.006504 67.385716 
" style="fill:none;stroke:#008000;stroke-linecap:square;stroke-width:1.5;"/>
   </g>
   <g id="line2d_18">
    <path clip-path="url(#pacc8b3b2c6)" d="M 87.173174 41.287108 
L 86.982055 40.189964 
L 86.790936 39.092819 
L 86.599817 37.995675 
L 86.408698 36.89853 
" style="fill:none;stroke:#008000;stroke-linecap:square;stroke-width:1.5;"/>
   </g>
   <g id="line2d_19">
    <path clip-path="url(#pacc8b3b2c6)" d="M 109.061095 34.127098 
L 109.248649 35.114108 
L 109.436204 36.101119 
L 109.623758 37.088129 
L 109.811312 38.075139 
L 109.998867 39.062149 
L 110.186421 40.04916 
L 110.373975 41.03617 
L 110.56153 42.02318 
L 110.749084 43.010191 
L 110.936638 43.997201 
L 111.124193 44.984211 
L 111.311747 45.971222 
L 111.499301 46.958232 
L 111.686856 47.945242 
L 111.87441 48.932253 
L 112.061964 49.919263 
L 112.249519 50.906273 
L 112.437073 51.893283 
L 112.624627 52.880294 
L 112.812182 53.867304 
L 112.999736 54.854314 
L 113.18729 55.841325 
L 113.374845 56.828335 
L 113.562399 57.815345 
L 113.749953 58.802356 
L 113.937508 59.789366 
L 114.125062 60.776376 
L 114.312616 61.763386 
L 114.500171 62.750397 
L 114.687725 63.737407 
L 114.875279 64.724417 
L 115.062834 65.711428 
" style="fill:none;stroke:#008000;stroke-linecap:square;stroke-width:1.5;"/>
   </g>
   <g id="line2d_20">
    <path clip-path="url(#pacc8b3b2c6)" d="M 101.824349 34.127098 
L 101.872163 35.148394 
L 101.919977 36.16969 
L 101.967791 37.190986 
L 102.015605 38.212282 
L 102.063419 39.233578 
L 102.111233 40.254874 
L 102.159047 41.27617 
L 102.206861 42.297466 
L 102.254675 43.318763 
L 102.302489 44.340059 
L 102.350303 45.361355 
L 102.398117 46.382651 
L 102.445931 47.403947 
L 102.493745 48.425243 
L 102.541559 49.446539 
L 102.589373 50.467835 
L 102.637187 51.489131 
L 102.685001 52.510427 
L 102.732815 53.531723 
L 102.780629 54.553019 
L 102.828443 55.574315 
L 102.876257 56.595611 
L 102.924071 57.616907 
L 102.971885 58.638204 
L 103.019699 59.6595 
L 103.067513 60.680796 
L 103.115327 61.702092 
L 103.163141 62.723388 
L 103.210955 63.744684 
L 103.25877 64.76598 
L 103.306584 65.787276 
L 103.354398 66.808572 
" style="fill:none;stroke:#008000;stroke-linecap:square;stroke-width:1.5;"/>
   </g>
   <g id="line2d_21">
    <path clip-path="url(#pacc8b3b2c6)" d="M 97.293431 30.315664 
L 98.999792 30.445664 
L 100.706152 30.575664 
L 102.412513 30.705665 
L 104.118873 30.835665 
L 105.825234 30.965665 
L 107.531595 31.095665 
L 109.237955 31.225665 
L 110.944316 31.355665 
" style="fill:none;stroke:#008000;stroke-linecap:square;stroke-width:1.5;"/>
   </g>
   <g id="line2d_22">
    <path clip-path="url(#pacc8b3b2c6)" d="M 126.77127 70.908578 
L 126.201272 71.940633 
L 125.631274 72.972688 
L 125.061276 74.004743 
L 124.491278 75.036798 
L 123.92128 76.068853 
L 123.351282 77.100908 
L 122.781285 78.132963 
L 122.211287 79.165018 
L 121.641289 80.197073 
L 121.071291 81.229128 
L 120.501293 82.261183 
L 119.931295 83.293238 
L 119.361297 84.325293 
L 118.791299 85.357348 
L 118.221301 86.389403 
L 117.651303 87.421458 
L 118.158851 88.561817 
L 118.6664 89.702175 
L 119.173948 90.842534 
L 119.681497 91.982893 
L 120.189045 93.123252 
L 120.696593 94.26361 
L 121.204142 95.403969 
L 121.71169 96.544328 
L 121.079105 97.930044 
L 120.446521 99.31576 
L 119.813936 100.701477 
L 119.181352 102.087193 
L 118.548767 103.472909 
L 117.916182 104.858625 
L 117.283598 106.244341 
L 116.651013 107.630058 
L 115.143312 108.828095 
L 113.635611 110.026132 
L 112.12791 111.22417 
L 110.620209 112.422207 
L 109.112508 113.620245 
L 107.604807 114.818282 
L 106.097106 116.016319 
L 104.589405 117.214357 
L 103.758366 117.849447 
L 102.927328 118.484537 
L 102.096289 119.119627 
L 101.265251 119.754717 
L 100.434212 120.389808 
L 99.603174 121.024898 
L 98.772135 121.659988 
L 97.941097 122.295078 
L 97.110058 122.930168 
L 96.27902 123.565258 
L 95.447981 124.200349 
L 94.616943 124.835439 
L 93.785904 125.470529 
L 92.954866 126.105619 
L 92.123827 126.740709 
L 91.292789 127.375799 
L 91.086589 128.732587 
L 90.880389 130.089375 
L 90.674189 131.446162 
L 90.467988 132.80295 
" style="fill:none;stroke:#008000;stroke-linecap:square;stroke-width:1.5;"/>
   </g>
   <g id="line2d_23">
    <path clip-path="url(#pacc8b3b2c6)" d="M 122.182221 68.425717 
L 121.623123 70.244291 
L 121.064024 72.062865 
L 120.504926 73.881439 
L 119.945828 75.700013 
L 119.033831 76.999122 
L 118.121834 78.298231 
L 117.209837 79.59734 
L 116.297841 80.896449 
L 115.385844 82.195558 
L 114.473847 83.494667 
L 113.561851 84.793776 
L 112.649854 86.092885 
L 113.297245 87.752887 
L 113.944637 89.412889 
L 114.592029 91.072892 
L 115.23942 92.732894 
L 115.577786 93.960039 
L 115.916151 95.187183 
L 116.254517 96.414328 
L 116.592882 97.641472 
L 115.842665 98.630224 
L 115.092448 99.618975 
L 114.34223 100.607726 
L 113.592013 101.596478 
L 112.841796 102.585229 
L 112.091578 103.573981 
L 111.341361 104.562732 
L 110.591143 105.551483 
L 110.149678 106.995057 
L 109.708212 108.43863 
L 109.266747 109.882204 
L 108.825281 111.325777 
" style="fill:none;stroke:#008000;stroke-linecap:square;stroke-width:1.5;"/>
   </g>
   <g id="line2d_24">
    <path clip-path="url(#pacc8b3b2c6)" d="M 93.7639 35.3971 
L 93.756496 37.021031 
L 93.749093 38.644961 
L 93.741689 40.268892 
L 93.734286 41.892823 
L 93.726882 43.516754 
L 93.719479 45.140685 
L 93.712075 46.764616 
L 93.704672 48.388546 
L 93.947341 49.424262 
L 94.19001 50.459978 
L 94.432679 51.495694 
L 94.675348 52.531409 
L 94.918017 53.567125 
L 95.160686 54.602841 
L 95.403355 55.638557 
L 95.646024 56.674272 
L 95.888693 57.709988 
L 96.131362 58.745704 
L 96.374031 59.781419 
L 96.6167 60.817135 
L 96.859369 61.852851 
L 97.102038 62.888567 
L 97.344707 63.924282 
L 97.587376 64.959998 
L 97.330037 66.692322 
L 97.072698 68.424646 
L 96.815359 70.15697 
L 96.55802 71.889293 
L 96.300682 73.621617 
L 96.043343 75.353941 
L 95.786004 77.086265 
L 95.528665 78.818589 
L 96.323029 80.247519 
L 97.117393 81.67645 
L 97.911757 83.105381 
L 98.706121 84.534311 
L 98.426572 85.754134 
L 98.147023 86.973957 
L 97.867473 88.193781 
L 97.587924 89.413604 
L 97.308375 90.633427 
L 97.028826 91.85325 
L 96.749277 93.073073 
L 96.469727 94.292896 
L 97.072972 95.591827 
L 97.676217 96.890757 
L 98.279462 98.189687 
L 98.882707 99.488618 
L 98.871671 100.744423 
L 98.860634 102.000228 
L 98.849597 103.256034 
L 98.838561 104.511839 
L 98.827524 105.767644 
L 98.816487 107.02345 
L 98.805451 108.279255 
L 98.794414 109.53506 
L 98.783377 110.790866 
L 98.772341 112.046671 
L 98.761304 113.302476 
L 98.750268 114.558282 
L 98.739231 115.814087 
L 98.728194 117.069892 
L 98.717158 118.325698 
L 98.706121 119.581503 
" style="fill:none;stroke:#008000;stroke-linecap:square;stroke-width:1.5;"/>
   </g>
   <g id="line2d_25">
    <path clip-path="url(#pacc8b3b2c6)" d="M 79.465897 39.034248 
L 80.142491 40.333535 
L 80.819085 41.632823 
L 81.495679 42.93211 
L 82.172273 44.231398 
L 82.848867 45.530685 
L 83.525462 46.829973 
L 84.202056 48.12926 
L 84.87865 49.428548 
L 85.073539 50.406496 
L 85.268428 51.384443 
L 85.463317 52.362391 
L 85.658207 53.340339 
L 85.853096 54.318287 
L 86.047985 55.296235 
L 86.242874 56.274182 
L 86.437764 57.25213 
L 86.632653 58.230078 
L 86.827542 59.208026 
L 87.022431 60.185974 
L 87.217321 61.163921 
L 87.41221 62.141869 
L 87.607099 63.119817 
L 87.801988 64.097765 
L 87.996878 65.075713 
L 87.96747 66.717679 
L 87.938061 68.359646 
L 87.908653 70.001612 
L 87.879245 71.643579 
L 87.849837 73.285545 
L 87.820429 74.927512 
L 87.79102 76.569479 
L 87.761612 78.211445 
L 87.732204 79.853412 
L 87.702796 81.495378 
L 87.673388 83.137345 
L 87.643979 84.779311 
L 87.614571 86.421278 
L 87.585163 88.063245 
L 87.555755 89.705211 
L 87.526347 91.347178 
L 87.438122 93.097359 
L 87.349897 94.84754 
L 87.261673 96.597721 
L 87.173448 98.347902 
L 87.085224 100.098083 
L 86.996999 101.848264 
L 86.908775 103.598445 
L 86.82055 105.348626 
L 86.732325 107.098807 
L 86.644101 108.848988 
L 86.555876 110.599169 
L 86.467652 112.34935 
L 86.379427 114.099531 
L 86.291203 115.849712 
L 86.202978 117.599893 
L 86.114753 119.350074 
L 85.195422 120.089896 
L 84.27609 120.829719 
L 83.356759 121.569541 
L 82.437427 122.309364 
L 81.518095 123.049186 
L 80.598764 123.789009 
L 79.679432 124.528831 
L 78.760101 125.268654 
L 77.840769 126.008476 
L 76.921437 126.748299 
L 76.002106 127.488121 
L 75.082774 128.227944 
L 74.163443 128.967766 
L 73.244111 129.707588 
L 72.324779 130.447411 
L 71.405448 131.187233 
" style="fill:none;stroke:#4169e1;stroke-linecap:square;stroke-width:1.5;"/>
   </g>
   <g id="line2d_26">
    <path clip-path="url(#pacc8b3b2c6)" d="M 77.465318 39.438534 
L 77.737463 41.170858 
L 78.009609 42.903182 
L 78.281755 44.635505 
L 78.5539 46.367829 
L 78.826046 48.100153 
L 79.098192 49.832477 
L 79.370338 51.564801 
L 79.642483 53.297125 
L 79.796928 54.747841 
L 79.951372 56.198557 
L 80.105817 57.649274 
L 80.260261 59.09999 
L 80.414706 60.550706 
L 80.56915 62.001423 
L 80.723594 63.452139 
L 80.878039 64.902855 
L 81.032483 66.353571 
L 81.186928 67.804288 
L 81.341372 69.255004 
L 81.495816 70.70572 
L 81.650261 72.156437 
L 81.804705 73.607153 
L 81.95915 75.057869 
L 82.113594 76.508586 
L 81.782632 78.168588 
L 81.45167 79.82859 
L 81.120708 81.488593 
L 80.789746 83.148595 
L 80.458784 84.808597 
L 80.127821 86.4686 
L 79.796859 88.128602 
L 79.465897 89.788604 
L 79.373971 91.026374 
L 79.282045 92.264143 
L 79.190118 93.501913 
L 79.098192 94.739683 
L 79.006266 95.977452 
L 78.914339 97.215222 
L 78.822413 98.452991 
L 78.730487 99.690761 
L 78.63856 100.92853 
L 78.546634 102.1663 
L 78.454708 103.40407 
L 78.362782 104.641839 
L 78.270855 105.879609 
L 78.178929 107.117378 
L 78.087003 108.355148 
L 77.995076 109.592918 
L 77.465592 111.238456 
L 76.936107 112.883994 
L 76.406623 114.529532 
L 75.877138 116.17507 
L 75.347654 117.820608 
L 74.818169 119.466146 
L 74.288684 121.111684 
L 73.7592 122.757222 
L 73.281128 123.67383 
L 72.803057 124.590438 
L 72.324985 125.507047 
L 71.846913 126.423655 
L 71.368842 127.340264 
L 70.89077 128.256872 
L 70.412698 129.173481 
L 69.934627 130.090089 
" style="fill:none;stroke:#4169e1;stroke-linecap:square;stroke-width:1.5;"/>
   </g>
   <g id="line2d_27">
    <path clip-path="url(#pacc8b3b2c6)" d="M 69.698813 42.268538 
L 69.654666 43.870862 
L 69.61052 45.473185 
L 69.566373 47.075509 
L 69.522227 48.677833 
L 69.47808 50.280156 
L 69.433934 51.88248 
L 69.389787 53.484804 
L 69.34564 55.087127 
L 69.617786 56.411504 
L 69.889932 57.735881 
L 70.162078 59.060258 
L 70.434223 60.384635 
L 70.706369 61.709011 
L 70.978515 63.033388 
L 71.250661 64.357765 
L 71.522806 65.682142 
L 71.794952 67.006519 
L 72.067098 68.330896 
L 72.339243 69.655273 
L 72.611389 70.979649 
L 72.883535 72.304026 
L 73.155681 73.628403 
L 73.427826 74.95278 
L 73.699972 76.277157 
L 73.484861 77.32006 
L 73.269749 78.362963 
L 73.054637 79.405866 
L 72.839526 80.44877 
L 72.624414 81.491673 
L 72.409302 82.534576 
L 72.19419 83.577479 
L 71.979079 84.620383 
L 71.763967 85.663286 
L 71.548855 86.706189 
L 71.333744 87.749092 
L 71.118632 88.791996 
L 70.90352 89.834899 
L 70.688409 90.877802 
L 70.473297 91.920705 
L 70.258185 92.963609 
L 70.043074 94.006512 
L 69.827962 95.049415 
L 69.61285 96.092318 
L 69.397739 97.135222 
L 69.182627 98.178125 
L 68.967515 99.221028 
L 68.752404 100.263931 
L 68.537292 101.306835 
L 68.32218 102.349738 
L 68.107069 103.392641 
L 67.891957 104.435544 
L 67.676845 105.478448 
L 67.461734 106.521351 
L 67.246622 107.564254 
L 67.03151 108.607157 
L 66.816399 109.65006 
L 66.242631 110.545062 
L 65.668862 111.440063 
L 65.095094 112.335064 
L 64.521326 113.230065 
L 63.947558 114.125067 
L 63.373789 115.020068 
L 62.800021 115.915069 
L 62.226253 116.81007 
L 62.623435 118.477216 
L 63.020617 120.144361 
L 63.417799 121.811506 
L 63.814981 123.478651 
L 64.212163 125.145796 
L 64.609345 126.812942 
L 65.006527 128.480087 
L 65.403709 130.147232 
" style="fill:none;stroke:#4169e1;stroke-linecap:square;stroke-width:1.5;"/>
   </g>
   <g id="line2d_28">
    <path clip-path="url(#pacc8b3b2c6)" d="M 68.934337 42.729967 
L 68.595971 44.238541 
L 68.257606 45.747114 
L 67.91924 47.255688 
L 67.580875 48.764261 
L 67.242509 50.272835 
L 66.904144 51.781408 
L 66.565778 53.289982 
L 66.227412 54.798555 
L 65.845037 55.960521 
L 65.462662 57.122487 
L 65.080287 58.284453 
L 64.697912 59.446419 
L 64.315537 60.608385 
L 63.933162 61.770351 
L 63.550787 62.932317 
L 63.168412 64.094283 
L 63.286045 65.696785 
L 63.403678 67.299287 
L 63.52131 68.901789 
L 63.638943 70.504292 
L 63.53598 71.933222 
L 63.433017 73.362153 
L 63.330054 74.791083 
L 63.227091 76.220014 
L 63.124128 77.648944 
L 63.021165 79.077875 
L 62.918202 80.506806 
L 62.815239 81.935736 
L 62.278351 83.278238 
L 61.741463 84.62074 
L 61.204575 85.963242 
L 60.667687 87.305744 
L 60.130799 88.648245 
L 59.593911 89.990747 
L 59.057023 91.333249 
L 58.520135 92.675751 
L 58.674511 93.938789 
L 58.828887 95.201826 
L 58.983263 96.464863 
L 59.137639 97.727901 
L 59.292015 98.990938 
L 59.446391 100.253976 
L 59.600766 101.517013 
L 59.755142 102.780051 
L 59.902252 104.476125 
L 60.049361 106.172198 
L 60.196471 107.868272 
L 60.34358 109.564346 
L 60.49069 111.26042 
L 60.637799 112.956494 
L 60.784909 114.652567 
L 60.932018 116.348641 
L 60.071572 118.015786 
L 59.211125 119.682932 
L 58.350678 121.350077 
L 57.490232 123.017222 
L 56.629785 124.684367 
L 55.769338 126.351512 
L 54.908892 128.018658 
L 54.048445 129.685803 
" style="fill:none;stroke:#4169e1;stroke-linecap:square;stroke-width:1.5;"/>
   </g>
   <g id="line2d_29">
    <path clip-path="url(#pacc8b3b2c6)" d="M 64.28606 43.53854 
L 63.962365 44.75122 
L 63.638669 45.9639 
L 63.314973 47.17658 
L 62.991277 48.389261 
L 62.667582 49.601941 
L 62.343886 50.814621 
L 62.02019 52.027301 
L 61.696494 53.239982 
L 61.10079 54.914448 
L 60.505086 56.588915 
L 59.909381 58.263382 
L 59.313677 59.937848 
L 58.717972 61.612315 
L 58.122268 63.286781 
L 57.526564 64.961248 
L 56.930859 66.635715 
L 57.431004 68.252146 
L 57.931149 69.868576 
L 58.431294 71.485007 
L 58.931439 73.101438 
L 58.284321 74.025368 
L 57.637204 74.949298 
L 56.990087 75.873228 
L 56.342969 76.797157 
L 56.19586 78.327338 
L 56.04875 79.857519 
L 55.901641 81.3877 
L 55.754531 82.91788 
L 55.607422 84.448061 
L 55.460312 85.978242 
L 55.313203 87.508422 
L 55.166093 89.038603 
L 54.504169 90.698605 
L 53.842245 92.358608 
L 53.180321 94.01861 
L 52.518396 95.678612 
L 52.040325 96.891114 
L 51.562253 98.103616 
L 51.084182 99.316117 
L 50.60611 100.528619 
L 50.128038 101.741121 
L 49.649967 102.953623 
L 49.171895 104.166124 
L 48.693823 105.378626 
L 48.259898 106.937557 
L 47.825973 108.496487 
L 47.392048 110.055418 
L 46.958123 111.614349 
L 46.524198 113.17328 
L 46.090273 114.73221 
L 45.656348 116.291141 
L 45.222423 117.850072 
L 45.465092 118.824359 
L 45.707761 119.798646 
L 45.95043 120.772933 
L 46.193099 121.74722 
L 46.435768 122.721507 
L 46.678437 123.695794 
L 46.921106 124.670081 
L 47.163775 125.644369 
" style="fill:none;stroke:#4169e1;stroke-linecap:square;stroke-width:1.5;"/>
   </g>
   <g id="line2d_30">
    <path clip-path="url(#pacc8b3b2c6)" d="M 58.931439 41.864252 
L 58.343138 42.658181 
L 57.754837 43.452111 
L 57.166536 44.246041 
L 56.578235 45.03997 
L 55.989934 45.8339 
L 55.401633 46.62783 
L 54.813332 47.421759 
L 54.225031 48.215689 
L 53.941849 49.20453 
L 53.658667 50.19337 
L 53.375484 51.182211 
L 53.092302 52.171052 
L 52.809119 53.159892 
L 52.525937 54.148733 
L 52.242755 55.137574 
L 51.959572 56.126414 
L 51.67639 57.115255 
L 51.393208 58.104096 
L 51.110025 59.092936 
L 50.826843 60.081777 
L 50.54366 61.070618 
L 50.260478 62.059458 
L 49.977296 63.048299 
L 49.694113 64.03714 
L 49.230711 65.834285 
L 48.76731 67.63143 
L 48.303908 69.428576 
L 47.840506 71.225721 
L 47.377104 73.022866 
L 46.913702 74.820012 
L 46.450301 76.617157 
L 45.986899 78.414303 
L 44.79549 79.237161 
L 43.604081 80.060019 
L 42.412672 80.882877 
L 41.221264 81.705736 
L 41.206731 83.365738 
L 41.192198 85.02574 
L 41.177665 86.685743 
L 41.163133 88.345745 
L 40.949803 89.940747 
L 40.736474 91.535749 
L 40.523145 93.130752 
L 40.309815 94.725754 
L 40.096486 96.320756 
L 39.883157 97.915758 
L 39.669827 99.510761 
L 39.456498 101.105763 
L 39.287315 102.505943 
L 39.118132 103.906124 
L 38.94895 105.306304 
L 38.779767 106.706485 
L 38.610584 108.106665 
L 38.441401 109.506846 
L 38.272218 110.907027 
L 38.103036 112.307207 
L 38.448667 113.815602 
L 38.794299 115.323997 
L 39.139931 116.832392 
L 39.485563 118.340787 
L 39.831195 119.849182 
L 40.176827 121.357577 
L 40.522459 122.865972 
L 40.868091 124.374367 
" style="fill:none;stroke:#4169e1;stroke-linecap:square;stroke-width:1.5;"/>
   </g>
   <g id="line2d_31">
    <path clip-path="url(#pacc8b3b2c6)" d="M 57.225901 63.978568 
L 57.343534 62.643298 
L 57.461166 61.308029 
L 57.578799 59.972759 
L 57.696432 58.637489 
L 57.814065 57.30222 
L 57.931697 55.96695 
L 58.04933 54.63168 
L 58.166963 53.29641 
L 58.284596 51.961141 
L 58.402228 50.625871 
L 58.519861 49.290601 
L 58.637494 47.955332 
L 58.755127 46.620062 
L 58.872759 45.284792 
L 58.990392 43.949522 
L 59.108025 42.614253 
" style="fill:none;stroke:#008000;stroke-linecap:square;stroke-width:1.5;"/>
   </g>
   <g id="line2d_32">
    <path clip-path="url(#pacc8b3b2c6)" d="M 32.807642 129.801517 
L 34.293269 129.043659 
L 35.778897 128.285801 
L 37.264525 127.527943 
L 38.750153 126.770084 
L 40.235781 126.012226 
L 41.721408 125.254368 
L 43.207036 124.49651 
L 44.692664 123.738652 
" style="fill:none;stroke:#008000;stroke-linecap:square;stroke-width:1.5;"/>
   </g>
   <g id="line2d_33">
    <path clip-path="url(#pacc8b3b2c6)" d="M 28.27782 63.169996 
L 28.01486 64.115488 
L 27.7519 65.06098 
L 27.48894 66.006473 
L 27.225981 66.951965 
L 26.963021 67.897458 
L 26.700061 68.84295 
L 26.437101 69.788442 
L 26.174141 70.733935 
L 25.911181 71.679427 
L 25.648221 72.62492 
L 25.385261 73.570412 
L 25.122301 74.515904 
L 24.859341 75.461397 
L 24.596381 76.406889 
L 24.333421 77.352381 
L 24.070461 78.297874 
L 23.807501 79.243366 
L 23.544541 80.188859 
L 23.281581 81.134351 
L 23.018621 82.079843 
L 22.755661 83.025336 
L 22.492701 83.970828 
L 22.229741 84.916321 
L 21.966781 85.861813 
L 21.703821 86.807305 
L 21.440861 87.752798 
L 21.177901 88.69829 
L 20.914941 89.643783 
L 20.651981 90.589275 
L 20.389022 91.534767 
L 20.126062 92.48026 
L 19.863102 93.425752 
L 20.326503 94.696111 
L 20.789905 95.96647 
L 21.253307 97.236829 
L 21.716709 98.507188 
L 22.180111 99.777547 
L 22.643512 101.047906 
L 23.106914 102.318265 
L 23.570316 103.588623 
L 24.129414 105.42184 
L 24.688513 107.255057 
L 25.247611 109.088274 
L 25.80671 110.921491 
L 25.666867 112.393636 
L 25.527023 113.865781 
L 25.38718 115.337926 
L 25.247337 116.81007 
L 25.107494 118.282215 
L 24.967651 119.75436 
L 24.827808 121.226505 
L 24.687964 122.69865 
L 25.482328 123.94008 
L 26.276692 125.181511 
L 27.071056 126.422941 
L 27.86542 127.664371 
" style="fill:none;stroke:#000000;stroke-linecap:square;stroke-width:1.5;"/>
   </g>
   <g id="line2d_34">
    <path clip-path="url(#pacc8b3b2c6)" d="M 22.923199 59.994277 
L 21.915643 61.206957 
L 20.908086 62.419637 
L 19.90053 63.632318 
L 18.892974 64.844998 
L 17.885418 66.057678 
L 16.877862 67.270358 
L 15.870305 68.483039 
L 14.862749 69.695719 
L 14.090459 71.074292 
L 13.318168 72.452866 
L 12.545877 73.831439 
L 11.773587 75.210012 
L 11.001296 76.588586 
L 10.229005 77.967159 
L 9.456715 79.345732 
L 8.684424 80.724306 
L 9.184569 81.806807 
L 9.684714 82.889309 
L 10.184859 83.97181 
L 10.685004 85.054312 
L 11.185149 86.136813 
L 11.685294 87.219315 
L 12.185438 88.301816 
L 12.685583 89.384318 
L 13.700543 90.510212 
L 14.715503 91.636107 
L 15.730462 92.762001 
L 16.745422 93.887896 
L 17.760382 95.01379 
L 18.775341 96.139684 
L 19.790301 97.265579 
L 20.805261 98.391473 
L 21.467185 99.813261 
L 22.129109 101.235049 
L 22.791033 102.656836 
L 23.452958 104.078624 
L 24.114882 105.500412 
L 24.776806 106.9222 
L 25.43873 108.343987 
L 26.100654 109.765775 
L 26.056508 111.33917 
L 26.012361 112.912565 
L 25.968215 114.48596 
L 25.924068 116.059355 
L 25.879922 117.63275 
L 25.835775 119.206145 
L 25.791629 120.77954 
L 25.747482 122.352935 
L 26.306306 124.027223 
L 26.86513 125.701511 
L 27.423955 127.375799 
L 27.982779 129.050088 
" style="fill:none;stroke:#000000;stroke-linecap:square;stroke-width:1.5;"/>
   </g>
   <g id="line2d_35">
    <path clip-path="url(#pacc8b3b2c6)" d="M 22.570026 21.481366 
L 21.040252 21.957795 
L 19.510478 22.434224 
L 17.980703 22.910654 
L 16.450929 23.387083 
L 15.568409 24.325299 
L 14.685889 25.263514 
L 13.803369 26.20173 
L 12.920849 27.139945 
L 12.038329 28.078161 
L 11.155809 29.016377 
L 10.273289 29.954592 
L 9.390769 30.892808 
L 8.552259 32.581739 
L 7.713748 34.27067 
L 6.875238 35.9596 
L 6.036727 37.648531 
L 6.727991 39.366391 
L 7.419255 41.08425 
L 8.110519 42.80211 
L 8.801783 44.51997 
L 9.522592 45.194881 
L 10.243401 45.869793 
L 10.96421 46.544705 
L 11.685019 47.219616 
L 12.405829 47.894528 
L 13.126638 48.56944 
L 13.847447 49.244351 
L 14.568256 49.919263 
L 15.289065 50.594174 
L 16.009874 51.269086 
L 16.730684 51.943998 
L 17.451493 52.618909 
L 18.172302 53.293821 
L 18.893111 53.968733 
L 19.61392 54.643644 
L 20.334729 55.318556 
" style="fill:none;stroke:#008000;stroke-linecap:square;stroke-width:1.5;"/>
   </g>
   <g id="line2d_36">
    <path clip-path="url(#pacc8b3b2c6)" d="M 22.158723 20.845651 
L 21.09948 21.119937 
L 20.040236 21.394223 
L 18.980993 21.668509 
L 17.92175 21.942795 
L 17.02456 23.401012 
L 16.12737 24.859228 
L 15.23018 26.317444 
L 14.332991 27.77566 
L 14.737439 28.692269 
L 15.141887 29.608877 
L 15.546336 30.525486 
L 15.950784 31.442094 
L 16.355232 32.358703 
L 16.75968 33.275311 
L 17.164129 34.191919 
L 17.568577 35.108528 
L 18.215969 36.63853 
L 18.86336 38.168532 
L 19.510752 39.698534 
L 20.158143 41.228536 
L 20.08452 42.239074 
L 20.010897 43.249611 
L 19.937273 44.260148 
L 19.86365 45.270685 
L 19.790027 46.281222 
L 19.716403 47.291759 
L 19.64278 48.302296 
L 19.569157 49.312833 
L 19.848706 50.316049 
L 20.128255 51.319265 
L 20.407804 52.32248 
L 20.687354 53.325696 
L 20.966903 54.328912 
L 21.246452 55.332128 
L 21.526001 56.335343 
L 21.80555 57.338559 
" style="fill:none;stroke:#4169e1;stroke-linecap:square;stroke-width:1.5;"/>
   </g>
   <g id="line2d_37">
    <path clip-path="url(#pacc8b3b2c6)" d="M 22.629254 22.462796 
L 21.687918 22.838154 
L 20.746581 23.213511 
L 19.805245 23.588869 
L 18.863909 23.964227 
L 18.628369 25.682086 
L 18.392829 27.399946 
L 18.157289 29.117805 
L 17.92175 30.835665 
L 19.319084 32.077095 
L 20.716419 33.318525 
L 22.113754 34.559956 
L 23.511088 35.801386 
L 24.165746 37.360317 
L 24.820404 38.919247 
L 25.475062 40.478178 
L 26.12972 42.037109 
L 26.784378 43.59604 
L 27.439036 45.15497 
L 28.093694 46.713901 
L 28.748351 48.272832 
L 28.093694 49.586584 
L 27.439036 50.900336 
L 26.784378 52.214087 
L 26.12972 53.527839 
L 25.475062 54.841591 
L 24.820404 56.155343 
L 24.165746 57.469095 
L 23.511088 58.782847 
" style="fill:none;stroke:#4169e1;stroke-linecap:square;stroke-width:1.5;"/>
   </g>
   <g id="line2d_38">
    <path clip-path="url(#pacc8b3b2c6)" d="M 29.925228 19.864221 
L 31.329966 20.788151 
L 32.734704 21.712081 
L 34.139442 22.63601 
L 35.54418 23.55994 
L 36.948918 24.48387 
L 38.353656 25.4078 
L 39.758395 26.33173 
L 41.163133 27.25566 
" style="fill:none;stroke:#008000;stroke-linecap:square;stroke-width:1.5;"/>
   </g>
   <g id="text_1">
    <g id="patch_2">
     <path d="M 104.934656 50.257166 
L 105.922507 59.856471 
L 107.887753 59.65423 
L 106.899902 50.054926 
z
" style="fill:#ffffff;"/>
    </g>
    <!-- Easy Way -->
    <g style="fill:#808080;" transform="translate(105.37035 50.232435)rotate(-275.875546)scale(0.02 -0.02)">
     <defs>
      <path d="M 628 4666 
L 3578 4666 
L 3578 4134 
L 1259 4134 
L 1259 2753 
L 3481 2753 
L 3481 2222 
L 1259 2222 
L 1259 531 
L 3634 531 
L 3634 0 
L 628 0 
L 628 4666 
z
" id="DejaVuSans-45" transform="scale(0.015625)"/>
      <path d="M 2194 1759 
Q 1497 1759 1228 1600 
Q 959 1441 959 1056 
Q 959 750 1161 570 
Q 1363 391 1709 391 
Q 2188 391 2477 730 
Q 2766 1069 2766 1631 
L 2766 1759 
L 2194 1759 
z
M 3341 1997 
L 3341 0 
L 2766 0 
L 2766 531 
Q 2569 213 2275 61 
Q 1981 -91 1556 -91 
Q 1019 -91 701 211 
Q 384 513 384 1019 
Q 384 1609 779 1909 
Q 1175 2209 1959 2209 
L 2766 2209 
L 2766 2266 
Q 2766 2663 2505 2880 
Q 2244 3097 1772 3097 
Q 1472 3097 1187 3025 
Q 903 2953 641 2809 
L 641 3341 
Q 956 3463 1253 3523 
Q 1550 3584 1831 3584 
Q 2591 3584 2966 3190 
Q 3341 2797 3341 1997 
z
" id="DejaVuSans-61" transform="scale(0.015625)"/>
      <path d="M 2834 3397 
L 2834 2853 
Q 2591 2978 2328 3040 
Q 2066 3103 1784 3103 
Q 1356 3103 1142 2972 
Q 928 2841 928 2578 
Q 928 2378 1081 2264 
Q 1234 2150 1697 2047 
L 1894 2003 
Q 2506 1872 2764 1633 
Q 3022 1394 3022 966 
Q 3022 478 2636 193 
Q 2250 -91 1575 -91 
Q 1294 -91 989 -36 
Q 684 19 347 128 
L 347 722 
Q 666 556 975 473 
Q 1284 391 1588 391 
Q 1994 391 2212 530 
Q 2431 669 2431 922 
Q 2431 1156 2273 1281 
Q 2116 1406 1581 1522 
L 1381 1569 
Q 847 1681 609 1914 
Q 372 2147 372 2553 
Q 372 3047 722 3315 
Q 1072 3584 1716 3584 
Q 2034 3584 2315 3537 
Q 2597 3491 2834 3397 
z
" id="DejaVuSans-73" transform="scale(0.015625)"/>
      <path d="M 2059 -325 
Q 1816 -950 1584 -1140 
Q 1353 -1331 966 -1331 
L 506 -1331 
L 506 -850 
L 844 -850 
Q 1081 -850 1212 -737 
Q 1344 -625 1503 -206 
L 1606 56 
L 191 3500 
L 800 3500 
L 1894 763 
L 2988 3500 
L 3597 3500 
L 2059 -325 
z
" id="DejaVuSans-79" transform="scale(0.015625)"/>
      <path id="DejaVuSans-20" transform="scale(0.015625)"/>
      <path d="M 213 4666 
L 850 4666 
L 1831 722 
L 2809 4666 
L 3519 4666 
L 4500 722 
L 5478 4666 
L 6119 4666 
L 4947 0 
L 4153 0 
L 3169 4050 
L 2175 0 
L 1381 0 
L 213 4666 
z
" id="DejaVuSans-57" transform="scale(0.015625)"/>
     </defs>
     <use xlink:href="#DejaVuSans-45"/>
     <use x="63.183594" xlink:href="#DejaVuSans-61"/>
     <use x="124.462891" xlink:href="#DejaVuSans-73"/>
     <use x="176.5625" xlink:href="#DejaVuSans-79"/>
     <use x="235.742188" xlink:href="#DejaVuSans-20"/>
     <use x="267.529297" xlink:href="#DejaVuSans-57"/>
     <use x="360.03125" xlink:href="#DejaVuSans-61"/>
     <use x="421.310547" xlink:href="#DejaVuSans-79"/>
    </g>
   </g>
   <g id="text_2">
    <g id="patch_3">
     <path d="M 92.067467 54.170861 
L 92.386523 46.937582 
L 90.412817 46.850523 
L 90.093761 54.083802 
z
" style="fill:#ffffff;"/>
    </g>
    <!-- D-Lift II -->
    <g style="fill:#808080;" transform="translate(91.632834 54.13167)rotate(-87.474356)scale(0.02 -0.02)">
     <defs>
      <path d="M 1259 4147 
L 1259 519 
L 2022 519 
Q 2988 519 3436 956 
Q 3884 1394 3884 2338 
Q 3884 3275 3436 3711 
Q 2988 4147 2022 4147 
L 1259 4147 
z
M 628 4666 
L 1925 4666 
Q 3281 4666 3915 4102 
Q 4550 3538 4550 2338 
Q 4550 1131 3912 565 
Q 3275 0 1925 0 
L 628 0 
L 628 4666 
z
" id="DejaVuSans-44" transform="scale(0.015625)"/>
      <path d="M 313 2009 
L 1997 2009 
L 1997 1497 
L 313 1497 
L 313 2009 
z
" id="DejaVuSans-2d" transform="scale(0.015625)"/>
      <path d="M 628 4666 
L 1259 4666 
L 1259 531 
L 3531 531 
L 3531 0 
L 628 0 
L 628 4666 
z
" id="DejaVuSans-4c" transform="scale(0.015625)"/>
      <path d="M 603 3500 
L 1178 3500 
L 1178 0 
L 603 0 
L 603 3500 
z
M 603 4863 
L 1178 4863 
L 1178 4134 
L 603 4134 
L 603 4863 
z
" id="DejaVuSans-69" transform="scale(0.015625)"/>
      <path d="M 2375 4863 
L 2375 4384 
L 1825 4384 
Q 1516 4384 1395 4259 
Q 1275 4134 1275 3809 
L 1275 3500 
L 2222 3500 
L 2222 3053 
L 1275 3053 
L 1275 0 
L 697 0 
L 697 3053 
L 147 3053 
L 147 3500 
L 697 3500 
L 697 3744 
Q 697 4328 969 4595 
Q 1241 4863 1831 4863 
L 2375 4863 
z
" id="DejaVuSans-66" transform="scale(0.015625)"/>
      <path d="M 1172 4494 
L 1172 3500 
L 2356 3500 
L 2356 3053 
L 1172 3053 
L 1172 1153 
Q 1172 725 1289 603 
Q 1406 481 1766 481 
L 2356 481 
L 2356 0 
L 1766 0 
Q 1100 0 847 248 
Q 594 497 594 1153 
L 594 3053 
L 172 3053 
L 172 3500 
L 594 3500 
L 594 4494 
L 1172 4494 
z
" id="DejaVuSans-74" transform="scale(0.015625)"/>
      <path d="M 628 4666 
L 1259 4666 
L 1259 0 
L 628 0 
L 628 4666 
z
" id="DejaVuSans-49" transform="scale(0.015625)"/>
     </defs>
     <use xlink:href="#DejaVuSans-44"/>
     <use x="77.001953" xlink:href="#DejaVuSans-2d"/>
     <use x="113.085938" xlink:href="#DejaVuSans-4c"/>
     <use x="168.798828" xlink:href="#DejaVuSans-69"/>
     <use x="196.582031" xlink:href="#DejaVuSans-66"/>
     <use x="230.037109" xlink:href="#DejaVuSans-74"/>
     <use x="269.246094" xlink:href="#DejaVuSans-20"/>
     <use x="301.033203" xlink:href="#DejaVuSans-49"/>
     <use x="330.525391" xlink:href="#DejaVuSans-49"/>
    </g>
   </g>
   <g id="text_3">
    <g id="patch_4">
     <path d="M 73.110426 65.963416 
L 74.412766 52.895338 
L 72.44688 52.699421 
L 71.144539 65.7675 
z
" style="fill:#ffffff;"/>
    </g>
    <!-- Counterpoint -->
    <g style="fill:#808080;" transform="translate(72.67862 65.900284)rotate(-84.308799)scale(0.02 -0.02)">
     <defs>
      <path d="M 4122 4306 
L 4122 3641 
Q 3803 3938 3442 4084 
Q 3081 4231 2675 4231 
Q 1875 4231 1450 3742 
Q 1025 3253 1025 2328 
Q 1025 1406 1450 917 
Q 1875 428 2675 428 
Q 3081 428 3442 575 
Q 3803 722 4122 1019 
L 4122 359 
Q 3791 134 3420 21 
Q 3050 -91 2638 -91 
Q 1578 -91 968 557 
Q 359 1206 359 2328 
Q 359 3453 968 4101 
Q 1578 4750 2638 4750 
Q 3056 4750 3426 4639 
Q 3797 4528 4122 4306 
z
" id="DejaVuSans-43" transform="scale(0.015625)"/>
      <path d="M 1959 3097 
Q 1497 3097 1228 2736 
Q 959 2375 959 1747 
Q 959 1119 1226 758 
Q 1494 397 1959 397 
Q 2419 397 2687 759 
Q 2956 1122 2956 1747 
Q 2956 2369 2687 2733 
Q 2419 3097 1959 3097 
z
M 1959 3584 
Q 2709 3584 3137 3096 
Q 3566 2609 3566 1747 
Q 3566 888 3137 398 
Q 2709 -91 1959 -91 
Q 1206 -91 779 398 
Q 353 888 353 1747 
Q 353 2609 779 3096 
Q 1206 3584 1959 3584 
z
" id="DejaVuSans-6f" transform="scale(0.015625)"/>
      <path d="M 544 1381 
L 544 3500 
L 1119 3500 
L 1119 1403 
Q 1119 906 1312 657 
Q 1506 409 1894 409 
Q 2359 409 2629 706 
Q 2900 1003 2900 1516 
L 2900 3500 
L 3475 3500 
L 3475 0 
L 2900 0 
L 2900 538 
Q 2691 219 2414 64 
Q 2138 -91 1772 -91 
Q 1169 -91 856 284 
Q 544 659 544 1381 
z
M 1991 3584 
L 1991 3584 
z
" id="DejaVuSans-75" transform="scale(0.015625)"/>
      <path d="M 3513 2113 
L 3513 0 
L 2938 0 
L 2938 2094 
Q 2938 2591 2744 2837 
Q 2550 3084 2163 3084 
Q 1697 3084 1428 2787 
Q 1159 2491 1159 1978 
L 1159 0 
L 581 0 
L 581 3500 
L 1159 3500 
L 1159 2956 
Q 1366 3272 1645 3428 
Q 1925 3584 2291 3584 
Q 2894 3584 3203 3211 
Q 3513 2838 3513 2113 
z
" id="DejaVuSans-6e" transform="scale(0.015625)"/>
      <path d="M 3597 1894 
L 3597 1613 
L 953 1613 
Q 991 1019 1311 708 
Q 1631 397 2203 397 
Q 2534 397 2845 478 
Q 3156 559 3463 722 
L 3463 178 
Q 3153 47 2828 -22 
Q 2503 -91 2169 -91 
Q 1331 -91 842 396 
Q 353 884 353 1716 
Q 353 2575 817 3079 
Q 1281 3584 2069 3584 
Q 2775 3584 3186 3129 
Q 3597 2675 3597 1894 
z
M 3022 2063 
Q 3016 2534 2758 2815 
Q 2500 3097 2075 3097 
Q 1594 3097 1305 2825 
Q 1016 2553 972 2059 
L 3022 2063 
z
" id="DejaVuSans-65" transform="scale(0.015625)"/>
      <path d="M 2631 2963 
Q 2534 3019 2420 3045 
Q 2306 3072 2169 3072 
Q 1681 3072 1420 2755 
Q 1159 2438 1159 1844 
L 1159 0 
L 581 0 
L 581 3500 
L 1159 3500 
L 1159 2956 
Q 1341 3275 1631 3429 
Q 1922 3584 2338 3584 
Q 2397 3584 2469 3576 
Q 2541 3569 2628 3553 
L 2631 2963 
z
" id="DejaVuSans-72" transform="scale(0.015625)"/>
      <path d="M 1159 525 
L 1159 -1331 
L 581 -1331 
L 581 3500 
L 1159 3500 
L 1159 2969 
Q 1341 3281 1617 3432 
Q 1894 3584 2278 3584 
Q 2916 3584 3314 3078 
Q 3713 2572 3713 1747 
Q 3713 922 3314 415 
Q 2916 -91 2278 -91 
Q 1894 -91 1617 61 
Q 1341 213 1159 525 
z
M 3116 1747 
Q 3116 2381 2855 2742 
Q 2594 3103 2138 3103 
Q 1681 3103 1420 2742 
Q 1159 2381 1159 1747 
Q 1159 1113 1420 752 
Q 1681 391 2138 391 
Q 2594 391 2855 752 
Q 3116 1113 3116 1747 
z
" id="DejaVuSans-70" transform="scale(0.015625)"/>
     </defs>
     <use xlink:href="#DejaVuSans-43"/>
     <use x="69.824219" xlink:href="#DejaVuSans-6f"/>
     <use x="131.005859" xlink:href="#DejaVuSans-75"/>
     <use x="194.384766" xlink:href="#DejaVuSans-6e"/>
     <use x="257.763672" xlink:href="#DejaVuSans-74"/>
     <use x="296.972656" xlink:href="#DejaVuSans-65"/>
     <use x="358.496094" xlink:href="#DejaVuSans-72"/>
     <use x="399.609375" xlink:href="#DejaVuSans-70"/>
     <use x="463.085938" xlink:href="#DejaVuSans-6f"/>
     <use x="524.267578" xlink:href="#DejaVuSans-69"/>
     <use x="552.050781" xlink:href="#DejaVuSans-6e"/>
     <use x="615.429688" xlink:href="#DejaVuSans-74"/>
    </g>
   </g>
   <g id="text_4">
    <g id="patch_5">
     <path d="M 89.500683 95.181164 
L 89.804738 88.537806 
L 87.831179 88.447479 
L 87.527124 95.090837 
z
" style="fill:#ffffff;"/>
    </g>
    <!-- D-Lift I -->
    <g style="fill:#808080;" transform="translate(89.066116 95.141253)rotate(-87.379496)scale(0.02 -0.02)">
     <use xlink:href="#DejaVuSans-44"/>
     <use x="77.001953" xlink:href="#DejaVuSans-2d"/>
     <use x="113.085938" xlink:href="#DejaVuSans-4c"/>
     <use x="168.798828" xlink:href="#DejaVuSans-69"/>
     <use x="196.582031" xlink:href="#DejaVuSans-66"/>
     <use x="230.037109" xlink:href="#DejaVuSans-74"/>
     <use x="269.246094" xlink:href="#DejaVuSans-20"/>
     <use x="301.033203" xlink:href="#DejaVuSans-49"/>
    </g>
   </g>
   <g id="text_5">
    <g id="patch_6">
     <path d="M 21.454617 33.799803 
L 23.183028 49.237095 
L 25.146385 49.017271 
L 23.417974 33.579979 
z
" style="fill:#ffffff;"/>
    </g>
    <!-- East Mountain I -->
    <g style="fill:#808080;" transform="translate(21.890073 33.771173)rotate(-276.388422)scale(0.02 -0.02)">
     <defs>
      <path d="M 628 4666 
L 1569 4666 
L 2759 1491 
L 3956 4666 
L 4897 4666 
L 4897 0 
L 4281 0 
L 4281 4097 
L 3078 897 
L 2444 897 
L 1241 4097 
L 1241 0 
L 628 0 
L 628 4666 
z
" id="DejaVuSans-4d" transform="scale(0.015625)"/>
     </defs>
     <use xlink:href="#DejaVuSans-45"/>
     <use x="63.183594" xlink:href="#DejaVuSans-61"/>
     <use x="124.462891" xlink:href="#DejaVuSans-73"/>
     <use x="176.5625" xlink:href="#DejaVuSans-74"/>
     <use x="215.771484" xlink:href="#DejaVuSans-20"/>
     <use x="247.558594" xlink:href="#DejaVuSans-4d"/>
     <use x="333.837891" xlink:href="#DejaVuSans-6f"/>
     <use x="395.019531" xlink:href="#DejaVuSans-75"/>
     <use x="458.398438" xlink:href="#DejaVuSans-6e"/>
     <use x="521.777344" xlink:href="#DejaVuSans-74"/>
     <use x="560.986328" xlink:href="#DejaVuSans-61"/>
     <use x="622.265625" xlink:href="#DejaVuSans-69"/>
     <use x="650.048828" xlink:href="#DejaVuSans-6e"/>
     <use x="713.427734" xlink:href="#DejaVuSans-20"/>
     <use x="745.214844" xlink:href="#DejaVuSans-49"/>
    </g>
   </g>
   <g id="text_6">
    <g id="patch_7">
     <path d="M 69.832448 94.576544 
L 70.360207 89.128295 
L 68.393786 88.937813 
L 67.866027 94.386061 
z
" style="fill:#ffffff;"/>
    </g>
    <!-- Blaze -->
    <g style="fill:#808080;" transform="translate(69.40047 94.514605)rotate(-84.467158)scale(0.02 -0.02)">
     <defs>
      <path d="M 1259 2228 
L 1259 519 
L 2272 519 
Q 2781 519 3026 730 
Q 3272 941 3272 1375 
Q 3272 1813 3026 2020 
Q 2781 2228 2272 2228 
L 1259 2228 
z
M 1259 4147 
L 1259 2741 
L 2194 2741 
Q 2656 2741 2882 2914 
Q 3109 3088 3109 3444 
Q 3109 3797 2882 3972 
Q 2656 4147 2194 4147 
L 1259 4147 
z
M 628 4666 
L 2241 4666 
Q 2963 4666 3353 4366 
Q 3744 4066 3744 3513 
Q 3744 3084 3544 2831 
Q 3344 2578 2956 2516 
Q 3422 2416 3680 2098 
Q 3938 1781 3938 1306 
Q 3938 681 3513 340 
Q 3088 0 2303 0 
L 628 0 
L 628 4666 
z
" id="DejaVuSans-42" transform="scale(0.015625)"/>
      <path d="M 603 4863 
L 1178 4863 
L 1178 0 
L 603 0 
L 603 4863 
z
" id="DejaVuSans-6c" transform="scale(0.015625)"/>
      <path d="M 353 3500 
L 3084 3500 
L 3084 2975 
L 922 459 
L 3084 459 
L 3084 0 
L 275 0 
L 275 525 
L 2438 3041 
L 353 3041 
L 353 3500 
z
" id="DejaVuSans-7a" transform="scale(0.015625)"/>
     </defs>
     <use xlink:href="#DejaVuSans-42"/>
     <use x="68.603516" xlink:href="#DejaVuSans-6c"/>
     <use x="96.386719" xlink:href="#DejaVuSans-61"/>
     <use x="157.666016" xlink:href="#DejaVuSans-7a"/>
     <use x="210.15625" xlink:href="#DejaVuSans-65"/>
    </g>
   </g>
   <g id="text_7">
    <g id="patch_8">
     <path d="M 22.884827 33.452501 
L 24.667988 49.477346 
L 26.631494 49.258857 
L 24.848333 33.234013 
z
" style="fill:#ffffff;"/>
    </g>
    <!-- East Mountain II -->
    <g style="fill:#808080;" transform="translate(23.320302 33.424167)rotate(-276.349455)scale(0.02 -0.02)">
     <use xlink:href="#DejaVuSans-45"/>
     <use x="63.183594" xlink:href="#DejaVuSans-61"/>
     <use x="124.462891" xlink:href="#DejaVuSans-73"/>
     <use x="176.5625" xlink:href="#DejaVuSans-74"/>
     <use x="215.771484" xlink:href="#DejaVuSans-20"/>
     <use x="247.558594" xlink:href="#DejaVuSans-4d"/>
     <use x="333.837891" xlink:href="#DejaVuSans-6f"/>
     <use x="395.019531" xlink:href="#DejaVuSans-75"/>
     <use x="458.398438" xlink:href="#DejaVuSans-6e"/>
     <use x="521.777344" xlink:href="#DejaVuSans-74"/>
     <use x="560.986328" xlink:href="#DejaVuSans-61"/>
     <use x="622.265625" xlink:href="#DejaVuSans-69"/>
     <use x="650.048828" xlink:href="#DejaVuSans-6e"/>
     <use x="713.427734" xlink:href="#DejaVuSans-20"/>
     <use x="745.214844" xlink:href="#DejaVuSans-49"/>
     <use x="774.707031" xlink:href="#DejaVuSans-49"/>
    </g>
   </g>
   <g id="text_8">
    <g id="patch_9">
     <path d="M 113.188003 42.202543 
L 117.482269 53.179994 
L 119.322127 52.460261 
L 115.027861 41.48281 
z
" style="fill:#ffffff;"/>
    </g>
    <!-- Snow Ridge -->
    <g style="fill:#808080;" transform="translate(113.601269 42.062354)rotate(-291.364928)scale(0.02 -0.02)">
     <defs>
      <path d="M 3425 4513 
L 3425 3897 
Q 3066 4069 2747 4153 
Q 2428 4238 2131 4238 
Q 1616 4238 1336 4038 
Q 1056 3838 1056 3469 
Q 1056 3159 1242 3001 
Q 1428 2844 1947 2747 
L 2328 2669 
Q 3034 2534 3370 2195 
Q 3706 1856 3706 1288 
Q 3706 609 3251 259 
Q 2797 -91 1919 -91 
Q 1588 -91 1214 -16 
Q 841 59 441 206 
L 441 856 
Q 825 641 1194 531 
Q 1563 422 1919 422 
Q 2459 422 2753 634 
Q 3047 847 3047 1241 
Q 3047 1584 2836 1778 
Q 2625 1972 2144 2069 
L 1759 2144 
Q 1053 2284 737 2584 
Q 422 2884 422 3419 
Q 422 4038 858 4394 
Q 1294 4750 2059 4750 
Q 2388 4750 2728 4690 
Q 3069 4631 3425 4513 
z
" id="DejaVuSans-53" transform="scale(0.015625)"/>
      <path d="M 269 3500 
L 844 3500 
L 1563 769 
L 2278 3500 
L 2956 3500 
L 3675 769 
L 4391 3500 
L 4966 3500 
L 4050 0 
L 3372 0 
L 2619 2869 
L 1863 0 
L 1184 0 
L 269 3500 
z
" id="DejaVuSans-77" transform="scale(0.015625)"/>
      <path d="M 2841 2188 
Q 3044 2119 3236 1894 
Q 3428 1669 3622 1275 
L 4263 0 
L 3584 0 
L 2988 1197 
Q 2756 1666 2539 1819 
Q 2322 1972 1947 1972 
L 1259 1972 
L 1259 0 
L 628 0 
L 628 4666 
L 2053 4666 
Q 2853 4666 3247 4331 
Q 3641 3997 3641 3322 
Q 3641 2881 3436 2590 
Q 3231 2300 2841 2188 
z
M 1259 4147 
L 1259 2491 
L 2053 2491 
Q 2509 2491 2742 2702 
Q 2975 2913 2975 3322 
Q 2975 3731 2742 3939 
Q 2509 4147 2053 4147 
L 1259 4147 
z
" id="DejaVuSans-52" transform="scale(0.015625)"/>
      <path d="M 2906 2969 
L 2906 4863 
L 3481 4863 
L 3481 0 
L 2906 0 
L 2906 525 
Q 2725 213 2448 61 
Q 2172 -91 1784 -91 
Q 1150 -91 751 415 
Q 353 922 353 1747 
Q 353 2572 751 3078 
Q 1150 3584 1784 3584 
Q 2172 3584 2448 3432 
Q 2725 3281 2906 2969 
z
M 947 1747 
Q 947 1113 1208 752 
Q 1469 391 1925 391 
Q 2381 391 2643 752 
Q 2906 1113 2906 1747 
Q 2906 2381 2643 2742 
Q 2381 3103 1925 3103 
Q 1469 3103 1208 2742 
Q 947 2381 947 1747 
z
" id="DejaVuSans-64" transform="scale(0.015625)"/>
      <path d="M 2906 1791 
Q 2906 2416 2648 2759 
Q 2391 3103 1925 3103 
Q 1463 3103 1205 2759 
Q 947 2416 947 1791 
Q 947 1169 1205 825 
Q 1463 481 1925 481 
Q 2391 481 2648 825 
Q 2906 1169 2906 1791 
z
M 3481 434 
Q 3481 -459 3084 -895 
Q 2688 -1331 1869 -1331 
Q 1566 -1331 1297 -1286 
Q 1028 -1241 775 -1147 
L 775 -588 
Q 1028 -725 1275 -790 
Q 1522 -856 1778 -856 
Q 2344 -856 2625 -561 
Q 2906 -266 2906 331 
L 2906 616 
Q 2728 306 2450 153 
Q 2172 0 1784 0 
Q 1141 0 747 490 
Q 353 981 353 1791 
Q 353 2603 747 3093 
Q 1141 3584 1784 3584 
Q 2172 3584 2450 3431 
Q 2728 3278 2906 2969 
L 2906 3500 
L 3481 3500 
L 3481 434 
z
" id="DejaVuSans-67" transform="scale(0.015625)"/>
     </defs>
     <use xlink:href="#DejaVuSans-53"/>
     <use x="63.476562" xlink:href="#DejaVuSans-6e"/>
     <use x="126.855469" xlink:href="#DejaVuSans-6f"/>
     <use x="188.037109" xlink:href="#DejaVuSans-77"/>
     <use x="269.824219" xlink:href="#DejaVuSans-20"/>
     <use x="301.611328" xlink:href="#DejaVuSans-52"/>
     <use x="371.09375" xlink:href="#DejaVuSans-69"/>
     <use x="398.876953" xlink:href="#DejaVuSans-64"/>
     <use x="462.353516" xlink:href="#DejaVuSans-67"/>
     <use x="525.830078" xlink:href="#DejaVuSans-65"/>
    </g>
   </g>
   <g id="text_9">
    <g id="patch_10">
     <path d="M 52.151467 117.134805 
L 53.15909 108.75989 
L 51.197611 108.523896 
L 50.189988 116.898811 
z
" style="fill:#ffffff;"/>
    </g>
    <!-- Abstract -->
    <g style="fill:#808080;" transform="translate(51.72104 117.062874)rotate(-83.139473)scale(0.02 -0.02)">
     <defs>
      <path d="M 2188 4044 
L 1331 1722 
L 3047 1722 
L 2188 4044 
z
M 1831 4666 
L 2547 4666 
L 4325 0 
L 3669 0 
L 3244 1197 
L 1141 1197 
L 716 0 
L 50 0 
L 1831 4666 
z
" id="DejaVuSans-41" transform="scale(0.015625)"/>
      <path d="M 3116 1747 
Q 3116 2381 2855 2742 
Q 2594 3103 2138 3103 
Q 1681 3103 1420 2742 
Q 1159 2381 1159 1747 
Q 1159 1113 1420 752 
Q 1681 391 2138 391 
Q 2594 391 2855 752 
Q 3116 1113 3116 1747 
z
M 1159 2969 
Q 1341 3281 1617 3432 
Q 1894 3584 2278 3584 
Q 2916 3584 3314 3078 
Q 3713 2572 3713 1747 
Q 3713 922 3314 415 
Q 2916 -91 2278 -91 
Q 1894 -91 1617 61 
Q 1341 213 1159 525 
L 1159 0 
L 581 0 
L 581 4863 
L 1159 4863 
L 1159 2969 
z
" id="DejaVuSans-62" transform="scale(0.015625)"/>
      <path d="M 3122 3366 
L 3122 2828 
Q 2878 2963 2633 3030 
Q 2388 3097 2138 3097 
Q 1578 3097 1268 2742 
Q 959 2388 959 1747 
Q 959 1106 1268 751 
Q 1578 397 2138 397 
Q 2388 397 2633 464 
Q 2878 531 3122 666 
L 3122 134 
Q 2881 22 2623 -34 
Q 2366 -91 2075 -91 
Q 1284 -91 818 406 
Q 353 903 353 1747 
Q 353 2603 823 3093 
Q 1294 3584 2113 3584 
Q 2378 3584 2631 3529 
Q 2884 3475 3122 3366 
z
" id="DejaVuSans-63" transform="scale(0.015625)"/>
     </defs>
     <use xlink:href="#DejaVuSans-41"/>
     <use x="68.408203" xlink:href="#DejaVuSans-62"/>
     <use x="131.884766" xlink:href="#DejaVuSans-73"/>
     <use x="183.984375" xlink:href="#DejaVuSans-74"/>
     <use x="223.193359" xlink:href="#DejaVuSans-72"/>
     <use x="264.306641" xlink:href="#DejaVuSans-61"/>
     <use x="325.585938" xlink:href="#DejaVuSans-63"/>
     <use x="380.566406" xlink:href="#DejaVuSans-74"/>
    </g>
   </g>
   <g id="text_10">
    <g id="patch_11">
     <path d="M 114.777424 38.347647 
L 118.745626 48.469793 
L 120.584958 47.748716 
L 116.616756 37.626571 
z
" style="fill:#ffffff;"/>
    </g>
    <!-- Frosty 9.3 -->
    <g style="fill:#008000;" transform="translate(115.190587 38.207156)rotate(-291.406754)scale(0.02 -0.02)">
     <defs>
      <path d="M 628 4666 
L 3309 4666 
L 3309 4134 
L 1259 4134 
L 1259 2759 
L 3109 2759 
L 3109 2228 
L 1259 2228 
L 1259 0 
L 628 0 
L 628 4666 
z
" id="DejaVuSans-46" transform="scale(0.015625)"/>
      <path d="M 703 97 
L 703 672 
Q 941 559 1184 500 
Q 1428 441 1663 441 
Q 2288 441 2617 861 
Q 2947 1281 2994 2138 
Q 2813 1869 2534 1725 
Q 2256 1581 1919 1581 
Q 1219 1581 811 2004 
Q 403 2428 403 3163 
Q 403 3881 828 4315 
Q 1253 4750 1959 4750 
Q 2769 4750 3195 4129 
Q 3622 3509 3622 2328 
Q 3622 1225 3098 567 
Q 2575 -91 1691 -91 
Q 1453 -91 1209 -44 
Q 966 3 703 97 
z
M 1959 2075 
Q 2384 2075 2632 2365 
Q 2881 2656 2881 3163 
Q 2881 3666 2632 3958 
Q 2384 4250 1959 4250 
Q 1534 4250 1286 3958 
Q 1038 3666 1038 3163 
Q 1038 2656 1286 2365 
Q 1534 2075 1959 2075 
z
" id="DejaVuSans-39" transform="scale(0.015625)"/>
      <path d="M 684 794 
L 1344 794 
L 1344 0 
L 684 0 
L 684 794 
z
" id="DejaVuSans-2e" transform="scale(0.015625)"/>
      <path d="M 2597 2516 
Q 3050 2419 3304 2112 
Q 3559 1806 3559 1356 
Q 3559 666 3084 287 
Q 2609 -91 1734 -91 
Q 1441 -91 1130 -33 
Q 819 25 488 141 
L 488 750 
Q 750 597 1062 519 
Q 1375 441 1716 441 
Q 2309 441 2620 675 
Q 2931 909 2931 1356 
Q 2931 1769 2642 2001 
Q 2353 2234 1838 2234 
L 1294 2234 
L 1294 2753 
L 1863 2753 
Q 2328 2753 2575 2939 
Q 2822 3125 2822 3475 
Q 2822 3834 2567 4026 
Q 2313 4219 1838 4219 
Q 1578 4219 1281 4162 
Q 984 4106 628 3988 
L 628 4550 
Q 988 4650 1302 4700 
Q 1616 4750 1894 4750 
Q 2613 4750 3031 4423 
Q 3450 4097 3450 3541 
Q 3450 3153 3228 2886 
Q 3006 2619 2597 2516 
z
" id="DejaVuSans-33" transform="scale(0.015625)"/>
      <path d="M 1600 4347 
Q 1350 4347 1178 4173 
Q 1006 4000 1006 3750 
Q 1006 3503 1178 3333 
Q 1350 3163 1600 3163 
Q 1850 3163 2022 3333 
Q 2194 3503 2194 3750 
Q 2194 3997 2020 4172 
Q 1847 4347 1600 4347 
z
M 1600 4750 
Q 1800 4750 1984 4673 
Q 2169 4597 2303 4453 
Q 2447 4313 2519 4134 
Q 2591 3956 2591 3750 
Q 2591 3338 2302 3052 
Q 2013 2766 1594 2766 
Q 1172 2766 890 3047 
Q 609 3328 609 3750 
Q 609 4169 896 4459 
Q 1184 4750 1600 4750 
z
" id="DejaVuSans-b0" transform="scale(0.015625)"/>
     </defs>
     <use xlink:href="#DejaVuSans-46"/>
     <use x="50.269531" xlink:href="#DejaVuSans-72"/>
     <use x="89.132812" xlink:href="#DejaVuSans-6f"/>
     <use x="150.314453" xlink:href="#DejaVuSans-73"/>
     <use x="202.414062" xlink:href="#DejaVuSans-74"/>
     <use x="241.623047" xlink:href="#DejaVuSans-79"/>
     <use x="300.802734" xlink:href="#DejaVuSans-20"/>
     <use x="332.589844" xlink:href="#DejaVuSans-39"/>
     <use x="396.212891" xlink:href="#DejaVuSans-2e"/>
     <use x="428" xlink:href="#DejaVuSans-33"/>
     <use x="491.623047" xlink:href="#DejaVuSans-b0"/>
    </g>
   </g>
   <g id="text_11">
    <g id="patch_12">
     <path d="M 108.35232 38.12556 
L 112.353414 54.291531 
L 114.271174 53.816884 
L 110.27008 37.650912 
z
" style="fill:#ffffff;"/>
    </g>
    <!-- Powder Puff 8.2 -->
    <g style="fill:#008000;" transform="translate(108.780294 38.040239)rotate(-283.901406)scale(0.02 -0.02)">
     <defs>
      <path d="M 1259 4147 
L 1259 2394 
L 2053 2394 
Q 2494 2394 2734 2622 
Q 2975 2850 2975 3272 
Q 2975 3691 2734 3919 
Q 2494 4147 2053 4147 
L 1259 4147 
z
M 628 4666 
L 2053 4666 
Q 2838 4666 3239 4311 
Q 3641 3956 3641 3272 
Q 3641 2581 3239 2228 
Q 2838 1875 2053 1875 
L 1259 1875 
L 1259 0 
L 628 0 
L 628 4666 
z
" id="DejaVuSans-50" transform="scale(0.015625)"/>
      <path d="M 2034 2216 
Q 1584 2216 1326 1975 
Q 1069 1734 1069 1313 
Q 1069 891 1326 650 
Q 1584 409 2034 409 
Q 2484 409 2743 651 
Q 3003 894 3003 1313 
Q 3003 1734 2745 1975 
Q 2488 2216 2034 2216 
z
M 1403 2484 
Q 997 2584 770 2862 
Q 544 3141 544 3541 
Q 544 4100 942 4425 
Q 1341 4750 2034 4750 
Q 2731 4750 3128 4425 
Q 3525 4100 3525 3541 
Q 3525 3141 3298 2862 
Q 3072 2584 2669 2484 
Q 3125 2378 3379 2068 
Q 3634 1759 3634 1313 
Q 3634 634 3220 271 
Q 2806 -91 2034 -91 
Q 1263 -91 848 271 
Q 434 634 434 1313 
Q 434 1759 690 2068 
Q 947 2378 1403 2484 
z
M 1172 3481 
Q 1172 3119 1398 2916 
Q 1625 2713 2034 2713 
Q 2441 2713 2670 2916 
Q 2900 3119 2900 3481 
Q 2900 3844 2670 4047 
Q 2441 4250 2034 4250 
Q 1625 4250 1398 4047 
Q 1172 3844 1172 3481 
z
" id="DejaVuSans-38" transform="scale(0.015625)"/>
      <path d="M 1228 531 
L 3431 531 
L 3431 0 
L 469 0 
L 469 531 
Q 828 903 1448 1529 
Q 2069 2156 2228 2338 
Q 2531 2678 2651 2914 
Q 2772 3150 2772 3378 
Q 2772 3750 2511 3984 
Q 2250 4219 1831 4219 
Q 1534 4219 1204 4116 
Q 875 4013 500 3803 
L 500 4441 
Q 881 4594 1212 4672 
Q 1544 4750 1819 4750 
Q 2544 4750 2975 4387 
Q 3406 4025 3406 3419 
Q 3406 3131 3298 2873 
Q 3191 2616 2906 2266 
Q 2828 2175 2409 1742 
Q 1991 1309 1228 531 
z
" id="DejaVuSans-32" transform="scale(0.015625)"/>
     </defs>
     <use xlink:href="#DejaVuSans-50"/>
     <use x="56.677734" xlink:href="#DejaVuSans-6f"/>
     <use x="117.859375" xlink:href="#DejaVuSans-77"/>
     <use x="199.646484" xlink:href="#DejaVuSans-64"/>
     <use x="263.123047" xlink:href="#DejaVuSans-65"/>
     <use x="324.646484" xlink:href="#DejaVuSans-72"/>
     <use x="365.759766" xlink:href="#DejaVuSans-20"/>
     <use x="397.546875" xlink:href="#DejaVuSans-50"/>
     <use x="456.099609" xlink:href="#DejaVuSans-75"/>
     <use x="519.478516" xlink:href="#DejaVuSans-66"/>
     <use x="554.683594" xlink:href="#DejaVuSans-66"/>
     <use x="589.888672" xlink:href="#DejaVuSans-20"/>
     <use x="621.675781" xlink:href="#DejaVuSans-38"/>
     <use x="685.298828" xlink:href="#DejaVuSans-2e"/>
     <use x="717.085938" xlink:href="#DejaVuSans-32"/>
     <use x="780.708984" xlink:href="#DejaVuSans-b0"/>
    </g>
   </g>
   <g id="text_12">
    <g id="patch_13">
     <path d="M 100.867453 37.273176 
L 101.861192 53.569781 
L 103.833154 53.449534 
L 102.839415 37.152929 
z
" style="fill:#ffffff;"/>
    </g>
    <!-- Snowflake 10.0 -->
    <g style="fill:#008000;" transform="translate(101.303799 37.266605)rotate(-273.489477)scale(0.02 -0.02)">
     <defs>
      <path d="M 581 4863 
L 1159 4863 
L 1159 1991 
L 2875 3500 
L 3609 3500 
L 1753 1863 
L 3688 0 
L 2938 0 
L 1159 1709 
L 1159 0 
L 581 0 
L 581 4863 
z
" id="DejaVuSans-6b" transform="scale(0.015625)"/>
      <path d="M 794 531 
L 1825 531 
L 1825 4091 
L 703 3866 
L 703 4441 
L 1819 4666 
L 2450 4666 
L 2450 531 
L 3481 531 
L 3481 0 
L 794 0 
L 794 531 
z
" id="DejaVuSans-31" transform="scale(0.015625)"/>
      <path d="M 2034 4250 
Q 1547 4250 1301 3770 
Q 1056 3291 1056 2328 
Q 1056 1369 1301 889 
Q 1547 409 2034 409 
Q 2525 409 2770 889 
Q 3016 1369 3016 2328 
Q 3016 3291 2770 3770 
Q 2525 4250 2034 4250 
z
M 2034 4750 
Q 2819 4750 3233 4129 
Q 3647 3509 3647 2328 
Q 3647 1150 3233 529 
Q 2819 -91 2034 -91 
Q 1250 -91 836 529 
Q 422 1150 422 2328 
Q 422 3509 836 4129 
Q 1250 4750 2034 4750 
z
" id="DejaVuSans-30" transform="scale(0.015625)"/>
     </defs>
     <use xlink:href="#DejaVuSans-53"/>
     <use x="63.476562" xlink:href="#DejaVuSans-6e"/>
     <use x="126.855469" xlink:href="#DejaVuSans-6f"/>
     <use x="188.037109" xlink:href="#DejaVuSans-77"/>
     <use x="269.824219" xlink:href="#DejaVuSans-66"/>
     <use x="305.029297" xlink:href="#DejaVuSans-6c"/>
     <use x="332.8125" xlink:href="#DejaVuSans-61"/>
     <use x="394.091797" xlink:href="#DejaVuSans-6b"/>
     <use x="448.376953" xlink:href="#DejaVuSans-65"/>
     <use x="509.900391" xlink:href="#DejaVuSans-20"/>
     <use x="541.6875" xlink:href="#DejaVuSans-31"/>
     <use x="605.310547" xlink:href="#DejaVuSans-30"/>
     <use x="668.933594" xlink:href="#DejaVuSans-2e"/>
     <use x="700.720703" xlink:href="#DejaVuSans-30"/>
     <use x="764.34375" xlink:href="#DejaVuSans-b0"/>
    </g>
   </g>
   <g id="text_13">
    <g id="patch_14">
     <path d="M 117.10972 88.427839 
L 126.636641 75.184101 
L 125.032862 74.030417 
L 115.50594 87.274155 
z
" style="fill:#ffffff;"/>
    </g>
    <!-- Ridge Run 12.8 -->
    <g style="fill:#008000;" transform="translate(116.767512 88.157034)rotate(-54.270539)scale(0.02 -0.02)">
     <use xlink:href="#DejaVuSans-52"/>
     <use x="69.482422" xlink:href="#DejaVuSans-69"/>
     <use x="97.265625" xlink:href="#DejaVuSans-64"/>
     <use x="160.742188" xlink:href="#DejaVuSans-67"/>
     <use x="224.21875" xlink:href="#DejaVuSans-65"/>
     <use x="285.742188" xlink:href="#DejaVuSans-20"/>
     <use x="317.529297" xlink:href="#DejaVuSans-52"/>
     <use x="382.511719" xlink:href="#DejaVuSans-75"/>
     <use x="445.890625" xlink:href="#DejaVuSans-6e"/>
     <use x="509.269531" xlink:href="#DejaVuSans-20"/>
     <use x="541.056641" xlink:href="#DejaVuSans-31"/>
     <use x="604.679688" xlink:href="#DejaVuSans-32"/>
     <use x="668.302734" xlink:href="#DejaVuSans-2e"/>
     <use x="700.089844" xlink:href="#DejaVuSans-38"/>
     <use x="763.712891" xlink:href="#DejaVuSans-b0"/>
    </g>
   </g>
   <g id="text_14">
    <g id="patch_15">
     <path d="M 111.376339 87.742737 
L 122.677354 75.383314 
L 121.219343 74.050161 
L 109.918328 86.409584 
z
" style="fill:#ffffff;"/>
    </g>
    <!-- Easy Rider 14.0 -->
    <g style="fill:#008000;" transform="translate(111.068113 87.433806)rotate(-47.561319)scale(0.02 -0.02)">
     <defs>
      <path d="M 2419 4116 
L 825 1625 
L 2419 1625 
L 2419 4116 
z
M 2253 4666 
L 3047 4666 
L 3047 1625 
L 3713 1625 
L 3713 1100 
L 3047 1100 
L 3047 0 
L 2419 0 
L 2419 1100 
L 313 1100 
L 313 1709 
L 2253 4666 
z
" id="DejaVuSans-34" transform="scale(0.015625)"/>
     </defs>
     <use xlink:href="#DejaVuSans-45"/>
     <use x="63.183594" xlink:href="#DejaVuSans-61"/>
     <use x="124.462891" xlink:href="#DejaVuSans-73"/>
     <use x="176.5625" xlink:href="#DejaVuSans-79"/>
     <use x="235.742188" xlink:href="#DejaVuSans-20"/>
     <use x="267.529297" xlink:href="#DejaVuSans-52"/>
     <use x="337.011719" xlink:href="#DejaVuSans-69"/>
     <use x="364.794922" xlink:href="#DejaVuSans-64"/>
     <use x="428.271484" xlink:href="#DejaVuSans-65"/>
     <use x="489.794922" xlink:href="#DejaVuSans-72"/>
     <use x="530.908203" xlink:href="#DejaVuSans-20"/>
     <use x="562.695312" xlink:href="#DejaVuSans-31"/>
     <use x="626.318359" xlink:href="#DejaVuSans-34"/>
     <use x="689.941406" xlink:href="#DejaVuSans-2e"/>
     <use x="721.728516" xlink:href="#DejaVuSans-30"/>
     <use x="785.351562" xlink:href="#DejaVuSans-b0"/>
    </g>
   </g>
   <g id="text_15">
    <g id="patch_16">
     <path d="M 92.388776 49.625606 
L 97.499015 66.371022 
L 99.388609 65.79437 
L 94.27837 49.048954 
z
" style="fill:#ffffff;"/>
    </g>
    <!-- Jane's Lane 16.9 -->
    <g style="fill:#008000;" transform="translate(92.811568 49.517492)rotate(-286.970743)scale(0.02 -0.02)">
     <defs>
      <path d="M 628 4666 
L 1259 4666 
L 1259 325 
Q 1259 -519 939 -900 
Q 619 -1281 -91 -1281 
L -331 -1281 
L -331 -750 
L -134 -750 
Q 284 -750 456 -515 
Q 628 -281 628 325 
L 628 4666 
z
" id="DejaVuSans-4a" transform="scale(0.015625)"/>
      <path d="M 1147 4666 
L 1147 2931 
L 616 2931 
L 616 4666 
L 1147 4666 
z
" id="DejaVuSans-27" transform="scale(0.015625)"/>
      <path d="M 2113 2584 
Q 1688 2584 1439 2293 
Q 1191 2003 1191 1497 
Q 1191 994 1439 701 
Q 1688 409 2113 409 
Q 2538 409 2786 701 
Q 3034 994 3034 1497 
Q 3034 2003 2786 2293 
Q 2538 2584 2113 2584 
z
M 3366 4563 
L 3366 3988 
Q 3128 4100 2886 4159 
Q 2644 4219 2406 4219 
Q 1781 4219 1451 3797 
Q 1122 3375 1075 2522 
Q 1259 2794 1537 2939 
Q 1816 3084 2150 3084 
Q 2853 3084 3261 2657 
Q 3669 2231 3669 1497 
Q 3669 778 3244 343 
Q 2819 -91 2113 -91 
Q 1303 -91 875 529 
Q 447 1150 447 2328 
Q 447 3434 972 4092 
Q 1497 4750 2381 4750 
Q 2619 4750 2861 4703 
Q 3103 4656 3366 4563 
z
" id="DejaVuSans-36" transform="scale(0.015625)"/>
     </defs>
     <use xlink:href="#DejaVuSans-4a"/>
     <use x="29.492188" xlink:href="#DejaVuSans-61"/>
     <use x="90.771484" xlink:href="#DejaVuSans-6e"/>
     <use x="154.150391" xlink:href="#DejaVuSans-65"/>
     <use x="215.673828" xlink:href="#DejaVuSans-27"/>
     <use x="243.164062" xlink:href="#DejaVuSans-73"/>
     <use x="295.263672" xlink:href="#DejaVuSans-20"/>
     <use x="327.050781" xlink:href="#DejaVuSans-4c"/>
     <use x="382.763672" xlink:href="#DejaVuSans-61"/>
     <use x="444.042969" xlink:href="#DejaVuSans-6e"/>
     <use x="507.421875" xlink:href="#DejaVuSans-65"/>
     <use x="568.945312" xlink:href="#DejaVuSans-20"/>
     <use x="600.732422" xlink:href="#DejaVuSans-31"/>
     <use x="664.355469" xlink:href="#DejaVuSans-36"/>
     <use x="727.978516" xlink:href="#DejaVuSans-2e"/>
     <use x="759.765625" xlink:href="#DejaVuSans-39"/>
     <use x="823.388672" xlink:href="#DejaVuSans-b0"/>
    </g>
   </g>
   <g id="text_16">
    <g id="patch_17">
     <path d="M 83.48405 49.350143 
L 86.699663 61.738679 
L 88.61192 61.242327 
L 85.396307 48.85379 
z
" style="fill:#ffffff;"/>
    </g>
    <!-- Lehigh 17.6 -->
    <g style="fill:#4169e1;" transform="translate(83.91103 49.259977)rotate(-284.550793)scale(0.02 -0.02)">
     <defs>
      <path d="M 3513 2113 
L 3513 0 
L 2938 0 
L 2938 2094 
Q 2938 2591 2744 2837 
Q 2550 3084 2163 3084 
Q 1697 3084 1428 2787 
Q 1159 2491 1159 1978 
L 1159 0 
L 581 0 
L 581 4863 
L 1159 4863 
L 1159 2956 
Q 1366 3272 1645 3428 
Q 1925 3584 2291 3584 
Q 2894 3584 3203 3211 
Q 3513 2838 3513 2113 
z
" id="DejaVuSans-68" transform="scale(0.015625)"/>
      <path d="M 525 4666 
L 3525 4666 
L 3525 4397 
L 1831 0 
L 1172 0 
L 2766 4134 
L 525 4134 
L 525 4666 
z
" id="DejaVuSans-37" transform="scale(0.015625)"/>
     </defs>
     <use xlink:href="#DejaVuSans-4c"/>
     <use x="53.962891" xlink:href="#DejaVuSans-65"/>
     <use x="115.486328" xlink:href="#DejaVuSans-68"/>
     <use x="178.865234" xlink:href="#DejaVuSans-69"/>
     <use x="206.648438" xlink:href="#DejaVuSans-67"/>
     <use x="270.125" xlink:href="#DejaVuSans-68"/>
     <use x="333.503906" xlink:href="#DejaVuSans-20"/>
     <use x="365.291016" xlink:href="#DejaVuSans-31"/>
     <use x="428.914062" xlink:href="#DejaVuSans-37"/>
     <use x="492.537109" xlink:href="#DejaVuSans-2e"/>
     <use x="524.324219" xlink:href="#DejaVuSans-36"/>
     <use x="587.947266" xlink:href="#DejaVuSans-b0"/>
    </g>
   </g>
   <g id="text_17">
    <g id="patch_18">
     <path d="M 76.883181 44.337301 
L 79.921973 59.188343 
L 81.857494 58.7923 
L 78.818703 43.941258 
z
" style="fill:#ffffff;"/>
    </g>
    <!-- One Park 17.7 -->
    <g style="fill:#4169e1;" transform="translate(77.314279 44.269505)rotate(-281.564125)scale(0.02 -0.02)">
     <defs>
      <path d="M 2522 4238 
Q 1834 4238 1429 3725 
Q 1025 3213 1025 2328 
Q 1025 1447 1429 934 
Q 1834 422 2522 422 
Q 3209 422 3611 934 
Q 4013 1447 4013 2328 
Q 4013 3213 3611 3725 
Q 3209 4238 2522 4238 
z
M 2522 4750 
Q 3503 4750 4090 4092 
Q 4678 3434 4678 2328 
Q 4678 1225 4090 567 
Q 3503 -91 2522 -91 
Q 1538 -91 948 565 
Q 359 1222 359 2328 
Q 359 3434 948 4092 
Q 1538 4750 2522 4750 
z
" id="DejaVuSans-4f" transform="scale(0.015625)"/>
     </defs>
     <use xlink:href="#DejaVuSans-4f"/>
     <use x="78.710938" xlink:href="#DejaVuSans-6e"/>
     <use x="142.089844" xlink:href="#DejaVuSans-65"/>
     <use x="203.613281" xlink:href="#DejaVuSans-20"/>
     <use x="235.400391" xlink:href="#DejaVuSans-50"/>
     <use x="291.203125" xlink:href="#DejaVuSans-61"/>
     <use x="352.482422" xlink:href="#DejaVuSans-72"/>
     <use x="393.595703" xlink:href="#DejaVuSans-6b"/>
     <use x="451.505859" xlink:href="#DejaVuSans-20"/>
     <use x="483.292969" xlink:href="#DejaVuSans-31"/>
     <use x="546.916016" xlink:href="#DejaVuSans-37"/>
     <use x="610.539062" xlink:href="#DejaVuSans-2e"/>
     <use x="642.326172" xlink:href="#DejaVuSans-37"/>
     <use x="705.949219" xlink:href="#DejaVuSans-b0"/>
    </g>
   </g>
   <g id="text_18">
    <g id="patch_19">
     <path d="M 68.765166 59.507056 
L 72.916287 75.016772 
L 74.824738 74.505982 
L 70.673617 58.996266 
z
" style="fill:#ffffff;"/>
    </g>
    <!-- Exhibition 19.0 -->
    <g style="fill:#4169e1;" transform="translate(69.191452 59.413666)rotate(-284.983816)scale(0.02 -0.02)">
     <defs>
      <path d="M 3513 3500 
L 2247 1797 
L 3578 0 
L 2900 0 
L 1881 1375 
L 863 0 
L 184 0 
L 1544 1831 
L 300 3500 
L 978 3500 
L 1906 2253 
L 2834 3500 
L 3513 3500 
z
" id="DejaVuSans-78" transform="scale(0.015625)"/>
     </defs>
     <use xlink:href="#DejaVuSans-45"/>
     <use x="63.183594" xlink:href="#DejaVuSans-78"/>
     <use x="122.363281" xlink:href="#DejaVuSans-68"/>
     <use x="185.742188" xlink:href="#DejaVuSans-69"/>
     <use x="213.525391" xlink:href="#DejaVuSans-62"/>
     <use x="277.001953" xlink:href="#DejaVuSans-69"/>
     <use x="304.785156" xlink:href="#DejaVuSans-74"/>
     <use x="343.994141" xlink:href="#DejaVuSans-69"/>
     <use x="371.777344" xlink:href="#DejaVuSans-6f"/>
     <use x="432.958984" xlink:href="#DejaVuSans-6e"/>
     <use x="496.337891" xlink:href="#DejaVuSans-20"/>
     <use x="528.125" xlink:href="#DejaVuSans-31"/>
     <use x="591.748047" xlink:href="#DejaVuSans-39"/>
     <use x="655.371094" xlink:href="#DejaVuSans-2e"/>
     <use x="687.158203" xlink:href="#DejaVuSans-30"/>
     <use x="750.78125" xlink:href="#DejaVuSans-b0"/>
    </g>
   </g>
   <g id="text_19">
    <g id="patch_20">
     <path d="M 61.48277 58.331278 
L 63.82846 82.865336 
L 65.795116 82.677305 
L 63.449426 58.143247 
z
" style="fill:#ffffff;"/>
    </g>
    <!-- Dematte's Demise 17.2 -->
    <g style="fill:#4169e1;" transform="translate(61.918632 58.309697)rotate(-275.461422)scale(0.02 -0.02)">
     <defs>
      <path d="M 3328 2828 
Q 3544 3216 3844 3400 
Q 4144 3584 4550 3584 
Q 5097 3584 5394 3201 
Q 5691 2819 5691 2113 
L 5691 0 
L 5113 0 
L 5113 2094 
Q 5113 2597 4934 2840 
Q 4756 3084 4391 3084 
Q 3944 3084 3684 2787 
Q 3425 2491 3425 1978 
L 3425 0 
L 2847 0 
L 2847 2094 
Q 2847 2600 2669 2842 
Q 2491 3084 2119 3084 
Q 1678 3084 1418 2786 
Q 1159 2488 1159 1978 
L 1159 0 
L 581 0 
L 581 3500 
L 1159 3500 
L 1159 2956 
Q 1356 3278 1631 3431 
Q 1906 3584 2284 3584 
Q 2666 3584 2933 3390 
Q 3200 3197 3328 2828 
z
" id="DejaVuSans-6d" transform="scale(0.015625)"/>
     </defs>
     <use xlink:href="#DejaVuSans-44"/>
     <use x="77.001953" xlink:href="#DejaVuSans-65"/>
     <use x="138.525391" xlink:href="#DejaVuSans-6d"/>
     <use x="235.9375" xlink:href="#DejaVuSans-61"/>
     <use x="297.216797" xlink:href="#DejaVuSans-74"/>
     <use x="336.425781" xlink:href="#DejaVuSans-74"/>
     <use x="375.634766" xlink:href="#DejaVuSans-65"/>
     <use x="437.158203" xlink:href="#DejaVuSans-27"/>
     <use x="464.648438" xlink:href="#DejaVuSans-73"/>
     <use x="516.748047" xlink:href="#DejaVuSans-20"/>
     <use x="548.535156" xlink:href="#DejaVuSans-44"/>
     <use x="625.537109" xlink:href="#DejaVuSans-65"/>
     <use x="687.060547" xlink:href="#DejaVuSans-6d"/>
     <use x="784.472656" xlink:href="#DejaVuSans-69"/>
     <use x="812.255859" xlink:href="#DejaVuSans-73"/>
     <use x="864.355469" xlink:href="#DejaVuSans-65"/>
     <use x="925.878906" xlink:href="#DejaVuSans-20"/>
     <use x="957.666016" xlink:href="#DejaVuSans-31"/>
     <use x="1021.289062" xlink:href="#DejaVuSans-37"/>
     <use x="1084.912109" xlink:href="#DejaVuSans-2e"/>
     <use x="1116.699219" xlink:href="#DejaVuSans-32"/>
     <use x="1180.322266" xlink:href="#DejaVuSans-b0"/>
    </g>
   </g>
   <g id="text_20">
    <g id="patch_21">
     <path d="M 45.929574 112.641998 
L 54.171642 96.592775 
L 52.414216 95.69025 
L 44.172148 111.739474 
z
" style="fill:#ffffff;"/>
    </g>
    <!-- T-Bolt Blade 18.4 -->
    <g style="fill:#4169e1;" transform="translate(45.55092 112.425058)rotate(-62.817265)scale(0.02 -0.02)">
     <defs>
      <path d="M -19 4666 
L 3928 4666 
L 3928 4134 
L 2272 4134 
L 2272 0 
L 1638 0 
L 1638 4134 
L -19 4134 
L -19 4666 
z
" id="DejaVuSans-54" transform="scale(0.015625)"/>
     </defs>
     <use xlink:href="#DejaVuSans-54"/>
     <use x="51.958984" xlink:href="#DejaVuSans-2d"/>
     <use x="84.417969" xlink:href="#DejaVuSans-42"/>
     <use x="153.021484" xlink:href="#DejaVuSans-6f"/>
     <use x="214.203125" xlink:href="#DejaVuSans-6c"/>
     <use x="241.986328" xlink:href="#DejaVuSans-74"/>
     <use x="281.195312" xlink:href="#DejaVuSans-20"/>
     <use x="312.982422" xlink:href="#DejaVuSans-42"/>
     <use x="381.585938" xlink:href="#DejaVuSans-6c"/>
     <use x="409.369141" xlink:href="#DejaVuSans-61"/>
     <use x="470.648438" xlink:href="#DejaVuSans-64"/>
     <use x="534.125" xlink:href="#DejaVuSans-65"/>
     <use x="595.648438" xlink:href="#DejaVuSans-20"/>
     <use x="627.435547" xlink:href="#DejaVuSans-31"/>
     <use x="691.058594" xlink:href="#DejaVuSans-38"/>
     <use x="754.681641" xlink:href="#DejaVuSans-2e"/>
     <use x="786.46875" xlink:href="#DejaVuSans-34"/>
     <use x="850.091797" xlink:href="#DejaVuSans-b0"/>
    </g>
   </g>
   <g id="text_21">
    <g id="patch_22">
     <path d="M 48.739436 68.045226 
L 55.898027 48.85341 
L 54.046979 48.162965 
L 46.888388 67.354781 
z
" style="fill:#ffffff;"/>
    </g>
    <!-- The Challenge 20.0 -->
    <g style="fill:#4169e1;" transform="translate(48.337977 67.874135)rotate(-69.544371)scale(0.02 -0.02)">
     <use xlink:href="#DejaVuSans-54"/>
     <use x="61.083984" xlink:href="#DejaVuSans-68"/>
     <use x="124.462891" xlink:href="#DejaVuSans-65"/>
     <use x="185.986328" xlink:href="#DejaVuSans-20"/>
     <use x="217.773438" xlink:href="#DejaVuSans-43"/>
     <use x="287.597656" xlink:href="#DejaVuSans-68"/>
     <use x="350.976562" xlink:href="#DejaVuSans-61"/>
     <use x="412.255859" xlink:href="#DejaVuSans-6c"/>
     <use x="440.039062" xlink:href="#DejaVuSans-6c"/>
     <use x="467.822266" xlink:href="#DejaVuSans-65"/>
     <use x="529.345703" xlink:href="#DejaVuSans-6e"/>
     <use x="592.724609" xlink:href="#DejaVuSans-67"/>
     <use x="656.201172" xlink:href="#DejaVuSans-65"/>
     <use x="717.724609" xlink:href="#DejaVuSans-20"/>
     <use x="749.511719" xlink:href="#DejaVuSans-32"/>
     <use x="813.134766" xlink:href="#DejaVuSans-30"/>
     <use x="876.757812" xlink:href="#DejaVuSans-2e"/>
     <use x="908.544922" xlink:href="#DejaVuSans-30"/>
     <use x="972.167969" xlink:href="#DejaVuSans-b0"/>
    </g>
   </g>
   <g id="text_22">
    <g id="patch_23">
     <path d="M 23.242694 82.604982 
L 28.859415 67.0997 
L 27.001907 66.426826 
L 21.385187 81.932108 
z
" style="fill:#ffffff;"/>
    </g>
    <!-- River Shot 25.7 -->
    <g transform="translate(22.839632 82.437703)rotate(-70.087302)scale(0.02 -0.02)">
     <defs>
      <path d="M 191 3500 
L 800 3500 
L 1894 563 
L 2988 3500 
L 3597 3500 
L 2284 0 
L 1503 0 
L 191 3500 
z
" id="DejaVuSans-76" transform="scale(0.015625)"/>
      <path d="M 691 4666 
L 3169 4666 
L 3169 4134 
L 1269 4134 
L 1269 2991 
Q 1406 3038 1543 3061 
Q 1681 3084 1819 3084 
Q 2600 3084 3056 2656 
Q 3513 2228 3513 1497 
Q 3513 744 3044 326 
Q 2575 -91 1722 -91 
Q 1428 -91 1123 -41 
Q 819 9 494 109 
L 494 744 
Q 775 591 1075 516 
Q 1375 441 1709 441 
Q 2250 441 2565 725 
Q 2881 1009 2881 1497 
Q 2881 1984 2565 2268 
Q 2250 2553 1709 2553 
Q 1456 2553 1204 2497 
Q 953 2441 691 2322 
L 691 4666 
z
" id="DejaVuSans-35" transform="scale(0.015625)"/>
     </defs>
     <use xlink:href="#DejaVuSans-52"/>
     <use x="69.482422" xlink:href="#DejaVuSans-69"/>
     <use x="97.265625" xlink:href="#DejaVuSans-76"/>
     <use x="156.445312" xlink:href="#DejaVuSans-65"/>
     <use x="217.96875" xlink:href="#DejaVuSans-72"/>
     <use x="259.082031" xlink:href="#DejaVuSans-20"/>
     <use x="290.869141" xlink:href="#DejaVuSans-53"/>
     <use x="354.345703" xlink:href="#DejaVuSans-68"/>
     <use x="417.724609" xlink:href="#DejaVuSans-6f"/>
     <use x="478.90625" xlink:href="#DejaVuSans-74"/>
     <use x="518.115234" xlink:href="#DejaVuSans-20"/>
     <use x="549.902344" xlink:href="#DejaVuSans-32"/>
     <use x="613.525391" xlink:href="#DejaVuSans-35"/>
     <use x="677.148438" xlink:href="#DejaVuSans-2e"/>
     <use x="708.935547" xlink:href="#DejaVuSans-37"/>
     <use x="772.558594" xlink:href="#DejaVuSans-b0"/>
    </g>
   </g>
   <g id="text_23">
    <g id="patch_24">
     <path d="M 8.712319 80.441026 
L 19.51996 65.629205 
L 17.924017 64.464705 
L 7.116376 79.276526 
z
" style="fill:#ffffff;"/>
    </g>
    <!-- Floyd's Folly 26.1 -->
    <g transform="translate(8.37195 80.167914)rotate(-53.883146)scale(0.02 -0.02)">
     <use xlink:href="#DejaVuSans-46"/>
     <use x="57.519531" xlink:href="#DejaVuSans-6c"/>
     <use x="85.302734" xlink:href="#DejaVuSans-6f"/>
     <use x="146.484375" xlink:href="#DejaVuSans-79"/>
     <use x="205.664062" xlink:href="#DejaVuSans-64"/>
     <use x="269.140625" xlink:href="#DejaVuSans-27"/>
     <use x="296.630859" xlink:href="#DejaVuSans-73"/>
     <use x="348.730469" xlink:href="#DejaVuSans-20"/>
     <use x="380.517578" xlink:href="#DejaVuSans-46"/>
     <use x="434.412109" xlink:href="#DejaVuSans-6f"/>
     <use x="495.59375" xlink:href="#DejaVuSans-6c"/>
     <use x="523.376953" xlink:href="#DejaVuSans-6c"/>
     <use x="551.160156" xlink:href="#DejaVuSans-79"/>
     <use x="610.339844" xlink:href="#DejaVuSans-20"/>
     <use x="642.126953" xlink:href="#DejaVuSans-32"/>
     <use x="705.75" xlink:href="#DejaVuSans-36"/>
     <use x="769.373047" xlink:href="#DejaVuSans-2e"/>
     <use x="801.160156" xlink:href="#DejaVuSans-31"/>
     <use x="864.783203" xlink:href="#DejaVuSans-b0"/>
    </g>
   </g>
   <g id="text_24">
    <g id="patch_25">
     <path d="M 7.406114 45.673651 
L 17.69398 53.069369 
L 18.847161 51.465228 
L 8.559296 44.06951 
z
" style="fill:#ffffff;"/>
    </g>
    <!-- Telstar 16.3 -->
    <g style="fill:#008000;" transform="translate(7.676812 45.331358)rotate(-324.288481)scale(0.02 -0.02)">
     <use xlink:href="#DejaVuSans-54"/>
     <use x="44.083984" xlink:href="#DejaVuSans-65"/>
     <use x="105.607422" xlink:href="#DejaVuSans-6c"/>
     <use x="133.390625" xlink:href="#DejaVuSans-73"/>
     <use x="185.490234" xlink:href="#DejaVuSans-74"/>
     <use x="224.699219" xlink:href="#DejaVuSans-61"/>
     <use x="285.978516" xlink:href="#DejaVuSans-72"/>
     <use x="327.091797" xlink:href="#DejaVuSans-20"/>
     <use x="358.878906" xlink:href="#DejaVuSans-31"/>
     <use x="422.501953" xlink:href="#DejaVuSans-36"/>
     <use x="486.125" xlink:href="#DejaVuSans-2e"/>
     <use x="517.912109" xlink:href="#DejaVuSans-33"/>
     <use x="581.535156" xlink:href="#DejaVuSans-b0"/>
    </g>
   </g>
   <g id="text_25">
    <g id="patch_26">
     <path d="M 13.153059 29.407956 
L 20.2712 41.793521 
L 21.984095 40.809099 
L 14.865954 28.423534 
z
" style="fill:#ffffff;"/>
    </g>
    <!-- Solitude 20.8 -->
    <g style="fill:#4169e1;" transform="translate(13.540989 29.208076)rotate(-299.886527)scale(0.02 -0.02)">
     <use xlink:href="#DejaVuSans-53"/>
     <use x="63.476562" xlink:href="#DejaVuSans-6f"/>
     <use x="124.658203" xlink:href="#DejaVuSans-6c"/>
     <use x="152.441406" xlink:href="#DejaVuSans-69"/>
     <use x="180.224609" xlink:href="#DejaVuSans-74"/>
     <use x="219.433594" xlink:href="#DejaVuSans-75"/>
     <use x="282.8125" xlink:href="#DejaVuSans-64"/>
     <use x="346.289062" xlink:href="#DejaVuSans-65"/>
     <use x="407.8125" xlink:href="#DejaVuSans-20"/>
     <use x="439.599609" xlink:href="#DejaVuSans-32"/>
     <use x="503.222656" xlink:href="#DejaVuSans-30"/>
     <use x="566.845703" xlink:href="#DejaVuSans-2e"/>
     <use x="598.632812" xlink:href="#DejaVuSans-38"/>
     <use x="662.255859" xlink:href="#DejaVuSans-b0"/>
    </g>
   </g>
   <g id="text_26">
    <g id="patch_27">
     <path d="M 21.548784 35.720399 
L 28.977365 49.301867 
L 30.710656 48.353818 
L 23.282075 34.772351 
z
" style="fill:#ffffff;"/>
    </g>
    <!-- Lightning 20.7 -->
    <g style="fill:#4169e1;" transform="translate(21.940846 35.528752)rotate(-298.677093)scale(0.02 -0.02)">
     <use xlink:href="#DejaVuSans-4c"/>
     <use x="55.712891" xlink:href="#DejaVuSans-69"/>
     <use x="83.496094" xlink:href="#DejaVuSans-67"/>
     <use x="146.972656" xlink:href="#DejaVuSans-68"/>
     <use x="210.351562" xlink:href="#DejaVuSans-74"/>
     <use x="249.560547" xlink:href="#DejaVuSans-6e"/>
     <use x="312.939453" xlink:href="#DejaVuSans-69"/>
     <use x="340.722656" xlink:href="#DejaVuSans-6e"/>
     <use x="404.101562" xlink:href="#DejaVuSans-67"/>
     <use x="467.578125" xlink:href="#DejaVuSans-20"/>
     <use x="499.365234" xlink:href="#DejaVuSans-32"/>
     <use x="562.988281" xlink:href="#DejaVuSans-30"/>
     <use x="626.611328" xlink:href="#DejaVuSans-2e"/>
     <use x="658.398438" xlink:href="#DejaVuSans-37"/>
     <use x="722.021484" xlink:href="#DejaVuSans-b0"/>
    </g>
   </g>
   <g id="text_27">
    <!-- Jack Frost -->
    <g transform="translate(44.936186 9.650927)scale(0.09 -0.09)">
     <use xlink:href="#DejaVuSans-4a"/>
     <use x="29.492188" xlink:href="#DejaVuSans-61"/>
     <use x="90.771484" xlink:href="#DejaVuSans-63"/>
     <use x="145.751953" xlink:href="#DejaVuSans-6b"/>
     <use x="203.662109" xlink:href="#DejaVuSans-20"/>
     <use x="235.449219" xlink:href="#DejaVuSans-46"/>
     <use x="285.71875" xlink:href="#DejaVuSans-72"/>
     <use x="324.582031" xlink:href="#DejaVuSans-6f"/>
     <use x="385.763672" xlink:href="#DejaVuSans-73"/>
     <use x="437.863281" xlink:href="#DejaVuSans-74"/>
    </g>
   </g>
   <g id="legend_1">
    <g id="line2d_39">
     <path d="M 3.402241 138.227571 
L 12.402241 138.227571 
" style="fill:none;stroke:#008000;stroke-linecap:square;stroke-width:1.5;"/>
    </g>
    <g id="line2d_40"/>
    <g id="text_28">
     <!-- Easy -->
     <g transform="translate(16.002241 139.802571)scale(0.045 -0.045)">
      <use xlink:href="#DejaVuSans-45"/>
      <use x="63.183594" xlink:href="#DejaVuSans-61"/>
      <use x="124.462891" xlink:href="#DejaVuSans-73"/>
      <use x="176.5625" xlink:href="#DejaVuSans-79"/>
     </g>
    </g>
    <g id="line2d_41">
     <path d="M 3.402241 144.832727 
L 12.402241 144.832727 
" style="fill:none;stroke:#4169e1;stroke-linecap:square;stroke-width:1.5;"/>
    </g>
    <g id="line2d_42"/>
    <g id="text_29">
     <!-- Intermediate -->
     <g transform="translate(16.002241 146.407727)scale(0.045 -0.045)">
      <use xlink:href="#DejaVuSans-49"/>
      <use x="29.492188" xlink:href="#DejaVuSans-6e"/>
      <use x="92.871094" xlink:href="#DejaVuSans-74"/>
      <use x="132.080078" xlink:href="#DejaVuSans-65"/>
      <use x="193.603516" xlink:href="#DejaVuSans-72"/>
      <use x="232.966797" xlink:href="#DejaVuSans-6d"/>
      <use x="330.378906" xlink:href="#DejaVuSans-65"/>
      <use x="391.902344" xlink:href="#DejaVuSans-64"/>
      <use x="455.378906" xlink:href="#DejaVuSans-69"/>
      <use x="483.162109" xlink:href="#DejaVuSans-61"/>
      <use x="544.441406" xlink:href="#DejaVuSans-74"/>
      <use x="583.650391" xlink:href="#DejaVuSans-65"/>
     </g>
    </g>
    <g id="line2d_43">
     <path d="M 54.035678 138.227571 
L 63.035678 138.227571 
" style="fill:none;stroke:#000000;stroke-linecap:square;stroke-width:1.5;"/>
    </g>
    <g id="line2d_44"/>
    <g id="text_30">
     <!-- Advanced -->
     <g transform="translate(66.635678 139.802571)scale(0.045 -0.045)">
      <use xlink:href="#DejaVuSans-41"/>
      <use x="66.658203" xlink:href="#DejaVuSans-64"/>
      <use x="130.134766" xlink:href="#DejaVuSans-76"/>
      <use x="189.314453" xlink:href="#DejaVuSans-61"/>
      <use x="250.59375" xlink:href="#DejaVuSans-6e"/>
      <use x="313.972656" xlink:href="#DejaVuSans-63"/>
      <use x="368.953125" xlink:href="#DejaVuSans-65"/>
      <use x="430.476562" xlink:href="#DejaVuSans-64"/>
     </g>
    </g>
    <g id="line2d_45">
     <path d="M 54.035678 144.832727 
L 63.035678 144.832727 
" style="fill:none;stroke:#ff0000;stroke-linecap:square;stroke-width:1.5;"/>
    </g>
    <g id="line2d_46"/>
    <g id="text_31">
     <!-- Expert -->
     <g transform="translate(66.635678 146.407727)scale(0.045 -0.045)">
      <use xlink:href="#DejaVuSans-45"/>
      <use x="63.183594" xlink:href="#DejaVuSans-78"/>
      <use x="122.363281" xlink:href="#DejaVuSans-70"/>
      <use x="185.839844" xlink:href="#DejaVuSans-65"/>
      <use x="247.363281" xlink:href="#DejaVuSans-72"/>
      <use x="288.476562" xlink:href="#DejaVuSans-74"/>
     </g>
    </g>
    <g id="line2d_47">
     <path d="M 97.864975 138.227571 
L 106.864975 138.227571 
" style="fill:none;stroke:#ffd700;stroke-linecap:square;stroke-width:1.5;"/>
    </g>
    <g id="line2d_48"/>
    <g id="text_32">
     <!-- Extreme -->
     <g transform="translate(110.464975 139.802571)scale(0.045 -0.045)">
      <use xlink:href="#DejaVuSans-45"/>
      <use x="63.183594" xlink:href="#DejaVuSans-78"/>
      <use x="122.363281" xlink:href="#DejaVuSans-74"/>
      <use x="161.572266" xlink:href="#DejaVuSans-72"/>
      <use x="200.435547" xlink:href="#DejaVuSans-65"/>
      <use x="261.958984" xlink:href="#DejaVuSans-6d"/>
      <use x="359.371094" xlink:href="#DejaVuSans-65"/>
     </g>
    </g>
    <g id="line2d_49">
     <path d="M 97.864975 144.832727 
L 106.864975 144.832727 
" style="fill:none;stroke:#000000;stroke-dasharray:1.5,2.475;stroke-dashoffset:0;stroke-width:1.5;"/>
    </g>
    <g id="line2d_50"/>
    <g id="text_33">
     <!-- Gladed -->
     <g transform="translate(110.464975 146.407727)scale(0.045 -0.045)">
      <defs>
       <path d="M 3809 666 
L 3809 1919 
L 2778 1919 
L 2778 2438 
L 4434 2438 
L 4434 434 
Q 4069 175 3628 42 
Q 3188 -91 2688 -91 
Q 1594 -91 976 548 
Q 359 1188 359 2328 
Q 359 3472 976 4111 
Q 1594 4750 2688 4750 
Q 3144 4750 3555 4637 
Q 3966 4525 4313 4306 
L 4313 3634 
Q 3963 3931 3569 4081 
Q 3175 4231 2741 4231 
Q 1884 4231 1454 3753 
Q 1025 3275 1025 2328 
Q 1025 1384 1454 906 
Q 1884 428 2741 428 
Q 3075 428 3337 486 
Q 3600 544 3809 666 
z
" id="DejaVuSans-47" transform="scale(0.015625)"/>
      </defs>
      <use xlink:href="#DejaVuSans-47"/>
      <use x="77.490234" xlink:href="#DejaVuSans-6c"/>
      <use x="105.273438" xlink:href="#DejaVuSans-61"/>
      <use x="166.552734" xlink:href="#DejaVuSans-64"/>
      <use x="230.029297" xlink:href="#DejaVuSans-65"/>
      <use x="291.552734" xlink:href="#DejaVuSans-64"/>
     </g>
    </g>
   </g>
  </g>
  <g id="text_34">
   <!-- Sources: USGS and OpenStreetMaps -->
   <g transform="translate(30.709399 153.180525)scale(0.03913 -0.03913)">
    <defs>
     <path d="M 750 794 
L 1409 794 
L 1409 0 
L 750 0 
L 750 794 
z
M 750 3309 
L 1409 3309 
L 1409 2516 
L 750 2516 
L 750 3309 
z
" id="DejaVuSans-3a" transform="scale(0.015625)"/>
     <path d="M 556 4666 
L 1191 4666 
L 1191 1831 
Q 1191 1081 1462 751 
Q 1734 422 2344 422 
Q 2950 422 3222 751 
Q 3494 1081 3494 1831 
L 3494 4666 
L 4128 4666 
L 4128 1753 
Q 4128 841 3676 375 
Q 3225 -91 2344 -91 
Q 1459 -91 1007 375 
Q 556 841 556 1753 
L 556 4666 
z
" id="DejaVuSans-55" transform="scale(0.015625)"/>
    </defs>
    <use xlink:href="#DejaVuSans-53"/>
    <use x="63.476562" xlink:href="#DejaVuSans-6f"/>
    <use x="124.658203" xlink:href="#DejaVuSans-75"/>
    <use x="188.037109" xlink:href="#DejaVuSans-72"/>
    <use x="226.900391" xlink:href="#DejaVuSans-63"/>
    <use x="281.880859" xlink:href="#DejaVuSans-65"/>
    <use x="343.404297" xlink:href="#DejaVuSans-73"/>
    <use x="395.503906" xlink:href="#DejaVuSans-3a"/>
    <use x="429.195312" xlink:href="#DejaVuSans-20"/>
    <use x="460.982422" xlink:href="#DejaVuSans-55"/>
    <use x="534.175781" xlink:href="#DejaVuSans-53"/>
    <use x="597.652344" xlink:href="#DejaVuSans-47"/>
    <use x="675.142578" xlink:href="#DejaVuSans-53"/>
    <use x="738.619141" xlink:href="#DejaVuSans-20"/>
    <use x="770.40625" xlink:href="#DejaVuSans-61"/>
    <use x="831.685547" xlink:href="#DejaVuSans-6e"/>
    <use x="895.064453" xlink:href="#DejaVuSans-64"/>
    <use x="958.541016" xlink:href="#DejaVuSans-20"/>
    <use x="990.328125" xlink:href="#DejaVuSans-4f"/>
    <use x="1069.039062" xlink:href="#DejaVuSans-70"/>
    <use x="1132.515625" xlink:href="#DejaVuSans-65"/>
    <use x="1194.039062" xlink:href="#DejaVuSans-6e"/>
    <use x="1257.417969" xlink:href="#DejaVuSans-53"/>
    <use x="1320.894531" xlink:href="#DejaVuSans-74"/>
    <use x="1360.103516" xlink:href="#DejaVuSans-72"/>
    <use x="1398.966797" xlink:href="#DejaVuSans-65"/>
    <use x="1460.490234" xlink:href="#DejaVuSans-65"/>
    <use x="1522.013672" xlink:href="#DejaVuSans-74"/>
    <use x="1561.222656" xlink:href="#DejaVuSans-4d"/>
    <use x="1647.501953" xlink:href="#DejaVuSans-61"/>
    <use x="1708.78125" xlink:href="#DejaVuSans-70"/>
    <use x="1772.257812" xlink:href="#DejaVuSans-73"/>
   </g>
  </g>
 </g>
 <defs>
  <clipPath id="pacc8b3b2c6">
   <rect height="125.692461" width="132.807997" x="0" y="14.150927"/>
  </clipPath>
 </defs>
</svg>
