<?xml version="1.0" encoding="utf-8" standalone="no"?>
<!DOCTYPE svg PUBLIC "-//W3C//DTD SVG 1.1//EN"
  "http://www.w3.org/Graphics/SVG/1.1/DTD/svg11.dtd">
<svg height="173.575627pt" version="1.1" viewBox="0 0 87.111905 173.575627" width="87.111905pt" xmlns="http://www.w3.org/2000/svg" xmlns:xlink="http://www.w3.org/1999/xlink">
 <metadata>
  <rdf:RDF xmlns:cc="http://creativecommons.org/ns#" xmlns:dc="http://purl.org/dc/elements/1.1/" xmlns:rdf="http://www.w3.org/1999/02/22-rdf-syntax-ns#">
   <cc:Work>
    <dc:type rdf:resource="http://purl.org/dc/dcmitype/StillImage"/>
    <dc:date>2022-04-14T21:30:05.883336</dc:date>
    <dc:format>image/svg+xml</dc:format>
    <dc:creator>
     <cc:Agent>
      <dc:title>Matplotlib v3.4.3, https://matplotlib.org/</dc:title>
     </cc:Agent>
    </dc:creator>
   </cc:Work>
  </rdf:RDF>
 </metadata>
 <defs>
  <style type="text/css">*{stroke-linecap:butt;stroke-linejoin:round;}</style>
 </defs>
 <g id="figure_1">
  <g id="patch_1">
   <path d="M 0 173.575627 
L 87.111905 173.575627 
L 87.111905 0 
L 0 0 
z
" style="fill:#ffffff;"/>
  </g>
  <g id="axes_1">
   <g id="line2d_1">
    <path clip-path="url(#p4fa40dfb79)" d="M 41.311701 111.339079 
" style="fill:none;stroke:#008000;stroke-linecap:square;stroke-width:1.5;"/>
   </g>
   <g id="line2d_2">
    <path clip-path="url(#p4fa40dfb79)" d="M 41.311701 111.339079 
" style="fill:none;stroke:#4169e1;stroke-linecap:square;stroke-width:1.5;"/>
   </g>
   <g id="line2d_3">
    <path clip-path="url(#p4fa40dfb79)" d="M 41.311701 111.339079 
" style="fill:none;stroke:#000000;stroke-linecap:square;stroke-width:1.5;"/>
   </g>
   <g id="line2d_4">
    <path clip-path="url(#p4fa40dfb79)" d="M 41.311701 111.339079 
" style="fill:none;stroke:#ff0000;stroke-linecap:square;stroke-width:1.5;"/>
   </g>
   <g id="line2d_5">
    <path clip-path="url(#p4fa40dfb79)" d="M 41.311701 111.339079 
" style="fill:none;stroke:#ffd700;stroke-linecap:square;stroke-width:1.5;"/>
   </g>
   <g id="line2d_6">
    <path clip-path="url(#p4fa40dfb79)" d="M 41.311701 111.339079 
" style="fill:none;stroke:#000000;stroke-dasharray:1.5,2.475;stroke-dashoffset:0;stroke-width:1.5;"/>
   </g>
   <g id="line2d_7">
    <path clip-path="url(#p4fa40dfb79)" d="M 50.554218 157.419827 
L 45.287022 154.362587 
L 40.019827 151.305347 
" style="fill:none;stroke:#808080;stroke-linecap:square;stroke-width:1.5;"/>
   </g>
   <g id="line2d_8">
    <path clip-path="url(#p4fa40dfb79)" d="M 57.752404 149.505013 
L 54.98815 149.694598 
" style="fill:none;stroke:#808080;stroke-linecap:square;stroke-width:1.5;"/>
   </g>
   <g id="line2d_9">
    <path clip-path="url(#p4fa40dfb79)" d="M 46.836013 140.121276 
L 45.443391 135.513345 
L 43.726488 129.830859 
L 42.009586 124.148372 
L 40.811638 120.183005 
L 39.613689 116.217638 
L 38.639798 112.993969 
L 37.665907 109.770299 
L 36.010398 104.291146 
L 34.354889 98.811993 
L 32.992701 94.30392 
L 31.630513 89.795848 
L 30.256257 85.24653 
L 28.882 80.697212 
L 27.829138 77.213044 
L 26.776277 73.728876 
L 25.723415 70.244708 
L 24.670553 66.760539 
" style="fill:none;stroke:#808080;stroke-linecap:square;stroke-width:1.5;"/>
   </g>
   <g id="line2d_10">
    <path clip-path="url(#p4fa40dfb79)" d="M 63.377463 128.699861 
L 61.495797 124.303224 
L 60.474681 121.916768 
L 58.543166 117.402907 
L 56.611651 112.889046 
L 54.85382 108.781128 
L 53.095989 104.67321 
L 51.373315 100.648508 
L 49.650641 96.623805 
L 47.821447 92.349458 
L 45.992254 88.07511 
L 44.58494 84.786316 
L 43.177625 81.497522 
L 41.210954 76.902617 
" style="fill:none;stroke:#808080;stroke-linecap:square;stroke-width:1.5;"/>
   </g>
   <g id="line2d_11">
    <path clip-path="url(#p4fa40dfb79)" d="M 83.152273 67.973305 
L 79.88743 68.076057 
L 74.971801 68.228015 
L 71.672851 68.330767 
L 68.373901 68.433519 
L 62.661737 68.610803 
L 56.949574 68.788087 
L 52.669387 68.92123 
L 48.3892 69.054374 
L 44.768594 69.167257 
L 39.828827 69.320661 
" style="fill:none;stroke:#808080;stroke-linecap:square;stroke-width:1.5;"/>
   </g>
   <g id="line2d_12">
    <path clip-path="url(#p4fa40dfb79)" d="M 41.311701 111.339079 
L 42.69173 112.527242 
L 43.324549 113.321763 
L 44.07753 114.267517 
L 44.830511 115.213272 
L 45.618649 115.801202 
L 46.406787 116.389133 
L 47.194925 116.977064 
L 47.983063 117.564995 
L 48.743128 118.432238 
L 49.503193 119.299481 
L 50.263258 120.166724 
L 51.023323 121.033967 
L 52.318346 122.321264 
L 53.613369 123.608561 
L 54.119729 124.616546 
L 54.626089 125.624531 
L 55.301936 126.57535 
L 55.977782 127.52617 
L 56.822066 128.198401 
L 57.666349 128.870632 
L 58.792411 130.325082 
L 59.180708 131.181833 
" style="fill:none;stroke:#008000;stroke-linecap:square;stroke-width:1.5;"/>
   </g>
   <g id="line2d_13">
    <path clip-path="url(#p4fa40dfb79)" d="M 24.1983 69.801137 
L 24.817476 71.508849 
L 24.958102 72.571828 
L 25.098729 73.634807 
L 25.098729 75.076232 
L 25.098729 76.517658 
L 25.211545 78.182678 
L 25.324361 79.847698 
L 25.401758 81.120884 
L 25.479155 82.394071 
L 25.556552 83.667258 
L 25.633949 84.940444 
L 25.683273 85.975926 
L 25.732597 87.011408 
L 25.781921 88.04689 
L 25.831246 89.082372 
L 25.809994 90.061774 
L 25.788743 91.041176 
L 25.767491 92.020578 
L 25.74624 92.99998 
L 25.577278 94.622308 
" style="fill:none;stroke:#008000;stroke-linecap:square;stroke-width:1.5;"/>
   </g>
   <g id="line2d_14">
    <path clip-path="url(#p4fa40dfb79)" d="M 43.254235 48.61392 
L 43.817791 48.949674 
L 45.506358 49.117551 
L 47.194925 49.285428 
L 48.658909 49.117551 
L 50.122894 48.949674 
L 52.006134 48.538665 
L 53.889374 48.127656 
L 55.327647 47.867158 
L 56.76592 47.606659 
L 58.117089 47.383065 
L 59.468257 47.15947 
L 61.381932 47.047311 
L 63.295606 46.935152 
L 64.759591 47.15947 
L 66.561498 46.710834 
" style="fill:none;stroke:#000000;stroke-linecap:square;stroke-width:1.5;"/>
   </g>
   <g id="line2d_15">
    <path clip-path="url(#p4fa40dfb79)" d="M 36.498918 69.769298 
L 35.567005 69.078253 
L 34.635092 68.387208 
L 33.877913 67.398761 
L 33.120734 66.410314 
L 32.501558 65.235176 
L 31.882382 64.060038 
L 31.457354 62.977521 
L 31.032326 61.895005 
L 30.894323 60.123615 
L 30.75632 58.352225 
L 30.277771 57.344964 
L 29.799221 56.337703 
L 29.320671 55.330442 
L 28.842121 54.32318 
L 28.276467 53.128505 
L 27.710813 51.93383 
L 27.007156 50.478656 
L 26.303499 49.023482 
L 25.996534 47.699281 
L 25.68957 46.37508 
L 25.377358 45.180405 
L 25.065146 43.985729 
L 24.333154 42.474838 
L 23.601162 40.963946 
L 22.981986 39.900967 
L 22.362809 38.837988 
L 22.224806 37.570229 
L 22.086804 36.302469 
L 21.973988 34.735136 
L 21.861172 33.167803 
L 22.086541 31.936585 
L 22.311911 30.705368 
L 22.537281 29.47415 
L 22.76265 28.242933 
L 24.338926 27.347831 
L 25.915202 26.452729 
L 26.86548 25.705243 
L 27.815758 24.957757 
L 28.666863 24.362228 
L 29.517968 23.766699 
L 30.812991 23.710982 
L 32.108014 23.655264 
L 33.121259 23.710982 
L 34.134504 23.766699 
L 35.147749 23.822417 
L 36.160994 23.878135 
L 38.018523 23.934576 
L 39.876052 23.991018 
L 41.171075 24.326771 
L 42.466098 24.662525 
L 43.76112 25.445468 
L 45.056143 26.228411 
L 45.900427 27.012077 
L 46.74471 27.795744 
L 47.870771 28.691569 
L 48.996833 29.587395 
L 49.953932 30.538215 
L 50.911032 31.489034 
L 51.807263 33.057815 
L 52.991569 33.672881 
L 54.175875 34.287947 
L 55.158161 35.031091 
L 56.140447 35.774236 
L 57.016214 36.654142 
L 57.891982 37.534048 
L 58.757779 38.246078 
L 59.623576 38.958107 
" style="fill:none;stroke:#008000;stroke-linecap:square;stroke-width:1.5;"/>
   </g>
   <g id="line2d_16">
    <path clip-path="url(#p4fa40dfb79)" d="M 20.284896 68.398786 
L 18.843999 68.526141 
L 17.67596 69.239617 
L 16.507921 69.953094 
L 15.38186 70.84892 
L 14.413741 71.276571 
L 13.445622 71.704223 
L 11.995805 71.970511 
L 10.545988 72.236798 
L 8.74513 72.767926 
L 7.703025 73.451011 
L 6.66092 74.134096 
L 6.123601 75.177537 
L 5.586282 76.220979 
L 5.248358 77.172522 
L 4.910435 78.124065 
L 4.572512 79.075609 
L 4.234588 80.027152 
L 4.09711 81.110392 
L 3.959632 82.193632 
L 3.959632 83.313052 
L 3.959632 84.432472 
L 3.959632 85.775487 
L 3.959632 87.118502 
L 4.184739 88.349358 
L 4.409847 89.580213 
L 4.930899 90.842184 
L 5.451952 92.104155 
L 5.957787 93.643991 
L 6.436337 95.293815 
L 6.703947 96.245358 
L 6.971557 97.196902 
L 7.956992 98.680296 
L 9.588889 99.654271 
L 10.740137 100.138365 
L 11.891385 100.622458 
L 12.823297 101.202067 
L 13.75521 101.781676 
L 15.078568 102.84972 
L 16.035668 104.473495 
L 16.852141 105.67613 
L 17.75257 106.571955 
L 18.962587 107.087164 
L 20.172604 107.602372 
L 21.524298 108.458399 
L 22.875991 109.314426 
L 24.438099 110.391877 
L 26.000207 111.469328 
" style="fill:none;stroke:#008000;stroke-linecap:square;stroke-width:1.5;"/>
   </g>
   <g id="line2d_17">
    <path clip-path="url(#p4fa40dfb79)" d="M 22.76265 67.866211 
L 22.2841 68.987802 
L 21.805551 70.109393 
L 21.608779 71.228813 
L 21.412006 72.348234 
L 21.045748 73.593561 
L 20.679489 74.838889 
L 20.327923 76.643565 
L 19.976357 78.448241 
L 19.891876 79.959133 
L 19.807395 81.470025 
L 19.89896 82.477648 
L 19.990525 83.485271 
L 20.082089 84.492893 
L 20.173654 85.500516 
L 20.384594 87.109095 
L 20.595533 88.717674 
L 21.088251 89.809597 
L 21.580968 90.90152 
L 22.819321 92.383467 
L 23.607458 93.013729 
L 24.395596 93.643991 
L 25.577278 94.622308 
L 26.3725 95.349895 
L 27.167722 96.077482 
L 27.962944 96.805068 
L 28.758165 97.532655 
L 29.926729 98.652076 
L 31.095293 99.771496 
L 32.544585 100.862695 
L 33.993878 101.953895 
L 34.922642 102.877218 
L 35.443432 103.752059 
L 35.964222 104.6269 
L 36.485012 105.501741 
L 37.005803 106.376582 
L 37.751962 107.943191 
L 38.498122 109.5098 
L 39.510843 110.265246 
L 40.411272 110.802163 
L 41.311701 111.339079 
" style="fill:none;stroke:#008000;stroke-linecap:square;stroke-width:1.5;"/>
   </g>
   <g id="line2d_18">
    <path clip-path="url(#p4fa40dfb79)" d="M 19.976357 78.448241 
L 18.892274 78.82307 
L 17.808191 79.197898 
L 16.146909 80.116879 
L 14.593722 80.811542 
L 13.523806 81.426608 
L 12.453891 82.041674 
L 11.665753 82.713182 
L 11.103247 83.497572 
L 11.07806 84.580088 
L 11.052873 85.662604 
L 11.553461 87.415181 
L 11.866198 89.113487 
L 12.178934 90.811793 
L 13.164369 92.381296 
L 14.149804 93.9508 
L 14.965752 95.573851 
L 15.7817 97.196902 
L 16.443379 98.288101 
L 17.105058 99.379301 
L 18.357579 100.345316 
L 19.610099 101.311332 
L 20.750327 102.388783 
L 21.890556 103.466234 
L 22.650359 104.235428 
L 23.410162 105.004622 
L 24.254445 106.557483 
L 25.098729 108.110344 
L 25.549468 109.789836 
L 26.000207 111.469328 
L 26.056353 112.532307 
L 26.112499 113.595286 
L 26.098331 114.64524 
L 26.084163 115.695194 
L 26.126666 116.95427 
L 26.169169 118.213347 
L 26.25365 119.71049 
L 26.338131 121.207633 
L 26.900636 122.802463 
L 27.491478 124.201919 
L 28.181492 124.901647 
L 28.871506 125.601375 
L 29.898919 126.440759 
L 30.926332 127.280144 
L 32.234997 128.329374 
L 33.543663 129.378604 
L 34.838686 130.288178 
L 36.133709 131.197753 
L 37.048305 131.953198 
L 37.962902 132.708644 
L 38.807186 133.520531 
L 39.651469 134.332419 
L 40.439607 134.953635 
L 41.227745 135.574852 
L 42.015883 136.196069 
L 42.804021 136.817285 
L 43.592159 137.82527 
L 44.380297 138.833255 
L 45.618649 140.287705 
" style="fill:none;stroke:#008000;stroke-linecap:square;stroke-width:1.5;"/>
   </g>
   <g id="line2d_19">
    <path clip-path="url(#p4fa40dfb79)" d="M 39.025996 74.54221 
L 37.849561 75.029921 
L 37.225138 75.662354 
L 36.498918 76.70869 
L 35.198648 78.01263 
L 34.41051 79.131327 
L 34.359087 80.401981 
L 34.359087 82.193632 
L 34.384798 83.181356 
L 34.41051 84.169079 
L 34.466655 85.344217 
L 34.522801 86.519355 
L 34.472427 87.790009 
L 34.835537 88.94561 
L 35.198648 90.10121 
L 35.42323 91.555661 
L 36.048703 93.050633 
L 36.780171 94.170053 
L 37.511638 95.289473 
L 38.637699 96.743924 
L 39.025996 98.4965 
L 39.589027 99.727356 
L 40.152057 100.958211 
L 40.152057 101.96692 
L 40.039766 102.974181 
L 40.039766 103.981442 
L 39.876052 104.580589 
L 40.489981 105.884529 
L 41.002113 107.153736 
L 41.391459 108.34624 
L 41.391459 109.689255 
L 41.311701 111.339079 
" style="fill:none;stroke:#4169e1;stroke-linecap:square;stroke-width:1.5;"/>
   </g>
   <g id="line2d_20">
    <path clip-path="url(#p4fa40dfb79)" d="M 39.989393 67.977647 
L 41.340561 67.949788 
L 42.69173 67.921929 
L 44.042898 67.89407 
L 45.394067 67.866211 
L 46.744973 67.89407 
L 48.095879 67.921929 
L 49.446785 67.949788 
L 50.797691 67.977647 
L 52.35875 67.940019 
L 53.919809 67.902391 
L 55.480867 67.864764 
L 57.041926 67.827136 
L 58.899455 67.714977 
L 60.756983 67.602818 
L 61.770491 67.574959 
L 62.783999 67.5471 
L 63.797506 67.519241 
L 64.811014 67.491383 
L 66.149326 67.557231 
L 67.487639 67.623079 
L 68.825952 67.688927 
L 70.164264 67.754776 
L 71.853356 67.642617 
L 73.542448 67.530457 
L 75.174869 67.530457 
L 76.807291 67.530457 
L 78.495858 67.419022 
" style="fill:none;stroke:#ff0000;stroke-linecap:square;stroke-width:1.5;"/>
   </g>
   <g id="line2d_21">
    <path clip-path="url(#p4fa40dfb79)" d="M 26.365416 70.440805 
L 27.829401 70.663676 
L 29.292336 70.776559 
L 30.694403 71.520427 
L 31.65675 72.231009 
L 32.270679 72.527688 
L 32.220305 73.798342 
L 32.046096 74.766529 
L 31.288917 75.514015 
L 30.531738 76.261501 
L 29.681682 77.452558 
L 29.746748 79.075609 
L 29.811814 80.69866 
L 29.833853 81.725458 
L 29.855891 82.752257 
L 29.881078 84.412211 
L 29.906265 86.072166 
L 30.05004 87.098964 
L 30.193815 88.125763 
L 30.24996 89.188742 
L 30.306106 90.251721 
L 30.700175 91.259705 
L 31.094244 92.26769 
L 31.482541 93.235876 
L 31.907568 94.206957 
L 32.332596 95.178038 
L 33.049109 96.007653 
L 33.765622 96.837269 
L 34.482135 97.666885 
L 35.198648 98.4965 
L 36.155747 99.839515 
L 37.112847 101.18253 
L 38.125567 102.302673 
L 39.139337 103.42137 
L 39.876052 104.580589 
" style="fill:none;stroke:#008000;stroke-linecap:square;stroke-width:1.5;"/>
   </g>
   <g id="line2d_22">
    <path clip-path="url(#p4fa40dfb79)" d="M 26.815631 67.866211 
L 28.222945 68.369842 
L 29.630259 68.873472 
L 31.432167 69.209226 
L 32.72719 69.657139 
L 34.022213 70.105051 
L 35.485148 70.552241 
L 36.949132 71.223748 
L 37.900985 71.856181 
L 38.075193 73.015399 
L 38.863331 73.574024 
L 39.025996 74.54221 
L 39.139337 75.998108 
L 38.863331 77.715951 
L 38.863331 78.94753 
L 38.913705 80.811542 
L 39.082667 81.98668 
L 39.251628 83.161818 
L 39.42059 84.336956 
L 39.589552 85.512094 
L 39.845618 86.595334 
L 40.101684 87.678574 
L 40.213975 89.468778 
L 40.577085 90.568661 
L 40.940195 91.668543 
L 41.534185 92.863219 
L 42.128174 94.057894 
L 42.210031 95.045618 
L 42.291889 96.033341 
L 42.804021 97.751185 
L 43.080026 99.615197 
L 43.136172 101.014653 
L 43.192318 102.414109 
L 43.304609 104.317196 
L 43.448384 105.343994 
L 43.592159 106.370793 
L 43.617346 107.358516 
L 43.642532 108.34624 
L 43.592159 109.952648 
L 43.530241 111.480906 
L 43.324549 113.321763 
" style="fill:none;stroke:#4169e1;stroke-linecap:square;stroke-width:1.5;"/>
   </g>
   <g id="line2d_23">
    <path clip-path="url(#p4fa40dfb79)" d="M 39.425837 66.85895 
L 39.901763 65.719992 
L 40.37769 64.581035 
L 41.559896 63.349456 
L 42.742103 62.117876 
L 43.602128 61.568297 
L 44.462154 61.018717 
L 45.322179 60.469137 
L 46.182204 59.919558 
L 47.364411 59.471645 
L 48.546618 59.023732 
L 49.922973 58.612 
L 51.299329 58.200267 
L 52.368982 58.08847 
L 53.438635 57.976673 
L 54.508288 57.864875 
L 55.577941 57.753078 
L 56.606666 57.818926 
L 57.635391 57.884775 
L 58.664115 57.950623 
L 59.69284 58.016471 
L 60.678012 58.072551 
L 61.663185 58.12863 
L 62.648357 58.18471 
L 63.633529 58.240789 
L 65.435437 58.968014 
L 67.237345 59.69524 
L 69.038728 59.975276 
L 70.840111 60.255312 
L 71.740803 60.675004 
L 72.641494 61.094696 
L 73.542186 61.514388 
L 74.442877 61.93408 
L 76.213302 62.753927 
L 77.983726 63.573774 
" style="fill:none;stroke:#000000;stroke-linecap:square;stroke-width:1.5;"/>
   </g>
   <g id="line2d_24">
    <path clip-path="url(#p4fa40dfb79)" d="M 39.025996 74.54221 
L 39.876052 75.029921 
L 40.889822 76.261501 
L 42.015883 77.380197 
L 42.747875 78.443176 
L 43.479867 79.506155 
L 44.099044 81.129206 
L 44.71822 82.752257 
L 45.337396 84.151713 
L 45.956572 85.551169 
L 46.575749 86.950625 
L 47.194925 88.350081 
L 47.489034 90.047302 
L 47.783142 91.744522 
L 48.077251 93.441743 
L 48.37136 95.138963 
L 48.751392 96.202304 
L 49.131425 97.265644 
L 49.511457 98.328985 
L 49.89149 99.392326 
L 50.271522 100.455666 
L 50.651555 101.519007 
L 51.031587 102.582348 
L 51.41162 103.645688 
L 52.002723 104.820826 
L 52.593827 105.995964 
L 53.18493 107.171102 
L 53.776034 108.34624 
L 54.14977 109.274628 
L 54.523505 110.203016 
L 54.897241 111.131404 
L 55.270977 112.059792 
L 55.644713 112.98818 
L 56.018449 113.916568 
L 56.392184 114.844956 
L 56.76592 115.773343 
L 57.131785 116.752746 
L 57.49765 117.732148 
L 57.863515 118.71155 
L 58.22938 119.690952 
L 58.595245 120.670355 
L 58.96111 121.649757 
L 59.326975 122.629159 
L 59.69284 123.608561 
L 60.127837 124.578195 
L 60.562835 125.547828 
L 60.997832 126.517462 
L 61.43283 127.487095 
L 62.108677 128.718675 
" style="fill:none;stroke:#4169e1;stroke-linecap:square;stroke-width:1.5;"/>
   </g>
   <g id="line2d_25">
    <path clip-path="url(#p4fa40dfb79)" d="M 41.311701 111.339079 
L 41.030448 112.345617 
L 40.749195 113.352154 
L 40.724008 114.467233 
L 40.698822 115.582311 
L 40.830003 116.989003 
L 40.961184 118.395696 
L 41.312751 119.801664 
L 41.664317 121.207633 
L 42.142867 122.823448 
L 42.621416 124.439262 
L 42.751548 125.653113 
L 42.88168 126.866964 
L 43.011812 128.080815 
L 43.141944 129.294666 
L 43.085798 130.526245 
L 43.029653 131.757825 
L 42.973245 133.02269 
L 42.916837 134.287555 
L 42.860429 135.55242 
L 42.804021 136.817285 
" style="fill:none;stroke:#008000;stroke-linecap:square;stroke-width:1.5;"/>
   </g>
   <g id="line2d_26">
    <path clip-path="url(#p4fa40dfb79)" d="M 38.413117 68.3134 
L 38.188009 67.250421 
L 37.962902 66.187443 
L 37.906232 65.180182 
L 37.849561 64.17292 
L 37.6806 62.661305 
L 37.511638 61.14969 
L 37.424534 59.73142 
L 37.337429 58.31315 
L 37.087135 57.101108 
L 36.836841 55.889066 
L 37.118094 54.826087 
L 37.399347 53.763109 
L 38.10038 53.015622 
L 38.801414 52.268136 
L 39.958434 51.560448 
L 41.115454 50.852761 
L 42.128174 50.069818 
L 43.254235 48.61392 
L 44.154665 47.046587 
L 44.211335 45.927891 
L 44.268005 44.809194 
L 44.268005 43.466179 
L 44.268005 41.898846 
L 44.268005 40.891585 
L 44.268005 39.884324 
L 45.450212 38.820622 
L 46.632419 37.756919 
L 48.011398 36.890038 
L 49.165794 35.882777 
L 50.516438 34.497793 
L 51.807263 33.057815 
" style="fill:none;stroke:#008000;stroke-linecap:square;stroke-width:1.5;"/>
   </g>
   <g id="line2d_27">
    <path clip-path="url(#p4fa40dfb79)" d="M 26.815631 24.438207 
L 27.040738 23.263069 
L 27.265846 22.087931 
L 28.053983 21.08067 
L 28.842121 20.073409 
L 29.912037 19.401901 
L 30.981952 18.730394 
L 31.923573 18.244853 
L 32.865193 17.759313 
L 33.806813 17.273773 
L 34.748433 16.788232 
L 36.242852 16.695611 
L 37.73727 16.602989 
L 39.088439 16.379394 
L 40.439607 16.1558 
L 41.537333 16.211879 
L 42.635059 16.267959 
L 43.732785 16.324038 
L 44.830511 16.380118 
L 46.406787 16.491553 
L 47.983063 16.602989 
L 49.109124 17.61025 
L 50.235185 18.617511 
L 51.361246 19.736931 
L 52.487308 20.856352 
L 53.050338 21.667877 
L 53.613369 22.479402 
L 54.176399 23.290928 
L 54.73943 24.102453 
L 55.020683 25.053635 
L 55.301936 26.004816 
L 55.583189 26.955998 
L 55.864442 27.907179 
L 56.540288 29.53023 
L 57.216135 31.153281 
L 57.778641 32.720614 
L 58.479674 34.211968 
L 59.180708 35.703322 
L 59.402142 37.330715 
L 59.623576 38.958107 
L 60.221239 39.812687 
L 60.818901 40.667267 
L 61.632226 42.326498 
L 62.44555 43.985729 
L 63.474537 44.667005 
L 64.503524 45.348281 
L 65.532511 46.029558 
L 66.561498 46.710834 
L 67.405782 47.718818 
L 68.250065 48.726803 
L 69.232352 49.434491 
L 70.214638 50.142179 
L 71.116117 51.373758 
L 72.016546 53.052526 
L 73.029791 54.619136 
L 74.043036 56.185745 
L 74.718883 57.417324 
L 75.53798 58.724159 
L 76.357076 60.030993 
L 76.976253 60.926095 
L 77.595429 61.821197 
L 77.983726 63.573774 
L 78.465424 64.768449 
L 78.947122 65.963124 
" style="fill:none;stroke:#008000;stroke-linecap:square;stroke-width:1.5;"/>
   </g>
   <g id="line2d_28">
    <path clip-path="url(#p4fa40dfb79)" d="M 38.863331 71.78382 
L 39.876577 72.343168 
L 40.889822 72.902517 
L 41.76244 73.462227 
L 42.635059 74.021937 
L 43.507678 74.581647 
L 44.380297 75.141357 
L 45.196507 75.701067 
L 46.012718 76.260777 
L 46.828929 76.820487 
L 47.645139 77.380197 
L 49.447047 77.82811 
L 51.248955 78.276023 
L 52.881376 78.723212 
L 54.513798 79.170401 
L 55.696005 79.198622 
L 56.878212 79.226843 
L 58.060418 79.255063 
L 59.242625 79.283284 
L 60.875047 79.283284 
L 62.507468 79.283284 
L 63.577121 79.003248 
L 64.646775 78.723212 
L 65.716428 78.443176 
L 66.786081 78.16314 
L 68.137249 77.155879 
L 69.488418 76.148618 
L 70.445517 75.53319 
L 71.402617 74.917762 
L 72.359717 74.302335 
L 73.316816 73.686907 
L 74.52421 72.547949 
L 75.731603 71.408992 
L 76.745373 70.345289 
L 77.759143 69.281587 
" style="fill:none;stroke:#ff0000;stroke-linecap:square;stroke-width:1.5;"/>
   </g>
   <g id="text_1">
    <g id="patch_2">
     <path d="M 36.316102 111.960777 
L 43.48348 129.164995 
L 45.307173 128.405233 
L 38.139795 111.201016 
z
" style="fill:#ffffff;"/>
    </g>
    <!-- Powder Bear Triple -->
    <g style="fill:#808080;" transform="translate(36.726206 111.811592)rotate(-292.616895)scale(0.02 -0.02)">
     <defs>
      <path d="M 1259 4147 
L 1259 2394 
L 2053 2394 
Q 2494 2394 2734 2622 
Q 2975 2850 2975 3272 
Q 2975 3691 2734 3919 
Q 2494 4147 2053 4147 
L 1259 4147 
z
M 628 4666 
L 2053 4666 
Q 2838 4666 3239 4311 
Q 3641 3956 3641 3272 
Q 3641 2581 3239 2228 
Q 2838 1875 2053 1875 
L 1259 1875 
L 1259 0 
L 628 0 
L 628 4666 
z
" id="DejaVuSans-50" transform="scale(0.015625)"/>
      <path d="M 1959 3097 
Q 1497 3097 1228 2736 
Q 959 2375 959 1747 
Q 959 1119 1226 758 
Q 1494 397 1959 397 
Q 2419 397 2687 759 
Q 2956 1122 2956 1747 
Q 2956 2369 2687 2733 
Q 2419 3097 1959 3097 
z
M 1959 3584 
Q 2709 3584 3137 3096 
Q 3566 2609 3566 1747 
Q 3566 888 3137 398 
Q 2709 -91 1959 -91 
Q 1206 -91 779 398 
Q 353 888 353 1747 
Q 353 2609 779 3096 
Q 1206 3584 1959 3584 
z
" id="DejaVuSans-6f" transform="scale(0.015625)"/>
      <path d="M 269 3500 
L 844 3500 
L 1563 769 
L 2278 3500 
L 2956 3500 
L 3675 769 
L 4391 3500 
L 4966 3500 
L 4050 0 
L 3372 0 
L 2619 2869 
L 1863 0 
L 1184 0 
L 269 3500 
z
" id="DejaVuSans-77" transform="scale(0.015625)"/>
      <path d="M 2906 2969 
L 2906 4863 
L 3481 4863 
L 3481 0 
L 2906 0 
L 2906 525 
Q 2725 213 2448 61 
Q 2172 -91 1784 -91 
Q 1150 -91 751 415 
Q 353 922 353 1747 
Q 353 2572 751 3078 
Q 1150 3584 1784 3584 
Q 2172 3584 2448 3432 
Q 2725 3281 2906 2969 
z
M 947 1747 
Q 947 1113 1208 752 
Q 1469 391 1925 391 
Q 2381 391 2643 752 
Q 2906 1113 2906 1747 
Q 2906 2381 2643 2742 
Q 2381 3103 1925 3103 
Q 1469 3103 1208 2742 
Q 947 2381 947 1747 
z
" id="DejaVuSans-64" transform="scale(0.015625)"/>
      <path d="M 3597 1894 
L 3597 1613 
L 953 1613 
Q 991 1019 1311 708 
Q 1631 397 2203 397 
Q 2534 397 2845 478 
Q 3156 559 3463 722 
L 3463 178 
Q 3153 47 2828 -22 
Q 2503 -91 2169 -91 
Q 1331 -91 842 396 
Q 353 884 353 1716 
Q 353 2575 817 3079 
Q 1281 3584 2069 3584 
Q 2775 3584 3186 3129 
Q 3597 2675 3597 1894 
z
M 3022 2063 
Q 3016 2534 2758 2815 
Q 2500 3097 2075 3097 
Q 1594 3097 1305 2825 
Q 1016 2553 972 2059 
L 3022 2063 
z
" id="DejaVuSans-65" transform="scale(0.015625)"/>
      <path d="M 2631 2963 
Q 2534 3019 2420 3045 
Q 2306 3072 2169 3072 
Q 1681 3072 1420 2755 
Q 1159 2438 1159 1844 
L 1159 0 
L 581 0 
L 581 3500 
L 1159 3500 
L 1159 2956 
Q 1341 3275 1631 3429 
Q 1922 3584 2338 3584 
Q 2397 3584 2469 3576 
Q 2541 3569 2628 3553 
L 2631 2963 
z
" id="DejaVuSans-72" transform="scale(0.015625)"/>
      <path id="DejaVuSans-20" transform="scale(0.015625)"/>
      <path d="M 1259 2228 
L 1259 519 
L 2272 519 
Q 2781 519 3026 730 
Q 3272 941 3272 1375 
Q 3272 1813 3026 2020 
Q 2781 2228 2272 2228 
L 1259 2228 
z
M 1259 4147 
L 1259 2741 
L 2194 2741 
Q 2656 2741 2882 2914 
Q 3109 3088 3109 3444 
Q 3109 3797 2882 3972 
Q 2656 4147 2194 4147 
L 1259 4147 
z
M 628 4666 
L 2241 4666 
Q 2963 4666 3353 4366 
Q 3744 4066 3744 3513 
Q 3744 3084 3544 2831 
Q 3344 2578 2956 2516 
Q 3422 2416 3680 2098 
Q 3938 1781 3938 1306 
Q 3938 681 3513 340 
Q 3088 0 2303 0 
L 628 0 
L 628 4666 
z
" id="DejaVuSans-42" transform="scale(0.015625)"/>
      <path d="M 2194 1759 
Q 1497 1759 1228 1600 
Q 959 1441 959 1056 
Q 959 750 1161 570 
Q 1363 391 1709 391 
Q 2188 391 2477 730 
Q 2766 1069 2766 1631 
L 2766 1759 
L 2194 1759 
z
M 3341 1997 
L 3341 0 
L 2766 0 
L 2766 531 
Q 2569 213 2275 61 
Q 1981 -91 1556 -91 
Q 1019 -91 701 211 
Q 384 513 384 1019 
Q 384 1609 779 1909 
Q 1175 2209 1959 2209 
L 2766 2209 
L 2766 2266 
Q 2766 2663 2505 2880 
Q 2244 3097 1772 3097 
Q 1472 3097 1187 3025 
Q 903 2953 641 2809 
L 641 3341 
Q 956 3463 1253 3523 
Q 1550 3584 1831 3584 
Q 2591 3584 2966 3190 
Q 3341 2797 3341 1997 
z
" id="DejaVuSans-61" transform="scale(0.015625)"/>
      <path d="M -19 4666 
L 3928 4666 
L 3928 4134 
L 2272 4134 
L 2272 0 
L 1638 0 
L 1638 4134 
L -19 4134 
L -19 4666 
z
" id="DejaVuSans-54" transform="scale(0.015625)"/>
      <path d="M 603 3500 
L 1178 3500 
L 1178 0 
L 603 0 
L 603 3500 
z
M 603 4863 
L 1178 4863 
L 1178 4134 
L 603 4134 
L 603 4863 
z
" id="DejaVuSans-69" transform="scale(0.015625)"/>
      <path d="M 1159 525 
L 1159 -1331 
L 581 -1331 
L 581 3500 
L 1159 3500 
L 1159 2969 
Q 1341 3281 1617 3432 
Q 1894 3584 2278 3584 
Q 2916 3584 3314 3078 
Q 3713 2572 3713 1747 
Q 3713 922 3314 415 
Q 2916 -91 2278 -91 
Q 1894 -91 1617 61 
Q 1341 213 1159 525 
z
M 3116 1747 
Q 3116 2381 2855 2742 
Q 2594 3103 2138 3103 
Q 1681 3103 1420 2742 
Q 1159 2381 1159 1747 
Q 1159 1113 1420 752 
Q 1681 391 2138 391 
Q 2594 391 2855 752 
Q 3116 1113 3116 1747 
z
" id="DejaVuSans-70" transform="scale(0.015625)"/>
      <path d="M 603 4863 
L 1178 4863 
L 1178 0 
L 603 0 
L 603 4863 
z
" id="DejaVuSans-6c" transform="scale(0.015625)"/>
     </defs>
     <use xlink:href="#DejaVuSans-50"/>
     <use x="56.677734" xlink:href="#DejaVuSans-6f"/>
     <use x="117.859375" xlink:href="#DejaVuSans-77"/>
     <use x="199.646484" xlink:href="#DejaVuSans-64"/>
     <use x="263.123047" xlink:href="#DejaVuSans-65"/>
     <use x="324.646484" xlink:href="#DejaVuSans-72"/>
     <use x="365.759766" xlink:href="#DejaVuSans-20"/>
     <use x="397.546875" xlink:href="#DejaVuSans-42"/>
     <use x="466.150391" xlink:href="#DejaVuSans-65"/>
     <use x="527.673828" xlink:href="#DejaVuSans-61"/>
     <use x="588.953125" xlink:href="#DejaVuSans-72"/>
     <use x="630.066406" xlink:href="#DejaVuSans-20"/>
     <use x="661.853516" xlink:href="#DejaVuSans-54"/>
     <use x="708.1875" xlink:href="#DejaVuSans-72"/>
     <use x="749.300781" xlink:href="#DejaVuSans-69"/>
     <use x="777.083984" xlink:href="#DejaVuSans-70"/>
     <use x="840.560547" xlink:href="#DejaVuSans-6c"/>
     <use x="868.34375" xlink:href="#DejaVuSans-65"/>
    </g>
   </g>
   <g id="text_2">
    <g id="patch_3">
     <path d="M 51.623383 106.379402 
L 59.898443 120.402718 
L 61.599919 119.398689 
L 53.324859 105.375373 
z
" style="fill:#ffffff;"/>
    </g>
    <!-- Polar Bear Triple -->
    <g style="fill:#808080;" transform="translate(52.008992 106.17508)rotate(-300.544556)scale(0.02 -0.02)">
     <use xlink:href="#DejaVuSans-50"/>
     <use x="56.677734" xlink:href="#DejaVuSans-6f"/>
     <use x="117.859375" xlink:href="#DejaVuSans-6c"/>
     <use x="145.642578" xlink:href="#DejaVuSans-61"/>
     <use x="206.921875" xlink:href="#DejaVuSans-72"/>
     <use x="248.035156" xlink:href="#DejaVuSans-20"/>
     <use x="279.822266" xlink:href="#DejaVuSans-42"/>
     <use x="348.425781" xlink:href="#DejaVuSans-65"/>
     <use x="409.949219" xlink:href="#DejaVuSans-61"/>
     <use x="471.228516" xlink:href="#DejaVuSans-72"/>
     <use x="512.341797" xlink:href="#DejaVuSans-20"/>
     <use x="544.128906" xlink:href="#DejaVuSans-54"/>
     <use x="590.462891" xlink:href="#DejaVuSans-72"/>
     <use x="631.576172" xlink:href="#DejaVuSans-69"/>
     <use x="659.359375" xlink:href="#DejaVuSans-70"/>
     <use x="722.835938" xlink:href="#DejaVuSans-6c"/>
     <use x="750.619141" xlink:href="#DejaVuSans-65"/>
    </g>
   </g>
   <g id="text_3">
    <g id="patch_4">
     <path d="M 60.031621 69.610005 
L 76.760791 69.232155 
L 76.716181 67.257033 
L 59.98701 67.634883 
z
" style="fill:#ffffff;"/>
    </g>
    <!-- Black Bear Triple -->
    <g style="fill:#808080;" transform="translate(60.041772 69.173727)rotate(-1.293879)scale(0.02 -0.02)">
     <defs>
      <path d="M 3122 3366 
L 3122 2828 
Q 2878 2963 2633 3030 
Q 2388 3097 2138 3097 
Q 1578 3097 1268 2742 
Q 959 2388 959 1747 
Q 959 1106 1268 751 
Q 1578 397 2138 397 
Q 2388 397 2633 464 
Q 2878 531 3122 666 
L 3122 134 
Q 2881 22 2623 -34 
Q 2366 -91 2075 -91 
Q 1284 -91 818 406 
Q 353 903 353 1747 
Q 353 2603 823 3093 
Q 1294 3584 2113 3584 
Q 2378 3584 2631 3529 
Q 2884 3475 3122 3366 
z
" id="DejaVuSans-63" transform="scale(0.015625)"/>
      <path d="M 581 4863 
L 1159 4863 
L 1159 1991 
L 2875 3500 
L 3609 3500 
L 1753 1863 
L 3688 0 
L 2938 0 
L 1159 1709 
L 1159 0 
L 581 0 
L 581 4863 
z
" id="DejaVuSans-6b" transform="scale(0.015625)"/>
     </defs>
     <use xlink:href="#DejaVuSans-42"/>
     <use x="68.603516" xlink:href="#DejaVuSans-6c"/>
     <use x="96.386719" xlink:href="#DejaVuSans-61"/>
     <use x="157.666016" xlink:href="#DejaVuSans-63"/>
     <use x="212.646484" xlink:href="#DejaVuSans-6b"/>
     <use x="270.556641" xlink:href="#DejaVuSans-20"/>
     <use x="302.34375" xlink:href="#DejaVuSans-42"/>
     <use x="370.947266" xlink:href="#DejaVuSans-65"/>
     <use x="432.470703" xlink:href="#DejaVuSans-61"/>
     <use x="493.75" xlink:href="#DejaVuSans-72"/>
     <use x="534.863281" xlink:href="#DejaVuSans-20"/>
     <use x="566.650391" xlink:href="#DejaVuSans-54"/>
     <use x="612.984375" xlink:href="#DejaVuSans-72"/>
     <use x="654.097656" xlink:href="#DejaVuSans-69"/>
     <use x="681.880859" xlink:href="#DejaVuSans-70"/>
     <use x="745.357422" xlink:href="#DejaVuSans-6c"/>
     <use x="773.140625" xlink:href="#DejaVuSans-65"/>
    </g>
   </g>
   <g id="text_4">
    <g id="patch_5">
     <path d="M 43.227512 115.627398 
L 56.039571 126.228194 
L 57.299004 124.70605 
L 44.486945 114.105254 
z
" style="fill:#ffffff;"/>
    </g>
    <!-- East Slope 13.6° -->
    <g style="fill:#008000;" transform="translate(43.520825 115.304275)rotate(-320.395384)scale(0.02 -0.02)">
     <defs>
      <path d="M 628 4666 
L 3578 4666 
L 3578 4134 
L 1259 4134 
L 1259 2753 
L 3481 2753 
L 3481 2222 
L 1259 2222 
L 1259 531 
L 3634 531 
L 3634 0 
L 628 0 
L 628 4666 
z
" id="DejaVuSans-45" transform="scale(0.015625)"/>
      <path d="M 2834 3397 
L 2834 2853 
Q 2591 2978 2328 3040 
Q 2066 3103 1784 3103 
Q 1356 3103 1142 2972 
Q 928 2841 928 2578 
Q 928 2378 1081 2264 
Q 1234 2150 1697 2047 
L 1894 2003 
Q 2506 1872 2764 1633 
Q 3022 1394 3022 966 
Q 3022 478 2636 193 
Q 2250 -91 1575 -91 
Q 1294 -91 989 -36 
Q 684 19 347 128 
L 347 722 
Q 666 556 975 473 
Q 1284 391 1588 391 
Q 1994 391 2212 530 
Q 2431 669 2431 922 
Q 2431 1156 2273 1281 
Q 2116 1406 1581 1522 
L 1381 1569 
Q 847 1681 609 1914 
Q 372 2147 372 2553 
Q 372 3047 722 3315 
Q 1072 3584 1716 3584 
Q 2034 3584 2315 3537 
Q 2597 3491 2834 3397 
z
" id="DejaVuSans-73" transform="scale(0.015625)"/>
      <path d="M 1172 4494 
L 1172 3500 
L 2356 3500 
L 2356 3053 
L 1172 3053 
L 1172 1153 
Q 1172 725 1289 603 
Q 1406 481 1766 481 
L 2356 481 
L 2356 0 
L 1766 0 
Q 1100 0 847 248 
Q 594 497 594 1153 
L 594 3053 
L 172 3053 
L 172 3500 
L 594 3500 
L 594 4494 
L 1172 4494 
z
" id="DejaVuSans-74" transform="scale(0.015625)"/>
      <path d="M 3425 4513 
L 3425 3897 
Q 3066 4069 2747 4153 
Q 2428 4238 2131 4238 
Q 1616 4238 1336 4038 
Q 1056 3838 1056 3469 
Q 1056 3159 1242 3001 
Q 1428 2844 1947 2747 
L 2328 2669 
Q 3034 2534 3370 2195 
Q 3706 1856 3706 1288 
Q 3706 609 3251 259 
Q 2797 -91 1919 -91 
Q 1588 -91 1214 -16 
Q 841 59 441 206 
L 441 856 
Q 825 641 1194 531 
Q 1563 422 1919 422 
Q 2459 422 2753 634 
Q 3047 847 3047 1241 
Q 3047 1584 2836 1778 
Q 2625 1972 2144 2069 
L 1759 2144 
Q 1053 2284 737 2584 
Q 422 2884 422 3419 
Q 422 4038 858 4394 
Q 1294 4750 2059 4750 
Q 2388 4750 2728 4690 
Q 3069 4631 3425 4513 
z
" id="DejaVuSans-53" transform="scale(0.015625)"/>
      <path d="M 794 531 
L 1825 531 
L 1825 4091 
L 703 3866 
L 703 4441 
L 1819 4666 
L 2450 4666 
L 2450 531 
L 3481 531 
L 3481 0 
L 794 0 
L 794 531 
z
" id="DejaVuSans-31" transform="scale(0.015625)"/>
      <path d="M 2597 2516 
Q 3050 2419 3304 2112 
Q 3559 1806 3559 1356 
Q 3559 666 3084 287 
Q 2609 -91 1734 -91 
Q 1441 -91 1130 -33 
Q 819 25 488 141 
L 488 750 
Q 750 597 1062 519 
Q 1375 441 1716 441 
Q 2309 441 2620 675 
Q 2931 909 2931 1356 
Q 2931 1769 2642 2001 
Q 2353 2234 1838 2234 
L 1294 2234 
L 1294 2753 
L 1863 2753 
Q 2328 2753 2575 2939 
Q 2822 3125 2822 3475 
Q 2822 3834 2567 4026 
Q 2313 4219 1838 4219 
Q 1578 4219 1281 4162 
Q 984 4106 628 3988 
L 628 4550 
Q 988 4650 1302 4700 
Q 1616 4750 1894 4750 
Q 2613 4750 3031 4423 
Q 3450 4097 3450 3541 
Q 3450 3153 3228 2886 
Q 3006 2619 2597 2516 
z
" id="DejaVuSans-33" transform="scale(0.015625)"/>
      <path d="M 684 794 
L 1344 794 
L 1344 0 
L 684 0 
L 684 794 
z
" id="DejaVuSans-2e" transform="scale(0.015625)"/>
      <path d="M 2113 2584 
Q 1688 2584 1439 2293 
Q 1191 2003 1191 1497 
Q 1191 994 1439 701 
Q 1688 409 2113 409 
Q 2538 409 2786 701 
Q 3034 994 3034 1497 
Q 3034 2003 2786 2293 
Q 2538 2584 2113 2584 
z
M 3366 4563 
L 3366 3988 
Q 3128 4100 2886 4159 
Q 2644 4219 2406 4219 
Q 1781 4219 1451 3797 
Q 1122 3375 1075 2522 
Q 1259 2794 1537 2939 
Q 1816 3084 2150 3084 
Q 2853 3084 3261 2657 
Q 3669 2231 3669 1497 
Q 3669 778 3244 343 
Q 2819 -91 2113 -91 
Q 1303 -91 875 529 
Q 447 1150 447 2328 
Q 447 3434 972 4092 
Q 1497 4750 2381 4750 
Q 2619 4750 2861 4703 
Q 3103 4656 3366 4563 
z
" id="DejaVuSans-36" transform="scale(0.015625)"/>
      <path d="M 1600 4347 
Q 1350 4347 1178 4173 
Q 1006 4000 1006 3750 
Q 1006 3503 1178 3333 
Q 1350 3163 1600 3163 
Q 1850 3163 2022 3333 
Q 2194 3503 2194 3750 
Q 2194 3997 2020 4172 
Q 1847 4347 1600 4347 
z
M 1600 4750 
Q 1800 4750 1984 4673 
Q 2169 4597 2303 4453 
Q 2447 4313 2519 4134 
Q 2591 3956 2591 3750 
Q 2591 3338 2302 3052 
Q 2013 2766 1594 2766 
Q 1172 2766 890 3047 
Q 609 3328 609 3750 
Q 609 4169 896 4459 
Q 1184 4750 1600 4750 
z
" id="DejaVuSans-b0" transform="scale(0.015625)"/>
     </defs>
     <use xlink:href="#DejaVuSans-45"/>
     <use x="63.183594" xlink:href="#DejaVuSans-61"/>
     <use x="124.462891" xlink:href="#DejaVuSans-73"/>
     <use x="176.5625" xlink:href="#DejaVuSans-74"/>
     <use x="215.771484" xlink:href="#DejaVuSans-20"/>
     <use x="247.558594" xlink:href="#DejaVuSans-53"/>
     <use x="311.035156" xlink:href="#DejaVuSans-6c"/>
     <use x="338.818359" xlink:href="#DejaVuSans-6f"/>
     <use x="400" xlink:href="#DejaVuSans-70"/>
     <use x="463.476562" xlink:href="#DejaVuSans-65"/>
     <use x="525" xlink:href="#DejaVuSans-20"/>
     <use x="556.787109" xlink:href="#DejaVuSans-31"/>
     <use x="620.410156" xlink:href="#DejaVuSans-33"/>
     <use x="684.033203" xlink:href="#DejaVuSans-2e"/>
     <use x="715.820312" xlink:href="#DejaVuSans-36"/>
     <use x="779.443359" xlink:href="#DejaVuSans-b0"/>
    </g>
   </g>
   <g id="text_5">
    <g id="patch_6">
     <path d="M 24.359601 49.837615 
L 33.586308 63.920484 
L 35.238841 62.83779 
L 26.012134 48.754921 
z
" style="fill:#ffffff;"/>
    </g>
    <!-- Pokey Pine 15.1° -->
    <g style="fill:#008000;" transform="translate(24.735206 49.615439)rotate(-303.231711)scale(0.02 -0.02)">
     <defs>
      <path d="M 2059 -325 
Q 1816 -950 1584 -1140 
Q 1353 -1331 966 -1331 
L 506 -1331 
L 506 -850 
L 844 -850 
Q 1081 -850 1212 -737 
Q 1344 -625 1503 -206 
L 1606 56 
L 191 3500 
L 800 3500 
L 1894 763 
L 2988 3500 
L 3597 3500 
L 2059 -325 
z
" id="DejaVuSans-79" transform="scale(0.015625)"/>
      <path d="M 3513 2113 
L 3513 0 
L 2938 0 
L 2938 2094 
Q 2938 2591 2744 2837 
Q 2550 3084 2163 3084 
Q 1697 3084 1428 2787 
Q 1159 2491 1159 1978 
L 1159 0 
L 581 0 
L 581 3500 
L 1159 3500 
L 1159 2956 
Q 1366 3272 1645 3428 
Q 1925 3584 2291 3584 
Q 2894 3584 3203 3211 
Q 3513 2838 3513 2113 
z
" id="DejaVuSans-6e" transform="scale(0.015625)"/>
      <path d="M 691 4666 
L 3169 4666 
L 3169 4134 
L 1269 4134 
L 1269 2991 
Q 1406 3038 1543 3061 
Q 1681 3084 1819 3084 
Q 2600 3084 3056 2656 
Q 3513 2228 3513 1497 
Q 3513 744 3044 326 
Q 2575 -91 1722 -91 
Q 1428 -91 1123 -41 
Q 819 9 494 109 
L 494 744 
Q 775 591 1075 516 
Q 1375 441 1709 441 
Q 2250 441 2565 725 
Q 2881 1009 2881 1497 
Q 2881 1984 2565 2268 
Q 2250 2553 1709 2553 
Q 1456 2553 1204 2497 
Q 953 2441 691 2322 
L 691 4666 
z
" id="DejaVuSans-35" transform="scale(0.015625)"/>
     </defs>
     <use xlink:href="#DejaVuSans-50"/>
     <use x="56.677734" xlink:href="#DejaVuSans-6f"/>
     <use x="117.859375" xlink:href="#DejaVuSans-6b"/>
     <use x="172.144531" xlink:href="#DejaVuSans-65"/>
     <use x="233.667969" xlink:href="#DejaVuSans-79"/>
     <use x="292.847656" xlink:href="#DejaVuSans-20"/>
     <use x="324.634766" xlink:href="#DejaVuSans-50"/>
     <use x="382.6875" xlink:href="#DejaVuSans-69"/>
     <use x="410.470703" xlink:href="#DejaVuSans-6e"/>
     <use x="473.849609" xlink:href="#DejaVuSans-65"/>
     <use x="535.373047" xlink:href="#DejaVuSans-20"/>
     <use x="567.160156" xlink:href="#DejaVuSans-31"/>
     <use x="630.783203" xlink:href="#DejaVuSans-35"/>
     <use x="694.40625" xlink:href="#DejaVuSans-2e"/>
     <use x="726.193359" xlink:href="#DejaVuSans-31"/>
     <use x="789.816406" xlink:href="#DejaVuSans-b0"/>
    </g>
   </g>
   <g id="text_6">
    <g id="patch_7">
     <path d="M 1.240379 88.12551 
L 9.678923 70.894632 
L 7.904644 70.025708 
L -0.5339 87.256586 
z
" style="fill:#ffffff;"/>
    </g>
    <!-- Crooked Pine 14.8° -->
    <g style="fill:#008000;" transform="translate(0.857666 87.915813)rotate(-63.907445)scale(0.02 -0.02)">
     <defs>
      <path d="M 4122 4306 
L 4122 3641 
Q 3803 3938 3442 4084 
Q 3081 4231 2675 4231 
Q 1875 4231 1450 3742 
Q 1025 3253 1025 2328 
Q 1025 1406 1450 917 
Q 1875 428 2675 428 
Q 3081 428 3442 575 
Q 3803 722 4122 1019 
L 4122 359 
Q 3791 134 3420 21 
Q 3050 -91 2638 -91 
Q 1578 -91 968 557 
Q 359 1206 359 2328 
Q 359 3453 968 4101 
Q 1578 4750 2638 4750 
Q 3056 4750 3426 4639 
Q 3797 4528 4122 4306 
z
" id="DejaVuSans-43" transform="scale(0.015625)"/>
      <path d="M 2419 4116 
L 825 1625 
L 2419 1625 
L 2419 4116 
z
M 2253 4666 
L 3047 4666 
L 3047 1625 
L 3713 1625 
L 3713 1100 
L 3047 1100 
L 3047 0 
L 2419 0 
L 2419 1100 
L 313 1100 
L 313 1709 
L 2253 4666 
z
" id="DejaVuSans-34" transform="scale(0.015625)"/>
      <path d="M 2034 2216 
Q 1584 2216 1326 1975 
Q 1069 1734 1069 1313 
Q 1069 891 1326 650 
Q 1584 409 2034 409 
Q 2484 409 2743 651 
Q 3003 894 3003 1313 
Q 3003 1734 2745 1975 
Q 2488 2216 2034 2216 
z
M 1403 2484 
Q 997 2584 770 2862 
Q 544 3141 544 3541 
Q 544 4100 942 4425 
Q 1341 4750 2034 4750 
Q 2731 4750 3128 4425 
Q 3525 4100 3525 3541 
Q 3525 3141 3298 2862 
Q 3072 2584 2669 2484 
Q 3125 2378 3379 2068 
Q 3634 1759 3634 1313 
Q 3634 634 3220 271 
Q 2806 -91 2034 -91 
Q 1263 -91 848 271 
Q 434 634 434 1313 
Q 434 1759 690 2068 
Q 947 2378 1403 2484 
z
M 1172 3481 
Q 1172 3119 1398 2916 
Q 1625 2713 2034 2713 
Q 2441 2713 2670 2916 
Q 2900 3119 2900 3481 
Q 2900 3844 2670 4047 
Q 2441 4250 2034 4250 
Q 1625 4250 1398 4047 
Q 1172 3844 1172 3481 
z
" id="DejaVuSans-38" transform="scale(0.015625)"/>
     </defs>
     <use xlink:href="#DejaVuSans-43"/>
     <use x="69.824219" xlink:href="#DejaVuSans-72"/>
     <use x="108.6875" xlink:href="#DejaVuSans-6f"/>
     <use x="169.869141" xlink:href="#DejaVuSans-6f"/>
     <use x="231.050781" xlink:href="#DejaVuSans-6b"/>
     <use x="285.335938" xlink:href="#DejaVuSans-65"/>
     <use x="346.859375" xlink:href="#DejaVuSans-64"/>
     <use x="410.335938" xlink:href="#DejaVuSans-20"/>
     <use x="442.123047" xlink:href="#DejaVuSans-50"/>
     <use x="500.175781" xlink:href="#DejaVuSans-69"/>
     <use x="527.958984" xlink:href="#DejaVuSans-6e"/>
     <use x="591.337891" xlink:href="#DejaVuSans-65"/>
     <use x="652.861328" xlink:href="#DejaVuSans-20"/>
     <use x="684.648438" xlink:href="#DejaVuSans-31"/>
     <use x="748.271484" xlink:href="#DejaVuSans-34"/>
     <use x="811.894531" xlink:href="#DejaVuSans-2e"/>
     <use x="843.681641" xlink:href="#DejaVuSans-38"/>
     <use x="907.304688" xlink:href="#DejaVuSans-b0"/>
    </g>
   </g>
   <g id="text_7">
    <g id="patch_8">
     <path d="M 20.111606 92.781342 
L 34.722039 102.475034 
L 35.814281 100.828795 
L 21.203848 91.135103 
z
" style="fill:#ffffff;"/>
    </g>
    <!-- Knotty Pine 10.2° -->
    <g style="fill:#008000;" transform="translate(20.369284 92.429143)rotate(-326.436625)scale(0.02 -0.02)">
     <defs>
      <path d="M 628 4666 
L 1259 4666 
L 1259 2694 
L 3353 4666 
L 4166 4666 
L 1850 2491 
L 4331 0 
L 3500 0 
L 1259 2247 
L 1259 0 
L 628 0 
L 628 4666 
z
" id="DejaVuSans-4b" transform="scale(0.015625)"/>
      <path d="M 2034 4250 
Q 1547 4250 1301 3770 
Q 1056 3291 1056 2328 
Q 1056 1369 1301 889 
Q 1547 409 2034 409 
Q 2525 409 2770 889 
Q 3016 1369 3016 2328 
Q 3016 3291 2770 3770 
Q 2525 4250 2034 4250 
z
M 2034 4750 
Q 2819 4750 3233 4129 
Q 3647 3509 3647 2328 
Q 3647 1150 3233 529 
Q 2819 -91 2034 -91 
Q 1250 -91 836 529 
Q 422 1150 422 2328 
Q 422 3509 836 4129 
Q 1250 4750 2034 4750 
z
" id="DejaVuSans-30" transform="scale(0.015625)"/>
      <path d="M 1228 531 
L 3431 531 
L 3431 0 
L 469 0 
L 469 531 
Q 828 903 1448 1529 
Q 2069 2156 2228 2338 
Q 2531 2678 2651 2914 
Q 2772 3150 2772 3378 
Q 2772 3750 2511 3984 
Q 2250 4219 1831 4219 
Q 1534 4219 1204 4116 
Q 875 4013 500 3803 
L 500 4441 
Q 881 4594 1212 4672 
Q 1544 4750 1819 4750 
Q 2544 4750 2975 4387 
Q 3406 4025 3406 3419 
Q 3406 3131 3298 2873 
Q 3191 2616 2906 2266 
Q 2828 2175 2409 1742 
Q 1991 1309 1228 531 
z
" id="DejaVuSans-32" transform="scale(0.015625)"/>
     </defs>
     <use xlink:href="#DejaVuSans-4b"/>
     <use x="65.576172" xlink:href="#DejaVuSans-6e"/>
     <use x="128.955078" xlink:href="#DejaVuSans-6f"/>
     <use x="190.136719" xlink:href="#DejaVuSans-74"/>
     <use x="229.345703" xlink:href="#DejaVuSans-74"/>
     <use x="268.554688" xlink:href="#DejaVuSans-79"/>
     <use x="327.734375" xlink:href="#DejaVuSans-20"/>
     <use x="359.521484" xlink:href="#DejaVuSans-50"/>
     <use x="417.574219" xlink:href="#DejaVuSans-69"/>
     <use x="445.357422" xlink:href="#DejaVuSans-6e"/>
     <use x="508.736328" xlink:href="#DejaVuSans-65"/>
     <use x="570.259766" xlink:href="#DejaVuSans-20"/>
     <use x="602.046875" xlink:href="#DejaVuSans-31"/>
     <use x="665.669922" xlink:href="#DejaVuSans-30"/>
     <use x="729.292969" xlink:href="#DejaVuSans-2e"/>
     <use x="761.080078" xlink:href="#DejaVuSans-32"/>
     <use x="824.703125" xlink:href="#DejaVuSans-b0"/>
    </g>
   </g>
   <g id="text_8">
    <g id="patch_9">
     <path d="M 27.788888 128.05613 
L 43.581903 136.099817 
L 44.47853 134.339375 
L 28.685514 126.295688 
z
" style="fill:#ffffff;"/>
    </g>
    <!-- Scotch Pine 10.9° -->
    <g style="fill:#008000;" transform="translate(28.004557 127.676751)rotate(-333.009378)scale(0.02 -0.02)">
     <defs>
      <path d="M 3513 2113 
L 3513 0 
L 2938 0 
L 2938 2094 
Q 2938 2591 2744 2837 
Q 2550 3084 2163 3084 
Q 1697 3084 1428 2787 
Q 1159 2491 1159 1978 
L 1159 0 
L 581 0 
L 581 4863 
L 1159 4863 
L 1159 2956 
Q 1366 3272 1645 3428 
Q 1925 3584 2291 3584 
Q 2894 3584 3203 3211 
Q 3513 2838 3513 2113 
z
" id="DejaVuSans-68" transform="scale(0.015625)"/>
      <path d="M 703 97 
L 703 672 
Q 941 559 1184 500 
Q 1428 441 1663 441 
Q 2288 441 2617 861 
Q 2947 1281 2994 2138 
Q 2813 1869 2534 1725 
Q 2256 1581 1919 1581 
Q 1219 1581 811 2004 
Q 403 2428 403 3163 
Q 403 3881 828 4315 
Q 1253 4750 1959 4750 
Q 2769 4750 3195 4129 
Q 3622 3509 3622 2328 
Q 3622 1225 3098 567 
Q 2575 -91 1691 -91 
Q 1453 -91 1209 -44 
Q 966 3 703 97 
z
M 1959 2075 
Q 2384 2075 2632 2365 
Q 2881 2656 2881 3163 
Q 2881 3666 2632 3958 
Q 2384 4250 1959 4250 
Q 1534 4250 1286 3958 
Q 1038 3666 1038 3163 
Q 1038 2656 1286 2365 
Q 1534 2075 1959 2075 
z
" id="DejaVuSans-39" transform="scale(0.015625)"/>
     </defs>
     <use xlink:href="#DejaVuSans-53"/>
     <use x="63.476562" xlink:href="#DejaVuSans-63"/>
     <use x="118.457031" xlink:href="#DejaVuSans-6f"/>
     <use x="179.638672" xlink:href="#DejaVuSans-74"/>
     <use x="218.847656" xlink:href="#DejaVuSans-63"/>
     <use x="273.828125" xlink:href="#DejaVuSans-68"/>
     <use x="337.207031" xlink:href="#DejaVuSans-20"/>
     <use x="368.994141" xlink:href="#DejaVuSans-50"/>
     <use x="427.046875" xlink:href="#DejaVuSans-69"/>
     <use x="454.830078" xlink:href="#DejaVuSans-6e"/>
     <use x="518.208984" xlink:href="#DejaVuSans-65"/>
     <use x="579.732422" xlink:href="#DejaVuSans-20"/>
     <use x="611.519531" xlink:href="#DejaVuSans-31"/>
     <use x="675.142578" xlink:href="#DejaVuSans-30"/>
     <use x="738.765625" xlink:href="#DejaVuSans-2e"/>
     <use x="770.552734" xlink:href="#DejaVuSans-39"/>
     <use x="834.175781" xlink:href="#DejaVuSans-b0"/>
    </g>
   </g>
   <g id="text_9">
    <g id="patch_10">
     <path d="M 33.007967 78.552961 
L 34.066284 94.615635 
L 36.037635 94.485749 
L 34.979318 78.423076 
z
" style="fill:#ffffff;"/>
    </g>
    <!-- Pine Cone 18.3° -->
    <g style="fill:#4169e1;" transform="translate(33.444277 78.544258)rotate(-273.769581)scale(0.02 -0.02)">
     <use xlink:href="#DejaVuSans-50"/>
     <use x="58.052734" xlink:href="#DejaVuSans-69"/>
     <use x="85.835938" xlink:href="#DejaVuSans-6e"/>
     <use x="149.214844" xlink:href="#DejaVuSans-65"/>
     <use x="210.738281" xlink:href="#DejaVuSans-20"/>
     <use x="242.525391" xlink:href="#DejaVuSans-43"/>
     <use x="312.349609" xlink:href="#DejaVuSans-6f"/>
     <use x="373.53125" xlink:href="#DejaVuSans-6e"/>
     <use x="436.910156" xlink:href="#DejaVuSans-65"/>
     <use x="498.433594" xlink:href="#DejaVuSans-20"/>
     <use x="530.220703" xlink:href="#DejaVuSans-31"/>
     <use x="593.84375" xlink:href="#DejaVuSans-38"/>
     <use x="657.466797" xlink:href="#DejaVuSans-2e"/>
     <use x="689.253906" xlink:href="#DejaVuSans-33"/>
     <use x="752.876953" xlink:href="#DejaVuSans-b0"/>
    </g>
   </g>
   <g id="text_10">
    <g id="patch_11">
     <path d="M 44.263658 69.069476 
L 60.488368 68.785885 
L 60.453841 66.810562 
L 44.229132 67.094153 
z
" style="fill:#ffffff;"/>
    </g>
    <!-- Pine Brule 30.5° -->
    <g style="fill:#ff0000;" transform="translate(44.276037 68.633256)rotate(-1.00137)scale(0.02 -0.02)">
     <defs>
      <path d="M 544 1381 
L 544 3500 
L 1119 3500 
L 1119 1403 
Q 1119 906 1312 657 
Q 1506 409 1894 409 
Q 2359 409 2629 706 
Q 2900 1003 2900 1516 
L 2900 3500 
L 3475 3500 
L 3475 0 
L 2900 0 
L 2900 538 
Q 2691 219 2414 64 
Q 2138 -91 1772 -91 
Q 1169 -91 856 284 
Q 544 659 544 1381 
z
M 1991 3584 
L 1991 3584 
z
" id="DejaVuSans-75" transform="scale(0.015625)"/>
     </defs>
     <use xlink:href="#DejaVuSans-50"/>
     <use x="58.052734" xlink:href="#DejaVuSans-69"/>
     <use x="85.835938" xlink:href="#DejaVuSans-6e"/>
     <use x="149.214844" xlink:href="#DejaVuSans-65"/>
     <use x="210.738281" xlink:href="#DejaVuSans-20"/>
     <use x="242.525391" xlink:href="#DejaVuSans-42"/>
     <use x="311.128906" xlink:href="#DejaVuSans-72"/>
     <use x="352.242188" xlink:href="#DejaVuSans-75"/>
     <use x="415.621094" xlink:href="#DejaVuSans-6c"/>
     <use x="443.404297" xlink:href="#DejaVuSans-65"/>
     <use x="504.927734" xlink:href="#DejaVuSans-20"/>
     <use x="536.714844" xlink:href="#DejaVuSans-33"/>
     <use x="600.337891" xlink:href="#DejaVuSans-30"/>
     <use x="663.960938" xlink:href="#DejaVuSans-2e"/>
     <use x="695.748047" xlink:href="#DejaVuSans-35"/>
     <use x="759.371094" xlink:href="#DejaVuSans-b0"/>
    </g>
   </g>
   <g id="text_11">
    <g id="patch_12">
     <path d="M 28.360251 72.337286 
L 29.290765 89.169085 
L 31.263378 89.060033 
L 30.332864 72.228234 
z
" style="fill:#ffffff;"/>
    </g>
    <!-- Pine Board 15.0° -->
    <g style="fill:#008000;" transform="translate(28.796628 72.333193)rotate(-273.164268)scale(0.02 -0.02)">
     <use xlink:href="#DejaVuSans-50"/>
     <use x="58.052734" xlink:href="#DejaVuSans-69"/>
     <use x="85.835938" xlink:href="#DejaVuSans-6e"/>
     <use x="149.214844" xlink:href="#DejaVuSans-65"/>
     <use x="210.738281" xlink:href="#DejaVuSans-20"/>
     <use x="242.525391" xlink:href="#DejaVuSans-42"/>
     <use x="311.128906" xlink:href="#DejaVuSans-6f"/>
     <use x="372.310547" xlink:href="#DejaVuSans-61"/>
     <use x="433.589844" xlink:href="#DejaVuSans-72"/>
     <use x="472.953125" xlink:href="#DejaVuSans-64"/>
     <use x="536.429688" xlink:href="#DejaVuSans-20"/>
     <use x="568.216797" xlink:href="#DejaVuSans-31"/>
     <use x="631.839844" xlink:href="#DejaVuSans-35"/>
     <use x="695.462891" xlink:href="#DejaVuSans-2e"/>
     <use x="727.25" xlink:href="#DejaVuSans-30"/>
     <use x="790.873047" xlink:href="#DejaVuSans-b0"/>
    </g>
   </g>
   <g id="text_12">
    <g id="patch_13">
     <path d="M 36.617757 74.633958 
L 39.609677 89.723642 
L 41.547576 89.339403 
L 38.555656 74.249719 
z
" style="fill:#ffffff;"/>
    </g>
    <!-- King Pine 19.8° -->
    <g style="fill:#4169e1;" transform="translate(37.04926 74.56879)rotate(-281.214915)scale(0.02 -0.02)">
     <defs>
      <path d="M 2906 1791 
Q 2906 2416 2648 2759 
Q 2391 3103 1925 3103 
Q 1463 3103 1205 2759 
Q 947 2416 947 1791 
Q 947 1169 1205 825 
Q 1463 481 1925 481 
Q 2391 481 2648 825 
Q 2906 1169 2906 1791 
z
M 3481 434 
Q 3481 -459 3084 -895 
Q 2688 -1331 1869 -1331 
Q 1566 -1331 1297 -1286 
Q 1028 -1241 775 -1147 
L 775 -588 
Q 1028 -725 1275 -790 
Q 1522 -856 1778 -856 
Q 2344 -856 2625 -561 
Q 2906 -266 2906 331 
L 2906 616 
Q 2728 306 2450 153 
Q 2172 0 1784 0 
Q 1141 0 747 490 
Q 353 981 353 1791 
Q 353 2603 747 3093 
Q 1141 3584 1784 3584 
Q 2172 3584 2450 3431 
Q 2728 3278 2906 2969 
L 2906 3500 
L 3481 3500 
L 3481 434 
z
" id="DejaVuSans-67" transform="scale(0.015625)"/>
     </defs>
     <use xlink:href="#DejaVuSans-4b"/>
     <use x="65.576172" xlink:href="#DejaVuSans-69"/>
     <use x="93.359375" xlink:href="#DejaVuSans-6e"/>
     <use x="156.738281" xlink:href="#DejaVuSans-67"/>
     <use x="220.214844" xlink:href="#DejaVuSans-20"/>
     <use x="252.001953" xlink:href="#DejaVuSans-50"/>
     <use x="310.054688" xlink:href="#DejaVuSans-69"/>
     <use x="337.837891" xlink:href="#DejaVuSans-6e"/>
     <use x="401.216797" xlink:href="#DejaVuSans-65"/>
     <use x="462.740234" xlink:href="#DejaVuSans-20"/>
     <use x="494.527344" xlink:href="#DejaVuSans-31"/>
     <use x="558.150391" xlink:href="#DejaVuSans-39"/>
     <use x="621.773438" xlink:href="#DejaVuSans-2e"/>
     <use x="653.560547" xlink:href="#DejaVuSans-38"/>
     <use x="717.183594" xlink:href="#DejaVuSans-b0"/>
    </g>
   </g>
   <g id="text_13">
    <g id="patch_14">
     <path d="M 50.071434 58.522557 
L 65.107744 59.220493 
L 65.199348 57.246993 
L 50.163037 56.549056 
z
" style="fill:#ffffff;"/>
    </g>
    <!-- Jack Pine 27.5° -->
    <g transform="translate(50.111625 58.088015)rotate(-357.342425)scale(0.02 -0.02)">
     <defs>
      <path d="M 628 4666 
L 1259 4666 
L 1259 325 
Q 1259 -519 939 -900 
Q 619 -1281 -91 -1281 
L -331 -1281 
L -331 -750 
L -134 -750 
Q 284 -750 456 -515 
Q 628 -281 628 325 
L 628 4666 
z
" id="DejaVuSans-4a" transform="scale(0.015625)"/>
      <path d="M 525 4666 
L 3525 4666 
L 3525 4397 
L 1831 0 
L 1172 0 
L 2766 4134 
L 525 4134 
L 525 4666 
z
" id="DejaVuSans-37" transform="scale(0.015625)"/>
     </defs>
     <use xlink:href="#DejaVuSans-4a"/>
     <use x="29.492188" xlink:href="#DejaVuSans-61"/>
     <use x="90.771484" xlink:href="#DejaVuSans-63"/>
     <use x="145.751953" xlink:href="#DejaVuSans-6b"/>
     <use x="203.662109" xlink:href="#DejaVuSans-20"/>
     <use x="235.449219" xlink:href="#DejaVuSans-50"/>
     <use x="293.501953" xlink:href="#DejaVuSans-69"/>
     <use x="321.285156" xlink:href="#DejaVuSans-6e"/>
     <use x="384.664062" xlink:href="#DejaVuSans-65"/>
     <use x="446.1875" xlink:href="#DejaVuSans-20"/>
     <use x="477.974609" xlink:href="#DejaVuSans-32"/>
     <use x="541.597656" xlink:href="#DejaVuSans-37"/>
     <use x="605.220703" xlink:href="#DejaVuSans-2e"/>
     <use x="637.007812" xlink:href="#DejaVuSans-35"/>
     <use x="700.630859" xlink:href="#DejaVuSans-b0"/>
    </g>
   </g>
   <g id="text_14">
    <g id="patch_15">
     <path d="M 49.210389 102.412336 
L 57.361842 117.095825 
L 59.08915 116.13692 
L 50.937697 101.453431 
z
" style="fill:#ffffff;"/>
    </g>
    <!-- White Pine 23.1° -->
    <g style="fill:#4169e1;" transform="translate(49.60124 102.218232)rotate(-299.03659)scale(0.02 -0.02)">
     <defs>
      <path d="M 213 4666 
L 850 4666 
L 1831 722 
L 2809 4666 
L 3519 4666 
L 4500 722 
L 5478 4666 
L 6119 4666 
L 4947 0 
L 4153 0 
L 3169 4050 
L 2175 0 
L 1381 0 
L 213 4666 
z
" id="DejaVuSans-57" transform="scale(0.015625)"/>
     </defs>
     <use xlink:href="#DejaVuSans-57"/>
     <use x="98.876953" xlink:href="#DejaVuSans-68"/>
     <use x="162.255859" xlink:href="#DejaVuSans-69"/>
     <use x="190.039062" xlink:href="#DejaVuSans-74"/>
     <use x="229.248047" xlink:href="#DejaVuSans-65"/>
     <use x="290.771484" xlink:href="#DejaVuSans-20"/>
     <use x="322.558594" xlink:href="#DejaVuSans-50"/>
     <use x="380.611328" xlink:href="#DejaVuSans-69"/>
     <use x="408.394531" xlink:href="#DejaVuSans-6e"/>
     <use x="471.773438" xlink:href="#DejaVuSans-65"/>
     <use x="533.296875" xlink:href="#DejaVuSans-20"/>
     <use x="565.083984" xlink:href="#DejaVuSans-32"/>
     <use x="628.707031" xlink:href="#DejaVuSans-33"/>
     <use x="692.330078" xlink:href="#DejaVuSans-2e"/>
     <use x="724.117188" xlink:href="#DejaVuSans-31"/>
     <use x="787.740234" xlink:href="#DejaVuSans-b0"/>
    </g>
   </g>
   <g id="text_15">
    <g id="patch_16">
     <path d="M 35.513156 62.106549 
L 40.578972 48.22281 
L 38.723032 47.545626 
L 33.657216 61.429364 
z
" style="fill:#ffffff;"/>
    </g>
    <!-- Red Pine 16.6° -->
    <g style="fill:#008000;" transform="translate(35.110483 61.938334)rotate(-69.954285)scale(0.02 -0.02)">
     <defs>
      <path d="M 2841 2188 
Q 3044 2119 3236 1894 
Q 3428 1669 3622 1275 
L 4263 0 
L 3584 0 
L 2988 1197 
Q 2756 1666 2539 1819 
Q 2322 1972 1947 1972 
L 1259 1972 
L 1259 0 
L 628 0 
L 628 4666 
L 2053 4666 
Q 2853 4666 3247 4331 
Q 3641 3997 3641 3322 
Q 3641 2881 3436 2590 
Q 3231 2300 2841 2188 
z
M 1259 4147 
L 1259 2491 
L 2053 2491 
Q 2509 2491 2742 2702 
Q 2975 2913 2975 3322 
Q 2975 3731 2742 3939 
Q 2509 4147 2053 4147 
L 1259 4147 
z
" id="DejaVuSans-52" transform="scale(0.015625)"/>
     </defs>
     <use xlink:href="#DejaVuSans-52"/>
     <use x="64.982422" xlink:href="#DejaVuSans-65"/>
     <use x="126.505859" xlink:href="#DejaVuSans-64"/>
     <use x="189.982422" xlink:href="#DejaVuSans-20"/>
     <use x="221.769531" xlink:href="#DejaVuSans-50"/>
     <use x="279.822266" xlink:href="#DejaVuSans-69"/>
     <use x="307.605469" xlink:href="#DejaVuSans-6e"/>
     <use x="370.984375" xlink:href="#DejaVuSans-65"/>
     <use x="432.507812" xlink:href="#DejaVuSans-20"/>
     <use x="464.294922" xlink:href="#DejaVuSans-31"/>
     <use x="527.917969" xlink:href="#DejaVuSans-36"/>
     <use x="591.541016" xlink:href="#DejaVuSans-2e"/>
     <use x="623.328125" xlink:href="#DejaVuSans-36"/>
     <use x="686.951172" xlink:href="#DejaVuSans-b0"/>
    </g>
   </g>
   <g id="text_16">
    <g id="patch_17">
     <path d="M 30.430077 16.788891 
L 52.571451 17.609138 
L 52.64459 15.634867 
L 30.503215 14.814621 
z
" style="fill:#ffffff;"/>
    </g>
    <!-- Slow Pokey Pine 10.6° -->
    <g style="fill:#008000;" transform="translate(30.466202 16.353993)rotate(-357.878397)scale(0.02 -0.02)">
     <use xlink:href="#DejaVuSans-53"/>
     <use x="63.476562" xlink:href="#DejaVuSans-6c"/>
     <use x="91.259766" xlink:href="#DejaVuSans-6f"/>
     <use x="152.441406" xlink:href="#DejaVuSans-77"/>
     <use x="234.228516" xlink:href="#DejaVuSans-20"/>
     <use x="266.015625" xlink:href="#DejaVuSans-50"/>
     <use x="322.693359" xlink:href="#DejaVuSans-6f"/>
     <use x="383.875" xlink:href="#DejaVuSans-6b"/>
     <use x="438.160156" xlink:href="#DejaVuSans-65"/>
     <use x="499.683594" xlink:href="#DejaVuSans-79"/>
     <use x="558.863281" xlink:href="#DejaVuSans-20"/>
     <use x="590.650391" xlink:href="#DejaVuSans-50"/>
     <use x="648.703125" xlink:href="#DejaVuSans-69"/>
     <use x="676.486328" xlink:href="#DejaVuSans-6e"/>
     <use x="739.865234" xlink:href="#DejaVuSans-65"/>
     <use x="801.388672" xlink:href="#DejaVuSans-20"/>
     <use x="833.175781" xlink:href="#DejaVuSans-31"/>
     <use x="896.798828" xlink:href="#DejaVuSans-30"/>
     <use x="960.421875" xlink:href="#DejaVuSans-2e"/>
     <use x="992.208984" xlink:href="#DejaVuSans-36"/>
     <use x="1055.832031" xlink:href="#DejaVuSans-b0"/>
    </g>
   </g>
   <g id="text_17">
    <g id="patch_18">
     <path d="M 48.938864 80.077371 
L 64.783366 80.351643 
L 64.817559 78.376314 
L 48.973058 78.102042 
z
" style="fill:#ffffff;"/>
    </g>
    <!-- Pitch Pine 30.9° -->
    <g style="fill:#ff0000;" transform="translate(48.966406 79.641845)rotate(-359.008295)scale(0.02 -0.02)">
     <use xlink:href="#DejaVuSans-50"/>
     <use x="58.052734" xlink:href="#DejaVuSans-69"/>
     <use x="85.835938" xlink:href="#DejaVuSans-74"/>
     <use x="125.044922" xlink:href="#DejaVuSans-63"/>
     <use x="180.025391" xlink:href="#DejaVuSans-68"/>
     <use x="243.404297" xlink:href="#DejaVuSans-20"/>
     <use x="275.191406" xlink:href="#DejaVuSans-50"/>
     <use x="333.244141" xlink:href="#DejaVuSans-69"/>
     <use x="361.027344" xlink:href="#DejaVuSans-6e"/>
     <use x="424.40625" xlink:href="#DejaVuSans-65"/>
     <use x="485.929688" xlink:href="#DejaVuSans-20"/>
     <use x="517.716797" xlink:href="#DejaVuSans-33"/>
     <use x="581.339844" xlink:href="#DejaVuSans-30"/>
     <use x="644.962891" xlink:href="#DejaVuSans-2e"/>
     <use x="676.75" xlink:href="#DejaVuSans-39"/>
     <use x="740.373047" xlink:href="#DejaVuSans-b0"/>
    </g>
   </g>
   <g id="text_18">
    <!-- King Pine -->
    <g transform="translate(29.673921 6.092598)scale(0.06 -0.06)">
     <use xlink:href="#DejaVuSans-4b"/>
     <use x="65.576172" xlink:href="#DejaVuSans-69"/>
     <use x="93.359375" xlink:href="#DejaVuSans-6e"/>
     <use x="156.738281" xlink:href="#DejaVuSans-67"/>
     <use x="220.214844" xlink:href="#DejaVuSans-20"/>
     <use x="252.001953" xlink:href="#DejaVuSans-50"/>
     <use x="310.054688" xlink:href="#DejaVuSans-69"/>
     <use x="337.837891" xlink:href="#DejaVuSans-6e"/>
     <use x="401.216797" xlink:href="#DejaVuSans-65"/>
    </g>
   </g>
   <g id="legend_1">
    <g id="line2d_29">
     <path d="M 1.554781 163.845668 
L 7.554781 163.845668 
" style="fill:none;stroke:#008000;stroke-linecap:square;stroke-width:1.5;"/>
    </g>
    <g id="line2d_30"/>
    <g id="text_19">
     <!-- Easy -->
     <g transform="translate(9.954781 164.895668)scale(0.03 -0.03)">
      <use xlink:href="#DejaVuSans-45"/>
      <use x="63.183594" xlink:href="#DejaVuSans-61"/>
      <use x="124.462891" xlink:href="#DejaVuSans-73"/>
      <use x="176.5625" xlink:href="#DejaVuSans-79"/>
     </g>
    </g>
    <g id="line2d_31">
     <path d="M 1.554781 168.249106 
L 7.554781 168.249106 
" style="fill:none;stroke:#4169e1;stroke-linecap:square;stroke-width:1.5;"/>
    </g>
    <g id="line2d_32"/>
    <g id="text_20">
     <!-- Intermediate -->
     <g transform="translate(9.954781 169.299106)scale(0.03 -0.03)">
      <defs>
       <path d="M 628 4666 
L 1259 4666 
L 1259 0 
L 628 0 
L 628 4666 
z
" id="DejaVuSans-49" transform="scale(0.015625)"/>
       <path d="M 3328 2828 
Q 3544 3216 3844 3400 
Q 4144 3584 4550 3584 
Q 5097 3584 5394 3201 
Q 5691 2819 5691 2113 
L 5691 0 
L 5113 0 
L 5113 2094 
Q 5113 2597 4934 2840 
Q 4756 3084 4391 3084 
Q 3944 3084 3684 2787 
Q 3425 2491 3425 1978 
L 3425 0 
L 2847 0 
L 2847 2094 
Q 2847 2600 2669 2842 
Q 2491 3084 2119 3084 
Q 1678 3084 1418 2786 
Q 1159 2488 1159 1978 
L 1159 0 
L 581 0 
L 581 3500 
L 1159 3500 
L 1159 2956 
Q 1356 3278 1631 3431 
Q 1906 3584 2284 3584 
Q 2666 3584 2933 3390 
Q 3200 3197 3328 2828 
z
" id="DejaVuSans-6d" transform="scale(0.015625)"/>
      </defs>
      <use xlink:href="#DejaVuSans-49"/>
      <use x="29.492188" xlink:href="#DejaVuSans-6e"/>
      <use x="92.871094" xlink:href="#DejaVuSans-74"/>
      <use x="132.080078" xlink:href="#DejaVuSans-65"/>
      <use x="193.603516" xlink:href="#DejaVuSans-72"/>
      <use x="232.966797" xlink:href="#DejaVuSans-6d"/>
      <use x="330.378906" xlink:href="#DejaVuSans-65"/>
      <use x="391.902344" xlink:href="#DejaVuSans-64"/>
      <use x="455.378906" xlink:href="#DejaVuSans-69"/>
      <use x="483.162109" xlink:href="#DejaVuSans-61"/>
      <use x="544.441406" xlink:href="#DejaVuSans-74"/>
      <use x="583.650391" xlink:href="#DejaVuSans-65"/>
     </g>
    </g>
    <g id="line2d_33">
     <path d="M 35.310406 163.845668 
L 41.310406 163.845668 
" style="fill:none;stroke:#000000;stroke-linecap:square;stroke-width:1.5;"/>
    </g>
    <g id="line2d_34"/>
    <g id="text_21">
     <!-- Advanced -->
     <g transform="translate(43.710406 164.895668)scale(0.03 -0.03)">
      <defs>
       <path d="M 2188 4044 
L 1331 1722 
L 3047 1722 
L 2188 4044 
z
M 1831 4666 
L 2547 4666 
L 4325 0 
L 3669 0 
L 3244 1197 
L 1141 1197 
L 716 0 
L 50 0 
L 1831 4666 
z
" id="DejaVuSans-41" transform="scale(0.015625)"/>
       <path d="M 191 3500 
L 800 3500 
L 1894 563 
L 2988 3500 
L 3597 3500 
L 2284 0 
L 1503 0 
L 191 3500 
z
" id="DejaVuSans-76" transform="scale(0.015625)"/>
      </defs>
      <use xlink:href="#DejaVuSans-41"/>
      <use x="66.658203" xlink:href="#DejaVuSans-64"/>
      <use x="130.134766" xlink:href="#DejaVuSans-76"/>
      <use x="189.314453" xlink:href="#DejaVuSans-61"/>
      <use x="250.59375" xlink:href="#DejaVuSans-6e"/>
      <use x="313.972656" xlink:href="#DejaVuSans-63"/>
      <use x="368.953125" xlink:href="#DejaVuSans-65"/>
      <use x="430.476562" xlink:href="#DejaVuSans-64"/>
     </g>
    </g>
    <g id="line2d_35">
     <path d="M 35.310406 168.249106 
L 41.310406 168.249106 
" style="fill:none;stroke:#ff0000;stroke-linecap:square;stroke-width:1.5;"/>
    </g>
    <g id="line2d_36"/>
    <g id="text_22">
     <!-- Expert -->
     <g transform="translate(43.710406 169.299106)scale(0.03 -0.03)">
      <defs>
       <path d="M 3513 3500 
L 2247 1797 
L 3578 0 
L 2900 0 
L 1881 1375 
L 863 0 
L 184 0 
L 1544 1831 
L 300 3500 
L 978 3500 
L 1906 2253 
L 2834 3500 
L 3513 3500 
z
" id="DejaVuSans-78" transform="scale(0.015625)"/>
      </defs>
      <use xlink:href="#DejaVuSans-45"/>
      <use x="63.183594" xlink:href="#DejaVuSans-78"/>
      <use x="122.363281" xlink:href="#DejaVuSans-70"/>
      <use x="185.839844" xlink:href="#DejaVuSans-65"/>
      <use x="247.363281" xlink:href="#DejaVuSans-72"/>
      <use x="288.476562" xlink:href="#DejaVuSans-74"/>
     </g>
    </g>
    <g id="line2d_37">
     <path d="M 64.529937 163.845668 
L 70.529937 163.845668 
" style="fill:none;stroke:#ffd700;stroke-linecap:square;stroke-width:1.5;"/>
    </g>
    <g id="line2d_38"/>
    <g id="text_23">
     <!-- Extreme -->
     <g transform="translate(72.929937 164.895668)scale(0.03 -0.03)">
      <use xlink:href="#DejaVuSans-45"/>
      <use x="63.183594" xlink:href="#DejaVuSans-78"/>
      <use x="122.363281" xlink:href="#DejaVuSans-74"/>
      <use x="161.572266" xlink:href="#DejaVuSans-72"/>
      <use x="200.435547" xlink:href="#DejaVuSans-65"/>
      <use x="261.958984" xlink:href="#DejaVuSans-6d"/>
      <use x="359.371094" xlink:href="#DejaVuSans-65"/>
     </g>
    </g>
    <g id="line2d_39">
     <path d="M 64.529937 168.249106 
L 70.529937 168.249106 
" style="fill:none;stroke:#000000;stroke-dasharray:1.5,2.475;stroke-dashoffset:0;stroke-width:1.5;"/>
    </g>
    <g id="line2d_40"/>
    <g id="text_24">
     <!-- Gladed -->
     <g transform="translate(72.929937 169.299106)scale(0.03 -0.03)">
      <defs>
       <path d="M 3809 666 
L 3809 1919 
L 2778 1919 
L 2778 2438 
L 4434 2438 
L 4434 434 
Q 4069 175 3628 42 
Q 3188 -91 2688 -91 
Q 1594 -91 976 548 
Q 359 1188 359 2328 
Q 359 3472 976 4111 
Q 1594 4750 2688 4750 
Q 3144 4750 3555 4637 
Q 3966 4525 4313 4306 
L 4313 3634 
Q 3963 3931 3569 4081 
Q 3175 4231 2741 4231 
Q 1884 4231 1454 3753 
Q 1025 3275 1025 2328 
Q 1025 1384 1454 906 
Q 1884 428 2741 428 
Q 3075 428 3337 486 
Q 3600 544 3809 666 
z
" id="DejaVuSans-47" transform="scale(0.015625)"/>
      </defs>
      <use xlink:href="#DejaVuSans-47"/>
      <use x="77.490234" xlink:href="#DejaVuSans-6c"/>
      <use x="105.273438" xlink:href="#DejaVuSans-61"/>
      <use x="166.552734" xlink:href="#DejaVuSans-64"/>
      <use x="230.029297" xlink:href="#DejaVuSans-65"/>
      <use x="291.552734" xlink:href="#DejaVuSans-64"/>
     </g>
    </g>
   </g>
  </g>
  <g id="text_25">
   <!-- Sources: USGS and OpenStreetMaps -->
   <g transform="translate(19.759553 173.0331)scale(0.026087 -0.026087)">
    <defs>
     <path d="M 750 794 
L 1409 794 
L 1409 0 
L 750 0 
L 750 794 
z
M 750 3309 
L 1409 3309 
L 1409 2516 
L 750 2516 
L 750 3309 
z
" id="DejaVuSans-3a" transform="scale(0.015625)"/>
     <path d="M 556 4666 
L 1191 4666 
L 1191 1831 
Q 1191 1081 1462 751 
Q 1734 422 2344 422 
Q 2950 422 3222 751 
Q 3494 1081 3494 1831 
L 3494 4666 
L 4128 4666 
L 4128 1753 
Q 4128 841 3676 375 
Q 3225 -91 2344 -91 
Q 1459 -91 1007 375 
Q 556 841 556 1753 
L 556 4666 
z
" id="DejaVuSans-55" transform="scale(0.015625)"/>
     <path d="M 2522 4238 
Q 1834 4238 1429 3725 
Q 1025 3213 1025 2328 
Q 1025 1447 1429 934 
Q 1834 422 2522 422 
Q 3209 422 3611 934 
Q 4013 1447 4013 2328 
Q 4013 3213 3611 3725 
Q 3209 4238 2522 4238 
z
M 2522 4750 
Q 3503 4750 4090 4092 
Q 4678 3434 4678 2328 
Q 4678 1225 4090 567 
Q 3503 -91 2522 -91 
Q 1538 -91 948 565 
Q 359 1222 359 2328 
Q 359 3434 948 4092 
Q 1538 4750 2522 4750 
z
" id="DejaVuSans-4f" transform="scale(0.015625)"/>
     <path d="M 628 4666 
L 1569 4666 
L 2759 1491 
L 3956 4666 
L 4897 4666 
L 4897 0 
L 4281 0 
L 4281 4097 
L 3078 897 
L 2444 897 
L 1241 4097 
L 1241 0 
L 628 0 
L 628 4666 
z
" id="DejaVuSans-4d" transform="scale(0.015625)"/>
    </defs>
    <use xlink:href="#DejaVuSans-53"/>
    <use x="63.476562" xlink:href="#DejaVuSans-6f"/>
    <use x="124.658203" xlink:href="#DejaVuSans-75"/>
    <use x="188.037109" xlink:href="#DejaVuSans-72"/>
    <use x="226.900391" xlink:href="#DejaVuSans-63"/>
    <use x="281.880859" xlink:href="#DejaVuSans-65"/>
    <use x="343.404297" xlink:href="#DejaVuSans-73"/>
    <use x="395.503906" xlink:href="#DejaVuSans-3a"/>
    <use x="429.195312" xlink:href="#DejaVuSans-20"/>
    <use x="460.982422" xlink:href="#DejaVuSans-55"/>
    <use x="534.175781" xlink:href="#DejaVuSans-53"/>
    <use x="597.652344" xlink:href="#DejaVuSans-47"/>
    <use x="675.142578" xlink:href="#DejaVuSans-53"/>
    <use x="738.619141" xlink:href="#DejaVuSans-20"/>
    <use x="770.40625" xlink:href="#DejaVuSans-61"/>
    <use x="831.685547" xlink:href="#DejaVuSans-6e"/>
    <use x="895.064453" xlink:href="#DejaVuSans-64"/>
    <use x="958.541016" xlink:href="#DejaVuSans-20"/>
    <use x="990.328125" xlink:href="#DejaVuSans-4f"/>
    <use x="1069.039062" xlink:href="#DejaVuSans-70"/>
    <use x="1132.515625" xlink:href="#DejaVuSans-65"/>
    <use x="1194.039062" xlink:href="#DejaVuSans-6e"/>
    <use x="1257.417969" xlink:href="#DejaVuSans-53"/>
    <use x="1320.894531" xlink:href="#DejaVuSans-74"/>
    <use x="1360.103516" xlink:href="#DejaVuSans-72"/>
    <use x="1398.966797" xlink:href="#DejaVuSans-65"/>
    <use x="1460.490234" xlink:href="#DejaVuSans-65"/>
    <use x="1522.013672" xlink:href="#DejaVuSans-74"/>
    <use x="1561.222656" xlink:href="#DejaVuSans-4d"/>
    <use x="1647.501953" xlink:href="#DejaVuSans-61"/>
    <use x="1708.78125" xlink:href="#DejaVuSans-70"/>
    <use x="1772.257812" xlink:href="#DejaVuSans-73"/>
   </g>
  </g>
 </g>
 <defs>
  <clipPath id="p4fa40dfb79">
   <rect height="155.39043" width="87.111905" x="0" y="9.092598"/>
  </clipPath>
 </defs>
</svg>
