<?xml version="1.0" encoding="utf-8" standalone="no"?>
<!DOCTYPE svg PUBLIC "-//W3C//DTD SVG 1.1//EN"
  "http://www.w3.org/Graphics/SVG/1.1/DTD/svg11.dtd">
<svg height="126.129499pt" version="1.1" viewBox="0 0 147.634624 126.129499" width="147.634624pt" xmlns="http://www.w3.org/2000/svg" xmlns:xlink="http://www.w3.org/1999/xlink">
 <metadata>
  <rdf:RDF xmlns:cc="http://creativecommons.org/ns#" xmlns:dc="http://purl.org/dc/elements/1.1/" xmlns:rdf="http://www.w3.org/1999/02/22-rdf-syntax-ns#">
   <cc:Work>
    <dc:type rdf:resource="http://purl.org/dc/dcmitype/StillImage"/>
    <dc:date>2022-04-14T21:30:09.181173</dc:date>
    <dc:format>image/svg+xml</dc:format>
    <dc:creator>
     <cc:Agent>
      <dc:title>Matplotlib v3.4.3, https://matplotlib.org/</dc:title>
     </cc:Agent>
    </dc:creator>
   </cc:Work>
  </rdf:RDF>
 </metadata>
 <defs>
  <style type="text/css">*{stroke-linecap:butt;stroke-linejoin:round;}</style>
 </defs>
 <g id="figure_1">
  <g id="patch_1">
   <path d="M 0 126.129499 
L 147.634624 126.129499 
L 147.634624 0 
L 0 0 
z
" style="fill:#ffffff;"/>
  </g>
  <g id="axes_1">
   <g id="line2d_1">
    <path clip-path="url(#pb11430d367)" d="M 6.710665 37.338037 
" style="fill:none;stroke:#008000;stroke-linecap:square;stroke-width:1.5;"/>
   </g>
   <g id="line2d_2">
    <path clip-path="url(#pb11430d367)" d="M 6.710665 37.338037 
" style="fill:none;stroke:#4169e1;stroke-linecap:square;stroke-width:1.5;"/>
   </g>
   <g id="line2d_3">
    <path clip-path="url(#pb11430d367)" d="M 6.710665 37.338037 
" style="fill:none;stroke:#000000;stroke-linecap:square;stroke-width:1.5;"/>
   </g>
   <g id="line2d_4">
    <path clip-path="url(#pb11430d367)" d="M 6.710665 37.338037 
" style="fill:none;stroke:#ff0000;stroke-linecap:square;stroke-width:1.5;"/>
   </g>
   <g id="line2d_5">
    <path clip-path="url(#pb11430d367)" d="M 6.710665 37.338037 
" style="fill:none;stroke:#ffd700;stroke-linecap:square;stroke-width:1.5;"/>
   </g>
   <g id="line2d_6">
    <path clip-path="url(#pb11430d367)" d="M 6.710665 37.338037 
" style="fill:none;stroke:#000000;stroke-dasharray:1.5,2.475;stroke-dashoffset:0;stroke-width:1.5;"/>
   </g>
   <g id="line2d_7">
    <path clip-path="url(#pb11430d367)" d="M 89.726434 20.718479 
L 91.757693 26.002575 
L 93.63544 30.698615 
L 95.513187 35.394655 
L 97.085021 39.216313 
L 98.656856 43.037972 
L 100.348274 47.110954 
L 102.039692 51.183935 
L 103.417968 54.631759 
L 104.796243 58.079582 
L 106.428147 62.023752 
L 108.060052 65.967921 
L 110.408348 71.644054 
L 112.756644 77.320186 
L 114.720046 82.065931 
L 116.683449 86.811676 
L 118.011665 90.021476 
L 119.339882 93.231277 
L 121.713763 99.043222 
" style="fill:none;stroke:#808080;stroke-linecap:square;stroke-width:1.5;"/>
   </g>
   <g id="line2d_8">
    <path clip-path="url(#pb11430d367)" d="M 92.250491 96.114148 
L 95.174737 97.825808 
L 98.098983 99.537469 
L 101.023228 101.249129 
L 103.947474 102.960789 
" style="fill:none;stroke:#808080;stroke-linecap:square;stroke-width:1.5;"/>
   </g>
   <g id="line2d_9">
    <path clip-path="url(#pb11430d367)" d="M 6.710665 37.338037 
L 7.519943 36.413251 
L 8.32922 35.488464 
L 9.138498 34.563677 
L 9.947776 33.638891 
L 11.376457 33.037534 
L 12.805138 32.436178 
L 14.233819 31.834821 
L 15.662501 31.233465 
L 17.091182 30.632109 
L 18.519863 30.030752 
L 19.948544 29.429396 
L 21.377225 28.82804 
L 22.805906 28.226683 
L 24.234588 27.625327 
L 25.663269 27.02397 
L 27.09195 26.422614 
L 28.520631 25.821258 
L 29.949312 25.219901 
L 31.377993 24.618545 
L 32.806675 24.017189 
L 33.839686 24.005988 
L 34.872697 23.994786 
L 35.905708 23.983585 
L 36.938719 23.972384 
L 37.97173 23.961183 
L 39.004741 23.949982 
L 40.037752 23.938781 
L 41.070763 23.92758 
L 42.634116 24.063743 
L 44.197468 24.199906 
L 45.76082 24.336068 
L 47.324172 24.472231 
L 48.887524 24.608394 
L 50.450877 24.744557 
L 52.014229 24.88072 
L 53.577581 25.016882 
L 55.376208 25.04576 
L 57.174835 25.074638 
L 58.973462 25.103515 
L 60.772088 25.132393 
L 62.570715 25.161271 
L 64.369342 25.190149 
L 66.167969 25.219026 
L 67.966595 25.247904 
L 69.184406 24.967353 
L 70.402216 24.686801 
L 71.620026 24.40625 
L 72.837836 24.125699 
L 74.055646 23.845147 
L 75.273456 23.564596 
L 76.491266 23.284045 
L 77.709076 23.003494 
L 78.926886 22.722942 
L 80.144696 22.442391 
L 81.362506 22.16184 
L 82.580317 21.881288 
L 83.798127 21.600737 
L 85.015937 21.320186 
L 86.233747 21.039634 
L 87.451557 20.759083 
" style="fill:none;stroke:#008000;stroke-linecap:square;stroke-width:1.5;"/>
   </g>
   <g id="line2d_10">
    <path clip-path="url(#pb11430d367)" d="M 98.771434 62.494196 
L 99.746808 62.260636 
L 100.722183 62.027077 
L 101.697557 61.793518 
L 102.672931 61.559958 
L 103.648306 61.326399 
L 104.62368 61.092839 
L 105.599055 60.85928 
L 106.574429 60.625721 
L 107.549803 60.392161 
L 108.525178 60.158602 
L 109.500552 59.925042 
L 110.475927 59.691483 
L 111.451301 59.457924 
L 112.426675 59.224364 
L 113.40205 58.990805 
L 114.377424 58.757245 
" style="fill:none;stroke:#008000;stroke-linecap:square;stroke-width:1.5;"/>
   </g>
   <g id="line2d_11">
    <path clip-path="url(#pb11430d367)" d="M 126.345836 75.668031 
L 124.733885 75.056261 
L 123.121935 74.444491 
L 121.509984 73.832721 
L 119.898033 73.220951 
L 118.286083 72.609182 
L 116.674132 71.997412 
L 115.062182 71.385642 
L 113.450231 70.773872 
L 111.83828 70.162102 
L 110.22633 69.550332 
L 108.614379 68.938562 
L 107.002428 68.326793 
L 105.390478 67.715023 
L 103.778527 67.103253 
L 102.166577 66.491483 
L 100.554626 65.879713 
" style="fill:none;stroke:#008000;stroke-linecap:square;stroke-width:1.5;"/>
   </g>
   <g id="line2d_12">
    <path clip-path="url(#pb11430d367)" d="M 99.233084 85.167921 
L 99.231137 83.942807 
L 99.22919 82.717692 
L 99.227244 81.492577 
L 99.225297 80.267462 
L 99.22335 79.042347 
L 99.221403 77.817232 
L 99.219457 76.592117 
L 99.21751 75.367003 
L 99.215563 74.141888 
L 99.213617 72.916773 
L 99.21167 71.691658 
L 99.209723 70.466543 
L 99.207776 69.241428 
L 99.20583 68.016313 
L 99.203883 66.791199 
L 99.201936 65.566084 
" style="fill:none;stroke:#4169e1;stroke-linecap:square;stroke-width:1.5;"/>
   </g>
   <g id="line2d_13">
    <path clip-path="url(#pb11430d367)" d="M 119.755923 98.361358 
L 118.178249 97.589273 
L 116.600574 96.817189 
L 115.0229 96.045104 
L 113.445225 95.273019 
L 111.867551 94.500934 
L 110.289876 93.728849 
L 108.712202 92.956764 
L 107.134527 92.184679 
L 105.556853 91.412594 
L 103.979178 90.640509 
L 102.401504 89.868425 
L 100.823829 89.09634 
L 99.246155 88.324255 
L 97.66848 87.55217 
L 96.090806 86.780085 
L 94.513131 86.008 
" style="fill:none;stroke:#008000;stroke-linecap:square;stroke-width:1.5;"/>
   </g>
   <g id="line2d_14">
    <path clip-path="url(#pb11430d367)" d="M 106.90982 89.144294 
L 108.009507 88.62362 
L 109.109193 88.102947 
L 110.208879 87.582273 
L 111.308565 87.061599 
L 112.408251 86.540925 
L 113.507937 86.020251 
L 114.607623 85.499578 
L 115.707309 84.978904 
L 116.806996 84.45823 
L 117.906682 83.937556 
L 119.006368 83.416882 
L 120.106054 82.896208 
L 121.20574 82.375535 
L 122.305426 81.854861 
L 123.405112 81.334187 
L 124.504798 80.813513 
L 125.153055 79.991724 
L 125.801311 79.169934 
L 126.449568 78.348145 
L 127.097824 77.526355 
L 127.746081 76.704565 
L 128.394337 75.882776 
L 129.042594 75.060986 
L 129.690851 74.239197 
L 130.339107 73.417407 
L 130.987364 72.595618 
L 131.63562 71.773828 
L 132.283877 70.952039 
L 132.932133 70.130249 
L 133.58039 69.30846 
L 134.228646 68.48667 
L 134.876903 67.664881 
L 133.693021 67.082951 
L 132.50914 66.501021 
L 131.325258 65.919092 
L 130.141376 65.337162 
L 128.957495 64.755233 
L 127.773613 64.173303 
L 126.589732 63.591374 
L 125.40585 63.009444 
L 124.221968 62.427515 
L 123.038087 61.845585 
L 121.854205 61.263655 
L 120.670323 60.681726 
L 119.486442 60.099796 
L 118.30256 59.517867 
L 117.118679 58.935937 
L 115.934797 58.354008 
L 117.49662 57.87525 
L 119.058442 57.396493 
L 120.620265 56.917735 
L 122.182088 56.438978 
L 123.74391 55.960221 
L 125.305733 55.481463 
L 126.867556 55.002706 
L 128.429378 54.523949 
L 129.991201 54.045191 
L 131.553024 53.566434 
L 133.114846 53.087676 
L 134.676669 52.608919 
L 136.238492 52.130162 
L 137.800314 51.651404 
L 139.362137 51.172647 
L 140.92396 50.693889 
L 139.668119 50.017364 
L 138.412279 49.340838 
L 137.156438 48.664312 
L 135.900597 47.987786 
L 134.644757 47.31126 
L 133.388916 46.634734 
L 132.133076 45.958208 
L 130.877235 45.281682 
L 129.621394 44.605156 
L 128.365554 43.92863 
L 127.109713 43.252104 
L 125.853873 42.575578 
L 124.598032 41.899052 
L 123.342192 41.222527 
L 122.086351 40.546001 
L 120.83051 39.869475 
L 120.007571 39.293714 
L 119.184631 38.717954 
L 118.361692 38.142194 
L 117.538752 37.566434 
L 116.715813 36.990674 
L 115.892873 36.414913 
L 115.069934 35.839153 
L 114.246994 35.263393 
L 113.424055 34.687633 
L 112.601115 34.111872 
L 111.778175 33.536112 
L 110.955236 32.960352 
L 110.132296 32.384592 
L 109.309357 31.808832 
L 108.486417 31.233071 
L 107.663478 30.657311 
L 106.840538 30.081551 
L 106.017599 29.505791 
L 105.194659 28.93003 
L 104.37172 28.35427 
L 103.54878 27.77851 
L 102.72584 27.20275 
L 101.902901 26.626989 
L 101.079961 26.051229 
L 100.257022 25.475469 
L 99.434082 24.899709 
L 98.611143 24.323949 
L 97.788203 23.748188 
L 96.965264 23.172428 
L 96.142324 22.596668 
L 95.319385 22.020908 
L 94.496445 21.445147 
L 93.109271 20.978204 
L 91.722096 20.51126 
" style="fill:none;stroke:#4169e1;stroke-linecap:square;stroke-width:1.5;"/>
   </g>
   <g id="line2d_15">
    <path clip-path="url(#pb11430d367)" d="M 92.543054 84.004412 
L 92.421037 82.501721 
L 92.299019 80.999031 
L 92.177002 79.49634 
L 92.054985 77.993649 
L 91.932967 76.490958 
L 91.81095 74.988267 
L 91.688932 73.485576 
L 91.566915 71.982885 
L 91.444898 70.480194 
L 91.32288 68.977504 
L 91.200863 67.474813 
L 91.078845 65.972122 
L 90.956828 64.469431 
L 90.834811 62.96674 
L 90.712793 61.464049 
L 90.590776 59.961358 
" style="fill:none;stroke:#4169e1;stroke-linecap:square;stroke-width:1.5;"/>
   </g>
   <g id="line2d_16">
    <path clip-path="url(#pb11430d367)" d="M 90.590776 59.961358 
L 90.524414 58.775316 
L 90.458052 57.589273 
L 90.391689 56.403231 
L 90.325327 55.217189 
L 90.258965 54.031146 
L 90.192603 52.845104 
L 90.126241 51.659061 
L 90.059879 50.473019 
L 89.993516 49.286976 
L 89.927154 48.100934 
L 89.860792 46.914891 
L 89.79443 45.728849 
L 89.728068 44.542807 
L 89.661706 43.356764 
L 89.595343 42.170722 
L 89.528981 40.984679 
L 89.462619 39.798637 
L 89.396257 38.612594 
L 89.329895 37.426552 
L 89.263533 36.240509 
L 89.19717 35.054467 
L 89.130808 33.868425 
L 89.064446 32.682382 
L 88.998084 31.49634 
L 88.931722 30.310297 
L 88.86536 29.124255 
L 88.798997 27.938212 
L 88.732635 26.75217 
L 88.666273 25.566128 
L 88.599911 24.380085 
L 88.533549 23.194043 
L 88.467187 22.008 
" style="fill:none;stroke:#000000;stroke-linecap:square;stroke-width:1.5;"/>
   </g>
   <g id="line2d_17">
    <path clip-path="url(#pb11430d367)" d="M 28.906568 49.085139 
L 28.952176 48.03294 
L 28.997785 46.980741 
L 28.289737 45.585861 
L 27.581688 44.19098 
L 26.87364 42.796099 
L 26.165591 41.401218 
L 24.986993 39.915679 
L 23.808396 38.43014 
L 22.6793 37.718348 
L 21.550205 37.006556 
L 20.421109 36.294765 
L 19.292014 35.582973 
L 18.162919 34.871181 
L 17.033823 34.159389 
L 15.904728 33.447598 
L 14.775632 32.735806 
" style="fill:none;stroke:#4169e1;stroke-linecap:square;stroke-width:1.5;"/>
   </g>
   <g id="line2d_18">
    <path clip-path="url(#pb11430d367)" d="M 82.657073 94.553001 
L 81.215147 93.737731 
L 79.773221 92.922461 
L 78.331295 92.107191 
L 76.88937 91.291921 
L 75.447444 90.47665 
L 74.005518 89.66138 
L 72.563592 88.84611 
L 71.121666 88.03084 
L 69.679741 87.21557 
L 68.237815 86.400299 
L 66.795889 85.585029 
L 65.353963 84.769759 
L 63.912037 83.954489 
L 62.470112 83.139219 
L 61.028186 82.323949 
L 59.58626 81.508678 
L 58.144334 80.693408 
L 56.702408 79.878138 
L 55.260483 79.062868 
L 53.818557 78.247598 
L 52.376631 77.432327 
L 50.934705 76.617057 
L 49.492779 75.801787 
L 48.050854 74.986517 
L 46.608928 74.171247 
L 45.167002 73.355977 
L 43.725076 72.540706 
L 42.28315 71.725436 
L 40.841225 70.910166 
L 39.399299 70.094896 
L 37.957373 69.279626 
L 36.515447 68.464355 
" style="fill:none;stroke:#4169e1;stroke-linecap:square;stroke-width:1.5;"/>
   </g>
   <g id="line2d_19">
    <path clip-path="url(#pb11430d367)" d="M 83.661578 95.971334 
L 82.06986 96.501459 
L 80.478141 97.031584 
L 78.886422 97.561708 
L 77.294704 98.091833 
L 75.702985 98.621958 
L 74.111266 99.152082 
L 72.519548 99.682207 
L 70.927829 100.212332 
L 70.136489 99.083476 
L 69.345149 97.95462 
L 68.553809 96.825764 
L 67.762468 95.696909 
L 66.971128 94.568053 
L 66.179788 93.439197 
L 65.388448 92.310341 
L 64.597108 91.181485 
L 63.168774 91.544119 
L 61.740441 91.906753 
L 60.832437 90.981616 
L 59.924432 90.05648 
L 59.016428 89.131343 
L 58.108424 88.206206 
L 56.596104 88.169453 
L 55.083783 88.132699 
L 53.571463 88.095946 
L 52.059142 88.059192 
L 51.126457 87.466587 
L 50.193771 86.873981 
L 49.261085 86.281376 
L 48.3284 85.68877 
L 47.395714 85.096165 
L 46.463028 84.503559 
L 45.530343 83.910954 
L 44.597657 83.318348 
L 43.664971 82.725742 
L 42.732286 82.133137 
L 41.7996 81.540531 
L 40.866914 80.947926 
L 39.934229 80.35532 
L 39.001543 79.762715 
L 38.068857 79.170109 
L 37.136172 78.577504 
L 36.56189 77.055473 
L 35.987609 75.533443 
L 35.413328 74.011413 
L 34.839046 72.489383 
L 34.264765 70.967353 
L 33.690484 69.445322 
L 33.116203 67.923292 
L 32.541921 66.401262 
L 31.96764 64.879232 
L 31.393359 63.357202 
L 30.819077 61.835171 
L 30.244796 60.313141 
L 29.670515 58.791111 
L 29.096233 57.269081 
L 28.521952 55.747051 
L 27.947671 54.225021 
" style="fill:none;stroke:#008000;stroke-linecap:square;stroke-width:1.5;"/>
   </g>
   <g id="line2d_20">
    <path clip-path="url(#pb11430d367)" d="M 65.469237 89.492927 
L 65.702843 87.651054 
L 65.936449 85.809182 
L 65.942011 84.108022 
L 65.947573 82.406863 
L 65.647222 81.468775 
L 64.468068 80.362671 
L 62.855075 80.124649 
L 61.898403 80.432677 
L 61.091906 81.055736 
L 60.285409 81.678794 
L 59.022825 82.945913 
L 57.76024 84.213032 
L 56.681203 85.648166 
L 55.602166 87.083301 
" style="fill:none;stroke:#008000;stroke-linecap:square;stroke-width:1.5;"/>
   </g>
   <g id="line2d_21">
    <path clip-path="url(#pb11430d367)" d="M 44.188847 82.05683 
L 44.555942 81.230752 
L 45.434745 80.13865 
L 45.723971 78.808525 
L 45.329066 77.89844 
L 44.934161 76.988355 
L 44.166598 76.239284 
L 43.399036 75.490214 
L 41.852787 74.91616 
L 40.58464 74.825152 
L 39.316494 74.734143 
L 38.048347 74.643135 
L 36.780201 74.552126 
" style="fill:none;stroke:#008000;stroke-linecap:square;stroke-width:1.5;"/>
   </g>
   <g id="line2d_22">
    <path clip-path="url(#pb11430d367)" d="M 105.432541 99.23504 
L 104.451118 98.58888 
L 103.469695 97.942719 
L 102.488272 97.296558 
L 101.506848 96.650398 
L 100.211448 96.053592 
L 98.916047 95.456786 
L 97.620647 94.85998 
L 96.325246 94.263174 
L 94.8196 93.843135 
L 93.313954 93.423095 
L 91.964601 93.280982 
L 90.615249 93.138869 
L 88.74807 93.68912 
L 86.880891 94.239372 
L 85.732884 94.844929 
L 84.584878 95.450485 
" style="fill:none;stroke:#008000;stroke-linecap:square;stroke-width:1.5;"/>
   </g>
   <g id="line2d_23">
    <path clip-path="url(#pb11430d367)" d="M 102.793906 105.618239 
L 101.68254 105.042872 
L 100.571173 104.467506 
L 99.459807 103.892139 
L 98.34844 103.316773 
L 97.237074 102.741406 
L 96.125707 102.16604 
L 95.014341 101.590674 
L 93.902975 101.015307 
L 92.791608 100.439941 
L 91.680242 99.864574 
L 90.568875 99.289208 
L 89.457509 98.713841 
L 88.346143 98.138475 
L 87.234776 97.563108 
L 86.12341 96.987742 
L 85.012043 96.412376 
" style="fill:none;stroke:#008000;stroke-linecap:square;stroke-width:1.5;"/>
   </g>
   <g id="line2d_24">
    <path clip-path="url(#pb11430d367)" d="M 92.921273 86.416838 
L 91.555791 85.89984 
L 90.190309 85.382842 
L 88.824826 84.865843 
L 87.459344 84.348845 
L 85.864149 83.503165 
L 84.268954 82.657486 
L 83.039742 82.224846 
L 81.810529 81.792205 
L 80.699232 81.7397 
L 79.587935 81.687195 
L 78.457728 81.974222 
" style="fill:none;stroke:#008000;stroke-linecap:square;stroke-width:1.5;"/>
   </g>
   <g id="line2d_25">
    <path clip-path="url(#pb11430d367)" d="M 85.082125 68.034515 
L 83.501391 68.608569 
L 81.920658 69.182623 
L 80.339924 69.756677 
L 78.759191 70.33073 
L 77.178457 70.904784 
L 75.597723 71.478838 
L 74.01699 72.052892 
L 72.436256 72.626946 
" style="fill:none;stroke:#008000;stroke-linecap:square;stroke-width:1.5;"/>
   </g>
   <g id="line2d_26">
    <path clip-path="url(#pb11430d367)" d="M 85.662803 67.313448 
L 84.583766 67.059674 
L 83.504729 66.8059 
L 82.425692 66.552126 
L 81.346655 66.298352 
L 80.267618 66.044579 
L 79.188581 65.790805 
L 78.109544 65.537031 
L 77.030506 65.283257 
L 75.951469 65.029483 
L 74.872432 64.77571 
L 73.793395 64.521936 
L 72.714358 64.268162 
L 71.635321 64.014388 
L 70.556284 63.760614 
L 69.477247 63.506841 
L 68.39821 63.253067 
" style="fill:none;stroke:#008000;stroke-linecap:square;stroke-width:1.5;"/>
   </g>
   <g id="line2d_27">
    <path clip-path="url(#pb11430d367)" d="M 85.552674 92.871444 
L 84.739294 91.972734 
L 83.925915 91.074025 
L 83.112535 90.175316 
L 82.299155 89.276607 
L 81.485775 88.377897 
L 80.672396 87.479188 
L 79.859016 86.580479 
L 79.045636 85.68177 
L 78.232256 84.78306 
L 77.418876 83.884351 
L 76.605497 82.985642 
L 75.792117 82.086933 
L 74.978737 81.188223 
L 74.165357 80.289514 
L 73.351978 79.390805 
L 72.538598 78.492096 
L 71.988372 77.598199 
L 71.438147 76.704303 
L 70.887921 75.810407 
L 70.337696 74.91651 
L 69.78747 74.022614 
L 69.237245 73.128718 
L 68.68702 72.234821 
L 68.136794 71.340925 
L 67.586569 70.447029 
L 67.036343 69.553133 
L 66.486118 68.659236 
L 65.935892 67.76534 
L 65.385667 66.871444 
L 64.835441 65.977547 
L 64.285216 65.083651 
L 63.73499 64.189755 
" style="fill:none;stroke:#4169e1;stroke-linecap:square;stroke-width:1.5;"/>
   </g>
   <g id="line2d_28">
    <path clip-path="url(#pb11430d367)" d="M 63.73499 64.189755 
L 62.26223 63.642566 
L 60.78947 63.095377 
L 59.316709 62.548188 
L 57.843949 62.001 
L 56.371189 61.453811 
L 54.898428 60.906622 
L 53.425668 60.359433 
L 51.952907 59.812244 
L 50.480147 59.265056 
L 49.007387 58.717867 
L 47.534626 58.170678 
L 46.061866 57.623489 
L 44.589105 57.0763 
L 43.116345 56.529112 
L 41.643585 55.981923 
L 40.170824 55.434734 
L 38.698064 54.887545 
L 37.225303 54.340356 
L 35.752543 53.793168 
L 34.279783 53.245979 
L 32.807022 52.69879 
L 31.334262 52.151601 
L 29.861501 51.604412 
L 28.388741 51.057224 
L 26.915981 50.510035 
L 25.44322 49.962846 
L 23.97046 49.415657 
L 22.497699 48.868468 
L 21.024939 48.32128 
L 19.552179 47.774091 
L 18.079418 47.226902 
L 16.606658 46.679713 
L 15.786673 46.136987 
L 14.966688 45.594261 
L 14.146704 45.051536 
L 13.326719 44.50881 
L 12.506734 43.966084 
L 11.68675 43.423358 
L 10.866765 42.880632 
L 10.04678 42.337906 
L 9.294513 41.364815 
L 8.542247 40.391724 
L 7.78998 39.418632 
L 7.037713 38.445541 
" style="fill:none;stroke:#008000;stroke-linecap:square;stroke-width:1.5;"/>
   </g>
   <g id="line2d_29">
    <path clip-path="url(#pb11430d367)" d="M 60.287634 74.505922 
L 59.418703 73.919792 
L 58.549773 73.333662 
L 57.680842 72.747532 
L 56.811911 72.161402 
L 55.94298 71.575272 
L 55.07405 70.989142 
L 54.205119 70.403012 
L 53.336188 69.816882 
L 52.467258 69.230752 
L 51.598327 68.644622 
L 50.729396 68.058492 
L 49.860465 67.472362 
L 48.991535 66.886233 
L 48.122604 66.300103 
L 47.253673 65.713973 
L 46.384743 65.127843 
L 45.515812 64.541713 
L 44.646881 63.955583 
L 43.77795 63.369453 
L 42.90902 62.783323 
L 42.040089 62.197193 
L 41.171158 61.611063 
L 40.302228 61.024933 
L 39.433297 60.438803 
L 38.564366 59.852673 
L 37.695435 59.266543 
L 36.826505 58.680413 
L 35.957574 58.094283 
L 35.088643 57.508153 
L 34.219713 56.922023 
L 33.350782 56.335893 
L 32.481851 55.749763 
" style="fill:none;stroke:#000000;stroke-dasharray:5.55,2.4;stroke-dashoffset:0;stroke-width:1.5;"/>
   </g>
   <g id="text_1">
    <g id="patch_2">
     <path d="M 103.761996 58.221798 
L 104.065664 58.825333 
L 105.830489 57.937366 
L 105.526822 57.333831 
z
" style="fill:#ffffff;"/>
    </g>
    <!--   -->
    <g style="fill:#808080;" transform="translate(104.160408 58.043727)rotate(-296.709127)scale(0.02 -0.02)">
     <defs>
      <path id="DejaVuSans-20" transform="scale(0.015625)"/>
     </defs>
     <use xlink:href="#DejaVuSans-20"/>
    </g>
   </g>
   <g id="text_2">
    <g id="patch_3">
     <path d="M 14.112565 32.299074 
L 29.268465 27.230636 
L 28.641885 25.357005 
L 13.485985 30.425444 
z
" style="fill:#ffffff;"/>
    </g>
    <!-- Deer Path 12.2° -->
    <g style="fill:#008000;" transform="translate(13.993273 31.879299)rotate(-18.490974)scale(0.02 -0.02)">
     <defs>
      <path d="M 1259 4147 
L 1259 519 
L 2022 519 
Q 2988 519 3436 956 
Q 3884 1394 3884 2338 
Q 3884 3275 3436 3711 
Q 2988 4147 2022 4147 
L 1259 4147 
z
M 628 4666 
L 1925 4666 
Q 3281 4666 3915 4102 
Q 4550 3538 4550 2338 
Q 4550 1131 3912 565 
Q 3275 0 1925 0 
L 628 0 
L 628 4666 
z
" id="DejaVuSans-44" transform="scale(0.015625)"/>
      <path d="M 3597 1894 
L 3597 1613 
L 953 1613 
Q 991 1019 1311 708 
Q 1631 397 2203 397 
Q 2534 397 2845 478 
Q 3156 559 3463 722 
L 3463 178 
Q 3153 47 2828 -22 
Q 2503 -91 2169 -91 
Q 1331 -91 842 396 
Q 353 884 353 1716 
Q 353 2575 817 3079 
Q 1281 3584 2069 3584 
Q 2775 3584 3186 3129 
Q 3597 2675 3597 1894 
z
M 3022 2063 
Q 3016 2534 2758 2815 
Q 2500 3097 2075 3097 
Q 1594 3097 1305 2825 
Q 1016 2553 972 2059 
L 3022 2063 
z
" id="DejaVuSans-65" transform="scale(0.015625)"/>
      <path d="M 2631 2963 
Q 2534 3019 2420 3045 
Q 2306 3072 2169 3072 
Q 1681 3072 1420 2755 
Q 1159 2438 1159 1844 
L 1159 0 
L 581 0 
L 581 3500 
L 1159 3500 
L 1159 2956 
Q 1341 3275 1631 3429 
Q 1922 3584 2338 3584 
Q 2397 3584 2469 3576 
Q 2541 3569 2628 3553 
L 2631 2963 
z
" id="DejaVuSans-72" transform="scale(0.015625)"/>
      <path d="M 1259 4147 
L 1259 2394 
L 2053 2394 
Q 2494 2394 2734 2622 
Q 2975 2850 2975 3272 
Q 2975 3691 2734 3919 
Q 2494 4147 2053 4147 
L 1259 4147 
z
M 628 4666 
L 2053 4666 
Q 2838 4666 3239 4311 
Q 3641 3956 3641 3272 
Q 3641 2581 3239 2228 
Q 2838 1875 2053 1875 
L 1259 1875 
L 1259 0 
L 628 0 
L 628 4666 
z
" id="DejaVuSans-50" transform="scale(0.015625)"/>
      <path d="M 2194 1759 
Q 1497 1759 1228 1600 
Q 959 1441 959 1056 
Q 959 750 1161 570 
Q 1363 391 1709 391 
Q 2188 391 2477 730 
Q 2766 1069 2766 1631 
L 2766 1759 
L 2194 1759 
z
M 3341 1997 
L 3341 0 
L 2766 0 
L 2766 531 
Q 2569 213 2275 61 
Q 1981 -91 1556 -91 
Q 1019 -91 701 211 
Q 384 513 384 1019 
Q 384 1609 779 1909 
Q 1175 2209 1959 2209 
L 2766 2209 
L 2766 2266 
Q 2766 2663 2505 2880 
Q 2244 3097 1772 3097 
Q 1472 3097 1187 3025 
Q 903 2953 641 2809 
L 641 3341 
Q 956 3463 1253 3523 
Q 1550 3584 1831 3584 
Q 2591 3584 2966 3190 
Q 3341 2797 3341 1997 
z
" id="DejaVuSans-61" transform="scale(0.015625)"/>
      <path d="M 1172 4494 
L 1172 3500 
L 2356 3500 
L 2356 3053 
L 1172 3053 
L 1172 1153 
Q 1172 725 1289 603 
Q 1406 481 1766 481 
L 2356 481 
L 2356 0 
L 1766 0 
Q 1100 0 847 248 
Q 594 497 594 1153 
L 594 3053 
L 172 3053 
L 172 3500 
L 594 3500 
L 594 4494 
L 1172 4494 
z
" id="DejaVuSans-74" transform="scale(0.015625)"/>
      <path d="M 3513 2113 
L 3513 0 
L 2938 0 
L 2938 2094 
Q 2938 2591 2744 2837 
Q 2550 3084 2163 3084 
Q 1697 3084 1428 2787 
Q 1159 2491 1159 1978 
L 1159 0 
L 581 0 
L 581 4863 
L 1159 4863 
L 1159 2956 
Q 1366 3272 1645 3428 
Q 1925 3584 2291 3584 
Q 2894 3584 3203 3211 
Q 3513 2838 3513 2113 
z
" id="DejaVuSans-68" transform="scale(0.015625)"/>
      <path d="M 794 531 
L 1825 531 
L 1825 4091 
L 703 3866 
L 703 4441 
L 1819 4666 
L 2450 4666 
L 2450 531 
L 3481 531 
L 3481 0 
L 794 0 
L 794 531 
z
" id="DejaVuSans-31" transform="scale(0.015625)"/>
      <path d="M 1228 531 
L 3431 531 
L 3431 0 
L 469 0 
L 469 531 
Q 828 903 1448 1529 
Q 2069 2156 2228 2338 
Q 2531 2678 2651 2914 
Q 2772 3150 2772 3378 
Q 2772 3750 2511 3984 
Q 2250 4219 1831 4219 
Q 1534 4219 1204 4116 
Q 875 4013 500 3803 
L 500 4441 
Q 881 4594 1212 4672 
Q 1544 4750 1819 4750 
Q 2544 4750 2975 4387 
Q 3406 4025 3406 3419 
Q 3406 3131 3298 2873 
Q 3191 2616 2906 2266 
Q 2828 2175 2409 1742 
Q 1991 1309 1228 531 
z
" id="DejaVuSans-32" transform="scale(0.015625)"/>
      <path d="M 684 794 
L 1344 794 
L 1344 0 
L 684 0 
L 684 794 
z
" id="DejaVuSans-2e" transform="scale(0.015625)"/>
      <path d="M 1600 4347 
Q 1350 4347 1178 4173 
Q 1006 4000 1006 3750 
Q 1006 3503 1178 3333 
Q 1350 3163 1600 3163 
Q 1850 3163 2022 3333 
Q 2194 3503 2194 3750 
Q 2194 3997 2020 4172 
Q 1847 4347 1600 4347 
z
M 1600 4750 
Q 1800 4750 1984 4673 
Q 2169 4597 2303 4453 
Q 2447 4313 2519 4134 
Q 2591 3956 2591 3750 
Q 2591 3338 2302 3052 
Q 2013 2766 1594 2766 
Q 1172 2766 890 3047 
Q 609 3328 609 3750 
Q 609 4169 896 4459 
Q 1184 4750 1600 4750 
z
" id="DejaVuSans-b0" transform="scale(0.015625)"/>
     </defs>
     <use xlink:href="#DejaVuSans-44"/>
     <use x="77.001953" xlink:href="#DejaVuSans-65"/>
     <use x="138.525391" xlink:href="#DejaVuSans-65"/>
     <use x="200.048828" xlink:href="#DejaVuSans-72"/>
     <use x="241.162109" xlink:href="#DejaVuSans-20"/>
     <use x="272.949219" xlink:href="#DejaVuSans-50"/>
     <use x="328.751953" xlink:href="#DejaVuSans-61"/>
     <use x="390.03125" xlink:href="#DejaVuSans-74"/>
     <use x="429.240234" xlink:href="#DejaVuSans-68"/>
     <use x="492.619141" xlink:href="#DejaVuSans-20"/>
     <use x="524.40625" xlink:href="#DejaVuSans-31"/>
     <use x="588.029297" xlink:href="#DejaVuSans-32"/>
     <use x="651.652344" xlink:href="#DejaVuSans-2e"/>
     <use x="683.439453" xlink:href="#DejaVuSans-32"/>
     <use x="747.0625" xlink:href="#DejaVuSans-b0"/>
    </g>
   </g>
   <g id="text_3">
    <g id="patch_4">
     <path d="M 109.463806 70.855016 
L 123.31411 75.031314 
L 123.884458 73.139808 
L 110.034154 68.963509 
z
" style="fill:#ffffff;"/>
    </g>
    <!-- Easy Way 8.2° -->
    <g style="fill:#008000;" transform="translate(109.608806 70.443414)rotate(-343.220304)scale(0.02 -0.02)">
     <defs>
      <path d="M 628 4666 
L 3578 4666 
L 3578 4134 
L 1259 4134 
L 1259 2753 
L 3481 2753 
L 3481 2222 
L 1259 2222 
L 1259 531 
L 3634 531 
L 3634 0 
L 628 0 
L 628 4666 
z
" id="DejaVuSans-45" transform="scale(0.015625)"/>
      <path d="M 2834 3397 
L 2834 2853 
Q 2591 2978 2328 3040 
Q 2066 3103 1784 3103 
Q 1356 3103 1142 2972 
Q 928 2841 928 2578 
Q 928 2378 1081 2264 
Q 1234 2150 1697 2047 
L 1894 2003 
Q 2506 1872 2764 1633 
Q 3022 1394 3022 966 
Q 3022 478 2636 193 
Q 2250 -91 1575 -91 
Q 1294 -91 989 -36 
Q 684 19 347 128 
L 347 722 
Q 666 556 975 473 
Q 1284 391 1588 391 
Q 1994 391 2212 530 
Q 2431 669 2431 922 
Q 2431 1156 2273 1281 
Q 2116 1406 1581 1522 
L 1381 1569 
Q 847 1681 609 1914 
Q 372 2147 372 2553 
Q 372 3047 722 3315 
Q 1072 3584 1716 3584 
Q 2034 3584 2315 3537 
Q 2597 3491 2834 3397 
z
" id="DejaVuSans-73" transform="scale(0.015625)"/>
      <path d="M 2059 -325 
Q 1816 -950 1584 -1140 
Q 1353 -1331 966 -1331 
L 506 -1331 
L 506 -850 
L 844 -850 
Q 1081 -850 1212 -737 
Q 1344 -625 1503 -206 
L 1606 56 
L 191 3500 
L 800 3500 
L 1894 763 
L 2988 3500 
L 3597 3500 
L 2059 -325 
z
" id="DejaVuSans-79" transform="scale(0.015625)"/>
      <path d="M 213 4666 
L 850 4666 
L 1831 722 
L 2809 4666 
L 3519 4666 
L 4500 722 
L 5478 4666 
L 6119 4666 
L 4947 0 
L 4153 0 
L 3169 4050 
L 2175 0 
L 1381 0 
L 213 4666 
z
" id="DejaVuSans-57" transform="scale(0.015625)"/>
      <path d="M 2034 2216 
Q 1584 2216 1326 1975 
Q 1069 1734 1069 1313 
Q 1069 891 1326 650 
Q 1584 409 2034 409 
Q 2484 409 2743 651 
Q 3003 894 3003 1313 
Q 3003 1734 2745 1975 
Q 2488 2216 2034 2216 
z
M 1403 2484 
Q 997 2584 770 2862 
Q 544 3141 544 3541 
Q 544 4100 942 4425 
Q 1341 4750 2034 4750 
Q 2731 4750 3128 4425 
Q 3525 4100 3525 3541 
Q 3525 3141 3298 2862 
Q 3072 2584 2669 2484 
Q 3125 2378 3379 2068 
Q 3634 1759 3634 1313 
Q 3634 634 3220 271 
Q 2806 -91 2034 -91 
Q 1263 -91 848 271 
Q 434 634 434 1313 
Q 434 1759 690 2068 
Q 947 2378 1403 2484 
z
M 1172 3481 
Q 1172 3119 1398 2916 
Q 1625 2713 2034 2713 
Q 2441 2713 2670 2916 
Q 2900 3119 2900 3481 
Q 2900 3844 2670 4047 
Q 2441 4250 2034 4250 
Q 1625 4250 1398 4047 
Q 1172 3844 1172 3481 
z
" id="DejaVuSans-38" transform="scale(0.015625)"/>
     </defs>
     <use xlink:href="#DejaVuSans-45"/>
     <use x="63.183594" xlink:href="#DejaVuSans-61"/>
     <use x="124.462891" xlink:href="#DejaVuSans-73"/>
     <use x="176.5625" xlink:href="#DejaVuSans-79"/>
     <use x="235.742188" xlink:href="#DejaVuSans-20"/>
     <use x="267.529297" xlink:href="#DejaVuSans-57"/>
     <use x="360.03125" xlink:href="#DejaVuSans-61"/>
     <use x="421.310547" xlink:href="#DejaVuSans-79"/>
     <use x="480.490234" xlink:href="#DejaVuSans-20"/>
     <use x="512.277344" xlink:href="#DejaVuSans-38"/>
     <use x="575.900391" xlink:href="#DejaVuSans-2e"/>
     <use x="607.6875" xlink:href="#DejaVuSans-32"/>
     <use x="671.310547" xlink:href="#DejaVuSans-b0"/>
    </g>
   </g>
   <g id="text_4">
    <g id="patch_5">
     <path d="M 104.409496 92.502319 
L 115.454316 96.796716 
L 116.170257 94.955379 
L 105.125436 90.660982 
z
" style="fill:#ffffff;"/>
    </g>
    <!-- Ski Top 9.9° -->
    <g style="fill:#008000;" transform="translate(104.586114 92.103261)rotate(-338.75315)scale(0.02 -0.02)">
     <defs>
      <path d="M 3425 4513 
L 3425 3897 
Q 3066 4069 2747 4153 
Q 2428 4238 2131 4238 
Q 1616 4238 1336 4038 
Q 1056 3838 1056 3469 
Q 1056 3159 1242 3001 
Q 1428 2844 1947 2747 
L 2328 2669 
Q 3034 2534 3370 2195 
Q 3706 1856 3706 1288 
Q 3706 609 3251 259 
Q 2797 -91 1919 -91 
Q 1588 -91 1214 -16 
Q 841 59 441 206 
L 441 856 
Q 825 641 1194 531 
Q 1563 422 1919 422 
Q 2459 422 2753 634 
Q 3047 847 3047 1241 
Q 3047 1584 2836 1778 
Q 2625 1972 2144 2069 
L 1759 2144 
Q 1053 2284 737 2584 
Q 422 2884 422 3419 
Q 422 4038 858 4394 
Q 1294 4750 2059 4750 
Q 2388 4750 2728 4690 
Q 3069 4631 3425 4513 
z
" id="DejaVuSans-53" transform="scale(0.015625)"/>
      <path d="M 581 4863 
L 1159 4863 
L 1159 1991 
L 2875 3500 
L 3609 3500 
L 1753 1863 
L 3688 0 
L 2938 0 
L 1159 1709 
L 1159 0 
L 581 0 
L 581 4863 
z
" id="DejaVuSans-6b" transform="scale(0.015625)"/>
      <path d="M 603 3500 
L 1178 3500 
L 1178 0 
L 603 0 
L 603 3500 
z
M 603 4863 
L 1178 4863 
L 1178 4134 
L 603 4134 
L 603 4863 
z
" id="DejaVuSans-69" transform="scale(0.015625)"/>
      <path d="M -19 4666 
L 3928 4666 
L 3928 4134 
L 2272 4134 
L 2272 0 
L 1638 0 
L 1638 4134 
L -19 4134 
L -19 4666 
z
" id="DejaVuSans-54" transform="scale(0.015625)"/>
      <path d="M 1959 3097 
Q 1497 3097 1228 2736 
Q 959 2375 959 1747 
Q 959 1119 1226 758 
Q 1494 397 1959 397 
Q 2419 397 2687 759 
Q 2956 1122 2956 1747 
Q 2956 2369 2687 2733 
Q 2419 3097 1959 3097 
z
M 1959 3584 
Q 2709 3584 3137 3096 
Q 3566 2609 3566 1747 
Q 3566 888 3137 398 
Q 2709 -91 1959 -91 
Q 1206 -91 779 398 
Q 353 888 353 1747 
Q 353 2609 779 3096 
Q 1206 3584 1959 3584 
z
" id="DejaVuSans-6f" transform="scale(0.015625)"/>
      <path d="M 1159 525 
L 1159 -1331 
L 581 -1331 
L 581 3500 
L 1159 3500 
L 1159 2969 
Q 1341 3281 1617 3432 
Q 1894 3584 2278 3584 
Q 2916 3584 3314 3078 
Q 3713 2572 3713 1747 
Q 3713 922 3314 415 
Q 2916 -91 2278 -91 
Q 1894 -91 1617 61 
Q 1341 213 1159 525 
z
M 3116 1747 
Q 3116 2381 2855 2742 
Q 2594 3103 2138 3103 
Q 1681 3103 1420 2742 
Q 1159 2381 1159 1747 
Q 1159 1113 1420 752 
Q 1681 391 2138 391 
Q 2594 391 2855 752 
Q 3116 1113 3116 1747 
z
" id="DejaVuSans-70" transform="scale(0.015625)"/>
      <path d="M 703 97 
L 703 672 
Q 941 559 1184 500 
Q 1428 441 1663 441 
Q 2288 441 2617 861 
Q 2947 1281 2994 2138 
Q 2813 1869 2534 1725 
Q 2256 1581 1919 1581 
Q 1219 1581 811 2004 
Q 403 2428 403 3163 
Q 403 3881 828 4315 
Q 1253 4750 1959 4750 
Q 2769 4750 3195 4129 
Q 3622 3509 3622 2328 
Q 3622 1225 3098 567 
Q 2575 -91 1691 -91 
Q 1453 -91 1209 -44 
Q 966 3 703 97 
z
M 1959 2075 
Q 2384 2075 2632 2365 
Q 2881 2656 2881 3163 
Q 2881 3666 2632 3958 
Q 2384 4250 1959 4250 
Q 1534 4250 1286 3958 
Q 1038 3666 1038 3163 
Q 1038 2656 1286 2365 
Q 1534 2075 1959 2075 
z
" id="DejaVuSans-39" transform="scale(0.015625)"/>
     </defs>
     <use xlink:href="#DejaVuSans-53"/>
     <use x="63.476562" xlink:href="#DejaVuSans-6b"/>
     <use x="121.386719" xlink:href="#DejaVuSans-69"/>
     <use x="149.169922" xlink:href="#DejaVuSans-20"/>
     <use x="180.957031" xlink:href="#DejaVuSans-54"/>
     <use x="225.041016" xlink:href="#DejaVuSans-6f"/>
     <use x="286.222656" xlink:href="#DejaVuSans-70"/>
     <use x="349.699219" xlink:href="#DejaVuSans-20"/>
     <use x="381.486328" xlink:href="#DejaVuSans-39"/>
     <use x="445.109375" xlink:href="#DejaVuSans-2e"/>
     <use x="476.896484" xlink:href="#DejaVuSans-39"/>
     <use x="540.519531" xlink:href="#DejaVuSans-b0"/>
    </g>
   </g>
   <g id="text_5">
    <g id="patch_6">
     <path d="M 116.549601 39.806842 
L 136.892462 48.513627 
L 137.669825 46.697367 
L 117.326964 37.990582 
z
" style="fill:#ffffff;"/>
    </g>
    <!-- Dream Highway 19.0° -->
    <g style="fill:#4169e1;" transform="translate(116.73952 39.413939)rotate(-336.828979)scale(0.02 -0.02)">
     <defs>
      <path d="M 3328 2828 
Q 3544 3216 3844 3400 
Q 4144 3584 4550 3584 
Q 5097 3584 5394 3201 
Q 5691 2819 5691 2113 
L 5691 0 
L 5113 0 
L 5113 2094 
Q 5113 2597 4934 2840 
Q 4756 3084 4391 3084 
Q 3944 3084 3684 2787 
Q 3425 2491 3425 1978 
L 3425 0 
L 2847 0 
L 2847 2094 
Q 2847 2600 2669 2842 
Q 2491 3084 2119 3084 
Q 1678 3084 1418 2786 
Q 1159 2488 1159 1978 
L 1159 0 
L 581 0 
L 581 3500 
L 1159 3500 
L 1159 2956 
Q 1356 3278 1631 3431 
Q 1906 3584 2284 3584 
Q 2666 3584 2933 3390 
Q 3200 3197 3328 2828 
z
" id="DejaVuSans-6d" transform="scale(0.015625)"/>
      <path d="M 628 4666 
L 1259 4666 
L 1259 2753 
L 3553 2753 
L 3553 4666 
L 4184 4666 
L 4184 0 
L 3553 0 
L 3553 2222 
L 1259 2222 
L 1259 0 
L 628 0 
L 628 4666 
z
" id="DejaVuSans-48" transform="scale(0.015625)"/>
      <path d="M 2906 1791 
Q 2906 2416 2648 2759 
Q 2391 3103 1925 3103 
Q 1463 3103 1205 2759 
Q 947 2416 947 1791 
Q 947 1169 1205 825 
Q 1463 481 1925 481 
Q 2391 481 2648 825 
Q 2906 1169 2906 1791 
z
M 3481 434 
Q 3481 -459 3084 -895 
Q 2688 -1331 1869 -1331 
Q 1566 -1331 1297 -1286 
Q 1028 -1241 775 -1147 
L 775 -588 
Q 1028 -725 1275 -790 
Q 1522 -856 1778 -856 
Q 2344 -856 2625 -561 
Q 2906 -266 2906 331 
L 2906 616 
Q 2728 306 2450 153 
Q 2172 0 1784 0 
Q 1141 0 747 490 
Q 353 981 353 1791 
Q 353 2603 747 3093 
Q 1141 3584 1784 3584 
Q 2172 3584 2450 3431 
Q 2728 3278 2906 2969 
L 2906 3500 
L 3481 3500 
L 3481 434 
z
" id="DejaVuSans-67" transform="scale(0.015625)"/>
      <path d="M 269 3500 
L 844 3500 
L 1563 769 
L 2278 3500 
L 2956 3500 
L 3675 769 
L 4391 3500 
L 4966 3500 
L 4050 0 
L 3372 0 
L 2619 2869 
L 1863 0 
L 1184 0 
L 269 3500 
z
" id="DejaVuSans-77" transform="scale(0.015625)"/>
      <path d="M 2034 4250 
Q 1547 4250 1301 3770 
Q 1056 3291 1056 2328 
Q 1056 1369 1301 889 
Q 1547 409 2034 409 
Q 2525 409 2770 889 
Q 3016 1369 3016 2328 
Q 3016 3291 2770 3770 
Q 2525 4250 2034 4250 
z
M 2034 4750 
Q 2819 4750 3233 4129 
Q 3647 3509 3647 2328 
Q 3647 1150 3233 529 
Q 2819 -91 2034 -91 
Q 1250 -91 836 529 
Q 422 1150 422 2328 
Q 422 3509 836 4129 
Q 1250 4750 2034 4750 
z
" id="DejaVuSans-30" transform="scale(0.015625)"/>
     </defs>
     <use xlink:href="#DejaVuSans-44"/>
     <use x="77.001953" xlink:href="#DejaVuSans-72"/>
     <use x="115.865234" xlink:href="#DejaVuSans-65"/>
     <use x="177.388672" xlink:href="#DejaVuSans-61"/>
     <use x="238.667969" xlink:href="#DejaVuSans-6d"/>
     <use x="336.080078" xlink:href="#DejaVuSans-20"/>
     <use x="367.867188" xlink:href="#DejaVuSans-48"/>
     <use x="443.0625" xlink:href="#DejaVuSans-69"/>
     <use x="470.845703" xlink:href="#DejaVuSans-67"/>
     <use x="534.322266" xlink:href="#DejaVuSans-68"/>
     <use x="597.701172" xlink:href="#DejaVuSans-77"/>
     <use x="679.488281" xlink:href="#DejaVuSans-61"/>
     <use x="740.767578" xlink:href="#DejaVuSans-79"/>
     <use x="799.947266" xlink:href="#DejaVuSans-20"/>
     <use x="831.734375" xlink:href="#DejaVuSans-31"/>
     <use x="895.357422" xlink:href="#DejaVuSans-39"/>
     <use x="958.980469" xlink:href="#DejaVuSans-2e"/>
     <use x="990.767578" xlink:href="#DejaVuSans-30"/>
     <use x="1054.390625" xlink:href="#DejaVuSans-b0"/>
    </g>
   </g>
   <g id="text_6">
    <g id="patch_7">
     <path d="M 88.100273 35.733796 
L 89.517843 55.862691 
L 91.488587 55.723903 
L 90.071017 35.595007 
z
" style="fill:#ffffff;"/>
    </g>
    <!-- Lower Wildcat 28.9° -->
    <g transform="translate(88.536539 35.723121)rotate(-274.028382)scale(0.02 -0.02)">
     <defs>
      <path d="M 628 4666 
L 1259 4666 
L 1259 531 
L 3531 531 
L 3531 0 
L 628 0 
L 628 4666 
z
" id="DejaVuSans-4c" transform="scale(0.015625)"/>
      <path d="M 603 4863 
L 1178 4863 
L 1178 0 
L 603 0 
L 603 4863 
z
" id="DejaVuSans-6c" transform="scale(0.015625)"/>
      <path d="M 2906 2969 
L 2906 4863 
L 3481 4863 
L 3481 0 
L 2906 0 
L 2906 525 
Q 2725 213 2448 61 
Q 2172 -91 1784 -91 
Q 1150 -91 751 415 
Q 353 922 353 1747 
Q 353 2572 751 3078 
Q 1150 3584 1784 3584 
Q 2172 3584 2448 3432 
Q 2725 3281 2906 2969 
z
M 947 1747 
Q 947 1113 1208 752 
Q 1469 391 1925 391 
Q 2381 391 2643 752 
Q 2906 1113 2906 1747 
Q 2906 2381 2643 2742 
Q 2381 3103 1925 3103 
Q 1469 3103 1208 2742 
Q 947 2381 947 1747 
z
" id="DejaVuSans-64" transform="scale(0.015625)"/>
      <path d="M 3122 3366 
L 3122 2828 
Q 2878 2963 2633 3030 
Q 2388 3097 2138 3097 
Q 1578 3097 1268 2742 
Q 959 2388 959 1747 
Q 959 1106 1268 751 
Q 1578 397 2138 397 
Q 2388 397 2633 464 
Q 2878 531 3122 666 
L 3122 134 
Q 2881 22 2623 -34 
Q 2366 -91 2075 -91 
Q 1284 -91 818 406 
Q 353 903 353 1747 
Q 353 2603 823 3093 
Q 1294 3584 2113 3584 
Q 2378 3584 2631 3529 
Q 2884 3475 3122 3366 
z
" id="DejaVuSans-63" transform="scale(0.015625)"/>
     </defs>
     <use xlink:href="#DejaVuSans-4c"/>
     <use x="53.962891" xlink:href="#DejaVuSans-6f"/>
     <use x="115.144531" xlink:href="#DejaVuSans-77"/>
     <use x="196.931641" xlink:href="#DejaVuSans-65"/>
     <use x="258.455078" xlink:href="#DejaVuSans-72"/>
     <use x="299.568359" xlink:href="#DejaVuSans-20"/>
     <use x="331.355469" xlink:href="#DejaVuSans-57"/>
     <use x="427.982422" xlink:href="#DejaVuSans-69"/>
     <use x="455.765625" xlink:href="#DejaVuSans-6c"/>
     <use x="483.548828" xlink:href="#DejaVuSans-64"/>
     <use x="547.025391" xlink:href="#DejaVuSans-63"/>
     <use x="602.005859" xlink:href="#DejaVuSans-61"/>
     <use x="663.285156" xlink:href="#DejaVuSans-74"/>
     <use x="702.494141" xlink:href="#DejaVuSans-20"/>
     <use x="734.28125" xlink:href="#DejaVuSans-32"/>
     <use x="797.904297" xlink:href="#DejaVuSans-38"/>
     <use x="861.527344" xlink:href="#DejaVuSans-2e"/>
     <use x="893.314453" xlink:href="#DejaVuSans-39"/>
     <use x="956.9375" xlink:href="#DejaVuSans-b0"/>
    </g>
   </g>
   <g id="text_7">
    <g id="patch_8">
     <path d="M 57.57533 82.693451 
L 78.090749 91.909291 
L 78.9003 90.107147 
L 58.38488 80.891308 
z
" style="fill:#ffffff;"/>
    </g>
    <!-- Lincoln Highway 18.4° -->
    <g style="fill:#4169e1;" transform="translate(57.772207 82.303989)rotate(-335.809656)scale(0.02 -0.02)">
     <defs>
      <path d="M 3513 2113 
L 3513 0 
L 2938 0 
L 2938 2094 
Q 2938 2591 2744 2837 
Q 2550 3084 2163 3084 
Q 1697 3084 1428 2787 
Q 1159 2491 1159 1978 
L 1159 0 
L 581 0 
L 581 3500 
L 1159 3500 
L 1159 2956 
Q 1366 3272 1645 3428 
Q 1925 3584 2291 3584 
Q 2894 3584 3203 3211 
Q 3513 2838 3513 2113 
z
" id="DejaVuSans-6e" transform="scale(0.015625)"/>
      <path d="M 2419 4116 
L 825 1625 
L 2419 1625 
L 2419 4116 
z
M 2253 4666 
L 3047 4666 
L 3047 1625 
L 3713 1625 
L 3713 1100 
L 3047 1100 
L 3047 0 
L 2419 0 
L 2419 1100 
L 313 1100 
L 313 1709 
L 2253 4666 
z
" id="DejaVuSans-34" transform="scale(0.015625)"/>
     </defs>
     <use xlink:href="#DejaVuSans-4c"/>
     <use x="55.712891" xlink:href="#DejaVuSans-69"/>
     <use x="83.496094" xlink:href="#DejaVuSans-6e"/>
     <use x="146.875" xlink:href="#DejaVuSans-63"/>
     <use x="201.855469" xlink:href="#DejaVuSans-6f"/>
     <use x="263.037109" xlink:href="#DejaVuSans-6c"/>
     <use x="290.820312" xlink:href="#DejaVuSans-6e"/>
     <use x="354.199219" xlink:href="#DejaVuSans-20"/>
     <use x="385.986328" xlink:href="#DejaVuSans-48"/>
     <use x="461.181641" xlink:href="#DejaVuSans-69"/>
     <use x="488.964844" xlink:href="#DejaVuSans-67"/>
     <use x="552.441406" xlink:href="#DejaVuSans-68"/>
     <use x="615.820312" xlink:href="#DejaVuSans-77"/>
     <use x="697.607422" xlink:href="#DejaVuSans-61"/>
     <use x="758.886719" xlink:href="#DejaVuSans-79"/>
     <use x="818.066406" xlink:href="#DejaVuSans-20"/>
     <use x="849.853516" xlink:href="#DejaVuSans-31"/>
     <use x="913.476562" xlink:href="#DejaVuSans-38"/>
     <use x="977.099609" xlink:href="#DejaVuSans-2e"/>
     <use x="1008.886719" xlink:href="#DejaVuSans-34"/>
     <use x="1072.509766" xlink:href="#DejaVuSans-b0"/>
    </g>
   </g>
   <g id="text_8">
    <g id="patch_9">
     <path d="M 37.982477 81.20727 
L 52.187904 88.378284 
L 53.078208 86.614637 
L 38.872781 79.443623 
z
" style="fill:#ffffff;"/>
    </g>
    <!-- Innsbruck 13.9° -->
    <g style="fill:#008000;" transform="translate(38.196784 80.82712)rotate(-333.214988)scale(0.02 -0.02)">
     <defs>
      <path d="M 628 4666 
L 1259 4666 
L 1259 0 
L 628 0 
L 628 4666 
z
" id="DejaVuSans-49" transform="scale(0.015625)"/>
      <path d="M 3116 1747 
Q 3116 2381 2855 2742 
Q 2594 3103 2138 3103 
Q 1681 3103 1420 2742 
Q 1159 2381 1159 1747 
Q 1159 1113 1420 752 
Q 1681 391 2138 391 
Q 2594 391 2855 752 
Q 3116 1113 3116 1747 
z
M 1159 2969 
Q 1341 3281 1617 3432 
Q 1894 3584 2278 3584 
Q 2916 3584 3314 3078 
Q 3713 2572 3713 1747 
Q 3713 922 3314 415 
Q 2916 -91 2278 -91 
Q 1894 -91 1617 61 
Q 1341 213 1159 525 
L 1159 0 
L 581 0 
L 581 4863 
L 1159 4863 
L 1159 2969 
z
" id="DejaVuSans-62" transform="scale(0.015625)"/>
      <path d="M 544 1381 
L 544 3500 
L 1119 3500 
L 1119 1403 
Q 1119 906 1312 657 
Q 1506 409 1894 409 
Q 2359 409 2629 706 
Q 2900 1003 2900 1516 
L 2900 3500 
L 3475 3500 
L 3475 0 
L 2900 0 
L 2900 538 
Q 2691 219 2414 64 
Q 2138 -91 1772 -91 
Q 1169 -91 856 284 
Q 544 659 544 1381 
z
M 1991 3584 
L 1991 3584 
z
" id="DejaVuSans-75" transform="scale(0.015625)"/>
      <path d="M 2597 2516 
Q 3050 2419 3304 2112 
Q 3559 1806 3559 1356 
Q 3559 666 3084 287 
Q 2609 -91 1734 -91 
Q 1441 -91 1130 -33 
Q 819 25 488 141 
L 488 750 
Q 750 597 1062 519 
Q 1375 441 1716 441 
Q 2309 441 2620 675 
Q 2931 909 2931 1356 
Q 2931 1769 2642 2001 
Q 2353 2234 1838 2234 
L 1294 2234 
L 1294 2753 
L 1863 2753 
Q 2328 2753 2575 2939 
Q 2822 3125 2822 3475 
Q 2822 3834 2567 4026 
Q 2313 4219 1838 4219 
Q 1578 4219 1281 4162 
Q 984 4106 628 3988 
L 628 4550 
Q 988 4650 1302 4700 
Q 1616 4750 1894 4750 
Q 2613 4750 3031 4423 
Q 3450 4097 3450 3541 
Q 3450 3153 3228 2886 
Q 3006 2619 2597 2516 
z
" id="DejaVuSans-33" transform="scale(0.015625)"/>
     </defs>
     <use xlink:href="#DejaVuSans-49"/>
     <use x="29.492188" xlink:href="#DejaVuSans-6e"/>
     <use x="92.871094" xlink:href="#DejaVuSans-6e"/>
     <use x="156.25" xlink:href="#DejaVuSans-73"/>
     <use x="208.349609" xlink:href="#DejaVuSans-62"/>
     <use x="271.826172" xlink:href="#DejaVuSans-72"/>
     <use x="312.939453" xlink:href="#DejaVuSans-75"/>
     <use x="376.318359" xlink:href="#DejaVuSans-63"/>
     <use x="431.298828" xlink:href="#DejaVuSans-6b"/>
     <use x="489.208984" xlink:href="#DejaVuSans-20"/>
     <use x="520.996094" xlink:href="#DejaVuSans-31"/>
     <use x="584.619141" xlink:href="#DejaVuSans-33"/>
     <use x="648.242188" xlink:href="#DejaVuSans-2e"/>
     <use x="680.029297" xlink:href="#DejaVuSans-39"/>
     <use x="743.652344" xlink:href="#DejaVuSans-b0"/>
    </g>
   </g>
   <g id="text_9">
    <g id="patch_10">
     <path d="M 66.598082 75.330355 
L 83.682796 90.328219 
L 84.986152 88.843511 
L 67.901437 73.845646 
z
" style="fill:#ffffff;"/>
    </g>
    <!-- Upper Broadway 17.6° -->
    <g style="fill:#4169e1;" transform="translate(66.900708 75.015936)rotate(-318.72163)scale(0.02 -0.02)">
     <defs>
      <path d="M 556 4666 
L 1191 4666 
L 1191 1831 
Q 1191 1081 1462 751 
Q 1734 422 2344 422 
Q 2950 422 3222 751 
Q 3494 1081 3494 1831 
L 3494 4666 
L 4128 4666 
L 4128 1753 
Q 4128 841 3676 375 
Q 3225 -91 2344 -91 
Q 1459 -91 1007 375 
Q 556 841 556 1753 
L 556 4666 
z
" id="DejaVuSans-55" transform="scale(0.015625)"/>
      <path d="M 1259 2228 
L 1259 519 
L 2272 519 
Q 2781 519 3026 730 
Q 3272 941 3272 1375 
Q 3272 1813 3026 2020 
Q 2781 2228 2272 2228 
L 1259 2228 
z
M 1259 4147 
L 1259 2741 
L 2194 2741 
Q 2656 2741 2882 2914 
Q 3109 3088 3109 3444 
Q 3109 3797 2882 3972 
Q 2656 4147 2194 4147 
L 1259 4147 
z
M 628 4666 
L 2241 4666 
Q 2963 4666 3353 4366 
Q 3744 4066 3744 3513 
Q 3744 3084 3544 2831 
Q 3344 2578 2956 2516 
Q 3422 2416 3680 2098 
Q 3938 1781 3938 1306 
Q 3938 681 3513 340 
Q 3088 0 2303 0 
L 628 0 
L 628 4666 
z
" id="DejaVuSans-42" transform="scale(0.015625)"/>
      <path d="M 525 4666 
L 3525 4666 
L 3525 4397 
L 1831 0 
L 1172 0 
L 2766 4134 
L 525 4134 
L 525 4666 
z
" id="DejaVuSans-37" transform="scale(0.015625)"/>
      <path d="M 2113 2584 
Q 1688 2584 1439 2293 
Q 1191 2003 1191 1497 
Q 1191 994 1439 701 
Q 1688 409 2113 409 
Q 2538 409 2786 701 
Q 3034 994 3034 1497 
Q 3034 2003 2786 2293 
Q 2538 2584 2113 2584 
z
M 3366 4563 
L 3366 3988 
Q 3128 4100 2886 4159 
Q 2644 4219 2406 4219 
Q 1781 4219 1451 3797 
Q 1122 3375 1075 2522 
Q 1259 2794 1537 2939 
Q 1816 3084 2150 3084 
Q 2853 3084 3261 2657 
Q 3669 2231 3669 1497 
Q 3669 778 3244 343 
Q 2819 -91 2113 -91 
Q 1303 -91 875 529 
Q 447 1150 447 2328 
Q 447 3434 972 4092 
Q 1497 4750 2381 4750 
Q 2619 4750 2861 4703 
Q 3103 4656 3366 4563 
z
" id="DejaVuSans-36" transform="scale(0.015625)"/>
     </defs>
     <use xlink:href="#DejaVuSans-55"/>
     <use x="73.193359" xlink:href="#DejaVuSans-70"/>
     <use x="136.669922" xlink:href="#DejaVuSans-70"/>
     <use x="200.146484" xlink:href="#DejaVuSans-65"/>
     <use x="261.669922" xlink:href="#DejaVuSans-72"/>
     <use x="302.783203" xlink:href="#DejaVuSans-20"/>
     <use x="334.570312" xlink:href="#DejaVuSans-42"/>
     <use x="403.173828" xlink:href="#DejaVuSans-72"/>
     <use x="442.037109" xlink:href="#DejaVuSans-6f"/>
     <use x="503.21875" xlink:href="#DejaVuSans-61"/>
     <use x="564.498047" xlink:href="#DejaVuSans-64"/>
     <use x="627.974609" xlink:href="#DejaVuSans-77"/>
     <use x="709.761719" xlink:href="#DejaVuSans-61"/>
     <use x="771.041016" xlink:href="#DejaVuSans-79"/>
     <use x="830.220703" xlink:href="#DejaVuSans-20"/>
     <use x="862.007812" xlink:href="#DejaVuSans-31"/>
     <use x="925.630859" xlink:href="#DejaVuSans-37"/>
     <use x="989.253906" xlink:href="#DejaVuSans-2e"/>
     <use x="1021.041016" xlink:href="#DejaVuSans-36"/>
     <use x="1084.664062" xlink:href="#DejaVuSans-b0"/>
    </g>
   </g>
   <g id="text_10">
    <g id="patch_11">
     <path d="M 37.856776 56.456274 
L 59.598673 62.874255 
L 60.157997 60.979459 
L 38.4161 54.561479 
z
" style="fill:#ffffff;"/>
    </g>
    <!-- Lower Broadway 12.7° -->
    <g style="fill:#008000;" transform="translate(37.999377 56.043835)rotate(-343.553951)scale(0.02 -0.02)">
     <use xlink:href="#DejaVuSans-4c"/>
     <use x="53.962891" xlink:href="#DejaVuSans-6f"/>
     <use x="115.144531" xlink:href="#DejaVuSans-77"/>
     <use x="196.931641" xlink:href="#DejaVuSans-65"/>
     <use x="258.455078" xlink:href="#DejaVuSans-72"/>
     <use x="299.568359" xlink:href="#DejaVuSans-20"/>
     <use x="331.355469" xlink:href="#DejaVuSans-42"/>
     <use x="399.958984" xlink:href="#DejaVuSans-72"/>
     <use x="438.822266" xlink:href="#DejaVuSans-6f"/>
     <use x="500.003906" xlink:href="#DejaVuSans-61"/>
     <use x="561.283203" xlink:href="#DejaVuSans-64"/>
     <use x="624.759766" xlink:href="#DejaVuSans-77"/>
     <use x="706.546875" xlink:href="#DejaVuSans-61"/>
     <use x="767.826172" xlink:href="#DejaVuSans-79"/>
     <use x="827.005859" xlink:href="#DejaVuSans-20"/>
     <use x="858.792969" xlink:href="#DejaVuSans-31"/>
     <use x="922.416016" xlink:href="#DejaVuSans-32"/>
     <use x="986.039062" xlink:href="#DejaVuSans-2e"/>
     <use x="1017.826172" xlink:href="#DejaVuSans-37"/>
     <use x="1081.449219" xlink:href="#DejaVuSans-b0"/>
    </g>
   </g>
   <g id="text_11">
    <g id="patch_12">
     <path d="M 34.234732 59.737067 
L 57.601535 72.259939 
L 58.534753 70.518618 
L 35.16795 57.995747 
z
" style="fill:#ffffff;"/>
    </g>
    <!-- DOC's Forest Glades 21.2° -->
    <g transform="translate(34.458282 59.362278)rotate(-331.811997)scale(0.02 -0.02)">
     <defs>
      <path d="M 2522 4238 
Q 1834 4238 1429 3725 
Q 1025 3213 1025 2328 
Q 1025 1447 1429 934 
Q 1834 422 2522 422 
Q 3209 422 3611 934 
Q 4013 1447 4013 2328 
Q 4013 3213 3611 3725 
Q 3209 4238 2522 4238 
z
M 2522 4750 
Q 3503 4750 4090 4092 
Q 4678 3434 4678 2328 
Q 4678 1225 4090 567 
Q 3503 -91 2522 -91 
Q 1538 -91 948 565 
Q 359 1222 359 2328 
Q 359 3434 948 4092 
Q 1538 4750 2522 4750 
z
" id="DejaVuSans-4f" transform="scale(0.015625)"/>
      <path d="M 4122 4306 
L 4122 3641 
Q 3803 3938 3442 4084 
Q 3081 4231 2675 4231 
Q 1875 4231 1450 3742 
Q 1025 3253 1025 2328 
Q 1025 1406 1450 917 
Q 1875 428 2675 428 
Q 3081 428 3442 575 
Q 3803 722 4122 1019 
L 4122 359 
Q 3791 134 3420 21 
Q 3050 -91 2638 -91 
Q 1578 -91 968 557 
Q 359 1206 359 2328 
Q 359 3453 968 4101 
Q 1578 4750 2638 4750 
Q 3056 4750 3426 4639 
Q 3797 4528 4122 4306 
z
" id="DejaVuSans-43" transform="scale(0.015625)"/>
      <path d="M 1147 4666 
L 1147 2931 
L 616 2931 
L 616 4666 
L 1147 4666 
z
" id="DejaVuSans-27" transform="scale(0.015625)"/>
      <path d="M 628 4666 
L 3309 4666 
L 3309 4134 
L 1259 4134 
L 1259 2759 
L 3109 2759 
L 3109 2228 
L 1259 2228 
L 1259 0 
L 628 0 
L 628 4666 
z
" id="DejaVuSans-46" transform="scale(0.015625)"/>
      <path d="M 3809 666 
L 3809 1919 
L 2778 1919 
L 2778 2438 
L 4434 2438 
L 4434 434 
Q 4069 175 3628 42 
Q 3188 -91 2688 -91 
Q 1594 -91 976 548 
Q 359 1188 359 2328 
Q 359 3472 976 4111 
Q 1594 4750 2688 4750 
Q 3144 4750 3555 4637 
Q 3966 4525 4313 4306 
L 4313 3634 
Q 3963 3931 3569 4081 
Q 3175 4231 2741 4231 
Q 1884 4231 1454 3753 
Q 1025 3275 1025 2328 
Q 1025 1384 1454 906 
Q 1884 428 2741 428 
Q 3075 428 3337 486 
Q 3600 544 3809 666 
z
" id="DejaVuSans-47" transform="scale(0.015625)"/>
     </defs>
     <use xlink:href="#DejaVuSans-44"/>
     <use x="77.001953" xlink:href="#DejaVuSans-4f"/>
     <use x="155.712891" xlink:href="#DejaVuSans-43"/>
     <use x="225.537109" xlink:href="#DejaVuSans-27"/>
     <use x="253.027344" xlink:href="#DejaVuSans-73"/>
     <use x="305.126953" xlink:href="#DejaVuSans-20"/>
     <use x="336.914062" xlink:href="#DejaVuSans-46"/>
     <use x="390.808594" xlink:href="#DejaVuSans-6f"/>
     <use x="451.990234" xlink:href="#DejaVuSans-72"/>
     <use x="490.853516" xlink:href="#DejaVuSans-65"/>
     <use x="552.376953" xlink:href="#DejaVuSans-73"/>
     <use x="604.476562" xlink:href="#DejaVuSans-74"/>
     <use x="643.685547" xlink:href="#DejaVuSans-20"/>
     <use x="675.472656" xlink:href="#DejaVuSans-47"/>
     <use x="752.962891" xlink:href="#DejaVuSans-6c"/>
     <use x="780.746094" xlink:href="#DejaVuSans-61"/>
     <use x="842.025391" xlink:href="#DejaVuSans-64"/>
     <use x="905.501953" xlink:href="#DejaVuSans-65"/>
     <use x="967.025391" xlink:href="#DejaVuSans-73"/>
     <use x="1019.125" xlink:href="#DejaVuSans-20"/>
     <use x="1050.912109" xlink:href="#DejaVuSans-32"/>
     <use x="1114.535156" xlink:href="#DejaVuSans-31"/>
     <use x="1178.158203" xlink:href="#DejaVuSans-2e"/>
     <use x="1209.945312" xlink:href="#DejaVuSans-32"/>
     <use x="1273.568359" xlink:href="#DejaVuSans-b0"/>
    </g>
   </g>
   <g id="text_12">
    <!-- Laurel Mountain -->
    <g transform="translate(33.507937 11.255911)scale(0.1 -0.1)">
     <defs>
      <path d="M 628 4666 
L 1569 4666 
L 2759 1491 
L 3956 4666 
L 4897 4666 
L 4897 0 
L 4281 0 
L 4281 4097 
L 3078 897 
L 2444 897 
L 1241 4097 
L 1241 0 
L 628 0 
L 628 4666 
z
" id="DejaVuSans-4d" transform="scale(0.015625)"/>
     </defs>
     <use xlink:href="#DejaVuSans-4c"/>
     <use x="55.712891" xlink:href="#DejaVuSans-61"/>
     <use x="116.992188" xlink:href="#DejaVuSans-75"/>
     <use x="180.371094" xlink:href="#DejaVuSans-72"/>
     <use x="219.234375" xlink:href="#DejaVuSans-65"/>
     <use x="280.757812" xlink:href="#DejaVuSans-6c"/>
     <use x="308.541016" xlink:href="#DejaVuSans-20"/>
     <use x="340.328125" xlink:href="#DejaVuSans-4d"/>
     <use x="426.607422" xlink:href="#DejaVuSans-6f"/>
     <use x="487.789062" xlink:href="#DejaVuSans-75"/>
     <use x="551.167969" xlink:href="#DejaVuSans-6e"/>
     <use x="614.546875" xlink:href="#DejaVuSans-74"/>
     <use x="653.755859" xlink:href="#DejaVuSans-61"/>
     <use x="715.035156" xlink:href="#DejaVuSans-69"/>
     <use x="742.818359" xlink:href="#DejaVuSans-6e"/>
    </g>
   </g>
   <g id="legend_1">
    <g id="line2d_30">
     <path d="M 3.815359 107.310381 
L 13.815359 107.310381 
" style="fill:none;stroke:#008000;stroke-linecap:square;stroke-width:1.5;"/>
    </g>
    <g id="line2d_31"/>
    <g id="text_13">
     <!-- Easy -->
     <g transform="translate(17.815359 109.060381)scale(0.05 -0.05)">
      <use xlink:href="#DejaVuSans-45"/>
      <use x="63.183594" xlink:href="#DejaVuSans-61"/>
      <use x="124.462891" xlink:href="#DejaVuSans-73"/>
      <use x="176.5625" xlink:href="#DejaVuSans-79"/>
     </g>
    </g>
    <g id="line2d_32">
     <path d="M 3.815359 114.649443 
L 13.815359 114.649443 
" style="fill:none;stroke:#4169e1;stroke-linecap:square;stroke-width:1.5;"/>
    </g>
    <g id="line2d_33"/>
    <g id="text_14">
     <!-- Intermediate -->
     <g transform="translate(17.815359 116.399443)scale(0.05 -0.05)">
      <use xlink:href="#DejaVuSans-49"/>
      <use x="29.492188" xlink:href="#DejaVuSans-6e"/>
      <use x="92.871094" xlink:href="#DejaVuSans-74"/>
      <use x="132.080078" xlink:href="#DejaVuSans-65"/>
      <use x="193.603516" xlink:href="#DejaVuSans-72"/>
      <use x="232.966797" xlink:href="#DejaVuSans-6d"/>
      <use x="330.378906" xlink:href="#DejaVuSans-65"/>
      <use x="391.902344" xlink:href="#DejaVuSans-64"/>
      <use x="455.378906" xlink:href="#DejaVuSans-69"/>
      <use x="483.162109" xlink:href="#DejaVuSans-61"/>
      <use x="544.441406" xlink:href="#DejaVuSans-74"/>
      <use x="583.650391" xlink:href="#DejaVuSans-65"/>
     </g>
    </g>
    <g id="line2d_34">
     <path d="M 60.074734 107.310381 
L 70.074734 107.310381 
" style="fill:none;stroke:#000000;stroke-linecap:square;stroke-width:1.5;"/>
    </g>
    <g id="line2d_35"/>
    <g id="text_15">
     <!-- Advanced -->
     <g transform="translate(74.074734 109.060381)scale(0.05 -0.05)">
      <defs>
       <path d="M 2188 4044 
L 1331 1722 
L 3047 1722 
L 2188 4044 
z
M 1831 4666 
L 2547 4666 
L 4325 0 
L 3669 0 
L 3244 1197 
L 1141 1197 
L 716 0 
L 50 0 
L 1831 4666 
z
" id="DejaVuSans-41" transform="scale(0.015625)"/>
       <path d="M 191 3500 
L 800 3500 
L 1894 563 
L 2988 3500 
L 3597 3500 
L 2284 0 
L 1503 0 
L 191 3500 
z
" id="DejaVuSans-76" transform="scale(0.015625)"/>
      </defs>
      <use xlink:href="#DejaVuSans-41"/>
      <use x="66.658203" xlink:href="#DejaVuSans-64"/>
      <use x="130.134766" xlink:href="#DejaVuSans-76"/>
      <use x="189.314453" xlink:href="#DejaVuSans-61"/>
      <use x="250.59375" xlink:href="#DejaVuSans-6e"/>
      <use x="313.972656" xlink:href="#DejaVuSans-63"/>
      <use x="368.953125" xlink:href="#DejaVuSans-65"/>
      <use x="430.476562" xlink:href="#DejaVuSans-64"/>
     </g>
    </g>
    <g id="line2d_36">
     <path d="M 60.074734 114.649443 
L 70.074734 114.649443 
" style="fill:none;stroke:#ff0000;stroke-linecap:square;stroke-width:1.5;"/>
    </g>
    <g id="line2d_37"/>
    <g id="text_16">
     <!-- Expert -->
     <g transform="translate(74.074734 116.399443)scale(0.05 -0.05)">
      <defs>
       <path d="M 3513 3500 
L 2247 1797 
L 3578 0 
L 2900 0 
L 1881 1375 
L 863 0 
L 184 0 
L 1544 1831 
L 300 3500 
L 978 3500 
L 1906 2253 
L 2834 3500 
L 3513 3500 
z
" id="DejaVuSans-78" transform="scale(0.015625)"/>
      </defs>
      <use xlink:href="#DejaVuSans-45"/>
      <use x="63.183594" xlink:href="#DejaVuSans-78"/>
      <use x="122.363281" xlink:href="#DejaVuSans-70"/>
      <use x="185.839844" xlink:href="#DejaVuSans-65"/>
      <use x="247.363281" xlink:href="#DejaVuSans-72"/>
      <use x="288.476562" xlink:href="#DejaVuSans-74"/>
     </g>
    </g>
    <g id="line2d_38">
     <path d="M 108.773953 107.310381 
L 118.773953 107.310381 
" style="fill:none;stroke:#ffd700;stroke-linecap:square;stroke-width:1.5;"/>
    </g>
    <g id="line2d_39"/>
    <g id="text_17">
     <!-- Extreme -->
     <g transform="translate(122.773953 109.060381)scale(0.05 -0.05)">
      <use xlink:href="#DejaVuSans-45"/>
      <use x="63.183594" xlink:href="#DejaVuSans-78"/>
      <use x="122.363281" xlink:href="#DejaVuSans-74"/>
      <use x="161.572266" xlink:href="#DejaVuSans-72"/>
      <use x="200.435547" xlink:href="#DejaVuSans-65"/>
      <use x="261.958984" xlink:href="#DejaVuSans-6d"/>
      <use x="359.371094" xlink:href="#DejaVuSans-65"/>
     </g>
    </g>
    <g id="line2d_40">
     <path d="M 108.773953 114.649443 
L 118.773953 114.649443 
" style="fill:none;stroke:#000000;stroke-dasharray:1.5,2.475;stroke-dashoffset:0;stroke-width:1.5;"/>
    </g>
    <g id="line2d_41"/>
    <g id="text_18">
     <!-- Gladed -->
     <g transform="translate(122.773953 116.399443)scale(0.05 -0.05)">
      <use xlink:href="#DejaVuSans-47"/>
      <use x="77.490234" xlink:href="#DejaVuSans-6c"/>
      <use x="105.273438" xlink:href="#DejaVuSans-61"/>
      <use x="166.552734" xlink:href="#DejaVuSans-64"/>
      <use x="230.029297" xlink:href="#DejaVuSans-65"/>
      <use x="291.552734" xlink:href="#DejaVuSans-64"/>
     </g>
    </g>
   </g>
  </g>
  <g id="text_19">
   <!-- Sources: USGS and OpenStreetMaps -->
   <g transform="translate(34.156646 125.225287)scale(0.043478 -0.043478)">
    <defs>
     <path d="M 750 794 
L 1409 794 
L 1409 0 
L 750 0 
L 750 794 
z
M 750 3309 
L 1409 3309 
L 1409 2516 
L 750 2516 
L 750 3309 
z
" id="DejaVuSans-3a" transform="scale(0.015625)"/>
    </defs>
    <use xlink:href="#DejaVuSans-53"/>
    <use x="63.476562" xlink:href="#DejaVuSans-6f"/>
    <use x="124.658203" xlink:href="#DejaVuSans-75"/>
    <use x="188.037109" xlink:href="#DejaVuSans-72"/>
    <use x="226.900391" xlink:href="#DejaVuSans-63"/>
    <use x="281.880859" xlink:href="#DejaVuSans-65"/>
    <use x="343.404297" xlink:href="#DejaVuSans-73"/>
    <use x="395.503906" xlink:href="#DejaVuSans-3a"/>
    <use x="429.195312" xlink:href="#DejaVuSans-20"/>
    <use x="460.982422" xlink:href="#DejaVuSans-55"/>
    <use x="534.175781" xlink:href="#DejaVuSans-53"/>
    <use x="597.652344" xlink:href="#DejaVuSans-47"/>
    <use x="675.142578" xlink:href="#DejaVuSans-53"/>
    <use x="738.619141" xlink:href="#DejaVuSans-20"/>
    <use x="770.40625" xlink:href="#DejaVuSans-61"/>
    <use x="831.685547" xlink:href="#DejaVuSans-6e"/>
    <use x="895.064453" xlink:href="#DejaVuSans-64"/>
    <use x="958.541016" xlink:href="#DejaVuSans-20"/>
    <use x="990.328125" xlink:href="#DejaVuSans-4f"/>
    <use x="1069.039062" xlink:href="#DejaVuSans-70"/>
    <use x="1132.515625" xlink:href="#DejaVuSans-65"/>
    <use x="1194.039062" xlink:href="#DejaVuSans-6e"/>
    <use x="1257.417969" xlink:href="#DejaVuSans-53"/>
    <use x="1320.894531" xlink:href="#DejaVuSans-74"/>
    <use x="1360.103516" xlink:href="#DejaVuSans-72"/>
    <use x="1398.966797" xlink:href="#DejaVuSans-65"/>
    <use x="1460.490234" xlink:href="#DejaVuSans-65"/>
    <use x="1522.013672" xlink:href="#DejaVuSans-74"/>
    <use x="1561.222656" xlink:href="#DejaVuSans-4d"/>
    <use x="1647.501953" xlink:href="#DejaVuSans-61"/>
    <use x="1708.78125" xlink:href="#DejaVuSans-70"/>
    <use x="1772.257812" xlink:href="#DejaVuSans-73"/>
   </g>
  </g>
 </g>
 <defs>
  <clipPath id="pb11430d367">
   <rect height="93.617677" width="147.634624" x="0" y="16.255911"/>
  </clipPath>
 </defs>
</svg>
