<?xml version="1.0" encoding="utf-8" standalone="no"?>
<!DOCTYPE svg PUBLIC "-//W3C//DTD SVG 1.1//EN"
  "http://www.w3.org/Graphics/SVG/1.1/DTD/svg11.dtd">
<svg height="179.53785pt" version="1.1" viewBox="0 0 145.953417 179.53785" width="145.953417pt" xmlns="http://www.w3.org/2000/svg" xmlns:xlink="http://www.w3.org/1999/xlink">
 <metadata>
  <rdf:RDF xmlns:cc="http://creativecommons.org/ns#" xmlns:dc="http://purl.org/dc/elements/1.1/" xmlns:rdf="http://www.w3.org/1999/02/22-rdf-syntax-ns#">
   <cc:Work>
    <dc:type rdf:resource="http://purl.org/dc/dcmitype/StillImage"/>
    <dc:date>2022-04-14T21:30:09.936697</dc:date>
    <dc:format>image/svg+xml</dc:format>
    <dc:creator>
     <cc:Agent>
      <dc:title>Matplotlib v3.4.3, https://matplotlib.org/</dc:title>
     </cc:Agent>
    </dc:creator>
   </cc:Work>
  </rdf:RDF>
 </metadata>
 <defs>
  <style type="text/css">*{stroke-linecap:butt;stroke-linejoin:round;}</style>
 </defs>
 <g id="figure_1">
  <g id="patch_1">
   <path d="M 0 179.53785 
L 145.953417 179.53785 
L 145.953417 0 
L 0 0 
z
" style="fill:#ffffff;"/>
  </g>
  <g id="axes_1">
   <g id="line2d_1">
    <path clip-path="url(#pc5a0b73f60)" d="M 26.586768 97.464805 
" style="fill:none;stroke:#008000;stroke-linecap:square;stroke-width:1.5;"/>
   </g>
   <g id="line2d_2">
    <path clip-path="url(#pc5a0b73f60)" d="M 26.586768 97.464805 
" style="fill:none;stroke:#4169e1;stroke-linecap:square;stroke-width:1.5;"/>
   </g>
   <g id="line2d_3">
    <path clip-path="url(#pc5a0b73f60)" d="M 26.586768 97.464805 
" style="fill:none;stroke:#000000;stroke-linecap:square;stroke-width:1.5;"/>
   </g>
   <g id="line2d_4">
    <path clip-path="url(#pc5a0b73f60)" d="M 26.586768 97.464805 
" style="fill:none;stroke:#ff0000;stroke-linecap:square;stroke-width:1.5;"/>
   </g>
   <g id="line2d_5">
    <path clip-path="url(#pc5a0b73f60)" d="M 26.586768 97.464805 
" style="fill:none;stroke:#ffd700;stroke-linecap:square;stroke-width:1.5;"/>
   </g>
   <g id="line2d_6">
    <path clip-path="url(#pc5a0b73f60)" d="M 26.586768 97.464805 
" style="fill:none;stroke:#000000;stroke-dasharray:1.5,2.475;stroke-dashoffset:0;stroke-width:1.5;"/>
   </g>
   <g id="line2d_7">
    <path clip-path="url(#pc5a0b73f60)" d="M 34.349721 157.144603 
L 38.5347 152.99487 
L 42.719678 148.845136 
L 45.342022 146.244262 
L 47.964366 143.643387 
L 51.501582 140.136307 
L 55.038799 136.629226 
L 58.638608 133.05942 
L 62.238418 129.489614 
L 65.726142 126.031503 
L 69.213867 122.573391 
L 72.598241 119.21762 
L 75.982615 115.861849 
L 79.128263 112.74212 
L 83.222991 108.682622 
L 86.568063 105.365916 
L 89.913134 102.04921 
L 92.796767 99.189734 
L 95.680399 96.330258 
L 99.540768 92.501851 
L 101.026982 91.029471 
" style="fill:none;stroke:#808080;stroke-linecap:square;stroke-width:1.5;"/>
   </g>
   <g id="line2d_8">
    <path clip-path="url(#pc5a0b73f60)" d="M 23.055374 149.224785 
L 24.870563 145.462404 
L 26.440476 142.206772 
L 28.010388 138.95114 
L 29.835039 135.1684 
L 31.65969 131.385661 
L 33.569496 127.426302 
L 35.479301 123.466943 
L 37.448061 119.384336 
L 39.41682 115.301728 
L 41.366656 111.258736 
L 43.316492 107.215744 
L 45.495592 102.697915 
L 47.674693 98.180087 
L 49.50371 94.388544 
L 51.332728 90.597001 
L 53.161745 86.804908 
L 54.990763 83.012815 
" style="fill:none;stroke:#808080;stroke-linecap:square;stroke-width:1.5;"/>
   </g>
   <g id="line2d_9">
    <path clip-path="url(#pc5a0b73f60)" d="M 20.507996 147.032722 
L 22.054618 143.610374 
L 23.601241 140.188027 
" style="fill:none;stroke:#808080;stroke-linecap:square;stroke-width:1.5;"/>
   </g>
   <g id="line2d_10">
    <path clip-path="url(#pc5a0b73f60)" d="M 13.002692 144.169395 
L 14.449603 139.849093 
L 15.598106 136.418493 
L 16.74661 132.987892 
L 18.439525 127.930301 
L 20.132439 122.872709 
L 21.713997 118.149649 
L 23.295555 113.42659 
L 24.759934 109.051817 
L 26.224312 104.677045 
L 27.650844 100.416167 
" style="fill:none;stroke:#808080;stroke-linecap:square;stroke-width:1.5;"/>
   </g>
   <g id="line2d_11">
    <path clip-path="url(#pc5a0b73f60)" d="M 6.634246 142.38009 
L 7.771105 138.800381 
" style="fill:none;stroke:#808080;stroke-linecap:square;stroke-width:1.5;"/>
   </g>
   <g id="line2d_12">
    <path clip-path="url(#pc5a0b73f60)" d="M 72.004338 32.995921 
L 74.006213 36.328858 
L 76.008089 39.661795 
L 78.009964 42.994733 
L 80.011839 46.32767 
" style="fill:none;stroke:#808080;stroke-linecap:square;stroke-width:1.5;"/>
   </g>
   <g id="line2d_13">
    <path clip-path="url(#pc5a0b73f60)" d="M 119.545693 22.482381 
L 119.429242 26.423033 
L 119.312062 30.395047 
L 119.194883 34.367061 
L 119.073337 38.481031 
L 118.95179 42.595 
L 118.822966 46.956017 
L 118.694141 51.317035 
L 118.539843 56.530337 
L 118.385544 61.74364 
L 118.236341 66.794629 
L 118.087137 71.845618 
L 117.948123 76.557673 
L 117.809109 81.269728 
L 117.670095 85.981784 
L 117.531081 90.693839 
" style="fill:none;stroke:#808080;stroke-linecap:square;stroke-width:1.5;"/>
   </g>
   <g id="line2d_14">
    <path clip-path="url(#pc5a0b73f60)" d="M 121.228419 22.393246 
L 121.497713 28.597489 
L 121.723338 33.789333 
L 121.948963 38.981177 
L 122.174588 44.187327 
L 122.400213 49.393477 
L 122.628749 54.643644 
L 122.857285 59.893812 
L 123.125851 66.084299 
L 123.394418 72.274787 
L 123.669535 78.614933 
L 123.944652 84.955079 
L 124.14917 89.658881 
L 124.353688 94.362684 
" style="fill:none;stroke:#808080;stroke-linecap:square;stroke-width:1.5;"/>
   </g>
   <g id="line2d_15">
    <path clip-path="url(#pc5a0b73f60)" d="M 58.577471 134.07402 
L 61.012219 131.849356 
L 63.446967 129.624693 
L 65.881714 127.400029 
L 68.316462 125.175366 
L 70.75121 122.950702 
L 73.185957 120.726039 
L 75.620705 118.501375 
L 78.055453 116.276712 
" style="fill:none;stroke:#808080;stroke-linecap:square;stroke-width:1.5;"/>
   </g>
   <g id="line2d_16">
    <path clip-path="url(#pc5a0b73f60)" d="M 26.586768 97.464805 
L 25.938642 99.14159 
L 25.290516 100.818375 
L 24.642391 102.495161 
L 23.994265 104.171946 
L 23.346139 105.848731 
L 22.698013 107.525516 
L 22.049887 109.202302 
L 21.401762 110.879087 
L 20.753636 112.555872 
L 20.10551 114.232657 
L 19.457384 115.909442 
L 18.809258 117.586228 
L 18.161133 119.263013 
L 17.513007 120.939798 
L 16.864881 122.616583 
L 16.216755 124.293369 
L 16.303912 125.341325 
L 16.391069 126.389281 
L 16.478225 127.437238 
L 16.565382 128.485194 
L 16.652539 129.53315 
L 16.739696 130.581107 
L 16.826852 131.629063 
L 16.914009 132.67702 
L 17.001166 133.724976 
L 17.088322 134.772932 
L 17.175479 135.820889 
L 17.262636 136.868845 
L 17.349793 137.916801 
L 17.436949 138.964758 
L 17.524106 140.012714 
L 17.611263 141.060671 
" style="fill:none;stroke:#008000;stroke-linecap:square;stroke-width:1.5;"/>
   </g>
   <g id="line2d_17">
    <path clip-path="url(#pc5a0b73f60)" d="M 54.558436 80.759127 
L 53.318045 81.710039 
L 52.077654 82.660951 
L 50.837263 83.611863 
L 49.596871 84.562775 
L 48.35648 85.513687 
L 47.116089 86.464599 
L 45.875698 87.415511 
L 44.635306 88.366423 
L 43.707333 89.142228 
L 42.779359 89.918033 
L 41.851386 90.693839 
L 40.923412 91.469644 
L 39.995439 92.24545 
L 39.067465 93.021255 
L 38.139492 93.797061 
L 37.211519 94.572866 
" style="fill:none;stroke:#008000;stroke-linecap:square;stroke-width:1.5;"/>
   </g>
   <g id="line2d_18">
    <path clip-path="url(#pc5a0b73f60)" d="M 57.079613 83.592743 
L 56.533746 84.670996 
L 55.987879 85.749248 
L 55.442013 86.827501 
L 54.896146 87.905754 
L 54.350279 88.984006 
L 53.804412 90.062259 
L 53.258546 91.140512 
L 52.712679 92.218764 
L 52.166812 93.297017 
L 51.620945 94.37527 
L 51.075079 95.453522 
L 50.529212 96.531775 
L 49.983345 97.610028 
L 49.437478 98.68828 
L 48.891611 99.766533 
L 48.345745 100.844786 
L 47.799878 101.923038 
L 47.254011 103.001291 
L 46.708144 104.079544 
L 46.162278 105.157797 
L 45.616411 106.236049 
L 45.070544 107.314302 
L 44.524677 108.392555 
L 43.978811 109.470807 
L 43.432944 110.54906 
L 42.887077 111.627313 
L 42.34121 112.705565 
L 41.795344 113.783818 
L 41.249477 114.862071 
L 40.70361 115.940323 
L 40.157743 117.018576 
L 39.611877 118.096829 
L 39.06601 119.175081 
L 38.520143 120.253334 
L 37.974276 121.331587 
L 37.42841 122.409839 
L 36.882543 123.488092 
L 36.336676 124.566345 
L 35.790809 125.644597 
L 35.244943 126.72285 
L 34.699076 127.801103 
L 34.153209 128.879355 
L 33.607342 129.957608 
L 33.061476 131.035861 
L 32.515609 132.114113 
L 31.969742 133.192366 
L 31.423875 134.270619 
L 30.878008 135.348872 
L 30.332142 136.427124 
L 29.786275 137.505377 
L 29.240408 138.58363 
L 28.694541 139.661882 
L 28.148675 140.740135 
L 27.602808 141.818388 
L 27.056941 142.89664 
L 26.511074 143.974893 
L 25.965208 145.053146 
L 25.419341 146.131398 
L 24.873474 147.209651 
L 24.327607 148.287904 
L 23.781741 149.366156 
L 23.235874 150.444409 
L 22.690007 151.522662 
L 22.14414 152.600914 
" style="fill:none;stroke:#008000;stroke-linecap:square;stroke-width:1.5;"/>
   </g>
   <g id="line2d_19">
    <path clip-path="url(#pc5a0b73f60)" d="M 36.191112 95.340969 
L 36.161089 96.824078 
L 36.131066 98.307187 
L 36.101044 99.790296 
L 36.071021 101.273405 
L 36.040998 102.756514 
L 36.010976 104.239622 
L 35.980953 105.722731 
L 35.95093 107.20584 
L 35.920908 108.688949 
L 35.890885 110.172058 
L 35.860862 111.655167 
L 35.83084 113.138276 
L 35.800817 114.621385 
L 35.770794 116.104494 
L 35.740772 117.587603 
L 35.710749 119.070712 
L 34.990387 120.67198 
L 34.270025 122.273248 
L 33.549662 123.874516 
L 32.8293 125.475784 
L 32.108938 127.077052 
L 31.388576 128.67832 
L 30.668214 130.279588 
L 29.947852 131.880856 
L 29.227489 133.482124 
L 28.507127 135.083392 
L 27.786765 136.68466 
L 27.066403 138.285928 
L 26.346041 139.887196 
L 25.625679 141.488464 
L 24.905316 143.089732 
L 24.184954 144.691 
" style="fill:none;stroke:#008000;stroke-linecap:square;stroke-width:1.5;"/>
   </g>
   <g id="line2d_20">
    <path clip-path="url(#pc5a0b73f60)" d="M 64.041961 119.070712 
L 62.989621 120.116708 
L 61.937281 121.162705 
L 60.884941 122.208701 
L 59.832601 123.254697 
L 58.780261 124.300693 
L 57.727921 125.346689 
L 56.67558 126.392686 
L 55.62324 127.438682 
L 54.5709 128.484678 
L 53.51856 129.530674 
L 52.46622 130.576671 
L 51.41388 131.622667 
L 50.36154 132.668663 
L 49.3092 133.714659 
L 48.256859 134.760656 
L 47.204519 135.806652 
L 46.152179 136.852648 
L 45.099839 137.898644 
L 44.047499 138.94464 
L 42.995159 139.990637 
L 41.942819 141.036633 
L 40.890479 142.082629 
L 39.838138 143.128625 
L 38.785798 144.174622 
L 37.733458 145.220618 
L 36.681118 146.266614 
L 35.628778 147.31261 
L 34.576438 148.358607 
L 33.524098 149.404603 
L 32.471757 150.450599 
L 31.419417 151.496595 
L 30.367077 152.542591 
" style="fill:none;stroke:#008000;stroke-linecap:square;stroke-width:1.5;"/>
   </g>
   <g id="line2d_21">
    <path clip-path="url(#pc5a0b73f60)" d="M 77.848751 109.507947 
L 76.230802 109.344533 
L 74.612853 109.181118 
L 73.080787 109.026782 
L 71.548721 108.872447 
L 70.016655 108.718111 
L 68.484589 108.563775 
L 68.064272 109.744265 
L 67.643954 110.924755 
L 67.223637 112.105245 
L 66.803319 113.285734 
L 66.833524 114.466499 
L 66.863729 115.647264 
L 66.893933 116.828029 
L 66.924138 118.008794 
" style="fill:none;stroke:#008000;stroke-linecap:square;stroke-width:1.5;"/>
   </g>
   <g id="line2d_22">
    <path clip-path="url(#pc5a0b73f60)" d="M 78.329114 111.160798 
L 77.601292 111.821694 
L 76.873469 112.48259 
L 76.145647 113.143486 
L 75.417825 113.804382 
L 74.690002 114.465278 
L 73.96218 115.126175 
L 73.234358 115.787071 
L 72.506535 116.447967 
L 71.778713 117.108863 
L 71.050891 117.769759 
L 70.323068 118.430655 
L 69.595246 119.091552 
L 68.867424 119.752448 
L 68.139601 120.413344 
L 67.411779 121.07424 
L 66.683956 121.735136 
L 65.956134 122.396032 
L 65.228312 123.056929 
L 64.500489 123.717825 
L 63.772667 124.378721 
L 63.044845 125.039617 
L 62.317022 125.700513 
L 61.5892 126.361409 
L 60.861378 127.022306 
L 60.133555 127.683202 
L 59.405733 128.344098 
L 58.677911 129.004994 
L 57.950088 129.66589 
L 57.222266 130.326786 
L 56.494444 130.987682 
L 55.766621 131.648579 
L 55.038799 132.309475 
L 54.310977 132.970371 
L 53.583154 133.631267 
L 52.855332 134.292163 
L 52.12751 134.953059 
L 51.399687 135.613956 
L 50.671865 136.274852 
L 49.944043 136.935748 
L 49.21622 137.596644 
L 48.488398 138.25754 
L 47.760576 138.918436 
L 47.032753 139.579333 
L 46.304931 140.240229 
L 45.577109 140.901125 
L 44.849286 141.562021 
L 44.121464 142.222917 
L 43.393641 142.883813 
L 42.665819 143.54471 
L 41.937997 144.205606 
L 41.210174 144.866502 
L 40.482352 145.527398 
L 39.75453 146.188294 
L 39.026707 146.84919 
L 38.298885 147.510086 
L 37.571063 148.170983 
L 36.84324 148.831879 
L 36.115418 149.492775 
L 35.387596 150.153671 
L 34.659773 150.814567 
L 33.931951 151.475463 
L 33.204129 152.13636 
L 32.476306 152.797256 
L 31.748484 153.458152 
" style="fill:none;stroke:#4169e1;stroke-linecap:square;stroke-width:1.5;"/>
   </g>
   <g id="line2d_23">
    <path clip-path="url(#pc5a0b73f60)" d="M 80.611565 114.701992 
L 80.20453 115.592793 
L 79.797496 116.483593 
L 79.390461 117.374394 
L 78.983426 118.265195 
L 78.576392 119.155996 
L 78.169357 120.046796 
L 77.762322 120.937597 
L 77.355288 121.828398 
L 76.455699 122.416098 
L 75.556111 123.003798 
L 74.656522 123.591498 
L 73.756934 124.179199 
L 72.857346 124.766899 
L 71.957757 125.354599 
L 71.058169 125.942299 
L 70.15858 126.529999 
L 69.258992 127.117699 
L 68.359404 127.705399 
L 67.459815 128.2931 
L 66.560227 128.8808 
L 65.660638 129.4685 
L 64.76105 130.0562 
L 63.861461 130.6439 
L 62.961873 131.2316 
" style="fill:none;stroke:#4169e1;stroke-linecap:square;stroke-width:1.5;"/>
   </g>
   <g id="line2d_24">
    <path clip-path="url(#pc5a0b73f60)" d="M 127.914195 96.874973 
L 129.339817 97.199601 
L 130.765439 97.524228 
L 132.191061 97.848856 
L 133.616683 98.173484 
L 135.042305 98.498112 
L 136.467927 98.82274 
L 137.893549 99.147367 
L 139.319171 99.471995 
L 139.124114 97.996314 
L 138.929058 96.520633 
L 137.988348 95.512636 
L 137.047637 94.504639 
L 136.106927 93.496643 
L 135.166216 92.488646 
L 134.412192 91.443234 
L 133.658169 90.397822 
L 132.904145 89.352411 
L 132.150121 88.306999 
L 131.939052 86.693214 
L 131.727984 85.079428 
L 131.516915 83.465643 
L 131.305847 81.851857 
" style="fill:none;stroke:#4169e1;stroke-linecap:square;stroke-width:1.5;"/>
   </g>
   <g id="line2d_25">
    <path clip-path="url(#pc5a0b73f60)" d="M 128.87492 94.986629 
L 129.084897 93.407507 
L 129.294874 91.828386 
L 129.50485 90.249264 
L 129.714827 88.670142 
L 129.924804 87.09102 
L 130.134781 85.511899 
L 130.344757 83.932777 
L 130.554734 82.353655 
" style="fill:none;stroke:#000000;stroke-linecap:square;stroke-width:1.5;"/>
   </g>
   <g id="line2d_26">
    <path clip-path="url(#pc5a0b73f60)" d="M 130.915734 80.700804 
L 130.653081 79.07739 
L 130.390428 77.453976 
L 130.127775 75.830562 
L 129.865122 74.207147 
L 129.602469 72.583733 
L 129.339817 70.960319 
L 129.077164 69.336905 
L 128.814511 67.713491 
L 128.551858 66.090076 
L 128.289205 64.466662 
L 128.026552 62.843248 
L 127.763899 61.219834 
L 127.501246 59.59642 
L 127.238593 57.973005 
L 126.975941 56.349591 
L 126.713288 54.726177 
L 126.153592 53.350635 
L 125.593897 51.975094 
L 125.034202 50.599552 
L 124.474506 49.22401 
L 124.283089 47.580788 
L 124.091672 45.937566 
L 123.900254 44.294344 
L 123.708837 42.651122 
L 123.51742 41.0079 
L 123.326003 39.364678 
L 123.134585 37.721456 
L 122.943168 36.078234 
L 122.964275 34.741896 
L 122.985382 33.405557 
L 123.006489 32.069218 
L 123.027595 30.73288 
L 123.048702 29.396541 
L 123.069809 28.060202 
L 123.090916 26.723864 
L 123.112023 25.387525 
" style="fill:none;stroke:#4169e1;stroke-linecap:square;stroke-width:1.5;"/>
   </g>
   <g id="line2d_27">
    <path clip-path="url(#pc5a0b73f60)" d="M 113.522236 88.875923 
L 113.655427 87.691719 
L 113.788619 86.507516 
L 113.92181 85.323312 
L 114.055002 84.139108 
L 114.188193 82.954904 
L 114.321385 81.770701 
L 114.454576 80.586497 
L 114.587767 79.402293 
L 114.047359 77.690294 
L 113.506951 75.978295 
L 112.966543 74.266296 
L 112.426135 72.554297 
L 111.885727 70.842298 
L 111.345319 69.130298 
L 110.804911 67.418299 
L 110.264503 65.7063 
" style="fill:none;stroke:#000000;stroke-linecap:square;stroke-width:1.5;"/>
   </g>
   <g id="line2d_28">
    <path clip-path="url(#pc5a0b73f60)" d="M 121.595241 91.208842 
L 121.682489 90.131449 
L 121.769736 89.054056 
L 121.856984 87.976663 
L 121.944232 86.89927 
L 122.03148 85.821877 
L 122.118727 84.744484 
L 122.205975 83.667091 
L 122.293223 82.589698 
L 122.38047 81.512305 
L 122.467718 80.434912 
L 122.554966 79.357519 
L 122.642213 78.280126 
L 122.729461 77.202733 
L 122.816709 76.12534 
L 122.903957 75.047947 
L 122.991204 73.970554 
" style="fill:none;stroke:#000000;stroke-linecap:square;stroke-width:1.5;"/>
   </g>
   <g id="line2d_29">
    <path clip-path="url(#pc5a0b73f60)" d="M 121.609797 71.373532 
L 121.137077 70.425233 
L 120.664356 69.476935 
L 120.191636 68.528637 
L 119.718915 67.580338 
L 119.246194 66.63204 
L 118.773474 65.683741 
L 118.300753 64.735443 
L 117.828033 63.787145 
L 117.798192 62.49221 
L 117.768351 61.197275 
L 117.73851 59.90234 
L 117.70867 58.607405 
L 117.678829 57.31247 
L 117.648988 56.017535 
L 117.619148 54.722601 
L 117.589307 53.427666 
L 117.536722 51.789533 
L 117.484136 50.151401 
L 117.431551 48.513268 
L 117.378966 46.875136 
L 117.326381 45.237003 
L 117.273796 43.598871 
L 117.221211 41.960738 
L 117.168626 40.322606 
L 117.11604 38.684473 
L 117.063455 37.046341 
L 117.01087 35.408208 
L 116.958285 33.770076 
L 116.9057 32.131943 
L 116.853115 30.493811 
L 116.800529 28.855678 
L 116.747944 27.217546 
" style="fill:none;stroke:#4169e1;stroke-linecap:square;stroke-width:1.5;"/>
   </g>
   <g id="line2d_30">
    <path clip-path="url(#pc5a0b73f60)" d="M 111.586228 61.456427 
L 111.432385 60.205716 
L 111.278541 58.955005 
L 111.124698 57.704293 
L 110.970854 56.453582 
L 110.817011 55.202871 
L 110.663167 53.95216 
L 110.509324 52.701448 
L 110.355481 51.450737 
L 110.201637 50.200026 
L 110.047794 48.949315 
L 109.89395 47.698604 
L 109.740107 46.447892 
L 109.586263 45.197181 
L 109.43242 43.94647 
L 109.278576 42.695759 
L 109.124733 41.445048 
L 109.489008 39.758634 
L 109.853283 38.07222 
L 110.217558 36.385806 
L 110.581833 34.699392 
L 111.112416 33.646139 
L 111.642998 32.592887 
L 112.173581 31.539635 
L 112.704163 30.486383 
L 113.234746 29.43313 
L 113.765328 28.379878 
L 114.295911 27.326626 
L 114.826493 26.273374 
" style="fill:none;stroke:#4169e1;stroke-linecap:square;stroke-width:1.5;"/>
   </g>
   <g id="line2d_31">
    <path clip-path="url(#pc5a0b73f60)" d="M 100.179796 68.894256 
L 99.887212 67.52174 
L 99.594627 66.149225 
L 99.302043 64.776709 
L 99.009458 63.404194 
L 98.716873 62.031678 
L 98.424289 60.659163 
L 98.131704 59.286648 
L 97.83912 57.914132 
L 98.05219 56.290443 
L 98.26526 54.666754 
L 98.47833 53.043064 
L 98.6914 51.419375 
L 98.90447 49.795686 
L 99.11754 48.171996 
L 99.33061 46.548307 
L 99.54368 44.924618 
L 100.122116 43.367917 
L 100.700553 41.811217 
L 101.27899 40.254516 
L 101.857427 38.697816 
L 102.435864 37.141115 
L 103.0143 35.584415 
L 103.592737 34.027715 
L 104.171174 32.471014 
L 105.330595 31.52643 
L 106.490016 30.581845 
L 107.649437 29.637261 
L 108.808858 28.692676 
L 109.968279 27.748092 
L 111.1277 26.803508 
L 112.287121 25.858923 
L 113.446542 24.914339 
" style="fill:none;stroke:#4169e1;stroke-linecap:square;stroke-width:1.5;"/>
   </g>
   <g id="line2d_32">
    <path clip-path="url(#pc5a0b73f60)" d="M 107.564282 87.135038 
L 106.416142 86.020849 
L 105.268002 84.90666 
L 104.119863 83.792472 
L 102.971723 82.678283 
L 101.823583 81.564094 
L 100.675443 80.449905 
L 99.527304 79.335717 
L 98.379164 78.221528 
L 98.199028 76.656987 
L 98.018892 75.092446 
L 97.838756 73.527905 
L 97.65862 71.963364 
" style="fill:none;stroke:#4169e1;stroke-linecap:square;stroke-width:1.5;"/>
   </g>
   <g id="line2d_33">
    <path clip-path="url(#pc5a0b73f60)" d="M 95.97735 86.249189 
L 95.031909 85.452269 
L 94.086468 84.655349 
L 93.141026 83.858429 
L 92.195585 83.061509 
L 91.250144 82.264589 
L 90.304703 81.467669 
L 89.359262 80.670749 
L 88.41382 79.873829 
L 87.468379 79.076909 
L 86.522938 78.279989 
L 85.577497 77.483069 
L 84.632055 76.686149 
L 83.686614 75.889228 
L 82.741173 75.092308 
L 81.795732 74.295388 
L 80.850291 73.498468 
L 82.471151 73.262425 
L 84.092011 73.026383 
L 85.47269 73.380447 
L 86.853369 73.734511 
L 88.234048 74.088576 
L 89.614727 74.44264 
L 90.875316 73.380172 
L 92.135904 72.317703 
L 91.595678 71.505996 
L 91.055452 70.694289 
L 90.515225 69.882582 
L 89.974999 69.070875 
L 89.434773 68.259168 
L 88.894547 67.447461 
L 88.354321 66.635754 
L 87.814095 65.824047 
L 86.463438 64.717286 
L 85.112782 63.610525 
L 83.762126 62.503764 
L 82.41147 61.397004 
L 81.060813 60.290243 
L 79.710157 59.183482 
L 78.359501 58.076721 
L 77.008844 56.96996 
L 76.003358 56.748567 
L 74.997871 56.527174 
L 73.992385 56.30578 
L 72.986898 56.084387 
L 71.981411 55.862993 
L 70.975925 55.6416 
L 69.970438 55.420206 
L 68.964952 55.198813 
L 67.959465 54.97742 
L 66.953979 54.756026 
L 65.948492 54.534633 
L 64.943005 54.313239 
L 63.937519 54.091846 
L 62.932032 53.870452 
L 61.926546 53.649059 
L 60.921059 53.427666 
L 59.570585 53.575399 
L 58.22011 53.723132 
L 56.869636 53.870865 
L 55.519162 54.018598 
L 54.81372 55.789471 
L 54.108278 57.560343 
L 53.402836 59.331215 
L 52.697395 61.102087 
L 51.991953 62.87296 
L 51.286511 64.643832 
L 50.581069 66.414704 
L 49.875627 68.185576 
L 49.117873 69.395709 
L 48.360119 70.605842 
L 47.602365 71.815975 
L 46.844611 73.026107 
L 46.086857 74.23624 
L 45.329103 75.446373 
L 44.571349 76.656506 
L 43.813595 77.866638 
L 43.055841 79.076771 
L 42.298087 80.286904 
L 41.540333 81.497037 
L 40.782579 82.707169 
L 40.024825 83.917302 
L 39.267071 85.127435 
L 38.509317 86.337567 
L 37.751563 87.5477 
L 37.361086 89.244843 
L 36.970609 90.941987 
L 36.580133 92.63913 
L 36.189656 94.336273 
" style="fill:none;stroke:#008000;stroke-linecap:square;stroke-width:1.5;"/>
   </g>
   <g id="line2d_34">
    <path clip-path="url(#pc5a0b73f60)" d="M 94.897262 87.666547 
L 93.651685 87.231188 
L 92.406108 86.795829 
L 91.160531 86.36047 
L 89.914954 85.925111 
L 88.669377 85.489752 
L 87.4238 85.054393 
L 86.178223 84.619035 
L 84.932646 84.183676 
L 83.687069 83.748317 
L 82.441492 83.312958 
L 81.195915 82.877599 
L 79.950338 82.44224 
L 78.704761 82.006881 
L 77.459184 81.571522 
L 76.213607 81.136163 
L 74.96803 80.700804 
L 73.887578 82.117612 
L 72.807126 83.53442 
L 71.726674 84.951228 
L 70.646221 86.368036 
L 70.256018 87.504371 
L 69.865814 88.640706 
L 69.47561 89.77704 
L 69.085406 90.913375 
L 68.695203 92.04971 
L 68.304999 93.186045 
L 67.914795 94.32238 
L 67.524591 95.458715 
L 67.134388 96.59505 
L 66.744184 97.731385 
L 66.35398 98.86772 
L 65.963776 100.004055 
L 65.573573 101.14039 
L 65.183369 102.276725 
L 64.793165 103.41306 
L 64.402961 104.549394 
L 63.337429 105.523415 
L 62.271897 106.497436 
L 61.206366 107.471458 
L 60.140834 108.445479 
L 59.075302 109.4195 
L 58.00977 110.393521 
L 56.944238 111.367542 
L 55.878706 112.341563 
L 54.753311 113.52219 
L 53.627915 114.702817 
L 52.50252 115.883445 
L 51.377125 117.064072 
L 50.251729 118.244699 
L 49.126334 119.425327 
L 48.000939 120.605954 
L 46.875544 121.786581 
L 46.140079 123.57231 
L 45.404615 125.358038 
L 44.66915 127.143766 
L 43.933686 128.929494 
L 43.198221 130.715222 
L 42.462757 132.50095 
L 41.727292 134.286678 
L 40.991828 136.072406 
" style="fill:none;stroke:#4169e1;stroke-linecap:square;stroke-width:1.5;"/>
   </g>
   <g id="line2d_35">
    <path clip-path="url(#pc5a0b73f60)" d="M 79.049658 72.43655 
L 77.864036 72.997221 
L 76.678413 73.557892 
L 75.49279 74.118563 
L 74.307168 74.679233 
L 73.121545 75.239904 
L 71.935923 75.800575 
L 70.7503 76.361246 
L 69.564677 76.921916 
L 68.529259 78.235421 
L 67.493841 79.548926 
L 66.458423 80.86243 
L 65.423004 82.175935 
L 64.387586 83.48944 
L 63.352168 84.802944 
L 62.316749 86.116449 
L 61.281331 87.429954 
L 60.245913 88.743458 
L 59.210495 90.056963 
L 58.175076 91.370468 
L 57.139658 92.683973 
L 56.10424 93.997477 
L 55.068822 95.310982 
L 54.033403 96.624487 
L 52.997985 97.937991 
L 52.157532 99.487539 
L 51.317079 101.037087 
L 50.476627 102.586634 
L 49.636174 104.136182 
L 48.795721 105.685729 
L 47.955268 107.235277 
L 47.114815 108.784825 
L 46.274362 110.334372 
" style="fill:none;stroke:#4169e1;stroke-linecap:square;stroke-width:1.5;"/>
   </g>
   <g id="line2d_36">
    <path clip-path="url(#pc5a0b73f60)" d="M 93.558069 67.383361 
L 93.186606 66.449918 
L 92.815144 65.516476 
L 92.443682 64.583033 
L 92.072219 63.64959 
L 91.700757 62.716148 
L 91.329295 61.782705 
L 90.957832 60.849263 
L 90.58637 59.91582 
L 90.214908 58.982378 
L 89.843445 58.048935 
L 89.471983 57.115493 
L 89.100521 56.18205 
L 88.729058 55.248608 
L 88.357596 54.315165 
L 87.986134 53.381723 
L 87.614671 52.44828 
L 87.434899 51.164349 
L 87.255127 49.880419 
L 87.075355 48.596488 
L 86.895583 47.312558 
L 86.880299 45.585703 
L 86.865014 43.858848 
L 86.84973 42.131993 
L 86.834446 40.405138 
L 87.524785 38.944313 
L 88.215125 37.483488 
L 88.905464 36.022663 
L 89.595804 34.561837 
L 90.661336 33.100737 
L 91.726868 31.639637 
L 92.7924 30.178536 
L 93.857931 28.717436 
L 94.998429 27.78757 
L 96.138927 26.857704 
L 97.279424 25.927838 
L 98.419922 24.997972 
L 99.590624 24.673344 
L 100.761326 24.348716 
L 101.932029 24.024088 
L 103.102731 23.69946 
L 104.340939 23.662596 
L 105.579146 23.625731 
L 106.817354 23.588867 
L 108.055562 23.552002 
L 109.29377 23.515138 
L 110.531977 23.478273 
L 111.770185 23.441409 
L 113.008393 23.404544 
" style="fill:none;stroke:#008000;stroke-linecap:square;stroke-width:1.5;"/>
   </g>
   <g id="line2d_37">
    <path clip-path="url(#pc5a0b73f60)" d="M 28.924533 97.651879 
L 28.894511 98.633259 
L 28.864488 99.614639 
L 28.834465 100.596019 
L 28.804443 101.577399 
L 28.77442 102.558779 
L 28.744397 103.54016 
L 28.714375 104.52154 
L 28.684352 105.50292 
L 28.654329 106.4843 
L 28.624307 107.46568 
L 28.594284 108.44706 
L 28.564261 109.428441 
L 28.534239 110.409821 
L 28.504216 111.391201 
L 28.474193 112.372581 
L 28.444171 113.353961 
L 28.155225 114.442358 
L 27.86628 115.530756 
L 27.577334 116.619153 
L 27.288389 117.70755 
L 26.999443 118.795948 
L 26.710498 119.884345 
L 26.421552 120.972742 
L 26.132607 122.06114 
L 25.843661 123.149537 
L 25.554716 124.237934 
L 25.26577 125.326331 
L 24.976825 126.414729 
L 24.687879 127.503126 
L 24.398934 128.591523 
L 24.109989 129.679921 
L 23.821043 130.768318 
L 23.404638 131.786631 
L 22.988232 132.804945 
L 22.571827 133.823258 
L 22.155422 134.841572 
L 21.739016 135.859885 
L 21.322611 136.878199 
L 20.906206 137.896512 
L 20.4898 138.914826 
L 20.073395 139.933139 
L 19.656989 140.951453 
L 19.240584 141.969766 
L 18.824179 142.988079 
L 18.407773 144.006393 
L 17.991368 145.024706 
L 17.574963 146.04302 
L 17.158557 147.061333 
" style="fill:none;stroke:#008000;stroke-linecap:square;stroke-width:1.5;"/>
   </g>
   <g id="line2d_38">
    <path clip-path="url(#pc5a0b73f60)" d="M 91.307642 69.611738 
L 92.598071 69.139652 
L 93.8885 68.667566 
" style="fill:none;stroke:#008000;stroke-linecap:square;stroke-width:1.5;"/>
   </g>
   <g id="text_1">
    <g id="patch_2">
     <path d="M 42.411633 151.718336 
L 49.843649 141.967811 
L 48.272411 140.770187 
L 40.840395 150.520712 
z
" style="fill:#ffffff;"/>
    </g>
    <!-- Alpine Quad -->
    <g style="fill:#808080;" transform="translate(42.077051 151.438164)rotate(-52.684732)scale(0.02 -0.02)">
     <defs>
      <path d="M 2188 4044 
L 1331 1722 
L 3047 1722 
L 2188 4044 
z
M 1831 4666 
L 2547 4666 
L 4325 0 
L 3669 0 
L 3244 1197 
L 1141 1197 
L 716 0 
L 50 0 
L 1831 4666 
z
" id="DejaVuSans-41" transform="scale(0.015625)"/>
      <path d="M 603 4863 
L 1178 4863 
L 1178 0 
L 603 0 
L 603 4863 
z
" id="DejaVuSans-6c" transform="scale(0.015625)"/>
      <path d="M 1159 525 
L 1159 -1331 
L 581 -1331 
L 581 3500 
L 1159 3500 
L 1159 2969 
Q 1341 3281 1617 3432 
Q 1894 3584 2278 3584 
Q 2916 3584 3314 3078 
Q 3713 2572 3713 1747 
Q 3713 922 3314 415 
Q 2916 -91 2278 -91 
Q 1894 -91 1617 61 
Q 1341 213 1159 525 
z
M 3116 1747 
Q 3116 2381 2855 2742 
Q 2594 3103 2138 3103 
Q 1681 3103 1420 2742 
Q 1159 2381 1159 1747 
Q 1159 1113 1420 752 
Q 1681 391 2138 391 
Q 2594 391 2855 752 
Q 3116 1113 3116 1747 
z
" id="DejaVuSans-70" transform="scale(0.015625)"/>
      <path d="M 603 3500 
L 1178 3500 
L 1178 0 
L 603 0 
L 603 3500 
z
M 603 4863 
L 1178 4863 
L 1178 4134 
L 603 4134 
L 603 4863 
z
" id="DejaVuSans-69" transform="scale(0.015625)"/>
      <path d="M 3513 2113 
L 3513 0 
L 2938 0 
L 2938 2094 
Q 2938 2591 2744 2837 
Q 2550 3084 2163 3084 
Q 1697 3084 1428 2787 
Q 1159 2491 1159 1978 
L 1159 0 
L 581 0 
L 581 3500 
L 1159 3500 
L 1159 2956 
Q 1366 3272 1645 3428 
Q 1925 3584 2291 3584 
Q 2894 3584 3203 3211 
Q 3513 2838 3513 2113 
z
" id="DejaVuSans-6e" transform="scale(0.015625)"/>
      <path d="M 3597 1894 
L 3597 1613 
L 953 1613 
Q 991 1019 1311 708 
Q 1631 397 2203 397 
Q 2534 397 2845 478 
Q 3156 559 3463 722 
L 3463 178 
Q 3153 47 2828 -22 
Q 2503 -91 2169 -91 
Q 1331 -91 842 396 
Q 353 884 353 1716 
Q 353 2575 817 3079 
Q 1281 3584 2069 3584 
Q 2775 3584 3186 3129 
Q 3597 2675 3597 1894 
z
M 3022 2063 
Q 3016 2534 2758 2815 
Q 2500 3097 2075 3097 
Q 1594 3097 1305 2825 
Q 1016 2553 972 2059 
L 3022 2063 
z
" id="DejaVuSans-65" transform="scale(0.015625)"/>
      <path id="DejaVuSans-20" transform="scale(0.015625)"/>
      <path d="M 2522 4238 
Q 1834 4238 1429 3725 
Q 1025 3213 1025 2328 
Q 1025 1447 1429 934 
Q 1834 422 2522 422 
Q 3209 422 3611 934 
Q 4013 1447 4013 2328 
Q 4013 3213 3611 3725 
Q 3209 4238 2522 4238 
z
M 3406 84 
L 4238 -825 
L 3475 -825 
L 2784 -78 
Q 2681 -84 2626 -87 
Q 2572 -91 2522 -91 
Q 1538 -91 948 567 
Q 359 1225 359 2328 
Q 359 3434 948 4092 
Q 1538 4750 2522 4750 
Q 3503 4750 4090 4092 
Q 4678 3434 4678 2328 
Q 4678 1516 4351 937 
Q 4025 359 3406 84 
z
" id="DejaVuSans-51" transform="scale(0.015625)"/>
      <path d="M 544 1381 
L 544 3500 
L 1119 3500 
L 1119 1403 
Q 1119 906 1312 657 
Q 1506 409 1894 409 
Q 2359 409 2629 706 
Q 2900 1003 2900 1516 
L 2900 3500 
L 3475 3500 
L 3475 0 
L 2900 0 
L 2900 538 
Q 2691 219 2414 64 
Q 2138 -91 1772 -91 
Q 1169 -91 856 284 
Q 544 659 544 1381 
z
M 1991 3584 
L 1991 3584 
z
" id="DejaVuSans-75" transform="scale(0.015625)"/>
      <path d="M 2194 1759 
Q 1497 1759 1228 1600 
Q 959 1441 959 1056 
Q 959 750 1161 570 
Q 1363 391 1709 391 
Q 2188 391 2477 730 
Q 2766 1069 2766 1631 
L 2766 1759 
L 2194 1759 
z
M 3341 1997 
L 3341 0 
L 2766 0 
L 2766 531 
Q 2569 213 2275 61 
Q 1981 -91 1556 -91 
Q 1019 -91 701 211 
Q 384 513 384 1019 
Q 384 1609 779 1909 
Q 1175 2209 1959 2209 
L 2766 2209 
L 2766 2266 
Q 2766 2663 2505 2880 
Q 2244 3097 1772 3097 
Q 1472 3097 1187 3025 
Q 903 2953 641 2809 
L 641 3341 
Q 956 3463 1253 3523 
Q 1550 3584 1831 3584 
Q 2591 3584 2966 3190 
Q 3341 2797 3341 1997 
z
" id="DejaVuSans-61" transform="scale(0.015625)"/>
      <path d="M 2906 2969 
L 2906 4863 
L 3481 4863 
L 3481 0 
L 2906 0 
L 2906 525 
Q 2725 213 2448 61 
Q 2172 -91 1784 -91 
Q 1150 -91 751 415 
Q 353 922 353 1747 
Q 353 2572 751 3078 
Q 1150 3584 1784 3584 
Q 2172 3584 2448 3432 
Q 2725 3281 2906 2969 
z
M 947 1747 
Q 947 1113 1208 752 
Q 1469 391 1925 391 
Q 2381 391 2643 752 
Q 2906 1113 2906 1747 
Q 2906 2381 2643 2742 
Q 2381 3103 1925 3103 
Q 1469 3103 1208 2742 
Q 947 2381 947 1747 
z
" id="DejaVuSans-64" transform="scale(0.015625)"/>
     </defs>
     <use xlink:href="#DejaVuSans-41"/>
     <use x="68.408203" xlink:href="#DejaVuSans-6c"/>
     <use x="96.191406" xlink:href="#DejaVuSans-70"/>
     <use x="159.667969" xlink:href="#DejaVuSans-69"/>
     <use x="187.451172" xlink:href="#DejaVuSans-6e"/>
     <use x="250.830078" xlink:href="#DejaVuSans-65"/>
     <use x="312.353516" xlink:href="#DejaVuSans-20"/>
     <use x="344.140625" xlink:href="#DejaVuSans-51"/>
     <use x="422.851562" xlink:href="#DejaVuSans-75"/>
     <use x="486.230469" xlink:href="#DejaVuSans-61"/>
     <use x="547.509766" xlink:href="#DejaVuSans-64"/>
    </g>
   </g>
   <g id="text_2">
    <g id="patch_3">
     <path d="M 26.951344 144.740436 
L 30.925572 133.838486 
L 29.069433 133.161844 
L 25.095205 144.063794 
z
" style="fill:#ffffff;"/>
    </g>
    <!-- Dipsy Quad -->
    <g style="fill:#808080;" transform="translate(26.548622 144.572339)rotate(-69.971035)scale(0.02 -0.02)">
     <defs>
      <path d="M 1259 4147 
L 1259 519 
L 2022 519 
Q 2988 519 3436 956 
Q 3884 1394 3884 2338 
Q 3884 3275 3436 3711 
Q 2988 4147 2022 4147 
L 1259 4147 
z
M 628 4666 
L 1925 4666 
Q 3281 4666 3915 4102 
Q 4550 3538 4550 2338 
Q 4550 1131 3912 565 
Q 3275 0 1925 0 
L 628 0 
L 628 4666 
z
" id="DejaVuSans-44" transform="scale(0.015625)"/>
      <path d="M 2834 3397 
L 2834 2853 
Q 2591 2978 2328 3040 
Q 2066 3103 1784 3103 
Q 1356 3103 1142 2972 
Q 928 2841 928 2578 
Q 928 2378 1081 2264 
Q 1234 2150 1697 2047 
L 1894 2003 
Q 2506 1872 2764 1633 
Q 3022 1394 3022 966 
Q 3022 478 2636 193 
Q 2250 -91 1575 -91 
Q 1294 -91 989 -36 
Q 684 19 347 128 
L 347 722 
Q 666 556 975 473 
Q 1284 391 1588 391 
Q 1994 391 2212 530 
Q 2431 669 2431 922 
Q 2431 1156 2273 1281 
Q 2116 1406 1581 1522 
L 1381 1569 
Q 847 1681 609 1914 
Q 372 2147 372 2553 
Q 372 3047 722 3315 
Q 1072 3584 1716 3584 
Q 2034 3584 2315 3537 
Q 2597 3491 2834 3397 
z
" id="DejaVuSans-73" transform="scale(0.015625)"/>
      <path d="M 2059 -325 
Q 1816 -950 1584 -1140 
Q 1353 -1331 966 -1331 
L 506 -1331 
L 506 -850 
L 844 -850 
Q 1081 -850 1212 -737 
Q 1344 -625 1503 -206 
L 1606 56 
L 191 3500 
L 800 3500 
L 1894 763 
L 2988 3500 
L 3597 3500 
L 2059 -325 
z
" id="DejaVuSans-79" transform="scale(0.015625)"/>
     </defs>
     <use xlink:href="#DejaVuSans-44"/>
     <use x="77.001953" xlink:href="#DejaVuSans-69"/>
     <use x="104.785156" xlink:href="#DejaVuSans-70"/>
     <use x="168.261719" xlink:href="#DejaVuSans-73"/>
     <use x="220.361328" xlink:href="#DejaVuSans-79"/>
     <use x="279.541016" xlink:href="#DejaVuSans-20"/>
     <use x="311.328125" xlink:href="#DejaVuSans-51"/>
     <use x="390.039062" xlink:href="#DejaVuSans-75"/>
     <use x="453.417969" xlink:href="#DejaVuSans-61"/>
     <use x="514.697266" xlink:href="#DejaVuSans-64"/>
    </g>
   </g>
   <g id="text_3">
    <g id="patch_4">
     <path d="M 17.420038 135.985886 
L 21.374269 120.359363 
L 19.459012 119.874715 
L 15.50478 135.501238 
z
" style="fill:#ffffff;"/>
    </g>
    <!-- First Class Quad -->
    <g style="fill:#808080;" transform="translate(17.002327 135.859556)rotate(-75.799611)scale(0.02 -0.02)">
     <defs>
      <path d="M 628 4666 
L 3309 4666 
L 3309 4134 
L 1259 4134 
L 1259 2759 
L 3109 2759 
L 3109 2228 
L 1259 2228 
L 1259 0 
L 628 0 
L 628 4666 
z
" id="DejaVuSans-46" transform="scale(0.015625)"/>
      <path d="M 2631 2963 
Q 2534 3019 2420 3045 
Q 2306 3072 2169 3072 
Q 1681 3072 1420 2755 
Q 1159 2438 1159 1844 
L 1159 0 
L 581 0 
L 581 3500 
L 1159 3500 
L 1159 2956 
Q 1341 3275 1631 3429 
Q 1922 3584 2338 3584 
Q 2397 3584 2469 3576 
Q 2541 3569 2628 3553 
L 2631 2963 
z
" id="DejaVuSans-72" transform="scale(0.015625)"/>
      <path d="M 1172 4494 
L 1172 3500 
L 2356 3500 
L 2356 3053 
L 1172 3053 
L 1172 1153 
Q 1172 725 1289 603 
Q 1406 481 1766 481 
L 2356 481 
L 2356 0 
L 1766 0 
Q 1100 0 847 248 
Q 594 497 594 1153 
L 594 3053 
L 172 3053 
L 172 3500 
L 594 3500 
L 594 4494 
L 1172 4494 
z
" id="DejaVuSans-74" transform="scale(0.015625)"/>
      <path d="M 4122 4306 
L 4122 3641 
Q 3803 3938 3442 4084 
Q 3081 4231 2675 4231 
Q 1875 4231 1450 3742 
Q 1025 3253 1025 2328 
Q 1025 1406 1450 917 
Q 1875 428 2675 428 
Q 3081 428 3442 575 
Q 3803 722 4122 1019 
L 4122 359 
Q 3791 134 3420 21 
Q 3050 -91 2638 -91 
Q 1578 -91 968 557 
Q 359 1206 359 2328 
Q 359 3453 968 4101 
Q 1578 4750 2638 4750 
Q 3056 4750 3426 4639 
Q 3797 4528 4122 4306 
z
" id="DejaVuSans-43" transform="scale(0.015625)"/>
     </defs>
     <use xlink:href="#DejaVuSans-46"/>
     <use x="50.269531" xlink:href="#DejaVuSans-69"/>
     <use x="78.052734" xlink:href="#DejaVuSans-72"/>
     <use x="119.166016" xlink:href="#DejaVuSans-73"/>
     <use x="171.265625" xlink:href="#DejaVuSans-74"/>
     <use x="210.474609" xlink:href="#DejaVuSans-20"/>
     <use x="242.261719" xlink:href="#DejaVuSans-43"/>
     <use x="312.085938" xlink:href="#DejaVuSans-6c"/>
     <use x="339.869141" xlink:href="#DejaVuSans-61"/>
     <use x="401.148438" xlink:href="#DejaVuSans-73"/>
     <use x="453.248047" xlink:href="#DejaVuSans-73"/>
     <use x="505.347656" xlink:href="#DejaVuSans-20"/>
     <use x="537.134766" xlink:href="#DejaVuSans-51"/>
     <use x="615.845703" xlink:href="#DejaVuSans-75"/>
     <use x="679.224609" xlink:href="#DejaVuSans-61"/>
     <use x="740.503906" xlink:href="#DejaVuSans-64"/>
    </g>
   </g>
   <g id="text_4">
    <g id="patch_5">
     <path d="M 119.892799 46.029492 
L 120.229006 30.976684 
L 118.253874 30.932569 
L 117.917667 45.985377 
z
" style="fill:#ffffff;"/>
    </g>
    <!-- Eastwind Quad -->
    <g style="fill:#808080;" transform="translate(119.457417 45.999763)rotate(-88.720502)scale(0.02 -0.02)">
     <defs>
      <path d="M 628 4666 
L 3578 4666 
L 3578 4134 
L 1259 4134 
L 1259 2753 
L 3481 2753 
L 3481 2222 
L 1259 2222 
L 1259 531 
L 3634 531 
L 3634 0 
L 628 0 
L 628 4666 
z
" id="DejaVuSans-45" transform="scale(0.015625)"/>
      <path d="M 269 3500 
L 844 3500 
L 1563 769 
L 2278 3500 
L 2956 3500 
L 3675 769 
L 4391 3500 
L 4966 3500 
L 4050 0 
L 3372 0 
L 2619 2869 
L 1863 0 
L 1184 0 
L 269 3500 
z
" id="DejaVuSans-77" transform="scale(0.015625)"/>
     </defs>
     <use xlink:href="#DejaVuSans-45"/>
     <use x="63.183594" xlink:href="#DejaVuSans-61"/>
     <use x="124.462891" xlink:href="#DejaVuSans-73"/>
     <use x="176.5625" xlink:href="#DejaVuSans-74"/>
     <use x="215.771484" xlink:href="#DejaVuSans-77"/>
     <use x="297.558594" xlink:href="#DejaVuSans-69"/>
     <use x="325.341797" xlink:href="#DejaVuSans-6e"/>
     <use x="388.720703" xlink:href="#DejaVuSans-64"/>
     <use x="452.197266" xlink:href="#DejaVuSans-20"/>
     <use x="483.984375" xlink:href="#DejaVuSans-51"/>
     <use x="562.695312" xlink:href="#DejaVuSans-75"/>
     <use x="626.074219" xlink:href="#DejaVuSans-61"/>
     <use x="687.353516" xlink:href="#DejaVuSans-64"/>
    </g>
   </g>
   <g id="text_5">
    <g id="patch_6">
     <path d="M 120.762635 32.95485 
L 121.160731 45.072375 
L 123.13529 45.007505 
L 122.737195 32.88998 
z
" style="fill:#ffffff;"/>
    </g>
    <!-- Strata Quad -->
    <g style="fill:#808080;" transform="translate(121.198994 32.960525)rotate(-271.881656)scale(0.02 -0.02)">
     <defs>
      <path d="M 3425 4513 
L 3425 3897 
Q 3066 4069 2747 4153 
Q 2428 4238 2131 4238 
Q 1616 4238 1336 4038 
Q 1056 3838 1056 3469 
Q 1056 3159 1242 3001 
Q 1428 2844 1947 2747 
L 2328 2669 
Q 3034 2534 3370 2195 
Q 3706 1856 3706 1288 
Q 3706 609 3251 259 
Q 2797 -91 1919 -91 
Q 1588 -91 1214 -16 
Q 841 59 441 206 
L 441 856 
Q 825 641 1194 531 
Q 1563 422 1919 422 
Q 2459 422 2753 634 
Q 3047 847 3047 1241 
Q 3047 1584 2836 1778 
Q 2625 1972 2144 2069 
L 1759 2144 
Q 1053 2284 737 2584 
Q 422 2884 422 3419 
Q 422 4038 858 4394 
Q 1294 4750 2059 4750 
Q 2388 4750 2728 4690 
Q 3069 4631 3425 4513 
z
" id="DejaVuSans-53" transform="scale(0.015625)"/>
     </defs>
     <use xlink:href="#DejaVuSans-53"/>
     <use x="63.476562" xlink:href="#DejaVuSans-74"/>
     <use x="102.685547" xlink:href="#DejaVuSans-72"/>
     <use x="143.798828" xlink:href="#DejaVuSans-61"/>
     <use x="205.078125" xlink:href="#DejaVuSans-74"/>
     <use x="244.287109" xlink:href="#DejaVuSans-61"/>
     <use x="305.566406" xlink:href="#DejaVuSans-20"/>
     <use x="337.353516" xlink:href="#DejaVuSans-51"/>
     <use x="416.064453" xlink:href="#DejaVuSans-75"/>
     <use x="479.443359" xlink:href="#DejaVuSans-61"/>
     <use x="540.722656" xlink:href="#DejaVuSans-64"/>
    </g>
   </g>
   <g id="text_6">
    <g id="patch_7">
     <path d="M 63.662265 132.35027 
L 74.492834 119.259858 
L 72.970659 118.000462 
L 62.14009 131.090873 
z
" style="fill:#ffffff;"/>
    </g>
    <!-- Terrain Park J-Bar -->
    <g style="fill:#808080;" transform="translate(63.339134 132.056964)rotate(-50.39678)scale(0.02 -0.02)">
     <defs>
      <path d="M -19 4666 
L 3928 4666 
L 3928 4134 
L 2272 4134 
L 2272 0 
L 1638 0 
L 1638 4134 
L -19 4134 
L -19 4666 
z
" id="DejaVuSans-54" transform="scale(0.015625)"/>
      <path d="M 1259 4147 
L 1259 2394 
L 2053 2394 
Q 2494 2394 2734 2622 
Q 2975 2850 2975 3272 
Q 2975 3691 2734 3919 
Q 2494 4147 2053 4147 
L 1259 4147 
z
M 628 4666 
L 2053 4666 
Q 2838 4666 3239 4311 
Q 3641 3956 3641 3272 
Q 3641 2581 3239 2228 
Q 2838 1875 2053 1875 
L 1259 1875 
L 1259 0 
L 628 0 
L 628 4666 
z
" id="DejaVuSans-50" transform="scale(0.015625)"/>
      <path d="M 581 4863 
L 1159 4863 
L 1159 1991 
L 2875 3500 
L 3609 3500 
L 1753 1863 
L 3688 0 
L 2938 0 
L 1159 1709 
L 1159 0 
L 581 0 
L 581 4863 
z
" id="DejaVuSans-6b" transform="scale(0.015625)"/>
      <path d="M 628 4666 
L 1259 4666 
L 1259 325 
Q 1259 -519 939 -900 
Q 619 -1281 -91 -1281 
L -331 -1281 
L -331 -750 
L -134 -750 
Q 284 -750 456 -515 
Q 628 -281 628 325 
L 628 4666 
z
" id="DejaVuSans-4a" transform="scale(0.015625)"/>
      <path d="M 313 2009 
L 1997 2009 
L 1997 1497 
L 313 1497 
L 313 2009 
z
" id="DejaVuSans-2d" transform="scale(0.015625)"/>
      <path d="M 1259 2228 
L 1259 519 
L 2272 519 
Q 2781 519 3026 730 
Q 3272 941 3272 1375 
Q 3272 1813 3026 2020 
Q 2781 2228 2272 2228 
L 1259 2228 
z
M 1259 4147 
L 1259 2741 
L 2194 2741 
Q 2656 2741 2882 2914 
Q 3109 3088 3109 3444 
Q 3109 3797 2882 3972 
Q 2656 4147 2194 4147 
L 1259 4147 
z
M 628 4666 
L 2241 4666 
Q 2963 4666 3353 4366 
Q 3744 4066 3744 3513 
Q 3744 3084 3544 2831 
Q 3344 2578 2956 2516 
Q 3422 2416 3680 2098 
Q 3938 1781 3938 1306 
Q 3938 681 3513 340 
Q 3088 0 2303 0 
L 628 0 
L 628 4666 
z
" id="DejaVuSans-42" transform="scale(0.015625)"/>
     </defs>
     <use xlink:href="#DejaVuSans-54"/>
     <use x="44.083984" xlink:href="#DejaVuSans-65"/>
     <use x="105.607422" xlink:href="#DejaVuSans-72"/>
     <use x="144.970703" xlink:href="#DejaVuSans-72"/>
     <use x="186.083984" xlink:href="#DejaVuSans-61"/>
     <use x="247.363281" xlink:href="#DejaVuSans-69"/>
     <use x="275.146484" xlink:href="#DejaVuSans-6e"/>
     <use x="338.525391" xlink:href="#DejaVuSans-20"/>
     <use x="370.3125" xlink:href="#DejaVuSans-50"/>
     <use x="426.115234" xlink:href="#DejaVuSans-61"/>
     <use x="487.394531" xlink:href="#DejaVuSans-72"/>
     <use x="528.507812" xlink:href="#DejaVuSans-6b"/>
     <use x="586.417969" xlink:href="#DejaVuSans-20"/>
     <use x="618.205078" xlink:href="#DejaVuSans-4a"/>
     <use x="644.072266" xlink:href="#DejaVuSans-2d"/>
     <use x="676.53125" xlink:href="#DejaVuSans-42"/>
     <use x="745.134766" xlink:href="#DejaVuSans-61"/>
     <use x="806.414062" xlink:href="#DejaVuSans-72"/>
    </g>
   </g>
   <g id="text_7">
    <g id="patch_8">
     <path d="M 14.332136 134.264869 
L 19.997698 114.875986 
L 18.101374 114.321868 
L 12.435812 133.710751 
z
" style="fill:#ffffff;"/>
    </g>
    <!-- First Class Area 6.7° -->
    <g style="fill:#008000;" transform="translate(13.919307 134.123401)rotate(-73.711282)scale(0.02 -0.02)">
     <defs>
      <path d="M 2113 2584 
Q 1688 2584 1439 2293 
Q 1191 2003 1191 1497 
Q 1191 994 1439 701 
Q 1688 409 2113 409 
Q 2538 409 2786 701 
Q 3034 994 3034 1497 
Q 3034 2003 2786 2293 
Q 2538 2584 2113 2584 
z
M 3366 4563 
L 3366 3988 
Q 3128 4100 2886 4159 
Q 2644 4219 2406 4219 
Q 1781 4219 1451 3797 
Q 1122 3375 1075 2522 
Q 1259 2794 1537 2939 
Q 1816 3084 2150 3084 
Q 2853 3084 3261 2657 
Q 3669 2231 3669 1497 
Q 3669 778 3244 343 
Q 2819 -91 2113 -91 
Q 1303 -91 875 529 
Q 447 1150 447 2328 
Q 447 3434 972 4092 
Q 1497 4750 2381 4750 
Q 2619 4750 2861 4703 
Q 3103 4656 3366 4563 
z
" id="DejaVuSans-36" transform="scale(0.015625)"/>
      <path d="M 684 794 
L 1344 794 
L 1344 0 
L 684 0 
L 684 794 
z
" id="DejaVuSans-2e" transform="scale(0.015625)"/>
      <path d="M 525 4666 
L 3525 4666 
L 3525 4397 
L 1831 0 
L 1172 0 
L 2766 4134 
L 525 4134 
L 525 4666 
z
" id="DejaVuSans-37" transform="scale(0.015625)"/>
      <path d="M 1600 4347 
Q 1350 4347 1178 4173 
Q 1006 4000 1006 3750 
Q 1006 3503 1178 3333 
Q 1350 3163 1600 3163 
Q 1850 3163 2022 3333 
Q 2194 3503 2194 3750 
Q 2194 3997 2020 4172 
Q 1847 4347 1600 4347 
z
M 1600 4750 
Q 1800 4750 1984 4673 
Q 2169 4597 2303 4453 
Q 2447 4313 2519 4134 
Q 2591 3956 2591 3750 
Q 2591 3338 2302 3052 
Q 2013 2766 1594 2766 
Q 1172 2766 890 3047 
Q 609 3328 609 3750 
Q 609 4169 896 4459 
Q 1184 4750 1600 4750 
z
" id="DejaVuSans-b0" transform="scale(0.015625)"/>
     </defs>
     <use xlink:href="#DejaVuSans-46"/>
     <use x="50.269531" xlink:href="#DejaVuSans-69"/>
     <use x="78.052734" xlink:href="#DejaVuSans-72"/>
     <use x="119.166016" xlink:href="#DejaVuSans-73"/>
     <use x="171.265625" xlink:href="#DejaVuSans-74"/>
     <use x="210.474609" xlink:href="#DejaVuSans-20"/>
     <use x="242.261719" xlink:href="#DejaVuSans-43"/>
     <use x="312.085938" xlink:href="#DejaVuSans-6c"/>
     <use x="339.869141" xlink:href="#DejaVuSans-61"/>
     <use x="401.148438" xlink:href="#DejaVuSans-73"/>
     <use x="453.248047" xlink:href="#DejaVuSans-73"/>
     <use x="505.347656" xlink:href="#DejaVuSans-20"/>
     <use x="537.134766" xlink:href="#DejaVuSans-41"/>
     <use x="605.542969" xlink:href="#DejaVuSans-72"/>
     <use x="644.40625" xlink:href="#DejaVuSans-65"/>
     <use x="705.929688" xlink:href="#DejaVuSans-61"/>
     <use x="767.208984" xlink:href="#DejaVuSans-20"/>
     <use x="798.996094" xlink:href="#DejaVuSans-36"/>
     <use x="862.619141" xlink:href="#DejaVuSans-2e"/>
     <use x="894.40625" xlink:href="#DejaVuSans-37"/>
     <use x="958.029297" xlink:href="#DejaVuSans-b0"/>
    </g>
   </g>
   <g id="text_8">
    <g id="patch_9">
     <path d="M 46.797169 108.698881 
L 55.014635 87.227325 
L 53.169521 86.521174 
L 44.952055 107.99273 
z
" style="fill:#ffffff;"/>
    </g>
    <!-- Lower Blue Streak 9.0° -->
    <g style="fill:#008000;" transform="translate(46.397178 108.524385)rotate(-69.057448)scale(0.02 -0.02)">
     <defs>
      <path d="M 628 4666 
L 1259 4666 
L 1259 531 
L 3531 531 
L 3531 0 
L 628 0 
L 628 4666 
z
" id="DejaVuSans-4c" transform="scale(0.015625)"/>
      <path d="M 1959 3097 
Q 1497 3097 1228 2736 
Q 959 2375 959 1747 
Q 959 1119 1226 758 
Q 1494 397 1959 397 
Q 2419 397 2687 759 
Q 2956 1122 2956 1747 
Q 2956 2369 2687 2733 
Q 2419 3097 1959 3097 
z
M 1959 3584 
Q 2709 3584 3137 3096 
Q 3566 2609 3566 1747 
Q 3566 888 3137 398 
Q 2709 -91 1959 -91 
Q 1206 -91 779 398 
Q 353 888 353 1747 
Q 353 2609 779 3096 
Q 1206 3584 1959 3584 
z
" id="DejaVuSans-6f" transform="scale(0.015625)"/>
      <path d="M 703 97 
L 703 672 
Q 941 559 1184 500 
Q 1428 441 1663 441 
Q 2288 441 2617 861 
Q 2947 1281 2994 2138 
Q 2813 1869 2534 1725 
Q 2256 1581 1919 1581 
Q 1219 1581 811 2004 
Q 403 2428 403 3163 
Q 403 3881 828 4315 
Q 1253 4750 1959 4750 
Q 2769 4750 3195 4129 
Q 3622 3509 3622 2328 
Q 3622 1225 3098 567 
Q 2575 -91 1691 -91 
Q 1453 -91 1209 -44 
Q 966 3 703 97 
z
M 1959 2075 
Q 2384 2075 2632 2365 
Q 2881 2656 2881 3163 
Q 2881 3666 2632 3958 
Q 2384 4250 1959 4250 
Q 1534 4250 1286 3958 
Q 1038 3666 1038 3163 
Q 1038 2656 1286 2365 
Q 1534 2075 1959 2075 
z
" id="DejaVuSans-39" transform="scale(0.015625)"/>
      <path d="M 2034 4250 
Q 1547 4250 1301 3770 
Q 1056 3291 1056 2328 
Q 1056 1369 1301 889 
Q 1547 409 2034 409 
Q 2525 409 2770 889 
Q 3016 1369 3016 2328 
Q 3016 3291 2770 3770 
Q 2525 4250 2034 4250 
z
M 2034 4750 
Q 2819 4750 3233 4129 
Q 3647 3509 3647 2328 
Q 3647 1150 3233 529 
Q 2819 -91 2034 -91 
Q 1250 -91 836 529 
Q 422 1150 422 2328 
Q 422 3509 836 4129 
Q 1250 4750 2034 4750 
z
" id="DejaVuSans-30" transform="scale(0.015625)"/>
     </defs>
     <use xlink:href="#DejaVuSans-4c"/>
     <use x="53.962891" xlink:href="#DejaVuSans-6f"/>
     <use x="115.144531" xlink:href="#DejaVuSans-77"/>
     <use x="196.931641" xlink:href="#DejaVuSans-65"/>
     <use x="258.455078" xlink:href="#DejaVuSans-72"/>
     <use x="299.568359" xlink:href="#DejaVuSans-20"/>
     <use x="331.355469" xlink:href="#DejaVuSans-42"/>
     <use x="399.958984" xlink:href="#DejaVuSans-6c"/>
     <use x="427.742188" xlink:href="#DejaVuSans-75"/>
     <use x="491.121094" xlink:href="#DejaVuSans-65"/>
     <use x="552.644531" xlink:href="#DejaVuSans-20"/>
     <use x="584.431641" xlink:href="#DejaVuSans-53"/>
     <use x="647.908203" xlink:href="#DejaVuSans-74"/>
     <use x="687.117188" xlink:href="#DejaVuSans-72"/>
     <use x="725.980469" xlink:href="#DejaVuSans-65"/>
     <use x="787.503906" xlink:href="#DejaVuSans-61"/>
     <use x="848.783203" xlink:href="#DejaVuSans-6b"/>
     <use x="906.693359" xlink:href="#DejaVuSans-20"/>
     <use x="938.480469" xlink:href="#DejaVuSans-39"/>
     <use x="1002.103516" xlink:href="#DejaVuSans-2e"/>
     <use x="1033.890625" xlink:href="#DejaVuSans-30"/>
     <use x="1097.513672" xlink:href="#DejaVuSans-b0"/>
    </g>
   </g>
   <g id="text_9">
    <g id="patch_10">
     <path d="M 36.952298 107.763856 
L 37.105093 97.779401 
L 35.129699 97.749171 
L 34.976904 107.733626 
z
" style="fill:#ffffff;"/>
    </g>
    <!-- Nova 8.3° -->
    <g style="fill:#008000;" transform="translate(36.516717 107.737188)rotate(-89.123255)scale(0.02 -0.02)">
     <defs>
      <path d="M 628 4666 
L 1478 4666 
L 3547 763 
L 3547 4666 
L 4159 4666 
L 4159 0 
L 3309 0 
L 1241 3903 
L 1241 0 
L 628 0 
L 628 4666 
z
" id="DejaVuSans-4e" transform="scale(0.015625)"/>
      <path d="M 191 3500 
L 800 3500 
L 1894 563 
L 2988 3500 
L 3597 3500 
L 2284 0 
L 1503 0 
L 191 3500 
z
" id="DejaVuSans-76" transform="scale(0.015625)"/>
      <path d="M 2034 2216 
Q 1584 2216 1326 1975 
Q 1069 1734 1069 1313 
Q 1069 891 1326 650 
Q 1584 409 2034 409 
Q 2484 409 2743 651 
Q 3003 894 3003 1313 
Q 3003 1734 2745 1975 
Q 2488 2216 2034 2216 
z
M 1403 2484 
Q 997 2584 770 2862 
Q 544 3141 544 3541 
Q 544 4100 942 4425 
Q 1341 4750 2034 4750 
Q 2731 4750 3128 4425 
Q 3525 4100 3525 3541 
Q 3525 3141 3298 2862 
Q 3072 2584 2669 2484 
Q 3125 2378 3379 2068 
Q 3634 1759 3634 1313 
Q 3634 634 3220 271 
Q 2806 -91 2034 -91 
Q 1263 -91 848 271 
Q 434 634 434 1313 
Q 434 1759 690 2068 
Q 947 2378 1403 2484 
z
M 1172 3481 
Q 1172 3119 1398 2916 
Q 1625 2713 2034 2713 
Q 2441 2713 2670 2916 
Q 2900 3119 2900 3481 
Q 2900 3844 2670 4047 
Q 2441 4250 2034 4250 
Q 1625 4250 1398 4047 
Q 1172 3844 1172 3481 
z
" id="DejaVuSans-38" transform="scale(0.015625)"/>
      <path d="M 2597 2516 
Q 3050 2419 3304 2112 
Q 3559 1806 3559 1356 
Q 3559 666 3084 287 
Q 2609 -91 1734 -91 
Q 1441 -91 1130 -33 
Q 819 25 488 141 
L 488 750 
Q 750 597 1062 519 
Q 1375 441 1716 441 
Q 2309 441 2620 675 
Q 2931 909 2931 1356 
Q 2931 1769 2642 2001 
Q 2353 2234 1838 2234 
L 1294 2234 
L 1294 2753 
L 1863 2753 
Q 2328 2753 2575 2939 
Q 2822 3125 2822 3475 
Q 2822 3834 2567 4026 
Q 2313 4219 1838 4219 
Q 1578 4219 1281 4162 
Q 984 4106 628 3988 
L 628 4550 
Q 988 4650 1302 4700 
Q 1616 4750 1894 4750 
Q 2613 4750 3031 4423 
Q 3450 4097 3450 3541 
Q 3450 3153 3228 2886 
Q 3006 2619 2597 2516 
z
" id="DejaVuSans-33" transform="scale(0.015625)"/>
     </defs>
     <use xlink:href="#DejaVuSans-4e"/>
     <use x="74.804688" xlink:href="#DejaVuSans-6f"/>
     <use x="135.986328" xlink:href="#DejaVuSans-76"/>
     <use x="195.166016" xlink:href="#DejaVuSans-61"/>
     <use x="256.445312" xlink:href="#DejaVuSans-20"/>
     <use x="288.232422" xlink:href="#DejaVuSans-38"/>
     <use x="351.855469" xlink:href="#DejaVuSans-2e"/>
     <use x="383.642578" xlink:href="#DejaVuSans-33"/>
     <use x="447.265625" xlink:href="#DejaVuSans-b0"/>
    </g>
   </g>
   <g id="text_10">
    <g id="patch_11">
     <path d="M 48.141324 138.232521 
L 60.468289 122.024805 
L 58.895796 120.828828 
L 46.568831 137.036544 
z
" style="fill:#ffffff;"/>
    </g>
    <!-- East Side Park 10.7° -->
    <g style="fill:#008000;" transform="translate(47.806448 137.9527)rotate(-52.744778)scale(0.02 -0.02)">
     <defs>
      <path d="M 794 531 
L 1825 531 
L 1825 4091 
L 703 3866 
L 703 4441 
L 1819 4666 
L 2450 4666 
L 2450 531 
L 3481 531 
L 3481 0 
L 794 0 
L 794 531 
z
" id="DejaVuSans-31" transform="scale(0.015625)"/>
     </defs>
     <use xlink:href="#DejaVuSans-45"/>
     <use x="63.183594" xlink:href="#DejaVuSans-61"/>
     <use x="124.462891" xlink:href="#DejaVuSans-73"/>
     <use x="176.5625" xlink:href="#DejaVuSans-74"/>
     <use x="215.771484" xlink:href="#DejaVuSans-20"/>
     <use x="247.558594" xlink:href="#DejaVuSans-53"/>
     <use x="311.035156" xlink:href="#DejaVuSans-69"/>
     <use x="338.818359" xlink:href="#DejaVuSans-64"/>
     <use x="402.294922" xlink:href="#DejaVuSans-65"/>
     <use x="463.818359" xlink:href="#DejaVuSans-20"/>
     <use x="495.605469" xlink:href="#DejaVuSans-50"/>
     <use x="551.408203" xlink:href="#DejaVuSans-61"/>
     <use x="612.6875" xlink:href="#DejaVuSans-72"/>
     <use x="653.800781" xlink:href="#DejaVuSans-6b"/>
     <use x="711.710938" xlink:href="#DejaVuSans-20"/>
     <use x="743.498047" xlink:href="#DejaVuSans-31"/>
     <use x="807.121094" xlink:href="#DejaVuSans-30"/>
     <use x="870.744141" xlink:href="#DejaVuSans-2e"/>
     <use x="902.53125" xlink:href="#DejaVuSans-37"/>
     <use x="966.154297" xlink:href="#DejaVuSans-b0"/>
    </g>
   </g>
   <g id="text_11">
    <g id="patch_12">
     <path d="M 63.808914 127.372398 
L 75.444249 113.396542 
L 73.925933 112.132497 
L 62.290598 126.108353 
z
" style="fill:#ffffff;"/>
    </g>
    <!-- Vertigo Park 19.0° -->
    <g style="fill:#4169e1;" transform="translate(63.486681 127.078106)rotate(-50.221564)scale(0.02 -0.02)">
     <defs>
      <path d="M 1831 0 
L 50 4666 
L 709 4666 
L 2188 738 
L 3669 4666 
L 4325 4666 
L 2547 0 
L 1831 0 
z
" id="DejaVuSans-56" transform="scale(0.015625)"/>
      <path d="M 2906 1791 
Q 2906 2416 2648 2759 
Q 2391 3103 1925 3103 
Q 1463 3103 1205 2759 
Q 947 2416 947 1791 
Q 947 1169 1205 825 
Q 1463 481 1925 481 
Q 2391 481 2648 825 
Q 2906 1169 2906 1791 
z
M 3481 434 
Q 3481 -459 3084 -895 
Q 2688 -1331 1869 -1331 
Q 1566 -1331 1297 -1286 
Q 1028 -1241 775 -1147 
L 775 -588 
Q 1028 -725 1275 -790 
Q 1522 -856 1778 -856 
Q 2344 -856 2625 -561 
Q 2906 -266 2906 331 
L 2906 616 
Q 2728 306 2450 153 
Q 2172 0 1784 0 
Q 1141 0 747 490 
Q 353 981 353 1791 
Q 353 2603 747 3093 
Q 1141 3584 1784 3584 
Q 2172 3584 2450 3431 
Q 2728 3278 2906 2969 
L 2906 3500 
L 3481 3500 
L 3481 434 
z
" id="DejaVuSans-67" transform="scale(0.015625)"/>
     </defs>
     <use xlink:href="#DejaVuSans-56"/>
     <use x="60.658203" xlink:href="#DejaVuSans-65"/>
     <use x="122.181641" xlink:href="#DejaVuSans-72"/>
     <use x="163.294922" xlink:href="#DejaVuSans-74"/>
     <use x="202.503906" xlink:href="#DejaVuSans-69"/>
     <use x="230.287109" xlink:href="#DejaVuSans-67"/>
     <use x="293.763672" xlink:href="#DejaVuSans-6f"/>
     <use x="354.945312" xlink:href="#DejaVuSans-20"/>
     <use x="386.732422" xlink:href="#DejaVuSans-50"/>
     <use x="442.535156" xlink:href="#DejaVuSans-61"/>
     <use x="503.814453" xlink:href="#DejaVuSans-72"/>
     <use x="544.927734" xlink:href="#DejaVuSans-6b"/>
     <use x="602.837891" xlink:href="#DejaVuSans-20"/>
     <use x="634.625" xlink:href="#DejaVuSans-31"/>
     <use x="698.248047" xlink:href="#DejaVuSans-39"/>
     <use x="761.871094" xlink:href="#DejaVuSans-2e"/>
     <use x="793.658203" xlink:href="#DejaVuSans-30"/>
     <use x="857.28125" xlink:href="#DejaVuSans-b0"/>
    </g>
   </g>
   <g id="text_12">
    <g id="patch_13">
     <path d="M 132.213184 89.040392 
L 142.149208 103.123793 
L 143.763511 101.984881 
L 133.827487 87.90148 
z
" style="fill:#ffffff;"/>
    </g>
    <!-- Sidewinder 17.6° -->
    <g style="fill:#4169e1;" transform="translate(132.580923 88.805424)rotate(-305.20347)scale(0.02 -0.02)">
     <use xlink:href="#DejaVuSans-53"/>
     <use x="63.476562" xlink:href="#DejaVuSans-69"/>
     <use x="91.259766" xlink:href="#DejaVuSans-64"/>
     <use x="154.736328" xlink:href="#DejaVuSans-65"/>
     <use x="216.259766" xlink:href="#DejaVuSans-77"/>
     <use x="298.046875" xlink:href="#DejaVuSans-69"/>
     <use x="325.830078" xlink:href="#DejaVuSans-6e"/>
     <use x="389.208984" xlink:href="#DejaVuSans-64"/>
     <use x="452.685547" xlink:href="#DejaVuSans-65"/>
     <use x="514.208984" xlink:href="#DejaVuSans-72"/>
     <use x="555.322266" xlink:href="#DejaVuSans-20"/>
     <use x="587.109375" xlink:href="#DejaVuSans-31"/>
     <use x="650.732422" xlink:href="#DejaVuSans-37"/>
     <use x="714.355469" xlink:href="#DejaVuSans-2e"/>
     <use x="746.142578" xlink:href="#DejaVuSans-36"/>
     <use x="809.765625" xlink:href="#DejaVuSans-b0"/>
    </g>
   </g>
   <g id="text_13">
    <g id="patch_14">
     <path d="M 126.426066 56.846188 
L 128.716638 75.573816 
L 130.67765 75.333965 
L 128.387078 56.606337 
z
" style="fill:#ffffff;"/>
    </g>
    <!-- Lower Strata 21.1° -->
    <g style="fill:#4169e1;" transform="translate(126.861207 56.813115)rotate(-276.973199)scale(0.02 -0.02)">
     <defs>
      <path d="M 1228 531 
L 3431 531 
L 3431 0 
L 469 0 
L 469 531 
Q 828 903 1448 1529 
Q 2069 2156 2228 2338 
Q 2531 2678 2651 2914 
Q 2772 3150 2772 3378 
Q 2772 3750 2511 3984 
Q 2250 4219 1831 4219 
Q 1534 4219 1204 4116 
Q 875 4013 500 3803 
L 500 4441 
Q 881 4594 1212 4672 
Q 1544 4750 1819 4750 
Q 2544 4750 2975 4387 
Q 3406 4025 3406 3419 
Q 3406 3131 3298 2873 
Q 3191 2616 2906 2266 
Q 2828 2175 2409 1742 
Q 1991 1309 1228 531 
z
" id="DejaVuSans-32" transform="scale(0.015625)"/>
     </defs>
     <use xlink:href="#DejaVuSans-4c"/>
     <use x="53.962891" xlink:href="#DejaVuSans-6f"/>
     <use x="115.144531" xlink:href="#DejaVuSans-77"/>
     <use x="196.931641" xlink:href="#DejaVuSans-65"/>
     <use x="258.455078" xlink:href="#DejaVuSans-72"/>
     <use x="299.568359" xlink:href="#DejaVuSans-20"/>
     <use x="331.355469" xlink:href="#DejaVuSans-53"/>
     <use x="394.832031" xlink:href="#DejaVuSans-74"/>
     <use x="434.041016" xlink:href="#DejaVuSans-72"/>
     <use x="475.154297" xlink:href="#DejaVuSans-61"/>
     <use x="536.433594" xlink:href="#DejaVuSans-74"/>
     <use x="575.642578" xlink:href="#DejaVuSans-61"/>
     <use x="636.921875" xlink:href="#DejaVuSans-20"/>
     <use x="668.708984" xlink:href="#DejaVuSans-32"/>
     <use x="732.332031" xlink:href="#DejaVuSans-31"/>
     <use x="795.955078" xlink:href="#DejaVuSans-2e"/>
     <use x="827.742188" xlink:href="#DejaVuSans-31"/>
     <use x="891.365234" xlink:href="#DejaVuSans-b0"/>
    </g>
   </g>
   <g id="text_14">
    <g id="patch_15">
     <path d="M 116.232182 39.27873 
L 116.761047 61.072001 
L 118.736091 61.024072 
L 118.207226 39.2308 
z
" style="fill:#ffffff;"/>
    </g>
    <!-- Lower Eastwind 19.0° -->
    <g style="fill:#4169e1;" transform="translate(116.668477 39.288148)rotate(-271.390145)scale(0.02 -0.02)">
     <use xlink:href="#DejaVuSans-4c"/>
     <use x="53.962891" xlink:href="#DejaVuSans-6f"/>
     <use x="115.144531" xlink:href="#DejaVuSans-77"/>
     <use x="196.931641" xlink:href="#DejaVuSans-65"/>
     <use x="258.455078" xlink:href="#DejaVuSans-72"/>
     <use x="299.568359" xlink:href="#DejaVuSans-20"/>
     <use x="331.355469" xlink:href="#DejaVuSans-45"/>
     <use x="394.539062" xlink:href="#DejaVuSans-61"/>
     <use x="455.818359" xlink:href="#DejaVuSans-73"/>
     <use x="507.917969" xlink:href="#DejaVuSans-74"/>
     <use x="547.126953" xlink:href="#DejaVuSans-77"/>
     <use x="628.914062" xlink:href="#DejaVuSans-69"/>
     <use x="656.697266" xlink:href="#DejaVuSans-6e"/>
     <use x="720.076172" xlink:href="#DejaVuSans-64"/>
     <use x="783.552734" xlink:href="#DejaVuSans-20"/>
     <use x="815.339844" xlink:href="#DejaVuSans-31"/>
     <use x="878.962891" xlink:href="#DejaVuSans-39"/>
     <use x="942.585938" xlink:href="#DejaVuSans-2e"/>
     <use x="974.373047" xlink:href="#DejaVuSans-30"/>
     <use x="1037.996094" xlink:href="#DejaVuSans-b0"/>
    </g>
   </g>
   <g id="text_15">
    <g id="patch_16">
     <path d="M 108.249106 40.274999 
L 109.879343 57.806553 
L 111.846481 57.623631 
L 110.216244 40.092077 
z
" style="fill:#ffffff;"/>
    </g>
    <!-- Lower Ultra 18.9° -->
    <g style="fill:#4169e1;" transform="translate(108.685023 40.25455)rotate(-275.312584)scale(0.02 -0.02)">
     <defs>
      <path d="M 556 4666 
L 1191 4666 
L 1191 1831 
Q 1191 1081 1462 751 
Q 1734 422 2344 422 
Q 2950 422 3222 751 
Q 3494 1081 3494 1831 
L 3494 4666 
L 4128 4666 
L 4128 1753 
Q 4128 841 3676 375 
Q 3225 -91 2344 -91 
Q 1459 -91 1007 375 
Q 556 841 556 1753 
L 556 4666 
z
" id="DejaVuSans-55" transform="scale(0.015625)"/>
     </defs>
     <use xlink:href="#DejaVuSans-4c"/>
     <use x="53.962891" xlink:href="#DejaVuSans-6f"/>
     <use x="115.144531" xlink:href="#DejaVuSans-77"/>
     <use x="196.931641" xlink:href="#DejaVuSans-65"/>
     <use x="258.455078" xlink:href="#DejaVuSans-72"/>
     <use x="299.568359" xlink:href="#DejaVuSans-20"/>
     <use x="331.355469" xlink:href="#DejaVuSans-55"/>
     <use x="404.548828" xlink:href="#DejaVuSans-6c"/>
     <use x="432.332031" xlink:href="#DejaVuSans-74"/>
     <use x="471.541016" xlink:href="#DejaVuSans-72"/>
     <use x="512.654297" xlink:href="#DejaVuSans-61"/>
     <use x="573.933594" xlink:href="#DejaVuSans-20"/>
     <use x="605.720703" xlink:href="#DejaVuSans-31"/>
     <use x="669.34375" xlink:href="#DejaVuSans-38"/>
     <use x="732.966797" xlink:href="#DejaVuSans-2e"/>
     <use x="764.753906" xlink:href="#DejaVuSans-39"/>
     <use x="828.376953" xlink:href="#DejaVuSans-b0"/>
    </g>
   </g>
   <g id="text_16">
    <g id="patch_17">
     <path d="M 98.36862 64.155263 
L 100.554014 42.125897 
L 98.588039 41.930865 
L 96.402645 63.960231 
z
" style="fill:#ffffff;"/>
    </g>
    <!-- Lower Heavenly 17.4° -->
    <g style="fill:#4169e1;" transform="translate(97.936786 64.092325)rotate(-84.334586)scale(0.02 -0.02)">
     <defs>
      <path d="M 628 4666 
L 1259 4666 
L 1259 2753 
L 3553 2753 
L 3553 4666 
L 4184 4666 
L 4184 0 
L 3553 0 
L 3553 2222 
L 1259 2222 
L 1259 0 
L 628 0 
L 628 4666 
z
" id="DejaVuSans-48" transform="scale(0.015625)"/>
      <path d="M 2419 4116 
L 825 1625 
L 2419 1625 
L 2419 4116 
z
M 2253 4666 
L 3047 4666 
L 3047 1625 
L 3713 1625 
L 3713 1100 
L 3047 1100 
L 3047 0 
L 2419 0 
L 2419 1100 
L 313 1100 
L 313 1709 
L 2253 4666 
z
" id="DejaVuSans-34" transform="scale(0.015625)"/>
     </defs>
     <use xlink:href="#DejaVuSans-4c"/>
     <use x="53.962891" xlink:href="#DejaVuSans-6f"/>
     <use x="115.144531" xlink:href="#DejaVuSans-77"/>
     <use x="196.931641" xlink:href="#DejaVuSans-65"/>
     <use x="258.455078" xlink:href="#DejaVuSans-72"/>
     <use x="299.568359" xlink:href="#DejaVuSans-20"/>
     <use x="331.355469" xlink:href="#DejaVuSans-48"/>
     <use x="406.550781" xlink:href="#DejaVuSans-65"/>
     <use x="468.074219" xlink:href="#DejaVuSans-61"/>
     <use x="529.353516" xlink:href="#DejaVuSans-76"/>
     <use x="588.533203" xlink:href="#DejaVuSans-65"/>
     <use x="650.056641" xlink:href="#DejaVuSans-6e"/>
     <use x="713.435547" xlink:href="#DejaVuSans-6c"/>
     <use x="741.21875" xlink:href="#DejaVuSans-79"/>
     <use x="800.398438" xlink:href="#DejaVuSans-20"/>
     <use x="832.185547" xlink:href="#DejaVuSans-31"/>
     <use x="895.808594" xlink:href="#DejaVuSans-37"/>
     <use x="959.431641" xlink:href="#DejaVuSans-2e"/>
     <use x="991.21875" xlink:href="#DejaVuSans-34"/>
     <use x="1054.841797" xlink:href="#DejaVuSans-b0"/>
    </g>
   </g>
   <g id="text_17">
    <g id="patch_18">
     <path d="M 58.370815 53.213493 
L 76.995652 58.638154 
L 77.548115 56.741346 
L 58.923278 51.316686 
z
" style="fill:#ffffff;"/>
    </g>
    <!-- Dipsy Doodle 13.2° -->
    <g style="fill:#008000;" transform="translate(58.511923 52.80054)rotate(-343.761298)scale(0.02 -0.02)">
     <use xlink:href="#DejaVuSans-44"/>
     <use x="77.001953" xlink:href="#DejaVuSans-69"/>
     <use x="104.785156" xlink:href="#DejaVuSans-70"/>
     <use x="168.261719" xlink:href="#DejaVuSans-73"/>
     <use x="220.361328" xlink:href="#DejaVuSans-79"/>
     <use x="279.541016" xlink:href="#DejaVuSans-20"/>
     <use x="311.328125" xlink:href="#DejaVuSans-44"/>
     <use x="388.330078" xlink:href="#DejaVuSans-6f"/>
     <use x="449.511719" xlink:href="#DejaVuSans-6f"/>
     <use x="510.693359" xlink:href="#DejaVuSans-64"/>
     <use x="574.169922" xlink:href="#DejaVuSans-6c"/>
     <use x="601.953125" xlink:href="#DejaVuSans-65"/>
     <use x="663.476562" xlink:href="#DejaVuSans-20"/>
     <use x="695.263672" xlink:href="#DejaVuSans-31"/>
     <use x="758.886719" xlink:href="#DejaVuSans-33"/>
     <use x="822.509766" xlink:href="#DejaVuSans-2e"/>
     <use x="854.296875" xlink:href="#DejaVuSans-32"/>
     <use x="917.919922" xlink:href="#DejaVuSans-b0"/>
    </g>
   </g>
   <g id="text_18">
    <g id="patch_19">
     <path d="M 65.725434 106.320747 
L 71.235992 85.093089 
L 69.323748 84.596683 
L 63.813191 105.824342 
z
" style="fill:#ffffff;"/>
    </g>
    <!-- White Lightning 23.0° -->
    <g style="fill:#4169e1;" transform="translate(65.308508 106.191853)rotate(-75.447614)scale(0.02 -0.02)">
     <defs>
      <path d="M 213 4666 
L 850 4666 
L 1831 722 
L 2809 4666 
L 3519 4666 
L 4500 722 
L 5478 4666 
L 6119 4666 
L 4947 0 
L 4153 0 
L 3169 4050 
L 2175 0 
L 1381 0 
L 213 4666 
z
" id="DejaVuSans-57" transform="scale(0.015625)"/>
      <path d="M 3513 2113 
L 3513 0 
L 2938 0 
L 2938 2094 
Q 2938 2591 2744 2837 
Q 2550 3084 2163 3084 
Q 1697 3084 1428 2787 
Q 1159 2491 1159 1978 
L 1159 0 
L 581 0 
L 581 4863 
L 1159 4863 
L 1159 2956 
Q 1366 3272 1645 3428 
Q 1925 3584 2291 3584 
Q 2894 3584 3203 3211 
Q 3513 2838 3513 2113 
z
" id="DejaVuSans-68" transform="scale(0.015625)"/>
     </defs>
     <use xlink:href="#DejaVuSans-57"/>
     <use x="98.876953" xlink:href="#DejaVuSans-68"/>
     <use x="162.255859" xlink:href="#DejaVuSans-69"/>
     <use x="190.039062" xlink:href="#DejaVuSans-74"/>
     <use x="229.248047" xlink:href="#DejaVuSans-65"/>
     <use x="290.771484" xlink:href="#DejaVuSans-20"/>
     <use x="322.558594" xlink:href="#DejaVuSans-4c"/>
     <use x="378.271484" xlink:href="#DejaVuSans-69"/>
     <use x="406.054688" xlink:href="#DejaVuSans-67"/>
     <use x="469.53125" xlink:href="#DejaVuSans-68"/>
     <use x="532.910156" xlink:href="#DejaVuSans-74"/>
     <use x="572.119141" xlink:href="#DejaVuSans-6e"/>
     <use x="635.498047" xlink:href="#DejaVuSans-69"/>
     <use x="663.28125" xlink:href="#DejaVuSans-6e"/>
     <use x="726.660156" xlink:href="#DejaVuSans-67"/>
     <use x="790.136719" xlink:href="#DejaVuSans-20"/>
     <use x="821.923828" xlink:href="#DejaVuSans-32"/>
     <use x="885.546875" xlink:href="#DejaVuSans-33"/>
     <use x="949.169922" xlink:href="#DejaVuSans-2e"/>
     <use x="980.957031" xlink:href="#DejaVuSans-30"/>
     <use x="1044.580078" xlink:href="#DejaVuSans-b0"/>
    </g>
   </g>
   <g id="text_19">
    <g id="patch_20">
     <path d="M 55.903104 98.384563 
L 68.356685 77.486707 
L 66.659558 76.475345 
L 54.205977 97.3732 
z
" style="fill:#ffffff;"/>
    </g>
    <!-- Upper Blue Streak 21.4° -->
    <g style="fill:#4169e1;" transform="translate(55.538858 98.144217)rotate(-59.208175)scale(0.02 -0.02)">
     <use xlink:href="#DejaVuSans-55"/>
     <use x="73.193359" xlink:href="#DejaVuSans-70"/>
     <use x="136.669922" xlink:href="#DejaVuSans-70"/>
     <use x="200.146484" xlink:href="#DejaVuSans-65"/>
     <use x="261.669922" xlink:href="#DejaVuSans-72"/>
     <use x="302.783203" xlink:href="#DejaVuSans-20"/>
     <use x="334.570312" xlink:href="#DejaVuSans-42"/>
     <use x="403.173828" xlink:href="#DejaVuSans-6c"/>
     <use x="430.957031" xlink:href="#DejaVuSans-75"/>
     <use x="494.335938" xlink:href="#DejaVuSans-65"/>
     <use x="555.859375" xlink:href="#DejaVuSans-20"/>
     <use x="587.646484" xlink:href="#DejaVuSans-53"/>
     <use x="651.123047" xlink:href="#DejaVuSans-74"/>
     <use x="690.332031" xlink:href="#DejaVuSans-72"/>
     <use x="729.195312" xlink:href="#DejaVuSans-65"/>
     <use x="790.71875" xlink:href="#DejaVuSans-61"/>
     <use x="851.998047" xlink:href="#DejaVuSans-6b"/>
     <use x="909.908203" xlink:href="#DejaVuSans-20"/>
     <use x="941.695312" xlink:href="#DejaVuSans-32"/>
     <use x="1005.318359" xlink:href="#DejaVuSans-31"/>
     <use x="1068.941406" xlink:href="#DejaVuSans-2e"/>
     <use x="1100.728516" xlink:href="#DejaVuSans-34"/>
     <use x="1164.351562" xlink:href="#DejaVuSans-b0"/>
    </g>
   </g>
   <g id="text_20">
    <g id="patch_21">
     <path d="M 84.403777 44.60145 
L 90.419547 64.59803 
L 92.311415 64.02888 
L 86.295645 44.0323 
z
" style="fill:#ffffff;"/>
    </g>
    <!-- Whitney's Way 15.7° -->
    <g style="fill:#008000;" transform="translate(84.826995 44.495015)rotate(-286.743387)scale(0.02 -0.02)">
     <defs>
      <path d="M 1147 4666 
L 1147 2931 
L 616 2931 
L 616 4666 
L 1147 4666 
z
" id="DejaVuSans-27" transform="scale(0.015625)"/>
      <path d="M 691 4666 
L 3169 4666 
L 3169 4134 
L 1269 4134 
L 1269 2991 
Q 1406 3038 1543 3061 
Q 1681 3084 1819 3084 
Q 2600 3084 3056 2656 
Q 3513 2228 3513 1497 
Q 3513 744 3044 326 
Q 2575 -91 1722 -91 
Q 1428 -91 1123 -41 
Q 819 9 494 109 
L 494 744 
Q 775 591 1075 516 
Q 1375 441 1709 441 
Q 2250 441 2565 725 
Q 2881 1009 2881 1497 
Q 2881 1984 2565 2268 
Q 2250 2553 1709 2553 
Q 1456 2553 1204 2497 
Q 953 2441 691 2322 
L 691 4666 
z
" id="DejaVuSans-35" transform="scale(0.015625)"/>
     </defs>
     <use xlink:href="#DejaVuSans-57"/>
     <use x="98.876953" xlink:href="#DejaVuSans-68"/>
     <use x="162.255859" xlink:href="#DejaVuSans-69"/>
     <use x="190.039062" xlink:href="#DejaVuSans-74"/>
     <use x="229.248047" xlink:href="#DejaVuSans-6e"/>
     <use x="292.626953" xlink:href="#DejaVuSans-65"/>
     <use x="354.150391" xlink:href="#DejaVuSans-79"/>
     <use x="413.330078" xlink:href="#DejaVuSans-27"/>
     <use x="440.820312" xlink:href="#DejaVuSans-73"/>
     <use x="492.919922" xlink:href="#DejaVuSans-20"/>
     <use x="524.707031" xlink:href="#DejaVuSans-57"/>
     <use x="617.208984" xlink:href="#DejaVuSans-61"/>
     <use x="678.488281" xlink:href="#DejaVuSans-79"/>
     <use x="737.667969" xlink:href="#DejaVuSans-20"/>
     <use x="769.455078" xlink:href="#DejaVuSans-31"/>
     <use x="833.078125" xlink:href="#DejaVuSans-35"/>
     <use x="896.701172" xlink:href="#DejaVuSans-2e"/>
     <use x="928.488281" xlink:href="#DejaVuSans-37"/>
     <use x="992.111328" xlink:href="#DejaVuSans-b0"/>
    </g>
   </g>
   <g id="text_21">
    <g id="patch_22">
     <path d="M 23.669019 137.599885 
L 27.64374 117.795114 
L 25.70674 117.406367 
L 21.732019 137.211139 
z
" style="fill:#ffffff;"/>
    </g>
    <!-- First Class Area 5.9° -->
    <g style="fill:#008000;" transform="translate(23.24554 137.494496)rotate(-78.651778)scale(0.02 -0.02)">
     <use xlink:href="#DejaVuSans-46"/>
     <use x="50.269531" xlink:href="#DejaVuSans-69"/>
     <use x="78.052734" xlink:href="#DejaVuSans-72"/>
     <use x="119.166016" xlink:href="#DejaVuSans-73"/>
     <use x="171.265625" xlink:href="#DejaVuSans-74"/>
     <use x="210.474609" xlink:href="#DejaVuSans-20"/>
     <use x="242.261719" xlink:href="#DejaVuSans-43"/>
     <use x="312.085938" xlink:href="#DejaVuSans-6c"/>
     <use x="339.869141" xlink:href="#DejaVuSans-61"/>
     <use x="401.148438" xlink:href="#DejaVuSans-73"/>
     <use x="453.248047" xlink:href="#DejaVuSans-73"/>
     <use x="505.347656" xlink:href="#DejaVuSans-20"/>
     <use x="537.134766" xlink:href="#DejaVuSans-41"/>
     <use x="605.542969" xlink:href="#DejaVuSans-72"/>
     <use x="644.40625" xlink:href="#DejaVuSans-65"/>
     <use x="705.929688" xlink:href="#DejaVuSans-61"/>
     <use x="767.208984" xlink:href="#DejaVuSans-20"/>
     <use x="798.996094" xlink:href="#DejaVuSans-35"/>
     <use x="862.619141" xlink:href="#DejaVuSans-2e"/>
     <use x="894.40625" xlink:href="#DejaVuSans-39"/>
     <use x="958.029297" xlink:href="#DejaVuSans-b0"/>
    </g>
   </g>
   <g id="text_22">
    <!-- Liberty Mountain -->
    <g transform="translate(30.693896 10.655678)scale(0.1 -0.1)">
     <defs>
      <path d="M 3116 1747 
Q 3116 2381 2855 2742 
Q 2594 3103 2138 3103 
Q 1681 3103 1420 2742 
Q 1159 2381 1159 1747 
Q 1159 1113 1420 752 
Q 1681 391 2138 391 
Q 2594 391 2855 752 
Q 3116 1113 3116 1747 
z
M 1159 2969 
Q 1341 3281 1617 3432 
Q 1894 3584 2278 3584 
Q 2916 3584 3314 3078 
Q 3713 2572 3713 1747 
Q 3713 922 3314 415 
Q 2916 -91 2278 -91 
Q 1894 -91 1617 61 
Q 1341 213 1159 525 
L 1159 0 
L 581 0 
L 581 4863 
L 1159 4863 
L 1159 2969 
z
" id="DejaVuSans-62" transform="scale(0.015625)"/>
      <path d="M 628 4666 
L 1569 4666 
L 2759 1491 
L 3956 4666 
L 4897 4666 
L 4897 0 
L 4281 0 
L 4281 4097 
L 3078 897 
L 2444 897 
L 1241 4097 
L 1241 0 
L 628 0 
L 628 4666 
z
" id="DejaVuSans-4d" transform="scale(0.015625)"/>
     </defs>
     <use xlink:href="#DejaVuSans-4c"/>
     <use x="55.712891" xlink:href="#DejaVuSans-69"/>
     <use x="83.496094" xlink:href="#DejaVuSans-62"/>
     <use x="146.972656" xlink:href="#DejaVuSans-65"/>
     <use x="208.496094" xlink:href="#DejaVuSans-72"/>
     <use x="249.609375" xlink:href="#DejaVuSans-74"/>
     <use x="288.818359" xlink:href="#DejaVuSans-79"/>
     <use x="347.998047" xlink:href="#DejaVuSans-20"/>
     <use x="379.785156" xlink:href="#DejaVuSans-4d"/>
     <use x="466.064453" xlink:href="#DejaVuSans-6f"/>
     <use x="527.246094" xlink:href="#DejaVuSans-75"/>
     <use x="590.625" xlink:href="#DejaVuSans-6e"/>
     <use x="654.003906" xlink:href="#DejaVuSans-74"/>
     <use x="693.212891" xlink:href="#DejaVuSans-61"/>
     <use x="754.492188" xlink:href="#DejaVuSans-69"/>
     <use x="782.275391" xlink:href="#DejaVuSans-6e"/>
    </g>
   </g>
   <g id="legend_1">
    <g id="line2d_39">
     <path d="M 2.974755 162.178597 
L 12.974755 162.178597 
" style="fill:none;stroke:#008000;stroke-linecap:square;stroke-width:1.5;"/>
    </g>
    <g id="line2d_40"/>
    <g id="text_23">
     <!-- Easy -->
     <g transform="translate(16.974755 163.928597)scale(0.05 -0.05)">
      <use xlink:href="#DejaVuSans-45"/>
      <use x="63.183594" xlink:href="#DejaVuSans-61"/>
      <use x="124.462891" xlink:href="#DejaVuSans-73"/>
      <use x="176.5625" xlink:href="#DejaVuSans-79"/>
     </g>
    </g>
    <g id="line2d_41">
     <path d="M 2.974755 169.517659 
L 12.974755 169.517659 
" style="fill:none;stroke:#4169e1;stroke-linecap:square;stroke-width:1.5;"/>
    </g>
    <g id="line2d_42"/>
    <g id="text_24">
     <!-- Intermediate -->
     <g transform="translate(16.974755 171.267659)scale(0.05 -0.05)">
      <defs>
       <path d="M 628 4666 
L 1259 4666 
L 1259 0 
L 628 0 
L 628 4666 
z
" id="DejaVuSans-49" transform="scale(0.015625)"/>
       <path d="M 3328 2828 
Q 3544 3216 3844 3400 
Q 4144 3584 4550 3584 
Q 5097 3584 5394 3201 
Q 5691 2819 5691 2113 
L 5691 0 
L 5113 0 
L 5113 2094 
Q 5113 2597 4934 2840 
Q 4756 3084 4391 3084 
Q 3944 3084 3684 2787 
Q 3425 2491 3425 1978 
L 3425 0 
L 2847 0 
L 2847 2094 
Q 2847 2600 2669 2842 
Q 2491 3084 2119 3084 
Q 1678 3084 1418 2786 
Q 1159 2488 1159 1978 
L 1159 0 
L 581 0 
L 581 3500 
L 1159 3500 
L 1159 2956 
Q 1356 3278 1631 3431 
Q 1906 3584 2284 3584 
Q 2666 3584 2933 3390 
Q 3200 3197 3328 2828 
z
" id="DejaVuSans-6d" transform="scale(0.015625)"/>
      </defs>
      <use xlink:href="#DejaVuSans-49"/>
      <use x="29.492188" xlink:href="#DejaVuSans-6e"/>
      <use x="92.871094" xlink:href="#DejaVuSans-74"/>
      <use x="132.080078" xlink:href="#DejaVuSans-65"/>
      <use x="193.603516" xlink:href="#DejaVuSans-72"/>
      <use x="232.966797" xlink:href="#DejaVuSans-6d"/>
      <use x="330.378906" xlink:href="#DejaVuSans-65"/>
      <use x="391.902344" xlink:href="#DejaVuSans-64"/>
      <use x="455.378906" xlink:href="#DejaVuSans-69"/>
      <use x="483.162109" xlink:href="#DejaVuSans-61"/>
      <use x="544.441406" xlink:href="#DejaVuSans-74"/>
      <use x="583.650391" xlink:href="#DejaVuSans-65"/>
     </g>
    </g>
    <g id="line2d_43">
     <path d="M 59.23413 162.178597 
L 69.23413 162.178597 
" style="fill:none;stroke:#000000;stroke-linecap:square;stroke-width:1.5;"/>
    </g>
    <g id="line2d_44"/>
    <g id="text_25">
     <!-- Advanced -->
     <g transform="translate(73.23413 163.928597)scale(0.05 -0.05)">
      <defs>
       <path d="M 3122 3366 
L 3122 2828 
Q 2878 2963 2633 3030 
Q 2388 3097 2138 3097 
Q 1578 3097 1268 2742 
Q 959 2388 959 1747 
Q 959 1106 1268 751 
Q 1578 397 2138 397 
Q 2388 397 2633 464 
Q 2878 531 3122 666 
L 3122 134 
Q 2881 22 2623 -34 
Q 2366 -91 2075 -91 
Q 1284 -91 818 406 
Q 353 903 353 1747 
Q 353 2603 823 3093 
Q 1294 3584 2113 3584 
Q 2378 3584 2631 3529 
Q 2884 3475 3122 3366 
z
" id="DejaVuSans-63" transform="scale(0.015625)"/>
      </defs>
      <use xlink:href="#DejaVuSans-41"/>
      <use x="66.658203" xlink:href="#DejaVuSans-64"/>
      <use x="130.134766" xlink:href="#DejaVuSans-76"/>
      <use x="189.314453" xlink:href="#DejaVuSans-61"/>
      <use x="250.59375" xlink:href="#DejaVuSans-6e"/>
      <use x="313.972656" xlink:href="#DejaVuSans-63"/>
      <use x="368.953125" xlink:href="#DejaVuSans-65"/>
      <use x="430.476562" xlink:href="#DejaVuSans-64"/>
     </g>
    </g>
    <g id="line2d_45">
     <path d="M 59.23413 169.517659 
L 69.23413 169.517659 
" style="fill:none;stroke:#ff0000;stroke-linecap:square;stroke-width:1.5;"/>
    </g>
    <g id="line2d_46"/>
    <g id="text_26">
     <!-- Expert -->
     <g transform="translate(73.23413 171.267659)scale(0.05 -0.05)">
      <defs>
       <path d="M 3513 3500 
L 2247 1797 
L 3578 0 
L 2900 0 
L 1881 1375 
L 863 0 
L 184 0 
L 1544 1831 
L 300 3500 
L 978 3500 
L 1906 2253 
L 2834 3500 
L 3513 3500 
z
" id="DejaVuSans-78" transform="scale(0.015625)"/>
      </defs>
      <use xlink:href="#DejaVuSans-45"/>
      <use x="63.183594" xlink:href="#DejaVuSans-78"/>
      <use x="122.363281" xlink:href="#DejaVuSans-70"/>
      <use x="185.839844" xlink:href="#DejaVuSans-65"/>
      <use x="247.363281" xlink:href="#DejaVuSans-72"/>
      <use x="288.476562" xlink:href="#DejaVuSans-74"/>
     </g>
    </g>
    <g id="line2d_47">
     <path d="M 107.933349 162.178597 
L 117.933349 162.178597 
" style="fill:none;stroke:#ffd700;stroke-linecap:square;stroke-width:1.5;"/>
    </g>
    <g id="line2d_48"/>
    <g id="text_27">
     <!-- Extreme -->
     <g transform="translate(121.933349 163.928597)scale(0.05 -0.05)">
      <use xlink:href="#DejaVuSans-45"/>
      <use x="63.183594" xlink:href="#DejaVuSans-78"/>
      <use x="122.363281" xlink:href="#DejaVuSans-74"/>
      <use x="161.572266" xlink:href="#DejaVuSans-72"/>
      <use x="200.435547" xlink:href="#DejaVuSans-65"/>
      <use x="261.958984" xlink:href="#DejaVuSans-6d"/>
      <use x="359.371094" xlink:href="#DejaVuSans-65"/>
     </g>
    </g>
    <g id="line2d_49">
     <path d="M 107.933349 169.517659 
L 117.933349 169.517659 
" style="fill:none;stroke:#000000;stroke-dasharray:1.5,2.475;stroke-dashoffset:0;stroke-width:1.5;"/>
    </g>
    <g id="line2d_50"/>
    <g id="text_28">
     <!-- Gladed -->
     <g transform="translate(121.933349 171.267659)scale(0.05 -0.05)">
      <defs>
       <path d="M 3809 666 
L 3809 1919 
L 2778 1919 
L 2778 2438 
L 4434 2438 
L 4434 434 
Q 4069 175 3628 42 
Q 3188 -91 2688 -91 
Q 1594 -91 976 548 
Q 359 1188 359 2328 
Q 359 3472 976 4111 
Q 1594 4750 2688 4750 
Q 3144 4750 3555 4637 
Q 3966 4525 4313 4306 
L 4313 3634 
Q 3963 3931 3569 4081 
Q 3175 4231 2741 4231 
Q 1884 4231 1454 3753 
Q 1025 3275 1025 2328 
Q 1025 1384 1454 906 
Q 1884 428 2741 428 
Q 3075 428 3337 486 
Q 3600 544 3809 666 
z
" id="DejaVuSans-47" transform="scale(0.015625)"/>
      </defs>
      <use xlink:href="#DejaVuSans-47"/>
      <use x="77.490234" xlink:href="#DejaVuSans-6c"/>
      <use x="105.273438" xlink:href="#DejaVuSans-61"/>
      <use x="166.552734" xlink:href="#DejaVuSans-64"/>
      <use x="230.029297" xlink:href="#DejaVuSans-65"/>
      <use x="291.552734" xlink:href="#DejaVuSans-64"/>
     </g>
    </g>
   </g>
  </g>
  <g id="text_29">
   <!-- Sources: USGS and OpenStreetMaps -->
   <g transform="translate(33.316043 178.633638)scale(0.043478 -0.043478)">
    <defs>
     <path d="M 750 794 
L 1409 794 
L 1409 0 
L 750 0 
L 750 794 
z
M 750 3309 
L 1409 3309 
L 1409 2516 
L 750 2516 
L 750 3309 
z
" id="DejaVuSans-3a" transform="scale(0.015625)"/>
     <path d="M 2522 4238 
Q 1834 4238 1429 3725 
Q 1025 3213 1025 2328 
Q 1025 1447 1429 934 
Q 1834 422 2522 422 
Q 3209 422 3611 934 
Q 4013 1447 4013 2328 
Q 4013 3213 3611 3725 
Q 3209 4238 2522 4238 
z
M 2522 4750 
Q 3503 4750 4090 4092 
Q 4678 3434 4678 2328 
Q 4678 1225 4090 567 
Q 3503 -91 2522 -91 
Q 1538 -91 948 565 
Q 359 1222 359 2328 
Q 359 3434 948 4092 
Q 1538 4750 2522 4750 
z
" id="DejaVuSans-4f" transform="scale(0.015625)"/>
    </defs>
    <use xlink:href="#DejaVuSans-53"/>
    <use x="63.476562" xlink:href="#DejaVuSans-6f"/>
    <use x="124.658203" xlink:href="#DejaVuSans-75"/>
    <use x="188.037109" xlink:href="#DejaVuSans-72"/>
    <use x="226.900391" xlink:href="#DejaVuSans-63"/>
    <use x="281.880859" xlink:href="#DejaVuSans-65"/>
    <use x="343.404297" xlink:href="#DejaVuSans-73"/>
    <use x="395.503906" xlink:href="#DejaVuSans-3a"/>
    <use x="429.195312" xlink:href="#DejaVuSans-20"/>
    <use x="460.982422" xlink:href="#DejaVuSans-55"/>
    <use x="534.175781" xlink:href="#DejaVuSans-53"/>
    <use x="597.652344" xlink:href="#DejaVuSans-47"/>
    <use x="675.142578" xlink:href="#DejaVuSans-53"/>
    <use x="738.619141" xlink:href="#DejaVuSans-20"/>
    <use x="770.40625" xlink:href="#DejaVuSans-61"/>
    <use x="831.685547" xlink:href="#DejaVuSans-6e"/>
    <use x="895.064453" xlink:href="#DejaVuSans-64"/>
    <use x="958.541016" xlink:href="#DejaVuSans-20"/>
    <use x="990.328125" xlink:href="#DejaVuSans-4f"/>
    <use x="1069.039062" xlink:href="#DejaVuSans-70"/>
    <use x="1132.515625" xlink:href="#DejaVuSans-65"/>
    <use x="1194.039062" xlink:href="#DejaVuSans-6e"/>
    <use x="1257.417969" xlink:href="#DejaVuSans-53"/>
    <use x="1320.894531" xlink:href="#DejaVuSans-74"/>
    <use x="1360.103516" xlink:href="#DejaVuSans-72"/>
    <use x="1398.966797" xlink:href="#DejaVuSans-65"/>
    <use x="1460.490234" xlink:href="#DejaVuSans-65"/>
    <use x="1522.013672" xlink:href="#DejaVuSans-74"/>
    <use x="1561.222656" xlink:href="#DejaVuSans-4d"/>
    <use x="1647.501953" xlink:href="#DejaVuSans-61"/>
    <use x="1708.78125" xlink:href="#DejaVuSans-70"/>
    <use x="1772.257812" xlink:href="#DejaVuSans-73"/>
   </g>
  </g>
 </g>
 <defs>
  <clipPath id="pc5a0b73f60">
   <rect height="148.226493" width="145.953417" x="0" y="15.655678"/>
  </clipPath>
 </defs>
</svg>
