<?xml version="1.0" encoding="utf-8" standalone="no"?>
<!DOCTYPE svg PUBLIC "-//W3C//DTD SVG 1.1//EN"
  "http://www.w3.org/Graphics/SVG/1.1/DTD/svg11.dtd">
<svg height="79.57476pt" version="1.1" viewBox="0 0 121.478935 79.57476" width="121.478935pt" xmlns="http://www.w3.org/2000/svg" xmlns:xlink="http://www.w3.org/1999/xlink">
 <metadata>
  <rdf:RDF xmlns:cc="http://creativecommons.org/ns#" xmlns:dc="http://purl.org/dc/elements/1.1/" xmlns:rdf="http://www.w3.org/1999/02/22-rdf-syntax-ns#">
   <cc:Work>
    <dc:type rdf:resource="http://purl.org/dc/dcmitype/StillImage"/>
    <dc:date>2022-04-14T21:30:14.314271</dc:date>
    <dc:format>image/svg+xml</dc:format>
    <dc:creator>
     <cc:Agent>
      <dc:title>Matplotlib v3.4.3, https://matplotlib.org/</dc:title>
     </cc:Agent>
    </dc:creator>
   </cc:Work>
  </rdf:RDF>
 </metadata>
 <defs>
  <style type="text/css">*{stroke-linecap:butt;stroke-linejoin:round;}</style>
 </defs>
 <g id="figure_1">
  <g id="patch_1">
   <path d="M 0 79.57476 
L 121.478935 79.57476 
L 121.478935 0 
L 0 0 
z
" style="fill:#ffffff;"/>
  </g>
  <g id="axes_1">
   <g id="line2d_1">
    <path clip-path="url(#p23fa7bb3da)" d="M 35.714752 33.902101 
" style="fill:none;stroke:#008000;stroke-linecap:square;stroke-width:1.5;"/>
   </g>
   <g id="line2d_2">
    <path clip-path="url(#p23fa7bb3da)" d="M 35.714752 33.902101 
" style="fill:none;stroke:#4169e1;stroke-linecap:square;stroke-width:1.5;"/>
   </g>
   <g id="line2d_3">
    <path clip-path="url(#p23fa7bb3da)" d="M 35.714752 33.902101 
" style="fill:none;stroke:#000000;stroke-linecap:square;stroke-width:1.5;"/>
   </g>
   <g id="line2d_4">
    <path clip-path="url(#p23fa7bb3da)" d="M 35.714752 33.902101 
" style="fill:none;stroke:#ff0000;stroke-linecap:square;stroke-width:1.5;"/>
   </g>
   <g id="line2d_5">
    <path clip-path="url(#p23fa7bb3da)" d="M 35.714752 33.902101 
" style="fill:none;stroke:#ffd700;stroke-linecap:square;stroke-width:1.5;"/>
   </g>
   <g id="line2d_6">
    <path clip-path="url(#p23fa7bb3da)" d="M 35.714752 33.902101 
" style="fill:none;stroke:#000000;stroke-dasharray:1.5,2.475;stroke-dashoffset:0;stroke-width:1.5;"/>
   </g>
   <g id="line2d_7">
    <path clip-path="url(#p23fa7bb3da)" d="M 76.289392 62.882515 
L 77.091452 60.871959 
L 78.512889 56.863491 
L 79.934326 52.855023 
L 82.32595 47.232858 
L 84.717575 41.610693 
L 85.882818 38.667324 
L 87.048062 35.723955 
L 88.205663 32.800283 
L 89.363265 29.876611 
L 90.520866 26.952939 
L 91.678467 24.029268 
" style="fill:none;stroke:#808080;stroke-linecap:square;stroke-width:1.5;"/>
   </g>
   <g id="line2d_8">
    <path clip-path="url(#p23fa7bb3da)" d="M 64.208997 63.712222 
L 62.272989 62.334889 
L 57.748118 58.418827 
L 53.223246 54.502765 
L 51.12548 52.032855 
L 49.027714 49.562944 
L 46.929948 47.093033 
L 44.832182 44.623123 
L 42.734416 42.153212 
L 40.63665 39.683302 
L 38.538885 37.213391 
L 36.441119 34.74348 
" style="fill:none;stroke:#808080;stroke-linecap:square;stroke-width:1.5;"/>
   </g>
   <g id="line2d_9">
    <path clip-path="url(#p23fa7bb3da)" d="M 35.714752 33.902101 
L 34.005461 34.423951 
L 32.29617 34.945801 
L 30.58688 35.46765 
L 28.877589 35.9895 
L 27.616819 36.372133 
L 26.356048 36.754766 
L 25.095278 37.137399 
L 23.834508 37.520033 
L 22.573737 37.902666 
L 21.312967 38.285299 
L 20.052197 38.667932 
L 18.791427 39.050565 
L 17.041742 39.649501 
L 15.292057 40.248436 
L 13.542372 40.847372 
L 11.792687 41.446308 
L 10.822136 42.046216 
L 9.851585 42.646124 
L 8.881034 43.246033 
L 7.910483 43.845941 
L 6.777263 44.87116 
L 5.644044 45.896378 
L 5.52177 46.5617 
L 5.952277 47.414752 
L 6.382784 48.267803 
L 6.813291 49.120855 
L 7.243797 49.973907 
L 8.354454 50.742334 
L 9.53389 50.915474 
L 10.713327 51.088613 
L 11.892763 51.261752 
L 13.072199 51.434892 
L 14.259277 51.881358 
L 15.446355 52.327824 
L 16.466762 53.564117 
L 16.930385 54.491093 
L 17.394008 55.418069 
L 18.172778 56.136889 
L 19.39188 56.526696 
L 20.610983 56.916503 
L 21.830085 57.30631 
L 23.049187 57.696116 
L 24.898584 58.243986 
L 26.747981 58.791855 
L 28.597377 59.339724 
L 30.446774 59.887594 
L 31.427514 60.122377 
L 32.408255 60.357161 
L 33.388996 60.591945 
L 34.369736 60.826729 
L 35.350477 61.061512 
L 36.331217 61.296296 
L 37.311958 61.53108 
L 38.292699 61.765864 
L 39.432468 61.964293 
L 40.572238 62.162722 
L 41.712008 62.361152 
L 42.851778 62.559581 
L 43.934777 62.727857 
L 45.017777 62.896133 
L 45.581112 62.984648 
L 46.604794 62.915708 
L 47.628476 62.846769 
L 48.652158 62.777829 
L 49.67584 62.708889 
L 50.699522 62.63995 
L 51.723204 62.57101 
L 52.746886 62.502071 
L 53.770569 62.433131 
" style="fill:none;stroke:#008000;stroke-linecap:square;stroke-width:1.5;"/>
   </g>
   <g id="line2d_10">
    <path clip-path="url(#p23fa7bb3da)" d="M 28.877589 35.9895 
L 27.686144 36.991131 
L 26.494698 37.992761 
L 25.303253 38.994392 
L 24.111808 39.996022 
L 23.874174 40.977227 
L 23.63654 41.958431 
L 23.398906 42.939635 
L 23.161272 43.920839 
L 22.88106 45.329784 
L 22.600849 46.73873 
L 22.292616 47.677865 
L 21.984383 48.617 
L 21.676151 49.556135 
L 21.367918 50.49527 
L 21.367918 52.269462 
L 21.367918 54.043654 
L 21.788235 54.95677 
L 22.208553 55.869885 
L 22.62887 56.783001 
L 23.049187 57.696116 
" style="fill:none;stroke:#000000;stroke-linecap:square;stroke-width:1.5;"/>
   </g>
   <g id="line2d_11">
    <path clip-path="url(#p23fa7bb3da)" d="M 38.872045 34.734726 
L 40.550767 34.88671 
L 42.22949 35.038693 
L 43.908212 35.190676 
L 45.586934 35.342659 
L 47.431964 35.509476 
L 49.276993 35.676293 
L 50.256278 35.798488 
L 51.235563 35.920682 
L 52.214848 36.042877 
L 53.194133 36.165071 
L 54.173418 36.287266 
L 55.152703 36.40946 
L 56.131988 36.531655 
L 57.111273 36.653849 
L 58.442096 37.494986 
L 59.772919 38.336122 
L 61.103743 39.177258 
L 62.434566 40.018394 
" style="fill:none;stroke:#008000;stroke-linecap:square;stroke-width:1.5;"/>
   </g>
   <g id="line2d_12">
    <path clip-path="url(#p23fa7bb3da)" d="M 39.973968 33.484816 
L 41.347005 32.936946 
L 42.720042 32.389077 
L 44.093079 31.841208 
L 45.466116 31.293339 
L 46.991267 30.395543 
L 48.516419 29.497747 
L 50.041571 28.599952 
L 51.566723 27.702156 
L 52.564931 27.381411 
L 53.563139 27.060665 
L 54.561348 26.73992 
L 55.559556 26.419174 
L 57.285223 25.926991 
L 59.010889 25.434809 
L 60.08006 25.330488 
L 61.149231 25.226166 
L 62.218402 25.121845 
L 63.287574 25.017524 
L 64.688268 25.412923 
L 66.088962 25.808323 
L 67.489656 26.203723 
L 68.89035 26.599122 
L 70.391847 27.571329 
L 71.893345 28.543536 
" style="fill:none;stroke:#008000;stroke-linecap:square;stroke-width:1.5;"/>
   </g>
   <g id="line2d_13">
    <path clip-path="url(#p23fa7bb3da)" d="M 62.434566 40.018394 
L 62.615066 41.416154 
L 62.671108 43.242385 
L 62.72715 45.068616 
L 62.783193 46.894847 
L 62.839235 48.721078 
L 62.923298 50.208326 
L 63.007362 51.695573 
L 63.091425 53.182821 
L 63.175489 54.670068 
L 63.147468 55.765807 
L 63.119447 56.861546 
L 63.091425 57.957284 
L 63.063404 59.053023 
L 63.116535 60.706115 
L 63.169666 62.359206 
" style="fill:none;stroke:#4169e1;stroke-linecap:square;stroke-width:1.5;"/>
   </g>
   <g id="line2d_14">
    <path clip-path="url(#p23fa7bb3da)" d="M 36.441119 34.74348 
L 37.784679 35.708392 
L 39.128239 36.673303 
L 40.108979 37.743022 
L 41.08972 38.812741 
L 42.07046 39.882461 
L 43.051201 40.95218 
L 43.975899 41.891315 
L 44.900598 42.83045 
L 45.825296 43.769585 
L 46.749994 44.70872 
L 47.786777 45.778439 
L 48.82356 46.848158 
L 49.860343 47.917877 
L 50.897126 48.987596 
L 51.429528 49.926731 
L 51.96193 50.865866 
L 52.494332 51.805001 
L 53.026734 52.744136 
L 53.223246 54.502765 
L 53.405202 56.128135 
L 53.587157 57.753505 
L 54.633038 58.868454 
L 55.678919 59.983404 
L 56.724799 61.098353 
L 57.77068 62.213302 
" style="fill:none;stroke:#4169e1;stroke-linecap:square;stroke-width:1.5;"/>
   </g>
   <g id="line2d_15">
    <path clip-path="url(#p23fa7bb3da)" d="M 68.214931 32.552976 
L 68.722587 33.647742 
L 69.230243 34.742508 
L 69.737899 35.837274 
L 70.245555 36.93204 
L 70.753211 38.026806 
L 71.260867 39.121572 
L 71.768523 40.216337 
L 72.276179 41.311103 
L 72.3395 42.564905 
L 72.402821 43.818706 
L 72.466141 45.072507 
L 72.529462 46.326308 
L 72.40646 48.109741 
L 72.283458 49.893173 
L 72.160456 51.676606 
L 72.037454 53.460038 
L 72.049463 54.570854 
L 72.061472 55.681669 
L 72.073481 56.792485 
L 72.08549 57.9033 
L 72.363518 59.31565 
L 72.641546 60.728 
" style="fill:none;stroke:#4169e1;stroke-linecap:square;stroke-width:1.5;"/>
   </g>
   <g id="line2d_16">
    <path clip-path="url(#p23fa7bb3da)" d="M 91.765806 20.034418 
L 90.753769 18.991447 
L 89.741732 17.948477 
L 88.729695 16.905507 
L 87.717658 15.862537 
L 86.084061 15.895366 
L 84.450464 15.928194 
L 82.816867 15.961023 
L 81.183269 15.993851 
L 80.028579 16.84593 
L 78.873889 17.698009 
L 77.719199 18.550088 
L 76.564509 19.402167 
L 75.881811 20.157463 
L 75.199114 20.912759 
L 74.516417 21.668055 
L 73.833719 22.423351 
L 73.675782 23.546325 
L 73.517844 24.669299 
L 73.359907 25.792274 
L 73.201969 26.915248 
L 73.331522 28.217683 
L 73.461074 29.520119 
" style="fill:none;stroke:#008000;stroke-linecap:square;stroke-width:1.5;"/>
   </g>
   <g id="line2d_17">
    <path clip-path="url(#p23fa7bb3da)" d="M 71.893345 28.543536 
L 73.461074 29.520119 
L 74.798084 30.792888 
L 76.135094 32.065657 
L 77.841837 32.858402 
L 79.54858 33.651146 
L 81.173808 34.202177 
L 82.799035 34.753207 
L 84.329645 35.751677 
L 85.860256 36.750146 
" style="fill:none;stroke:#008000;stroke-linecap:square;stroke-width:1.5;"/>
   </g>
   <g id="line2d_18">
    <path clip-path="url(#p23fa7bb3da)" d="M 92.704697 23.993278 
L 92.279649 24.860677 
L 91.8546 25.728076 
L 91.429552 26.595475 
L 91.004504 27.462874 
L 90.527416 28.648586 
L 90.050329 29.834299 
L 89.573241 31.020012 
L 89.096154 32.205725 
L 88.635442 33.13416 
L 88.174731 34.062595 
L 87.017493 35.406371 
L 85.860256 36.750146 
" style="fill:none;stroke:#4169e1;stroke-linecap:square;stroke-width:1.5;"/>
   </g>
   <g id="line2d_19">
    <path clip-path="url(#p23fa7bb3da)" d="M 91.435375 22.488522 
L 90.239563 23.177918 
L 89.043751 23.867314 
L 87.847938 24.55671 
L 86.652126 25.246106 
L 85.839513 26.054901 
L 85.026899 26.863695 
L 84.214285 27.672489 
L 83.401672 28.481283 
L 82.897291 30.20295 
L 82.39291 31.924616 
L 83.103992 33.024732 
L 83.815075 34.124848 
L 84.837665 35.437497 
L 85.860256 36.750146 
" style="fill:none;stroke:#4169e1;stroke-linecap:square;stroke-width:1.5;"/>
   </g>
   <g id="line2d_20">
    <path clip-path="url(#p23fa7bb3da)" d="M 93.489289 23.158707 
L 95.188027 23.020342 
L 96.886764 22.881976 
L 98.585502 22.743611 
L 100.284239 22.605245 
L 101.839959 22.531564 
L 103.395679 22.457882 
L 104.9514 22.384201 
L 106.50712 22.310519 
L 107.177444 23.181687 
L 107.847769 24.052855 
L 108.518093 24.924023 
L 109.188417 25.795192 
L 109.858742 26.66636 
L 110.529066 27.537528 
L 111.199391 28.408696 
L 111.869715 29.279864 
L 112.279661 30.229212 
L 112.689607 31.178561 
L 113.099553 32.127909 
L 113.509499 33.077257 
L 113.919445 34.026606 
L 114.329391 34.975954 
L 114.739336 35.925302 
L 115.149282 36.874651 
L 115.351253 38.262684 
L 115.553224 39.650716 
L 115.755195 41.038749 
L 115.957165 42.426782 
L 115.327599 43.323362 
L 114.698033 44.219942 
L 114.068466 45.116521 
L 113.4389 46.013101 
L 111.974157 46.706388 
L 110.509415 47.399675 
L 109.044673 48.092962 
L 107.57993 48.786249 
L 106.186514 49.267002 
L 104.793098 49.747756 
L 103.399682 50.228509 
L 102.006267 50.709263 
L 100.857581 51.465896 
L 99.708895 52.22253 
L 98.56021 52.979163 
L 97.411524 53.735797 
L 96.262838 54.49243 
L 95.114153 55.249064 
L 93.965467 56.005698 
L 92.816782 56.762331 
L 91.779999 57.3102 
L 90.743216 57.85807 
L 89.706433 58.405939 
L 88.66965 58.953808 
L 87.548804 59.18847 
L 86.427957 59.423133 
L 85.307111 59.657795 
L 84.186264 59.892457 
L 82.897291 59.892457 
L 81.608318 59.892457 
L 80.709457 60.51109 
L 79.810596 61.129722 
L 79.752371 61.133613 
" style="fill:none;stroke:#008000;stroke-linecap:square;stroke-width:1.5;"/>
   </g>
   <g id="line2d_21">
    <path clip-path="url(#p23fa7bb3da)" d="M 92.704697 23.993278 
L 94.043162 24.245692 
L 95.381628 24.498106 
L 96.271754 25.334621 
L 97.161881 26.171137 
L 98.203395 27.66568 
L 99.244909 29.160223 
L 98.730338 30.790699 
L 98.215768 32.421176 
L 97.701197 34.051653 
L 97.186627 35.682129 
L 96.514483 36.647284 
L 95.842339 37.612438 
L 95.170195 38.577593 
L 94.498051 39.542748 
L 94.357945 40.977713 
L 94.21784 42.412678 
L 94.077734 43.847643 
L 93.937628 45.282609 
L 93.819721 46.885607 
L 93.701814 48.488605 
L 93.079525 49.516255 
L 92.457237 50.543905 
L 91.360773 51.002773 
L 90.264309 51.461641 
L 89.167844 51.920509 
L 88.07138 52.379377 
" style="fill:none;stroke:#008000;stroke-linecap:square;stroke-width:1.5;"/>
   </g>
   <g id="line2d_22">
    <path clip-path="url(#p23fa7bb3da)" d="M 99.244909 29.160223 
L 99.683603 29.989808 
L 100.122298 30.819394 
L 100.560993 31.648979 
L 100.999688 32.478565 
L 101.438383 33.30815 
L 101.877078 34.137736 
L 102.315773 34.967321 
L 102.754468 35.796907 
L 103.33709 36.976784 
L 103.919711 38.15666 
L 104.502333 39.336537 
L 105.084955 40.516413 
L 105.523832 42.062509 
L 105.962709 43.608604 
L 105.681769 44.887695 
L 104.809474 45.794245 
L 103.937179 46.700795 
L 103.064884 47.607345 
L 102.192589 48.513895 
L 100.97567 48.767646 
L 99.758751 49.021397 
L 98.541832 49.275149 
L 97.324913 49.5289 
L 96.107994 49.782651 
L 94.891075 50.036402 
L 93.674156 50.290154 
L 92.457237 50.543905 
" style="fill:none;stroke:#008000;stroke-linecap:square;stroke-width:1.5;"/>
   </g>
   <g id="line2d_23">
    <path clip-path="url(#p23fa7bb3da)" d="M 36.441119 34.74348 
L 36.307199 36.009927 
L 36.17328 37.276373 
L 36.214402 38.325909 
L 36.255524 39.375444 
L 36.296646 40.42498 
L 36.337768 41.474516 
L 36.655098 42.924558 
L 36.972429 44.3746 
L 37.289759 45.824642 
L 37.60709 47.274684 
L 37.822525 48.534078 
L 38.037961 49.793472 
L 38.253396 51.052867 
L 38.468832 52.312261 
L 38.571091 53.228051 
L 38.67335 54.143842 
L 38.775609 55.059632 
L 38.877868 55.975422 
L 39.267253 57.501578 
L 39.656638 59.027733 
L 40.455423 59.910695 
L 41.254208 60.793657 
L 42.052993 61.676619 
L 42.851778 62.559581 
" style="fill:none;stroke:#000000;stroke-linecap:square;stroke-width:1.5;"/>
   </g>
   <g id="line2d_24">
    <path clip-path="url(#p23fa7bb3da)" d="M 45.586934 35.342659 
L 46.709418 35.061794 
L 47.831902 34.780929 
L 48.954386 34.500064 
L 50.07687 34.219199 
L 51.199354 33.938334 
L 52.321838 33.657469 
L 53.444322 33.376604 
L 54.566806 33.095739 
L 56.476612 33.151425 
L 58.386418 33.207112 
L 60.296224 33.262799 
L 62.20603 33.318485 
L 63.708255 33.127108 
L 65.21048 32.935731 
L 66.712705 32.744353 
L 68.214931 32.552976 
L 69.526467 31.794762 
L 70.838003 31.036548 
L 72.149538 30.278333 
L 73.461074 29.520119 
" style="fill:none;stroke:#008000;stroke-linecap:square;stroke-width:1.5;"/>
   </g>
   <g id="line2d_25">
    <path clip-path="url(#p23fa7bb3da)" d="M 91.765806 20.034418 
L 89.97973 19.759145 
L 88.193654 19.483873 
L 86.655765 19.767656 
L 85.117877 20.05144 
L 83.579988 20.335223 
L 82.0421 20.619006 
L 80.636675 21.655897 
L 79.23125 22.692787 
L 79.151917 24.099788 
L 79.072585 25.506788 
L 79.655934 26.444707 
L 80.239284 27.382627 
L 80.822633 28.320546 
L 81.405983 29.258465 
L 81.899446 30.591541 
L 82.39291 31.924616 
" style="fill:none;stroke:#008000;stroke-linecap:square;stroke-width:1.5;"/>
   </g>
   <g id="line2d_26">
    <path clip-path="url(#p23fa7bb3da)" d="M 85.860256 36.750146 
L 86.93998 37.099221 
L 88.019705 37.448296 
L 89.099429 37.797372 
L 90.179153 38.146447 
L 91.258878 38.495522 
L 92.338602 38.844597 
L 93.418327 39.193672 
L 94.498051 39.542748 
" style="fill:none;stroke:#008000;stroke-linecap:square;stroke-width:1.5;"/>
   </g>
   <g id="line2d_27">
    <path clip-path="url(#p23fa7bb3da)" d="M 85.860256 36.750146 
L 86.133007 37.74971 
L 86.405759 38.749273 
L 86.67851 39.748837 
L 86.951261 40.7484 
L 87.224013 41.747964 
L 87.496764 42.747528 
L 87.769516 43.747091 
L 88.042267 44.746655 
L 88.395261 46.106966 
L 88.748255 47.467277 
L 89.101249 48.827588 
L 89.454242 50.187899 
L 88.762811 51.283638 
L 88.07138 52.379377 
L 87.238387 52.991687 
L 86.405395 53.603997 
L 85.572402 54.216307 
L 84.739409 54.828617 
L 84.096742 55.572971 
L 83.454075 56.317324 
L 82.811408 57.061677 
L 82.168741 57.806031 
L 81.888529 58.849244 
L 81.608318 59.892457 
" style="fill:none;stroke:#008000;stroke-linecap:square;stroke-width:1.5;"/>
   </g>
   <g id="line2d_28">
    <path clip-path="url(#p23fa7bb3da)" d="M 85.860256 36.750146 
L 85.19357 38.35898 
L 84.526885 39.967814 
L 83.8602 41.576649 
L 83.193515 43.185483 
L 82.526829 44.794317 
L 81.860144 46.403151 
L 81.193459 48.011985 
L 80.526774 49.620819 
L 80.449988 50.832308 
L 80.373203 52.043797 
L 80.296418 53.255287 
L 80.219633 54.466776 
L 80.566804 55.823196 
L 80.913975 57.179616 
L 81.261146 58.536037 
L 81.608318 59.892457 
" style="fill:none;stroke:#008000;stroke-linecap:square;stroke-width:1.5;"/>
   </g>
   <g id="line2d_29">
    <path clip-path="url(#p23fa7bb3da)" d="M 43.861995 59.445991 
L 44.439886 61.171062 
L 45.017777 62.896133 
" style="fill:none;stroke:#008000;stroke-linecap:square;stroke-width:1.5;"/>
   </g>
   <g id="text_1">
    <g id="patch_2">
     <path d="M 79.870448 57.408776 
L 81.920596 48.756795 
L 79.998204 48.301271 
L 77.948056 56.953252 
z
" style="fill:#ffffff;"/>
    </g>
    <!-- Chair #2 -->
    <g style="fill:#808080;" transform="translate(79.450868 57.2888)rotate(-76.669233)scale(0.02 -0.02)">
     <defs>
      <path d="M 4122 4306 
L 4122 3641 
Q 3803 3938 3442 4084 
Q 3081 4231 2675 4231 
Q 1875 4231 1450 3742 
Q 1025 3253 1025 2328 
Q 1025 1406 1450 917 
Q 1875 428 2675 428 
Q 3081 428 3442 575 
Q 3803 722 4122 1019 
L 4122 359 
Q 3791 134 3420 21 
Q 3050 -91 2638 -91 
Q 1578 -91 968 557 
Q 359 1206 359 2328 
Q 359 3453 968 4101 
Q 1578 4750 2638 4750 
Q 3056 4750 3426 4639 
Q 3797 4528 4122 4306 
z
" id="DejaVuSans-43" transform="scale(0.015625)"/>
      <path d="M 3513 2113 
L 3513 0 
L 2938 0 
L 2938 2094 
Q 2938 2591 2744 2837 
Q 2550 3084 2163 3084 
Q 1697 3084 1428 2787 
Q 1159 2491 1159 1978 
L 1159 0 
L 581 0 
L 581 4863 
L 1159 4863 
L 1159 2956 
Q 1366 3272 1645 3428 
Q 1925 3584 2291 3584 
Q 2894 3584 3203 3211 
Q 3513 2838 3513 2113 
z
" id="DejaVuSans-68" transform="scale(0.015625)"/>
      <path d="M 2194 1759 
Q 1497 1759 1228 1600 
Q 959 1441 959 1056 
Q 959 750 1161 570 
Q 1363 391 1709 391 
Q 2188 391 2477 730 
Q 2766 1069 2766 1631 
L 2766 1759 
L 2194 1759 
z
M 3341 1997 
L 3341 0 
L 2766 0 
L 2766 531 
Q 2569 213 2275 61 
Q 1981 -91 1556 -91 
Q 1019 -91 701 211 
Q 384 513 384 1019 
Q 384 1609 779 1909 
Q 1175 2209 1959 2209 
L 2766 2209 
L 2766 2266 
Q 2766 2663 2505 2880 
Q 2244 3097 1772 3097 
Q 1472 3097 1187 3025 
Q 903 2953 641 2809 
L 641 3341 
Q 956 3463 1253 3523 
Q 1550 3584 1831 3584 
Q 2591 3584 2966 3190 
Q 3341 2797 3341 1997 
z
" id="DejaVuSans-61" transform="scale(0.015625)"/>
      <path d="M 603 3500 
L 1178 3500 
L 1178 0 
L 603 0 
L 603 3500 
z
M 603 4863 
L 1178 4863 
L 1178 4134 
L 603 4134 
L 603 4863 
z
" id="DejaVuSans-69" transform="scale(0.015625)"/>
      <path d="M 2631 2963 
Q 2534 3019 2420 3045 
Q 2306 3072 2169 3072 
Q 1681 3072 1420 2755 
Q 1159 2438 1159 1844 
L 1159 0 
L 581 0 
L 581 3500 
L 1159 3500 
L 1159 2956 
Q 1341 3275 1631 3429 
Q 1922 3584 2338 3584 
Q 2397 3584 2469 3576 
Q 2541 3569 2628 3553 
L 2631 2963 
z
" id="DejaVuSans-72" transform="scale(0.015625)"/>
      <path id="DejaVuSans-20" transform="scale(0.015625)"/>
      <path d="M 3272 2816 
L 2363 2816 
L 2100 1772 
L 3016 1772 
L 3272 2816 
z
M 2803 4594 
L 2478 3297 
L 3391 3297 
L 3719 4594 
L 4219 4594 
L 3897 3297 
L 4872 3297 
L 4872 2816 
L 3775 2816 
L 3519 1772 
L 4513 1772 
L 4513 1294 
L 3397 1294 
L 3072 0 
L 2572 0 
L 2894 1294 
L 1978 1294 
L 1656 0 
L 1153 0 
L 1478 1294 
L 494 1294 
L 494 1772 
L 1594 1772 
L 1856 2816 
L 850 2816 
L 850 3297 
L 1978 3297 
L 2297 4594 
L 2803 4594 
z
" id="DejaVuSans-23" transform="scale(0.015625)"/>
      <path d="M 1228 531 
L 3431 531 
L 3431 0 
L 469 0 
L 469 531 
Q 828 903 1448 1529 
Q 2069 2156 2228 2338 
Q 2531 2678 2651 2914 
Q 2772 3150 2772 3378 
Q 2772 3750 2511 3984 
Q 2250 4219 1831 4219 
Q 1534 4219 1204 4116 
Q 875 4013 500 3803 
L 500 4441 
Q 881 4594 1212 4672 
Q 1544 4750 1819 4750 
Q 2544 4750 2975 4387 
Q 3406 4025 3406 3419 
Q 3406 3131 3298 2873 
Q 3191 2616 2906 2266 
Q 2828 2175 2409 1742 
Q 1991 1309 1228 531 
z
" id="DejaVuSans-32" transform="scale(0.015625)"/>
     </defs>
     <use xlink:href="#DejaVuSans-43"/>
     <use x="69.824219" xlink:href="#DejaVuSans-68"/>
     <use x="133.203125" xlink:href="#DejaVuSans-61"/>
     <use x="194.482422" xlink:href="#DejaVuSans-69"/>
     <use x="222.265625" xlink:href="#DejaVuSans-72"/>
     <use x="263.378906" xlink:href="#DejaVuSans-20"/>
     <use x="295.166016" xlink:href="#DejaVuSans-23"/>
     <use x="378.955078" xlink:href="#DejaVuSans-32"/>
    </g>
   </g>
   <g id="text_2">
    <g id="patch_3">
     <path d="M 49.724377 51.58752 
L 55.158364 58.625394 
L 56.722116 57.418011 
L 51.288129 50.380137 
z
" style="fill:#ffffff;"/>
    </g>
    <!-- Chair #1 -->
    <g style="fill:#808080;" transform="translate(50.081654 51.336931)rotate(-307.671957)scale(0.02 -0.02)">
     <defs>
      <path d="M 794 531 
L 1825 531 
L 1825 4091 
L 703 3866 
L 703 4441 
L 1819 4666 
L 2450 4666 
L 2450 531 
L 3481 531 
L 3481 0 
L 794 0 
L 794 531 
z
" id="DejaVuSans-31" transform="scale(0.015625)"/>
     </defs>
     <use xlink:href="#DejaVuSans-43"/>
     <use x="69.824219" xlink:href="#DejaVuSans-68"/>
     <use x="133.203125" xlink:href="#DejaVuSans-61"/>
     <use x="194.482422" xlink:href="#DejaVuSans-69"/>
     <use x="222.265625" xlink:href="#DejaVuSans-72"/>
     <use x="263.378906" xlink:href="#DejaVuSans-20"/>
     <use x="295.166016" xlink:href="#DejaVuSans-23"/>
     <use x="378.955078" xlink:href="#DejaVuSans-31"/>
    </g>
   </g>
   <g id="text_3">
    <g id="patch_4">
     <path d="M 13.169511 43.068799 
L 30.273396 35.30059 
L 29.456424 33.501798 
L 12.352539 41.270008 
z
" style="fill:#ffffff;"/>
    </g>
    <!-- Logging Trail 15.5° -->
    <g style="fill:#008000;" transform="translate(13.007449 42.663611)rotate(-24.426508)scale(0.02 -0.02)">
     <defs>
      <path d="M 628 4666 
L 1259 4666 
L 1259 531 
L 3531 531 
L 3531 0 
L 628 0 
L 628 4666 
z
" id="DejaVuSans-4c" transform="scale(0.015625)"/>
      <path d="M 1959 3097 
Q 1497 3097 1228 2736 
Q 959 2375 959 1747 
Q 959 1119 1226 758 
Q 1494 397 1959 397 
Q 2419 397 2687 759 
Q 2956 1122 2956 1747 
Q 2956 2369 2687 2733 
Q 2419 3097 1959 3097 
z
M 1959 3584 
Q 2709 3584 3137 3096 
Q 3566 2609 3566 1747 
Q 3566 888 3137 398 
Q 2709 -91 1959 -91 
Q 1206 -91 779 398 
Q 353 888 353 1747 
Q 353 2609 779 3096 
Q 1206 3584 1959 3584 
z
" id="DejaVuSans-6f" transform="scale(0.015625)"/>
      <path d="M 2906 1791 
Q 2906 2416 2648 2759 
Q 2391 3103 1925 3103 
Q 1463 3103 1205 2759 
Q 947 2416 947 1791 
Q 947 1169 1205 825 
Q 1463 481 1925 481 
Q 2391 481 2648 825 
Q 2906 1169 2906 1791 
z
M 3481 434 
Q 3481 -459 3084 -895 
Q 2688 -1331 1869 -1331 
Q 1566 -1331 1297 -1286 
Q 1028 -1241 775 -1147 
L 775 -588 
Q 1028 -725 1275 -790 
Q 1522 -856 1778 -856 
Q 2344 -856 2625 -561 
Q 2906 -266 2906 331 
L 2906 616 
Q 2728 306 2450 153 
Q 2172 0 1784 0 
Q 1141 0 747 490 
Q 353 981 353 1791 
Q 353 2603 747 3093 
Q 1141 3584 1784 3584 
Q 2172 3584 2450 3431 
Q 2728 3278 2906 2969 
L 2906 3500 
L 3481 3500 
L 3481 434 
z
" id="DejaVuSans-67" transform="scale(0.015625)"/>
      <path d="M 3513 2113 
L 3513 0 
L 2938 0 
L 2938 2094 
Q 2938 2591 2744 2837 
Q 2550 3084 2163 3084 
Q 1697 3084 1428 2787 
Q 1159 2491 1159 1978 
L 1159 0 
L 581 0 
L 581 3500 
L 1159 3500 
L 1159 2956 
Q 1366 3272 1645 3428 
Q 1925 3584 2291 3584 
Q 2894 3584 3203 3211 
Q 3513 2838 3513 2113 
z
" id="DejaVuSans-6e" transform="scale(0.015625)"/>
      <path d="M -19 4666 
L 3928 4666 
L 3928 4134 
L 2272 4134 
L 2272 0 
L 1638 0 
L 1638 4134 
L -19 4134 
L -19 4666 
z
" id="DejaVuSans-54" transform="scale(0.015625)"/>
      <path d="M 603 4863 
L 1178 4863 
L 1178 0 
L 603 0 
L 603 4863 
z
" id="DejaVuSans-6c" transform="scale(0.015625)"/>
      <path d="M 691 4666 
L 3169 4666 
L 3169 4134 
L 1269 4134 
L 1269 2991 
Q 1406 3038 1543 3061 
Q 1681 3084 1819 3084 
Q 2600 3084 3056 2656 
Q 3513 2228 3513 1497 
Q 3513 744 3044 326 
Q 2575 -91 1722 -91 
Q 1428 -91 1123 -41 
Q 819 9 494 109 
L 494 744 
Q 775 591 1075 516 
Q 1375 441 1709 441 
Q 2250 441 2565 725 
Q 2881 1009 2881 1497 
Q 2881 1984 2565 2268 
Q 2250 2553 1709 2553 
Q 1456 2553 1204 2497 
Q 953 2441 691 2322 
L 691 4666 
z
" id="DejaVuSans-35" transform="scale(0.015625)"/>
      <path d="M 684 794 
L 1344 794 
L 1344 0 
L 684 0 
L 684 794 
z
" id="DejaVuSans-2e" transform="scale(0.015625)"/>
      <path d="M 1600 4347 
Q 1350 4347 1178 4173 
Q 1006 4000 1006 3750 
Q 1006 3503 1178 3333 
Q 1350 3163 1600 3163 
Q 1850 3163 2022 3333 
Q 2194 3503 2194 3750 
Q 2194 3997 2020 4172 
Q 1847 4347 1600 4347 
z
M 1600 4750 
Q 1800 4750 1984 4673 
Q 2169 4597 2303 4453 
Q 2447 4313 2519 4134 
Q 2591 3956 2591 3750 
Q 2591 3338 2302 3052 
Q 2013 2766 1594 2766 
Q 1172 2766 890 3047 
Q 609 3328 609 3750 
Q 609 4169 896 4459 
Q 1184 4750 1600 4750 
z
" id="DejaVuSans-b0" transform="scale(0.015625)"/>
     </defs>
     <use xlink:href="#DejaVuSans-4c"/>
     <use x="53.962891" xlink:href="#DejaVuSans-6f"/>
     <use x="115.144531" xlink:href="#DejaVuSans-67"/>
     <use x="178.621094" xlink:href="#DejaVuSans-67"/>
     <use x="242.097656" xlink:href="#DejaVuSans-69"/>
     <use x="269.880859" xlink:href="#DejaVuSans-6e"/>
     <use x="333.259766" xlink:href="#DejaVuSans-67"/>
     <use x="396.736328" xlink:href="#DejaVuSans-20"/>
     <use x="428.523438" xlink:href="#DejaVuSans-54"/>
     <use x="474.857422" xlink:href="#DejaVuSans-72"/>
     <use x="515.970703" xlink:href="#DejaVuSans-61"/>
     <use x="577.25" xlink:href="#DejaVuSans-69"/>
     <use x="605.033203" xlink:href="#DejaVuSans-6c"/>
     <use x="632.816406" xlink:href="#DejaVuSans-20"/>
     <use x="664.603516" xlink:href="#DejaVuSans-31"/>
     <use x="728.226562" xlink:href="#DejaVuSans-35"/>
     <use x="791.849609" xlink:href="#DejaVuSans-2e"/>
     <use x="823.636719" xlink:href="#DejaVuSans-35"/>
     <use x="887.259766" xlink:href="#DejaVuSans-b0"/>
    </g>
   </g>
   <g id="text_4">
    <g id="patch_5">
     <path d="M 46.309019 31.644967 
L 61.673418 24.256837 
L 60.817259 22.476363 
L 45.45286 29.864494 
z
" style="fill:#ffffff;"/>
    </g>
    <!-- Rabbit Run 11.0° -->
    <g style="fill:#008000;" transform="translate(46.138125 31.243424)rotate(-25.681057)scale(0.02 -0.02)">
     <defs>
      <path d="M 2841 2188 
Q 3044 2119 3236 1894 
Q 3428 1669 3622 1275 
L 4263 0 
L 3584 0 
L 2988 1197 
Q 2756 1666 2539 1819 
Q 2322 1972 1947 1972 
L 1259 1972 
L 1259 0 
L 628 0 
L 628 4666 
L 2053 4666 
Q 2853 4666 3247 4331 
Q 3641 3997 3641 3322 
Q 3641 2881 3436 2590 
Q 3231 2300 2841 2188 
z
M 1259 4147 
L 1259 2491 
L 2053 2491 
Q 2509 2491 2742 2702 
Q 2975 2913 2975 3322 
Q 2975 3731 2742 3939 
Q 2509 4147 2053 4147 
L 1259 4147 
z
" id="DejaVuSans-52" transform="scale(0.015625)"/>
      <path d="M 3116 1747 
Q 3116 2381 2855 2742 
Q 2594 3103 2138 3103 
Q 1681 3103 1420 2742 
Q 1159 2381 1159 1747 
Q 1159 1113 1420 752 
Q 1681 391 2138 391 
Q 2594 391 2855 752 
Q 3116 1113 3116 1747 
z
M 1159 2969 
Q 1341 3281 1617 3432 
Q 1894 3584 2278 3584 
Q 2916 3584 3314 3078 
Q 3713 2572 3713 1747 
Q 3713 922 3314 415 
Q 2916 -91 2278 -91 
Q 1894 -91 1617 61 
Q 1341 213 1159 525 
L 1159 0 
L 581 0 
L 581 4863 
L 1159 4863 
L 1159 2969 
z
" id="DejaVuSans-62" transform="scale(0.015625)"/>
      <path d="M 1172 4494 
L 1172 3500 
L 2356 3500 
L 2356 3053 
L 1172 3053 
L 1172 1153 
Q 1172 725 1289 603 
Q 1406 481 1766 481 
L 2356 481 
L 2356 0 
L 1766 0 
Q 1100 0 847 248 
Q 594 497 594 1153 
L 594 3053 
L 172 3053 
L 172 3500 
L 594 3500 
L 594 4494 
L 1172 4494 
z
" id="DejaVuSans-74" transform="scale(0.015625)"/>
      <path d="M 544 1381 
L 544 3500 
L 1119 3500 
L 1119 1403 
Q 1119 906 1312 657 
Q 1506 409 1894 409 
Q 2359 409 2629 706 
Q 2900 1003 2900 1516 
L 2900 3500 
L 3475 3500 
L 3475 0 
L 2900 0 
L 2900 538 
Q 2691 219 2414 64 
Q 2138 -91 1772 -91 
Q 1169 -91 856 284 
Q 544 659 544 1381 
z
M 1991 3584 
L 1991 3584 
z
" id="DejaVuSans-75" transform="scale(0.015625)"/>
      <path d="M 2034 4250 
Q 1547 4250 1301 3770 
Q 1056 3291 1056 2328 
Q 1056 1369 1301 889 
Q 1547 409 2034 409 
Q 2525 409 2770 889 
Q 3016 1369 3016 2328 
Q 3016 3291 2770 3770 
Q 2525 4250 2034 4250 
z
M 2034 4750 
Q 2819 4750 3233 4129 
Q 3647 3509 3647 2328 
Q 3647 1150 3233 529 
Q 2819 -91 2034 -91 
Q 1250 -91 836 529 
Q 422 1150 422 2328 
Q 422 3509 836 4129 
Q 1250 4750 2034 4750 
z
" id="DejaVuSans-30" transform="scale(0.015625)"/>
     </defs>
     <use xlink:href="#DejaVuSans-52"/>
     <use x="67.232422" xlink:href="#DejaVuSans-61"/>
     <use x="128.511719" xlink:href="#DejaVuSans-62"/>
     <use x="191.988281" xlink:href="#DejaVuSans-62"/>
     <use x="255.464844" xlink:href="#DejaVuSans-69"/>
     <use x="283.248047" xlink:href="#DejaVuSans-74"/>
     <use x="322.457031" xlink:href="#DejaVuSans-20"/>
     <use x="354.244141" xlink:href="#DejaVuSans-52"/>
     <use x="419.226562" xlink:href="#DejaVuSans-75"/>
     <use x="482.605469" xlink:href="#DejaVuSans-6e"/>
     <use x="545.984375" xlink:href="#DejaVuSans-20"/>
     <use x="577.771484" xlink:href="#DejaVuSans-31"/>
     <use x="641.394531" xlink:href="#DejaVuSans-31"/>
     <use x="705.017578" xlink:href="#DejaVuSans-2e"/>
     <use x="736.804688" xlink:href="#DejaVuSans-30"/>
     <use x="800.427734" xlink:href="#DejaVuSans-b0"/>
    </g>
   </g>
   <g id="text_5">
    <g id="patch_6">
     <path d="M 39.414108 36.288848 
L 48.736658 50.45795 
L 50.387088 49.372051 
L 41.064537 35.202949 
z
" style="fill:#ffffff;"/>
    </g>
    <!-- Bull Moose 23.6° -->
    <g style="fill:#4169e1;" transform="translate(39.789281 36.065944)rotate(-303.342887)scale(0.02 -0.02)">
     <defs>
      <path d="M 1259 2228 
L 1259 519 
L 2272 519 
Q 2781 519 3026 730 
Q 3272 941 3272 1375 
Q 3272 1813 3026 2020 
Q 2781 2228 2272 2228 
L 1259 2228 
z
M 1259 4147 
L 1259 2741 
L 2194 2741 
Q 2656 2741 2882 2914 
Q 3109 3088 3109 3444 
Q 3109 3797 2882 3972 
Q 2656 4147 2194 4147 
L 1259 4147 
z
M 628 4666 
L 2241 4666 
Q 2963 4666 3353 4366 
Q 3744 4066 3744 3513 
Q 3744 3084 3544 2831 
Q 3344 2578 2956 2516 
Q 3422 2416 3680 2098 
Q 3938 1781 3938 1306 
Q 3938 681 3513 340 
Q 3088 0 2303 0 
L 628 0 
L 628 4666 
z
" id="DejaVuSans-42" transform="scale(0.015625)"/>
      <path d="M 628 4666 
L 1569 4666 
L 2759 1491 
L 3956 4666 
L 4897 4666 
L 4897 0 
L 4281 0 
L 4281 4097 
L 3078 897 
L 2444 897 
L 1241 4097 
L 1241 0 
L 628 0 
L 628 4666 
z
" id="DejaVuSans-4d" transform="scale(0.015625)"/>
      <path d="M 2834 3397 
L 2834 2853 
Q 2591 2978 2328 3040 
Q 2066 3103 1784 3103 
Q 1356 3103 1142 2972 
Q 928 2841 928 2578 
Q 928 2378 1081 2264 
Q 1234 2150 1697 2047 
L 1894 2003 
Q 2506 1872 2764 1633 
Q 3022 1394 3022 966 
Q 3022 478 2636 193 
Q 2250 -91 1575 -91 
Q 1294 -91 989 -36 
Q 684 19 347 128 
L 347 722 
Q 666 556 975 473 
Q 1284 391 1588 391 
Q 1994 391 2212 530 
Q 2431 669 2431 922 
Q 2431 1156 2273 1281 
Q 2116 1406 1581 1522 
L 1381 1569 
Q 847 1681 609 1914 
Q 372 2147 372 2553 
Q 372 3047 722 3315 
Q 1072 3584 1716 3584 
Q 2034 3584 2315 3537 
Q 2597 3491 2834 3397 
z
" id="DejaVuSans-73" transform="scale(0.015625)"/>
      <path d="M 3597 1894 
L 3597 1613 
L 953 1613 
Q 991 1019 1311 708 
Q 1631 397 2203 397 
Q 2534 397 2845 478 
Q 3156 559 3463 722 
L 3463 178 
Q 3153 47 2828 -22 
Q 2503 -91 2169 -91 
Q 1331 -91 842 396 
Q 353 884 353 1716 
Q 353 2575 817 3079 
Q 1281 3584 2069 3584 
Q 2775 3584 3186 3129 
Q 3597 2675 3597 1894 
z
M 3022 2063 
Q 3016 2534 2758 2815 
Q 2500 3097 2075 3097 
Q 1594 3097 1305 2825 
Q 1016 2553 972 2059 
L 3022 2063 
z
" id="DejaVuSans-65" transform="scale(0.015625)"/>
      <path d="M 2597 2516 
Q 3050 2419 3304 2112 
Q 3559 1806 3559 1356 
Q 3559 666 3084 287 
Q 2609 -91 1734 -91 
Q 1441 -91 1130 -33 
Q 819 25 488 141 
L 488 750 
Q 750 597 1062 519 
Q 1375 441 1716 441 
Q 2309 441 2620 675 
Q 2931 909 2931 1356 
Q 2931 1769 2642 2001 
Q 2353 2234 1838 2234 
L 1294 2234 
L 1294 2753 
L 1863 2753 
Q 2328 2753 2575 2939 
Q 2822 3125 2822 3475 
Q 2822 3834 2567 4026 
Q 2313 4219 1838 4219 
Q 1578 4219 1281 4162 
Q 984 4106 628 3988 
L 628 4550 
Q 988 4650 1302 4700 
Q 1616 4750 1894 4750 
Q 2613 4750 3031 4423 
Q 3450 4097 3450 3541 
Q 3450 3153 3228 2886 
Q 3006 2619 2597 2516 
z
" id="DejaVuSans-33" transform="scale(0.015625)"/>
      <path d="M 2113 2584 
Q 1688 2584 1439 2293 
Q 1191 2003 1191 1497 
Q 1191 994 1439 701 
Q 1688 409 2113 409 
Q 2538 409 2786 701 
Q 3034 994 3034 1497 
Q 3034 2003 2786 2293 
Q 2538 2584 2113 2584 
z
M 3366 4563 
L 3366 3988 
Q 3128 4100 2886 4159 
Q 2644 4219 2406 4219 
Q 1781 4219 1451 3797 
Q 1122 3375 1075 2522 
Q 1259 2794 1537 2939 
Q 1816 3084 2150 3084 
Q 2853 3084 3261 2657 
Q 3669 2231 3669 1497 
Q 3669 778 3244 343 
Q 2819 -91 2113 -91 
Q 1303 -91 875 529 
Q 447 1150 447 2328 
Q 447 3434 972 4092 
Q 1497 4750 2381 4750 
Q 2619 4750 2861 4703 
Q 3103 4656 3366 4563 
z
" id="DejaVuSans-36" transform="scale(0.015625)"/>
     </defs>
     <use xlink:href="#DejaVuSans-42"/>
     <use x="68.603516" xlink:href="#DejaVuSans-75"/>
     <use x="131.982422" xlink:href="#DejaVuSans-6c"/>
     <use x="159.765625" xlink:href="#DejaVuSans-6c"/>
     <use x="187.548828" xlink:href="#DejaVuSans-20"/>
     <use x="219.335938" xlink:href="#DejaVuSans-4d"/>
     <use x="305.615234" xlink:href="#DejaVuSans-6f"/>
     <use x="366.796875" xlink:href="#DejaVuSans-6f"/>
     <use x="427.978516" xlink:href="#DejaVuSans-73"/>
     <use x="480.078125" xlink:href="#DejaVuSans-65"/>
     <use x="541.601562" xlink:href="#DejaVuSans-20"/>
     <use x="573.388672" xlink:href="#DejaVuSans-32"/>
     <use x="637.011719" xlink:href="#DejaVuSans-33"/>
     <use x="700.634766" xlink:href="#DejaVuSans-2e"/>
     <use x="732.421875" xlink:href="#DejaVuSans-36"/>
     <use x="796.044922" xlink:href="#DejaVuSans-b0"/>
    </g>
   </g>
   <g id="text_6">
    <g id="patch_7">
     <path d="M 72.968589 56.483578 
L 73.571857 43.393722 
L 71.598327 43.302769 
L 70.995058 56.392625 
z
" style="fill:#ffffff;"/>
    </g>
    <!-- Bobcat 17.7° -->
    <g style="fill:#4169e1;" transform="translate(72.534034 56.44353)rotate(-87.361293)scale(0.02 -0.02)">
     <defs>
      <path d="M 3122 3366 
L 3122 2828 
Q 2878 2963 2633 3030 
Q 2388 3097 2138 3097 
Q 1578 3097 1268 2742 
Q 959 2388 959 1747 
Q 959 1106 1268 751 
Q 1578 397 2138 397 
Q 2388 397 2633 464 
Q 2878 531 3122 666 
L 3122 134 
Q 2881 22 2623 -34 
Q 2366 -91 2075 -91 
Q 1284 -91 818 406 
Q 353 903 353 1747 
Q 353 2603 823 3093 
Q 1294 3584 2113 3584 
Q 2378 3584 2631 3529 
Q 2884 3475 3122 3366 
z
" id="DejaVuSans-63" transform="scale(0.015625)"/>
      <path d="M 525 4666 
L 3525 4666 
L 3525 4397 
L 1831 0 
L 1172 0 
L 2766 4134 
L 525 4134 
L 525 4666 
z
" id="DejaVuSans-37" transform="scale(0.015625)"/>
     </defs>
     <use xlink:href="#DejaVuSans-42"/>
     <use x="68.603516" xlink:href="#DejaVuSans-6f"/>
     <use x="129.785156" xlink:href="#DejaVuSans-62"/>
     <use x="193.261719" xlink:href="#DejaVuSans-63"/>
     <use x="248.242188" xlink:href="#DejaVuSans-61"/>
     <use x="309.521484" xlink:href="#DejaVuSans-74"/>
     <use x="348.730469" xlink:href="#DejaVuSans-20"/>
     <use x="380.517578" xlink:href="#DejaVuSans-31"/>
     <use x="444.140625" xlink:href="#DejaVuSans-37"/>
     <use x="507.763672" xlink:href="#DejaVuSans-2e"/>
     <use x="539.550781" xlink:href="#DejaVuSans-37"/>
     <use x="603.173828" xlink:href="#DejaVuSans-b0"/>
    </g>
   </g>
   <g id="text_7">
    <g id="patch_8">
     <path d="M 75.356509 17.173641 
L 90.336611 16.723137 
L 90.277224 14.748404 
L 75.297122 15.198909 
z
" style="fill:#ffffff;"/>
    </g>
    <!-- Chipmunk 8.6° -->
    <g style="fill:#008000;" transform="translate(75.363396 16.737299)rotate(-1.722566)scale(0.02 -0.02)">
     <defs>
      <path d="M 1159 525 
L 1159 -1331 
L 581 -1331 
L 581 3500 
L 1159 3500 
L 1159 2969 
Q 1341 3281 1617 3432 
Q 1894 3584 2278 3584 
Q 2916 3584 3314 3078 
Q 3713 2572 3713 1747 
Q 3713 922 3314 415 
Q 2916 -91 2278 -91 
Q 1894 -91 1617 61 
Q 1341 213 1159 525 
z
M 3116 1747 
Q 3116 2381 2855 2742 
Q 2594 3103 2138 3103 
Q 1681 3103 1420 2742 
Q 1159 2381 1159 1747 
Q 1159 1113 1420 752 
Q 1681 391 2138 391 
Q 2594 391 2855 752 
Q 3116 1113 3116 1747 
z
" id="DejaVuSans-70" transform="scale(0.015625)"/>
      <path d="M 3328 2828 
Q 3544 3216 3844 3400 
Q 4144 3584 4550 3584 
Q 5097 3584 5394 3201 
Q 5691 2819 5691 2113 
L 5691 0 
L 5113 0 
L 5113 2094 
Q 5113 2597 4934 2840 
Q 4756 3084 4391 3084 
Q 3944 3084 3684 2787 
Q 3425 2491 3425 1978 
L 3425 0 
L 2847 0 
L 2847 2094 
Q 2847 2600 2669 2842 
Q 2491 3084 2119 3084 
Q 1678 3084 1418 2786 
Q 1159 2488 1159 1978 
L 1159 0 
L 581 0 
L 581 3500 
L 1159 3500 
L 1159 2956 
Q 1356 3278 1631 3431 
Q 1906 3584 2284 3584 
Q 2666 3584 2933 3390 
Q 3200 3197 3328 2828 
z
" id="DejaVuSans-6d" transform="scale(0.015625)"/>
      <path d="M 581 4863 
L 1159 4863 
L 1159 1991 
L 2875 3500 
L 3609 3500 
L 1753 1863 
L 3688 0 
L 2938 0 
L 1159 1709 
L 1159 0 
L 581 0 
L 581 4863 
z
" id="DejaVuSans-6b" transform="scale(0.015625)"/>
      <path d="M 2034 2216 
Q 1584 2216 1326 1975 
Q 1069 1734 1069 1313 
Q 1069 891 1326 650 
Q 1584 409 2034 409 
Q 2484 409 2743 651 
Q 3003 894 3003 1313 
Q 3003 1734 2745 1975 
Q 2488 2216 2034 2216 
z
M 1403 2484 
Q 997 2584 770 2862 
Q 544 3141 544 3541 
Q 544 4100 942 4425 
Q 1341 4750 2034 4750 
Q 2731 4750 3128 4425 
Q 3525 4100 3525 3541 
Q 3525 3141 3298 2862 
Q 3072 2584 2669 2484 
Q 3125 2378 3379 2068 
Q 3634 1759 3634 1313 
Q 3634 634 3220 271 
Q 2806 -91 2034 -91 
Q 1263 -91 848 271 
Q 434 634 434 1313 
Q 434 1759 690 2068 
Q 947 2378 1403 2484 
z
M 1172 3481 
Q 1172 3119 1398 2916 
Q 1625 2713 2034 2713 
Q 2441 2713 2670 2916 
Q 2900 3119 2900 3481 
Q 2900 3844 2670 4047 
Q 2441 4250 2034 4250 
Q 1625 4250 1398 4047 
Q 1172 3844 1172 3481 
z
" id="DejaVuSans-38" transform="scale(0.015625)"/>
     </defs>
     <use xlink:href="#DejaVuSans-43"/>
     <use x="69.824219" xlink:href="#DejaVuSans-68"/>
     <use x="133.203125" xlink:href="#DejaVuSans-69"/>
     <use x="160.986328" xlink:href="#DejaVuSans-70"/>
     <use x="224.462891" xlink:href="#DejaVuSans-6d"/>
     <use x="321.875" xlink:href="#DejaVuSans-75"/>
     <use x="385.253906" xlink:href="#DejaVuSans-6e"/>
     <use x="448.632812" xlink:href="#DejaVuSans-6b"/>
     <use x="506.542969" xlink:href="#DejaVuSans-20"/>
     <use x="538.330078" xlink:href="#DejaVuSans-38"/>
     <use x="601.953125" xlink:href="#DejaVuSans-2e"/>
     <use x="633.740234" xlink:href="#DejaVuSans-36"/>
     <use x="697.363281" xlink:href="#DejaVuSans-b0"/>
    </g>
   </g>
   <g id="text_8">
    <g id="patch_9">
     <path d="M 106.804472 21.588756 
L 115.177973 37.874354 
L 116.934958 36.970972 
L 108.561456 20.685375 
z
" style="fill:#ffffff;"/>
    </g>
    <!-- Squirrel Run 12.9° -->
    <g style="fill:#008000;" transform="translate(107.20131 21.407205)rotate(-297.210691)scale(0.02 -0.02)">
     <defs>
      <path d="M 3425 4513 
L 3425 3897 
Q 3066 4069 2747 4153 
Q 2428 4238 2131 4238 
Q 1616 4238 1336 4038 
Q 1056 3838 1056 3469 
Q 1056 3159 1242 3001 
Q 1428 2844 1947 2747 
L 2328 2669 
Q 3034 2534 3370 2195 
Q 3706 1856 3706 1288 
Q 3706 609 3251 259 
Q 2797 -91 1919 -91 
Q 1588 -91 1214 -16 
Q 841 59 441 206 
L 441 856 
Q 825 641 1194 531 
Q 1563 422 1919 422 
Q 2459 422 2753 634 
Q 3047 847 3047 1241 
Q 3047 1584 2836 1778 
Q 2625 1972 2144 2069 
L 1759 2144 
Q 1053 2284 737 2584 
Q 422 2884 422 3419 
Q 422 4038 858 4394 
Q 1294 4750 2059 4750 
Q 2388 4750 2728 4690 
Q 3069 4631 3425 4513 
z
" id="DejaVuSans-53" transform="scale(0.015625)"/>
      <path d="M 947 1747 
Q 947 1113 1208 752 
Q 1469 391 1925 391 
Q 2381 391 2643 752 
Q 2906 1113 2906 1747 
Q 2906 2381 2643 2742 
Q 2381 3103 1925 3103 
Q 1469 3103 1208 2742 
Q 947 2381 947 1747 
z
M 2906 525 
Q 2725 213 2448 61 
Q 2172 -91 1784 -91 
Q 1150 -91 751 415 
Q 353 922 353 1747 
Q 353 2572 751 3078 
Q 1150 3584 1784 3584 
Q 2172 3584 2448 3432 
Q 2725 3281 2906 2969 
L 2906 3500 
L 3481 3500 
L 3481 -1331 
L 2906 -1331 
L 2906 525 
z
" id="DejaVuSans-71" transform="scale(0.015625)"/>
      <path d="M 703 97 
L 703 672 
Q 941 559 1184 500 
Q 1428 441 1663 441 
Q 2288 441 2617 861 
Q 2947 1281 2994 2138 
Q 2813 1869 2534 1725 
Q 2256 1581 1919 1581 
Q 1219 1581 811 2004 
Q 403 2428 403 3163 
Q 403 3881 828 4315 
Q 1253 4750 1959 4750 
Q 2769 4750 3195 4129 
Q 3622 3509 3622 2328 
Q 3622 1225 3098 567 
Q 2575 -91 1691 -91 
Q 1453 -91 1209 -44 
Q 966 3 703 97 
z
M 1959 2075 
Q 2384 2075 2632 2365 
Q 2881 2656 2881 3163 
Q 2881 3666 2632 3958 
Q 2384 4250 1959 4250 
Q 1534 4250 1286 3958 
Q 1038 3666 1038 3163 
Q 1038 2656 1286 2365 
Q 1534 2075 1959 2075 
z
" id="DejaVuSans-39" transform="scale(0.015625)"/>
     </defs>
     <use xlink:href="#DejaVuSans-53"/>
     <use x="63.476562" xlink:href="#DejaVuSans-71"/>
     <use x="126.953125" xlink:href="#DejaVuSans-75"/>
     <use x="190.332031" xlink:href="#DejaVuSans-69"/>
     <use x="218.115234" xlink:href="#DejaVuSans-72"/>
     <use x="257.478516" xlink:href="#DejaVuSans-72"/>
     <use x="296.341797" xlink:href="#DejaVuSans-65"/>
     <use x="357.865234" xlink:href="#DejaVuSans-6c"/>
     <use x="385.648438" xlink:href="#DejaVuSans-20"/>
     <use x="417.435547" xlink:href="#DejaVuSans-52"/>
     <use x="482.417969" xlink:href="#DejaVuSans-75"/>
     <use x="545.796875" xlink:href="#DejaVuSans-6e"/>
     <use x="609.175781" xlink:href="#DejaVuSans-20"/>
     <use x="640.962891" xlink:href="#DejaVuSans-31"/>
     <use x="704.585938" xlink:href="#DejaVuSans-32"/>
     <use x="768.208984" xlink:href="#DejaVuSans-2e"/>
     <use x="799.996094" xlink:href="#DejaVuSans-39"/>
     <use x="863.619141" xlink:href="#DejaVuSans-b0"/>
    </g>
   </g>
   <g id="text_9">
    <g id="patch_10">
     <path d="M 97.041025 41.159656 
L 99.265336 30.61227 
L 97.332229 30.204602 
L 95.107918 40.751989 
z
" style="fill:#ffffff;"/>
    </g>
    <!-- Bear 16.4° -->
    <g style="fill:#008000;" transform="translate(96.618596 41.050132)rotate(-78.091533)scale(0.02 -0.02)">
     <defs>
      <path d="M 2419 4116 
L 825 1625 
L 2419 1625 
L 2419 4116 
z
M 2253 4666 
L 3047 4666 
L 3047 1625 
L 3713 1625 
L 3713 1100 
L 3047 1100 
L 3047 0 
L 2419 0 
L 2419 1100 
L 313 1100 
L 313 1709 
L 2253 4666 
z
" id="DejaVuSans-34" transform="scale(0.015625)"/>
     </defs>
     <use xlink:href="#DejaVuSans-42"/>
     <use x="68.603516" xlink:href="#DejaVuSans-65"/>
     <use x="130.126953" xlink:href="#DejaVuSans-61"/>
     <use x="191.40625" xlink:href="#DejaVuSans-72"/>
     <use x="232.519531" xlink:href="#DejaVuSans-20"/>
     <use x="264.306641" xlink:href="#DejaVuSans-31"/>
     <use x="327.929688" xlink:href="#DejaVuSans-36"/>
     <use x="391.552734" xlink:href="#DejaVuSans-2e"/>
     <use x="423.339844" xlink:href="#DejaVuSans-34"/>
     <use x="486.962891" xlink:href="#DejaVuSans-b0"/>
    </g>
   </g>
   <g id="text_10">
    <g id="patch_11">
     <path d="M 102.984091 33.973641 
L 106.122558 50.519553 
L 108.063573 50.151377 
L 104.925106 33.605465 
z
" style="fill:#ffffff;"/>
    </g>
    <!-- Otter Slide 14.0° -->
    <g style="fill:#008000;" transform="translate(103.416119 33.912049)rotate(-280.740397)scale(0.02 -0.02)">
     <defs>
      <path d="M 2522 4238 
Q 1834 4238 1429 3725 
Q 1025 3213 1025 2328 
Q 1025 1447 1429 934 
Q 1834 422 2522 422 
Q 3209 422 3611 934 
Q 4013 1447 4013 2328 
Q 4013 3213 3611 3725 
Q 3209 4238 2522 4238 
z
M 2522 4750 
Q 3503 4750 4090 4092 
Q 4678 3434 4678 2328 
Q 4678 1225 4090 567 
Q 3503 -91 2522 -91 
Q 1538 -91 948 565 
Q 359 1222 359 2328 
Q 359 3434 948 4092 
Q 1538 4750 2522 4750 
z
" id="DejaVuSans-4f" transform="scale(0.015625)"/>
      <path d="M 2906 2969 
L 2906 4863 
L 3481 4863 
L 3481 0 
L 2906 0 
L 2906 525 
Q 2725 213 2448 61 
Q 2172 -91 1784 -91 
Q 1150 -91 751 415 
Q 353 922 353 1747 
Q 353 2572 751 3078 
Q 1150 3584 1784 3584 
Q 2172 3584 2448 3432 
Q 2725 3281 2906 2969 
z
M 947 1747 
Q 947 1113 1208 752 
Q 1469 391 1925 391 
Q 2381 391 2643 752 
Q 2906 1113 2906 1747 
Q 2906 2381 2643 2742 
Q 2381 3103 1925 3103 
Q 1469 3103 1208 2742 
Q 947 2381 947 1747 
z
" id="DejaVuSans-64" transform="scale(0.015625)"/>
     </defs>
     <use xlink:href="#DejaVuSans-4f"/>
     <use x="78.710938" xlink:href="#DejaVuSans-74"/>
     <use x="117.919922" xlink:href="#DejaVuSans-74"/>
     <use x="157.128906" xlink:href="#DejaVuSans-65"/>
     <use x="218.652344" xlink:href="#DejaVuSans-72"/>
     <use x="259.765625" xlink:href="#DejaVuSans-20"/>
     <use x="291.552734" xlink:href="#DejaVuSans-53"/>
     <use x="355.029297" xlink:href="#DejaVuSans-6c"/>
     <use x="382.8125" xlink:href="#DejaVuSans-69"/>
     <use x="410.595703" xlink:href="#DejaVuSans-64"/>
     <use x="474.072266" xlink:href="#DejaVuSans-65"/>
     <use x="535.595703" xlink:href="#DejaVuSans-20"/>
     <use x="567.382812" xlink:href="#DejaVuSans-31"/>
     <use x="631.005859" xlink:href="#DejaVuSans-34"/>
     <use x="694.628906" xlink:href="#DejaVuSans-2e"/>
     <use x="726.416016" xlink:href="#DejaVuSans-30"/>
     <use x="790.039062" xlink:href="#DejaVuSans-b0"/>
    </g>
   </g>
   <g id="text_11">
    <g id="patch_12">
     <path d="M 35.359428 39.451256 
L 37.265257 52.483893 
L 39.220091 52.198028 
L 37.314262 39.16539 
z
" style="fill:#ffffff;"/>
    </g>
    <!-- Coyote 29.7° -->
    <g transform="translate(35.793672 39.407967)rotate(-278.319685)scale(0.02 -0.02)">
     <defs>
      <path d="M 2059 -325 
Q 1816 -950 1584 -1140 
Q 1353 -1331 966 -1331 
L 506 -1331 
L 506 -850 
L 844 -850 
Q 1081 -850 1212 -737 
Q 1344 -625 1503 -206 
L 1606 56 
L 191 3500 
L 800 3500 
L 1894 763 
L 2988 3500 
L 3597 3500 
L 2059 -325 
z
" id="DejaVuSans-79" transform="scale(0.015625)"/>
     </defs>
     <use xlink:href="#DejaVuSans-43"/>
     <use x="69.824219" xlink:href="#DejaVuSans-6f"/>
     <use x="131.005859" xlink:href="#DejaVuSans-79"/>
     <use x="190.185547" xlink:href="#DejaVuSans-6f"/>
     <use x="251.367188" xlink:href="#DejaVuSans-74"/>
     <use x="290.576172" xlink:href="#DejaVuSans-65"/>
     <use x="352.099609" xlink:href="#DejaVuSans-20"/>
     <use x="383.886719" xlink:href="#DejaVuSans-32"/>
     <use x="447.509766" xlink:href="#DejaVuSans-39"/>
     <use x="511.132812" xlink:href="#DejaVuSans-2e"/>
     <use x="542.919922" xlink:href="#DejaVuSans-37"/>
     <use x="606.542969" xlink:href="#DejaVuSans-b0"/>
    </g>
   </g>
   <g id="text_12">
    <g id="patch_13">
     <path d="M 53.184887 33.941243 
L 67.321435 34.558101 
L 67.407561 32.584354 
L 53.271013 31.967496 
z
" style="fill:#ffffff;"/>
    </g>
    <!-- Deer Run 8.8° -->
    <g style="fill:#008000;" transform="translate(53.223872 33.506592)rotate(-357.501445)scale(0.02 -0.02)">
     <defs>
      <path d="M 1259 4147 
L 1259 519 
L 2022 519 
Q 2988 519 3436 956 
Q 3884 1394 3884 2338 
Q 3884 3275 3436 3711 
Q 2988 4147 2022 4147 
L 1259 4147 
z
M 628 4666 
L 1925 4666 
Q 3281 4666 3915 4102 
Q 4550 3538 4550 2338 
Q 4550 1131 3912 565 
Q 3275 0 1925 0 
L 628 0 
L 628 4666 
z
" id="DejaVuSans-44" transform="scale(0.015625)"/>
     </defs>
     <use xlink:href="#DejaVuSans-44"/>
     <use x="77.001953" xlink:href="#DejaVuSans-65"/>
     <use x="138.525391" xlink:href="#DejaVuSans-65"/>
     <use x="200.048828" xlink:href="#DejaVuSans-72"/>
     <use x="241.162109" xlink:href="#DejaVuSans-20"/>
     <use x="272.949219" xlink:href="#DejaVuSans-52"/>
     <use x="337.931641" xlink:href="#DejaVuSans-75"/>
     <use x="401.310547" xlink:href="#DejaVuSans-6e"/>
     <use x="464.689453" xlink:href="#DejaVuSans-20"/>
     <use x="496.476562" xlink:href="#DejaVuSans-38"/>
     <use x="560.099609" xlink:href="#DejaVuSans-2e"/>
     <use x="591.886719" xlink:href="#DejaVuSans-38"/>
     <use x="655.509766" xlink:href="#DejaVuSans-b0"/>
    </g>
   </g>
   <g id="text_13">
    <g id="patch_14">
     <path d="M 86.733473 40.278927 
L 90.228435 60.434408 
L 92.175012 60.096871 
L 88.68005 39.941391 
z
" style="fill:#ffffff;"/>
    </g>
    <!-- Lower Foxhole 13.4° -->
    <g style="fill:#008000;" transform="translate(87.166418 40.224153)rotate(-279.837276)scale(0.02 -0.02)">
     <defs>
      <path d="M 269 3500 
L 844 3500 
L 1563 769 
L 2278 3500 
L 2956 3500 
L 3675 769 
L 4391 3500 
L 4966 3500 
L 4050 0 
L 3372 0 
L 2619 2869 
L 1863 0 
L 1184 0 
L 269 3500 
z
" id="DejaVuSans-77" transform="scale(0.015625)"/>
      <path d="M 628 4666 
L 3309 4666 
L 3309 4134 
L 1259 4134 
L 1259 2759 
L 3109 2759 
L 3109 2228 
L 1259 2228 
L 1259 0 
L 628 0 
L 628 4666 
z
" id="DejaVuSans-46" transform="scale(0.015625)"/>
      <path d="M 3513 3500 
L 2247 1797 
L 3578 0 
L 2900 0 
L 1881 1375 
L 863 0 
L 184 0 
L 1544 1831 
L 300 3500 
L 978 3500 
L 1906 2253 
L 2834 3500 
L 3513 3500 
z
" id="DejaVuSans-78" transform="scale(0.015625)"/>
     </defs>
     <use xlink:href="#DejaVuSans-4c"/>
     <use x="53.962891" xlink:href="#DejaVuSans-6f"/>
     <use x="115.144531" xlink:href="#DejaVuSans-77"/>
     <use x="196.931641" xlink:href="#DejaVuSans-65"/>
     <use x="258.455078" xlink:href="#DejaVuSans-72"/>
     <use x="299.568359" xlink:href="#DejaVuSans-20"/>
     <use x="331.355469" xlink:href="#DejaVuSans-46"/>
     <use x="385.25" xlink:href="#DejaVuSans-6f"/>
     <use x="443.306641" xlink:href="#DejaVuSans-78"/>
     <use x="502.486328" xlink:href="#DejaVuSans-68"/>
     <use x="565.865234" xlink:href="#DejaVuSans-6f"/>
     <use x="627.046875" xlink:href="#DejaVuSans-6c"/>
     <use x="654.830078" xlink:href="#DejaVuSans-65"/>
     <use x="716.353516" xlink:href="#DejaVuSans-20"/>
     <use x="748.140625" xlink:href="#DejaVuSans-31"/>
     <use x="811.763672" xlink:href="#DejaVuSans-33"/>
     <use x="875.386719" xlink:href="#DejaVuSans-2e"/>
     <use x="907.173828" xlink:href="#DejaVuSans-34"/>
     <use x="970.796875" xlink:href="#DejaVuSans-b0"/>
    </g>
   </g>
   <g id="text_14">
    <!-- Lost Valley -->
    <g transform="translate(39.281342 9.470053)scale(0.08 -0.08)">
     <defs>
      <path d="M 1831 0 
L 50 4666 
L 709 4666 
L 2188 738 
L 3669 4666 
L 4325 4666 
L 2547 0 
L 1831 0 
z
" id="DejaVuSans-56" transform="scale(0.015625)"/>
     </defs>
     <use xlink:href="#DejaVuSans-4c"/>
     <use x="53.962891" xlink:href="#DejaVuSans-6f"/>
     <use x="115.144531" xlink:href="#DejaVuSans-73"/>
     <use x="167.244141" xlink:href="#DejaVuSans-74"/>
     <use x="206.453125" xlink:href="#DejaVuSans-20"/>
     <use x="238.240234" xlink:href="#DejaVuSans-56"/>
     <use x="298.898438" xlink:href="#DejaVuSans-61"/>
     <use x="360.177734" xlink:href="#DejaVuSans-6c"/>
     <use x="387.960938" xlink:href="#DejaVuSans-6c"/>
     <use x="415.744141" xlink:href="#DejaVuSans-65"/>
     <use x="477.267578" xlink:href="#DejaVuSans-79"/>
    </g>
   </g>
   <g id="legend_1">
    <g id="line2d_30">
     <path d="M 4.737905 63.311336 
L 12.737905 63.311336 
" style="fill:none;stroke:#008000;stroke-linecap:square;stroke-width:1.5;"/>
    </g>
    <g id="line2d_31"/>
    <g id="text_15">
     <!-- Easy -->
     <g transform="translate(15.937905 64.711336)scale(0.04 -0.04)">
      <defs>
       <path d="M 628 4666 
L 3578 4666 
L 3578 4134 
L 1259 4134 
L 1259 2753 
L 3481 2753 
L 3481 2222 
L 1259 2222 
L 1259 531 
L 3634 531 
L 3634 0 
L 628 0 
L 628 4666 
z
" id="DejaVuSans-45" transform="scale(0.015625)"/>
      </defs>
      <use xlink:href="#DejaVuSans-45"/>
      <use x="63.183594" xlink:href="#DejaVuSans-61"/>
      <use x="124.462891" xlink:href="#DejaVuSans-73"/>
      <use x="176.5625" xlink:href="#DejaVuSans-79"/>
     </g>
    </g>
    <g id="line2d_32">
     <path d="M 4.737905 69.182586 
L 12.737905 69.182586 
" style="fill:none;stroke:#4169e1;stroke-linecap:square;stroke-width:1.5;"/>
    </g>
    <g id="line2d_33"/>
    <g id="text_16">
     <!-- Intermediate -->
     <g transform="translate(15.937905 70.582586)scale(0.04 -0.04)">
      <defs>
       <path d="M 628 4666 
L 1259 4666 
L 1259 0 
L 628 0 
L 628 4666 
z
" id="DejaVuSans-49" transform="scale(0.015625)"/>
      </defs>
      <use xlink:href="#DejaVuSans-49"/>
      <use x="29.492188" xlink:href="#DejaVuSans-6e"/>
      <use x="92.871094" xlink:href="#DejaVuSans-74"/>
      <use x="132.080078" xlink:href="#DejaVuSans-65"/>
      <use x="193.603516" xlink:href="#DejaVuSans-72"/>
      <use x="232.966797" xlink:href="#DejaVuSans-6d"/>
      <use x="330.378906" xlink:href="#DejaVuSans-65"/>
      <use x="391.902344" xlink:href="#DejaVuSans-64"/>
      <use x="455.378906" xlink:href="#DejaVuSans-69"/>
      <use x="483.162109" xlink:href="#DejaVuSans-61"/>
      <use x="544.441406" xlink:href="#DejaVuSans-74"/>
      <use x="583.650391" xlink:href="#DejaVuSans-65"/>
     </g>
    </g>
    <g id="line2d_34">
     <path d="M 49.745405 63.311336 
L 57.745405 63.311336 
" style="fill:none;stroke:#000000;stroke-linecap:square;stroke-width:1.5;"/>
    </g>
    <g id="line2d_35"/>
    <g id="text_17">
     <!-- Advanced -->
     <g transform="translate(60.945405 64.711336)scale(0.04 -0.04)">
      <defs>
       <path d="M 2188 4044 
L 1331 1722 
L 3047 1722 
L 2188 4044 
z
M 1831 4666 
L 2547 4666 
L 4325 0 
L 3669 0 
L 3244 1197 
L 1141 1197 
L 716 0 
L 50 0 
L 1831 4666 
z
" id="DejaVuSans-41" transform="scale(0.015625)"/>
       <path d="M 191 3500 
L 800 3500 
L 1894 563 
L 2988 3500 
L 3597 3500 
L 2284 0 
L 1503 0 
L 191 3500 
z
" id="DejaVuSans-76" transform="scale(0.015625)"/>
      </defs>
      <use xlink:href="#DejaVuSans-41"/>
      <use x="66.658203" xlink:href="#DejaVuSans-64"/>
      <use x="130.134766" xlink:href="#DejaVuSans-76"/>
      <use x="189.314453" xlink:href="#DejaVuSans-61"/>
      <use x="250.59375" xlink:href="#DejaVuSans-6e"/>
      <use x="313.972656" xlink:href="#DejaVuSans-63"/>
      <use x="368.953125" xlink:href="#DejaVuSans-65"/>
      <use x="430.476562" xlink:href="#DejaVuSans-64"/>
     </g>
    </g>
    <g id="line2d_36">
     <path d="M 49.745405 69.182586 
L 57.745405 69.182586 
" style="fill:none;stroke:#ff0000;stroke-linecap:square;stroke-width:1.5;"/>
    </g>
    <g id="line2d_37"/>
    <g id="text_18">
     <!-- Expert -->
     <g transform="translate(60.945405 70.582586)scale(0.04 -0.04)">
      <use xlink:href="#DejaVuSans-45"/>
      <use x="63.183594" xlink:href="#DejaVuSans-78"/>
      <use x="122.363281" xlink:href="#DejaVuSans-70"/>
      <use x="185.839844" xlink:href="#DejaVuSans-65"/>
      <use x="247.363281" xlink:href="#DejaVuSans-72"/>
      <use x="288.476562" xlink:href="#DejaVuSans-74"/>
     </g>
    </g>
    <g id="line2d_38">
     <path d="M 88.70478 63.311336 
L 96.70478 63.311336 
" style="fill:none;stroke:#ffd700;stroke-linecap:square;stroke-width:1.5;"/>
    </g>
    <g id="line2d_39"/>
    <g id="text_19">
     <!-- Extreme -->
     <g transform="translate(99.90478 64.711336)scale(0.04 -0.04)">
      <use xlink:href="#DejaVuSans-45"/>
      <use x="63.183594" xlink:href="#DejaVuSans-78"/>
      <use x="122.363281" xlink:href="#DejaVuSans-74"/>
      <use x="161.572266" xlink:href="#DejaVuSans-72"/>
      <use x="200.435547" xlink:href="#DejaVuSans-65"/>
      <use x="261.958984" xlink:href="#DejaVuSans-6d"/>
      <use x="359.371094" xlink:href="#DejaVuSans-65"/>
     </g>
    </g>
    <g id="line2d_40">
     <path d="M 88.70478 69.182586 
L 96.70478 69.182586 
" style="fill:none;stroke:#000000;stroke-dasharray:1.5,2.475;stroke-dashoffset:0;stroke-width:1.5;"/>
    </g>
    <g id="line2d_41"/>
    <g id="text_20">
     <!-- Gladed -->
     <g transform="translate(99.90478 70.582586)scale(0.04 -0.04)">
      <defs>
       <path d="M 3809 666 
L 3809 1919 
L 2778 1919 
L 2778 2438 
L 4434 2438 
L 4434 434 
Q 4069 175 3628 42 
Q 3188 -91 2688 -91 
Q 1594 -91 976 548 
Q 359 1188 359 2328 
Q 359 3472 976 4111 
Q 1594 4750 2688 4750 
Q 3144 4750 3555 4637 
Q 3966 4525 4313 4306 
L 4313 3634 
Q 3963 3931 3569 4081 
Q 3175 4231 2741 4231 
Q 1884 4231 1454 3753 
Q 1025 3275 1025 2328 
Q 1025 1384 1454 906 
Q 1884 428 2741 428 
Q 3075 428 3337 486 
Q 3600 544 3809 666 
z
" id="DejaVuSans-47" transform="scale(0.015625)"/>
      </defs>
      <use xlink:href="#DejaVuSans-47"/>
      <use x="77.490234" xlink:href="#DejaVuSans-6c"/>
      <use x="105.273438" xlink:href="#DejaVuSans-61"/>
      <use x="166.552734" xlink:href="#DejaVuSans-64"/>
      <use x="230.029297" xlink:href="#DejaVuSans-65"/>
      <use x="291.552734" xlink:href="#DejaVuSans-64"/>
     </g>
    </g>
   </g>
  </g>
  <g id="text_21">
   <!-- Sources: USGS and OpenStreetMaps -->
   <g transform="translate(29.010935 78.85139)scale(0.034783 -0.034783)">
    <defs>
     <path d="M 750 794 
L 1409 794 
L 1409 0 
L 750 0 
L 750 794 
z
M 750 3309 
L 1409 3309 
L 1409 2516 
L 750 2516 
L 750 3309 
z
" id="DejaVuSans-3a" transform="scale(0.015625)"/>
     <path d="M 556 4666 
L 1191 4666 
L 1191 1831 
Q 1191 1081 1462 751 
Q 1734 422 2344 422 
Q 2950 422 3222 751 
Q 3494 1081 3494 1831 
L 3494 4666 
L 4128 4666 
L 4128 1753 
Q 4128 841 3676 375 
Q 3225 -91 2344 -91 
Q 1459 -91 1007 375 
Q 556 841 556 1753 
L 556 4666 
z
" id="DejaVuSans-55" transform="scale(0.015625)"/>
    </defs>
    <use xlink:href="#DejaVuSans-53"/>
    <use x="63.476562" xlink:href="#DejaVuSans-6f"/>
    <use x="124.658203" xlink:href="#DejaVuSans-75"/>
    <use x="188.037109" xlink:href="#DejaVuSans-72"/>
    <use x="226.900391" xlink:href="#DejaVuSans-63"/>
    <use x="281.880859" xlink:href="#DejaVuSans-65"/>
    <use x="343.404297" xlink:href="#DejaVuSans-73"/>
    <use x="395.503906" xlink:href="#DejaVuSans-3a"/>
    <use x="429.195312" xlink:href="#DejaVuSans-20"/>
    <use x="460.982422" xlink:href="#DejaVuSans-55"/>
    <use x="534.175781" xlink:href="#DejaVuSans-53"/>
    <use x="597.652344" xlink:href="#DejaVuSans-47"/>
    <use x="675.142578" xlink:href="#DejaVuSans-53"/>
    <use x="738.619141" xlink:href="#DejaVuSans-20"/>
    <use x="770.40625" xlink:href="#DejaVuSans-61"/>
    <use x="831.685547" xlink:href="#DejaVuSans-6e"/>
    <use x="895.064453" xlink:href="#DejaVuSans-64"/>
    <use x="958.541016" xlink:href="#DejaVuSans-20"/>
    <use x="990.328125" xlink:href="#DejaVuSans-4f"/>
    <use x="1069.039062" xlink:href="#DejaVuSans-70"/>
    <use x="1132.515625" xlink:href="#DejaVuSans-65"/>
    <use x="1194.039062" xlink:href="#DejaVuSans-6e"/>
    <use x="1257.417969" xlink:href="#DejaVuSans-53"/>
    <use x="1320.894531" xlink:href="#DejaVuSans-74"/>
    <use x="1360.103516" xlink:href="#DejaVuSans-72"/>
    <use x="1398.966797" xlink:href="#DejaVuSans-65"/>
    <use x="1460.490234" xlink:href="#DejaVuSans-65"/>
    <use x="1522.013672" xlink:href="#DejaVuSans-74"/>
    <use x="1561.222656" xlink:href="#DejaVuSans-4d"/>
    <use x="1647.501953" xlink:href="#DejaVuSans-61"/>
    <use x="1708.78125" xlink:href="#DejaVuSans-70"/>
    <use x="1772.257812" xlink:href="#DejaVuSans-73"/>
   </g>
  </g>
 </g>
 <defs>
  <clipPath id="p23fa7bb3da">
   <rect height="52.634653" width="121.478935" x="0" y="13.470053"/>
  </clipPath>
 </defs>
</svg>
