<?xml version="1.0" encoding="utf-8" standalone="no"?>
<!DOCTYPE svg PUBLIC "-//W3C//DTD SVG 1.1//EN"
  "http://www.w3.org/Graphics/SVG/1.1/DTD/svg11.dtd">
<svg height="122.94104pt" version="1.1" viewBox="0 0 126.574607 122.94104" width="126.574607pt" xmlns="http://www.w3.org/2000/svg" xmlns:xlink="http://www.w3.org/1999/xlink">
 <metadata>
  <rdf:RDF xmlns:cc="http://creativecommons.org/ns#" xmlns:dc="http://purl.org/dc/elements/1.1/" xmlns:rdf="http://www.w3.org/1999/02/22-rdf-syntax-ns#">
   <cc:Work>
    <dc:type rdf:resource="http://purl.org/dc/dcmitype/StillImage"/>
    <dc:date>2022-04-14T21:30:32.523624</dc:date>
    <dc:format>image/svg+xml</dc:format>
    <dc:creator>
     <cc:Agent>
      <dc:title>Matplotlib v3.4.3, https://matplotlib.org/</dc:title>
     </cc:Agent>
    </dc:creator>
   </cc:Work>
  </rdf:RDF>
 </metadata>
 <defs>
  <style type="text/css">*{stroke-linecap:butt;stroke-linejoin:round;}</style>
 </defs>
 <g id="figure_1">
  <g id="patch_1">
   <path d="M 0 122.94104 
L 126.574607 122.94104 
L 126.574607 0 
L 0 0 
z
" style="fill:#ffffff;"/>
  </g>
  <g id="axes_1">
   <g id="line2d_1">
    <path clip-path="url(#pca85d5d0b4)" d="M 58.036855 29.268585 
" style="fill:none;stroke:#008000;stroke-linecap:square;stroke-width:1.5;"/>
   </g>
   <g id="line2d_2">
    <path clip-path="url(#pca85d5d0b4)" d="M 58.036855 29.268585 
" style="fill:none;stroke:#4169e1;stroke-linecap:square;stroke-width:1.5;"/>
   </g>
   <g id="line2d_3">
    <path clip-path="url(#pca85d5d0b4)" d="M 58.036855 29.268585 
" style="fill:none;stroke:#000000;stroke-linecap:square;stroke-width:1.5;"/>
   </g>
   <g id="line2d_4">
    <path clip-path="url(#pca85d5d0b4)" d="M 58.036855 29.268585 
" style="fill:none;stroke:#ff0000;stroke-linecap:square;stroke-width:1.5;"/>
   </g>
   <g id="line2d_5">
    <path clip-path="url(#pca85d5d0b4)" d="M 58.036855 29.268585 
" style="fill:none;stroke:#ffd700;stroke-linecap:square;stroke-width:1.5;"/>
   </g>
   <g id="line2d_6">
    <path clip-path="url(#pca85d5d0b4)" d="M 58.036855 29.268585 
" style="fill:none;stroke:#000000;stroke-dasharray:1.5,2.475;stroke-dashoffset:0;stroke-width:1.5;"/>
   </g>
   <g id="line2d_7">
    <path clip-path="url(#pca85d5d0b4)" d="M 69.107161 105.797292 
L 68.042546 99.701837 
L 66.977932 93.606382 
L 65.913317 87.510927 
L 64.848703 81.415472 
L 63.896313 75.963167 
L 62.943922 70.510863 
L 61.991531 65.058558 
L 61.039141 59.606254 
L 60.08675 54.153949 
L 59.13436 48.701645 
L 58.181969 43.24934 
L 57.229579 37.797036 
L 56.661223 34.542385 
L 56.092867 31.287734 
" style="fill:none;stroke:#808080;stroke-linecap:square;stroke-width:1.5;"/>
   </g>
   <g id="line2d_8">
    <path clip-path="url(#pca85d5d0b4)" d="M 81.606777 92.179053 
L 79.984858 87.525491 
L 78.362939 82.87193 
L 76.74102 78.218368 
L 75.119101 73.564807 
" style="fill:none;stroke:#808080;stroke-linecap:square;stroke-width:1.5;"/>
   </g>
   <g id="line2d_9">
    <path clip-path="url(#pca85d5d0b4)" d="M 76.888372 94.098736 
L 75.859214 90.626326 
L 74.830056 87.153917 
L 73.800898 83.681507 
L 72.77174 80.209098 
L 71.742582 76.736689 
L 70.713424 73.264279 
L 69.684266 69.79187 
L 68.655108 66.31946 
L 67.62595 62.847051 
L 66.596792 59.374641 
L 65.567634 55.902232 
L 64.538476 52.429822 
L 63.509318 48.957413 
L 62.48016 45.485004 
L 61.451002 42.012594 
L 60.421844 38.540185 
" style="fill:none;stroke:#808080;stroke-linecap:square;stroke-width:1.5;"/>
   </g>
   <g id="line2d_10">
    <path clip-path="url(#pca85d5d0b4)" d="M 118.815131 74.523938 
L 117.918129 70.325964 
L 117.021126 66.127989 
L 116.124124 61.930015 
L 115.227122 57.732041 
L 114.33012 53.534066 
L 113.433118 49.336092 
L 112.536116 45.138118 
L 111.639114 40.940144 
" style="fill:none;stroke:#808080;stroke-linecap:square;stroke-width:1.5;"/>
   </g>
   <g id="line2d_11">
    <path clip-path="url(#pca85d5d0b4)" d="M 93.108612 88.486043 
L 92.580252 83.832126 
L 92.051892 79.17821 
L 91.523531 74.524293 
L 90.995171 69.870376 
" style="fill:none;stroke:#808080;stroke-linecap:square;stroke-width:1.5;"/>
   </g>
   <g id="line2d_12">
    <path clip-path="url(#pca85d5d0b4)" d="M 58.036855 29.268585 
L 59.730344 29.268585 
L 60.972307 29.599663 
L 61.423834 30.922553 
L 60.633398 32.521105 
L 59.842963 34.119657 
L 59.189617 35.039001 
L 58.536271 35.958346 
L 57.882925 36.877691 
L 57.229579 37.797036 
L 56.164964 38.54871 
L 55.10035 39.300385 
L 53.632624 38.969307 
L 52.164898 38.638229 
L 50.8661 37.839309 
L 49.567302 37.040388 
L 48.268504 36.241467 
L 46.969706 35.442547 
L 45.86878 35.38713 
L 44.767854 35.331714 
L 43.666928 35.276298 
L 42.566001 35.220881 
L 41.702943 35.632952 
L 40.7049 36.10861 
L 39.706856 36.584268 
L 38.708813 37.059926 
L 37.71077 37.535584 
L 36.604055 38.386724 
L 35.49734 39.237864 
L 33.98383 40.401609 
L 33.02394 41.283655 
L 32.064051 42.1657 
L 31.104161 43.047745 
L 30.144272 43.92979 
L 29.381991 44.89425 
L 28.61971 45.858709 
L 27.857429 46.823169 
L 27.095148 47.787628 
L 26.02264 48.628111 
L 24.950132 49.468594 
L 23.877624 50.309077 
L 22.805115 51.14956 
L 22.353325 52.637634 
L 21.901535 54.125708 
L 21.449745 55.613782 
L 20.997955 57.101856 
L 21.110836 58.093846 
L 21.223718 59.085836 
L 21.3366 60.077826 
L 21.449482 61.069817 
L 21.562363 62.061807 
L 21.675245 63.053797 
L 21.788127 64.045787 
L 21.901009 65.037777 
L 22.306751 66.384113 
L 22.712494 67.730448 
L 23.118237 69.076784 
L 23.52398 70.42312 
L 23.841838 71.477454 
L 24.159696 72.531787 
L 25.239572 73.958406 
L 26.319448 75.385024 
L 27.159352 76.494064 
L 27.999255 77.603104 
L 28.817977 78.264371 
L 29.636698 78.925639 
L 30.45542 79.586906 
L 31.274142 80.248174 
L 32.092863 80.909441 
L 32.911585 81.570709 
L 33.730307 82.231976 
L 34.549028 82.893244 
L 35.790991 83.995534 
L 37.032953 85.097824 
L 38.274916 86.200114 
L 39.516878 87.302405 
L 40.53334 88.62494 
L 41.549802 89.947475 
L 42.566265 91.27001 
L 43.582727 92.592545 
L 44.542353 93.309051 
L 45.50198 94.025558 
L 46.461606 94.742064 
L 47.421233 95.45857 
L 48.534 96.137422 
L 49.646766 96.816274 
L 50.759533 97.495125 
L 51.8723 98.173977 
L 53.260562 99.020854 
L 54.648823 99.867731 
L 56.00393 100.528999 
L 57.359038 101.190266 
L 58.714145 101.851534 
L 60.069252 102.512801 
L 61.42436 103.174069 
L 62.779467 103.835336 
L 64.134575 104.496604 
L 65.489682 105.157871 
" style="fill:none;stroke:#4169e1;stroke-linecap:square;stroke-width:1.5;"/>
   </g>
   <g id="line2d_13">
    <path clip-path="url(#pca85d5d0b4)" d="M 113.593626 42.551484 
L 114.158298 43.378113 
L 114.72297 44.204741 
L 115.287642 45.03137 
L 115.852313 45.857999 
L 116.416985 47.01535 
L 116.981657 48.172702 
L 117.546329 49.330053 
L 118.111001 50.487405 
L 118.506219 51.920417 
L 118.901437 53.35343 
L 119.296654 54.786443 
L 119.691872 56.219456 
L 119.804754 57.541991 
L 119.917636 58.864526 
L 120.030517 60.187061 
L 120.143399 61.509596 
L 120.228126 62.915078 
L 120.312853 64.32056 
L 120.39758 65.726042 
L 120.482308 67.131524 
L 120.567035 68.537007 
L 120.651762 69.942489 
L 120.736489 71.347971 
L 120.821216 72.753453 
" style="fill:none;stroke:#4169e1;stroke-linecap:square;stroke-width:1.5;"/>
   </g>
   <g id="line2d_14">
    <path clip-path="url(#pca85d5d0b4)" d="M 111.639114 40.940144 
L 111.168115 42.224669 
L 110.697117 43.509194 
L 110.226118 44.793719 
L 109.75512 46.078244 
L 109.359902 47.841979 
L 108.964684 49.605715 
L 108.569466 51.36945 
L 108.174249 53.133185 
L 108.117676 54.951982 
L 108.061104 56.770778 
L 108.004531 58.589575 
L 107.947959 60.408371 
L 108.286736 61.3453 
L 108.625513 62.282229 
L 108.96429 63.219158 
L 109.303066 64.156087 
L 109.641843 65.093016 
L 109.98062 66.029945 
L 110.319397 66.966874 
L 110.658174 67.903803 
L 111.787254 69.171276 
L 112.916335 70.43875 
L 114.045416 71.706224 
L 115.174497 72.973698 
" style="fill:none;stroke:#008000;stroke-linecap:square;stroke-width:1.5;"/>
   </g>
   <g id="line2d_15">
    <path clip-path="url(#pca85d5d0b4)" d="M 109.077303 40.401609 
L 108.173722 41.504255 
L 107.270142 42.6069 
L 106.197634 43.268345 
L 105.125126 43.92979 
L 104.221545 44.645942 
L 103.317965 45.362093 
L 102.640148 46.905228 
L 101.680785 48.228118 
L 100.721421 49.551009 
L 99.930723 50.129684 
L 99.140024 50.70836 
L 98.349326 51.287036 
L 97.558627 51.865711 
L 96.825027 52.637279 
L 96.091427 53.408847 
L 95.6399 54.620904 
L 95.808828 55.723549 
L 95.977756 56.826195 
L 96.825027 58.148375 
L 97.672298 59.470554 
L 98.801116 60.352245 
L 99.929933 61.233935 
L 101.398186 61.840674 
L 102.866438 62.447413 
L 104.221545 63.21898 
L 105.576653 63.990548 
L 106.084752 64.927299 
L 106.592852 65.864051 
L 107.100951 66.800802 
L 107.609051 67.737553 
L 108.822858 68.949966 
L 110.036666 70.162378 
L 111.250474 71.374791 
L 112.464282 72.587204 
L 113.650461 73.468894 
L 114.836641 74.350584 
" style="fill:none;stroke:#008000;stroke-linecap:square;stroke-width:1.5;"/>
   </g>
   <g id="line2d_16">
    <path clip-path="url(#pca85d5d0b4)" d="M 91.91296 70.383334 
L 92.647086 71.926469 
L 93.381212 73.469604 
L 93.748276 74.792139 
L 94.115339 76.114674 
L 94.482402 77.437209 
L 94.849465 78.759744 
L 94.849465 79.889743 
L 94.849465 81.019741 
L 94.849465 82.14974 
L 94.849465 83.279738 
L 94.792892 84.464442 
L 94.73632 85.649147 
L 94.679747 86.833851 
L 94.623175 88.018556 
" style="fill:none;stroke:#008000;stroke-linecap:square;stroke-width:1.5;"/>
   </g>
   <g id="line2d_17">
    <path clip-path="url(#pca85d5d0b4)" d="M 76.44316 73.138526 
L 77.854576 74.295878 
L 79.265993 75.453229 
L 79.774093 76.279858 
L 80.282192 77.106487 
L 80.790291 77.933116 
L 81.298391 78.759744 
L 81.975682 80.248174 
L 82.652972 81.736603 
L 82.935571 83.334444 
L 83.21817 84.932285 
L 83.331052 86.392651 
L 83.443934 87.853017 
L 83.556816 89.313383 
L 83.669697 90.773748 
" style="fill:none;stroke:#4169e1;stroke-linecap:square;stroke-width:1.5;"/>
   </g>
   <g id="line2d_18">
    <path clip-path="url(#pca85d5d0b4)" d="M 61.423834 30.922553 
L 62.609487 30.536769 
L 63.79514 30.150986 
L 64.472957 29.159173 
L 65.037629 28.332189 
L 65.602301 27.505205 
L 66.279591 26.127609 
L 66.956882 24.750012 
L 67.747317 23.427122 
L 68.537753 22.104232 
L 69.667096 21.938693 
L 70.79644 21.773154 
L 71.925784 21.277248 
L 73.055128 20.781342 
L 73.845564 19.403745 
L 74.635999 18.026149 
L 76.21687 17.584949 
L 77.797741 17.143748 
L 78.870249 17.529532 
L 79.942757 17.915316 
L 81.015792 19.072667 
L 82.088826 20.230019 
L 82.738225 21.084356 
L 83.387624 21.938693 
L 84.037024 22.79303 
L 84.686423 23.647367 
L 85.702622 25.190502 
L 86.71882 26.733637 
L 88.017092 27.670744 
L 89.315364 28.60785 
L 90.670471 29.103757 
L 92.025579 29.599663 
L 93.041778 30.316525 
L 94.057977 31.033386 
L 94.679484 32.355566 
L 95.300992 33.677746 
L 95.470183 34.807744 
L 95.639374 35.937743 
L 95.808565 37.067741 
L 95.977756 38.197739 
L 95.921447 39.685458 
L 95.865137 41.173177 
L 95.300466 42.385945 
L 94.735794 43.598713 
L 94.538185 45.169556 
L 94.340576 46.7404 
L 94.142967 48.311243 
L 93.945358 49.882086 
L 93.973513 50.901607 
L 94.001667 51.921128 
L 94.029822 52.940649 
L 94.057977 53.960169 
" style="fill:none;stroke:#4169e1;stroke-linecap:square;stroke-width:1.5;"/>
   </g>
   <g id="line2d_19">
    <path clip-path="url(#pca85d5d0b4)" d="M 96.091427 53.408847 
L 95.074702 53.684508 
L 94.057977 53.960169 
L 93.436996 54.731737 
L 92.816014 55.503304 
L 92.420797 56.770778 
L 92.025579 58.038252 
L 91.404598 59.388495 
L 90.783616 60.738739 
L 90.162635 62.088982 
L 89.541654 63.439225 
L 89.118281 64.486454 
L 88.694909 65.533683 
L 88.271537 66.580912 
L 87.848164 67.628141 
L 87.565828 69.33646 
L 87.283492 71.044779 
L 87.001156 72.753098 
L 86.71882 74.461417 
L 86.746975 75.81166 
L 86.77513 77.161903 
L 86.803284 78.512147 
L 86.831439 79.86239 
L 86.718294 81.681186 
L 86.605149 83.499983 
L 86.718294 84.657334 
L 86.831439 85.814686 
L 86.944584 86.972037 
L 87.057729 88.129389 
" style="fill:none;stroke:#008000;stroke-linecap:square;stroke-width:1.5;"/>
   </g>
   <g id="line2d_20">
    <path clip-path="url(#pca85d5d0b4)" d="M 59.842963 34.119657 
L 61.649597 34.284485 
L 63.456232 34.449313 
L 64.513478 34.850728 
L 65.570725 35.252142 
L 66.546403 35.622295 
L 67.52208 35.992449 
L 68.566434 36.213049 
L 69.610787 36.433649 
L 70.655141 36.654249 
L 71.699494 36.874849 
L 73.167484 37.067741 
L 74.635473 37.260633 
L 76.103462 37.453525 
L 77.571451 37.646417 
L 79.265467 38.252445 
L 80.959483 38.858474 
L 82.145136 39.464858 
L 83.330789 40.071242 
L 84.516442 40.677626 
L 85.702095 41.28401 
L 86.266767 42.661606 
L 86.831439 44.039202 
L 87.621875 45.69246 
L 88.41231 47.345718 
L 89.485345 48.613902 
L 90.558379 49.882086 
L 91.433279 50.901607 
L 92.308178 51.921128 
L 93.183077 52.940649 
L 94.057977 53.960169 
" style="fill:none;stroke:#000000;stroke-linecap:square;stroke-width:1.5;"/>
   </g>
   <g id="line2d_21">
    <path clip-path="url(#pca85d5d0b4)" d="M 64.472957 29.159173 
L 64.75503 30.867847 
L 65.037102 32.576521 
L 65.303914 33.914332 
L 65.570725 35.252142 
" style="fill:none;stroke:#008000;stroke-linecap:square;stroke-width:1.5;"/>
   </g>
   <g id="line2d_22">
    <path clip-path="url(#pca85d5d0b4)" d="M 65.570725 35.252142 
L 65.642822 36.393863 
L 65.714919 37.535584 
L 66.053828 39.134136 
L 66.392736 40.732687 
L 66.617973 42.386655 
L 66.3359 43.544007 
L 66.053828 44.701358 
L 65.771755 45.748587 
L 65.489682 46.795816 
L 65.602301 48.228118 
L 65.714919 49.660421 
L 66.3359 50.431988 
L 66.956882 51.203556 
L 67.634699 52.140662 
L 68.312515 53.077769 
L 68.538279 54.510782 
L 68.764042 55.943794 
L 68.764042 57.707174 
L 68.764042 59.470554 
L 69.017961 60.545492 
L 69.271879 61.620429 
L 69.525797 62.695366 
L 69.779715 63.770303 
L 70.231505 65.395853 
L 70.683295 67.021402 
L 71.135086 68.646951 
L 71.586876 70.272501 
L 72.264429 72.008528 
L 72.941983 73.744555 
L 73.619537 75.480582 
L 74.297091 77.216609 
L 74.635999 78.925283 
L 74.974907 80.633957 
L 75.482744 82.342632 
L 75.99058 84.051306 
L 76.216607 84.988057 
L 76.442633 85.924808 
L 76.66866 86.861559 
L 76.894687 87.798311 
L 77.402786 89.010723 
L 77.910886 90.223136 
L 78.418985 91.435549 
L 78.927085 92.647961 
" style="fill:none;stroke:#000000;stroke-linecap:square;stroke-width:1.5;"/>
   </g>
   <g id="line2d_23">
    <path clip-path="url(#pca85d5d0b4)" d="M 55.10035 39.300385 
L 55.297959 40.374967 
L 55.495568 41.449549 
L 55.693177 42.524131 
L 55.890785 43.598713 
L 55.777904 45.25197 
L 55.665022 46.905228 
L 55.55214 48.558486 
L 55.439258 50.211743 
L 54.818277 51.782587 
L 54.197296 53.35343 
L 53.576315 54.924274 
L 52.955333 56.495117 
L 52.408817 58.052106 
L 51.862301 59.609096 
L 51.315785 61.166085 
L 50.769269 62.723074 
L 50.450358 63.632473 
L 50.131448 64.541871 
L 50.060929 65.919645 
L 49.990411 67.297419 
L 49.919893 68.675193 
L 49.849375 70.052966 
L 49.778856 71.43074 
L 49.708338 72.808514 
L 49.63782 74.186288 
L 49.567302 75.564062 
L 49.877792 76.610936 
L 50.188283 77.65781 
L 50.498774 78.704683 
L 50.809264 79.751557 
L 51.459453 80.522414 
L 52.109641 81.293271 
L 52.75983 82.064128 
L 53.410018 82.834985 
L 53.971006 83.499983 
L 54.676714 84.409026 
L 55.382423 85.318069 
L 56.088131 86.227112 
L 56.79384 87.136155 
L 57.733731 88.083919 
L 59.014111 89.374127 
L 60.29449 90.664336 
L 60.972043 91.573379 
L 61.649597 92.482422 
L 62.327151 93.391465 
L 63.004704 94.300508 
" style="fill:none;stroke:#000000;stroke-linecap:square;stroke-width:1.5;"/>
   </g>
   <g id="line2d_24">
    <path clip-path="url(#pca85d5d0b4)" d="M 39.516878 87.302405 
L 40.843831 87.702042 
L 42.170784 88.10168 
L 43.497736 88.501318 
L 44.824689 88.900956 
L 45.846151 89.21889 
L 46.867612 89.536825 
L 47.889074 89.854759 
L 48.910535 90.172693 
L 50.131448 90.553503 
L 51.288946 90.884226 
L 52.446445 91.214949 
L 53.603943 91.545671 
L 54.761442 91.876394 
L 55.791849 92.179408 
L 56.822257 92.482422 
L 57.852665 92.785437 
L 58.883073 93.088451 
L 59.913481 93.391465 
L 60.943889 93.69448 
L 61.974297 93.997494 
L 63.004704 94.300508 
L 64.529266 94.603878 
L 66.053828 94.907248 
L 67.578389 95.210617 
L 69.102951 95.513987 
L 70.42964 95.596401 
L 71.75633 95.678815 
L 73.08302 95.761229 
L 74.409709 95.843644 
" style="fill:none;stroke:#4169e1;stroke-linecap:square;stroke-width:1.5;"/>
   </g>
   <g id="line2d_25">
    <path clip-path="url(#pca85d5d0b4)" d="M 57.229579 37.797036 
L 58.084744 39.485106 
L 58.939909 41.173177 
L 59.335126 42.716312 
L 59.730344 44.259447 
L 59.476163 45.857999 
L 59.221981 47.456551 
L 58.9678 49.055102 
L 58.713619 50.653654 
L 58.544428 51.618113 
L 58.375237 52.582573 
L 58.206046 53.547032 
L 58.036855 54.511492 
L 58.149736 55.834027 
L 58.262618 57.156562 
L 58.3755 58.479097 
L 58.488382 59.801632 
L 58.939909 60.7938 
L 59.391436 61.785968 
L 59.842963 62.778135 
L 60.29449 63.770303 
L 61.226225 65.06513 
L 62.15796 66.359957 
L 63.089695 67.654784 
L 64.02143 68.949611 
L 64.755556 70.492746 
L 65.489682 72.035881 
L 65.574146 73.165879 
L 65.65861 74.295878 
L 65.743074 75.425876 
L 65.827538 76.555875 
L 65.582829 77.770774 
L 65.33812 78.985673 
L 65.093412 80.200572 
L 64.848703 81.415472 
L 63.75725 82.677972 
L 62.665796 83.940473 
L 61.43278 84.976334 
L 60.199764 86.012196 
L 58.966748 87.048057 
L 57.733731 88.083919 
" style="fill:none;stroke:#000000;stroke-linecap:square;stroke-width:1.5;"/>
   </g>
   <g id="line2d_26">
    <path clip-path="url(#pca85d5d0b4)" d="M 53.410018 82.834985 
L 54.453582 83.056296 
L 55.497146 83.277607 
L 56.540711 83.498917 
L 57.584275 83.720228 
L 58.826501 84.106012 
L 60.068726 84.491795 
L 61.310952 84.877579 
L 62.553177 85.263363 
L 63.541222 85.511316 
L 64.529266 85.759269 
L 65.51731 86.007222 
L 66.505355 86.255176 
L 67.634699 87.192282 
L 68.764042 88.129389 
L 70.11915 89.506985 
L 71.474257 90.884581 
L 72.095238 91.766271 
L 72.71622 92.647961 
L 73.788728 93.474235 
L 74.861236 94.300508 
" style="fill:none;stroke:#008000;stroke-linecap:square;stroke-width:1.5;"/>
   </g>
   <g id="line2d_27">
    <path clip-path="url(#pca85d5d0b4)" d="M 50.769269 62.723074 
L 49.490469 63.52164 
L 48.211668 64.320205 
L 47.336506 65.06442 
L 46.461343 65.808634 
L 45.586181 66.552849 
L 44.711018 67.297063 
L 43.666664 68.040923 
L 42.622311 68.784782 
L 41.577957 69.528641 
L 40.533604 70.272501 
L 40.194695 71.595391 
L 39.855787 72.918281 
L 40.053396 74.047925 
L 40.251004 75.177568 
L 40.448613 76.307211 
L 40.646222 77.436854 
L 41.436658 78.815161 
L 42.227093 80.193468 
L 42.904647 80.937327 
L 43.5822 81.681186 
L 44.259754 82.425046 
L 44.937308 83.168905 
L 45.897197 83.940473 
L 46.857087 84.71204 
L 47.534378 85.703853 
L 48.211668 86.695665 
L 48.561102 88.434179 
L 48.910535 90.172693 
" style="fill:none;stroke:#4169e1;stroke-linecap:square;stroke-width:1.5;"/>
   </g>
   <g id="line2d_28">
    <path clip-path="url(#pca85d5d0b4)" d="M 56.229694 27.28496 
L 54.761442 27.505205 
L 53.293189 27.72545 
L 52.361717 28.111234 
L 51.430246 28.497018 
L 50.498774 28.882801 
L 49.567302 29.268585 
L 48.212194 30.095569 
L 46.857087 30.922553 
L 45.784053 31.749537 
L 44.711018 32.576521 
L 43.63851 33.898701 
L 42.566001 35.220881 
" style="fill:none;stroke:#4169e1;stroke-linecap:square;stroke-width:1.5;"/>
   </g>
   <g id="line2d_29">
    <path clip-path="url(#pca85d5d0b4)" d="M 42.566001 35.220881 
L 42.396547 36.26811 
L 42.227093 37.315339 
L 42.31182 38.307507 
L 42.396547 39.299674 
L 42.481274 40.291842 
L 42.566001 41.28401 
L 42.537847 42.276178 
L 42.509692 43.268345 
L 42.481537 44.260513 
L 42.453383 45.252681 
L 42.001593 46.575216 
L 41.549802 47.897751 
L 41.098012 49.220286 
L 40.646222 50.542821 
L 40.392041 51.645111 
L 40.13786 52.747401 
L 39.883678 53.849692 
L 39.629497 54.951982 
L 39.516878 56.770778 
L 39.40426 58.589575 
L 39.150078 59.801988 
L 38.895897 61.0144 
L 38.641716 62.226813 
L 38.387534 63.439225 
L 38.387534 64.872238 
L 38.387534 66.305251 
L 38.670134 67.462602 
L 38.952733 68.619954 
L 39.743168 69.446227 
L 40.533604 70.272501 
" style="fill:none;stroke:#4169e1;stroke-linecap:square;stroke-width:1.5;"/>
   </g>
   <g id="line2d_30">
    <path clip-path="url(#pca85d5d0b4)" d="M 35.49734 39.237864 
L 35.881244 40.217954 
L 36.265147 41.198043 
L 36.64905 42.178133 
L 37.032953 43.158223 
L 37.089263 44.921603 
L 37.145572 46.684983 
L 37.173727 47.814626 
L 37.201881 48.944269 
L 37.230036 50.073913 
L 37.258191 51.203556 
L 37.244113 52.278315 
L 37.230036 53.353075 
L 37.215959 54.427834 
L 37.201881 55.502594 
L 37.187804 56.577354 
L 37.173727 57.652113 
L 37.159649 58.726873 
L 37.145572 59.801632 
L 37.117417 60.903922 
L 37.089263 62.006213 
L 37.061108 63.108503 
L 37.032953 64.210793 
L 36.468281 65.919467 
L 35.903609 67.628141 
L 34.802683 68.23417 
L 33.701757 68.840199 
L 32.600831 69.446227 
L 31.499905 70.052256 
L 30.511861 70.217795 
L 29.523817 70.383334 
L 28.535772 70.548873 
L 27.547728 70.714412 
L 26.541791 70.641589 
L 25.535854 70.568766 
L 24.529917 70.495943 
L 23.52398 70.42312 
" style="fill:none;stroke:#4169e1;stroke-linecap:square;stroke-width:1.5;"/>
   </g>
   <g id="line2d_31">
    <path clip-path="url(#pca85d5d0b4)" d="M 26.319448 75.385024 
L 27.385115 75.198882 
L 28.450782 75.012739 
L 29.636435 74.8472 
L 30.822088 74.681662 
L 31.838287 74.764431 
L 32.854486 74.8472 
L 33.870685 74.92997 
L 34.886884 75.012739 
L 36.326719 75.618768 
L 37.766553 76.224797 
L 39.206388 76.830825 
L 40.646222 77.436854 
" style="fill:none;stroke:#4169e1;stroke-linecap:square;stroke-width:1.5;"/>
   </g>
   <g id="line2d_32">
    <path clip-path="url(#pca85d5d0b4)" d="M 41.702943 35.632952 
L 40.253109 35.171859 
L 38.803276 34.710765 
L 37.353443 34.249672 
L 35.903609 33.788579 
L 34.435357 33.843285 
L 32.967105 33.897991 
L 31.555688 34.94522 
L 30.144272 35.992449 
L 29.2128 36.681602 
L 28.281328 37.370755 
L 27.349856 38.059909 
L 26.418384 38.749062 
L 25.515067 39.21726 
L 24.61175 39.685458 
L 23.708432 40.153656 
L 22.805115 40.621854 
L 21.958107 41.255946 
L 21.111099 41.890039 
L 20.264092 42.524131 
L 19.417084 43.158223 
L 18.654803 43.888406 
L 17.892522 44.618589 
L 17.130241 45.348772 
L 16.36796 46.078954 
L 15.60568 46.809137 
L 14.843399 47.53932 
L 14.081118 48.269503 
L 13.318837 48.999686 
L 11.737966 49.881376 
L 10.157096 50.763066 
L 9.140897 51.59005 
L 8.124698 52.417034 
L 7.72948 53.326432 
L 7.334262 54.235831 
L 6.939044 55.145229 
L 6.543827 56.054627 
L 6.40279 57.211979 
L 6.261754 58.36933 
L 6.120717 59.526681 
L 5.979681 60.684033 
L 5.866536 62.33729 
L 5.753391 63.990548 
L 5.922845 65.258022 
L 6.0923 66.525496 
L 6.261754 67.79297 
L 6.431208 69.060443 
L 7.277953 69.611766 
L 8.124698 70.163089 
L 9.45165 70.411042 
L 10.778603 70.658995 
L 12.105556 70.906948 
L 13.432508 71.154901 
L 14.73078 72.312253 
L 16.029052 73.469604 
L 17.017096 74.241172 
L 18.005141 75.012739 
L 18.993185 75.784307 
L 19.981229 76.555875 
L 20.941119 77.851057 
L 21.901009 79.146239 
L 22.860898 80.441421 
L 23.820788 81.736603 
L 24.24416 82.673354 
L 24.667533 83.610105 
L 25.090905 84.546857 
L 25.514277 85.483608 
L 25.514277 86.47542 
L 25.514277 87.467233 
L 25.514277 88.459045 
L 25.514277 89.450858 
L 25.768459 90.387964 
L 26.02264 91.325071 
L 26.276821 92.262177 
L 26.531003 93.199284 
L 27.829538 94.053266 
L 29.128073 94.907248 
L 30.426607 95.761229 
L 31.725142 96.615211 
L 33.02394 97.138826 
L 34.322739 97.66244 
L 35.621537 98.186055 
L 36.920335 98.709669 
L 38.501206 98.792439 
L 40.082076 98.875208 
L 41.662947 98.957978 
L 43.243818 99.040747 
L 44.401317 99.013039 
L 45.558815 98.985331 
L 46.716314 98.957622 
L 47.873812 98.929914 
L 48.873434 98.74093 
L 49.873056 98.551945 
L 50.872678 98.362961 
L 51.8723 98.173977 
" style="fill:none;stroke:#008000;stroke-linecap:square;stroke-width:1.5;"/>
   </g>
   <g id="text_1">
    <g id="patch_2">
     <path d="M 60.952554 64.956492 
L 61.107627 65.61408 
L 63.030509 65.160624 
L 62.875436 64.503036 
z
" style="fill:#ffffff;"/>
    </g>
    <!--   -->
    <g style="fill:#808080;" transform="translate(61.381444 64.8759)rotate(-283.269126)scale(0.02 -0.02)">
     <defs>
      <path id="DejaVuSans-20" transform="scale(0.015625)"/>
     </defs>
     <use xlink:href="#DejaVuSans-20"/>
    </g>
   </g>
   <g id="text_2">
    <g id="patch_3">
     <path d="M 67.612492 66.372788 
L 67.863482 67.000063 
L 69.697723 66.266132 
L 69.446733 65.638858 
z
" style="fill:#ffffff;"/>
    </g>
    <!--   -->
    <g style="fill:#808080;" transform="translate(68.024662 66.229409)rotate(-291.807725)scale(0.02 -0.02)">
     <use xlink:href="#DejaVuSans-20"/>
    </g>
   </g>
   <g id="text_3">
    <g id="patch_4">
     <path d="M 114.18438 57.681254 
L 114.371642 58.330409 
L 116.269864 57.782828 
L 116.082602 57.133673 
z
" style="fill:#ffffff;"/>
    </g>
    <!--   -->
    <g style="fill:#808080;" transform="translate(114.608781 57.579642)rotate(-286.09129)scale(0.02 -0.02)">
     <use xlink:href="#DejaVuSans-20"/>
    </g>
   </g>
   <g id="text_4">
    <g id="patch_5">
     <path d="M 43.742295 95.584176 
L 59.188765 102.564124 
L 60.002305 100.763778 
L 44.555836 93.783829 
z
" style="fill:#ffffff;"/>
    </g>
    <!-- Challenger 18.3° -->
    <g style="fill:#4169e1;" transform="translate(43.940035 95.19515)rotate(-335.682747)scale(0.02 -0.02)">
     <defs>
      <path d="M 4122 4306 
L 4122 3641 
Q 3803 3938 3442 4084 
Q 3081 4231 2675 4231 
Q 1875 4231 1450 3742 
Q 1025 3253 1025 2328 
Q 1025 1406 1450 917 
Q 1875 428 2675 428 
Q 3081 428 3442 575 
Q 3803 722 4122 1019 
L 4122 359 
Q 3791 134 3420 21 
Q 3050 -91 2638 -91 
Q 1578 -91 968 557 
Q 359 1206 359 2328 
Q 359 3453 968 4101 
Q 1578 4750 2638 4750 
Q 3056 4750 3426 4639 
Q 3797 4528 4122 4306 
z
" id="DejaVuSans-43" transform="scale(0.015625)"/>
      <path d="M 3513 2113 
L 3513 0 
L 2938 0 
L 2938 2094 
Q 2938 2591 2744 2837 
Q 2550 3084 2163 3084 
Q 1697 3084 1428 2787 
Q 1159 2491 1159 1978 
L 1159 0 
L 581 0 
L 581 4863 
L 1159 4863 
L 1159 2956 
Q 1366 3272 1645 3428 
Q 1925 3584 2291 3584 
Q 2894 3584 3203 3211 
Q 3513 2838 3513 2113 
z
" id="DejaVuSans-68" transform="scale(0.015625)"/>
      <path d="M 2194 1759 
Q 1497 1759 1228 1600 
Q 959 1441 959 1056 
Q 959 750 1161 570 
Q 1363 391 1709 391 
Q 2188 391 2477 730 
Q 2766 1069 2766 1631 
L 2766 1759 
L 2194 1759 
z
M 3341 1997 
L 3341 0 
L 2766 0 
L 2766 531 
Q 2569 213 2275 61 
Q 1981 -91 1556 -91 
Q 1019 -91 701 211 
Q 384 513 384 1019 
Q 384 1609 779 1909 
Q 1175 2209 1959 2209 
L 2766 2209 
L 2766 2266 
Q 2766 2663 2505 2880 
Q 2244 3097 1772 3097 
Q 1472 3097 1187 3025 
Q 903 2953 641 2809 
L 641 3341 
Q 956 3463 1253 3523 
Q 1550 3584 1831 3584 
Q 2591 3584 2966 3190 
Q 3341 2797 3341 1997 
z
" id="DejaVuSans-61" transform="scale(0.015625)"/>
      <path d="M 603 4863 
L 1178 4863 
L 1178 0 
L 603 0 
L 603 4863 
z
" id="DejaVuSans-6c" transform="scale(0.015625)"/>
      <path d="M 3597 1894 
L 3597 1613 
L 953 1613 
Q 991 1019 1311 708 
Q 1631 397 2203 397 
Q 2534 397 2845 478 
Q 3156 559 3463 722 
L 3463 178 
Q 3153 47 2828 -22 
Q 2503 -91 2169 -91 
Q 1331 -91 842 396 
Q 353 884 353 1716 
Q 353 2575 817 3079 
Q 1281 3584 2069 3584 
Q 2775 3584 3186 3129 
Q 3597 2675 3597 1894 
z
M 3022 2063 
Q 3016 2534 2758 2815 
Q 2500 3097 2075 3097 
Q 1594 3097 1305 2825 
Q 1016 2553 972 2059 
L 3022 2063 
z
" id="DejaVuSans-65" transform="scale(0.015625)"/>
      <path d="M 3513 2113 
L 3513 0 
L 2938 0 
L 2938 2094 
Q 2938 2591 2744 2837 
Q 2550 3084 2163 3084 
Q 1697 3084 1428 2787 
Q 1159 2491 1159 1978 
L 1159 0 
L 581 0 
L 581 3500 
L 1159 3500 
L 1159 2956 
Q 1366 3272 1645 3428 
Q 1925 3584 2291 3584 
Q 2894 3584 3203 3211 
Q 3513 2838 3513 2113 
z
" id="DejaVuSans-6e" transform="scale(0.015625)"/>
      <path d="M 2906 1791 
Q 2906 2416 2648 2759 
Q 2391 3103 1925 3103 
Q 1463 3103 1205 2759 
Q 947 2416 947 1791 
Q 947 1169 1205 825 
Q 1463 481 1925 481 
Q 2391 481 2648 825 
Q 2906 1169 2906 1791 
z
M 3481 434 
Q 3481 -459 3084 -895 
Q 2688 -1331 1869 -1331 
Q 1566 -1331 1297 -1286 
Q 1028 -1241 775 -1147 
L 775 -588 
Q 1028 -725 1275 -790 
Q 1522 -856 1778 -856 
Q 2344 -856 2625 -561 
Q 2906 -266 2906 331 
L 2906 616 
Q 2728 306 2450 153 
Q 2172 0 1784 0 
Q 1141 0 747 490 
Q 353 981 353 1791 
Q 353 2603 747 3093 
Q 1141 3584 1784 3584 
Q 2172 3584 2450 3431 
Q 2728 3278 2906 2969 
L 2906 3500 
L 3481 3500 
L 3481 434 
z
" id="DejaVuSans-67" transform="scale(0.015625)"/>
      <path d="M 2631 2963 
Q 2534 3019 2420 3045 
Q 2306 3072 2169 3072 
Q 1681 3072 1420 2755 
Q 1159 2438 1159 1844 
L 1159 0 
L 581 0 
L 581 3500 
L 1159 3500 
L 1159 2956 
Q 1341 3275 1631 3429 
Q 1922 3584 2338 3584 
Q 2397 3584 2469 3576 
Q 2541 3569 2628 3553 
L 2631 2963 
z
" id="DejaVuSans-72" transform="scale(0.015625)"/>
      <path d="M 794 531 
L 1825 531 
L 1825 4091 
L 703 3866 
L 703 4441 
L 1819 4666 
L 2450 4666 
L 2450 531 
L 3481 531 
L 3481 0 
L 794 0 
L 794 531 
z
" id="DejaVuSans-31" transform="scale(0.015625)"/>
      <path d="M 2034 2216 
Q 1584 2216 1326 1975 
Q 1069 1734 1069 1313 
Q 1069 891 1326 650 
Q 1584 409 2034 409 
Q 2484 409 2743 651 
Q 3003 894 3003 1313 
Q 3003 1734 2745 1975 
Q 2488 2216 2034 2216 
z
M 1403 2484 
Q 997 2584 770 2862 
Q 544 3141 544 3541 
Q 544 4100 942 4425 
Q 1341 4750 2034 4750 
Q 2731 4750 3128 4425 
Q 3525 4100 3525 3541 
Q 3525 3141 3298 2862 
Q 3072 2584 2669 2484 
Q 3125 2378 3379 2068 
Q 3634 1759 3634 1313 
Q 3634 634 3220 271 
Q 2806 -91 2034 -91 
Q 1263 -91 848 271 
Q 434 634 434 1313 
Q 434 1759 690 2068 
Q 947 2378 1403 2484 
z
M 1172 3481 
Q 1172 3119 1398 2916 
Q 1625 2713 2034 2713 
Q 2441 2713 2670 2916 
Q 2900 3119 2900 3481 
Q 2900 3844 2670 4047 
Q 2441 4250 2034 4250 
Q 1625 4250 1398 4047 
Q 1172 3844 1172 3481 
z
" id="DejaVuSans-38" transform="scale(0.015625)"/>
      <path d="M 684 794 
L 1344 794 
L 1344 0 
L 684 0 
L 684 794 
z
" id="DejaVuSans-2e" transform="scale(0.015625)"/>
      <path d="M 2597 2516 
Q 3050 2419 3304 2112 
Q 3559 1806 3559 1356 
Q 3559 666 3084 287 
Q 2609 -91 1734 -91 
Q 1441 -91 1130 -33 
Q 819 25 488 141 
L 488 750 
Q 750 597 1062 519 
Q 1375 441 1716 441 
Q 2309 441 2620 675 
Q 2931 909 2931 1356 
Q 2931 1769 2642 2001 
Q 2353 2234 1838 2234 
L 1294 2234 
L 1294 2753 
L 1863 2753 
Q 2328 2753 2575 2939 
Q 2822 3125 2822 3475 
Q 2822 3834 2567 4026 
Q 2313 4219 1838 4219 
Q 1578 4219 1281 4162 
Q 984 4106 628 3988 
L 628 4550 
Q 988 4650 1302 4700 
Q 1616 4750 1894 4750 
Q 2613 4750 3031 4423 
Q 3450 4097 3450 3541 
Q 3450 3153 3228 2886 
Q 3006 2619 2597 2516 
z
" id="DejaVuSans-33" transform="scale(0.015625)"/>
      <path d="M 1600 4347 
Q 1350 4347 1178 4173 
Q 1006 4000 1006 3750 
Q 1006 3503 1178 3333 
Q 1350 3163 1600 3163 
Q 1850 3163 2022 3333 
Q 2194 3503 2194 3750 
Q 2194 3997 2020 4172 
Q 1847 4347 1600 4347 
z
M 1600 4750 
Q 1800 4750 1984 4673 
Q 2169 4597 2303 4453 
Q 2447 4313 2519 4134 
Q 2591 3956 2591 3750 
Q 2591 3338 2302 3052 
Q 2013 2766 1594 2766 
Q 1172 2766 890 3047 
Q 609 3328 609 3750 
Q 609 4169 896 4459 
Q 1184 4750 1600 4750 
z
" id="DejaVuSans-b0" transform="scale(0.015625)"/>
     </defs>
     <use xlink:href="#DejaVuSans-43"/>
     <use x="69.824219" xlink:href="#DejaVuSans-68"/>
     <use x="133.203125" xlink:href="#DejaVuSans-61"/>
     <use x="194.482422" xlink:href="#DejaVuSans-6c"/>
     <use x="222.265625" xlink:href="#DejaVuSans-6c"/>
     <use x="250.048828" xlink:href="#DejaVuSans-65"/>
     <use x="311.572266" xlink:href="#DejaVuSans-6e"/>
     <use x="374.951172" xlink:href="#DejaVuSans-67"/>
     <use x="438.427734" xlink:href="#DejaVuSans-65"/>
     <use x="499.951172" xlink:href="#DejaVuSans-72"/>
     <use x="541.064453" xlink:href="#DejaVuSans-20"/>
     <use x="572.851562" xlink:href="#DejaVuSans-31"/>
     <use x="636.474609" xlink:href="#DejaVuSans-38"/>
     <use x="700.097656" xlink:href="#DejaVuSans-2e"/>
     <use x="731.884766" xlink:href="#DejaVuSans-33"/>
     <use x="795.507812" xlink:href="#DejaVuSans-b0"/>
    </g>
   </g>
   <g id="text_5">
    <g id="patch_6">
     <path d="M 114.963982 45.609355 
L 120.987439 61.786866 
L 122.838891 61.097506 
L 116.815435 44.919994 
z
" style="fill:#ffffff;"/>
    </g>
    <!-- Mac's Back 18.2° -->
    <g style="fill:#4169e1;" transform="translate(115.379499 45.475985)rotate(-290.422068)scale(0.02 -0.02)">
     <defs>
      <path d="M 628 4666 
L 1569 4666 
L 2759 1491 
L 3956 4666 
L 4897 4666 
L 4897 0 
L 4281 0 
L 4281 4097 
L 3078 897 
L 2444 897 
L 1241 4097 
L 1241 0 
L 628 0 
L 628 4666 
z
" id="DejaVuSans-4d" transform="scale(0.015625)"/>
      <path d="M 3122 3366 
L 3122 2828 
Q 2878 2963 2633 3030 
Q 2388 3097 2138 3097 
Q 1578 3097 1268 2742 
Q 959 2388 959 1747 
Q 959 1106 1268 751 
Q 1578 397 2138 397 
Q 2388 397 2633 464 
Q 2878 531 3122 666 
L 3122 134 
Q 2881 22 2623 -34 
Q 2366 -91 2075 -91 
Q 1284 -91 818 406 
Q 353 903 353 1747 
Q 353 2603 823 3093 
Q 1294 3584 2113 3584 
Q 2378 3584 2631 3529 
Q 2884 3475 3122 3366 
z
" id="DejaVuSans-63" transform="scale(0.015625)"/>
      <path d="M 1147 4666 
L 1147 2931 
L 616 2931 
L 616 4666 
L 1147 4666 
z
" id="DejaVuSans-27" transform="scale(0.015625)"/>
      <path d="M 2834 3397 
L 2834 2853 
Q 2591 2978 2328 3040 
Q 2066 3103 1784 3103 
Q 1356 3103 1142 2972 
Q 928 2841 928 2578 
Q 928 2378 1081 2264 
Q 1234 2150 1697 2047 
L 1894 2003 
Q 2506 1872 2764 1633 
Q 3022 1394 3022 966 
Q 3022 478 2636 193 
Q 2250 -91 1575 -91 
Q 1294 -91 989 -36 
Q 684 19 347 128 
L 347 722 
Q 666 556 975 473 
Q 1284 391 1588 391 
Q 1994 391 2212 530 
Q 2431 669 2431 922 
Q 2431 1156 2273 1281 
Q 2116 1406 1581 1522 
L 1381 1569 
Q 847 1681 609 1914 
Q 372 2147 372 2553 
Q 372 3047 722 3315 
Q 1072 3584 1716 3584 
Q 2034 3584 2315 3537 
Q 2597 3491 2834 3397 
z
" id="DejaVuSans-73" transform="scale(0.015625)"/>
      <path d="M 1259 2228 
L 1259 519 
L 2272 519 
Q 2781 519 3026 730 
Q 3272 941 3272 1375 
Q 3272 1813 3026 2020 
Q 2781 2228 2272 2228 
L 1259 2228 
z
M 1259 4147 
L 1259 2741 
L 2194 2741 
Q 2656 2741 2882 2914 
Q 3109 3088 3109 3444 
Q 3109 3797 2882 3972 
Q 2656 4147 2194 4147 
L 1259 4147 
z
M 628 4666 
L 2241 4666 
Q 2963 4666 3353 4366 
Q 3744 4066 3744 3513 
Q 3744 3084 3544 2831 
Q 3344 2578 2956 2516 
Q 3422 2416 3680 2098 
Q 3938 1781 3938 1306 
Q 3938 681 3513 340 
Q 3088 0 2303 0 
L 628 0 
L 628 4666 
z
" id="DejaVuSans-42" transform="scale(0.015625)"/>
      <path d="M 581 4863 
L 1159 4863 
L 1159 1991 
L 2875 3500 
L 3609 3500 
L 1753 1863 
L 3688 0 
L 2938 0 
L 1159 1709 
L 1159 0 
L 581 0 
L 581 4863 
z
" id="DejaVuSans-6b" transform="scale(0.015625)"/>
      <path d="M 1228 531 
L 3431 531 
L 3431 0 
L 469 0 
L 469 531 
Q 828 903 1448 1529 
Q 2069 2156 2228 2338 
Q 2531 2678 2651 2914 
Q 2772 3150 2772 3378 
Q 2772 3750 2511 3984 
Q 2250 4219 1831 4219 
Q 1534 4219 1204 4116 
Q 875 4013 500 3803 
L 500 4441 
Q 881 4594 1212 4672 
Q 1544 4750 1819 4750 
Q 2544 4750 2975 4387 
Q 3406 4025 3406 3419 
Q 3406 3131 3298 2873 
Q 3191 2616 2906 2266 
Q 2828 2175 2409 1742 
Q 1991 1309 1228 531 
z
" id="DejaVuSans-32" transform="scale(0.015625)"/>
     </defs>
     <use xlink:href="#DejaVuSans-4d"/>
     <use x="86.279297" xlink:href="#DejaVuSans-61"/>
     <use x="147.558594" xlink:href="#DejaVuSans-63"/>
     <use x="202.539062" xlink:href="#DejaVuSans-27"/>
     <use x="230.029297" xlink:href="#DejaVuSans-73"/>
     <use x="282.128906" xlink:href="#DejaVuSans-20"/>
     <use x="313.916016" xlink:href="#DejaVuSans-42"/>
     <use x="382.519531" xlink:href="#DejaVuSans-61"/>
     <use x="443.798828" xlink:href="#DejaVuSans-63"/>
     <use x="498.779297" xlink:href="#DejaVuSans-6b"/>
     <use x="556.689453" xlink:href="#DejaVuSans-20"/>
     <use x="588.476562" xlink:href="#DejaVuSans-31"/>
     <use x="652.099609" xlink:href="#DejaVuSans-38"/>
     <use x="715.722656" xlink:href="#DejaVuSans-2e"/>
     <use x="747.509766" xlink:href="#DejaVuSans-32"/>
     <use x="811.132812" xlink:href="#DejaVuSans-b0"/>
    </g>
   </g>
   <g id="text_6">
    <g id="patch_7">
     <path d="M 108.742493 63.617076 
L 109.466745 46.369776 
L 107.49286 46.286888 
L 106.768608 63.534188 
z
" style="fill:#ffffff;"/>
    </g>
    <!-- Mac's Back 14.3° -->
    <g style="fill:#008000;" transform="translate(108.307779 63.578804)rotate(-87.595438)scale(0.02 -0.02)">
     <defs>
      <path d="M 2419 4116 
L 825 1625 
L 2419 1625 
L 2419 4116 
z
M 2253 4666 
L 3047 4666 
L 3047 1625 
L 3713 1625 
L 3713 1100 
L 3047 1100 
L 3047 0 
L 2419 0 
L 2419 1100 
L 313 1100 
L 313 1709 
L 2253 4666 
z
" id="DejaVuSans-34" transform="scale(0.015625)"/>
     </defs>
     <use xlink:href="#DejaVuSans-4d"/>
     <use x="86.279297" xlink:href="#DejaVuSans-61"/>
     <use x="147.558594" xlink:href="#DejaVuSans-63"/>
     <use x="202.539062" xlink:href="#DejaVuSans-27"/>
     <use x="230.029297" xlink:href="#DejaVuSans-73"/>
     <use x="282.128906" xlink:href="#DejaVuSans-20"/>
     <use x="313.916016" xlink:href="#DejaVuSans-42"/>
     <use x="382.519531" xlink:href="#DejaVuSans-61"/>
     <use x="443.798828" xlink:href="#DejaVuSans-63"/>
     <use x="498.779297" xlink:href="#DejaVuSans-6b"/>
     <use x="556.689453" xlink:href="#DejaVuSans-20"/>
     <use x="588.476562" xlink:href="#DejaVuSans-31"/>
     <use x="652.099609" xlink:href="#DejaVuSans-34"/>
     <use x="715.722656" xlink:href="#DejaVuSans-2e"/>
     <use x="747.509766" xlink:href="#DejaVuSans-33"/>
     <use x="811.132812" xlink:href="#DejaVuSans-b0"/>
    </g>
   </g>
   <g id="text_7">
    <g id="patch_8">
     <path d="M 95.746095 56.044774 
L 107.108432 44.439359 
L 105.696748 43.057243 
L 94.334411 54.662658 
z
" style="fill:#ffffff;"/>
    </g>
    <!-- Mac's Run 10.3° -->
    <g style="fill:#008000;" transform="translate(95.448587 55.725508)rotate(-45.606364)scale(0.02 -0.02)">
     <defs>
      <path d="M 2841 2188 
Q 3044 2119 3236 1894 
Q 3428 1669 3622 1275 
L 4263 0 
L 3584 0 
L 2988 1197 
Q 2756 1666 2539 1819 
Q 2322 1972 1947 1972 
L 1259 1972 
L 1259 0 
L 628 0 
L 628 4666 
L 2053 4666 
Q 2853 4666 3247 4331 
Q 3641 3997 3641 3322 
Q 3641 2881 3436 2590 
Q 3231 2300 2841 2188 
z
M 1259 4147 
L 1259 2491 
L 2053 2491 
Q 2509 2491 2742 2702 
Q 2975 2913 2975 3322 
Q 2975 3731 2742 3939 
Q 2509 4147 2053 4147 
L 1259 4147 
z
" id="DejaVuSans-52" transform="scale(0.015625)"/>
      <path d="M 544 1381 
L 544 3500 
L 1119 3500 
L 1119 1403 
Q 1119 906 1312 657 
Q 1506 409 1894 409 
Q 2359 409 2629 706 
Q 2900 1003 2900 1516 
L 2900 3500 
L 3475 3500 
L 3475 0 
L 2900 0 
L 2900 538 
Q 2691 219 2414 64 
Q 2138 -91 1772 -91 
Q 1169 -91 856 284 
Q 544 659 544 1381 
z
M 1991 3584 
L 1991 3584 
z
" id="DejaVuSans-75" transform="scale(0.015625)"/>
      <path d="M 2034 4250 
Q 1547 4250 1301 3770 
Q 1056 3291 1056 2328 
Q 1056 1369 1301 889 
Q 1547 409 2034 409 
Q 2525 409 2770 889 
Q 3016 1369 3016 2328 
Q 3016 3291 2770 3770 
Q 2525 4250 2034 4250 
z
M 2034 4750 
Q 2819 4750 3233 4129 
Q 3647 3509 3647 2328 
Q 3647 1150 3233 529 
Q 2819 -91 2034 -91 
Q 1250 -91 836 529 
Q 422 1150 422 2328 
Q 422 3509 836 4129 
Q 1250 4750 2034 4750 
z
" id="DejaVuSans-30" transform="scale(0.015625)"/>
     </defs>
     <use xlink:href="#DejaVuSans-4d"/>
     <use x="86.279297" xlink:href="#DejaVuSans-61"/>
     <use x="147.558594" xlink:href="#DejaVuSans-63"/>
     <use x="202.539062" xlink:href="#DejaVuSans-27"/>
     <use x="230.029297" xlink:href="#DejaVuSans-73"/>
     <use x="282.128906" xlink:href="#DejaVuSans-20"/>
     <use x="313.916016" xlink:href="#DejaVuSans-52"/>
     <use x="378.898438" xlink:href="#DejaVuSans-75"/>
     <use x="442.277344" xlink:href="#DejaVuSans-6e"/>
     <use x="505.65625" xlink:href="#DejaVuSans-20"/>
     <use x="537.443359" xlink:href="#DejaVuSans-31"/>
     <use x="601.066406" xlink:href="#DejaVuSans-30"/>
     <use x="664.689453" xlink:href="#DejaVuSans-2e"/>
     <use x="696.476562" xlink:href="#DejaVuSans-33"/>
     <use x="760.099609" xlink:href="#DejaVuSans-b0"/>
    </g>
   </g>
   <g id="text_8">
    <g id="patch_9">
     <path d="M 64.036105 24.882166 
L 80.426537 19.551075 
L 79.815463 17.67233 
L 63.425032 23.003421 
z
" style="fill:#ffffff;"/>
    </g>
    <!-- Sidewinder 21.4° -->
    <g style="fill:#4169e1;" transform="translate(63.920286 24.461419)rotate(-18.017442)scale(0.02 -0.02)">
     <defs>
      <path d="M 3425 4513 
L 3425 3897 
Q 3066 4069 2747 4153 
Q 2428 4238 2131 4238 
Q 1616 4238 1336 4038 
Q 1056 3838 1056 3469 
Q 1056 3159 1242 3001 
Q 1428 2844 1947 2747 
L 2328 2669 
Q 3034 2534 3370 2195 
Q 3706 1856 3706 1288 
Q 3706 609 3251 259 
Q 2797 -91 1919 -91 
Q 1588 -91 1214 -16 
Q 841 59 441 206 
L 441 856 
Q 825 641 1194 531 
Q 1563 422 1919 422 
Q 2459 422 2753 634 
Q 3047 847 3047 1241 
Q 3047 1584 2836 1778 
Q 2625 1972 2144 2069 
L 1759 2144 
Q 1053 2284 737 2584 
Q 422 2884 422 3419 
Q 422 4038 858 4394 
Q 1294 4750 2059 4750 
Q 2388 4750 2728 4690 
Q 3069 4631 3425 4513 
z
" id="DejaVuSans-53" transform="scale(0.015625)"/>
      <path d="M 603 3500 
L 1178 3500 
L 1178 0 
L 603 0 
L 603 3500 
z
M 603 4863 
L 1178 4863 
L 1178 4134 
L 603 4134 
L 603 4863 
z
" id="DejaVuSans-69" transform="scale(0.015625)"/>
      <path d="M 2906 2969 
L 2906 4863 
L 3481 4863 
L 3481 0 
L 2906 0 
L 2906 525 
Q 2725 213 2448 61 
Q 2172 -91 1784 -91 
Q 1150 -91 751 415 
Q 353 922 353 1747 
Q 353 2572 751 3078 
Q 1150 3584 1784 3584 
Q 2172 3584 2448 3432 
Q 2725 3281 2906 2969 
z
M 947 1747 
Q 947 1113 1208 752 
Q 1469 391 1925 391 
Q 2381 391 2643 752 
Q 2906 1113 2906 1747 
Q 2906 2381 2643 2742 
Q 2381 3103 1925 3103 
Q 1469 3103 1208 2742 
Q 947 2381 947 1747 
z
" id="DejaVuSans-64" transform="scale(0.015625)"/>
      <path d="M 269 3500 
L 844 3500 
L 1563 769 
L 2278 3500 
L 2956 3500 
L 3675 769 
L 4391 3500 
L 4966 3500 
L 4050 0 
L 3372 0 
L 2619 2869 
L 1863 0 
L 1184 0 
L 269 3500 
z
" id="DejaVuSans-77" transform="scale(0.015625)"/>
     </defs>
     <use xlink:href="#DejaVuSans-53"/>
     <use x="63.476562" xlink:href="#DejaVuSans-69"/>
     <use x="91.259766" xlink:href="#DejaVuSans-64"/>
     <use x="154.736328" xlink:href="#DejaVuSans-65"/>
     <use x="216.259766" xlink:href="#DejaVuSans-77"/>
     <use x="298.046875" xlink:href="#DejaVuSans-69"/>
     <use x="325.830078" xlink:href="#DejaVuSans-6e"/>
     <use x="389.208984" xlink:href="#DejaVuSans-64"/>
     <use x="452.685547" xlink:href="#DejaVuSans-65"/>
     <use x="514.208984" xlink:href="#DejaVuSans-72"/>
     <use x="555.322266" xlink:href="#DejaVuSans-20"/>
     <use x="587.109375" xlink:href="#DejaVuSans-32"/>
     <use x="650.732422" xlink:href="#DejaVuSans-31"/>
     <use x="714.355469" xlink:href="#DejaVuSans-2e"/>
     <use x="746.142578" xlink:href="#DejaVuSans-34"/>
     <use x="809.765625" xlink:href="#DejaVuSans-b0"/>
    </g>
   </g>
   <g id="text_9">
    <g id="patch_10">
     <path d="M 90.627395 62.512935 
L 93.86022 57.306169 
L 92.1818 56.264056 
L 88.948975 61.470822 
z
" style="fill:#ffffff;"/>
    </g>
    <!--  11.2° -->
    <g style="fill:#008000;" transform="translate(90.267588 62.265993)rotate(-58.164299)scale(0.02 -0.02)">
     <use xlink:href="#DejaVuSans-20"/>
     <use x="31.787109" xlink:href="#DejaVuSans-31"/>
     <use x="95.410156" xlink:href="#DejaVuSans-31"/>
     <use x="159.033203" xlink:href="#DejaVuSans-2e"/>
     <use x="190.820312" xlink:href="#DejaVuSans-32"/>
     <use x="254.443359" xlink:href="#DejaVuSans-b0"/>
    </g>
   </g>
   <g id="text_10">
    <g id="patch_11">
     <path d="M 68.820483 37.737158 
L 83.195059 39.136225 
L 83.38644 37.169892 
L 69.011865 35.770825 
z
" style="fill:#ffffff;"/>
    </g>
    <!-- Decamp 27.6° -->
    <g transform="translate(68.882619 37.305208)rotate(-354.440953)scale(0.02 -0.02)">
     <defs>
      <path d="M 1259 4147 
L 1259 519 
L 2022 519 
Q 2988 519 3436 956 
Q 3884 1394 3884 2338 
Q 3884 3275 3436 3711 
Q 2988 4147 2022 4147 
L 1259 4147 
z
M 628 4666 
L 1925 4666 
Q 3281 4666 3915 4102 
Q 4550 3538 4550 2338 
Q 4550 1131 3912 565 
Q 3275 0 1925 0 
L 628 0 
L 628 4666 
z
" id="DejaVuSans-44" transform="scale(0.015625)"/>
      <path d="M 3328 2828 
Q 3544 3216 3844 3400 
Q 4144 3584 4550 3584 
Q 5097 3584 5394 3201 
Q 5691 2819 5691 2113 
L 5691 0 
L 5113 0 
L 5113 2094 
Q 5113 2597 4934 2840 
Q 4756 3084 4391 3084 
Q 3944 3084 3684 2787 
Q 3425 2491 3425 1978 
L 3425 0 
L 2847 0 
L 2847 2094 
Q 2847 2600 2669 2842 
Q 2491 3084 2119 3084 
Q 1678 3084 1418 2786 
Q 1159 2488 1159 1978 
L 1159 0 
L 581 0 
L 581 3500 
L 1159 3500 
L 1159 2956 
Q 1356 3278 1631 3431 
Q 1906 3584 2284 3584 
Q 2666 3584 2933 3390 
Q 3200 3197 3328 2828 
z
" id="DejaVuSans-6d" transform="scale(0.015625)"/>
      <path d="M 1159 525 
L 1159 -1331 
L 581 -1331 
L 581 3500 
L 1159 3500 
L 1159 2969 
Q 1341 3281 1617 3432 
Q 1894 3584 2278 3584 
Q 2916 3584 3314 3078 
Q 3713 2572 3713 1747 
Q 3713 922 3314 415 
Q 2916 -91 2278 -91 
Q 1894 -91 1617 61 
Q 1341 213 1159 525 
z
M 3116 1747 
Q 3116 2381 2855 2742 
Q 2594 3103 2138 3103 
Q 1681 3103 1420 2742 
Q 1159 2381 1159 1747 
Q 1159 1113 1420 752 
Q 1681 391 2138 391 
Q 2594 391 2855 752 
Q 3116 1113 3116 1747 
z
" id="DejaVuSans-70" transform="scale(0.015625)"/>
      <path d="M 525 4666 
L 3525 4666 
L 3525 4397 
L 1831 0 
L 1172 0 
L 2766 4134 
L 525 4134 
L 525 4666 
z
" id="DejaVuSans-37" transform="scale(0.015625)"/>
      <path d="M 2113 2584 
Q 1688 2584 1439 2293 
Q 1191 2003 1191 1497 
Q 1191 994 1439 701 
Q 1688 409 2113 409 
Q 2538 409 2786 701 
Q 3034 994 3034 1497 
Q 3034 2003 2786 2293 
Q 2538 2584 2113 2584 
z
M 3366 4563 
L 3366 3988 
Q 3128 4100 2886 4159 
Q 2644 4219 2406 4219 
Q 1781 4219 1451 3797 
Q 1122 3375 1075 2522 
Q 1259 2794 1537 2939 
Q 1816 3084 2150 3084 
Q 2853 3084 3261 2657 
Q 3669 2231 3669 1497 
Q 3669 778 3244 343 
Q 2819 -91 2113 -91 
Q 1303 -91 875 529 
Q 447 1150 447 2328 
Q 447 3434 972 4092 
Q 1497 4750 2381 4750 
Q 2619 4750 2861 4703 
Q 3103 4656 3366 4563 
z
" id="DejaVuSans-36" transform="scale(0.015625)"/>
     </defs>
     <use xlink:href="#DejaVuSans-44"/>
     <use x="77.001953" xlink:href="#DejaVuSans-65"/>
     <use x="138.525391" xlink:href="#DejaVuSans-63"/>
     <use x="193.505859" xlink:href="#DejaVuSans-61"/>
     <use x="254.785156" xlink:href="#DejaVuSans-6d"/>
     <use x="352.197266" xlink:href="#DejaVuSans-70"/>
     <use x="415.673828" xlink:href="#DejaVuSans-20"/>
     <use x="447.460938" xlink:href="#DejaVuSans-32"/>
     <use x="511.083984" xlink:href="#DejaVuSans-37"/>
     <use x="574.707031" xlink:href="#DejaVuSans-2e"/>
     <use x="606.494141" xlink:href="#DejaVuSans-36"/>
     <use x="670.117188" xlink:href="#DejaVuSans-b0"/>
    </g>
   </g>
   <g id="text_11">
    <g id="patch_12">
     <path d="M 66.156024 55.101111 
L 70.505502 68.739995 
L 72.387734 68.139746 
L 68.038255 54.500862 
z
" style="fill:#ffffff;"/>
    </g>
    <!-- Olympic 26.0° -->
    <g transform="translate(66.57743 54.987716)rotate(-287.68763)scale(0.02 -0.02)">
     <defs>
      <path d="M 2522 4238 
Q 1834 4238 1429 3725 
Q 1025 3213 1025 2328 
Q 1025 1447 1429 934 
Q 1834 422 2522 422 
Q 3209 422 3611 934 
Q 4013 1447 4013 2328 
Q 4013 3213 3611 3725 
Q 3209 4238 2522 4238 
z
M 2522 4750 
Q 3503 4750 4090 4092 
Q 4678 3434 4678 2328 
Q 4678 1225 4090 567 
Q 3503 -91 2522 -91 
Q 1538 -91 948 565 
Q 359 1222 359 2328 
Q 359 3434 948 4092 
Q 1538 4750 2522 4750 
z
" id="DejaVuSans-4f" transform="scale(0.015625)"/>
      <path d="M 2059 -325 
Q 1816 -950 1584 -1140 
Q 1353 -1331 966 -1331 
L 506 -1331 
L 506 -850 
L 844 -850 
Q 1081 -850 1212 -737 
Q 1344 -625 1503 -206 
L 1606 56 
L 191 3500 
L 800 3500 
L 1894 763 
L 2988 3500 
L 3597 3500 
L 2059 -325 
z
" id="DejaVuSans-79" transform="scale(0.015625)"/>
     </defs>
     <use xlink:href="#DejaVuSans-4f"/>
     <use x="78.710938" xlink:href="#DejaVuSans-6c"/>
     <use x="106.494141" xlink:href="#DejaVuSans-79"/>
     <use x="165.673828" xlink:href="#DejaVuSans-6d"/>
     <use x="263.085938" xlink:href="#DejaVuSans-70"/>
     <use x="326.5625" xlink:href="#DejaVuSans-69"/>
     <use x="354.345703" xlink:href="#DejaVuSans-63"/>
     <use x="409.326172" xlink:href="#DejaVuSans-20"/>
     <use x="441.113281" xlink:href="#DejaVuSans-32"/>
     <use x="504.736328" xlink:href="#DejaVuSans-36"/>
     <use x="568.359375" xlink:href="#DejaVuSans-2e"/>
     <use x="600.146484" xlink:href="#DejaVuSans-30"/>
     <use x="663.769531" xlink:href="#DejaVuSans-b0"/>
    </g>
   </g>
   <g id="text_12">
    <g id="patch_13">
     <path d="M 49.800254 81.357226 
L 59.600774 90.708282 
L 60.964591 89.278912 
L 51.164071 79.927857 
z
" style="fill:#ffffff;"/>
    </g>
    <!-- Skyride 24.2° -->
    <g transform="translate(50.115662 81.055631)rotate(-316.344417)scale(0.02 -0.02)">
     <use xlink:href="#DejaVuSans-53"/>
     <use x="63.476562" xlink:href="#DejaVuSans-6b"/>
     <use x="117.761719" xlink:href="#DejaVuSans-79"/>
     <use x="176.941406" xlink:href="#DejaVuSans-72"/>
     <use x="218.054688" xlink:href="#DejaVuSans-69"/>
     <use x="245.837891" xlink:href="#DejaVuSans-64"/>
     <use x="309.314453" xlink:href="#DejaVuSans-65"/>
     <use x="370.837891" xlink:href="#DejaVuSans-20"/>
     <use x="402.625" xlink:href="#DejaVuSans-32"/>
     <use x="466.248047" xlink:href="#DejaVuSans-34"/>
     <use x="529.871094" xlink:href="#DejaVuSans-2e"/>
     <use x="561.658203" xlink:href="#DejaVuSans-32"/>
     <use x="625.28125" xlink:href="#DejaVuSans-b0"/>
    </g>
   </g>
   <g id="text_13">
    <g id="patch_14">
     <path d="M 42.716061 89.854126 
L 57.102111 93.1778 
L 57.546834 91.25288 
L 43.160784 87.929207 
z
" style="fill:#ffffff;"/>
    </g>
    <!-- Last Run 17.3° -->
    <g style="fill:#4169e1;" transform="translate(42.83368 89.43388)rotate(-346.990955)scale(0.02 -0.02)">
     <defs>
      <path d="M 628 4666 
L 1259 4666 
L 1259 531 
L 3531 531 
L 3531 0 
L 628 0 
L 628 4666 
z
" id="DejaVuSans-4c" transform="scale(0.015625)"/>
      <path d="M 1172 4494 
L 1172 3500 
L 2356 3500 
L 2356 3053 
L 1172 3053 
L 1172 1153 
Q 1172 725 1289 603 
Q 1406 481 1766 481 
L 2356 481 
L 2356 0 
L 1766 0 
Q 1100 0 847 248 
Q 594 497 594 1153 
L 594 3053 
L 172 3053 
L 172 3500 
L 594 3500 
L 594 4494 
L 1172 4494 
z
" id="DejaVuSans-74" transform="scale(0.015625)"/>
     </defs>
     <use xlink:href="#DejaVuSans-4c"/>
     <use x="55.712891" xlink:href="#DejaVuSans-61"/>
     <use x="116.992188" xlink:href="#DejaVuSans-73"/>
     <use x="169.091797" xlink:href="#DejaVuSans-74"/>
     <use x="208.300781" xlink:href="#DejaVuSans-20"/>
     <use x="240.087891" xlink:href="#DejaVuSans-52"/>
     <use x="305.070312" xlink:href="#DejaVuSans-75"/>
     <use x="368.449219" xlink:href="#DejaVuSans-6e"/>
     <use x="431.828125" xlink:href="#DejaVuSans-20"/>
     <use x="463.615234" xlink:href="#DejaVuSans-31"/>
     <use x="527.238281" xlink:href="#DejaVuSans-37"/>
     <use x="590.861328" xlink:href="#DejaVuSans-2e"/>
     <use x="622.648438" xlink:href="#DejaVuSans-33"/>
     <use x="686.271484" xlink:href="#DejaVuSans-b0"/>
    </g>
   </g>
   <g id="text_14">
    <g id="patch_15">
     <path d="M 55.287672 60.369801 
L 65.747731 71.137075 
L 67.164778 69.760459 
L 56.704719 58.993185 
z
" style="fill:#ffffff;"/>
    </g>
    <!-- Helmer's 25.7° -->
    <g transform="translate(55.61429 60.080385)rotate(-314.17084)scale(0.02 -0.02)">
     <defs>
      <path d="M 628 4666 
L 1259 4666 
L 1259 2753 
L 3553 2753 
L 3553 4666 
L 4184 4666 
L 4184 0 
L 3553 0 
L 3553 2222 
L 1259 2222 
L 1259 0 
L 628 0 
L 628 4666 
z
" id="DejaVuSans-48" transform="scale(0.015625)"/>
      <path d="M 691 4666 
L 3169 4666 
L 3169 4134 
L 1269 4134 
L 1269 2991 
Q 1406 3038 1543 3061 
Q 1681 3084 1819 3084 
Q 2600 3084 3056 2656 
Q 3513 2228 3513 1497 
Q 3513 744 3044 326 
Q 2575 -91 1722 -91 
Q 1428 -91 1123 -41 
Q 819 9 494 109 
L 494 744 
Q 775 591 1075 516 
Q 1375 441 1709 441 
Q 2250 441 2565 725 
Q 2881 1009 2881 1497 
Q 2881 1984 2565 2268 
Q 2250 2553 1709 2553 
Q 1456 2553 1204 2497 
Q 953 2441 691 2322 
L 691 4666 
z
" id="DejaVuSans-35" transform="scale(0.015625)"/>
     </defs>
     <use xlink:href="#DejaVuSans-48"/>
     <use x="75.195312" xlink:href="#DejaVuSans-65"/>
     <use x="136.71875" xlink:href="#DejaVuSans-6c"/>
     <use x="164.501953" xlink:href="#DejaVuSans-6d"/>
     <use x="261.914062" xlink:href="#DejaVuSans-65"/>
     <use x="323.4375" xlink:href="#DejaVuSans-72"/>
     <use x="364.550781" xlink:href="#DejaVuSans-27"/>
     <use x="392.041016" xlink:href="#DejaVuSans-73"/>
     <use x="444.140625" xlink:href="#DejaVuSans-20"/>
     <use x="475.927734" xlink:href="#DejaVuSans-32"/>
     <use x="539.550781" xlink:href="#DejaVuSans-35"/>
     <use x="603.173828" xlink:href="#DejaVuSans-2e"/>
     <use x="634.960938" xlink:href="#DejaVuSans-37"/>
     <use x="698.583984" xlink:href="#DejaVuSans-b0"/>
    </g>
   </g>
   <g id="text_15">
    <g id="patch_16">
     <path d="M 38.886526 71.679732 
L 49.368685 66.149462 
L 48.446803 64.402113 
L 37.964644 69.932383 
z
" style="fill:#ffffff;"/>
    </g>
    <!-- Racer 19.5° -->
    <g style="fill:#4169e1;" transform="translate(38.700794 71.284833)rotate(-27.815628)scale(0.02 -0.02)">
     <defs>
      <path d="M 703 97 
L 703 672 
Q 941 559 1184 500 
Q 1428 441 1663 441 
Q 2288 441 2617 861 
Q 2947 1281 2994 2138 
Q 2813 1869 2534 1725 
Q 2256 1581 1919 1581 
Q 1219 1581 811 2004 
Q 403 2428 403 3163 
Q 403 3881 828 4315 
Q 1253 4750 1959 4750 
Q 2769 4750 3195 4129 
Q 3622 3509 3622 2328 
Q 3622 1225 3098 567 
Q 2575 -91 1691 -91 
Q 1453 -91 1209 -44 
Q 966 3 703 97 
z
M 1959 2075 
Q 2384 2075 2632 2365 
Q 2881 2656 2881 3163 
Q 2881 3666 2632 3958 
Q 2384 4250 1959 4250 
Q 1534 4250 1286 3958 
Q 1038 3666 1038 3163 
Q 1038 2656 1286 2365 
Q 1534 2075 1959 2075 
z
" id="DejaVuSans-39" transform="scale(0.015625)"/>
     </defs>
     <use xlink:href="#DejaVuSans-52"/>
     <use x="67.232422" xlink:href="#DejaVuSans-61"/>
     <use x="128.511719" xlink:href="#DejaVuSans-63"/>
     <use x="183.492188" xlink:href="#DejaVuSans-65"/>
     <use x="245.015625" xlink:href="#DejaVuSans-72"/>
     <use x="286.128906" xlink:href="#DejaVuSans-20"/>
     <use x="317.916016" xlink:href="#DejaVuSans-31"/>
     <use x="381.539062" xlink:href="#DejaVuSans-39"/>
     <use x="445.162109" xlink:href="#DejaVuSans-2e"/>
     <use x="476.949219" xlink:href="#DejaVuSans-35"/>
     <use x="540.572266" xlink:href="#DejaVuSans-b0"/>
    </g>
   </g>
   <g id="text_16">
    <g id="patch_17">
     <path d="M 38.259238 62.391013 
L 43.39445 45.895607 
L 41.508118 45.30837 
L 36.372907 61.803776 
z
" style="fill:#ffffff;"/>
    </g>
    <!-- God's Land 20.8° -->
    <g style="fill:#4169e1;" transform="translate(37.848949 62.242338)rotate(-72.708027)scale(0.02 -0.02)">
     <defs>
      <path d="M 3809 666 
L 3809 1919 
L 2778 1919 
L 2778 2438 
L 4434 2438 
L 4434 434 
Q 4069 175 3628 42 
Q 3188 -91 2688 -91 
Q 1594 -91 976 548 
Q 359 1188 359 2328 
Q 359 3472 976 4111 
Q 1594 4750 2688 4750 
Q 3144 4750 3555 4637 
Q 3966 4525 4313 4306 
L 4313 3634 
Q 3963 3931 3569 4081 
Q 3175 4231 2741 4231 
Q 1884 4231 1454 3753 
Q 1025 3275 1025 2328 
Q 1025 1384 1454 906 
Q 1884 428 2741 428 
Q 3075 428 3337 486 
Q 3600 544 3809 666 
z
" id="DejaVuSans-47" transform="scale(0.015625)"/>
      <path d="M 1959 3097 
Q 1497 3097 1228 2736 
Q 959 2375 959 1747 
Q 959 1119 1226 758 
Q 1494 397 1959 397 
Q 2419 397 2687 759 
Q 2956 1122 2956 1747 
Q 2956 2369 2687 2733 
Q 2419 3097 1959 3097 
z
M 1959 3584 
Q 2709 3584 3137 3096 
Q 3566 2609 3566 1747 
Q 3566 888 3137 398 
Q 2709 -91 1959 -91 
Q 1206 -91 779 398 
Q 353 888 353 1747 
Q 353 2609 779 3096 
Q 1206 3584 1959 3584 
z
" id="DejaVuSans-6f" transform="scale(0.015625)"/>
     </defs>
     <use xlink:href="#DejaVuSans-47"/>
     <use x="77.490234" xlink:href="#DejaVuSans-6f"/>
     <use x="138.671875" xlink:href="#DejaVuSans-64"/>
     <use x="202.148438" xlink:href="#DejaVuSans-27"/>
     <use x="229.638672" xlink:href="#DejaVuSans-73"/>
     <use x="281.738281" xlink:href="#DejaVuSans-20"/>
     <use x="313.525391" xlink:href="#DejaVuSans-4c"/>
     <use x="369.238281" xlink:href="#DejaVuSans-61"/>
     <use x="430.517578" xlink:href="#DejaVuSans-6e"/>
     <use x="493.896484" xlink:href="#DejaVuSans-64"/>
     <use x="557.373047" xlink:href="#DejaVuSans-20"/>
     <use x="589.160156" xlink:href="#DejaVuSans-32"/>
     <use x="652.783203" xlink:href="#DejaVuSans-30"/>
     <use x="716.40625" xlink:href="#DejaVuSans-2e"/>
     <use x="748.193359" xlink:href="#DejaVuSans-38"/>
     <use x="811.816406" xlink:href="#DejaVuSans-b0"/>
    </g>
   </g>
   <g id="text_17">
    <g id="patch_18">
     <path d="M 38.057122 63.008419 
L 38.321956 48.031698 
L 36.34664 47.996769 
L 36.081806 62.97349 
z
" style="fill:#ffffff;"/>
    </g>
    <!-- Lost Trail 21.8° -->
    <g style="fill:#4169e1;" transform="translate(37.621607 62.980715)rotate(-88.986943)scale(0.02 -0.02)">
     <defs>
      <path d="M -19 4666 
L 3928 4666 
L 3928 4134 
L 2272 4134 
L 2272 0 
L 1638 0 
L 1638 4134 
L -19 4134 
L -19 4666 
z
" id="DejaVuSans-54" transform="scale(0.015625)"/>
     </defs>
     <use xlink:href="#DejaVuSans-4c"/>
     <use x="53.962891" xlink:href="#DejaVuSans-6f"/>
     <use x="115.144531" xlink:href="#DejaVuSans-73"/>
     <use x="167.244141" xlink:href="#DejaVuSans-74"/>
     <use x="206.453125" xlink:href="#DejaVuSans-20"/>
     <use x="238.240234" xlink:href="#DejaVuSans-54"/>
     <use x="284.574219" xlink:href="#DejaVuSans-72"/>
     <use x="325.6875" xlink:href="#DejaVuSans-61"/>
     <use x="386.966797" xlink:href="#DejaVuSans-69"/>
     <use x="414.75" xlink:href="#DejaVuSans-6c"/>
     <use x="442.533203" xlink:href="#DejaVuSans-20"/>
     <use x="474.320312" xlink:href="#DejaVuSans-32"/>
     <use x="537.943359" xlink:href="#DejaVuSans-31"/>
     <use x="601.566406" xlink:href="#DejaVuSans-2e"/>
     <use x="633.353516" xlink:href="#DejaVuSans-38"/>
     <use x="696.976562" xlink:href="#DejaVuSans-b0"/>
    </g>
   </g>
   <g id="text_18">
    <g id="patch_19">
     <path d="M 11.778686 50.357045 
L 23.625023 41.951748 
L 22.481797 40.340498 
L 10.63546 48.745795 
z
" style="fill:#ffffff;"/>
    </g>
    <!-- Rambler 15.1° -->
    <g style="fill:#008000;" transform="translate(11.542735 49.989937)rotate(-35.356733)scale(0.02 -0.02)">
     <defs>
      <path d="M 3116 1747 
Q 3116 2381 2855 2742 
Q 2594 3103 2138 3103 
Q 1681 3103 1420 2742 
Q 1159 2381 1159 1747 
Q 1159 1113 1420 752 
Q 1681 391 2138 391 
Q 2594 391 2855 752 
Q 3116 1113 3116 1747 
z
M 1159 2969 
Q 1341 3281 1617 3432 
Q 1894 3584 2278 3584 
Q 2916 3584 3314 3078 
Q 3713 2572 3713 1747 
Q 3713 922 3314 415 
Q 2916 -91 2278 -91 
Q 1894 -91 1617 61 
Q 1341 213 1159 525 
L 1159 0 
L 581 0 
L 581 4863 
L 1159 4863 
L 1159 2969 
z
" id="DejaVuSans-62" transform="scale(0.015625)"/>
     </defs>
     <use xlink:href="#DejaVuSans-52"/>
     <use x="67.232422" xlink:href="#DejaVuSans-61"/>
     <use x="128.511719" xlink:href="#DejaVuSans-6d"/>
     <use x="225.923828" xlink:href="#DejaVuSans-62"/>
     <use x="289.400391" xlink:href="#DejaVuSans-6c"/>
     <use x="317.183594" xlink:href="#DejaVuSans-65"/>
     <use x="378.707031" xlink:href="#DejaVuSans-72"/>
     <use x="419.820312" xlink:href="#DejaVuSans-20"/>
     <use x="451.607422" xlink:href="#DejaVuSans-31"/>
     <use x="515.230469" xlink:href="#DejaVuSans-35"/>
     <use x="578.853516" xlink:href="#DejaVuSans-2e"/>
     <use x="610.640625" xlink:href="#DejaVuSans-31"/>
     <use x="674.263672" xlink:href="#DejaVuSans-b0"/>
    </g>
   </g>
   <g id="text_19">
    <!-- McCauley Mountain -->
    <g transform="translate(24.011679 8.711071)scale(0.08 -0.08)">
     <use xlink:href="#DejaVuSans-4d"/>
     <use x="86.279297" xlink:href="#DejaVuSans-63"/>
     <use x="141.259766" xlink:href="#DejaVuSans-43"/>
     <use x="211.083984" xlink:href="#DejaVuSans-61"/>
     <use x="272.363281" xlink:href="#DejaVuSans-75"/>
     <use x="335.742188" xlink:href="#DejaVuSans-6c"/>
     <use x="363.525391" xlink:href="#DejaVuSans-65"/>
     <use x="425.048828" xlink:href="#DejaVuSans-79"/>
     <use x="484.228516" xlink:href="#DejaVuSans-20"/>
     <use x="516.015625" xlink:href="#DejaVuSans-4d"/>
     <use x="602.294922" xlink:href="#DejaVuSans-6f"/>
     <use x="663.476562" xlink:href="#DejaVuSans-75"/>
     <use x="726.855469" xlink:href="#DejaVuSans-6e"/>
     <use x="790.234375" xlink:href="#DejaVuSans-74"/>
     <use x="829.443359" xlink:href="#DejaVuSans-61"/>
     <use x="890.722656" xlink:href="#DejaVuSans-69"/>
     <use x="918.505859" xlink:href="#DejaVuSans-6e"/>
    </g>
   </g>
   <g id="legend_1">
    <g id="line2d_33">
     <path d="M 7.285741 108.609479 
L 15.285741 108.609479 
" style="fill:none;stroke:#008000;stroke-linecap:square;stroke-width:1.5;"/>
    </g>
    <g id="line2d_34"/>
    <g id="text_20">
     <!-- Easy -->
     <g transform="translate(18.485741 110.009479)scale(0.04 -0.04)">
      <defs>
       <path d="M 628 4666 
L 3578 4666 
L 3578 4134 
L 1259 4134 
L 1259 2753 
L 3481 2753 
L 3481 2222 
L 1259 2222 
L 1259 531 
L 3634 531 
L 3634 0 
L 628 0 
L 628 4666 
z
" id="DejaVuSans-45" transform="scale(0.015625)"/>
      </defs>
      <use xlink:href="#DejaVuSans-45"/>
      <use x="63.183594" xlink:href="#DejaVuSans-61"/>
      <use x="124.462891" xlink:href="#DejaVuSans-73"/>
      <use x="176.5625" xlink:href="#DejaVuSans-79"/>
     </g>
    </g>
    <g id="line2d_35">
     <path d="M 7.285741 114.480729 
L 15.285741 114.480729 
" style="fill:none;stroke:#4169e1;stroke-linecap:square;stroke-width:1.5;"/>
    </g>
    <g id="line2d_36"/>
    <g id="text_21">
     <!-- Intermediate -->
     <g transform="translate(18.485741 115.880729)scale(0.04 -0.04)">
      <defs>
       <path d="M 628 4666 
L 1259 4666 
L 1259 0 
L 628 0 
L 628 4666 
z
" id="DejaVuSans-49" transform="scale(0.015625)"/>
      </defs>
      <use xlink:href="#DejaVuSans-49"/>
      <use x="29.492188" xlink:href="#DejaVuSans-6e"/>
      <use x="92.871094" xlink:href="#DejaVuSans-74"/>
      <use x="132.080078" xlink:href="#DejaVuSans-65"/>
      <use x="193.603516" xlink:href="#DejaVuSans-72"/>
      <use x="232.966797" xlink:href="#DejaVuSans-6d"/>
      <use x="330.378906" xlink:href="#DejaVuSans-65"/>
      <use x="391.902344" xlink:href="#DejaVuSans-64"/>
      <use x="455.378906" xlink:href="#DejaVuSans-69"/>
      <use x="483.162109" xlink:href="#DejaVuSans-61"/>
      <use x="544.441406" xlink:href="#DejaVuSans-74"/>
      <use x="583.650391" xlink:href="#DejaVuSans-65"/>
     </g>
    </g>
    <g id="line2d_37">
     <path d="M 52.293241 108.609479 
L 60.293241 108.609479 
" style="fill:none;stroke:#000000;stroke-linecap:square;stroke-width:1.5;"/>
    </g>
    <g id="line2d_38"/>
    <g id="text_22">
     <!-- Advanced -->
     <g transform="translate(63.493241 110.009479)scale(0.04 -0.04)">
      <defs>
       <path d="M 2188 4044 
L 1331 1722 
L 3047 1722 
L 2188 4044 
z
M 1831 4666 
L 2547 4666 
L 4325 0 
L 3669 0 
L 3244 1197 
L 1141 1197 
L 716 0 
L 50 0 
L 1831 4666 
z
" id="DejaVuSans-41" transform="scale(0.015625)"/>
       <path d="M 191 3500 
L 800 3500 
L 1894 563 
L 2988 3500 
L 3597 3500 
L 2284 0 
L 1503 0 
L 191 3500 
z
" id="DejaVuSans-76" transform="scale(0.015625)"/>
      </defs>
      <use xlink:href="#DejaVuSans-41"/>
      <use x="66.658203" xlink:href="#DejaVuSans-64"/>
      <use x="130.134766" xlink:href="#DejaVuSans-76"/>
      <use x="189.314453" xlink:href="#DejaVuSans-61"/>
      <use x="250.59375" xlink:href="#DejaVuSans-6e"/>
      <use x="313.972656" xlink:href="#DejaVuSans-63"/>
      <use x="368.953125" xlink:href="#DejaVuSans-65"/>
      <use x="430.476562" xlink:href="#DejaVuSans-64"/>
     </g>
    </g>
    <g id="line2d_39">
     <path d="M 52.293241 114.480729 
L 60.293241 114.480729 
" style="fill:none;stroke:#ff0000;stroke-linecap:square;stroke-width:1.5;"/>
    </g>
    <g id="line2d_40"/>
    <g id="text_23">
     <!-- Expert -->
     <g transform="translate(63.493241 115.880729)scale(0.04 -0.04)">
      <defs>
       <path d="M 3513 3500 
L 2247 1797 
L 3578 0 
L 2900 0 
L 1881 1375 
L 863 0 
L 184 0 
L 1544 1831 
L 300 3500 
L 978 3500 
L 1906 2253 
L 2834 3500 
L 3513 3500 
z
" id="DejaVuSans-78" transform="scale(0.015625)"/>
      </defs>
      <use xlink:href="#DejaVuSans-45"/>
      <use x="63.183594" xlink:href="#DejaVuSans-78"/>
      <use x="122.363281" xlink:href="#DejaVuSans-70"/>
      <use x="185.839844" xlink:href="#DejaVuSans-65"/>
      <use x="247.363281" xlink:href="#DejaVuSans-72"/>
      <use x="288.476562" xlink:href="#DejaVuSans-74"/>
     </g>
    </g>
    <g id="line2d_41">
     <path d="M 91.252616 108.609479 
L 99.252616 108.609479 
" style="fill:none;stroke:#ffd700;stroke-linecap:square;stroke-width:1.5;"/>
    </g>
    <g id="line2d_42"/>
    <g id="text_24">
     <!-- Extreme -->
     <g transform="translate(102.452616 110.009479)scale(0.04 -0.04)">
      <use xlink:href="#DejaVuSans-45"/>
      <use x="63.183594" xlink:href="#DejaVuSans-78"/>
      <use x="122.363281" xlink:href="#DejaVuSans-74"/>
      <use x="161.572266" xlink:href="#DejaVuSans-72"/>
      <use x="200.435547" xlink:href="#DejaVuSans-65"/>
      <use x="261.958984" xlink:href="#DejaVuSans-6d"/>
      <use x="359.371094" xlink:href="#DejaVuSans-65"/>
     </g>
    </g>
    <g id="line2d_43">
     <path d="M 91.252616 114.480729 
L 99.252616 114.480729 
" style="fill:none;stroke:#000000;stroke-dasharray:1.5,2.475;stroke-dashoffset:0;stroke-width:1.5;"/>
    </g>
    <g id="line2d_44"/>
    <g id="text_25">
     <!-- Gladed -->
     <g transform="translate(102.452616 115.880729)scale(0.04 -0.04)">
      <use xlink:href="#DejaVuSans-47"/>
      <use x="77.490234" xlink:href="#DejaVuSans-6c"/>
      <use x="105.273438" xlink:href="#DejaVuSans-61"/>
      <use x="166.552734" xlink:href="#DejaVuSans-64"/>
      <use x="230.029297" xlink:href="#DejaVuSans-65"/>
      <use x="291.552734" xlink:href="#DejaVuSans-64"/>
     </g>
    </g>
   </g>
  </g>
  <g id="text_26">
   <!-- Sources: USGS and OpenStreetMaps -->
   <g transform="translate(31.558771 122.217671)scale(0.034783 -0.034783)">
    <defs>
     <path d="M 750 794 
L 1409 794 
L 1409 0 
L 750 0 
L 750 794 
z
M 750 3309 
L 1409 3309 
L 1409 2516 
L 750 2516 
L 750 3309 
z
" id="DejaVuSans-3a" transform="scale(0.015625)"/>
     <path d="M 556 4666 
L 1191 4666 
L 1191 1831 
Q 1191 1081 1462 751 
Q 1734 422 2344 422 
Q 2950 422 3222 751 
Q 3494 1081 3494 1831 
L 3494 4666 
L 4128 4666 
L 4128 1753 
Q 4128 841 3676 375 
Q 3225 -91 2344 -91 
Q 1459 -91 1007 375 
Q 556 841 556 1753 
L 556 4666 
z
" id="DejaVuSans-55" transform="scale(0.015625)"/>
    </defs>
    <use xlink:href="#DejaVuSans-53"/>
    <use x="63.476562" xlink:href="#DejaVuSans-6f"/>
    <use x="124.658203" xlink:href="#DejaVuSans-75"/>
    <use x="188.037109" xlink:href="#DejaVuSans-72"/>
    <use x="226.900391" xlink:href="#DejaVuSans-63"/>
    <use x="281.880859" xlink:href="#DejaVuSans-65"/>
    <use x="343.404297" xlink:href="#DejaVuSans-73"/>
    <use x="395.503906" xlink:href="#DejaVuSans-3a"/>
    <use x="429.195312" xlink:href="#DejaVuSans-20"/>
    <use x="460.982422" xlink:href="#DejaVuSans-55"/>
    <use x="534.175781" xlink:href="#DejaVuSans-53"/>
    <use x="597.652344" xlink:href="#DejaVuSans-47"/>
    <use x="675.142578" xlink:href="#DejaVuSans-53"/>
    <use x="738.619141" xlink:href="#DejaVuSans-20"/>
    <use x="770.40625" xlink:href="#DejaVuSans-61"/>
    <use x="831.685547" xlink:href="#DejaVuSans-6e"/>
    <use x="895.064453" xlink:href="#DejaVuSans-64"/>
    <use x="958.541016" xlink:href="#DejaVuSans-20"/>
    <use x="990.328125" xlink:href="#DejaVuSans-4f"/>
    <use x="1069.039062" xlink:href="#DejaVuSans-70"/>
    <use x="1132.515625" xlink:href="#DejaVuSans-65"/>
    <use x="1194.039062" xlink:href="#DejaVuSans-6e"/>
    <use x="1257.417969" xlink:href="#DejaVuSans-53"/>
    <use x="1320.894531" xlink:href="#DejaVuSans-74"/>
    <use x="1360.103516" xlink:href="#DejaVuSans-72"/>
    <use x="1398.966797" xlink:href="#DejaVuSans-65"/>
    <use x="1460.490234" xlink:href="#DejaVuSans-65"/>
    <use x="1522.013672" xlink:href="#DejaVuSans-74"/>
    <use x="1561.222656" xlink:href="#DejaVuSans-4d"/>
    <use x="1647.501953" xlink:href="#DejaVuSans-61"/>
    <use x="1708.78125" xlink:href="#DejaVuSans-70"/>
    <use x="1772.257812" xlink:href="#DejaVuSans-73"/>
   </g>
  </g>
 </g>
 <defs>
  <clipPath id="pca85d5d0b4">
   <rect height="97.518898" width="126.574607" x="0" y="12.711071"/>
  </clipPath>
 </defs>
</svg>
