<?xml version="1.0" encoding="utf-8" standalone="no"?>
<!DOCTYPE svg PUBLIC "-//W3C//DTD SVG 1.1//EN"
  "http://www.w3.org/Graphics/SVG/1.1/DTD/svg11.dtd">
<svg height="296.155245pt" version="1.1" viewBox="0 0 240.226637 296.155245" width="240.226637pt" xmlns="http://www.w3.org/2000/svg" xmlns:xlink="http://www.w3.org/1999/xlink">
 <metadata>
  <rdf:RDF xmlns:cc="http://creativecommons.org/ns#" xmlns:dc="http://purl.org/dc/elements/1.1/" xmlns:rdf="http://www.w3.org/1999/02/22-rdf-syntax-ns#">
   <cc:Work>
    <dc:type rdf:resource="http://purl.org/dc/dcmitype/StillImage"/>
    <dc:date>2022-04-14T21:30:33.988655</dc:date>
    <dc:format>image/svg+xml</dc:format>
    <dc:creator>
     <cc:Agent>
      <dc:title>Matplotlib v3.4.3, https://matplotlib.org/</dc:title>
     </cc:Agent>
    </dc:creator>
   </cc:Work>
  </rdf:RDF>
 </metadata>
 <defs>
  <style type="text/css">*{stroke-linecap:butt;stroke-linejoin:round;}</style>
 </defs>
 <g id="figure_1">
  <g id="patch_1">
   <path d="M 0 296.155245 
L 240.226637 296.155245 
L 240.226637 0 
L 0 0 
z
" style="fill:#ffffff;"/>
  </g>
  <g id="axes_1">
   <g id="line2d_1">
    <path clip-path="url(#pbf861574d0)" d="M 202.817626 142.804835 
" style="fill:none;stroke:#008000;stroke-linecap:square;stroke-width:1.5;"/>
   </g>
   <g id="line2d_2">
    <path clip-path="url(#pbf861574d0)" d="M 202.817626 142.804835 
" style="fill:none;stroke:#4169e1;stroke-linecap:square;stroke-width:1.5;"/>
   </g>
   <g id="line2d_3">
    <path clip-path="url(#pbf861574d0)" d="M 202.817626 142.804835 
" style="fill:none;stroke:#000000;stroke-linecap:square;stroke-width:1.5;"/>
   </g>
   <g id="line2d_4">
    <path clip-path="url(#pbf861574d0)" d="M 202.817626 142.804835 
" style="fill:none;stroke:#ff0000;stroke-linecap:square;stroke-width:1.5;"/>
   </g>
   <g id="line2d_5">
    <path clip-path="url(#pbf861574d0)" d="M 202.817626 142.804835 
" style="fill:none;stroke:#ffd700;stroke-linecap:square;stroke-width:1.5;"/>
   </g>
   <g id="line2d_6">
    <path clip-path="url(#pbf861574d0)" d="M 202.817626 142.804835 
" style="fill:none;stroke:#000000;stroke-dasharray:1.5,2.475;stroke-dashoffset:0;stroke-width:1.5;"/>
   </g>
   <g id="line2d_7">
    <path clip-path="url(#pbf861574d0)" d="M 136.415348 247.581331 
L 132.38833 242.752062 
L 128.533255 238.129148 
L 124.67818 233.506234 
L 122.598096 231.011709 
L 120.518012 228.517185 
L 118.437928 226.02266 
L 116.357844 223.528135 
L 113.952223 220.643113 
L 111.546601 217.75809 
L 109.14098 214.873068 
L 106.735359 211.988046 
L 104.243242 208.999847 
L 101.751125 206.011647 
L 99.259008 203.023448 
L 96.766892 200.035248 
L 94.639628 197.483761 
L 92.512365 194.932274 
" style="fill:none;stroke:#808080;stroke-linecap:square;stroke-width:1.5;"/>
   </g>
   <g id="line2d_8">
    <path clip-path="url(#pbf861574d0)" d="M 158.200663 236.025479 
L 159.334015 230.674592 
L 160.157556 226.641365 
L 160.981098 222.608138 
L 162.123886 217.609057 
L 163.266674 212.609976 
L 164.226511 207.612328 
L 165.186348 202.61468 
L 166.154573 198.470394 
L 167.122797 194.326107 
L 168.091022 190.181821 
L 169.059246 186.037535 
L 169.934161 181.854557 
L 170.809075 177.67158 
L 171.645722 174.010937 
L 172.482369 170.350294 
L 173.319015 166.689652 
L 174.155662 163.029009 
L 175.206188 158.304351 
L 176.256715 153.579692 
L 176.803995 149.877492 
L 177.351275 146.175292 
L 178.255021 142.319759 
L 179.158767 138.464226 
L 180.531161 133.443649 
L 181.903555 128.423073 
L 182.885934 124.149815 
L 183.868312 119.876558 
L 184.977551 113.916639 
L 185.816556 110.224111 
L 186.655562 106.531584 
L 187.494568 102.839056 
L 188.333573 99.146529 
L 189.159736 95.727349 
L 189.985898 92.30817 
" style="fill:none;stroke:#808080;stroke-linecap:square;stroke-width:1.5;"/>
   </g>
   <g id="line2d_9">
    <path clip-path="url(#pbf861574d0)" d="M 14.625591 59.997928 
L 20.770436 60.591197 
L 24.247028 60.92724 
L 27.72362 61.263283 
L 31.241887 61.602908 
L 34.760154 61.942533 
L 38.278421 62.282158 
L 41.796688 62.621783 
L 45.420322 62.971797 
L 49.043956 63.321812 
L 52.667591 63.671826 
L 56.291225 64.021841 
L 62.450224 64.616543 
L 68.609222 65.211245 
L 75.032949 65.831742 
L 81.456677 66.452238 
L 86.036741 66.894324 
L 90.616805 67.33641 
L 94.283424 67.690724 
L 97.950044 68.045037 
L 101.616664 68.399351 
L 105.283284 68.753664 
L 111.738464 69.377027 
L 118.104003 69.991791 
L 124.469543 70.606556 
L 130.958272 71.232784 
L 134.800242 71.603936 
L 138.642212 71.975087 
L 142.484181 72.346239 
L 146.326151 72.71739 
L 149.623724 73.03552 
L 152.921296 73.35365 
L 156.218869 73.67178 
L 159.516442 73.989909 
L 162.816635 74.308756 
L 166.116829 74.627602 
L 169.417023 74.946449 
L 172.717217 75.265295 
L 178.428012 75.817007 
" style="fill:none;stroke:#808080;stroke-linecap:square;stroke-width:1.5;"/>
   </g>
   <g id="line2d_10">
    <path clip-path="url(#pbf861574d0)" d="M 144.961096 255.435699 
L 139.398129 256.920305 
" style="fill:none;stroke:#808080;stroke-linecap:square;stroke-width:1.5;"/>
   </g>
   <g id="line2d_11">
    <path clip-path="url(#pbf861574d0)" d="M 202.817626 142.804835 
L 202.929808 144.35536 
L 203.04199 145.905885 
L 202.725626 146.892696 
L 202.409263 147.879508 
L 202.092899 148.866319 
L 201.776535 149.853131 
L 201.460172 150.839942 
L 201.143808 151.826754 
L 200.827445 152.813566 
L 200.511081 153.800377 
L 200.489981 154.806534 
L 200.468882 155.812692 
L 200.447782 156.818849 
L 200.426683 157.825006 
L 200.405583 158.831164 
L 200.384483 159.837321 
L 200.363384 160.843478 
L 200.342284 161.849635 
L 199.857254 163.482738 
L 199.372225 165.11584 
L 198.887195 166.748943 
L 198.402165 168.382045 
L 197.917136 170.015147 
L 197.432106 171.64825 
L 196.947076 173.281352 
L 196.462047 174.914455 
L 195.68883 176.575322 
L 194.915613 178.236189 
L 194.142396 179.897056 
L 193.36918 181.557923 
L 192.996463 182.765957 
L 192.623746 183.97399 
L 192.25103 185.182024 
L 191.878313 186.390057 
L 191.505596 187.598091 
L 191.13288 188.806125 
L 190.760163 190.014158 
L 190.387446 191.222192 
L 190.021938 192.412492 
L 189.656429 193.602792 
L 189.29092 194.793092 
L 188.925412 195.983392 
L 188.559903 197.173692 
L 188.194394 198.363992 
L 187.828885 199.554292 
L 187.463377 200.744592 
L 187.463377 201.907127 
L 187.463377 203.069663 
L 187.463377 204.232198 
L 187.463377 205.394733 
L 187.463377 206.557269 
L 187.463377 207.719804 
L 187.463377 208.882339 
L 187.463377 210.044875 
L 187.442277 211.381701 
L 187.421177 212.718527 
L 187.400078 214.055353 
L 187.378978 215.392179 
L 187.357879 216.729005 
L 187.336779 218.065831 
L 187.315679 219.402657 
L 187.29458 220.739483 
L 186.865772 221.741341 
L 186.436964 222.743199 
L 186.008157 223.745058 
L 185.579349 224.746916 
L 185.150541 225.748774 
L 184.721734 226.750632 
L 184.292926 227.752491 
L 183.864119 228.754349 
L 182.725262 229.988893 
L 181.586406 231.223438 
L 180.447549 232.457982 
L 179.308693 233.692527 
L 177.965392 234.602493 
L 176.622092 235.512459 
L 175.278792 236.422425 
L 173.935492 237.332391 
L 172.663485 238.55368 
L 171.391478 239.774969 
L 170.119471 240.996258 
L 168.847464 242.217547 
L 167.874128 242.465101 
L 166.900792 242.712654 
L 165.927457 242.960208 
L 164.954121 243.207762 
L 163.980785 243.455316 
L 163.00745 243.702869 
L 162.034114 243.950423 
L 161.060778 244.197977 
" style="fill:none;stroke:#000000;stroke-linecap:square;stroke-width:1.5;"/>
   </g>
   <g id="line2d_12">
    <path clip-path="url(#pbf861574d0)" d="M 185.888636 176.884853 
L 185.396529 178.21344 
L 184.904423 179.542026 
L 184.412316 180.870612 
L 183.920209 182.199198 
L 183.428103 183.527784 
L 182.935996 184.856371 
L 182.44389 186.184957 
L 181.951783 187.513543 
L 181.276857 188.695424 
L 180.60193 189.877305 
L 179.927004 191.059186 
L 179.252077 192.241067 
L 178.327559 192.798153 
L 177.403041 193.355238 
L 176.478523 193.912324 
L 175.554005 194.469409 
L 174.629487 195.026495 
L 173.704968 195.58358 
L 172.78045 196.140666 
L 171.855932 196.697751 
L 170.931414 197.254837 
L 170.006896 197.811922 
L 169.082377 198.369008 
L 168.157859 198.926093 
L 167.233341 199.483179 
L 166.308823 200.040264 
L 165.384305 200.59735 
L 164.459787 201.154435 
" style="fill:none;stroke:#4169e1;stroke-dasharray:5.55,2.4;stroke-dashoffset:0;stroke-width:1.5;"/>
   </g>
   <g id="line2d_13">
    <path clip-path="url(#pbf861574d0)" d="M 89.65854 199.050766 
L 89.363931 200.465154 
L 89.069323 201.879542 
L 88.773141 203.304678 
L 88.47696 204.729813 
L 88.322317 206.243796 
L 88.167673 207.757779 
L 88.01303 209.271762 
L 87.858387 210.785745 
L 87.830341 212.085312 
L 87.802296 213.38488 
L 87.77425 214.684447 
L 87.746205 215.984015 
L 87.718159 217.283583 
L 87.690114 218.58315 
L 87.662068 219.882718 
L 87.634023 221.182285 
L 87.851965 222.308816 
L 88.069907 223.435347 
L 88.28785 224.561878 
L 88.505792 225.688408 
L 88.723734 226.814939 
L 88.941676 227.94147 
L 89.159619 229.068001 
L 89.377561 230.194531 
L 89.855514 231.080136 
L 90.333466 231.965741 
L 90.811419 232.851345 
L 91.289372 233.73695 
L 91.767325 234.622555 
L 92.245278 235.50816 
L 92.72323 236.393764 
L 93.201183 237.279369 
L 94.50176 237.342959 
L 95.802337 237.406549 
L 97.102913 237.470139 
L 98.40349 237.53373 
L 99.704067 237.59732 
L 101.004643 237.66091 
L 102.30522 237.7245 
L 103.605797 237.78809 
L 104.843206 237.566689 
L 106.080614 237.345288 
L 107.318023 237.123887 
L 108.555432 236.902485 
L 110.172372 236.830476 
L 111.789313 236.758467 
L 113.406253 236.686458 
L 115.023193 236.614449 
L 116.555735 236.907859 
L 118.088277 237.20127 
L 119.620819 237.49468 
L 121.15336 237.78809 
L 122.121323 238.45516 
L 123.089285 239.122229 
L 124.057248 239.789299 
L 125.02521 240.456368 
L 126.46418 241.4473 
L 127.903149 242.438231 
L 129.351292 243.528758 
L 130.799435 244.619284 
L 132.247578 245.70981 
L 133.695722 246.800336 
" style="fill:none;stroke:#008000;stroke-linecap:square;stroke-width:1.5;"/>
   </g>
   <g id="line2d_14">
    <path clip-path="url(#pbf861574d0)" d="M 196.462047 174.914455 
L 195.140501 175.135856 
L 193.818956 175.357257 
L 192.806697 175.218971 
L 191.794439 175.080685 
L 190.311435 174.356294 
L 188.828432 173.631904 
L 188.093483 174.445141 
L 187.358534 175.258379 
L 186.623585 176.071616 
L 185.888636 176.884853 
L 184.735625 178.108292 
L 183.582615 179.33173 
L 182.429605 180.555169 
L 181.276595 181.778608 
L 179.476966 182.139011 
L 177.677336 182.499415 
" style="fill:none;stroke:#4169e1;stroke-linecap:square;stroke-width:1.5;"/>
   </g>
   <g id="line2d_15">
    <path clip-path="url(#pbf861574d0)" d="M 208.217037 197.722358 
L 207.928719 199.262673 
L 207.640401 200.802987 
L 207.352083 202.343302 
L 207.063765 203.883617 
L 206.775447 205.423931 
L 206.487129 206.964246 
L 206.198811 208.50456 
L 205.910493 210.044875 
L 205.319965 211.401046 
L 204.729437 212.757218 
L 204.138909 214.11339 
L 203.548381 215.469562 
L 202.957853 216.825733 
L 202.367325 218.181905 
L 201.776798 219.538077 
L 201.18627 220.894249 
L 200.750385 221.862789 
L 200.314501 222.83133 
L 199.878616 223.799871 
L 199.442731 224.768411 
L 199.006847 225.736952 
L 198.570962 226.705492 
L 198.135078 227.674033 
L 197.699193 228.642574 
L 197.319531 229.694408 
L 196.939868 230.746243 
L 196.560206 231.798078 
L 196.180543 232.849912 
L 195.800881 233.901747 
L 195.421218 234.953582 
L 195.041556 236.005417 
L 194.661893 237.057251 
" style="fill:none;stroke:#ff0000;stroke-dasharray:5.55,2.4;stroke-dashoffset:0;stroke-width:1.5;"/>
   </g>
   <g id="line2d_16">
    <path clip-path="url(#pbf861574d0)" d="M 212.04066 149.891106 
L 213.165624 149.891106 
L 214.290589 149.891106 
L 215.837547 149.852414 
L 217.384504 149.813723 
L 218.312364 150.627677 
L 219.240225 151.441631 
L 218.719941 152.529649 
L 218.199658 153.617667 
L 217.679375 154.705686 
L 217.159092 155.793704 
L 216.428075 156.679309 
L 215.697057 157.564914 
L 214.96604 158.450518 
L 214.235022 159.336123 
L 213.686432 160.573534 
L 213.137841 161.810944 
L 212.58925 163.048354 
L 212.04066 164.285765 
L 211.57673 165.871757 
L 211.1128 167.457749 
L 210.64887 169.043741 
L 210.184939 170.629733 
L 209.749055 172.309946 
L 209.31317 173.990158 
L 208.877286 175.670371 
L 208.441401 177.350584 
" style="fill:none;stroke:#4169e1;stroke-linecap:square;stroke-width:1.5;"/>
   </g>
   <g id="line2d_17">
    <path clip-path="url(#pbf861574d0)" d="M 200.286717 134.534892 
L 199.97743 135.791648 
L 199.668144 137.048404 
L 199.267382 138.145917 
L 198.86662 139.243429 
L 198.465857 140.340941 
L 198.065095 141.438453 
L 197.664333 142.535965 
L 197.263571 143.633477 
L 196.862809 144.730989 
L 196.462047 145.828502 
L 196.012139 146.880336 
L 195.562232 147.932171 
L 195.112325 148.984006 
L 194.662417 150.035841 
L 194.21251 151.087675 
L 193.762603 152.13951 
L 193.312696 153.191345 
L 192.862788 154.243179 
L 192.328482 155.295014 
L 191.794177 156.346849 
L 191.259871 157.398684 
L 190.725565 158.450518 
L 190.191259 159.502353 
L 189.656953 160.554188 
L 189.122647 161.606023 
L 188.588342 162.657857 
L 187.688527 164.318724 
L 186.788712 165.979591 
L 185.888898 167.640459 
L 184.989083 169.301326 
L 184.075115 170.951087 
L 183.161147 172.600848 
L 182.247178 174.250609 
L 181.33321 175.90037 
L 180.419241 177.550132 
L 179.505273 179.199893 
L 178.591305 180.849654 
L 177.677336 182.499415 
L 176.532714 183.698134 
L 175.388091 184.896853 
L 174.243468 186.095572 
L 173.098845 187.294291 
L 172.260888 188.240441 
L 171.422931 189.186591 
L 170.584973 190.13274 
L 169.747016 191.07889 
L 169.086112 192.338333 
L 168.425209 193.597776 
L 167.764305 194.857219 
L 167.103401 196.116663 
L 166.442498 197.376106 
L 165.781594 198.635549 
L 165.12069 199.894992 
L 164.459787 201.154435 
L 164.033862 202.826766 
L 163.607938 204.499097 
L 163.182013 206.171429 
L 162.756089 207.84376 
L 162.239999 209.583801 
L 161.72391 211.323843 
L 161.207821 213.063884 
L 160.691731 214.803925 
L 160.276946 215.739506 
L 159.862161 216.675088 
L 159.447376 217.610669 
L 159.032592 218.54625 
L 158.617807 219.481831 
L 158.203022 220.417412 
L 157.788237 221.352993 
L 157.373452 222.288575 
L 156.740725 223.932604 
L 156.107998 225.576633 
L 155.47527 227.220662 
L 154.842543 228.864691 
L 154.842543 230.137927 
L 154.842543 231.411163 
L 154.842543 232.684399 
L 154.842543 233.957635 
" style="fill:none;stroke:#000000;stroke-linecap:square;stroke-width:1.5;"/>
   </g>
   <g id="line2d_18">
    <path clip-path="url(#pbf861574d0)" d="M 89.069323 201.879542 
L 89.610312 202.832857 
L 90.151302 203.786171 
L 90.692291 204.739486 
L 91.233281 205.692801 
L 91.73941 207.408839 
L 92.24554 209.124877 
L 92.751669 210.840916 
L 93.257798 212.556954 
L 93.974924 213.810844 
L 94.69205 215.064734 
L 95.409175 216.318624 
L 96.126301 217.572515 
L 97.757395 218.402948 
L 99.388489 219.233382 
L 101.019583 220.063815 
L 102.650678 220.894249 
L 104.126866 222.018093 
L 105.603055 223.141937 
L 107.079244 224.26578 
L 108.555432 225.389624 
L 109.624044 226.108999 
L 110.692656 226.828374 
L 111.761267 227.547748 
L 112.829879 228.267123 
L 113.776873 228.886903 
L 114.723867 229.506683 
L 115.670861 230.126463 
L 116.617855 230.746243 
L 117.564848 231.366023 
L 118.511842 231.985803 
L 119.458836 232.605583 
L 120.40583 233.225363 
" style="fill:none;stroke:#000000;stroke-linecap:square;stroke-width:1.5;"/>
   </g>
   <g id="line2d_19">
    <path clip-path="url(#pbf861574d0)" d="M 214.036869 208.05728 
L 214.726212 208.868367 
L 215.415554 209.679455 
L 216.512211 210.41531 
L 217.608868 211.151164 
L 218.340148 212.258528 
L 219.071427 213.365892 
L 219.802707 214.473256 
L 220.533986 215.580621 
L 222.136511 216.393858 
L 223.739035 217.207095 
L 225.173287 217.168404 
L 226.607538 217.129712 
L 227.957391 217.129712 
L 229.307244 217.129712 
L 229.082356 219.011981 
L 228.857468 220.894249 
L 227.760811 221.702471 
L 226.664153 222.510692 
L 225.764077 223.506639 
L 224.864 224.502586 
L 224.189336 226.163454 
L 223.514671 227.824321 
L 221.827224 228.378182 
L 220.139777 228.932043 
L 218.90263 228.489241 
L 217.665483 228.046438 
L 215.978036 227.713978 
L 214.290589 227.381518 
L 212.49096 227.271176 
L 210.691331 227.160834 
" style="fill:none;stroke:#008000;stroke-linecap:square;stroke-width:1.5;"/>
   </g>
   <g id="line2d_20">
    <path clip-path="url(#pbf861574d0)" d="M 92.082509 193.381749 
L 93.232636 193.891187 
L 94.382763 194.400624 
L 95.451375 195.67386 
L 96.519986 196.947096 
L 97.588598 198.220332 
L 98.65721 199.493568 
L 99.360182 200.323822 
L 100.063154 201.154077 
L 100.766126 201.984331 
L 101.469098 202.814586 
L 102.17207 203.64484 
L 102.875041 204.475094 
L 103.578013 205.305349 
L 104.280985 206.135603 
L 104.89969 207.111309 
L 105.518394 208.087015 
L 106.137099 209.06272 
L 106.755803 210.038426 
L 107.374507 211.014132 
L 107.993212 211.989837 
L 108.611916 212.965543 
L 109.230621 213.941249 
L 110.26411 215.136923 
L 111.297599 216.332596 
L 112.331089 217.52827 
L 113.364578 218.723944 
L 114.398067 219.919618 
L 115.431557 221.115292 
L 116.465046 222.310966 
L 117.498535 223.506639 
L 117.814899 224.433802 
L 118.131262 225.360964 
L 118.447626 226.288126 
L 118.76399 227.215288 
L 119.080353 228.142451 
L 119.396717 229.069613 
L 119.71308 229.996775 
L 120.029444 230.923937 
L 120.217637 232.07465 
L 120.40583 233.225363 
L 120.592713 234.366045 
L 120.779595 235.506727 
L 120.966478 236.647408 
L 121.15336 237.78809 
" style="fill:none;stroke:#000000;stroke-linecap:square;stroke-width:1.5;"/>
   </g>
   <g id="line2d_21">
    <path clip-path="url(#pbf861574d0)" d="M 184.594874 211.449232 
L 183.55457 212.861112 
L 182.514266 214.272992 
L 181.473961 215.684873 
L 180.433657 217.096753 
L 180.011665 218.450238 
L 179.589672 219.803723 
L 179.167679 221.157207 
L 178.745686 222.510692 
L 178.295779 223.437855 
L 177.845871 224.365017 
L 177.395964 225.292179 
L 176.946057 226.219341 
L 176.49615 227.146503 
L 176.046242 228.073666 
L 175.596335 229.000828 
L 175.146428 229.92799 
L 174.843694 231.77909 
L 174.54096 233.63019 
L 174.238226 235.481291 
L 173.935492 237.332391 
" style="fill:none;stroke:#ff0000;stroke-dasharray:5.55,2.4;stroke-dashoffset:0;stroke-width:1.5;"/>
   </g>
   <g id="line2d_22">
    <path clip-path="url(#pbf861574d0)" d="M 187.969768 90.820698 
L 188.362929 107.738901 
L 190.893838 119.774813 
L 194.718508 126.861084 
L 198.93634 131.433842 
L 201.636046 137.634508 
L 202.817626 142.804835 
L 209.342002 147.013607 
L 212.04066 149.891106 
L 211.985093 153.578259 
L 206.642296 162.73524 
L 204.561164 167.750801 
L 205.741696 172.700443 
L 208.441401 177.350584 
L 208.385835 181.923342 
L 206.585681 185.243643 
L 206.135905 189.230298 
L 207.710646 194.543926 
L 211.661652 201.649542 
L 214.066225 205.692801 
L 214.00961 210.265559 
L 212.097799 217.315646 
L 210.916743 220.960168 
L 210.691331 227.160834 
L 209.141752 230.92537 
L 202.550276 233.974831 
L 198.543179 236.016881 
L 194.661893 237.057251 
L 190.838271 241.043906 
L 186.563824 243.70072 
L 181.160219 244.369939 
L 178.070497 244.431559 
L 171.490554 245.914732 
L 164.797381 245.537848 
L 158.44285 243.257917 
L 158.44285 243.257917 
" style="fill:none;stroke:#4169e1;stroke-linecap:square;stroke-width:1.5;"/>
   </g>
   <g id="line2d_23">
    <path clip-path="url(#pbf861574d0)" d="M 93.707575 192.407297 
L 95.141826 192.368606 
L 96.576077 192.329914 
L 98.038112 192.329914 
L 99.500147 192.329914 
L 100.695357 192.958292 
L 101.890566 193.58667 
L 103.085776 194.215049 
L 104.280985 194.843427 
L 105.518394 196.061133 
L 106.755803 197.27884 
L 107.993212 198.496546 
L 109.230621 199.714253 
L 110.285079 201.189544 
L 111.339537 202.664835 
L 112.393994 204.140127 
L 113.448452 205.615418 
L 114.573417 206.999354 
L 115.698382 208.383291 
L 116.823347 209.767227 
L 117.948311 211.151164 
L 118.545916 211.93592 
L 119.143521 212.720676 
L 119.741126 213.505432 
L 120.338731 214.290188 
L 120.936335 215.074945 
L 121.53394 215.859701 
L 122.131545 216.644457 
L 122.72915 217.429213 
L 123.052328 218.406172 
L 123.375506 219.383132 
L 123.698685 220.360092 
L 124.021863 221.337051 
L 124.050171 223.141937 
L 124.078478 224.946822 
L 124.078478 226.718031 
L 124.078478 228.489241 
L 124.19682 229.985132 
L 124.315161 231.481023 
L 124.433503 232.976914 
L 124.551844 234.472805 
L 124.670186 235.968696 
L 124.788527 237.464587 
L 124.906869 238.960478 
L 125.02521 240.456368 
" style="fill:none;stroke:#ff0000;stroke-linecap:square;stroke-width:1.5;"/>
   </g>
   <g id="line2d_24">
    <path clip-path="url(#pbf861574d0)" d="M 190.219698 90.09989 
L 187.463377 88.6941 
L 183.568461 88.719895 
L 176.721169 87.443076 
L 171.996946 83.899224 
L 169.29724 80.799608 
L 167.722499 81.352753 
L 168.657698 85.423955 
L 169.02989 88.159585 
L 169.747016 92.53602 
L 172.22131 98.293884 
L 170.36559 104.417167 
L 171.334338 112.818947 
L 171.659351 120.012694 
L 168.996341 123.623898 
L 166.91416 125.509749 
L 162.0809 125.00676 
L 156.955129 123.115177 
L 153.036099 125.814981 
L 151.97404 129.740016 
L 151.468697 132.541565 
L 147.47523 136.1628 
L 144.044769 138.077311 
L 141.569427 140.956243 
L 139.376112 143.912557 
L 137.471378 148.94209 
L 136.481399 152.070725 
L 135.101665 155.206167 
L 133.976701 161.184715 
L 131.633461 166.615851 
L 128.521722 171.515337 
L 127.002548 175.800059 
L 126.524988 193.585954 
L 126.53888 204.621979 
L 126.497205 217.129712 
L 125.653219 222.06789 
L 125.37224 229.418552 
L 125.285483 233.589708 
L 125.02521 240.456368 
L 125.02521 240.456368 
" style="fill:none;stroke:#4169e1;stroke-linecap:square;stroke-width:1.5;"/>
   </g>
   <g id="line2d_25">
    <path clip-path="url(#pbf861574d0)" d="M 114.902624 44.26913 
L 114.428734 45.591805 
L 113.954844 46.91448 
L 113.505068 47.800801 
L 113.055291 48.687122 
L 112.08497 49.996542 
L 111.114648 51.305962 
L 110.144327 52.615381 
L 109.174006 53.924801 
L 108.777961 54.884922 
L 108.381917 55.845044 
L 107.985873 56.805166 
L 107.589829 57.765287 
L 107.193784 58.725409 
L 106.79774 59.68553 
L 106.401696 60.645652 
L 106.005652 61.605774 
" style="fill:none;stroke:#4169e1;stroke-linecap:square;stroke-width:1.5;"/>
   </g>
   <g id="line2d_26">
    <path clip-path="url(#pbf861574d0)" d="M 86.059282 195.286229 
L 79.984682 197.279556 
L 76.385423 200.821975 
L 72.72955 203.623524 
L 68.961495 201.04266 
L 65.403125 194.72162 
L 65.017303 189.431458 
L 63.447804 175.78143 
L 64.65874 165.350497 
L 65.361188 160.299111 
L 65.136824 152.549353 
L 63.49079 143.261968 
L 60.862377 137.269089 
L 58.228198 129.363132 
L 56.58793 125.089875 
L 53.199144 119.423008 
L 51.131904 115.710776 
L 48.714225 112.91066 
L 48.039037 107.816284 
L 46.464296 103.166142 
L 42.865037 99.179488 
L 33.183447 85.503666 
L 29.710524 80.650574 
L 25.036495 74.962928 
L 20.762048 72.526799 
L 20.08686 71.420509 
L 18.567685 68.176158 
L 14.91286 62.561596 
L 14.91286 62.561596 
" style="fill:none;stroke:#008000;stroke-linecap:square;stroke-width:1.5;"/>
   </g>
   <g id="line2d_27">
    <path clip-path="url(#pbf861574d0)" d="M 169.29724 80.799608 
L 165.181106 75.162834 
L 164.120095 73.843742 
L 161.198123 71.027863 
L 155.462165 66.182831 
L 144.283286 58.887698 
L 140.950853 56.438313 
L 137.577007 50.458332 
L 132.851736 45.808191 
L 128.127513 43.149943 
L 122.503737 40.657926 
L 118.669631 41.119358 
L 114.902624 44.26913 
L 111.029726 45.752303 
L 108.555432 46.947439 
L 104.056621 48.022202 
L 95.732092 48.687122 
L 84.934317 47.136598 
L 75.850724 45.171214 
L 71.042103 44.313195 
L 65.643215 43.482403 
L 54.563413 40.769702 
L 49.72596 40.769702 
L 42.189849 37.05962 
L 37.353444 36.174015 
L 21.718216 40.491696 
L 16.364935 43.555487 
L 14.237672 46.837097 
L 13.169322 50.015529 
L 10.919393 52.894461 
L 11.987742 58.354257 
L 11.987742 60.347584 
L 11.987742 60.347584 
" style="fill:none;stroke:#000000;stroke-linecap:square;stroke-width:1.5;"/>
   </g>
   <g id="line2d_28">
    <path clip-path="url(#pbf861574d0)" d="M 179.08328 76.784293 
L 177.883484 76.64135 
L 176.683687 76.498406 
L 175.483891 76.355463 
L 174.284095 76.212519 
L 173.084298 76.069576 
L 171.884502 75.926632 
L 170.684705 75.783689 
L 169.484909 75.640745 
L 168.143705 75.191495 
L 166.802502 74.742244 
L 165.461299 74.292993 
L 164.120095 73.843742 
L 162.433435 73.596188 
L 160.746774 73.348634 
L 159.060113 73.10108 
L 157.373452 72.853527 
L 155.836192 72.993962 
L 154.298933 73.134398 
L 152.761673 73.274834 
L 151.224413 73.41527 
L 149.687154 73.555705 
L 148.149894 73.696141 
L 146.612634 73.836577 
L 145.075375 73.977012 
L 143.930883 73.848399 
L 142.786391 73.719786 
L 141.641899 73.591172 
L 140.497408 73.462559 
L 139.352916 73.333946 
L 138.208424 73.205332 
L 137.063932 73.076719 
L 135.91944 72.948106 
L 134.95672 71.94786 
L 133.994 70.947614 
L 133.031279 69.947368 
L 132.068559 68.947121 
L 131.21042 68.213954 
L 130.35228 67.480786 
L 129.494141 66.747619 
L 128.636001 66.014451 
L 127.777862 65.281284 
L 126.919722 64.548117 
L 126.061583 63.814949 
L 125.203443 63.081782 
L 124.247276 61.919246 
L 123.291108 60.756711 
L 122.33494 59.594176 
L 121.378773 58.43164 
L 119.916476 58.32094 
L 118.454179 58.210239 
L 116.991882 58.099538 
L 115.529585 57.988838 
L 113.94069 58.467466 
L 112.351795 58.946093 
L 110.7629 59.424721 
L 109.174006 59.903349 
L 107.589829 60.754561 
L 106.005652 61.605774 
L 105.115535 62.083685 
L 104.225419 62.561596 
L 102.777013 63.522076 
L 101.328608 64.482556 
L 99.880203 65.443036 
L 98.431798 66.403516 
L 96.927301 66.826972 
L 95.422805 67.250429 
L 93.918309 67.673886 
L 92.413813 68.097342 
L 91.253856 67.982522 
L 90.0939 67.867701 
L 88.933944 67.752881 
L 87.773988 67.63806 
L 86.614032 67.52324 
L 85.454076 67.408419 
L 84.29412 67.293599 
L 83.134164 67.178778 
L 81.791388 67.040313 
L 80.448612 66.901847 
L 79.105836 66.763382 
L 77.76306 66.624917 
L 76.420284 66.486452 
L 75.077508 66.347986 
L 73.734732 66.209521 
L 72.391956 66.071056 
L 71.161624 66.008719 
L 69.931292 65.946383 
L 68.70096 65.884047 
L 67.470628 65.821711 
L 66.240296 65.759374 
L 65.009964 65.697038 
L 63.779632 65.634702 
L 62.5493 65.572366 
L 61.115311 65.835683 
L 59.681321 66.099 
L 58.247332 66.362316 
L 56.813343 66.625633 
" style="fill:none;stroke:#000000;stroke-linecap:square;stroke-width:1.5;"/>
   </g>
   <g id="line2d_29">
    <path clip-path="url(#pbf861574d0)" d="M 156.955129 123.115177 
L 153.324417 121.325338 
L 151.074488 118.446406 
L 146.64068 115.047289 
L 142.520352 113.334833 
L 136.719392 114.795078 
L 134.550192 114.752088 
L 130.602855 117.117999 
L 119.776248 120.843844 
L 116.879962 121.768141 
L 112.15469 120.882536 
L 105.424298 117.317189 
L 103.339496 116.294014 
L 100.888006 112.944336 
L 98.65721 110.203691 
L 90.336088 109.050828 
L 85.917744 108.292045 
L 82.908751 105.602272 
L 79.689287 99.71472 
L 77.453773 96.002489 
L 76.160011 90.985495 
L 73.910081 87.443076 
L 71.885564 85.449749 
L 69.635635 83.67854 
L 68.961495 79.91257 
L 68.060894 77.255756 
L 65.5866 73.934022 
L 61.086741 70.612288 
L 56.813343 66.625633 
L 50.90754 64.189504 
L 35.159081 62.528637 
L 21.94258 62.861097 
L 17.218357 62.196177 
L 17.218357 62.196177 
" style="fill:none;stroke:#008000;stroke-linecap:square;stroke-width:1.5;"/>
   </g>
   <g id="line2d_30">
    <path clip-path="url(#pbf861574d0)" d="M 168.657698 85.423955 
L 167.272723 86.335354 
L 165.697982 87.220959 
L 164.123241 88.106563 
L 163.391961 88.826296 
L 162.660682 89.546029 
L 161.929402 90.265762 
L 161.198123 90.985495 
L 161.183969 92.350444 
L 161.169815 93.715393 
L 161.155661 95.080342 
L 161.141507 96.445291 
L 160.691731 97.330896 
L 160.241955 98.216501 
L 159.792179 99.102105 
L 159.342402 99.98771 
L 157.570557 99.916059 
L 155.798711 99.844408 
L 153.886376 99.511948 
L 151.97404 99.179488 
L 150.736894 99.179488 
L 149.499747 99.179488 
L 148.2626 99.179488 
L 147.025453 99.179488 
L 146.055132 99.879875 
L 145.084811 100.580263 
L 144.114489 101.28065 
L 143.144168 101.981037 
L 141.808469 103.107747 
L 140.472769 104.234457 
L 139.13707 105.361167 
L 137.801371 106.487877 
L 137.014001 107.31831 
L 136.22663 108.148744 
L 135.43926 108.979177 
L 134.651889 109.809611 
L 134.626465 111.04523 
L 134.60104 112.280849 
L 134.575616 113.516468 
L 134.550192 114.752088 
" style="fill:none;stroke:#4169e1;stroke-linecap:square;stroke-width:1.5;"/>
   </g>
   <g id="line2d_31">
    <path clip-path="url(#pbf861574d0)" d="M 140.496883 259.98123 
L 141.305353 259.351598 
L 142.113824 258.721966 
L 142.922294 258.092334 
L 143.730764 257.462702 
L 144.539234 256.83307 
L 145.347704 256.203438 
L 146.156174 255.573806 
L 146.964645 254.944174 
" style="fill:none;stroke:#008000;stroke-linecap:square;stroke-width:1.5;"/>
   </g>
   <g id="text_1">
    <g id="patch_2">
     <path d="M 117.81695 228.800665 
L 130.23648 239.696886 
L 131.53941 238.211804 
L 119.11988 227.315583 
z
" style="fill:#ffffff;"/>
    </g>
    <!-- Sheehan Double -->
    <g style="fill:#808080;" transform="translate(118.119486 228.48616)rotate(-318.738045)scale(0.02 -0.02)">
     <defs>
      <path d="M 3425 4513 
L 3425 3897 
Q 3066 4069 2747 4153 
Q 2428 4238 2131 4238 
Q 1616 4238 1336 4038 
Q 1056 3838 1056 3469 
Q 1056 3159 1242 3001 
Q 1428 2844 1947 2747 
L 2328 2669 
Q 3034 2534 3370 2195 
Q 3706 1856 3706 1288 
Q 3706 609 3251 259 
Q 2797 -91 1919 -91 
Q 1588 -91 1214 -16 
Q 841 59 441 206 
L 441 856 
Q 825 641 1194 531 
Q 1563 422 1919 422 
Q 2459 422 2753 634 
Q 3047 847 3047 1241 
Q 3047 1584 2836 1778 
Q 2625 1972 2144 2069 
L 1759 2144 
Q 1053 2284 737 2584 
Q 422 2884 422 3419 
Q 422 4038 858 4394 
Q 1294 4750 2059 4750 
Q 2388 4750 2728 4690 
Q 3069 4631 3425 4513 
z
" id="DejaVuSans-53" transform="scale(0.015625)"/>
      <path d="M 3513 2113 
L 3513 0 
L 2938 0 
L 2938 2094 
Q 2938 2591 2744 2837 
Q 2550 3084 2163 3084 
Q 1697 3084 1428 2787 
Q 1159 2491 1159 1978 
L 1159 0 
L 581 0 
L 581 4863 
L 1159 4863 
L 1159 2956 
Q 1366 3272 1645 3428 
Q 1925 3584 2291 3584 
Q 2894 3584 3203 3211 
Q 3513 2838 3513 2113 
z
" id="DejaVuSans-68" transform="scale(0.015625)"/>
      <path d="M 3597 1894 
L 3597 1613 
L 953 1613 
Q 991 1019 1311 708 
Q 1631 397 2203 397 
Q 2534 397 2845 478 
Q 3156 559 3463 722 
L 3463 178 
Q 3153 47 2828 -22 
Q 2503 -91 2169 -91 
Q 1331 -91 842 396 
Q 353 884 353 1716 
Q 353 2575 817 3079 
Q 1281 3584 2069 3584 
Q 2775 3584 3186 3129 
Q 3597 2675 3597 1894 
z
M 3022 2063 
Q 3016 2534 2758 2815 
Q 2500 3097 2075 3097 
Q 1594 3097 1305 2825 
Q 1016 2553 972 2059 
L 3022 2063 
z
" id="DejaVuSans-65" transform="scale(0.015625)"/>
      <path d="M 2194 1759 
Q 1497 1759 1228 1600 
Q 959 1441 959 1056 
Q 959 750 1161 570 
Q 1363 391 1709 391 
Q 2188 391 2477 730 
Q 2766 1069 2766 1631 
L 2766 1759 
L 2194 1759 
z
M 3341 1997 
L 3341 0 
L 2766 0 
L 2766 531 
Q 2569 213 2275 61 
Q 1981 -91 1556 -91 
Q 1019 -91 701 211 
Q 384 513 384 1019 
Q 384 1609 779 1909 
Q 1175 2209 1959 2209 
L 2766 2209 
L 2766 2266 
Q 2766 2663 2505 2880 
Q 2244 3097 1772 3097 
Q 1472 3097 1187 3025 
Q 903 2953 641 2809 
L 641 3341 
Q 956 3463 1253 3523 
Q 1550 3584 1831 3584 
Q 2591 3584 2966 3190 
Q 3341 2797 3341 1997 
z
" id="DejaVuSans-61" transform="scale(0.015625)"/>
      <path d="M 3513 2113 
L 3513 0 
L 2938 0 
L 2938 2094 
Q 2938 2591 2744 2837 
Q 2550 3084 2163 3084 
Q 1697 3084 1428 2787 
Q 1159 2491 1159 1978 
L 1159 0 
L 581 0 
L 581 3500 
L 1159 3500 
L 1159 2956 
Q 1366 3272 1645 3428 
Q 1925 3584 2291 3584 
Q 2894 3584 3203 3211 
Q 3513 2838 3513 2113 
z
" id="DejaVuSans-6e" transform="scale(0.015625)"/>
      <path id="DejaVuSans-20" transform="scale(0.015625)"/>
      <path d="M 1259 4147 
L 1259 519 
L 2022 519 
Q 2988 519 3436 956 
Q 3884 1394 3884 2338 
Q 3884 3275 3436 3711 
Q 2988 4147 2022 4147 
L 1259 4147 
z
M 628 4666 
L 1925 4666 
Q 3281 4666 3915 4102 
Q 4550 3538 4550 2338 
Q 4550 1131 3912 565 
Q 3275 0 1925 0 
L 628 0 
L 628 4666 
z
" id="DejaVuSans-44" transform="scale(0.015625)"/>
      <path d="M 1959 3097 
Q 1497 3097 1228 2736 
Q 959 2375 959 1747 
Q 959 1119 1226 758 
Q 1494 397 1959 397 
Q 2419 397 2687 759 
Q 2956 1122 2956 1747 
Q 2956 2369 2687 2733 
Q 2419 3097 1959 3097 
z
M 1959 3584 
Q 2709 3584 3137 3096 
Q 3566 2609 3566 1747 
Q 3566 888 3137 398 
Q 2709 -91 1959 -91 
Q 1206 -91 779 398 
Q 353 888 353 1747 
Q 353 2609 779 3096 
Q 1206 3584 1959 3584 
z
" id="DejaVuSans-6f" transform="scale(0.015625)"/>
      <path d="M 544 1381 
L 544 3500 
L 1119 3500 
L 1119 1403 
Q 1119 906 1312 657 
Q 1506 409 1894 409 
Q 2359 409 2629 706 
Q 2900 1003 2900 1516 
L 2900 3500 
L 3475 3500 
L 3475 0 
L 2900 0 
L 2900 538 
Q 2691 219 2414 64 
Q 2138 -91 1772 -91 
Q 1169 -91 856 284 
Q 544 659 544 1381 
z
M 1991 3584 
L 1991 3584 
z
" id="DejaVuSans-75" transform="scale(0.015625)"/>
      <path d="M 3116 1747 
Q 3116 2381 2855 2742 
Q 2594 3103 2138 3103 
Q 1681 3103 1420 2742 
Q 1159 2381 1159 1747 
Q 1159 1113 1420 752 
Q 1681 391 2138 391 
Q 2594 391 2855 752 
Q 3116 1113 3116 1747 
z
M 1159 2969 
Q 1341 3281 1617 3432 
Q 1894 3584 2278 3584 
Q 2916 3584 3314 3078 
Q 3713 2572 3713 1747 
Q 3713 922 3314 415 
Q 2916 -91 2278 -91 
Q 1894 -91 1617 61 
Q 1341 213 1159 525 
L 1159 0 
L 581 0 
L 581 4863 
L 1159 4863 
L 1159 2969 
z
" id="DejaVuSans-62" transform="scale(0.015625)"/>
      <path d="M 603 4863 
L 1178 4863 
L 1178 0 
L 603 0 
L 603 4863 
z
" id="DejaVuSans-6c" transform="scale(0.015625)"/>
     </defs>
     <use xlink:href="#DejaVuSans-53"/>
     <use x="63.476562" xlink:href="#DejaVuSans-68"/>
     <use x="126.855469" xlink:href="#DejaVuSans-65"/>
     <use x="188.378906" xlink:href="#DejaVuSans-65"/>
     <use x="249.902344" xlink:href="#DejaVuSans-68"/>
     <use x="313.28125" xlink:href="#DejaVuSans-61"/>
     <use x="374.560547" xlink:href="#DejaVuSans-6e"/>
     <use x="437.939453" xlink:href="#DejaVuSans-20"/>
     <use x="469.726562" xlink:href="#DejaVuSans-44"/>
     <use x="546.728516" xlink:href="#DejaVuSans-6f"/>
     <use x="607.910156" xlink:href="#DejaVuSans-75"/>
     <use x="671.289062" xlink:href="#DejaVuSans-62"/>
     <use x="734.765625" xlink:href="#DejaVuSans-6c"/>
     <use x="762.548828" xlink:href="#DejaVuSans-65"/>
    </g>
   </g>
   <g id="text_2">
    <g id="patch_3">
     <path d="M 159.794164 228.37742 
L 166.339326 207.429896 
L 164.453608 206.840694 
L 157.908445 227.788217 
z
" style="fill:#ffffff;"/>
    </g>
    <!-- Worth Mountain Triple -->
    <g style="fill:#808080;" transform="translate(159.384029 228.228317)rotate(-72.648313)scale(0.02 -0.02)">
     <defs>
      <path d="M 213 4666 
L 850 4666 
L 1831 722 
L 2809 4666 
L 3519 4666 
L 4500 722 
L 5478 4666 
L 6119 4666 
L 4947 0 
L 4153 0 
L 3169 4050 
L 2175 0 
L 1381 0 
L 213 4666 
z
" id="DejaVuSans-57" transform="scale(0.015625)"/>
      <path d="M 2631 2963 
Q 2534 3019 2420 3045 
Q 2306 3072 2169 3072 
Q 1681 3072 1420 2755 
Q 1159 2438 1159 1844 
L 1159 0 
L 581 0 
L 581 3500 
L 1159 3500 
L 1159 2956 
Q 1341 3275 1631 3429 
Q 1922 3584 2338 3584 
Q 2397 3584 2469 3576 
Q 2541 3569 2628 3553 
L 2631 2963 
z
" id="DejaVuSans-72" transform="scale(0.015625)"/>
      <path d="M 1172 4494 
L 1172 3500 
L 2356 3500 
L 2356 3053 
L 1172 3053 
L 1172 1153 
Q 1172 725 1289 603 
Q 1406 481 1766 481 
L 2356 481 
L 2356 0 
L 1766 0 
Q 1100 0 847 248 
Q 594 497 594 1153 
L 594 3053 
L 172 3053 
L 172 3500 
L 594 3500 
L 594 4494 
L 1172 4494 
z
" id="DejaVuSans-74" transform="scale(0.015625)"/>
      <path d="M 628 4666 
L 1569 4666 
L 2759 1491 
L 3956 4666 
L 4897 4666 
L 4897 0 
L 4281 0 
L 4281 4097 
L 3078 897 
L 2444 897 
L 1241 4097 
L 1241 0 
L 628 0 
L 628 4666 
z
" id="DejaVuSans-4d" transform="scale(0.015625)"/>
      <path d="M 603 3500 
L 1178 3500 
L 1178 0 
L 603 0 
L 603 3500 
z
M 603 4863 
L 1178 4863 
L 1178 4134 
L 603 4134 
L 603 4863 
z
" id="DejaVuSans-69" transform="scale(0.015625)"/>
      <path d="M -19 4666 
L 3928 4666 
L 3928 4134 
L 2272 4134 
L 2272 0 
L 1638 0 
L 1638 4134 
L -19 4134 
L -19 4666 
z
" id="DejaVuSans-54" transform="scale(0.015625)"/>
      <path d="M 1159 525 
L 1159 -1331 
L 581 -1331 
L 581 3500 
L 1159 3500 
L 1159 2969 
Q 1341 3281 1617 3432 
Q 1894 3584 2278 3584 
Q 2916 3584 3314 3078 
Q 3713 2572 3713 1747 
Q 3713 922 3314 415 
Q 2916 -91 2278 -91 
Q 1894 -91 1617 61 
Q 1341 213 1159 525 
z
M 3116 1747 
Q 3116 2381 2855 2742 
Q 2594 3103 2138 3103 
Q 1681 3103 1420 2742 
Q 1159 2381 1159 1747 
Q 1159 1113 1420 752 
Q 1681 391 2138 391 
Q 2594 391 2855 752 
Q 3116 1113 3116 1747 
z
" id="DejaVuSans-70" transform="scale(0.015625)"/>
     </defs>
     <use xlink:href="#DejaVuSans-57"/>
     <use x="93.001953" xlink:href="#DejaVuSans-6f"/>
     <use x="154.183594" xlink:href="#DejaVuSans-72"/>
     <use x="195.296875" xlink:href="#DejaVuSans-74"/>
     <use x="234.505859" xlink:href="#DejaVuSans-68"/>
     <use x="297.884766" xlink:href="#DejaVuSans-20"/>
     <use x="329.671875" xlink:href="#DejaVuSans-4d"/>
     <use x="415.951172" xlink:href="#DejaVuSans-6f"/>
     <use x="477.132812" xlink:href="#DejaVuSans-75"/>
     <use x="540.511719" xlink:href="#DejaVuSans-6e"/>
     <use x="603.890625" xlink:href="#DejaVuSans-74"/>
     <use x="643.099609" xlink:href="#DejaVuSans-61"/>
     <use x="704.378906" xlink:href="#DejaVuSans-69"/>
     <use x="732.162109" xlink:href="#DejaVuSans-6e"/>
     <use x="795.541016" xlink:href="#DejaVuSans-20"/>
     <use x="827.328125" xlink:href="#DejaVuSans-54"/>
     <use x="873.662109" xlink:href="#DejaVuSans-72"/>
     <use x="914.775391" xlink:href="#DejaVuSans-69"/>
     <use x="942.558594" xlink:href="#DejaVuSans-70"/>
     <use x="1006.035156" xlink:href="#DejaVuSans-6c"/>
     <use x="1033.818359" xlink:href="#DejaVuSans-65"/>
    </g>
   </g>
   <g id="text_3">
    <g id="patch_4">
     <path d="M 22.62281 61.984458 
L 39.721781 63.192074 
L 39.860963 61.221357 
L 22.761992 60.013742 
z
" style="fill:#ffffff;"/>
    </g>
    <!-- Bailey Falls Triple -->
    <g style="fill:#808080;" transform="translate(22.673472 61.551013)rotate(-355.960191)scale(0.02 -0.02)">
     <defs>
      <path d="M 1259 2228 
L 1259 519 
L 2272 519 
Q 2781 519 3026 730 
Q 3272 941 3272 1375 
Q 3272 1813 3026 2020 
Q 2781 2228 2272 2228 
L 1259 2228 
z
M 1259 4147 
L 1259 2741 
L 2194 2741 
Q 2656 2741 2882 2914 
Q 3109 3088 3109 3444 
Q 3109 3797 2882 3972 
Q 2656 4147 2194 4147 
L 1259 4147 
z
M 628 4666 
L 2241 4666 
Q 2963 4666 3353 4366 
Q 3744 4066 3744 3513 
Q 3744 3084 3544 2831 
Q 3344 2578 2956 2516 
Q 3422 2416 3680 2098 
Q 3938 1781 3938 1306 
Q 3938 681 3513 340 
Q 3088 0 2303 0 
L 628 0 
L 628 4666 
z
" id="DejaVuSans-42" transform="scale(0.015625)"/>
      <path d="M 2059 -325 
Q 1816 -950 1584 -1140 
Q 1353 -1331 966 -1331 
L 506 -1331 
L 506 -850 
L 844 -850 
Q 1081 -850 1212 -737 
Q 1344 -625 1503 -206 
L 1606 56 
L 191 3500 
L 800 3500 
L 1894 763 
L 2988 3500 
L 3597 3500 
L 2059 -325 
z
" id="DejaVuSans-79" transform="scale(0.015625)"/>
      <path d="M 628 4666 
L 3309 4666 
L 3309 4134 
L 1259 4134 
L 1259 2759 
L 3109 2759 
L 3109 2228 
L 1259 2228 
L 1259 0 
L 628 0 
L 628 4666 
z
" id="DejaVuSans-46" transform="scale(0.015625)"/>
      <path d="M 2834 3397 
L 2834 2853 
Q 2591 2978 2328 3040 
Q 2066 3103 1784 3103 
Q 1356 3103 1142 2972 
Q 928 2841 928 2578 
Q 928 2378 1081 2264 
Q 1234 2150 1697 2047 
L 1894 2003 
Q 2506 1872 2764 1633 
Q 3022 1394 3022 966 
Q 3022 478 2636 193 
Q 2250 -91 1575 -91 
Q 1294 -91 989 -36 
Q 684 19 347 128 
L 347 722 
Q 666 556 975 473 
Q 1284 391 1588 391 
Q 1994 391 2212 530 
Q 2431 669 2431 922 
Q 2431 1156 2273 1281 
Q 2116 1406 1581 1522 
L 1381 1569 
Q 847 1681 609 1914 
Q 372 2147 372 2553 
Q 372 3047 722 3315 
Q 1072 3584 1716 3584 
Q 2034 3584 2315 3537 
Q 2597 3491 2834 3397 
z
" id="DejaVuSans-73" transform="scale(0.015625)"/>
     </defs>
     <use xlink:href="#DejaVuSans-42"/>
     <use x="68.603516" xlink:href="#DejaVuSans-61"/>
     <use x="129.882812" xlink:href="#DejaVuSans-69"/>
     <use x="157.666016" xlink:href="#DejaVuSans-6c"/>
     <use x="185.449219" xlink:href="#DejaVuSans-65"/>
     <use x="246.972656" xlink:href="#DejaVuSans-79"/>
     <use x="306.152344" xlink:href="#DejaVuSans-20"/>
     <use x="337.939453" xlink:href="#DejaVuSans-46"/>
     <use x="386.333984" xlink:href="#DejaVuSans-61"/>
     <use x="447.613281" xlink:href="#DejaVuSans-6c"/>
     <use x="475.396484" xlink:href="#DejaVuSans-6c"/>
     <use x="503.179688" xlink:href="#DejaVuSans-73"/>
     <use x="555.279297" xlink:href="#DejaVuSans-20"/>
     <use x="587.066406" xlink:href="#DejaVuSans-54"/>
     <use x="633.400391" xlink:href="#DejaVuSans-72"/>
     <use x="674.513672" xlink:href="#DejaVuSans-69"/>
     <use x="702.296875" xlink:href="#DejaVuSans-70"/>
     <use x="765.773438" xlink:href="#DejaVuSans-6c"/>
     <use x="793.556641" xlink:href="#DejaVuSans-65"/>
    </g>
   </g>
   <g id="text_4">
    <g id="patch_5">
     <path d="M 189.957237 194.136108 
L 194.128901 184.243809 
L 192.308522 183.476141 
L 188.136859 193.36844 
z
" style="fill:#ffffff;"/>
    </g>
    <!-- Ross 27.9째 -->
    <g transform="translate(189.563328 193.948288)rotate(-67.134449)scale(0.02 -0.02)">
     <defs>
      <path d="M 2841 2188 
Q 3044 2119 3236 1894 
Q 3428 1669 3622 1275 
L 4263 0 
L 3584 0 
L 2988 1197 
Q 2756 1666 2539 1819 
Q 2322 1972 1947 1972 
L 1259 1972 
L 1259 0 
L 628 0 
L 628 4666 
L 2053 4666 
Q 2853 4666 3247 4331 
Q 3641 3997 3641 3322 
Q 3641 2881 3436 2590 
Q 3231 2300 2841 2188 
z
M 1259 4147 
L 1259 2491 
L 2053 2491 
Q 2509 2491 2742 2702 
Q 2975 2913 2975 3322 
Q 2975 3731 2742 3939 
Q 2509 4147 2053 4147 
L 1259 4147 
z
" id="DejaVuSans-52" transform="scale(0.015625)"/>
      <path d="M 1228 531 
L 3431 531 
L 3431 0 
L 469 0 
L 469 531 
Q 828 903 1448 1529 
Q 2069 2156 2228 2338 
Q 2531 2678 2651 2914 
Q 2772 3150 2772 3378 
Q 2772 3750 2511 3984 
Q 2250 4219 1831 4219 
Q 1534 4219 1204 4116 
Q 875 4013 500 3803 
L 500 4441 
Q 881 4594 1212 4672 
Q 1544 4750 1819 4750 
Q 2544 4750 2975 4387 
Q 3406 4025 3406 3419 
Q 3406 3131 3298 2873 
Q 3191 2616 2906 2266 
Q 2828 2175 2409 1742 
Q 1991 1309 1228 531 
z
" id="DejaVuSans-32" transform="scale(0.015625)"/>
      <path d="M 525 4666 
L 3525 4666 
L 3525 4397 
L 1831 0 
L 1172 0 
L 2766 4134 
L 525 4134 
L 525 4666 
z
" id="DejaVuSans-37" transform="scale(0.015625)"/>
      <path d="M 684 794 
L 1344 794 
L 1344 0 
L 684 0 
L 684 794 
z
" id="DejaVuSans-2e" transform="scale(0.015625)"/>
      <path d="M 703 97 
L 703 672 
Q 941 559 1184 500 
Q 1428 441 1663 441 
Q 2288 441 2617 861 
Q 2947 1281 2994 2138 
Q 2813 1869 2534 1725 
Q 2256 1581 1919 1581 
Q 1219 1581 811 2004 
Q 403 2428 403 3163 
Q 403 3881 828 4315 
Q 1253 4750 1959 4750 
Q 2769 4750 3195 4129 
Q 3622 3509 3622 2328 
Q 3622 1225 3098 567 
Q 2575 -91 1691 -91 
Q 1453 -91 1209 -44 
Q 966 3 703 97 
z
M 1959 2075 
Q 2384 2075 2632 2365 
Q 2881 2656 2881 3163 
Q 2881 3666 2632 3958 
Q 2384 4250 1959 4250 
Q 1534 4250 1286 3958 
Q 1038 3666 1038 3163 
Q 1038 2656 1286 2365 
Q 1534 2075 1959 2075 
z
" id="DejaVuSans-39" transform="scale(0.015625)"/>
      <path d="M 1600 4347 
Q 1350 4347 1178 4173 
Q 1006 4000 1006 3750 
Q 1006 3503 1178 3333 
Q 1350 3163 1600 3163 
Q 1850 3163 2022 3333 
Q 2194 3503 2194 3750 
Q 2194 3997 2020 4172 
Q 1847 4347 1600 4347 
z
M 1600 4750 
Q 1800 4750 1984 4673 
Q 2169 4597 2303 4453 
Q 2447 4313 2519 4134 
Q 2591 3956 2591 3750 
Q 2591 3338 2302 3052 
Q 2013 2766 1594 2766 
Q 1172 2766 890 3047 
Q 609 3328 609 3750 
Q 609 4169 896 4459 
Q 1184 4750 1600 4750 
z
" id="DejaVuSans-b0" transform="scale(0.015625)"/>
     </defs>
     <use xlink:href="#DejaVuSans-52"/>
     <use x="64.982422" xlink:href="#DejaVuSans-6f"/>
     <use x="126.164062" xlink:href="#DejaVuSans-73"/>
     <use x="178.263672" xlink:href="#DejaVuSans-73"/>
     <use x="230.363281" xlink:href="#DejaVuSans-20"/>
     <use x="262.150391" xlink:href="#DejaVuSans-32"/>
     <use x="325.773438" xlink:href="#DejaVuSans-37"/>
     <use x="389.396484" xlink:href="#DejaVuSans-2e"/>
     <use x="421.183594" xlink:href="#DejaVuSans-39"/>
     <use x="484.806641" xlink:href="#DejaVuSans-b0"/>
    </g>
   </g>
   <g id="text_5">
    <g id="patch_6">
     <path d="M 176.790725 196.048325 
L 187.320366 182.558117 
L 185.762989 181.342523 
L 175.233348 194.832731 
z
" style="fill:#ffffff;"/>
    </g>
    <!-- The Funnel 17.0째 -->
    <g style="fill:#4169e1;" transform="translate(176.459383 195.764329)rotate(-52.026554)scale(0.02 -0.02)">
     <defs>
      <path d="M 794 531 
L 1825 531 
L 1825 4091 
L 703 3866 
L 703 4441 
L 1819 4666 
L 2450 4666 
L 2450 531 
L 3481 531 
L 3481 0 
L 794 0 
L 794 531 
z
" id="DejaVuSans-31" transform="scale(0.015625)"/>
      <path d="M 2034 4250 
Q 1547 4250 1301 3770 
Q 1056 3291 1056 2328 
Q 1056 1369 1301 889 
Q 1547 409 2034 409 
Q 2525 409 2770 889 
Q 3016 1369 3016 2328 
Q 3016 3291 2770 3770 
Q 2525 4250 2034 4250 
z
M 2034 4750 
Q 2819 4750 3233 4129 
Q 3647 3509 3647 2328 
Q 3647 1150 3233 529 
Q 2819 -91 2034 -91 
Q 1250 -91 836 529 
Q 422 1150 422 2328 
Q 422 3509 836 4129 
Q 1250 4750 2034 4750 
z
" id="DejaVuSans-30" transform="scale(0.015625)"/>
     </defs>
     <use xlink:href="#DejaVuSans-54"/>
     <use x="61.083984" xlink:href="#DejaVuSans-68"/>
     <use x="124.462891" xlink:href="#DejaVuSans-65"/>
     <use x="185.986328" xlink:href="#DejaVuSans-20"/>
     <use x="217.773438" xlink:href="#DejaVuSans-46"/>
     <use x="269.792969" xlink:href="#DejaVuSans-75"/>
     <use x="333.171875" xlink:href="#DejaVuSans-6e"/>
     <use x="396.550781" xlink:href="#DejaVuSans-6e"/>
     <use x="459.929688" xlink:href="#DejaVuSans-65"/>
     <use x="521.453125" xlink:href="#DejaVuSans-6c"/>
     <use x="549.236328" xlink:href="#DejaVuSans-20"/>
     <use x="581.023438" xlink:href="#DejaVuSans-31"/>
     <use x="644.646484" xlink:href="#DejaVuSans-37"/>
     <use x="708.269531" xlink:href="#DejaVuSans-2e"/>
     <use x="740.056641" xlink:href="#DejaVuSans-30"/>
     <use x="803.679688" xlink:href="#DejaVuSans-b0"/>
    </g>
   </g>
   <g id="text_6">
    <g id="patch_7">
     <path d="M 88.655474 217.615013 
L 88.979974 206.613861 
L 87.005208 206.555611 
L 86.680708 217.556764 
z
" style="fill:#ffffff;"/>
    </g>
    <!-- Lang 16.6째 -->
    <g style="fill:#008000;" transform="translate(88.220316 217.582169)rotate(-88.310442)scale(0.02 -0.02)">
     <defs>
      <path d="M 628 4666 
L 1259 4666 
L 1259 531 
L 3531 531 
L 3531 0 
L 628 0 
L 628 4666 
z
" id="DejaVuSans-4c" transform="scale(0.015625)"/>
      <path d="M 2906 1791 
Q 2906 2416 2648 2759 
Q 2391 3103 1925 3103 
Q 1463 3103 1205 2759 
Q 947 2416 947 1791 
Q 947 1169 1205 825 
Q 1463 481 1925 481 
Q 2391 481 2648 825 
Q 2906 1169 2906 1791 
z
M 3481 434 
Q 3481 -459 3084 -895 
Q 2688 -1331 1869 -1331 
Q 1566 -1331 1297 -1286 
Q 1028 -1241 775 -1147 
L 775 -588 
Q 1028 -725 1275 -790 
Q 1522 -856 1778 -856 
Q 2344 -856 2625 -561 
Q 2906 -266 2906 331 
L 2906 616 
Q 2728 306 2450 153 
Q 2172 0 1784 0 
Q 1141 0 747 490 
Q 353 981 353 1791 
Q 353 2603 747 3093 
Q 1141 3584 1784 3584 
Q 2172 3584 2450 3431 
Q 2728 3278 2906 2969 
L 2906 3500 
L 3481 3500 
L 3481 434 
z
" id="DejaVuSans-67" transform="scale(0.015625)"/>
      <path d="M 2113 2584 
Q 1688 2584 1439 2293 
Q 1191 2003 1191 1497 
Q 1191 994 1439 701 
Q 1688 409 2113 409 
Q 2538 409 2786 701 
Q 3034 994 3034 1497 
Q 3034 2003 2786 2293 
Q 2538 2584 2113 2584 
z
M 3366 4563 
L 3366 3988 
Q 3128 4100 2886 4159 
Q 2644 4219 2406 4219 
Q 1781 4219 1451 3797 
Q 1122 3375 1075 2522 
Q 1259 2794 1537 2939 
Q 1816 3084 2150 3084 
Q 2853 3084 3261 2657 
Q 3669 2231 3669 1497 
Q 3669 778 3244 343 
Q 2819 -91 2113 -91 
Q 1303 -91 875 529 
Q 447 1150 447 2328 
Q 447 3434 972 4092 
Q 1497 4750 2381 4750 
Q 2619 4750 2861 4703 
Q 3103 4656 3366 4563 
z
" id="DejaVuSans-36" transform="scale(0.015625)"/>
     </defs>
     <use xlink:href="#DejaVuSans-4c"/>
     <use x="55.712891" xlink:href="#DejaVuSans-61"/>
     <use x="116.992188" xlink:href="#DejaVuSans-6e"/>
     <use x="180.371094" xlink:href="#DejaVuSans-67"/>
     <use x="243.847656" xlink:href="#DejaVuSans-20"/>
     <use x="275.634766" xlink:href="#DejaVuSans-31"/>
     <use x="339.257812" xlink:href="#DejaVuSans-36"/>
     <use x="402.880859" xlink:href="#DejaVuSans-2e"/>
     <use x="434.667969" xlink:href="#DejaVuSans-36"/>
     <use x="498.291016" xlink:href="#DejaVuSans-b0"/>
    </g>
   </g>
   <g id="text_7">
    <g id="patch_8">
     <path d="M 195.286987 233.149731 
L 206.152995 215.485117 
L 204.470245 214.45001 
L 193.604237 232.114624 
z
" style="fill:#ffffff;"/>
    </g>
    <!-- Proctor Glades 29.4째 -->
    <g style="fill:#ff0000;" transform="translate(194.926153 232.904291)rotate(-58.403141)scale(0.02 -0.02)">
     <defs>
      <path d="M 1259 4147 
L 1259 2394 
L 2053 2394 
Q 2494 2394 2734 2622 
Q 2975 2850 2975 3272 
Q 2975 3691 2734 3919 
Q 2494 4147 2053 4147 
L 1259 4147 
z
M 628 4666 
L 2053 4666 
Q 2838 4666 3239 4311 
Q 3641 3956 3641 3272 
Q 3641 2581 3239 2228 
Q 2838 1875 2053 1875 
L 1259 1875 
L 1259 0 
L 628 0 
L 628 4666 
z
" id="DejaVuSans-50" transform="scale(0.015625)"/>
      <path d="M 3122 3366 
L 3122 2828 
Q 2878 2963 2633 3030 
Q 2388 3097 2138 3097 
Q 1578 3097 1268 2742 
Q 959 2388 959 1747 
Q 959 1106 1268 751 
Q 1578 397 2138 397 
Q 2388 397 2633 464 
Q 2878 531 3122 666 
L 3122 134 
Q 2881 22 2623 -34 
Q 2366 -91 2075 -91 
Q 1284 -91 818 406 
Q 353 903 353 1747 
Q 353 2603 823 3093 
Q 1294 3584 2113 3584 
Q 2378 3584 2631 3529 
Q 2884 3475 3122 3366 
z
" id="DejaVuSans-63" transform="scale(0.015625)"/>
      <path d="M 3809 666 
L 3809 1919 
L 2778 1919 
L 2778 2438 
L 4434 2438 
L 4434 434 
Q 4069 175 3628 42 
Q 3188 -91 2688 -91 
Q 1594 -91 976 548 
Q 359 1188 359 2328 
Q 359 3472 976 4111 
Q 1594 4750 2688 4750 
Q 3144 4750 3555 4637 
Q 3966 4525 4313 4306 
L 4313 3634 
Q 3963 3931 3569 4081 
Q 3175 4231 2741 4231 
Q 1884 4231 1454 3753 
Q 1025 3275 1025 2328 
Q 1025 1384 1454 906 
Q 1884 428 2741 428 
Q 3075 428 3337 486 
Q 3600 544 3809 666 
z
" id="DejaVuSans-47" transform="scale(0.015625)"/>
      <path d="M 2906 2969 
L 2906 4863 
L 3481 4863 
L 3481 0 
L 2906 0 
L 2906 525 
Q 2725 213 2448 61 
Q 2172 -91 1784 -91 
Q 1150 -91 751 415 
Q 353 922 353 1747 
Q 353 2572 751 3078 
Q 1150 3584 1784 3584 
Q 2172 3584 2448 3432 
Q 2725 3281 2906 2969 
z
M 947 1747 
Q 947 1113 1208 752 
Q 1469 391 1925 391 
Q 2381 391 2643 752 
Q 2906 1113 2906 1747 
Q 2906 2381 2643 2742 
Q 2381 3103 1925 3103 
Q 1469 3103 1208 2742 
Q 947 2381 947 1747 
z
" id="DejaVuSans-64" transform="scale(0.015625)"/>
      <path d="M 2419 4116 
L 825 1625 
L 2419 1625 
L 2419 4116 
z
M 2253 4666 
L 3047 4666 
L 3047 1625 
L 3713 1625 
L 3713 1100 
L 3047 1100 
L 3047 0 
L 2419 0 
L 2419 1100 
L 313 1100 
L 313 1709 
L 2253 4666 
z
" id="DejaVuSans-34" transform="scale(0.015625)"/>
     </defs>
     <use xlink:href="#DejaVuSans-50"/>
     <use x="58.552734" xlink:href="#DejaVuSans-72"/>
     <use x="97.416016" xlink:href="#DejaVuSans-6f"/>
     <use x="158.597656" xlink:href="#DejaVuSans-63"/>
     <use x="213.578125" xlink:href="#DejaVuSans-74"/>
     <use x="252.787109" xlink:href="#DejaVuSans-6f"/>
     <use x="313.96875" xlink:href="#DejaVuSans-72"/>
     <use x="355.082031" xlink:href="#DejaVuSans-20"/>
     <use x="386.869141" xlink:href="#DejaVuSans-47"/>
     <use x="464.359375" xlink:href="#DejaVuSans-6c"/>
     <use x="492.142578" xlink:href="#DejaVuSans-61"/>
     <use x="553.421875" xlink:href="#DejaVuSans-64"/>
     <use x="616.898438" xlink:href="#DejaVuSans-65"/>
     <use x="678.421875" xlink:href="#DejaVuSans-73"/>
     <use x="730.521484" xlink:href="#DejaVuSans-20"/>
     <use x="762.308594" xlink:href="#DejaVuSans-32"/>
     <use x="825.931641" xlink:href="#DejaVuSans-39"/>
     <use x="889.554688" xlink:href="#DejaVuSans-2e"/>
     <use x="921.341797" xlink:href="#DejaVuSans-34"/>
     <use x="984.964844" xlink:href="#DejaVuSans-b0"/>
    </g>
   </g>
   <g id="text_8">
    <g id="patch_9">
     <path d="M 209.029406 165.032366 
L 222.2131 153.347141 
L 220.902674 151.86867 
L 207.718979 163.553895 
z
" style="fill:#ffffff;"/>
    </g>
    <!-- Upper Loop 18.9째 -->
    <g style="fill:#4169e1;" transform="translate(208.755217 164.692864)rotate(-41.551829)scale(0.02 -0.02)">
     <defs>
      <path d="M 556 4666 
L 1191 4666 
L 1191 1831 
Q 1191 1081 1462 751 
Q 1734 422 2344 422 
Q 2950 422 3222 751 
Q 3494 1081 3494 1831 
L 3494 4666 
L 4128 4666 
L 4128 1753 
Q 4128 841 3676 375 
Q 3225 -91 2344 -91 
Q 1459 -91 1007 375 
Q 556 841 556 1753 
L 556 4666 
z
" id="DejaVuSans-55" transform="scale(0.015625)"/>
      <path d="M 2034 2216 
Q 1584 2216 1326 1975 
Q 1069 1734 1069 1313 
Q 1069 891 1326 650 
Q 1584 409 2034 409 
Q 2484 409 2743 651 
Q 3003 894 3003 1313 
Q 3003 1734 2745 1975 
Q 2488 2216 2034 2216 
z
M 1403 2484 
Q 997 2584 770 2862 
Q 544 3141 544 3541 
Q 544 4100 942 4425 
Q 1341 4750 2034 4750 
Q 2731 4750 3128 4425 
Q 3525 4100 3525 3541 
Q 3525 3141 3298 2862 
Q 3072 2584 2669 2484 
Q 3125 2378 3379 2068 
Q 3634 1759 3634 1313 
Q 3634 634 3220 271 
Q 2806 -91 2034 -91 
Q 1263 -91 848 271 
Q 434 634 434 1313 
Q 434 1759 690 2068 
Q 947 2378 1403 2484 
z
M 1172 3481 
Q 1172 3119 1398 2916 
Q 1625 2713 2034 2713 
Q 2441 2713 2670 2916 
Q 2900 3119 2900 3481 
Q 2900 3844 2670 4047 
Q 2441 4250 2034 4250 
Q 1625 4250 1398 4047 
Q 1172 3844 1172 3481 
z
" id="DejaVuSans-38" transform="scale(0.015625)"/>
     </defs>
     <use xlink:href="#DejaVuSans-55"/>
     <use x="73.193359" xlink:href="#DejaVuSans-70"/>
     <use x="136.669922" xlink:href="#DejaVuSans-70"/>
     <use x="200.146484" xlink:href="#DejaVuSans-65"/>
     <use x="261.669922" xlink:href="#DejaVuSans-72"/>
     <use x="302.783203" xlink:href="#DejaVuSans-20"/>
     <use x="334.570312" xlink:href="#DejaVuSans-4c"/>
     <use x="388.533203" xlink:href="#DejaVuSans-6f"/>
     <use x="449.714844" xlink:href="#DejaVuSans-6f"/>
     <use x="510.896484" xlink:href="#DejaVuSans-70"/>
     <use x="574.373047" xlink:href="#DejaVuSans-20"/>
     <use x="606.160156" xlink:href="#DejaVuSans-31"/>
     <use x="669.783203" xlink:href="#DejaVuSans-38"/>
     <use x="733.40625" xlink:href="#DejaVuSans-2e"/>
     <use x="765.193359" xlink:href="#DejaVuSans-39"/>
     <use x="828.816406" xlink:href="#DejaVuSans-b0"/>
    </g>
   </g>
   <g id="text_9">
    <g id="patch_10">
     <path d="M 195.66755 149.043254 
L 200.627279 139.105957 
L 198.859592 138.2237 
L 193.899863 148.160998 
z
" style="fill:#ffffff;"/>
    </g>
    <!-- Allen 27.7째 -->
    <g transform="translate(195.286427 148.830682)rotate(-63.47611)scale(0.02 -0.02)">
     <defs>
      <path d="M 2188 4044 
L 1331 1722 
L 3047 1722 
L 2188 4044 
z
M 1831 4666 
L 2547 4666 
L 4325 0 
L 3669 0 
L 3244 1197 
L 1141 1197 
L 716 0 
L 50 0 
L 1831 4666 
z
" id="DejaVuSans-41" transform="scale(0.015625)"/>
     </defs>
     <use xlink:href="#DejaVuSans-41"/>
     <use x="68.408203" xlink:href="#DejaVuSans-6c"/>
     <use x="96.191406" xlink:href="#DejaVuSans-6c"/>
     <use x="123.974609" xlink:href="#DejaVuSans-65"/>
     <use x="185.498047" xlink:href="#DejaVuSans-6e"/>
     <use x="248.876953" xlink:href="#DejaVuSans-20"/>
     <use x="280.664062" xlink:href="#DejaVuSans-32"/>
     <use x="344.287109" xlink:href="#DejaVuSans-37"/>
     <use x="407.910156" xlink:href="#DejaVuSans-2e"/>
     <use x="439.697266" xlink:href="#DejaVuSans-37"/>
     <use x="503.320312" xlink:href="#DejaVuSans-b0"/>
    </g>
   </g>
   <g id="text_10">
    <g id="patch_11">
     <path d="M 99.959857 221.431021 
L 113.237283 228.82649 
L 114.19863 227.10054 
L 100.921204 219.70507 
z
" style="fill:#ffffff;"/>
    </g>
    <!-- Cameron 26.4째 -->
    <g transform="translate(100.189458 221.059908)rotate(-330.882379)scale(0.02 -0.02)">
     <defs>
      <path d="M 4122 4306 
L 4122 3641 
Q 3803 3938 3442 4084 
Q 3081 4231 2675 4231 
Q 1875 4231 1450 3742 
Q 1025 3253 1025 2328 
Q 1025 1406 1450 917 
Q 1875 428 2675 428 
Q 3081 428 3442 575 
Q 3803 722 4122 1019 
L 4122 359 
Q 3791 134 3420 21 
Q 3050 -91 2638 -91 
Q 1578 -91 968 557 
Q 359 1206 359 2328 
Q 359 3453 968 4101 
Q 1578 4750 2638 4750 
Q 3056 4750 3426 4639 
Q 3797 4528 4122 4306 
z
" id="DejaVuSans-43" transform="scale(0.015625)"/>
      <path d="M 3328 2828 
Q 3544 3216 3844 3400 
Q 4144 3584 4550 3584 
Q 5097 3584 5394 3201 
Q 5691 2819 5691 2113 
L 5691 0 
L 5113 0 
L 5113 2094 
Q 5113 2597 4934 2840 
Q 4756 3084 4391 3084 
Q 3944 3084 3684 2787 
Q 3425 2491 3425 1978 
L 3425 0 
L 2847 0 
L 2847 2094 
Q 2847 2600 2669 2842 
Q 2491 3084 2119 3084 
Q 1678 3084 1418 2786 
Q 1159 2488 1159 1978 
L 1159 0 
L 581 0 
L 581 3500 
L 1159 3500 
L 1159 2956 
Q 1356 3278 1631 3431 
Q 1906 3584 2284 3584 
Q 2666 3584 2933 3390 
Q 3200 3197 3328 2828 
z
" id="DejaVuSans-6d" transform="scale(0.015625)"/>
     </defs>
     <use xlink:href="#DejaVuSans-43"/>
     <use x="69.824219" xlink:href="#DejaVuSans-61"/>
     <use x="131.103516" xlink:href="#DejaVuSans-6d"/>
     <use x="228.515625" xlink:href="#DejaVuSans-65"/>
     <use x="290.039062" xlink:href="#DejaVuSans-72"/>
     <use x="328.902344" xlink:href="#DejaVuSans-6f"/>
     <use x="390.083984" xlink:href="#DejaVuSans-6e"/>
     <use x="453.462891" xlink:href="#DejaVuSans-20"/>
     <use x="485.25" xlink:href="#DejaVuSans-32"/>
     <use x="548.873047" xlink:href="#DejaVuSans-36"/>
     <use x="612.496094" xlink:href="#DejaVuSans-2e"/>
     <use x="644.283203" xlink:href="#DejaVuSans-34"/>
     <use x="707.90625" xlink:href="#DejaVuSans-b0"/>
    </g>
   </g>
   <g id="text_11">
    <g id="patch_12">
     <path d="M 216.418238 218.329206 
L 233.96732 217.982842 
L 233.928335 216.007602 
L 216.379253 216.353965 
z
" style="fill:#ffffff;"/>
    </g>
    <!-- Lower Loop 17.0째 -->
    <g style="fill:#008000;" transform="translate(216.429632 217.892958)rotate(-1.130691)scale(0.02 -0.02)">
     <defs>
      <path d="M 269 3500 
L 844 3500 
L 1563 769 
L 2278 3500 
L 2956 3500 
L 3675 769 
L 4391 3500 
L 4966 3500 
L 4050 0 
L 3372 0 
L 2619 2869 
L 1863 0 
L 1184 0 
L 269 3500 
z
" id="DejaVuSans-77" transform="scale(0.015625)"/>
     </defs>
     <use xlink:href="#DejaVuSans-4c"/>
     <use x="53.962891" xlink:href="#DejaVuSans-6f"/>
     <use x="115.144531" xlink:href="#DejaVuSans-77"/>
     <use x="196.931641" xlink:href="#DejaVuSans-65"/>
     <use x="258.455078" xlink:href="#DejaVuSans-72"/>
     <use x="299.568359" xlink:href="#DejaVuSans-20"/>
     <use x="331.355469" xlink:href="#DejaVuSans-4c"/>
     <use x="385.318359" xlink:href="#DejaVuSans-6f"/>
     <use x="446.5" xlink:href="#DejaVuSans-6f"/>
     <use x="507.681641" xlink:href="#DejaVuSans-70"/>
     <use x="571.158203" xlink:href="#DejaVuSans-20"/>
     <use x="602.945312" xlink:href="#DejaVuSans-31"/>
     <use x="666.568359" xlink:href="#DejaVuSans-37"/>
     <use x="730.191406" xlink:href="#DejaVuSans-2e"/>
     <use x="761.978516" xlink:href="#DejaVuSans-30"/>
     <use x="825.601562" xlink:href="#DejaVuSans-b0"/>
    </g>
   </g>
   <g id="text_12">
    <g id="patch_13">
     <path d="M 95.428326 198.677476 
L 104.812226 206.786047 
L 106.103925 205.291187 
L 96.720025 197.182616 
z
" style="fill:#ffffff;"/>
    </g>
    <!-- Kelton 25.4째 -->
    <g transform="translate(95.728483 198.360699)rotate(-319.169902)scale(0.02 -0.02)">
     <defs>
      <path d="M 628 4666 
L 1259 4666 
L 1259 2694 
L 3353 4666 
L 4166 4666 
L 1850 2491 
L 4331 0 
L 3500 0 
L 1259 2247 
L 1259 0 
L 628 0 
L 628 4666 
z
" id="DejaVuSans-4b" transform="scale(0.015625)"/>
      <path d="M 691 4666 
L 3169 4666 
L 3169 4134 
L 1269 4134 
L 1269 2991 
Q 1406 3038 1543 3061 
Q 1681 3084 1819 3084 
Q 2600 3084 3056 2656 
Q 3513 2228 3513 1497 
Q 3513 744 3044 326 
Q 2575 -91 1722 -91 
Q 1428 -91 1123 -41 
Q 819 9 494 109 
L 494 744 
Q 775 591 1075 516 
Q 1375 441 1709 441 
Q 2250 441 2565 725 
Q 2881 1009 2881 1497 
Q 2881 1984 2565 2268 
Q 2250 2553 1709 2553 
Q 1456 2553 1204 2497 
Q 953 2441 691 2322 
L 691 4666 
z
" id="DejaVuSans-35" transform="scale(0.015625)"/>
     </defs>
     <use xlink:href="#DejaVuSans-4b"/>
     <use x="60.576172" xlink:href="#DejaVuSans-65"/>
     <use x="122.099609" xlink:href="#DejaVuSans-6c"/>
     <use x="149.882812" xlink:href="#DejaVuSans-74"/>
     <use x="189.091797" xlink:href="#DejaVuSans-6f"/>
     <use x="250.273438" xlink:href="#DejaVuSans-6e"/>
     <use x="313.652344" xlink:href="#DejaVuSans-20"/>
     <use x="345.439453" xlink:href="#DejaVuSans-32"/>
     <use x="409.0625" xlink:href="#DejaVuSans-35"/>
     <use x="472.685547" xlink:href="#DejaVuSans-2e"/>
     <use x="504.472656" xlink:href="#DejaVuSans-34"/>
     <use x="568.095703" xlink:href="#DejaVuSans-b0"/>
    </g>
   </g>
   <g id="text_13">
    <g id="patch_14">
     <path d="M 174.076795 231.586051 
L 184.161171 216.381644 
L 182.514762 215.289658 
L 172.430387 230.494065 
z
" style="fill:#ffffff;"/>
    </g>
    <!-- Ross Glades 31.3째 -->
    <g style="fill:#ff0000;" transform="translate(173.724556 231.328428)rotate(-56.445534)scale(0.02 -0.02)">
     <defs>
      <path d="M 2597 2516 
Q 3050 2419 3304 2112 
Q 3559 1806 3559 1356 
Q 3559 666 3084 287 
Q 2609 -91 1734 -91 
Q 1441 -91 1130 -33 
Q 819 25 488 141 
L 488 750 
Q 750 597 1062 519 
Q 1375 441 1716 441 
Q 2309 441 2620 675 
Q 2931 909 2931 1356 
Q 2931 1769 2642 2001 
Q 2353 2234 1838 2234 
L 1294 2234 
L 1294 2753 
L 1863 2753 
Q 2328 2753 2575 2939 
Q 2822 3125 2822 3475 
Q 2822 3834 2567 4026 
Q 2313 4219 1838 4219 
Q 1578 4219 1281 4162 
Q 984 4106 628 3988 
L 628 4550 
Q 988 4650 1302 4700 
Q 1616 4750 1894 4750 
Q 2613 4750 3031 4423 
Q 3450 4097 3450 3541 
Q 3450 3153 3228 2886 
Q 3006 2619 2597 2516 
z
" id="DejaVuSans-33" transform="scale(0.015625)"/>
     </defs>
     <use xlink:href="#DejaVuSans-52"/>
     <use x="64.982422" xlink:href="#DejaVuSans-6f"/>
     <use x="126.164062" xlink:href="#DejaVuSans-73"/>
     <use x="178.263672" xlink:href="#DejaVuSans-73"/>
     <use x="230.363281" xlink:href="#DejaVuSans-20"/>
     <use x="262.150391" xlink:href="#DejaVuSans-47"/>
     <use x="339.640625" xlink:href="#DejaVuSans-6c"/>
     <use x="367.423828" xlink:href="#DejaVuSans-61"/>
     <use x="428.703125" xlink:href="#DejaVuSans-64"/>
     <use x="492.179688" xlink:href="#DejaVuSans-65"/>
     <use x="553.703125" xlink:href="#DejaVuSans-73"/>
     <use x="605.802734" xlink:href="#DejaVuSans-20"/>
     <use x="637.589844" xlink:href="#DejaVuSans-33"/>
     <use x="701.212891" xlink:href="#DejaVuSans-31"/>
     <use x="764.835938" xlink:href="#DejaVuSans-2e"/>
     <use x="796.623047" xlink:href="#DejaVuSans-33"/>
     <use x="860.246094" xlink:href="#DejaVuSans-b0"/>
    </g>
   </g>
   <g id="text_14">
    <g id="patch_15">
     <path d="M 186.993592 93.756726 
L 187.413621 106.980369 
L 189.38825 106.917648 
L 188.968221 93.694005 
z
" style="fill:#ffffff;"/>
    </g>
    <!-- Proctor 21.8째 -->
    <g style="fill:#4169e1;" transform="translate(187.429945 93.762876)rotate(-271.819303)scale(0.02 -0.02)">
     <use xlink:href="#DejaVuSans-50"/>
     <use x="58.552734" xlink:href="#DejaVuSans-72"/>
     <use x="97.416016" xlink:href="#DejaVuSans-6f"/>
     <use x="158.597656" xlink:href="#DejaVuSans-63"/>
     <use x="213.578125" xlink:href="#DejaVuSans-74"/>
     <use x="252.787109" xlink:href="#DejaVuSans-6f"/>
     <use x="313.96875" xlink:href="#DejaVuSans-72"/>
     <use x="355.082031" xlink:href="#DejaVuSans-20"/>
     <use x="386.869141" xlink:href="#DejaVuSans-32"/>
     <use x="450.492188" xlink:href="#DejaVuSans-31"/>
     <use x="514.115234" xlink:href="#DejaVuSans-2e"/>
     <use x="545.902344" xlink:href="#DejaVuSans-38"/>
     <use x="609.525391" xlink:href="#DejaVuSans-b0"/>
    </g>
   </g>
   <g id="text_15">
    <g id="patch_16">
     <path d="M 110.169784 204.736292 
L 119.905318 213.498726 
L 121.22698 212.03029 
L 111.491446 203.267856 
z
" style="fill:#ffffff;"/>
    </g>
    <!-- Hadley 32.9째 -->
    <g style="fill:#ff0000;" transform="translate(110.476285 204.425649)rotate(-318.011312)scale(0.02 -0.02)">
     <defs>
      <path d="M 628 4666 
L 1259 4666 
L 1259 2753 
L 3553 2753 
L 3553 4666 
L 4184 4666 
L 4184 0 
L 3553 0 
L 3553 2222 
L 1259 2222 
L 1259 0 
L 628 0 
L 628 4666 
z
" id="DejaVuSans-48" transform="scale(0.015625)"/>
     </defs>
     <use xlink:href="#DejaVuSans-48"/>
     <use x="75.195312" xlink:href="#DejaVuSans-61"/>
     <use x="136.474609" xlink:href="#DejaVuSans-64"/>
     <use x="199.951172" xlink:href="#DejaVuSans-6c"/>
     <use x="227.734375" xlink:href="#DejaVuSans-65"/>
     <use x="289.257812" xlink:href="#DejaVuSans-79"/>
     <use x="348.4375" xlink:href="#DejaVuSans-20"/>
     <use x="380.224609" xlink:href="#DejaVuSans-33"/>
     <use x="443.847656" xlink:href="#DejaVuSans-32"/>
     <use x="507.470703" xlink:href="#DejaVuSans-2e"/>
     <use x="539.257812" xlink:href="#DejaVuSans-39"/>
     <use x="602.880859" xlink:href="#DejaVuSans-b0"/>
    </g>
   </g>
   <g id="text_16">
    <g id="patch_17">
     <path d="M 169.4697 107.341434 
L 171.247512 118.604488 
L 173.198976 118.29646 
L 171.421165 107.033406 
z
" style="fill:#ffffff;"/>
    </g>
    <!-- Voter 17.8째 -->
    <g style="fill:#4169e1;" transform="translate(169.903425 107.293221)rotate(-278.96982)scale(0.02 -0.02)">
     <defs>
      <path d="M 1831 0 
L 50 4666 
L 709 4666 
L 2188 738 
L 3669 4666 
L 4325 4666 
L 2547 0 
L 1831 0 
z
" id="DejaVuSans-56" transform="scale(0.015625)"/>
     </defs>
     <use xlink:href="#DejaVuSans-56"/>
     <use x="60.658203" xlink:href="#DejaVuSans-6f"/>
     <use x="121.839844" xlink:href="#DejaVuSans-74"/>
     <use x="161.048828" xlink:href="#DejaVuSans-65"/>
     <use x="222.572266" xlink:href="#DejaVuSans-72"/>
     <use x="263.685547" xlink:href="#DejaVuSans-20"/>
     <use x="295.472656" xlink:href="#DejaVuSans-31"/>
     <use x="359.095703" xlink:href="#DejaVuSans-37"/>
     <use x="422.71875" xlink:href="#DejaVuSans-2e"/>
     <use x="454.505859" xlink:href="#DejaVuSans-38"/>
     <use x="518.128906" xlink:href="#DejaVuSans-b0"/>
    </g>
   </g>
   <g id="text_17">
    <g id="patch_18">
     <path d="M 62.712351 181.064044 
L 64.895302 194.192863 
L 66.844171 193.868821 
L 64.661221 180.740002 
z
" style="fill:#ffffff;"/>
    </g>
    <!-- Wissler 13.9째 -->
    <g style="fill:#008000;" transform="translate(63.145665 181.012271)rotate(-279.4403)scale(0.02 -0.02)">
     <use xlink:href="#DejaVuSans-57"/>
     <use x="96.626953" xlink:href="#DejaVuSans-69"/>
     <use x="124.410156" xlink:href="#DejaVuSans-73"/>
     <use x="176.509766" xlink:href="#DejaVuSans-73"/>
     <use x="228.609375" xlink:href="#DejaVuSans-6c"/>
     <use x="256.392578" xlink:href="#DejaVuSans-65"/>
     <use x="317.916016" xlink:href="#DejaVuSans-72"/>
     <use x="359.029297" xlink:href="#DejaVuSans-20"/>
     <use x="390.816406" xlink:href="#DejaVuSans-31"/>
     <use x="454.439453" xlink:href="#DejaVuSans-33"/>
     <use x="518.0625" xlink:href="#DejaVuSans-2e"/>
     <use x="549.849609" xlink:href="#DejaVuSans-39"/>
     <use x="613.472656" xlink:href="#DejaVuSans-b0"/>
    </g>
   </g>
   <g id="text_18">
    <g id="patch_19">
     <path d="M 143.776831 61.121277 
L 158.754938 68.172825 
L 159.596449 66.385382 
L 144.618342 59.333833 
z
" style="fill:#ffffff;"/>
    </g>
    <!-- Youngman 28.5째 -->
    <g transform="translate(143.980612 60.735382)rotate(-334.789395)scale(0.02 -0.02)">
     <defs>
      <path d="M -13 4666 
L 666 4666 
L 1959 2747 
L 3244 4666 
L 3922 4666 
L 2272 2222 
L 2272 0 
L 1638 0 
L 1638 2222 
L -13 4666 
z
" id="DejaVuSans-59" transform="scale(0.015625)"/>
     </defs>
     <use xlink:href="#DejaVuSans-59"/>
     <use x="47.833984" xlink:href="#DejaVuSans-6f"/>
     <use x="109.015625" xlink:href="#DejaVuSans-75"/>
     <use x="172.394531" xlink:href="#DejaVuSans-6e"/>
     <use x="235.773438" xlink:href="#DejaVuSans-67"/>
     <use x="299.25" xlink:href="#DejaVuSans-6d"/>
     <use x="396.662109" xlink:href="#DejaVuSans-61"/>
     <use x="457.941406" xlink:href="#DejaVuSans-6e"/>
     <use x="521.320312" xlink:href="#DejaVuSans-20"/>
     <use x="553.107422" xlink:href="#DejaVuSans-32"/>
     <use x="616.730469" xlink:href="#DejaVuSans-38"/>
     <use x="680.353516" xlink:href="#DejaVuSans-2e"/>
     <use x="712.140625" xlink:href="#DejaVuSans-35"/>
     <use x="775.763672" xlink:href="#DejaVuSans-b0"/>
    </g>
   </g>
   <g id="text_19">
    <g id="patch_20">
     <path d="M 138.129083 75.431299 
L 152.153418 74.493952 
L 152.021667 72.522725 
L 137.997332 73.460072 
z
" style="fill:#ffffff;"/>
    </g>
    <!-- Lift Line 25.5째 -->
    <g transform="translate(138.119966 74.994998)rotate(-3.823801)scale(0.02 -0.02)">
     <defs>
      <path d="M 2375 4863 
L 2375 4384 
L 1825 4384 
Q 1516 4384 1395 4259 
Q 1275 4134 1275 3809 
L 1275 3500 
L 2222 3500 
L 2222 3053 
L 1275 3053 
L 1275 0 
L 697 0 
L 697 3053 
L 147 3053 
L 147 3500 
L 697 3500 
L 697 3744 
Q 697 4328 969 4595 
Q 1241 4863 1831 4863 
L 2375 4863 
z
" id="DejaVuSans-66" transform="scale(0.015625)"/>
     </defs>
     <use xlink:href="#DejaVuSans-4c"/>
     <use x="55.712891" xlink:href="#DejaVuSans-69"/>
     <use x="83.496094" xlink:href="#DejaVuSans-66"/>
     <use x="116.951172" xlink:href="#DejaVuSans-74"/>
     <use x="156.160156" xlink:href="#DejaVuSans-20"/>
     <use x="187.947266" xlink:href="#DejaVuSans-4c"/>
     <use x="243.660156" xlink:href="#DejaVuSans-69"/>
     <use x="271.443359" xlink:href="#DejaVuSans-6e"/>
     <use x="334.822266" xlink:href="#DejaVuSans-65"/>
     <use x="396.345703" xlink:href="#DejaVuSans-20"/>
     <use x="428.132812" xlink:href="#DejaVuSans-32"/>
     <use x="491.755859" xlink:href="#DejaVuSans-35"/>
     <use x="555.378906" xlink:href="#DejaVuSans-2e"/>
     <use x="587.166016" xlink:href="#DejaVuSans-35"/>
     <use x="650.789062" xlink:href="#DejaVuSans-b0"/>
    </g>
   </g>
   <g id="text_20">
    <g id="patch_21">
     <path d="M 116.337542 122.483187 
L 131.484484 118.568291 
L 130.990107 116.655522 
L 115.843166 120.570418 
z
" style="fill:#ffffff;"/>
    </g>
    <!-- Meredeth 16.5째 -->
    <g style="fill:#008000;" transform="translate(116.247818 122.056114)rotate(-14.491598)scale(0.02 -0.02)">
     <use xlink:href="#DejaVuSans-4d"/>
     <use x="86.279297" xlink:href="#DejaVuSans-65"/>
     <use x="147.802734" xlink:href="#DejaVuSans-72"/>
     <use x="186.666016" xlink:href="#DejaVuSans-65"/>
     <use x="248.189453" xlink:href="#DejaVuSans-64"/>
     <use x="311.666016" xlink:href="#DejaVuSans-65"/>
     <use x="373.189453" xlink:href="#DejaVuSans-74"/>
     <use x="412.398438" xlink:href="#DejaVuSans-68"/>
     <use x="475.777344" xlink:href="#DejaVuSans-20"/>
     <use x="507.564453" xlink:href="#DejaVuSans-31"/>
     <use x="571.1875" xlink:href="#DejaVuSans-36"/>
     <use x="634.810547" xlink:href="#DejaVuSans-2e"/>
     <use x="666.597656" xlink:href="#DejaVuSans-35"/>
     <use x="730.220703" xlink:href="#DejaVuSans-b0"/>
    </g>
   </g>
   <g id="text_21">
    <g id="patch_22">
     <path d="M 134.816184 108.886207 
L 147.166928 101.263937 
L 146.129355 99.582706 
L 133.778611 107.204977 
z
" style="fill:#ffffff;"/>
    </g>
    <!-- La Force 22.9째 -->
    <g style="fill:#4169e1;" transform="translate(134.604255 108.504727)rotate(-31.680839)scale(0.02 -0.02)">
     <use xlink:href="#DejaVuSans-4c"/>
     <use x="55.712891" xlink:href="#DejaVuSans-61"/>
     <use x="116.992188" xlink:href="#DejaVuSans-20"/>
     <use x="148.779297" xlink:href="#DejaVuSans-46"/>
     <use x="202.673828" xlink:href="#DejaVuSans-6f"/>
     <use x="263.855469" xlink:href="#DejaVuSans-72"/>
     <use x="302.71875" xlink:href="#DejaVuSans-63"/>
     <use x="357.699219" xlink:href="#DejaVuSans-65"/>
     <use x="419.222656" xlink:href="#DejaVuSans-20"/>
     <use x="451.009766" xlink:href="#DejaVuSans-32"/>
     <use x="514.632812" xlink:href="#DejaVuSans-32"/>
     <use x="578.255859" xlink:href="#DejaVuSans-2e"/>
     <use x="610.042969" xlink:href="#DejaVuSans-39"/>
     <use x="673.666016" xlink:href="#DejaVuSans-b0"/>
    </g>
   </g>
   <g id="text_22">
    <!-- Middlebury Snow Bowl -->
    <g transform="translate(29.693318 16.983654)scale(0.16 -0.16)">
     <use xlink:href="#DejaVuSans-4d"/>
     <use x="86.279297" xlink:href="#DejaVuSans-69"/>
     <use x="114.0625" xlink:href="#DejaVuSans-64"/>
     <use x="177.539062" xlink:href="#DejaVuSans-64"/>
     <use x="241.015625" xlink:href="#DejaVuSans-6c"/>
     <use x="268.798828" xlink:href="#DejaVuSans-65"/>
     <use x="330.322266" xlink:href="#DejaVuSans-62"/>
     <use x="393.798828" xlink:href="#DejaVuSans-75"/>
     <use x="457.177734" xlink:href="#DejaVuSans-72"/>
     <use x="498.291016" xlink:href="#DejaVuSans-79"/>
     <use x="557.470703" xlink:href="#DejaVuSans-20"/>
     <use x="589.257812" xlink:href="#DejaVuSans-53"/>
     <use x="652.734375" xlink:href="#DejaVuSans-6e"/>
     <use x="716.113281" xlink:href="#DejaVuSans-6f"/>
     <use x="777.294922" xlink:href="#DejaVuSans-77"/>
     <use x="859.082031" xlink:href="#DejaVuSans-20"/>
     <use x="890.869141" xlink:href="#DejaVuSans-42"/>
     <use x="959.472656" xlink:href="#DejaVuSans-6f"/>
     <use x="1020.654297" xlink:href="#DejaVuSans-77"/>
     <use x="1102.441406" xlink:href="#DejaVuSans-6c"/>
    </g>
   </g>
   <g id="legend_1">
    <g id="line2d_32">
     <path d="M 8.110193 268.533753 
L 24.110193 268.533753 
" style="fill:none;stroke:#008000;stroke-linecap:square;stroke-width:1.5;"/>
    </g>
    <g id="line2d_33"/>
    <g id="text_23">
     <!-- Easy -->
     <g transform="translate(30.510193 271.333753)scale(0.08 -0.08)">
      <defs>
       <path d="M 628 4666 
L 3578 4666 
L 3578 4134 
L 1259 4134 
L 1259 2753 
L 3481 2753 
L 3481 2222 
L 1259 2222 
L 1259 531 
L 3634 531 
L 3634 0 
L 628 0 
L 628 4666 
z
" id="DejaVuSans-45" transform="scale(0.015625)"/>
      </defs>
      <use xlink:href="#DejaVuSans-45"/>
      <use x="63.183594" xlink:href="#DejaVuSans-61"/>
      <use x="124.462891" xlink:href="#DejaVuSans-73"/>
      <use x="176.5625" xlink:href="#DejaVuSans-79"/>
     </g>
    </g>
    <g id="line2d_34">
     <path d="M 8.110193 280.276253 
L 24.110193 280.276253 
" style="fill:none;stroke:#4169e1;stroke-linecap:square;stroke-width:1.5;"/>
    </g>
    <g id="line2d_35"/>
    <g id="text_24">
     <!-- Intermediate -->
     <g transform="translate(30.510193 283.076253)scale(0.08 -0.08)">
      <defs>
       <path d="M 628 4666 
L 1259 4666 
L 1259 0 
L 628 0 
L 628 4666 
z
" id="DejaVuSans-49" transform="scale(0.015625)"/>
      </defs>
      <use xlink:href="#DejaVuSans-49"/>
      <use x="29.492188" xlink:href="#DejaVuSans-6e"/>
      <use x="92.871094" xlink:href="#DejaVuSans-74"/>
      <use x="132.080078" xlink:href="#DejaVuSans-65"/>
      <use x="193.603516" xlink:href="#DejaVuSans-72"/>
      <use x="232.966797" xlink:href="#DejaVuSans-6d"/>
      <use x="330.378906" xlink:href="#DejaVuSans-65"/>
      <use x="391.902344" xlink:href="#DejaVuSans-64"/>
      <use x="455.378906" xlink:href="#DejaVuSans-69"/>
      <use x="483.162109" xlink:href="#DejaVuSans-61"/>
      <use x="544.441406" xlink:href="#DejaVuSans-74"/>
      <use x="583.650391" xlink:href="#DejaVuSans-65"/>
     </g>
    </g>
    <g id="line2d_36">
     <path d="M 98.125193 268.533753 
L 114.125193 268.533753 
" style="fill:none;stroke:#000000;stroke-linecap:square;stroke-width:1.5;"/>
    </g>
    <g id="line2d_37"/>
    <g id="text_25">
     <!-- Advanced -->
     <g transform="translate(120.525193 271.333753)scale(0.08 -0.08)">
      <defs>
       <path d="M 191 3500 
L 800 3500 
L 1894 563 
L 2988 3500 
L 3597 3500 
L 2284 0 
L 1503 0 
L 191 3500 
z
" id="DejaVuSans-76" transform="scale(0.015625)"/>
      </defs>
      <use xlink:href="#DejaVuSans-41"/>
      <use x="66.658203" xlink:href="#DejaVuSans-64"/>
      <use x="130.134766" xlink:href="#DejaVuSans-76"/>
      <use x="189.314453" xlink:href="#DejaVuSans-61"/>
      <use x="250.59375" xlink:href="#DejaVuSans-6e"/>
      <use x="313.972656" xlink:href="#DejaVuSans-63"/>
      <use x="368.953125" xlink:href="#DejaVuSans-65"/>
      <use x="430.476562" xlink:href="#DejaVuSans-64"/>
     </g>
    </g>
    <g id="line2d_38">
     <path d="M 98.125193 280.276253 
L 114.125193 280.276253 
" style="fill:none;stroke:#ff0000;stroke-linecap:square;stroke-width:1.5;"/>
    </g>
    <g id="line2d_39"/>
    <g id="text_26">
     <!-- Expert -->
     <g transform="translate(120.525193 283.076253)scale(0.08 -0.08)">
      <defs>
       <path d="M 3513 3500 
L 2247 1797 
L 3578 0 
L 2900 0 
L 1881 1375 
L 863 0 
L 184 0 
L 1544 1831 
L 300 3500 
L 978 3500 
L 1906 2253 
L 2834 3500 
L 3513 3500 
z
" id="DejaVuSans-78" transform="scale(0.015625)"/>
      </defs>
      <use xlink:href="#DejaVuSans-45"/>
      <use x="63.183594" xlink:href="#DejaVuSans-78"/>
      <use x="122.363281" xlink:href="#DejaVuSans-70"/>
      <use x="185.839844" xlink:href="#DejaVuSans-65"/>
      <use x="247.363281" xlink:href="#DejaVuSans-72"/>
      <use x="288.476562" xlink:href="#DejaVuSans-74"/>
     </g>
    </g>
    <g id="line2d_40">
     <path d="M 176.043943 268.533753 
L 192.043943 268.533753 
" style="fill:none;stroke:#ffd700;stroke-linecap:square;stroke-width:1.5;"/>
    </g>
    <g id="line2d_41"/>
    <g id="text_27">
     <!-- Extreme -->
     <g transform="translate(198.443943 271.333753)scale(0.08 -0.08)">
      <use xlink:href="#DejaVuSans-45"/>
      <use x="63.183594" xlink:href="#DejaVuSans-78"/>
      <use x="122.363281" xlink:href="#DejaVuSans-74"/>
      <use x="161.572266" xlink:href="#DejaVuSans-72"/>
      <use x="200.435547" xlink:href="#DejaVuSans-65"/>
      <use x="261.958984" xlink:href="#DejaVuSans-6d"/>
      <use x="359.371094" xlink:href="#DejaVuSans-65"/>
     </g>
    </g>
    <g id="line2d_42">
     <path d="M 176.043943 280.276253 
L 192.043943 280.276253 
" style="fill:none;stroke:#000000;stroke-dasharray:1.5,2.475;stroke-dashoffset:0;stroke-width:1.5;"/>
    </g>
    <g id="line2d_43"/>
    <g id="text_28">
     <!-- Gladed -->
     <g transform="translate(198.443943 283.076253)scale(0.08 -0.08)">
      <use xlink:href="#DejaVuSans-47"/>
      <use x="77.490234" xlink:href="#DejaVuSans-6c"/>
      <use x="105.273438" xlink:href="#DejaVuSans-61"/>
      <use x="166.552734" xlink:href="#DejaVuSans-64"/>
      <use x="230.029297" xlink:href="#DejaVuSans-65"/>
      <use x="291.552734" xlink:href="#DejaVuSans-64"/>
     </g>
    </g>
   </g>
  </g>
  <g id="text_29">
   <!-- Sources: USGS and OpenStreetMaps -->
   <g transform="translate(56.656253 294.708506)scale(0.069565 -0.069565)">
    <defs>
     <path d="M 750 794 
L 1409 794 
L 1409 0 
L 750 0 
L 750 794 
z
M 750 3309 
L 1409 3309 
L 1409 2516 
L 750 2516 
L 750 3309 
z
" id="DejaVuSans-3a" transform="scale(0.015625)"/>
     <path d="M 2522 4238 
Q 1834 4238 1429 3725 
Q 1025 3213 1025 2328 
Q 1025 1447 1429 934 
Q 1834 422 2522 422 
Q 3209 422 3611 934 
Q 4013 1447 4013 2328 
Q 4013 3213 3611 3725 
Q 3209 4238 2522 4238 
z
M 2522 4750 
Q 3503 4750 4090 4092 
Q 4678 3434 4678 2328 
Q 4678 1225 4090 567 
Q 3503 -91 2522 -91 
Q 1538 -91 948 565 
Q 359 1222 359 2328 
Q 359 3434 948 4092 
Q 1538 4750 2522 4750 
z
" id="DejaVuSans-4f" transform="scale(0.015625)"/>
    </defs>
    <use xlink:href="#DejaVuSans-53"/>
    <use x="63.476562" xlink:href="#DejaVuSans-6f"/>
    <use x="124.658203" xlink:href="#DejaVuSans-75"/>
    <use x="188.037109" xlink:href="#DejaVuSans-72"/>
    <use x="226.900391" xlink:href="#DejaVuSans-63"/>
    <use x="281.880859" xlink:href="#DejaVuSans-65"/>
    <use x="343.404297" xlink:href="#DejaVuSans-73"/>
    <use x="395.503906" xlink:href="#DejaVuSans-3a"/>
    <use x="429.195312" xlink:href="#DejaVuSans-20"/>
    <use x="460.982422" xlink:href="#DejaVuSans-55"/>
    <use x="534.175781" xlink:href="#DejaVuSans-53"/>
    <use x="597.652344" xlink:href="#DejaVuSans-47"/>
    <use x="675.142578" xlink:href="#DejaVuSans-53"/>
    <use x="738.619141" xlink:href="#DejaVuSans-20"/>
    <use x="770.40625" xlink:href="#DejaVuSans-61"/>
    <use x="831.685547" xlink:href="#DejaVuSans-6e"/>
    <use x="895.064453" xlink:href="#DejaVuSans-64"/>
    <use x="958.541016" xlink:href="#DejaVuSans-20"/>
    <use x="990.328125" xlink:href="#DejaVuSans-4f"/>
    <use x="1069.039062" xlink:href="#DejaVuSans-70"/>
    <use x="1132.515625" xlink:href="#DejaVuSans-65"/>
    <use x="1194.039062" xlink:href="#DejaVuSans-6e"/>
    <use x="1257.417969" xlink:href="#DejaVuSans-53"/>
    <use x="1320.894531" xlink:href="#DejaVuSans-74"/>
    <use x="1360.103516" xlink:href="#DejaVuSans-72"/>
    <use x="1398.966797" xlink:href="#DejaVuSans-65"/>
    <use x="1460.490234" xlink:href="#DejaVuSans-65"/>
    <use x="1522.013672" xlink:href="#DejaVuSans-74"/>
    <use x="1561.222656" xlink:href="#DejaVuSans-4d"/>
    <use x="1647.501953" xlink:href="#DejaVuSans-61"/>
    <use x="1708.78125" xlink:href="#DejaVuSans-70"/>
    <use x="1772.257812" xlink:href="#DejaVuSans-73"/>
   </g>
  </g>
 </g>
 <defs>
  <clipPath id="pbf861574d0">
   <rect height="246.187936" width="240.226637" x="0" y="24.983654"/>
  </clipPath>
 </defs>
</svg>
