<?xml version="1.0" encoding="utf-8" standalone="no"?>
<!DOCTYPE svg PUBLIC "-//W3C//DTD SVG 1.1//EN"
  "http://www.w3.org/Graphics/SVG/1.1/DTD/svg11.dtd">
<svg height="224.888634pt" version="1.1" viewBox="0 0 168.234242 224.888634" width="168.234242pt" xmlns="http://www.w3.org/2000/svg" xmlns:xlink="http://www.w3.org/1999/xlink">
 <metadata>
  <rdf:RDF xmlns:cc="http://creativecommons.org/ns#" xmlns:dc="http://purl.org/dc/elements/1.1/" xmlns:rdf="http://www.w3.org/1999/02/22-rdf-syntax-ns#">
   <cc:Work>
    <dc:type rdf:resource="http://purl.org/dc/dcmitype/StillImage"/>
    <dc:date>2022-04-14T21:30:34.938089</dc:date>
    <dc:format>image/svg+xml</dc:format>
    <dc:creator>
     <cc:Agent>
      <dc:title>Matplotlib v3.4.3, https://matplotlib.org/</dc:title>
     </cc:Agent>
    </dc:creator>
   </cc:Work>
  </rdf:RDF>
 </metadata>
 <defs>
  <style type="text/css">*{stroke-linecap:butt;stroke-linejoin:round;}</style>
 </defs>
 <g id="figure_1">
  <g id="patch_1">
   <path d="M 0 224.888634 
L 168.234242 224.888634 
L 168.234242 0 
L 0 0 
z
" style="fill:#ffffff;"/>
  </g>
  <g id="axes_1">
   <g id="line2d_1">
    <path clip-path="url(#pdd548713fb)" d="M 95.16037 152.213131 
" style="fill:none;stroke:#008000;stroke-linecap:square;stroke-width:1.5;"/>
   </g>
   <g id="line2d_2">
    <path clip-path="url(#pdd548713fb)" d="M 95.16037 152.213131 
" style="fill:none;stroke:#4169e1;stroke-linecap:square;stroke-width:1.5;"/>
   </g>
   <g id="line2d_3">
    <path clip-path="url(#pdd548713fb)" d="M 95.16037 152.213131 
" style="fill:none;stroke:#000000;stroke-linecap:square;stroke-width:1.5;"/>
   </g>
   <g id="line2d_4">
    <path clip-path="url(#pdd548713fb)" d="M 95.16037 152.213131 
" style="fill:none;stroke:#ff0000;stroke-linecap:square;stroke-width:1.5;"/>
   </g>
   <g id="line2d_5">
    <path clip-path="url(#pdd548713fb)" d="M 95.16037 152.213131 
" style="fill:none;stroke:#ffd700;stroke-linecap:square;stroke-width:1.5;"/>
   </g>
   <g id="line2d_6">
    <path clip-path="url(#pdd548713fb)" d="M 95.16037 152.213131 
" style="fill:none;stroke:#000000;stroke-dasharray:1.5,2.475;stroke-dashoffset:0;stroke-width:1.5;"/>
   </g>
   <g id="line2d_7">
    <path clip-path="url(#pdd548713fb)" d="M 12.738856 180.448066 
L 17.484258 178.776396 
L 22.261684 177.092854 
L 25.594746 175.918962 
L 28.927809 174.745069 
L 32.260871 173.571177 
L 35.593933 172.397284 
L 39.141339 171.147578 
L 42.688746 169.897872 
L 46.236152 168.648166 
L 49.783558 167.398461 
L 54.774963 165.640455 
L 59.766369 163.882449 
L 63.446239 162.586337 
L 67.126109 161.290226 
L 72.316938 159.460994 
L 77.554347 157.616652 
L 82.690589 155.806845 
L 87.826832 153.997038 
L 91.05254 152.861187 
L 94.278249 151.725336 
" style="fill:none;stroke:#808080;stroke-linecap:square;stroke-width:1.5;"/>
   </g>
   <g id="line2d_8">
    <path clip-path="url(#pdd548713fb)" d="M 12.408425 157.107273 
L 14.975454 154.216114 
L 17.542484 151.324955 
L 20.109513 148.433796 
L 22.676542 145.542637 
L 25.853487 141.964032 
L 29.030431 138.385427 
L 32.452652 134.531627 
L 35.874873 130.677828 
L 38.646056 127.556801 
L 41.41724 124.435774 
L 44.188423 121.314747 
L 46.959607 118.193719 
L 50.378189 114.343158 
L 53.79677 110.492596 
L 57.188422 106.672791 
L 60.580074 102.852986 
L 64.705371 98.207059 
L 68.830668 93.561131 
L 71.094196 91.011807 
L 73.357723 88.462482 
L 75.621251 85.913158 
L 77.884778 83.363833 
L 81.709485 79.056233 
L 85.534191 74.748633 
L 87.692185 72.318559 
L 89.850178 69.888486 
L 92.008171 67.458412 
L 94.166164 65.028339 
L 96.75794 62.109121 
L 99.349715 59.189903 
L 102.543399 55.593491 
L 105.737084 51.997079 
L 109.12073 48.186447 
L 112.504376 44.375816 
L 115.88875 40.564644 
L 119.273124 36.753473 
L 122.263746 33.385311 
L 125.254368 30.017148 
" style="fill:none;stroke:#808080;stroke-linecap:square;stroke-width:1.5;"/>
   </g>
   <g id="line2d_9">
    <path clip-path="url(#pdd548713fb)" d="M 81.098842 118.204511 
L 84.125127 114.262218 
L 86.453431 111.230764 
L 88.781735 108.19931 
L 91.43683 104.740495 
L 94.091926 101.281681 
L 96.901321 97.623755 
L 99.710715 93.965829 
L 102.397835 90.466544 
L 105.084955 86.96726 
L 108.164371 82.955898 
L 111.243788 78.944537 
L 113.730029 75.706417 
L 116.21627 72.468297 
L 118.974717 68.876202 
L 121.733163 65.284107 
L 124.899918 61.16051 
L 128.066673 57.036912 
L 130.07146 54.425804 
L 132.076247 51.814695 
L 134.081033 49.203587 
L 136.08582 46.592479 
L 139.10701 42.658279 
L 142.128201 38.72408 
" style="fill:none;stroke:#808080;stroke-linecap:square;stroke-width:1.5;"/>
   </g>
   <g id="line2d_10">
    <path clip-path="url(#pdd548713fb)" d="M 129.666427 139.11712 
L 130.880435 134.221899 
L 131.765467 130.656784 
L 132.650498 127.091668 
L 133.607585 123.234092 
L 134.564671 119.376515 
L 135.409673 115.969502 
L 136.254675 112.562489 
L 137.478872 107.628417 
L 138.703069 102.694345 
L 139.811543 98.225945 
L 140.920016 93.757545 
L 141.842167 90.039723 
L 142.764318 86.321902 
L 143.810926 82.104954 
L 144.857535 77.888006 
L 146.11594 72.815798 
L 147.374344 67.743589 
L 148.560695 62.961144 
L 149.747045 58.178698 
L 151.10589 52.701253 
L 152.464734 47.223807 
L 153.840318 41.682149 
" style="fill:none;stroke:#808080;stroke-linecap:square;stroke-width:1.5;"/>
   </g>
   <g id="line2d_11">
    <path clip-path="url(#pdd548713fb)" d="M 108.300474 132.162798 
L 109.865292 129.746484 
L 112.917779 125.031488 
L 113.769331 123.71811 
L 114.74898 122.205081 
" style="fill:none;stroke:#808080;stroke-linecap:square;stroke-width:1.5;"/>
   </g>
   <g id="line2d_12">
    <path clip-path="url(#pdd548713fb)" d="M 112.888666 113.214321 
L 116.840378 109.681312 
L 120.792089 106.148303 
L 124.7438 102.615294 
L 128.695512 99.082284 
" style="fill:none;stroke:#808080;stroke-linecap:square;stroke-width:1.5;"/>
   </g>
   <g id="line2d_13">
    <path clip-path="url(#pdd548713fb)" d="M 95.16037 152.213131 
L 94.483495 153.639285 
L 93.80662 155.065439 
L 93.195249 155.756123 
L 92.10861 156.457059 
L 91.021972 157.157995 
L 90.051057 157.785006 
L 88.52263 158.033221 
L 86.972368 157.790402 
L 85.422107 157.547584 
L 83.984657 157.124 
L 82.547208 156.700417 
L 81.109759 156.276834 
L 79.67231 155.85325 
L 78.544185 155.658995 
L 77.416061 155.464741 
L 76.287936 155.270486 
L 75.159812 155.076231 
L 73.85337 155.007432 
L 72.546929 154.938634 
L 71.240488 154.869835 
L 69.934047 154.801037 
L 68.627606 154.732238 
L 67.321165 154.66344 
L 66.014724 154.594641 
L 64.708283 154.525842 
L 63.380007 154.698513 
L 62.051731 154.871184 
L 60.723455 155.043855 
L 59.39518 155.216526 
L 58.438093 155.588848 
L 57.481007 155.96117 
L 56.52392 156.333491 
L 55.566834 156.705813 
L 54.609748 157.078135 
L 53.652661 157.450456 
L 52.695575 157.822778 
L 51.738489 158.1951 
L 50.577612 158.977515 
L 49.416735 159.75993 
L 48.255859 160.542345 
L 47.094982 161.32476 
L 45.639337 162.528061 
L 44.183693 163.731362 
L 42.728048 164.934662 
L 41.272403 166.137963 
L 39.758533 167.141613 
L 38.652243 167.513934 
L 37.545953 167.886256 
L 36.381437 167.983383 
L 35.158696 167.794525 
L 33.935954 167.605666 
L 32.946116 167.19827 
L 31.956277 166.790875 
L 30.966439 166.383479 
L 29.976601 165.976084 
L 28.601016 165.692796 
L 27.225432 165.409507 
L 25.849848 165.126219 
L 24.474264 164.842931 
" style="fill:none;stroke:#ff0000;stroke-linecap:square;stroke-width:1.5;"/>
   </g>
   <g id="line2d_14">
    <path clip-path="url(#pdd548713fb)" d="M 91.021972 157.157995 
L 90.211542 158.766263 
L 89.401111 160.374531 
L 88.590681 161.982799 
L 87.780251 163.591066 
L 87.074263 164.33571 
L 86.368276 165.080353 
L 85.247429 165.59297 
L 84.126583 166.105587 
L 83.005736 166.618204 
L 81.88489 167.130821 
L 80.967834 167.681209 
L 80.050778 168.231598 
L 79.133722 168.781986 
L 78.216665 169.332375 
L 77.470648 169.985287 
L 76.72463 170.638199 
L 75.978612 171.291111 
L 75.232594 171.944023 
L 74.486576 172.596935 
L 73.740558 173.249847 
L 72.99454 173.902759 
L 72.248522 174.555671 
L 71.24995 175.238261 
L 70.251378 175.92085 
L 69.190213 176.252702 
L 68.129048 176.584554 
L 66.23671 176.719453 
L 64.344372 176.854353 
L 62.452033 176.989252 
L 60.559695 177.124151 
L 58.729222 177.07154 
L 56.898749 177.01893 
L 55.068276 176.966319 
L 53.237803 176.913708 
L 51.407329 176.861098 
L 49.576856 176.808487 
L 47.746383 176.755876 
L 45.91591 176.703266 
L 44.842372 176.765319 
L 43.768834 176.827373 
L 42.695296 176.889426 
L 41.621758 176.95148 
L 40.126083 177.423627 
L 38.630408 177.895774 
L 37.134733 178.367921 
L 35.639058 178.840068 
L 34.15612 179.47949 
L 32.673182 180.118913 
L 31.190244 180.758335 
L 29.707306 181.397757 
L 28.224368 182.037179 
L 26.74143 182.676601 
L 25.258492 183.316023 
L 23.775554 183.955445 
L 21.912329 184.549001 
L 20.820595 184.727068 
L 19.728862 184.905135 
L 18.30233 184.899739 
L 16.875798 184.894343 
L 15.711283 184.748652 
L 14.546767 184.602961 
L 13.644267 184.128116 
L 12.887332 183.14605 
L 12.428804 181.457112 
L 11.970276 179.768175 
" style="fill:none;stroke:#4169e1;stroke-linecap:square;stroke-width:1.5;"/>
   </g>
   <g id="line2d_15">
    <path clip-path="url(#pdd548713fb)" d="M 70.251378 175.92085 
L 69.874366 177.623278 
L 69.497354 179.325705 
L 69.115247 180.321261 
L 68.73314 181.316817 
L 68.351034 182.312373 
L 67.968927 183.307929 
L 67.117375 184.678504 
L 66.265823 186.04908 
L 65.312375 187.023052 
L 64.358928 187.997024 
L 63.405481 188.970996 
L 62.452033 189.944968 
L 61.345744 190.743571 
L 60.239454 191.542174 
L 59.133164 192.340777 
L 58.026874 193.13938 
L 56.942418 193.727541 
L 55.857963 194.315701 
L 54.378664 194.987769 
L 52.899365 195.659836 
L 51.420066 196.331904 
L 49.940767 197.003972 
L 48.816282 197.306685 
L 47.691796 197.609399 
L 46.208858 198.000876 
L 44.72592 198.392354 
L 43.242982 198.783831 
L 41.760044 199.175309 
L 40.522382 199.140505 
L 39.28472 199.105701 
L 38.047059 199.070897 
L 36.809397 199.036093 
L 35.60667 198.406653 
L 34.403944 197.777214 
L 33.201217 197.147774 
L 31.998491 196.518335 
L 30.848896 195.940696 
L 29.6993 195.363058 
L 28.549705 194.78542 
L 27.400109 194.207782 
L 26.402993 193.727541 
L 25.405876 193.2473 
L 24.394203 192.540428 
L 23.38253 191.833556 
L 22.370857 191.126685 
L 21.359184 190.419813 
L 20.624083 189.685961 
L 19.888983 188.95211 
L 19.135687 187.937668 
L 18.382391 186.923227 
L 17.629094 185.908785 
L 16.875798 184.894343 
" style="fill:none;stroke:#ff0000;stroke-linecap:square;stroke-width:1.5;"/>
   </g>
   <g id="line2d_16">
    <path clip-path="url(#pdd548713fb)" d="M 95.16037 152.213131 
L 95.233152 150.797499 
L 95.305934 149.381867 
L 95.378716 147.966235 
L 95.451499 146.550604 
L 95.533015 145.532115 
L 95.614531 144.513626 
L 95.696047 143.495137 
L 95.777563 142.476649 
L 95.533015 140.90966 
L 95.048285 139.963747 
L 94.563555 139.017834 
L 94.301539 138.057352 
L 94.039523 137.09687 
L 93.238919 135.952925 
L 92.314584 135.359369 
L 91.39025 134.765812 
L 90.393133 134.469034 
L 89.396017 134.172256 
L 87.591017 133.875478 
L 85.786018 133.5787 
L 84.394421 133.420058 
L 82.681128 133.531755 
L 80.967834 133.643451 
L 79.432129 133.972605 
L 77.896424 134.301759 
L 76.331606 134.951973 
L 74.766788 135.602187 
L 73.201969 136.252401 
L 71.637151 136.902615 
L 70.425327 137.53799 
L 69.213503 138.173365 
L 68.001679 138.80874 
L 66.789855 139.444115 
L 65.57803 140.079491 
L 64.366206 140.714866 
L 63.154382 141.350241 
L 61.942558 141.985616 
L 60.359544 142.500931 
L 58.776531 143.016245 
L 57.193517 143.53156 
L 55.610503 144.046875 
L 54.547883 144.462364 
L 53.485262 144.877854 
L 52.422642 145.293343 
L 51.360021 145.708833 
L 50.479356 146.264617 
L 49.598691 146.820402 
L 48.776252 147.548857 
L 47.953812 148.277313 
L 47.14229 149.164949 
L 46.330769 150.052586 
L 45.519247 150.940223 
L 44.707725 151.827859 
L 43.790669 152.648046 
L 42.873612 153.468233 
L 41.934722 153.988944 
L 40.995831 154.509655 
L 40.05694 155.030365 
L 39.118049 155.551076 
L 38.179158 156.071787 
L 37.240267 156.592498 
L 36.301377 157.113208 
L 35.362486 157.633919 
L 34.478182 158.292227 
L 33.593878 158.950535 
L 32.709573 159.608843 
L 31.825269 160.267151 
L 30.34779 161.211445 
L 28.870311 162.155739 
L 27.392831 163.100034 
L 25.915352 164.044328 
L 24.474264 164.842931 
L 23.277724 165.29889 
L 22.081184 165.754849 
L 21.147388 166.11503 
L 20.213592 166.475211 
L 19.279796 166.835391 
L 18.345999 167.195572 
L 17.290657 167.692001 
L 16.235315 168.18843 
L 15.092634 168.933074 
L 13.949953 169.677717 
L 13.105679 170.767702 
L 12.81455 171.922439 
L 12.523421 172.99084 
L 12.385134 174.685174 
L 12.246848 176.379508 
L 12.108562 178.073841 
L 11.970276 179.768175 
" style="fill:none;stroke:#4169e1;stroke-linecap:square;stroke-width:1.5;"/>
   </g>
   <g id="line2d_17">
    <path clip-path="url(#pdd548713fb)" d="M 58.623688 99.843116 
L 58.24522 101.197503 
L 57.866753 102.551891 
L 57.226269 103.674252 
L 56.585785 104.796613 
L 55.650534 106.115927 
L 54.715282 107.435241 
L 53.78003 108.754555 
L 52.844779 110.073869 
L 52.269799 111.045143 
L 51.694819 112.016417 
L 51.11984 112.987691 
L 50.54486 113.958965 
L 49.886181 115.321446 
L 49.227501 116.683928 
L 48.568822 118.046409 
L 47.910143 119.408891 
L 47.47345 120.612192 
L 47.036756 121.815492 
L 46.600063 123.018793 
L 46.163369 124.222093 
L 45.635698 125.18932 
L 45.108027 126.156547 
L 44.580356 127.123774 
L 44.052685 128.091002 
L 43.525013 129.058229 
L 42.997342 130.025456 
L 42.469671 130.992683 
L 41.942 131.95991 
L 41.629036 132.906902 
L 41.316073 133.853894 
L 41.003109 134.800886 
L 40.690145 135.747878 
L 39.93321 137.517755 
L 39.292727 138.294775 
L 38.433896 138.845163 
L 36.949139 139.298424 
L 35.195087 139.341592 
L 33.441035 139.38476 
L 32.269241 139.298424 
L 31.097447 139.212089 
L 29.809201 139.341592 
L 28.520956 139.471095 
L 26.672287 139.944591 
L 24.823618 140.418087 
L 22.97495 140.891584 
L 21.126281 141.36508 
L 19.277612 141.838576 
L 17.428943 142.312072 
L 15.580275 142.785568 
L 13.731606 143.259064 
L 12.741767 143.582822 
L 11.773764 144.111627 
L 10.80576 144.640431 
L 9.743139 145.595518 
L 8.680519 146.550604 
L 8.069148 147.349207 
L 7.647011 148.784534 
L 7.785297 150.263029 
L 7.923584 151.741524 
L 8.374833 153.068931 
L 9.022595 154.107655 
L 9.670357 155.146379 
L 10.318119 156.185102 
L 10.965881 157.223826 
L 11.446244 158.831824 
L 11.345804 159.943393 
L 11.354538 161.147233 
L 11.363272 162.351073 
L 11.490641 163.821474 
L 11.61801 165.291875 
L 11.965909 167.19881 
L 12.313808 169.105744 
L 12.564179 170.514092 
L 12.81455 171.922439 
" style="fill:none;stroke:#4169e1;stroke-linecap:square;stroke-width:1.5;"/>
   </g>
   <g id="line2d_18">
    <path clip-path="url(#pdd548713fb)" d="M 120.823385 28.137193 
L 120.181082 28.951175 
L 119.538779 29.765157 
L 118.896476 30.579138 
L 118.254173 31.39312 
L 117.611869 32.207101 
L 116.969566 33.021083 
L 116.327263 33.835064 
L 115.68496 34.649046 
L 114.804295 35.598736 
L 113.92363 36.548426 
L 112.81734 37.738237 
L 111.71105 38.928048 
L 110.60476 40.117858 
L 109.49847 41.307669 
L 108.646918 42.452963 
L 107.795365 43.598257 
L 106.943813 44.743551 
L 106.092261 45.888845 
L 105.240709 47.034139 
L 104.389157 48.179433 
L 103.537605 49.324726 
L 102.686053 50.47002 
L 101.616154 51.773146 
L 100.546255 53.076272 
L 99.476356 54.379398 
L 98.406457 55.682524 
L 97.336558 56.818375 
L 96.26666 57.954226 
L 95.196761 59.090077 
L 94.126862 60.225928 
L 93.266212 61.042068 
L 92.405562 61.858208 
L 91.544912 62.674348 
L 90.684262 63.490488 
L 89.823612 64.306628 
L 88.962962 65.122768 
L 88.102312 65.938908 
L 87.241662 66.755048 
L 86.011643 68.082456 
L 84.781623 69.409864 
L 83.988297 70.963902 
L 83.19497 72.51794 
L 82.74736 73.726637 
L 82.299749 74.935333 
L 81.852138 76.14403 
L 81.404527 77.352727 
L 81.218933 78.726 
L 81.033338 80.099274 
L 80.847743 81.472547 
L 80.662148 82.845821 
L 80.407411 84.108477 
L 80.152673 85.371133 
L 79.825153 86.353199 
L 79.497633 87.335265 
L 78.909916 88.479884 
L 78.3222 89.624504 
L 77.734483 90.769123 
L 77.146767 91.913743 
L 76.55905 93.058362 
L 75.971333 94.202982 
L 75.383617 95.347601 
L 74.7959 96.49222 
L 74.208184 97.63684 
L 73.620467 98.781459 
L 73.032751 99.926079 
L 72.445034 101.070698 
L 71.857318 102.215318 
L 71.269601 103.359937 
L 70.681885 104.504557 
L 70.094168 105.649176 
" style="fill:none;stroke:#4169e1;stroke-linecap:square;stroke-width:1.5;"/>
   </g>
   <g id="line2d_19">
    <path clip-path="url(#pdd548713fb)" d="M 70.094168 105.649176 
L 69.147999 107.176235 
L 68.20183 108.703293 
L 67.488564 110.465076 
L 66.775298 112.226859 
L 66.062032 113.988643 
L 65.348766 115.750426 
L 64.788343 116.602988 
L 64.22792 117.455551 
L 63.281751 118.523953 
L 62.38289 119.534347 
L 61.48403 120.544742 
L 60.585169 121.555137 
L 59.686309 122.565532 
L 58.787448 123.575926 
L 57.888587 124.586321 
L 56.989727 125.596716 
L 56.090866 126.607111 
L 54.868125 127.740264 
L 53.921956 128.3608 
L 52.975787 128.981336 
L 52.029618 129.601872 
L 51.083448 130.222408 
L 50.035384 131.312394 
L 49.016433 132.958163 
L 47.997482 134.603933 
L 46.927583 135.982603 
L 45.857684 137.361272 
L 44.787785 138.739942 
L 43.717886 140.118611 
L 43.441314 140.400281 
L 42.356859 141.505914 
L 41.272403 142.611548 
L 40.362625 143.242876 
L 39.452847 143.874204 
L 37.775217 144.670109 
L 36.097586 145.466014 
L 34.419956 146.261919 
L 32.742325 147.057824 
L 31.796156 147.573139 
L 30.849987 148.088454 
L 29.903818 148.603769 
L 28.957649 149.119084 
L 27.654847 150.273821 
L 26.352045 151.428558 
L 25.660614 152.182644 
L 24.969183 152.93673 
L 24.277752 153.690817 
L 23.58632 154.444903 
L 22.894889 155.198989 
L 22.203458 155.953076 
L 21.512027 156.707162 
L 20.820595 157.461248 
L 19.976322 158.065597 
L 19.132048 158.669945 
L 17.912217 159.26458 
L 16.692387 159.859216 
L 14.933968 159.484736 
L 13.190106 159.15828 
L 11.446244 158.831824 
" style="fill:none;stroke:#4169e1;stroke-linecap:square;stroke-width:1.5;"/>
   </g>
   <g id="line2d_20">
    <path clip-path="url(#pdd548713fb)" d="M 78.037621 118.692307 
L 76.86328 118.485641 
L 75.688938 118.278976 
L 74.514597 118.07231 
L 73.340256 117.865645 
L 71.713573 117.736141 
L 70.08689 117.606638 
L 68.460207 117.477135 
L 66.833524 117.347632 
L 65.814573 117.552679 
L 64.795621 117.757725 
L 63.281751 118.523953 
" style="fill:none;stroke:#008000;stroke-linecap:square;stroke-width:1.5;"/>
   </g>
   <g id="line2d_21">
    <path clip-path="url(#pdd548713fb)" d="M 58.623688 99.843116 
L 60.359544 100.69406 
L 62.095401 101.545004 
L 63.682781 102.362493 
L 65.270162 103.179982 
L 66.857542 103.997471 
L 68.444923 104.81496 
L 70.094168 105.649176 
L 70.8955 106.329068 
L 71.696833 107.00896 
L 72.47724 107.671314 
L 73.257648 108.333669 
L 74.038055 108.996024 
L 74.818463 109.658379 
L 75.59887 110.320734 
L 76.379278 110.983089 
L 77.159685 111.645444 
L 77.940093 112.307799 
" style="fill:none;stroke:#008000;stroke-linecap:square;stroke-width:1.5;"/>
   </g>
   <g id="line2d_22">
    <path clip-path="url(#pdd548713fb)" d="M 147.682941 39.030571 
L 147.049008 40.519858 
L 146.415075 42.009145 
L 145.781141 43.498431 
L 145.147208 44.987718 
L 144.404829 46.425743 
L 143.662451 47.863768 
L 142.920072 49.301794 
L 142.177693 50.739819 
L 141.580879 51.662529 
L 140.984064 52.585239 
L 140.168903 53.659037 
L 139.353742 54.732834 
L 138.538581 55.806631 
L 137.72342 56.880429 
L 136.908259 57.954226 
L 136.093098 59.028024 
L 135.277937 60.101821 
L 134.462776 61.175618 
L 133.606857 62.53864 
L 132.61993 64.111024 
L 131.633003 65.683409 
L 130.646076 67.255794 
L 129.659149 68.828178 
L 128.672222 70.400563 
L 127.685294 71.972948 
L 126.698367 73.545332 
L 125.71144 75.117717 
L 124.874808 76.450656 
L 124.038177 77.783594 
L 123.201545 79.116533 
L 122.364913 80.449472 
L 121.528281 81.782411 
L 120.69165 83.115349 
L 119.855018 84.448288 
L 119.018386 85.781227 
L 117.904818 87.22195 
L 116.79125 88.662673 
L 115.990645 89.50984 
L 115.19004 90.357006 
L 114.283902 91.201475 
L 113.377763 92.045944 
L 112.471624 92.890413 
L 111.565485 93.734881 
L 110.64479 94.695364 
L 109.724095 95.655846 
L 108.803399 96.616328 
L 107.882704 97.57681 
L 106.892866 98.947385 
L 106.34154 99.918659 
L 105.790215 100.889933 
L 105.238889 101.861207 
L 104.687564 102.832481 
L 104.136239 103.803755 
L 103.584913 104.775029 
L 103.033588 105.746303 
L 102.482262 106.717577 
L 101.819944 107.579583 
L 101.157626 108.441589 
L 100.495307 109.303594 
L 99.832989 110.1656 
L 99.170671 111.027606 
L 98.508352 111.889611 
L 97.846034 112.751617 
L 97.183716 113.613623 
L 95.688769 114.805052 
L 94.871242 115.456076 
L 94.053716 116.107099 
L 93.236189 116.758122 
L 92.418663 117.409146 
L 91.601136 118.060169 
L 90.78361 118.711193 
L 89.966083 119.362216 
L 89.148557 120.013239 
L 88.100493 120.552836 
L 86.615735 120.973721 
L 85.043639 121.049265 
L 83.122188 120.736299 
L 81.535535 120.034823 
L 79.786578 119.363565 
L 78.037621 118.692307 
" style="fill:none;stroke:#4169e1;stroke-linecap:square;stroke-width:1.5;"/>
   </g>
   <g id="line2d_23">
    <path clip-path="url(#pdd548713fb)" d="M 155.313431 40.502591 
L 156.635156 41.077801 
L 157.956881 41.653011 
L 158.568252 42.084688 
L 159.034058 42.948043 
L 159.15051 43.973276 
L 158.975833 44.993114 
L 158.801155 46.012952 
L 158.353545 47.483353 
L 157.905934 48.953754 
L 157.458323 50.424155 
L 157.010712 51.894556 
L 156.44665 52.83885 
L 155.882588 53.783144 
L 155.318525 54.727438 
L 154.754463 55.671732 
L 154.186762 56.831865 
L 153.61906 57.991998 
L 153.387613 58.938451 
L 153.082655 60.186538 
L 152.777698 61.434625 
L 152.585552 62.222436 
L 151.952347 63.846622 
L 151.319142 65.470808 
L 151.053486 66.520998 
L 150.787831 67.571188 
L 150.522176 68.621378 
L 150.256521 69.671568 
L 149.990866 70.721758 
L 149.725211 71.771948 
L 149.459556 72.822138 
L 149.1939 73.872328 
L 148.928245 74.922518 
L 148.66259 75.972708 
L 148.396935 77.022898 
L 148.13128 78.073088 
L 147.865625 79.123278 
L 147.599969 80.173468 
L 147.334314 81.223658 
L 147.068659 82.273848 
L 146.838485 83.274126 
L 146.608311 84.274403 
L 146.378138 85.27468 
L 146.147964 86.274957 
L 145.91779 87.275235 
L 145.687616 88.275512 
L 145.457442 89.275789 
L 145.227269 90.276067 
L 144.997095 91.276344 
L 144.766921 92.276621 
L 144.536747 93.276899 
L 144.306573 94.277176 
L 144.076399 95.277453 
L 143.846226 96.277731 
L 143.616052 97.278008 
L 143.385878 98.278285 
L 142.955462 99.430324 
L 142.525046 100.582363 
L 142.09463 101.734402 
L 141.664214 102.886441 
L 141.233798 104.03848 
L 140.803382 105.190519 
L 140.372966 106.342558 
L 139.942551 107.494597 
L 139.512135 108.646635 
L 139.081719 109.798674 
L 138.651303 110.950713 
L 138.220887 112.102752 
L 137.790471 113.254791 
L 137.360055 114.40683 
L 136.929639 115.558869 
L 136.499223 116.710908 
L 135.593448 117.268041 
L 134.687673 117.825175 
L 133.781898 118.382308 
L 132.876123 118.939442 
L 131.388091 118.820191 
L 129.900058 118.70094 
L 128.412025 118.581689 
L 126.923992 118.462439 
" style="fill:none;stroke:#008000;stroke-linecap:square;stroke-width:1.5;"/>
   </g>
   <g id="line2d_24">
    <path clip-path="url(#pdd548713fb)" d="M 152.777698 61.434625 
L 153.541183 62.581268 
L 154.304669 63.727911 
L 155.068154 64.874554 
L 155.83164 66.021196 
L 156.678825 66.883472 
L 156.967043 67.660491 
L 156.940841 68.334987 
L 156.493958 69.241509 
L 155.969926 69.966727 
L 155.760314 70.640144 
L 155.969926 71.365362 
L 156.415354 72.169361 
L 156.753063 72.466139 
L 157.333865 72.661473 
L 158.987478 72.790976 
L 159.617772 72.975518 
L 160.191296 73.314385 
L 160.482425 73.593896 
L 160.587231 74.034207 
L 160.572675 74.484231 
L 160.24661 75.044332 
L 158.801155 76.154822 
L 158.080611 76.907559 
L 157.360067 77.660297 
L 156.639523 78.413034 
L 155.918979 79.165771 
L 154.644926 79.915811 
L 153.370873 80.66585 
L 152.09682 81.415889 
L 150.822767 82.165929 
L 150.054186 83.032521 
L 149.808182 83.709175 
L 149.725211 84.359929 
L 150.026529 85.605318 
L 150.95523 87.281305 
L 151.071682 88.403666 
L 151.068771 89.423504 
L 150.521448 90.128217 
L 149.451549 90.426075 
L 147.99736 90.669972 
L 147.503897 91.373606 
L 147.28555 92.02436 
L 147.311752 92.565036 
L 148.504653 94.081842 
L 149.697553 95.598648 
L 149.671352 96.384301 
L 149.259404 96.872097 
L 148.156754 97.526627 
L 147.054103 98.181158 
L 146.311724 99.573317 
L 146.413619 100.555383 
L 147.02499 102.141798 
L 147.039546 103.728212 
L 146.500958 104.559191 
L 146.218563 104.825751 
L 145.464539 105.534242 
L 144.710515 106.242732 
L 144.375716 106.922624 
L 144.295656 108.330971 
L 144.215596 109.739319 
L 144.135535 111.147666 
L 144.055475 112.556013 
L 143.778902 113.548871 
L 143.243953 114.64695 
L 142.709003 115.74503 
L 142.174054 116.843109 
L 141.639104 117.941188 
L 141.551766 119.797401 
L 141.464427 121.653613 
L 141.115072 122.570928 
L 140.154347 123.326363 
L 139.149952 123.488242 
L 137.581495 122.351042 
L 136.013038 121.213842 
L 134.444581 120.076642 
L 132.876123 118.939442 
" style="fill:none;stroke:#008000;stroke-linecap:square;stroke-width:1.5;"/>
   </g>
   <g id="line2d_25">
    <path clip-path="url(#pdd548713fb)" d="M 153.387613 58.938451 
L 152.160868 59.009408 
L 150.934124 59.080364 
L 149.707379 59.151321 
L 148.480634 59.222278 
L 146.8212 59.923754 
L 145.991482 60.538894 
L 145.227269 61.418437 
L 144.463055 62.297979 
L 143.677007 63.852018 
L 142.890959 65.406056 
L 142.345092 66.860269 
L 141.799225 68.314482 
L 141.253359 69.768695 
L 140.707492 71.222908 
L 140.238046 72.285914 
L 139.768601 73.348919 
L 139.299156 74.411925 
L 138.82971 75.47493 
L 138.414851 76.697117 
L 137.999993 77.919303 
L 137.585134 79.14149 
L 137.170275 80.363676 
L 136.879146 81.69648 
L 136.588017 83.029284 
L 136.369671 84.027537 
L 136.151324 85.025791 
L 135.932977 86.024045 
L 135.714631 87.022299 
L 135.041395 88.682908 
L 134.368159 90.343516 
L 133.694924 92.004125 
L 133.021688 93.664734 
L 132.348452 95.325343 
L 131.675217 96.985951 
L 131.001981 98.64656 
L 130.328745 100.307169 
L 129.946638 101.604899 
L 129.564532 102.902629 
L 129.182425 104.200359 
L 128.800318 105.498089 
L 128.560137 106.631242 
L 128.319956 107.764395 
L 128.152556 109.402071 
L 127.985157 111.039747 
L 127.817758 112.677423 
L 127.650359 114.315098 
L 127.468767 115.351934 
L 127.287176 116.388769 
L 127.105584 117.425604 
L 126.923992 118.462439 
L 126.547708 119.821952 
L 126.171424 121.181466 
L 125.79514 122.54098 
L 125.418856 123.900494 
L 125.042572 125.260008 
L 124.666287 126.619521 
L 124.290003 127.979035 
L 123.913719 129.338549 
L 123.681544 130.705887 
L 123.449368 132.073225 
L 123.276875 133.088206 
L 123.104381 134.103188 
L 123.265957 135.993934 
L 123.427534 137.884681 
" style="fill:none;stroke:#008000;stroke-linecap:square;stroke-width:1.5;"/>
   </g>
   <g id="line2d_26">
    <path clip-path="url(#pdd548713fb)" d="M 125.71144 75.117717 
L 126.663796 76.034762 
L 127.616151 76.951806 
L 128.568507 77.868851 
L 129.520862 78.785895 
L 130.605318 79.249139 
L 131.689773 79.712383 
L 132.774228 80.175627 
L 133.858684 80.63887 
L 135.22335 81.834077 
L 136.588017 83.029284 
" style="fill:none;stroke:#008000;stroke-linecap:square;stroke-width:1.5;"/>
   </g>
   <g id="line2d_27">
    <path clip-path="url(#pdd548713fb)" d="M 127.156895 53.92236 
L 127.963141 54.999395 
L 128.769386 56.07643 
L 129.575631 57.153465 
L 130.381876 58.2305 
L 131.188121 59.307535 
L 131.994367 60.38457 
L 132.800612 61.461605 
L 133.606857 62.53864 
" style="fill:none;stroke:#008000;stroke-linecap:square;stroke-width:1.5;"/>
   </g>
   <g id="line2d_28">
    <path clip-path="url(#pdd548713fb)" d="M 89.660944 104.490122 
L 90.510677 106.226814 
L 91.360409 107.963506 
L 92.210142 109.700198 
L 93.059874 111.43689 
L 93.717098 112.27893 
L 94.374321 113.120971 
L 95.031545 113.963012 
L 95.688769 114.805052 
L 96.350723 115.960329 
L 97.012677 117.115605 
L 97.674632 118.270882 
L 98.336586 119.426158 
L 98.659012 120.728745 
L 98.981437 122.031331 
L 99.303862 123.333917 
L 99.626287 124.636504 
L 100.212184 126.257452 
L 100.798081 127.8784 
L 101.208573 129.731375 
L 101.619065 131.58435 
L 100.901432 132.490333 
L 100.183799 133.396316 
" style="fill:none;stroke:#008000;stroke-linecap:square;stroke-width:1.5;"/>
   </g>
   <g id="line2d_29">
    <path clip-path="url(#pdd548713fb)" d="M 94.563555 139.017834 
L 95.863446 137.732515 
L 97.163337 136.447196 
L 98.394812 135.289221 
L 99.626287 134.131247 
L 100.183799 133.396316 
" style="fill:none;stroke:#008000;stroke-linecap:square;stroke-width:1.5;"/>
   </g>
   <g id="line2d_30">
    <path clip-path="url(#pdd548713fb)" d="M 100.183799 133.396316 
L 98.595691 132.816789 
L 97.089827 131.835263 
L 95.583962 130.853736 
L 94.892531 129.600793 
L 94.174898 128.897159 
L 93.457265 128.193525 
L 91.848778 127.197969 
L 90.240291 126.202413 
L 88.631803 125.206857 
L 87.023316 124.211301 
L 85.651371 123.167182 
L 84.279426 122.123062 
L 82.90748 121.078943 
L 81.535535 120.034823 
" style="fill:none;stroke:#008000;stroke-linecap:square;stroke-width:1.5;"/>
   </g>
   <g id="line2d_31">
    <path clip-path="url(#pdd548713fb)" d="M 95.583962 130.853736 
L 94.703297 131.004824 
L 93.012566 131.894618 
L 91.321835 132.784413 
L 90.489206 133.358544 
L 89.396017 134.172256 
" style="fill:none;stroke:#008000;stroke-linecap:square;stroke-width:1.5;"/>
   </g>
   <g id="line2d_32">
    <path clip-path="url(#pdd548713fb)" d="M 126.45673 139.301662 
L 128.034649 140.44183 
L 129.612568 141.581997 
" style="fill:none;stroke:#008000;stroke-linecap:square;stroke-width:1.5;"/>
   </g>
   <g id="line2d_33">
    <path clip-path="url(#pdd548713fb)" d="M 115.329782 121.559723 
L 114.422552 121.142076 
L 113.515321 120.724428 
L 112.608091 120.30678 
L 111.70086 119.889132 
L 110.06326 120.01216 
L 108.887099 121.047107 
L 108.539928 122.168658 
L 108.192756 123.29021 
L 107.845585 124.411762 
L 107.498414 125.533313 
L 107.029696 127.287542 
L 106.560979 129.041771 
L 106.190517 130.092366 
L 105.820056 131.14296 
L 105.449594 132.193555 
L 105.079132 133.24415 
" style="fill:none;stroke:#008000;stroke-linecap:square;stroke-width:1.5;"/>
   </g>
   <g id="line2d_34">
    <path clip-path="url(#pdd548713fb)" d="M 16.692387 159.859216 
L 17.365987 160.59617 
L 18.039586 161.333124 
L 18.713186 162.070078 
L 19.386785 162.807033 
L 20.060385 163.543987 
L 20.733985 164.280941 
L 21.407584 165.017895 
L 22.081184 165.754849 
" style="fill:none;stroke:#008000;stroke-linecap:square;stroke-width:1.5;"/>
   </g>
   <g id="line2d_35">
    <path clip-path="url(#pdd548713fb)" d="M 109.265567 28.50304 
L 108.050103 28.018752 
L 106.83464 27.534464 
L 105.619177 27.050176 
L 104.403713 26.565888 
L 102.722444 26.463365 
L 101.041174 26.360841 
L 99.90941 26.198962 
L 98.777647 26.037083 
L 97.645883 25.875204 
L 96.514119 25.713325 
L 95.145813 25.740305 
L 93.777507 25.767285 
L 92.278193 26.166586 
L 91.302911 26.679203 
L 90.327629 27.19182 
L 89.497912 27.828544 
L 88.668194 28.465268 
L 87.862131 29.195073 
L 87.056068 29.924877 
L 86.250005 30.654682 
L 85.443941 31.384486 
L 84.637878 32.114291 
L 83.831815 32.844095 
L 83.025752 33.5739 
L 82.219688 34.303704 
L 81.178902 35.706655 
L 80.138116 37.109607 
L 79.253812 38.836316 
L 78.369508 40.563026 
L 77.485204 42.289735 
L 76.6009 44.016444 
L 75.463677 45.262913 
L 74.326455 46.509381 
L 73.189233 47.755849 
L 72.05201 49.002317 
L 70.914788 50.248786 
L 69.777565 51.495254 
L 68.640343 52.741722 
L 67.503121 53.988191 
L 66.789855 54.932485 
L 66.076589 55.876779 
L 65.363323 56.821073 
L 64.650057 57.765367 
L 63.936791 58.709662 
L 63.223525 59.653956 
L 62.510259 60.59825 
L 61.796993 61.542544 
L 60.78532 63.199106 
L 59.773647 64.855668 
L 59.358789 65.940257 
L 58.94393 67.024846 
L 58.725583 68.546509 
L 58.765613 70.418909 
L 58.805644 72.29131 
L 58.845674 74.16371 
L 58.885704 76.036111 
L 59.031268 77.050552 
L 59.176833 78.064994 
L 59.633178 79.152281 
L 60.089522 80.239569 
L 60.545867 81.326856 
L 61.002211 82.414143 
" style="fill:none;stroke:#4169e1;stroke-dasharray:5.55,2.4;stroke-dashoffset:0;stroke-width:1.5;"/>
   </g>
   <g id="line2d_36">
    <path clip-path="url(#pdd548713fb)" d="M 131.475793 36.661742 
L 129.980118 36.688721 
L 128.484443 36.715701 
L 126.837381 36.783151 
L 125.190319 36.8506 
L 123.912991 36.761567 
L 122.635663 36.672534 
L 121.358335 36.5835 
L 120.081007 36.494467 
L 118.541662 36.507957 
L 117.002318 36.521446 
L 115.462974 36.534936 
L 113.92363 36.548426 
" style="fill:none;stroke:#008000;stroke-linecap:square;stroke-width:1.5;"/>
   </g>
   <g id="line2d_37">
    <path clip-path="url(#pdd548713fb)" d="M 131.475793 36.661742 
L 131.963434 37.866661 
L 132.451075 39.07158 
L 132.451075 40.14268 
L 132.451075 41.213779 
L 132.451075 42.284879 
L 132.451075 43.355978 
L 131.777112 44.861183 
L 131.103148 46.366388 
L 130.429185 47.871593 
L 129.755221 49.376798 
L 129.10564 50.513188 
L 128.456058 51.649579 
L 127.806477 52.785969 
L 127.156895 53.92236 
L 126.399596 55.24626 
L 125.642297 56.570161 
L 124.884998 57.894061 
L 124.127699 59.217962 
L 122.999392 60.766604 
L 121.871086 62.315247 
L 120.742779 63.863889 
L 119.614472 65.412531 
L 118.486166 66.961174 
L 117.357859 68.509816 
L 116.229553 70.058459 
L 115.101246 71.607101 
L 113.987496 73.010997 
L 112.873746 74.414892 
L 111.759996 75.818788 
L 110.646246 77.222684 
L 109.532495 78.626579 
L 108.418745 80.030475 
L 107.304995 81.434371 
L 106.191245 82.838266 
L 105.106972 84.111984 
L 104.022698 85.385702 
L 102.938425 86.65942 
L 101.854152 87.933138 
L 100.769878 89.206856 
L 99.685605 90.480574 
L 98.601332 91.754292 
L 97.517058 93.02801 
L 96.535044 94.460774 
L 95.55303 95.893538 
L 94.571015 97.326302 
L 93.589001 98.759066 
L 92.606987 100.19183 
L 91.624973 101.624594 
L 90.642958 103.057358 
L 89.660944 104.490122 
L 88.195838 105.474347 
L 86.730731 106.458571 
L 84.972312 107.037558 
L 83.213894 107.616545 
L 81.992244 108.235733 
L 80.770594 108.85492 
L 79.548944 109.474107 
L 78.327294 110.093294 
" style="fill:none;stroke:#4169e1;stroke-linecap:square;stroke-width:1.5;"/>
   </g>
   <g id="line2d_38">
    <path clip-path="url(#pdd548713fb)" d="M 128.814875 34.422415 
L 129.004109 35.426065 
L 128.902213 36.28942 
L 128.484443 36.715701 
L 127.4644 38.106512 
L 126.444357 39.497322 
L 125.424314 40.888133 
L 124.404271 42.278943 
L 123.555449 43.21919 
L 122.706626 44.159437 
L 121.857803 45.099685 
L 121.00898 46.039932 
L 120.160157 46.980179 
L 119.311334 47.920426 
L 118.462512 48.860673 
L 117.613689 49.800921 
L 116.764866 50.741168 
L 115.916043 51.681415 
L 115.06722 52.621662 
L 114.218398 53.561909 
L 113.369575 54.502157 
L 112.520752 55.442404 
L 111.671929 56.382651 
L 110.823106 57.322898 
L 109.94972 58.432444 
L 109.076333 59.541989 
L 108.202946 60.651535 
L 107.329559 61.761081 
L 106.456172 62.870626 
L 105.582786 63.980172 
L 104.709399 65.089718 
L 103.836012 66.199263 
L 102.962625 67.308809 
L 102.089238 68.418355 
L 101.215851 69.5279 
L 100.342465 70.637446 
L 99.469078 71.746992 
L 98.595691 72.856537 
L 97.722304 73.966083 
L 96.848917 75.075629 
L 95.717154 76.618875 
L 94.58539 78.162122 
L 93.453626 79.705368 
L 92.321862 81.248615 
L 91.735965 82.32511 
L 91.150068 83.401605 
L 90.564171 84.478101 
L 89.978274 85.554596 
L 89.603446 86.467863 
L 89.228617 87.381131 
L 88.853789 88.294398 
L 88.47896 89.207665 
L 88.104132 90.120933 
L 87.729303 91.0342 
L 87.354475 91.947467 
L 86.979646 92.860735 
L 86.497464 93.732183 
L 86.015282 94.603632 
L 85.5331 95.475081 
L 85.050917 96.346529 
L 84.568735 97.217978 
L 84.086553 98.089427 
L 83.60437 98.960875 
L 83.122188 99.832324 
L 82.640006 100.703772 
L 82.157823 101.575221 
L 81.675641 102.44667 
L 81.193459 103.318118 
L 80.711277 104.189567 
L 80.229094 105.061016 
L 79.746912 105.932464 
L 79.26473 106.803913 
L 78.653359 108.228448 
L 78.327294 110.093294 
L 78.133694 111.200547 
L 77.940093 112.307799 
L 77.765416 113.311449 
L 77.750859 115.113702 
L 77.89424 116.903004 
L 78.037621 118.692307 
" style="fill:none;stroke:#4169e1;stroke-linecap:square;stroke-width:1.5;"/>
   </g>
   <g id="line2d_39">
    <path clip-path="url(#pdd548713fb)" d="M 120.823385 28.137193 
L 118.887378 27.871712 
L 117.300725 27.922974 
L 115.714073 27.974235 
L 114.12742 28.025497 
L 112.540767 28.076759 
L 110.903167 28.289899 
L 109.265567 28.50304 
L 107.380507 28.748556 
L 105.495447 28.994073 
L 103.675891 29.026449 
L 101.856335 29.058825 
L 100.64815 29.404166 
L 99.701981 30.030099 
L 98.406457 31.260379 
L 97.110933 32.490659 
L 95.81541 33.72094 
L 94.519886 34.95122 
L 93.351731 35.766011 
L 92.183576 36.580802 
L 91.015421 37.395593 
L 89.847266 38.210384 
L 89.09397 38.874088 
L 88.340674 39.537792 
L 87.587378 40.201496 
L 86.834082 40.8652 
L 86.179042 41.723158 
L 85.524002 42.581117 
L 85.036361 43.444472 
L 84.54872 44.307826 
L 84.061079 45.171181 
L 83.573438 46.034536 
L 82.882007 46.908682 
L 82.190575 47.782829 
L 81.499144 48.656976 
L 80.807713 49.531122 
L 80.079891 50.308141 
L 79.352068 51.085161 
L 78.624246 51.86218 
L 77.896424 52.639199 
L 77.110375 53.769654 
L 76.324327 54.900109 
L 75.538279 56.030564 
L 74.752231 57.161019 
L 74.286425 58.485729 
L 73.820618 59.810439 
L 73.354812 61.135149 
L 72.889006 62.459858 
L 71.986506 64.132608 
L 70.807434 65.621895 
L 69.628362 67.111182 
L 68.44929 68.600469 
L 67.270217 70.089755 
L 66.331327 71.740921 
L 65.392436 73.392087 
L 64.300702 74.816622 
L 63.208969 76.241157 
L 62.597598 77.37431 
L 62.259161 78.361772 
L 61.920723 79.349234 
L 61.582286 80.336696 
L 61.243848 81.324158 
L 61.002211 82.414143 
L 60.786048 83.390813 
L 60.569885 84.367483 
L 60.353722 85.344153 
L 60.137558 86.320823 
L 60.052039 87.572687 
L 59.96652 88.824552 
L 59.881001 90.076416 
L 59.795482 91.32828 
L 59.709963 92.580145 
L 59.624444 93.832009 
L 59.538925 95.083873 
L 59.453405 96.335737 
L 59.038547 98.089427 
L 58.623688 99.843116 
" style="fill:none;stroke:#4169e1;stroke-linecap:square;stroke-width:1.5;"/>
   </g>
   <g id="line2d_40">
    <path clip-path="url(#pdd548713fb)" d="M 95.435486 135.978826 
L 95.435486 135.978826 
L 97.051252 135.118709 
L 98.228869 133.622947 
L 99.42832 134.085921 
L 100.627771 134.548894 
L 99.547683 135.408472 
L 98.467594 136.268049 
L 97.466839 137.23123 
L 96.466083 138.19441 
" style="fill:none;stroke:#008000;stroke-linecap:square;stroke-width:1.5;"/>
   </g>
   <g id="line2d_41">
    <path clip-path="url(#pdd548713fb)" d="M 43.441314 140.400281 
L 43.531564 141.974824 
L 44.487922 143.426339 
L 45.479216 144.437543 
L 46.435575 145.248017 
L 47.153208 146.158856 
L 47.699075 147.372949 
L 47.953812 148.277313 
" style="fill:none;stroke:#008000;stroke-linecap:square;stroke-width:1.5;"/>
   </g>
   <g id="line2d_42">
    <path clip-path="url(#pdd548713fb)" d="M 115.329782 121.559723 
L 116.294875 121.785275 
L 117.259967 122.010826 
L 118.862632 122.470563 
L 119.848103 123.843297 
L 119.921614 125.206048 
L 119.995124 126.568799 
L 120.068634 127.931551 
L 120.142144 129.294302 
L 119.897595 130.813806 
L 119.653047 132.333311 
L 119.408499 133.852815 
L 119.16395 135.372319 
L 118.436128 136.943624 
" style="fill:none;stroke:#008000;stroke-linecap:square;stroke-width:1.5;"/>
   </g>
   <g id="text_1">
    <g id="patch_2">
     <path d="M 19.92147 179.707671 
L 32.115753 173.914754 
L 31.268022 172.130252 
L 19.073739 177.923169 
z
" style="fill:#ffffff;"/>
    </g>
    <!-- Phoebe Snow -->
    <g style="fill:#808080;" transform="translate(19.752476 179.305325)rotate(-25.410142)scale(0.02 -0.02)">
     <defs>
      <path d="M 1259 4147 
L 1259 2394 
L 2053 2394 
Q 2494 2394 2734 2622 
Q 2975 2850 2975 3272 
Q 2975 3691 2734 3919 
Q 2494 4147 2053 4147 
L 1259 4147 
z
M 628 4666 
L 2053 4666 
Q 2838 4666 3239 4311 
Q 3641 3956 3641 3272 
Q 3641 2581 3239 2228 
Q 2838 1875 2053 1875 
L 1259 1875 
L 1259 0 
L 628 0 
L 628 4666 
z
" id="DejaVuSans-50" transform="scale(0.015625)"/>
      <path d="M 3513 2113 
L 3513 0 
L 2938 0 
L 2938 2094 
Q 2938 2591 2744 2837 
Q 2550 3084 2163 3084 
Q 1697 3084 1428 2787 
Q 1159 2491 1159 1978 
L 1159 0 
L 581 0 
L 581 4863 
L 1159 4863 
L 1159 2956 
Q 1366 3272 1645 3428 
Q 1925 3584 2291 3584 
Q 2894 3584 3203 3211 
Q 3513 2838 3513 2113 
z
" id="DejaVuSans-68" transform="scale(0.015625)"/>
      <path d="M 1959 3097 
Q 1497 3097 1228 2736 
Q 959 2375 959 1747 
Q 959 1119 1226 758 
Q 1494 397 1959 397 
Q 2419 397 2687 759 
Q 2956 1122 2956 1747 
Q 2956 2369 2687 2733 
Q 2419 3097 1959 3097 
z
M 1959 3584 
Q 2709 3584 3137 3096 
Q 3566 2609 3566 1747 
Q 3566 888 3137 398 
Q 2709 -91 1959 -91 
Q 1206 -91 779 398 
Q 353 888 353 1747 
Q 353 2609 779 3096 
Q 1206 3584 1959 3584 
z
" id="DejaVuSans-6f" transform="scale(0.015625)"/>
      <path d="M 3597 1894 
L 3597 1613 
L 953 1613 
Q 991 1019 1311 708 
Q 1631 397 2203 397 
Q 2534 397 2845 478 
Q 3156 559 3463 722 
L 3463 178 
Q 3153 47 2828 -22 
Q 2503 -91 2169 -91 
Q 1331 -91 842 396 
Q 353 884 353 1716 
Q 353 2575 817 3079 
Q 1281 3584 2069 3584 
Q 2775 3584 3186 3129 
Q 3597 2675 3597 1894 
z
M 3022 2063 
Q 3016 2534 2758 2815 
Q 2500 3097 2075 3097 
Q 1594 3097 1305 2825 
Q 1016 2553 972 2059 
L 3022 2063 
z
" id="DejaVuSans-65" transform="scale(0.015625)"/>
      <path d="M 3116 1747 
Q 3116 2381 2855 2742 
Q 2594 3103 2138 3103 
Q 1681 3103 1420 2742 
Q 1159 2381 1159 1747 
Q 1159 1113 1420 752 
Q 1681 391 2138 391 
Q 2594 391 2855 752 
Q 3116 1113 3116 1747 
z
M 1159 2969 
Q 1341 3281 1617 3432 
Q 1894 3584 2278 3584 
Q 2916 3584 3314 3078 
Q 3713 2572 3713 1747 
Q 3713 922 3314 415 
Q 2916 -91 2278 -91 
Q 1894 -91 1617 61 
Q 1341 213 1159 525 
L 1159 0 
L 581 0 
L 581 4863 
L 1159 4863 
L 1159 2969 
z
" id="DejaVuSans-62" transform="scale(0.015625)"/>
      <path id="DejaVuSans-20" transform="scale(0.015625)"/>
      <path d="M 3425 4513 
L 3425 3897 
Q 3066 4069 2747 4153 
Q 2428 4238 2131 4238 
Q 1616 4238 1336 4038 
Q 1056 3838 1056 3469 
Q 1056 3159 1242 3001 
Q 1428 2844 1947 2747 
L 2328 2669 
Q 3034 2534 3370 2195 
Q 3706 1856 3706 1288 
Q 3706 609 3251 259 
Q 2797 -91 1919 -91 
Q 1588 -91 1214 -16 
Q 841 59 441 206 
L 441 856 
Q 825 641 1194 531 
Q 1563 422 1919 422 
Q 2459 422 2753 634 
Q 3047 847 3047 1241 
Q 3047 1584 2836 1778 
Q 2625 1972 2144 2069 
L 1759 2144 
Q 1053 2284 737 2584 
Q 422 2884 422 3419 
Q 422 4038 858 4394 
Q 1294 4750 2059 4750 
Q 2388 4750 2728 4690 
Q 3069 4631 3425 4513 
z
" id="DejaVuSans-53" transform="scale(0.015625)"/>
      <path d="M 3513 2113 
L 3513 0 
L 2938 0 
L 2938 2094 
Q 2938 2591 2744 2837 
Q 2550 3084 2163 3084 
Q 1697 3084 1428 2787 
Q 1159 2491 1159 1978 
L 1159 0 
L 581 0 
L 581 3500 
L 1159 3500 
L 1159 2956 
Q 1366 3272 1645 3428 
Q 1925 3584 2291 3584 
Q 2894 3584 3203 3211 
Q 3513 2838 3513 2113 
z
" id="DejaVuSans-6e" transform="scale(0.015625)"/>
      <path d="M 269 3500 
L 844 3500 
L 1563 769 
L 2278 3500 
L 2956 3500 
L 3675 769 
L 4391 3500 
L 4966 3500 
L 4050 0 
L 3372 0 
L 2619 2869 
L 1863 0 
L 1184 0 
L 269 3500 
z
" id="DejaVuSans-77" transform="scale(0.015625)"/>
     </defs>
     <use xlink:href="#DejaVuSans-50"/>
     <use x="60.302734" xlink:href="#DejaVuSans-68"/>
     <use x="123.681641" xlink:href="#DejaVuSans-6f"/>
     <use x="184.863281" xlink:href="#DejaVuSans-65"/>
     <use x="246.386719" xlink:href="#DejaVuSans-62"/>
     <use x="309.863281" xlink:href="#DejaVuSans-65"/>
     <use x="371.386719" xlink:href="#DejaVuSans-20"/>
     <use x="403.173828" xlink:href="#DejaVuSans-53"/>
     <use x="466.650391" xlink:href="#DejaVuSans-6e"/>
     <use x="530.029297" xlink:href="#DejaVuSans-6f"/>
     <use x="591.210938" xlink:href="#DejaVuSans-77"/>
    </g>
   </g>
   <g id="text_2">
    <g id="patch_3">
     <path d="M 18.166536 153.182011 
L 23.702678 144.771847 
L 22.05249 143.685581 
L 16.516348 152.095745 
z
" style="fill:#ffffff;"/>
    </g>
    <!-- Long Haul -->
    <g style="fill:#808080;" transform="translate(17.813405 152.925612)rotate(-56.644369)scale(0.02 -0.02)">
     <defs>
      <path d="M 628 4666 
L 1259 4666 
L 1259 531 
L 3531 531 
L 3531 0 
L 628 0 
L 628 4666 
z
" id="DejaVuSans-4c" transform="scale(0.015625)"/>
      <path d="M 2906 1791 
Q 2906 2416 2648 2759 
Q 2391 3103 1925 3103 
Q 1463 3103 1205 2759 
Q 947 2416 947 1791 
Q 947 1169 1205 825 
Q 1463 481 1925 481 
Q 2391 481 2648 825 
Q 2906 1169 2906 1791 
z
M 3481 434 
Q 3481 -459 3084 -895 
Q 2688 -1331 1869 -1331 
Q 1566 -1331 1297 -1286 
Q 1028 -1241 775 -1147 
L 775 -588 
Q 1028 -725 1275 -790 
Q 1522 -856 1778 -856 
Q 2344 -856 2625 -561 
Q 2906 -266 2906 331 
L 2906 616 
Q 2728 306 2450 153 
Q 2172 0 1784 0 
Q 1141 0 747 490 
Q 353 981 353 1791 
Q 353 2603 747 3093 
Q 1141 3584 1784 3584 
Q 2172 3584 2450 3431 
Q 2728 3278 2906 2969 
L 2906 3500 
L 3481 3500 
L 3481 434 
z
" id="DejaVuSans-67" transform="scale(0.015625)"/>
      <path d="M 628 4666 
L 1259 4666 
L 1259 2753 
L 3553 2753 
L 3553 4666 
L 4184 4666 
L 4184 0 
L 3553 0 
L 3553 2222 
L 1259 2222 
L 1259 0 
L 628 0 
L 628 4666 
z
" id="DejaVuSans-48" transform="scale(0.015625)"/>
      <path d="M 2194 1759 
Q 1497 1759 1228 1600 
Q 959 1441 959 1056 
Q 959 750 1161 570 
Q 1363 391 1709 391 
Q 2188 391 2477 730 
Q 2766 1069 2766 1631 
L 2766 1759 
L 2194 1759 
z
M 3341 1997 
L 3341 0 
L 2766 0 
L 2766 531 
Q 2569 213 2275 61 
Q 1981 -91 1556 -91 
Q 1019 -91 701 211 
Q 384 513 384 1019 
Q 384 1609 779 1909 
Q 1175 2209 1959 2209 
L 2766 2209 
L 2766 2266 
Q 2766 2663 2505 2880 
Q 2244 3097 1772 3097 
Q 1472 3097 1187 3025 
Q 903 2953 641 2809 
L 641 3341 
Q 956 3463 1253 3523 
Q 1550 3584 1831 3584 
Q 2591 3584 2966 3190 
Q 3341 2797 3341 1997 
z
" id="DejaVuSans-61" transform="scale(0.015625)"/>
      <path d="M 544 1381 
L 544 3500 
L 1119 3500 
L 1119 1403 
Q 1119 906 1312 657 
Q 1506 409 1894 409 
Q 2359 409 2629 706 
Q 2900 1003 2900 1516 
L 2900 3500 
L 3475 3500 
L 3475 0 
L 2900 0 
L 2900 538 
Q 2691 219 2414 64 
Q 2138 -91 1772 -91 
Q 1169 -91 856 284 
Q 544 659 544 1381 
z
M 1991 3584 
L 1991 3584 
z
" id="DejaVuSans-75" transform="scale(0.015625)"/>
      <path d="M 603 4863 
L 1178 4863 
L 1178 0 
L 603 0 
L 603 4863 
z
" id="DejaVuSans-6c" transform="scale(0.015625)"/>
     </defs>
     <use xlink:href="#DejaVuSans-4c"/>
     <use x="53.962891" xlink:href="#DejaVuSans-6f"/>
     <use x="115.144531" xlink:href="#DejaVuSans-6e"/>
     <use x="178.523438" xlink:href="#DejaVuSans-67"/>
     <use x="242" xlink:href="#DejaVuSans-20"/>
     <use x="273.787109" xlink:href="#DejaVuSans-48"/>
     <use x="348.982422" xlink:href="#DejaVuSans-61"/>
     <use x="410.261719" xlink:href="#DejaVuSans-75"/>
     <use x="473.640625" xlink:href="#DejaVuSans-6c"/>
    </g>
   </g>
   <g id="text_3">
    <g id="patch_4">
     <path d="M 88.804493 111.362963 
L 95.786203 99.09521 
L 94.069168 98.118027 
L 87.087458 110.38578 
z
" style="fill:#ffffff;"/>
    </g>
    <!-- Iron Horse Lift -->
    <g style="fill:#808080;" transform="translate(88.435508 111.129958)rotate(-60.35533)scale(0.02 -0.02)">
     <defs>
      <path d="M 628 4666 
L 1259 4666 
L 1259 0 
L 628 0 
L 628 4666 
z
" id="DejaVuSans-49" transform="scale(0.015625)"/>
      <path d="M 2631 2963 
Q 2534 3019 2420 3045 
Q 2306 3072 2169 3072 
Q 1681 3072 1420 2755 
Q 1159 2438 1159 1844 
L 1159 0 
L 581 0 
L 581 3500 
L 1159 3500 
L 1159 2956 
Q 1341 3275 1631 3429 
Q 1922 3584 2338 3584 
Q 2397 3584 2469 3576 
Q 2541 3569 2628 3553 
L 2631 2963 
z
" id="DejaVuSans-72" transform="scale(0.015625)"/>
      <path d="M 2834 3397 
L 2834 2853 
Q 2591 2978 2328 3040 
Q 2066 3103 1784 3103 
Q 1356 3103 1142 2972 
Q 928 2841 928 2578 
Q 928 2378 1081 2264 
Q 1234 2150 1697 2047 
L 1894 2003 
Q 2506 1872 2764 1633 
Q 3022 1394 3022 966 
Q 3022 478 2636 193 
Q 2250 -91 1575 -91 
Q 1294 -91 989 -36 
Q 684 19 347 128 
L 347 722 
Q 666 556 975 473 
Q 1284 391 1588 391 
Q 1994 391 2212 530 
Q 2431 669 2431 922 
Q 2431 1156 2273 1281 
Q 2116 1406 1581 1522 
L 1381 1569 
Q 847 1681 609 1914 
Q 372 2147 372 2553 
Q 372 3047 722 3315 
Q 1072 3584 1716 3584 
Q 2034 3584 2315 3537 
Q 2597 3491 2834 3397 
z
" id="DejaVuSans-73" transform="scale(0.015625)"/>
      <path d="M 603 3500 
L 1178 3500 
L 1178 0 
L 603 0 
L 603 3500 
z
M 603 4863 
L 1178 4863 
L 1178 4134 
L 603 4134 
L 603 4863 
z
" id="DejaVuSans-69" transform="scale(0.015625)"/>
      <path d="M 2375 4863 
L 2375 4384 
L 1825 4384 
Q 1516 4384 1395 4259 
Q 1275 4134 1275 3809 
L 1275 3500 
L 2222 3500 
L 2222 3053 
L 1275 3053 
L 1275 0 
L 697 0 
L 697 3053 
L 147 3053 
L 147 3500 
L 697 3500 
L 697 3744 
Q 697 4328 969 4595 
Q 1241 4863 1831 4863 
L 2375 4863 
z
" id="DejaVuSans-66" transform="scale(0.015625)"/>
      <path d="M 1172 4494 
L 1172 3500 
L 2356 3500 
L 2356 3053 
L 1172 3053 
L 1172 1153 
Q 1172 725 1289 603 
Q 1406 481 1766 481 
L 2356 481 
L 2356 0 
L 1766 0 
Q 1100 0 847 248 
Q 594 497 594 1153 
L 594 3053 
L 172 3053 
L 172 3500 
L 594 3500 
L 594 4494 
L 1172 4494 
z
" id="DejaVuSans-74" transform="scale(0.015625)"/>
     </defs>
     <use xlink:href="#DejaVuSans-49"/>
     <use x="29.492188" xlink:href="#DejaVuSans-72"/>
     <use x="68.355469" xlink:href="#DejaVuSans-6f"/>
     <use x="129.537109" xlink:href="#DejaVuSans-6e"/>
     <use x="192.916016" xlink:href="#DejaVuSans-20"/>
     <use x="224.703125" xlink:href="#DejaVuSans-48"/>
     <use x="299.898438" xlink:href="#DejaVuSans-6f"/>
     <use x="361.080078" xlink:href="#DejaVuSans-72"/>
     <use x="402.193359" xlink:href="#DejaVuSans-73"/>
     <use x="454.292969" xlink:href="#DejaVuSans-65"/>
     <use x="515.816406" xlink:href="#DejaVuSans-20"/>
     <use x="547.603516" xlink:href="#DejaVuSans-4c"/>
     <use x="603.316406" xlink:href="#DejaVuSans-69"/>
     <use x="631.099609" xlink:href="#DejaVuSans-66"/>
     <use x="664.554688" xlink:href="#DejaVuSans-74"/>
    </g>
   </g>
   <g id="text_4">
    <g id="patch_5">
     <path d="M 132.630273 132.658874 
L 134.613715 121.882065 
L 132.670724 121.524463 
L 130.687282 132.301272 
z
" style="fill:#ffffff;"/>
    </g>
    <!-- Shuttle Lift -->
    <g style="fill:#808080;" transform="translate(132.205157 132.560297)rotate(-79.571574)scale(0.02 -0.02)">
     <use xlink:href="#DejaVuSans-53"/>
     <use x="63.476562" xlink:href="#DejaVuSans-68"/>
     <use x="126.855469" xlink:href="#DejaVuSans-75"/>
     <use x="190.234375" xlink:href="#DejaVuSans-74"/>
     <use x="229.443359" xlink:href="#DejaVuSans-74"/>
     <use x="268.652344" xlink:href="#DejaVuSans-6c"/>
     <use x="296.435547" xlink:href="#DejaVuSans-65"/>
     <use x="357.958984" xlink:href="#DejaVuSans-20"/>
     <use x="389.746094" xlink:href="#DejaVuSans-4c"/>
     <use x="445.458984" xlink:href="#DejaVuSans-69"/>
     <use x="473.242188" xlink:href="#DejaVuSans-66"/>
     <use x="506.697266" xlink:href="#DejaVuSans-74"/>
    </g>
   </g>
   <g id="text_5">
    <g id="patch_6">
     <path d="M 63.43697 155.329846 
L 76.291147 156.242887 
L 76.431124 154.272227 
L 63.576948 153.359187 
z
" style="fill:#ffffff;"/>
    </g>
    <!-- Smoke 30.4 -->
    <g style="fill:#ff0000;" transform="translate(63.487807 154.896422)rotate(-355.937068)scale(0.02 -0.02)">
     <defs>
      <path d="M 3328 2828 
Q 3544 3216 3844 3400 
Q 4144 3584 4550 3584 
Q 5097 3584 5394 3201 
Q 5691 2819 5691 2113 
L 5691 0 
L 5113 0 
L 5113 2094 
Q 5113 2597 4934 2840 
Q 4756 3084 4391 3084 
Q 3944 3084 3684 2787 
Q 3425 2491 3425 1978 
L 3425 0 
L 2847 0 
L 2847 2094 
Q 2847 2600 2669 2842 
Q 2491 3084 2119 3084 
Q 1678 3084 1418 2786 
Q 1159 2488 1159 1978 
L 1159 0 
L 581 0 
L 581 3500 
L 1159 3500 
L 1159 2956 
Q 1356 3278 1631 3431 
Q 1906 3584 2284 3584 
Q 2666 3584 2933 3390 
Q 3200 3197 3328 2828 
z
" id="DejaVuSans-6d" transform="scale(0.015625)"/>
      <path d="M 581 4863 
L 1159 4863 
L 1159 1991 
L 2875 3500 
L 3609 3500 
L 1753 1863 
L 3688 0 
L 2938 0 
L 1159 1709 
L 1159 0 
L 581 0 
L 581 4863 
z
" id="DejaVuSans-6b" transform="scale(0.015625)"/>
      <path d="M 2597 2516 
Q 3050 2419 3304 2112 
Q 3559 1806 3559 1356 
Q 3559 666 3084 287 
Q 2609 -91 1734 -91 
Q 1441 -91 1130 -33 
Q 819 25 488 141 
L 488 750 
Q 750 597 1062 519 
Q 1375 441 1716 441 
Q 2309 441 2620 675 
Q 2931 909 2931 1356 
Q 2931 1769 2642 2001 
Q 2353 2234 1838 2234 
L 1294 2234 
L 1294 2753 
L 1863 2753 
Q 2328 2753 2575 2939 
Q 2822 3125 2822 3475 
Q 2822 3834 2567 4026 
Q 2313 4219 1838 4219 
Q 1578 4219 1281 4162 
Q 984 4106 628 3988 
L 628 4550 
Q 988 4650 1302 4700 
Q 1616 4750 1894 4750 
Q 2613 4750 3031 4423 
Q 3450 4097 3450 3541 
Q 3450 3153 3228 2886 
Q 3006 2619 2597 2516 
z
" id="DejaVuSans-33" transform="scale(0.015625)"/>
      <path d="M 2034 4250 
Q 1547 4250 1301 3770 
Q 1056 3291 1056 2328 
Q 1056 1369 1301 889 
Q 1547 409 2034 409 
Q 2525 409 2770 889 
Q 3016 1369 3016 2328 
Q 3016 3291 2770 3770 
Q 2525 4250 2034 4250 
z
M 2034 4750 
Q 2819 4750 3233 4129 
Q 3647 3509 3647 2328 
Q 3647 1150 3233 529 
Q 2819 -91 2034 -91 
Q 1250 -91 836 529 
Q 422 1150 422 2328 
Q 422 3509 836 4129 
Q 1250 4750 2034 4750 
z
" id="DejaVuSans-30" transform="scale(0.015625)"/>
      <path d="M 684 794 
L 1344 794 
L 1344 0 
L 684 0 
L 684 794 
z
" id="DejaVuSans-2e" transform="scale(0.015625)"/>
      <path d="M 2419 4116 
L 825 1625 
L 2419 1625 
L 2419 4116 
z
M 2253 4666 
L 3047 4666 
L 3047 1625 
L 3713 1625 
L 3713 1100 
L 3047 1100 
L 3047 0 
L 2419 0 
L 2419 1100 
L 313 1100 
L 313 1709 
L 2253 4666 
z
" id="DejaVuSans-34" transform="scale(0.015625)"/>
      <path d="M 1600 4347 
Q 1350 4347 1178 4173 
Q 1006 4000 1006 3750 
Q 1006 3503 1178 3333 
Q 1350 3163 1600 3163 
Q 1850 3163 2022 3333 
Q 2194 3503 2194 3750 
Q 2194 3997 2020 4172 
Q 1847 4347 1600 4347 
z
M 1600 4750 
Q 1800 4750 1984 4673 
Q 2169 4597 2303 4453 
Q 2447 4313 2519 4134 
Q 2591 3956 2591 3750 
Q 2591 3338 2302 3052 
Q 2013 2766 1594 2766 
Q 1172 2766 890 3047 
Q 609 3328 609 3750 
Q 609 4169 896 4459 
Q 1184 4750 1600 4750 
z
" id="DejaVuSans-b0" transform="scale(0.015625)"/>
     </defs>
     <use xlink:href="#DejaVuSans-53"/>
     <use x="63.476562" xlink:href="#DejaVuSans-6d"/>
     <use x="160.888672" xlink:href="#DejaVuSans-6f"/>
     <use x="222.070312" xlink:href="#DejaVuSans-6b"/>
     <use x="276.355469" xlink:href="#DejaVuSans-65"/>
     <use x="337.878906" xlink:href="#DejaVuSans-20"/>
     <use x="369.666016" xlink:href="#DejaVuSans-33"/>
     <use x="433.289062" xlink:href="#DejaVuSans-30"/>
     <use x="496.912109" xlink:href="#DejaVuSans-2e"/>
     <use x="528.699219" xlink:href="#DejaVuSans-34"/>
     <use x="592.322266" xlink:href="#DejaVuSans-b0"/>
    </g>
   </g>
   <g id="text_6">
    <g id="patch_7">
     <path d="M 49.891031 177.735813 
L 63.829935 178.276188 
L 63.906467 176.302046 
L 49.967563 175.761671 
z
" style="fill:#ffffff;"/>
    </g>
    <!-- Boomer 23.9 -->
    <g style="fill:#4169e1;" transform="translate(49.927903 177.300978)rotate(-357.779904)scale(0.02 -0.02)">
     <defs>
      <path d="M 1259 2228 
L 1259 519 
L 2272 519 
Q 2781 519 3026 730 
Q 3272 941 3272 1375 
Q 3272 1813 3026 2020 
Q 2781 2228 2272 2228 
L 1259 2228 
z
M 1259 4147 
L 1259 2741 
L 2194 2741 
Q 2656 2741 2882 2914 
Q 3109 3088 3109 3444 
Q 3109 3797 2882 3972 
Q 2656 4147 2194 4147 
L 1259 4147 
z
M 628 4666 
L 2241 4666 
Q 2963 4666 3353 4366 
Q 3744 4066 3744 3513 
Q 3744 3084 3544 2831 
Q 3344 2578 2956 2516 
Q 3422 2416 3680 2098 
Q 3938 1781 3938 1306 
Q 3938 681 3513 340 
Q 3088 0 2303 0 
L 628 0 
L 628 4666 
z
" id="DejaVuSans-42" transform="scale(0.015625)"/>
      <path d="M 1228 531 
L 3431 531 
L 3431 0 
L 469 0 
L 469 531 
Q 828 903 1448 1529 
Q 2069 2156 2228 2338 
Q 2531 2678 2651 2914 
Q 2772 3150 2772 3378 
Q 2772 3750 2511 3984 
Q 2250 4219 1831 4219 
Q 1534 4219 1204 4116 
Q 875 4013 500 3803 
L 500 4441 
Q 881 4594 1212 4672 
Q 1544 4750 1819 4750 
Q 2544 4750 2975 4387 
Q 3406 4025 3406 3419 
Q 3406 3131 3298 2873 
Q 3191 2616 2906 2266 
Q 2828 2175 2409 1742 
Q 1991 1309 1228 531 
z
" id="DejaVuSans-32" transform="scale(0.015625)"/>
      <path d="M 703 97 
L 703 672 
Q 941 559 1184 500 
Q 1428 441 1663 441 
Q 2288 441 2617 861 
Q 2947 1281 2994 2138 
Q 2813 1869 2534 1725 
Q 2256 1581 1919 1581 
Q 1219 1581 811 2004 
Q 403 2428 403 3163 
Q 403 3881 828 4315 
Q 1253 4750 1959 4750 
Q 2769 4750 3195 4129 
Q 3622 3509 3622 2328 
Q 3622 1225 3098 567 
Q 2575 -91 1691 -91 
Q 1453 -91 1209 -44 
Q 966 3 703 97 
z
M 1959 2075 
Q 2384 2075 2632 2365 
Q 2881 2656 2881 3163 
Q 2881 3666 2632 3958 
Q 2384 4250 1959 4250 
Q 1534 4250 1286 3958 
Q 1038 3666 1038 3163 
Q 1038 2656 1286 2365 
Q 1534 2075 1959 2075 
z
" id="DejaVuSans-39" transform="scale(0.015625)"/>
     </defs>
     <use xlink:href="#DejaVuSans-42"/>
     <use x="68.603516" xlink:href="#DejaVuSans-6f"/>
     <use x="129.785156" xlink:href="#DejaVuSans-6f"/>
     <use x="190.966797" xlink:href="#DejaVuSans-6d"/>
     <use x="288.378906" xlink:href="#DejaVuSans-65"/>
     <use x="349.902344" xlink:href="#DejaVuSans-72"/>
     <use x="391.015625" xlink:href="#DejaVuSans-20"/>
     <use x="422.802734" xlink:href="#DejaVuSans-32"/>
     <use x="486.425781" xlink:href="#DejaVuSans-33"/>
     <use x="550.048828" xlink:href="#DejaVuSans-2e"/>
     <use x="581.835938" xlink:href="#DejaVuSans-39"/>
     <use x="645.458984" xlink:href="#DejaVuSans-b0"/>
    </g>
   </g>
   <g id="text_7">
    <g id="patch_8">
     <path d="M 18.91824 189.451041 
L 37.072777 201.755208 
L 38.181169 200.119799 
L 20.026632 187.815632 
z
" style="fill:#ffffff;"/>
    </g>
    <!-- White Lightning 32.8 -->
    <g style="fill:#ff0000;" transform="translate(19.179372 189.101395)rotate(-325.872696)scale(0.02 -0.02)">
     <defs>
      <path d="M 213 4666 
L 850 4666 
L 1831 722 
L 2809 4666 
L 3519 4666 
L 4500 722 
L 5478 4666 
L 6119 4666 
L 4947 0 
L 4153 0 
L 3169 4050 
L 2175 0 
L 1381 0 
L 213 4666 
z
" id="DejaVuSans-57" transform="scale(0.015625)"/>
      <path d="M 2034 2216 
Q 1584 2216 1326 1975 
Q 1069 1734 1069 1313 
Q 1069 891 1326 650 
Q 1584 409 2034 409 
Q 2484 409 2743 651 
Q 3003 894 3003 1313 
Q 3003 1734 2745 1975 
Q 2488 2216 2034 2216 
z
M 1403 2484 
Q 997 2584 770 2862 
Q 544 3141 544 3541 
Q 544 4100 942 4425 
Q 1341 4750 2034 4750 
Q 2731 4750 3128 4425 
Q 3525 4100 3525 3541 
Q 3525 3141 3298 2862 
Q 3072 2584 2669 2484 
Q 3125 2378 3379 2068 
Q 3634 1759 3634 1313 
Q 3634 634 3220 271 
Q 2806 -91 2034 -91 
Q 1263 -91 848 271 
Q 434 634 434 1313 
Q 434 1759 690 2068 
Q 947 2378 1403 2484 
z
M 1172 3481 
Q 1172 3119 1398 2916 
Q 1625 2713 2034 2713 
Q 2441 2713 2670 2916 
Q 2900 3119 2900 3481 
Q 2900 3844 2670 4047 
Q 2441 4250 2034 4250 
Q 1625 4250 1398 4047 
Q 1172 3844 1172 3481 
z
" id="DejaVuSans-38" transform="scale(0.015625)"/>
     </defs>
     <use xlink:href="#DejaVuSans-57"/>
     <use x="98.876953" xlink:href="#DejaVuSans-68"/>
     <use x="162.255859" xlink:href="#DejaVuSans-69"/>
     <use x="190.039062" xlink:href="#DejaVuSans-74"/>
     <use x="229.248047" xlink:href="#DejaVuSans-65"/>
     <use x="290.771484" xlink:href="#DejaVuSans-20"/>
     <use x="322.558594" xlink:href="#DejaVuSans-4c"/>
     <use x="378.271484" xlink:href="#DejaVuSans-69"/>
     <use x="406.054688" xlink:href="#DejaVuSans-67"/>
     <use x="469.53125" xlink:href="#DejaVuSans-68"/>
     <use x="532.910156" xlink:href="#DejaVuSans-74"/>
     <use x="572.119141" xlink:href="#DejaVuSans-6e"/>
     <use x="635.498047" xlink:href="#DejaVuSans-69"/>
     <use x="663.28125" xlink:href="#DejaVuSans-6e"/>
     <use x="726.660156" xlink:href="#DejaVuSans-67"/>
     <use x="790.136719" xlink:href="#DejaVuSans-20"/>
     <use x="821.923828" xlink:href="#DejaVuSans-33"/>
     <use x="885.546875" xlink:href="#DejaVuSans-32"/>
     <use x="949.169922" xlink:href="#DejaVuSans-2e"/>
     <use x="980.957031" xlink:href="#DejaVuSans-38"/>
     <use x="1044.580078" xlink:href="#DejaVuSans-b0"/>
    </g>
   </g>
   <g id="text_8">
    <g id="patch_9">
     <path d="M 28.994223 163.631393 
L 42.914161 153.218416 
L 41.730749 151.636446 
L 27.810811 162.049423 
z
" style="fill:#ffffff;"/>
    </g>
    <!-- Cannonball 21.3 -->
    <g style="fill:#4169e1;" transform="translate(28.749108 163.270338)rotate(-36.798767)scale(0.02 -0.02)">
     <defs>
      <path d="M 4122 4306 
L 4122 3641 
Q 3803 3938 3442 4084 
Q 3081 4231 2675 4231 
Q 1875 4231 1450 3742 
Q 1025 3253 1025 2328 
Q 1025 1406 1450 917 
Q 1875 428 2675 428 
Q 3081 428 3442 575 
Q 3803 722 4122 1019 
L 4122 359 
Q 3791 134 3420 21 
Q 3050 -91 2638 -91 
Q 1578 -91 968 557 
Q 359 1206 359 2328 
Q 359 3453 968 4101 
Q 1578 4750 2638 4750 
Q 3056 4750 3426 4639 
Q 3797 4528 4122 4306 
z
" id="DejaVuSans-43" transform="scale(0.015625)"/>
      <path d="M 794 531 
L 1825 531 
L 1825 4091 
L 703 3866 
L 703 4441 
L 1819 4666 
L 2450 4666 
L 2450 531 
L 3481 531 
L 3481 0 
L 794 0 
L 794 531 
z
" id="DejaVuSans-31" transform="scale(0.015625)"/>
     </defs>
     <use xlink:href="#DejaVuSans-43"/>
     <use x="69.824219" xlink:href="#DejaVuSans-61"/>
     <use x="131.103516" xlink:href="#DejaVuSans-6e"/>
     <use x="194.482422" xlink:href="#DejaVuSans-6e"/>
     <use x="257.861328" xlink:href="#DejaVuSans-6f"/>
     <use x="319.042969" xlink:href="#DejaVuSans-6e"/>
     <use x="382.421875" xlink:href="#DejaVuSans-62"/>
     <use x="445.898438" xlink:href="#DejaVuSans-61"/>
     <use x="507.177734" xlink:href="#DejaVuSans-6c"/>
     <use x="534.960938" xlink:href="#DejaVuSans-6c"/>
     <use x="562.744141" xlink:href="#DejaVuSans-20"/>
     <use x="594.53125" xlink:href="#DejaVuSans-32"/>
     <use x="658.154297" xlink:href="#DejaVuSans-31"/>
     <use x="721.777344" xlink:href="#DejaVuSans-2e"/>
     <use x="753.564453" xlink:href="#DejaVuSans-33"/>
     <use x="817.1875" xlink:href="#DejaVuSans-b0"/>
    </g>
   </g>
   <g id="text_9">
    <g id="patch_10">
     <path d="M 41.251028 137.989736 
L 49.741174 116.998583 
L 47.909684 116.257813 
L 39.419538 137.248966 
z
" style="fill:#ffffff;"/>
    </g>
    <!-- Lower Fast Track 23.2 -->
    <g style="fill:#4169e1;" transform="translate(40.854394 137.807739)rotate(-67.978488)scale(0.02 -0.02)">
     <defs>
      <path d="M 628 4666 
L 3309 4666 
L 3309 4134 
L 1259 4134 
L 1259 2759 
L 3109 2759 
L 3109 2228 
L 1259 2228 
L 1259 0 
L 628 0 
L 628 4666 
z
" id="DejaVuSans-46" transform="scale(0.015625)"/>
      <path d="M -19 4666 
L 3928 4666 
L 3928 4134 
L 2272 4134 
L 2272 0 
L 1638 0 
L 1638 4134 
L -19 4134 
L -19 4666 
z
" id="DejaVuSans-54" transform="scale(0.015625)"/>
      <path d="M 3122 3366 
L 3122 2828 
Q 2878 2963 2633 3030 
Q 2388 3097 2138 3097 
Q 1578 3097 1268 2742 
Q 959 2388 959 1747 
Q 959 1106 1268 751 
Q 1578 397 2138 397 
Q 2388 397 2633 464 
Q 2878 531 3122 666 
L 3122 134 
Q 2881 22 2623 -34 
Q 2366 -91 2075 -91 
Q 1284 -91 818 406 
Q 353 903 353 1747 
Q 353 2603 823 3093 
Q 1294 3584 2113 3584 
Q 2378 3584 2631 3529 
Q 2884 3475 3122 3366 
z
" id="DejaVuSans-63" transform="scale(0.015625)"/>
     </defs>
     <use xlink:href="#DejaVuSans-4c"/>
     <use x="53.962891" xlink:href="#DejaVuSans-6f"/>
     <use x="115.144531" xlink:href="#DejaVuSans-77"/>
     <use x="196.931641" xlink:href="#DejaVuSans-65"/>
     <use x="258.455078" xlink:href="#DejaVuSans-72"/>
     <use x="299.568359" xlink:href="#DejaVuSans-20"/>
     <use x="331.355469" xlink:href="#DejaVuSans-46"/>
     <use x="379.75" xlink:href="#DejaVuSans-61"/>
     <use x="441.029297" xlink:href="#DejaVuSans-73"/>
     <use x="493.128906" xlink:href="#DejaVuSans-74"/>
     <use x="532.337891" xlink:href="#DejaVuSans-20"/>
     <use x="564.125" xlink:href="#DejaVuSans-54"/>
     <use x="610.458984" xlink:href="#DejaVuSans-72"/>
     <use x="651.572266" xlink:href="#DejaVuSans-61"/>
     <use x="712.851562" xlink:href="#DejaVuSans-63"/>
     <use x="767.832031" xlink:href="#DejaVuSans-6b"/>
     <use x="825.742188" xlink:href="#DejaVuSans-20"/>
     <use x="857.529297" xlink:href="#DejaVuSans-32"/>
     <use x="921.152344" xlink:href="#DejaVuSans-33"/>
     <use x="984.775391" xlink:href="#DejaVuSans-2e"/>
     <use x="1016.5625" xlink:href="#DejaVuSans-32"/>
     <use x="1080.185547" xlink:href="#DejaVuSans-b0"/>
    </g>
   </g>
   <g id="text_10">
    <g id="patch_11">
     <path d="M 106.650119 48.010187 
L 118.398578 30.967191 
L 116.771981 29.845909 
L 105.023521 46.888904 
z
" style="fill:#ffffff;"/>
    </g>
    <!-- Upper Runway 18.9 -->
    <g style="fill:#4169e1;" transform="translate(106.302548 47.7463)rotate(-55.419857)scale(0.02 -0.02)">
     <defs>
      <path d="M 556 4666 
L 1191 4666 
L 1191 1831 
Q 1191 1081 1462 751 
Q 1734 422 2344 422 
Q 2950 422 3222 751 
Q 3494 1081 3494 1831 
L 3494 4666 
L 4128 4666 
L 4128 1753 
Q 4128 841 3676 375 
Q 3225 -91 2344 -91 
Q 1459 -91 1007 375 
Q 556 841 556 1753 
L 556 4666 
z
" id="DejaVuSans-55" transform="scale(0.015625)"/>
      <path d="M 1159 525 
L 1159 -1331 
L 581 -1331 
L 581 3500 
L 1159 3500 
L 1159 2969 
Q 1341 3281 1617 3432 
Q 1894 3584 2278 3584 
Q 2916 3584 3314 3078 
Q 3713 2572 3713 1747 
Q 3713 922 3314 415 
Q 2916 -91 2278 -91 
Q 1894 -91 1617 61 
Q 1341 213 1159 525 
z
M 3116 1747 
Q 3116 2381 2855 2742 
Q 2594 3103 2138 3103 
Q 1681 3103 1420 2742 
Q 1159 2381 1159 1747 
Q 1159 1113 1420 752 
Q 1681 391 2138 391 
Q 2594 391 2855 752 
Q 3116 1113 3116 1747 
z
" id="DejaVuSans-70" transform="scale(0.015625)"/>
      <path d="M 2841 2188 
Q 3044 2119 3236 1894 
Q 3428 1669 3622 1275 
L 4263 0 
L 3584 0 
L 2988 1197 
Q 2756 1666 2539 1819 
Q 2322 1972 1947 1972 
L 1259 1972 
L 1259 0 
L 628 0 
L 628 4666 
L 2053 4666 
Q 2853 4666 3247 4331 
Q 3641 3997 3641 3322 
Q 3641 2881 3436 2590 
Q 3231 2300 2841 2188 
z
M 1259 4147 
L 1259 2491 
L 2053 2491 
Q 2509 2491 2742 2702 
Q 2975 2913 2975 3322 
Q 2975 3731 2742 3939 
Q 2509 4147 2053 4147 
L 1259 4147 
z
" id="DejaVuSans-52" transform="scale(0.015625)"/>
      <path d="M 2059 -325 
Q 1816 -950 1584 -1140 
Q 1353 -1331 966 -1331 
L 506 -1331 
L 506 -850 
L 844 -850 
Q 1081 -850 1212 -737 
Q 1344 -625 1503 -206 
L 1606 56 
L 191 3500 
L 800 3500 
L 1894 763 
L 2988 3500 
L 3597 3500 
L 2059 -325 
z
" id="DejaVuSans-79" transform="scale(0.015625)"/>
     </defs>
     <use xlink:href="#DejaVuSans-55"/>
     <use x="73.193359" xlink:href="#DejaVuSans-70"/>
     <use x="136.669922" xlink:href="#DejaVuSans-70"/>
     <use x="200.146484" xlink:href="#DejaVuSans-65"/>
     <use x="261.669922" xlink:href="#DejaVuSans-72"/>
     <use x="302.783203" xlink:href="#DejaVuSans-20"/>
     <use x="334.570312" xlink:href="#DejaVuSans-52"/>
     <use x="399.552734" xlink:href="#DejaVuSans-75"/>
     <use x="462.931641" xlink:href="#DejaVuSans-6e"/>
     <use x="526.310547" xlink:href="#DejaVuSans-77"/>
     <use x="608.097656" xlink:href="#DejaVuSans-61"/>
     <use x="669.376953" xlink:href="#DejaVuSans-79"/>
     <use x="728.556641" xlink:href="#DejaVuSans-20"/>
     <use x="760.34375" xlink:href="#DejaVuSans-31"/>
     <use x="823.966797" xlink:href="#DejaVuSans-38"/>
     <use x="887.589844" xlink:href="#DejaVuSans-2e"/>
     <use x="919.376953" xlink:href="#DejaVuSans-39"/>
     <use x="983" xlink:href="#DejaVuSans-b0"/>
    </g>
   </g>
   <g id="text_11">
    <g id="patch_12">
     <path d="M 56.627877 129.701751 
L 67.989402 112.47547 
L 66.340183 111.387734 
L 54.978657 128.614014 
z
" style="fill:#ffffff;"/>
    </g>
    <!-- Lower Runway 22.5 -->
    <g style="fill:#4169e1;" transform="translate(56.274975 129.445037)rotate(-56.59331)scale(0.02 -0.02)">
     <defs>
      <path d="M 691 4666 
L 3169 4666 
L 3169 4134 
L 1269 4134 
L 1269 2991 
Q 1406 3038 1543 3061 
Q 1681 3084 1819 3084 
Q 2600 3084 3056 2656 
Q 3513 2228 3513 1497 
Q 3513 744 3044 326 
Q 2575 -91 1722 -91 
Q 1428 -91 1123 -41 
Q 819 9 494 109 
L 494 744 
Q 775 591 1075 516 
Q 1375 441 1709 441 
Q 2250 441 2565 725 
Q 2881 1009 2881 1497 
Q 2881 1984 2565 2268 
Q 2250 2553 1709 2553 
Q 1456 2553 1204 2497 
Q 953 2441 691 2322 
L 691 4666 
z
" id="DejaVuSans-35" transform="scale(0.015625)"/>
     </defs>
     <use xlink:href="#DejaVuSans-4c"/>
     <use x="53.962891" xlink:href="#DejaVuSans-6f"/>
     <use x="115.144531" xlink:href="#DejaVuSans-77"/>
     <use x="196.931641" xlink:href="#DejaVuSans-65"/>
     <use x="258.455078" xlink:href="#DejaVuSans-72"/>
     <use x="299.568359" xlink:href="#DejaVuSans-20"/>
     <use x="331.355469" xlink:href="#DejaVuSans-52"/>
     <use x="396.337891" xlink:href="#DejaVuSans-75"/>
     <use x="459.716797" xlink:href="#DejaVuSans-6e"/>
     <use x="523.095703" xlink:href="#DejaVuSans-77"/>
     <use x="604.882812" xlink:href="#DejaVuSans-61"/>
     <use x="666.162109" xlink:href="#DejaVuSans-79"/>
     <use x="725.341797" xlink:href="#DejaVuSans-20"/>
     <use x="757.128906" xlink:href="#DejaVuSans-32"/>
     <use x="820.751953" xlink:href="#DejaVuSans-32"/>
     <use x="884.375" xlink:href="#DejaVuSans-2e"/>
     <use x="916.162109" xlink:href="#DejaVuSans-35"/>
     <use x="979.785156" xlink:href="#DejaVuSans-b0"/>
    </g>
   </g>
   <g id="text_12">
    <g id="patch_13">
     <path d="M 139.379883 58.215095 
L 144.369642 47.809621 
L 142.588246 46.955384 
L 137.598486 57.360858 
z
" style="fill:#ffffff;"/>
    </g>
    <!-- Spike 18.5 -->
    <g style="fill:#4169e1;" transform="translate(138.995451 58.008567)rotate(-64.380784)scale(0.02 -0.02)">
     <use xlink:href="#DejaVuSans-53"/>
     <use x="63.476562" xlink:href="#DejaVuSans-70"/>
     <use x="126.953125" xlink:href="#DejaVuSans-69"/>
     <use x="154.736328" xlink:href="#DejaVuSans-6b"/>
     <use x="209.021484" xlink:href="#DejaVuSans-65"/>
     <use x="270.544922" xlink:href="#DejaVuSans-20"/>
     <use x="302.332031" xlink:href="#DejaVuSans-31"/>
     <use x="365.955078" xlink:href="#DejaVuSans-38"/>
     <use x="429.578125" xlink:href="#DejaVuSans-2e"/>
     <use x="461.365234" xlink:href="#DejaVuSans-35"/>
     <use x="524.988281" xlink:href="#DejaVuSans-b0"/>
    </g>
   </g>
   <g id="text_13">
    <g id="patch_14">
     <path d="M 150.437816 74.796571 
L 153.07962 60.709965 
L 151.137847 60.345805 
L 148.496043 74.432411 
z
" style="fill:#ffffff;"/>
    </g>
    <!-- Highball 16.9 -->
    <g style="fill:#008000;" transform="translate(150.013034 74.696559)rotate(-79.378123)scale(0.02 -0.02)">
     <defs>
      <path d="M 2113 2584 
Q 1688 2584 1439 2293 
Q 1191 2003 1191 1497 
Q 1191 994 1439 701 
Q 1688 409 2113 409 
Q 2538 409 2786 701 
Q 3034 994 3034 1497 
Q 3034 2003 2786 2293 
Q 2538 2584 2113 2584 
z
M 3366 4563 
L 3366 3988 
Q 3128 4100 2886 4159 
Q 2644 4219 2406 4219 
Q 1781 4219 1451 3797 
Q 1122 3375 1075 2522 
Q 1259 2794 1537 2939 
Q 1816 3084 2150 3084 
Q 2853 3084 3261 2657 
Q 3669 2231 3669 1497 
Q 3669 778 3244 343 
Q 2819 -91 2113 -91 
Q 1303 -91 875 529 
Q 447 1150 447 2328 
Q 447 3434 972 4092 
Q 1497 4750 2381 4750 
Q 2619 4750 2861 4703 
Q 3103 4656 3366 4563 
z
" id="DejaVuSans-36" transform="scale(0.015625)"/>
     </defs>
     <use xlink:href="#DejaVuSans-48"/>
     <use x="75.195312" xlink:href="#DejaVuSans-69"/>
     <use x="102.978516" xlink:href="#DejaVuSans-67"/>
     <use x="166.455078" xlink:href="#DejaVuSans-68"/>
     <use x="229.833984" xlink:href="#DejaVuSans-62"/>
     <use x="293.310547" xlink:href="#DejaVuSans-61"/>
     <use x="354.589844" xlink:href="#DejaVuSans-6c"/>
     <use x="382.373047" xlink:href="#DejaVuSans-6c"/>
     <use x="410.15625" xlink:href="#DejaVuSans-20"/>
     <use x="441.943359" xlink:href="#DejaVuSans-31"/>
     <use x="505.566406" xlink:href="#DejaVuSans-36"/>
     <use x="569.189453" xlink:href="#DejaVuSans-2e"/>
     <use x="600.976562" xlink:href="#DejaVuSans-39"/>
     <use x="664.599609" xlink:href="#DejaVuSans-b0"/>
    </g>
   </g>
   <g id="text_14">
    <g id="patch_15">
     <path d="M 142.970956 122.345063 
L 146.521644 105.152257 
L 144.586849 104.75268 
L 141.03616 121.945486 
z
" style="fill:#ffffff;"/>
    </g>
    <!-- Easy Street 11.7 -->
    <g style="fill:#008000;" transform="translate(142.548073 122.237306)rotate(-78.331226)scale(0.02 -0.02)">
     <defs>
      <path d="M 628 4666 
L 3578 4666 
L 3578 4134 
L 1259 4134 
L 1259 2753 
L 3481 2753 
L 3481 2222 
L 1259 2222 
L 1259 531 
L 3634 531 
L 3634 0 
L 628 0 
L 628 4666 
z
" id="DejaVuSans-45" transform="scale(0.015625)"/>
      <path d="M 525 4666 
L 3525 4666 
L 3525 4397 
L 1831 0 
L 1172 0 
L 2766 4134 
L 525 4134 
L 525 4666 
z
" id="DejaVuSans-37" transform="scale(0.015625)"/>
     </defs>
     <use xlink:href="#DejaVuSans-45"/>
     <use x="63.183594" xlink:href="#DejaVuSans-61"/>
     <use x="124.462891" xlink:href="#DejaVuSans-73"/>
     <use x="176.5625" xlink:href="#DejaVuSans-79"/>
     <use x="235.742188" xlink:href="#DejaVuSans-20"/>
     <use x="267.529297" xlink:href="#DejaVuSans-53"/>
     <use x="331.005859" xlink:href="#DejaVuSans-74"/>
     <use x="370.214844" xlink:href="#DejaVuSans-72"/>
     <use x="409.078125" xlink:href="#DejaVuSans-65"/>
     <use x="470.601562" xlink:href="#DejaVuSans-65"/>
     <use x="532.125" xlink:href="#DejaVuSans-74"/>
     <use x="571.333984" xlink:href="#DejaVuSans-20"/>
     <use x="603.121094" xlink:href="#DejaVuSans-31"/>
     <use x="666.744141" xlink:href="#DejaVuSans-31"/>
     <use x="730.367188" xlink:href="#DejaVuSans-2e"/>
     <use x="762.154297" xlink:href="#DejaVuSans-37"/>
     <use x="825.777344" xlink:href="#DejaVuSans-b0"/>
    </g>
   </g>
   <g id="text_15">
    <g id="patch_16">
     <path d="M 138.918983 79.489316 
L 143.434662 65.697243 
L 141.55711 65.082511 
L 137.041431 78.874585 
z
" style="fill:#ffffff;"/>
    </g>
    <!-- Mainline 16.8 -->
    <g style="fill:#008000;" transform="translate(138.510909 79.334664)rotate(-71.870975)scale(0.02 -0.02)">
     <defs>
      <path d="M 628 4666 
L 1569 4666 
L 2759 1491 
L 3956 4666 
L 4897 4666 
L 4897 0 
L 4281 0 
L 4281 4097 
L 3078 897 
L 2444 897 
L 1241 4097 
L 1241 0 
L 628 0 
L 628 4666 
z
" id="DejaVuSans-4d" transform="scale(0.015625)"/>
     </defs>
     <use xlink:href="#DejaVuSans-4d"/>
     <use x="86.279297" xlink:href="#DejaVuSans-61"/>
     <use x="147.558594" xlink:href="#DejaVuSans-69"/>
     <use x="175.341797" xlink:href="#DejaVuSans-6e"/>
     <use x="238.720703" xlink:href="#DejaVuSans-6c"/>
     <use x="266.503906" xlink:href="#DejaVuSans-69"/>
     <use x="294.287109" xlink:href="#DejaVuSans-6e"/>
     <use x="357.666016" xlink:href="#DejaVuSans-65"/>
     <use x="419.189453" xlink:href="#DejaVuSans-20"/>
     <use x="450.976562" xlink:href="#DejaVuSans-31"/>
     <use x="514.599609" xlink:href="#DejaVuSans-36"/>
     <use x="578.222656" xlink:href="#DejaVuSans-2e"/>
     <use x="610.009766" xlink:href="#DejaVuSans-38"/>
     <use x="673.632812" xlink:href="#DejaVuSans-b0"/>
    </g>
   </g>
   <g id="text_16">
    <g id="patch_17">
     <path d="M 90.453536 107.754459 
L 92.109538 112.319634 
L 93.966747 111.645937 
L 92.310746 107.080762 
z
" style="fill:#ffffff;"/>
    </g>
    <!--  2.8 -->
    <g style="fill:#008000;" transform="translate(90.870164 107.624603)rotate(-289.938069)scale(0.02 -0.02)">
     <use xlink:href="#DejaVuSans-20"/>
     <use x="31.787109" xlink:href="#DejaVuSans-32"/>
     <use x="95.410156" xlink:href="#DejaVuSans-2e"/>
     <use x="127.197266" xlink:href="#DejaVuSans-38"/>
     <use x="190.820312" xlink:href="#DejaVuSans-b0"/>
    </g>
   </g>
   <g id="text_17">
    <g id="patch_18">
     <path d="M 82.08955 37.040105 
L 90.326878 26.980523 
L 88.798333 25.728868 
L 80.561004 35.788449 
z
" style="fill:#ffffff;"/>
    </g>
    <!-- Glades 14.2 -->
    <g style="fill:#4169e1;" transform="translate(81.764935 36.748443)rotate(-50.687532)scale(0.02 -0.02)">
     <defs>
      <path d="M 3809 666 
L 3809 1919 
L 2778 1919 
L 2778 2438 
L 4434 2438 
L 4434 434 
Q 4069 175 3628 42 
Q 3188 -91 2688 -91 
Q 1594 -91 976 548 
Q 359 1188 359 2328 
Q 359 3472 976 4111 
Q 1594 4750 2688 4750 
Q 3144 4750 3555 4637 
Q 3966 4525 4313 4306 
L 4313 3634 
Q 3963 3931 3569 4081 
Q 3175 4231 2741 4231 
Q 1884 4231 1454 3753 
Q 1025 3275 1025 2328 
Q 1025 1384 1454 906 
Q 1884 428 2741 428 
Q 3075 428 3337 486 
Q 3600 544 3809 666 
z
" id="DejaVuSans-47" transform="scale(0.015625)"/>
      <path d="M 2906 2969 
L 2906 4863 
L 3481 4863 
L 3481 0 
L 2906 0 
L 2906 525 
Q 2725 213 2448 61 
Q 2172 -91 1784 -91 
Q 1150 -91 751 415 
Q 353 922 353 1747 
Q 353 2572 751 3078 
Q 1150 3584 1784 3584 
Q 2172 3584 2448 3432 
Q 2725 3281 2906 2969 
z
M 947 1747 
Q 947 1113 1208 752 
Q 1469 391 1925 391 
Q 2381 391 2643 752 
Q 2906 1113 2906 1747 
Q 2906 2381 2643 2742 
Q 2381 3103 1925 3103 
Q 1469 3103 1208 2742 
Q 947 2381 947 1747 
z
" id="DejaVuSans-64" transform="scale(0.015625)"/>
     </defs>
     <use xlink:href="#DejaVuSans-47"/>
     <use x="77.490234" xlink:href="#DejaVuSans-6c"/>
     <use x="105.273438" xlink:href="#DejaVuSans-61"/>
     <use x="166.552734" xlink:href="#DejaVuSans-64"/>
     <use x="230.029297" xlink:href="#DejaVuSans-65"/>
     <use x="291.552734" xlink:href="#DejaVuSans-73"/>
     <use x="343.652344" xlink:href="#DejaVuSans-20"/>
     <use x="375.439453" xlink:href="#DejaVuSans-31"/>
     <use x="439.0625" xlink:href="#DejaVuSans-34"/>
     <use x="502.685547" xlink:href="#DejaVuSans-2e"/>
     <use x="534.472656" xlink:href="#DejaVuSans-32"/>
     <use x="598.095703" xlink:href="#DejaVuSans-b0"/>
    </g>
   </g>
   <g id="text_18">
    <g id="patch_19">
     <path d="M 127.529418 56.764122 
L 132.500882 45.033136 
L 130.681862 44.262255 
L 125.710397 55.99324 
z
" style="fill:#ffffff;"/>
    </g>
    <!-- Switch 17.7 -->
    <g style="fill:#4169e1;" transform="translate(127.13584 56.575606)rotate(-67.033295)scale(0.02 -0.02)">
     <use xlink:href="#DejaVuSans-53"/>
     <use x="63.476562" xlink:href="#DejaVuSans-77"/>
     <use x="145.263672" xlink:href="#DejaVuSans-69"/>
     <use x="173.046875" xlink:href="#DejaVuSans-74"/>
     <use x="212.255859" xlink:href="#DejaVuSans-63"/>
     <use x="267.236328" xlink:href="#DejaVuSans-68"/>
     <use x="330.615234" xlink:href="#DejaVuSans-20"/>
     <use x="362.402344" xlink:href="#DejaVuSans-31"/>
     <use x="426.025391" xlink:href="#DejaVuSans-37"/>
     <use x="489.648438" xlink:href="#DejaVuSans-2e"/>
     <use x="521.435547" xlink:href="#DejaVuSans-37"/>
     <use x="585.058594" xlink:href="#DejaVuSans-b0"/>
    </g>
   </g>
   <g id="text_19">
    <g id="patch_20">
     <path d="M 118.684065 51.617544 
L 126.673364 39.680693 
L 125.031541 38.581825 
L 117.042242 50.518676 
z
" style="fill:#ffffff;"/>
    </g>
    <!-- Whistler 19.3 -->
    <g style="fill:#4169e1;" transform="translate(118.332908 51.358449)rotate(-56.205724)scale(0.02 -0.02)">
     <use xlink:href="#DejaVuSans-57"/>
     <use x="98.876953" xlink:href="#DejaVuSans-68"/>
     <use x="162.255859" xlink:href="#DejaVuSans-69"/>
     <use x="190.039062" xlink:href="#DejaVuSans-73"/>
     <use x="242.138672" xlink:href="#DejaVuSans-74"/>
     <use x="281.347656" xlink:href="#DejaVuSans-6c"/>
     <use x="309.130859" xlink:href="#DejaVuSans-65"/>
     <use x="370.654297" xlink:href="#DejaVuSans-72"/>
     <use x="411.767578" xlink:href="#DejaVuSans-20"/>
     <use x="443.554688" xlink:href="#DejaVuSans-31"/>
     <use x="507.177734" xlink:href="#DejaVuSans-39"/>
     <use x="570.800781" xlink:href="#DejaVuSans-2e"/>
     <use x="602.587891" xlink:href="#DejaVuSans-33"/>
     <use x="666.210938" xlink:href="#DejaVuSans-b0"/>
    </g>
   </g>
   <g id="text_20">
    <g id="patch_21">
     <path d="M 76.607885 58.950614 
L 88.094613 39.362719 
L 86.390404 38.363337 
L 74.903675 57.951232 
z
" style="fill:#ffffff;"/>
    </g>
    <!-- Upper Fast Track 18.5 -->
    <g style="fill:#4169e1;" transform="translate(76.241954 58.71284)rotate(-59.611798)scale(0.02 -0.02)">
     <use xlink:href="#DejaVuSans-55"/>
     <use x="73.193359" xlink:href="#DejaVuSans-70"/>
     <use x="136.669922" xlink:href="#DejaVuSans-70"/>
     <use x="200.146484" xlink:href="#DejaVuSans-65"/>
     <use x="261.669922" xlink:href="#DejaVuSans-72"/>
     <use x="302.783203" xlink:href="#DejaVuSans-20"/>
     <use x="334.570312" xlink:href="#DejaVuSans-46"/>
     <use x="382.964844" xlink:href="#DejaVuSans-61"/>
     <use x="444.244141" xlink:href="#DejaVuSans-73"/>
     <use x="496.34375" xlink:href="#DejaVuSans-74"/>
     <use x="535.552734" xlink:href="#DejaVuSans-20"/>
     <use x="567.339844" xlink:href="#DejaVuSans-54"/>
     <use x="613.673828" xlink:href="#DejaVuSans-72"/>
     <use x="654.787109" xlink:href="#DejaVuSans-61"/>
     <use x="716.066406" xlink:href="#DejaVuSans-63"/>
     <use x="771.046875" xlink:href="#DejaVuSans-6b"/>
     <use x="828.957031" xlink:href="#DejaVuSans-20"/>
     <use x="860.744141" xlink:href="#DejaVuSans-31"/>
     <use x="924.367188" xlink:href="#DejaVuSans-38"/>
     <use x="987.990234" xlink:href="#DejaVuSans-2e"/>
     <use x="1019.777344" xlink:href="#DejaVuSans-35"/>
     <use x="1083.400391" xlink:href="#DejaVuSans-b0"/>
    </g>
   </g>
   <g id="text_21">
    <!-- Montage -->
    <g transform="translate(60.118215 11.540226)scale(0.11 -0.11)">
     <use xlink:href="#DejaVuSans-4d"/>
     <use x="86.279297" xlink:href="#DejaVuSans-6f"/>
     <use x="147.460938" xlink:href="#DejaVuSans-6e"/>
     <use x="210.839844" xlink:href="#DejaVuSans-74"/>
     <use x="250.048828" xlink:href="#DejaVuSans-61"/>
     <use x="311.328125" xlink:href="#DejaVuSans-67"/>
     <use x="374.804688" xlink:href="#DejaVuSans-65"/>
    </g>
   </g>
   <g id="legend_1">
    <g id="line2d_43">
     <path d="M 7.114973 206.214498 
L 18.114973 206.214498 
" style="fill:none;stroke:#008000;stroke-linecap:square;stroke-width:1.5;"/>
    </g>
    <g id="line2d_44"/>
    <g id="text_22">
     <!-- Easy -->
     <g transform="translate(22.514973 208.139498)scale(0.055 -0.055)">
      <use xlink:href="#DejaVuSans-45"/>
      <use x="63.183594" xlink:href="#DejaVuSans-61"/>
      <use x="124.462891" xlink:href="#DejaVuSans-73"/>
      <use x="176.5625" xlink:href="#DejaVuSans-79"/>
     </g>
    </g>
    <g id="line2d_45">
     <path d="M 7.114973 214.287467 
L 18.114973 214.287467 
" style="fill:none;stroke:#4169e1;stroke-linecap:square;stroke-width:1.5;"/>
    </g>
    <g id="line2d_46"/>
    <g id="text_23">
     <!-- Intermediate -->
     <g transform="translate(22.514973 216.212467)scale(0.055 -0.055)">
      <use xlink:href="#DejaVuSans-49"/>
      <use x="29.492188" xlink:href="#DejaVuSans-6e"/>
      <use x="92.871094" xlink:href="#DejaVuSans-74"/>
      <use x="132.080078" xlink:href="#DejaVuSans-65"/>
      <use x="193.603516" xlink:href="#DejaVuSans-72"/>
      <use x="232.966797" xlink:href="#DejaVuSans-6d"/>
      <use x="330.378906" xlink:href="#DejaVuSans-65"/>
      <use x="391.902344" xlink:href="#DejaVuSans-64"/>
      <use x="455.378906" xlink:href="#DejaVuSans-69"/>
      <use x="483.162109" xlink:href="#DejaVuSans-61"/>
      <use x="544.441406" xlink:href="#DejaVuSans-74"/>
      <use x="583.650391" xlink:href="#DejaVuSans-65"/>
     </g>
    </g>
    <g id="line2d_47">
     <path d="M 69.000285 206.214498 
L 80.000285 206.214498 
" style="fill:none;stroke:#000000;stroke-linecap:square;stroke-width:1.5;"/>
    </g>
    <g id="line2d_48"/>
    <g id="text_24">
     <!-- Advanced -->
     <g transform="translate(84.400285 208.139498)scale(0.055 -0.055)">
      <defs>
       <path d="M 2188 4044 
L 1331 1722 
L 3047 1722 
L 2188 4044 
z
M 1831 4666 
L 2547 4666 
L 4325 0 
L 3669 0 
L 3244 1197 
L 1141 1197 
L 716 0 
L 50 0 
L 1831 4666 
z
" id="DejaVuSans-41" transform="scale(0.015625)"/>
       <path d="M 191 3500 
L 800 3500 
L 1894 563 
L 2988 3500 
L 3597 3500 
L 2284 0 
L 1503 0 
L 191 3500 
z
" id="DejaVuSans-76" transform="scale(0.015625)"/>
      </defs>
      <use xlink:href="#DejaVuSans-41"/>
      <use x="66.658203" xlink:href="#DejaVuSans-64"/>
      <use x="130.134766" xlink:href="#DejaVuSans-76"/>
      <use x="189.314453" xlink:href="#DejaVuSans-61"/>
      <use x="250.59375" xlink:href="#DejaVuSans-6e"/>
      <use x="313.972656" xlink:href="#DejaVuSans-63"/>
      <use x="368.953125" xlink:href="#DejaVuSans-65"/>
      <use x="430.476562" xlink:href="#DejaVuSans-64"/>
     </g>
    </g>
    <g id="line2d_49">
     <path d="M 69.000285 214.287467 
L 80.000285 214.287467 
" style="fill:none;stroke:#ff0000;stroke-linecap:square;stroke-width:1.5;"/>
    </g>
    <g id="line2d_50"/>
    <g id="text_25">
     <!-- Expert -->
     <g transform="translate(84.400285 216.212467)scale(0.055 -0.055)">
      <defs>
       <path d="M 3513 3500 
L 2247 1797 
L 3578 0 
L 2900 0 
L 1881 1375 
L 863 0 
L 184 0 
L 1544 1831 
L 300 3500 
L 978 3500 
L 1906 2253 
L 2834 3500 
L 3513 3500 
z
" id="DejaVuSans-78" transform="scale(0.015625)"/>
      </defs>
      <use xlink:href="#DejaVuSans-45"/>
      <use x="63.183594" xlink:href="#DejaVuSans-78"/>
      <use x="122.363281" xlink:href="#DejaVuSans-70"/>
      <use x="185.839844" xlink:href="#DejaVuSans-65"/>
      <use x="247.363281" xlink:href="#DejaVuSans-72"/>
      <use x="288.476562" xlink:href="#DejaVuSans-74"/>
     </g>
    </g>
    <g id="line2d_51">
     <path d="M 122.569426 206.214498 
L 133.569426 206.214498 
" style="fill:none;stroke:#ffd700;stroke-linecap:square;stroke-width:1.5;"/>
    </g>
    <g id="line2d_52"/>
    <g id="text_26">
     <!-- Extreme -->
     <g transform="translate(137.969426 208.139498)scale(0.055 -0.055)">
      <use xlink:href="#DejaVuSans-45"/>
      <use x="63.183594" xlink:href="#DejaVuSans-78"/>
      <use x="122.363281" xlink:href="#DejaVuSans-74"/>
      <use x="161.572266" xlink:href="#DejaVuSans-72"/>
      <use x="200.435547" xlink:href="#DejaVuSans-65"/>
      <use x="261.958984" xlink:href="#DejaVuSans-6d"/>
      <use x="359.371094" xlink:href="#DejaVuSans-65"/>
     </g>
    </g>
    <g id="line2d_53">
     <path d="M 122.569426 214.287467 
L 133.569426 214.287467 
" style="fill:none;stroke:#000000;stroke-dasharray:1.5,2.475;stroke-dashoffset:0;stroke-width:1.5;"/>
    </g>
    <g id="line2d_54"/>
    <g id="text_27">
     <!-- Gladed -->
     <g transform="translate(137.969426 216.212467)scale(0.055 -0.055)">
      <use xlink:href="#DejaVuSans-47"/>
      <use x="77.490234" xlink:href="#DejaVuSans-6c"/>
      <use x="105.273438" xlink:href="#DejaVuSans-61"/>
      <use x="166.552734" xlink:href="#DejaVuSans-64"/>
      <use x="230.029297" xlink:href="#DejaVuSans-65"/>
      <use x="291.552734" xlink:href="#DejaVuSans-64"/>
     </g>
    </g>
   </g>
  </g>
  <g id="text_28">
   <!-- Sources: USGS and OpenStreetMaps -->
   <g transform="translate(40.490389 223.894001)scale(0.047826 -0.047826)">
    <defs>
     <path d="M 750 794 
L 1409 794 
L 1409 0 
L 750 0 
L 750 794 
z
M 750 3309 
L 1409 3309 
L 1409 2516 
L 750 2516 
L 750 3309 
z
" id="DejaVuSans-3a" transform="scale(0.015625)"/>
     <path d="M 2522 4238 
Q 1834 4238 1429 3725 
Q 1025 3213 1025 2328 
Q 1025 1447 1429 934 
Q 1834 422 2522 422 
Q 3209 422 3611 934 
Q 4013 1447 4013 2328 
Q 4013 3213 3611 3725 
Q 3209 4238 2522 4238 
z
M 2522 4750 
Q 3503 4750 4090 4092 
Q 4678 3434 4678 2328 
Q 4678 1225 4090 567 
Q 3503 -91 2522 -91 
Q 1538 -91 948 565 
Q 359 1222 359 2328 
Q 359 3434 948 4092 
Q 1538 4750 2522 4750 
z
" id="DejaVuSans-4f" transform="scale(0.015625)"/>
    </defs>
    <use xlink:href="#DejaVuSans-53"/>
    <use x="63.476562" xlink:href="#DejaVuSans-6f"/>
    <use x="124.658203" xlink:href="#DejaVuSans-75"/>
    <use x="188.037109" xlink:href="#DejaVuSans-72"/>
    <use x="226.900391" xlink:href="#DejaVuSans-63"/>
    <use x="281.880859" xlink:href="#DejaVuSans-65"/>
    <use x="343.404297" xlink:href="#DejaVuSans-73"/>
    <use x="395.503906" xlink:href="#DejaVuSans-3a"/>
    <use x="429.195312" xlink:href="#DejaVuSans-20"/>
    <use x="460.982422" xlink:href="#DejaVuSans-55"/>
    <use x="534.175781" xlink:href="#DejaVuSans-53"/>
    <use x="597.652344" xlink:href="#DejaVuSans-47"/>
    <use x="675.142578" xlink:href="#DejaVuSans-53"/>
    <use x="738.619141" xlink:href="#DejaVuSans-20"/>
    <use x="770.40625" xlink:href="#DejaVuSans-61"/>
    <use x="831.685547" xlink:href="#DejaVuSans-6e"/>
    <use x="895.064453" xlink:href="#DejaVuSans-64"/>
    <use x="958.541016" xlink:href="#DejaVuSans-20"/>
    <use x="990.328125" xlink:href="#DejaVuSans-4f"/>
    <use x="1069.039062" xlink:href="#DejaVuSans-70"/>
    <use x="1132.515625" xlink:href="#DejaVuSans-65"/>
    <use x="1194.039062" xlink:href="#DejaVuSans-6e"/>
    <use x="1257.417969" xlink:href="#DejaVuSans-53"/>
    <use x="1320.894531" xlink:href="#DejaVuSans-74"/>
    <use x="1360.103516" xlink:href="#DejaVuSans-72"/>
    <use x="1398.966797" xlink:href="#DejaVuSans-65"/>
    <use x="1460.490234" xlink:href="#DejaVuSans-65"/>
    <use x="1522.013672" xlink:href="#DejaVuSans-74"/>
    <use x="1561.222656" xlink:href="#DejaVuSans-4d"/>
    <use x="1647.501953" xlink:href="#DejaVuSans-61"/>
    <use x="1708.78125" xlink:href="#DejaVuSans-70"/>
    <use x="1772.257812" xlink:href="#DejaVuSans-73"/>
   </g>
  </g>
 </g>
 <defs>
  <clipPath id="pdd548713fb">
   <rect height="190.808182" width="168.234242" x="0" y="17.040226"/>
  </clipPath>
 </defs>
</svg>
