<?xml version="1.0" encoding="utf-8" standalone="no"?>
<!DOCTYPE svg PUBLIC "-//W3C//DTD SVG 1.1//EN"
  "http://www.w3.org/Graphics/SVG/1.1/DTD/svg11.dtd">
<svg height="108.668759pt" version="1.1" viewBox="0 0 65.230059 108.668759" width="65.230059pt" xmlns="http://www.w3.org/2000/svg" xmlns:xlink="http://www.w3.org/1999/xlink">
 <metadata>
  <rdf:RDF xmlns:cc="http://creativecommons.org/ns#" xmlns:dc="http://purl.org/dc/elements/1.1/" xmlns:rdf="http://www.w3.org/1999/02/22-rdf-syntax-ns#">
   <cc:Work>
    <dc:type rdf:resource="http://purl.org/dc/dcmitype/StillImage"/>
    <dc:date>2022-04-14T21:30:59.221815</dc:date>
    <dc:format>image/svg+xml</dc:format>
    <dc:creator>
     <cc:Agent>
      <dc:title>Matplotlib v3.4.3, https://matplotlib.org/</dc:title>
     </cc:Agent>
    </dc:creator>
   </cc:Work>
  </rdf:RDF>
 </metadata>
 <defs>
  <style type="text/css">*{stroke-linecap:butt;stroke-linejoin:round;}</style>
 </defs>
 <g id="figure_1">
  <g id="patch_1">
   <path d="M 0 108.668759 
L 65.230059 108.668759 
L 65.230059 0 
L 0 0 
z
" style="fill:#ffffff;"/>
  </g>
  <g id="axes_1">
   <g id="line2d_1">
    <path clip-path="url(#p372edbb40b)" d="M 49.81056 94.990662 
L 49.469939 91.212289 
L 49.086377 86.958927 
L 48.702814 82.705565 
L 48.257387 77.767184 
L 47.81196 72.828804 
L 47.385456 68.102606 
L 46.958952 63.376409 
L 46.629249 59.719207 
L 46.299545 56.062005 
L 46.00041 52.752698 
L 45.701275 49.44339 
L 45.236197 44.286902 
L 44.771118 39.130414 
L 44.271832 33.584564 
L 43.958868 30.120697 
L 43.616792 26.322937 
L 43.146619 21.107748 
L 43.00251 19.508294 
L 42.795808 17.220591 
" style="fill:none;stroke:#808080;stroke-linecap:square;stroke-width:1.5;"/>
   </g>
   <g id="line2d_2">
    <path clip-path="url(#p372edbb40b)" d="M 29.744498 91.801448 
L 28.432234 88.187868 
L 27.119971 84.574287 
" style="fill:none;stroke:#808080;stroke-linecap:square;stroke-width:1.5;"/>
   </g>
   <g id="line2d_3">
    <path clip-path="url(#p372edbb40b)" d="M 60.349428 94.9325 
L 60.291202 92.938838 
" style="fill:none;stroke:#808080;stroke-linecap:square;stroke-width:1.5;"/>
   </g>
   <g id="line2d_4">
    <path clip-path="url(#p372edbb40b)" d="M 39.057713 96.31977 
L 38.496198 92.869097 
L 37.934683 89.418424 
L 37.373168 85.967751 
L 36.811653 82.517077 
L 36.133322 78.353651 
L 35.454992 74.190224 
L 34.762105 69.9304 
L 34.069218 65.670575 
L 33.421456 61.690251 
L 32.773695 57.709927 
L 32.252574 54.510481 
L 31.731453 51.311035 
L 31.102614 47.451882 
L 30.242328 42.165606 
L 29.382042 36.879331 
L 28.628018 32.241454 
L 27.833236 27.359081 
L 27.038454 22.476708 
L 26.484582 19.076388 
L 25.930709 15.676068 
L 25.740019 14.504212 
" style="fill:none;stroke:#808080;stroke-linecap:square;stroke-width:1.5;"/>
   </g>
   <g id="line2d_5">
    <path clip-path="url(#p372edbb40b)" d="M 42.386772 95.13499 
L 41.843453 91.269374 
L 41.300133 87.403758 
L 40.756814 83.538143 
L 40.213495 79.672527 
L 39.444186 74.19561 
L 38.674878 68.718692 
L 37.888102 63.121681 
L 37.101326 57.52467 
L 36.440464 52.823784 
L 35.779601 48.122898 
L 35.150035 43.643351 
L 34.520468 39.163803 
L 33.952039 35.115624 
L 33.38361 31.067444 
L 32.881776 27.497216 
L 32.379943 23.926987 
L 31.878109 20.356759 
L 31.376276 16.78653 
" style="fill:none;stroke:#808080;stroke-linecap:square;stroke-width:1.5;"/>
   </g>
   <g id="line2d_6">
    <path clip-path="url(#p372edbb40b)" d="M 23.112581 95.856629 
L 21.249356 92.045944 
L 19.164872 87.781811 
L 17.560024 84.498892 
L 15.955176 81.215973 
L 14.514088 78.267485 
L 13.072999 75.318997 
L 11.136992 71.358599 
" style="fill:none;stroke:#808080;stroke-linecap:square;stroke-width:1.5;"/>
   </g>
   <g id="line2d_7">
    <path clip-path="url(#p372edbb40b)" d="M 60.052476 89.141077 
L 60.170383 85.142443 
L 60.28829 81.143809 
" style="fill:none;stroke:#808080;stroke-linecap:square;stroke-width:1.5;"/>
   </g>
   <g id="line2d_8">
    <path clip-path="url(#p372edbb40b)" d="M 24.732713 19.883116 
L 24.407377 21.008119 
L 24.08204 22.133122 
L 23.103119 23.603327 
L 22.124198 25.073532 
L 21.773752 26.229231 
L 21.423305 27.384931 
L 21.072859 28.54063 
L 20.722412 29.69633 
L 20.254422 31.198309 
L 19.786433 32.700287 
L 19.552802 33.682578 
L 19.319171 34.664869 
L 19.08554 35.647159 
L 18.851909 36.62945 
L 18.560052 38.305376 
L 18.268195 39.981302 
L 18.151744 41.194625 
L 18.035292 42.407948 
L 17.699038 43.771523 
L 17.362784 45.135097 
" style="fill:none;stroke:#008000;stroke-linecap:square;stroke-width:1.5;"/>
   </g>
   <g id="line2d_9">
    <path clip-path="url(#p372edbb40b)" d="M 24.02527 11.949395 
L 22.504849 12.438655 
L 20.984428 12.927916 
L 19.464007 13.417176 
L 17.943586 13.906437 
L 16.097101 14.387081 
L 14.250616 14.867725 
L 12.404131 15.348368 
L 10.557645 15.829012 
L 9.506306 16.435674 
L 8.454967 17.042335 
L 7.403627 17.648997 
L 6.352288 18.255658 
L 5.797323 19.266761 
L 5.242359 20.277863 
L 4.687394 21.288966 
L 4.13243 22.300068 
L 3.869686 23.802316 
L 3.606942 25.304564 
L 3.344198 26.806812 
L 3.081454 28.30906 
L 3.052341 29.898012 
L 3.023228 31.486964 
L 2.994116 33.075916 
L 2.965003 34.664869 
L 2.994116 35.964896 
L 3.023228 37.264923 
L 3.052341 38.564951 
L 3.081454 39.864978 
L 3.373675 41.020678 
L 3.665896 42.176377 
L 3.958116 43.332077 
L 4.250337 44.487776 
L 4.162634 45.614395 
L 4.074932 46.741013 
L 3.987229 47.867632 
L 3.899527 48.994251 
L 3.870232 50.077652 
L 3.840937 51.161053 
L 3.811642 52.244454 
L 3.782347 53.327855 
L 3.753052 54.411256 
L 3.723757 55.494657 
L 3.694463 56.578058 
L 3.665168 57.661459 
L 4.716871 58.81662 
L 5.768574 59.971781 
L 6.849027 60.636335 
L 7.929479 61.300889 
L 9.009931 61.965443 
L 10.090383 62.629997 
L 11.375718 63.785697 
L 12.661052 64.941397 
L 13.595576 65.57687 
L 14.5301 66.212343 
L 15.464624 66.847816 
L 16.399147 67.483289 
L 17.139707 68.128995 
L 17.880266 68.7747 
L 18.620825 69.420406 
L 19.361384 70.066111 
L 20.227129 70.576105 
L 21.092874 71.086099 
L 21.958618 71.596093 
L 22.824363 72.106088 
L 24.381175 73.071145 
L 25.937987 74.036203 
L 27.512631 74.765112 
L 29.087274 75.494021 
L 30.661918 76.222931 
L 32.236562 76.95184 
" style="fill:none;stroke:#4169e1;stroke-linecap:square;stroke-width:1.5;"/>
   </g>
   <g id="line2d_10">
    <path clip-path="url(#p372edbb40b)" d="M 23.741419 13.517613 
L 22.822907 14.916731 
L 23.224665 16.258226 
L 23.626423 17.599721 
L 23.087107 18.528696 
L 22.547791 19.457672 
L 20.918924 20.494355 
L 19.290058 21.531038 
L 18.200872 22.051264 
L 17.111686 22.571491 
L 16.022499 23.091717 
L 14.933313 23.611943 
L 14.203307 24.696825 
L 13.473302 25.781707 
L 12.743296 26.866589 
L 12.01329 27.951471 
L 11.852441 29.348166 
L 11.691593 30.744861 
L 11.530744 32.141555 
L 11.369895 33.53825 
L 11.853169 34.854164 
L 12.336443 36.170078 
L 12.819717 37.485993 
L 13.302991 38.801907 
L 14.317939 40.385204 
L 15.332888 41.968502 
L 16.347836 43.5518 
L 17.362784 45.135097 
L 17.568758 46.75717 
L 17.774732 48.379242 
L 17.980705 50.001314 
L 18.186679 51.623386 
L 18.649574 52.708268 
L 19.112469 53.79315 
L 19.575364 54.878032 
L 20.038259 55.962914 
L 20.945126 57.612452 
L 21.851992 59.26199 
L 22.758859 60.911527 
L 23.665726 62.561065 
L 24.368074 63.728074 
L 25.070423 64.895082 
L 25.772771 66.062091 
L 26.47512 67.2291 
L 27.353965 68.028019 
L 28.232811 68.826938 
L 29.111656 69.625857 
L 29.990502 70.424776 
" style="fill:none;stroke:#4169e1;stroke-linecap:square;stroke-width:1.5;"/>
   </g>
   <g id="line2d_11">
    <path clip-path="url(#p372edbb40b)" d="M 31.862461 15.328173 
L 33.255513 15.690339 
L 34.648565 16.052505 
L 36.041617 16.414671 
L 37.434669 16.776837 
L 37.823326 17.641727 
L 38.540231 19.239565 
L 39.257136 20.837403 
L 39.974041 22.435241 
L 40.690946 24.033079 
L 41.436236 25.522671 
L 42.181526 27.012263 
L 43.070197 28.56648 
L 43.958868 30.120697 
L 44.644477 31.485887 
L 45.330086 32.851077 
L 45.934178 33.70035 
L 46.538271 34.549622 
L 47.531748 36.0516 
L 48.525226 37.553579 
L 49.693381 38.882687 
L 50.861535 40.211796 
L 51.241095 41.136194 
L 51.620654 42.060592 
L 52.000213 42.98499 
L 52.379773 43.909388 
L 52.379773 45.065088 
L 52.379773 46.220787 
L 52.379773 47.376487 
L 52.379773 48.532186 
L 52.379773 49.976541 
L 52.379773 51.420897 
" style="fill:none;stroke:#008000;stroke-linecap:square;stroke-width:1.5;"/>
   </g>
   <g id="line2d_12">
    <path clip-path="url(#p372edbb40b)" d="M 42.506135 48.062582 
L 42.528334 49.247901 
L 42.550532 50.43322 
L 42.572731 51.61854 
L 42.594929 52.803859 
L 42.617128 53.989178 
L 42.639326 55.174497 
L 42.661525 56.359816 
L 42.683724 57.545135 
L 42.479206 59.076464 
L 42.274687 60.607793 
L 42.070169 62.139121 
L 41.865651 63.67045 
L 42.065075 65.370072 
L 42.257948 67.00453 
L 42.45082 68.638989 
L 42.684451 70.170048 
L 42.918082 71.701108 
L 43.151713 73.232168 
L 43.385344 74.763227 
L 43.589498 76.641104 
L 43.793653 78.518981 
L 43.997807 80.396859 
L 44.201961 82.274736 
L 44.348253 83.661468 
L 44.494546 85.048199 
L 44.640838 86.434931 
L 44.78713 87.821663 
L 44.962171 89.381803 
L 45.137213 90.941944 
L 45.312254 92.502084 
L 45.487295 94.062225 
" style="fill:none;stroke:#008000;stroke-linecap:square;stroke-width:1.5;"/>
   </g>
   <g id="line2d_13">
    <path clip-path="url(#p372edbb40b)" d="M 29.990502 70.424776 
L 30.496338 71.958529 
L 31.002175 73.492281 
L 31.619368 75.22206 
L 32.236562 76.95184 
L 32.403961 77.421444 
L 32.695818 78.663579 
L 32.987674 79.905713 
L 33.279531 81.147848 
L 33.571388 82.389983 
L 33.746793 83.747903 
L 33.922198 85.105823 
L 34.097603 86.463743 
L 34.273009 87.821663 
L 34.360711 88.861577 
L 34.448414 89.901491 
L 34.536116 90.941405 
L 34.623819 91.98132 
L 34.623819 93.050315 
L 34.623819 94.11931 
L 34.623819 95.188305 
L 34.623819 96.2573 
L 34.973174 96.719365 
" style="fill:none;stroke:#008000;stroke-linecap:square;stroke-width:1.5;"/>
   </g>
   <g id="line2d_14">
    <path clip-path="url(#p372edbb40b)" d="M 42.506135 48.062582 
L 40.958785 49.038411 
L 39.411434 50.014239 
L 38.594818 50.496768 
L 37.193032 51.420897 
L 35.791246 52.345025 
L 35.323984 53.674134 
L 34.856722 55.003242 
L 35.213355 56.058235 
L 35.569988 57.113228 
L 36.168622 57.891952 
L 36.767256 58.670676 
L 37.36589 59.4494 
L 37.964524 60.228124 
L 38.989661 61.513611 
L 40.014799 62.799098 
L 41.039937 64.084585 
L 42.065075 65.370072 
" style="fill:none;stroke:#008000;stroke-linecap:square;stroke-width:1.5;"/>
   </g>
   <g id="line2d_15">
    <path clip-path="url(#p372edbb40b)" d="M 29.936643 15.481118 
L 29.108381 16.367549 
L 28.280119 17.25398 
L 28.633841 18.276661 
L 28.987563 19.299342 
L 29.341284 20.322023 
L 29.695006 21.344704 
L 30.326028 22.281489 
L 30.95705 23.218273 
L 31.588072 24.155058 
L 32.219094 25.091842 
L 33.084475 25.79921 
L 33.949855 26.506578 
L 34.815236 27.213945 
L 35.680617 27.921313 
L 36.672275 28.740697 
L 37.663933 29.56008 
L 38.655591 30.379464 
L 39.647249 31.198847 
L 40.464593 32.41217 
L 41.281938 33.625493 
L 41.694977 35.258605 
L 42.108016 36.891718 
L 42.521055 38.52483 
L 42.934094 40.157942 
L 42.941373 41.171737 
L 42.948651 42.185532 
L 42.955929 43.199327 
L 42.963207 44.213123 
L 42.734671 46.137852 
L 42.506135 48.062582 
" style="fill:none;stroke:#008000;stroke-linecap:square;stroke-width:1.5;"/>
   </g>
   <g id="line2d_16">
    <path clip-path="url(#p372edbb40b)" d="M 12.19379 68.985806 
L 12.622113 69.924207 
L 13.050437 70.862607 
L 13.47876 71.801007 
L 13.907084 72.739407 
L 14.179289 72.91497 
L 14.676028 73.839368 
L 15.172767 74.763766 
L 15.669506 75.688164 
L 16.166244 76.612562 
L 16.604029 77.623664 
L 17.041815 78.634767 
L 17.4796 79.645869 
L 17.917385 80.656972 
L 18.326421 81.610451 
L 18.735457 82.56393 
L 19.144493 83.517409 
L 19.55353 84.470888 
L 20.196197 85.741834 
L 20.838864 87.012781 
L 21.481531 88.283727 
L 22.124198 89.554674 
L 22.883317 91.172438 
L 23.642435 92.790201 
L 24.781477 93.483567 
L 25.920519 94.176933 
L 27.059561 94.870299 
L 28.198603 95.563665 
L 29.133127 95.910483 
" style="fill:none;stroke:#008000;stroke-linecap:square;stroke-width:1.5;"/>
   </g>
   <g id="line2d_17">
    <path clip-path="url(#p372edbb40b)" d="M 23.626423 17.599721 
L 24.179568 18.741418 
L 24.732713 19.883116 
L 25.511483 21.491186 
L 25.80334 22.53137 
L 26.095197 23.571553 
L 26.387053 24.611737 
L 26.67891 25.65192 
L 26.620684 26.980759 
L 26.562459 28.309598 
L 26.504233 29.638437 
L 26.446007 30.967276 
L 26.270602 32.238492 
L 26.095197 33.509708 
L 25.919792 34.780923 
L 25.744386 36.052139 
L 25.890679 37.380978 
L 26.036971 38.709817 
L 26.183263 40.038656 
L 26.329556 41.367495 
L 27.001336 42.552007 
L 27.673116 43.736518 
L 28.344896 44.921029 
L 29.016676 46.10554 
L 29.69537 47.406914 
L 30.374064 48.708288 
L 31.052759 50.009661 
L 31.731453 51.311035 
L 31.753652 52.465119 
L 31.77585 53.619203 
L 31.798049 54.773287 
L 31.820247 55.927371 
L 31.703432 56.938473 
L 31.586616 57.949576 
L 31.469801 58.960678 
L 31.352985 59.971781 
L 31.471256 61.177834 
L 31.589528 62.383886 
L 31.707799 63.589939 
L 31.82607 64.795992 
L 31.367178 66.203188 
L 30.908286 67.610384 
L 30.449394 69.01758 
L 29.990502 70.424776 
" style="fill:none;stroke:#008000;stroke-linecap:square;stroke-width:1.5;"/>
   </g>
   <g id="line2d_18">
    <path clip-path="url(#p372edbb40b)" d="M 13.907084 72.739407 
L 14.968431 73.333816 
L 16.029778 73.928226 
L 17.091125 74.522636 
L 18.152472 75.117046 
L 19.213818 75.711456 
L 20.275165 76.305865 
L 21.336512 76.900275 
L 22.397859 77.494685 
L 22.954279 78.566642 
L 23.5107 79.638599 
L 24.06712 80.710556 
L 24.62354 81.782513 
L 25.072606 83.454669 
L 25.521673 85.126826 
L 25.996941 86.521635 
L 26.472209 87.916445 
L 27.1469 89.026369 
L 27.821591 90.136293 
L 28.441696 91.043189 
L 29.061801 91.950084 
" style="fill:none;stroke:#008000;stroke-linecap:square;stroke-width:1.5;"/>
   </g>
   <g id="line2d_19">
    <path clip-path="url(#p372edbb40b)" d="M 52.379773 51.420897 
L 52.410341 52.401033 
L 52.44091 53.38117 
L 52.630144 54.884495 
L 52.819378 56.38782 
L 53.008611 57.891145 
L 53.197845 59.39447 
L 53.606881 61.185642 
L 54.015917 62.976815 
L 54.147289 64.479063 
L 54.278661 65.981311 
L 54.410033 67.483559 
L 54.541405 68.985806 
L 54.672777 70.488054 
L 54.804149 71.990302 
L 54.935521 73.49255 
L 55.066893 74.994798 
L 54.950077 76.121416 
L 54.833262 77.248035 
L 54.716446 78.374654 
L 54.599631 79.501272 
L 54.322149 80.888004 
L 54.044666 82.274736 
L 53.767184 83.661468 
L 53.489702 85.048199 
L 53.21222 86.434931 
L 52.934737 87.821663 
L 52.657255 89.208395 
L 52.379773 90.595126 
L 52.204368 92.039481 
L 52.028962 93.483837 
" style="fill:none;stroke:#4169e1;stroke-linecap:square;stroke-width:1.5;"/>
   </g>
   <g id="line2d_20">
    <path clip-path="url(#p372edbb40b)" d="M 60.703149 91.517101 
L 61.56198 92.444461 
L 61.666786 93.731563 
L 61.327621 95.458112 
L 60.598343 95.998803 
" style="fill:none;stroke:#008000;stroke-linecap:square;stroke-width:1.5;"/>
   </g>
   <g id="line2d_21">
    <path clip-path="url(#p372edbb40b)" d="M 60.676948 80.647278 
L 61.535778 81.832059 
L 62.004496 83.506907 
L 62.134776 84.846248 
L 62.265056 86.185589 
L 62.030697 87.807661 
L 61.601282 88.760871 
L 61.171867 89.71408 
L 60.703149 91.517101 
" style="fill:none;stroke:#008000;stroke-linecap:square;stroke-width:1.5;"/>
   </g>
   <g id="line2d_22">
    <path clip-path="url(#p372edbb40b)" d="M 42.300889 16.085356 
L 40.530825 16.050889 
L 39.178531 16.496798 
L 37.823326 17.641727 
" style="fill:none;stroke:#008000;stroke-linecap:square;stroke-width:1.5;"/>
   </g>
   <g id="text_1">
    <g id="patch_2">
     <path d="M 46.665267 68.745368 
L 47.878268 86.92056 
L 49.849507 86.789001 
L 48.636507 68.613808 
z
" style="fill:#ffffff;"/>
    </g>
    <!-- Thunderbolt Triple -->
    <g style="fill:#808080;" transform="translate(47.101568 68.736294)rotate(-273.818222)scale(0.02 -0.02)">
     <defs>
      <path d="M -19 4666 
L 3928 4666 
L 3928 4134 
L 2272 4134 
L 2272 0 
L 1638 0 
L 1638 4134 
L -19 4134 
L -19 4666 
z
" id="DejaVuSans-54" transform="scale(0.015625)"/>
      <path d="M 3513 2113 
L 3513 0 
L 2938 0 
L 2938 2094 
Q 2938 2591 2744 2837 
Q 2550 3084 2163 3084 
Q 1697 3084 1428 2787 
Q 1159 2491 1159 1978 
L 1159 0 
L 581 0 
L 581 4863 
L 1159 4863 
L 1159 2956 
Q 1366 3272 1645 3428 
Q 1925 3584 2291 3584 
Q 2894 3584 3203 3211 
Q 3513 2838 3513 2113 
z
" id="DejaVuSans-68" transform="scale(0.015625)"/>
      <path d="M 544 1381 
L 544 3500 
L 1119 3500 
L 1119 1403 
Q 1119 906 1312 657 
Q 1506 409 1894 409 
Q 2359 409 2629 706 
Q 2900 1003 2900 1516 
L 2900 3500 
L 3475 3500 
L 3475 0 
L 2900 0 
L 2900 538 
Q 2691 219 2414 64 
Q 2138 -91 1772 -91 
Q 1169 -91 856 284 
Q 544 659 544 1381 
z
M 1991 3584 
L 1991 3584 
z
" id="DejaVuSans-75" transform="scale(0.015625)"/>
      <path d="M 3513 2113 
L 3513 0 
L 2938 0 
L 2938 2094 
Q 2938 2591 2744 2837 
Q 2550 3084 2163 3084 
Q 1697 3084 1428 2787 
Q 1159 2491 1159 1978 
L 1159 0 
L 581 0 
L 581 3500 
L 1159 3500 
L 1159 2956 
Q 1366 3272 1645 3428 
Q 1925 3584 2291 3584 
Q 2894 3584 3203 3211 
Q 3513 2838 3513 2113 
z
" id="DejaVuSans-6e" transform="scale(0.015625)"/>
      <path d="M 2906 2969 
L 2906 4863 
L 3481 4863 
L 3481 0 
L 2906 0 
L 2906 525 
Q 2725 213 2448 61 
Q 2172 -91 1784 -91 
Q 1150 -91 751 415 
Q 353 922 353 1747 
Q 353 2572 751 3078 
Q 1150 3584 1784 3584 
Q 2172 3584 2448 3432 
Q 2725 3281 2906 2969 
z
M 947 1747 
Q 947 1113 1208 752 
Q 1469 391 1925 391 
Q 2381 391 2643 752 
Q 2906 1113 2906 1747 
Q 2906 2381 2643 2742 
Q 2381 3103 1925 3103 
Q 1469 3103 1208 2742 
Q 947 2381 947 1747 
z
" id="DejaVuSans-64" transform="scale(0.015625)"/>
      <path d="M 3597 1894 
L 3597 1613 
L 953 1613 
Q 991 1019 1311 708 
Q 1631 397 2203 397 
Q 2534 397 2845 478 
Q 3156 559 3463 722 
L 3463 178 
Q 3153 47 2828 -22 
Q 2503 -91 2169 -91 
Q 1331 -91 842 396 
Q 353 884 353 1716 
Q 353 2575 817 3079 
Q 1281 3584 2069 3584 
Q 2775 3584 3186 3129 
Q 3597 2675 3597 1894 
z
M 3022 2063 
Q 3016 2534 2758 2815 
Q 2500 3097 2075 3097 
Q 1594 3097 1305 2825 
Q 1016 2553 972 2059 
L 3022 2063 
z
" id="DejaVuSans-65" transform="scale(0.015625)"/>
      <path d="M 2631 2963 
Q 2534 3019 2420 3045 
Q 2306 3072 2169 3072 
Q 1681 3072 1420 2755 
Q 1159 2438 1159 1844 
L 1159 0 
L 581 0 
L 581 3500 
L 1159 3500 
L 1159 2956 
Q 1341 3275 1631 3429 
Q 1922 3584 2338 3584 
Q 2397 3584 2469 3576 
Q 2541 3569 2628 3553 
L 2631 2963 
z
" id="DejaVuSans-72" transform="scale(0.015625)"/>
      <path d="M 3116 1747 
Q 3116 2381 2855 2742 
Q 2594 3103 2138 3103 
Q 1681 3103 1420 2742 
Q 1159 2381 1159 1747 
Q 1159 1113 1420 752 
Q 1681 391 2138 391 
Q 2594 391 2855 752 
Q 3116 1113 3116 1747 
z
M 1159 2969 
Q 1341 3281 1617 3432 
Q 1894 3584 2278 3584 
Q 2916 3584 3314 3078 
Q 3713 2572 3713 1747 
Q 3713 922 3314 415 
Q 2916 -91 2278 -91 
Q 1894 -91 1617 61 
Q 1341 213 1159 525 
L 1159 0 
L 581 0 
L 581 4863 
L 1159 4863 
L 1159 2969 
z
" id="DejaVuSans-62" transform="scale(0.015625)"/>
      <path d="M 1959 3097 
Q 1497 3097 1228 2736 
Q 959 2375 959 1747 
Q 959 1119 1226 758 
Q 1494 397 1959 397 
Q 2419 397 2687 759 
Q 2956 1122 2956 1747 
Q 2956 2369 2687 2733 
Q 2419 3097 1959 3097 
z
M 1959 3584 
Q 2709 3584 3137 3096 
Q 3566 2609 3566 1747 
Q 3566 888 3137 398 
Q 2709 -91 1959 -91 
Q 1206 -91 779 398 
Q 353 888 353 1747 
Q 353 2609 779 3096 
Q 1206 3584 1959 3584 
z
" id="DejaVuSans-6f" transform="scale(0.015625)"/>
      <path d="M 603 4863 
L 1178 4863 
L 1178 0 
L 603 0 
L 603 4863 
z
" id="DejaVuSans-6c" transform="scale(0.015625)"/>
      <path d="M 1172 4494 
L 1172 3500 
L 2356 3500 
L 2356 3053 
L 1172 3053 
L 1172 1153 
Q 1172 725 1289 603 
Q 1406 481 1766 481 
L 2356 481 
L 2356 0 
L 1766 0 
Q 1100 0 847 248 
Q 594 497 594 1153 
L 594 3053 
L 172 3053 
L 172 3500 
L 594 3500 
L 594 4494 
L 1172 4494 
z
" id="DejaVuSans-74" transform="scale(0.015625)"/>
      <path id="DejaVuSans-20" transform="scale(0.015625)"/>
      <path d="M 603 3500 
L 1178 3500 
L 1178 0 
L 603 0 
L 603 3500 
z
M 603 4863 
L 1178 4863 
L 1178 4134 
L 603 4134 
L 603 4863 
z
" id="DejaVuSans-69" transform="scale(0.015625)"/>
      <path d="M 1159 525 
L 1159 -1331 
L 581 -1331 
L 581 3500 
L 1159 3500 
L 1159 2969 
Q 1341 3281 1617 3432 
Q 1894 3584 2278 3584 
Q 2916 3584 3314 3078 
Q 3713 2572 3713 1747 
Q 3713 922 3314 415 
Q 2916 -91 2278 -91 
Q 1894 -91 1617 61 
Q 1341 213 1159 525 
z
M 3116 1747 
Q 3116 2381 2855 2742 
Q 2594 3103 2138 3103 
Q 1681 3103 1420 2742 
Q 1159 2381 1159 1747 
Q 1159 1113 1420 752 
Q 1681 391 2138 391 
Q 2594 391 2855 752 
Q 3116 1113 3116 1747 
z
" id="DejaVuSans-70" transform="scale(0.015625)"/>
     </defs>
     <use xlink:href="#DejaVuSans-54"/>
     <use x="61.083984" xlink:href="#DejaVuSans-68"/>
     <use x="124.462891" xlink:href="#DejaVuSans-75"/>
     <use x="187.841797" xlink:href="#DejaVuSans-6e"/>
     <use x="251.220703" xlink:href="#DejaVuSans-64"/>
     <use x="314.697266" xlink:href="#DejaVuSans-65"/>
     <use x="376.220703" xlink:href="#DejaVuSans-72"/>
     <use x="417.333984" xlink:href="#DejaVuSans-62"/>
     <use x="480.810547" xlink:href="#DejaVuSans-6f"/>
     <use x="541.992188" xlink:href="#DejaVuSans-6c"/>
     <use x="569.775391" xlink:href="#DejaVuSans-74"/>
     <use x="608.984375" xlink:href="#DejaVuSans-20"/>
     <use x="640.771484" xlink:href="#DejaVuSans-54"/>
     <use x="687.105469" xlink:href="#DejaVuSans-72"/>
     <use x="728.21875" xlink:href="#DejaVuSans-69"/>
     <use x="756.001953" xlink:href="#DejaVuSans-70"/>
     <use x="819.478516" xlink:href="#DejaVuSans-6c"/>
     <use x="847.261719" xlink:href="#DejaVuSans-65"/>
    </g>
   </g>
   <g id="text_2">
    <g id="patch_3">
     <path d="M 34.966296 75.454216 
L 36.695551 89.816109 
L 38.657009 89.579939 
L 36.927754 75.218045 
z
" style="fill:#ffffff;"/>
    </g>
    <!-- Stardust Triple -->
    <g style="fill:#808080;" transform="translate(35.401499 75.42196)rotate(-276.865691)scale(0.02 -0.02)">
     <defs>
      <path d="M 3425 4513 
L 3425 3897 
Q 3066 4069 2747 4153 
Q 2428 4238 2131 4238 
Q 1616 4238 1336 4038 
Q 1056 3838 1056 3469 
Q 1056 3159 1242 3001 
Q 1428 2844 1947 2747 
L 2328 2669 
Q 3034 2534 3370 2195 
Q 3706 1856 3706 1288 
Q 3706 609 3251 259 
Q 2797 -91 1919 -91 
Q 1588 -91 1214 -16 
Q 841 59 441 206 
L 441 856 
Q 825 641 1194 531 
Q 1563 422 1919 422 
Q 2459 422 2753 634 
Q 3047 847 3047 1241 
Q 3047 1584 2836 1778 
Q 2625 1972 2144 2069 
L 1759 2144 
Q 1053 2284 737 2584 
Q 422 2884 422 3419 
Q 422 4038 858 4394 
Q 1294 4750 2059 4750 
Q 2388 4750 2728 4690 
Q 3069 4631 3425 4513 
z
" id="DejaVuSans-53" transform="scale(0.015625)"/>
      <path d="M 2194 1759 
Q 1497 1759 1228 1600 
Q 959 1441 959 1056 
Q 959 750 1161 570 
Q 1363 391 1709 391 
Q 2188 391 2477 730 
Q 2766 1069 2766 1631 
L 2766 1759 
L 2194 1759 
z
M 3341 1997 
L 3341 0 
L 2766 0 
L 2766 531 
Q 2569 213 2275 61 
Q 1981 -91 1556 -91 
Q 1019 -91 701 211 
Q 384 513 384 1019 
Q 384 1609 779 1909 
Q 1175 2209 1959 2209 
L 2766 2209 
L 2766 2266 
Q 2766 2663 2505 2880 
Q 2244 3097 1772 3097 
Q 1472 3097 1187 3025 
Q 903 2953 641 2809 
L 641 3341 
Q 956 3463 1253 3523 
Q 1550 3584 1831 3584 
Q 2591 3584 2966 3190 
Q 3341 2797 3341 1997 
z
" id="DejaVuSans-61" transform="scale(0.015625)"/>
      <path d="M 2834 3397 
L 2834 2853 
Q 2591 2978 2328 3040 
Q 2066 3103 1784 3103 
Q 1356 3103 1142 2972 
Q 928 2841 928 2578 
Q 928 2378 1081 2264 
Q 1234 2150 1697 2047 
L 1894 2003 
Q 2506 1872 2764 1633 
Q 3022 1394 3022 966 
Q 3022 478 2636 193 
Q 2250 -91 1575 -91 
Q 1294 -91 989 -36 
Q 684 19 347 128 
L 347 722 
Q 666 556 975 473 
Q 1284 391 1588 391 
Q 1994 391 2212 530 
Q 2431 669 2431 922 
Q 2431 1156 2273 1281 
Q 2116 1406 1581 1522 
L 1381 1569 
Q 847 1681 609 1914 
Q 372 2147 372 2553 
Q 372 3047 722 3315 
Q 1072 3584 1716 3584 
Q 2034 3584 2315 3537 
Q 2597 3491 2834 3397 
z
" id="DejaVuSans-73" transform="scale(0.015625)"/>
     </defs>
     <use xlink:href="#DejaVuSans-53"/>
     <use x="63.476562" xlink:href="#DejaVuSans-74"/>
     <use x="102.685547" xlink:href="#DejaVuSans-61"/>
     <use x="163.964844" xlink:href="#DejaVuSans-72"/>
     <use x="203.328125" xlink:href="#DejaVuSans-64"/>
     <use x="266.804688" xlink:href="#DejaVuSans-75"/>
     <use x="330.183594" xlink:href="#DejaVuSans-73"/>
     <use x="382.283203" xlink:href="#DejaVuSans-74"/>
     <use x="421.492188" xlink:href="#DejaVuSans-20"/>
     <use x="453.279297" xlink:href="#DejaVuSans-54"/>
     <use x="499.613281" xlink:href="#DejaVuSans-72"/>
     <use x="540.726562" xlink:href="#DejaVuSans-69"/>
     <use x="568.509766" xlink:href="#DejaVuSans-70"/>
     <use x="631.986328" xlink:href="#DejaVuSans-6c"/>
     <use x="659.769531" xlink:href="#DejaVuSans-65"/>
    </g>
   </g>
   <g id="text_3">
    <g id="patch_4">
     <path d="M 38.296429 70.788484 
L 40.165533 88.760929 
L 42.13056 88.556569 
L 40.261456 70.584125 
z
" style="fill:#ffffff;"/>
    </g>
    <!-- Avalanche Double -->
    <g style="fill:#808080;" transform="translate(38.732097 70.763284)rotate(-275.937321)scale(0.02 -0.02)">
     <defs>
      <path d="M 2188 4044 
L 1331 1722 
L 3047 1722 
L 2188 4044 
z
M 1831 4666 
L 2547 4666 
L 4325 0 
L 3669 0 
L 3244 1197 
L 1141 1197 
L 716 0 
L 50 0 
L 1831 4666 
z
" id="DejaVuSans-41" transform="scale(0.015625)"/>
      <path d="M 191 3500 
L 800 3500 
L 1894 563 
L 2988 3500 
L 3597 3500 
L 2284 0 
L 1503 0 
L 191 3500 
z
" id="DejaVuSans-76" transform="scale(0.015625)"/>
      <path d="M 3122 3366 
L 3122 2828 
Q 2878 2963 2633 3030 
Q 2388 3097 2138 3097 
Q 1578 3097 1268 2742 
Q 959 2388 959 1747 
Q 959 1106 1268 751 
Q 1578 397 2138 397 
Q 2388 397 2633 464 
Q 2878 531 3122 666 
L 3122 134 
Q 2881 22 2623 -34 
Q 2366 -91 2075 -91 
Q 1284 -91 818 406 
Q 353 903 353 1747 
Q 353 2603 823 3093 
Q 1294 3584 2113 3584 
Q 2378 3584 2631 3529 
Q 2884 3475 3122 3366 
z
" id="DejaVuSans-63" transform="scale(0.015625)"/>
      <path d="M 1259 4147 
L 1259 519 
L 2022 519 
Q 2988 519 3436 956 
Q 3884 1394 3884 2338 
Q 3884 3275 3436 3711 
Q 2988 4147 2022 4147 
L 1259 4147 
z
M 628 4666 
L 1925 4666 
Q 3281 4666 3915 4102 
Q 4550 3538 4550 2338 
Q 4550 1131 3912 565 
Q 3275 0 1925 0 
L 628 0 
L 628 4666 
z
" id="DejaVuSans-44" transform="scale(0.015625)"/>
     </defs>
     <use xlink:href="#DejaVuSans-41"/>
     <use x="62.533203" xlink:href="#DejaVuSans-76"/>
     <use x="121.712891" xlink:href="#DejaVuSans-61"/>
     <use x="182.992188" xlink:href="#DejaVuSans-6c"/>
     <use x="210.775391" xlink:href="#DejaVuSans-61"/>
     <use x="272.054688" xlink:href="#DejaVuSans-6e"/>
     <use x="335.433594" xlink:href="#DejaVuSans-63"/>
     <use x="390.414062" xlink:href="#DejaVuSans-68"/>
     <use x="453.792969" xlink:href="#DejaVuSans-65"/>
     <use x="515.316406" xlink:href="#DejaVuSans-20"/>
     <use x="547.103516" xlink:href="#DejaVuSans-44"/>
     <use x="624.105469" xlink:href="#DejaVuSans-6f"/>
     <use x="685.287109" xlink:href="#DejaVuSans-75"/>
     <use x="748.666016" xlink:href="#DejaVuSans-62"/>
     <use x="812.142578" xlink:href="#DejaVuSans-6c"/>
     <use x="839.925781" xlink:href="#DejaVuSans-65"/>
    </g>
   </g>
   <g id="text_4">
    <g id="patch_5">
     <path d="M 12.095863 73.450511 
L 17.956664 89.653433 
L 19.814489 88.981434 
L 13.953688 72.778513 
z
" style="fill:#ffffff;"/>
    </g>
    <!-- Northstar Double -->
    <g style="fill:#808080;" transform="translate(12.51261 73.321037)rotate(-289.885696)scale(0.02 -0.02)">
     <defs>
      <path d="M 628 4666 
L 1478 4666 
L 3547 763 
L 3547 4666 
L 4159 4666 
L 4159 0 
L 3309 0 
L 1241 3903 
L 1241 0 
L 628 0 
L 628 4666 
z
" id="DejaVuSans-4e" transform="scale(0.015625)"/>
     </defs>
     <use xlink:href="#DejaVuSans-4e"/>
     <use x="74.804688" xlink:href="#DejaVuSans-6f"/>
     <use x="135.986328" xlink:href="#DejaVuSans-72"/>
     <use x="177.099609" xlink:href="#DejaVuSans-74"/>
     <use x="216.308594" xlink:href="#DejaVuSans-68"/>
     <use x="279.6875" xlink:href="#DejaVuSans-73"/>
     <use x="331.787109" xlink:href="#DejaVuSans-74"/>
     <use x="370.996094" xlink:href="#DejaVuSans-61"/>
     <use x="432.275391" xlink:href="#DejaVuSans-72"/>
     <use x="473.388672" xlink:href="#DejaVuSans-20"/>
     <use x="505.175781" xlink:href="#DejaVuSans-44"/>
     <use x="582.177734" xlink:href="#DejaVuSans-6f"/>
     <use x="643.359375" xlink:href="#DejaVuSans-75"/>
     <use x="706.738281" xlink:href="#DejaVuSans-62"/>
     <use x="770.214844" xlink:href="#DejaVuSans-6c"/>
     <use x="797.998047" xlink:href="#DejaVuSans-65"/>
    </g>
   </g>
   <g id="text_5">
    <g id="patch_6">
     <path d="M 19.475352 39.821917 
L 21.575976 27.885661 
L 19.630252 27.543239 
L 17.529628 39.479495 
z
" style="fill:#ffffff;"/>
    </g>
    <!-- Tester 14.0° -->
    <g style="fill:#008000;" transform="translate(19.049479 39.726661)rotate(-80.018902)scale(0.02 -0.02)">
     <defs>
      <path d="M 794 531 
L 1825 531 
L 1825 4091 
L 703 3866 
L 703 4441 
L 1819 4666 
L 2450 4666 
L 2450 531 
L 3481 531 
L 3481 0 
L 794 0 
L 794 531 
z
" id="DejaVuSans-31" transform="scale(0.015625)"/>
      <path d="M 2419 4116 
L 825 1625 
L 2419 1625 
L 2419 4116 
z
M 2253 4666 
L 3047 4666 
L 3047 1625 
L 3713 1625 
L 3713 1100 
L 3047 1100 
L 3047 0 
L 2419 0 
L 2419 1100 
L 313 1100 
L 313 1709 
L 2253 4666 
z
" id="DejaVuSans-34" transform="scale(0.015625)"/>
      <path d="M 684 794 
L 1344 794 
L 1344 0 
L 684 0 
L 684 794 
z
" id="DejaVuSans-2e" transform="scale(0.015625)"/>
      <path d="M 2034 4250 
Q 1547 4250 1301 3770 
Q 1056 3291 1056 2328 
Q 1056 1369 1301 889 
Q 1547 409 2034 409 
Q 2525 409 2770 889 
Q 3016 1369 3016 2328 
Q 3016 3291 2770 3770 
Q 2525 4250 2034 4250 
z
M 2034 4750 
Q 2819 4750 3233 4129 
Q 3647 3509 3647 2328 
Q 3647 1150 3233 529 
Q 2819 -91 2034 -91 
Q 1250 -91 836 529 
Q 422 1150 422 2328 
Q 422 3509 836 4129 
Q 1250 4750 2034 4750 
z
" id="DejaVuSans-30" transform="scale(0.015625)"/>
      <path d="M 1600 4347 
Q 1350 4347 1178 4173 
Q 1006 4000 1006 3750 
Q 1006 3503 1178 3333 
Q 1350 3163 1600 3163 
Q 1850 3163 2022 3333 
Q 2194 3503 2194 3750 
Q 2194 3997 2020 4172 
Q 1847 4347 1600 4347 
z
M 1600 4750 
Q 1800 4750 1984 4673 
Q 2169 4597 2303 4453 
Q 2447 4313 2519 4134 
Q 2591 3956 2591 3750 
Q 2591 3338 2302 3052 
Q 2013 2766 1594 2766 
Q 1172 2766 890 3047 
Q 609 3328 609 3750 
Q 609 4169 896 4459 
Q 1184 4750 1600 4750 
z
" id="DejaVuSans-b0" transform="scale(0.015625)"/>
     </defs>
     <use xlink:href="#DejaVuSans-54"/>
     <use x="44.083984" xlink:href="#DejaVuSans-65"/>
     <use x="105.607422" xlink:href="#DejaVuSans-73"/>
     <use x="157.707031" xlink:href="#DejaVuSans-74"/>
     <use x="196.916016" xlink:href="#DejaVuSans-65"/>
     <use x="258.439453" xlink:href="#DejaVuSans-72"/>
     <use x="299.552734" xlink:href="#DejaVuSans-20"/>
     <use x="331.339844" xlink:href="#DejaVuSans-31"/>
     <use x="394.962891" xlink:href="#DejaVuSans-34"/>
     <use x="458.585938" xlink:href="#DejaVuSans-2e"/>
     <use x="490.373047" xlink:href="#DejaVuSans-30"/>
     <use x="553.996094" xlink:href="#DejaVuSans-b0"/>
    </g>
   </g>
   <g id="text_6">
    <g id="patch_7">
     <path d="M 3.864396 41.752105 
L 4.099279 24.426509 
L 2.123836 24.399728 
L 1.888952 41.725324 
z
" style="fill:#ffffff;"/>
    </g>
    <!-- Dom's Way 17.5° -->
    <g style="fill:#4169e1;" transform="translate(3.428769 41.726197)rotate(-89.223287)scale(0.02 -0.02)">
     <defs>
      <path d="M 3328 2828 
Q 3544 3216 3844 3400 
Q 4144 3584 4550 3584 
Q 5097 3584 5394 3201 
Q 5691 2819 5691 2113 
L 5691 0 
L 5113 0 
L 5113 2094 
Q 5113 2597 4934 2840 
Q 4756 3084 4391 3084 
Q 3944 3084 3684 2787 
Q 3425 2491 3425 1978 
L 3425 0 
L 2847 0 
L 2847 2094 
Q 2847 2600 2669 2842 
Q 2491 3084 2119 3084 
Q 1678 3084 1418 2786 
Q 1159 2488 1159 1978 
L 1159 0 
L 581 0 
L 581 3500 
L 1159 3500 
L 1159 2956 
Q 1356 3278 1631 3431 
Q 1906 3584 2284 3584 
Q 2666 3584 2933 3390 
Q 3200 3197 3328 2828 
z
" id="DejaVuSans-6d" transform="scale(0.015625)"/>
      <path d="M 1147 4666 
L 1147 2931 
L 616 2931 
L 616 4666 
L 1147 4666 
z
" id="DejaVuSans-27" transform="scale(0.015625)"/>
      <path d="M 213 4666 
L 850 4666 
L 1831 722 
L 2809 4666 
L 3519 4666 
L 4500 722 
L 5478 4666 
L 6119 4666 
L 4947 0 
L 4153 0 
L 3169 4050 
L 2175 0 
L 1381 0 
L 213 4666 
z
" id="DejaVuSans-57" transform="scale(0.015625)"/>
      <path d="M 2059 -325 
Q 1816 -950 1584 -1140 
Q 1353 -1331 966 -1331 
L 506 -1331 
L 506 -850 
L 844 -850 
Q 1081 -850 1212 -737 
Q 1344 -625 1503 -206 
L 1606 56 
L 191 3500 
L 800 3500 
L 1894 763 
L 2988 3500 
L 3597 3500 
L 2059 -325 
z
" id="DejaVuSans-79" transform="scale(0.015625)"/>
      <path d="M 525 4666 
L 3525 4666 
L 3525 4397 
L 1831 0 
L 1172 0 
L 2766 4134 
L 525 4134 
L 525 4666 
z
" id="DejaVuSans-37" transform="scale(0.015625)"/>
      <path d="M 691 4666 
L 3169 4666 
L 3169 4134 
L 1269 4134 
L 1269 2991 
Q 1406 3038 1543 3061 
Q 1681 3084 1819 3084 
Q 2600 3084 3056 2656 
Q 3513 2228 3513 1497 
Q 3513 744 3044 326 
Q 2575 -91 1722 -91 
Q 1428 -91 1123 -41 
Q 819 9 494 109 
L 494 744 
Q 775 591 1075 516 
Q 1375 441 1709 441 
Q 2250 441 2565 725 
Q 2881 1009 2881 1497 
Q 2881 1984 2565 2268 
Q 2250 2553 1709 2553 
Q 1456 2553 1204 2497 
Q 953 2441 691 2322 
L 691 4666 
z
" id="DejaVuSans-35" transform="scale(0.015625)"/>
     </defs>
     <use xlink:href="#DejaVuSans-44"/>
     <use x="77.001953" xlink:href="#DejaVuSans-6f"/>
     <use x="138.183594" xlink:href="#DejaVuSans-6d"/>
     <use x="235.595703" xlink:href="#DejaVuSans-27"/>
     <use x="263.085938" xlink:href="#DejaVuSans-73"/>
     <use x="315.185547" xlink:href="#DejaVuSans-20"/>
     <use x="346.972656" xlink:href="#DejaVuSans-57"/>
     <use x="439.474609" xlink:href="#DejaVuSans-61"/>
     <use x="500.753906" xlink:href="#DejaVuSans-79"/>
     <use x="559.933594" xlink:href="#DejaVuSans-20"/>
     <use x="591.720703" xlink:href="#DejaVuSans-31"/>
     <use x="655.34375" xlink:href="#DejaVuSans-37"/>
     <use x="718.966797" xlink:href="#DejaVuSans-2e"/>
     <use x="750.753906" xlink:href="#DejaVuSans-35"/>
     <use x="814.376953" xlink:href="#DejaVuSans-b0"/>
    </g>
   </g>
   <g id="text_7">
    <g id="patch_8">
     <path d="M 18.619686 53.937654 
L 23.254294 65.330754 
L 25.084299 64.586325 
L 20.449691 53.193225 
z
" style="fill:#ffffff;"/>
    </g>
    <!-- Laurel 18.4° -->
    <g style="fill:#4169e1;" transform="translate(19.031028 53.791916)rotate(-292.136036)scale(0.02 -0.02)">
     <defs>
      <path d="M 628 4666 
L 1259 4666 
L 1259 531 
L 3531 531 
L 3531 0 
L 628 0 
L 628 4666 
z
" id="DejaVuSans-4c" transform="scale(0.015625)"/>
      <path d="M 2034 2216 
Q 1584 2216 1326 1975 
Q 1069 1734 1069 1313 
Q 1069 891 1326 650 
Q 1584 409 2034 409 
Q 2484 409 2743 651 
Q 3003 894 3003 1313 
Q 3003 1734 2745 1975 
Q 2488 2216 2034 2216 
z
M 1403 2484 
Q 997 2584 770 2862 
Q 544 3141 544 3541 
Q 544 4100 942 4425 
Q 1341 4750 2034 4750 
Q 2731 4750 3128 4425 
Q 3525 4100 3525 3541 
Q 3525 3141 3298 2862 
Q 3072 2584 2669 2484 
Q 3125 2378 3379 2068 
Q 3634 1759 3634 1313 
Q 3634 634 3220 271 
Q 2806 -91 2034 -91 
Q 1263 -91 848 271 
Q 434 634 434 1313 
Q 434 1759 690 2068 
Q 947 2378 1403 2484 
z
M 1172 3481 
Q 1172 3119 1398 2916 
Q 1625 2713 2034 2713 
Q 2441 2713 2670 2916 
Q 2900 3119 2900 3481 
Q 2900 3844 2670 4047 
Q 2441 4250 2034 4250 
Q 1625 4250 1398 4047 
Q 1172 3844 1172 3481 
z
" id="DejaVuSans-38" transform="scale(0.015625)"/>
     </defs>
     <use xlink:href="#DejaVuSans-4c"/>
     <use x="55.712891" xlink:href="#DejaVuSans-61"/>
     <use x="116.992188" xlink:href="#DejaVuSans-75"/>
     <use x="180.371094" xlink:href="#DejaVuSans-72"/>
     <use x="219.234375" xlink:href="#DejaVuSans-65"/>
     <use x="280.757812" xlink:href="#DejaVuSans-6c"/>
     <use x="308.541016" xlink:href="#DejaVuSans-20"/>
     <use x="340.328125" xlink:href="#DejaVuSans-31"/>
     <use x="403.951172" xlink:href="#DejaVuSans-38"/>
     <use x="467.574219" xlink:href="#DejaVuSans-2e"/>
     <use x="499.361328" xlink:href="#DejaVuSans-34"/>
     <use x="562.984375" xlink:href="#DejaVuSans-b0"/>
    </g>
   </g>
   <g id="text_8">
    <g id="patch_9">
     <path d="M 39.237472 21.496226 
L 46.860779 39.51495 
L 48.680265 38.745168 
L 41.056958 20.726443 
z
" style="fill:#ffffff;"/>
    </g>
    <!-- Steeplechase 11.5° -->
    <g style="fill:#008000;" transform="translate(39.646749 21.344787)rotate(-292.9321)scale(0.02 -0.02)">
     <use xlink:href="#DejaVuSans-53"/>
     <use x="63.476562" xlink:href="#DejaVuSans-74"/>
     <use x="102.685547" xlink:href="#DejaVuSans-65"/>
     <use x="164.208984" xlink:href="#DejaVuSans-65"/>
     <use x="225.732422" xlink:href="#DejaVuSans-70"/>
     <use x="289.208984" xlink:href="#DejaVuSans-6c"/>
     <use x="316.992188" xlink:href="#DejaVuSans-65"/>
     <use x="378.515625" xlink:href="#DejaVuSans-63"/>
     <use x="433.496094" xlink:href="#DejaVuSans-68"/>
     <use x="496.875" xlink:href="#DejaVuSans-61"/>
     <use x="558.154297" xlink:href="#DejaVuSans-73"/>
     <use x="610.253906" xlink:href="#DejaVuSans-65"/>
     <use x="671.777344" xlink:href="#DejaVuSans-20"/>
     <use x="703.564453" xlink:href="#DejaVuSans-31"/>
     <use x="767.1875" xlink:href="#DejaVuSans-31"/>
     <use x="830.810547" xlink:href="#DejaVuSans-2e"/>
     <use x="862.597656" xlink:href="#DejaVuSans-35"/>
     <use x="926.220703" xlink:href="#DejaVuSans-b0"/>
    </g>
   </g>
   <g id="text_9">
    <g id="patch_10">
     <path d="M 41.481781 66.708285 
L 43.325757 83.039827 
L 45.288908 82.818169 
L 43.444932 66.486628 
z
" style="fill:#ffffff;"/>
    </g>
    <!-- Avalanche 16.7° -->
    <g style="fill:#008000;" transform="translate(41.91721 66.679248)rotate(-276.441921)scale(0.02 -0.02)">
     <defs>
      <path d="M 2113 2584 
Q 1688 2584 1439 2293 
Q 1191 2003 1191 1497 
Q 1191 994 1439 701 
Q 1688 409 2113 409 
Q 2538 409 2786 701 
Q 3034 994 3034 1497 
Q 3034 2003 2786 2293 
Q 2538 2584 2113 2584 
z
M 3366 4563 
L 3366 3988 
Q 3128 4100 2886 4159 
Q 2644 4219 2406 4219 
Q 1781 4219 1451 3797 
Q 1122 3375 1075 2522 
Q 1259 2794 1537 2939 
Q 1816 3084 2150 3084 
Q 2853 3084 3261 2657 
Q 3669 2231 3669 1497 
Q 3669 778 3244 343 
Q 2819 -91 2113 -91 
Q 1303 -91 875 529 
Q 447 1150 447 2328 
Q 447 3434 972 4092 
Q 1497 4750 2381 4750 
Q 2619 4750 2861 4703 
Q 3103 4656 3366 4563 
z
" id="DejaVuSans-36" transform="scale(0.015625)"/>
     </defs>
     <use xlink:href="#DejaVuSans-41"/>
     <use x="62.533203" xlink:href="#DejaVuSans-76"/>
     <use x="121.712891" xlink:href="#DejaVuSans-61"/>
     <use x="182.992188" xlink:href="#DejaVuSans-6c"/>
     <use x="210.775391" xlink:href="#DejaVuSans-61"/>
     <use x="272.054688" xlink:href="#DejaVuSans-6e"/>
     <use x="335.433594" xlink:href="#DejaVuSans-63"/>
     <use x="390.414062" xlink:href="#DejaVuSans-68"/>
     <use x="453.792969" xlink:href="#DejaVuSans-65"/>
     <use x="515.316406" xlink:href="#DejaVuSans-20"/>
     <use x="547.103516" xlink:href="#DejaVuSans-31"/>
     <use x="610.726562" xlink:href="#DejaVuSans-36"/>
     <use x="674.349609" xlink:href="#DejaVuSans-2e"/>
     <use x="706.136719" xlink:href="#DejaVuSans-37"/>
     <use x="769.759766" xlink:href="#DejaVuSans-b0"/>
    </g>
   </g>
   <g id="text_10">
    <g id="patch_11">
     <path d="M 32.24629 77.953611 
L 33.631444 92.446004 
L 35.598107 92.258034 
L 34.212952 77.765641 
z
" style="fill:#ffffff;"/>
    </g>
    <!-- Stardust 13.5° -->
    <g style="fill:#008000;" transform="translate(32.682153 77.932043)rotate(-275.459633)scale(0.02 -0.02)">
     <defs>
      <path d="M 2597 2516 
Q 3050 2419 3304 2112 
Q 3559 1806 3559 1356 
Q 3559 666 3084 287 
Q 2609 -91 1734 -91 
Q 1441 -91 1130 -33 
Q 819 25 488 141 
L 488 750 
Q 750 597 1062 519 
Q 1375 441 1716 441 
Q 2309 441 2620 675 
Q 2931 909 2931 1356 
Q 2931 1769 2642 2001 
Q 2353 2234 1838 2234 
L 1294 2234 
L 1294 2753 
L 1863 2753 
Q 2328 2753 2575 2939 
Q 2822 3125 2822 3475 
Q 2822 3834 2567 4026 
Q 2313 4219 1838 4219 
Q 1578 4219 1281 4162 
Q 984 4106 628 3988 
L 628 4550 
Q 988 4650 1302 4700 
Q 1616 4750 1894 4750 
Q 2613 4750 3031 4423 
Q 3450 4097 3450 3541 
Q 3450 3153 3228 2886 
Q 3006 2619 2597 2516 
z
" id="DejaVuSans-33" transform="scale(0.015625)"/>
     </defs>
     <use xlink:href="#DejaVuSans-53"/>
     <use x="63.476562" xlink:href="#DejaVuSans-74"/>
     <use x="102.685547" xlink:href="#DejaVuSans-61"/>
     <use x="163.964844" xlink:href="#DejaVuSans-72"/>
     <use x="203.328125" xlink:href="#DejaVuSans-64"/>
     <use x="266.804688" xlink:href="#DejaVuSans-75"/>
     <use x="330.183594" xlink:href="#DejaVuSans-73"/>
     <use x="382.283203" xlink:href="#DejaVuSans-74"/>
     <use x="421.492188" xlink:href="#DejaVuSans-20"/>
     <use x="453.279297" xlink:href="#DejaVuSans-31"/>
     <use x="516.902344" xlink:href="#DejaVuSans-33"/>
     <use x="580.525391" xlink:href="#DejaVuSans-2e"/>
     <use x="612.3125" xlink:href="#DejaVuSans-35"/>
     <use x="675.935547" xlink:href="#DejaVuSans-b0"/>
    </g>
   </g>
   <g id="text_11">
    <g id="patch_12">
     <path d="M 27.384471 17.60635 
L 35.285547 33.458624 
L 37.053717 32.577334 
L 29.152641 16.72506 
z
" style="fill:#ffffff;"/>
    </g>
    <!-- Boomerang 10.7° -->
    <g style="fill:#008000;" transform="translate(27.783554 17.429786)rotate(-296.492542)scale(0.02 -0.02)">
     <defs>
      <path d="M 1259 2228 
L 1259 519 
L 2272 519 
Q 2781 519 3026 730 
Q 3272 941 3272 1375 
Q 3272 1813 3026 2020 
Q 2781 2228 2272 2228 
L 1259 2228 
z
M 1259 4147 
L 1259 2741 
L 2194 2741 
Q 2656 2741 2882 2914 
Q 3109 3088 3109 3444 
Q 3109 3797 2882 3972 
Q 2656 4147 2194 4147 
L 1259 4147 
z
M 628 4666 
L 2241 4666 
Q 2963 4666 3353 4366 
Q 3744 4066 3744 3513 
Q 3744 3084 3544 2831 
Q 3344 2578 2956 2516 
Q 3422 2416 3680 2098 
Q 3938 1781 3938 1306 
Q 3938 681 3513 340 
Q 3088 0 2303 0 
L 628 0 
L 628 4666 
z
" id="DejaVuSans-42" transform="scale(0.015625)"/>
      <path d="M 2906 1791 
Q 2906 2416 2648 2759 
Q 2391 3103 1925 3103 
Q 1463 3103 1205 2759 
Q 947 2416 947 1791 
Q 947 1169 1205 825 
Q 1463 481 1925 481 
Q 2391 481 2648 825 
Q 2906 1169 2906 1791 
z
M 3481 434 
Q 3481 -459 3084 -895 
Q 2688 -1331 1869 -1331 
Q 1566 -1331 1297 -1286 
Q 1028 -1241 775 -1147 
L 775 -588 
Q 1028 -725 1275 -790 
Q 1522 -856 1778 -856 
Q 2344 -856 2625 -561 
Q 2906 -266 2906 331 
L 2906 616 
Q 2728 306 2450 153 
Q 2172 0 1784 0 
Q 1141 0 747 490 
Q 353 981 353 1791 
Q 353 2603 747 3093 
Q 1141 3584 1784 3584 
Q 2172 3584 2450 3431 
Q 2728 3278 2906 2969 
L 2906 3500 
L 3481 3500 
L 3481 434 
z
" id="DejaVuSans-67" transform="scale(0.015625)"/>
     </defs>
     <use xlink:href="#DejaVuSans-42"/>
     <use x="68.603516" xlink:href="#DejaVuSans-6f"/>
     <use x="129.785156" xlink:href="#DejaVuSans-6f"/>
     <use x="190.966797" xlink:href="#DejaVuSans-6d"/>
     <use x="288.378906" xlink:href="#DejaVuSans-65"/>
     <use x="349.902344" xlink:href="#DejaVuSans-72"/>
     <use x="391.015625" xlink:href="#DejaVuSans-61"/>
     <use x="452.294922" xlink:href="#DejaVuSans-6e"/>
     <use x="515.673828" xlink:href="#DejaVuSans-67"/>
     <use x="579.150391" xlink:href="#DejaVuSans-20"/>
     <use x="610.9375" xlink:href="#DejaVuSans-31"/>
     <use x="674.560547" xlink:href="#DejaVuSans-30"/>
     <use x="738.183594" xlink:href="#DejaVuSans-2e"/>
     <use x="769.970703" xlink:href="#DejaVuSans-37"/>
     <use x="833.59375" xlink:href="#DejaVuSans-b0"/>
    </g>
   </g>
   <g id="text_12">
    <g id="patch_13">
     <path d="M 15.025595 74.476653 
L 19.744211 89.341971 
L 21.627247 88.744249 
L 16.908631 73.878931 
z
" style="fill:#ffffff;"/>
    </g>
    <!-- Northstar 10.1° -->
    <g style="fill:#008000;" transform="translate(15.447153 74.363823)rotate(-287.610711)scale(0.02 -0.02)">
     <use xlink:href="#DejaVuSans-4e"/>
     <use x="74.804688" xlink:href="#DejaVuSans-6f"/>
     <use x="135.986328" xlink:href="#DejaVuSans-72"/>
     <use x="177.099609" xlink:href="#DejaVuSans-74"/>
     <use x="216.308594" xlink:href="#DejaVuSans-68"/>
     <use x="279.6875" xlink:href="#DejaVuSans-73"/>
     <use x="331.787109" xlink:href="#DejaVuSans-74"/>
     <use x="370.996094" xlink:href="#DejaVuSans-61"/>
     <use x="432.275391" xlink:href="#DejaVuSans-72"/>
     <use x="473.388672" xlink:href="#DejaVuSans-20"/>
     <use x="505.175781" xlink:href="#DejaVuSans-31"/>
     <use x="568.798828" xlink:href="#DejaVuSans-30"/>
     <use x="632.421875" xlink:href="#DejaVuSans-2e"/>
     <use x="664.208984" xlink:href="#DejaVuSans-31"/>
     <use x="727.832031" xlink:href="#DejaVuSans-b0"/>
    </g>
   </g>
   <g id="text_13">
    <g id="patch_14">
     <path d="M 26.424748 40.007408 
L 27.731053 27.21267 
L 25.765645 27.012007 
L 24.45934 39.806745 
z
" style="fill:#ffffff;"/>
    </g>
    <!-- Liftline 16.5° -->
    <g style="fill:#008000;" transform="translate(25.993097 39.943233)rotate(-84.170471)scale(0.02 -0.02)">
     <defs>
      <path d="M 2375 4863 
L 2375 4384 
L 1825 4384 
Q 1516 4384 1395 4259 
Q 1275 4134 1275 3809 
L 1275 3500 
L 2222 3500 
L 2222 3053 
L 1275 3053 
L 1275 0 
L 697 0 
L 697 3053 
L 147 3053 
L 147 3500 
L 697 3500 
L 697 3744 
Q 697 4328 969 4595 
Q 1241 4863 1831 4863 
L 2375 4863 
z
" id="DejaVuSans-66" transform="scale(0.015625)"/>
     </defs>
     <use xlink:href="#DejaVuSans-4c"/>
     <use x="55.712891" xlink:href="#DejaVuSans-69"/>
     <use x="83.496094" xlink:href="#DejaVuSans-66"/>
     <use x="116.951172" xlink:href="#DejaVuSans-74"/>
     <use x="156.160156" xlink:href="#DejaVuSans-6c"/>
     <use x="183.943359" xlink:href="#DejaVuSans-69"/>
     <use x="211.726562" xlink:href="#DejaVuSans-6e"/>
     <use x="275.105469" xlink:href="#DejaVuSans-65"/>
     <use x="336.628906" xlink:href="#DejaVuSans-20"/>
     <use x="368.416016" xlink:href="#DejaVuSans-31"/>
     <use x="432.039062" xlink:href="#DejaVuSans-36"/>
     <use x="495.662109" xlink:href="#DejaVuSans-2e"/>
     <use x="527.449219" xlink:href="#DejaVuSans-35"/>
     <use x="591.072266" xlink:href="#DejaVuSans-b0"/>
    </g>
   </g>
   <g id="text_14">
    <g id="patch_15">
     <path d="M 52.570433 55.407733 
L 53.752644 73.677962 
L 55.724146 73.550392 
L 54.541935 55.280164 
z
" style="fill:#ffffff;"/>
    </g>
    <!-- Thunderbolt 22.1° -->
    <g style="fill:#4169e1;" transform="translate(53.006752 55.399542)rotate(-273.702273)scale(0.02 -0.02)">
     <defs>
      <path d="M 1228 531 
L 3431 531 
L 3431 0 
L 469 0 
L 469 531 
Q 828 903 1448 1529 
Q 2069 2156 2228 2338 
Q 2531 2678 2651 2914 
Q 2772 3150 2772 3378 
Q 2772 3750 2511 3984 
Q 2250 4219 1831 4219 
Q 1534 4219 1204 4116 
Q 875 4013 500 3803 
L 500 4441 
Q 881 4594 1212 4672 
Q 1544 4750 1819 4750 
Q 2544 4750 2975 4387 
Q 3406 4025 3406 3419 
Q 3406 3131 3298 2873 
Q 3191 2616 2906 2266 
Q 2828 2175 2409 1742 
Q 1991 1309 1228 531 
z
" id="DejaVuSans-32" transform="scale(0.015625)"/>
     </defs>
     <use xlink:href="#DejaVuSans-54"/>
     <use x="61.083984" xlink:href="#DejaVuSans-68"/>
     <use x="124.462891" xlink:href="#DejaVuSans-75"/>
     <use x="187.841797" xlink:href="#DejaVuSans-6e"/>
     <use x="251.220703" xlink:href="#DejaVuSans-64"/>
     <use x="314.697266" xlink:href="#DejaVuSans-65"/>
     <use x="376.220703" xlink:href="#DejaVuSans-72"/>
     <use x="417.333984" xlink:href="#DejaVuSans-62"/>
     <use x="480.810547" xlink:href="#DejaVuSans-6f"/>
     <use x="541.992188" xlink:href="#DejaVuSans-6c"/>
     <use x="569.775391" xlink:href="#DejaVuSans-74"/>
     <use x="608.984375" xlink:href="#DejaVuSans-20"/>
     <use x="640.771484" xlink:href="#DejaVuSans-32"/>
     <use x="704.394531" xlink:href="#DejaVuSans-32"/>
     <use x="768.017578" xlink:href="#DejaVuSans-2e"/>
     <use x="799.804688" xlink:href="#DejaVuSans-31"/>
     <use x="863.427734" xlink:href="#DejaVuSans-b0"/>
    </g>
   </g>
   <g id="text_15">
    <!-- Mount Southington -->
    <g transform="translate(8.75917 5.210896)scale(0.05 -0.05)">
     <defs>
      <path d="M 628 4666 
L 1569 4666 
L 2759 1491 
L 3956 4666 
L 4897 4666 
L 4897 0 
L 4281 0 
L 4281 4097 
L 3078 897 
L 2444 897 
L 1241 4097 
L 1241 0 
L 628 0 
L 628 4666 
z
" id="DejaVuSans-4d" transform="scale(0.015625)"/>
     </defs>
     <use xlink:href="#DejaVuSans-4d"/>
     <use x="86.279297" xlink:href="#DejaVuSans-6f"/>
     <use x="147.460938" xlink:href="#DejaVuSans-75"/>
     <use x="210.839844" xlink:href="#DejaVuSans-6e"/>
     <use x="274.21875" xlink:href="#DejaVuSans-74"/>
     <use x="313.427734" xlink:href="#DejaVuSans-20"/>
     <use x="345.214844" xlink:href="#DejaVuSans-53"/>
     <use x="408.691406" xlink:href="#DejaVuSans-6f"/>
     <use x="469.873047" xlink:href="#DejaVuSans-75"/>
     <use x="533.251953" xlink:href="#DejaVuSans-74"/>
     <use x="572.460938" xlink:href="#DejaVuSans-68"/>
     <use x="635.839844" xlink:href="#DejaVuSans-69"/>
     <use x="663.623047" xlink:href="#DejaVuSans-6e"/>
     <use x="727.001953" xlink:href="#DejaVuSans-67"/>
     <use x="790.478516" xlink:href="#DejaVuSans-74"/>
     <use x="829.6875" xlink:href="#DejaVuSans-6f"/>
     <use x="890.869141" xlink:href="#DejaVuSans-6e"/>
    </g>
   </g>
  </g>
  <g id="text_16">
   <!-- Sources: USGS and OpenStreetMaps -->
   <g transform="translate(12.784696 108.216653)scale(0.021739 -0.021739)">
    <defs>
     <path d="M 750 794 
L 1409 794 
L 1409 0 
L 750 0 
L 750 794 
z
M 750 3309 
L 1409 3309 
L 1409 2516 
L 750 2516 
L 750 3309 
z
" id="DejaVuSans-3a" transform="scale(0.015625)"/>
     <path d="M 556 4666 
L 1191 4666 
L 1191 1831 
Q 1191 1081 1462 751 
Q 1734 422 2344 422 
Q 2950 422 3222 751 
Q 3494 1081 3494 1831 
L 3494 4666 
L 4128 4666 
L 4128 1753 
Q 4128 841 3676 375 
Q 3225 -91 2344 -91 
Q 1459 -91 1007 375 
Q 556 841 556 1753 
L 556 4666 
z
" id="DejaVuSans-55" transform="scale(0.015625)"/>
     <path d="M 3809 666 
L 3809 1919 
L 2778 1919 
L 2778 2438 
L 4434 2438 
L 4434 434 
Q 4069 175 3628 42 
Q 3188 -91 2688 -91 
Q 1594 -91 976 548 
Q 359 1188 359 2328 
Q 359 3472 976 4111 
Q 1594 4750 2688 4750 
Q 3144 4750 3555 4637 
Q 3966 4525 4313 4306 
L 4313 3634 
Q 3963 3931 3569 4081 
Q 3175 4231 2741 4231 
Q 1884 4231 1454 3753 
Q 1025 3275 1025 2328 
Q 1025 1384 1454 906 
Q 1884 428 2741 428 
Q 3075 428 3337 486 
Q 3600 544 3809 666 
z
" id="DejaVuSans-47" transform="scale(0.015625)"/>
     <path d="M 2522 4238 
Q 1834 4238 1429 3725 
Q 1025 3213 1025 2328 
Q 1025 1447 1429 934 
Q 1834 422 2522 422 
Q 3209 422 3611 934 
Q 4013 1447 4013 2328 
Q 4013 3213 3611 3725 
Q 3209 4238 2522 4238 
z
M 2522 4750 
Q 3503 4750 4090 4092 
Q 4678 3434 4678 2328 
Q 4678 1225 4090 567 
Q 3503 -91 2522 -91 
Q 1538 -91 948 565 
Q 359 1222 359 2328 
Q 359 3434 948 4092 
Q 1538 4750 2522 4750 
z
" id="DejaVuSans-4f" transform="scale(0.015625)"/>
    </defs>
    <use xlink:href="#DejaVuSans-53"/>
    <use x="63.476562" xlink:href="#DejaVuSans-6f"/>
    <use x="124.658203" xlink:href="#DejaVuSans-75"/>
    <use x="188.037109" xlink:href="#DejaVuSans-72"/>
    <use x="226.900391" xlink:href="#DejaVuSans-63"/>
    <use x="281.880859" xlink:href="#DejaVuSans-65"/>
    <use x="343.404297" xlink:href="#DejaVuSans-73"/>
    <use x="395.503906" xlink:href="#DejaVuSans-3a"/>
    <use x="429.195312" xlink:href="#DejaVuSans-20"/>
    <use x="460.982422" xlink:href="#DejaVuSans-55"/>
    <use x="534.175781" xlink:href="#DejaVuSans-53"/>
    <use x="597.652344" xlink:href="#DejaVuSans-47"/>
    <use x="675.142578" xlink:href="#DejaVuSans-53"/>
    <use x="738.619141" xlink:href="#DejaVuSans-20"/>
    <use x="770.40625" xlink:href="#DejaVuSans-61"/>
    <use x="831.685547" xlink:href="#DejaVuSans-6e"/>
    <use x="895.064453" xlink:href="#DejaVuSans-64"/>
    <use x="958.541016" xlink:href="#DejaVuSans-20"/>
    <use x="990.328125" xlink:href="#DejaVuSans-4f"/>
    <use x="1069.039062" xlink:href="#DejaVuSans-70"/>
    <use x="1132.515625" xlink:href="#DejaVuSans-65"/>
    <use x="1194.039062" xlink:href="#DejaVuSans-6e"/>
    <use x="1257.417969" xlink:href="#DejaVuSans-53"/>
    <use x="1320.894531" xlink:href="#DejaVuSans-74"/>
    <use x="1360.103516" xlink:href="#DejaVuSans-72"/>
    <use x="1398.966797" xlink:href="#DejaVuSans-65"/>
    <use x="1460.490234" xlink:href="#DejaVuSans-65"/>
    <use x="1522.013672" xlink:href="#DejaVuSans-74"/>
    <use x="1561.222656" xlink:href="#DejaVuSans-4d"/>
    <use x="1647.501953" xlink:href="#DejaVuSans-61"/>
    <use x="1708.78125" xlink:href="#DejaVuSans-70"/>
    <use x="1772.257812" xlink:href="#DejaVuSans-73"/>
   </g>
  </g>
 </g>
 <defs>
  <clipPath id="p372edbb40b">
   <rect height="93.246967" width="65.230059" x="0" y="7.710896"/>
  </clipPath>
 </defs>
</svg>
