<?xml version="1.0" encoding="utf-8" standalone="no"?>
<!DOCTYPE svg PUBLIC "-//W3C//DTD SVG 1.1//EN"
  "http://www.w3.org/Graphics/SVG/1.1/DTD/svg11.dtd">
<svg height="115.312759pt" version="1.1" viewBox="0 0 30.306086 115.312759" width="30.306086pt" xmlns="http://www.w3.org/2000/svg" xmlns:xlink="http://www.w3.org/1999/xlink">
 <metadata>
  <rdf:RDF xmlns:cc="http://creativecommons.org/ns#" xmlns:dc="http://purl.org/dc/elements/1.1/" xmlns:rdf="http://www.w3.org/1999/02/22-rdf-syntax-ns#">
   <cc:Work>
    <dc:type rdf:resource="http://purl.org/dc/dcmitype/StillImage"/>
    <dc:date>2022-04-14T21:30:52.274642</dc:date>
    <dc:format>image/svg+xml</dc:format>
    <dc:creator>
     <cc:Agent>
      <dc:title>Matplotlib v3.4.3, https://matplotlib.org/</dc:title>
     </cc:Agent>
    </dc:creator>
   </cc:Work>
  </rdf:RDF>
 </metadata>
 <defs>
  <style type="text/css">*{stroke-linecap:butt;stroke-linejoin:round;}</style>
 </defs>
 <g id="figure_1">
  <g id="patch_1">
   <path d="M 0 115.312759 
L 30.306086 115.312759 
L 30.306086 0 
L 0 0 
z
" style="fill:#ffffff;"/>
  </g>
  <g id="axes_1">
   <g id="line2d_1">
    <path clip-path="url(#p75df7b7eb9)" d="M 27.698517 13.27214 
L 27.663581 14.50508 
L 27.491815 18.930455 
L 27.320049 23.35583 
L 27.081323 28.789145 
L 26.842597 34.222459 
L 26.610422 39.620869 
L 26.378247 45.019279 
L 26.197747 49.433914 
L 26.017247 53.848549 
L 25.805451 59.295825 
L 25.593654 64.743101 
L 25.388408 69.860663 
L 25.183163 74.978224 
L 24.92988 80.497458 
L 24.676598 86.016691 
L 24.552141 89.375594 
L 24.427683 92.734497 
" style="fill:none;stroke:#808080;stroke-linecap:square;stroke-width:1.5;"/>
   </g>
   <g id="line2d_2">
    <path clip-path="url(#p75df7b7eb9)" d="M 28.308432 12.222852 
L 28.928536 13.45257 
L 28.829189 14.763375 
L 28.729841 16.07418 
L 28.630493 17.384984 
L 28.531145 18.695789 
L 28.503124 19.944839 
L 28.475103 21.193889 
L 28.447082 22.442939 
L 28.419061 23.691989 
L 28.411419 25.227258 
L 28.403776 26.762526 
L 28.396134 28.297794 
L 28.388492 29.833063 
L 28.380304 31.437604 
L 28.372116 33.042144 
L 28.363928 34.646685 
L 28.35574 36.251226 
L 28.347552 37.855767 
L 28.339364 39.460307 
L 28.331176 41.064848 
L 28.322988 42.669389 
L 28.3148 43.655849 
L 28.306612 44.642308 
L 28.298424 45.628768 
L 28.290236 46.615227 
L 28.282048 47.601687 
L 28.27386 48.588147 
L 28.265672 49.574606 
L 28.257484 50.561066 
L 28.249296 51.547526 
L 28.241108 52.533985 
L 28.23292 53.520445 
L 28.224732 54.506904 
L 28.216544 55.493364 
L 28.208356 56.479824 
L 28.200168 57.466283 
L 28.19198 58.452743 
L 28.117378 60.11689 
L 28.042777 61.781037 
L 27.968175 63.445185 
L 27.893573 65.109332 
L 27.818971 66.773479 
L 27.744369 68.437626 
L 27.669768 70.101773 
L 27.595166 71.765921 
L 27.538942 72.933884 
L 27.482717 74.101848 
L 27.426493 75.269812 
L 27.370269 76.437776 
L 27.314044 77.60574 
L 27.25782 78.773704 
L 27.201596 79.941668 
L 27.145372 81.109632 
L 27.1108 82.965755 
L 27.076228 84.821878 
L 27.041657 86.678 
L 27.007085 88.534123 
L 26.716684 90.08926 
L 26.426283 91.644398 
L 26.009241 92.63569 
L 25.592199 93.626983 
" style="fill:none;stroke:#008000;stroke-linecap:square;stroke-width:1.5;"/>
   </g>
   <g id="line2d_3">
    <path clip-path="url(#p75df7b7eb9)" d="M 28.531145 18.695789 
L 27.425583 18.892866 
L 26.320021 19.089943 
L 25.394959 19.71769 
L 24.469897 20.345437 
L 23.864712 21.307195 
L 23.259528 22.268953 
L 22.654344 23.230711 
L 22.04916 24.192468 
L 21.492375 25.683703 
L 20.935591 27.174938 
L 20.378807 28.666173 
L 19.822023 30.157408 
L 19.677914 31.239989 
L 19.533806 32.322571 
L 19.389697 33.405153 
L 19.245588 34.487735 
L 19.169894 35.959101 
L 19.11276 37.071351 
L 19.055626 38.183602 
L 18.998492 39.295853 
L 18.941358 40.408103 
L 18.884224 41.520354 
L 18.82709 42.632605 
L 18.769956 43.744855 
L 18.712822 44.857106 
L 18.561071 46.026413 
L 18.40932 47.195719 
L 18.257569 48.365025 
L 18.105818 49.534332 
L 17.297207 51.156593 
L 16.488597 52.778855 
L 15.556984 53.723429 
L 14.625372 54.668003 
L 13.471045 55.403686 
L 12.316719 56.139369 
L 11.285395 57.160733 
L 10.254071 58.182098 
L 9.841759 59.182788 
L 9.429448 60.183478 
L 9.017137 61.184168 
L 8.604825 62.184858 
L 8.423234 63.706433 
L 8.241642 65.228008 
L 8.06005 66.749583 
L 7.878459 68.271158 
L 7.873 69.292791 
L 7.867541 70.314423 
L 7.862083 71.336056 
L 7.856624 72.357689 
L 8.054592 73.977266 
L 8.252559 75.596842 
L 9.197273 76.674054 
L 10.098317 77.140165 
L 11.406213 77.738915 
L 12.71411 78.337664 
L 14.451422 78.994409 
L 16.188734 79.651154 
L 17.244076 79.981406 
L 18.299419 80.311657 
L 19.286346 80.733735 
L 20.273273 81.155813 
" style="fill:none;stroke:#008000;stroke-linecap:square;stroke-width:1.5;"/>
   </g>
   <g id="line2d_4">
    <path clip-path="url(#p75df7b7eb9)" d="M 18.105818 49.534332 
L 18.472641 50.551937 
L 18.839463 51.569542 
L 19.245588 52.789595 
L 19.327832 53.912988 
L 19.410076 55.036381 
L 19.49232 56.159775 
L 19.574564 57.283168 
L 19.667361 58.672105 
L 19.760158 60.061043 
L 19.852956 61.44998 
L 19.945753 62.838917 
L 20.03855 64.227855 
L 20.131348 65.616792 
L 20.224145 67.005729 
L 20.316942 68.394667 
L 20.255077 70.089959 
L 20.193213 71.785252 
L 20.131348 73.480545 
L 20.069483 75.175838 
L 20.110969 76.769102 
L 20.152455 78.362366 
L 20.212864 79.75909 
L 20.273273 81.155813 
L 20.325676 82.357071 
L 20.378079 83.558329 
L 20.430483 84.759586 
L 20.482886 85.960844 
L 20.771467 87.799246 
L 21.060049 89.637648 
L 21.348631 91.47605 
L 21.637212 93.314452 
" style="fill:none;stroke:#008000;stroke-linecap:square;stroke-width:1.5;"/>
   </g>
   <g id="line2d_5">
    <path clip-path="url(#p75df7b7eb9)" d="M 28.388492 29.833063 
L 27.222157 30.364151 
L 26.055822 30.895239 
L 24.889486 31.426327 
L 23.723151 31.957415 
L 22.581926 32.62114 
L 21.4407 33.284866 
L 20.693954 33.923353 
L 19.947209 34.56184 
L 19.169894 35.959101 
" style="fill:none;stroke:#008000;stroke-linecap:square;stroke-width:1.5;"/>
   </g>
   <g id="line2d_6">
    <path clip-path="url(#p75df7b7eb9)" d="M 8.252559 75.596842 
L 8.252559 77.365703 
L 8.247464 78.813442 
L 8.24237 80.26118 
L 7.903932 81.642868 
L 7.565495 83.024556 
L 7.17793 84.114655 
L 6.790364 85.204755 
L 6.402799 86.294855 
L 6.015233 87.384954 
L 5.610564 88.41679 
L 5.205895 89.448626 
L 4.801226 90.480461 
L 4.396556 91.512297 
L 3.795375 92.91815 
L 3.194194 94.324002 
L 2.825188 95.286566 
L 2.456182 96.249129 
L 2.087176 97.211692 
L 1.71817 98.174256 
L 1.377549 99.652066 
L 1.776396 101.1041 
L 2.86813 101.634651 
L 4.430036 101.634651 
L 5.610564 102.210309 
L 6.449015 102.928809 
" style="fill:none;stroke:#008000;stroke-linecap:square;stroke-width:1.5;"/>
   </g>
   <g id="line2d_7">
    <path clip-path="url(#p75df7b7eb9)" d="M 15.334271 95.737373 
L 14.445054 96.65644 
L 13.555837 97.575506 
L 12.66662 98.494573 
L 11.777403 99.41364 
L 10.888186 100.332707 
L 9.998969 101.251773 
L 9.109752 102.17084 
L 8.220535 103.089907 
" style="fill:none;stroke:#008000;stroke-linecap:square;stroke-width:1.5;"/>
   </g>
   <g id="text_1">
    <g id="patch_2">
     <path d="M 26.994424 54.215993 
L 27.014796 53.540675 
L 25.04007 53.481104 
L 25.019698 54.156422 
z
" style="fill:#ffffff;"/>
    </g>
    <!--   -->
    <g style="fill:#808080;" transform="translate(26.559288 54.182857)rotate(-88.272102)scale(0.02 -0.02)">
     <defs>
      <path id="DejaVuSans-20" transform="scale(0.015625)"/>
     </defs>
     <use xlink:href="#DejaVuSans-20"/>
    </g>
   </g>
   <g id="text_2">
    <g id="patch_3">
     <path d="M 29.309242 30.042467 
L 29.560276 14.876107 
L 27.584922 14.843411 
L 27.333888 30.009771 
z
" style="fill:#ffffff;"/>
    </g>
    <!-- Chestnut 15.3째 -->
    <g style="fill:#008000;" transform="translate(28.873695 30.015255)rotate(-89.051726)scale(0.02 -0.02)">
     <defs>
      <path d="M 4122 4306 
L 4122 3641 
Q 3803 3938 3442 4084 
Q 3081 4231 2675 4231 
Q 1875 4231 1450 3742 
Q 1025 3253 1025 2328 
Q 1025 1406 1450 917 
Q 1875 428 2675 428 
Q 3081 428 3442 575 
Q 3803 722 4122 1019 
L 4122 359 
Q 3791 134 3420 21 
Q 3050 -91 2638 -91 
Q 1578 -91 968 557 
Q 359 1206 359 2328 
Q 359 3453 968 4101 
Q 1578 4750 2638 4750 
Q 3056 4750 3426 4639 
Q 3797 4528 4122 4306 
z
" id="DejaVuSans-43" transform="scale(0.015625)"/>
      <path d="M 3513 2113 
L 3513 0 
L 2938 0 
L 2938 2094 
Q 2938 2591 2744 2837 
Q 2550 3084 2163 3084 
Q 1697 3084 1428 2787 
Q 1159 2491 1159 1978 
L 1159 0 
L 581 0 
L 581 4863 
L 1159 4863 
L 1159 2956 
Q 1366 3272 1645 3428 
Q 1925 3584 2291 3584 
Q 2894 3584 3203 3211 
Q 3513 2838 3513 2113 
z
" id="DejaVuSans-68" transform="scale(0.015625)"/>
      <path d="M 3597 1894 
L 3597 1613 
L 953 1613 
Q 991 1019 1311 708 
Q 1631 397 2203 397 
Q 2534 397 2845 478 
Q 3156 559 3463 722 
L 3463 178 
Q 3153 47 2828 -22 
Q 2503 -91 2169 -91 
Q 1331 -91 842 396 
Q 353 884 353 1716 
Q 353 2575 817 3079 
Q 1281 3584 2069 3584 
Q 2775 3584 3186 3129 
Q 3597 2675 3597 1894 
z
M 3022 2063 
Q 3016 2534 2758 2815 
Q 2500 3097 2075 3097 
Q 1594 3097 1305 2825 
Q 1016 2553 972 2059 
L 3022 2063 
z
" id="DejaVuSans-65" transform="scale(0.015625)"/>
      <path d="M 2834 3397 
L 2834 2853 
Q 2591 2978 2328 3040 
Q 2066 3103 1784 3103 
Q 1356 3103 1142 2972 
Q 928 2841 928 2578 
Q 928 2378 1081 2264 
Q 1234 2150 1697 2047 
L 1894 2003 
Q 2506 1872 2764 1633 
Q 3022 1394 3022 966 
Q 3022 478 2636 193 
Q 2250 -91 1575 -91 
Q 1294 -91 989 -36 
Q 684 19 347 128 
L 347 722 
Q 666 556 975 473 
Q 1284 391 1588 391 
Q 1994 391 2212 530 
Q 2431 669 2431 922 
Q 2431 1156 2273 1281 
Q 2116 1406 1581 1522 
L 1381 1569 
Q 847 1681 609 1914 
Q 372 2147 372 2553 
Q 372 3047 722 3315 
Q 1072 3584 1716 3584 
Q 2034 3584 2315 3537 
Q 2597 3491 2834 3397 
z
" id="DejaVuSans-73" transform="scale(0.015625)"/>
      <path d="M 1172 4494 
L 1172 3500 
L 2356 3500 
L 2356 3053 
L 1172 3053 
L 1172 1153 
Q 1172 725 1289 603 
Q 1406 481 1766 481 
L 2356 481 
L 2356 0 
L 1766 0 
Q 1100 0 847 248 
Q 594 497 594 1153 
L 594 3053 
L 172 3053 
L 172 3500 
L 594 3500 
L 594 4494 
L 1172 4494 
z
" id="DejaVuSans-74" transform="scale(0.015625)"/>
      <path d="M 3513 2113 
L 3513 0 
L 2938 0 
L 2938 2094 
Q 2938 2591 2744 2837 
Q 2550 3084 2163 3084 
Q 1697 3084 1428 2787 
Q 1159 2491 1159 1978 
L 1159 0 
L 581 0 
L 581 3500 
L 1159 3500 
L 1159 2956 
Q 1366 3272 1645 3428 
Q 1925 3584 2291 3584 
Q 2894 3584 3203 3211 
Q 3513 2838 3513 2113 
z
" id="DejaVuSans-6e" transform="scale(0.015625)"/>
      <path d="M 544 1381 
L 544 3500 
L 1119 3500 
L 1119 1403 
Q 1119 906 1312 657 
Q 1506 409 1894 409 
Q 2359 409 2629 706 
Q 2900 1003 2900 1516 
L 2900 3500 
L 3475 3500 
L 3475 0 
L 2900 0 
L 2900 538 
Q 2691 219 2414 64 
Q 2138 -91 1772 -91 
Q 1169 -91 856 284 
Q 544 659 544 1381 
z
M 1991 3584 
L 1991 3584 
z
" id="DejaVuSans-75" transform="scale(0.015625)"/>
      <path d="M 794 531 
L 1825 531 
L 1825 4091 
L 703 3866 
L 703 4441 
L 1819 4666 
L 2450 4666 
L 2450 531 
L 3481 531 
L 3481 0 
L 794 0 
L 794 531 
z
" id="DejaVuSans-31" transform="scale(0.015625)"/>
      <path d="M 691 4666 
L 3169 4666 
L 3169 4134 
L 1269 4134 
L 1269 2991 
Q 1406 3038 1543 3061 
Q 1681 3084 1819 3084 
Q 2600 3084 3056 2656 
Q 3513 2228 3513 1497 
Q 3513 744 3044 326 
Q 2575 -91 1722 -91 
Q 1428 -91 1123 -41 
Q 819 9 494 109 
L 494 744 
Q 775 591 1075 516 
Q 1375 441 1709 441 
Q 2250 441 2565 725 
Q 2881 1009 2881 1497 
Q 2881 1984 2565 2268 
Q 2250 2553 1709 2553 
Q 1456 2553 1204 2497 
Q 953 2441 691 2322 
L 691 4666 
z
" id="DejaVuSans-35" transform="scale(0.015625)"/>
      <path d="M 684 794 
L 1344 794 
L 1344 0 
L 684 0 
L 684 794 
z
" id="DejaVuSans-2e" transform="scale(0.015625)"/>
      <path d="M 2597 2516 
Q 3050 2419 3304 2112 
Q 3559 1806 3559 1356 
Q 3559 666 3084 287 
Q 2609 -91 1734 -91 
Q 1441 -91 1130 -33 
Q 819 25 488 141 
L 488 750 
Q 750 597 1062 519 
Q 1375 441 1716 441 
Q 2309 441 2620 675 
Q 2931 909 2931 1356 
Q 2931 1769 2642 2001 
Q 2353 2234 1838 2234 
L 1294 2234 
L 1294 2753 
L 1863 2753 
Q 2328 2753 2575 2939 
Q 2822 3125 2822 3475 
Q 2822 3834 2567 4026 
Q 2313 4219 1838 4219 
Q 1578 4219 1281 4162 
Q 984 4106 628 3988 
L 628 4550 
Q 988 4650 1302 4700 
Q 1616 4750 1894 4750 
Q 2613 4750 3031 4423 
Q 3450 4097 3450 3541 
Q 3450 3153 3228 2886 
Q 3006 2619 2597 2516 
z
" id="DejaVuSans-33" transform="scale(0.015625)"/>
      <path d="M 1600 4347 
Q 1350 4347 1178 4173 
Q 1006 4000 1006 3750 
Q 1006 3503 1178 3333 
Q 1350 3163 1600 3163 
Q 1850 3163 2022 3333 
Q 2194 3503 2194 3750 
Q 2194 3997 2020 4172 
Q 1847 4347 1600 4347 
z
M 1600 4750 
Q 1800 4750 1984 4673 
Q 2169 4597 2303 4453 
Q 2447 4313 2519 4134 
Q 2591 3956 2591 3750 
Q 2591 3338 2302 3052 
Q 2013 2766 1594 2766 
Q 1172 2766 890 3047 
Q 609 3328 609 3750 
Q 609 4169 896 4459 
Q 1184 4750 1600 4750 
z
" id="DejaVuSans-b0" transform="scale(0.015625)"/>
     </defs>
     <use xlink:href="#DejaVuSans-43"/>
     <use x="69.824219" xlink:href="#DejaVuSans-68"/>
     <use x="133.203125" xlink:href="#DejaVuSans-65"/>
     <use x="194.726562" xlink:href="#DejaVuSans-73"/>
     <use x="246.826172" xlink:href="#DejaVuSans-74"/>
     <use x="286.035156" xlink:href="#DejaVuSans-6e"/>
     <use x="349.414062" xlink:href="#DejaVuSans-75"/>
     <use x="412.792969" xlink:href="#DejaVuSans-74"/>
     <use x="452.001953" xlink:href="#DejaVuSans-20"/>
     <use x="483.789062" xlink:href="#DejaVuSans-31"/>
     <use x="547.412109" xlink:href="#DejaVuSans-35"/>
     <use x="611.035156" xlink:href="#DejaVuSans-2e"/>
     <use x="642.822266" xlink:href="#DejaVuSans-33"/>
     <use x="706.445312" xlink:href="#DejaVuSans-b0"/>
    </g>
   </g>
   <g id="text_3">
    <g id="patch_4">
     <path d="M 19.578855 50.460507 
L 20.506605 25.981519 
L 18.532397 25.906697 
L 17.604648 50.385685 
z
" style="fill:#ffffff;"/>
    </g>
    <!-- Upper Quaker Run 13.4째 -->
    <g style="fill:#008000;" transform="translate(19.143988 50.424011)rotate(-87.829539)scale(0.02 -0.02)">
     <defs>
      <path d="M 556 4666 
L 1191 4666 
L 1191 1831 
Q 1191 1081 1462 751 
Q 1734 422 2344 422 
Q 2950 422 3222 751 
Q 3494 1081 3494 1831 
L 3494 4666 
L 4128 4666 
L 4128 1753 
Q 4128 841 3676 375 
Q 3225 -91 2344 -91 
Q 1459 -91 1007 375 
Q 556 841 556 1753 
L 556 4666 
z
" id="DejaVuSans-55" transform="scale(0.015625)"/>
      <path d="M 1159 525 
L 1159 -1331 
L 581 -1331 
L 581 3500 
L 1159 3500 
L 1159 2969 
Q 1341 3281 1617 3432 
Q 1894 3584 2278 3584 
Q 2916 3584 3314 3078 
Q 3713 2572 3713 1747 
Q 3713 922 3314 415 
Q 2916 -91 2278 -91 
Q 1894 -91 1617 61 
Q 1341 213 1159 525 
z
M 3116 1747 
Q 3116 2381 2855 2742 
Q 2594 3103 2138 3103 
Q 1681 3103 1420 2742 
Q 1159 2381 1159 1747 
Q 1159 1113 1420 752 
Q 1681 391 2138 391 
Q 2594 391 2855 752 
Q 3116 1113 3116 1747 
z
" id="DejaVuSans-70" transform="scale(0.015625)"/>
      <path d="M 2631 2963 
Q 2534 3019 2420 3045 
Q 2306 3072 2169 3072 
Q 1681 3072 1420 2755 
Q 1159 2438 1159 1844 
L 1159 0 
L 581 0 
L 581 3500 
L 1159 3500 
L 1159 2956 
Q 1341 3275 1631 3429 
Q 1922 3584 2338 3584 
Q 2397 3584 2469 3576 
Q 2541 3569 2628 3553 
L 2631 2963 
z
" id="DejaVuSans-72" transform="scale(0.015625)"/>
      <path d="M 2522 4238 
Q 1834 4238 1429 3725 
Q 1025 3213 1025 2328 
Q 1025 1447 1429 934 
Q 1834 422 2522 422 
Q 3209 422 3611 934 
Q 4013 1447 4013 2328 
Q 4013 3213 3611 3725 
Q 3209 4238 2522 4238 
z
M 3406 84 
L 4238 -825 
L 3475 -825 
L 2784 -78 
Q 2681 -84 2626 -87 
Q 2572 -91 2522 -91 
Q 1538 -91 948 567 
Q 359 1225 359 2328 
Q 359 3434 948 4092 
Q 1538 4750 2522 4750 
Q 3503 4750 4090 4092 
Q 4678 3434 4678 2328 
Q 4678 1516 4351 937 
Q 4025 359 3406 84 
z
" id="DejaVuSans-51" transform="scale(0.015625)"/>
      <path d="M 2194 1759 
Q 1497 1759 1228 1600 
Q 959 1441 959 1056 
Q 959 750 1161 570 
Q 1363 391 1709 391 
Q 2188 391 2477 730 
Q 2766 1069 2766 1631 
L 2766 1759 
L 2194 1759 
z
M 3341 1997 
L 3341 0 
L 2766 0 
L 2766 531 
Q 2569 213 2275 61 
Q 1981 -91 1556 -91 
Q 1019 -91 701 211 
Q 384 513 384 1019 
Q 384 1609 779 1909 
Q 1175 2209 1959 2209 
L 2766 2209 
L 2766 2266 
Q 2766 2663 2505 2880 
Q 2244 3097 1772 3097 
Q 1472 3097 1187 3025 
Q 903 2953 641 2809 
L 641 3341 
Q 956 3463 1253 3523 
Q 1550 3584 1831 3584 
Q 2591 3584 2966 3190 
Q 3341 2797 3341 1997 
z
" id="DejaVuSans-61" transform="scale(0.015625)"/>
      <path d="M 581 4863 
L 1159 4863 
L 1159 1991 
L 2875 3500 
L 3609 3500 
L 1753 1863 
L 3688 0 
L 2938 0 
L 1159 1709 
L 1159 0 
L 581 0 
L 581 4863 
z
" id="DejaVuSans-6b" transform="scale(0.015625)"/>
      <path d="M 2841 2188 
Q 3044 2119 3236 1894 
Q 3428 1669 3622 1275 
L 4263 0 
L 3584 0 
L 2988 1197 
Q 2756 1666 2539 1819 
Q 2322 1972 1947 1972 
L 1259 1972 
L 1259 0 
L 628 0 
L 628 4666 
L 2053 4666 
Q 2853 4666 3247 4331 
Q 3641 3997 3641 3322 
Q 3641 2881 3436 2590 
Q 3231 2300 2841 2188 
z
M 1259 4147 
L 1259 2491 
L 2053 2491 
Q 2509 2491 2742 2702 
Q 2975 2913 2975 3322 
Q 2975 3731 2742 3939 
Q 2509 4147 2053 4147 
L 1259 4147 
z
" id="DejaVuSans-52" transform="scale(0.015625)"/>
      <path d="M 2419 4116 
L 825 1625 
L 2419 1625 
L 2419 4116 
z
M 2253 4666 
L 3047 4666 
L 3047 1625 
L 3713 1625 
L 3713 1100 
L 3047 1100 
L 3047 0 
L 2419 0 
L 2419 1100 
L 313 1100 
L 313 1709 
L 2253 4666 
z
" id="DejaVuSans-34" transform="scale(0.015625)"/>
     </defs>
     <use xlink:href="#DejaVuSans-55"/>
     <use x="73.193359" xlink:href="#DejaVuSans-70"/>
     <use x="136.669922" xlink:href="#DejaVuSans-70"/>
     <use x="200.146484" xlink:href="#DejaVuSans-65"/>
     <use x="261.669922" xlink:href="#DejaVuSans-72"/>
     <use x="302.783203" xlink:href="#DejaVuSans-20"/>
     <use x="334.570312" xlink:href="#DejaVuSans-51"/>
     <use x="413.28125" xlink:href="#DejaVuSans-75"/>
     <use x="476.660156" xlink:href="#DejaVuSans-61"/>
     <use x="537.939453" xlink:href="#DejaVuSans-6b"/>
     <use x="592.224609" xlink:href="#DejaVuSans-65"/>
     <use x="653.748047" xlink:href="#DejaVuSans-72"/>
     <use x="694.861328" xlink:href="#DejaVuSans-20"/>
     <use x="726.648438" xlink:href="#DejaVuSans-52"/>
     <use x="791.630859" xlink:href="#DejaVuSans-75"/>
     <use x="855.009766" xlink:href="#DejaVuSans-6e"/>
     <use x="918.388672" xlink:href="#DejaVuSans-20"/>
     <use x="950.175781" xlink:href="#DejaVuSans-31"/>
     <use x="1013.798828" xlink:href="#DejaVuSans-33"/>
     <use x="1077.421875" xlink:href="#DejaVuSans-2e"/>
     <use x="1109.208984" xlink:href="#DejaVuSans-34"/>
     <use x="1172.832031" xlink:href="#DejaVuSans-b0"/>
    </g>
   </g>
   <g id="text_4">
    <g id="patch_5">
     <path d="M 18.616717 55.447522 
L 19.487155 73.105456 
L 21.460384 73.008187 
L 20.589946 55.350253 
z
" style="fill:#ffffff;"/>
    </g>
    <!-- Spirit of '76 14.8째 -->
    <g style="fill:#008000;" transform="translate(19.053111 55.446035)rotate(-272.822077)scale(0.02 -0.02)">
     <defs>
      <path d="M 3425 4513 
L 3425 3897 
Q 3066 4069 2747 4153 
Q 2428 4238 2131 4238 
Q 1616 4238 1336 4038 
Q 1056 3838 1056 3469 
Q 1056 3159 1242 3001 
Q 1428 2844 1947 2747 
L 2328 2669 
Q 3034 2534 3370 2195 
Q 3706 1856 3706 1288 
Q 3706 609 3251 259 
Q 2797 -91 1919 -91 
Q 1588 -91 1214 -16 
Q 841 59 441 206 
L 441 856 
Q 825 641 1194 531 
Q 1563 422 1919 422 
Q 2459 422 2753 634 
Q 3047 847 3047 1241 
Q 3047 1584 2836 1778 
Q 2625 1972 2144 2069 
L 1759 2144 
Q 1053 2284 737 2584 
Q 422 2884 422 3419 
Q 422 4038 858 4394 
Q 1294 4750 2059 4750 
Q 2388 4750 2728 4690 
Q 3069 4631 3425 4513 
z
" id="DejaVuSans-53" transform="scale(0.015625)"/>
      <path d="M 603 3500 
L 1178 3500 
L 1178 0 
L 603 0 
L 603 3500 
z
M 603 4863 
L 1178 4863 
L 1178 4134 
L 603 4134 
L 603 4863 
z
" id="DejaVuSans-69" transform="scale(0.015625)"/>
      <path d="M 1959 3097 
Q 1497 3097 1228 2736 
Q 959 2375 959 1747 
Q 959 1119 1226 758 
Q 1494 397 1959 397 
Q 2419 397 2687 759 
Q 2956 1122 2956 1747 
Q 2956 2369 2687 2733 
Q 2419 3097 1959 3097 
z
M 1959 3584 
Q 2709 3584 3137 3096 
Q 3566 2609 3566 1747 
Q 3566 888 3137 398 
Q 2709 -91 1959 -91 
Q 1206 -91 779 398 
Q 353 888 353 1747 
Q 353 2609 779 3096 
Q 1206 3584 1959 3584 
z
" id="DejaVuSans-6f" transform="scale(0.015625)"/>
      <path d="M 2375 4863 
L 2375 4384 
L 1825 4384 
Q 1516 4384 1395 4259 
Q 1275 4134 1275 3809 
L 1275 3500 
L 2222 3500 
L 2222 3053 
L 1275 3053 
L 1275 0 
L 697 0 
L 697 3053 
L 147 3053 
L 147 3500 
L 697 3500 
L 697 3744 
Q 697 4328 969 4595 
Q 1241 4863 1831 4863 
L 2375 4863 
z
" id="DejaVuSans-66" transform="scale(0.015625)"/>
      <path d="M 1147 4666 
L 1147 2931 
L 616 2931 
L 616 4666 
L 1147 4666 
z
" id="DejaVuSans-27" transform="scale(0.015625)"/>
      <path d="M 525 4666 
L 3525 4666 
L 3525 4397 
L 1831 0 
L 1172 0 
L 2766 4134 
L 525 4134 
L 525 4666 
z
" id="DejaVuSans-37" transform="scale(0.015625)"/>
      <path d="M 2113 2584 
Q 1688 2584 1439 2293 
Q 1191 2003 1191 1497 
Q 1191 994 1439 701 
Q 1688 409 2113 409 
Q 2538 409 2786 701 
Q 3034 994 3034 1497 
Q 3034 2003 2786 2293 
Q 2538 2584 2113 2584 
z
M 3366 4563 
L 3366 3988 
Q 3128 4100 2886 4159 
Q 2644 4219 2406 4219 
Q 1781 4219 1451 3797 
Q 1122 3375 1075 2522 
Q 1259 2794 1537 2939 
Q 1816 3084 2150 3084 
Q 2853 3084 3261 2657 
Q 3669 2231 3669 1497 
Q 3669 778 3244 343 
Q 2819 -91 2113 -91 
Q 1303 -91 875 529 
Q 447 1150 447 2328 
Q 447 3434 972 4092 
Q 1497 4750 2381 4750 
Q 2619 4750 2861 4703 
Q 3103 4656 3366 4563 
z
" id="DejaVuSans-36" transform="scale(0.015625)"/>
      <path d="M 2034 2216 
Q 1584 2216 1326 1975 
Q 1069 1734 1069 1313 
Q 1069 891 1326 650 
Q 1584 409 2034 409 
Q 2484 409 2743 651 
Q 3003 894 3003 1313 
Q 3003 1734 2745 1975 
Q 2488 2216 2034 2216 
z
M 1403 2484 
Q 997 2584 770 2862 
Q 544 3141 544 3541 
Q 544 4100 942 4425 
Q 1341 4750 2034 4750 
Q 2731 4750 3128 4425 
Q 3525 4100 3525 3541 
Q 3525 3141 3298 2862 
Q 3072 2584 2669 2484 
Q 3125 2378 3379 2068 
Q 3634 1759 3634 1313 
Q 3634 634 3220 271 
Q 2806 -91 2034 -91 
Q 1263 -91 848 271 
Q 434 634 434 1313 
Q 434 1759 690 2068 
Q 947 2378 1403 2484 
z
M 1172 3481 
Q 1172 3119 1398 2916 
Q 1625 2713 2034 2713 
Q 2441 2713 2670 2916 
Q 2900 3119 2900 3481 
Q 2900 3844 2670 4047 
Q 2441 4250 2034 4250 
Q 1625 4250 1398 4047 
Q 1172 3844 1172 3481 
z
" id="DejaVuSans-38" transform="scale(0.015625)"/>
     </defs>
     <use xlink:href="#DejaVuSans-53"/>
     <use x="63.476562" xlink:href="#DejaVuSans-70"/>
     <use x="126.953125" xlink:href="#DejaVuSans-69"/>
     <use x="154.736328" xlink:href="#DejaVuSans-72"/>
     <use x="195.849609" xlink:href="#DejaVuSans-69"/>
     <use x="223.632812" xlink:href="#DejaVuSans-74"/>
     <use x="262.841797" xlink:href="#DejaVuSans-20"/>
     <use x="294.628906" xlink:href="#DejaVuSans-6f"/>
     <use x="355.810547" xlink:href="#DejaVuSans-66"/>
     <use x="391.015625" xlink:href="#DejaVuSans-20"/>
     <use x="422.802734" xlink:href="#DejaVuSans-27"/>
     <use x="450.292969" xlink:href="#DejaVuSans-37"/>
     <use x="513.916016" xlink:href="#DejaVuSans-36"/>
     <use x="577.539062" xlink:href="#DejaVuSans-20"/>
     <use x="609.326172" xlink:href="#DejaVuSans-31"/>
     <use x="672.949219" xlink:href="#DejaVuSans-34"/>
     <use x="736.572266" xlink:href="#DejaVuSans-2e"/>
     <use x="768.359375" xlink:href="#DejaVuSans-38"/>
     <use x="831.982422" xlink:href="#DejaVuSans-b0"/>
    </g>
   </g>
   <g id="text_5">
    <g id="patch_6">
     <path d="M 2.354589 102.489737 
L 9.145636 79.020321 
L 7.247862 78.471186 
L 0.456816 101.940602 
z
" style="fill:#ffffff;"/>
    </g>
    <!-- Lower Quaker Run 12.4째 -->
    <g style="fill:#008000;" transform="translate(1.94139 102.349354)rotate(-73.861816)scale(0.02 -0.02)">
     <defs>
      <path d="M 628 4666 
L 1259 4666 
L 1259 531 
L 3531 531 
L 3531 0 
L 628 0 
L 628 4666 
z
" id="DejaVuSans-4c" transform="scale(0.015625)"/>
      <path d="M 269 3500 
L 844 3500 
L 1563 769 
L 2278 3500 
L 2956 3500 
L 3675 769 
L 4391 3500 
L 4966 3500 
L 4050 0 
L 3372 0 
L 2619 2869 
L 1863 0 
L 1184 0 
L 269 3500 
z
" id="DejaVuSans-77" transform="scale(0.015625)"/>
      <path d="M 1228 531 
L 3431 531 
L 3431 0 
L 469 0 
L 469 531 
Q 828 903 1448 1529 
Q 2069 2156 2228 2338 
Q 2531 2678 2651 2914 
Q 2772 3150 2772 3378 
Q 2772 3750 2511 3984 
Q 2250 4219 1831 4219 
Q 1534 4219 1204 4116 
Q 875 4013 500 3803 
L 500 4441 
Q 881 4594 1212 4672 
Q 1544 4750 1819 4750 
Q 2544 4750 2975 4387 
Q 3406 4025 3406 3419 
Q 3406 3131 3298 2873 
Q 3191 2616 2906 2266 
Q 2828 2175 2409 1742 
Q 1991 1309 1228 531 
z
" id="DejaVuSans-32" transform="scale(0.015625)"/>
     </defs>
     <use xlink:href="#DejaVuSans-4c"/>
     <use x="53.962891" xlink:href="#DejaVuSans-6f"/>
     <use x="115.144531" xlink:href="#DejaVuSans-77"/>
     <use x="196.931641" xlink:href="#DejaVuSans-65"/>
     <use x="258.455078" xlink:href="#DejaVuSans-72"/>
     <use x="299.568359" xlink:href="#DejaVuSans-20"/>
     <use x="331.355469" xlink:href="#DejaVuSans-51"/>
     <use x="410.066406" xlink:href="#DejaVuSans-75"/>
     <use x="473.445312" xlink:href="#DejaVuSans-61"/>
     <use x="534.724609" xlink:href="#DejaVuSans-6b"/>
     <use x="589.009766" xlink:href="#DejaVuSans-65"/>
     <use x="650.533203" xlink:href="#DejaVuSans-72"/>
     <use x="691.646484" xlink:href="#DejaVuSans-20"/>
     <use x="723.433594" xlink:href="#DejaVuSans-52"/>
     <use x="788.416016" xlink:href="#DejaVuSans-75"/>
     <use x="851.794922" xlink:href="#DejaVuSans-6e"/>
     <use x="915.173828" xlink:href="#DejaVuSans-20"/>
     <use x="946.960938" xlink:href="#DejaVuSans-31"/>
     <use x="1010.583984" xlink:href="#DejaVuSans-32"/>
     <use x="1074.207031" xlink:href="#DejaVuSans-2e"/>
     <use x="1105.994141" xlink:href="#DejaVuSans-34"/>
     <use x="1169.617188" xlink:href="#DejaVuSans-b0"/>
    </g>
   </g>
   <g id="text_6">
    <!-- Mount Pleasant of Edinboro -->
    <g transform="translate(-19.210629 5.179499)scale(0.05 -0.05)">
     <defs>
      <path d="M 628 4666 
L 1569 4666 
L 2759 1491 
L 3956 4666 
L 4897 4666 
L 4897 0 
L 4281 0 
L 4281 4097 
L 3078 897 
L 2444 897 
L 1241 4097 
L 1241 0 
L 628 0 
L 628 4666 
z
" id="DejaVuSans-4d" transform="scale(0.015625)"/>
      <path d="M 1259 4147 
L 1259 2394 
L 2053 2394 
Q 2494 2394 2734 2622 
Q 2975 2850 2975 3272 
Q 2975 3691 2734 3919 
Q 2494 4147 2053 4147 
L 1259 4147 
z
M 628 4666 
L 2053 4666 
Q 2838 4666 3239 4311 
Q 3641 3956 3641 3272 
Q 3641 2581 3239 2228 
Q 2838 1875 2053 1875 
L 1259 1875 
L 1259 0 
L 628 0 
L 628 4666 
z
" id="DejaVuSans-50" transform="scale(0.015625)"/>
      <path d="M 603 4863 
L 1178 4863 
L 1178 0 
L 603 0 
L 603 4863 
z
" id="DejaVuSans-6c" transform="scale(0.015625)"/>
      <path d="M 628 4666 
L 3578 4666 
L 3578 4134 
L 1259 4134 
L 1259 2753 
L 3481 2753 
L 3481 2222 
L 1259 2222 
L 1259 531 
L 3634 531 
L 3634 0 
L 628 0 
L 628 4666 
z
" id="DejaVuSans-45" transform="scale(0.015625)"/>
      <path d="M 2906 2969 
L 2906 4863 
L 3481 4863 
L 3481 0 
L 2906 0 
L 2906 525 
Q 2725 213 2448 61 
Q 2172 -91 1784 -91 
Q 1150 -91 751 415 
Q 353 922 353 1747 
Q 353 2572 751 3078 
Q 1150 3584 1784 3584 
Q 2172 3584 2448 3432 
Q 2725 3281 2906 2969 
z
M 947 1747 
Q 947 1113 1208 752 
Q 1469 391 1925 391 
Q 2381 391 2643 752 
Q 2906 1113 2906 1747 
Q 2906 2381 2643 2742 
Q 2381 3103 1925 3103 
Q 1469 3103 1208 2742 
Q 947 2381 947 1747 
z
" id="DejaVuSans-64" transform="scale(0.015625)"/>
      <path d="M 3116 1747 
Q 3116 2381 2855 2742 
Q 2594 3103 2138 3103 
Q 1681 3103 1420 2742 
Q 1159 2381 1159 1747 
Q 1159 1113 1420 752 
Q 1681 391 2138 391 
Q 2594 391 2855 752 
Q 3116 1113 3116 1747 
z
M 1159 2969 
Q 1341 3281 1617 3432 
Q 1894 3584 2278 3584 
Q 2916 3584 3314 3078 
Q 3713 2572 3713 1747 
Q 3713 922 3314 415 
Q 2916 -91 2278 -91 
Q 1894 -91 1617 61 
Q 1341 213 1159 525 
L 1159 0 
L 581 0 
L 581 4863 
L 1159 4863 
L 1159 2969 
z
" id="DejaVuSans-62" transform="scale(0.015625)"/>
     </defs>
     <use xlink:href="#DejaVuSans-4d"/>
     <use x="86.279297" xlink:href="#DejaVuSans-6f"/>
     <use x="147.460938" xlink:href="#DejaVuSans-75"/>
     <use x="210.839844" xlink:href="#DejaVuSans-6e"/>
     <use x="274.21875" xlink:href="#DejaVuSans-74"/>
     <use x="313.427734" xlink:href="#DejaVuSans-20"/>
     <use x="345.214844" xlink:href="#DejaVuSans-50"/>
     <use x="405.517578" xlink:href="#DejaVuSans-6c"/>
     <use x="433.300781" xlink:href="#DejaVuSans-65"/>
     <use x="494.824219" xlink:href="#DejaVuSans-61"/>
     <use x="556.103516" xlink:href="#DejaVuSans-73"/>
     <use x="608.203125" xlink:href="#DejaVuSans-61"/>
     <use x="669.482422" xlink:href="#DejaVuSans-6e"/>
     <use x="732.861328" xlink:href="#DejaVuSans-74"/>
     <use x="772.070312" xlink:href="#DejaVuSans-20"/>
     <use x="803.857422" xlink:href="#DejaVuSans-6f"/>
     <use x="865.039062" xlink:href="#DejaVuSans-66"/>
     <use x="900.244141" xlink:href="#DejaVuSans-20"/>
     <use x="932.03125" xlink:href="#DejaVuSans-45"/>
     <use x="995.214844" xlink:href="#DejaVuSans-64"/>
     <use x="1058.691406" xlink:href="#DejaVuSans-69"/>
     <use x="1086.474609" xlink:href="#DejaVuSans-6e"/>
     <use x="1149.853516" xlink:href="#DejaVuSans-62"/>
     <use x="1213.330078" xlink:href="#DejaVuSans-6f"/>
     <use x="1274.511719" xlink:href="#DejaVuSans-72"/>
     <use x="1313.375" xlink:href="#DejaVuSans-6f"/>
    </g>
   </g>
  </g>
  <g id="text_7">
   <!-- Sources: USGS and OpenStreetMaps -->
   <g transform="translate(-4.67729 114.860653)scale(0.021739 -0.021739)">
    <defs>
     <path d="M 3122 3366 
L 3122 2828 
Q 2878 2963 2633 3030 
Q 2388 3097 2138 3097 
Q 1578 3097 1268 2742 
Q 959 2388 959 1747 
Q 959 1106 1268 751 
Q 1578 397 2138 397 
Q 2388 397 2633 464 
Q 2878 531 3122 666 
L 3122 134 
Q 2881 22 2623 -34 
Q 2366 -91 2075 -91 
Q 1284 -91 818 406 
Q 353 903 353 1747 
Q 353 2603 823 3093 
Q 1294 3584 2113 3584 
Q 2378 3584 2631 3529 
Q 2884 3475 3122 3366 
z
" id="DejaVuSans-63" transform="scale(0.015625)"/>
     <path d="M 750 794 
L 1409 794 
L 1409 0 
L 750 0 
L 750 794 
z
M 750 3309 
L 1409 3309 
L 1409 2516 
L 750 2516 
L 750 3309 
z
" id="DejaVuSans-3a" transform="scale(0.015625)"/>
     <path d="M 3809 666 
L 3809 1919 
L 2778 1919 
L 2778 2438 
L 4434 2438 
L 4434 434 
Q 4069 175 3628 42 
Q 3188 -91 2688 -91 
Q 1594 -91 976 548 
Q 359 1188 359 2328 
Q 359 3472 976 4111 
Q 1594 4750 2688 4750 
Q 3144 4750 3555 4637 
Q 3966 4525 4313 4306 
L 4313 3634 
Q 3963 3931 3569 4081 
Q 3175 4231 2741 4231 
Q 1884 4231 1454 3753 
Q 1025 3275 1025 2328 
Q 1025 1384 1454 906 
Q 1884 428 2741 428 
Q 3075 428 3337 486 
Q 3600 544 3809 666 
z
" id="DejaVuSans-47" transform="scale(0.015625)"/>
     <path d="M 2522 4238 
Q 1834 4238 1429 3725 
Q 1025 3213 1025 2328 
Q 1025 1447 1429 934 
Q 1834 422 2522 422 
Q 3209 422 3611 934 
Q 4013 1447 4013 2328 
Q 4013 3213 3611 3725 
Q 3209 4238 2522 4238 
z
M 2522 4750 
Q 3503 4750 4090 4092 
Q 4678 3434 4678 2328 
Q 4678 1225 4090 567 
Q 3503 -91 2522 -91 
Q 1538 -91 948 565 
Q 359 1222 359 2328 
Q 359 3434 948 4092 
Q 1538 4750 2522 4750 
z
" id="DejaVuSans-4f" transform="scale(0.015625)"/>
    </defs>
    <use xlink:href="#DejaVuSans-53"/>
    <use x="63.476562" xlink:href="#DejaVuSans-6f"/>
    <use x="124.658203" xlink:href="#DejaVuSans-75"/>
    <use x="188.037109" xlink:href="#DejaVuSans-72"/>
    <use x="226.900391" xlink:href="#DejaVuSans-63"/>
    <use x="281.880859" xlink:href="#DejaVuSans-65"/>
    <use x="343.404297" xlink:href="#DejaVuSans-73"/>
    <use x="395.503906" xlink:href="#DejaVuSans-3a"/>
    <use x="429.195312" xlink:href="#DejaVuSans-20"/>
    <use x="460.982422" xlink:href="#DejaVuSans-55"/>
    <use x="534.175781" xlink:href="#DejaVuSans-53"/>
    <use x="597.652344" xlink:href="#DejaVuSans-47"/>
    <use x="675.142578" xlink:href="#DejaVuSans-53"/>
    <use x="738.619141" xlink:href="#DejaVuSans-20"/>
    <use x="770.40625" xlink:href="#DejaVuSans-61"/>
    <use x="831.685547" xlink:href="#DejaVuSans-6e"/>
    <use x="895.064453" xlink:href="#DejaVuSans-64"/>
    <use x="958.541016" xlink:href="#DejaVuSans-20"/>
    <use x="990.328125" xlink:href="#DejaVuSans-4f"/>
    <use x="1069.039062" xlink:href="#DejaVuSans-70"/>
    <use x="1132.515625" xlink:href="#DejaVuSans-65"/>
    <use x="1194.039062" xlink:href="#DejaVuSans-6e"/>
    <use x="1257.417969" xlink:href="#DejaVuSans-53"/>
    <use x="1320.894531" xlink:href="#DejaVuSans-74"/>
    <use x="1360.103516" xlink:href="#DejaVuSans-72"/>
    <use x="1398.966797" xlink:href="#DejaVuSans-65"/>
    <use x="1460.490234" xlink:href="#DejaVuSans-65"/>
    <use x="1522.013672" xlink:href="#DejaVuSans-74"/>
    <use x="1561.222656" xlink:href="#DejaVuSans-4d"/>
    <use x="1647.501953" xlink:href="#DejaVuSans-61"/>
    <use x="1708.78125" xlink:href="#DejaVuSans-70"/>
    <use x="1772.257812" xlink:href="#DejaVuSans-73"/>
   </g>
  </g>
 </g>
 <defs>
  <clipPath id="p75df7b7eb9">
   <rect height="99.95376" width="30.306086" x="0" y="7.679499"/>
  </clipPath>
 </defs>
</svg>
