<?xml version="1.0" encoding="utf-8" standalone="no"?>
<!DOCTYPE svg PUBLIC "-//W3C//DTD SVG 1.1//EN"
  "http://www.w3.org/Graphics/SVG/1.1/DTD/svg11.dtd">
<svg height="137.039687pt" version="1.1" viewBox="0 0 123.059754 137.039687" width="123.059754pt" xmlns="http://www.w3.org/2000/svg" xmlns:xlink="http://www.w3.org/1999/xlink">
 <metadata>
  <rdf:RDF xmlns:cc="http://creativecommons.org/ns#" xmlns:dc="http://purl.org/dc/elements/1.1/" xmlns:rdf="http://www.w3.org/1999/02/22-rdf-syntax-ns#">
   <cc:Work>
    <dc:type rdf:resource="http://purl.org/dc/dcmitype/StillImage"/>
    <dc:date>2022-04-14T21:31:03.604379</dc:date>
    <dc:format>image/svg+xml</dc:format>
    <dc:creator>
     <cc:Agent>
      <dc:title>Matplotlib v3.4.3, https://matplotlib.org/</dc:title>
     </cc:Agent>
    </dc:creator>
   </cc:Work>
  </rdf:RDF>
 </metadata>
 <defs>
  <style type="text/css">*{stroke-linecap:butt;stroke-linejoin:round;}</style>
 </defs>
 <g id="figure_1">
  <g id="patch_1">
   <path d="M 0 137.039687 
L 123.059754 137.039687 
L 123.059754 0 
L 0 0 
z
" style="fill:#ffffff;"/>
  </g>
  <g id="axes_1">
   <g id="line2d_1">
    <path clip-path="url(#pbb2b0d6622)" d="M 6.730301 41.544188 
" style="fill:none;stroke:#008000;stroke-linecap:square;stroke-width:1.5;"/>
   </g>
   <g id="line2d_2">
    <path clip-path="url(#pbb2b0d6622)" d="M 6.730301 41.544188 
" style="fill:none;stroke:#4169e1;stroke-linecap:square;stroke-width:1.5;"/>
   </g>
   <g id="line2d_3">
    <path clip-path="url(#pbb2b0d6622)" d="M 6.730301 41.544188 
" style="fill:none;stroke:#000000;stroke-linecap:square;stroke-width:1.5;"/>
   </g>
   <g id="line2d_4">
    <path clip-path="url(#pbb2b0d6622)" d="M 6.730301 41.544188 
" style="fill:none;stroke:#ff0000;stroke-linecap:square;stroke-width:1.5;"/>
   </g>
   <g id="line2d_5">
    <path clip-path="url(#pbb2b0d6622)" d="M 6.730301 41.544188 
" style="fill:none;stroke:#ffd700;stroke-linecap:square;stroke-width:1.5;"/>
   </g>
   <g id="line2d_6">
    <path clip-path="url(#pbb2b0d6622)" d="M 6.730301 41.544188 
" style="fill:none;stroke:#000000;stroke-dasharray:1.5,2.475;stroke-dashoffset:0;stroke-width:1.5;"/>
   </g>
   <g id="line2d_7">
    <path clip-path="url(#pbb2b0d6622)" d="M 117.466129 92.641069 
L 112.919428 88.389424 
L 110.635231 86.252173 
L 107.681827 83.490604 
L 105.123223 81.099054 
L 101.529897 77.738883 
L 97.936571 74.378713 
L 93.844865 70.55209 
L 89.753159 66.725467 
L 86.979801 64.132478 
L 84.347985 61.670924 
L 81.716169 59.209371 
L 78.163516 55.887773 
L 74.610864 52.566176 
L 70.466011 48.68955 
L 66.321159 44.812925 
L 63.634028 42.300655 
L 60.946897 39.788384 
L 58.569423 37.565414 
L 57.134479 36.222489 
" style="fill:none;stroke:#808080;stroke-linecap:square;stroke-width:1.5;"/>
   </g>
   <g id="line2d_8">
    <path clip-path="url(#pbb2b0d6622)" d="M 115.423801 93.719695 
L 111.052807 90.368096 
L 107.597769 87.71939 
L 104.142732 85.070684 
L 100.365021 82.174823 
L 96.587311 79.278961 
L 93.166981 76.656685 
L 89.746651 74.034409 
L 86.107771 71.244268 
L 82.028538 68.115537 
L 80.032849 66.58546 
L 76.970983 64.238197 
L 73.487203 61.566633 
L 69.186167 58.269323 
L 64.88513 54.972012 
L 60.349275 51.493979 
L 55.813419 48.015945 
L 51.607829 44.79221 
L 47.402238 41.568474 
L 45.86751 40.391272 
L 41.874504 37.329688 
L 37.881497 34.268104 
L 34.163441 31.417245 
L 30.445384 28.566385 
L 27.414973 26.24341 
" style="fill:none;stroke:#808080;stroke-linecap:square;stroke-width:1.5;"/>
   </g>
   <g id="line2d_9">
    <path clip-path="url(#pbb2b0d6622)" d="M 105.98766 98.872814 
L 103.881882 96.389831 
L 101.776104 93.906847 
" style="fill:none;stroke:#808080;stroke-linecap:square;stroke-width:1.5;"/>
   </g>
   <g id="line2d_10">
    <path clip-path="url(#pbb2b0d6622)" d="M 104.143816 106.068894 
L 102.222965 103.071599 
L 99.658938 99.069967 
L 97.09491 95.068335 
L 95.055836 91.88603 
L 93.016762 88.703726 
L 91.477695 86.302175 
" style="fill:none;stroke:#808080;stroke-linecap:square;stroke-width:1.5;"/>
   </g>
   <g id="line2d_11">
    <path clip-path="url(#pbb2b0d6622)" d="M 91.573141 107.330386 
L 88.476568 104.128795 
L 85.914168 101.480089 
L 83.351767 98.831383 
L 80.032849 95.166911 
L 76.71393 91.50244 
L 73.800115 87.926544 
L 70.886299 84.350648 
L 66.967589 79.996141 
L 63.89542 76.164518 
L 60.823251 72.332894 
L 57.48969 68.188398 
L 54.156129 64.043902 
L 51.371925 60.6373 
L 48.587721 57.230699 
L 45.313272 52.944767 
L 42.038823 48.658835 
L 41.319723 47.808791 
L 38.484543 44.450049 
L 35.649362 41.091307 
L 32.387928 37.228254 
L 30.015335 34.417397 
L 27.642742 31.60654 
L 26.278297 29.990744 
L 25.439891 28.999265 
" style="fill:none;stroke:#808080;stroke-linecap:square;stroke-width:1.5;"/>
   </g>
   <g id="line2d_12">
    <path clip-path="url(#pbb2b0d6622)" d="M 91.144718 113.686424 
L 87.098024 110.143386 
L 84.21512 107.618258 
L 81.332216 105.09313 
L 78.638035 102.733724 
L 75.943854 100.374319 
L 72.722551 97.552747 
L 70.88413 95.942665 
L 68.931825 94.232578 
L 67.670419 93.128236 
L 65.835252 91.521012 
L 64.220262 90.106654 
L 61.130197 87.400803 
L 58.040132 84.694951 
L 54.456025 81.55622 
L 50.871918 78.417489 
L 48.162553 76.043797 
L 45.453187 73.670105 
L 40.745963 69.548467 
L 37.537132 66.738324 
L 34.328302 63.928182 
L 31.654729 61.586634 
L 28.981155 59.245087 
L 25.74521 56.411371 
L 22.509264 53.577656 
L 20.151313 51.511837 
L 15.855158 47.748788 
L 12.574743 44.875785 
L 9.294328 42.002782 
L 8.385421 41.207028 
" style="fill:none;stroke:#808080;stroke-linecap:square;stroke-width:1.5;"/>
   </g>
   <g id="line2d_13">
    <path clip-path="url(#pbb2b0d6622)" d="M 104.757708 119.32671 
L 101.597143 119.376713 
" style="fill:none;stroke:#808080;stroke-linecap:square;stroke-width:1.5;"/>
   </g>
   <g id="line2d_14">
    <path clip-path="url(#pbb2b0d6622)" d="M 6.730301 41.544188 
L 6.161963 42.528523 
L 5.593625 43.512859 
L 5.794279 44.562198 
L 5.994932 45.611537 
L 6.746841 46.283714 
L 7.49875 46.955891 
L 8.250658 47.628068 
L 9.002567 48.300245 
L 10.339353 48.628833 
L 11.67614 48.957421 
L 12.210855 50.072478 
L 12.745569 51.187535 
L 12.9126 52.138654 
L 13.079631 53.089774 
L 13.246661 54.040894 
L 13.413692 54.992013 
L 14.081814 56.664241 
L 14.749936 58.336469 
L 15.618712 59.976552 
L 16.487488 61.616636 
L 18.225581 62.501681 
L 19.963675 63.386726 
L 20.915966 64.12462 
L 21.868257 64.862515 
L 22.820548 65.60041 
L 23.772839 66.338304 
L 24.48299 67.076199 
L 25.193141 67.814093 
L 25.903292 68.551988 
L 26.613443 69.289883 
L 27.323594 70.027777 
L 28.033745 70.765672 
L 28.743896 71.503567 
L 29.454047 72.241461 
L 30.247713 73.085968 
L 31.04138 73.930475 
L 31.835046 74.774983 
L 32.628712 75.61949 
L 33.422378 76.463997 
L 34.216045 77.308504 
L 35.009711 78.153011 
L 35.803377 78.997519 
L 36.714046 79.891314 
L 37.624715 80.785109 
L 38.535384 81.678905 
L 39.446053 82.5727 
L 40.356722 83.466496 
L 41.267391 84.360291 
L 42.17806 85.254086 
L 43.088729 86.147882 
L 43.832232 87.082394 
L 44.575735 88.016905 
L 45.319237 88.951417 
L 46.06274 89.885929 
L 46.806243 90.820441 
L 47.549746 91.754952 
L 48.293249 92.689464 
L 49.036752 93.623976 
L 50.072558 94.3783 
L 51.108364 95.132624 
L 52.144171 95.886948 
L 53.179977 96.641272 
L 54.918071 96.772707 
L 56.656164 96.904142 
" style="fill:none;stroke:#000000;stroke-linecap:square;stroke-width:1.5;"/>
   </g>
   <g id="line2d_15">
    <path clip-path="url(#pbb2b0d6622)" d="M 21.955026 55.066303 
L 22.790721 56.60781 
L 23.626416 58.149317 
L 24.3607 58.932214 
L 25.094984 59.715111 
L 25.829267 60.498007 
L 26.563551 61.280904 
L 27.829838 62.52311 
L 29.096124 63.765316 
L 30.058448 64.784654 
L 31.020772 65.803991 
L 31.983096 66.823329 
L 32.945419 67.842666 
L 33.971193 68.923793 
L 34.996967 70.004919 
L 36.02274 71.086045 
L 37.048514 72.167172 
L 37.947659 73.161151 
L 38.846804 74.15513 
L 39.745949 75.149109 
L 40.645094 76.143088 
L 41.442827 77.087779 
L 42.240561 78.03247 
L 43.038294 78.97716 
L 43.836028 79.921851 
L 44.962942 81.151914 
L 46.089856 82.381976 
L 47.216769 83.612039 
L 48.343683 84.842101 
L 49.230084 85.848938 
L 50.116485 86.855775 
L 51.002886 87.862612 
L 51.889286 88.869449 
L 52.85161 90.062366 
L 53.813934 91.255284 
L 54.776257 92.448202 
L 55.738581 93.64112 
" style="fill:none;stroke:#4169e1;stroke-linecap:square;stroke-width:1.5;"/>
   </g>
   <g id="line2d_16">
    <path clip-path="url(#pbb2b0d6622)" d="M 57.650755 98.359931 
L 58.638839 98.832098 
L 59.626922 99.304264 
L 61.146466 99.57785 
L 62.66601 99.851435 
L 64.210501 99.950726 
L 65.754991 100.050017 
L 67.375946 100.348603 
L 68.996902 100.64719 
L 70.073381 101.628668 
L 71.14986 102.610147 
L 72.22634 103.591625 
L 73.302819 104.573103 
L 73.910474 105.418146 
L 74.518129 106.263189 
L 75.125784 107.108232 
L 75.733439 107.953275 
L 76.341365 108.74903 
L 76.949291 109.544785 
L 78.570247 110.141243 
L 80.191202 110.737702 
L 81.16627 111.278265 
L 82.141338 111.818829 
L 83.116406 112.359392 
L 84.091474 112.899955 
L 85.066542 113.440518 
L 86.04161 113.981081 
L 87.016678 114.521645 
L 87.991746 115.062208 
" style="fill:none;stroke:#008000;stroke-linecap:square;stroke-width:1.5;"/>
   </g>
   <g id="line2d_17">
    <path clip-path="url(#pbb2b0d6622)" d="M 59.018454 95.775514 
L 60.639409 95.62622 
L 62.260365 95.476927 
L 64.04591 95.998739 
L 65.831456 96.520552 
L 67.617002 97.042364 
L 69.402547 97.564176 
L 70.396596 98.409219 
L 71.390645 99.254262 
L 72.384693 100.099305 
L 73.378742 100.944348 
L 74.372791 101.789391 
L 75.366839 102.634434 
L 76.360888 103.479476 
L 77.354937 104.324519 
L 78.779442 105.436719 
L 80.203946 106.548918 
L 81.628451 107.661117 
L 83.052956 108.773317 
L 84.477461 109.885516 
L 85.901966 110.997716 
L 87.326471 112.109915 
L 88.750975 113.222114 
" style="fill:none;stroke:#008000;stroke-linecap:square;stroke-width:1.5;"/>
   </g>
   <g id="line2d_18">
    <path clip-path="url(#pbb2b0d6622)" d="M 12.227124 42.369944 
L 13.317974 43.212129 
L 14.408825 44.054315 
L 15.499675 44.896501 
L 16.590526 45.738686 
L 17.870913 46.50944 
L 19.151299 47.280193 
L 20.184123 47.808434 
L 21.216947 48.336675 
L 22.24977 48.864917 
L 23.282594 49.393158 
L 23.893231 50.963952 
L 24.503869 52.534746 
L 24.998453 53.704805 
L 25.493037 54.874865 
L 26.627543 56.017066 
L 27.762049 57.159266 
L 28.583916 57.851623 
L 29.405782 58.54398 
L 30.227648 59.236336 
L 31.049514 59.928693 
L 31.87138 60.621049 
L 32.693247 61.313406 
L 33.515113 62.005763 
L 34.336979 62.698119 
L 35.536969 63.718885 
L 36.736958 64.739651 
L 37.936948 65.760418 
L 39.136938 66.781184 
L 40.336928 67.80195 
L 41.536917 68.822716 
L 42.736907 69.843482 
L 43.936897 70.864248 
L 44.85326 71.692148 
L 45.769623 72.520047 
L 46.685986 73.347946 
L 47.60235 74.175845 
L 48.518713 75.003744 
L 49.435076 75.831643 
L 50.351439 76.659543 
L 51.267802 77.487442 
L 52.088991 78.620535 
L 52.910179 79.753628 
L 53.731367 80.886722 
L 54.552556 82.019815 
L 55.373744 83.152908 
L 56.194932 84.286002 
L 57.016121 85.419095 
L 57.837309 86.552188 
" style="fill:none;stroke:#000000;stroke-linecap:square;stroke-width:1.5;"/>
   </g>
   <g id="line2d_19">
    <path clip-path="url(#pbb2b0d6622)" d="M 74.033849 97.787044 
L 75.845696 97.83419 
L 77.657544 97.881335 
L 79.193357 97.617036 
L 80.729171 97.352737 
" style="fill:none;stroke:#008000;stroke-linecap:square;stroke-width:1.5;"/>
   </g>
   <g id="line2d_20">
    <path clip-path="url(#pbb2b0d6622)" d="M 82.033961 98.182779 
L 83.130642 99.409448 
L 84.227322 100.636118 
L 85.324002 101.862787 
L 86.420682 103.089457 
L 87.517363 104.316126 
L 88.614043 105.542796 
L 89.710723 106.769465 
L 90.807403 107.996134 
" style="fill:none;stroke:#008000;stroke-linecap:square;stroke-width:1.5;"/>
   </g>
   <g id="line2d_21">
    <path clip-path="url(#pbb2b0d6622)" d="M 33.30985 48.59026 
L 33.955602 49.484948 
L 34.601354 50.379636 
L 35.247106 51.274325 
L 35.892858 52.169013 
L 36.53861 53.063701 
L 37.184362 53.95839 
L 37.830114 54.853078 
L 38.475866 55.747766 
L 39.197676 56.468517 
L 39.919487 57.189268 
L 40.641297 57.910019 
L 41.363108 58.63077 
L 42.084919 59.351521 
L 42.806729 60.072272 
L 43.52854 60.793022 
L 44.25035 61.513773 
L 45.440714 62.458464 
L 46.631078 63.403155 
L 47.821442 64.347846 
L 49.011805 65.292537 
L 50.113502 65.603088 
L 51.215199 65.91364 
L 52.316895 66.224191 
L 53.418592 66.534743 
L 54.520288 66.845294 
L 55.621985 67.155846 
L 56.723682 67.466397 
L 57.825378 67.776949 
L 59.572691 68.42341 
L 61.320004 69.069871 
L 63.067317 69.716333 
L 64.81463 70.362794 
L 65.853013 71.344451 
L 66.891395 72.326108 
L 67.929777 73.307765 
L 68.96816 74.289422 
L 70.006542 75.271079 
L 71.044924 76.252736 
L 72.083306 77.234393 
L 73.121689 78.21605 
L 73.919422 78.974125 
L 74.717156 79.732199 
L 75.514889 80.490273 
L 76.312623 81.248347 
L 77.110356 82.006421 
L 77.90809 82.764496 
L 78.705823 83.52257 
L 79.503557 84.280644 
L 80.30129 85.038718 
L 81.099024 85.796793 
L 81.896758 86.554867 
L 82.694491 87.312941 
L 83.492225 88.071015 
L 84.289958 88.829089 
L 85.087692 89.587164 
L 85.885425 90.345238 
" style="fill:none;stroke:#008000;stroke-linecap:square;stroke-width:1.5;"/>
   </g>
   <g id="line2d_22">
    <path clip-path="url(#pbb2b0d6622)" d="M 55.270028 71.678575 
L 56.155615 72.62148 
L 57.041202 73.564385 
L 57.92679 74.507291 
L 58.812377 75.450196 
L 59.697964 76.393101 
L 60.583552 77.336006 
L 61.469139 78.278911 
L 62.354726 79.221816 
L 63.41575 80.140077 
L 64.476773 81.058338 
L 65.537797 81.976598 
L 66.59882 82.894859 
L 67.659844 83.81312 
L 68.720868 84.731381 
L 69.781891 85.649642 
L 70.842915 86.567903 
L 71.653257 87.445269 
L 72.463599 88.322635 
L 73.273941 89.200001 
L 74.084283 90.077367 
L 74.894626 90.954733 
L 75.704968 91.832099 
L 76.51531 92.709465 
L 77.325652 93.586831 
L 78.259505 94.528308 
L 79.193357 95.469784 
" style="fill:none;stroke:#4169e1;stroke-linecap:square;stroke-width:1.5;"/>
   </g>
   <g id="line2d_23">
    <path clip-path="url(#pbb2b0d6622)" d="M 31.802236 31.489391 
L 32.750189 33.111973 
L 33.698141 34.734556 
L 34.646094 36.357138 
L 35.594047 37.979721 
L 36.409947 39.278001 
L 37.225848 40.576281 
L 38.041749 41.874561 
L 38.85765 43.172842 
L 40.004087 44.730778 
L 41.150524 46.288714 
L 42.120711 47.327338 
L 43.090898 48.365963 
L 44.061085 49.404587 
L 45.031272 50.443211 
L 45.8911 51.395402 
L 46.750928 52.347593 
L 47.610755 53.299785 
L 48.470583 54.251976 
L 49.418536 54.738786 
L 50.366488 55.225597 
L 51.314441 55.712407 
L 52.262393 56.199218 
L 53.210346 56.686028 
L 54.158299 57.172839 
L 55.106251 57.659649 
L 56.054204 58.146459 
L 57.079435 58.600947 
L 58.104666 59.055434 
L 59.129898 59.509922 
L 60.155129 59.964409 
L 61.18036 60.418896 
L 62.205592 60.873384 
L 63.230823 61.327871 
L 64.256054 61.782358 
L 65.821423 62.755979 
L 67.386792 63.7296 
L 68.952161 64.703221 
L 70.517531 65.676842 
L 71.504394 66.557065 
L 72.491257 67.437289 
L 73.47812 68.317512 
L 74.464983 69.197735 
L 75.451846 70.077958 
L 76.438709 70.958182 
L 77.425572 71.838405 
L 78.412435 72.718628 
" style="fill:none;stroke:#4169e1;stroke-linecap:square;stroke-width:1.5;"/>
   </g>
   <g id="line2d_24">
    <path clip-path="url(#pbb2b0d6622)" d="M 94.658867 81.970527 
L 95.562758 82.565557 
L 96.466648 83.160587 
L 97.370538 83.755617 
L 98.274428 84.350648 
L 99.178318 84.945678 
L 100.082208 85.540708 
L 100.986098 86.135738 
L 101.889988 86.730769 
L 102.369523 87.639565 
L 102.849058 88.548361 
L 103.328593 89.457157 
L 103.808128 90.365953 
L 104.287663 91.274749 
L 104.767198 92.183546 
L 105.246733 93.092342 
L 105.726268 94.001138 
L 106.205803 94.909934 
L 106.685338 95.81873 
L 107.164873 96.727526 
L 107.644408 97.636323 
L 108.123943 98.545119 
L 108.603478 99.453915 
L 109.083013 100.362711 
L 109.562547 101.271507 
" style="fill:none;stroke:#008000;stroke-linecap:square;stroke-width:1.5;"/>
   </g>
   <g id="line2d_25">
    <path clip-path="url(#pbb2b0d6622)" d="M 32.841296 31.350813 
L 34.216316 32.402562 
L 35.591335 33.454312 
L 36.966354 34.506062 
L 38.341374 35.557812 
L 39.716393 36.609562 
L 41.091412 37.661312 
L 42.466432 38.713062 
L 43.841451 39.764811 
L 45.21647 40.816561 
L 46.59149 41.868311 
L 47.966509 42.920061 
L 49.341528 43.971811 
L 50.716547 45.023561 
L 52.091567 46.075311 
L 53.466586 47.12706 
L 54.841605 48.17881 
L 56.048408 49.099437 
L 57.25521 50.020064 
L 58.462013 50.940692 
L 59.668815 51.861319 
L 60.875618 52.781946 
L 62.08242 53.702573 
L 63.289223 54.6232 
L 64.496025 55.543827 
L 65.702828 56.464454 
L 66.90963 57.385081 
L 68.116433 58.305709 
L 69.323235 59.226336 
L 70.530037 60.146963 
L 71.73684 61.06759 
L 72.943642 61.988217 
L 74.150445 62.908844 
L 75.357247 63.829471 
L 76.56405 64.750098 
L 77.770852 65.670726 
L 78.977655 66.591353 
L 80.184457 67.51198 
L 81.39126 68.432607 
L 82.598062 69.353234 
L 83.804865 70.273861 
L 85.011667 71.194488 
L 86.21847 72.115115 
L 87.425272 73.035743 
L 88.632075 73.95637 
L 89.838877 74.876997 
L 91.045679 75.797624 
L 92.252482 76.718251 
L 93.459284 77.638878 
" style="fill:none;stroke:#4169e1;stroke-linecap:square;stroke-width:1.5;"/>
   </g>
   <g id="line2d_26">
    <path clip-path="url(#pbb2b0d6622)" d="M 30.920445 24.617613 
L 32.706262 24.574397 
L 34.492079 24.53118 
L 36.277896 24.487964 
L 38.063712 24.444748 
L 39.336507 24.337599 
L 40.609301 24.230451 
L 41.8501 24.554039 
L 43.090898 24.877627 
L 43.554028 25.764815 
L 44.017158 26.652002 
L 44.480288 27.53919 
L 44.943419 28.426378 
L 45.365333 29.640011 
L 45.787248 30.853644 
L 46.42717 32.623734 
L 47.067093 34.393824 
L 47.620246 35.764608 
L 48.173399 37.135392 
L 49.220594 37.706135 
L 50.267788 38.276879 
L 51.664229 38.448316 
L 53.060669 38.619753 
" style="fill:none;stroke:#4169e1;stroke-linecap:square;stroke-width:1.5;"/>
   </g>
   <g id="line2d_27">
    <path clip-path="url(#pbb2b0d6622)" d="M 29.729539 22.003195 
L 30.951357 20.91814 
L 32.173174 19.833085 
L 33.016462 18.74803 
L 33.859749 17.662974 
L 35.110851 17.948703 
L 36.361953 18.234432 
L 37.81642 19.205196 
L 39.270888 20.175959 
L 40.376652 20.660984 
L 41.482416 21.146009 
L 42.704233 20.945998 
L 43.926051 20.745988 
L 45.176611 20.86028 
L 46.42717 20.974571 
L 47.125391 21.745682 
L 47.823611 22.516792 
L 48.521831 23.287903 
L 49.220051 24.059014 
L 49.656608 24.958345 
L 50.093166 25.857676 
L 50.529723 26.757008 
L 50.96628 27.656339 
L 51.460864 28.898188 
L 51.955448 30.140037 
L 52.450032 31.381886 
L 52.944616 32.623734 
L 53.333721 33.6395 
L 53.722826 34.655266 
L 54.111931 35.671032 
L 54.501037 36.686798 
" style="fill:none;stroke:#008000;stroke-linecap:square;stroke-width:1.5;"/>
   </g>
   <g id="line2d_28">
    <path clip-path="url(#pbb2b0d6622)" d="M 58.242955 34.590977 
L 59.318892 33.19162 
L 60.394829 31.792264 
L 61.703958 30.992937 
L 63.013087 30.193611 
L 63.711578 28.965691 
L 64.410069 27.737772 
L 65.457264 26.738435 
L 66.504459 25.739099 
L 66.969758 24.854054 
L 67.435058 23.969009 
L 68.046238 22.741804 
L 68.657418 21.514599 
L 69.193217 20.921711 
L 70.053316 19.971663 
L 71.304418 19.40092 
L 72.55552 18.830177 
L 73.690026 19.60093 
L 74.824532 20.371683 
L 75.173778 21.828186 
L 75.523024 23.284689 
L 75.842985 24.390995 
L 76.162946 25.497301 
L 76.482907 26.603607 
L 76.802868 27.709913 
L 77.122829 28.81622 
L 77.44279 29.922526 
L 77.762752 31.028832 
L 78.082713 32.135138 
L 78.635595 33.576997 
L 79.188477 35.018856 
L 79.741359 36.460715 
L 80.294241 37.902574 
L 80.541532 38.916197 
L 80.788824 39.92982 
L 81.036116 40.943443 
L 81.283408 41.957066 
L 81.618012 43.413211 
L 81.952615 44.869356 
L 82.287219 46.325502 
L 82.621822 47.781647 
L 82.694491 48.788127 
L 82.76716 49.794607 
L 82.839829 50.801086 
L 82.912499 51.807566 
L 82.985168 52.814046 
L 83.057837 53.820525 
L 83.130506 54.827005 
L 83.203175 55.833485 
" style="fill:none;stroke:#008000;stroke-linecap:square;stroke-width:1.5;"/>
   </g>
   <g id="line2d_29">
    <path clip-path="url(#pbb2b0d6622)" d="M 63.687717 31.660828 
L 64.4925 32.602305 
L 65.297284 33.543781 
L 66.102067 34.485258 
L 66.906851 35.426734 
L 67.954045 36.28142 
L 69.00124 37.136106 
L 70.048435 37.990793 
L 71.09563 38.845479 
L 71.76809 39.884103 
L 72.440551 40.922727 
L 73.113012 41.961352 
L 73.785472 42.999976 
L 74.016766 44.14682 
L 74.24806 45.293664 
L 74.479354 46.440508 
L 74.710648 47.587352 
L 75.152086 48.495969 
L 75.593524 49.404587 
L 76.695491 50.464641 
L 77.797459 51.524695 
L 78.613089 52.887621 
L 79.428719 54.250547 
L 80.354979 54.986299 
L 81.281239 55.722051 
" style="fill:none;stroke:#008000;stroke-linecap:square;stroke-width:1.5;"/>
   </g>
   <g id="line2d_30">
    <path clip-path="url(#pbb2b0d6622)" d="M 84.147874 57.929306 
L 85.691008 58.85971 
L 87.234143 59.790114 
L 88.777277 60.720519 
L 90.320412 61.650923 
L 91.99614 62.127019 
L 93.671869 62.603114 
L 95.347597 63.07921 
L 97.023326 63.555306 
L 98.522533 63.988185 
L 100.021741 64.421064 
L 101.520949 64.853943 
L 103.020156 65.286822 
L 104.38677 66.498312 
L 105.753383 67.709802 
L 106.039993 69.570611 
L 106.326602 71.43142 
L 106.613211 73.292229 
L 106.89982 75.153038 
" style="fill:none;stroke:#008000;stroke-linecap:square;stroke-width:1.5;"/>
   </g>
   <g id="line2d_31">
    <path clip-path="url(#pbb2b0d6622)" d="M 56.015158 46.418721 
L 57.293917 46.808026 
L 58.572677 47.197332 
L 59.851437 47.586637 
L 61.130197 47.975943 
L 62.783691 48.343819 
L 64.437185 48.711694 
L 66.090679 49.07957 
L 67.744173 49.447446 
L 68.934808 50.226414 
L 70.125443 51.005382 
L 71.316078 51.784351 
L 72.506712 52.563319 
L 73.36654 53.839812 
L 74.226368 55.116306 
L 75.086196 56.392799 
L 75.946023 57.669292 
L 76.805851 58.859353 
L 77.665679 60.049413 
L 78.525506 61.239474 
L 79.385334 62.429534 
L 80.840344 63.554948 
L 82.295353 64.680363 
L 83.750363 65.805777 
L 85.205372 66.931191 
L 86.030764 67.574081 
L 86.856155 68.216971 
L 87.681546 68.859861 
L 88.506937 69.502751 
L 89.634393 70.380652 
L 90.76185 71.258554 
L 92.635791 71.712863 
L 94.509733 72.167172 
L 96.383675 72.62148 
L 98.257616 73.075789 
L 100.043433 73.832971 
L 101.82925 74.590152 
L 103.615067 75.347333 
L 105.400884 76.104515 
L 106.315891 76.764548 
L 107.230899 77.424582 
L 108.145906 78.084615 
L 109.060914 78.744649 
L 109.975921 79.404682 
L 110.890928 80.064716 
L 111.805936 80.724749 
L 112.720943 81.384783 
L 113.448448 82.964149 
L 114.175953 84.543515 
L 114.903458 86.122881 
L 115.630962 87.702246 
" style="fill:none;stroke:#008000;stroke-linecap:square;stroke-width:1.5;"/>
   </g>
   <g id="text_1">
    <g id="patch_2">
     <path d="M 98.300662 77.468865 
L 110.802455 86.340421 
L 111.945783 84.729243 
L 99.443991 75.857687 
z
" style="fill:#ffffff;"/>
    </g>
    <!-- Deer Run Triple -->
    <g style="fill:#808080;" transform="translate(98.569257 77.12492)rotate(-324.639622)scale(0.02 -0.02)">
     <defs>
      <path d="M 1259 4147 
L 1259 519 
L 2022 519 
Q 2988 519 3436 956 
Q 3884 1394 3884 2338 
Q 3884 3275 3436 3711 
Q 2988 4147 2022 4147 
L 1259 4147 
z
M 628 4666 
L 1925 4666 
Q 3281 4666 3915 4102 
Q 4550 3538 4550 2338 
Q 4550 1131 3912 565 
Q 3275 0 1925 0 
L 628 0 
L 628 4666 
z
" id="DejaVuSans-44" transform="scale(0.015625)"/>
      <path d="M 3597 1894 
L 3597 1613 
L 953 1613 
Q 991 1019 1311 708 
Q 1631 397 2203 397 
Q 2534 397 2845 478 
Q 3156 559 3463 722 
L 3463 178 
Q 3153 47 2828 -22 
Q 2503 -91 2169 -91 
Q 1331 -91 842 396 
Q 353 884 353 1716 
Q 353 2575 817 3079 
Q 1281 3584 2069 3584 
Q 2775 3584 3186 3129 
Q 3597 2675 3597 1894 
z
M 3022 2063 
Q 3016 2534 2758 2815 
Q 2500 3097 2075 3097 
Q 1594 3097 1305 2825 
Q 1016 2553 972 2059 
L 3022 2063 
z
" id="DejaVuSans-65" transform="scale(0.015625)"/>
      <path d="M 2631 2963 
Q 2534 3019 2420 3045 
Q 2306 3072 2169 3072 
Q 1681 3072 1420 2755 
Q 1159 2438 1159 1844 
L 1159 0 
L 581 0 
L 581 3500 
L 1159 3500 
L 1159 2956 
Q 1341 3275 1631 3429 
Q 1922 3584 2338 3584 
Q 2397 3584 2469 3576 
Q 2541 3569 2628 3553 
L 2631 2963 
z
" id="DejaVuSans-72" transform="scale(0.015625)"/>
      <path id="DejaVuSans-20" transform="scale(0.015625)"/>
      <path d="M 2841 2188 
Q 3044 2119 3236 1894 
Q 3428 1669 3622 1275 
L 4263 0 
L 3584 0 
L 2988 1197 
Q 2756 1666 2539 1819 
Q 2322 1972 1947 1972 
L 1259 1972 
L 1259 0 
L 628 0 
L 628 4666 
L 2053 4666 
Q 2853 4666 3247 4331 
Q 3641 3997 3641 3322 
Q 3641 2881 3436 2590 
Q 3231 2300 2841 2188 
z
M 1259 4147 
L 1259 2491 
L 2053 2491 
Q 2509 2491 2742 2702 
Q 2975 2913 2975 3322 
Q 2975 3731 2742 3939 
Q 2509 4147 2053 4147 
L 1259 4147 
z
" id="DejaVuSans-52" transform="scale(0.015625)"/>
      <path d="M 544 1381 
L 544 3500 
L 1119 3500 
L 1119 1403 
Q 1119 906 1312 657 
Q 1506 409 1894 409 
Q 2359 409 2629 706 
Q 2900 1003 2900 1516 
L 2900 3500 
L 3475 3500 
L 3475 0 
L 2900 0 
L 2900 538 
Q 2691 219 2414 64 
Q 2138 -91 1772 -91 
Q 1169 -91 856 284 
Q 544 659 544 1381 
z
M 1991 3584 
L 1991 3584 
z
" id="DejaVuSans-75" transform="scale(0.015625)"/>
      <path d="M 3513 2113 
L 3513 0 
L 2938 0 
L 2938 2094 
Q 2938 2591 2744 2837 
Q 2550 3084 2163 3084 
Q 1697 3084 1428 2787 
Q 1159 2491 1159 1978 
L 1159 0 
L 581 0 
L 581 3500 
L 1159 3500 
L 1159 2956 
Q 1366 3272 1645 3428 
Q 1925 3584 2291 3584 
Q 2894 3584 3203 3211 
Q 3513 2838 3513 2113 
z
" id="DejaVuSans-6e" transform="scale(0.015625)"/>
      <path d="M -19 4666 
L 3928 4666 
L 3928 4134 
L 2272 4134 
L 2272 0 
L 1638 0 
L 1638 4134 
L -19 4134 
L -19 4666 
z
" id="DejaVuSans-54" transform="scale(0.015625)"/>
      <path d="M 603 3500 
L 1178 3500 
L 1178 0 
L 603 0 
L 603 3500 
z
M 603 4863 
L 1178 4863 
L 1178 4134 
L 603 4134 
L 603 4863 
z
" id="DejaVuSans-69" transform="scale(0.015625)"/>
      <path d="M 1159 525 
L 1159 -1331 
L 581 -1331 
L 581 3500 
L 1159 3500 
L 1159 2969 
Q 1341 3281 1617 3432 
Q 1894 3584 2278 3584 
Q 2916 3584 3314 3078 
Q 3713 2572 3713 1747 
Q 3713 922 3314 415 
Q 2916 -91 2278 -91 
Q 1894 -91 1617 61 
Q 1341 213 1159 525 
z
M 3116 1747 
Q 3116 2381 2855 2742 
Q 2594 3103 2138 3103 
Q 1681 3103 1420 2742 
Q 1159 2381 1159 1747 
Q 1159 1113 1420 752 
Q 1681 391 2138 391 
Q 2594 391 2855 752 
Q 3116 1113 3116 1747 
z
" id="DejaVuSans-70" transform="scale(0.015625)"/>
      <path d="M 603 4863 
L 1178 4863 
L 1178 0 
L 603 0 
L 603 4863 
z
" id="DejaVuSans-6c" transform="scale(0.015625)"/>
     </defs>
     <use xlink:href="#DejaVuSans-44"/>
     <use x="77.001953" xlink:href="#DejaVuSans-65"/>
     <use x="138.525391" xlink:href="#DejaVuSans-65"/>
     <use x="200.048828" xlink:href="#DejaVuSans-72"/>
     <use x="241.162109" xlink:href="#DejaVuSans-20"/>
     <use x="272.949219" xlink:href="#DejaVuSans-52"/>
     <use x="337.931641" xlink:href="#DejaVuSans-75"/>
     <use x="401.310547" xlink:href="#DejaVuSans-6e"/>
     <use x="464.689453" xlink:href="#DejaVuSans-20"/>
     <use x="496.476562" xlink:href="#DejaVuSans-54"/>
     <use x="542.810547" xlink:href="#DejaVuSans-72"/>
     <use x="583.923828" xlink:href="#DejaVuSans-69"/>
     <use x="611.707031" xlink:href="#DejaVuSans-70"/>
     <use x="675.183594" xlink:href="#DejaVuSans-6c"/>
     <use x="702.966797" xlink:href="#DejaVuSans-65"/>
    </g>
   </g>
   <g id="text_2">
    <g id="patch_3">
     <path d="M 97.478293 82.334836 
L 109.813394 89.514016 
L 110.80717 87.806532 
L 98.47207 80.627352 
z
" style="fill:#ffffff;"/>
    </g>
    <!-- Mohawk Triple -->
    <g style="fill:#808080;" transform="translate(97.714863 81.968127)rotate(-329.800071)scale(0.02 -0.02)">
     <defs>
      <path d="M 628 4666 
L 1569 4666 
L 2759 1491 
L 3956 4666 
L 4897 4666 
L 4897 0 
L 4281 0 
L 4281 4097 
L 3078 897 
L 2444 897 
L 1241 4097 
L 1241 0 
L 628 0 
L 628 4666 
z
" id="DejaVuSans-4d" transform="scale(0.015625)"/>
      <path d="M 1959 3097 
Q 1497 3097 1228 2736 
Q 959 2375 959 1747 
Q 959 1119 1226 758 
Q 1494 397 1959 397 
Q 2419 397 2687 759 
Q 2956 1122 2956 1747 
Q 2956 2369 2687 2733 
Q 2419 3097 1959 3097 
z
M 1959 3584 
Q 2709 3584 3137 3096 
Q 3566 2609 3566 1747 
Q 3566 888 3137 398 
Q 2709 -91 1959 -91 
Q 1206 -91 779 398 
Q 353 888 353 1747 
Q 353 2609 779 3096 
Q 1206 3584 1959 3584 
z
" id="DejaVuSans-6f" transform="scale(0.015625)"/>
      <path d="M 3513 2113 
L 3513 0 
L 2938 0 
L 2938 2094 
Q 2938 2591 2744 2837 
Q 2550 3084 2163 3084 
Q 1697 3084 1428 2787 
Q 1159 2491 1159 1978 
L 1159 0 
L 581 0 
L 581 4863 
L 1159 4863 
L 1159 2956 
Q 1366 3272 1645 3428 
Q 1925 3584 2291 3584 
Q 2894 3584 3203 3211 
Q 3513 2838 3513 2113 
z
" id="DejaVuSans-68" transform="scale(0.015625)"/>
      <path d="M 2194 1759 
Q 1497 1759 1228 1600 
Q 959 1441 959 1056 
Q 959 750 1161 570 
Q 1363 391 1709 391 
Q 2188 391 2477 730 
Q 2766 1069 2766 1631 
L 2766 1759 
L 2194 1759 
z
M 3341 1997 
L 3341 0 
L 2766 0 
L 2766 531 
Q 2569 213 2275 61 
Q 1981 -91 1556 -91 
Q 1019 -91 701 211 
Q 384 513 384 1019 
Q 384 1609 779 1909 
Q 1175 2209 1959 2209 
L 2766 2209 
L 2766 2266 
Q 2766 2663 2505 2880 
Q 2244 3097 1772 3097 
Q 1472 3097 1187 3025 
Q 903 2953 641 2809 
L 641 3341 
Q 956 3463 1253 3523 
Q 1550 3584 1831 3584 
Q 2591 3584 2966 3190 
Q 3341 2797 3341 1997 
z
" id="DejaVuSans-61" transform="scale(0.015625)"/>
      <path d="M 269 3500 
L 844 3500 
L 1563 769 
L 2278 3500 
L 2956 3500 
L 3675 769 
L 4391 3500 
L 4966 3500 
L 4050 0 
L 3372 0 
L 2619 2869 
L 1863 0 
L 1184 0 
L 269 3500 
z
" id="DejaVuSans-77" transform="scale(0.015625)"/>
      <path d="M 581 4863 
L 1159 4863 
L 1159 1991 
L 2875 3500 
L 3609 3500 
L 1753 1863 
L 3688 0 
L 2938 0 
L 1159 1709 
L 1159 0 
L 581 0 
L 581 4863 
z
" id="DejaVuSans-6b" transform="scale(0.015625)"/>
     </defs>
     <use xlink:href="#DejaVuSans-4d"/>
     <use x="86.279297" xlink:href="#DejaVuSans-6f"/>
     <use x="147.460938" xlink:href="#DejaVuSans-68"/>
     <use x="210.839844" xlink:href="#DejaVuSans-61"/>
     <use x="272.119141" xlink:href="#DejaVuSans-77"/>
     <use x="353.90625" xlink:href="#DejaVuSans-6b"/>
     <use x="411.816406" xlink:href="#DejaVuSans-20"/>
     <use x="443.603516" xlink:href="#DejaVuSans-54"/>
     <use x="489.9375" xlink:href="#DejaVuSans-72"/>
     <use x="531.050781" xlink:href="#DejaVuSans-69"/>
     <use x="558.833984" xlink:href="#DejaVuSans-70"/>
     <use x="622.310547" xlink:href="#DejaVuSans-6c"/>
     <use x="650.09375" xlink:href="#DejaVuSans-65"/>
    </g>
   </g>
   <g id="text_3">
    <g id="patch_4">
     <path d="M 72.952624 90.520966 
L 85.843934 101.326917 
L 87.113073 99.812857 
L 74.221763 89.006905 
z
" style="fill:#ffffff;"/>
    </g>
    <!-- Arrowhead Triple -->
    <g style="fill:#808080;" transform="translate(73.247997 90.199725)rotate(-320.029074)scale(0.02 -0.02)">
     <defs>
      <path d="M 2188 4044 
L 1331 1722 
L 3047 1722 
L 2188 4044 
z
M 1831 4666 
L 2547 4666 
L 4325 0 
L 3669 0 
L 3244 1197 
L 1141 1197 
L 716 0 
L 50 0 
L 1831 4666 
z
" id="DejaVuSans-41" transform="scale(0.015625)"/>
      <path d="M 2906 2969 
L 2906 4863 
L 3481 4863 
L 3481 0 
L 2906 0 
L 2906 525 
Q 2725 213 2448 61 
Q 2172 -91 1784 -91 
Q 1150 -91 751 415 
Q 353 922 353 1747 
Q 353 2572 751 3078 
Q 1150 3584 1784 3584 
Q 2172 3584 2448 3432 
Q 2725 3281 2906 2969 
z
M 947 1747 
Q 947 1113 1208 752 
Q 1469 391 1925 391 
Q 2381 391 2643 752 
Q 2906 1113 2906 1747 
Q 2906 2381 2643 2742 
Q 2381 3103 1925 3103 
Q 1469 3103 1208 2742 
Q 947 2381 947 1747 
z
" id="DejaVuSans-64" transform="scale(0.015625)"/>
     </defs>
     <use xlink:href="#DejaVuSans-41"/>
     <use x="68.408203" xlink:href="#DejaVuSans-72"/>
     <use x="107.771484" xlink:href="#DejaVuSans-72"/>
     <use x="146.634766" xlink:href="#DejaVuSans-6f"/>
     <use x="207.816406" xlink:href="#DejaVuSans-77"/>
     <use x="289.603516" xlink:href="#DejaVuSans-68"/>
     <use x="352.982422" xlink:href="#DejaVuSans-65"/>
     <use x="414.505859" xlink:href="#DejaVuSans-61"/>
     <use x="475.785156" xlink:href="#DejaVuSans-64"/>
     <use x="539.261719" xlink:href="#DejaVuSans-20"/>
     <use x="571.048828" xlink:href="#DejaVuSans-54"/>
     <use x="617.382812" xlink:href="#DejaVuSans-72"/>
     <use x="658.496094" xlink:href="#DejaVuSans-69"/>
     <use x="686.279297" xlink:href="#DejaVuSans-70"/>
     <use x="749.755859" xlink:href="#DejaVuSans-6c"/>
     <use x="777.539062" xlink:href="#DejaVuSans-65"/>
    </g>
   </g>
   <g id="text_4">
    <g id="patch_5">
     <path d="M 66.159192 95.055148 
L 84.634701 107.338684 
L 85.728516 105.69349 
L 67.253007 93.409954 
z
" style="fill:#ffffff;"/>
    </g>
    <!-- Boulder Summit Triple -->
    <g style="fill:#808080;" transform="translate(66.417206 94.703196)rotate(-326.381852)scale(0.02 -0.02)">
     <defs>
      <path d="M 1259 2228 
L 1259 519 
L 2272 519 
Q 2781 519 3026 730 
Q 3272 941 3272 1375 
Q 3272 1813 3026 2020 
Q 2781 2228 2272 2228 
L 1259 2228 
z
M 1259 4147 
L 1259 2741 
L 2194 2741 
Q 2656 2741 2882 2914 
Q 3109 3088 3109 3444 
Q 3109 3797 2882 3972 
Q 2656 4147 2194 4147 
L 1259 4147 
z
M 628 4666 
L 2241 4666 
Q 2963 4666 3353 4366 
Q 3744 4066 3744 3513 
Q 3744 3084 3544 2831 
Q 3344 2578 2956 2516 
Q 3422 2416 3680 2098 
Q 3938 1781 3938 1306 
Q 3938 681 3513 340 
Q 3088 0 2303 0 
L 628 0 
L 628 4666 
z
" id="DejaVuSans-42" transform="scale(0.015625)"/>
      <path d="M 3425 4513 
L 3425 3897 
Q 3066 4069 2747 4153 
Q 2428 4238 2131 4238 
Q 1616 4238 1336 4038 
Q 1056 3838 1056 3469 
Q 1056 3159 1242 3001 
Q 1428 2844 1947 2747 
L 2328 2669 
Q 3034 2534 3370 2195 
Q 3706 1856 3706 1288 
Q 3706 609 3251 259 
Q 2797 -91 1919 -91 
Q 1588 -91 1214 -16 
Q 841 59 441 206 
L 441 856 
Q 825 641 1194 531 
Q 1563 422 1919 422 
Q 2459 422 2753 634 
Q 3047 847 3047 1241 
Q 3047 1584 2836 1778 
Q 2625 1972 2144 2069 
L 1759 2144 
Q 1053 2284 737 2584 
Q 422 2884 422 3419 
Q 422 4038 858 4394 
Q 1294 4750 2059 4750 
Q 2388 4750 2728 4690 
Q 3069 4631 3425 4513 
z
" id="DejaVuSans-53" transform="scale(0.015625)"/>
      <path d="M 3328 2828 
Q 3544 3216 3844 3400 
Q 4144 3584 4550 3584 
Q 5097 3584 5394 3201 
Q 5691 2819 5691 2113 
L 5691 0 
L 5113 0 
L 5113 2094 
Q 5113 2597 4934 2840 
Q 4756 3084 4391 3084 
Q 3944 3084 3684 2787 
Q 3425 2491 3425 1978 
L 3425 0 
L 2847 0 
L 2847 2094 
Q 2847 2600 2669 2842 
Q 2491 3084 2119 3084 
Q 1678 3084 1418 2786 
Q 1159 2488 1159 1978 
L 1159 0 
L 581 0 
L 581 3500 
L 1159 3500 
L 1159 2956 
Q 1356 3278 1631 3431 
Q 1906 3584 2284 3584 
Q 2666 3584 2933 3390 
Q 3200 3197 3328 2828 
z
" id="DejaVuSans-6d" transform="scale(0.015625)"/>
      <path d="M 1172 4494 
L 1172 3500 
L 2356 3500 
L 2356 3053 
L 1172 3053 
L 1172 1153 
Q 1172 725 1289 603 
Q 1406 481 1766 481 
L 2356 481 
L 2356 0 
L 1766 0 
Q 1100 0 847 248 
Q 594 497 594 1153 
L 594 3053 
L 172 3053 
L 172 3500 
L 594 3500 
L 594 4494 
L 1172 4494 
z
" id="DejaVuSans-74" transform="scale(0.015625)"/>
     </defs>
     <use xlink:href="#DejaVuSans-42"/>
     <use x="68.603516" xlink:href="#DejaVuSans-6f"/>
     <use x="129.785156" xlink:href="#DejaVuSans-75"/>
     <use x="193.164062" xlink:href="#DejaVuSans-6c"/>
     <use x="220.947266" xlink:href="#DejaVuSans-64"/>
     <use x="284.423828" xlink:href="#DejaVuSans-65"/>
     <use x="345.947266" xlink:href="#DejaVuSans-72"/>
     <use x="387.060547" xlink:href="#DejaVuSans-20"/>
     <use x="418.847656" xlink:href="#DejaVuSans-53"/>
     <use x="482.324219" xlink:href="#DejaVuSans-75"/>
     <use x="545.703125" xlink:href="#DejaVuSans-6d"/>
     <use x="643.115234" xlink:href="#DejaVuSans-6d"/>
     <use x="740.527344" xlink:href="#DejaVuSans-69"/>
     <use x="768.310547" xlink:href="#DejaVuSans-74"/>
     <use x="807.519531" xlink:href="#DejaVuSans-20"/>
     <use x="839.306641" xlink:href="#DejaVuSans-54"/>
     <use x="885.640625" xlink:href="#DejaVuSans-72"/>
     <use x="926.753906" xlink:href="#DejaVuSans-69"/>
     <use x="954.537109" xlink:href="#DejaVuSans-70"/>
     <use x="1018.013672" xlink:href="#DejaVuSans-6c"/>
     <use x="1045.796875" xlink:href="#DejaVuSans-65"/>
    </g>
   </g>
   <g id="text_5">
    <g id="patch_6">
     <path d="M 22.984041 68.218067 
L 33.280162 76.340169 
L 34.503751 74.789066 
L 24.207631 66.666964 
z
" style="fill:#ffffff;"/>
    </g>
    <!-- Timber 26.6° -->
    <g transform="translate(23.269738 67.888191)rotate(-321.731832)scale(0.02 -0.02)">
     <defs>
      <path d="M 3116 1747 
Q 3116 2381 2855 2742 
Q 2594 3103 2138 3103 
Q 1681 3103 1420 2742 
Q 1159 2381 1159 1747 
Q 1159 1113 1420 752 
Q 1681 391 2138 391 
Q 2594 391 2855 752 
Q 3116 1113 3116 1747 
z
M 1159 2969 
Q 1341 3281 1617 3432 
Q 1894 3584 2278 3584 
Q 2916 3584 3314 3078 
Q 3713 2572 3713 1747 
Q 3713 922 3314 415 
Q 2916 -91 2278 -91 
Q 1894 -91 1617 61 
Q 1341 213 1159 525 
L 1159 0 
L 581 0 
L 581 4863 
L 1159 4863 
L 1159 2969 
z
" id="DejaVuSans-62" transform="scale(0.015625)"/>
      <path d="M 1228 531 
L 3431 531 
L 3431 0 
L 469 0 
L 469 531 
Q 828 903 1448 1529 
Q 2069 2156 2228 2338 
Q 2531 2678 2651 2914 
Q 2772 3150 2772 3378 
Q 2772 3750 2511 3984 
Q 2250 4219 1831 4219 
Q 1534 4219 1204 4116 
Q 875 4013 500 3803 
L 500 4441 
Q 881 4594 1212 4672 
Q 1544 4750 1819 4750 
Q 2544 4750 2975 4387 
Q 3406 4025 3406 3419 
Q 3406 3131 3298 2873 
Q 3191 2616 2906 2266 
Q 2828 2175 2409 1742 
Q 1991 1309 1228 531 
z
" id="DejaVuSans-32" transform="scale(0.015625)"/>
      <path d="M 2113 2584 
Q 1688 2584 1439 2293 
Q 1191 2003 1191 1497 
Q 1191 994 1439 701 
Q 1688 409 2113 409 
Q 2538 409 2786 701 
Q 3034 994 3034 1497 
Q 3034 2003 2786 2293 
Q 2538 2584 2113 2584 
z
M 3366 4563 
L 3366 3988 
Q 3128 4100 2886 4159 
Q 2644 4219 2406 4219 
Q 1781 4219 1451 3797 
Q 1122 3375 1075 2522 
Q 1259 2794 1537 2939 
Q 1816 3084 2150 3084 
Q 2853 3084 3261 2657 
Q 3669 2231 3669 1497 
Q 3669 778 3244 343 
Q 2819 -91 2113 -91 
Q 1303 -91 875 529 
Q 447 1150 447 2328 
Q 447 3434 972 4092 
Q 1497 4750 2381 4750 
Q 2619 4750 2861 4703 
Q 3103 4656 3366 4563 
z
" id="DejaVuSans-36" transform="scale(0.015625)"/>
      <path d="M 684 794 
L 1344 794 
L 1344 0 
L 684 0 
L 684 794 
z
" id="DejaVuSans-2e" transform="scale(0.015625)"/>
      <path d="M 1600 4347 
Q 1350 4347 1178 4173 
Q 1006 4000 1006 3750 
Q 1006 3503 1178 3333 
Q 1350 3163 1600 3163 
Q 1850 3163 2022 3333 
Q 2194 3503 2194 3750 
Q 2194 3997 2020 4172 
Q 1847 4347 1600 4347 
z
M 1600 4750 
Q 1800 4750 1984 4673 
Q 2169 4597 2303 4453 
Q 2447 4313 2519 4134 
Q 2591 3956 2591 3750 
Q 2591 3338 2302 3052 
Q 2013 2766 1594 2766 
Q 1172 2766 890 3047 
Q 609 3328 609 3750 
Q 609 4169 896 4459 
Q 1184 4750 1600 4750 
z
" id="DejaVuSans-b0" transform="scale(0.015625)"/>
     </defs>
     <use xlink:href="#DejaVuSans-54"/>
     <use x="57.958984" xlink:href="#DejaVuSans-69"/>
     <use x="85.742188" xlink:href="#DejaVuSans-6d"/>
     <use x="183.154297" xlink:href="#DejaVuSans-62"/>
     <use x="246.630859" xlink:href="#DejaVuSans-65"/>
     <use x="308.154297" xlink:href="#DejaVuSans-72"/>
     <use x="349.267578" xlink:href="#DejaVuSans-20"/>
     <use x="381.054688" xlink:href="#DejaVuSans-32"/>
     <use x="444.677734" xlink:href="#DejaVuSans-36"/>
     <use x="508.300781" xlink:href="#DejaVuSans-2e"/>
     <use x="540.087891" xlink:href="#DejaVuSans-36"/>
     <use x="603.710938" xlink:href="#DejaVuSans-b0"/>
    </g>
   </g>
   <g id="text_6">
    <g id="patch_7">
     <path d="M 23.663934 60.951335 
L 33.348267 68.163778 
L 34.528315 66.579297 
L 24.843982 59.366854 
z
" style="fill:#ffffff;"/>
    </g>
    <!-- Chute 18.1° -->
    <g style="fill:#4169e1;" transform="translate(23.940362 60.613653)rotate(-323.322964)scale(0.02 -0.02)">
     <defs>
      <path d="M 4122 4306 
L 4122 3641 
Q 3803 3938 3442 4084 
Q 3081 4231 2675 4231 
Q 1875 4231 1450 3742 
Q 1025 3253 1025 2328 
Q 1025 1406 1450 917 
Q 1875 428 2675 428 
Q 3081 428 3442 575 
Q 3803 722 4122 1019 
L 4122 359 
Q 3791 134 3420 21 
Q 3050 -91 2638 -91 
Q 1578 -91 968 557 
Q 359 1206 359 2328 
Q 359 3453 968 4101 
Q 1578 4750 2638 4750 
Q 3056 4750 3426 4639 
Q 3797 4528 4122 4306 
z
" id="DejaVuSans-43" transform="scale(0.015625)"/>
      <path d="M 794 531 
L 1825 531 
L 1825 4091 
L 703 3866 
L 703 4441 
L 1819 4666 
L 2450 4666 
L 2450 531 
L 3481 531 
L 3481 0 
L 794 0 
L 794 531 
z
" id="DejaVuSans-31" transform="scale(0.015625)"/>
      <path d="M 2034 2216 
Q 1584 2216 1326 1975 
Q 1069 1734 1069 1313 
Q 1069 891 1326 650 
Q 1584 409 2034 409 
Q 2484 409 2743 651 
Q 3003 894 3003 1313 
Q 3003 1734 2745 1975 
Q 2488 2216 2034 2216 
z
M 1403 2484 
Q 997 2584 770 2862 
Q 544 3141 544 3541 
Q 544 4100 942 4425 
Q 1341 4750 2034 4750 
Q 2731 4750 3128 4425 
Q 3525 4100 3525 3541 
Q 3525 3141 3298 2862 
Q 3072 2584 2669 2484 
Q 3125 2378 3379 2068 
Q 3634 1759 3634 1313 
Q 3634 634 3220 271 
Q 2806 -91 2034 -91 
Q 1263 -91 848 271 
Q 434 634 434 1313 
Q 434 1759 690 2068 
Q 947 2378 1403 2484 
z
M 1172 3481 
Q 1172 3119 1398 2916 
Q 1625 2713 2034 2713 
Q 2441 2713 2670 2916 
Q 2900 3119 2900 3481 
Q 2900 3844 2670 4047 
Q 2441 4250 2034 4250 
Q 1625 4250 1398 4047 
Q 1172 3844 1172 3481 
z
" id="DejaVuSans-38" transform="scale(0.015625)"/>
     </defs>
     <use xlink:href="#DejaVuSans-43"/>
     <use x="69.824219" xlink:href="#DejaVuSans-68"/>
     <use x="133.203125" xlink:href="#DejaVuSans-75"/>
     <use x="196.582031" xlink:href="#DejaVuSans-74"/>
     <use x="235.791016" xlink:href="#DejaVuSans-65"/>
     <use x="297.314453" xlink:href="#DejaVuSans-20"/>
     <use x="329.101562" xlink:href="#DejaVuSans-31"/>
     <use x="392.724609" xlink:href="#DejaVuSans-38"/>
     <use x="456.347656" xlink:href="#DejaVuSans-2e"/>
     <use x="488.134766" xlink:href="#DejaVuSans-31"/>
     <use x="551.757812" xlink:href="#DejaVuSans-b0"/>
    </g>
   </g>
   <g id="text_7">
    <g id="patch_8">
     <path d="M 67.890016 100.701836 
L 79.711889 113.183117 
L 81.146242 111.824543 
L 69.324369 99.343261 
z
" style="fill:#ffffff;"/>
    </g>
    <!-- The Rapids 15.8° -->
    <g style="fill:#008000;" transform="translate(68.220271 100.416576)rotate(-313.445796)scale(0.02 -0.02)">
     <defs>
      <path d="M 2834 3397 
L 2834 2853 
Q 2591 2978 2328 3040 
Q 2066 3103 1784 3103 
Q 1356 3103 1142 2972 
Q 928 2841 928 2578 
Q 928 2378 1081 2264 
Q 1234 2150 1697 2047 
L 1894 2003 
Q 2506 1872 2764 1633 
Q 3022 1394 3022 966 
Q 3022 478 2636 193 
Q 2250 -91 1575 -91 
Q 1294 -91 989 -36 
Q 684 19 347 128 
L 347 722 
Q 666 556 975 473 
Q 1284 391 1588 391 
Q 1994 391 2212 530 
Q 2431 669 2431 922 
Q 2431 1156 2273 1281 
Q 2116 1406 1581 1522 
L 1381 1569 
Q 847 1681 609 1914 
Q 372 2147 372 2553 
Q 372 3047 722 3315 
Q 1072 3584 1716 3584 
Q 2034 3584 2315 3537 
Q 2597 3491 2834 3397 
z
" id="DejaVuSans-73" transform="scale(0.015625)"/>
      <path d="M 691 4666 
L 3169 4666 
L 3169 4134 
L 1269 4134 
L 1269 2991 
Q 1406 3038 1543 3061 
Q 1681 3084 1819 3084 
Q 2600 3084 3056 2656 
Q 3513 2228 3513 1497 
Q 3513 744 3044 326 
Q 2575 -91 1722 -91 
Q 1428 -91 1123 -41 
Q 819 9 494 109 
L 494 744 
Q 775 591 1075 516 
Q 1375 441 1709 441 
Q 2250 441 2565 725 
Q 2881 1009 2881 1497 
Q 2881 1984 2565 2268 
Q 2250 2553 1709 2553 
Q 1456 2553 1204 2497 
Q 953 2441 691 2322 
L 691 4666 
z
" id="DejaVuSans-35" transform="scale(0.015625)"/>
     </defs>
     <use xlink:href="#DejaVuSans-54"/>
     <use x="61.083984" xlink:href="#DejaVuSans-68"/>
     <use x="124.462891" xlink:href="#DejaVuSans-65"/>
     <use x="185.986328" xlink:href="#DejaVuSans-20"/>
     <use x="217.773438" xlink:href="#DejaVuSans-52"/>
     <use x="285.005859" xlink:href="#DejaVuSans-61"/>
     <use x="346.285156" xlink:href="#DejaVuSans-70"/>
     <use x="409.761719" xlink:href="#DejaVuSans-69"/>
     <use x="437.544922" xlink:href="#DejaVuSans-64"/>
     <use x="501.021484" xlink:href="#DejaVuSans-73"/>
     <use x="553.121094" xlink:href="#DejaVuSans-20"/>
     <use x="584.908203" xlink:href="#DejaVuSans-31"/>
     <use x="648.53125" xlink:href="#DejaVuSans-35"/>
     <use x="712.154297" xlink:href="#DejaVuSans-2e"/>
     <use x="743.941406" xlink:href="#DejaVuSans-38"/>
     <use x="807.564453" xlink:href="#DejaVuSans-b0"/>
    </g>
   </g>
   <g id="text_8">
    <g id="patch_9">
     <path d="M 69.920403 100.498526 
L 81.730066 108.120365 
L 82.801374 106.460427 
L 70.99171 98.838588 
z
" style="fill:#ffffff;"/>
    </g>
    <!-- Lift Line 11.9° -->
    <g style="fill:#008000;" transform="translate(70.173599 100.143092)rotate(-327.162204)scale(0.02 -0.02)">
     <defs>
      <path d="M 628 4666 
L 1259 4666 
L 1259 531 
L 3531 531 
L 3531 0 
L 628 0 
L 628 4666 
z
" id="DejaVuSans-4c" transform="scale(0.015625)"/>
      <path d="M 2375 4863 
L 2375 4384 
L 1825 4384 
Q 1516 4384 1395 4259 
Q 1275 4134 1275 3809 
L 1275 3500 
L 2222 3500 
L 2222 3053 
L 1275 3053 
L 1275 0 
L 697 0 
L 697 3053 
L 147 3053 
L 147 3500 
L 697 3500 
L 697 3744 
Q 697 4328 969 4595 
Q 1241 4863 1831 4863 
L 2375 4863 
z
" id="DejaVuSans-66" transform="scale(0.015625)"/>
      <path d="M 703 97 
L 703 672 
Q 941 559 1184 500 
Q 1428 441 1663 441 
Q 2288 441 2617 861 
Q 2947 1281 2994 2138 
Q 2813 1869 2534 1725 
Q 2256 1581 1919 1581 
Q 1219 1581 811 2004 
Q 403 2428 403 3163 
Q 403 3881 828 4315 
Q 1253 4750 1959 4750 
Q 2769 4750 3195 4129 
Q 3622 3509 3622 2328 
Q 3622 1225 3098 567 
Q 2575 -91 1691 -91 
Q 1453 -91 1209 -44 
Q 966 3 703 97 
z
M 1959 2075 
Q 2384 2075 2632 2365 
Q 2881 2656 2881 3163 
Q 2881 3666 2632 3958 
Q 2384 4250 1959 4250 
Q 1534 4250 1286 3958 
Q 1038 3666 1038 3163 
Q 1038 2656 1286 2365 
Q 1534 2075 1959 2075 
z
" id="DejaVuSans-39" transform="scale(0.015625)"/>
     </defs>
     <use xlink:href="#DejaVuSans-4c"/>
     <use x="55.712891" xlink:href="#DejaVuSans-69"/>
     <use x="83.496094" xlink:href="#DejaVuSans-66"/>
     <use x="116.951172" xlink:href="#DejaVuSans-74"/>
     <use x="156.160156" xlink:href="#DejaVuSans-20"/>
     <use x="187.947266" xlink:href="#DejaVuSans-4c"/>
     <use x="243.660156" xlink:href="#DejaVuSans-69"/>
     <use x="271.443359" xlink:href="#DejaVuSans-6e"/>
     <use x="334.822266" xlink:href="#DejaVuSans-65"/>
     <use x="396.345703" xlink:href="#DejaVuSans-20"/>
     <use x="428.132812" xlink:href="#DejaVuSans-31"/>
     <use x="491.755859" xlink:href="#DejaVuSans-31"/>
     <use x="555.378906" xlink:href="#DejaVuSans-2e"/>
     <use x="587.166016" xlink:href="#DejaVuSans-39"/>
     <use x="650.789062" xlink:href="#DejaVuSans-b0"/>
    </g>
   </g>
   <g id="text_9">
    <g id="patch_10">
     <path d="M 24.685984 57.198133 
L 37.992331 65.708312 
L 39.056777 64.043966 
L 25.75043 55.533787 
z
" style="fill:#ffffff;"/>
    </g>
    <!-- Wildwood 25.8° -->
    <g transform="translate(24.937711 56.841657)rotate(-327.39873)scale(0.02 -0.02)">
     <defs>
      <path d="M 213 4666 
L 850 4666 
L 1831 722 
L 2809 4666 
L 3519 4666 
L 4500 722 
L 5478 4666 
L 6119 4666 
L 4947 0 
L 4153 0 
L 3169 4050 
L 2175 0 
L 1381 0 
L 213 4666 
z
" id="DejaVuSans-57" transform="scale(0.015625)"/>
     </defs>
     <use xlink:href="#DejaVuSans-57"/>
     <use x="96.626953" xlink:href="#DejaVuSans-69"/>
     <use x="124.410156" xlink:href="#DejaVuSans-6c"/>
     <use x="152.193359" xlink:href="#DejaVuSans-64"/>
     <use x="215.669922" xlink:href="#DejaVuSans-77"/>
     <use x="297.457031" xlink:href="#DejaVuSans-6f"/>
     <use x="358.638672" xlink:href="#DejaVuSans-6f"/>
     <use x="419.820312" xlink:href="#DejaVuSans-64"/>
     <use x="483.296875" xlink:href="#DejaVuSans-20"/>
     <use x="515.083984" xlink:href="#DejaVuSans-32"/>
     <use x="578.707031" xlink:href="#DejaVuSans-35"/>
     <use x="642.330078" xlink:href="#DejaVuSans-2e"/>
     <use x="674.117188" xlink:href="#DejaVuSans-38"/>
     <use x="737.740234" xlink:href="#DejaVuSans-b0"/>
    </g>
   </g>
   <g id="text_10">
    <g id="patch_11">
     <path d="M 66.129354 74.572048 
L 80.553596 84.978388 
L 81.70949 83.376202 
L 67.285248 72.969861 
z
" style="fill:#ffffff;"/>
    </g>
    <!-- Arrow Head 17.0° -->
    <g style="fill:#008000;" transform="translate(66.400631 74.230214)rotate(-324.191511)scale(0.02 -0.02)">
     <defs>
      <path d="M 628 4666 
L 1259 4666 
L 1259 2753 
L 3553 2753 
L 3553 4666 
L 4184 4666 
L 4184 0 
L 3553 0 
L 3553 2222 
L 1259 2222 
L 1259 0 
L 628 0 
L 628 4666 
z
" id="DejaVuSans-48" transform="scale(0.015625)"/>
      <path d="M 525 4666 
L 3525 4666 
L 3525 4397 
L 1831 0 
L 1172 0 
L 2766 4134 
L 525 4134 
L 525 4666 
z
" id="DejaVuSans-37" transform="scale(0.015625)"/>
      <path d="M 2034 4250 
Q 1547 4250 1301 3770 
Q 1056 3291 1056 2328 
Q 1056 1369 1301 889 
Q 1547 409 2034 409 
Q 2525 409 2770 889 
Q 3016 1369 3016 2328 
Q 3016 3291 2770 3770 
Q 2525 4250 2034 4250 
z
M 2034 4750 
Q 2819 4750 3233 4129 
Q 3647 3509 3647 2328 
Q 3647 1150 3233 529 
Q 2819 -91 2034 -91 
Q 1250 -91 836 529 
Q 422 1150 422 2328 
Q 422 3509 836 4129 
Q 1250 4750 2034 4750 
z
" id="DejaVuSans-30" transform="scale(0.015625)"/>
     </defs>
     <use xlink:href="#DejaVuSans-41"/>
     <use x="68.408203" xlink:href="#DejaVuSans-72"/>
     <use x="107.771484" xlink:href="#DejaVuSans-72"/>
     <use x="146.634766" xlink:href="#DejaVuSans-6f"/>
     <use x="207.816406" xlink:href="#DejaVuSans-77"/>
     <use x="289.603516" xlink:href="#DejaVuSans-20"/>
     <use x="321.390625" xlink:href="#DejaVuSans-48"/>
     <use x="396.585938" xlink:href="#DejaVuSans-65"/>
     <use x="458.109375" xlink:href="#DejaVuSans-61"/>
     <use x="519.388672" xlink:href="#DejaVuSans-64"/>
     <use x="582.865234" xlink:href="#DejaVuSans-20"/>
     <use x="614.652344" xlink:href="#DejaVuSans-31"/>
     <use x="678.275391" xlink:href="#DejaVuSans-37"/>
     <use x="741.898438" xlink:href="#DejaVuSans-2e"/>
     <use x="773.685547" xlink:href="#DejaVuSans-30"/>
     <use x="837.308594" xlink:href="#DejaVuSans-b0"/>
    </g>
   </g>
   <g id="text_11">
    <g id="patch_12">
     <path d="M 57.225146 77.475679 
L 70.643549 86.292115 
L 71.728401 84.640997 
L 58.309997 75.82456 
z
" style="fill:#ffffff;"/>
    </g>
    <!-- Exhibition 19.9° -->
    <g style="fill:#4169e1;" transform="translate(57.481242 77.122328)rotate(-326.69346)scale(0.02 -0.02)">
     <defs>
      <path d="M 628 4666 
L 3578 4666 
L 3578 4134 
L 1259 4134 
L 1259 2753 
L 3481 2753 
L 3481 2222 
L 1259 2222 
L 1259 531 
L 3634 531 
L 3634 0 
L 628 0 
L 628 4666 
z
" id="DejaVuSans-45" transform="scale(0.015625)"/>
      <path d="M 3513 3500 
L 2247 1797 
L 3578 0 
L 2900 0 
L 1881 1375 
L 863 0 
L 184 0 
L 1544 1831 
L 300 3500 
L 978 3500 
L 1906 2253 
L 2834 3500 
L 3513 3500 
z
" id="DejaVuSans-78" transform="scale(0.015625)"/>
     </defs>
     <use xlink:href="#DejaVuSans-45"/>
     <use x="63.183594" xlink:href="#DejaVuSans-78"/>
     <use x="122.363281" xlink:href="#DejaVuSans-68"/>
     <use x="185.742188" xlink:href="#DejaVuSans-69"/>
     <use x="213.525391" xlink:href="#DejaVuSans-62"/>
     <use x="277.001953" xlink:href="#DejaVuSans-69"/>
     <use x="304.785156" xlink:href="#DejaVuSans-74"/>
     <use x="343.994141" xlink:href="#DejaVuSans-69"/>
     <use x="371.777344" xlink:href="#DejaVuSans-6f"/>
     <use x="432.958984" xlink:href="#DejaVuSans-6e"/>
     <use x="496.337891" xlink:href="#DejaVuSans-20"/>
     <use x="528.125" xlink:href="#DejaVuSans-31"/>
     <use x="591.748047" xlink:href="#DejaVuSans-39"/>
     <use x="655.371094" xlink:href="#DejaVuSans-2e"/>
     <use x="687.158203" xlink:href="#DejaVuSans-39"/>
     <use x="750.78125" xlink:href="#DejaVuSans-b0"/>
    </g>
   </g>
   <g id="text_12">
    <g id="patch_13">
     <path d="M 31.884933 35.673353 
L 41.044902 46.738984 
L 42.566763 45.47921 
L 33.406795 34.413578 
z
" style="fill:#ffffff;"/>
    </g>
    <!-- Mohawk 19.6° -->
    <g style="fill:#4169e1;" transform="translate(32.233497 35.41078)rotate(-309.617462)scale(0.02 -0.02)">
     <use xlink:href="#DejaVuSans-4d"/>
     <use x="86.279297" xlink:href="#DejaVuSans-6f"/>
     <use x="147.460938" xlink:href="#DejaVuSans-68"/>
     <use x="210.839844" xlink:href="#DejaVuSans-61"/>
     <use x="272.119141" xlink:href="#DejaVuSans-77"/>
     <use x="353.90625" xlink:href="#DejaVuSans-6b"/>
     <use x="411.816406" xlink:href="#DejaVuSans-20"/>
     <use x="443.603516" xlink:href="#DejaVuSans-31"/>
     <use x="507.226562" xlink:href="#DejaVuSans-39"/>
     <use x="570.849609" xlink:href="#DejaVuSans-2e"/>
     <use x="602.636719" xlink:href="#DejaVuSans-36"/>
     <use x="666.259766" xlink:href="#DejaVuSans-b0"/>
    </g>
   </g>
   <g id="text_13">
    <g id="patch_14">
     <path d="M 34.884695 35.452604 
L 49.056062 43.681974 
L 50.048168 41.973519 
L 35.876802 33.744149 
z
" style="fill:#ffffff;"/>
    </g>
    <!-- Route 100 18.9° -->
    <g style="fill:#4169e1;" transform="translate(35.120906 35.085664)rotate(-329.856093)scale(0.02 -0.02)">
     <use xlink:href="#DejaVuSans-52"/>
     <use x="64.982422" xlink:href="#DejaVuSans-6f"/>
     <use x="126.164062" xlink:href="#DejaVuSans-75"/>
     <use x="189.542969" xlink:href="#DejaVuSans-74"/>
     <use x="228.751953" xlink:href="#DejaVuSans-65"/>
     <use x="290.275391" xlink:href="#DejaVuSans-20"/>
     <use x="322.0625" xlink:href="#DejaVuSans-31"/>
     <use x="385.685547" xlink:href="#DejaVuSans-30"/>
     <use x="449.308594" xlink:href="#DejaVuSans-30"/>
     <use x="512.931641" xlink:href="#DejaVuSans-20"/>
     <use x="544.71875" xlink:href="#DejaVuSans-31"/>
     <use x="608.341797" xlink:href="#DejaVuSans-38"/>
     <use x="671.964844" xlink:href="#DejaVuSans-2e"/>
     <use x="703.751953" xlink:href="#DejaVuSans-39"/>
     <use x="767.375" xlink:href="#DejaVuSans-b0"/>
    </g>
   </g>
   <g id="text_14">
    <g id="patch_15">
     <path d="M 41.450422 23.463212 
L 47.48399 36.639346 
L 49.280245 35.816811 
L 43.246677 22.640677 
z
" style="fill:#ffffff;"/>
    </g>
    <!-- Pinnacle 17.1° -->
    <g style="fill:#4169e1;" transform="translate(41.855107 23.299897)rotate(-294.603821)scale(0.02 -0.02)">
     <defs>
      <path d="M 1259 4147 
L 1259 2394 
L 2053 2394 
Q 2494 2394 2734 2622 
Q 2975 2850 2975 3272 
Q 2975 3691 2734 3919 
Q 2494 4147 2053 4147 
L 1259 4147 
z
M 628 4666 
L 2053 4666 
Q 2838 4666 3239 4311 
Q 3641 3956 3641 3272 
Q 3641 2581 3239 2228 
Q 2838 1875 2053 1875 
L 1259 1875 
L 1259 0 
L 628 0 
L 628 4666 
z
" id="DejaVuSans-50" transform="scale(0.015625)"/>
      <path d="M 3122 3366 
L 3122 2828 
Q 2878 2963 2633 3030 
Q 2388 3097 2138 3097 
Q 1578 3097 1268 2742 
Q 959 2388 959 1747 
Q 959 1106 1268 751 
Q 1578 397 2138 397 
Q 2388 397 2633 464 
Q 2878 531 3122 666 
L 3122 134 
Q 2881 22 2623 -34 
Q 2366 -91 2075 -91 
Q 1284 -91 818 406 
Q 353 903 353 1747 
Q 353 2603 823 3093 
Q 1294 3584 2113 3584 
Q 2378 3584 2631 3529 
Q 2884 3475 3122 3366 
z
" id="DejaVuSans-63" transform="scale(0.015625)"/>
     </defs>
     <use xlink:href="#DejaVuSans-50"/>
     <use x="58.052734" xlink:href="#DejaVuSans-69"/>
     <use x="85.835938" xlink:href="#DejaVuSans-6e"/>
     <use x="149.214844" xlink:href="#DejaVuSans-6e"/>
     <use x="212.59375" xlink:href="#DejaVuSans-61"/>
     <use x="273.873047" xlink:href="#DejaVuSans-63"/>
     <use x="328.853516" xlink:href="#DejaVuSans-6c"/>
     <use x="356.636719" xlink:href="#DejaVuSans-65"/>
     <use x="418.160156" xlink:href="#DejaVuSans-20"/>
     <use x="449.947266" xlink:href="#DejaVuSans-31"/>
     <use x="513.570312" xlink:href="#DejaVuSans-37"/>
     <use x="577.193359" xlink:href="#DejaVuSans-2e"/>
     <use x="608.980469" xlink:href="#DejaVuSans-31"/>
     <use x="672.603516" xlink:href="#DejaVuSans-b0"/>
    </g>
   </g>
   <g id="text_15">
    <g id="patch_16">
     <path d="M 45.255366 19.908632 
L 52.393383 31.072313 
L 54.057851 30.008058 
L 46.919834 18.844377 
z
" style="fill:#ffffff;"/>
    </g>
    <!-- Ledges 15.0° -->
    <g style="fill:#008000;" transform="translate(45.633418 19.690646)rotate(-302.5947)scale(0.02 -0.02)">
     <defs>
      <path d="M 2906 1791 
Q 2906 2416 2648 2759 
Q 2391 3103 1925 3103 
Q 1463 3103 1205 2759 
Q 947 2416 947 1791 
Q 947 1169 1205 825 
Q 1463 481 1925 481 
Q 2391 481 2648 825 
Q 2906 1169 2906 1791 
z
M 3481 434 
Q 3481 -459 3084 -895 
Q 2688 -1331 1869 -1331 
Q 1566 -1331 1297 -1286 
Q 1028 -1241 775 -1147 
L 775 -588 
Q 1028 -725 1275 -790 
Q 1522 -856 1778 -856 
Q 2344 -856 2625 -561 
Q 2906 -266 2906 331 
L 2906 616 
Q 2728 306 2450 153 
Q 2172 0 1784 0 
Q 1141 0 747 490 
Q 353 981 353 1791 
Q 353 2603 747 3093 
Q 1141 3584 1784 3584 
Q 2172 3584 2450 3431 
Q 2728 3278 2906 2969 
L 2906 3500 
L 3481 3500 
L 3481 434 
z
" id="DejaVuSans-67" transform="scale(0.015625)"/>
     </defs>
     <use xlink:href="#DejaVuSans-4c"/>
     <use x="53.962891" xlink:href="#DejaVuSans-65"/>
     <use x="115.486328" xlink:href="#DejaVuSans-64"/>
     <use x="178.962891" xlink:href="#DejaVuSans-67"/>
     <use x="242.439453" xlink:href="#DejaVuSans-65"/>
     <use x="303.962891" xlink:href="#DejaVuSans-73"/>
     <use x="356.0625" xlink:href="#DejaVuSans-20"/>
     <use x="387.849609" xlink:href="#DejaVuSans-31"/>
     <use x="451.472656" xlink:href="#DejaVuSans-35"/>
     <use x="515.095703" xlink:href="#DejaVuSans-2e"/>
     <use x="546.882812" xlink:href="#DejaVuSans-30"/>
     <use x="610.505859" xlink:href="#DejaVuSans-b0"/>
    </g>
   </g>
   <g id="text_16">
    <g id="patch_17">
     <path d="M 73.774523 23.068114 
L 79.264861 37.480251 
L 81.111058 36.776938 
L 75.62072 22.364801 
z
" style="fill:#ffffff;"/>
    </g>
    <!-- Deer Run 15.9° -->
    <g style="fill:#008000;" transform="translate(74.189021 22.931612)rotate(-290.854458)scale(0.02 -0.02)">
     <use xlink:href="#DejaVuSans-44"/>
     <use x="77.001953" xlink:href="#DejaVuSans-65"/>
     <use x="138.525391" xlink:href="#DejaVuSans-65"/>
     <use x="200.048828" xlink:href="#DejaVuSans-72"/>
     <use x="241.162109" xlink:href="#DejaVuSans-20"/>
     <use x="272.949219" xlink:href="#DejaVuSans-52"/>
     <use x="337.931641" xlink:href="#DejaVuSans-75"/>
     <use x="401.310547" xlink:href="#DejaVuSans-6e"/>
     <use x="464.689453" xlink:href="#DejaVuSans-20"/>
     <use x="496.476562" xlink:href="#DejaVuSans-31"/>
     <use x="560.099609" xlink:href="#DejaVuSans-35"/>
     <use x="623.722656" xlink:href="#DejaVuSans-2e"/>
     <use x="655.509766" xlink:href="#DejaVuSans-39"/>
     <use x="719.132812" xlink:href="#DejaVuSans-b0"/>
    </g>
   </g>
   <g id="text_17">
    <g id="patch_18">
     <path d="M 70.928261 36.644193 
L 75.658459 54.450366 
L 77.567859 53.943135 
L 72.837662 36.136962 
z
" style="fill:#ffffff;"/>
    </g>
    <!-- Victor's Way 14.6° -->
    <g style="fill:#008000;" transform="translate(71.35472 36.551598)rotate(-284.876984)scale(0.02 -0.02)">
     <defs>
      <path d="M 1831 0 
L 50 4666 
L 709 4666 
L 2188 738 
L 3669 4666 
L 4325 4666 
L 2547 0 
L 1831 0 
z
" id="DejaVuSans-56" transform="scale(0.015625)"/>
      <path d="M 1147 4666 
L 1147 2931 
L 616 2931 
L 616 4666 
L 1147 4666 
z
" id="DejaVuSans-27" transform="scale(0.015625)"/>
      <path d="M 2059 -325 
Q 1816 -950 1584 -1140 
Q 1353 -1331 966 -1331 
L 506 -1331 
L 506 -850 
L 844 -850 
Q 1081 -850 1212 -737 
Q 1344 -625 1503 -206 
L 1606 56 
L 191 3500 
L 800 3500 
L 1894 763 
L 2988 3500 
L 3597 3500 
L 2059 -325 
z
" id="DejaVuSans-79" transform="scale(0.015625)"/>
      <path d="M 2419 4116 
L 825 1625 
L 2419 1625 
L 2419 4116 
z
M 2253 4666 
L 3047 4666 
L 3047 1625 
L 3713 1625 
L 3713 1100 
L 3047 1100 
L 3047 0 
L 2419 0 
L 2419 1100 
L 313 1100 
L 313 1709 
L 2253 4666 
z
" id="DejaVuSans-34" transform="scale(0.015625)"/>
     </defs>
     <use xlink:href="#DejaVuSans-56"/>
     <use x="66.158203" xlink:href="#DejaVuSans-69"/>
     <use x="93.941406" xlink:href="#DejaVuSans-63"/>
     <use x="148.921875" xlink:href="#DejaVuSans-74"/>
     <use x="188.130859" xlink:href="#DejaVuSans-6f"/>
     <use x="249.3125" xlink:href="#DejaVuSans-72"/>
     <use x="290.425781" xlink:href="#DejaVuSans-27"/>
     <use x="317.916016" xlink:href="#DejaVuSans-73"/>
     <use x="370.015625" xlink:href="#DejaVuSans-20"/>
     <use x="401.802734" xlink:href="#DejaVuSans-57"/>
     <use x="494.304688" xlink:href="#DejaVuSans-61"/>
     <use x="555.583984" xlink:href="#DejaVuSans-79"/>
     <use x="614.763672" xlink:href="#DejaVuSans-20"/>
     <use x="646.550781" xlink:href="#DejaVuSans-31"/>
     <use x="710.173828" xlink:href="#DejaVuSans-34"/>
     <use x="773.796875" xlink:href="#DejaVuSans-2e"/>
     <use x="805.583984" xlink:href="#DejaVuSans-36"/>
     <use x="869.207031" xlink:href="#DejaVuSans-b0"/>
    </g>
   </g>
   <g id="text_18">
    <g id="patch_19">
     <path d="M 92.303812 63.63626 
L 104.318227 66.269913 
L 104.741255 64.34011 
L 92.72684 61.706456 
z
" style="fill:#ffffff;"/>
    </g>
    <!-- Laurel 14.2° -->
    <g style="fill:#008000;" transform="translate(92.416692 63.214715)rotate(-347.635882)scale(0.02 -0.02)">
     <use xlink:href="#DejaVuSans-4c"/>
     <use x="55.712891" xlink:href="#DejaVuSans-61"/>
     <use x="116.992188" xlink:href="#DejaVuSans-75"/>
     <use x="180.371094" xlink:href="#DejaVuSans-72"/>
     <use x="219.234375" xlink:href="#DejaVuSans-65"/>
     <use x="280.757812" xlink:href="#DejaVuSans-6c"/>
     <use x="308.541016" xlink:href="#DejaVuSans-20"/>
     <use x="340.328125" xlink:href="#DejaVuSans-31"/>
     <use x="403.951172" xlink:href="#DejaVuSans-34"/>
     <use x="467.574219" xlink:href="#DejaVuSans-2e"/>
     <use x="499.361328" xlink:href="#DejaVuSans-32"/>
     <use x="562.984375" xlink:href="#DejaVuSans-b0"/>
    </g>
   </g>
   <g id="text_19">
    <g id="patch_20">
     <path d="M 72.524962 55.793992 
L 79.655615 63.286688 
L 81.08674 61.924713 
L 73.956087 54.432018 
z
" style="fill:#ffffff;"/>
    </g>
    <!-- Pine 14.2° -->
    <g style="fill:#008000;" transform="translate(72.854539 55.50795)rotate(-313.581772)scale(0.02 -0.02)">
     <use xlink:href="#DejaVuSans-50"/>
     <use x="58.052734" xlink:href="#DejaVuSans-69"/>
     <use x="85.835938" xlink:href="#DejaVuSans-6e"/>
     <use x="149.214844" xlink:href="#DejaVuSans-65"/>
     <use x="210.738281" xlink:href="#DejaVuSans-20"/>
     <use x="242.525391" xlink:href="#DejaVuSans-31"/>
     <use x="306.148438" xlink:href="#DejaVuSans-34"/>
     <use x="369.771484" xlink:href="#DejaVuSans-2e"/>
     <use x="401.558594" xlink:href="#DejaVuSans-32"/>
     <use x="465.181641" xlink:href="#DejaVuSans-b0"/>
    </g>
   </g>
   <g id="text_20">
    <!-- Mowhawk -->
    <g transform="translate(41.786127 8.577288)scale(0.08 -0.08)">
     <use xlink:href="#DejaVuSans-4d"/>
     <use x="86.279297" xlink:href="#DejaVuSans-6f"/>
     <use x="147.460938" xlink:href="#DejaVuSans-77"/>
     <use x="229.248047" xlink:href="#DejaVuSans-68"/>
     <use x="292.626953" xlink:href="#DejaVuSans-61"/>
     <use x="353.90625" xlink:href="#DejaVuSans-77"/>
     <use x="435.693359" xlink:href="#DejaVuSans-6b"/>
    </g>
   </g>
   <g id="legend_1">
    <g id="line2d_32">
     <path d="M 5.528315 123.027915 
L 13.528315 123.027915 
" style="fill:none;stroke:#008000;stroke-linecap:square;stroke-width:1.5;"/>
    </g>
    <g id="line2d_33"/>
    <g id="text_21">
     <!-- Easy -->
     <g transform="translate(16.728315 124.427915)scale(0.04 -0.04)">
      <use xlink:href="#DejaVuSans-45"/>
      <use x="63.183594" xlink:href="#DejaVuSans-61"/>
      <use x="124.462891" xlink:href="#DejaVuSans-73"/>
      <use x="176.5625" xlink:href="#DejaVuSans-79"/>
     </g>
    </g>
    <g id="line2d_34">
     <path d="M 5.528315 128.899165 
L 13.528315 128.899165 
" style="fill:none;stroke:#4169e1;stroke-linecap:square;stroke-width:1.5;"/>
    </g>
    <g id="line2d_35"/>
    <g id="text_22">
     <!-- Intermediate -->
     <g transform="translate(16.728315 130.299165)scale(0.04 -0.04)">
      <defs>
       <path d="M 628 4666 
L 1259 4666 
L 1259 0 
L 628 0 
L 628 4666 
z
" id="DejaVuSans-49" transform="scale(0.015625)"/>
      </defs>
      <use xlink:href="#DejaVuSans-49"/>
      <use x="29.492188" xlink:href="#DejaVuSans-6e"/>
      <use x="92.871094" xlink:href="#DejaVuSans-74"/>
      <use x="132.080078" xlink:href="#DejaVuSans-65"/>
      <use x="193.603516" xlink:href="#DejaVuSans-72"/>
      <use x="232.966797" xlink:href="#DejaVuSans-6d"/>
      <use x="330.378906" xlink:href="#DejaVuSans-65"/>
      <use x="391.902344" xlink:href="#DejaVuSans-64"/>
      <use x="455.378906" xlink:href="#DejaVuSans-69"/>
      <use x="483.162109" xlink:href="#DejaVuSans-61"/>
      <use x="544.441406" xlink:href="#DejaVuSans-74"/>
      <use x="583.650391" xlink:href="#DejaVuSans-65"/>
     </g>
    </g>
    <g id="line2d_36">
     <path d="M 50.535815 123.027915 
L 58.535815 123.027915 
" style="fill:none;stroke:#000000;stroke-linecap:square;stroke-width:1.5;"/>
    </g>
    <g id="line2d_37"/>
    <g id="text_23">
     <!-- Advanced -->
     <g transform="translate(61.735815 124.427915)scale(0.04 -0.04)">
      <defs>
       <path d="M 191 3500 
L 800 3500 
L 1894 563 
L 2988 3500 
L 3597 3500 
L 2284 0 
L 1503 0 
L 191 3500 
z
" id="DejaVuSans-76" transform="scale(0.015625)"/>
      </defs>
      <use xlink:href="#DejaVuSans-41"/>
      <use x="66.658203" xlink:href="#DejaVuSans-64"/>
      <use x="130.134766" xlink:href="#DejaVuSans-76"/>
      <use x="189.314453" xlink:href="#DejaVuSans-61"/>
      <use x="250.59375" xlink:href="#DejaVuSans-6e"/>
      <use x="313.972656" xlink:href="#DejaVuSans-63"/>
      <use x="368.953125" xlink:href="#DejaVuSans-65"/>
      <use x="430.476562" xlink:href="#DejaVuSans-64"/>
     </g>
    </g>
    <g id="line2d_38">
     <path d="M 50.535815 128.899165 
L 58.535815 128.899165 
" style="fill:none;stroke:#ff0000;stroke-linecap:square;stroke-width:1.5;"/>
    </g>
    <g id="line2d_39"/>
    <g id="text_24">
     <!-- Expert -->
     <g transform="translate(61.735815 130.299165)scale(0.04 -0.04)">
      <use xlink:href="#DejaVuSans-45"/>
      <use x="63.183594" xlink:href="#DejaVuSans-78"/>
      <use x="122.363281" xlink:href="#DejaVuSans-70"/>
      <use x="185.839844" xlink:href="#DejaVuSans-65"/>
      <use x="247.363281" xlink:href="#DejaVuSans-72"/>
      <use x="288.476562" xlink:href="#DejaVuSans-74"/>
     </g>
    </g>
    <g id="line2d_40">
     <path d="M 89.49519 123.027915 
L 97.49519 123.027915 
" style="fill:none;stroke:#ffd700;stroke-linecap:square;stroke-width:1.5;"/>
    </g>
    <g id="line2d_41"/>
    <g id="text_25">
     <!-- Extreme -->
     <g transform="translate(100.69519 124.427915)scale(0.04 -0.04)">
      <use xlink:href="#DejaVuSans-45"/>
      <use x="63.183594" xlink:href="#DejaVuSans-78"/>
      <use x="122.363281" xlink:href="#DejaVuSans-74"/>
      <use x="161.572266" xlink:href="#DejaVuSans-72"/>
      <use x="200.435547" xlink:href="#DejaVuSans-65"/>
      <use x="261.958984" xlink:href="#DejaVuSans-6d"/>
      <use x="359.371094" xlink:href="#DejaVuSans-65"/>
     </g>
    </g>
    <g id="line2d_42">
     <path d="M 89.49519 128.899165 
L 97.49519 128.899165 
" style="fill:none;stroke:#000000;stroke-dasharray:1.5,2.475;stroke-dashoffset:0;stroke-width:1.5;"/>
    </g>
    <g id="line2d_43"/>
    <g id="text_26">
     <!-- Gladed -->
     <g transform="translate(100.69519 130.299165)scale(0.04 -0.04)">
      <defs>
       <path d="M 3809 666 
L 3809 1919 
L 2778 1919 
L 2778 2438 
L 4434 2438 
L 4434 434 
Q 4069 175 3628 42 
Q 3188 -91 2688 -91 
Q 1594 -91 976 548 
Q 359 1188 359 2328 
Q 359 3472 976 4111 
Q 1594 4750 2688 4750 
Q 3144 4750 3555 4637 
Q 3966 4525 4313 4306 
L 4313 3634 
Q 3963 3931 3569 4081 
Q 3175 4231 2741 4231 
Q 1884 4231 1454 3753 
Q 1025 3275 1025 2328 
Q 1025 1384 1454 906 
Q 1884 428 2741 428 
Q 3075 428 3337 486 
Q 3600 544 3809 666 
z
" id="DejaVuSans-47" transform="scale(0.015625)"/>
      </defs>
      <use xlink:href="#DejaVuSans-47"/>
      <use x="77.490234" xlink:href="#DejaVuSans-6c"/>
      <use x="105.273438" xlink:href="#DejaVuSans-61"/>
      <use x="166.552734" xlink:href="#DejaVuSans-64"/>
      <use x="230.029297" xlink:href="#DejaVuSans-65"/>
      <use x="291.552734" xlink:href="#DejaVuSans-64"/>
     </g>
    </g>
   </g>
  </g>
  <g id="text_27">
   <!-- Sources: USGS and OpenStreetMaps -->
   <g transform="translate(29.801345 136.316317)scale(0.034783 -0.034783)">
    <defs>
     <path d="M 750 794 
L 1409 794 
L 1409 0 
L 750 0 
L 750 794 
z
M 750 3309 
L 1409 3309 
L 1409 2516 
L 750 2516 
L 750 3309 
z
" id="DejaVuSans-3a" transform="scale(0.015625)"/>
     <path d="M 556 4666 
L 1191 4666 
L 1191 1831 
Q 1191 1081 1462 751 
Q 1734 422 2344 422 
Q 2950 422 3222 751 
Q 3494 1081 3494 1831 
L 3494 4666 
L 4128 4666 
L 4128 1753 
Q 4128 841 3676 375 
Q 3225 -91 2344 -91 
Q 1459 -91 1007 375 
Q 556 841 556 1753 
L 556 4666 
z
" id="DejaVuSans-55" transform="scale(0.015625)"/>
     <path d="M 2522 4238 
Q 1834 4238 1429 3725 
Q 1025 3213 1025 2328 
Q 1025 1447 1429 934 
Q 1834 422 2522 422 
Q 3209 422 3611 934 
Q 4013 1447 4013 2328 
Q 4013 3213 3611 3725 
Q 3209 4238 2522 4238 
z
M 2522 4750 
Q 3503 4750 4090 4092 
Q 4678 3434 4678 2328 
Q 4678 1225 4090 567 
Q 3503 -91 2522 -91 
Q 1538 -91 948 565 
Q 359 1222 359 2328 
Q 359 3434 948 4092 
Q 1538 4750 2522 4750 
z
" id="DejaVuSans-4f" transform="scale(0.015625)"/>
    </defs>
    <use xlink:href="#DejaVuSans-53"/>
    <use x="63.476562" xlink:href="#DejaVuSans-6f"/>
    <use x="124.658203" xlink:href="#DejaVuSans-75"/>
    <use x="188.037109" xlink:href="#DejaVuSans-72"/>
    <use x="226.900391" xlink:href="#DejaVuSans-63"/>
    <use x="281.880859" xlink:href="#DejaVuSans-65"/>
    <use x="343.404297" xlink:href="#DejaVuSans-73"/>
    <use x="395.503906" xlink:href="#DejaVuSans-3a"/>
    <use x="429.195312" xlink:href="#DejaVuSans-20"/>
    <use x="460.982422" xlink:href="#DejaVuSans-55"/>
    <use x="534.175781" xlink:href="#DejaVuSans-53"/>
    <use x="597.652344" xlink:href="#DejaVuSans-47"/>
    <use x="675.142578" xlink:href="#DejaVuSans-53"/>
    <use x="738.619141" xlink:href="#DejaVuSans-20"/>
    <use x="770.40625" xlink:href="#DejaVuSans-61"/>
    <use x="831.685547" xlink:href="#DejaVuSans-6e"/>
    <use x="895.064453" xlink:href="#DejaVuSans-64"/>
    <use x="958.541016" xlink:href="#DejaVuSans-20"/>
    <use x="990.328125" xlink:href="#DejaVuSans-4f"/>
    <use x="1069.039062" xlink:href="#DejaVuSans-70"/>
    <use x="1132.515625" xlink:href="#DejaVuSans-65"/>
    <use x="1194.039062" xlink:href="#DejaVuSans-6e"/>
    <use x="1257.417969" xlink:href="#DejaVuSans-53"/>
    <use x="1320.894531" xlink:href="#DejaVuSans-74"/>
    <use x="1360.103516" xlink:href="#DejaVuSans-72"/>
    <use x="1398.966797" xlink:href="#DejaVuSans-65"/>
    <use x="1460.490234" xlink:href="#DejaVuSans-65"/>
    <use x="1522.013672" xlink:href="#DejaVuSans-74"/>
    <use x="1561.222656" xlink:href="#DejaVuSans-4d"/>
    <use x="1647.501953" xlink:href="#DejaVuSans-61"/>
    <use x="1708.78125" xlink:href="#DejaVuSans-70"/>
    <use x="1772.257812" xlink:href="#DejaVuSans-73"/>
   </g>
  </g>
 </g>
 <defs>
  <clipPath id="pbb2b0d6622">
   <rect height="111.885112" width="123.059754" x="0" y="12.577288"/>
  </clipPath>
 </defs>
</svg>
