<?xml version="1.0" encoding="utf-8" standalone="no"?>
<!DOCTYPE svg PUBLIC "-//W3C//DTD SVG 1.1//EN"
  "http://www.w3.org/Graphics/SVG/1.1/DTD/svg11.dtd">
<svg height="95.07212pt" version="1.1" viewBox="0 0 66.010262 95.07212" width="66.010262pt" xmlns="http://www.w3.org/2000/svg" xmlns:xlink="http://www.w3.org/1999/xlink">
 <metadata>
  <rdf:RDF xmlns:cc="http://creativecommons.org/ns#" xmlns:dc="http://purl.org/dc/elements/1.1/" xmlns:rdf="http://www.w3.org/1999/02/22-rdf-syntax-ns#">
   <cc:Work>
    <dc:type rdf:resource="http://purl.org/dc/dcmitype/StillImage"/>
    <dc:date>2022-04-14T21:31:04.434308</dc:date>
    <dc:format>image/svg+xml</dc:format>
    <dc:creator>
     <cc:Agent>
      <dc:title>Matplotlib v3.4.3, https://matplotlib.org/</dc:title>
     </cc:Agent>
    </dc:creator>
   </cc:Work>
  </rdf:RDF>
 </metadata>
 <defs>
  <style type="text/css">*{stroke-linecap:butt;stroke-linejoin:round;}</style>
 </defs>
 <g id="figure_1">
  <g id="patch_1">
   <path d="M 0 95.07212 
L 66.010262 95.07212 
L 66.010262 0 
L 0 0 
z
" style="fill:#ffffff;"/>
  </g>
  <g id="axes_1">
   <g id="patch_2">
    <path clip-path="url(#p81e7677cc0)" d="M 54.197859 73.003027 
L 54.197859 73.003027 
L 54.673662 71.891044 
L 55.149465 70.77906 
L 55.625268 69.667077 
L 56.10107 68.555093 
L 56.576873 67.44311 
L 57.052676 66.331126 
L 57.528479 65.219143 
L 58.004281 64.107159 
L 58.148001 62.66133 
L 57.486248 60.931498 
L 57.342528 59.174414 
L 57.572587 58.196901 
L 57.802645 57.219388 
L 58.105099 56.198845 
L 58.407554 55.178302 
L 58.263834 54.554357 
L 57.96138 53.4205 
L 57.658925 52.286643 
L 57.458362 51.124815 
L 57.918479 49.848957 
L 58.378596 48.573098 
L 58.982432 47.411271 
L 59.586268 46.249444 
L 59.967554 45.278386 
L 60.34884 44.307327 
L 60.730126 43.336269 
L 61.111411 42.365211 
L 61.442288 40.991099 
L 61.773164 39.616988 
L 62.132463 38.014813 
L 62.491762 36.412639 
L 62.750779 35.208499 
L 63.009796 34.004358 
L 62.26224 32.416527 
L 61.369892 30.74407 
L 60.536533 30.404128 
L 59.558383 30.828697 
L 59.356746 32.161212 
L 58.378596 33.493728 
L 57.343064 33.961327 
L 56.307533 34.428927 
L 55.142225 34.698585 
L 53.976918 34.968244 
L 52.987505 35.222842 
L 51.998093 35.47744 
L 52.500039 36.381083 
L 53.497495 35.858261 
L 54.494951 35.335439 
L 55.602342 35.080841 
L 56.709733 34.826243 
L 58.234876 34.315613 
L 59.241985 33.522415 
L 59.758946 32.274526 
L 60.334897 31.281953 
L 60.967692 31.395267 
L 61.471246 32.486811 
L 61.974801 33.578354 
L 61.758685 35.279499 
L 61.54257 36.980644 
L 61.298032 38.163986 
L 61.053494 39.347329 
L 60.808957 40.530672 
L 60.564419 41.714014 
L 60.147472 42.798386 
L 59.730524 43.882758 
L 59.313577 44.967131 
L 58.896629 46.051503 
L 58.249355 47.269987 
L 57.602081 48.488471 
L 57.199345 49.721299 
L 56.796608 50.954127 
L 56.76765 52.683959 
L 57.026667 53.619158 
L 57.285684 54.554357 
L 57.602081 55.40493 
L 57.256725 56.723102 
L 56.91137 58.041274 
L 56.738692 59.345102 
L 56.566014 60.64893 
L 56.853453 61.952759 
L 57.084047 63.427275 
L 56.508097 64.87167 
L 55.702624 66.119559 
L 55.189685 66.961884 
L 54.676746 67.804209 
L 54.163807 68.646533 
L 53.650867 69.488858 
z
" style="fill:#008000;opacity:0.1;"/>
   </g>
   <g id="patch_3">
    <path clip-path="url(#p81e7677cc0)" d="M 54.197859 73.003027 
L 54.197859 73.003027 
L 54.673662 71.891044 
L 55.149465 70.77906 
L 55.625268 69.667077 
L 56.10107 68.555093 
L 56.576873 67.44311 
L 57.052676 66.331126 
L 57.528479 65.219143 
L 58.004281 64.107159 
L 58.148001 62.66133 
L 57.486248 60.931498 
L 57.342528 59.174414 
L 57.572587 58.196901 
L 57.802645 57.219388 
L 58.105099 56.198845 
L 58.407554 55.178302 
L 58.263834 54.554357 
L 57.96138 53.4205 
L 57.658925 52.286643 
L 57.458362 51.124815 
L 57.918479 49.848957 
L 58.378596 48.573098 
L 58.982432 47.411271 
L 59.586268 46.249444 
L 59.967554 45.278386 
L 60.34884 44.307327 
L 60.730126 43.336269 
L 61.111411 42.365211 
L 61.442288 40.991099 
L 61.773164 39.616988 
L 62.132463 38.014813 
L 62.491762 36.412639 
L 62.750779 35.208499 
L 63.009796 34.004358 
L 62.26224 32.416527 
L 61.369892 30.74407 
L 60.536533 30.404128 
L 59.558383 30.828697 
L 59.356746 32.161212 
L 58.378596 33.493728 
L 57.343064 33.961327 
L 56.307533 34.428927 
L 55.142225 34.698585 
L 53.976918 34.968244 
L 52.987505 35.222842 
L 51.998093 35.47744 
L 52.500039 36.381083 
L 53.497495 35.858261 
L 54.494951 35.335439 
L 55.602342 35.080841 
L 56.709733 34.826243 
L 58.234876 34.315613 
L 59.241985 33.522415 
L 59.758946 32.274526 
L 60.334897 31.281953 
L 60.967692 31.395267 
L 61.471246 32.486811 
L 61.974801 33.578354 
L 61.758685 35.279499 
L 61.54257 36.980644 
L 61.298032 38.163986 
L 61.053494 39.347329 
L 60.808957 40.530672 
L 60.564419 41.714014 
L 60.147472 42.798386 
L 59.730524 43.882758 
L 59.313577 44.967131 
L 58.896629 46.051503 
L 58.249355 47.269987 
L 57.602081 48.488471 
L 57.199345 49.721299 
L 56.796608 50.954127 
L 56.76765 52.683959 
L 57.026667 53.619158 
L 57.285684 54.554357 
L 57.602081 55.40493 
L 57.256725 56.723102 
L 56.91137 58.041274 
L 56.738692 59.345102 
L 56.566014 60.64893 
L 56.853453 61.952759 
L 57.084047 63.427275 
L 56.508097 64.87167 
L 55.702624 66.119559 
L 55.189685 66.961884 
L 54.676746 67.804209 
L 54.163807 68.646533 
L 53.650867 69.488858 
z
" style="fill:none;stroke:#008000;stroke-linejoin:miter;"/>
   </g>
   <g id="patch_4">
    <path clip-path="url(#p81e7677cc0)" d="M 52.500039 36.381083 
L 52.500039 36.381083 
L 53.147313 37.798226 
L 53.794587 39.215368 
L 54.110984 41.02911 
L 54.427382 42.842851 
L 54.434621 44.104366 
L 54.441861 45.365881 
L 54.4491 46.627396 
L 54.45634 47.888911 
L 54.45634 49.277725 
L 54.45634 50.666539 
L 54.45634 52.055353 
L 54.45634 53.444167 
L 54.3271 54.97534 
L 54.197859 56.506514 
L 54.197859 57.647185 
L 54.197859 58.787855 
L 54.197859 59.928526 
L 54.197859 61.069196 
L 54.025182 62.571683 
L 53.852504 64.074169 
L 53.802095 65.427842 
L 53.751685 66.781514 
L 53.701276 68.135186 
L 53.650867 69.488858 
L 53.924363 71.245943 
L 54.197859 73.003027 
L 53.708784 74.732142 
L 53.219709 76.461256 
L 52.270517 77.750741 
L 51.321324 79.040226 
L 50.860671 78.07634 
L 50.400018 77.112453 
L 50.989911 75.822968 
L 51.579805 74.533484 
L 51.608763 72.634398 
L 51.637722 70.735312 
L 51.594552 69.750269 
L 51.551383 68.765226 
L 51.508213 67.780183 
L 51.465044 66.79514 
L 51.551383 64.896055 
L 51.637722 62.996969 
L 51.680891 61.898612 
L 51.724061 60.800255 
L 51.76723 59.701898 
L 51.8104 58.603541 
L 51.896739 57.42737 
L 51.983077 56.251199 
L 52.069416 55.075028 
L 52.155755 53.898857 
L 52.278024 52.460199 
L 52.400293 51.021542 
L 52.522562 49.582884 
L 52.644831 48.144226 
L 52.659042 47.159183 
L 52.673253 46.17414 
L 52.687464 45.189097 
L 52.701675 44.204054 
L 52.629815 43.098884 
L 52.557956 41.993713 
L 52.270517 40.46254 
L 51.983077 38.931366 
L 51.551383 38.017324 
L 51.119688 37.103281 
L 50.687993 36.189239 
L 50.256298 35.275196 
L 49.336064 34.000055 
L 50.372132 32.554225 
L 51.185112 34.015833 
L 51.998093 35.47744 
z
" style="fill:#008000;opacity:0.1;"/>
   </g>
   <g id="patch_5">
    <path clip-path="url(#p81e7677cc0)" d="M 52.500039 36.381083 
L 52.500039 36.381083 
L 53.147313 37.798226 
L 53.794587 39.215368 
L 54.110984 41.02911 
L 54.427382 42.842851 
L 54.434621 44.104366 
L 54.441861 45.365881 
L 54.4491 46.627396 
L 54.45634 47.888911 
L 54.45634 49.277725 
L 54.45634 50.666539 
L 54.45634 52.055353 
L 54.45634 53.444167 
L 54.3271 54.97534 
L 54.197859 56.506514 
L 54.197859 57.647185 
L 54.197859 58.787855 
L 54.197859 59.928526 
L 54.197859 61.069196 
L 54.025182 62.571683 
L 53.852504 64.074169 
L 53.802095 65.427842 
L 53.751685 66.781514 
L 53.701276 68.135186 
L 53.650867 69.488858 
L 53.924363 71.245943 
L 54.197859 73.003027 
L 53.708784 74.732142 
L 53.219709 76.461256 
L 52.270517 77.750741 
L 51.321324 79.040226 
L 50.860671 78.07634 
L 50.400018 77.112453 
L 50.989911 75.822968 
L 51.579805 74.533484 
L 51.608763 72.634398 
L 51.637722 70.735312 
L 51.594552 69.750269 
L 51.551383 68.765226 
L 51.508213 67.780183 
L 51.465044 66.79514 
L 51.551383 64.896055 
L 51.637722 62.996969 
L 51.680891 61.898612 
L 51.724061 60.800255 
L 51.76723 59.701898 
L 51.8104 58.603541 
L 51.896739 57.42737 
L 51.983077 56.251199 
L 52.069416 55.075028 
L 52.155755 53.898857 
L 52.278024 52.460199 
L 52.400293 51.021542 
L 52.522562 49.582884 
L 52.644831 48.144226 
L 52.659042 47.159183 
L 52.673253 46.17414 
L 52.687464 45.189097 
L 52.701675 44.204054 
L 52.629815 43.098884 
L 52.557956 41.993713 
L 52.270517 40.46254 
L 51.983077 38.931366 
L 51.551383 38.017324 
L 51.119688 37.103281 
L 50.687993 36.189239 
L 50.256298 35.275196 
L 49.336064 34.000055 
L 50.372132 32.554225 
L 51.185112 34.015833 
L 51.998093 35.47744 
z
" style="fill:none;stroke:#008000;stroke-linejoin:miter;"/>
   </g>
   <g id="patch_6">
    <path clip-path="url(#p81e7677cc0)" d="M 50.593074 27.254285 
L 50.593074 27.254285 
L 50.967388 28.955429 
L 51.341702 30.656574 
L 50.856917 31.6054 
L 50.372132 32.554225 
L 49.336064 34.000055 
L 47.519193 33.773427 
L 45.702321 33.546799 
L 45.141922 32.500078 
L 44.581523 31.453358 
L 44.021124 30.406638 
L 43.460725 29.359917 
L 42.941619 28.388859 
L 42.483647 27.284406 
L 42.025675 26.179953 
L 41.522121 24.938878 
L 41.018566 23.697802 
L 40.515012 22.456727 
L 40.011457 21.215651 
L 38.921495 20.130562 
L 37.831532 19.045473 
L 36.74157 17.960384 
L 35.651608 16.875294 
L 36.823887 16.881032 
L 37.996166 16.886769 
L 39.93638 16.897527 
L 41.876593 16.908284 
L 42.588755 18.467428 
L 43.300918 20.026571 
L 44.01308 21.585715 
L 44.725242 23.144858 
L 45.055851 24.115558 
L 45.386459 25.086258 
L 45.717068 26.056957 
L 46.047676 27.027657 
L 47.112166 26.687715 
L 48.176656 26.347772 
z
" style="fill:#008000;opacity:0.1;"/>
   </g>
   <g id="patch_7">
    <path clip-path="url(#p81e7677cc0)" d="M 50.593074 27.254285 
L 50.593074 27.254285 
L 50.967388 28.955429 
L 51.341702 30.656574 
L 50.856917 31.6054 
L 50.372132 32.554225 
L 49.336064 34.000055 
L 47.519193 33.773427 
L 45.702321 33.546799 
L 45.141922 32.500078 
L 44.581523 31.453358 
L 44.021124 30.406638 
L 43.460725 29.359917 
L 42.941619 28.388859 
L 42.483647 27.284406 
L 42.025675 26.179953 
L 41.522121 24.938878 
L 41.018566 23.697802 
L 40.515012 22.456727 
L 40.011457 21.215651 
L 38.921495 20.130562 
L 37.831532 19.045473 
L 36.74157 17.960384 
L 35.651608 16.875294 
L 36.823887 16.881032 
L 37.996166 16.886769 
L 39.93638 16.897527 
L 41.876593 16.908284 
L 42.588755 18.467428 
L 43.300918 20.026571 
L 44.01308 21.585715 
L 44.725242 23.144858 
L 45.055851 24.115558 
L 45.386459 25.086258 
L 45.717068 26.056957 
L 46.047676 27.027657 
L 47.112166 26.687715 
L 48.176656 26.347772 
z
" style="fill:none;stroke:#008000;stroke-linejoin:miter;"/>
   </g>
   <g id="patch_8">
    <path clip-path="url(#p81e7677cc0)" d="M 49.336064 34.000055 
L 49.336064 34.000055 
L 49.216477 35.640239 
L 49.096889 37.280424 
L 49.469595 38.554131 
L 49.8423 39.827838 
L 50.140465 41.100828 
L 50.438629 42.373817 
L 50.699791 43.499786 
L 50.960953 44.625754 
L 50.7746 45.629802 
L 50.588248 46.633851 
L 50.401895 47.637899 
L 50.215542 48.641947 
L 50.016587 50.49083 
L 49.817632 52.339714 
L 49.892173 53.698765 
L 49.966714 55.057816 
L 50.028921 56.074056 
L 50.091128 57.090296 
L 50.091128 58.44863 
L 50.091128 59.806964 
L 49.916841 61.092863 
L 49.742555 62.378762 
L 49.792428 63.921411 
L 49.8423 65.464059 
L 49.717886 67.226881 
L 49.593473 68.989703 
L 49.65568 70.629887 
L 49.717886 72.270072 
L 49.742823 73.390303 
L 49.767759 74.510534 
L 49.792696 75.630765 
L 49.817632 76.750996 
L 50.400018 77.112453 
L 50.860671 78.07634 
L 51.321324 79.040226 
L 50.153067 80.059335 
L 48.98481 81.078444 
L 47.816552 82.097553 
L 46.648295 83.116662 
L 45.670145 83.392775 
L 44.691994 83.668889 
L 44.742403 82.609618 
L 44.792812 81.550347 
L 44.843221 80.491076 
L 44.89363 79.431805 
L 44.807291 77.518376 
L 44.720952 75.604947 
L 44.149292 75.29656 
L 44.264053 74.066243 
L 44.378814 72.835925 
L 44.493575 71.605607 
L 44.608336 70.375289 
L 44.756078 68.787817 
L 44.903819 67.200345 
L 45.051561 65.612873 
L 45.199302 64.025401 
L 45.290468 63.04753 
L 45.381633 62.069659 
L 45.472798 61.091787 
L 45.563964 60.113916 
L 45.655129 59.136045 
L 45.746294 58.158173 
L 45.83746 57.180302 
L 45.928625 56.202431 
L 46.082534 54.549337 
L 46.236442 52.896243 
L 46.390351 51.24315 
L 46.544259 49.590056 
L 46.703799 47.877974 
L 46.863338 46.165893 
L 47.022878 44.453811 
L 47.182417 42.741729 
L 47.341956 41.029648 
L 47.501496 39.317566 
L 47.661035 37.605484 
L 47.820574 35.893403 
L 47.914421 34.886486 
L 48.008268 33.879569 
z
" style="fill:#008000;opacity:0.1;"/>
   </g>
   <g id="patch_9">
    <path clip-path="url(#p81e7677cc0)" d="M 49.336064 34.000055 
L 49.336064 34.000055 
L 49.216477 35.640239 
L 49.096889 37.280424 
L 49.469595 38.554131 
L 49.8423 39.827838 
L 50.140465 41.100828 
L 50.438629 42.373817 
L 50.699791 43.499786 
L 50.960953 44.625754 
L 50.7746 45.629802 
L 50.588248 46.633851 
L 50.401895 47.637899 
L 50.215542 48.641947 
L 50.016587 50.49083 
L 49.817632 52.339714 
L 49.892173 53.698765 
L 49.966714 55.057816 
L 50.028921 56.074056 
L 50.091128 57.090296 
L 50.091128 58.44863 
L 50.091128 59.806964 
L 49.916841 61.092863 
L 49.742555 62.378762 
L 49.792428 63.921411 
L 49.8423 65.464059 
L 49.717886 67.226881 
L 49.593473 68.989703 
L 49.65568 70.629887 
L 49.717886 72.270072 
L 49.742823 73.390303 
L 49.767759 74.510534 
L 49.792696 75.630765 
L 49.817632 76.750996 
L 50.400018 77.112453 
L 50.860671 78.07634 
L 51.321324 79.040226 
L 50.153067 80.059335 
L 48.98481 81.078444 
L 47.816552 82.097553 
L 46.648295 83.116662 
L 45.670145 83.392775 
L 44.691994 83.668889 
L 44.742403 82.609618 
L 44.792812 81.550347 
L 44.843221 80.491076 
L 44.89363 79.431805 
L 44.807291 77.518376 
L 44.720952 75.604947 
L 44.149292 75.29656 
L 44.264053 74.066243 
L 44.378814 72.835925 
L 44.493575 71.605607 
L 44.608336 70.375289 
L 44.756078 68.787817 
L 44.903819 67.200345 
L 45.051561 65.612873 
L 45.199302 64.025401 
L 45.290468 63.04753 
L 45.381633 62.069659 
L 45.472798 61.091787 
L 45.563964 60.113916 
L 45.655129 59.136045 
L 45.746294 58.158173 
L 45.83746 57.180302 
L 45.928625 56.202431 
L 46.082534 54.549337 
L 46.236442 52.896243 
L 46.390351 51.24315 
L 46.544259 49.590056 
L 46.703799 47.877974 
L 46.863338 46.165893 
L 47.022878 44.453811 
L 47.182417 42.741729 
L 47.341956 41.029648 
L 47.501496 39.317566 
L 47.661035 37.605484 
L 47.820574 35.893403 
L 47.914421 34.886486 
L 48.008268 33.879569 
z
" style="fill:none;stroke:#008000;stroke-linejoin:miter;"/>
   </g>
   <g id="patch_10">
    <path clip-path="url(#p81e7677cc0)" d="M 48.008268 33.879569 
L 48.008268 33.879569 
L 47.763998 35.662113 
L 47.519729 37.444657 
L 47.275459 39.227202 
L 47.03119 41.009746 
L 46.78692 42.79229 
L 46.542651 44.574835 
L 46.298381 46.357379 
L 46.054112 48.139923 
L 45.93506 49.837213 
L 45.816009 51.534503 
L 45.696958 53.231793 
L 45.577907 54.929082 
L 45.458855 56.626372 
L 45.339804 58.323662 
L 45.220753 60.020952 
L 45.101702 61.718242 
L 44.98265 63.415532 
L 44.863599 65.112821 
L 44.744548 66.810111 
L 44.625497 68.507401 
L 44.506446 70.204691 
L 44.387394 71.901981 
L 44.268343 73.59927 
L 44.149292 75.29656 
L 43.440347 75.746948 
L 43.584067 76.101233 
L 43.375995 77.695519 
L 43.167924 79.289804 
L 41.455087 79.264703 
L 39.742251 79.239601 
L 40.216847 78.084587 
L 40.691443 76.929573 
L 41.16604 75.774559 
L 41.640636 74.619545 
L 40.676964 73.160089 
L 39.713293 71.700633 
L 38.249016 71.631784 
L 36.78474 71.562935 
L 35.320463 71.494086 
L 33.856187 71.425237 
L 34.183443 70.440194 
L 34.5107 69.455151 
L 34.837957 68.470108 
L 35.165214 67.485065 
L 35.492471 66.500022 
L 35.819728 65.514979 
L 36.146984 64.529935 
L 36.474241 63.544892 
L 37.143234 62.227079 
L 37.812227 60.909266 
L 38.48122 59.591452 
L 39.150213 58.273639 
L 39.559719 56.728211 
L 39.969226 55.182784 
L 40.378733 53.637356 
L 40.78824 52.091929 
L 41.197746 50.546501 
L 41.607253 49.001074 
L 42.01676 47.455646 
L 42.426267 45.910219 
L 42.835773 44.364791 
L 43.24528 42.819364 
L 43.654787 41.273936 
L 44.064294 39.728509 
L 44.4738 38.183081 
L 44.883307 36.637654 
L 45.292814 35.092226 
L 45.702321 33.546799 
z
" style="fill:#4169e1;opacity:0.1;"/>
   </g>
   <g id="patch_11">
    <path clip-path="url(#p81e7677cc0)" d="M 48.008268 33.879569 
L 48.008268 33.879569 
L 47.763998 35.662113 
L 47.519729 37.444657 
L 47.275459 39.227202 
L 47.03119 41.009746 
L 46.78692 42.79229 
L 46.542651 44.574835 
L 46.298381 46.357379 
L 46.054112 48.139923 
L 45.93506 49.837213 
L 45.816009 51.534503 
L 45.696958 53.231793 
L 45.577907 54.929082 
L 45.458855 56.626372 
L 45.339804 58.323662 
L 45.220753 60.020952 
L 45.101702 61.718242 
L 44.98265 63.415532 
L 44.863599 65.112821 
L 44.744548 66.810111 
L 44.625497 68.507401 
L 44.506446 70.204691 
L 44.387394 71.901981 
L 44.268343 73.59927 
L 44.149292 75.29656 
L 43.440347 75.746948 
L 43.584067 76.101233 
L 43.375995 77.695519 
L 43.167924 79.289804 
L 41.455087 79.264703 
L 39.742251 79.239601 
L 40.216847 78.084587 
L 40.691443 76.929573 
L 41.16604 75.774559 
L 41.640636 74.619545 
L 40.676964 73.160089 
L 39.713293 71.700633 
L 38.249016 71.631784 
L 36.78474 71.562935 
L 35.320463 71.494086 
L 33.856187 71.425237 
L 34.183443 70.440194 
L 34.5107 69.455151 
L 34.837957 68.470108 
L 35.165214 67.485065 
L 35.492471 66.500022 
L 35.819728 65.514979 
L 36.146984 64.529935 
L 36.474241 63.544892 
L 37.143234 62.227079 
L 37.812227 60.909266 
L 38.48122 59.591452 
L 39.150213 58.273639 
L 39.559719 56.728211 
L 39.969226 55.182784 
L 40.378733 53.637356 
L 40.78824 52.091929 
L 41.197746 50.546501 
L 41.607253 49.001074 
L 42.01676 47.455646 
L 42.426267 45.910219 
L 42.835773 44.364791 
L 43.24528 42.819364 
L 43.654787 41.273936 
L 44.064294 39.728509 
L 44.4738 38.183081 
L 44.883307 36.637654 
L 45.292814 35.092226 
L 45.702321 33.546799 
z
" style="fill:none;stroke:#4169e1;stroke-dasharray:3.7,1.6;stroke-dashoffset:0;stroke-linejoin:miter;"/>
   </g>
   <g id="patch_12">
    <path clip-path="url(#p81e7677cc0)" d="M 33.856187 71.425237 
L 33.856187 71.425237 
L 33.594488 72.443629 
L 33.33279 73.462021 
L 33.071092 74.480412 
L 32.809394 75.498804 
L 32.133161 77.014917 
L 31.456929 78.53103 
L 30.959273 80.00985 
L 32.203412 81.002423 
L 33.447551 81.994997 
L 34.037445 82.887165 
L 35.463646 81.975274 
L 36.889848 81.063383 
L 38.31605 80.151492 
L 39.742251 79.239601 
L 40.216847 78.084587 
L 40.691443 76.929573 
L 41.16604 75.774559 
L 41.640636 74.619545 
L 40.676964 73.160089 
L 39.713293 71.700633 
z
" style="fill:#008000;opacity:0.1;"/>
   </g>
   <g id="patch_13">
    <path clip-path="url(#p81e7677cc0)" d="M 33.856187 71.425237 
L 33.856187 71.425237 
L 33.594488 72.443629 
L 33.33279 73.462021 
L 33.071092 74.480412 
L 32.809394 75.498804 
L 32.133161 77.014917 
L 31.456929 78.53103 
L 30.959273 80.00985 
L 32.203412 81.002423 
L 33.447551 81.994997 
L 34.037445 82.887165 
L 35.463646 81.975274 
L 36.889848 81.063383 
L 38.31605 80.151492 
L 39.742251 79.239601 
L 40.216847 78.084587 
L 40.691443 76.929573 
L 41.16604 75.774559 
L 41.640636 74.619545 
L 40.676964 73.160089 
L 39.713293 71.700633 
z
" style="fill:none;stroke:#008000;stroke-linejoin:miter;"/>
   </g>
   <g id="patch_14">
    <path clip-path="url(#p81e7677cc0)" d="M 22.998929 68.638286 
L 22.998929 68.638286 
L 23.768471 69.453358 
L 24.538014 70.26843 
L 25.307557 71.083502 
L 26.0771 71.898574 
L 27.285309 72.550488 
L 28.493518 73.202402 
L 28.250053 74.323709 
L 28.006588 75.445016 
L 27.763123 76.566323 
L 27.519658 77.68763 
L 28.379562 78.268185 
L 29.239466 78.84874 
L 30.099369 79.429295 
L 30.959273 80.00985 
L 31.456929 78.53103 
L 30.478778 78.701718 
L 29.529586 78.275715 
L 29.486685 77.170545 
L 29.443783 76.065374 
L 30.03314 75.002518 
L 30.622498 73.939661 
L 32.29136 73.571032 
L 32.550377 74.534918 
L 32.809394 75.498804 
L 33.071092 74.480412 
L 33.33279 73.462021 
L 33.594488 72.443629 
L 33.856187 71.425237 
L 34.51794 69.781287 
L 35.179693 68.137338 
L 35.841446 66.493388 
L 36.5032 64.849438 
L 37.164953 63.205488 
L 37.826706 61.561538 
L 38.488459 59.917589 
L 39.150213 58.273639 
L 39.559719 56.728211 
L 39.969226 55.182784 
L 40.378733 53.637356 
L 40.78824 52.091929 
L 41.197746 50.546501 
L 41.607253 49.001074 
L 42.01676 47.455646 
L 42.426267 45.910219 
L 42.835773 44.364791 
L 43.24528 42.819364 
L 43.654787 41.273936 
L 44.064294 39.728509 
L 44.4738 38.183081 
L 44.883307 36.637654 
L 45.292814 35.092226 
L 45.702321 33.546799 
L 45.141922 32.500078 
L 44.581523 31.453358 
L 44.021124 30.406638 
L 43.460725 29.359917 
z
" style="fill:#008000;opacity:0.1;"/>
   </g>
   <g id="patch_15">
    <path clip-path="url(#p81e7677cc0)" d="M 22.998929 68.638286 
L 22.998929 68.638286 
L 23.768471 69.453358 
L 24.538014 70.26843 
L 25.307557 71.083502 
L 26.0771 71.898574 
L 27.285309 72.550488 
L 28.493518 73.202402 
L 28.250053 74.323709 
L 28.006588 75.445016 
L 27.763123 76.566323 
L 27.519658 77.68763 
L 28.379562 78.268185 
L 29.239466 78.84874 
L 30.099369 79.429295 
L 30.959273 80.00985 
L 31.456929 78.53103 
L 30.478778 78.701718 
L 29.529586 78.275715 
L 29.486685 77.170545 
L 29.443783 76.065374 
L 30.03314 75.002518 
L 30.622498 73.939661 
L 32.29136 73.571032 
L 32.550377 74.534918 
L 32.809394 75.498804 
L 33.071092 74.480412 
L 33.33279 73.462021 
L 33.594488 72.443629 
L 33.856187 71.425237 
L 34.51794 69.781287 
L 35.179693 68.137338 
L 35.841446 66.493388 
L 36.5032 64.849438 
L 37.164953 63.205488 
L 37.826706 61.561538 
L 38.488459 59.917589 
L 39.150213 58.273639 
L 39.559719 56.728211 
L 39.969226 55.182784 
L 40.378733 53.637356 
L 40.78824 52.091929 
L 41.197746 50.546501 
L 41.607253 49.001074 
L 42.01676 47.455646 
L 42.426267 45.910219 
L 42.835773 44.364791 
L 43.24528 42.819364 
L 43.654787 41.273936 
L 44.064294 39.728509 
L 44.4738 38.183081 
L 44.883307 36.637654 
L 45.292814 35.092226 
L 45.702321 33.546799 
L 45.141922 32.500078 
L 44.581523 31.453358 
L 44.021124 30.406638 
L 43.460725 29.359917 
z
" style="fill:none;stroke:#008000;stroke-linejoin:miter;"/>
   </g>
   <g id="patch_16">
    <path clip-path="url(#p81e7677cc0)" d="M 25.548341 57.522037 
L 25.548341 57.522037 
L 24.93579 58.60874 
L 24.323239 59.695443 
L 23.710689 60.782146 
L 23.098138 61.868849 
L 22.485587 62.955552 
L 21.873036 64.042255 
L 21.260486 65.128958 
L 20.647935 66.215661 
L 19.770602 65.407402 
L 18.89327 64.599143 
L 18.259402 63.673984 
L 17.625535 62.748826 
L 16.991668 61.823667 
L 16.3578 60.898508 
L 17.312892 60.18653 
L 18.267983 59.474552 
L 19.223074 58.762575 
L 20.178165 58.050597 
L 21.133256 57.338619 
L 22.088348 56.626641 
L 23.043439 55.914663 
L 23.99853 55.202686 
z
" style="fill:#008000;opacity:0.1;"/>
   </g>
   <g id="patch_17">
    <path clip-path="url(#p81e7677cc0)" d="M 25.548341 57.522037 
L 25.548341 57.522037 
L 24.93579 58.60874 
L 24.323239 59.695443 
L 23.710689 60.782146 
L 23.098138 61.868849 
L 22.485587 62.955552 
L 21.873036 64.042255 
L 21.260486 65.128958 
L 20.647935 66.215661 
L 19.770602 65.407402 
L 18.89327 64.599143 
L 18.259402 63.673984 
L 17.625535 62.748826 
L 16.991668 61.823667 
L 16.3578 60.898508 
L 17.312892 60.18653 
L 18.267983 59.474552 
L 19.223074 58.762575 
L 20.178165 58.050597 
L 21.133256 57.338619 
L 22.088348 56.626641 
L 23.043439 55.914663 
L 23.99853 55.202686 
z
" style="fill:none;stroke:#008000;stroke-linejoin:miter;"/>
   </g>
   <g id="patch_18">
    <path clip-path="url(#p81e7677cc0)" d="M 23.386113 54.019343 
L 23.386113 54.019343 
L 22.419492 54.725404 
L 21.452871 55.431465 
L 20.48625 56.137526 
L 19.519629 56.843587 
L 18.553009 57.549648 
L 17.586388 58.25571 
L 16.619767 58.961771 
L 15.653146 59.667832 
L 14.916315 58.523934 
L 14.179485 57.380036 
L 15.064191 56.685808 
L 15.948897 55.991581 
L 16.833603 55.297353 
L 17.718309 54.603125 
L 18.603015 53.908898 
L 19.487722 53.21467 
L 20.372428 52.520442 
L 21.257134 51.826215 
z
" style="fill:#008000;opacity:0.1;"/>
   </g>
   <g id="patch_19">
    <path clip-path="url(#p81e7677cc0)" d="M 23.386113 54.019343 
L 23.386113 54.019343 
L 22.419492 54.725404 
L 21.452871 55.431465 
L 20.48625 56.137526 
L 19.519629 56.843587 
L 18.553009 57.549648 
L 17.586388 58.25571 
L 16.619767 58.961771 
L 15.653146 59.667832 
L 14.916315 58.523934 
L 14.179485 57.380036 
L 15.064191 56.685808 
L 15.948897 55.991581 
L 16.833603 55.297353 
L 17.718309 54.603125 
L 18.603015 53.908898 
L 19.487722 53.21467 
L 20.372428 52.520442 
L 21.257134 51.826215 
z
" style="fill:none;stroke:#008000;stroke-linejoin:miter;"/>
   </g>
   <g id="patch_20">
    <path clip-path="url(#p81e7677cc0)" d="M 20.808815 51.053098 
L 20.808815 51.053098 
L 19.916199 51.763103 
L 19.023583 52.473109 
L 18.130967 53.183114 
L 17.23835 53.89312 
L 16.345734 54.603125 
L 15.453118 55.313131 
L 14.560502 56.023136 
L 13.667886 56.733142 
L 13.067267 55.518244 
L 12.466648 54.303345 
L 11.866029 53.088447 
L 11.265411 51.873548 
L 12.130141 51.368835 
L 12.994871 50.864121 
L 13.859601 50.359408 
L 14.724332 49.854694 
L 15.589062 49.349981 
L 16.453792 48.845267 
L 17.318522 48.340554 
L 18.183253 47.83584 
z
" style="fill:#008000;opacity:0.1;"/>
   </g>
   <g id="patch_21">
    <path clip-path="url(#p81e7677cc0)" d="M 20.808815 51.053098 
L 20.808815 51.053098 
L 19.916199 51.763103 
L 19.023583 52.473109 
L 18.130967 53.183114 
L 17.23835 53.89312 
L 16.345734 54.603125 
L 15.453118 55.313131 
L 14.560502 56.023136 
L 13.667886 56.733142 
L 13.067267 55.518244 
L 12.466648 54.303345 
L 11.866029 53.088447 
L 11.265411 51.873548 
L 12.130141 51.368835 
L 12.994871 50.864121 
L 13.859601 50.359408 
L 14.724332 49.854694 
L 15.589062 49.349981 
L 16.453792 48.845267 
L 17.318522 48.340554 
L 18.183253 47.83584 
z
" style="fill:none;stroke:#008000;stroke-linejoin:miter;"/>
   </g>
   <g id="patch_22">
    <path clip-path="url(#p81e7677cc0)" d="M 24.30742 46.03429 
L 24.30742 46.03429 
L 25.487207 46.998177 
L 26.666994 47.962063 
L 28.076303 48.330692 
L 29.219892 47.763764 
L 30.363481 47.196835 
L 31.50707 46.629906 
L 32.650659 46.062978 
L 33.65026 44.42602 
L 34.649861 42.789063 
L 35.649463 41.152106 
L 36.649064 39.515148 
L 37.435633 38.124362 
L 38.222203 36.733576 
L 39.008772 35.34279 
L 39.795342 33.952004 
L 40.581911 32.561218 
L 41.36848 31.170432 
L 42.15505 29.779645 
L 42.941619 28.388859 
L 41.748693 29.499588 
L 40.555768 30.610316 
L 39.362842 31.721044 
L 38.169917 32.831773 
L 36.976991 33.942501 
L 35.784066 35.05323 
L 34.59114 36.163958 
L 33.398215 37.274686 
L 32.348204 38.826658 
L 31.298194 40.37863 
L 30.248183 41.930602 
L 29.198173 43.482574 
z
" style="fill:#4169e1;opacity:0.1;"/>
   </g>
   <g id="patch_23">
    <path clip-path="url(#p81e7677cc0)" d="M 24.30742 46.03429 
L 24.30742 46.03429 
L 25.487207 46.998177 
L 26.666994 47.962063 
L 28.076303 48.330692 
L 29.219892 47.763764 
L 30.363481 47.196835 
L 31.50707 46.629906 
L 32.650659 46.062978 
L 33.65026 44.42602 
L 34.649861 42.789063 
L 35.649463 41.152106 
L 36.649064 39.515148 
L 37.435633 38.124362 
L 38.222203 36.733576 
L 39.008772 35.34279 
L 39.795342 33.952004 
L 40.581911 32.561218 
L 41.36848 31.170432 
L 42.15505 29.779645 
L 42.941619 28.388859 
L 41.748693 29.499588 
L 40.555768 30.610316 
L 39.362842 31.721044 
L 38.169917 32.831773 
L 36.976991 33.942501 
L 35.784066 35.05323 
L 34.59114 36.163958 
L 33.398215 37.274686 
L 32.348204 38.826658 
L 31.298194 40.37863 
L 30.248183 41.930602 
L 29.198173 43.482574 
z
" style="fill:none;stroke:#4169e1;stroke-linejoin:miter;"/>
   </g>
   <g id="patch_24">
    <path clip-path="url(#p81e7677cc0)" d="M 42.941619 28.388859 
L 42.941619 28.388859 
L 42.483647 27.284406 
L 42.025675 26.179953 
L 40.518497 27.211971 
L 39.011319 28.243989 
L 37.504142 29.276008 
L 35.996964 30.308026 
L 35.166286 30.946314 
L 34.335609 31.584601 
L 33.504932 32.222889 
L 32.674254 32.861177 
L 31.247651 33.635101 
L 29.821047 34.409025 
L 28.394443 35.182949 
L 26.967839 35.956873 
L 25.541236 36.730797 
L 24.114632 37.504721 
L 22.688028 38.278645 
L 21.261424 39.052569 
L 19.83482 39.826493 
L 18.408217 40.600417 
L 16.981613 41.374341 
L 15.555009 42.148265 
L 14.128405 42.922189 
L 12.701801 43.696113 
L 11.275198 44.470037 
L 9.848594 45.243961 
L 10.522681 46.386783 
L 11.196768 47.529605 
L 11.870856 48.672427 
L 12.544943 49.815249 
L 14.212197 48.951051 
L 15.87945 48.086852 
L 17.546704 47.222653 
L 19.213957 46.358455 
L 20.487323 46.277414 
L 21.760689 46.196373 
L 23.034054 46.115332 
L 24.30742 46.03429 
L 25.530108 45.396361 
L 26.752796 44.758432 
L 27.975485 44.120503 
L 29.198173 43.482574 
L 30.248183 41.930602 
L 31.298194 40.37863 
L 32.348204 38.826658 
L 33.398215 37.274686 
z
" style="fill:#4169e1;opacity:0.1;"/>
   </g>
   <g id="patch_25">
    <path clip-path="url(#p81e7677cc0)" d="M 42.941619 28.388859 
L 42.941619 28.388859 
L 42.483647 27.284406 
L 42.025675 26.179953 
L 40.518497 27.211971 
L 39.011319 28.243989 
L 37.504142 29.276008 
L 35.996964 30.308026 
L 35.166286 30.946314 
L 34.335609 31.584601 
L 33.504932 32.222889 
L 32.674254 32.861177 
L 31.247651 33.635101 
L 29.821047 34.409025 
L 28.394443 35.182949 
L 26.967839 35.956873 
L 25.541236 36.730797 
L 24.114632 37.504721 
L 22.688028 38.278645 
L 21.261424 39.052569 
L 19.83482 39.826493 
L 18.408217 40.600417 
L 16.981613 41.374341 
L 15.555009 42.148265 
L 14.128405 42.922189 
L 12.701801 43.696113 
L 11.275198 44.470037 
L 9.848594 45.243961 
L 10.522681 46.386783 
L 11.196768 47.529605 
L 11.870856 48.672427 
L 12.544943 49.815249 
L 14.212197 48.951051 
L 15.87945 48.086852 
L 17.546704 47.222653 
L 19.213957 46.358455 
L 20.487323 46.277414 
L 21.760689 46.196373 
L 23.034054 46.115332 
L 24.30742 46.03429 
L 25.530108 45.396361 
L 26.752796 44.758432 
L 27.975485 44.120503 
L 29.198173 43.482574 
L 30.248183 41.930602 
L 31.298194 40.37863 
L 32.348204 38.826658 
L 33.398215 37.274686 
z
" style="fill:none;stroke:#4169e1;stroke-linejoin:miter;"/>
   </g>
   <g id="patch_26">
    <path clip-path="url(#p81e7677cc0)" d="M 42.025675 26.179953 
L 42.025675 26.179953 
L 40.518497 27.211971 
L 39.011319 28.243989 
L 37.504142 29.276008 
L 35.996964 30.308026 
L 35.044018 30.736539 
L 34.091071 31.165053 
L 33.138125 31.593566 
L 32.185179 32.02208 
L 31.268297 32.518187 
L 30.351415 33.014294 
L 29.434533 33.510402 
L 28.51765 34.006509 
L 27.600768 34.502617 
L 26.683886 34.998724 
L 25.767004 35.494832 
L 24.850122 35.990939 
L 23.153373 36.875577 
L 21.456625 37.760216 
L 19.759877 38.644854 
L 18.063129 39.529492 
L 16.739622 39.510845 
L 15.639203 40.166345 
L 14.538783 40.821846 
L 13.438364 41.477346 
L 12.337944 42.132846 
L 11.252004 42.692244 
L 10.166064 43.251642 
L 8.653791 43.700595 
L 7.776459 42.056825 
L 6.899126 40.413054 
L 7.933887 39.813136 
L 8.968647 39.213217 
L 10.003407 38.613298 
L 11.038168 38.013379 
L 12.072928 37.41346 
L 13.107688 36.813541 
L 14.142449 36.213623 
L 15.177209 35.613704 
L 16.211969 35.013785 
L 17.24673 34.413866 
L 18.28149 33.813947 
L 19.31625 33.214028 
L 20.351011 32.61411 
L 21.385771 32.014191 
L 22.420531 31.414272 
L 23.455292 30.814353 
L 24.490052 30.214434 
L 25.524812 29.614515 
L 26.559573 29.014596 
L 27.594333 28.414678 
L 28.629093 27.814759 
L 29.663854 27.21484 
L 30.698614 26.614921 
L 31.733374 26.015002 
L 32.768135 25.415083 
L 33.802895 24.815165 
L 34.837655 24.215246 
L 35.872416 23.615327 
L 36.907176 23.015408 
L 37.941936 22.415489 
L 38.976697 21.81557 
L 40.011457 21.215651 
z
" style="fill:#4169e1;opacity:0.1;"/>
   </g>
   <g id="patch_27">
    <path clip-path="url(#p81e7677cc0)" d="M 42.025675 26.179953 
L 42.025675 26.179953 
L 40.518497 27.211971 
L 39.011319 28.243989 
L 37.504142 29.276008 
L 35.996964 30.308026 
L 35.044018 30.736539 
L 34.091071 31.165053 
L 33.138125 31.593566 
L 32.185179 32.02208 
L 31.268297 32.518187 
L 30.351415 33.014294 
L 29.434533 33.510402 
L 28.51765 34.006509 
L 27.600768 34.502617 
L 26.683886 34.998724 
L 25.767004 35.494832 
L 24.850122 35.990939 
L 23.153373 36.875577 
L 21.456625 37.760216 
L 19.759877 38.644854 
L 18.063129 39.529492 
L 16.739622 39.510845 
L 15.639203 40.166345 
L 14.538783 40.821846 
L 13.438364 41.477346 
L 12.337944 42.132846 
L 11.252004 42.692244 
L 10.166064 43.251642 
L 8.653791 43.700595 
L 7.776459 42.056825 
L 6.899126 40.413054 
L 7.933887 39.813136 
L 8.968647 39.213217 
L 10.003407 38.613298 
L 11.038168 38.013379 
L 12.072928 37.41346 
L 13.107688 36.813541 
L 14.142449 36.213623 
L 15.177209 35.613704 
L 16.211969 35.013785 
L 17.24673 34.413866 
L 18.28149 33.813947 
L 19.31625 33.214028 
L 20.351011 32.61411 
L 21.385771 32.014191 
L 22.420531 31.414272 
L 23.455292 30.814353 
L 24.490052 30.214434 
L 25.524812 29.614515 
L 26.559573 29.014596 
L 27.594333 28.414678 
L 28.629093 27.814759 
L 29.663854 27.21484 
L 30.698614 26.614921 
L 31.733374 26.015002 
L 32.768135 25.415083 
L 33.802895 24.815165 
L 34.837655 24.215246 
L 35.872416 23.615327 
L 36.907176 23.015408 
L 37.941936 22.415489 
L 38.976697 21.81557 
L 40.011457 21.215651 
z
" style="fill:none;stroke:#4169e1;stroke-linejoin:miter;"/>
   </g>
   <g id="patch_28">
    <path clip-path="url(#p81e7677cc0)" d="M 40.011457 21.215651 
L 40.011457 21.215651 
L 39.066991 21.583474 
L 38.122524 21.951296 
L 37.178058 22.319118 
L 36.233591 22.686941 
L 35.289125 23.054763 
L 34.344659 23.422585 
L 33.400192 23.790408 
L 32.455726 24.15823 
L 31.511259 24.526052 
L 30.566793 24.893875 
L 29.622327 25.261697 
L 28.67786 25.629519 
L 27.733394 25.997342 
L 26.788927 26.365164 
L 25.844461 26.732986 
L 24.899994 27.100809 
L 23.955528 27.468631 
L 23.011062 27.836453 
L 22.066595 28.204276 
L 21.122129 28.572098 
L 20.177662 28.93992 
L 19.233196 29.307743 
L 18.28873 29.675565 
L 17.344263 30.043387 
L 16.399797 30.41121 
L 15.45533 30.779032 
L 14.510864 31.146854 
L 13.566397 31.514677 
L 12.621931 31.882499 
L 11.677465 32.250321 
L 10.732998 32.618144 
L 9.788532 32.985966 
L 9.288731 33.46504 
L 7.593055 34.252501 
L 5.89738 35.039962 
L 6.045389 35.37847 
L 4.568511 36.18888 
L 5.151165 37.244924 
L 5.733818 38.300967 
L 6.316472 39.357011 
L 6.899126 40.413054 
z
" style="fill:#4169e1;opacity:0.1;"/>
   </g>
   <g id="patch_29">
    <path clip-path="url(#p81e7677cc0)" d="M 40.011457 21.215651 
L 40.011457 21.215651 
L 39.066991 21.583474 
L 38.122524 21.951296 
L 37.178058 22.319118 
L 36.233591 22.686941 
L 35.289125 23.054763 
L 34.344659 23.422585 
L 33.400192 23.790408 
L 32.455726 24.15823 
L 31.511259 24.526052 
L 30.566793 24.893875 
L 29.622327 25.261697 
L 28.67786 25.629519 
L 27.733394 25.997342 
L 26.788927 26.365164 
L 25.844461 26.732986 
L 24.899994 27.100809 
L 23.955528 27.468631 
L 23.011062 27.836453 
L 22.066595 28.204276 
L 21.122129 28.572098 
L 20.177662 28.93992 
L 19.233196 29.307743 
L 18.28873 29.675565 
L 17.344263 30.043387 
L 16.399797 30.41121 
L 15.45533 30.779032 
L 14.510864 31.146854 
L 13.566397 31.514677 
L 12.621931 31.882499 
L 11.677465 32.250321 
L 10.732998 32.618144 
L 9.788532 32.985966 
L 9.288731 33.46504 
L 7.593055 34.252501 
L 5.89738 35.039962 
L 6.045389 35.37847 
L 4.568511 36.18888 
L 5.151165 37.244924 
L 5.733818 38.300967 
L 6.316472 39.357011 
L 6.899126 40.413054 
z
" style="fill:none;stroke:#4169e1;stroke-linejoin:miter;"/>
   </g>
   <g id="patch_30">
    <path clip-path="url(#p81e7677cc0)" d="M 3.10343 34.783212 
L 3.10343 34.783212 
L 4.408703 34.343941 
L 5.713977 33.90467 
L 7.01925 33.465399 
L 8.324523 33.026128 
L 9.187913 32.983097 
L 9.788532 32.985966 
L 10.732998 32.618144 
L 11.677465 32.250321 
L 12.621931 31.882499 
L 13.566397 31.514677 
L 14.510864 31.146854 
L 15.45533 30.779032 
L 16.399797 30.41121 
L 17.344263 30.043387 
L 18.28873 29.675565 
L 19.233196 29.307743 
L 20.177662 28.93992 
L 21.122129 28.572098 
L 22.066595 28.204276 
L 23.011062 27.836453 
L 23.955528 27.468631 
L 24.899994 27.100809 
L 25.844461 26.732986 
L 26.788927 26.365164 
L 27.733394 25.997342 
L 28.67786 25.629519 
L 29.622327 25.261697 
L 30.566793 24.893875 
L 31.511259 24.526052 
L 32.455726 24.15823 
L 33.400192 23.790408 
L 34.344659 23.422585 
L 35.289125 23.054763 
L 36.233591 22.686941 
L 37.178058 22.319118 
L 38.122524 21.951296 
L 39.066991 21.583474 
L 40.011457 21.215651 
L 38.921495 20.130562 
L 37.831532 19.045473 
L 36.74157 17.960384 
L 35.651608 16.875294 
L 34.558428 17.020523 
L 33.465248 17.165751 
L 32.372068 17.310979 
L 31.278888 17.456208 
L 30.242821 17.484895 
L 29.232494 18.026722 
L 28.222167 18.56855 
L 27.211841 19.110377 
L 26.201514 19.652205 
L 24.835106 19.497295 
L 23.579974 19.883495 
L 22.324841 20.269695 
L 21.069709 20.655895 
L 19.814576 21.042095 
L 18.3259 21.339723 
L 16.837223 21.637352 
L 15.916721 22.019966 
L 14.996219 22.40258 
L 14.075717 22.785194 
L 13.155215 23.167808 
L 11.885871 24.120937 
L 10.616528 25.074066 
L 9.347184 26.027194 
L 8.077841 26.980323 
L 6.808497 27.933452 
L 5.539154 28.88658 
L 4.26981 29.839709 
L 3.000466 30.792838 
z
" style="fill:#4169e1;opacity:0.1;"/>
   </g>
   <g id="patch_31">
    <path clip-path="url(#p81e7677cc0)" d="M 3.10343 34.783212 
L 3.10343 34.783212 
L 4.408703 34.343941 
L 5.713977 33.90467 
L 7.01925 33.465399 
L 8.324523 33.026128 
L 9.187913 32.983097 
L 9.788532 32.985966 
L 10.732998 32.618144 
L 11.677465 32.250321 
L 12.621931 31.882499 
L 13.566397 31.514677 
L 14.510864 31.146854 
L 15.45533 30.779032 
L 16.399797 30.41121 
L 17.344263 30.043387 
L 18.28873 29.675565 
L 19.233196 29.307743 
L 20.177662 28.93992 
L 21.122129 28.572098 
L 22.066595 28.204276 
L 23.011062 27.836453 
L 23.955528 27.468631 
L 24.899994 27.100809 
L 25.844461 26.732986 
L 26.788927 26.365164 
L 27.733394 25.997342 
L 28.67786 25.629519 
L 29.622327 25.261697 
L 30.566793 24.893875 
L 31.511259 24.526052 
L 32.455726 24.15823 
L 33.400192 23.790408 
L 34.344659 23.422585 
L 35.289125 23.054763 
L 36.233591 22.686941 
L 37.178058 22.319118 
L 38.122524 21.951296 
L 39.066991 21.583474 
L 40.011457 21.215651 
L 38.921495 20.130562 
L 37.831532 19.045473 
L 36.74157 17.960384 
L 35.651608 16.875294 
L 34.558428 17.020523 
L 33.465248 17.165751 
L 32.372068 17.310979 
L 31.278888 17.456208 
L 30.242821 17.484895 
L 29.232494 18.026722 
L 28.222167 18.56855 
L 27.211841 19.110377 
L 26.201514 19.652205 
L 24.835106 19.497295 
L 23.579974 19.883495 
L 22.324841 20.269695 
L 21.069709 20.655895 
L 19.814576 21.042095 
L 18.3259 21.339723 
L 16.837223 21.637352 
L 15.916721 22.019966 
L 14.996219 22.40258 
L 14.075717 22.785194 
L 13.155215 23.167808 
L 11.885871 24.120937 
L 10.616528 25.074066 
L 9.347184 26.027194 
L 8.077841 26.980323 
L 6.808497 27.933452 
L 5.539154 28.88658 
L 4.26981 29.839709 
L 3.000466 30.792838 
z
" style="fill:none;stroke:#4169e1;stroke-linejoin:miter;"/>
   </g>
   <g id="patch_32">
    <path clip-path="url(#p81e7677cc0)" d="M 41.876593 16.908284 
L 41.876593 16.908284 
L 40.56837 16.070621 
L 39.260147 15.232958 
L 37.951924 14.395295 
L 36.643701 13.557632 
L 35.464183 13.019032 
L 34.284664 12.480431 
L 33.105145 11.941831 
L 31.925626 11.403231 
L 31.120153 12.906435 
L 31.926162 13.686007 
L 32.732171 14.465578 
L 33.695843 14.727707 
L 34.659514 14.989835 
L 35.623186 15.251963 
L 36.586857 15.514092 
L 37.291512 16.20043 
L 37.996166 16.886769 
z
" style="fill:#008000;opacity:0.1;"/>
   </g>
   <g id="patch_33">
    <path clip-path="url(#p81e7677cc0)" d="M 41.876593 16.908284 
L 41.876593 16.908284 
L 40.56837 16.070621 
L 39.260147 15.232958 
L 37.951924 14.395295 
L 36.643701 13.557632 
L 35.464183 13.019032 
L 34.284664 12.480431 
L 33.105145 11.941831 
L 31.925626 11.403231 
L 31.120153 12.906435 
L 31.926162 13.686007 
L 32.732171 14.465578 
L 33.695843 14.727707 
L 34.659514 14.989835 
L 35.623186 15.251963 
L 36.586857 15.514092 
L 37.291512 16.20043 
L 37.996166 16.886769 
z
" style="fill:none;stroke:#008000;stroke-linejoin:miter;"/>
   </g>
   <g id="patch_34">
    <path clip-path="url(#p81e7677cc0)" d="M 32.732171 14.465578 
L 32.732171 14.465578 
L 31.04883 15.329777 
L 29.365488 16.193976 
L 28.574495 17.058533 
L 27.783501 17.92309 
L 26.992508 18.787648 
L 26.201514 19.652205 
L 24.835106 19.497295 
L 25.396041 17.753119 
L 26.320029 16.970679 
L 27.244017 16.188238 
L 28.168004 15.405798 
L 29.091992 14.623357 
L 30.106073 13.764896 
L 31.120153 12.906435 
z
" style="fill:#4169e1;opacity:0.1;"/>
   </g>
   <g id="patch_35">
    <path clip-path="url(#p81e7677cc0)" d="M 32.732171 14.465578 
L 32.732171 14.465578 
L 31.04883 15.329777 
L 29.365488 16.193976 
L 28.574495 17.058533 
L 27.783501 17.92309 
L 26.992508 18.787648 
L 26.201514 19.652205 
L 24.835106 19.497295 
L 25.396041 17.753119 
L 26.320029 16.970679 
L 27.244017 16.188238 
L 28.168004 15.405798 
L 29.091992 14.623357 
L 30.106073 13.764896 
L 31.120153 12.906435 
z
" style="fill:none;stroke:#4169e1;stroke-dasharray:3.7,1.6;stroke-dashoffset:0;stroke-linejoin:miter;"/>
   </g>
   <g id="patch_36">
    <path clip-path="url(#p81e7677cc0)" d="M 24.835106 19.497295 
L 24.835106 19.497295 
L 23.555037 18.618035 
L 22.274968 17.738776 
L 20.893545 17.370147 
L 19.642435 17.908747 
L 18.391324 18.447347 
L 17.434624 19.056948 
L 16.477924 19.666548 
L 14.83802 19.929035 
L 13.198116 20.191522 
L 13.895799 19.41195 
L 14.593483 18.632379 
L 15.291166 17.852807 
L 15.988849 17.073235 
L 17.110719 17.682836 
L 18.671255 16.945578 
L 20.231792 16.208319 
L 21.986457 15.953004 
L 23.181259 16.492321 
L 23.77008 17.441864 
L 25.396041 17.753119 
z
" style="fill:#4169e1;opacity:0.1;"/>
   </g>
   <g id="patch_37">
    <path clip-path="url(#p81e7677cc0)" d="M 24.835106 19.497295 
L 24.835106 19.497295 
L 23.555037 18.618035 
L 22.274968 17.738776 
L 20.893545 17.370147 
L 19.642435 17.908747 
L 18.391324 18.447347 
L 17.434624 19.056948 
L 16.477924 19.666548 
L 14.83802 19.929035 
L 13.198116 20.191522 
L 13.895799 19.41195 
L 14.593483 18.632379 
L 15.291166 17.852807 
L 15.988849 17.073235 
L 17.110719 17.682836 
L 18.671255 16.945578 
L 20.231792 16.208319 
L 21.986457 15.953004 
L 23.181259 16.492321 
L 23.77008 17.441864 
L 25.396041 17.753119 
z
" style="fill:none;stroke:#4169e1;stroke-linejoin:miter;"/>
   </g>
   <g id="line2d_1">
    <path clip-path="url(#p81e7677cc0)" d="M 43.650564 80.649572 
L 44.103173 75.785675 
L 44.149292 75.29656 
L 44.608336 70.375289 
L 45.199302 64.025401 
L 45.563964 60.113916 
L 45.928625 56.202431 
L 46.236442 52.896243 
L 46.544259 49.590056 
L 46.863338 46.165893 
L 47.182417 42.741729 
L 47.501496 39.317566 
L 47.820574 35.893403 
L 48.008268 33.879569 
L 48.260313 31.170073 
L 48.392235 29.757234 
" style="fill:none;stroke:#808080;stroke-linecap:square;stroke-width:1.5;"/>
   </g>
   <g id="line2d_2">
    <path clip-path="url(#p81e7677cc0)" d="M 4.596397 35.00984 
L 9.788532 32.985966 
L 9.945122 32.925723 
L 13.465177 31.555197 
L 16.985233 30.184671 
L 21.534384 28.412526 
L 26.083535 26.640381 
L 31.091195 24.691093 
L 36.437775 22.60841 
L 40.011457 21.215651 
L 41.051815 20.811163 
" style="fill:none;stroke:#808080;stroke-linecap:square;stroke-width:1.5;"/>
   </g>
   <g id="line2d_3">
    <path clip-path="url(#p81e7677cc0)" d="M 30.969999 76.80837 
L 31.432261 75.285085 
L 32.973491 70.198864 
L 34.209586 66.235025 
L 35.445681 62.271185 
L 36.461907 59.014483 
L 37.478133 55.757781 
L 38.806466 51.497747 
L 40.134798 47.237714 
L 41.306541 43.481856 
L 42.478284 39.725999 
L 43.938003 35.047134 
L 45.60043 29.715637 
L 45.901812 28.750317 
" style="fill:none;stroke:#808080;stroke-linecap:square;stroke-width:1.5;"/>
   </g>
   <g id="line2d_4">
    <path clip-path="url(#p81e7677cc0)" d="M 10.660502 43.44528 
L 13.751544 41.649468 
L 16.832933 39.860828 
L 20.139554 37.940227 
L 25.499004 34.827677 
L 30.398338 31.983352 
L 35.628012 28.945389 
L 39.039742 26.964545 
L 41.347834 25.624858 
L 42.787174 24.788629 
" style="fill:none;stroke:#808080;stroke-linecap:square;stroke-width:1.5;"/>
   </g>
   <g id="line2d_5">
    <path clip-path="url(#p81e7677cc0)" d="M 16.128278 55.697538 
L 20.395889 52.151813 
" style="fill:none;stroke:#808080;stroke-linecap:square;stroke-width:1.5;"/>
   </g>
   <g id="line2d_6">
    <path clip-path="url(#p81e7677cc0)" d="M 37.407345 76.584611 
L 39.190969 72.938481 
" style="fill:none;stroke:#808080;stroke-linecap:square;stroke-width:1.5;"/>
   </g>
   <g id="line2d_7">
    <path clip-path="url(#p81e7677cc0)" d="M 21.087674 67.107829 
L 23.351792 62.745957 
L 25.615911 58.384084 
" style="fill:none;stroke:#808080;stroke-linecap:square;stroke-width:1.5;"/>
   </g>
   <g id="line2d_8">
    <path clip-path="url(#p81e7677cc0)" d="M 15.956673 60.093835 
L 19.687481 57.293258 
L 23.418289 54.49268 
" style="fill:none;stroke:#808080;stroke-linecap:square;stroke-width:1.5;"/>
   </g>
   <g id="line2d_9">
    <path clip-path="url(#p81e7677cc0)" d="M 16.180832 60.456727 
L 19.967949 57.664038 
L 23.755065 54.87135 
" style="fill:none;stroke:#808080;stroke-linecap:square;stroke-width:1.5;"/>
   </g>
   <g id="line2d_10">
    <path clip-path="url(#p81e7677cc0)" d="M 12.958941 51.121947 
L 15.361417 49.818118 
" style="fill:none;stroke:#808080;stroke-linecap:square;stroke-width:1.5;"/>
   </g>
   <g id="text_1">
    <g id="patch_38">
     <path d="M 45.195558 72.053281 
L 47.163544 56.241532 
L 45.203046 55.997521 
L 43.23506 71.809271 
z
" style="fill:#ffffff;"/>
    </g>
    <!-- Sundance Triple -->
    <g style="fill:#808080;" transform="translate(44.765429 71.979591)rotate(-82.905251)scale(0.02 -0.02)">
     <defs>
      <path d="M 3425 4513 
L 3425 3897 
Q 3066 4069 2747 4153 
Q 2428 4238 2131 4238 
Q 1616 4238 1336 4038 
Q 1056 3838 1056 3469 
Q 1056 3159 1242 3001 
Q 1428 2844 1947 2747 
L 2328 2669 
Q 3034 2534 3370 2195 
Q 3706 1856 3706 1288 
Q 3706 609 3251 259 
Q 2797 -91 1919 -91 
Q 1588 -91 1214 -16 
Q 841 59 441 206 
L 441 856 
Q 825 641 1194 531 
Q 1563 422 1919 422 
Q 2459 422 2753 634 
Q 3047 847 3047 1241 
Q 3047 1584 2836 1778 
Q 2625 1972 2144 2069 
L 1759 2144 
Q 1053 2284 737 2584 
Q 422 2884 422 3419 
Q 422 4038 858 4394 
Q 1294 4750 2059 4750 
Q 2388 4750 2728 4690 
Q 3069 4631 3425 4513 
z
" id="DejaVuSans-53" transform="scale(0.015625)"/>
      <path d="M 544 1381 
L 544 3500 
L 1119 3500 
L 1119 1403 
Q 1119 906 1312 657 
Q 1506 409 1894 409 
Q 2359 409 2629 706 
Q 2900 1003 2900 1516 
L 2900 3500 
L 3475 3500 
L 3475 0 
L 2900 0 
L 2900 538 
Q 2691 219 2414 64 
Q 2138 -91 1772 -91 
Q 1169 -91 856 284 
Q 544 659 544 1381 
z
M 1991 3584 
L 1991 3584 
z
" id="DejaVuSans-75" transform="scale(0.015625)"/>
      <path d="M 3513 2113 
L 3513 0 
L 2938 0 
L 2938 2094 
Q 2938 2591 2744 2837 
Q 2550 3084 2163 3084 
Q 1697 3084 1428 2787 
Q 1159 2491 1159 1978 
L 1159 0 
L 581 0 
L 581 3500 
L 1159 3500 
L 1159 2956 
Q 1366 3272 1645 3428 
Q 1925 3584 2291 3584 
Q 2894 3584 3203 3211 
Q 3513 2838 3513 2113 
z
" id="DejaVuSans-6e" transform="scale(0.015625)"/>
      <path d="M 2906 2969 
L 2906 4863 
L 3481 4863 
L 3481 0 
L 2906 0 
L 2906 525 
Q 2725 213 2448 61 
Q 2172 -91 1784 -91 
Q 1150 -91 751 415 
Q 353 922 353 1747 
Q 353 2572 751 3078 
Q 1150 3584 1784 3584 
Q 2172 3584 2448 3432 
Q 2725 3281 2906 2969 
z
M 947 1747 
Q 947 1113 1208 752 
Q 1469 391 1925 391 
Q 2381 391 2643 752 
Q 2906 1113 2906 1747 
Q 2906 2381 2643 2742 
Q 2381 3103 1925 3103 
Q 1469 3103 1208 2742 
Q 947 2381 947 1747 
z
" id="DejaVuSans-64" transform="scale(0.015625)"/>
      <path d="M 2194 1759 
Q 1497 1759 1228 1600 
Q 959 1441 959 1056 
Q 959 750 1161 570 
Q 1363 391 1709 391 
Q 2188 391 2477 730 
Q 2766 1069 2766 1631 
L 2766 1759 
L 2194 1759 
z
M 3341 1997 
L 3341 0 
L 2766 0 
L 2766 531 
Q 2569 213 2275 61 
Q 1981 -91 1556 -91 
Q 1019 -91 701 211 
Q 384 513 384 1019 
Q 384 1609 779 1909 
Q 1175 2209 1959 2209 
L 2766 2209 
L 2766 2266 
Q 2766 2663 2505 2880 
Q 2244 3097 1772 3097 
Q 1472 3097 1187 3025 
Q 903 2953 641 2809 
L 641 3341 
Q 956 3463 1253 3523 
Q 1550 3584 1831 3584 
Q 2591 3584 2966 3190 
Q 3341 2797 3341 1997 
z
" id="DejaVuSans-61" transform="scale(0.015625)"/>
      <path d="M 3122 3366 
L 3122 2828 
Q 2878 2963 2633 3030 
Q 2388 3097 2138 3097 
Q 1578 3097 1268 2742 
Q 959 2388 959 1747 
Q 959 1106 1268 751 
Q 1578 397 2138 397 
Q 2388 397 2633 464 
Q 2878 531 3122 666 
L 3122 134 
Q 2881 22 2623 -34 
Q 2366 -91 2075 -91 
Q 1284 -91 818 406 
Q 353 903 353 1747 
Q 353 2603 823 3093 
Q 1294 3584 2113 3584 
Q 2378 3584 2631 3529 
Q 2884 3475 3122 3366 
z
" id="DejaVuSans-63" transform="scale(0.015625)"/>
      <path d="M 3597 1894 
L 3597 1613 
L 953 1613 
Q 991 1019 1311 708 
Q 1631 397 2203 397 
Q 2534 397 2845 478 
Q 3156 559 3463 722 
L 3463 178 
Q 3153 47 2828 -22 
Q 2503 -91 2169 -91 
Q 1331 -91 842 396 
Q 353 884 353 1716 
Q 353 2575 817 3079 
Q 1281 3584 2069 3584 
Q 2775 3584 3186 3129 
Q 3597 2675 3597 1894 
z
M 3022 2063 
Q 3016 2534 2758 2815 
Q 2500 3097 2075 3097 
Q 1594 3097 1305 2825 
Q 1016 2553 972 2059 
L 3022 2063 
z
" id="DejaVuSans-65" transform="scale(0.015625)"/>
      <path id="DejaVuSans-20" transform="scale(0.015625)"/>
      <path d="M -19 4666 
L 3928 4666 
L 3928 4134 
L 2272 4134 
L 2272 0 
L 1638 0 
L 1638 4134 
L -19 4134 
L -19 4666 
z
" id="DejaVuSans-54" transform="scale(0.015625)"/>
      <path d="M 2631 2963 
Q 2534 3019 2420 3045 
Q 2306 3072 2169 3072 
Q 1681 3072 1420 2755 
Q 1159 2438 1159 1844 
L 1159 0 
L 581 0 
L 581 3500 
L 1159 3500 
L 1159 2956 
Q 1341 3275 1631 3429 
Q 1922 3584 2338 3584 
Q 2397 3584 2469 3576 
Q 2541 3569 2628 3553 
L 2631 2963 
z
" id="DejaVuSans-72" transform="scale(0.015625)"/>
      <path d="M 603 3500 
L 1178 3500 
L 1178 0 
L 603 0 
L 603 3500 
z
M 603 4863 
L 1178 4863 
L 1178 4134 
L 603 4134 
L 603 4863 
z
" id="DejaVuSans-69" transform="scale(0.015625)"/>
      <path d="M 1159 525 
L 1159 -1331 
L 581 -1331 
L 581 3500 
L 1159 3500 
L 1159 2969 
Q 1341 3281 1617 3432 
Q 1894 3584 2278 3584 
Q 2916 3584 3314 3078 
Q 3713 2572 3713 1747 
Q 3713 922 3314 415 
Q 2916 -91 2278 -91 
Q 1894 -91 1617 61 
Q 1341 213 1159 525 
z
M 3116 1747 
Q 3116 2381 2855 2742 
Q 2594 3103 2138 3103 
Q 1681 3103 1420 2742 
Q 1159 2381 1159 1747 
Q 1159 1113 1420 752 
Q 1681 391 2138 391 
Q 2594 391 2855 752 
Q 3116 1113 3116 1747 
z
" id="DejaVuSans-70" transform="scale(0.015625)"/>
      <path d="M 603 4863 
L 1178 4863 
L 1178 0 
L 603 0 
L 603 4863 
z
" id="DejaVuSans-6c" transform="scale(0.015625)"/>
     </defs>
     <use xlink:href="#DejaVuSans-53"/>
     <use x="63.476562" xlink:href="#DejaVuSans-75"/>
     <use x="126.855469" xlink:href="#DejaVuSans-6e"/>
     <use x="190.234375" xlink:href="#DejaVuSans-64"/>
     <use x="253.710938" xlink:href="#DejaVuSans-61"/>
     <use x="314.990234" xlink:href="#DejaVuSans-6e"/>
     <use x="378.369141" xlink:href="#DejaVuSans-63"/>
     <use x="433.349609" xlink:href="#DejaVuSans-65"/>
     <use x="494.873047" xlink:href="#DejaVuSans-20"/>
     <use x="526.660156" xlink:href="#DejaVuSans-54"/>
     <use x="572.994141" xlink:href="#DejaVuSans-72"/>
     <use x="614.107422" xlink:href="#DejaVuSans-69"/>
     <use x="641.890625" xlink:href="#DejaVuSans-70"/>
     <use x="705.367188" xlink:href="#DejaVuSans-6c"/>
     <use x="733.150391" xlink:href="#DejaVuSans-65"/>
    </g>
   </g>
   <g id="text_2">
    <g id="patch_39">
     <path d="M 11.889235 32.697111 
L 22.633473 29.569103 
L 22.08123 27.672232 
L 11.336992 30.800239 
z
" style="fill:#ffffff;"/>
    </g>
    <!-- Chief Triple -->
    <g style="fill:#808080;" transform="translate(11.786581 32.27296)rotate(-16.232045)scale(0.02 -0.02)">
     <defs>
      <path d="M 4122 4306 
L 4122 3641 
Q 3803 3938 3442 4084 
Q 3081 4231 2675 4231 
Q 1875 4231 1450 3742 
Q 1025 3253 1025 2328 
Q 1025 1406 1450 917 
Q 1875 428 2675 428 
Q 3081 428 3442 575 
Q 3803 722 4122 1019 
L 4122 359 
Q 3791 134 3420 21 
Q 3050 -91 2638 -91 
Q 1578 -91 968 557 
Q 359 1206 359 2328 
Q 359 3453 968 4101 
Q 1578 4750 2638 4750 
Q 3056 4750 3426 4639 
Q 3797 4528 4122 4306 
z
" id="DejaVuSans-43" transform="scale(0.015625)"/>
      <path d="M 3513 2113 
L 3513 0 
L 2938 0 
L 2938 2094 
Q 2938 2591 2744 2837 
Q 2550 3084 2163 3084 
Q 1697 3084 1428 2787 
Q 1159 2491 1159 1978 
L 1159 0 
L 581 0 
L 581 4863 
L 1159 4863 
L 1159 2956 
Q 1366 3272 1645 3428 
Q 1925 3584 2291 3584 
Q 2894 3584 3203 3211 
Q 3513 2838 3513 2113 
z
" id="DejaVuSans-68" transform="scale(0.015625)"/>
      <path d="M 2375 4863 
L 2375 4384 
L 1825 4384 
Q 1516 4384 1395 4259 
Q 1275 4134 1275 3809 
L 1275 3500 
L 2222 3500 
L 2222 3053 
L 1275 3053 
L 1275 0 
L 697 0 
L 697 3053 
L 147 3053 
L 147 3500 
L 697 3500 
L 697 3744 
Q 697 4328 969 4595 
Q 1241 4863 1831 4863 
L 2375 4863 
z
" id="DejaVuSans-66" transform="scale(0.015625)"/>
     </defs>
     <use xlink:href="#DejaVuSans-43"/>
     <use x="69.824219" xlink:href="#DejaVuSans-68"/>
     <use x="133.203125" xlink:href="#DejaVuSans-69"/>
     <use x="160.986328" xlink:href="#DejaVuSans-65"/>
     <use x="222.509766" xlink:href="#DejaVuSans-66"/>
     <use x="257.714844" xlink:href="#DejaVuSans-20"/>
     <use x="289.501953" xlink:href="#DejaVuSans-54"/>
     <use x="335.835938" xlink:href="#DejaVuSans-72"/>
     <use x="376.949219" xlink:href="#DejaVuSans-69"/>
     <use x="404.732422" xlink:href="#DejaVuSans-70"/>
     <use x="468.208984" xlink:href="#DejaVuSans-6c"/>
     <use x="495.992188" xlink:href="#DejaVuSans-65"/>
    </g>
   </g>
   <g id="text_3">
    <g id="patch_40">
     <path d="M 32.652129 71.535986 
L 40.062643 53.766826 
L 38.239234 53.006385 
L 30.828719 70.775545 
z
" style="fill:#ffffff;"/>
    </g>
    <!-- Snowdance Double -->
    <g style="fill:#808080;" transform="translate(32.257477 71.349729)rotate(-67.361735)scale(0.02 -0.02)">
     <defs>
      <path d="M 1959 3097 
Q 1497 3097 1228 2736 
Q 959 2375 959 1747 
Q 959 1119 1226 758 
Q 1494 397 1959 397 
Q 2419 397 2687 759 
Q 2956 1122 2956 1747 
Q 2956 2369 2687 2733 
Q 2419 3097 1959 3097 
z
M 1959 3584 
Q 2709 3584 3137 3096 
Q 3566 2609 3566 1747 
Q 3566 888 3137 398 
Q 2709 -91 1959 -91 
Q 1206 -91 779 398 
Q 353 888 353 1747 
Q 353 2609 779 3096 
Q 1206 3584 1959 3584 
z
" id="DejaVuSans-6f" transform="scale(0.015625)"/>
      <path d="M 269 3500 
L 844 3500 
L 1563 769 
L 2278 3500 
L 2956 3500 
L 3675 769 
L 4391 3500 
L 4966 3500 
L 4050 0 
L 3372 0 
L 2619 2869 
L 1863 0 
L 1184 0 
L 269 3500 
z
" id="DejaVuSans-77" transform="scale(0.015625)"/>
      <path d="M 1259 4147 
L 1259 519 
L 2022 519 
Q 2988 519 3436 956 
Q 3884 1394 3884 2338 
Q 3884 3275 3436 3711 
Q 2988 4147 2022 4147 
L 1259 4147 
z
M 628 4666 
L 1925 4666 
Q 3281 4666 3915 4102 
Q 4550 3538 4550 2338 
Q 4550 1131 3912 565 
Q 3275 0 1925 0 
L 628 0 
L 628 4666 
z
" id="DejaVuSans-44" transform="scale(0.015625)"/>
      <path d="M 3116 1747 
Q 3116 2381 2855 2742 
Q 2594 3103 2138 3103 
Q 1681 3103 1420 2742 
Q 1159 2381 1159 1747 
Q 1159 1113 1420 752 
Q 1681 391 2138 391 
Q 2594 391 2855 752 
Q 3116 1113 3116 1747 
z
M 1159 2969 
Q 1341 3281 1617 3432 
Q 1894 3584 2278 3584 
Q 2916 3584 3314 3078 
Q 3713 2572 3713 1747 
Q 3713 922 3314 415 
Q 2916 -91 2278 -91 
Q 1894 -91 1617 61 
Q 1341 213 1159 525 
L 1159 0 
L 581 0 
L 581 4863 
L 1159 4863 
L 1159 2969 
z
" id="DejaVuSans-62" transform="scale(0.015625)"/>
     </defs>
     <use xlink:href="#DejaVuSans-53"/>
     <use x="63.476562" xlink:href="#DejaVuSans-6e"/>
     <use x="126.855469" xlink:href="#DejaVuSans-6f"/>
     <use x="188.037109" xlink:href="#DejaVuSans-77"/>
     <use x="269.824219" xlink:href="#DejaVuSans-64"/>
     <use x="333.300781" xlink:href="#DejaVuSans-61"/>
     <use x="394.580078" xlink:href="#DejaVuSans-6e"/>
     <use x="457.958984" xlink:href="#DejaVuSans-63"/>
     <use x="512.939453" xlink:href="#DejaVuSans-65"/>
     <use x="574.462891" xlink:href="#DejaVuSans-20"/>
     <use x="606.25" xlink:href="#DejaVuSans-44"/>
     <use x="683.251953" xlink:href="#DejaVuSans-6f"/>
     <use x="744.433594" xlink:href="#DejaVuSans-75"/>
     <use x="807.8125" xlink:href="#DejaVuSans-62"/>
     <use x="871.289062" xlink:href="#DejaVuSans-6c"/>
     <use x="899.072266" xlink:href="#DejaVuSans-65"/>
    </g>
   </g>
   <g id="text_4">
    <g id="patch_41">
     <path d="M 18.558239 38.918712 
L 33.226707 32.548775 
L 32.43977 30.736643 
L 17.771301 37.10658 
z
" style="fill:#ffffff;"/>
    </g>
    <!-- Wardance Triple -->
    <g style="fill:#808080;" transform="translate(18.40294 38.510884)rotate(-23.473405)scale(0.02 -0.02)">
     <defs>
      <path d="M 213 4666 
L 850 4666 
L 1831 722 
L 2809 4666 
L 3519 4666 
L 4500 722 
L 5478 4666 
L 6119 4666 
L 4947 0 
L 4153 0 
L 3169 4050 
L 2175 0 
L 1381 0 
L 213 4666 
z
" id="DejaVuSans-57" transform="scale(0.015625)"/>
     </defs>
     <use xlink:href="#DejaVuSans-57"/>
     <use x="92.501953" xlink:href="#DejaVuSans-61"/>
     <use x="153.78125" xlink:href="#DejaVuSans-72"/>
     <use x="193.144531" xlink:href="#DejaVuSans-64"/>
     <use x="256.621094" xlink:href="#DejaVuSans-61"/>
     <use x="317.900391" xlink:href="#DejaVuSans-6e"/>
     <use x="381.279297" xlink:href="#DejaVuSans-63"/>
     <use x="436.259766" xlink:href="#DejaVuSans-65"/>
     <use x="497.783203" xlink:href="#DejaVuSans-20"/>
     <use x="529.570312" xlink:href="#DejaVuSans-54"/>
     <use x="575.904297" xlink:href="#DejaVuSans-72"/>
     <use x="617.017578" xlink:href="#DejaVuSans-69"/>
     <use x="644.800781" xlink:href="#DejaVuSans-70"/>
     <use x="708.277344" xlink:href="#DejaVuSans-6c"/>
     <use x="736.060547" xlink:href="#DejaVuSans-65"/>
    </g>
   </g>
   <g id="text_5">
    <g id="patch_42">
     <path d="M 54.200238 56.022279 
L 65.386876 39.927827 
L 63.764626 38.800263 
L 52.577988 54.894715 
z
" style="fill:#ffffff;"/>
    </g>
    <!-- Nashoba Trail 13.2 -->
    <g style="fill:#008000;" transform="translate(53.85369 55.75705)rotate(-55.198315)scale(0.02 -0.02)">
     <defs>
      <path d="M 628 4666 
L 1478 4666 
L 3547 763 
L 3547 4666 
L 4159 4666 
L 4159 0 
L 3309 0 
L 1241 3903 
L 1241 0 
L 628 0 
L 628 4666 
z
" id="DejaVuSans-4e" transform="scale(0.015625)"/>
      <path d="M 2834 3397 
L 2834 2853 
Q 2591 2978 2328 3040 
Q 2066 3103 1784 3103 
Q 1356 3103 1142 2972 
Q 928 2841 928 2578 
Q 928 2378 1081 2264 
Q 1234 2150 1697 2047 
L 1894 2003 
Q 2506 1872 2764 1633 
Q 3022 1394 3022 966 
Q 3022 478 2636 193 
Q 2250 -91 1575 -91 
Q 1294 -91 989 -36 
Q 684 19 347 128 
L 347 722 
Q 666 556 975 473 
Q 1284 391 1588 391 
Q 1994 391 2212 530 
Q 2431 669 2431 922 
Q 2431 1156 2273 1281 
Q 2116 1406 1581 1522 
L 1381 1569 
Q 847 1681 609 1914 
Q 372 2147 372 2553 
Q 372 3047 722 3315 
Q 1072 3584 1716 3584 
Q 2034 3584 2315 3537 
Q 2597 3491 2834 3397 
z
" id="DejaVuSans-73" transform="scale(0.015625)"/>
      <path d="M 794 531 
L 1825 531 
L 1825 4091 
L 703 3866 
L 703 4441 
L 1819 4666 
L 2450 4666 
L 2450 531 
L 3481 531 
L 3481 0 
L 794 0 
L 794 531 
z
" id="DejaVuSans-31" transform="scale(0.015625)"/>
      <path d="M 2597 2516 
Q 3050 2419 3304 2112 
Q 3559 1806 3559 1356 
Q 3559 666 3084 287 
Q 2609 -91 1734 -91 
Q 1441 -91 1130 -33 
Q 819 25 488 141 
L 488 750 
Q 750 597 1062 519 
Q 1375 441 1716 441 
Q 2309 441 2620 675 
Q 2931 909 2931 1356 
Q 2931 1769 2642 2001 
Q 2353 2234 1838 2234 
L 1294 2234 
L 1294 2753 
L 1863 2753 
Q 2328 2753 2575 2939 
Q 2822 3125 2822 3475 
Q 2822 3834 2567 4026 
Q 2313 4219 1838 4219 
Q 1578 4219 1281 4162 
Q 984 4106 628 3988 
L 628 4550 
Q 988 4650 1302 4700 
Q 1616 4750 1894 4750 
Q 2613 4750 3031 4423 
Q 3450 4097 3450 3541 
Q 3450 3153 3228 2886 
Q 3006 2619 2597 2516 
z
" id="DejaVuSans-33" transform="scale(0.015625)"/>
      <path d="M 684 794 
L 1344 794 
L 1344 0 
L 684 0 
L 684 794 
z
" id="DejaVuSans-2e" transform="scale(0.015625)"/>
      <path d="M 1228 531 
L 3431 531 
L 3431 0 
L 469 0 
L 469 531 
Q 828 903 1448 1529 
Q 2069 2156 2228 2338 
Q 2531 2678 2651 2914 
Q 2772 3150 2772 3378 
Q 2772 3750 2511 3984 
Q 2250 4219 1831 4219 
Q 1534 4219 1204 4116 
Q 875 4013 500 3803 
L 500 4441 
Q 881 4594 1212 4672 
Q 1544 4750 1819 4750 
Q 2544 4750 2975 4387 
Q 3406 4025 3406 3419 
Q 3406 3131 3298 2873 
Q 3191 2616 2906 2266 
Q 2828 2175 2409 1742 
Q 1991 1309 1228 531 
z
" id="DejaVuSans-32" transform="scale(0.015625)"/>
      <path d="M 1600 4347 
Q 1350 4347 1178 4173 
Q 1006 4000 1006 3750 
Q 1006 3503 1178 3333 
Q 1350 3163 1600 3163 
Q 1850 3163 2022 3333 
Q 2194 3503 2194 3750 
Q 2194 3997 2020 4172 
Q 1847 4347 1600 4347 
z
M 1600 4750 
Q 1800 4750 1984 4673 
Q 2169 4597 2303 4453 
Q 2447 4313 2519 4134 
Q 2591 3956 2591 3750 
Q 2591 3338 2302 3052 
Q 2013 2766 1594 2766 
Q 1172 2766 890 3047 
Q 609 3328 609 3750 
Q 609 4169 896 4459 
Q 1184 4750 1600 4750 
z
" id="DejaVuSans-b0" transform="scale(0.015625)"/>
     </defs>
     <use xlink:href="#DejaVuSans-4e"/>
     <use x="74.804688" xlink:href="#DejaVuSans-61"/>
     <use x="136.083984" xlink:href="#DejaVuSans-73"/>
     <use x="188.183594" xlink:href="#DejaVuSans-68"/>
     <use x="251.5625" xlink:href="#DejaVuSans-6f"/>
     <use x="312.744141" xlink:href="#DejaVuSans-62"/>
     <use x="376.220703" xlink:href="#DejaVuSans-61"/>
     <use x="437.5" xlink:href="#DejaVuSans-20"/>
     <use x="469.287109" xlink:href="#DejaVuSans-54"/>
     <use x="515.621094" xlink:href="#DejaVuSans-72"/>
     <use x="556.734375" xlink:href="#DejaVuSans-61"/>
     <use x="618.013672" xlink:href="#DejaVuSans-69"/>
     <use x="645.796875" xlink:href="#DejaVuSans-6c"/>
     <use x="673.580078" xlink:href="#DejaVuSans-20"/>
     <use x="705.367188" xlink:href="#DejaVuSans-31"/>
     <use x="768.990234" xlink:href="#DejaVuSans-33"/>
     <use x="832.613281" xlink:href="#DejaVuSans-2e"/>
     <use x="864.400391" xlink:href="#DejaVuSans-32"/>
     <use x="928.023438" xlink:href="#DejaVuSans-b0"/>
    </g>
   </g>
   <g id="text_6">
    <g id="patch_43">
     <path d="M 52.114688 71.428958 
L 53.132738 54.684878 
L 51.160755 54.56498 
L 50.142705 71.30906 
z
" style="fill:#ffffff;"/>
    </g>
    <!-- Indian Run 16.4 -->
    <g style="fill:#008000;" transform="translate(51.680768 71.382538)rotate(-86.520665)scale(0.02 -0.02)">
     <defs>
      <path d="M 628 4666 
L 1259 4666 
L 1259 0 
L 628 0 
L 628 4666 
z
" id="DejaVuSans-49" transform="scale(0.015625)"/>
      <path d="M 2841 2188 
Q 3044 2119 3236 1894 
Q 3428 1669 3622 1275 
L 4263 0 
L 3584 0 
L 2988 1197 
Q 2756 1666 2539 1819 
Q 2322 1972 1947 1972 
L 1259 1972 
L 1259 0 
L 628 0 
L 628 4666 
L 2053 4666 
Q 2853 4666 3247 4331 
Q 3641 3997 3641 3322 
Q 3641 2881 3436 2590 
Q 3231 2300 2841 2188 
z
M 1259 4147 
L 1259 2491 
L 2053 2491 
Q 2509 2491 2742 2702 
Q 2975 2913 2975 3322 
Q 2975 3731 2742 3939 
Q 2509 4147 2053 4147 
L 1259 4147 
z
" id="DejaVuSans-52" transform="scale(0.015625)"/>
      <path d="M 2113 2584 
Q 1688 2584 1439 2293 
Q 1191 2003 1191 1497 
Q 1191 994 1439 701 
Q 1688 409 2113 409 
Q 2538 409 2786 701 
Q 3034 994 3034 1497 
Q 3034 2003 2786 2293 
Q 2538 2584 2113 2584 
z
M 3366 4563 
L 3366 3988 
Q 3128 4100 2886 4159 
Q 2644 4219 2406 4219 
Q 1781 4219 1451 3797 
Q 1122 3375 1075 2522 
Q 1259 2794 1537 2939 
Q 1816 3084 2150 3084 
Q 2853 3084 3261 2657 
Q 3669 2231 3669 1497 
Q 3669 778 3244 343 
Q 2819 -91 2113 -91 
Q 1303 -91 875 529 
Q 447 1150 447 2328 
Q 447 3434 972 4092 
Q 1497 4750 2381 4750 
Q 2619 4750 2861 4703 
Q 3103 4656 3366 4563 
z
" id="DejaVuSans-36" transform="scale(0.015625)"/>
      <path d="M 2419 4116 
L 825 1625 
L 2419 1625 
L 2419 4116 
z
M 2253 4666 
L 3047 4666 
L 3047 1625 
L 3713 1625 
L 3713 1100 
L 3047 1100 
L 3047 0 
L 2419 0 
L 2419 1100 
L 313 1100 
L 313 1709 
L 2253 4666 
z
" id="DejaVuSans-34" transform="scale(0.015625)"/>
     </defs>
     <use xlink:href="#DejaVuSans-49"/>
     <use x="29.492188" xlink:href="#DejaVuSans-6e"/>
     <use x="92.871094" xlink:href="#DejaVuSans-64"/>
     <use x="156.347656" xlink:href="#DejaVuSans-69"/>
     <use x="184.130859" xlink:href="#DejaVuSans-61"/>
     <use x="245.410156" xlink:href="#DejaVuSans-6e"/>
     <use x="308.789062" xlink:href="#DejaVuSans-20"/>
     <use x="340.576172" xlink:href="#DejaVuSans-52"/>
     <use x="405.558594" xlink:href="#DejaVuSans-75"/>
     <use x="468.9375" xlink:href="#DejaVuSans-6e"/>
     <use x="532.316406" xlink:href="#DejaVuSans-20"/>
     <use x="564.103516" xlink:href="#DejaVuSans-31"/>
     <use x="627.726562" xlink:href="#DejaVuSans-36"/>
     <use x="691.349609" xlink:href="#DejaVuSans-2e"/>
     <use x="723.136719" xlink:href="#DejaVuSans-34"/>
     <use x="786.759766" xlink:href="#DejaVuSans-b0"/>
    </g>
   </g>
   <g id="text_7">
    <g id="patch_44">
     <path d="M 41.804402 29.007457 
L 44.631517 32.955948 
L 46.237846 31.805819 
L 43.410732 27.857327 
z
" style="fill:#ffffff;"/>
    </g>
    <!--  7.4 -->
    <g style="fill:#008000;" transform="translate(42.170495 28.769933)rotate(-305.602612)scale(0.02 -0.02)">
     <defs>
      <path d="M 525 4666 
L 3525 4666 
L 3525 4397 
L 1831 0 
L 1172 0 
L 2766 4134 
L 525 4134 
L 525 4666 
z
" id="DejaVuSans-37" transform="scale(0.015625)"/>
     </defs>
     <use xlink:href="#DejaVuSans-20"/>
     <use x="31.787109" xlink:href="#DejaVuSans-37"/>
     <use x="95.410156" xlink:href="#DejaVuSans-2e"/>
     <use x="127.197266" xlink:href="#DejaVuSans-34"/>
     <use x="190.820312" xlink:href="#DejaVuSans-b0"/>
    </g>
   </g>
   <g id="text_8">
    <g id="patch_45">
     <path d="M 45.042085 73.686804 
L 47.021534 57.782953 
L 45.061036 57.538942 
L 43.081587 73.442794 
z
" style="fill:#ffffff;"/>
    </g>
    <!-- Sundance 15.3 -->
    <g style="fill:#008000;" transform="translate(44.611956 73.613114)rotate(-82.905251)scale(0.02 -0.02)">
     <defs>
      <path d="M 691 4666 
L 3169 4666 
L 3169 4134 
L 1269 4134 
L 1269 2991 
Q 1406 3038 1543 3061 
Q 1681 3084 1819 3084 
Q 2600 3084 3056 2656 
Q 3513 2228 3513 1497 
Q 3513 744 3044 326 
Q 2575 -91 1722 -91 
Q 1428 -91 1123 -41 
Q 819 9 494 109 
L 494 744 
Q 775 591 1075 516 
Q 1375 441 1709 441 
Q 2250 441 2565 725 
Q 2881 1009 2881 1497 
Q 2881 1984 2565 2268 
Q 2250 2553 1709 2553 
Q 1456 2553 1204 2497 
Q 953 2441 691 2322 
L 691 4666 
z
" id="DejaVuSans-35" transform="scale(0.015625)"/>
     </defs>
     <use xlink:href="#DejaVuSans-53"/>
     <use x="63.476562" xlink:href="#DejaVuSans-75"/>
     <use x="126.855469" xlink:href="#DejaVuSans-6e"/>
     <use x="190.234375" xlink:href="#DejaVuSans-64"/>
     <use x="253.710938" xlink:href="#DejaVuSans-61"/>
     <use x="314.990234" xlink:href="#DejaVuSans-6e"/>
     <use x="378.369141" xlink:href="#DejaVuSans-63"/>
     <use x="433.349609" xlink:href="#DejaVuSans-65"/>
     <use x="494.873047" xlink:href="#DejaVuSans-20"/>
     <use x="526.660156" xlink:href="#DejaVuSans-31"/>
     <use x="590.283203" xlink:href="#DejaVuSans-35"/>
     <use x="653.90625" xlink:href="#DejaVuSans-2e"/>
     <use x="685.693359" xlink:href="#DejaVuSans-33"/>
     <use x="749.316406" xlink:href="#DejaVuSans-b0"/>
    </g>
   </g>
   <g id="text_9">
    <g id="patch_46">
     <path d="M 45.873106 61.074449 
L 47.964004 38.784489 
L 45.997014 38.599977 
L 43.906116 60.889937 
z
" style="fill:#ffffff;"/>
    </g>
    <!-- Nashoba Glades 15.6 -->
    <g style="fill:#4169e1;" transform="translate(45.440942 61.013822)rotate(-84.641081)scale(0.02 -0.02)">
     <defs>
      <path d="M 3809 666 
L 3809 1919 
L 2778 1919 
L 2778 2438 
L 4434 2438 
L 4434 434 
Q 4069 175 3628 42 
Q 3188 -91 2688 -91 
Q 1594 -91 976 548 
Q 359 1188 359 2328 
Q 359 3472 976 4111 
Q 1594 4750 2688 4750 
Q 3144 4750 3555 4637 
Q 3966 4525 4313 4306 
L 4313 3634 
Q 3963 3931 3569 4081 
Q 3175 4231 2741 4231 
Q 1884 4231 1454 3753 
Q 1025 3275 1025 2328 
Q 1025 1384 1454 906 
Q 1884 428 2741 428 
Q 3075 428 3337 486 
Q 3600 544 3809 666 
z
" id="DejaVuSans-47" transform="scale(0.015625)"/>
     </defs>
     <use xlink:href="#DejaVuSans-4e"/>
     <use x="74.804688" xlink:href="#DejaVuSans-61"/>
     <use x="136.083984" xlink:href="#DejaVuSans-73"/>
     <use x="188.183594" xlink:href="#DejaVuSans-68"/>
     <use x="251.5625" xlink:href="#DejaVuSans-6f"/>
     <use x="312.744141" xlink:href="#DejaVuSans-62"/>
     <use x="376.220703" xlink:href="#DejaVuSans-61"/>
     <use x="437.5" xlink:href="#DejaVuSans-20"/>
     <use x="469.287109" xlink:href="#DejaVuSans-47"/>
     <use x="546.777344" xlink:href="#DejaVuSans-6c"/>
     <use x="574.560547" xlink:href="#DejaVuSans-61"/>
     <use x="635.839844" xlink:href="#DejaVuSans-64"/>
     <use x="699.316406" xlink:href="#DejaVuSans-65"/>
     <use x="760.839844" xlink:href="#DejaVuSans-73"/>
     <use x="812.939453" xlink:href="#DejaVuSans-20"/>
     <use x="844.726562" xlink:href="#DejaVuSans-31"/>
     <use x="908.349609" xlink:href="#DejaVuSans-35"/>
     <use x="971.972656" xlink:href="#DejaVuSans-2e"/>
     <use x="1003.759766" xlink:href="#DejaVuSans-36"/>
     <use x="1067.382812" xlink:href="#DejaVuSans-b0"/>
    </g>
   </g>
   <g id="text_10">
    <g id="patch_47">
     <path d="M 23.167517 72.085488 
L 43.427363 94.997532 
L 44.907372 93.688842 
L 24.647526 70.776799 
z
" style="fill:#ffffff;"/>
    </g>
    <!-- Snowboard Learning Area 6.9 -->
    <g style="fill:#008000;" transform="translate(23.507342 71.811698)rotate(-311.484541)scale(0.02 -0.02)">
     <defs>
      <path d="M 628 4666 
L 1259 4666 
L 1259 531 
L 3531 531 
L 3531 0 
L 628 0 
L 628 4666 
z
" id="DejaVuSans-4c" transform="scale(0.015625)"/>
      <path d="M 2906 1791 
Q 2906 2416 2648 2759 
Q 2391 3103 1925 3103 
Q 1463 3103 1205 2759 
Q 947 2416 947 1791 
Q 947 1169 1205 825 
Q 1463 481 1925 481 
Q 2391 481 2648 825 
Q 2906 1169 2906 1791 
z
M 3481 434 
Q 3481 -459 3084 -895 
Q 2688 -1331 1869 -1331 
Q 1566 -1331 1297 -1286 
Q 1028 -1241 775 -1147 
L 775 -588 
Q 1028 -725 1275 -790 
Q 1522 -856 1778 -856 
Q 2344 -856 2625 -561 
Q 2906 -266 2906 331 
L 2906 616 
Q 2728 306 2450 153 
Q 2172 0 1784 0 
Q 1141 0 747 490 
Q 353 981 353 1791 
Q 353 2603 747 3093 
Q 1141 3584 1784 3584 
Q 2172 3584 2450 3431 
Q 2728 3278 2906 2969 
L 2906 3500 
L 3481 3500 
L 3481 434 
z
" id="DejaVuSans-67" transform="scale(0.015625)"/>
      <path d="M 2188 4044 
L 1331 1722 
L 3047 1722 
L 2188 4044 
z
M 1831 4666 
L 2547 4666 
L 4325 0 
L 3669 0 
L 3244 1197 
L 1141 1197 
L 716 0 
L 50 0 
L 1831 4666 
z
" id="DejaVuSans-41" transform="scale(0.015625)"/>
      <path d="M 703 97 
L 703 672 
Q 941 559 1184 500 
Q 1428 441 1663 441 
Q 2288 441 2617 861 
Q 2947 1281 2994 2138 
Q 2813 1869 2534 1725 
Q 2256 1581 1919 1581 
Q 1219 1581 811 2004 
Q 403 2428 403 3163 
Q 403 3881 828 4315 
Q 1253 4750 1959 4750 
Q 2769 4750 3195 4129 
Q 3622 3509 3622 2328 
Q 3622 1225 3098 567 
Q 2575 -91 1691 -91 
Q 1453 -91 1209 -44 
Q 966 3 703 97 
z
M 1959 2075 
Q 2384 2075 2632 2365 
Q 2881 2656 2881 3163 
Q 2881 3666 2632 3958 
Q 2384 4250 1959 4250 
Q 1534 4250 1286 3958 
Q 1038 3666 1038 3163 
Q 1038 2656 1286 2365 
Q 1534 2075 1959 2075 
z
" id="DejaVuSans-39" transform="scale(0.015625)"/>
     </defs>
     <use xlink:href="#DejaVuSans-53"/>
     <use x="63.476562" xlink:href="#DejaVuSans-6e"/>
     <use x="126.855469" xlink:href="#DejaVuSans-6f"/>
     <use x="188.037109" xlink:href="#DejaVuSans-77"/>
     <use x="269.824219" xlink:href="#DejaVuSans-62"/>
     <use x="333.300781" xlink:href="#DejaVuSans-6f"/>
     <use x="394.482422" xlink:href="#DejaVuSans-61"/>
     <use x="455.761719" xlink:href="#DejaVuSans-72"/>
     <use x="495.125" xlink:href="#DejaVuSans-64"/>
     <use x="558.601562" xlink:href="#DejaVuSans-20"/>
     <use x="590.388672" xlink:href="#DejaVuSans-4c"/>
     <use x="644.351562" xlink:href="#DejaVuSans-65"/>
     <use x="705.875" xlink:href="#DejaVuSans-61"/>
     <use x="767.154297" xlink:href="#DejaVuSans-72"/>
     <use x="806.517578" xlink:href="#DejaVuSans-6e"/>
     <use x="869.896484" xlink:href="#DejaVuSans-69"/>
     <use x="897.679688" xlink:href="#DejaVuSans-6e"/>
     <use x="961.058594" xlink:href="#DejaVuSans-67"/>
     <use x="1024.535156" xlink:href="#DejaVuSans-20"/>
     <use x="1056.322266" xlink:href="#DejaVuSans-41"/>
     <use x="1124.730469" xlink:href="#DejaVuSans-72"/>
     <use x="1163.59375" xlink:href="#DejaVuSans-65"/>
     <use x="1225.117188" xlink:href="#DejaVuSans-61"/>
     <use x="1286.396484" xlink:href="#DejaVuSans-20"/>
     <use x="1318.183594" xlink:href="#DejaVuSans-36"/>
     <use x="1381.806641" xlink:href="#DejaVuSans-2e"/>
     <use x="1413.59375" xlink:href="#DejaVuSans-39"/>
     <use x="1477.216797" xlink:href="#DejaVuSans-b0"/>
    </g>
   </g>
   <g id="text_11">
    <g id="patch_48">
     <path d="M 34.365916 69.659462 
L 44.350575 51.112189 
L 42.611003 50.175716 
L 32.626344 68.722988 
z
" style="fill:#ffffff;"/>
    </g>
    <!-- Nashoba Slope 16.4 -->
    <g style="fill:#008000;" transform="translate(33.991546 69.435211)rotate(-61.704834)scale(0.02 -0.02)">
     <use xlink:href="#DejaVuSans-4e"/>
     <use x="74.804688" xlink:href="#DejaVuSans-61"/>
     <use x="136.083984" xlink:href="#DejaVuSans-73"/>
     <use x="188.183594" xlink:href="#DejaVuSans-68"/>
     <use x="251.5625" xlink:href="#DejaVuSans-6f"/>
     <use x="312.744141" xlink:href="#DejaVuSans-62"/>
     <use x="376.220703" xlink:href="#DejaVuSans-61"/>
     <use x="437.5" xlink:href="#DejaVuSans-20"/>
     <use x="469.287109" xlink:href="#DejaVuSans-53"/>
     <use x="532.763672" xlink:href="#DejaVuSans-6c"/>
     <use x="560.546875" xlink:href="#DejaVuSans-6f"/>
     <use x="621.728516" xlink:href="#DejaVuSans-70"/>
     <use x="685.205078" xlink:href="#DejaVuSans-65"/>
     <use x="746.728516" xlink:href="#DejaVuSans-20"/>
     <use x="778.515625" xlink:href="#DejaVuSans-31"/>
     <use x="842.138672" xlink:href="#DejaVuSans-36"/>
     <use x="905.761719" xlink:href="#DejaVuSans-2e"/>
     <use x="937.548828" xlink:href="#DejaVuSans-34"/>
     <use x="1001.171875" xlink:href="#DejaVuSans-b0"/>
    </g>
   </g>
   <g id="text_12">
    <g id="patch_49">
     <path d="M 13.662725 59.886124 
L 20.131724 66.946199 
L 21.588345 65.611527 
L 15.119346 58.551452 
z
" style="fill:#ffffff;"/>
    </g>
    <!-- Wow 8.0 -->
    <g style="fill:#008000;" transform="translate(13.997652 59.606364)rotate(-312.498377)scale(0.02 -0.02)">
     <defs>
      <path d="M 2034 2216 
Q 1584 2216 1326 1975 
Q 1069 1734 1069 1313 
Q 1069 891 1326 650 
Q 1584 409 2034 409 
Q 2484 409 2743 651 
Q 3003 894 3003 1313 
Q 3003 1734 2745 1975 
Q 2488 2216 2034 2216 
z
M 1403 2484 
Q 997 2584 770 2862 
Q 544 3141 544 3541 
Q 544 4100 942 4425 
Q 1341 4750 2034 4750 
Q 2731 4750 3128 4425 
Q 3525 4100 3525 3541 
Q 3525 3141 3298 2862 
Q 3072 2584 2669 2484 
Q 3125 2378 3379 2068 
Q 3634 1759 3634 1313 
Q 3634 634 3220 271 
Q 2806 -91 2034 -91 
Q 1263 -91 848 271 
Q 434 634 434 1313 
Q 434 1759 690 2068 
Q 947 2378 1403 2484 
z
M 1172 3481 
Q 1172 3119 1398 2916 
Q 1625 2713 2034 2713 
Q 2441 2713 2670 2916 
Q 2900 3119 2900 3481 
Q 2900 3844 2670 4047 
Q 2441 4250 2034 4250 
Q 1625 4250 1398 4047 
Q 1172 3844 1172 3481 
z
" id="DejaVuSans-38" transform="scale(0.015625)"/>
      <path d="M 2034 4250 
Q 1547 4250 1301 3770 
Q 1056 3291 1056 2328 
Q 1056 1369 1301 889 
Q 1547 409 2034 409 
Q 2525 409 2770 889 
Q 3016 1369 3016 2328 
Q 3016 3291 2770 3770 
Q 2525 4250 2034 4250 
z
M 2034 4750 
Q 2819 4750 3233 4129 
Q 3647 3509 3647 2328 
Q 3647 1150 3233 529 
Q 2819 -91 2034 -91 
Q 1250 -91 836 529 
Q 422 1150 422 2328 
Q 422 3509 836 4129 
Q 1250 4750 2034 4750 
z
" id="DejaVuSans-30" transform="scale(0.015625)"/>
     </defs>
     <use xlink:href="#DejaVuSans-57"/>
     <use x="93.001953" xlink:href="#DejaVuSans-6f"/>
     <use x="154.183594" xlink:href="#DejaVuSans-77"/>
     <use x="235.970703" xlink:href="#DejaVuSans-20"/>
     <use x="267.757812" xlink:href="#DejaVuSans-38"/>
     <use x="331.380859" xlink:href="#DejaVuSans-2e"/>
     <use x="363.167969" xlink:href="#DejaVuSans-30"/>
     <use x="426.791016" xlink:href="#DejaVuSans-b0"/>
    </g>
   </g>
   <g id="text_13">
    <g id="patch_50">
     <path d="M 34.673533 43.06294 
L 43.346558 31.59598 
L 41.770873 30.404213 
L 33.097848 41.871172 
z
" style="fill:#ffffff;"/>
    </g>
    <!-- Dog Leg 22.1 -->
    <g style="fill:#4169e1;" transform="translate(34.33791 42.784015)rotate(-52.897994)scale(0.02 -0.02)">
     <use xlink:href="#DejaVuSans-44"/>
     <use x="77.001953" xlink:href="#DejaVuSans-6f"/>
     <use x="138.183594" xlink:href="#DejaVuSans-67"/>
     <use x="201.660156" xlink:href="#DejaVuSans-20"/>
     <use x="233.447266" xlink:href="#DejaVuSans-4c"/>
     <use x="287.410156" xlink:href="#DejaVuSans-65"/>
     <use x="348.933594" xlink:href="#DejaVuSans-67"/>
     <use x="412.410156" xlink:href="#DejaVuSans-20"/>
     <use x="444.197266" xlink:href="#DejaVuSans-32"/>
     <use x="507.820312" xlink:href="#DejaVuSans-32"/>
     <use x="571.443359" xlink:href="#DejaVuSans-2e"/>
     <use x="603.230469" xlink:href="#DejaVuSans-31"/>
     <use x="666.853516" xlink:href="#DejaVuSans-b0"/>
    </g>
   </g>
   <g id="text_14">
    <g id="patch_51">
     <path d="M 27.023776 37.085984 
L 40.970319 29.072799 
L 39.986088 27.359795 
L 26.039545 35.372979 
z
" style="fill:#ffffff;"/>
    </g>
    <!-- Wardance 22.1 -->
    <g style="fill:#4169e1;" transform="translate(26.823939 36.698032)rotate(-29.880135)scale(0.02 -0.02)">
     <use xlink:href="#DejaVuSans-57"/>
     <use x="92.501953" xlink:href="#DejaVuSans-61"/>
     <use x="153.78125" xlink:href="#DejaVuSans-72"/>
     <use x="193.144531" xlink:href="#DejaVuSans-64"/>
     <use x="256.621094" xlink:href="#DejaVuSans-61"/>
     <use x="317.900391" xlink:href="#DejaVuSans-6e"/>
     <use x="381.279297" xlink:href="#DejaVuSans-63"/>
     <use x="436.259766" xlink:href="#DejaVuSans-65"/>
     <use x="497.783203" xlink:href="#DejaVuSans-20"/>
     <use x="529.570312" xlink:href="#DejaVuSans-32"/>
     <use x="593.193359" xlink:href="#DejaVuSans-32"/>
     <use x="656.816406" xlink:href="#DejaVuSans-2e"/>
     <use x="688.603516" xlink:href="#DejaVuSans-31"/>
     <use x="752.226562" xlink:href="#DejaVuSans-b0"/>
    </g>
   </g>
   <g id="text_15">
    <g id="patch_52">
     <path d="M 25.699155 35.245104 
L 39.300849 30.671658 
L 38.671204 28.799056 
L 25.069509 33.372501 
z
" style="fill:#ffffff;"/>
    </g>
    <!-- Bull Run 21.2 -->
    <g style="fill:#4169e1;" transform="translate(25.579175 34.825525)rotate(-18.584748)scale(0.02 -0.02)">
     <defs>
      <path d="M 1259 2228 
L 1259 519 
L 2272 519 
Q 2781 519 3026 730 
Q 3272 941 3272 1375 
Q 3272 1813 3026 2020 
Q 2781 2228 2272 2228 
L 1259 2228 
z
M 1259 4147 
L 1259 2741 
L 2194 2741 
Q 2656 2741 2882 2914 
Q 3109 3088 3109 3444 
Q 3109 3797 2882 3972 
Q 2656 4147 2194 4147 
L 1259 4147 
z
M 628 4666 
L 2241 4666 
Q 2963 4666 3353 4366 
Q 3744 4066 3744 3513 
Q 3744 3084 3544 2831 
Q 3344 2578 2956 2516 
Q 3422 2416 3680 2098 
Q 3938 1781 3938 1306 
Q 3938 681 3513 340 
Q 3088 0 2303 0 
L 628 0 
L 628 4666 
z
" id="DejaVuSans-42" transform="scale(0.015625)"/>
     </defs>
     <use xlink:href="#DejaVuSans-42"/>
     <use x="68.603516" xlink:href="#DejaVuSans-75"/>
     <use x="131.982422" xlink:href="#DejaVuSans-6c"/>
     <use x="159.765625" xlink:href="#DejaVuSans-6c"/>
     <use x="187.548828" xlink:href="#DejaVuSans-20"/>
     <use x="219.335938" xlink:href="#DejaVuSans-52"/>
     <use x="284.318359" xlink:href="#DejaVuSans-75"/>
     <use x="347.697266" xlink:href="#DejaVuSans-6e"/>
     <use x="411.076172" xlink:href="#DejaVuSans-20"/>
     <use x="442.863281" xlink:href="#DejaVuSans-32"/>
     <use x="506.486328" xlink:href="#DejaVuSans-31"/>
     <use x="570.109375" xlink:href="#DejaVuSans-2e"/>
     <use x="601.896484" xlink:href="#DejaVuSans-32"/>
     <use x="665.519531" xlink:href="#DejaVuSans-b0"/>
    </g>
   </g>
   <g id="text_16">
    <g id="patch_53">
     <path d="M 26.370883 27.051825 
L 37.204012 23.897112 
L 36.651636 22.000279 
L 25.818506 25.154993 
z
" style="fill:#ffffff;"/>
    </g>
    <!-- Chief 20.7 -->
    <g style="fill:#4169e1;" transform="translate(26.268199 26.627682)rotate(-16.236076)scale(0.02 -0.02)">
     <use xlink:href="#DejaVuSans-43"/>
     <use x="69.824219" xlink:href="#DejaVuSans-68"/>
     <use x="133.203125" xlink:href="#DejaVuSans-69"/>
     <use x="160.986328" xlink:href="#DejaVuSans-65"/>
     <use x="222.509766" xlink:href="#DejaVuSans-66"/>
     <use x="257.714844" xlink:href="#DejaVuSans-20"/>
     <use x="289.501953" xlink:href="#DejaVuSans-32"/>
     <use x="353.125" xlink:href="#DejaVuSans-30"/>
     <use x="416.748047" xlink:href="#DejaVuSans-2e"/>
     <use x="448.535156" xlink:href="#DejaVuSans-37"/>
     <use x="512.158203" xlink:href="#DejaVuSans-b0"/>
    </g>
   </g>
   <g id="text_17">
    <g id="patch_54">
     <path d="M 11.180311 32.867235 
L 24.060592 29.116372 
L 23.508215 27.219539 
L 10.627935 30.970403 
z
" style="fill:#ffffff;"/>
    </g>
    <!-- Warrior 20.6 -->
    <g style="fill:#4169e1;" transform="translate(11.077627 32.443092)rotate(-16.236076)scale(0.02 -0.02)">
     <use xlink:href="#DejaVuSans-57"/>
     <use x="92.501953" xlink:href="#DejaVuSans-61"/>
     <use x="153.78125" xlink:href="#DejaVuSans-72"/>
     <use x="193.144531" xlink:href="#DejaVuSans-72"/>
     <use x="234.257812" xlink:href="#DejaVuSans-69"/>
     <use x="262.041016" xlink:href="#DejaVuSans-6f"/>
     <use x="323.222656" xlink:href="#DejaVuSans-72"/>
     <use x="364.335938" xlink:href="#DejaVuSans-20"/>
     <use x="396.123047" xlink:href="#DejaVuSans-32"/>
     <use x="459.746094" xlink:href="#DejaVuSans-30"/>
     <use x="523.369141" xlink:href="#DejaVuSans-2e"/>
     <use x="555.15625" xlink:href="#DejaVuSans-36"/>
     <use x="618.779297" xlink:href="#DejaVuSans-b0"/>
    </g>
   </g>
   <g id="text_18">
    <g id="patch_55">
     <path d="M 12.928006 22.298364 
L 22.791017 17.59906 
L 21.941242 15.815531 
L 12.078231 20.514835 
z
" style="fill:#ffffff;"/>
    </g>
    <!-- Lobo 19.6 -->
    <g style="fill:#4169e1;" transform="translate(12.758552 21.896212)rotate(-25.47581)scale(0.02 -0.02)">
     <use xlink:href="#DejaVuSans-4c"/>
     <use x="53.962891" xlink:href="#DejaVuSans-6f"/>
     <use x="115.144531" xlink:href="#DejaVuSans-62"/>
     <use x="178.621094" xlink:href="#DejaVuSans-6f"/>
     <use x="239.802734" xlink:href="#DejaVuSans-20"/>
     <use x="271.589844" xlink:href="#DejaVuSans-31"/>
     <use x="335.212891" xlink:href="#DejaVuSans-39"/>
     <use x="398.835938" xlink:href="#DejaVuSans-2e"/>
     <use x="430.623047" xlink:href="#DejaVuSans-36"/>
     <use x="494.246094" xlink:href="#DejaVuSans-b0"/>
    </g>
   </g>
   <g id="text_19">
    <!-- Nashoba Valley -->
    <g transform="translate(13.81724 5.289948)scale(0.05 -0.05)">
     <defs>
      <path d="M 1831 0 
L 50 4666 
L 709 4666 
L 2188 738 
L 3669 4666 
L 4325 4666 
L 2547 0 
L 1831 0 
z
" id="DejaVuSans-56" transform="scale(0.015625)"/>
      <path d="M 2059 -325 
Q 1816 -950 1584 -1140 
Q 1353 -1331 966 -1331 
L 506 -1331 
L 506 -850 
L 844 -850 
Q 1081 -850 1212 -737 
Q 1344 -625 1503 -206 
L 1606 56 
L 191 3500 
L 800 3500 
L 1894 763 
L 2988 3500 
L 3597 3500 
L 2059 -325 
z
" id="DejaVuSans-79" transform="scale(0.015625)"/>
     </defs>
     <use xlink:href="#DejaVuSans-4e"/>
     <use x="74.804688" xlink:href="#DejaVuSans-61"/>
     <use x="136.083984" xlink:href="#DejaVuSans-73"/>
     <use x="188.183594" xlink:href="#DejaVuSans-68"/>
     <use x="251.5625" xlink:href="#DejaVuSans-6f"/>
     <use x="312.744141" xlink:href="#DejaVuSans-62"/>
     <use x="376.220703" xlink:href="#DejaVuSans-61"/>
     <use x="437.5" xlink:href="#DejaVuSans-20"/>
     <use x="469.287109" xlink:href="#DejaVuSans-56"/>
     <use x="529.945312" xlink:href="#DejaVuSans-61"/>
     <use x="591.224609" xlink:href="#DejaVuSans-6c"/>
     <use x="619.007812" xlink:href="#DejaVuSans-6c"/>
     <use x="646.791016" xlink:href="#DejaVuSans-65"/>
     <use x="708.314453" xlink:href="#DejaVuSans-79"/>
    </g>
   </g>
  </g>
  <g id="text_20">
   <!-- Sources: USGS and OpenStreetMaps -->
   <g transform="translate(13.174798 94.620014)scale(0.021739 -0.021739)">
    <defs>
     <path d="M 750 794 
L 1409 794 
L 1409 0 
L 750 0 
L 750 794 
z
M 750 3309 
L 1409 3309 
L 1409 2516 
L 750 2516 
L 750 3309 
z
" id="DejaVuSans-3a" transform="scale(0.015625)"/>
     <path d="M 556 4666 
L 1191 4666 
L 1191 1831 
Q 1191 1081 1462 751 
Q 1734 422 2344 422 
Q 2950 422 3222 751 
Q 3494 1081 3494 1831 
L 3494 4666 
L 4128 4666 
L 4128 1753 
Q 4128 841 3676 375 
Q 3225 -91 2344 -91 
Q 1459 -91 1007 375 
Q 556 841 556 1753 
L 556 4666 
z
" id="DejaVuSans-55" transform="scale(0.015625)"/>
     <path d="M 2522 4238 
Q 1834 4238 1429 3725 
Q 1025 3213 1025 2328 
Q 1025 1447 1429 934 
Q 1834 422 2522 422 
Q 3209 422 3611 934 
Q 4013 1447 4013 2328 
Q 4013 3213 3611 3725 
Q 3209 4238 2522 4238 
z
M 2522 4750 
Q 3503 4750 4090 4092 
Q 4678 3434 4678 2328 
Q 4678 1225 4090 567 
Q 3503 -91 2522 -91 
Q 1538 -91 948 565 
Q 359 1222 359 2328 
Q 359 3434 948 4092 
Q 1538 4750 2522 4750 
z
" id="DejaVuSans-4f" transform="scale(0.015625)"/>
     <path d="M 1172 4494 
L 1172 3500 
L 2356 3500 
L 2356 3053 
L 1172 3053 
L 1172 1153 
Q 1172 725 1289 603 
Q 1406 481 1766 481 
L 2356 481 
L 2356 0 
L 1766 0 
Q 1100 0 847 248 
Q 594 497 594 1153 
L 594 3053 
L 172 3053 
L 172 3500 
L 594 3500 
L 594 4494 
L 1172 4494 
z
" id="DejaVuSans-74" transform="scale(0.015625)"/>
     <path d="M 628 4666 
L 1569 4666 
L 2759 1491 
L 3956 4666 
L 4897 4666 
L 4897 0 
L 4281 0 
L 4281 4097 
L 3078 897 
L 2444 897 
L 1241 4097 
L 1241 0 
L 628 0 
L 628 4666 
z
" id="DejaVuSans-4d" transform="scale(0.015625)"/>
    </defs>
    <use xlink:href="#DejaVuSans-53"/>
    <use x="63.476562" xlink:href="#DejaVuSans-6f"/>
    <use x="124.658203" xlink:href="#DejaVuSans-75"/>
    <use x="188.037109" xlink:href="#DejaVuSans-72"/>
    <use x="226.900391" xlink:href="#DejaVuSans-63"/>
    <use x="281.880859" xlink:href="#DejaVuSans-65"/>
    <use x="343.404297" xlink:href="#DejaVuSans-73"/>
    <use x="395.503906" xlink:href="#DejaVuSans-3a"/>
    <use x="429.195312" xlink:href="#DejaVuSans-20"/>
    <use x="460.982422" xlink:href="#DejaVuSans-55"/>
    <use x="534.175781" xlink:href="#DejaVuSans-53"/>
    <use x="597.652344" xlink:href="#DejaVuSans-47"/>
    <use x="675.142578" xlink:href="#DejaVuSans-53"/>
    <use x="738.619141" xlink:href="#DejaVuSans-20"/>
    <use x="770.40625" xlink:href="#DejaVuSans-61"/>
    <use x="831.685547" xlink:href="#DejaVuSans-6e"/>
    <use x="895.064453" xlink:href="#DejaVuSans-64"/>
    <use x="958.541016" xlink:href="#DejaVuSans-20"/>
    <use x="990.328125" xlink:href="#DejaVuSans-4f"/>
    <use x="1069.039062" xlink:href="#DejaVuSans-70"/>
    <use x="1132.515625" xlink:href="#DejaVuSans-65"/>
    <use x="1194.039062" xlink:href="#DejaVuSans-6e"/>
    <use x="1257.417969" xlink:href="#DejaVuSans-53"/>
    <use x="1320.894531" xlink:href="#DejaVuSans-74"/>
    <use x="1360.103516" xlink:href="#DejaVuSans-72"/>
    <use x="1398.966797" xlink:href="#DejaVuSans-65"/>
    <use x="1460.490234" xlink:href="#DejaVuSans-65"/>
    <use x="1522.013672" xlink:href="#DejaVuSans-74"/>
    <use x="1561.222656" xlink:href="#DejaVuSans-4d"/>
    <use x="1647.501953" xlink:href="#DejaVuSans-61"/>
    <use x="1708.78125" xlink:href="#DejaVuSans-70"/>
    <use x="1772.257812" xlink:href="#DejaVuSans-73"/>
   </g>
  </g>
 </g>
 <defs>
  <clipPath id="p81e7677cc0">
   <rect height="79.492223" width="66.010262" x="0" y="7.789948"/>
  </clipPath>
 </defs>
</svg>
