<?xml version="1.0" encoding="utf-8" standalone="no"?>
<!DOCTYPE svg PUBLIC "-//W3C//DTD SVG 1.1//EN"
  "http://www.w3.org/Graphics/SVG/1.1/DTD/svg11.dtd">
<svg height="77.111865pt" version="1.1" viewBox="0 0 63.244559 77.111865" width="63.244559pt" xmlns="http://www.w3.org/2000/svg" xmlns:xlink="http://www.w3.org/1999/xlink">
 <metadata>
  <rdf:RDF xmlns:cc="http://creativecommons.org/ns#" xmlns:dc="http://purl.org/dc/elements/1.1/" xmlns:rdf="http://www.w3.org/1999/02/22-rdf-syntax-ns#">
   <cc:Work>
    <dc:type rdf:resource="http://purl.org/dc/dcmitype/StillImage"/>
    <dc:date>2022-04-14T21:31:05.018441</dc:date>
    <dc:format>image/svg+xml</dc:format>
    <dc:creator>
     <cc:Agent>
      <dc:title>Matplotlib v3.4.3, https://matplotlib.org/</dc:title>
     </cc:Agent>
    </dc:creator>
   </cc:Work>
  </rdf:RDF>
 </metadata>
 <defs>
  <style type="text/css">*{stroke-linecap:butt;stroke-linejoin:round;}</style>
 </defs>
 <g id="figure_1">
  <g id="patch_1">
   <path d="M 0 77.111865 
L 63.244559 77.111865 
L 63.244559 0 
L 0 0 
z
" style="fill:#ffffff;"/>
  </g>
  <g id="axes_1">
   <g id="patch_2">
    <path clip-path="url(#p1c817ded87)" d="M 10.160254 26.451284 
L 10.160254 26.451284 
L 9.355283 27.817575 
L 9.303607 29.058266 
L 9.251932 30.298957 
L 9.588186 31.445702 
L 9.92444 32.592448 
L 11.851713 32.323886 
L 13.42381 31.575387 
L 14.995906 30.826888 
L 14.760092 29.100133 
L 13.659624 27.756306 
z
" style="fill:#4169e1;opacity:0.1;"/>
   </g>
   <g id="patch_3">
    <path clip-path="url(#p1c817ded87)" d="M 10.160254 26.451284 
L 10.160254 26.451284 
L 9.355283 27.817575 
L 9.303607 29.058266 
L 9.251932 30.298957 
L 9.588186 31.445702 
L 9.92444 32.592448 
L 11.851713 32.323886 
L 13.42381 31.575387 
L 14.995906 30.826888 
L 14.760092 29.100133 
L 13.659624 27.756306 
z
" style="fill:none;stroke:#4169e1;stroke-dasharray:3.7,1.6;stroke-dashoffset:0;stroke-linejoin:miter;"/>
   </g>
   <g id="line2d_1">
    <path clip-path="url(#p1c817ded87)" d="M 49.935745 57.674824 
L 47.188034 54.458601 
L 44.440323 51.242378 
L 41.692612 48.026155 
L 38.9449 44.809933 
L 36.197189 41.59371 
L 33.449478 38.377487 
L 30.701766 35.161265 
L 27.954055 31.945042 
L 24.546391 27.316193 
L 21.138727 22.687344 
L 17.731062 18.058496 
L 14.323398 13.429647 
" style="fill:none;stroke:#808080;stroke-linecap:square;stroke-width:1.5;"/>
   </g>
   <g id="line2d_2">
    <path clip-path="url(#p1c817ded87)" d="M 48.969197 58.058774 
L 45.637227 54.054611 
L 42.305256 50.050447 
L 38.973285 46.046284 
L 35.641315 42.04212 
L 32.639775 38.851043 
L 29.638236 35.659966 
L 27.436573 33.071875 
L 25.234911 30.483784 
" style="fill:none;stroke:#808080;stroke-linecap:square;stroke-width:1.5;"/>
   </g>
   <g id="line2d_3">
    <path clip-path="url(#p1c817ded87)" d="M 41.909321 66.38723 
L 36.594034 63.904827 
L 31.278747 61.422424 
" style="fill:none;stroke:#808080;stroke-linecap:square;stroke-width:1.5;"/>
   </g>
   <g id="line2d_4">
    <path clip-path="url(#p1c817ded87)" d="M 44.938517 28.002402 
L 46.040804 28.264071 
L 47.143091 28.525739 
L 48.245378 28.787407 
L 49.347665 29.049076 
L 50.479429 29.950746 
L 51.611192 30.852417 
L 52.490038 31.579727 
L 53.368883 32.307038 
L 54.247729 33.034348 
L 55.126574 33.761658 
L 55.871501 34.765188 
L 56.616427 35.768718 
L 57.361353 36.772248 
L 58.106279 37.775778 
L 59.058998 39.113477 
L 60.011718 40.451177 
L 60.190762 41.9349 
L 60.369807 43.418623 
" style="fill:none;stroke:#4169e1;stroke-linecap:square;stroke-width:1.5;"/>
   </g>
   <g id="line2d_5">
    <path clip-path="url(#p1c817ded87)" d="M 44.938517 28.002402 
L 45.266401 28.933176 
L 45.594285 29.863949 
L 45.922169 30.794722 
L 46.250053 31.725496 
L 46.979695 32.903386 
L 47.709337 34.081276 
L 48.438979 35.259167 
L 49.168621 36.437057 
L 50.002705 37.920525 
L 50.836789 39.403993 
L 51.670874 40.887461 
L 52.504958 42.370929 
L 53.309202 43.549074 
L 54.113446 44.72722 
L 54.917689 45.905366 
L 55.721933 47.083511 
L 55.899522 48.071979 
L 56.139703 49.409679 
" style="fill:none;stroke:#4169e1;stroke-linecap:square;stroke-width:1.5;"/>
   </g>
   <g id="line2d_6">
    <path clip-path="url(#p1c817ded87)" d="M 15.029386 13.865676 
L 16.086912 14.309363 
L 17.144438 14.75305 
L 18.201963 15.196738 
L 19.259489 15.640425 
L 20.317015 15.880394 
L 21.374541 16.120363 
L 22.432067 16.360332 
L 23.489593 16.600301 
L 24.849529 16.971487 
L 26.209465 17.342673 
L 27.569401 17.713859 
L 28.929337 18.085045 
L 30.520357 18.520053 
L 31.741642 19.59634 
L 32.962928 20.672626 
L 34.601256 21.399681 
L 36.239585 22.126736 
L 37.356792 22.723084 
L 38.473999 23.319433 
L 39.591206 23.915781 
L 40.708414 24.51213 
L 41.76594 25.384698 
L 42.823465 26.257266 
L 43.880991 27.129834 
L 44.938517 28.002402 
" style="fill:none;stroke:#008000;stroke-linecap:square;stroke-width:1.5;"/>
   </g>
   <g id="line2d_7">
    <path clip-path="url(#p1c817ded87)" d="M 15.029386 13.865676 
L 16.310353 13.255031 
L 17.59132 12.644387 
L 19.050968 12.164449 
L 20.510616 11.684511 
L 21.970264 11.204573 
L 23.429911 10.724635 
L 24.502721 10.957456 
L 25.575532 11.190277 
L 26.528251 11.742716 
L 27.48097 12.295155 
L 28.106898 13.051313 
L 28.732825 13.80747 
L 28.80124 15.286088 
L 28.869656 16.764705 
L 28.929337 18.085045 
" style="fill:none;stroke:#008000;stroke-linecap:square;stroke-width:1.5;"/>
   </g>
   <g id="line2d_8">
    <path clip-path="url(#p1c817ded87)" d="M 15.029386 13.865676 
L 15.727004 14.682081 
L 16.424621 15.498486 
L 17.122239 16.314891 
L 17.819857 17.131296 
L 18.517474 17.947701 
L 19.215092 18.764107 
L 19.91271 19.580512 
L 20.610328 20.396917 
L 21.537255 21.481628 
L 22.464182 22.566339 
L 23.391109 23.65105 
L 24.318037 24.735761 
L 25.244964 25.820471 
L 26.171891 26.905182 
L 27.098818 27.989893 
L 28.025745 29.074604 
L 28.952673 30.159315 
L 29.8796 31.244026 
L 30.806527 32.328737 
L 31.733454 33.413448 
L 32.660382 34.498159 
L 33.587309 35.58287 
L 34.514236 36.667581 
L 35.441163 37.752291 
L 36.368091 38.837002 
L 37.295018 39.921713 
L 38.221945 41.006424 
L 39.148872 42.091135 
L 40.0758 43.175846 
L 41.002727 44.260557 
L 41.929654 45.345268 
L 42.856581 46.429979 
L 43.783509 47.51469 
L 44.710436 48.599401 
L 45.637363 49.684111 
L 46.56429 50.768822 
L 47.491218 51.853533 
L 48.418145 52.938244 
L 49.345072 54.022955 
L 50.271999 55.107666 
L 50.747995 55.66419 
" style="fill:none;stroke:#4169e1;stroke-linecap:square;stroke-width:1.5;"/>
   </g>
   <g id="line2d_9">
    <path clip-path="url(#p1c817ded87)" d="M 15.029386 13.865676 
L 14.314664 14.680549 
L 13.837213 15.262602 
L 12.73529 15.902349 
L 11.633367 16.542096 
L 10.452839 16.686077 
L 9.374206 16.817805 
L 8.295574 16.949533 
L 7.343582 16.600301 
L 5.943252 17.822101 
L 4.542922 19.0439 
L 3.797631 20.294292 
L 3.052341 21.544684 
L 2.963547 22.766483 
L 2.874753 23.988283 
L 3.053069 25.704316 
L 3.231386 27.42035 
L 3.976676 28.613047 
L 4.721966 29.805744 
L 5.734367 30.823825 
L 6.746768 31.841906 
L 7.819578 32.33614 
L 8.892388 32.830374 
L 10.560557 33.1214 
L 11.632639 33.092298 
L 12.704721 33.063195 
L 14.000609 33.034093 
L 15.296497 33.00499 
L 16.592384 32.975887 
L 17.888272 32.946785 
" style="fill:none;stroke:#008000;stroke-linecap:square;stroke-width:1.5;"/>
   </g>
   <g id="line2d_10">
    <path clip-path="url(#p1c817ded87)" d="M 15.029386 13.865676 
L 14.820865 14.91286 
L 14.612344 15.960043 
L 14.403823 17.007227 
L 14.195301 18.054411 
L 14.195301 19.421469 
L 14.195301 20.788526 
L 14.195301 22.155583 
L 14.195301 23.522641 
L 14.323398 24.866467 
L 14.451495 26.210293 
L 14.611616 27.885992 
L 15.43078 29.15119 
L 16.249944 30.416388 
L 17.069108 31.681586 
L 17.888272 32.946785 
L 19.363204 32.844926 
L 20.838136 32.743066 
L 22.313068 32.641207 
L 23.788 32.539348 
" style="fill:none;stroke:#4169e1;stroke-linecap:square;stroke-width:1.5;"/>
   </g>
   <g id="line2d_11">
    <path clip-path="url(#p1c817ded87)" d="M 20.610328 20.396917 
L 20.744975 21.522729 
L 20.879622 22.648541 
L 21.023003 23.841748 
L 21.166384 25.034956 
L 21.721348 26.623857 
L 22.276313 28.212758 
L 22.831277 29.801659 
L 23.386242 31.39056 
L 23.788 32.539348 
" style="fill:none;stroke:#4169e1;stroke-linecap:square;stroke-width:1.5;"/>
   </g>
   <g id="line2d_12">
    <path clip-path="url(#p1c817ded87)" d="M 23.788 32.539348 
L 24.7036 33.590872 
L 25.619201 34.642395 
L 26.534801 35.693919 
L 27.450402 36.745443 
L 28.365093 37.795882 
L 29.279783 38.84632 
L 30.194474 39.896759 
L 31.109165 40.947198 
L 32.023856 41.997637 
L 32.938546 43.048075 
L 33.853237 44.098514 
L 34.767928 45.148953 
L 35.682619 46.199391 
L 36.597309 47.24983 
L 37.512 48.300269 
L 38.426691 49.350708 
L 39.341381 50.401146 
L 40.256072 51.451585 
L 41.170763 52.502024 
L 42.085454 53.552463 
L 43.394442 54.974662 
L 44.703431 56.396861 
L 46.012419 57.81906 
L 47.321408 59.24126 
" style="fill:none;stroke:#4169e1;stroke-linecap:square;stroke-width:1.5;"/>
   </g>
   <g id="line2d_13">
    <path clip-path="url(#p1c817ded87)" d="M 27.450402 36.745443 
L 27.100683 37.919249 
L 26.750965 39.093054 
L 26.401246 40.26686 
L 26.051527 41.440666 
L 25.785144 42.741604 
L 25.518761 44.042542 
L 25.308421 45.068282 
L 25.09808 46.094022 
L 26.349207 47.51954 
L 27.600333 48.945058 
L 28.419497 49.904934 
L 29.238661 50.86481 
L 30.057825 51.824686 
L 30.87699 52.784562 
L 31.979276 53.279051 
L 33.081563 53.77354 
L 34.18385 54.26803 
L 35.286137 54.762519 
L 36.985966 54.460005 
L 38.685795 54.157491 
L 40.385625 53.854977 
L 42.085454 53.552463 
" style="fill:none;stroke:#4169e1;stroke-linecap:square;stroke-width:1.5;"/>
   </g>
   <g id="line2d_14">
    <path clip-path="url(#p1c817ded87)" d="M 25.09808 46.094022 
L 24.661387 47.429679 
L 24.204314 48.828647 
L 24.025998 49.875831 
L 23.847681 50.923015 
L 24.44304 52.668151 
L 25.217443 53.278796 
L 25.991846 53.88944 
L 27.392176 54.32598 
L 28.792506 54.762519 
L 30.158629 54.762519 
L 31.524751 54.762519 
L 32.890874 54.762519 
L 34.256996 54.762519 
L 35.286137 54.762519 
" style="fill:none;stroke:#000000;stroke-linecap:square;stroke-width:1.5;"/>
   </g>
   <g id="line2d_15">
    <path clip-path="url(#p1c817ded87)" d="M 31.494183 60.136803 
L 32.832102 60.686562 
L 34.170022 61.236321 
L 35.507941 61.78608 
L 36.845861 62.335838 
L 38.18378 62.885597 
L 39.521699 63.435356 
L 40.859619 63.985115 
L 42.197538 64.534873 
" style="fill:none;stroke:#008000;stroke-linecap:square;stroke-width:1.5;"/>
   </g>
   <g id="line2d_16">
    <path clip-path="url(#p1c817ded87)" d="M 60.369807 43.418623 
L 59.77372 44.72722 
L 59.177634 46.035817 
L 58.418151 46.879282 
L 57.658668 47.722748 
L 56.899186 48.566213 
L 56.139703 49.409679 
" style="fill:none;stroke:#008000;stroke-linecap:square;stroke-width:1.5;"/>
   </g>
   <g id="line2d_17">
    <path clip-path="url(#p1c817ded87)" d="M 56.139703 49.409679 
L 55.54398 50.238848 
L 54.948258 51.068018 
L 54.352535 51.897187 
L 53.756813 52.726357 
L 53.004608 53.460815 
L 52.252404 54.195273 
L 51.5002 54.929731 
L 50.747995 55.66419 
L 49.883342 56.507655 
" style="fill:none;stroke:#008000;stroke-linecap:square;stroke-width:1.5;"/>
   </g>
   <g id="line2d_18">
    <path clip-path="url(#p1c817ded87)" d="M 42.197538 64.534873 
L 42.924633 63.784332 
L 43.651727 63.033791 
L 43.698308 62.985797 
L 44.604083 62.049663 
L 45.509858 61.113528 
L 46.415633 60.177394 
L 47.321408 59.24126 
" style="fill:none;stroke:#008000;stroke-linecap:square;stroke-width:1.5;"/>
   </g>
   <g id="line2d_19">
    <path clip-path="url(#p1c817ded87)" d="M 10.452839 16.686077 
L 10.580936 17.319187 
L 10.783998 18.335226 
L 10.987061 19.351265 
L 11.242526 20.31063 
L 11.497992 21.269996 
L 11.753457 22.229361 
L 12.008923 23.188726 
L 12.769497 24.129711 
L 13.530072 25.070696 
L 14.451495 26.210293 
" style="fill:none;stroke:#008000;stroke-linecap:square;stroke-width:1.5;"/>
   </g>
   <g id="text_1">
    <g id="patch_4">
     <path d="M 38.555957 44.714014 
L 43.134671 52.353896 
L 44.829266 51.338297 
L 40.250552 43.698414 
z
" style="fill:#ffffff;"/>
    </g>
    <!-- T-Bar Lift -->
    <g style="fill:#808080;" transform="translate(38.940164 44.507069)rotate(-300.93499)scale(0.02 -0.02)">
     <defs>
      <path d="M -19 4666 
L 3928 4666 
L 3928 4134 
L 2272 4134 
L 2272 0 
L 1638 0 
L 1638 4134 
L -19 4134 
L -19 4666 
z
" id="DejaVuSans-54" transform="scale(0.015625)"/>
      <path d="M 313 2009 
L 1997 2009 
L 1997 1497 
L 313 1497 
L 313 2009 
z
" id="DejaVuSans-2d" transform="scale(0.015625)"/>
      <path d="M 1259 2228 
L 1259 519 
L 2272 519 
Q 2781 519 3026 730 
Q 3272 941 3272 1375 
Q 3272 1813 3026 2020 
Q 2781 2228 2272 2228 
L 1259 2228 
z
M 1259 4147 
L 1259 2741 
L 2194 2741 
Q 2656 2741 2882 2914 
Q 3109 3088 3109 3444 
Q 3109 3797 2882 3972 
Q 2656 4147 2194 4147 
L 1259 4147 
z
M 628 4666 
L 2241 4666 
Q 2963 4666 3353 4366 
Q 3744 4066 3744 3513 
Q 3744 3084 3544 2831 
Q 3344 2578 2956 2516 
Q 3422 2416 3680 2098 
Q 3938 1781 3938 1306 
Q 3938 681 3513 340 
Q 3088 0 2303 0 
L 628 0 
L 628 4666 
z
" id="DejaVuSans-42" transform="scale(0.015625)"/>
      <path d="M 2194 1759 
Q 1497 1759 1228 1600 
Q 959 1441 959 1056 
Q 959 750 1161 570 
Q 1363 391 1709 391 
Q 2188 391 2477 730 
Q 2766 1069 2766 1631 
L 2766 1759 
L 2194 1759 
z
M 3341 1997 
L 3341 0 
L 2766 0 
L 2766 531 
Q 2569 213 2275 61 
Q 1981 -91 1556 -91 
Q 1019 -91 701 211 
Q 384 513 384 1019 
Q 384 1609 779 1909 
Q 1175 2209 1959 2209 
L 2766 2209 
L 2766 2266 
Q 2766 2663 2505 2880 
Q 2244 3097 1772 3097 
Q 1472 3097 1187 3025 
Q 903 2953 641 2809 
L 641 3341 
Q 956 3463 1253 3523 
Q 1550 3584 1831 3584 
Q 2591 3584 2966 3190 
Q 3341 2797 3341 1997 
z
" id="DejaVuSans-61" transform="scale(0.015625)"/>
      <path d="M 2631 2963 
Q 2534 3019 2420 3045 
Q 2306 3072 2169 3072 
Q 1681 3072 1420 2755 
Q 1159 2438 1159 1844 
L 1159 0 
L 581 0 
L 581 3500 
L 1159 3500 
L 1159 2956 
Q 1341 3275 1631 3429 
Q 1922 3584 2338 3584 
Q 2397 3584 2469 3576 
Q 2541 3569 2628 3553 
L 2631 2963 
z
" id="DejaVuSans-72" transform="scale(0.015625)"/>
      <path id="DejaVuSans-20" transform="scale(0.015625)"/>
      <path d="M 628 4666 
L 1259 4666 
L 1259 531 
L 3531 531 
L 3531 0 
L 628 0 
L 628 4666 
z
" id="DejaVuSans-4c" transform="scale(0.015625)"/>
      <path d="M 603 3500 
L 1178 3500 
L 1178 0 
L 603 0 
L 603 3500 
z
M 603 4863 
L 1178 4863 
L 1178 4134 
L 603 4134 
L 603 4863 
z
" id="DejaVuSans-69" transform="scale(0.015625)"/>
      <path d="M 2375 4863 
L 2375 4384 
L 1825 4384 
Q 1516 4384 1395 4259 
Q 1275 4134 1275 3809 
L 1275 3500 
L 2222 3500 
L 2222 3053 
L 1275 3053 
L 1275 0 
L 697 0 
L 697 3053 
L 147 3053 
L 147 3500 
L 697 3500 
L 697 3744 
Q 697 4328 969 4595 
Q 1241 4863 1831 4863 
L 2375 4863 
z
" id="DejaVuSans-66" transform="scale(0.015625)"/>
      <path d="M 1172 4494 
L 1172 3500 
L 2356 3500 
L 2356 3053 
L 1172 3053 
L 1172 1153 
Q 1172 725 1289 603 
Q 1406 481 1766 481 
L 2356 481 
L 2356 0 
L 1766 0 
Q 1100 0 847 248 
Q 594 497 594 1153 
L 594 3053 
L 172 3053 
L 172 3500 
L 594 3500 
L 594 4494 
L 1172 4494 
z
" id="DejaVuSans-74" transform="scale(0.015625)"/>
     </defs>
     <use xlink:href="#DejaVuSans-54"/>
     <use x="51.958984" xlink:href="#DejaVuSans-2d"/>
     <use x="84.417969" xlink:href="#DejaVuSans-42"/>
     <use x="153.021484" xlink:href="#DejaVuSans-61"/>
     <use x="214.300781" xlink:href="#DejaVuSans-72"/>
     <use x="255.414062" xlink:href="#DejaVuSans-20"/>
     <use x="287.201172" xlink:href="#DejaVuSans-4c"/>
     <use x="342.914062" xlink:href="#DejaVuSans-69"/>
     <use x="370.697266" xlink:href="#DejaVuSans-66"/>
     <use x="404.152344" xlink:href="#DejaVuSans-74"/>
    </g>
   </g>
   <g id="text_2">
    <g id="patch_5">
     <path d="M 34.774386 40.812637 
L 41.465985 52.275911 
L 43.172185 51.27993 
L 36.480585 39.816656 
z
" style="fill:#ffffff;"/>
    </g>
    <!-- Big Rope Tow -->
    <g style="fill:#808080;" transform="translate(35.160955 40.610139)rotate(-300.273923)scale(0.02 -0.02)">
     <defs>
      <path d="M 2906 1791 
Q 2906 2416 2648 2759 
Q 2391 3103 1925 3103 
Q 1463 3103 1205 2759 
Q 947 2416 947 1791 
Q 947 1169 1205 825 
Q 1463 481 1925 481 
Q 2391 481 2648 825 
Q 2906 1169 2906 1791 
z
M 3481 434 
Q 3481 -459 3084 -895 
Q 2688 -1331 1869 -1331 
Q 1566 -1331 1297 -1286 
Q 1028 -1241 775 -1147 
L 775 -588 
Q 1028 -725 1275 -790 
Q 1522 -856 1778 -856 
Q 2344 -856 2625 -561 
Q 2906 -266 2906 331 
L 2906 616 
Q 2728 306 2450 153 
Q 2172 0 1784 0 
Q 1141 0 747 490 
Q 353 981 353 1791 
Q 353 2603 747 3093 
Q 1141 3584 1784 3584 
Q 2172 3584 2450 3431 
Q 2728 3278 2906 2969 
L 2906 3500 
L 3481 3500 
L 3481 434 
z
" id="DejaVuSans-67" transform="scale(0.015625)"/>
      <path d="M 2841 2188 
Q 3044 2119 3236 1894 
Q 3428 1669 3622 1275 
L 4263 0 
L 3584 0 
L 2988 1197 
Q 2756 1666 2539 1819 
Q 2322 1972 1947 1972 
L 1259 1972 
L 1259 0 
L 628 0 
L 628 4666 
L 2053 4666 
Q 2853 4666 3247 4331 
Q 3641 3997 3641 3322 
Q 3641 2881 3436 2590 
Q 3231 2300 2841 2188 
z
M 1259 4147 
L 1259 2491 
L 2053 2491 
Q 2509 2491 2742 2702 
Q 2975 2913 2975 3322 
Q 2975 3731 2742 3939 
Q 2509 4147 2053 4147 
L 1259 4147 
z
" id="DejaVuSans-52" transform="scale(0.015625)"/>
      <path d="M 1959 3097 
Q 1497 3097 1228 2736 
Q 959 2375 959 1747 
Q 959 1119 1226 758 
Q 1494 397 1959 397 
Q 2419 397 2687 759 
Q 2956 1122 2956 1747 
Q 2956 2369 2687 2733 
Q 2419 3097 1959 3097 
z
M 1959 3584 
Q 2709 3584 3137 3096 
Q 3566 2609 3566 1747 
Q 3566 888 3137 398 
Q 2709 -91 1959 -91 
Q 1206 -91 779 398 
Q 353 888 353 1747 
Q 353 2609 779 3096 
Q 1206 3584 1959 3584 
z
" id="DejaVuSans-6f" transform="scale(0.015625)"/>
      <path d="M 1159 525 
L 1159 -1331 
L 581 -1331 
L 581 3500 
L 1159 3500 
L 1159 2969 
Q 1341 3281 1617 3432 
Q 1894 3584 2278 3584 
Q 2916 3584 3314 3078 
Q 3713 2572 3713 1747 
Q 3713 922 3314 415 
Q 2916 -91 2278 -91 
Q 1894 -91 1617 61 
Q 1341 213 1159 525 
z
M 3116 1747 
Q 3116 2381 2855 2742 
Q 2594 3103 2138 3103 
Q 1681 3103 1420 2742 
Q 1159 2381 1159 1747 
Q 1159 1113 1420 752 
Q 1681 391 2138 391 
Q 2594 391 2855 752 
Q 3116 1113 3116 1747 
z
" id="DejaVuSans-70" transform="scale(0.015625)"/>
      <path d="M 3597 1894 
L 3597 1613 
L 953 1613 
Q 991 1019 1311 708 
Q 1631 397 2203 397 
Q 2534 397 2845 478 
Q 3156 559 3463 722 
L 3463 178 
Q 3153 47 2828 -22 
Q 2503 -91 2169 -91 
Q 1331 -91 842 396 
Q 353 884 353 1716 
Q 353 2575 817 3079 
Q 1281 3584 2069 3584 
Q 2775 3584 3186 3129 
Q 3597 2675 3597 1894 
z
M 3022 2063 
Q 3016 2534 2758 2815 
Q 2500 3097 2075 3097 
Q 1594 3097 1305 2825 
Q 1016 2553 972 2059 
L 3022 2063 
z
" id="DejaVuSans-65" transform="scale(0.015625)"/>
      <path d="M 269 3500 
L 844 3500 
L 1563 769 
L 2278 3500 
L 2956 3500 
L 3675 769 
L 4391 3500 
L 4966 3500 
L 4050 0 
L 3372 0 
L 2619 2869 
L 1863 0 
L 1184 0 
L 269 3500 
z
" id="DejaVuSans-77" transform="scale(0.015625)"/>
     </defs>
     <use xlink:href="#DejaVuSans-42"/>
     <use x="68.603516" xlink:href="#DejaVuSans-69"/>
     <use x="96.386719" xlink:href="#DejaVuSans-67"/>
     <use x="159.863281" xlink:href="#DejaVuSans-20"/>
     <use x="191.650391" xlink:href="#DejaVuSans-52"/>
     <use x="256.632812" xlink:href="#DejaVuSans-6f"/>
     <use x="317.814453" xlink:href="#DejaVuSans-70"/>
     <use x="381.291016" xlink:href="#DejaVuSans-65"/>
     <use x="442.814453" xlink:href="#DejaVuSans-20"/>
     <use x="474.601562" xlink:href="#DejaVuSans-54"/>
     <use x="518.685547" xlink:href="#DejaVuSans-6f"/>
     <use x="579.867188" xlink:href="#DejaVuSans-77"/>
    </g>
   </g>
   <g id="text_3">
    <g id="patch_6">
     <path d="M 19.691148 15.359526 
L 40.632126 23.521334 
L 41.349565 21.68058 
L 20.408587 13.518772 
z
" style="fill:#ffffff;"/>
    </g>
    <!-- Upper Powerline 16.9° -->
    <g style="fill:#008000;" transform="translate(19.868091 14.960612)rotate(-338.706502)scale(0.02 -0.02)">
     <defs>
      <path d="M 556 4666 
L 1191 4666 
L 1191 1831 
Q 1191 1081 1462 751 
Q 1734 422 2344 422 
Q 2950 422 3222 751 
Q 3494 1081 3494 1831 
L 3494 4666 
L 4128 4666 
L 4128 1753 
Q 4128 841 3676 375 
Q 3225 -91 2344 -91 
Q 1459 -91 1007 375 
Q 556 841 556 1753 
L 556 4666 
z
" id="DejaVuSans-55" transform="scale(0.015625)"/>
      <path d="M 1259 4147 
L 1259 2394 
L 2053 2394 
Q 2494 2394 2734 2622 
Q 2975 2850 2975 3272 
Q 2975 3691 2734 3919 
Q 2494 4147 2053 4147 
L 1259 4147 
z
M 628 4666 
L 2053 4666 
Q 2838 4666 3239 4311 
Q 3641 3956 3641 3272 
Q 3641 2581 3239 2228 
Q 2838 1875 2053 1875 
L 1259 1875 
L 1259 0 
L 628 0 
L 628 4666 
z
" id="DejaVuSans-50" transform="scale(0.015625)"/>
      <path d="M 603 4863 
L 1178 4863 
L 1178 0 
L 603 0 
L 603 4863 
z
" id="DejaVuSans-6c" transform="scale(0.015625)"/>
      <path d="M 3513 2113 
L 3513 0 
L 2938 0 
L 2938 2094 
Q 2938 2591 2744 2837 
Q 2550 3084 2163 3084 
Q 1697 3084 1428 2787 
Q 1159 2491 1159 1978 
L 1159 0 
L 581 0 
L 581 3500 
L 1159 3500 
L 1159 2956 
Q 1366 3272 1645 3428 
Q 1925 3584 2291 3584 
Q 2894 3584 3203 3211 
Q 3513 2838 3513 2113 
z
" id="DejaVuSans-6e" transform="scale(0.015625)"/>
      <path d="M 794 531 
L 1825 531 
L 1825 4091 
L 703 3866 
L 703 4441 
L 1819 4666 
L 2450 4666 
L 2450 531 
L 3481 531 
L 3481 0 
L 794 0 
L 794 531 
z
" id="DejaVuSans-31" transform="scale(0.015625)"/>
      <path d="M 2113 2584 
Q 1688 2584 1439 2293 
Q 1191 2003 1191 1497 
Q 1191 994 1439 701 
Q 1688 409 2113 409 
Q 2538 409 2786 701 
Q 3034 994 3034 1497 
Q 3034 2003 2786 2293 
Q 2538 2584 2113 2584 
z
M 3366 4563 
L 3366 3988 
Q 3128 4100 2886 4159 
Q 2644 4219 2406 4219 
Q 1781 4219 1451 3797 
Q 1122 3375 1075 2522 
Q 1259 2794 1537 2939 
Q 1816 3084 2150 3084 
Q 2853 3084 3261 2657 
Q 3669 2231 3669 1497 
Q 3669 778 3244 343 
Q 2819 -91 2113 -91 
Q 1303 -91 875 529 
Q 447 1150 447 2328 
Q 447 3434 972 4092 
Q 1497 4750 2381 4750 
Q 2619 4750 2861 4703 
Q 3103 4656 3366 4563 
z
" id="DejaVuSans-36" transform="scale(0.015625)"/>
      <path d="M 684 794 
L 1344 794 
L 1344 0 
L 684 0 
L 684 794 
z
" id="DejaVuSans-2e" transform="scale(0.015625)"/>
      <path d="M 703 97 
L 703 672 
Q 941 559 1184 500 
Q 1428 441 1663 441 
Q 2288 441 2617 861 
Q 2947 1281 2994 2138 
Q 2813 1869 2534 1725 
Q 2256 1581 1919 1581 
Q 1219 1581 811 2004 
Q 403 2428 403 3163 
Q 403 3881 828 4315 
Q 1253 4750 1959 4750 
Q 2769 4750 3195 4129 
Q 3622 3509 3622 2328 
Q 3622 1225 3098 567 
Q 2575 -91 1691 -91 
Q 1453 -91 1209 -44 
Q 966 3 703 97 
z
M 1959 2075 
Q 2384 2075 2632 2365 
Q 2881 2656 2881 3163 
Q 2881 3666 2632 3958 
Q 2384 4250 1959 4250 
Q 1534 4250 1286 3958 
Q 1038 3666 1038 3163 
Q 1038 2656 1286 2365 
Q 1534 2075 1959 2075 
z
" id="DejaVuSans-39" transform="scale(0.015625)"/>
      <path d="M 1600 4347 
Q 1350 4347 1178 4173 
Q 1006 4000 1006 3750 
Q 1006 3503 1178 3333 
Q 1350 3163 1600 3163 
Q 1850 3163 2022 3333 
Q 2194 3503 2194 3750 
Q 2194 3997 2020 4172 
Q 1847 4347 1600 4347 
z
M 1600 4750 
Q 1800 4750 1984 4673 
Q 2169 4597 2303 4453 
Q 2447 4313 2519 4134 
Q 2591 3956 2591 3750 
Q 2591 3338 2302 3052 
Q 2013 2766 1594 2766 
Q 1172 2766 890 3047 
Q 609 3328 609 3750 
Q 609 4169 896 4459 
Q 1184 4750 1600 4750 
z
" id="DejaVuSans-b0" transform="scale(0.015625)"/>
     </defs>
     <use xlink:href="#DejaVuSans-55"/>
     <use x="73.193359" xlink:href="#DejaVuSans-70"/>
     <use x="136.669922" xlink:href="#DejaVuSans-70"/>
     <use x="200.146484" xlink:href="#DejaVuSans-65"/>
     <use x="261.669922" xlink:href="#DejaVuSans-72"/>
     <use x="302.783203" xlink:href="#DejaVuSans-20"/>
     <use x="334.570312" xlink:href="#DejaVuSans-50"/>
     <use x="391.248047" xlink:href="#DejaVuSans-6f"/>
     <use x="452.429688" xlink:href="#DejaVuSans-77"/>
     <use x="534.216797" xlink:href="#DejaVuSans-65"/>
     <use x="595.740234" xlink:href="#DejaVuSans-72"/>
     <use x="636.853516" xlink:href="#DejaVuSans-6c"/>
     <use x="664.636719" xlink:href="#DejaVuSans-69"/>
     <use x="692.419922" xlink:href="#DejaVuSans-6e"/>
     <use x="755.798828" xlink:href="#DejaVuSans-65"/>
     <use x="817.322266" xlink:href="#DejaVuSans-20"/>
     <use x="849.109375" xlink:href="#DejaVuSans-31"/>
     <use x="912.732422" xlink:href="#DejaVuSans-36"/>
     <use x="976.355469" xlink:href="#DejaVuSans-2e"/>
     <use x="1008.142578" xlink:href="#DejaVuSans-39"/>
     <use x="1071.765625" xlink:href="#DejaVuSans-b0"/>
    </g>
   </g>
   <g id="text_4">
    <g id="patch_7">
     <path d="M 17.549869 16.289725 
L 25.68401 29.858736 
L 27.378495 28.842952 
L 19.244354 15.273942 
z
" style="fill:#ffffff;"/>
    </g>
    <!-- Northside 18.5° -->
    <g style="fill:#4169e1;" transform="translate(17.934054 16.082739)rotate(-300.941194)scale(0.02 -0.02)">
     <defs>
      <path d="M 628 4666 
L 1478 4666 
L 3547 763 
L 3547 4666 
L 4159 4666 
L 4159 0 
L 3309 0 
L 1241 3903 
L 1241 0 
L 628 0 
L 628 4666 
z
" id="DejaVuSans-4e" transform="scale(0.015625)"/>
      <path d="M 3513 2113 
L 3513 0 
L 2938 0 
L 2938 2094 
Q 2938 2591 2744 2837 
Q 2550 3084 2163 3084 
Q 1697 3084 1428 2787 
Q 1159 2491 1159 1978 
L 1159 0 
L 581 0 
L 581 4863 
L 1159 4863 
L 1159 2956 
Q 1366 3272 1645 3428 
Q 1925 3584 2291 3584 
Q 2894 3584 3203 3211 
Q 3513 2838 3513 2113 
z
" id="DejaVuSans-68" transform="scale(0.015625)"/>
      <path d="M 2834 3397 
L 2834 2853 
Q 2591 2978 2328 3040 
Q 2066 3103 1784 3103 
Q 1356 3103 1142 2972 
Q 928 2841 928 2578 
Q 928 2378 1081 2264 
Q 1234 2150 1697 2047 
L 1894 2003 
Q 2506 1872 2764 1633 
Q 3022 1394 3022 966 
Q 3022 478 2636 193 
Q 2250 -91 1575 -91 
Q 1294 -91 989 -36 
Q 684 19 347 128 
L 347 722 
Q 666 556 975 473 
Q 1284 391 1588 391 
Q 1994 391 2212 530 
Q 2431 669 2431 922 
Q 2431 1156 2273 1281 
Q 2116 1406 1581 1522 
L 1381 1569 
Q 847 1681 609 1914 
Q 372 2147 372 2553 
Q 372 3047 722 3315 
Q 1072 3584 1716 3584 
Q 2034 3584 2315 3537 
Q 2597 3491 2834 3397 
z
" id="DejaVuSans-73" transform="scale(0.015625)"/>
      <path d="M 2906 2969 
L 2906 4863 
L 3481 4863 
L 3481 0 
L 2906 0 
L 2906 525 
Q 2725 213 2448 61 
Q 2172 -91 1784 -91 
Q 1150 -91 751 415 
Q 353 922 353 1747 
Q 353 2572 751 3078 
Q 1150 3584 1784 3584 
Q 2172 3584 2448 3432 
Q 2725 3281 2906 2969 
z
M 947 1747 
Q 947 1113 1208 752 
Q 1469 391 1925 391 
Q 2381 391 2643 752 
Q 2906 1113 2906 1747 
Q 2906 2381 2643 2742 
Q 2381 3103 1925 3103 
Q 1469 3103 1208 2742 
Q 947 2381 947 1747 
z
" id="DejaVuSans-64" transform="scale(0.015625)"/>
      <path d="M 2034 2216 
Q 1584 2216 1326 1975 
Q 1069 1734 1069 1313 
Q 1069 891 1326 650 
Q 1584 409 2034 409 
Q 2484 409 2743 651 
Q 3003 894 3003 1313 
Q 3003 1734 2745 1975 
Q 2488 2216 2034 2216 
z
M 1403 2484 
Q 997 2584 770 2862 
Q 544 3141 544 3541 
Q 544 4100 942 4425 
Q 1341 4750 2034 4750 
Q 2731 4750 3128 4425 
Q 3525 4100 3525 3541 
Q 3525 3141 3298 2862 
Q 3072 2584 2669 2484 
Q 3125 2378 3379 2068 
Q 3634 1759 3634 1313 
Q 3634 634 3220 271 
Q 2806 -91 2034 -91 
Q 1263 -91 848 271 
Q 434 634 434 1313 
Q 434 1759 690 2068 
Q 947 2378 1403 2484 
z
M 1172 3481 
Q 1172 3119 1398 2916 
Q 1625 2713 2034 2713 
Q 2441 2713 2670 2916 
Q 2900 3119 2900 3481 
Q 2900 3844 2670 4047 
Q 2441 4250 2034 4250 
Q 1625 4250 1398 4047 
Q 1172 3844 1172 3481 
z
" id="DejaVuSans-38" transform="scale(0.015625)"/>
      <path d="M 691 4666 
L 3169 4666 
L 3169 4134 
L 1269 4134 
L 1269 2991 
Q 1406 3038 1543 3061 
Q 1681 3084 1819 3084 
Q 2600 3084 3056 2656 
Q 3513 2228 3513 1497 
Q 3513 744 3044 326 
Q 2575 -91 1722 -91 
Q 1428 -91 1123 -41 
Q 819 9 494 109 
L 494 744 
Q 775 591 1075 516 
Q 1375 441 1709 441 
Q 2250 441 2565 725 
Q 2881 1009 2881 1497 
Q 2881 1984 2565 2268 
Q 2250 2553 1709 2553 
Q 1456 2553 1204 2497 
Q 953 2441 691 2322 
L 691 4666 
z
" id="DejaVuSans-35" transform="scale(0.015625)"/>
     </defs>
     <use xlink:href="#DejaVuSans-4e"/>
     <use x="74.804688" xlink:href="#DejaVuSans-6f"/>
     <use x="135.986328" xlink:href="#DejaVuSans-72"/>
     <use x="177.099609" xlink:href="#DejaVuSans-74"/>
     <use x="216.308594" xlink:href="#DejaVuSans-68"/>
     <use x="279.6875" xlink:href="#DejaVuSans-73"/>
     <use x="331.787109" xlink:href="#DejaVuSans-69"/>
     <use x="359.570312" xlink:href="#DejaVuSans-64"/>
     <use x="423.046875" xlink:href="#DejaVuSans-65"/>
     <use x="484.570312" xlink:href="#DejaVuSans-20"/>
     <use x="516.357422" xlink:href="#DejaVuSans-31"/>
     <use x="579.980469" xlink:href="#DejaVuSans-38"/>
     <use x="643.603516" xlink:href="#DejaVuSans-2e"/>
     <use x="675.390625" xlink:href="#DejaVuSans-35"/>
     <use x="739.013672" xlink:href="#DejaVuSans-b0"/>
    </g>
   </g>
   <g id="text_5">
    <g id="patch_8">
     <path d="M 1.251222 14.573045 
L 2.884519 36.979219 
L 4.854916 36.835587 
L 3.221619 14.429413 
z
" style="fill:#ffffff;"/>
    </g>
    <!-- Holland's Tunnel 15.7° -->
    <g style="fill:#008000;" transform="translate(1.68746 14.561299)rotate(-274.1692)scale(0.02 -0.02)">
     <defs>
      <path d="M 628 4666 
L 1259 4666 
L 1259 2753 
L 3553 2753 
L 3553 4666 
L 4184 4666 
L 4184 0 
L 3553 0 
L 3553 2222 
L 1259 2222 
L 1259 0 
L 628 0 
L 628 4666 
z
" id="DejaVuSans-48" transform="scale(0.015625)"/>
      <path d="M 1147 4666 
L 1147 2931 
L 616 2931 
L 616 4666 
L 1147 4666 
z
" id="DejaVuSans-27" transform="scale(0.015625)"/>
      <path d="M 544 1381 
L 544 3500 
L 1119 3500 
L 1119 1403 
Q 1119 906 1312 657 
Q 1506 409 1894 409 
Q 2359 409 2629 706 
Q 2900 1003 2900 1516 
L 2900 3500 
L 3475 3500 
L 3475 0 
L 2900 0 
L 2900 538 
Q 2691 219 2414 64 
Q 2138 -91 1772 -91 
Q 1169 -91 856 284 
Q 544 659 544 1381 
z
M 1991 3584 
L 1991 3584 
z
" id="DejaVuSans-75" transform="scale(0.015625)"/>
      <path d="M 525 4666 
L 3525 4666 
L 3525 4397 
L 1831 0 
L 1172 0 
L 2766 4134 
L 525 4134 
L 525 4666 
z
" id="DejaVuSans-37" transform="scale(0.015625)"/>
     </defs>
     <use xlink:href="#DejaVuSans-48"/>
     <use x="75.195312" xlink:href="#DejaVuSans-6f"/>
     <use x="136.376953" xlink:href="#DejaVuSans-6c"/>
     <use x="164.160156" xlink:href="#DejaVuSans-6c"/>
     <use x="191.943359" xlink:href="#DejaVuSans-61"/>
     <use x="253.222656" xlink:href="#DejaVuSans-6e"/>
     <use x="316.601562" xlink:href="#DejaVuSans-64"/>
     <use x="380.078125" xlink:href="#DejaVuSans-27"/>
     <use x="407.568359" xlink:href="#DejaVuSans-73"/>
     <use x="459.667969" xlink:href="#DejaVuSans-20"/>
     <use x="491.455078" xlink:href="#DejaVuSans-54"/>
     <use x="537.414062" xlink:href="#DejaVuSans-75"/>
     <use x="600.792969" xlink:href="#DejaVuSans-6e"/>
     <use x="664.171875" xlink:href="#DejaVuSans-6e"/>
     <use x="727.550781" xlink:href="#DejaVuSans-65"/>
     <use x="789.074219" xlink:href="#DejaVuSans-6c"/>
     <use x="816.857422" xlink:href="#DejaVuSans-20"/>
     <use x="848.644531" xlink:href="#DejaVuSans-31"/>
     <use x="912.267578" xlink:href="#DejaVuSans-35"/>
     <use x="975.890625" xlink:href="#DejaVuSans-2e"/>
     <use x="1007.677734" xlink:href="#DejaVuSans-37"/>
     <use x="1071.300781" xlink:href="#DejaVuSans-b0"/>
    </g>
   </g>
   <g id="text_6">
    <g id="patch_9">
     <path d="M 13.045948 19.29851 
L 14.206082 36.605608 
L 16.177284 36.473474 
L 15.017149 19.166376 
z
" style="fill:#ffffff;"/>
    </g>
    <!-- Sunny Side 17.1° -->
    <g style="fill:#4169e1;" transform="translate(13.482247 19.289309)rotate(-273.834931)scale(0.02 -0.02)">
     <defs>
      <path d="M 3425 4513 
L 3425 3897 
Q 3066 4069 2747 4153 
Q 2428 4238 2131 4238 
Q 1616 4238 1336 4038 
Q 1056 3838 1056 3469 
Q 1056 3159 1242 3001 
Q 1428 2844 1947 2747 
L 2328 2669 
Q 3034 2534 3370 2195 
Q 3706 1856 3706 1288 
Q 3706 609 3251 259 
Q 2797 -91 1919 -91 
Q 1588 -91 1214 -16 
Q 841 59 441 206 
L 441 856 
Q 825 641 1194 531 
Q 1563 422 1919 422 
Q 2459 422 2753 634 
Q 3047 847 3047 1241 
Q 3047 1584 2836 1778 
Q 2625 1972 2144 2069 
L 1759 2144 
Q 1053 2284 737 2584 
Q 422 2884 422 3419 
Q 422 4038 858 4394 
Q 1294 4750 2059 4750 
Q 2388 4750 2728 4690 
Q 3069 4631 3425 4513 
z
" id="DejaVuSans-53" transform="scale(0.015625)"/>
      <path d="M 2059 -325 
Q 1816 -950 1584 -1140 
Q 1353 -1331 966 -1331 
L 506 -1331 
L 506 -850 
L 844 -850 
Q 1081 -850 1212 -737 
Q 1344 -625 1503 -206 
L 1606 56 
L 191 3500 
L 800 3500 
L 1894 763 
L 2988 3500 
L 3597 3500 
L 2059 -325 
z
" id="DejaVuSans-79" transform="scale(0.015625)"/>
     </defs>
     <use xlink:href="#DejaVuSans-53"/>
     <use x="63.476562" xlink:href="#DejaVuSans-75"/>
     <use x="126.855469" xlink:href="#DejaVuSans-6e"/>
     <use x="190.234375" xlink:href="#DejaVuSans-6e"/>
     <use x="253.613281" xlink:href="#DejaVuSans-79"/>
     <use x="312.792969" xlink:href="#DejaVuSans-20"/>
     <use x="344.580078" xlink:href="#DejaVuSans-53"/>
     <use x="408.056641" xlink:href="#DejaVuSans-69"/>
     <use x="435.839844" xlink:href="#DejaVuSans-64"/>
     <use x="499.316406" xlink:href="#DejaVuSans-65"/>
     <use x="560.839844" xlink:href="#DejaVuSans-20"/>
     <use x="592.626953" xlink:href="#DejaVuSans-31"/>
     <use x="656.25" xlink:href="#DejaVuSans-37"/>
     <use x="719.873047" xlink:href="#DejaVuSans-2e"/>
     <use x="751.660156" xlink:href="#DejaVuSans-31"/>
     <use x="815.283203" xlink:href="#DejaVuSans-b0"/>
    </g>
   </g>
   <g id="text_7">
    <g id="patch_10">
     <path d="M 26.726954 35.221235 
L 35.634797 49.803908 
L 37.320757 48.774038 
L 28.412914 34.191365 
z
" style="fill:#ffffff;"/>
    </g>
    <!-- Main Slope 19.7° -->
    <g style="fill:#4169e1;" transform="translate(27.1094 35.011054)rotate(-301.418722)scale(0.02 -0.02)">
     <defs>
      <path d="M 628 4666 
L 1569 4666 
L 2759 1491 
L 3956 4666 
L 4897 4666 
L 4897 0 
L 4281 0 
L 4281 4097 
L 3078 897 
L 2444 897 
L 1241 4097 
L 1241 0 
L 628 0 
L 628 4666 
z
" id="DejaVuSans-4d" transform="scale(0.015625)"/>
     </defs>
     <use xlink:href="#DejaVuSans-4d"/>
     <use x="86.279297" xlink:href="#DejaVuSans-61"/>
     <use x="147.558594" xlink:href="#DejaVuSans-69"/>
     <use x="175.341797" xlink:href="#DejaVuSans-6e"/>
     <use x="238.720703" xlink:href="#DejaVuSans-20"/>
     <use x="270.507812" xlink:href="#DejaVuSans-53"/>
     <use x="333.984375" xlink:href="#DejaVuSans-6c"/>
     <use x="361.767578" xlink:href="#DejaVuSans-6f"/>
     <use x="422.949219" xlink:href="#DejaVuSans-70"/>
     <use x="486.425781" xlink:href="#DejaVuSans-65"/>
     <use x="547.949219" xlink:href="#DejaVuSans-20"/>
     <use x="579.736328" xlink:href="#DejaVuSans-31"/>
     <use x="643.359375" xlink:href="#DejaVuSans-39"/>
     <use x="706.982422" xlink:href="#DejaVuSans-2e"/>
     <use x="738.769531" xlink:href="#DejaVuSans-37"/>
     <use x="802.392578" xlink:href="#DejaVuSans-b0"/>
    </g>
   </g>
   <g id="text_8">
    <g id="patch_11">
     <path d="M 24.536692 44.933886 
L 32.245553 57.810527 
L 33.940631 56.795734 
L 26.23177 43.919093 
z
" style="fill:#ffffff;"/>
    </g>
    <!-- The Face 23.0° -->
    <g style="fill:#4169e1;" transform="translate(24.920997 44.727123)rotate(-300.907701)scale(0.02 -0.02)">
     <defs>
      <path d="M 628 4666 
L 3309 4666 
L 3309 4134 
L 1259 4134 
L 1259 2759 
L 3109 2759 
L 3109 2228 
L 1259 2228 
L 1259 0 
L 628 0 
L 628 4666 
z
" id="DejaVuSans-46" transform="scale(0.015625)"/>
      <path d="M 3122 3366 
L 3122 2828 
Q 2878 2963 2633 3030 
Q 2388 3097 2138 3097 
Q 1578 3097 1268 2742 
Q 959 2388 959 1747 
Q 959 1106 1268 751 
Q 1578 397 2138 397 
Q 2388 397 2633 464 
Q 2878 531 3122 666 
L 3122 134 
Q 2881 22 2623 -34 
Q 2366 -91 2075 -91 
Q 1284 -91 818 406 
Q 353 903 353 1747 
Q 353 2603 823 3093 
Q 1294 3584 2113 3584 
Q 2378 3584 2631 3529 
Q 2884 3475 3122 3366 
z
" id="DejaVuSans-63" transform="scale(0.015625)"/>
      <path d="M 1228 531 
L 3431 531 
L 3431 0 
L 469 0 
L 469 531 
Q 828 903 1448 1529 
Q 2069 2156 2228 2338 
Q 2531 2678 2651 2914 
Q 2772 3150 2772 3378 
Q 2772 3750 2511 3984 
Q 2250 4219 1831 4219 
Q 1534 4219 1204 4116 
Q 875 4013 500 3803 
L 500 4441 
Q 881 4594 1212 4672 
Q 1544 4750 1819 4750 
Q 2544 4750 2975 4387 
Q 3406 4025 3406 3419 
Q 3406 3131 3298 2873 
Q 3191 2616 2906 2266 
Q 2828 2175 2409 1742 
Q 1991 1309 1228 531 
z
" id="DejaVuSans-32" transform="scale(0.015625)"/>
      <path d="M 2597 2516 
Q 3050 2419 3304 2112 
Q 3559 1806 3559 1356 
Q 3559 666 3084 287 
Q 2609 -91 1734 -91 
Q 1441 -91 1130 -33 
Q 819 25 488 141 
L 488 750 
Q 750 597 1062 519 
Q 1375 441 1716 441 
Q 2309 441 2620 675 
Q 2931 909 2931 1356 
Q 2931 1769 2642 2001 
Q 2353 2234 1838 2234 
L 1294 2234 
L 1294 2753 
L 1863 2753 
Q 2328 2753 2575 2939 
Q 2822 3125 2822 3475 
Q 2822 3834 2567 4026 
Q 2313 4219 1838 4219 
Q 1578 4219 1281 4162 
Q 984 4106 628 3988 
L 628 4550 
Q 988 4650 1302 4700 
Q 1616 4750 1894 4750 
Q 2613 4750 3031 4423 
Q 3450 4097 3450 3541 
Q 3450 3153 3228 2886 
Q 3006 2619 2597 2516 
z
" id="DejaVuSans-33" transform="scale(0.015625)"/>
      <path d="M 2034 4250 
Q 1547 4250 1301 3770 
Q 1056 3291 1056 2328 
Q 1056 1369 1301 889 
Q 1547 409 2034 409 
Q 2525 409 2770 889 
Q 3016 1369 3016 2328 
Q 3016 3291 2770 3770 
Q 2525 4250 2034 4250 
z
M 2034 4750 
Q 2819 4750 3233 4129 
Q 3647 3509 3647 2328 
Q 3647 1150 3233 529 
Q 2819 -91 2034 -91 
Q 1250 -91 836 529 
Q 422 1150 422 2328 
Q 422 3509 836 4129 
Q 1250 4750 2034 4750 
z
" id="DejaVuSans-30" transform="scale(0.015625)"/>
     </defs>
     <use xlink:href="#DejaVuSans-54"/>
     <use x="61.083984" xlink:href="#DejaVuSans-68"/>
     <use x="124.462891" xlink:href="#DejaVuSans-65"/>
     <use x="185.986328" xlink:href="#DejaVuSans-20"/>
     <use x="217.773438" xlink:href="#DejaVuSans-46"/>
     <use x="266.167969" xlink:href="#DejaVuSans-61"/>
     <use x="327.447266" xlink:href="#DejaVuSans-63"/>
     <use x="382.427734" xlink:href="#DejaVuSans-65"/>
     <use x="443.951172" xlink:href="#DejaVuSans-20"/>
     <use x="475.738281" xlink:href="#DejaVuSans-32"/>
     <use x="539.361328" xlink:href="#DejaVuSans-33"/>
     <use x="602.984375" xlink:href="#DejaVuSans-2e"/>
     <use x="634.771484" xlink:href="#DejaVuSans-30"/>
     <use x="698.394531" xlink:href="#DejaVuSans-b0"/>
    </g>
   </g>
   <g id="text_9">
    <!-- Northeast Slopes -->
    <g transform="translate(10.243764 5.441505)scale(0.05 -0.05)">
     <use xlink:href="#DejaVuSans-4e"/>
     <use x="74.804688" xlink:href="#DejaVuSans-6f"/>
     <use x="135.986328" xlink:href="#DejaVuSans-72"/>
     <use x="177.099609" xlink:href="#DejaVuSans-74"/>
     <use x="216.308594" xlink:href="#DejaVuSans-68"/>
     <use x="279.6875" xlink:href="#DejaVuSans-65"/>
     <use x="341.210938" xlink:href="#DejaVuSans-61"/>
     <use x="402.490234" xlink:href="#DejaVuSans-73"/>
     <use x="454.589844" xlink:href="#DejaVuSans-74"/>
     <use x="493.798828" xlink:href="#DejaVuSans-20"/>
     <use x="525.585938" xlink:href="#DejaVuSans-53"/>
     <use x="589.0625" xlink:href="#DejaVuSans-6c"/>
     <use x="616.845703" xlink:href="#DejaVuSans-6f"/>
     <use x="678.027344" xlink:href="#DejaVuSans-70"/>
     <use x="741.503906" xlink:href="#DejaVuSans-65"/>
     <use x="803.027344" xlink:href="#DejaVuSans-73"/>
    </g>
   </g>
  </g>
  <g id="text_10">
   <!-- Sources: USGS and OpenStreetMaps -->
   <g transform="translate(11.791947 76.659759)scale(0.021739 -0.021739)">
    <defs>
     <path d="M 750 794 
L 1409 794 
L 1409 0 
L 750 0 
L 750 794 
z
M 750 3309 
L 1409 3309 
L 1409 2516 
L 750 2516 
L 750 3309 
z
" id="DejaVuSans-3a" transform="scale(0.015625)"/>
     <path d="M 3809 666 
L 3809 1919 
L 2778 1919 
L 2778 2438 
L 4434 2438 
L 4434 434 
Q 4069 175 3628 42 
Q 3188 -91 2688 -91 
Q 1594 -91 976 548 
Q 359 1188 359 2328 
Q 359 3472 976 4111 
Q 1594 4750 2688 4750 
Q 3144 4750 3555 4637 
Q 3966 4525 4313 4306 
L 4313 3634 
Q 3963 3931 3569 4081 
Q 3175 4231 2741 4231 
Q 1884 4231 1454 3753 
Q 1025 3275 1025 2328 
Q 1025 1384 1454 906 
Q 1884 428 2741 428 
Q 3075 428 3337 486 
Q 3600 544 3809 666 
z
" id="DejaVuSans-47" transform="scale(0.015625)"/>
     <path d="M 2522 4238 
Q 1834 4238 1429 3725 
Q 1025 3213 1025 2328 
Q 1025 1447 1429 934 
Q 1834 422 2522 422 
Q 3209 422 3611 934 
Q 4013 1447 4013 2328 
Q 4013 3213 3611 3725 
Q 3209 4238 2522 4238 
z
M 2522 4750 
Q 3503 4750 4090 4092 
Q 4678 3434 4678 2328 
Q 4678 1225 4090 567 
Q 3503 -91 2522 -91 
Q 1538 -91 948 565 
Q 359 1222 359 2328 
Q 359 3434 948 4092 
Q 1538 4750 2522 4750 
z
" id="DejaVuSans-4f" transform="scale(0.015625)"/>
    </defs>
    <use xlink:href="#DejaVuSans-53"/>
    <use x="63.476562" xlink:href="#DejaVuSans-6f"/>
    <use x="124.658203" xlink:href="#DejaVuSans-75"/>
    <use x="188.037109" xlink:href="#DejaVuSans-72"/>
    <use x="226.900391" xlink:href="#DejaVuSans-63"/>
    <use x="281.880859" xlink:href="#DejaVuSans-65"/>
    <use x="343.404297" xlink:href="#DejaVuSans-73"/>
    <use x="395.503906" xlink:href="#DejaVuSans-3a"/>
    <use x="429.195312" xlink:href="#DejaVuSans-20"/>
    <use x="460.982422" xlink:href="#DejaVuSans-55"/>
    <use x="534.175781" xlink:href="#DejaVuSans-53"/>
    <use x="597.652344" xlink:href="#DejaVuSans-47"/>
    <use x="675.142578" xlink:href="#DejaVuSans-53"/>
    <use x="738.619141" xlink:href="#DejaVuSans-20"/>
    <use x="770.40625" xlink:href="#DejaVuSans-61"/>
    <use x="831.685547" xlink:href="#DejaVuSans-6e"/>
    <use x="895.064453" xlink:href="#DejaVuSans-64"/>
    <use x="958.541016" xlink:href="#DejaVuSans-20"/>
    <use x="990.328125" xlink:href="#DejaVuSans-4f"/>
    <use x="1069.039062" xlink:href="#DejaVuSans-70"/>
    <use x="1132.515625" xlink:href="#DejaVuSans-65"/>
    <use x="1194.039062" xlink:href="#DejaVuSans-6e"/>
    <use x="1257.417969" xlink:href="#DejaVuSans-53"/>
    <use x="1320.894531" xlink:href="#DejaVuSans-74"/>
    <use x="1360.103516" xlink:href="#DejaVuSans-72"/>
    <use x="1398.966797" xlink:href="#DejaVuSans-65"/>
    <use x="1460.490234" xlink:href="#DejaVuSans-65"/>
    <use x="1522.013672" xlink:href="#DejaVuSans-74"/>
    <use x="1561.222656" xlink:href="#DejaVuSans-4d"/>
    <use x="1647.501953" xlink:href="#DejaVuSans-61"/>
    <use x="1708.78125" xlink:href="#DejaVuSans-70"/>
    <use x="1772.257812" xlink:href="#DejaVuSans-73"/>
   </g>
  </g>
 </g>
 <defs>
  <clipPath id="p1c817ded87">
   <rect height="61.228854" width="63.244559" x="0" y="7.941505"/>
  </clipPath>
 </defs>
</svg>
