<?xml version="1.0" encoding="utf-8" standalone="no"?>
<!DOCTYPE svg PUBLIC "-//W3C//DTD SVG 1.1//EN"
  "http://www.w3.org/Graphics/SVG/1.1/DTD/svg11.dtd">
<svg height="120.231219pt" version="1.1" viewBox="0 0 130.963661 120.231219" width="130.963661pt" xmlns="http://www.w3.org/2000/svg" xmlns:xlink="http://www.w3.org/1999/xlink">
 <metadata>
  <rdf:RDF xmlns:cc="http://creativecommons.org/ns#" xmlns:dc="http://purl.org/dc/elements/1.1/" xmlns:rdf="http://www.w3.org/1999/02/22-rdf-syntax-ns#">
   <cc:Work>
    <dc:type rdf:resource="http://purl.org/dc/dcmitype/StillImage"/>
    <dc:date>2022-04-14T21:31:10.327776</dc:date>
    <dc:format>image/svg+xml</dc:format>
    <dc:creator>
     <cc:Agent>
      <dc:title>Matplotlib v3.4.3, https://matplotlib.org/</dc:title>
     </cc:Agent>
    </dc:creator>
   </cc:Work>
  </rdf:RDF>
 </metadata>
 <defs>
  <style type="text/css">*{stroke-linecap:butt;stroke-linejoin:round;}</style>
 </defs>
 <g id="figure_1">
  <g id="patch_1">
   <path d="M 0 120.231219 
L 130.963661 120.231219 
L 130.963661 0 
L 0 0 
z
" style="fill:#ffffff;"/>
  </g>
  <g id="axes_1">
   <g id="line2d_1">
    <path clip-path="url(#p2a3bee0db0)" d="M 22.028792 19.37536 
" style="fill:none;stroke:#008000;stroke-linecap:square;stroke-width:1.5;"/>
   </g>
   <g id="line2d_2">
    <path clip-path="url(#p2a3bee0db0)" d="M 22.028792 19.37536 
" style="fill:none;stroke:#4169e1;stroke-linecap:square;stroke-width:1.5;"/>
   </g>
   <g id="line2d_3">
    <path clip-path="url(#p2a3bee0db0)" d="M 22.028792 19.37536 
" style="fill:none;stroke:#000000;stroke-linecap:square;stroke-width:1.5;"/>
   </g>
   <g id="line2d_4">
    <path clip-path="url(#p2a3bee0db0)" d="M 22.028792 19.37536 
" style="fill:none;stroke:#ff0000;stroke-linecap:square;stroke-width:1.5;"/>
   </g>
   <g id="line2d_5">
    <path clip-path="url(#p2a3bee0db0)" d="M 22.028792 19.37536 
" style="fill:none;stroke:#ffd700;stroke-linecap:square;stroke-width:1.5;"/>
   </g>
   <g id="line2d_6">
    <path clip-path="url(#p2a3bee0db0)" d="M 22.028792 19.37536 
" style="fill:none;stroke:#000000;stroke-dasharray:1.5,2.475;stroke-dashoffset:0;stroke-width:1.5;"/>
   </g>
   <g id="line2d_7">
    <path clip-path="url(#p2a3bee0db0)" d="M 18.017797 89.465083 
L 19.905081 86.200121 
L 21.792364 82.93516 
L 24.796178 77.739367 
L 26.542196 74.718574 
L 28.288214 71.69778 
L 29.954438 68.815607 
L 31.620662 65.933434 
L 32.999035 63.548041 
" style="fill:none;stroke:#808080;stroke-linecap:square;stroke-width:1.5;"/>
   </g>
   <g id="line2d_8">
    <path clip-path="url(#p2a3bee0db0)" d="M 26.023237 98.062347 
L 25.618355 91.883547 
L 25.213472 85.704748 
L 24.908481 81.010662 
L 24.603489 76.316575 
L 24.263033 71.191148 
L 24.037245 67.741829 
L 23.811456 64.292509 
L 23.497008 59.489356 
L 23.182559 54.686203 
L 22.878749 50.061779 
L 22.66892 46.854517 
L 22.45909 43.647255 
L 22.116861 38.426131 
L 21.774632 33.205006 
L 21.527565 29.427783 
L 21.280498 25.65056 
L 20.975507 20.990953 
L 20.823011 18.670297 
" style="fill:none;stroke:#808080;stroke-linecap:square;stroke-width:1.5;"/>
   </g>
   <g id="line2d_9">
    <path clip-path="url(#p2a3bee0db0)" d="M 125.010767 54.722793 
L 120.382696 56.799985 
L 115.511399 58.985891 
L 110.640103 61.171797 
L 105.768807 63.357703 
L 100.897511 65.543609 
L 96.611373 67.466699 
L 92.325235 69.38979 
L 88.039097 71.312881 
L 83.752959 73.235971 
L 80.59399 74.653485 
L 77.435021 76.071 
L 74.276052 77.488514 
L 71.117083 78.906028 
L 67.958114 80.323542 
L 64.799146 81.741056 
L 61.640177 83.15857 
L 58.481208 84.576084 
L 53.064354 87.006862 
L 47.647501 89.437641 
L 42.230648 91.868419 
L 36.813795 94.299197 
L 34.416419 95.374383 
L 29.550147 97.558529 
L 24.683875 99.742676 
L 20.630322 101.560922 
" style="fill:none;stroke:#808080;stroke-linecap:square;stroke-width:1.5;"/>
   </g>
   <g id="line2d_10">
    <path clip-path="url(#p2a3bee0db0)" d="M 85.306289 73.888964 
L 81.888727 75.415896 
L 76.716281 77.728108 
L 71.543835 80.040321 
L 66.371389 82.352533 
L 61.198943 84.664745 
L 56.637072 86.703939 
L 51.873055 88.8332 
L 47.128543 90.953315 
L 42.384031 93.073429 
L 38.433325 94.839604 
L 34.482619 96.60578 
L 30.621755 98.331143 
" style="fill:none;stroke:#808080;stroke-linecap:square;stroke-width:1.5;"/>
   </g>
   <g id="line2d_11">
    <path clip-path="url(#p2a3bee0db0)" d="M 14.059998 87.157093 
L 14.530489 83.759492 
L 15.00098 80.361891 
L 15.471471 76.96429 
L 15.941962 73.566689 
" style="fill:none;stroke:#808080;stroke-linecap:square;stroke-width:1.5;"/>
   </g>
   <g id="line2d_12">
    <path clip-path="url(#p2a3bee0db0)" d="M 24.596396 99.350036 
L 24.374745 96.131516 
L 24.153094 92.912995 
" style="fill:none;stroke:#808080;stroke-linecap:square;stroke-width:1.5;"/>
   </g>
   <g id="line2d_13">
    <path clip-path="url(#p2a3bee0db0)" d="M 22.028792 19.37536 
L 22.072383 20.597786 
L 22.115975 21.820211 
L 22.159566 23.042637 
L 22.203157 24.265062 
L 22.246749 25.487488 
L 22.29034 26.709914 
L 22.333931 27.932339 
L 22.377523 29.154765 
L 21.57692 29.798258 
L 20.776316 30.441751 
L 19.975713 31.085244 
L 19.17511 31.728737 
L 17.669066 32.908767 
L 16.163022 34.088798 
L 16.083819 35.498923 
L 16.004615 36.909049 
L 16.797239 37.72142 
L 17.589863 38.53379 
L 18.382486 39.34616 
L 19.17511 40.158531 
L 19.999061 40.910035 
L 20.823011 41.661539 
" style="fill:none;stroke:#4169e1;stroke-linecap:square;stroke-width:1.5;"/>
   </g>
   <g id="line2d_14">
    <path clip-path="url(#p2a3bee0db0)" d="M 23.391797 42.028847 
L 24.977045 41.982758 
L 26.562292 41.936668 
L 28.14754 41.890579 
L 29.732787 41.844489 
L 30.66047 42.511203 
L 31.588153 43.177917 
L 32.515836 43.84463 
L 33.443519 44.511344 
L 33.990258 45.852511 
L 34.536997 47.193679 
L 35.083736 48.534846 
L 35.630475 49.876014 
L 35.931772 50.845475 
L 36.23307 51.814937 
L 36.534367 52.784398 
L 36.835665 53.75386 
L 37.136962 54.723321 
L 37.43826 55.692783 
L 37.739557 56.662244 
L 38.040855 57.631705 
L 38.342004 58.589733 
L 38.643154 59.54776 
L 38.944304 60.505787 
L 39.245454 61.463814 
" style="fill:none;stroke:#4169e1;stroke-linecap:square;stroke-width:1.5;"/>
   </g>
   <g id="line2d_15">
    <path clip-path="url(#p2a3bee0db0)" d="M 35.155255 63.91535 
L 35.167224 65.612743 
L 35.179194 67.310136 
L 35.191163 69.007529 
L 35.203132 70.704922 
L 35.215101 72.402315 
L 35.22707 74.099708 
L 35.239039 75.797102 
L 35.251008 77.494495 
L 34.807116 78.88914 
L 34.363223 80.283785 
L 33.030953 80.881893 
L 31.698683 81.48 
L 31.191546 80.223271 
L 30.684408 78.966542 
L 30.177271 77.310841 
L 29.670134 75.655139 
L 28.87751 75.088696 
L 28.084886 74.522254 
" style="fill:none;stroke:#008000;stroke-linecap:square;stroke-width:1.5;"/>
   </g>
   <g id="line2d_16">
    <path clip-path="url(#p2a3bee0db0)" d="M 40.291646 60.912148 
L 40.71825 61.823997 
L 41.144854 62.735847 
L 41.571458 63.647697 
L 41.998063 64.559546 
L 42.424667 65.471396 
L 42.851271 66.383246 
L 43.277875 67.295095 
L 43.704479 68.206945 
L 44.131083 69.118795 
L 44.557688 70.030644 
L 44.984292 70.942494 
L 45.410896 71.854344 
L 45.8375 72.766193 
L 46.264104 73.678043 
L 46.690708 74.589893 
L 47.117312 75.501742 
L 47.65223 76.958309 
L 48.187148 78.414876 
L 48.171189 80.131092 
L 48.15523 81.847308 
L 47.774877 82.882034 
L 47.394524 83.916759 
L 47.014171 84.951485 
L 46.633818 85.98621 
L 45.49431 86.695055 
L 44.354803 87.4039 
L 43.215296 88.112745 
L 42.075788 88.82159 
L 40.936281 89.530435 
L 39.796773 90.23928 
L 38.657266 90.948125 
L 37.517759 91.65697 
L 36.378251 92.365815 
L 35.238744 93.07466 
L 34.099236 93.783505 
L 32.959729 94.49235 
L 31.820222 95.201195 
L 30.680714 95.91004 
L 29.541207 96.618885 
L 28.401699 97.32773 
" style="fill:none;stroke:#008000;stroke-linecap:square;stroke-width:1.5;"/>
   </g>
   <g id="line2d_17">
    <path clip-path="url(#p2a3bee0db0)" d="M 24.914391 48.405374 
L 25.124369 50.14868 
L 25.334346 51.891987 
L 25.544323 53.635294 
L 25.754301 55.3786 
L 25.964278 57.121907 
L 26.174255 58.865214 
L 26.384233 60.60852 
L 26.59421 62.351827 
" style="fill:none;stroke:#000000;stroke-linecap:square;stroke-width:1.5;"/>
   </g>
   <g id="line2d_18">
    <path clip-path="url(#p2a3bee0db0)" d="M 27.768073 62.873939 
L 26.864329 64.272455 
L 25.960584 65.67097 
L 25.056839 67.069486 
L 24.153094 68.468001 
L 23.24935 69.866517 
L 22.345605 71.265032 
L 21.44186 72.663547 
L 20.538116 74.062063 
" style="fill:none;stroke:#4169e1;stroke-linecap:square;stroke-width:1.5;"/>
   </g>
   <g id="line2d_19">
    <path clip-path="url(#p2a3bee0db0)" d="M 14.482021 36.970971 
L 13.41588 37.392461 
L 12.349739 37.81395 
L 11.283598 38.23544 
L 10.217457 38.65693 
L 9.151317 39.078419 
L 8.085176 39.499909 
L 7.019035 39.921399 
L 5.952894 40.342888 
L 6.713895 41.676316 
L 7.474897 43.009743 
L 8.235898 44.34317 
L 8.9969 45.676597 
L 9.757901 47.010025 
L 10.518903 48.343452 
L 11.279904 49.676879 
L 12.040906 51.010307 
L 11.890183 52.374343 
L 11.73946 53.738379 
L 11.588738 55.102416 
L 11.438015 56.466452 
L 10.724595 57.623613 
L 10.011174 58.780775 
L 9.297754 59.937937 
L 8.584333 61.095098 
L 9.702045 62.359567 
L 10.819757 63.624036 
L 11.937469 64.888505 
L 13.05518 66.152974 
L 14.172892 67.417443 
L 15.290604 68.681912 
L 16.408316 69.946381 
L 17.526027 71.210851 
" style="fill:none;stroke:#4169e1;stroke-linecap:square;stroke-width:1.5;"/>
   </g>
   <g id="text_1">
    <g id="patch_2">
     <path d="M 23.455855 81.429158 
L 27.763932 75.169647 
L 26.1365 74.049576 
L 21.828424 80.309087 
z
" style="fill:#ffffff;"/>
    </g>
    <!-- Red Lift -->
    <g style="fill:#808080;" transform="translate(23.108088 81.16553)rotate(-55.462507)scale(0.02 -0.02)">
     <defs>
      <path d="M 2841 2188 
Q 3044 2119 3236 1894 
Q 3428 1669 3622 1275 
L 4263 0 
L 3584 0 
L 2988 1197 
Q 2756 1666 2539 1819 
Q 2322 1972 1947 1972 
L 1259 1972 
L 1259 0 
L 628 0 
L 628 4666 
L 2053 4666 
Q 2853 4666 3247 4331 
Q 3641 3997 3641 3322 
Q 3641 2881 3436 2590 
Q 3231 2300 2841 2188 
z
M 1259 4147 
L 1259 2491 
L 2053 2491 
Q 2509 2491 2742 2702 
Q 2975 2913 2975 3322 
Q 2975 3731 2742 3939 
Q 2509 4147 2053 4147 
L 1259 4147 
z
" id="DejaVuSans-52" transform="scale(0.015625)"/>
      <path d="M 3597 1894 
L 3597 1613 
L 953 1613 
Q 991 1019 1311 708 
Q 1631 397 2203 397 
Q 2534 397 2845 478 
Q 3156 559 3463 722 
L 3463 178 
Q 3153 47 2828 -22 
Q 2503 -91 2169 -91 
Q 1331 -91 842 396 
Q 353 884 353 1716 
Q 353 2575 817 3079 
Q 1281 3584 2069 3584 
Q 2775 3584 3186 3129 
Q 3597 2675 3597 1894 
z
M 3022 2063 
Q 3016 2534 2758 2815 
Q 2500 3097 2075 3097 
Q 1594 3097 1305 2825 
Q 1016 2553 972 2059 
L 3022 2063 
z
" id="DejaVuSans-65" transform="scale(0.015625)"/>
      <path d="M 2906 2969 
L 2906 4863 
L 3481 4863 
L 3481 0 
L 2906 0 
L 2906 525 
Q 2725 213 2448 61 
Q 2172 -91 1784 -91 
Q 1150 -91 751 415 
Q 353 922 353 1747 
Q 353 2572 751 3078 
Q 1150 3584 1784 3584 
Q 2172 3584 2448 3432 
Q 2725 3281 2906 2969 
z
M 947 1747 
Q 947 1113 1208 752 
Q 1469 391 1925 391 
Q 2381 391 2643 752 
Q 2906 1113 2906 1747 
Q 2906 2381 2643 2742 
Q 2381 3103 1925 3103 
Q 1469 3103 1208 2742 
Q 947 2381 947 1747 
z
" id="DejaVuSans-64" transform="scale(0.015625)"/>
      <path id="DejaVuSans-20" transform="scale(0.015625)"/>
      <path d="M 628 4666 
L 1259 4666 
L 1259 531 
L 3531 531 
L 3531 0 
L 628 0 
L 628 4666 
z
" id="DejaVuSans-4c" transform="scale(0.015625)"/>
      <path d="M 603 3500 
L 1178 3500 
L 1178 0 
L 603 0 
L 603 3500 
z
M 603 4863 
L 1178 4863 
L 1178 4134 
L 603 4134 
L 603 4863 
z
" id="DejaVuSans-69" transform="scale(0.015625)"/>
      <path d="M 2375 4863 
L 2375 4384 
L 1825 4384 
Q 1516 4384 1395 4259 
Q 1275 4134 1275 3809 
L 1275 3500 
L 2222 3500 
L 2222 3053 
L 1275 3053 
L 1275 0 
L 697 0 
L 697 3053 
L 147 3053 
L 147 3500 
L 697 3500 
L 697 3744 
Q 697 4328 969 4595 
Q 1241 4863 1831 4863 
L 2375 4863 
z
" id="DejaVuSans-66" transform="scale(0.015625)"/>
      <path d="M 1172 4494 
L 1172 3500 
L 2356 3500 
L 2356 3053 
L 1172 3053 
L 1172 1153 
Q 1172 725 1289 603 
Q 1406 481 1766 481 
L 2356 481 
L 2356 0 
L 1766 0 
Q 1100 0 847 248 
Q 594 497 594 1153 
L 594 3053 
L 172 3053 
L 172 3500 
L 594 3500 
L 594 4494 
L 1172 4494 
z
" id="DejaVuSans-74" transform="scale(0.015625)"/>
     </defs>
     <use xlink:href="#DejaVuSans-52"/>
     <use x="64.982422" xlink:href="#DejaVuSans-65"/>
     <use x="126.505859" xlink:href="#DejaVuSans-64"/>
     <use x="189.982422" xlink:href="#DejaVuSans-20"/>
     <use x="221.769531" xlink:href="#DejaVuSans-4c"/>
     <use x="277.482422" xlink:href="#DejaVuSans-69"/>
     <use x="305.265625" xlink:href="#DejaVuSans-66"/>
     <use x="338.720703" xlink:href="#DejaVuSans-74"/>
    </g>
   </g>
   <g id="text_2">
    <g id="patch_3">
     <path d="M 23.568475 76.495555 
L 24.278745 85.678127 
L 26.248486 85.525768 
L 25.538217 76.343196 
z
" style="fill:#ffffff;"/>
    </g>
    <!-- Black Lift -->
    <g style="fill:#808080;" transform="translate(24.004657 76.481877)rotate(-274.423006)scale(0.02 -0.02)">
     <defs>
      <path d="M 1259 2228 
L 1259 519 
L 2272 519 
Q 2781 519 3026 730 
Q 3272 941 3272 1375 
Q 3272 1813 3026 2020 
Q 2781 2228 2272 2228 
L 1259 2228 
z
M 1259 4147 
L 1259 2741 
L 2194 2741 
Q 2656 2741 2882 2914 
Q 3109 3088 3109 3444 
Q 3109 3797 2882 3972 
Q 2656 4147 2194 4147 
L 1259 4147 
z
M 628 4666 
L 2241 4666 
Q 2963 4666 3353 4366 
Q 3744 4066 3744 3513 
Q 3744 3084 3544 2831 
Q 3344 2578 2956 2516 
Q 3422 2416 3680 2098 
Q 3938 1781 3938 1306 
Q 3938 681 3513 340 
Q 3088 0 2303 0 
L 628 0 
L 628 4666 
z
" id="DejaVuSans-42" transform="scale(0.015625)"/>
      <path d="M 603 4863 
L 1178 4863 
L 1178 0 
L 603 0 
L 603 4863 
z
" id="DejaVuSans-6c" transform="scale(0.015625)"/>
      <path d="M 2194 1759 
Q 1497 1759 1228 1600 
Q 959 1441 959 1056 
Q 959 750 1161 570 
Q 1363 391 1709 391 
Q 2188 391 2477 730 
Q 2766 1069 2766 1631 
L 2766 1759 
L 2194 1759 
z
M 3341 1997 
L 3341 0 
L 2766 0 
L 2766 531 
Q 2569 213 2275 61 
Q 1981 -91 1556 -91 
Q 1019 -91 701 211 
Q 384 513 384 1019 
Q 384 1609 779 1909 
Q 1175 2209 1959 2209 
L 2766 2209 
L 2766 2266 
Q 2766 2663 2505 2880 
Q 2244 3097 1772 3097 
Q 1472 3097 1187 3025 
Q 903 2953 641 2809 
L 641 3341 
Q 956 3463 1253 3523 
Q 1550 3584 1831 3584 
Q 2591 3584 2966 3190 
Q 3341 2797 3341 1997 
z
" id="DejaVuSans-61" transform="scale(0.015625)"/>
      <path d="M 3122 3366 
L 3122 2828 
Q 2878 2963 2633 3030 
Q 2388 3097 2138 3097 
Q 1578 3097 1268 2742 
Q 959 2388 959 1747 
Q 959 1106 1268 751 
Q 1578 397 2138 397 
Q 2388 397 2633 464 
Q 2878 531 3122 666 
L 3122 134 
Q 2881 22 2623 -34 
Q 2366 -91 2075 -91 
Q 1284 -91 818 406 
Q 353 903 353 1747 
Q 353 2603 823 3093 
Q 1294 3584 2113 3584 
Q 2378 3584 2631 3529 
Q 2884 3475 3122 3366 
z
" id="DejaVuSans-63" transform="scale(0.015625)"/>
      <path d="M 581 4863 
L 1159 4863 
L 1159 1991 
L 2875 3500 
L 3609 3500 
L 1753 1863 
L 3688 0 
L 2938 0 
L 1159 1709 
L 1159 0 
L 581 0 
L 581 4863 
z
" id="DejaVuSans-6b" transform="scale(0.015625)"/>
     </defs>
     <use xlink:href="#DejaVuSans-42"/>
     <use x="68.603516" xlink:href="#DejaVuSans-6c"/>
     <use x="96.386719" xlink:href="#DejaVuSans-61"/>
     <use x="157.666016" xlink:href="#DejaVuSans-63"/>
     <use x="212.646484" xlink:href="#DejaVuSans-6b"/>
     <use x="270.556641" xlink:href="#DejaVuSans-20"/>
     <use x="302.34375" xlink:href="#DejaVuSans-4c"/>
     <use x="358.056641" xlink:href="#DejaVuSans-69"/>
     <use x="385.839844" xlink:href="#DejaVuSans-66"/>
     <use x="419.294922" xlink:href="#DejaVuSans-74"/>
    </g>
   </g>
   <g id="text_3">
    <g id="patch_4">
     <path d="M 106.159401 63.916381 
L 115.817627 60.275869 
L 115.120805 58.427212 
L 105.46258 62.067724 
z
" style="fill:#ffffff;"/>
    </g>
    <!-- Scenic Lift -->
    <g style="fill:#808080;" transform="translate(106.024356 63.501406)rotate(-20.653122)scale(0.02 -0.02)">
     <defs>
      <path d="M 3425 4513 
L 3425 3897 
Q 3066 4069 2747 4153 
Q 2428 4238 2131 4238 
Q 1616 4238 1336 4038 
Q 1056 3838 1056 3469 
Q 1056 3159 1242 3001 
Q 1428 2844 1947 2747 
L 2328 2669 
Q 3034 2534 3370 2195 
Q 3706 1856 3706 1288 
Q 3706 609 3251 259 
Q 2797 -91 1919 -91 
Q 1588 -91 1214 -16 
Q 841 59 441 206 
L 441 856 
Q 825 641 1194 531 
Q 1563 422 1919 422 
Q 2459 422 2753 634 
Q 3047 847 3047 1241 
Q 3047 1584 2836 1778 
Q 2625 1972 2144 2069 
L 1759 2144 
Q 1053 2284 737 2584 
Q 422 2884 422 3419 
Q 422 4038 858 4394 
Q 1294 4750 2059 4750 
Q 2388 4750 2728 4690 
Q 3069 4631 3425 4513 
z
" id="DejaVuSans-53" transform="scale(0.015625)"/>
      <path d="M 3513 2113 
L 3513 0 
L 2938 0 
L 2938 2094 
Q 2938 2591 2744 2837 
Q 2550 3084 2163 3084 
Q 1697 3084 1428 2787 
Q 1159 2491 1159 1978 
L 1159 0 
L 581 0 
L 581 3500 
L 1159 3500 
L 1159 2956 
Q 1366 3272 1645 3428 
Q 1925 3584 2291 3584 
Q 2894 3584 3203 3211 
Q 3513 2838 3513 2113 
z
" id="DejaVuSans-6e" transform="scale(0.015625)"/>
     </defs>
     <use xlink:href="#DejaVuSans-53"/>
     <use x="63.476562" xlink:href="#DejaVuSans-63"/>
     <use x="118.457031" xlink:href="#DejaVuSans-65"/>
     <use x="179.980469" xlink:href="#DejaVuSans-6e"/>
     <use x="243.359375" xlink:href="#DejaVuSans-69"/>
     <use x="271.142578" xlink:href="#DejaVuSans-63"/>
     <use x="326.123047" xlink:href="#DejaVuSans-20"/>
     <use x="357.910156" xlink:href="#DejaVuSans-4c"/>
     <use x="413.623047" xlink:href="#DejaVuSans-69"/>
     <use x="441.40625" xlink:href="#DejaVuSans-66"/>
     <use x="474.861328" xlink:href="#DejaVuSans-74"/>
    </g>
   </g>
   <g id="text_4">
    <g id="patch_5">
     <path d="M 68.041211 82.410714 
L 75.740959 79.519459 
L 75.04646 77.669927 
L 67.346712 80.561183 
z
" style="fill:#ffffff;"/>
    </g>
    <!-- Blue Lift -->
    <g style="fill:#808080;" transform="translate(67.906687 81.995569)rotate(-20.581154)scale(0.02 -0.02)">
     <defs>
      <path d="M 544 1381 
L 544 3500 
L 1119 3500 
L 1119 1403 
Q 1119 906 1312 657 
Q 1506 409 1894 409 
Q 2359 409 2629 706 
Q 2900 1003 2900 1516 
L 2900 3500 
L 3475 3500 
L 3475 0 
L 2900 0 
L 2900 538 
Q 2691 219 2414 64 
Q 2138 -91 1772 -91 
Q 1169 -91 856 284 
Q 544 659 544 1381 
z
M 1991 3584 
L 1991 3584 
z
" id="DejaVuSans-75" transform="scale(0.015625)"/>
     </defs>
     <use xlink:href="#DejaVuSans-42"/>
     <use x="68.603516" xlink:href="#DejaVuSans-6c"/>
     <use x="96.386719" xlink:href="#DejaVuSans-75"/>
     <use x="159.765625" xlink:href="#DejaVuSans-65"/>
     <use x="221.289062" xlink:href="#DejaVuSans-20"/>
     <use x="253.076172" xlink:href="#DejaVuSans-4c"/>
     <use x="308.789062" xlink:href="#DejaVuSans-69"/>
     <use x="336.572266" xlink:href="#DejaVuSans-66"/>
     <use x="370.027344" xlink:href="#DejaVuSans-74"/>
    </g>
   </g>
   <g id="text_5">
    <g id="patch_6">
     <path d="M 10.858242 38.573965 
L 25.566035 28.893837 
L 24.47989 27.243569 
L 9.772097 36.923698 
z
" style="fill:#ffffff;"/>
    </g>
    <!-- Ober Chute 18.3° -->
    <g style="fill:#4169e1;" transform="translate(10.635282 38.198825)rotate(-33.351444)scale(0.02 -0.02)">
     <defs>
      <path d="M 2522 4238 
Q 1834 4238 1429 3725 
Q 1025 3213 1025 2328 
Q 1025 1447 1429 934 
Q 1834 422 2522 422 
Q 3209 422 3611 934 
Q 4013 1447 4013 2328 
Q 4013 3213 3611 3725 
Q 3209 4238 2522 4238 
z
M 2522 4750 
Q 3503 4750 4090 4092 
Q 4678 3434 4678 2328 
Q 4678 1225 4090 567 
Q 3503 -91 2522 -91 
Q 1538 -91 948 565 
Q 359 1222 359 2328 
Q 359 3434 948 4092 
Q 1538 4750 2522 4750 
z
" id="DejaVuSans-4f" transform="scale(0.015625)"/>
      <path d="M 3116 1747 
Q 3116 2381 2855 2742 
Q 2594 3103 2138 3103 
Q 1681 3103 1420 2742 
Q 1159 2381 1159 1747 
Q 1159 1113 1420 752 
Q 1681 391 2138 391 
Q 2594 391 2855 752 
Q 3116 1113 3116 1747 
z
M 1159 2969 
Q 1341 3281 1617 3432 
Q 1894 3584 2278 3584 
Q 2916 3584 3314 3078 
Q 3713 2572 3713 1747 
Q 3713 922 3314 415 
Q 2916 -91 2278 -91 
Q 1894 -91 1617 61 
Q 1341 213 1159 525 
L 1159 0 
L 581 0 
L 581 4863 
L 1159 4863 
L 1159 2969 
z
" id="DejaVuSans-62" transform="scale(0.015625)"/>
      <path d="M 2631 2963 
Q 2534 3019 2420 3045 
Q 2306 3072 2169 3072 
Q 1681 3072 1420 2755 
Q 1159 2438 1159 1844 
L 1159 0 
L 581 0 
L 581 3500 
L 1159 3500 
L 1159 2956 
Q 1341 3275 1631 3429 
Q 1922 3584 2338 3584 
Q 2397 3584 2469 3576 
Q 2541 3569 2628 3553 
L 2631 2963 
z
" id="DejaVuSans-72" transform="scale(0.015625)"/>
      <path d="M 4122 4306 
L 4122 3641 
Q 3803 3938 3442 4084 
Q 3081 4231 2675 4231 
Q 1875 4231 1450 3742 
Q 1025 3253 1025 2328 
Q 1025 1406 1450 917 
Q 1875 428 2675 428 
Q 3081 428 3442 575 
Q 3803 722 4122 1019 
L 4122 359 
Q 3791 134 3420 21 
Q 3050 -91 2638 -91 
Q 1578 -91 968 557 
Q 359 1206 359 2328 
Q 359 3453 968 4101 
Q 1578 4750 2638 4750 
Q 3056 4750 3426 4639 
Q 3797 4528 4122 4306 
z
" id="DejaVuSans-43" transform="scale(0.015625)"/>
      <path d="M 3513 2113 
L 3513 0 
L 2938 0 
L 2938 2094 
Q 2938 2591 2744 2837 
Q 2550 3084 2163 3084 
Q 1697 3084 1428 2787 
Q 1159 2491 1159 1978 
L 1159 0 
L 581 0 
L 581 4863 
L 1159 4863 
L 1159 2956 
Q 1366 3272 1645 3428 
Q 1925 3584 2291 3584 
Q 2894 3584 3203 3211 
Q 3513 2838 3513 2113 
z
" id="DejaVuSans-68" transform="scale(0.015625)"/>
      <path d="M 794 531 
L 1825 531 
L 1825 4091 
L 703 3866 
L 703 4441 
L 1819 4666 
L 2450 4666 
L 2450 531 
L 3481 531 
L 3481 0 
L 794 0 
L 794 531 
z
" id="DejaVuSans-31" transform="scale(0.015625)"/>
      <path d="M 2034 2216 
Q 1584 2216 1326 1975 
Q 1069 1734 1069 1313 
Q 1069 891 1326 650 
Q 1584 409 2034 409 
Q 2484 409 2743 651 
Q 3003 894 3003 1313 
Q 3003 1734 2745 1975 
Q 2488 2216 2034 2216 
z
M 1403 2484 
Q 997 2584 770 2862 
Q 544 3141 544 3541 
Q 544 4100 942 4425 
Q 1341 4750 2034 4750 
Q 2731 4750 3128 4425 
Q 3525 4100 3525 3541 
Q 3525 3141 3298 2862 
Q 3072 2584 2669 2484 
Q 3125 2378 3379 2068 
Q 3634 1759 3634 1313 
Q 3634 634 3220 271 
Q 2806 -91 2034 -91 
Q 1263 -91 848 271 
Q 434 634 434 1313 
Q 434 1759 690 2068 
Q 947 2378 1403 2484 
z
M 1172 3481 
Q 1172 3119 1398 2916 
Q 1625 2713 2034 2713 
Q 2441 2713 2670 2916 
Q 2900 3119 2900 3481 
Q 2900 3844 2670 4047 
Q 2441 4250 2034 4250 
Q 1625 4250 1398 4047 
Q 1172 3844 1172 3481 
z
" id="DejaVuSans-38" transform="scale(0.015625)"/>
      <path d="M 684 794 
L 1344 794 
L 1344 0 
L 684 0 
L 684 794 
z
" id="DejaVuSans-2e" transform="scale(0.015625)"/>
      <path d="M 2597 2516 
Q 3050 2419 3304 2112 
Q 3559 1806 3559 1356 
Q 3559 666 3084 287 
Q 2609 -91 1734 -91 
Q 1441 -91 1130 -33 
Q 819 25 488 141 
L 488 750 
Q 750 597 1062 519 
Q 1375 441 1716 441 
Q 2309 441 2620 675 
Q 2931 909 2931 1356 
Q 2931 1769 2642 2001 
Q 2353 2234 1838 2234 
L 1294 2234 
L 1294 2753 
L 1863 2753 
Q 2328 2753 2575 2939 
Q 2822 3125 2822 3475 
Q 2822 3834 2567 4026 
Q 2313 4219 1838 4219 
Q 1578 4219 1281 4162 
Q 984 4106 628 3988 
L 628 4550 
Q 988 4650 1302 4700 
Q 1616 4750 1894 4750 
Q 2613 4750 3031 4423 
Q 3450 4097 3450 3541 
Q 3450 3153 3228 2886 
Q 3006 2619 2597 2516 
z
" id="DejaVuSans-33" transform="scale(0.015625)"/>
      <path d="M 1600 4347 
Q 1350 4347 1178 4173 
Q 1006 4000 1006 3750 
Q 1006 3503 1178 3333 
Q 1350 3163 1600 3163 
Q 1850 3163 2022 3333 
Q 2194 3503 2194 3750 
Q 2194 3997 2020 4172 
Q 1847 4347 1600 4347 
z
M 1600 4750 
Q 1800 4750 1984 4673 
Q 2169 4597 2303 4453 
Q 2447 4313 2519 4134 
Q 2591 3956 2591 3750 
Q 2591 3338 2302 3052 
Q 2013 2766 1594 2766 
Q 1172 2766 890 3047 
Q 609 3328 609 3750 
Q 609 4169 896 4459 
Q 1184 4750 1600 4750 
z
" id="DejaVuSans-b0" transform="scale(0.015625)"/>
     </defs>
     <use xlink:href="#DejaVuSans-4f"/>
     <use x="78.710938" xlink:href="#DejaVuSans-62"/>
     <use x="142.1875" xlink:href="#DejaVuSans-65"/>
     <use x="203.710938" xlink:href="#DejaVuSans-72"/>
     <use x="244.824219" xlink:href="#DejaVuSans-20"/>
     <use x="276.611328" xlink:href="#DejaVuSans-43"/>
     <use x="346.435547" xlink:href="#DejaVuSans-68"/>
     <use x="409.814453" xlink:href="#DejaVuSans-75"/>
     <use x="473.193359" xlink:href="#DejaVuSans-74"/>
     <use x="512.402344" xlink:href="#DejaVuSans-65"/>
     <use x="573.925781" xlink:href="#DejaVuSans-20"/>
     <use x="605.712891" xlink:href="#DejaVuSans-31"/>
     <use x="669.335938" xlink:href="#DejaVuSans-38"/>
     <use x="732.958984" xlink:href="#DejaVuSans-2e"/>
     <use x="764.746094" xlink:href="#DejaVuSans-33"/>
     <use x="828.369141" xlink:href="#DejaVuSans-b0"/>
    </g>
   </g>
   <g id="text_6">
    <g id="patch_7">
     <path d="M 30.927801 42.448427 
L 38.555775 58.166177 
L 40.333149 57.303601 
L 32.705174 41.585851 
z
" style="fill:#ffffff;"/>
    </g>
    <!-- Upper Bear 17.7° -->
    <g style="fill:#4169e1;" transform="translate(31.328725 42.276086)rotate(-295.887742)scale(0.02 -0.02)">
     <defs>
      <path d="M 556 4666 
L 1191 4666 
L 1191 1831 
Q 1191 1081 1462 751 
Q 1734 422 2344 422 
Q 2950 422 3222 751 
Q 3494 1081 3494 1831 
L 3494 4666 
L 4128 4666 
L 4128 1753 
Q 4128 841 3676 375 
Q 3225 -91 2344 -91 
Q 1459 -91 1007 375 
Q 556 841 556 1753 
L 556 4666 
z
" id="DejaVuSans-55" transform="scale(0.015625)"/>
      <path d="M 1159 525 
L 1159 -1331 
L 581 -1331 
L 581 3500 
L 1159 3500 
L 1159 2969 
Q 1341 3281 1617 3432 
Q 1894 3584 2278 3584 
Q 2916 3584 3314 3078 
Q 3713 2572 3713 1747 
Q 3713 922 3314 415 
Q 2916 -91 2278 -91 
Q 1894 -91 1617 61 
Q 1341 213 1159 525 
z
M 3116 1747 
Q 3116 2381 2855 2742 
Q 2594 3103 2138 3103 
Q 1681 3103 1420 2742 
Q 1159 2381 1159 1747 
Q 1159 1113 1420 752 
Q 1681 391 2138 391 
Q 2594 391 2855 752 
Q 3116 1113 3116 1747 
z
" id="DejaVuSans-70" transform="scale(0.015625)"/>
      <path d="M 525 4666 
L 3525 4666 
L 3525 4397 
L 1831 0 
L 1172 0 
L 2766 4134 
L 525 4134 
L 525 4666 
z
" id="DejaVuSans-37" transform="scale(0.015625)"/>
     </defs>
     <use xlink:href="#DejaVuSans-55"/>
     <use x="73.193359" xlink:href="#DejaVuSans-70"/>
     <use x="136.669922" xlink:href="#DejaVuSans-70"/>
     <use x="200.146484" xlink:href="#DejaVuSans-65"/>
     <use x="261.669922" xlink:href="#DejaVuSans-72"/>
     <use x="302.783203" xlink:href="#DejaVuSans-20"/>
     <use x="334.570312" xlink:href="#DejaVuSans-42"/>
     <use x="403.173828" xlink:href="#DejaVuSans-65"/>
     <use x="464.697266" xlink:href="#DejaVuSans-61"/>
     <use x="525.976562" xlink:href="#DejaVuSans-72"/>
     <use x="567.089844" xlink:href="#DejaVuSans-20"/>
     <use x="598.876953" xlink:href="#DejaVuSans-31"/>
     <use x="662.5" xlink:href="#DejaVuSans-37"/>
     <use x="726.123047" xlink:href="#DejaVuSans-2e"/>
     <use x="757.910156" xlink:href="#DejaVuSans-37"/>
     <use x="821.533203" xlink:href="#DejaVuSans-b0"/>
    </g>
   </g>
   <g id="text_7">
    <g id="patch_8">
     <path d="M 34.181854 67.265742 
L 34.296731 80.950259 
L 36.272286 80.933675 
L 36.157409 67.249157 
z
" style="fill:#ffffff;"/>
    </g>
    <!-- Cub Way 9.1° -->
    <g style="fill:#008000;" transform="translate(34.617944 67.282081)rotate(-270.480967)scale(0.02 -0.02)">
     <defs>
      <path d="M 213 4666 
L 850 4666 
L 1831 722 
L 2809 4666 
L 3519 4666 
L 4500 722 
L 5478 4666 
L 6119 4666 
L 4947 0 
L 4153 0 
L 3169 4050 
L 2175 0 
L 1381 0 
L 213 4666 
z
" id="DejaVuSans-57" transform="scale(0.015625)"/>
      <path d="M 2059 -325 
Q 1816 -950 1584 -1140 
Q 1353 -1331 966 -1331 
L 506 -1331 
L 506 -850 
L 844 -850 
Q 1081 -850 1212 -737 
Q 1344 -625 1503 -206 
L 1606 56 
L 191 3500 
L 800 3500 
L 1894 763 
L 2988 3500 
L 3597 3500 
L 2059 -325 
z
" id="DejaVuSans-79" transform="scale(0.015625)"/>
      <path d="M 703 97 
L 703 672 
Q 941 559 1184 500 
Q 1428 441 1663 441 
Q 2288 441 2617 861 
Q 2947 1281 2994 2138 
Q 2813 1869 2534 1725 
Q 2256 1581 1919 1581 
Q 1219 1581 811 2004 
Q 403 2428 403 3163 
Q 403 3881 828 4315 
Q 1253 4750 1959 4750 
Q 2769 4750 3195 4129 
Q 3622 3509 3622 2328 
Q 3622 1225 3098 567 
Q 2575 -91 1691 -91 
Q 1453 -91 1209 -44 
Q 966 3 703 97 
z
M 1959 2075 
Q 2384 2075 2632 2365 
Q 2881 2656 2881 3163 
Q 2881 3666 2632 3958 
Q 2384 4250 1959 4250 
Q 1534 4250 1286 3958 
Q 1038 3666 1038 3163 
Q 1038 2656 1286 2365 
Q 1534 2075 1959 2075 
z
" id="DejaVuSans-39" transform="scale(0.015625)"/>
     </defs>
     <use xlink:href="#DejaVuSans-43"/>
     <use x="69.824219" xlink:href="#DejaVuSans-75"/>
     <use x="133.203125" xlink:href="#DejaVuSans-62"/>
     <use x="196.679688" xlink:href="#DejaVuSans-20"/>
     <use x="228.466797" xlink:href="#DejaVuSans-57"/>
     <use x="320.96875" xlink:href="#DejaVuSans-61"/>
     <use x="382.248047" xlink:href="#DejaVuSans-79"/>
     <use x="441.427734" xlink:href="#DejaVuSans-20"/>
     <use x="473.214844" xlink:href="#DejaVuSans-39"/>
     <use x="536.837891" xlink:href="#DejaVuSans-2e"/>
     <use x="568.625" xlink:href="#DejaVuSans-31"/>
     <use x="632.248047" xlink:href="#DejaVuSans-b0"/>
    </g>
   </g>
   <g id="text_8">
    <g id="patch_9">
     <path d="M 40.313065 64.731493 
L 48.782749 79.938494 
L 50.508727 78.977194 
L 42.039042 63.770194 
z
" style="fill:#ffffff;"/>
    </g>
    <!-- Lower Bear 11.6° -->
    <g style="fill:#008000;" transform="translate(40.703647 64.536847)rotate(-299.116039)scale(0.02 -0.02)">
     <defs>
      <path d="M 1959 3097 
Q 1497 3097 1228 2736 
Q 959 2375 959 1747 
Q 959 1119 1226 758 
Q 1494 397 1959 397 
Q 2419 397 2687 759 
Q 2956 1122 2956 1747 
Q 2956 2369 2687 2733 
Q 2419 3097 1959 3097 
z
M 1959 3584 
Q 2709 3584 3137 3096 
Q 3566 2609 3566 1747 
Q 3566 888 3137 398 
Q 2709 -91 1959 -91 
Q 1206 -91 779 398 
Q 353 888 353 1747 
Q 353 2609 779 3096 
Q 1206 3584 1959 3584 
z
" id="DejaVuSans-6f" transform="scale(0.015625)"/>
      <path d="M 269 3500 
L 844 3500 
L 1563 769 
L 2278 3500 
L 2956 3500 
L 3675 769 
L 4391 3500 
L 4966 3500 
L 4050 0 
L 3372 0 
L 2619 2869 
L 1863 0 
L 1184 0 
L 269 3500 
z
" id="DejaVuSans-77" transform="scale(0.015625)"/>
      <path d="M 2113 2584 
Q 1688 2584 1439 2293 
Q 1191 2003 1191 1497 
Q 1191 994 1439 701 
Q 1688 409 2113 409 
Q 2538 409 2786 701 
Q 3034 994 3034 1497 
Q 3034 2003 2786 2293 
Q 2538 2584 2113 2584 
z
M 3366 4563 
L 3366 3988 
Q 3128 4100 2886 4159 
Q 2644 4219 2406 4219 
Q 1781 4219 1451 3797 
Q 1122 3375 1075 2522 
Q 1259 2794 1537 2939 
Q 1816 3084 2150 3084 
Q 2853 3084 3261 2657 
Q 3669 2231 3669 1497 
Q 3669 778 3244 343 
Q 2819 -91 2113 -91 
Q 1303 -91 875 529 
Q 447 1150 447 2328 
Q 447 3434 972 4092 
Q 1497 4750 2381 4750 
Q 2619 4750 2861 4703 
Q 3103 4656 3366 4563 
z
" id="DejaVuSans-36" transform="scale(0.015625)"/>
     </defs>
     <use xlink:href="#DejaVuSans-4c"/>
     <use x="53.962891" xlink:href="#DejaVuSans-6f"/>
     <use x="115.144531" xlink:href="#DejaVuSans-77"/>
     <use x="196.931641" xlink:href="#DejaVuSans-65"/>
     <use x="258.455078" xlink:href="#DejaVuSans-72"/>
     <use x="299.568359" xlink:href="#DejaVuSans-20"/>
     <use x="331.355469" xlink:href="#DejaVuSans-42"/>
     <use x="399.958984" xlink:href="#DejaVuSans-65"/>
     <use x="461.482422" xlink:href="#DejaVuSans-61"/>
     <use x="522.761719" xlink:href="#DejaVuSans-72"/>
     <use x="563.875" xlink:href="#DejaVuSans-20"/>
     <use x="595.662109" xlink:href="#DejaVuSans-31"/>
     <use x="659.285156" xlink:href="#DejaVuSans-31"/>
     <use x="722.908203" xlink:href="#DejaVuSans-2e"/>
     <use x="754.695312" xlink:href="#DejaVuSans-36"/>
     <use x="818.318359" xlink:href="#DejaVuSans-b0"/>
    </g>
   </g>
   <g id="text_9">
    <g id="patch_10">
     <path d="M 11.727221 61.623677 
L 13.409005 48.838818 
L 11.450255 48.581154 
L 9.76847 61.366013 
z
" style="fill:#ffffff;"/>
    </g>
    <!-- Grizzly 19.2° -->
    <g style="fill:#4169e1;" transform="translate(11.297615 61.546992)rotate(-82.506054)scale(0.02 -0.02)">
     <defs>
      <path d="M 3809 666 
L 3809 1919 
L 2778 1919 
L 2778 2438 
L 4434 2438 
L 4434 434 
Q 4069 175 3628 42 
Q 3188 -91 2688 -91 
Q 1594 -91 976 548 
Q 359 1188 359 2328 
Q 359 3472 976 4111 
Q 1594 4750 2688 4750 
Q 3144 4750 3555 4637 
Q 3966 4525 4313 4306 
L 4313 3634 
Q 3963 3931 3569 4081 
Q 3175 4231 2741 4231 
Q 1884 4231 1454 3753 
Q 1025 3275 1025 2328 
Q 1025 1384 1454 906 
Q 1884 428 2741 428 
Q 3075 428 3337 486 
Q 3600 544 3809 666 
z
" id="DejaVuSans-47" transform="scale(0.015625)"/>
      <path d="M 353 3500 
L 3084 3500 
L 3084 2975 
L 922 459 
L 3084 459 
L 3084 0 
L 275 0 
L 275 525 
L 2438 3041 
L 353 3041 
L 353 3500 
z
" id="DejaVuSans-7a" transform="scale(0.015625)"/>
      <path d="M 1228 531 
L 3431 531 
L 3431 0 
L 469 0 
L 469 531 
Q 828 903 1448 1529 
Q 2069 2156 2228 2338 
Q 2531 2678 2651 2914 
Q 2772 3150 2772 3378 
Q 2772 3750 2511 3984 
Q 2250 4219 1831 4219 
Q 1534 4219 1204 4116 
Q 875 4013 500 3803 
L 500 4441 
Q 881 4594 1212 4672 
Q 1544 4750 1819 4750 
Q 2544 4750 2975 4387 
Q 3406 4025 3406 3419 
Q 3406 3131 3298 2873 
Q 3191 2616 2906 2266 
Q 2828 2175 2409 1742 
Q 1991 1309 1228 531 
z
" id="DejaVuSans-32" transform="scale(0.015625)"/>
     </defs>
     <use xlink:href="#DejaVuSans-47"/>
     <use x="77.490234" xlink:href="#DejaVuSans-72"/>
     <use x="118.603516" xlink:href="#DejaVuSans-69"/>
     <use x="146.386719" xlink:href="#DejaVuSans-7a"/>
     <use x="198.876953" xlink:href="#DejaVuSans-7a"/>
     <use x="251.367188" xlink:href="#DejaVuSans-6c"/>
     <use x="279.150391" xlink:href="#DejaVuSans-79"/>
     <use x="338.330078" xlink:href="#DejaVuSans-20"/>
     <use x="370.117188" xlink:href="#DejaVuSans-31"/>
     <use x="433.740234" xlink:href="#DejaVuSans-39"/>
     <use x="497.363281" xlink:href="#DejaVuSans-2e"/>
     <use x="529.150391" xlink:href="#DejaVuSans-32"/>
     <use x="592.773438" xlink:href="#DejaVuSans-b0"/>
    </g>
   </g>
   <g id="text_10">
    <!-- Ober Gatlinburg -->
    <g transform="translate(29.336283 10.025766)scale(0.09 -0.09)">
     <defs>
      <path d="M 2906 1791 
Q 2906 2416 2648 2759 
Q 2391 3103 1925 3103 
Q 1463 3103 1205 2759 
Q 947 2416 947 1791 
Q 947 1169 1205 825 
Q 1463 481 1925 481 
Q 2391 481 2648 825 
Q 2906 1169 2906 1791 
z
M 3481 434 
Q 3481 -459 3084 -895 
Q 2688 -1331 1869 -1331 
Q 1566 -1331 1297 -1286 
Q 1028 -1241 775 -1147 
L 775 -588 
Q 1028 -725 1275 -790 
Q 1522 -856 1778 -856 
Q 2344 -856 2625 -561 
Q 2906 -266 2906 331 
L 2906 616 
Q 2728 306 2450 153 
Q 2172 0 1784 0 
Q 1141 0 747 490 
Q 353 981 353 1791 
Q 353 2603 747 3093 
Q 1141 3584 1784 3584 
Q 2172 3584 2450 3431 
Q 2728 3278 2906 2969 
L 2906 3500 
L 3481 3500 
L 3481 434 
z
" id="DejaVuSans-67" transform="scale(0.015625)"/>
     </defs>
     <use xlink:href="#DejaVuSans-4f"/>
     <use x="78.710938" xlink:href="#DejaVuSans-62"/>
     <use x="142.1875" xlink:href="#DejaVuSans-65"/>
     <use x="203.710938" xlink:href="#DejaVuSans-72"/>
     <use x="244.824219" xlink:href="#DejaVuSans-20"/>
     <use x="276.611328" xlink:href="#DejaVuSans-47"/>
     <use x="354.101562" xlink:href="#DejaVuSans-61"/>
     <use x="415.380859" xlink:href="#DejaVuSans-74"/>
     <use x="454.589844" xlink:href="#DejaVuSans-6c"/>
     <use x="482.373047" xlink:href="#DejaVuSans-69"/>
     <use x="510.15625" xlink:href="#DejaVuSans-6e"/>
     <use x="573.535156" xlink:href="#DejaVuSans-62"/>
     <use x="637.011719" xlink:href="#DejaVuSans-75"/>
     <use x="700.390625" xlink:href="#DejaVuSans-72"/>
     <use x="739.753906" xlink:href="#DejaVuSans-67"/>
    </g>
   </g>
   <g id="legend_1">
    <g id="line2d_20">
     <path d="M 2.480073 103.555335 
L 11.480073 103.555335 
" style="fill:none;stroke:#008000;stroke-linecap:square;stroke-width:1.5;"/>
    </g>
    <g id="line2d_21"/>
    <g id="text_11">
     <!-- Easy -->
     <g transform="translate(15.080073 105.130335)scale(0.045 -0.045)">
      <defs>
       <path d="M 628 4666 
L 3578 4666 
L 3578 4134 
L 1259 4134 
L 1259 2753 
L 3481 2753 
L 3481 2222 
L 1259 2222 
L 1259 531 
L 3634 531 
L 3634 0 
L 628 0 
L 628 4666 
z
" id="DejaVuSans-45" transform="scale(0.015625)"/>
       <path d="M 2834 3397 
L 2834 2853 
Q 2591 2978 2328 3040 
Q 2066 3103 1784 3103 
Q 1356 3103 1142 2972 
Q 928 2841 928 2578 
Q 928 2378 1081 2264 
Q 1234 2150 1697 2047 
L 1894 2003 
Q 2506 1872 2764 1633 
Q 3022 1394 3022 966 
Q 3022 478 2636 193 
Q 2250 -91 1575 -91 
Q 1294 -91 989 -36 
Q 684 19 347 128 
L 347 722 
Q 666 556 975 473 
Q 1284 391 1588 391 
Q 1994 391 2212 530 
Q 2431 669 2431 922 
Q 2431 1156 2273 1281 
Q 2116 1406 1581 1522 
L 1381 1569 
Q 847 1681 609 1914 
Q 372 2147 372 2553 
Q 372 3047 722 3315 
Q 1072 3584 1716 3584 
Q 2034 3584 2315 3537 
Q 2597 3491 2834 3397 
z
" id="DejaVuSans-73" transform="scale(0.015625)"/>
      </defs>
      <use xlink:href="#DejaVuSans-45"/>
      <use x="63.183594" xlink:href="#DejaVuSans-61"/>
      <use x="124.462891" xlink:href="#DejaVuSans-73"/>
      <use x="176.5625" xlink:href="#DejaVuSans-79"/>
     </g>
    </g>
    <g id="line2d_22">
     <path d="M 2.480073 110.160492 
L 11.480073 110.160492 
" style="fill:none;stroke:#4169e1;stroke-linecap:square;stroke-width:1.5;"/>
    </g>
    <g id="line2d_23"/>
    <g id="text_12">
     <!-- Intermediate -->
     <g transform="translate(15.080073 111.735492)scale(0.045 -0.045)">
      <defs>
       <path d="M 628 4666 
L 1259 4666 
L 1259 0 
L 628 0 
L 628 4666 
z
" id="DejaVuSans-49" transform="scale(0.015625)"/>
       <path d="M 3328 2828 
Q 3544 3216 3844 3400 
Q 4144 3584 4550 3584 
Q 5097 3584 5394 3201 
Q 5691 2819 5691 2113 
L 5691 0 
L 5113 0 
L 5113 2094 
Q 5113 2597 4934 2840 
Q 4756 3084 4391 3084 
Q 3944 3084 3684 2787 
Q 3425 2491 3425 1978 
L 3425 0 
L 2847 0 
L 2847 2094 
Q 2847 2600 2669 2842 
Q 2491 3084 2119 3084 
Q 1678 3084 1418 2786 
Q 1159 2488 1159 1978 
L 1159 0 
L 581 0 
L 581 3500 
L 1159 3500 
L 1159 2956 
Q 1356 3278 1631 3431 
Q 1906 3584 2284 3584 
Q 2666 3584 2933 3390 
Q 3200 3197 3328 2828 
z
" id="DejaVuSans-6d" transform="scale(0.015625)"/>
      </defs>
      <use xlink:href="#DejaVuSans-49"/>
      <use x="29.492188" xlink:href="#DejaVuSans-6e"/>
      <use x="92.871094" xlink:href="#DejaVuSans-74"/>
      <use x="132.080078" xlink:href="#DejaVuSans-65"/>
      <use x="193.603516" xlink:href="#DejaVuSans-72"/>
      <use x="232.966797" xlink:href="#DejaVuSans-6d"/>
      <use x="330.378906" xlink:href="#DejaVuSans-65"/>
      <use x="391.902344" xlink:href="#DejaVuSans-64"/>
      <use x="455.378906" xlink:href="#DejaVuSans-69"/>
      <use x="483.162109" xlink:href="#DejaVuSans-61"/>
      <use x="544.441406" xlink:href="#DejaVuSans-74"/>
      <use x="583.650391" xlink:href="#DejaVuSans-65"/>
     </g>
    </g>
    <g id="line2d_24">
     <path d="M 53.11351 103.555335 
L 62.11351 103.555335 
" style="fill:none;stroke:#000000;stroke-linecap:square;stroke-width:1.5;"/>
    </g>
    <g id="line2d_25"/>
    <g id="text_13">
     <!-- Advanced -->
     <g transform="translate(65.71351 105.130335)scale(0.045 -0.045)">
      <defs>
       <path d="M 2188 4044 
L 1331 1722 
L 3047 1722 
L 2188 4044 
z
M 1831 4666 
L 2547 4666 
L 4325 0 
L 3669 0 
L 3244 1197 
L 1141 1197 
L 716 0 
L 50 0 
L 1831 4666 
z
" id="DejaVuSans-41" transform="scale(0.015625)"/>
       <path d="M 191 3500 
L 800 3500 
L 1894 563 
L 2988 3500 
L 3597 3500 
L 2284 0 
L 1503 0 
L 191 3500 
z
" id="DejaVuSans-76" transform="scale(0.015625)"/>
      </defs>
      <use xlink:href="#DejaVuSans-41"/>
      <use x="66.658203" xlink:href="#DejaVuSans-64"/>
      <use x="130.134766" xlink:href="#DejaVuSans-76"/>
      <use x="189.314453" xlink:href="#DejaVuSans-61"/>
      <use x="250.59375" xlink:href="#DejaVuSans-6e"/>
      <use x="313.972656" xlink:href="#DejaVuSans-63"/>
      <use x="368.953125" xlink:href="#DejaVuSans-65"/>
      <use x="430.476562" xlink:href="#DejaVuSans-64"/>
     </g>
    </g>
    <g id="line2d_26">
     <path d="M 53.11351 110.160492 
L 62.11351 110.160492 
" style="fill:none;stroke:#ff0000;stroke-linecap:square;stroke-width:1.5;"/>
    </g>
    <g id="line2d_27"/>
    <g id="text_14">
     <!-- Expert -->
     <g transform="translate(65.71351 111.735492)scale(0.045 -0.045)">
      <defs>
       <path d="M 3513 3500 
L 2247 1797 
L 3578 0 
L 2900 0 
L 1881 1375 
L 863 0 
L 184 0 
L 1544 1831 
L 300 3500 
L 978 3500 
L 1906 2253 
L 2834 3500 
L 3513 3500 
z
" id="DejaVuSans-78" transform="scale(0.015625)"/>
      </defs>
      <use xlink:href="#DejaVuSans-45"/>
      <use x="63.183594" xlink:href="#DejaVuSans-78"/>
      <use x="122.363281" xlink:href="#DejaVuSans-70"/>
      <use x="185.839844" xlink:href="#DejaVuSans-65"/>
      <use x="247.363281" xlink:href="#DejaVuSans-72"/>
      <use x="288.476562" xlink:href="#DejaVuSans-74"/>
     </g>
    </g>
    <g id="line2d_28">
     <path d="M 96.942807 103.555335 
L 105.942807 103.555335 
" style="fill:none;stroke:#ffd700;stroke-linecap:square;stroke-width:1.5;"/>
    </g>
    <g id="line2d_29"/>
    <g id="text_15">
     <!-- Extreme -->
     <g transform="translate(109.542807 105.130335)scale(0.045 -0.045)">
      <use xlink:href="#DejaVuSans-45"/>
      <use x="63.183594" xlink:href="#DejaVuSans-78"/>
      <use x="122.363281" xlink:href="#DejaVuSans-74"/>
      <use x="161.572266" xlink:href="#DejaVuSans-72"/>
      <use x="200.435547" xlink:href="#DejaVuSans-65"/>
      <use x="261.958984" xlink:href="#DejaVuSans-6d"/>
      <use x="359.371094" xlink:href="#DejaVuSans-65"/>
     </g>
    </g>
    <g id="line2d_30">
     <path d="M 96.942807 110.160492 
L 105.942807 110.160492 
" style="fill:none;stroke:#000000;stroke-dasharray:1.5,2.475;stroke-dashoffset:0;stroke-width:1.5;"/>
    </g>
    <g id="line2d_31"/>
    <g id="text_16">
     <!-- Gladed -->
     <g transform="translate(109.542807 111.735492)scale(0.045 -0.045)">
      <use xlink:href="#DejaVuSans-47"/>
      <use x="77.490234" xlink:href="#DejaVuSans-6c"/>
      <use x="105.273438" xlink:href="#DejaVuSans-61"/>
      <use x="166.552734" xlink:href="#DejaVuSans-64"/>
      <use x="230.029297" xlink:href="#DejaVuSans-65"/>
      <use x="291.552734" xlink:href="#DejaVuSans-64"/>
     </g>
    </g>
   </g>
  </g>
  <g id="text_17">
   <!-- Sources: USGS and OpenStreetMaps -->
   <g transform="translate(29.787231 119.417428)scale(0.03913 -0.03913)">
    <defs>
     <path d="M 750 794 
L 1409 794 
L 1409 0 
L 750 0 
L 750 794 
z
M 750 3309 
L 1409 3309 
L 1409 2516 
L 750 2516 
L 750 3309 
z
" id="DejaVuSans-3a" transform="scale(0.015625)"/>
     <path d="M 628 4666 
L 1569 4666 
L 2759 1491 
L 3956 4666 
L 4897 4666 
L 4897 0 
L 4281 0 
L 4281 4097 
L 3078 897 
L 2444 897 
L 1241 4097 
L 1241 0 
L 628 0 
L 628 4666 
z
" id="DejaVuSans-4d" transform="scale(0.015625)"/>
    </defs>
    <use xlink:href="#DejaVuSans-53"/>
    <use x="63.476562" xlink:href="#DejaVuSans-6f"/>
    <use x="124.658203" xlink:href="#DejaVuSans-75"/>
    <use x="188.037109" xlink:href="#DejaVuSans-72"/>
    <use x="226.900391" xlink:href="#DejaVuSans-63"/>
    <use x="281.880859" xlink:href="#DejaVuSans-65"/>
    <use x="343.404297" xlink:href="#DejaVuSans-73"/>
    <use x="395.503906" xlink:href="#DejaVuSans-3a"/>
    <use x="429.195312" xlink:href="#DejaVuSans-20"/>
    <use x="460.982422" xlink:href="#DejaVuSans-55"/>
    <use x="534.175781" xlink:href="#DejaVuSans-53"/>
    <use x="597.652344" xlink:href="#DejaVuSans-47"/>
    <use x="675.142578" xlink:href="#DejaVuSans-53"/>
    <use x="738.619141" xlink:href="#DejaVuSans-20"/>
    <use x="770.40625" xlink:href="#DejaVuSans-61"/>
    <use x="831.685547" xlink:href="#DejaVuSans-6e"/>
    <use x="895.064453" xlink:href="#DejaVuSans-64"/>
    <use x="958.541016" xlink:href="#DejaVuSans-20"/>
    <use x="990.328125" xlink:href="#DejaVuSans-4f"/>
    <use x="1069.039062" xlink:href="#DejaVuSans-70"/>
    <use x="1132.515625" xlink:href="#DejaVuSans-65"/>
    <use x="1194.039062" xlink:href="#DejaVuSans-6e"/>
    <use x="1257.417969" xlink:href="#DejaVuSans-53"/>
    <use x="1320.894531" xlink:href="#DejaVuSans-74"/>
    <use x="1360.103516" xlink:href="#DejaVuSans-72"/>
    <use x="1398.966797" xlink:href="#DejaVuSans-65"/>
    <use x="1460.490234" xlink:href="#DejaVuSans-65"/>
    <use x="1522.013672" xlink:href="#DejaVuSans-74"/>
    <use x="1561.222656" xlink:href="#DejaVuSans-4d"/>
    <use x="1647.501953" xlink:href="#DejaVuSans-61"/>
    <use x="1708.78125" xlink:href="#DejaVuSans-70"/>
    <use x="1772.257812" xlink:href="#DejaVuSans-73"/>
   </g>
  </g>
 </g>
 <defs>
  <clipPath id="p2a3bee0db0">
   <rect height="91.179688" width="130.963661" x="0" y="14.525766"/>
  </clipPath>
 </defs>
</svg>
