<?xml version="1.0" encoding="utf-8" standalone="no"?>
<!DOCTYPE svg PUBLIC "-//W3C//DTD SVG 1.1//EN"
  "http://www.w3.org/Graphics/SVG/1.1/DTD/svg11.dtd">
<svg height="68.829903pt" version="1.1" viewBox="0 0 77.246495 68.829903" width="77.246495pt" xmlns="http://www.w3.org/2000/svg" xmlns:xlink="http://www.w3.org/1999/xlink">
 <metadata>
  <rdf:RDF xmlns:cc="http://creativecommons.org/ns#" xmlns:dc="http://purl.org/dc/elements/1.1/" xmlns:rdf="http://www.w3.org/1999/02/22-rdf-syntax-ns#">
   <cc:Work>
    <dc:type rdf:resource="http://purl.org/dc/dcmitype/StillImage"/>
    <dc:date>2022-04-14T21:31:15.674652</dc:date>
    <dc:format>image/svg+xml</dc:format>
    <dc:creator>
     <cc:Agent>
      <dc:title>Matplotlib v3.4.3, https://matplotlib.org/</dc:title>
     </cc:Agent>
    </dc:creator>
   </cc:Work>
  </rdf:RDF>
 </metadata>
 <defs>
  <style type="text/css">*{stroke-linecap:butt;stroke-linejoin:round;}</style>
 </defs>
 <g id="figure_1">
  <g id="patch_1">
   <path d="M 0 68.829903 
L 77.246495 68.829903 
L 77.246495 0 
L 0 0 
z
" style="fill:#ffffff;"/>
  </g>
  <g id="axes_1">
   <g id="patch_2">
    <path clip-path="url(#p01df734ac2)" d="M 33.830021 13.226221 
L 33.830021 13.226221 
L 33.208018 14.165364 
L 32.586014 15.104507 
L 31.964011 16.04365 
L 31.342008 16.982793 
L 30.184818 18.412491 
L 29.027627 19.842189 
L 27.957253 21.104019 
L 26.886879 22.365849 
L 26.337403 23.262672 
L 25.787926 24.159496 
L 25.238449 25.056319 
L 24.688973 25.953143 
L 24.138957 27.018186 
L 23.588941 28.08323 
L 22.634502 26.485665 
L 21.680062 24.888099 
L 21.419883 23.948956 
L 21.159704 23.009813 
L 20.899525 22.07067 
L 20.639346 21.131527 
L 20.451154 20.010409 
L 20.262963 18.889292 
L 20.074771 17.768175 
L 19.886579 16.647057 
L 20.175877 15.693808 
L 20.465174 14.740558 
L 20.754472 13.787309 
L 21.043769 12.834059 
L 21.96936 12.497618 
L 22.89495 12.161177 
L 23.820541 11.824736 
L 24.746131 11.488295 
L 25.845354 11.488295 
L 26.944577 11.488295 
L 28.0438 11.488295 
L 29.143023 11.488295 
z
" style="fill:#ff0000;opacity:0.1;"/>
   </g>
   <g id="patch_3">
    <path clip-path="url(#p01df734ac2)" d="M 33.830021 13.226221 
L 33.830021 13.226221 
L 33.208018 14.165364 
L 32.586014 15.104507 
L 31.964011 16.04365 
L 31.342008 16.982793 
L 30.184818 18.412491 
L 29.027627 19.842189 
L 27.957253 21.104019 
L 26.886879 22.365849 
L 26.337403 23.262672 
L 25.787926 24.159496 
L 25.238449 25.056319 
L 24.688973 25.953143 
L 24.138957 27.018186 
L 23.588941 28.08323 
L 22.634502 26.485665 
L 21.680062 24.888099 
L 21.419883 23.948956 
L 21.159704 23.009813 
L 20.899525 22.07067 
L 20.639346 21.131527 
L 20.451154 20.010409 
L 20.262963 18.889292 
L 20.074771 17.768175 
L 19.886579 16.647057 
L 20.175877 15.693808 
L 20.465174 14.740558 
L 20.754472 13.787309 
L 21.043769 12.834059 
L 21.96936 12.497618 
L 22.89495 12.161177 
L 23.820541 11.824736 
L 24.746131 11.488295 
L 25.845354 11.488295 
L 26.944577 11.488295 
L 28.0438 11.488295 
L 29.143023 11.488295 
z
" style="fill:none;stroke:#ff0000;stroke-dasharray:3.7,1.6;stroke-dashoffset:0;stroke-linejoin:miter;"/>
   </g>
   <g id="line2d_1">
    <path clip-path="url(#p01df734ac2)" d="M 4.774084 50.023134 
L 5.536018 46.692932 
L 6.297951 43.362731 
L 7.059885 40.032529 
L 7.821819 36.702327 
" style="fill:none;stroke:#808080;stroke-linecap:square;stroke-width:1.5;"/>
   </g>
   <g id="line2d_2">
    <path clip-path="url(#p01df734ac2)" d="M 9.435199 50.893508 
L 13.023244 45.623304 
L 16.084999 41.125433 
L 19.146754 36.627562 
L 20.960189 33.963542 
L 22.773623 31.299522 
L 24.587058 28.635501 
L 26.400493 25.971481 
L 29.767453 21.025728 
L 33.134413 16.079974 
L 36.329897 11.385317 
" style="fill:none;stroke:#808080;stroke-linecap:square;stroke-width:1.5;"/>
   </g>
   <g id="line2d_3">
    <path clip-path="url(#p01df734ac2)" d="M 14.34436 50.708712 
L 18.092961 46.13061 
L 21.841562 41.552509 
L 25.590163 36.974407 
L 29.338764 32.396305 
L 33.087365 27.818204 
L 36.835966 23.240102 
L 40.584567 18.662 
L 44.333167 14.083899 
" style="fill:none;stroke:#808080;stroke-linecap:square;stroke-width:1.5;"/>
   </g>
   <g id="line2d_4">
    <path clip-path="url(#p01df734ac2)" d="M 15.383998 51.202441 
L 17.795171 48.194926 
L 20.206343 45.187412 
L 22.617516 42.179897 
L 25.028688 39.172382 
" style="fill:none;stroke:#808080;stroke-linecap:square;stroke-width:1.5;"/>
   </g>
   <g id="line2d_5">
    <path clip-path="url(#p01df734ac2)" d="M 6.637667 36.521763 
L 5.456751 37.767371 
L 4.275834 39.012979 
L 3.893519 40.594322 
L 3.511204 42.175665 
L 3.580765 43.522134 
L 3.650326 44.868604 
L 3.859008 46.181218 
L 4.067691 47.493831 
L 4.136713 48.637872 
L 4.205734 49.781912 
" style="fill:none;stroke:#008000;stroke-linecap:square;stroke-width:1.5;"/>
   </g>
   <g id="line2d_6">
    <path clip-path="url(#p01df734ac2)" d="M 25.044865 41.031625 
L 24.940794 42.243377 
L 24.836722 43.455128 
L 24.350335 44.465157 
L 23.863949 45.475185 
L 23.556587 45.813742 
L 22.335768 47.158096 
L 21.398044 47.730116 
L 20.460321 48.302136 
L 19.696231 49.176742 
L 18.93214 50.051347 
L 18.168588 51.667957 
L 16.570307 52.205416 
" style="fill:none;stroke:#008000;stroke-linecap:square;stroke-width:1.5;"/>
   </g>
   <g id="line2d_7">
    <path clip-path="url(#p01df734ac2)" d="M 40.689043 10.945193 
L 40.834096 11.923835 
L 40.979149 12.902476 
L 41.124202 13.881117 
L 41.269255 14.859758 
L 40.298639 16.05952 
L 39.328023 17.259281 
L 38.323974 17.745957 
L 37.319926 18.232633 
L 35.981014 19.562879 
L 34.642103 20.893126 
L 34.13954 22.158483 
L 33.636976 23.42384 
L 33.017939 24.169723 
L 32.398901 24.915606 
L 31.779864 25.66149 
L 31.160826 26.407373 
L 30.173224 27.672377 
L 29.185622 28.937381 
L 28.19802 30.202386 
L 27.210418 31.46739 
L 26.490544 32.215742 
L 25.770671 32.964094 
L 25.050797 33.712446 
L 24.330923 34.460798 
L 23.461143 35.365027 
L 22.591363 36.269256 
L 21.285884 37.663688 
L 19.980405 39.058119 
L 19.110086 40.291031 
L 18.239767 41.523943 
L 17.687324 42.496942 
L 17.134882 43.46994 
L 16.58244 44.442939 
L 16.029997 45.415938 
L 15.19311 46.421734 
L 14.356223 47.42753 
L 13.687037 48.368437 
L 13.017851 49.309343 
L 11.878995 50.021723 
" style="fill:none;stroke:#4169e1;stroke-linecap:square;stroke-width:1.5;"/>
   </g>
   <g id="line2d_8">
    <path clip-path="url(#p01df734ac2)" d="M 24.330923 34.460798 
L 22.962354 34.098965 
L 21.593785 33.737132 
L 19.880108 33.284312 
L 18.390212 33.706098 
L 16.900316 34.127883 
L 16.130294 35.45813 
L 15.360272 36.788377 
L 14.557087 37.793821 
L 13.753902 38.799264 
L 12.950717 39.804708 
L 12.147532 40.810152 
L 11.277213 42.107954 
L 10.406894 43.405756 
L 9.737168 44.216176 
L 9.067443 45.026597 
L 8.263989 46.583959 
L 8.263989 48.076431 
L 7.99653 49.763574 
" style="fill:none;stroke:#008000;stroke-linecap:square;stroke-width:1.5;"/>
   </g>
   <g id="line2d_9">
    <path clip-path="url(#p01df734ac2)" d="M 39.11988 10.438768 
L 40.689043 10.945193 
L 41.683385 11.266822 
L 42.985629 11.740097 
L 44.287872 12.213371 
L 45.366335 12.706395 
L 46.444797 13.199419 
L 47.082708 14.548004 
L 47.720618 15.896589 
L 48.506817 16.697135 
L 49.293017 17.497682 
L 49.964359 18.22699 
L 50.635702 18.956298 
L 51.348027 19.72581 
L 52.060351 20.495322 
L 52.385508 21.894691 
L 52.710664 23.29406 
L 52.914494 25.068662 
L 53.118323 26.843265 
L 53.189502 28.184092 
L 53.26068 29.524919 
L 53.331859 30.865746 
L 53.403037 32.206572 
L 53.98298 33.300887 
L 54.562924 34.395202 
L 55.142867 35.489517 
L 55.72281 36.583832 
L 56.700436 37.648171 
L 57.678063 38.712509 
L 58.041504 39.107492 
L 58.784295 39.847028 
L 59.527087 40.586563 
L 60.269878 41.326099 
L 61.012669 42.065634 
L 62.25344 43.050976 
L 63.494211 44.036318 
" style="fill:none;stroke:#008000;stroke-linecap:square;stroke-width:1.5;"/>
   </g>
   <g id="line2d_10">
    <path clip-path="url(#p01df734ac2)" d="M 63.494211 44.036318 
L 64.416836 44.783965 
L 65.33946 45.531611 
L 66.107326 46.15512 
L 67.637664 47.074162 
L 69.168002 47.993203 
L 70.912955 48.745081 
L 72.657907 49.49696 
L 73.735291 51.041626 
L 73.046153 52.462155 
L 71.753077 53.75643 
L 70.46 55.050705 
L 69.576739 55.71865 
L 68.693479 56.386595 
L 67.702372 56.950857 
L 66.711265 57.515118 
L 65.116758 57.932672 
L 63.522251 58.350225 
L 61.625775 58.37068 
L 59.729298 58.391134 
L 58.530587 58.278282 
L 57.331876 58.16543 
L 56.311111 58.069505 
L 55.290347 57.973581 
L 53.846824 57.660416 
L 52.403302 57.34725 
L 50.765657 56.512143 
L 49.128012 55.677036 
L 47.383599 54.934326 
L 45.639186 54.191617 
L 45.206722 54.006821 
L 44.053846 54.027629 
L 42.900969 54.048436 
L 41.748093 54.069243 
L 40.595216 54.09005 
L 39.399201 54.371828 
L 38.203186 54.653606 
L 37.007172 54.935384 
L 35.811157 55.217163 
L 35.095058 55.418886 
L 33.298339 55.9239 
L 31.50162 56.428915 
L 30.402667 56.543883 
L 29.303714 56.658851 
L 28.204761 56.773819 
L 27.105807 56.888788 
L 25.381885 56.867628 
L 23.657963 56.846468 
L 22.919216 56.561516 
L 21.823498 56.140436 
L 20.72778 55.719355 
L 19.133273 55.093025 
L 17.538766 54.466695 
" style="fill:none;stroke:#008000;stroke-linecap:square;stroke-width:1.5;"/>
   </g>
   <g id="line2d_11">
    <path clip-path="url(#p01df734ac2)" d="M 65.33946 45.531611 
L 65.204652 47.179255 
L 65.069845 48.826899 
L 64.375854 49.836222 
L 63.681863 50.845545 
L 62.698306 52.134883 
L 61.714748 53.424221 
L 60.03666 54.208545 
L 59.169576 55.723587 
L 58.475046 57.292235 
L 57.331876 58.16543 
" style="fill:none;stroke:#008000;stroke-linecap:square;stroke-width:1.5;"/>
   </g>
   <g id="line2d_12">
    <path clip-path="url(#p01df734ac2)" d="M 57.678063 38.712509 
L 57.891868 39.671401 
L 58.105673 40.630294 
L 58.319478 41.589186 
L 58.533283 42.548078 
L 59.430025 43.949563 
L 60.326767 45.351048 
L 60.615794 46.472518 
L 60.904822 47.593988 
L 60.73119 48.771179 
L 60.557557 49.948369 
L 59.863567 50.733398 
L 59.169576 51.518427 
L 58.127781 52.022736 
L 57.085987 52.527045 
L 55.466136 52.583471 
L 54.222669 52.807765 
L 52.979201 53.032059 
L 51.041204 53.312074 
L 49.103207 53.592089 
L 48.061412 53.704236 
L 47.019618 53.816383 
L 45.639186 54.191617 
" style="fill:none;stroke:#008000;stroke-linecap:square;stroke-width:1.5;"/>
   </g>
   <g id="line2d_13">
    <path clip-path="url(#p01df734ac2)" d="M 53.403037 32.206572 
L 52.69934 33.116444 
L 51.995644 34.026316 
L 51.85113 35.288146 
L 51.706616 36.549976 
L 50.838453 37.278579 
L 49.970291 38.007182 
L 49.102668 38.707572 
L 48.235045 39.407962 
L 47.425119 41.034446 
L 46.665747 41.742242 
L 45.906375 42.450037 
L 45.147002 43.157833 
L 44.38763 43.865629 
L 43.628257 44.573424 
L 42.868885 45.28122 
L 42.109513 45.989016 
L 41.35014 46.696812 
L 40.424819 48.070083 
L 39.499498 49.443355 
L 38.398388 50.937238 
L 37.297278 52.431121 
L 36.196168 53.925003 
L 35.095058 55.418886 
" style="fill:none;stroke:#4169e1;stroke-linecap:square;stroke-width:1.5;"/>
   </g>
   <g id="line2d_14">
    <path clip-path="url(#p01df734ac2)" d="M 47.720618 15.896589 
L 47.494141 16.974329 
L 47.267664 18.052069 
L 46.962459 19.506453 
L 47.063565 20.45935 
L 47.164671 21.412247 
L 47.265777 22.365144 
L 47.366882 23.318041 
L 47.048736 24.775952 
L 46.73059 26.233863 
L 46.933341 27.439267 
L 47.136091 28.644671 
L 47.772384 30.439023 
L 47.251487 32.00767 
L 46.094297 32.849831 
L 44.937106 33.298419 
L 43.606823 32.877338 
L 42.276539 32.456258 
L 41.292982 32.400537 
L 40.309424 32.344816 
L 39.267629 33.185566 
L 38.689573 34.418478 
L 38.920903 35.820668 
L 39.152233 37.222858 
L 39.354445 38.483983 
L 39.556657 39.745108 
L 39.209392 40.866578 
L 38.284071 41.370887 
L 37.35875 41.875196 
L 36.288376 41.819475 
L 35.218002 41.763754 
L 34.292142 42.100195 
L 33.366282 42.436636 
L 32.382724 43.893842 
L 31.746431 45.688194 
L 31.139257 46.528944 
L 30.532083 47.369694 
L 29.635341 48.014363 
L 28.738599 48.659032 
L 27.610528 48.687245 
L 26.482456 48.715458 
L 25.296147 48.883326 
L 24.109838 49.051193 
L 22.779016 49.612634 
L 22.316355 50.956987 
L 21.738299 52.359177 
L 20.870676 52.891699 
L 20.003053 53.424221 
L 18.932679 53.340287 
L 17.862305 53.256353 
" style="fill:none;stroke:#4169e1;stroke-linecap:square;stroke-width:1.5;"/>
   </g>
   <g id="line2d_15">
    <path clip-path="url(#p01df734ac2)" d="M 47.267664 18.052069 
L 46.391952 18.779261 
L 45.516241 19.506453 
L 45.111278 20.851512 
L 44.706315 22.196571 
L 43.664521 23.598761 
L 42.153595 23.760986 
L 41.061112 23.879481 
L 40.019857 23.626974 
L 38.978601 23.374467 
L 38.110439 24.552363 
L 38.168676 26.401731 
L 38.284071 27.803921 
L 37.415909 28.588245 
L 35.50703 28.252509 
L 34.639407 28.728605 
L 33.771784 29.2047 
L 33.077254 30.494038 
L 32.382724 31.783376 
L 32.325027 33.297713 
L 32.267329 34.812051 
L 32.327723 35.280388 
L 32.382724 35.707816 
L 31.51564 36.49355 
L 30.011185 37.166432 
L 29.143023 37.89433 
L 29.027627 38.903653 
L 28.912232 39.912976 
L 29.20126 41.707328 
L 29.20126 42.772372 
L 29.20126 43.837416 
L 28.333637 44.398151 
L 27.466014 44.958886 
L 26.365982 45.743209 
L 24.572499 46.02393 
L 23.556587 45.813742 
" style="fill:none;stroke:#4169e1;stroke-linecap:square;stroke-width:1.5;"/>
   </g>
   <g id="line2d_16">
    <path clip-path="url(#p01df734ac2)" d="M 35.391635 12.049735 
L 34.81304 12.876731 
L 34.234444 13.703727 
L 33.655849 14.530723 
L 33.077254 15.357719 
L 32.267329 16.647057 
L 31.573069 17.557987 
L 30.878808 18.468917 
L 30.184548 19.379847 
L 29.490288 20.290777 
L 28.564967 21.636541 
L 27.639646 22.982305 
L 26.713786 24.412003 
L 25.787926 25.841701 
L 24.74667 27.383546 
L 23.705415 28.925391 
L 22.837253 30.326876 
L 21.96909 31.728361 
L 21.781438 32.732746 
L 21.593785 33.737132 
" style="fill:none;stroke:#000000;stroke-linecap:square;stroke-width:1.5;"/>
   </g>
   <g id="line2d_17">
    <path clip-path="url(#p01df734ac2)" d="M 53.118323 26.843265 
L 52.036086 28.192556 
L 50.953849 29.541847 
L 50.21618 30.396703 
L 49.478512 31.25156 
L 48.740844 32.106416 
L 48.003175 32.961272 
L 46.860679 34.18766 
L 45.718183 35.414047 
L 44.575687 36.640435 
L 43.43319 37.866822 
L 42.290694 39.09321 
L 41.148198 40.319597 
L 40.005702 41.545984 
L 38.863206 42.772372 
L 38.197794 43.515258 
L 37.532383 44.258143 
L 36.866971 45.001029 
L 36.20156 45.743915 
L 35.536149 46.4868 
L 34.870737 47.229686 
L 34.205326 47.972572 
L 33.539915 48.715458 
L 32.382994 50.018902 
L 31.226073 51.322347 
L 30.069153 52.625791 
L 28.912232 53.929235 
L 27.812739 54.181037 
L 26.713247 54.432839 
L 25.816505 54.993574 
L 24.919764 55.554309 
L 23.91949 56.057912 
L 22.919216 56.561516 
" style="fill:none;stroke:#4169e1;stroke-linecap:square;stroke-width:1.5;"/>
   </g>
   <g id="line2d_18">
    <path clip-path="url(#p01df734ac2)" d="M 42.153595 23.760986 
L 41.405142 24.857064 
L 40.656689 25.953143 
L 39.47038 26.878532 
L 38.284071 27.803921 
L 37.821411 29.596862 
L 37.12742 30.914413 
L 36.43343 32.231964 
L 35.565267 33.185566 
L 34.697105 34.139169 
L 33.424519 34.923492 
L 32.327723 35.280388 
" style="fill:none;stroke:#4169e1;stroke-linecap:square;stroke-width:1.5;"/>
   </g>
   <g id="text_1">
    <g id="patch_4">
     <path d="M 15.551999 42.150313 
L 24.217011 32.41858 
L 22.741509 31.104812 
L 14.076497 40.836545 
z
" style="fill:#ffffff;"/>
    </g>
    <!-- Double Chair -->
    <g style="fill:#808080;" transform="translate(15.239718 41.845482)rotate(-48.318536)scale(0.02 -0.02)">
     <defs>
      <path d="M 1259 4147 
L 1259 519 
L 2022 519 
Q 2988 519 3436 956 
Q 3884 1394 3884 2338 
Q 3884 3275 3436 3711 
Q 2988 4147 2022 4147 
L 1259 4147 
z
M 628 4666 
L 1925 4666 
Q 3281 4666 3915 4102 
Q 4550 3538 4550 2338 
Q 4550 1131 3912 565 
Q 3275 0 1925 0 
L 628 0 
L 628 4666 
z
" id="DejaVuSans-44" transform="scale(0.015625)"/>
      <path d="M 1959 3097 
Q 1497 3097 1228 2736 
Q 959 2375 959 1747 
Q 959 1119 1226 758 
Q 1494 397 1959 397 
Q 2419 397 2687 759 
Q 2956 1122 2956 1747 
Q 2956 2369 2687 2733 
Q 2419 3097 1959 3097 
z
M 1959 3584 
Q 2709 3584 3137 3096 
Q 3566 2609 3566 1747 
Q 3566 888 3137 398 
Q 2709 -91 1959 -91 
Q 1206 -91 779 398 
Q 353 888 353 1747 
Q 353 2609 779 3096 
Q 1206 3584 1959 3584 
z
" id="DejaVuSans-6f" transform="scale(0.015625)"/>
      <path d="M 544 1381 
L 544 3500 
L 1119 3500 
L 1119 1403 
Q 1119 906 1312 657 
Q 1506 409 1894 409 
Q 2359 409 2629 706 
Q 2900 1003 2900 1516 
L 2900 3500 
L 3475 3500 
L 3475 0 
L 2900 0 
L 2900 538 
Q 2691 219 2414 64 
Q 2138 -91 1772 -91 
Q 1169 -91 856 284 
Q 544 659 544 1381 
z
M 1991 3584 
L 1991 3584 
z
" id="DejaVuSans-75" transform="scale(0.015625)"/>
      <path d="M 3116 1747 
Q 3116 2381 2855 2742 
Q 2594 3103 2138 3103 
Q 1681 3103 1420 2742 
Q 1159 2381 1159 1747 
Q 1159 1113 1420 752 
Q 1681 391 2138 391 
Q 2594 391 2855 752 
Q 3116 1113 3116 1747 
z
M 1159 2969 
Q 1341 3281 1617 3432 
Q 1894 3584 2278 3584 
Q 2916 3584 3314 3078 
Q 3713 2572 3713 1747 
Q 3713 922 3314 415 
Q 2916 -91 2278 -91 
Q 1894 -91 1617 61 
Q 1341 213 1159 525 
L 1159 0 
L 581 0 
L 581 4863 
L 1159 4863 
L 1159 2969 
z
" id="DejaVuSans-62" transform="scale(0.015625)"/>
      <path d="M 603 4863 
L 1178 4863 
L 1178 0 
L 603 0 
L 603 4863 
z
" id="DejaVuSans-6c" transform="scale(0.015625)"/>
      <path d="M 3597 1894 
L 3597 1613 
L 953 1613 
Q 991 1019 1311 708 
Q 1631 397 2203 397 
Q 2534 397 2845 478 
Q 3156 559 3463 722 
L 3463 178 
Q 3153 47 2828 -22 
Q 2503 -91 2169 -91 
Q 1331 -91 842 396 
Q 353 884 353 1716 
Q 353 2575 817 3079 
Q 1281 3584 2069 3584 
Q 2775 3584 3186 3129 
Q 3597 2675 3597 1894 
z
M 3022 2063 
Q 3016 2534 2758 2815 
Q 2500 3097 2075 3097 
Q 1594 3097 1305 2825 
Q 1016 2553 972 2059 
L 3022 2063 
z
" id="DejaVuSans-65" transform="scale(0.015625)"/>
      <path id="DejaVuSans-20" transform="scale(0.015625)"/>
      <path d="M 4122 4306 
L 4122 3641 
Q 3803 3938 3442 4084 
Q 3081 4231 2675 4231 
Q 1875 4231 1450 3742 
Q 1025 3253 1025 2328 
Q 1025 1406 1450 917 
Q 1875 428 2675 428 
Q 3081 428 3442 575 
Q 3803 722 4122 1019 
L 4122 359 
Q 3791 134 3420 21 
Q 3050 -91 2638 -91 
Q 1578 -91 968 557 
Q 359 1206 359 2328 
Q 359 3453 968 4101 
Q 1578 4750 2638 4750 
Q 3056 4750 3426 4639 
Q 3797 4528 4122 4306 
z
" id="DejaVuSans-43" transform="scale(0.015625)"/>
      <path d="M 3513 2113 
L 3513 0 
L 2938 0 
L 2938 2094 
Q 2938 2591 2744 2837 
Q 2550 3084 2163 3084 
Q 1697 3084 1428 2787 
Q 1159 2491 1159 1978 
L 1159 0 
L 581 0 
L 581 4863 
L 1159 4863 
L 1159 2956 
Q 1366 3272 1645 3428 
Q 1925 3584 2291 3584 
Q 2894 3584 3203 3211 
Q 3513 2838 3513 2113 
z
" id="DejaVuSans-68" transform="scale(0.015625)"/>
      <path d="M 2194 1759 
Q 1497 1759 1228 1600 
Q 959 1441 959 1056 
Q 959 750 1161 570 
Q 1363 391 1709 391 
Q 2188 391 2477 730 
Q 2766 1069 2766 1631 
L 2766 1759 
L 2194 1759 
z
M 3341 1997 
L 3341 0 
L 2766 0 
L 2766 531 
Q 2569 213 2275 61 
Q 1981 -91 1556 -91 
Q 1019 -91 701 211 
Q 384 513 384 1019 
Q 384 1609 779 1909 
Q 1175 2209 1959 2209 
L 2766 2209 
L 2766 2266 
Q 2766 2663 2505 2880 
Q 2244 3097 1772 3097 
Q 1472 3097 1187 3025 
Q 903 2953 641 2809 
L 641 3341 
Q 956 3463 1253 3523 
Q 1550 3584 1831 3584 
Q 2591 3584 2966 3190 
Q 3341 2797 3341 1997 
z
" id="DejaVuSans-61" transform="scale(0.015625)"/>
      <path d="M 603 3500 
L 1178 3500 
L 1178 0 
L 603 0 
L 603 3500 
z
M 603 4863 
L 1178 4863 
L 1178 4134 
L 603 4134 
L 603 4863 
z
" id="DejaVuSans-69" transform="scale(0.015625)"/>
      <path d="M 2631 2963 
Q 2534 3019 2420 3045 
Q 2306 3072 2169 3072 
Q 1681 3072 1420 2755 
Q 1159 2438 1159 1844 
L 1159 0 
L 581 0 
L 581 3500 
L 1159 3500 
L 1159 2956 
Q 1341 3275 1631 3429 
Q 1922 3584 2338 3584 
Q 2397 3584 2469 3576 
Q 2541 3569 2628 3553 
L 2631 2963 
z
" id="DejaVuSans-72" transform="scale(0.015625)"/>
     </defs>
     <use xlink:href="#DejaVuSans-44"/>
     <use x="77.001953" xlink:href="#DejaVuSans-6f"/>
     <use x="138.183594" xlink:href="#DejaVuSans-75"/>
     <use x="201.5625" xlink:href="#DejaVuSans-62"/>
     <use x="265.039062" xlink:href="#DejaVuSans-6c"/>
     <use x="292.822266" xlink:href="#DejaVuSans-65"/>
     <use x="354.345703" xlink:href="#DejaVuSans-20"/>
     <use x="386.132812" xlink:href="#DejaVuSans-43"/>
     <use x="455.957031" xlink:href="#DejaVuSans-68"/>
     <use x="519.335938" xlink:href="#DejaVuSans-61"/>
     <use x="580.615234" xlink:href="#DejaVuSans-69"/>
     <use x="608.398438" xlink:href="#DejaVuSans-72"/>
    </g>
   </g>
   <g id="text_2">
    <g id="patch_5">
     <path d="M 28.069665 34.932697 
L 31.95614 31.303951 
L 30.607863 29.859914 
L 26.721388 33.48866 
z
" style="fill:#ffffff;"/>
    </g>
    <!-- T Bar -->
    <g style="fill:#808080;" transform="translate(27.786775 34.600409)rotate(-43.035856)scale(0.02 -0.02)">
     <defs>
      <path d="M -19 4666 
L 3928 4666 
L 3928 4134 
L 2272 4134 
L 2272 0 
L 1638 0 
L 1638 4134 
L -19 4134 
L -19 4666 
z
" id="DejaVuSans-54" transform="scale(0.015625)"/>
      <path d="M 1259 2228 
L 1259 519 
L 2272 519 
Q 2781 519 3026 730 
Q 3272 941 3272 1375 
Q 3272 1813 3026 2020 
Q 2781 2228 2272 2228 
L 1259 2228 
z
M 1259 4147 
L 1259 2741 
L 2194 2741 
Q 2656 2741 2882 2914 
Q 3109 3088 3109 3444 
Q 3109 3797 2882 3972 
Q 2656 4147 2194 4147 
L 1259 4147 
z
M 628 4666 
L 2241 4666 
Q 2963 4666 3353 4366 
Q 3744 4066 3744 3513 
Q 3744 3084 3544 2831 
Q 3344 2578 2956 2516 
Q 3422 2416 3680 2098 
Q 3938 1781 3938 1306 
Q 3938 681 3513 340 
Q 3088 0 2303 0 
L 628 0 
L 628 4666 
z
" id="DejaVuSans-42" transform="scale(0.015625)"/>
     </defs>
     <use xlink:href="#DejaVuSans-54"/>
     <use x="61.083984" xlink:href="#DejaVuSans-20"/>
     <use x="92.871094" xlink:href="#DejaVuSans-42"/>
     <use x="161.474609" xlink:href="#DejaVuSans-61"/>
     <use x="222.753906" xlink:href="#DejaVuSans-72"/>
    </g>
   </g>
   <g id="text_3">
    <g id="patch_6">
     <path d="M 24.278186 35.423453 
L 33.500112 26.392863 
L 32.117855 24.981318 
L 22.895928 34.011908 
z
" style="fill:#ffffff;"/>
    </g>
    <!-- Slalom 23.5° -->
    <g style="fill:#4169e1;" transform="translate(23.987469 35.097991)rotate(-44.399404)scale(0.02 -0.02)">
     <defs>
      <path d="M 3425 4513 
L 3425 3897 
Q 3066 4069 2747 4153 
Q 2428 4238 2131 4238 
Q 1616 4238 1336 4038 
Q 1056 3838 1056 3469 
Q 1056 3159 1242 3001 
Q 1428 2844 1947 2747 
L 2328 2669 
Q 3034 2534 3370 2195 
Q 3706 1856 3706 1288 
Q 3706 609 3251 259 
Q 2797 -91 1919 -91 
Q 1588 -91 1214 -16 
Q 841 59 441 206 
L 441 856 
Q 825 641 1194 531 
Q 1563 422 1919 422 
Q 2459 422 2753 634 
Q 3047 847 3047 1241 
Q 3047 1584 2836 1778 
Q 2625 1972 2144 2069 
L 1759 2144 
Q 1053 2284 737 2584 
Q 422 2884 422 3419 
Q 422 4038 858 4394 
Q 1294 4750 2059 4750 
Q 2388 4750 2728 4690 
Q 3069 4631 3425 4513 
z
" id="DejaVuSans-53" transform="scale(0.015625)"/>
      <path d="M 3328 2828 
Q 3544 3216 3844 3400 
Q 4144 3584 4550 3584 
Q 5097 3584 5394 3201 
Q 5691 2819 5691 2113 
L 5691 0 
L 5113 0 
L 5113 2094 
Q 5113 2597 4934 2840 
Q 4756 3084 4391 3084 
Q 3944 3084 3684 2787 
Q 3425 2491 3425 1978 
L 3425 0 
L 2847 0 
L 2847 2094 
Q 2847 2600 2669 2842 
Q 2491 3084 2119 3084 
Q 1678 3084 1418 2786 
Q 1159 2488 1159 1978 
L 1159 0 
L 581 0 
L 581 3500 
L 1159 3500 
L 1159 2956 
Q 1356 3278 1631 3431 
Q 1906 3584 2284 3584 
Q 2666 3584 2933 3390 
Q 3200 3197 3328 2828 
z
" id="DejaVuSans-6d" transform="scale(0.015625)"/>
      <path d="M 1228 531 
L 3431 531 
L 3431 0 
L 469 0 
L 469 531 
Q 828 903 1448 1529 
Q 2069 2156 2228 2338 
Q 2531 2678 2651 2914 
Q 2772 3150 2772 3378 
Q 2772 3750 2511 3984 
Q 2250 4219 1831 4219 
Q 1534 4219 1204 4116 
Q 875 4013 500 3803 
L 500 4441 
Q 881 4594 1212 4672 
Q 1544 4750 1819 4750 
Q 2544 4750 2975 4387 
Q 3406 4025 3406 3419 
Q 3406 3131 3298 2873 
Q 3191 2616 2906 2266 
Q 2828 2175 2409 1742 
Q 1991 1309 1228 531 
z
" id="DejaVuSans-32" transform="scale(0.015625)"/>
      <path d="M 2597 2516 
Q 3050 2419 3304 2112 
Q 3559 1806 3559 1356 
Q 3559 666 3084 287 
Q 2609 -91 1734 -91 
Q 1441 -91 1130 -33 
Q 819 25 488 141 
L 488 750 
Q 750 597 1062 519 
Q 1375 441 1716 441 
Q 2309 441 2620 675 
Q 2931 909 2931 1356 
Q 2931 1769 2642 2001 
Q 2353 2234 1838 2234 
L 1294 2234 
L 1294 2753 
L 1863 2753 
Q 2328 2753 2575 2939 
Q 2822 3125 2822 3475 
Q 2822 3834 2567 4026 
Q 2313 4219 1838 4219 
Q 1578 4219 1281 4162 
Q 984 4106 628 3988 
L 628 4550 
Q 988 4650 1302 4700 
Q 1616 4750 1894 4750 
Q 2613 4750 3031 4423 
Q 3450 4097 3450 3541 
Q 3450 3153 3228 2886 
Q 3006 2619 2597 2516 
z
" id="DejaVuSans-33" transform="scale(0.015625)"/>
      <path d="M 684 794 
L 1344 794 
L 1344 0 
L 684 0 
L 684 794 
z
" id="DejaVuSans-2e" transform="scale(0.015625)"/>
      <path d="M 691 4666 
L 3169 4666 
L 3169 4134 
L 1269 4134 
L 1269 2991 
Q 1406 3038 1543 3061 
Q 1681 3084 1819 3084 
Q 2600 3084 3056 2656 
Q 3513 2228 3513 1497 
Q 3513 744 3044 326 
Q 2575 -91 1722 -91 
Q 1428 -91 1123 -41 
Q 819 9 494 109 
L 494 744 
Q 775 591 1075 516 
Q 1375 441 1709 441 
Q 2250 441 2565 725 
Q 2881 1009 2881 1497 
Q 2881 1984 2565 2268 
Q 2250 2553 1709 2553 
Q 1456 2553 1204 2497 
Q 953 2441 691 2322 
L 691 4666 
z
" id="DejaVuSans-35" transform="scale(0.015625)"/>
      <path d="M 1600 4347 
Q 1350 4347 1178 4173 
Q 1006 4000 1006 3750 
Q 1006 3503 1178 3333 
Q 1350 3163 1600 3163 
Q 1850 3163 2022 3333 
Q 2194 3503 2194 3750 
Q 2194 3997 2020 4172 
Q 1847 4347 1600 4347 
z
M 1600 4750 
Q 1800 4750 1984 4673 
Q 2169 4597 2303 4453 
Q 2447 4313 2519 4134 
Q 2591 3956 2591 3750 
Q 2591 3338 2302 3052 
Q 2013 2766 1594 2766 
Q 1172 2766 890 3047 
Q 609 3328 609 3750 
Q 609 4169 896 4459 
Q 1184 4750 1600 4750 
z
" id="DejaVuSans-b0" transform="scale(0.015625)"/>
     </defs>
     <use xlink:href="#DejaVuSans-53"/>
     <use x="63.476562" xlink:href="#DejaVuSans-6c"/>
     <use x="91.259766" xlink:href="#DejaVuSans-61"/>
     <use x="152.539062" xlink:href="#DejaVuSans-6c"/>
     <use x="180.322266" xlink:href="#DejaVuSans-6f"/>
     <use x="241.503906" xlink:href="#DejaVuSans-6d"/>
     <use x="338.916016" xlink:href="#DejaVuSans-20"/>
     <use x="370.703125" xlink:href="#DejaVuSans-32"/>
     <use x="434.326172" xlink:href="#DejaVuSans-33"/>
     <use x="497.949219" xlink:href="#DejaVuSans-2e"/>
     <use x="529.736328" xlink:href="#DejaVuSans-35"/>
     <use x="593.359375" xlink:href="#DejaVuSans-b0"/>
    </g>
   </g>
   <g id="text_4">
    <g id="patch_7">
     <path d="M 7.986587 45.686068 
L 20.887194 33.339766 
L 19.521217 31.912461 
L 6.62061 44.258763 
z
" style="fill:#ffffff;"/>
    </g>
    <!-- Terrain Park 10.0° -->
    <g style="fill:#008000;" transform="translate(7.699622 45.357293)rotate(-43.74225)scale(0.02 -0.02)">
     <defs>
      <path d="M 3513 2113 
L 3513 0 
L 2938 0 
L 2938 2094 
Q 2938 2591 2744 2837 
Q 2550 3084 2163 3084 
Q 1697 3084 1428 2787 
Q 1159 2491 1159 1978 
L 1159 0 
L 581 0 
L 581 3500 
L 1159 3500 
L 1159 2956 
Q 1366 3272 1645 3428 
Q 1925 3584 2291 3584 
Q 2894 3584 3203 3211 
Q 3513 2838 3513 2113 
z
" id="DejaVuSans-6e" transform="scale(0.015625)"/>
      <path d="M 1259 4147 
L 1259 2394 
L 2053 2394 
Q 2494 2394 2734 2622 
Q 2975 2850 2975 3272 
Q 2975 3691 2734 3919 
Q 2494 4147 2053 4147 
L 1259 4147 
z
M 628 4666 
L 2053 4666 
Q 2838 4666 3239 4311 
Q 3641 3956 3641 3272 
Q 3641 2581 3239 2228 
Q 2838 1875 2053 1875 
L 1259 1875 
L 1259 0 
L 628 0 
L 628 4666 
z
" id="DejaVuSans-50" transform="scale(0.015625)"/>
      <path d="M 581 4863 
L 1159 4863 
L 1159 1991 
L 2875 3500 
L 3609 3500 
L 1753 1863 
L 3688 0 
L 2938 0 
L 1159 1709 
L 1159 0 
L 581 0 
L 581 4863 
z
" id="DejaVuSans-6b" transform="scale(0.015625)"/>
      <path d="M 794 531 
L 1825 531 
L 1825 4091 
L 703 3866 
L 703 4441 
L 1819 4666 
L 2450 4666 
L 2450 531 
L 3481 531 
L 3481 0 
L 794 0 
L 794 531 
z
" id="DejaVuSans-31" transform="scale(0.015625)"/>
      <path d="M 2034 4250 
Q 1547 4250 1301 3770 
Q 1056 3291 1056 2328 
Q 1056 1369 1301 889 
Q 1547 409 2034 409 
Q 2525 409 2770 889 
Q 3016 1369 3016 2328 
Q 3016 3291 2770 3770 
Q 2525 4250 2034 4250 
z
M 2034 4750 
Q 2819 4750 3233 4129 
Q 3647 3509 3647 2328 
Q 3647 1150 3233 529 
Q 2819 -91 2034 -91 
Q 1250 -91 836 529 
Q 422 1150 422 2328 
Q 422 3509 836 4129 
Q 1250 4750 2034 4750 
z
" id="DejaVuSans-30" transform="scale(0.015625)"/>
     </defs>
     <use xlink:href="#DejaVuSans-54"/>
     <use x="44.083984" xlink:href="#DejaVuSans-65"/>
     <use x="105.607422" xlink:href="#DejaVuSans-72"/>
     <use x="144.970703" xlink:href="#DejaVuSans-72"/>
     <use x="186.083984" xlink:href="#DejaVuSans-61"/>
     <use x="247.363281" xlink:href="#DejaVuSans-69"/>
     <use x="275.146484" xlink:href="#DejaVuSans-6e"/>
     <use x="338.525391" xlink:href="#DejaVuSans-20"/>
     <use x="370.3125" xlink:href="#DejaVuSans-50"/>
     <use x="426.115234" xlink:href="#DejaVuSans-61"/>
     <use x="487.394531" xlink:href="#DejaVuSans-72"/>
     <use x="528.507812" xlink:href="#DejaVuSans-6b"/>
     <use x="586.417969" xlink:href="#DejaVuSans-20"/>
     <use x="618.205078" xlink:href="#DejaVuSans-31"/>
     <use x="681.828125" xlink:href="#DejaVuSans-30"/>
     <use x="745.451172" xlink:href="#DejaVuSans-2e"/>
     <use x="777.238281" xlink:href="#DejaVuSans-30"/>
     <use x="840.861328" xlink:href="#DejaVuSans-b0"/>
    </g>
   </g>
   <g id="text_5">
    <g id="patch_8">
     <path d="M 41.961138 12.8534 
L 53.838914 22.099816 
L 55.052496 20.540871 
L 43.174721 11.294455 
z
" style="fill:#ffffff;"/>
    </g>
    <!-- Ken's Way 8.5° -->
    <g style="fill:#008000;" transform="translate(42.244707 12.521692)rotate(-322.100539)scale(0.02 -0.02)">
     <defs>
      <path d="M 628 4666 
L 1259 4666 
L 1259 2694 
L 3353 4666 
L 4166 4666 
L 1850 2491 
L 4331 0 
L 3500 0 
L 1259 2247 
L 1259 0 
L 628 0 
L 628 4666 
z
" id="DejaVuSans-4b" transform="scale(0.015625)"/>
      <path d="M 1147 4666 
L 1147 2931 
L 616 2931 
L 616 4666 
L 1147 4666 
z
" id="DejaVuSans-27" transform="scale(0.015625)"/>
      <path d="M 2834 3397 
L 2834 2853 
Q 2591 2978 2328 3040 
Q 2066 3103 1784 3103 
Q 1356 3103 1142 2972 
Q 928 2841 928 2578 
Q 928 2378 1081 2264 
Q 1234 2150 1697 2047 
L 1894 2003 
Q 2506 1872 2764 1633 
Q 3022 1394 3022 966 
Q 3022 478 2636 193 
Q 2250 -91 1575 -91 
Q 1294 -91 989 -36 
Q 684 19 347 128 
L 347 722 
Q 666 556 975 473 
Q 1284 391 1588 391 
Q 1994 391 2212 530 
Q 2431 669 2431 922 
Q 2431 1156 2273 1281 
Q 2116 1406 1581 1522 
L 1381 1569 
Q 847 1681 609 1914 
Q 372 2147 372 2553 
Q 372 3047 722 3315 
Q 1072 3584 1716 3584 
Q 2034 3584 2315 3537 
Q 2597 3491 2834 3397 
z
" id="DejaVuSans-73" transform="scale(0.015625)"/>
      <path d="M 213 4666 
L 850 4666 
L 1831 722 
L 2809 4666 
L 3519 4666 
L 4500 722 
L 5478 4666 
L 6119 4666 
L 4947 0 
L 4153 0 
L 3169 4050 
L 2175 0 
L 1381 0 
L 213 4666 
z
" id="DejaVuSans-57" transform="scale(0.015625)"/>
      <path d="M 2059 -325 
Q 1816 -950 1584 -1140 
Q 1353 -1331 966 -1331 
L 506 -1331 
L 506 -850 
L 844 -850 
Q 1081 -850 1212 -737 
Q 1344 -625 1503 -206 
L 1606 56 
L 191 3500 
L 800 3500 
L 1894 763 
L 2988 3500 
L 3597 3500 
L 2059 -325 
z
" id="DejaVuSans-79" transform="scale(0.015625)"/>
      <path d="M 2034 2216 
Q 1584 2216 1326 1975 
Q 1069 1734 1069 1313 
Q 1069 891 1326 650 
Q 1584 409 2034 409 
Q 2484 409 2743 651 
Q 3003 894 3003 1313 
Q 3003 1734 2745 1975 
Q 2488 2216 2034 2216 
z
M 1403 2484 
Q 997 2584 770 2862 
Q 544 3141 544 3541 
Q 544 4100 942 4425 
Q 1341 4750 2034 4750 
Q 2731 4750 3128 4425 
Q 3525 4100 3525 3541 
Q 3525 3141 3298 2862 
Q 3072 2584 2669 2484 
Q 3125 2378 3379 2068 
Q 3634 1759 3634 1313 
Q 3634 634 3220 271 
Q 2806 -91 2034 -91 
Q 1263 -91 848 271 
Q 434 634 434 1313 
Q 434 1759 690 2068 
Q 947 2378 1403 2484 
z
M 1172 3481 
Q 1172 3119 1398 2916 
Q 1625 2713 2034 2713 
Q 2441 2713 2670 2916 
Q 2900 3119 2900 3481 
Q 2900 3844 2670 4047 
Q 2441 4250 2034 4250 
Q 1625 4250 1398 4047 
Q 1172 3844 1172 3481 
z
" id="DejaVuSans-38" transform="scale(0.015625)"/>
     </defs>
     <use xlink:href="#DejaVuSans-4b"/>
     <use x="60.576172" xlink:href="#DejaVuSans-65"/>
     <use x="122.099609" xlink:href="#DejaVuSans-6e"/>
     <use x="185.478516" xlink:href="#DejaVuSans-27"/>
     <use x="212.96875" xlink:href="#DejaVuSans-73"/>
     <use x="265.068359" xlink:href="#DejaVuSans-20"/>
     <use x="296.855469" xlink:href="#DejaVuSans-57"/>
     <use x="389.357422" xlink:href="#DejaVuSans-61"/>
     <use x="450.636719" xlink:href="#DejaVuSans-79"/>
     <use x="509.816406" xlink:href="#DejaVuSans-20"/>
     <use x="541.603516" xlink:href="#DejaVuSans-38"/>
     <use x="605.226562" xlink:href="#DejaVuSans-2e"/>
     <use x="637.013672" xlink:href="#DejaVuSans-35"/>
     <use x="700.636719" xlink:href="#DejaVuSans-b0"/>
    </g>
   </g>
   <g id="text_6">
    <g id="patch_9">
     <path d="M 27.717991 58.1334 
L 39.293746 55.645933 
L 38.878687 53.7144 
L 27.302932 56.201867 
z
" style="fill:#ffffff;"/>
    </g>
    <!-- Acorn 11.5° -->
    <g style="fill:#008000;" transform="translate(27.645959 57.70299)rotate(-12.127634)scale(0.02 -0.02)">
     <defs>
      <path d="M 2188 4044 
L 1331 1722 
L 3047 1722 
L 2188 4044 
z
M 1831 4666 
L 2547 4666 
L 4325 0 
L 3669 0 
L 3244 1197 
L 1141 1197 
L 716 0 
L 50 0 
L 1831 4666 
z
" id="DejaVuSans-41" transform="scale(0.015625)"/>
      <path d="M 3122 3366 
L 3122 2828 
Q 2878 2963 2633 3030 
Q 2388 3097 2138 3097 
Q 1578 3097 1268 2742 
Q 959 2388 959 1747 
Q 959 1106 1268 751 
Q 1578 397 2138 397 
Q 2388 397 2633 464 
Q 2878 531 3122 666 
L 3122 134 
Q 2881 22 2623 -34 
Q 2366 -91 2075 -91 
Q 1284 -91 818 406 
Q 353 903 353 1747 
Q 353 2603 823 3093 
Q 1294 3584 2113 3584 
Q 2378 3584 2631 3529 
Q 2884 3475 3122 3366 
z
" id="DejaVuSans-63" transform="scale(0.015625)"/>
     </defs>
     <use xlink:href="#DejaVuSans-41"/>
     <use x="66.658203" xlink:href="#DejaVuSans-63"/>
     <use x="121.638672" xlink:href="#DejaVuSans-6f"/>
     <use x="182.820312" xlink:href="#DejaVuSans-72"/>
     <use x="222.183594" xlink:href="#DejaVuSans-6e"/>
     <use x="285.5625" xlink:href="#DejaVuSans-20"/>
     <use x="317.349609" xlink:href="#DejaVuSans-31"/>
     <use x="380.972656" xlink:href="#DejaVuSans-31"/>
     <use x="444.595703" xlink:href="#DejaVuSans-2e"/>
     <use x="476.382812" xlink:href="#DejaVuSans-35"/>
     <use x="540.005859" xlink:href="#DejaVuSans-b0"/>
    </g>
   </g>
   <g id="text_7">
    <g id="patch_10">
     <path d="M 53.763459 57.314746 
L 67.25598 45.646388 
L 65.963675 44.152051 
L 52.471154 55.820409 
z
" style="fill:#ffffff;"/>
    </g>
    <!-- Robber Oak 15.5° -->
    <g style="fill:#008000;" transform="translate(53.493429 56.971926)rotate(-40.853311)scale(0.02 -0.02)">
     <defs>
      <path d="M 2841 2188 
Q 3044 2119 3236 1894 
Q 3428 1669 3622 1275 
L 4263 0 
L 3584 0 
L 2988 1197 
Q 2756 1666 2539 1819 
Q 2322 1972 1947 1972 
L 1259 1972 
L 1259 0 
L 628 0 
L 628 4666 
L 2053 4666 
Q 2853 4666 3247 4331 
Q 3641 3997 3641 3322 
Q 3641 2881 3436 2590 
Q 3231 2300 2841 2188 
z
M 1259 4147 
L 1259 2491 
L 2053 2491 
Q 2509 2491 2742 2702 
Q 2975 2913 2975 3322 
Q 2975 3731 2742 3939 
Q 2509 4147 2053 4147 
L 1259 4147 
z
" id="DejaVuSans-52" transform="scale(0.015625)"/>
      <path d="M 2522 4238 
Q 1834 4238 1429 3725 
Q 1025 3213 1025 2328 
Q 1025 1447 1429 934 
Q 1834 422 2522 422 
Q 3209 422 3611 934 
Q 4013 1447 4013 2328 
Q 4013 3213 3611 3725 
Q 3209 4238 2522 4238 
z
M 2522 4750 
Q 3503 4750 4090 4092 
Q 4678 3434 4678 2328 
Q 4678 1225 4090 567 
Q 3503 -91 2522 -91 
Q 1538 -91 948 565 
Q 359 1222 359 2328 
Q 359 3434 948 4092 
Q 1538 4750 2522 4750 
z
" id="DejaVuSans-4f" transform="scale(0.015625)"/>
     </defs>
     <use xlink:href="#DejaVuSans-52"/>
     <use x="64.982422" xlink:href="#DejaVuSans-6f"/>
     <use x="126.164062" xlink:href="#DejaVuSans-62"/>
     <use x="189.640625" xlink:href="#DejaVuSans-62"/>
     <use x="253.117188" xlink:href="#DejaVuSans-65"/>
     <use x="314.640625" xlink:href="#DejaVuSans-72"/>
     <use x="355.753906" xlink:href="#DejaVuSans-20"/>
     <use x="387.541016" xlink:href="#DejaVuSans-4f"/>
     <use x="466.251953" xlink:href="#DejaVuSans-61"/>
     <use x="527.53125" xlink:href="#DejaVuSans-6b"/>
     <use x="585.441406" xlink:href="#DejaVuSans-20"/>
     <use x="617.228516" xlink:href="#DejaVuSans-31"/>
     <use x="680.851562" xlink:href="#DejaVuSans-35"/>
     <use x="744.474609" xlink:href="#DejaVuSans-2e"/>
     <use x="776.261719" xlink:href="#DejaVuSans-35"/>
     <use x="839.884766" xlink:href="#DejaVuSans-b0"/>
    </g>
   </g>
   <g id="text_8">
    <g id="patch_11">
     <path d="M 42.73836 45.753796 
L 51.739632 39.339611 
L 50.593134 37.730687 
L 41.591862 44.144872 
z
" style="fill:#ffffff;"/>
    </g>
    <!-- Knox 20.0° -->
    <g style="fill:#4169e1;" transform="translate(42.501664 45.387168)rotate(-35.473161)scale(0.02 -0.02)">
     <defs>
      <path d="M 3513 3500 
L 2247 1797 
L 3578 0 
L 2900 0 
L 1881 1375 
L 863 0 
L 184 0 
L 1544 1831 
L 300 3500 
L 978 3500 
L 1906 2253 
L 2834 3500 
L 3513 3500 
z
" id="DejaVuSans-78" transform="scale(0.015625)"/>
     </defs>
     <use xlink:href="#DejaVuSans-4b"/>
     <use x="65.576172" xlink:href="#DejaVuSans-6e"/>
     <use x="128.955078" xlink:href="#DejaVuSans-6f"/>
     <use x="187.011719" xlink:href="#DejaVuSans-78"/>
     <use x="246.191406" xlink:href="#DejaVuSans-20"/>
     <use x="277.978516" xlink:href="#DejaVuSans-32"/>
     <use x="341.601562" xlink:href="#DejaVuSans-30"/>
     <use x="405.224609" xlink:href="#DejaVuSans-2e"/>
     <use x="437.011719" xlink:href="#DejaVuSans-30"/>
     <use x="500.634766" xlink:href="#DejaVuSans-b0"/>
    </g>
   </g>
   <g id="text_9">
    <g id="patch_12">
     <path d="M 29.165089 53.60099 
L 36.119991 38.606694 
L 34.327774 37.775398 
L 27.372872 52.769694 
z
" style="fill:#ffffff;"/>
    </g>
    <!-- Dutchman 18.4° -->
    <g style="fill:#4169e1;" transform="translate(28.778038 53.399415)rotate(-65.11641)scale(0.02 -0.02)">
     <defs>
      <path d="M 1172 4494 
L 1172 3500 
L 2356 3500 
L 2356 3053 
L 1172 3053 
L 1172 1153 
Q 1172 725 1289 603 
Q 1406 481 1766 481 
L 2356 481 
L 2356 0 
L 1766 0 
Q 1100 0 847 248 
Q 594 497 594 1153 
L 594 3053 
L 172 3053 
L 172 3500 
L 594 3500 
L 594 4494 
L 1172 4494 
z
" id="DejaVuSans-74" transform="scale(0.015625)"/>
      <path d="M 2419 4116 
L 825 1625 
L 2419 1625 
L 2419 4116 
z
M 2253 4666 
L 3047 4666 
L 3047 1625 
L 3713 1625 
L 3713 1100 
L 3047 1100 
L 3047 0 
L 2419 0 
L 2419 1100 
L 313 1100 
L 313 1709 
L 2253 4666 
z
" id="DejaVuSans-34" transform="scale(0.015625)"/>
     </defs>
     <use xlink:href="#DejaVuSans-44"/>
     <use x="77.001953" xlink:href="#DejaVuSans-75"/>
     <use x="140.380859" xlink:href="#DejaVuSans-74"/>
     <use x="179.589844" xlink:href="#DejaVuSans-63"/>
     <use x="234.570312" xlink:href="#DejaVuSans-68"/>
     <use x="297.949219" xlink:href="#DejaVuSans-6d"/>
     <use x="395.361328" xlink:href="#DejaVuSans-61"/>
     <use x="456.640625" xlink:href="#DejaVuSans-6e"/>
     <use x="520.019531" xlink:href="#DejaVuSans-20"/>
     <use x="551.806641" xlink:href="#DejaVuSans-31"/>
     <use x="615.429688" xlink:href="#DejaVuSans-38"/>
     <use x="679.052734" xlink:href="#DejaVuSans-2e"/>
     <use x="710.839844" xlink:href="#DejaVuSans-34"/>
     <use x="774.462891" xlink:href="#DejaVuSans-b0"/>
    </g>
   </g>
   <g id="text_10">
    <g id="patch_13">
     <path d="M 30.77802 22.858756 
L 46.819045 25.832701 
L 47.179182 23.890178 
L 31.138157 20.916233 
z
" style="fill:#ffffff;"/>
    </g>
    <!-- Ridge Run 17.8° -->
    <g style="fill:#4169e1;" transform="translate(30.877152 22.433769)rotate(-349.496836)scale(0.02 -0.02)">
     <defs>
      <path d="M 2906 2969 
L 2906 4863 
L 3481 4863 
L 3481 0 
L 2906 0 
L 2906 525 
Q 2725 213 2448 61 
Q 2172 -91 1784 -91 
Q 1150 -91 751 415 
Q 353 922 353 1747 
Q 353 2572 751 3078 
Q 1150 3584 1784 3584 
Q 2172 3584 2448 3432 
Q 2725 3281 2906 2969 
z
M 947 1747 
Q 947 1113 1208 752 
Q 1469 391 1925 391 
Q 2381 391 2643 752 
Q 2906 1113 2906 1747 
Q 2906 2381 2643 2742 
Q 2381 3103 1925 3103 
Q 1469 3103 1208 2742 
Q 947 2381 947 1747 
z
" id="DejaVuSans-64" transform="scale(0.015625)"/>
      <path d="M 2906 1791 
Q 2906 2416 2648 2759 
Q 2391 3103 1925 3103 
Q 1463 3103 1205 2759 
Q 947 2416 947 1791 
Q 947 1169 1205 825 
Q 1463 481 1925 481 
Q 2391 481 2648 825 
Q 2906 1169 2906 1791 
z
M 3481 434 
Q 3481 -459 3084 -895 
Q 2688 -1331 1869 -1331 
Q 1566 -1331 1297 -1286 
Q 1028 -1241 775 -1147 
L 775 -588 
Q 1028 -725 1275 -790 
Q 1522 -856 1778 -856 
Q 2344 -856 2625 -561 
Q 2906 -266 2906 331 
L 2906 616 
Q 2728 306 2450 153 
Q 2172 0 1784 0 
Q 1141 0 747 490 
Q 353 981 353 1791 
Q 353 2603 747 3093 
Q 1141 3584 1784 3584 
Q 2172 3584 2450 3431 
Q 2728 3278 2906 2969 
L 2906 3500 
L 3481 3500 
L 3481 434 
z
" id="DejaVuSans-67" transform="scale(0.015625)"/>
      <path d="M 525 4666 
L 3525 4666 
L 3525 4397 
L 1831 0 
L 1172 0 
L 2766 4134 
L 525 4134 
L 525 4666 
z
" id="DejaVuSans-37" transform="scale(0.015625)"/>
     </defs>
     <use xlink:href="#DejaVuSans-52"/>
     <use x="69.482422" xlink:href="#DejaVuSans-69"/>
     <use x="97.265625" xlink:href="#DejaVuSans-64"/>
     <use x="160.742188" xlink:href="#DejaVuSans-67"/>
     <use x="224.21875" xlink:href="#DejaVuSans-65"/>
     <use x="285.742188" xlink:href="#DejaVuSans-20"/>
     <use x="317.529297" xlink:href="#DejaVuSans-52"/>
     <use x="382.511719" xlink:href="#DejaVuSans-75"/>
     <use x="445.890625" xlink:href="#DejaVuSans-6e"/>
     <use x="509.269531" xlink:href="#DejaVuSans-20"/>
     <use x="541.056641" xlink:href="#DejaVuSans-31"/>
     <use x="604.679688" xlink:href="#DejaVuSans-37"/>
     <use x="668.302734" xlink:href="#DejaVuSans-2e"/>
     <use x="700.089844" xlink:href="#DejaVuSans-38"/>
     <use x="763.712891" xlink:href="#DejaVuSans-b0"/>
    </g>
   </g>
   <g id="text_11">
    <g id="patch_14">
     <path d="M 24.599889 27.522463 
L 33.998975 17.071732 
L 32.530045 15.750619 
L 23.130959 26.20135 
z
" style="fill:#ffffff;"/>
    </g>
    <!-- Lift Line 25.2° -->
    <g transform="translate(24.289132 27.216078)rotate(-48.032703)scale(0.02 -0.02)">
     <defs>
      <path d="M 628 4666 
L 1259 4666 
L 1259 531 
L 3531 531 
L 3531 0 
L 628 0 
L 628 4666 
z
" id="DejaVuSans-4c" transform="scale(0.015625)"/>
      <path d="M 2375 4863 
L 2375 4384 
L 1825 4384 
Q 1516 4384 1395 4259 
Q 1275 4134 1275 3809 
L 1275 3500 
L 2222 3500 
L 2222 3053 
L 1275 3053 
L 1275 0 
L 697 0 
L 697 3053 
L 147 3053 
L 147 3500 
L 697 3500 
L 697 3744 
Q 697 4328 969 4595 
Q 1241 4863 1831 4863 
L 2375 4863 
z
" id="DejaVuSans-66" transform="scale(0.015625)"/>
     </defs>
     <use xlink:href="#DejaVuSans-4c"/>
     <use x="55.712891" xlink:href="#DejaVuSans-69"/>
     <use x="83.496094" xlink:href="#DejaVuSans-66"/>
     <use x="116.951172" xlink:href="#DejaVuSans-74"/>
     <use x="156.160156" xlink:href="#DejaVuSans-20"/>
     <use x="187.947266" xlink:href="#DejaVuSans-4c"/>
     <use x="243.660156" xlink:href="#DejaVuSans-69"/>
     <use x="271.443359" xlink:href="#DejaVuSans-6e"/>
     <use x="334.822266" xlink:href="#DejaVuSans-65"/>
     <use x="396.345703" xlink:href="#DejaVuSans-20"/>
     <use x="428.132812" xlink:href="#DejaVuSans-32"/>
     <use x="491.755859" xlink:href="#DejaVuSans-35"/>
     <use x="555.378906" xlink:href="#DejaVuSans-2e"/>
     <use x="587.166016" xlink:href="#DejaVuSans-32"/>
     <use x="650.789062" xlink:href="#DejaVuSans-b0"/>
    </g>
   </g>
   <g id="text_12">
    <g id="patch_15">
     <path d="M 39.204048 42.326523 
L 51.200621 32.481548 
L 49.947325 30.954346 
L 37.950752 40.799322 
z
" style="fill:#ffffff;"/>
    </g>
    <!-- J-Bar Line 19.7° -->
    <g style="fill:#4169e1;" transform="translate(38.942959 41.976846)rotate(-39.373979)scale(0.02 -0.02)">
     <defs>
      <path d="M 628 4666 
L 1259 4666 
L 1259 325 
Q 1259 -519 939 -900 
Q 619 -1281 -91 -1281 
L -331 -1281 
L -331 -750 
L -134 -750 
Q 284 -750 456 -515 
Q 628 -281 628 325 
L 628 4666 
z
" id="DejaVuSans-4a" transform="scale(0.015625)"/>
      <path d="M 313 2009 
L 1997 2009 
L 1997 1497 
L 313 1497 
L 313 2009 
z
" id="DejaVuSans-2d" transform="scale(0.015625)"/>
      <path d="M 703 97 
L 703 672 
Q 941 559 1184 500 
Q 1428 441 1663 441 
Q 2288 441 2617 861 
Q 2947 1281 2994 2138 
Q 2813 1869 2534 1725 
Q 2256 1581 1919 1581 
Q 1219 1581 811 2004 
Q 403 2428 403 3163 
Q 403 3881 828 4315 
Q 1253 4750 1959 4750 
Q 2769 4750 3195 4129 
Q 3622 3509 3622 2328 
Q 3622 1225 3098 567 
Q 2575 -91 1691 -91 
Q 1453 -91 1209 -44 
Q 966 3 703 97 
z
M 1959 2075 
Q 2384 2075 2632 2365 
Q 2881 2656 2881 3163 
Q 2881 3666 2632 3958 
Q 2384 4250 1959 4250 
Q 1534 4250 1286 3958 
Q 1038 3666 1038 3163 
Q 1038 2656 1286 2365 
Q 1534 2075 1959 2075 
z
" id="DejaVuSans-39" transform="scale(0.015625)"/>
     </defs>
     <use xlink:href="#DejaVuSans-4a"/>
     <use x="25.867188" xlink:href="#DejaVuSans-2d"/>
     <use x="58.326172" xlink:href="#DejaVuSans-42"/>
     <use x="126.929688" xlink:href="#DejaVuSans-61"/>
     <use x="188.208984" xlink:href="#DejaVuSans-72"/>
     <use x="229.322266" xlink:href="#DejaVuSans-20"/>
     <use x="261.109375" xlink:href="#DejaVuSans-4c"/>
     <use x="316.822266" xlink:href="#DejaVuSans-69"/>
     <use x="344.605469" xlink:href="#DejaVuSans-6e"/>
     <use x="407.984375" xlink:href="#DejaVuSans-65"/>
     <use x="469.507812" xlink:href="#DejaVuSans-20"/>
     <use x="501.294922" xlink:href="#DejaVuSans-31"/>
     <use x="564.917969" xlink:href="#DejaVuSans-39"/>
     <use x="628.541016" xlink:href="#DejaVuSans-2e"/>
     <use x="660.328125" xlink:href="#DejaVuSans-37"/>
     <use x="723.951172" xlink:href="#DejaVuSans-b0"/>
    </g>
   </g>
   <g id="text_13">
    <g id="patch_16">
     <path d="M 24.176459 25.841294 
L 33.060692 17.834295 
L 31.738047 16.366744 
L 22.853815 24.373743 
z
" style="fill:#ffffff;"/>
    </g>
    <!-- Glade 25.8° -->
    <g style="fill:#ff0000;" transform="translate(23.899464 25.504077)rotate(-42.027055)scale(0.02 -0.02)">
     <defs>
      <path d="M 3809 666 
L 3809 1919 
L 2778 1919 
L 2778 2438 
L 4434 2438 
L 4434 434 
Q 4069 175 3628 42 
Q 3188 -91 2688 -91 
Q 1594 -91 976 548 
Q 359 1188 359 2328 
Q 359 3472 976 4111 
Q 1594 4750 2688 4750 
Q 3144 4750 3555 4637 
Q 3966 4525 4313 4306 
L 4313 3634 
Q 3963 3931 3569 4081 
Q 3175 4231 2741 4231 
Q 1884 4231 1454 3753 
Q 1025 3275 1025 2328 
Q 1025 1384 1454 906 
Q 1884 428 2741 428 
Q 3075 428 3337 486 
Q 3600 544 3809 666 
z
" id="DejaVuSans-47" transform="scale(0.015625)"/>
     </defs>
     <use xlink:href="#DejaVuSans-47"/>
     <use x="77.490234" xlink:href="#DejaVuSans-6c"/>
     <use x="105.273438" xlink:href="#DejaVuSans-61"/>
     <use x="166.552734" xlink:href="#DejaVuSans-64"/>
     <use x="230.029297" xlink:href="#DejaVuSans-65"/>
     <use x="291.552734" xlink:href="#DejaVuSans-20"/>
     <use x="323.339844" xlink:href="#DejaVuSans-32"/>
     <use x="386.962891" xlink:href="#DejaVuSans-35"/>
     <use x="450.585938" xlink:href="#DejaVuSans-2e"/>
     <use x="482.373047" xlink:href="#DejaVuSans-38"/>
     <use x="545.996094" xlink:href="#DejaVuSans-b0"/>
    </g>
   </g>
   <g id="text_14">
    <!-- Otis Ridge -->
    <g transform="translate(25.739654 5.54115)scale(0.05 -0.05)">
     <use xlink:href="#DejaVuSans-4f"/>
     <use x="78.710938" xlink:href="#DejaVuSans-74"/>
     <use x="117.919922" xlink:href="#DejaVuSans-69"/>
     <use x="145.703125" xlink:href="#DejaVuSans-73"/>
     <use x="197.802734" xlink:href="#DejaVuSans-20"/>
     <use x="229.589844" xlink:href="#DejaVuSans-52"/>
     <use x="299.072266" xlink:href="#DejaVuSans-69"/>
     <use x="326.855469" xlink:href="#DejaVuSans-64"/>
     <use x="390.332031" xlink:href="#DejaVuSans-67"/>
     <use x="453.808594" xlink:href="#DejaVuSans-65"/>
    </g>
   </g>
  </g>
  <g id="text_15">
   <!-- Sources: USGS and OpenStreetMaps -->
   <g transform="translate(18.792915 68.377797)scale(0.021739 -0.021739)">
    <defs>
     <path d="M 750 794 
L 1409 794 
L 1409 0 
L 750 0 
L 750 794 
z
M 750 3309 
L 1409 3309 
L 1409 2516 
L 750 2516 
L 750 3309 
z
" id="DejaVuSans-3a" transform="scale(0.015625)"/>
     <path d="M 556 4666 
L 1191 4666 
L 1191 1831 
Q 1191 1081 1462 751 
Q 1734 422 2344 422 
Q 2950 422 3222 751 
Q 3494 1081 3494 1831 
L 3494 4666 
L 4128 4666 
L 4128 1753 
Q 4128 841 3676 375 
Q 3225 -91 2344 -91 
Q 1459 -91 1007 375 
Q 556 841 556 1753 
L 556 4666 
z
" id="DejaVuSans-55" transform="scale(0.015625)"/>
     <path d="M 1159 525 
L 1159 -1331 
L 581 -1331 
L 581 3500 
L 1159 3500 
L 1159 2969 
Q 1341 3281 1617 3432 
Q 1894 3584 2278 3584 
Q 2916 3584 3314 3078 
Q 3713 2572 3713 1747 
Q 3713 922 3314 415 
Q 2916 -91 2278 -91 
Q 1894 -91 1617 61 
Q 1341 213 1159 525 
z
M 3116 1747 
Q 3116 2381 2855 2742 
Q 2594 3103 2138 3103 
Q 1681 3103 1420 2742 
Q 1159 2381 1159 1747 
Q 1159 1113 1420 752 
Q 1681 391 2138 391 
Q 2594 391 2855 752 
Q 3116 1113 3116 1747 
z
" id="DejaVuSans-70" transform="scale(0.015625)"/>
     <path d="M 628 4666 
L 1569 4666 
L 2759 1491 
L 3956 4666 
L 4897 4666 
L 4897 0 
L 4281 0 
L 4281 4097 
L 3078 897 
L 2444 897 
L 1241 4097 
L 1241 0 
L 628 0 
L 628 4666 
z
" id="DejaVuSans-4d" transform="scale(0.015625)"/>
    </defs>
    <use xlink:href="#DejaVuSans-53"/>
    <use x="63.476562" xlink:href="#DejaVuSans-6f"/>
    <use x="124.658203" xlink:href="#DejaVuSans-75"/>
    <use x="188.037109" xlink:href="#DejaVuSans-72"/>
    <use x="226.900391" xlink:href="#DejaVuSans-63"/>
    <use x="281.880859" xlink:href="#DejaVuSans-65"/>
    <use x="343.404297" xlink:href="#DejaVuSans-73"/>
    <use x="395.503906" xlink:href="#DejaVuSans-3a"/>
    <use x="429.195312" xlink:href="#DejaVuSans-20"/>
    <use x="460.982422" xlink:href="#DejaVuSans-55"/>
    <use x="534.175781" xlink:href="#DejaVuSans-53"/>
    <use x="597.652344" xlink:href="#DejaVuSans-47"/>
    <use x="675.142578" xlink:href="#DejaVuSans-53"/>
    <use x="738.619141" xlink:href="#DejaVuSans-20"/>
    <use x="770.40625" xlink:href="#DejaVuSans-61"/>
    <use x="831.685547" xlink:href="#DejaVuSans-6e"/>
    <use x="895.064453" xlink:href="#DejaVuSans-64"/>
    <use x="958.541016" xlink:href="#DejaVuSans-20"/>
    <use x="990.328125" xlink:href="#DejaVuSans-4f"/>
    <use x="1069.039062" xlink:href="#DejaVuSans-70"/>
    <use x="1132.515625" xlink:href="#DejaVuSans-65"/>
    <use x="1194.039062" xlink:href="#DejaVuSans-6e"/>
    <use x="1257.417969" xlink:href="#DejaVuSans-53"/>
    <use x="1320.894531" xlink:href="#DejaVuSans-74"/>
    <use x="1360.103516" xlink:href="#DejaVuSans-72"/>
    <use x="1398.966797" xlink:href="#DejaVuSans-65"/>
    <use x="1460.490234" xlink:href="#DejaVuSans-65"/>
    <use x="1522.013672" xlink:href="#DejaVuSans-74"/>
    <use x="1561.222656" xlink:href="#DejaVuSans-4d"/>
    <use x="1647.501953" xlink:href="#DejaVuSans-61"/>
    <use x="1708.78125" xlink:href="#DejaVuSans-70"/>
    <use x="1772.257812" xlink:href="#DejaVuSans-73"/>
   </g>
  </g>
 </g>
 <defs>
  <clipPath id="p01df734ac2">
   <rect height="52.747603" width="77.246495" x="0" y="8.04115"/>
  </clipPath>
 </defs>
</svg>
