<?xml version="1.0" encoding="utf-8" standalone="no"?>
<!DOCTYPE svg PUBLIC "-//W3C//DTD SVG 1.1//EN"
  "http://www.w3.org/Graphics/SVG/1.1/DTD/svg11.dtd">
<svg height="167.579376pt" version="1.1" viewBox="0 0 165.878864 167.579376" width="165.878864pt" xmlns="http://www.w3.org/2000/svg" xmlns:xlink="http://www.w3.org/1999/xlink">
 <metadata>
  <rdf:RDF xmlns:cc="http://creativecommons.org/ns#" xmlns:dc="http://purl.org/dc/elements/1.1/" xmlns:rdf="http://www.w3.org/1999/02/22-rdf-syntax-ns#">
   <cc:Work>
    <dc:type rdf:resource="http://purl.org/dc/dcmitype/StillImage"/>
    <dc:date>2022-04-14T21:31:54.710653</dc:date>
    <dc:format>image/svg+xml</dc:format>
    <dc:creator>
     <cc:Agent>
      <dc:title>Matplotlib v3.4.3, https://matplotlib.org/</dc:title>
     </cc:Agent>
    </dc:creator>
   </cc:Work>
  </rdf:RDF>
 </metadata>
 <defs>
  <style type="text/css">*{stroke-linecap:butt;stroke-linejoin:round;}</style>
 </defs>
 <g id="figure_1">
  <g id="patch_1">
   <path d="M 0 167.579376 
L 165.878864 167.579376 
L 165.878864 0 
L 0 0 
z
" style="fill:#ffffff;"/>
  </g>
  <g id="axes_1">
   <g id="line2d_1">
    <path clip-path="url(#p29b86172c7)" d="M 14.329075 96.149539 
" style="fill:none;stroke:#008000;stroke-linecap:square;stroke-width:1.5;"/>
   </g>
   <g id="line2d_2">
    <path clip-path="url(#p29b86172c7)" d="M 14.329075 96.149539 
" style="fill:none;stroke:#4169e1;stroke-linecap:square;stroke-width:1.5;"/>
   </g>
   <g id="line2d_3">
    <path clip-path="url(#p29b86172c7)" d="M 14.329075 96.149539 
" style="fill:none;stroke:#000000;stroke-linecap:square;stroke-width:1.5;"/>
   </g>
   <g id="line2d_4">
    <path clip-path="url(#p29b86172c7)" d="M 14.329075 96.149539 
" style="fill:none;stroke:#ff0000;stroke-linecap:square;stroke-width:1.5;"/>
   </g>
   <g id="line2d_5">
    <path clip-path="url(#p29b86172c7)" d="M 14.329075 96.149539 
" style="fill:none;stroke:#ffd700;stroke-linecap:square;stroke-width:1.5;"/>
   </g>
   <g id="line2d_6">
    <path clip-path="url(#p29b86172c7)" d="M 14.329075 96.149539 
" style="fill:none;stroke:#000000;stroke-dasharray:1.5,2.475;stroke-dashoffset:0;stroke-width:1.5;"/>
   </g>
   <g id="line2d_7">
    <path clip-path="url(#p29b86172c7)" d="M 151.947179 82.603948 
L 149.766624 79.713674 
L 147.586068 76.823399 
L 145.383678 73.905181 
L 143.181287 70.986964 
L 140.858806 67.908995 
L 138.536325 64.831027 
L 136.213844 61.753059 
L 133.891363 58.67509 
L 131.100892 54.976045 
L 128.310421 51.277 
L 124.893295 46.74915 
L 121.476169 42.221299 
L 118.503015 38.280782 
L 115.529861 34.340266 
L 113.16371 31.204302 
L 110.79756 28.068339 
L 108.272016 24.721483 
" style="fill:none;stroke:#808080;stroke-linecap:square;stroke-width:1.5;"/>
   </g>
   <g id="line2d_8">
    <path clip-path="url(#p29b86172c7)" d="M 84.402355 126.198482 
L 82.764754 123.111023 
L 81.127154 120.023565 
L 78.80904 115.65441 
L 76.490926 111.285256 
L 74.882075 108.252629 
L 73.273223 105.220003 
L 71.664372 102.187376 
L 70.055521 99.15475 
L 67.79636 94.896314 
L 65.5372 90.637878 
L 63.121557 86.084193 
L 60.705915 81.530508 
L 58.201478 76.809164 
L 55.697042 72.08782 
L 52.835244 66.694258 
L 50.778418 62.817009 
" style="fill:none;stroke:#808080;stroke-linecap:square;stroke-width:1.5;"/>
   </g>
   <g id="line2d_9">
    <path clip-path="url(#p29b86172c7)" d="M 109.839746 118.691782 
L 108.407391 112.726703 
L 107.449577 108.738735 
L 106.491763 104.750768 
L 105.52012 100.705333 
L 104.548477 96.659898 
" style="fill:none;stroke:#808080;stroke-linecap:square;stroke-width:1.5;"/>
   </g>
   <g id="line2d_10">
    <path clip-path="url(#p29b86172c7)" d="M 42.703957 144.058923 
L 40.044494 138.506137 
L 37.835553 133.89393 
L 35.626613 129.281722 
L 33.943887 125.768262 
L 32.261162 122.254802 
L 29.703594 117.118528 
L 27.146027 111.982254 
L 24.894144 107.340522 
L 22.642262 102.698789 
L 21.230287 99.786899 
L 19.818311 96.875008 
L 18.03078 93.190725 
" style="fill:none;stroke:#808080;stroke-linecap:square;stroke-width:1.5;"/>
   </g>
   <g id="line2d_11">
    <path clip-path="url(#p29b86172c7)" d="M 129.090647 101.025362 
L 126.150244 97.84722 
L 123.821213 95.32917 
L 121.492181 92.811119 
L 117.312298 88.292759 
L 113.132414 83.774398 
L 108.95253 79.256038 
L 104.772646 74.737677 
L 101.304573 70.988809 
L 97.8365 67.239941 
L 94.368426 63.491072 
L 90.900353 59.742204 
L 87.989427 56.595696 
L 85.078502 53.449187 
L 82.167576 50.302679 
L 79.256651 47.156171 
L 75.062938 42.623048 
" style="fill:none;stroke:#808080;stroke-linecap:square;stroke-width:1.5;"/>
   </g>
   <g id="line2d_12">
    <path clip-path="url(#p29b86172c7)" d="M 151.297962 83.275639 
L 149.054813 80.298899 
L 146.811665 77.322159 
L 144.569244 74.344891 
L 142.326824 71.367624 
L 140.039278 68.331834 
L 137.751733 65.296044 
L 135.464187 62.260254 
L 133.176641 59.224464 
L 130.357057 55.481659 
L 127.537474 51.738854 
L 124.154555 47.248964 
L 120.771637 42.759073 
L 117.77592 38.782705 
L 114.780204 34.806337 
L 112.446077 31.708861 
L 110.111951 28.611386 
L 107.65919 25.356268 
" style="fill:none;stroke:#808080;stroke-linecap:square;stroke-width:1.5;"/>
   </g>
   <g id="line2d_13">
    <path clip-path="url(#p29b86172c7)" d="M 121.390286 113.019842 
L 119.793444 110.155666 
L 118.196602 107.291489 
L 116.59976 104.427313 
L 115.002917 101.563136 
" style="fill:none;stroke:#808080;stroke-linecap:square;stroke-width:1.5;"/>
   </g>
   <g id="line2d_14">
    <path clip-path="url(#p29b86172c7)" d="M 108.863008 118.966996 
L 107.485968 113.105254 
L 106.541255 109.08038 
L 105.596541 105.055507 
L 104.714421 101.30163 
" style="fill:none;stroke:#808080;stroke-linecap:square;stroke-width:1.5;"/>
   </g>
   <g id="line2d_15">
    <path clip-path="url(#p29b86172c7)" d="M 103.670723 121.226704 
L 102.813349 118.868931 
" style="fill:none;stroke:#808080;stroke-linecap:square;stroke-width:1.5;"/>
   </g>
   <g id="line2d_16">
    <path clip-path="url(#p29b86172c7)" d="M 83.566815 126.578087 
L 81.938676 123.505391 
L 80.310538 120.432695 
L 77.981506 116.03507 
L 75.652475 111.637446 
L 74.052721 108.617736 
L 72.452968 105.598027 
L 70.853214 102.578317 
L 69.25346 99.558608 
L 67.021957 95.346568 
L 64.790454 91.134528 
L 62.383545 86.590333 
L 59.976637 82.046139 
L 57.432898 77.244129 
L 54.889159 72.442118 
L 52.071031 67.124477 
L 49.979269 63.175525 
" style="fill:none;stroke:#808080;stroke-linecap:square;stroke-width:1.5;"/>
   </g>
   <g id="line2d_17">
    <path clip-path="url(#p29b86172c7)" d="M 14.329075 96.149539 
L 13.080132 97.005233 
L 11.831189 97.860928 
L 11.341364 99.712032 
L 10.85154 101.563136 
L 10.825702 102.88332 
L 10.799865 104.203504 
L 10.774027 105.523687 
L 10.748189 106.843871 
L 10.441412 108.128467 
L 10.134635 109.413063 
L 9.827858 110.697658 
L 9.521081 111.982254 
L 9.089482 113.044886 
L 8.657883 114.107518 
L 8.226285 115.17015 
L 7.794686 116.232782 
L 7.731002 117.276697 
L 7.667317 118.320612 
L 7.603633 119.364527 
L 7.539948 120.408443 
L 8.263404 121.495064 
L 8.986859 122.581684 
L 10.004719 123.205661 
L 11.022578 123.829638 
L 12.040438 124.453614 
L 13.058297 125.077591 
L 13.956066 125.571078 
L 14.853835 126.064565 
L 15.751604 126.558053 
L 16.649373 127.05154 
L 17.306596 127.783862 
L 17.96382 128.516185 
L 18.621044 129.248507 
L 19.278267 129.980829 
L 19.874718 130.95225 
L 20.471168 131.923672 
L 21.067618 132.895093 
L 21.664069 133.866514 
L 23.140092 134.885122 
L 24.616116 135.90373 
L 25.575386 136.311543 
L 26.534656 136.719355 
L 27.493926 137.127167 
L 28.453196 137.53498 
L 29.550752 137.998942 
L 30.648308 138.462904 
" style="fill:none;stroke:#008000;stroke-linecap:square;stroke-width:1.5;"/>
   </g>
   <g id="line2d_18">
    <path clip-path="url(#p29b86172c7)" d="M 17.474723 95.419853 
L 18.132902 96.90964 
L 18.791081 98.399427 
L 19.44926 99.889214 
L 20.107439 101.379001 
L 20.765618 102.868788 
L 21.423796 104.358575 
L 22.081975 105.848362 
L 22.740154 107.338149 
L 23.398333 108.827936 
L 24.056512 110.317723 
L 24.714691 111.80751 
L 25.372869 113.297297 
L 26.031048 114.787084 
L 26.689227 116.276871 
L 27.347406 117.766658 
L 28.005585 119.256445 
L 28.663764 120.746232 
L 29.321943 122.236019 
L 29.980121 123.725806 
L 30.6383 125.215593 
L 31.296479 126.70538 
L 31.954658 128.195167 
L 32.612837 129.684954 
L 33.271016 131.174741 
L 33.929194 132.664528 
L 34.587373 134.154315 
L 35.245552 135.644102 
L 35.903731 137.133889 
L 36.56191 138.623677 
L 37.220089 140.113464 
L 37.878267 141.603251 
L 38.536446 143.093038 
" style="fill:none;stroke:#4169e1;stroke-linecap:square;stroke-width:1.5;"/>
   </g>
   <g id="line2d_19">
    <path clip-path="url(#p29b86172c7)" d="M 23.071677 95.273283 
L 24.041864 95.70917 
L 25.012052 96.145058 
L 25.982239 96.580945 
L 26.952426 97.016833 
L 27.922613 97.45272 
L 28.8928 97.888607 
L 29.862987 98.324495 
L 30.833175 98.760382 
L 32.345226 99.558081 
L 33.857276 100.35578 
L 35.369327 101.153479 
L 36.881378 101.951177 
L 37.827547 102.952123 
L 38.773716 103.953069 
L 39.719885 104.954015 
L 40.666054 105.954961 
L 41.28907 107.027874 
L 41.912086 108.100787 
L 42.535102 109.1737 
L 43.158118 110.246613 
L 43.509656 111.503793 
L 43.861195 112.760973 
L 44.212733 114.018152 
L 44.564271 115.275332 
L 44.52606 116.971167 
L 44.48785 118.667002 
L 44.449639 120.362837 
L 44.411428 122.058672 
L 44.172339 123.91874 
L 43.933249 125.778807 
L 43.694159 127.638874 
L 43.45507 129.498941 
L 43.361908 130.846804 
L 43.268747 132.194668 
L 43.175586 133.542531 
L 43.082425 134.890394 
L 43.349535 136.06849 
L 43.616646 137.246585 
L 43.883757 138.42468 
L 44.150868 139.602775 
" style="fill:none;stroke:#008000;stroke-linecap:square;stroke-width:1.5;"/>
   </g>
   <g id="line2d_20">
    <path clip-path="url(#p29b86172c7)" d="M 51.366499 67.781406 
L 51.957672 68.919432 
L 52.548846 70.057457 
L 53.14002 71.195483 
L 53.731193 72.333509 
L 54.322367 73.471535 
L 54.913541 74.609561 
L 55.504714 75.747586 
L 56.095888 76.885612 
L 56.783089 78.208234 
L 57.47029 79.530857 
L 58.15749 80.853479 
L 58.844691 82.176101 
L 59.531892 83.498723 
L 60.219093 84.821345 
L 60.906293 86.143967 
L 61.593494 87.46659 
L 62.280695 88.789212 
L 62.967896 90.111834 
L 63.655097 91.434456 
L 64.342297 92.757078 
L 65.029498 94.0797 
L 65.716699 95.402323 
L 66.4039 96.724945 
L 67.0911 98.047567 
L 67.778301 99.370189 
L 68.465502 100.692811 
L 69.152703 102.015434 
L 69.839903 103.338056 
L 70.527104 104.660678 
L 71.214305 105.9833 
L 71.901506 107.305922 
L 72.588706 108.628544 
L 73.275907 109.951167 
L 73.963108 111.273789 
L 74.650309 112.596411 
L 75.337509 113.919033 
L 76.02471 115.241655 
L 76.711911 116.564277 
L 77.399112 117.8869 
L 78.086312 119.209522 
L 78.837789 120.863179 
L 79.589266 122.516835 
L 80.340742 124.170492 
L 81.092219 125.824149 
L 81.55293 126.993017 
L 82.013642 128.161886 
" style="fill:none;stroke:#4169e1;stroke-linecap:square;stroke-width:1.5;"/>
   </g>
   <g id="line2d_21">
    <path clip-path="url(#p29b86172c7)" d="M 48.500334 65.187435 
L 48.00123 66.273265 
L 47.502126 67.359095 
L 47.003022 68.444925 
L 46.503917 69.530755 
L 46.004813 70.616585 
L 45.505709 71.702415 
L 45.006605 72.788245 
L 44.507501 73.874075 
L 43.947078 75.53854 
L 43.386654 77.203005 
L 42.981985 78.404825 
L 42.577316 79.606646 
L 42.172647 80.808466 
L 41.767978 82.010287 
L 41.551086 83.177706 
L 41.334195 84.345125 
L 41.117304 85.512544 
L 40.900413 86.679963 
L 40.683522 87.847381 
L 40.466631 89.0148 
L 40.24974 90.182219 
L 40.032849 91.349638 
L 39.9799 92.540255 
L 39.926951 93.730872 
L 39.874002 94.921489 
L 39.821053 96.112106 
L 39.768104 97.302723 
L 39.715155 98.49334 
L 39.662206 99.683957 
L 39.609256 100.874574 
L 40.231545 102.059787 
L 40.853833 103.245 
L 41.476121 104.430213 
L 42.098409 105.615425 
L 42.672479 106.46018 
L 43.246549 107.304934 
L 43.820618 108.149688 
L 44.394688 108.994442 
L 44.968758 109.839196 
L 45.542828 110.68395 
L 46.116898 111.528704 
L 46.690968 112.373459 
L 47.711011 113.418956 
L 48.731054 114.464452 
L 49.751097 115.509949 
L 50.77114 116.555446 
L 52.35197 117.619133 
L 53.9328 118.682819 
L 55.51363 119.746506 
L 57.09446 120.810192 
L 58.326664 121.324241 
L 59.558867 121.83829 
L 61.253237 122.545833 
L 62.947608 123.253375 
L 63.994034 123.537025 
L 65.040461 123.820675 
L 66.086887 124.104324 
L 67.133314 124.387974 
L 68.179741 124.671624 
L 69.226167 124.955274 
L 70.272594 125.238923 
L 71.31902 125.522573 
L 72.310132 125.750468 
L 73.301244 125.978363 
L 74.292357 126.206258 
L 75.283469 126.434154 
L 76.274581 126.662049 
L 77.265693 126.889944 
L 78.256805 127.117839 
L 79.247917 127.345734 
" style="fill:none;stroke:#008000;stroke-linecap:square;stroke-width:1.5;"/>
   </g>
   <g id="line2d_22">
    <path clip-path="url(#p29b86172c7)" d="M 43.386654 77.203005 
L 43.658678 78.215154 
L 43.930702 79.227304 
L 44.202725 80.239454 
L 44.474749 81.251603 
L 44.746772 82.263753 
L 45.018796 83.275903 
L 45.29082 84.288052 
L 45.562843 85.300202 
L 46.263008 86.768537 
L 46.963173 88.236873 
L 47.663338 89.705208 
L 48.363504 91.173543 
L 49.294752 92.253046 
L 50.226001 93.33255 
L 51.15725 94.412053 
L 52.088498 95.491556 
L 52.264631 96.968855 
L 52.440764 98.446153 
L 52.386906 99.496922 
L 52.333047 100.547691 
L 52.279188 101.598461 
L 52.225329 102.64923 
L 52.17147 103.699999 
L 52.117611 104.750768 
L 52.063752 105.801538 
L 52.009894 106.852307 
L 52.551393 107.936028 
L 53.092893 109.019749 
L 53.634393 110.10347 
L 54.175893 111.187191 
L 54.962669 112.360278 
L 55.749445 113.533364 
L 56.536221 114.706451 
L 57.322997 115.879538 
L 58.015884 117.565092 
L 58.70877 119.250646 
L 59.133819 120.544468 
L 59.558867 121.83829 
" style="fill:none;stroke:#4169e1;stroke-linecap:square;stroke-width:1.5;"/>
   </g>
   <g id="line2d_23">
    <path clip-path="url(#p29b86172c7)" d="M 56.095888 76.885612 
L 55.583865 78.201051 
L 55.071842 79.51649 
L 54.559819 80.831928 
L 54.047796 82.147367 
L 53.874574 83.395584 
L 53.701353 84.643801 
L 53.528131 85.892017 
L 53.354909 87.140234 
L 53.39967 88.217101 
L 53.444431 89.293969 
L 53.489192 90.370836 
L 53.533954 91.447703 
L 53.268298 92.751015 
L 53.002643 94.054328 
L 52.088498 95.491556 
" style="fill:none;stroke:#008000;stroke-linecap:square;stroke-width:1.5;"/>
   </g>
   <g id="line2d_24">
    <path clip-path="url(#p29b86172c7)" d="M 60.882048 90.701145 
L 60.455908 91.767731 
L 60.029768 92.834317 
L 59.603628 93.900904 
L 59.177488 94.96749 
L 58.871803 96.060965 
L 58.566117 97.15444 
L 58.260432 98.247914 
L 57.954746 99.341389 
L 57.828833 100.394795 
L 57.70292 101.4482 
L 57.577007 102.501605 
L 57.451093 103.555011 
L 57.666529 105.269035 
L 57.881964 106.98306 
L 58.346315 107.919684 
L 58.810666 108.856308 
L 59.275016 109.792932 
L 59.739367 110.729556 
L 60.344915 111.809059 
L 60.950463 112.888562 
L 61.556011 113.968066 
L 62.16156 115.047569 
L 63.014931 116.179795 
L 63.868303 117.312021 
L 64.721675 118.444248 
L 65.575046 119.576474 
L 67.007401 120.708437 
L 68.439755 121.840399 
L 69.471807 122.598029 
L 70.503859 123.355658 
" style="fill:none;stroke:#4169e1;stroke-linecap:square;stroke-width:1.5;"/>
   </g>
   <g id="line2d_25">
    <path clip-path="url(#p29b86172c7)" d="M 65.269361 102.300204 
L 65.321764 103.755095 
L 65.374167 105.209986 
L 65.426571 106.664877 
L 65.478974 108.119768 
L 65.629269 109.286264 
L 65.779564 110.45276 
L 65.92986 111.619256 
L 66.080155 112.785752 
L 66.868387 113.910861 
L 67.656618 115.03597 
L 68.777465 116.087003 
L 69.898311 117.138035 
L 71.019157 118.189068 
L 72.140004 119.240101 
L 73.059971 119.857751 
L 73.979939 120.475401 
L 74.899906 121.093051 
L 75.819874 121.710701 
L 77.423994 122.488365 
L 79.028115 123.266029 
" style="fill:none;stroke:#4169e1;stroke-linecap:square;stroke-width:1.5;"/>
   </g>
   <g id="line2d_26">
    <path clip-path="url(#p29b86172c7)" d="M 54.030328 61.212121 
L 55.659195 60.373825 
L 57.126485 59.57929 
L 58.593774 58.784754 
L 59.922778 58.451545 
L 61.251782 58.118336 
L 62.703787 58.030816 
L 64.155793 57.943295 
L 65.959337 58.082484 
L 67.76288 58.221673 
L 68.752719 58.297594 
L 69.955809 58.403567 
L 71.158899 58.50954 
L 72.982822 58.201638 
L 74.806745 57.893736 
L 75.90794 57.839958 
L 77.009135 57.786181 
L 78.256623 58.064558 
L 78.856348 59.493351 
L 78.7923 61.329693 
L 78.728252 63.166035 
L 78.852709 64.330686 
L 78.977167 65.495337 
L 79.101625 66.659988 
L 79.226082 67.824639 
L 79.226082 69.163275 
L 79.226082 70.501912 
L 79.353451 71.799425 
L 79.48082 73.096938 
L 79.683155 74.06915 
L 79.885489 75.041362 
L 80.926275 76.247664 
L 81.837509 76.609871 
L 82.748742 76.972078 
L 84.490421 77.0364 
L 86.2321 77.100722 
L 87.839132 76.967333 
L 89.446164 76.833944 
L 91.053195 76.700554 
L 92.660227 76.567165 
L 93.979041 76.788075 
L 95.297855 77.008984 
L 96.134851 78.160981 
L 96.971847 79.312979 
L 97.338669 80.352149 
L 97.705492 81.391319 
L 97.955135 82.680396 
L 98.204778 83.969473 
L 98.00681 85.108554 
L 97.808842 86.247634 
L 97.610875 87.386714 
L 97.412907 88.525795 
L 97.452937 90.162316 
L 97.492967 91.798838 
" style="fill:none;stroke:#008000;stroke-linecap:square;stroke-width:1.5;"/>
   </g>
   <g id="line2d_27">
    <path clip-path="url(#p29b86172c7)" d="M 54.563094 62.58081 
L 56.079876 63.272272 
L 57.596658 63.963734 
L 59.11344 64.655196 
L 60.630221 65.346658 
L 61.797648 66.339959 
L 62.965075 67.33326 
L 64.132502 68.326562 
L 65.29993 69.319863 
L 65.783204 70.170548 
L 66.266478 71.021234 
L 66.749752 71.871919 
L 67.233026 72.722605 
L 67.215558 73.687699 
L 67.19809 74.652793 
L 67.180622 75.617888 
L 67.163155 76.582982 
L 67.159516 78.150173 
L 67.155876 79.717364 
L 67.152237 81.284555 
L 67.148598 82.851746 
L 67.663533 84.33168 
L 68.178467 85.811615 
L 68.693401 87.291549 
L 69.208335 88.771484 
L 70.068622 90.201068 
L 70.928908 91.630652 
L 71.789194 93.060236 
L 72.64948 94.489819 
L 73.81909 95.711938 
L 74.988701 96.934057 
L 76.158311 98.156176 
L 77.327922 99.378295 
L 78.217502 100.544792 
L 79.107083 101.711288 
L 79.996664 102.877784 
L 80.886245 104.04428 
L 81.775826 105.210776 
L 82.665407 106.377273 
L 83.554988 107.543769 
L 84.444568 108.710265 
L 85.079048 109.634895 
L 85.713527 110.559524 
L 86.348006 111.484154 
L 86.982485 112.408783 
L 87.616964 113.333412 
L 88.251443 114.258042 
L 88.885922 115.182671 
L 89.520401 116.107301 
" style="fill:none;stroke:#4169e1;stroke-linecap:square;stroke-width:1.5;"/>
   </g>
   <g id="line2d_28">
    <path clip-path="url(#p29b86172c7)" d="M 69.291307 73.845604 
L 70.557718 75.178442 
L 71.824129 76.511279 
L 73.09054 77.844116 
L 74.356951 79.176953 
L 74.933022 80.05321 
L 75.509094 80.929466 
L 76.085165 81.805722 
L 76.661236 82.681978 
L 77.237308 83.558234 
L 77.813379 84.43449 
L 78.38945 85.310746 
L 78.965522 86.187003 
L 79.827991 87.205347 
L 80.690461 88.223692 
L 81.55293 89.242036 
L 82.4154 90.260381 
L 82.88339 91.414487 
L 83.351379 92.568594 
L 83.819369 93.7227 
L 84.287359 94.876806 
L 84.541733 96.379675 
L 84.796107 97.882544 
L 85.050481 99.385413 
L 85.304854 100.888282 
" style="fill:none;stroke:#008000;stroke-linecap:square;stroke-width:1.5;"/>
   </g>
   <g id="line2d_29">
    <path clip-path="url(#p29b86172c7)" d="M 67.76288 58.221673 
L 68.514357 59.384215 
L 69.265833 60.546757 
L 70.01731 61.709299 
L 70.768787 62.871841 
L 71.299369 63.682325 
L 71.829952 64.492809 
L 72.360534 65.303293 
L 72.891117 66.113778 
L 73.421699 66.924262 
L 73.952282 67.734746 
L 74.482864 68.54523 
L 75.013447 69.355714 
L 75.479981 70.26255 
L 75.946515 71.169385 
L 76.413049 72.076221 
L 76.879583 72.983056 
L 77.346117 73.889892 
L 77.812651 74.796727 
L 78.279185 75.703563 
L 78.745719 76.610398 
L 79.62966 77.722985 
L 80.5136 78.835572 
L 81.39754 79.948159 
L 82.28148 81.060746 
L 83.165421 82.173333 
L 84.049361 83.28592 
L 84.933301 84.398507 
L 85.817241 85.511094 
L 86.272312 86.367183 
L 86.727383 87.223273 
L 87.182454 88.079363 
L 87.637525 88.935452 
L 88.092596 89.791542 
L 88.547667 90.647631 
L 89.002738 91.503721 
L 89.457809 92.359811 
L 90.062629 93.378155 
L 90.667449 94.3965 
L 91.27227 95.414844 
L 91.87709 96.433189 
L 92.481911 97.451534 
L 93.086731 98.469878 
L 93.691551 99.488223 
L 94.296372 100.506567 
" style="fill:none;stroke:#4169e1;stroke-linecap:square;stroke-width:1.5;"/>
   </g>
   <g id="line2d_30">
    <path clip-path="url(#p29b86172c7)" d="M 68.805122 71.838967 
L 69.843906 72.367515 
L 70.882691 72.896063 
L 71.921475 73.424611 
L 72.96026 73.953159 
L 73.999044 74.481707 
L 75.037829 75.010255 
L 76.076613 75.538803 
L 77.115397 76.067351 
" style="fill:none;stroke:#008000;stroke-dasharray:5.55,2.4;stroke-dashoffset:0;stroke-width:1.5;"/>
   </g>
   <g id="line2d_31">
    <path clip-path="url(#p29b86172c7)" d="M 74.76162 43.664854 
L 75.662664 44.824826 
L 76.563708 45.984798 
L 77.464752 47.14477 
L 78.365796 48.304741 
L 79.26684 49.464713 
L 80.167884 50.624685 
L 81.068928 51.784657 
L 81.969972 52.944628 
L 82.871017 54.1046 
L 83.772061 55.264572 
L 84.673105 56.424544 
L 85.574149 57.584515 
L 86.475193 58.744487 
L 87.376237 59.904459 
L 88.277281 61.064431 
L 89.178325 62.224402 
L 90.067269 63.238134 
L 90.956213 64.251865 
L 91.845157 65.265596 
L 92.734101 66.279328 
L 93.623045 67.293059 
L 94.511989 68.30679 
L 95.400933 69.320522 
L 96.289877 70.334253 
L 97.178821 71.347984 
L 98.067765 72.361716 
L 98.956709 73.375447 
L 99.845653 74.389178 
L 100.734597 75.40291 
L 101.623541 76.416641 
L 102.512485 77.430373 
L 103.401429 78.444104 
L 104.16869 79.188651 
L 104.935952 79.933199 
L 105.703213 80.677746 
L 106.470474 81.422294 
L 107.237735 82.166841 
L 108.004996 82.911389 
L 108.772258 83.655936 
L 109.539519 84.400484 
L 110.30678 85.145031 
L 111.074041 85.889579 
L 111.841303 86.634126 
L 112.608564 87.378674 
L 113.375825 88.123222 
L 114.143086 88.867769 
L 114.910347 89.612317 
L 115.677609 90.356864 
L 116.44487 91.101412 
L 117.212131 91.845959 
L 117.979392 92.590507 
L 118.746654 93.335054 
L 119.513915 94.079602 
L 120.281176 94.824149 
L 121.048437 95.568697 
L 121.815698 96.313244 
L 122.58296 97.057792 
L 123.350221 97.802339 
L 124.117482 98.546887 
L 124.884743 99.291434 
L 125.652004 100.035982 
L 126.419266 100.780529 
L 127.186527 101.525077 
L 127.953788 102.269624 
" style="fill:none;stroke:#008000;stroke-linecap:square;stroke-width:1.5;"/>
   </g>
   <g id="line2d_32">
    <path clip-path="url(#p29b86172c7)" d="M 79.642397 41.534846 
L 80.757602 41.656636 
L 81.872808 41.778426 
L 82.988014 41.900216 
L 84.10322 42.022006 
L 85.218426 42.143796 
L 86.333631 42.265586 
L 87.448837 42.387376 
L 88.564043 42.509166 
L 89.577899 42.886004 
L 90.591756 43.262842 
L 91.605612 43.639679 
L 92.619469 44.016517 
L 93.633326 44.393354 
L 94.647182 44.770192 
L 95.661039 45.14703 
L 96.674895 45.523867 
L 98.137454 46.467609 
L 99.600013 47.41135 
L 101.062572 48.355092 
L 102.525131 49.298833 
L 103.621959 50.058572 
L 104.718788 50.81831 
L 105.815616 51.578048 
L 106.912444 52.337787 
L 108.237081 53.297345 
L 109.561718 54.256904 
L 110.465673 55.328762 
L 111.369628 56.400621 
L 111.750279 57.292166 
L 112.13093 58.183712 
L 112.511581 59.075258 
L 112.892233 59.966804 
L 113.470123 61.582764 
L 114.048014 63.198723 
L 115.178323 64.699747 
L 116.308631 66.20077 
L 117.109963 66.862444 
L 117.911295 67.524118 
L 118.712628 68.185791 
L 119.51396 68.847465 
L 120.072928 70.346379 
L 120.631895 71.845294 
L 120.493973 73.750439 
L 120.356051 75.655585 
L 120.218128 77.56073 
L 120.080206 79.465875 
L 119.945559 80.801085 
L 119.810912 82.136295 
L 119.676265 83.471505 
L 119.541617 84.806715 
L 119.374218 86.541301 
L 119.206819 88.275888 
" style="fill:none;stroke:#008000;stroke-linecap:square;stroke-width:1.5;"/>
   </g>
   <g id="line2d_33">
    <path clip-path="url(#p29b86172c7)" d="M 90.850861 57.150342 
L 92.02411 56.948412 
L 93.19736 56.746483 
L 94.476872 56.682689 
L 95.756383 56.618894 
L 97.252058 56.127515 
L 98.747733 55.636137 
L 100.391884 55.335089 
L 102.036034 55.034041 
L 103.577562 55.151613 
L 105.11909 55.269185 
L 106.423348 55.980946 
L 107.727605 56.692706 
" style="fill:none;stroke:#008000;stroke-linecap:square;stroke-width:1.5;"/>
   </g>
   <g id="line2d_34">
    <path clip-path="url(#p29b86172c7)" d="M 105.803243 25.940439 
L 106.127124 27.000962 
L 106.451005 28.061485 
L 106.774886 29.122008 
L 107.098767 30.182531 
L 107.550017 31.959296 
L 108.001266 33.73606 
L 108.452516 35.512825 
L 108.903766 37.28959 
L 109.250573 39.006251 
L 109.597381 40.722911 
L 109.944188 42.439572 
L 110.290995 44.156233 
L 110.527538 45.709189 
L 110.76408 47.262144 
L 111.000622 48.8151 
L 111.237165 50.368056 
L 111.521015 51.353976 
L 111.968626 52.906668 
L 112.416237 54.45936 
L 113.164802 56.126725 
L 113.913367 57.794089 
L 114.661933 59.461454 
L 115.410498 61.128819 
L 116.093559 62.036445 
L 116.77662 62.944071 
L 117.459682 63.851698 
L 118.142743 64.759324 
L 119.088912 65.777668 
L 120.035081 66.796013 
L 120.98125 67.814358 
L 121.927419 68.832702 
L 123.16217 69.410019 
L 124.39692 69.987336 
L 125.631671 70.564653 
L 126.866422 71.141969 
L 128.206342 72.164532 
L 129.546263 73.187094 
L 130.886184 74.209657 
L 132.226105 75.232219 
L 133.677019 76.097403 
L 135.127933 76.962588 
L 136.578847 77.827772 
L 138.029761 78.692956 
L 139.134049 79.333014 
L 140.238338 79.973071 
L 141.342626 80.613128 
L 142.446914 81.253185 
L 143.551203 81.893242 
L 144.655491 82.533299 
L 145.75978 83.173356 
L 146.864068 83.813413 
" style="fill:none;stroke:#008000;stroke-linecap:square;stroke-width:1.5;"/>
   </g>
   <g id="line2d_35">
    <path clip-path="url(#p29b86172c7)" d="M 110.966415 26.133405 
L 111.798225 27.270903 
L 112.630035 28.408402 
L 113.461845 29.545901 
L 114.293654 30.683399 
L 115.125464 31.820898 
L 115.957274 32.958396 
L 116.789084 34.095895 
L 117.620894 35.233393 
L 118.452704 36.370892 
L 119.284514 37.508391 
L 120.116324 38.645889 
L 120.948134 39.783388 
L 121.779944 40.920886 
L 122.611754 42.058385 
L 123.443564 43.195883 
L 124.275374 44.333382 
L 125.037222 45.941301 
L 125.79907 47.549221 
L 126.560918 49.15714 
L 127.322766 50.76506 
L 128.084614 52.372979 
L 128.846462 53.980899 
L 129.60831 55.588818 
L 130.370158 57.196738 
L 130.951688 58.008804 
L 131.533218 58.82087 
L 132.114748 59.632935 
L 132.696279 60.445001 
L 133.277809 61.257067 
L 133.859339 62.069133 
L 134.440869 62.881199 
L 135.022399 63.693265 
L 135.603929 64.505331 
L 136.185459 65.317397 
L 136.766989 66.129463 
L 137.348519 66.941529 
L 137.930049 67.753594 
L 138.511579 68.56566 
L 139.093109 69.377726 
L 139.674639 70.189792 
L 140.781475 71.563621 
L 141.888311 72.937451 
L 142.995147 74.31128 
L 144.101982 75.68511 
L 145.208818 77.058939 
L 146.315654 78.432768 
L 147.42249 79.806598 
L 148.529326 81.180427 
" style="fill:none;stroke:#008000;stroke-linecap:square;stroke-width:1.5;"/>
   </g>
   <g id="line2d_36">
    <path clip-path="url(#p29b86172c7)" d="M 103.469844 82.941375 
L 103.310087 84.039331 
L 103.15033 85.137288 
L 102.990573 86.235244 
L 102.830816 87.3332 
L 102.120098 88.864276 
L 101.409379 90.395352 
L 100.698661 91.926428 
L 99.987942 93.457503 
L 99.259756 94.625054 
L 98.53157 95.792605 
L 97.803384 96.960155 
L 97.075197 98.127706 
L 96.456548 99.398857 
L 95.837899 100.670009 
" style="fill:none;stroke:#008000;stroke-linecap:square;stroke-width:1.5;"/>
   </g>
   <g id="line2d_37">
    <path clip-path="url(#p29b86172c7)" d="M 106.076904 96.273966 
L 106.39751 97.572731 
L 106.718116 98.871496 
L 107.038721 100.170261 
L 107.359327 101.469026 
L 107.679933 102.767791 
L 108.000539 104.066556 
L 108.321144 105.365321 
L 108.64175 106.664086 
L 108.962356 107.962851 
L 109.282962 109.261616 
L 109.603567 110.560381 
L 109.924173 111.859146 
L 110.244779 113.157911 
L 110.565385 114.456676 
L 110.88599 115.755441 
L 111.206596 117.054206 
" style="fill:none;stroke:#008000;stroke-linecap:square;stroke-width:1.5;"/>
   </g>
   <g id="line2d_38">
    <path clip-path="url(#p29b86172c7)" d="M 109.774242 36.382755 
L 110.708038 37.877188 
L 111.641834 39.371621 
L 112.57563 40.866054 
L 113.509426 42.360488 
L 114.331501 43.389377 
L 115.153577 44.418266 
L 115.975652 45.447155 
L 116.797727 46.476044 
L 117.676937 47.235783 
L 118.556146 47.995521 
L 119.409882 48.582855 
L 120.263617 49.170189 
L 121.075139 49.736171 
L 121.886661 50.302152 
L 122.698183 50.868133 
L 123.509705 51.434115 
" style="fill:none;stroke:#008000;stroke-linecap:square;stroke-width:1.5;"/>
   </g>
   <g id="line2d_39">
    <path clip-path="url(#p29b86172c7)" d="M 111.521015 51.353976 
L 112.737934 52.075753 
L 113.954853 52.797531 
L 115.553515 53.485566 
L 117.152177 54.173601 
L 118.750839 54.861636 
L 120.3495 55.549671 
L 121.349892 55.947466 
L 122.350284 56.345261 
L 123.350676 56.743056 
L 124.351068 57.140851 
L 125.430792 57.401567 
L 126.510516 57.662282 
L 127.590241 57.922997 
L 128.669965 58.183712 
" style="fill:none;stroke:#008000;stroke-linecap:square;stroke-width:1.5;"/>
   </g>
   <g id="line2d_40">
    <path clip-path="url(#p29b86172c7)" d="M 111.018818 23.520453 
L 112.715372 23.716056 
L 114.411926 23.911658 
L 115.930163 24.420962 
L 117.4484 24.930266 
L 118.587442 25.366813 
L 119.726484 25.803359 
L 120.865526 26.239905 
L 122.004568 26.676452 
L 123.543913 26.923195 
L 125.083257 27.169939 
L 125.944998 27.766763 
L 126.80674 28.363588 
L 127.668482 28.960412 
L 128.530223 29.557236 
L 129.301351 30.158805 
L 130.072479 30.760375 
L 130.843607 31.361944 
L 131.614735 31.963513 
L 132.55217 33.374908 
L 133.489605 34.786302 
L 134.850633 36.143392 
L 136.21166 37.500482 
L 137.110521 38.139221 
L 138.009382 38.77796 
L 138.908242 39.416699 
L 139.807103 40.055438 
L 141.108449 40.62801 
L 142.409796 41.200582 
L 143.925849 42.352579 
L 145.441903 43.504577 
L 146.635896 44.786273 
L 147.829888 46.067968 
L 149.023881 47.349664 
L 150.217874 48.63136 
L 151.156401 49.693465 
L 152.094927 50.75557 
L 153.033454 51.817674 
L 153.971981 52.879779 
L 154.639758 54.256113 
L 155.307535 55.632447 
L 155.975312 57.00878 
L 156.643089 58.385114 
L 157.034658 59.770411 
L 157.426226 61.155707 
L 157.817795 62.541004 
L 158.209363 63.926301 
L 158.241751 65.149474 
L 158.274139 66.372647 
L 158.306527 67.595821 
L 158.338915 68.818994 
L 158.005209 69.848147 
L 157.671502 70.8773 
L 157.337796 71.906453 
L 157.004089 72.935606 
" style="fill:none;stroke:#008000;stroke-linecap:square;stroke-width:1.5;"/>
   </g>
   <g id="line2d_41">
    <path clip-path="url(#p29b86172c7)" d="M 122.004568 26.676452 
L 122.757501 27.693478 
L 123.510433 28.710505 
L 124.263365 29.727531 
L 125.016297 30.744558 
L 125.796887 32.052615 
L 126.577476 33.360673 
L 127.358066 34.66873 
L 128.138655 35.976788 
L 128.885765 37.367357 
L 129.632874 38.757926 
L 130.379984 40.148494 
L 131.127094 41.539063 
L 132.030685 42.439572 
L 132.934276 43.340081 
L 133.837868 44.24059 
L 134.741459 45.141098 
L 135.686901 46.000219 
L 136.632342 46.859341 
L 137.577783 47.718462 
L 138.523224 48.577583 
L 139.61241 49.538459 
L 140.701596 50.499336 
L 141.790783 51.460213 
L 142.879969 52.421089 
L 143.447306 53.347432 
L 144.014644 54.273775 
L 144.581981 55.200118 
L 145.149319 56.126461 
L 145.716656 57.052804 
L 146.283994 57.979147 
L 146.851331 58.90549 
L 147.418669 59.831833 
L 148.016757 60.861381 
L 148.614845 61.890929 
L 149.212933 62.920478 
L 149.811021 63.950026 
L 150.409109 64.979574 
L 151.007197 66.009122 
L 151.605285 67.038671 
L 152.203373 68.068219 
L 152.742325 69.544726 
L 153.281278 71.021234 
L 153.82023 72.497741 
L 154.359183 73.974249 
L 154.592814 75.405678 
L 154.826445 76.837107 
" style="fill:none;stroke:#008000;stroke-linecap:square;stroke-width:1.5;"/>
   </g>
   <g id="text_1">
    <g id="patch_2">
     <path d="M 142.171223 70.088375 
L 146.86265 78.669687 
L 148.596132 77.721988 
L 143.904705 69.140676 
z
" style="fill:#ffffff;"/>
    </g>
    <!-- Chairlift 1 -->
    <g style="fill:#808080;" transform="translate(142.563324 69.896806)rotate(-298.665551)scale(0.02 -0.02)">
     <defs>
      <path d="M 4122 4306 
L 4122 3641 
Q 3803 3938 3442 4084 
Q 3081 4231 2675 4231 
Q 1875 4231 1450 3742 
Q 1025 3253 1025 2328 
Q 1025 1406 1450 917 
Q 1875 428 2675 428 
Q 3081 428 3442 575 
Q 3803 722 4122 1019 
L 4122 359 
Q 3791 134 3420 21 
Q 3050 -91 2638 -91 
Q 1578 -91 968 557 
Q 359 1206 359 2328 
Q 359 3453 968 4101 
Q 1578 4750 2638 4750 
Q 3056 4750 3426 4639 
Q 3797 4528 4122 4306 
z
" id="DejaVuSans-43" transform="scale(0.015625)"/>
      <path d="M 3513 2113 
L 3513 0 
L 2938 0 
L 2938 2094 
Q 2938 2591 2744 2837 
Q 2550 3084 2163 3084 
Q 1697 3084 1428 2787 
Q 1159 2491 1159 1978 
L 1159 0 
L 581 0 
L 581 4863 
L 1159 4863 
L 1159 2956 
Q 1366 3272 1645 3428 
Q 1925 3584 2291 3584 
Q 2894 3584 3203 3211 
Q 3513 2838 3513 2113 
z
" id="DejaVuSans-68" transform="scale(0.015625)"/>
      <path d="M 2194 1759 
Q 1497 1759 1228 1600 
Q 959 1441 959 1056 
Q 959 750 1161 570 
Q 1363 391 1709 391 
Q 2188 391 2477 730 
Q 2766 1069 2766 1631 
L 2766 1759 
L 2194 1759 
z
M 3341 1997 
L 3341 0 
L 2766 0 
L 2766 531 
Q 2569 213 2275 61 
Q 1981 -91 1556 -91 
Q 1019 -91 701 211 
Q 384 513 384 1019 
Q 384 1609 779 1909 
Q 1175 2209 1959 2209 
L 2766 2209 
L 2766 2266 
Q 2766 2663 2505 2880 
Q 2244 3097 1772 3097 
Q 1472 3097 1187 3025 
Q 903 2953 641 2809 
L 641 3341 
Q 956 3463 1253 3523 
Q 1550 3584 1831 3584 
Q 2591 3584 2966 3190 
Q 3341 2797 3341 1997 
z
" id="DejaVuSans-61" transform="scale(0.015625)"/>
      <path d="M 603 3500 
L 1178 3500 
L 1178 0 
L 603 0 
L 603 3500 
z
M 603 4863 
L 1178 4863 
L 1178 4134 
L 603 4134 
L 603 4863 
z
" id="DejaVuSans-69" transform="scale(0.015625)"/>
      <path d="M 2631 2963 
Q 2534 3019 2420 3045 
Q 2306 3072 2169 3072 
Q 1681 3072 1420 2755 
Q 1159 2438 1159 1844 
L 1159 0 
L 581 0 
L 581 3500 
L 1159 3500 
L 1159 2956 
Q 1341 3275 1631 3429 
Q 1922 3584 2338 3584 
Q 2397 3584 2469 3576 
Q 2541 3569 2628 3553 
L 2631 2963 
z
" id="DejaVuSans-72" transform="scale(0.015625)"/>
      <path d="M 603 4863 
L 1178 4863 
L 1178 0 
L 603 0 
L 603 4863 
z
" id="DejaVuSans-6c" transform="scale(0.015625)"/>
      <path d="M 2375 4863 
L 2375 4384 
L 1825 4384 
Q 1516 4384 1395 4259 
Q 1275 4134 1275 3809 
L 1275 3500 
L 2222 3500 
L 2222 3053 
L 1275 3053 
L 1275 0 
L 697 0 
L 697 3053 
L 147 3053 
L 147 3500 
L 697 3500 
L 697 3744 
Q 697 4328 969 4595 
Q 1241 4863 1831 4863 
L 2375 4863 
z
" id="DejaVuSans-66" transform="scale(0.015625)"/>
      <path d="M 1172 4494 
L 1172 3500 
L 2356 3500 
L 2356 3053 
L 1172 3053 
L 1172 1153 
Q 1172 725 1289 603 
Q 1406 481 1766 481 
L 2356 481 
L 2356 0 
L 1766 0 
Q 1100 0 847 248 
Q 594 497 594 1153 
L 594 3053 
L 172 3053 
L 172 3500 
L 594 3500 
L 594 4494 
L 1172 4494 
z
" id="DejaVuSans-74" transform="scale(0.015625)"/>
      <path id="DejaVuSans-20" transform="scale(0.015625)"/>
      <path d="M 794 531 
L 1825 531 
L 1825 4091 
L 703 3866 
L 703 4441 
L 1819 4666 
L 2450 4666 
L 2450 531 
L 3481 531 
L 3481 0 
L 794 0 
L 794 531 
z
" id="DejaVuSans-31" transform="scale(0.015625)"/>
     </defs>
     <use xlink:href="#DejaVuSans-43"/>
     <use x="69.824219" xlink:href="#DejaVuSans-68"/>
     <use x="133.203125" xlink:href="#DejaVuSans-61"/>
     <use x="194.482422" xlink:href="#DejaVuSans-69"/>
     <use x="222.265625" xlink:href="#DejaVuSans-72"/>
     <use x="263.378906" xlink:href="#DejaVuSans-6c"/>
     <use x="291.162109" xlink:href="#DejaVuSans-69"/>
     <use x="318.945312" xlink:href="#DejaVuSans-66"/>
     <use x="352.400391" xlink:href="#DejaVuSans-74"/>
     <use x="391.609375" xlink:href="#DejaVuSans-20"/>
     <use x="423.396484" xlink:href="#DejaVuSans-31"/>
    </g>
   </g>
   <g id="text_2">
    <g id="patch_3">
     <path d="M 73.814569 107.075151 
L 77.32317 116.204122 
L 79.167283 115.495361 
L 75.658682 106.36639 
z
" style="fill:#ffffff;"/>
    </g>
    <!-- Chairlift 6 -->
    <g style="fill:#808080;" transform="translate(74.228662 106.937426)rotate(-291.023611)scale(0.02 -0.02)">
     <defs>
      <path d="M 2113 2584 
Q 1688 2584 1439 2293 
Q 1191 2003 1191 1497 
Q 1191 994 1439 701 
Q 1688 409 2113 409 
Q 2538 409 2786 701 
Q 3034 994 3034 1497 
Q 3034 2003 2786 2293 
Q 2538 2584 2113 2584 
z
M 3366 4563 
L 3366 3988 
Q 3128 4100 2886 4159 
Q 2644 4219 2406 4219 
Q 1781 4219 1451 3797 
Q 1122 3375 1075 2522 
Q 1259 2794 1537 2939 
Q 1816 3084 2150 3084 
Q 2853 3084 3261 2657 
Q 3669 2231 3669 1497 
Q 3669 778 3244 343 
Q 2819 -91 2113 -91 
Q 1303 -91 875 529 
Q 447 1150 447 2328 
Q 447 3434 972 4092 
Q 1497 4750 2381 4750 
Q 2619 4750 2861 4703 
Q 3103 4656 3366 4563 
z
" id="DejaVuSans-36" transform="scale(0.015625)"/>
     </defs>
     <use xlink:href="#DejaVuSans-43"/>
     <use x="69.824219" xlink:href="#DejaVuSans-68"/>
     <use x="133.203125" xlink:href="#DejaVuSans-61"/>
     <use x="194.482422" xlink:href="#DejaVuSans-69"/>
     <use x="222.265625" xlink:href="#DejaVuSans-72"/>
     <use x="263.378906" xlink:href="#DejaVuSans-6c"/>
     <use x="291.162109" xlink:href="#DejaVuSans-69"/>
     <use x="318.945312" xlink:href="#DejaVuSans-66"/>
     <use x="352.400391" xlink:href="#DejaVuSans-74"/>
     <use x="391.609375" xlink:href="#DejaVuSans-20"/>
     <use x="423.396484" xlink:href="#DejaVuSans-36"/>
    </g>
   </g>
   <g id="text_3">
    <g id="patch_4">
     <path d="M 33.090571 124.985635 
L 36.296168 134.225362 
L 38.162655 133.57781 
L 34.957057 124.338083 
z
" style="fill:#ffffff;"/>
    </g>
    <!-- Chairlift 8 -->
    <g style="fill:#808080;" transform="translate(33.508981 124.861643)rotate(-289.133524)scale(0.02 -0.02)">
     <defs>
      <path d="M 2034 2216 
Q 1584 2216 1326 1975 
Q 1069 1734 1069 1313 
Q 1069 891 1326 650 
Q 1584 409 2034 409 
Q 2484 409 2743 651 
Q 3003 894 3003 1313 
Q 3003 1734 2745 1975 
Q 2488 2216 2034 2216 
z
M 1403 2484 
Q 997 2584 770 2862 
Q 544 3141 544 3541 
Q 544 4100 942 4425 
Q 1341 4750 2034 4750 
Q 2731 4750 3128 4425 
Q 3525 4100 3525 3541 
Q 3525 3141 3298 2862 
Q 3072 2584 2669 2484 
Q 3125 2378 3379 2068 
Q 3634 1759 3634 1313 
Q 3634 634 3220 271 
Q 2806 -91 2034 -91 
Q 1263 -91 848 271 
Q 434 634 434 1313 
Q 434 1759 690 2068 
Q 947 2378 1403 2484 
z
M 1172 3481 
Q 1172 3119 1398 2916 
Q 1625 2713 2034 2713 
Q 2441 2713 2670 2916 
Q 2900 3119 2900 3481 
Q 2900 3844 2670 4047 
Q 2441 4250 2034 4250 
Q 1625 4250 1398 4047 
Q 1172 3844 1172 3481 
z
" id="DejaVuSans-38" transform="scale(0.015625)"/>
     </defs>
     <use xlink:href="#DejaVuSans-43"/>
     <use x="69.824219" xlink:href="#DejaVuSans-68"/>
     <use x="133.203125" xlink:href="#DejaVuSans-61"/>
     <use x="194.482422" xlink:href="#DejaVuSans-69"/>
     <use x="222.265625" xlink:href="#DejaVuSans-72"/>
     <use x="263.378906" xlink:href="#DejaVuSans-6c"/>
     <use x="291.162109" xlink:href="#DejaVuSans-69"/>
     <use x="318.945312" xlink:href="#DejaVuSans-66"/>
     <use x="352.400391" xlink:href="#DejaVuSans-74"/>
     <use x="391.609375" xlink:href="#DejaVuSans-20"/>
     <use x="423.396484" xlink:href="#DejaVuSans-38"/>
    </g>
   </g>
   <g id="text_4">
    <g id="patch_5">
     <path d="M 117.949644 89.298527 
L 123.393441 97.423395 
L 125.034719 96.323711 
L 119.590921 88.198844 
z
" style="fill:#ffffff;"/>
    </g>
    <!-- Chairlift 3 -->
    <g style="fill:#808080;" transform="translate(118.322938 89.072489)rotate(-303.822748)scale(0.02 -0.02)">
     <defs>
      <path d="M 2597 2516 
Q 3050 2419 3304 2112 
Q 3559 1806 3559 1356 
Q 3559 666 3084 287 
Q 2609 -91 1734 -91 
Q 1441 -91 1130 -33 
Q 819 25 488 141 
L 488 750 
Q 750 597 1062 519 
Q 1375 441 1716 441 
Q 2309 441 2620 675 
Q 2931 909 2931 1356 
Q 2931 1769 2642 2001 
Q 2353 2234 1838 2234 
L 1294 2234 
L 1294 2753 
L 1863 2753 
Q 2328 2753 2575 2939 
Q 2822 3125 2822 3475 
Q 2822 3834 2567 4026 
Q 2313 4219 1838 4219 
Q 1578 4219 1281 4162 
Q 984 4106 628 3988 
L 628 4550 
Q 988 4650 1302 4700 
Q 1616 4750 1894 4750 
Q 2613 4750 3031 4423 
Q 3450 4097 3450 3541 
Q 3450 3153 3228 2886 
Q 3006 2619 2597 2516 
z
" id="DejaVuSans-33" transform="scale(0.015625)"/>
     </defs>
     <use xlink:href="#DejaVuSans-43"/>
     <use x="69.824219" xlink:href="#DejaVuSans-68"/>
     <use x="133.203125" xlink:href="#DejaVuSans-61"/>
     <use x="194.482422" xlink:href="#DejaVuSans-69"/>
     <use x="222.265625" xlink:href="#DejaVuSans-72"/>
     <use x="263.378906" xlink:href="#DejaVuSans-6c"/>
     <use x="291.162109" xlink:href="#DejaVuSans-69"/>
     <use x="318.945312" xlink:href="#DejaVuSans-66"/>
     <use x="352.400391" xlink:href="#DejaVuSans-74"/>
     <use x="391.609375" xlink:href="#DejaVuSans-20"/>
     <use x="423.396484" xlink:href="#DejaVuSans-33"/>
    </g>
   </g>
   <g id="text_5">
    <g id="patch_6">
     <path d="M 141.360035 70.525356 
L 146.044167 79.110652 
L 147.778454 78.164426 
L 143.094322 69.57913 
z
" style="fill:#ffffff;"/>
    </g>
    <!-- Chairlift 2 -->
    <g style="fill:#808080;" transform="translate(141.752298 70.334121)rotate(-298.616857)scale(0.02 -0.02)">
     <defs>
      <path d="M 1228 531 
L 3431 531 
L 3431 0 
L 469 0 
L 469 531 
Q 828 903 1448 1529 
Q 2069 2156 2228 2338 
Q 2531 2678 2651 2914 
Q 2772 3150 2772 3378 
Q 2772 3750 2511 3984 
Q 2250 4219 1831 4219 
Q 1534 4219 1204 4116 
Q 875 4013 500 3803 
L 500 4441 
Q 881 4594 1212 4672 
Q 1544 4750 1819 4750 
Q 2544 4750 2975 4387 
Q 3406 4025 3406 3419 
Q 3406 3131 3298 2873 
Q 3191 2616 2906 2266 
Q 2828 2175 2409 1742 
Q 1991 1309 1228 531 
z
" id="DejaVuSans-32" transform="scale(0.015625)"/>
     </defs>
     <use xlink:href="#DejaVuSans-43"/>
     <use x="69.824219" xlink:href="#DejaVuSans-68"/>
     <use x="133.203125" xlink:href="#DejaVuSans-61"/>
     <use x="194.482422" xlink:href="#DejaVuSans-69"/>
     <use x="222.265625" xlink:href="#DejaVuSans-72"/>
     <use x="263.378906" xlink:href="#DejaVuSans-6c"/>
     <use x="291.162109" xlink:href="#DejaVuSans-69"/>
     <use x="318.945312" xlink:href="#DejaVuSans-66"/>
     <use x="352.400391" xlink:href="#DejaVuSans-74"/>
     <use x="391.609375" xlink:href="#DejaVuSans-20"/>
     <use x="423.396484" xlink:href="#DejaVuSans-32"/>
    </g>
   </g>
   <g id="text_6">
    <g id="patch_7">
     <path d="M 72.978649 107.425732 
L 76.481761 116.556811 
L 78.3263 115.849159 
L 74.823188 106.71808 
z
" style="fill:#ffffff;"/>
    </g>
    <!-- Chairlift 7 -->
    <g style="fill:#808080;" transform="translate(73.392825 107.288256)rotate(-290.989163)scale(0.02 -0.02)">
     <defs>
      <path d="M 525 4666 
L 3525 4666 
L 3525 4397 
L 1831 0 
L 1172 0 
L 2766 4134 
L 525 4134 
L 525 4666 
z
" id="DejaVuSans-37" transform="scale(0.015625)"/>
     </defs>
     <use xlink:href="#DejaVuSans-43"/>
     <use x="69.824219" xlink:href="#DejaVuSans-68"/>
     <use x="133.203125" xlink:href="#DejaVuSans-61"/>
     <use x="194.482422" xlink:href="#DejaVuSans-69"/>
     <use x="222.265625" xlink:href="#DejaVuSans-72"/>
     <use x="263.378906" xlink:href="#DejaVuSans-6c"/>
     <use x="291.162109" xlink:href="#DejaVuSans-69"/>
     <use x="318.945312" xlink:href="#DejaVuSans-66"/>
     <use x="352.400391" xlink:href="#DejaVuSans-74"/>
     <use x="391.609375" xlink:href="#DejaVuSans-20"/>
     <use x="423.396484" xlink:href="#DejaVuSans-37"/>
    </g>
   </g>
   <g id="text_7">
    <g id="patch_8">
     <path d="M -0.466978 115.163099 
L 23.271617 135.252213 
L 24.547853 133.74413 
L 0.809259 113.655016 
z
" style="fill:#ffffff;"/>
    </g>
    <!-- Willie Wynkin Woodlands 16.8° -->
    <g style="fill:#008000;" transform="translate(-0.170099 114.843248)rotate(-319.759969)scale(0.02 -0.02)">
     <defs>
      <path d="M 213 4666 
L 850 4666 
L 1831 722 
L 2809 4666 
L 3519 4666 
L 4500 722 
L 5478 4666 
L 6119 4666 
L 4947 0 
L 4153 0 
L 3169 4050 
L 2175 0 
L 1381 0 
L 213 4666 
z
" id="DejaVuSans-57" transform="scale(0.015625)"/>
      <path d="M 3597 1894 
L 3597 1613 
L 953 1613 
Q 991 1019 1311 708 
Q 1631 397 2203 397 
Q 2534 397 2845 478 
Q 3156 559 3463 722 
L 3463 178 
Q 3153 47 2828 -22 
Q 2503 -91 2169 -91 
Q 1331 -91 842 396 
Q 353 884 353 1716 
Q 353 2575 817 3079 
Q 1281 3584 2069 3584 
Q 2775 3584 3186 3129 
Q 3597 2675 3597 1894 
z
M 3022 2063 
Q 3016 2534 2758 2815 
Q 2500 3097 2075 3097 
Q 1594 3097 1305 2825 
Q 1016 2553 972 2059 
L 3022 2063 
z
" id="DejaVuSans-65" transform="scale(0.015625)"/>
      <path d="M 2059 -325 
Q 1816 -950 1584 -1140 
Q 1353 -1331 966 -1331 
L 506 -1331 
L 506 -850 
L 844 -850 
Q 1081 -850 1212 -737 
Q 1344 -625 1503 -206 
L 1606 56 
L 191 3500 
L 800 3500 
L 1894 763 
L 2988 3500 
L 3597 3500 
L 2059 -325 
z
" id="DejaVuSans-79" transform="scale(0.015625)"/>
      <path d="M 3513 2113 
L 3513 0 
L 2938 0 
L 2938 2094 
Q 2938 2591 2744 2837 
Q 2550 3084 2163 3084 
Q 1697 3084 1428 2787 
Q 1159 2491 1159 1978 
L 1159 0 
L 581 0 
L 581 3500 
L 1159 3500 
L 1159 2956 
Q 1366 3272 1645 3428 
Q 1925 3584 2291 3584 
Q 2894 3584 3203 3211 
Q 3513 2838 3513 2113 
z
" id="DejaVuSans-6e" transform="scale(0.015625)"/>
      <path d="M 581 4863 
L 1159 4863 
L 1159 1991 
L 2875 3500 
L 3609 3500 
L 1753 1863 
L 3688 0 
L 2938 0 
L 1159 1709 
L 1159 0 
L 581 0 
L 581 4863 
z
" id="DejaVuSans-6b" transform="scale(0.015625)"/>
      <path d="M 1959 3097 
Q 1497 3097 1228 2736 
Q 959 2375 959 1747 
Q 959 1119 1226 758 
Q 1494 397 1959 397 
Q 2419 397 2687 759 
Q 2956 1122 2956 1747 
Q 2956 2369 2687 2733 
Q 2419 3097 1959 3097 
z
M 1959 3584 
Q 2709 3584 3137 3096 
Q 3566 2609 3566 1747 
Q 3566 888 3137 398 
Q 2709 -91 1959 -91 
Q 1206 -91 779 398 
Q 353 888 353 1747 
Q 353 2609 779 3096 
Q 1206 3584 1959 3584 
z
" id="DejaVuSans-6f" transform="scale(0.015625)"/>
      <path d="M 2906 2969 
L 2906 4863 
L 3481 4863 
L 3481 0 
L 2906 0 
L 2906 525 
Q 2725 213 2448 61 
Q 2172 -91 1784 -91 
Q 1150 -91 751 415 
Q 353 922 353 1747 
Q 353 2572 751 3078 
Q 1150 3584 1784 3584 
Q 2172 3584 2448 3432 
Q 2725 3281 2906 2969 
z
M 947 1747 
Q 947 1113 1208 752 
Q 1469 391 1925 391 
Q 2381 391 2643 752 
Q 2906 1113 2906 1747 
Q 2906 2381 2643 2742 
Q 2381 3103 1925 3103 
Q 1469 3103 1208 2742 
Q 947 2381 947 1747 
z
" id="DejaVuSans-64" transform="scale(0.015625)"/>
      <path d="M 2834 3397 
L 2834 2853 
Q 2591 2978 2328 3040 
Q 2066 3103 1784 3103 
Q 1356 3103 1142 2972 
Q 928 2841 928 2578 
Q 928 2378 1081 2264 
Q 1234 2150 1697 2047 
L 1894 2003 
Q 2506 1872 2764 1633 
Q 3022 1394 3022 966 
Q 3022 478 2636 193 
Q 2250 -91 1575 -91 
Q 1294 -91 989 -36 
Q 684 19 347 128 
L 347 722 
Q 666 556 975 473 
Q 1284 391 1588 391 
Q 1994 391 2212 530 
Q 2431 669 2431 922 
Q 2431 1156 2273 1281 
Q 2116 1406 1581 1522 
L 1381 1569 
Q 847 1681 609 1914 
Q 372 2147 372 2553 
Q 372 3047 722 3315 
Q 1072 3584 1716 3584 
Q 2034 3584 2315 3537 
Q 2597 3491 2834 3397 
z
" id="DejaVuSans-73" transform="scale(0.015625)"/>
      <path d="M 684 794 
L 1344 794 
L 1344 0 
L 684 0 
L 684 794 
z
" id="DejaVuSans-2e" transform="scale(0.015625)"/>
      <path d="M 1600 4347 
Q 1350 4347 1178 4173 
Q 1006 4000 1006 3750 
Q 1006 3503 1178 3333 
Q 1350 3163 1600 3163 
Q 1850 3163 2022 3333 
Q 2194 3503 2194 3750 
Q 2194 3997 2020 4172 
Q 1847 4347 1600 4347 
z
M 1600 4750 
Q 1800 4750 1984 4673 
Q 2169 4597 2303 4453 
Q 2447 4313 2519 4134 
Q 2591 3956 2591 3750 
Q 2591 3338 2302 3052 
Q 2013 2766 1594 2766 
Q 1172 2766 890 3047 
Q 609 3328 609 3750 
Q 609 4169 896 4459 
Q 1184 4750 1600 4750 
z
" id="DejaVuSans-b0" transform="scale(0.015625)"/>
     </defs>
     <use xlink:href="#DejaVuSans-57"/>
     <use x="96.626953" xlink:href="#DejaVuSans-69"/>
     <use x="124.410156" xlink:href="#DejaVuSans-6c"/>
     <use x="152.193359" xlink:href="#DejaVuSans-6c"/>
     <use x="179.976562" xlink:href="#DejaVuSans-69"/>
     <use x="207.759766" xlink:href="#DejaVuSans-65"/>
     <use x="269.283203" xlink:href="#DejaVuSans-20"/>
     <use x="301.070312" xlink:href="#DejaVuSans-57"/>
     <use x="398.197266" xlink:href="#DejaVuSans-79"/>
     <use x="457.376953" xlink:href="#DejaVuSans-6e"/>
     <use x="520.755859" xlink:href="#DejaVuSans-6b"/>
     <use x="578.666016" xlink:href="#DejaVuSans-69"/>
     <use x="606.449219" xlink:href="#DejaVuSans-6e"/>
     <use x="669.828125" xlink:href="#DejaVuSans-20"/>
     <use x="701.615234" xlink:href="#DejaVuSans-57"/>
     <use x="794.617188" xlink:href="#DejaVuSans-6f"/>
     <use x="855.798828" xlink:href="#DejaVuSans-6f"/>
     <use x="916.980469" xlink:href="#DejaVuSans-64"/>
     <use x="980.457031" xlink:href="#DejaVuSans-6c"/>
     <use x="1008.240234" xlink:href="#DejaVuSans-61"/>
     <use x="1069.519531" xlink:href="#DejaVuSans-6e"/>
     <use x="1132.898438" xlink:href="#DejaVuSans-64"/>
     <use x="1196.375" xlink:href="#DejaVuSans-73"/>
     <use x="1248.474609" xlink:href="#DejaVuSans-20"/>
     <use x="1280.261719" xlink:href="#DejaVuSans-31"/>
     <use x="1343.884766" xlink:href="#DejaVuSans-36"/>
     <use x="1407.507812" xlink:href="#DejaVuSans-2e"/>
     <use x="1439.294922" xlink:href="#DejaVuSans-38"/>
     <use x="1502.917969" xlink:href="#DejaVuSans-b0"/>
    </g>
   </g>
   <g id="text_8">
    <g id="patch_9">
     <path d="M 19.440775 99.702646 
L 25.474275 118.555405 
L 27.355891 117.953227 
L 21.32239 99.100467 
z
" style="fill:#ffffff;"/>
    </g>
    <!-- Finsbury Field 19.1° -->
    <g style="fill:#4169e1;" transform="translate(19.862065 99.588819)rotate(-287.746373)scale(0.02 -0.02)">
     <defs>
      <path d="M 628 4666 
L 3309 4666 
L 3309 4134 
L 1259 4134 
L 1259 2759 
L 3109 2759 
L 3109 2228 
L 1259 2228 
L 1259 0 
L 628 0 
L 628 4666 
z
" id="DejaVuSans-46" transform="scale(0.015625)"/>
      <path d="M 3116 1747 
Q 3116 2381 2855 2742 
Q 2594 3103 2138 3103 
Q 1681 3103 1420 2742 
Q 1159 2381 1159 1747 
Q 1159 1113 1420 752 
Q 1681 391 2138 391 
Q 2594 391 2855 752 
Q 3116 1113 3116 1747 
z
M 1159 2969 
Q 1341 3281 1617 3432 
Q 1894 3584 2278 3584 
Q 2916 3584 3314 3078 
Q 3713 2572 3713 1747 
Q 3713 922 3314 415 
Q 2916 -91 2278 -91 
Q 1894 -91 1617 61 
Q 1341 213 1159 525 
L 1159 0 
L 581 0 
L 581 4863 
L 1159 4863 
L 1159 2969 
z
" id="DejaVuSans-62" transform="scale(0.015625)"/>
      <path d="M 544 1381 
L 544 3500 
L 1119 3500 
L 1119 1403 
Q 1119 906 1312 657 
Q 1506 409 1894 409 
Q 2359 409 2629 706 
Q 2900 1003 2900 1516 
L 2900 3500 
L 3475 3500 
L 3475 0 
L 2900 0 
L 2900 538 
Q 2691 219 2414 64 
Q 2138 -91 1772 -91 
Q 1169 -91 856 284 
Q 544 659 544 1381 
z
M 1991 3584 
L 1991 3584 
z
" id="DejaVuSans-75" transform="scale(0.015625)"/>
      <path d="M 703 97 
L 703 672 
Q 941 559 1184 500 
Q 1428 441 1663 441 
Q 2288 441 2617 861 
Q 2947 1281 2994 2138 
Q 2813 1869 2534 1725 
Q 2256 1581 1919 1581 
Q 1219 1581 811 2004 
Q 403 2428 403 3163 
Q 403 3881 828 4315 
Q 1253 4750 1959 4750 
Q 2769 4750 3195 4129 
Q 3622 3509 3622 2328 
Q 3622 1225 3098 567 
Q 2575 -91 1691 -91 
Q 1453 -91 1209 -44 
Q 966 3 703 97 
z
M 1959 2075 
Q 2384 2075 2632 2365 
Q 2881 2656 2881 3163 
Q 2881 3666 2632 3958 
Q 2384 4250 1959 4250 
Q 1534 4250 1286 3958 
Q 1038 3666 1038 3163 
Q 1038 2656 1286 2365 
Q 1534 2075 1959 2075 
z
" id="DejaVuSans-39" transform="scale(0.015625)"/>
     </defs>
     <use xlink:href="#DejaVuSans-46"/>
     <use x="50.269531" xlink:href="#DejaVuSans-69"/>
     <use x="78.052734" xlink:href="#DejaVuSans-6e"/>
     <use x="141.431641" xlink:href="#DejaVuSans-73"/>
     <use x="193.53125" xlink:href="#DejaVuSans-62"/>
     <use x="257.007812" xlink:href="#DejaVuSans-75"/>
     <use x="320.386719" xlink:href="#DejaVuSans-72"/>
     <use x="361.5" xlink:href="#DejaVuSans-79"/>
     <use x="420.679688" xlink:href="#DejaVuSans-20"/>
     <use x="452.466797" xlink:href="#DejaVuSans-46"/>
     <use x="502.736328" xlink:href="#DejaVuSans-69"/>
     <use x="530.519531" xlink:href="#DejaVuSans-65"/>
     <use x="592.042969" xlink:href="#DejaVuSans-6c"/>
     <use x="619.826172" xlink:href="#DejaVuSans-64"/>
     <use x="683.302734" xlink:href="#DejaVuSans-20"/>
     <use x="715.089844" xlink:href="#DejaVuSans-31"/>
     <use x="778.712891" xlink:href="#DejaVuSans-39"/>
     <use x="842.335938" xlink:href="#DejaVuSans-2e"/>
     <use x="874.123047" xlink:href="#DejaVuSans-31"/>
     <use x="937.746094" xlink:href="#DejaVuSans-b0"/>
    </g>
   </g>
   <g id="text_9">
    <g id="patch_10">
     <path d="M 45.224758 133.401911 
L 45.649882 107.356005 
L 43.67452 107.323763 
L 43.249396 133.369669 
z
" style="fill:#ffffff;"/>
    </g>
    <!-- Nottingham's Notch 14.9° -->
    <g style="fill:#008000;" transform="translate(44.789205 133.374799)rotate(-89.064896)scale(0.02 -0.02)">
     <defs>
      <path d="M 628 4666 
L 1478 4666 
L 3547 763 
L 3547 4666 
L 4159 4666 
L 4159 0 
L 3309 0 
L 1241 3903 
L 1241 0 
L 628 0 
L 628 4666 
z
" id="DejaVuSans-4e" transform="scale(0.015625)"/>
      <path d="M 2906 1791 
Q 2906 2416 2648 2759 
Q 2391 3103 1925 3103 
Q 1463 3103 1205 2759 
Q 947 2416 947 1791 
Q 947 1169 1205 825 
Q 1463 481 1925 481 
Q 2391 481 2648 825 
Q 2906 1169 2906 1791 
z
M 3481 434 
Q 3481 -459 3084 -895 
Q 2688 -1331 1869 -1331 
Q 1566 -1331 1297 -1286 
Q 1028 -1241 775 -1147 
L 775 -588 
Q 1028 -725 1275 -790 
Q 1522 -856 1778 -856 
Q 2344 -856 2625 -561 
Q 2906 -266 2906 331 
L 2906 616 
Q 2728 306 2450 153 
Q 2172 0 1784 0 
Q 1141 0 747 490 
Q 353 981 353 1791 
Q 353 2603 747 3093 
Q 1141 3584 1784 3584 
Q 2172 3584 2450 3431 
Q 2728 3278 2906 2969 
L 2906 3500 
L 3481 3500 
L 3481 434 
z
" id="DejaVuSans-67" transform="scale(0.015625)"/>
      <path d="M 3328 2828 
Q 3544 3216 3844 3400 
Q 4144 3584 4550 3584 
Q 5097 3584 5394 3201 
Q 5691 2819 5691 2113 
L 5691 0 
L 5113 0 
L 5113 2094 
Q 5113 2597 4934 2840 
Q 4756 3084 4391 3084 
Q 3944 3084 3684 2787 
Q 3425 2491 3425 1978 
L 3425 0 
L 2847 0 
L 2847 2094 
Q 2847 2600 2669 2842 
Q 2491 3084 2119 3084 
Q 1678 3084 1418 2786 
Q 1159 2488 1159 1978 
L 1159 0 
L 581 0 
L 581 3500 
L 1159 3500 
L 1159 2956 
Q 1356 3278 1631 3431 
Q 1906 3584 2284 3584 
Q 2666 3584 2933 3390 
Q 3200 3197 3328 2828 
z
" id="DejaVuSans-6d" transform="scale(0.015625)"/>
      <path d="M 1147 4666 
L 1147 2931 
L 616 2931 
L 616 4666 
L 1147 4666 
z
" id="DejaVuSans-27" transform="scale(0.015625)"/>
      <path d="M 3122 3366 
L 3122 2828 
Q 2878 2963 2633 3030 
Q 2388 3097 2138 3097 
Q 1578 3097 1268 2742 
Q 959 2388 959 1747 
Q 959 1106 1268 751 
Q 1578 397 2138 397 
Q 2388 397 2633 464 
Q 2878 531 3122 666 
L 3122 134 
Q 2881 22 2623 -34 
Q 2366 -91 2075 -91 
Q 1284 -91 818 406 
Q 353 903 353 1747 
Q 353 2603 823 3093 
Q 1294 3584 2113 3584 
Q 2378 3584 2631 3529 
Q 2884 3475 3122 3366 
z
" id="DejaVuSans-63" transform="scale(0.015625)"/>
      <path d="M 2419 4116 
L 825 1625 
L 2419 1625 
L 2419 4116 
z
M 2253 4666 
L 3047 4666 
L 3047 1625 
L 3713 1625 
L 3713 1100 
L 3047 1100 
L 3047 0 
L 2419 0 
L 2419 1100 
L 313 1100 
L 313 1709 
L 2253 4666 
z
" id="DejaVuSans-34" transform="scale(0.015625)"/>
     </defs>
     <use xlink:href="#DejaVuSans-4e"/>
     <use x="74.804688" xlink:href="#DejaVuSans-6f"/>
     <use x="135.986328" xlink:href="#DejaVuSans-74"/>
     <use x="175.195312" xlink:href="#DejaVuSans-74"/>
     <use x="214.404297" xlink:href="#DejaVuSans-69"/>
     <use x="242.1875" xlink:href="#DejaVuSans-6e"/>
     <use x="305.566406" xlink:href="#DejaVuSans-67"/>
     <use x="369.042969" xlink:href="#DejaVuSans-68"/>
     <use x="432.421875" xlink:href="#DejaVuSans-61"/>
     <use x="493.701172" xlink:href="#DejaVuSans-6d"/>
     <use x="591.113281" xlink:href="#DejaVuSans-27"/>
     <use x="618.603516" xlink:href="#DejaVuSans-73"/>
     <use x="670.703125" xlink:href="#DejaVuSans-20"/>
     <use x="702.490234" xlink:href="#DejaVuSans-4e"/>
     <use x="777.294922" xlink:href="#DejaVuSans-6f"/>
     <use x="838.476562" xlink:href="#DejaVuSans-74"/>
     <use x="877.685547" xlink:href="#DejaVuSans-63"/>
     <use x="932.666016" xlink:href="#DejaVuSans-68"/>
     <use x="996.044922" xlink:href="#DejaVuSans-20"/>
     <use x="1027.832031" xlink:href="#DejaVuSans-31"/>
     <use x="1091.455078" xlink:href="#DejaVuSans-34"/>
     <use x="1155.078125" xlink:href="#DejaVuSans-2e"/>
     <use x="1186.865234" xlink:href="#DejaVuSans-39"/>
     <use x="1250.488281" xlink:href="#DejaVuSans-b0"/>
    </g>
   </g>
   <g id="text_10">
    <g id="patch_11">
     <path d="M 53.06941 71.145582 
L 58.647771 85.966806 
L 60.496768 85.270887 
L 54.918407 70.449662 
z
" style="fill:#ffffff;"/>
    </g>
    <!-- Long Bow 19.0° -->
    <g style="fill:#4169e1;" transform="translate(53.484451 71.010739)rotate(-290.625158)scale(0.02 -0.02)">
     <defs>
      <path d="M 628 4666 
L 1259 4666 
L 1259 531 
L 3531 531 
L 3531 0 
L 628 0 
L 628 4666 
z
" id="DejaVuSans-4c" transform="scale(0.015625)"/>
      <path d="M 1259 2228 
L 1259 519 
L 2272 519 
Q 2781 519 3026 730 
Q 3272 941 3272 1375 
Q 3272 1813 3026 2020 
Q 2781 2228 2272 2228 
L 1259 2228 
z
M 1259 4147 
L 1259 2741 
L 2194 2741 
Q 2656 2741 2882 2914 
Q 3109 3088 3109 3444 
Q 3109 3797 2882 3972 
Q 2656 4147 2194 4147 
L 1259 4147 
z
M 628 4666 
L 2241 4666 
Q 2963 4666 3353 4366 
Q 3744 4066 3744 3513 
Q 3744 3084 3544 2831 
Q 3344 2578 2956 2516 
Q 3422 2416 3680 2098 
Q 3938 1781 3938 1306 
Q 3938 681 3513 340 
Q 3088 0 2303 0 
L 628 0 
L 628 4666 
z
" id="DejaVuSans-42" transform="scale(0.015625)"/>
      <path d="M 269 3500 
L 844 3500 
L 1563 769 
L 2278 3500 
L 2956 3500 
L 3675 769 
L 4391 3500 
L 4966 3500 
L 4050 0 
L 3372 0 
L 2619 2869 
L 1863 0 
L 1184 0 
L 269 3500 
z
" id="DejaVuSans-77" transform="scale(0.015625)"/>
      <path d="M 2034 4250 
Q 1547 4250 1301 3770 
Q 1056 3291 1056 2328 
Q 1056 1369 1301 889 
Q 1547 409 2034 409 
Q 2525 409 2770 889 
Q 3016 1369 3016 2328 
Q 3016 3291 2770 3770 
Q 2525 4250 2034 4250 
z
M 2034 4750 
Q 2819 4750 3233 4129 
Q 3647 3509 3647 2328 
Q 3647 1150 3233 529 
Q 2819 -91 2034 -91 
Q 1250 -91 836 529 
Q 422 1150 422 2328 
Q 422 3509 836 4129 
Q 1250 4750 2034 4750 
z
" id="DejaVuSans-30" transform="scale(0.015625)"/>
     </defs>
     <use xlink:href="#DejaVuSans-4c"/>
     <use x="53.962891" xlink:href="#DejaVuSans-6f"/>
     <use x="115.144531" xlink:href="#DejaVuSans-6e"/>
     <use x="178.523438" xlink:href="#DejaVuSans-67"/>
     <use x="242" xlink:href="#DejaVuSans-20"/>
     <use x="273.787109" xlink:href="#DejaVuSans-42"/>
     <use x="342.390625" xlink:href="#DejaVuSans-6f"/>
     <use x="403.572266" xlink:href="#DejaVuSans-77"/>
     <use x="485.359375" xlink:href="#DejaVuSans-20"/>
     <use x="517.146484" xlink:href="#DejaVuSans-31"/>
     <use x="580.769531" xlink:href="#DejaVuSans-39"/>
     <use x="644.392578" xlink:href="#DejaVuSans-2e"/>
     <use x="676.179688" xlink:href="#DejaVuSans-30"/>
     <use x="739.802734" xlink:href="#DejaVuSans-b0"/>
    </g>
   </g>
   <g id="text_11">
    <g id="patch_12">
     <path d="M 39.63425 102.605681 
L 43.256985 75.687429 
L 41.299012 75.423919 
L 37.676278 102.342172 
z
" style="fill:#ffffff;"/>
    </g>
    <!-- Robin Hood's Retreat 16.0° -->
    <g style="fill:#008000;" transform="translate(39.204876 102.527715)rotate(-82.335029)scale(0.02 -0.02)">
     <defs>
      <path d="M 2841 2188 
Q 3044 2119 3236 1894 
Q 3428 1669 3622 1275 
L 4263 0 
L 3584 0 
L 2988 1197 
Q 2756 1666 2539 1819 
Q 2322 1972 1947 1972 
L 1259 1972 
L 1259 0 
L 628 0 
L 628 4666 
L 2053 4666 
Q 2853 4666 3247 4331 
Q 3641 3997 3641 3322 
Q 3641 2881 3436 2590 
Q 3231 2300 2841 2188 
z
M 1259 4147 
L 1259 2491 
L 2053 2491 
Q 2509 2491 2742 2702 
Q 2975 2913 2975 3322 
Q 2975 3731 2742 3939 
Q 2509 4147 2053 4147 
L 1259 4147 
z
" id="DejaVuSans-52" transform="scale(0.015625)"/>
      <path d="M 628 4666 
L 1259 4666 
L 1259 2753 
L 3553 2753 
L 3553 4666 
L 4184 4666 
L 4184 0 
L 3553 0 
L 3553 2222 
L 1259 2222 
L 1259 0 
L 628 0 
L 628 4666 
z
" id="DejaVuSans-48" transform="scale(0.015625)"/>
     </defs>
     <use xlink:href="#DejaVuSans-52"/>
     <use x="64.982422" xlink:href="#DejaVuSans-6f"/>
     <use x="126.164062" xlink:href="#DejaVuSans-62"/>
     <use x="189.640625" xlink:href="#DejaVuSans-69"/>
     <use x="217.423828" xlink:href="#DejaVuSans-6e"/>
     <use x="280.802734" xlink:href="#DejaVuSans-20"/>
     <use x="312.589844" xlink:href="#DejaVuSans-48"/>
     <use x="387.785156" xlink:href="#DejaVuSans-6f"/>
     <use x="448.966797" xlink:href="#DejaVuSans-6f"/>
     <use x="510.148438" xlink:href="#DejaVuSans-64"/>
     <use x="573.625" xlink:href="#DejaVuSans-27"/>
     <use x="601.115234" xlink:href="#DejaVuSans-73"/>
     <use x="653.214844" xlink:href="#DejaVuSans-20"/>
     <use x="685.001953" xlink:href="#DejaVuSans-52"/>
     <use x="749.984375" xlink:href="#DejaVuSans-65"/>
     <use x="811.507812" xlink:href="#DejaVuSans-74"/>
     <use x="850.716797" xlink:href="#DejaVuSans-72"/>
     <use x="889.580078" xlink:href="#DejaVuSans-65"/>
     <use x="951.103516" xlink:href="#DejaVuSans-61"/>
     <use x="1012.382812" xlink:href="#DejaVuSans-74"/>
     <use x="1051.591797" xlink:href="#DejaVuSans-20"/>
     <use x="1083.378906" xlink:href="#DejaVuSans-31"/>
     <use x="1147.001953" xlink:href="#DejaVuSans-36"/>
     <use x="1210.625" xlink:href="#DejaVuSans-2e"/>
     <use x="1242.412109" xlink:href="#DejaVuSans-30"/>
     <use x="1306.035156" xlink:href="#DejaVuSans-b0"/>
    </g>
   </g>
   <g id="text_12">
    <g id="patch_13">
     <path d="M 45.953566 87.948936 
L 54.685538 101.922139 
L 56.360933 100.87517 
L 47.628962 86.901968 
z
" style="fill:#ffffff;"/>
    </g>
    <!-- Cross Bow 20.6° -->
    <g style="fill:#4169e1;" transform="translate(46.333854 87.734875)rotate(-302.00161)scale(0.02 -0.02)">
     <use xlink:href="#DejaVuSans-43"/>
     <use x="69.824219" xlink:href="#DejaVuSans-72"/>
     <use x="108.6875" xlink:href="#DejaVuSans-6f"/>
     <use x="169.869141" xlink:href="#DejaVuSans-73"/>
     <use x="221.96875" xlink:href="#DejaVuSans-73"/>
     <use x="274.068359" xlink:href="#DejaVuSans-20"/>
     <use x="305.855469" xlink:href="#DejaVuSans-42"/>
     <use x="374.458984" xlink:href="#DejaVuSans-6f"/>
     <use x="435.640625" xlink:href="#DejaVuSans-77"/>
     <use x="517.427734" xlink:href="#DejaVuSans-20"/>
     <use x="549.214844" xlink:href="#DejaVuSans-32"/>
     <use x="612.837891" xlink:href="#DejaVuSans-30"/>
     <use x="676.460938" xlink:href="#DejaVuSans-2e"/>
     <use x="708.248047" xlink:href="#DejaVuSans-36"/>
     <use x="771.871094" xlink:href="#DejaVuSans-b0"/>
    </g>
   </g>
   <g id="text_13">
    <g id="patch_14">
     <path d="M 55.982376 103.697103 
L 62.877167 120.664751 
L 64.707454 119.921015 
L 57.812663 102.953367 
z
" style="fill:#ffffff;"/>
    </g>
    <!-- Quarterstaff 19.1° -->
    <g style="fill:#4169e1;" transform="translate(56.393773 103.55152)rotate(-292.114327)scale(0.02 -0.02)">
     <defs>
      <path d="M 2522 4238 
Q 1834 4238 1429 3725 
Q 1025 3213 1025 2328 
Q 1025 1447 1429 934 
Q 1834 422 2522 422 
Q 3209 422 3611 934 
Q 4013 1447 4013 2328 
Q 4013 3213 3611 3725 
Q 3209 4238 2522 4238 
z
M 3406 84 
L 4238 -825 
L 3475 -825 
L 2784 -78 
Q 2681 -84 2626 -87 
Q 2572 -91 2522 -91 
Q 1538 -91 948 567 
Q 359 1225 359 2328 
Q 359 3434 948 4092 
Q 1538 4750 2522 4750 
Q 3503 4750 4090 4092 
Q 4678 3434 4678 2328 
Q 4678 1516 4351 937 
Q 4025 359 3406 84 
z
" id="DejaVuSans-51" transform="scale(0.015625)"/>
     </defs>
     <use xlink:href="#DejaVuSans-51"/>
     <use x="78.710938" xlink:href="#DejaVuSans-75"/>
     <use x="142.089844" xlink:href="#DejaVuSans-61"/>
     <use x="203.369141" xlink:href="#DejaVuSans-72"/>
     <use x="244.482422" xlink:href="#DejaVuSans-74"/>
     <use x="283.691406" xlink:href="#DejaVuSans-65"/>
     <use x="345.214844" xlink:href="#DejaVuSans-72"/>
     <use x="386.328125" xlink:href="#DejaVuSans-73"/>
     <use x="438.427734" xlink:href="#DejaVuSans-74"/>
     <use x="477.636719" xlink:href="#DejaVuSans-61"/>
     <use x="538.916016" xlink:href="#DejaVuSans-66"/>
     <use x="574.121094" xlink:href="#DejaVuSans-66"/>
     <use x="609.326172" xlink:href="#DejaVuSans-20"/>
     <use x="641.113281" xlink:href="#DejaVuSans-31"/>
     <use x="704.736328" xlink:href="#DejaVuSans-39"/>
     <use x="768.359375" xlink:href="#DejaVuSans-2e"/>
     <use x="800.146484" xlink:href="#DejaVuSans-31"/>
     <use x="863.769531" xlink:href="#DejaVuSans-b0"/>
    </g>
   </g>
   <g id="text_14">
    <g id="patch_15">
     <path d="M 63.663519 109.350507 
L 69.88798 121.615511 
L 71.649717 120.721433 
L 65.425257 108.456429 
z
" style="fill:#ffffff;"/>
    </g>
    <!-- Ox Bow 17.5° -->
    <g style="fill:#4169e1;" transform="translate(64.061312 109.171056)rotate(-296.907687)scale(0.02 -0.02)">
     <defs>
      <path d="M 2522 4238 
Q 1834 4238 1429 3725 
Q 1025 3213 1025 2328 
Q 1025 1447 1429 934 
Q 1834 422 2522 422 
Q 3209 422 3611 934 
Q 4013 1447 4013 2328 
Q 4013 3213 3611 3725 
Q 3209 4238 2522 4238 
z
M 2522 4750 
Q 3503 4750 4090 4092 
Q 4678 3434 4678 2328 
Q 4678 1225 4090 567 
Q 3503 -91 2522 -91 
Q 1538 -91 948 565 
Q 359 1222 359 2328 
Q 359 3434 948 4092 
Q 1538 4750 2522 4750 
z
" id="DejaVuSans-4f" transform="scale(0.015625)"/>
      <path d="M 3513 3500 
L 2247 1797 
L 3578 0 
L 2900 0 
L 1881 1375 
L 863 0 
L 184 0 
L 1544 1831 
L 300 3500 
L 978 3500 
L 1906 2253 
L 2834 3500 
L 3513 3500 
z
" id="DejaVuSans-78" transform="scale(0.015625)"/>
      <path d="M 691 4666 
L 3169 4666 
L 3169 4134 
L 1269 4134 
L 1269 2991 
Q 1406 3038 1543 3061 
Q 1681 3084 1819 3084 
Q 2600 3084 3056 2656 
Q 3513 2228 3513 1497 
Q 3513 744 3044 326 
Q 2575 -91 1722 -91 
Q 1428 -91 1123 -41 
Q 819 9 494 109 
L 494 744 
Q 775 591 1075 516 
Q 1375 441 1709 441 
Q 2250 441 2565 725 
Q 2881 1009 2881 1497 
Q 2881 1984 2565 2268 
Q 2250 2553 1709 2553 
Q 1456 2553 1204 2497 
Q 953 2441 691 2322 
L 691 4666 
z
" id="DejaVuSans-35" transform="scale(0.015625)"/>
     </defs>
     <use xlink:href="#DejaVuSans-4f"/>
     <use x="78.710938" xlink:href="#DejaVuSans-78"/>
     <use x="137.890625" xlink:href="#DejaVuSans-20"/>
     <use x="169.677734" xlink:href="#DejaVuSans-42"/>
     <use x="238.28125" xlink:href="#DejaVuSans-6f"/>
     <use x="299.462891" xlink:href="#DejaVuSans-77"/>
     <use x="381.25" xlink:href="#DejaVuSans-20"/>
     <use x="413.037109" xlink:href="#DejaVuSans-31"/>
     <use x="476.660156" xlink:href="#DejaVuSans-37"/>
     <use x="540.283203" xlink:href="#DejaVuSans-2e"/>
     <use x="572.070312" xlink:href="#DejaVuSans-35"/>
     <use x="635.693359" xlink:href="#DejaVuSans-b0"/>
    </g>
   </g>
   <g id="text_15">
    <g id="patch_16">
     <path d="M 58.937168 58.058821 
L 80.735977 60.709493 
L 80.974451 58.748313 
L 59.175641 56.097641 
z
" style="fill:#ffffff;"/>
    </g>
    <!-- Friar Tuck's Trek 13.7° -->
    <g style="fill:#008000;" transform="translate(59.009642 57.628485)rotate(-353.067036)scale(0.02 -0.02)">
     <defs>
      <path d="M -19 4666 
L 3928 4666 
L 3928 4134 
L 2272 4134 
L 2272 0 
L 1638 0 
L 1638 4134 
L -19 4134 
L -19 4666 
z
" id="DejaVuSans-54" transform="scale(0.015625)"/>
     </defs>
     <use xlink:href="#DejaVuSans-46"/>
     <use x="50.269531" xlink:href="#DejaVuSans-72"/>
     <use x="91.382812" xlink:href="#DejaVuSans-69"/>
     <use x="119.166016" xlink:href="#DejaVuSans-61"/>
     <use x="180.445312" xlink:href="#DejaVuSans-72"/>
     <use x="221.558594" xlink:href="#DejaVuSans-20"/>
     <use x="253.345703" xlink:href="#DejaVuSans-54"/>
     <use x="299.304688" xlink:href="#DejaVuSans-75"/>
     <use x="362.683594" xlink:href="#DejaVuSans-63"/>
     <use x="417.664062" xlink:href="#DejaVuSans-6b"/>
     <use x="475.574219" xlink:href="#DejaVuSans-27"/>
     <use x="503.064453" xlink:href="#DejaVuSans-73"/>
     <use x="555.164062" xlink:href="#DejaVuSans-20"/>
     <use x="586.951172" xlink:href="#DejaVuSans-54"/>
     <use x="633.285156" xlink:href="#DejaVuSans-72"/>
     <use x="672.148438" xlink:href="#DejaVuSans-65"/>
     <use x="733.671875" xlink:href="#DejaVuSans-6b"/>
     <use x="791.582031" xlink:href="#DejaVuSans-20"/>
     <use x="823.369141" xlink:href="#DejaVuSans-31"/>
     <use x="886.992188" xlink:href="#DejaVuSans-33"/>
     <use x="950.615234" xlink:href="#DejaVuSans-2e"/>
     <use x="982.402344" xlink:href="#DejaVuSans-37"/>
     <use x="1046.025391" xlink:href="#DejaVuSans-b0"/>
    </g>
   </g>
   <g id="text_16">
    <g id="patch_17">
     <path d="M 73.745641 93.6051 
L 84.518391 113.105783 
L 86.247688 112.150468 
L 75.474938 92.649785 
z
" style="fill:#ffffff;"/>
    </g>
    <!-- Will O' The Wisp 17.5° -->
    <g style="fill:#4169e1;" transform="translate(74.136895 93.411808)rotate(-298.91755)scale(0.02 -0.02)">
     <defs>
      <path d="M 1159 525 
L 1159 -1331 
L 581 -1331 
L 581 3500 
L 1159 3500 
L 1159 2969 
Q 1341 3281 1617 3432 
Q 1894 3584 2278 3584 
Q 2916 3584 3314 3078 
Q 3713 2572 3713 1747 
Q 3713 922 3314 415 
Q 2916 -91 2278 -91 
Q 1894 -91 1617 61 
Q 1341 213 1159 525 
z
M 3116 1747 
Q 3116 2381 2855 2742 
Q 2594 3103 2138 3103 
Q 1681 3103 1420 2742 
Q 1159 2381 1159 1747 
Q 1159 1113 1420 752 
Q 1681 391 2138 391 
Q 2594 391 2855 752 
Q 3116 1113 3116 1747 
z
" id="DejaVuSans-70" transform="scale(0.015625)"/>
     </defs>
     <use xlink:href="#DejaVuSans-57"/>
     <use x="96.626953" xlink:href="#DejaVuSans-69"/>
     <use x="124.410156" xlink:href="#DejaVuSans-6c"/>
     <use x="152.193359" xlink:href="#DejaVuSans-6c"/>
     <use x="179.976562" xlink:href="#DejaVuSans-20"/>
     <use x="211.763672" xlink:href="#DejaVuSans-4f"/>
     <use x="290.474609" xlink:href="#DejaVuSans-27"/>
     <use x="317.964844" xlink:href="#DejaVuSans-20"/>
     <use x="349.751953" xlink:href="#DejaVuSans-54"/>
     <use x="410.835938" xlink:href="#DejaVuSans-68"/>
     <use x="474.214844" xlink:href="#DejaVuSans-65"/>
     <use x="535.738281" xlink:href="#DejaVuSans-20"/>
     <use x="567.525391" xlink:href="#DejaVuSans-57"/>
     <use x="664.152344" xlink:href="#DejaVuSans-69"/>
     <use x="691.935547" xlink:href="#DejaVuSans-73"/>
     <use x="744.035156" xlink:href="#DejaVuSans-70"/>
     <use x="807.511719" xlink:href="#DejaVuSans-20"/>
     <use x="839.298828" xlink:href="#DejaVuSans-31"/>
     <use x="902.921875" xlink:href="#DejaVuSans-37"/>
     <use x="966.544922" xlink:href="#DejaVuSans-2e"/>
     <use x="998.332031" xlink:href="#DejaVuSans-35"/>
     <use x="1061.955078" xlink:href="#DejaVuSans-b0"/>
    </g>
   </g>
   <g id="text_17">
    <g id="patch_18">
     <path d="M 73.152019 76.943941 
L 80.691055 92.77449 
L 82.47474 91.92504 
L 74.935703 76.094491 
z
" style="fill:#ffffff;"/>
    </g>
    <!-- Race Arena 14.6° -->
    <g style="fill:#008000;" transform="translate(73.554202 76.77456)rotate(-295.465352)scale(0.02 -0.02)">
     <defs>
      <path d="M 2188 4044 
L 1331 1722 
L 3047 1722 
L 2188 4044 
z
M 1831 4666 
L 2547 4666 
L 4325 0 
L 3669 0 
L 3244 1197 
L 1141 1197 
L 716 0 
L 50 0 
L 1831 4666 
z
" id="DejaVuSans-41" transform="scale(0.015625)"/>
     </defs>
     <use xlink:href="#DejaVuSans-52"/>
     <use x="67.232422" xlink:href="#DejaVuSans-61"/>
     <use x="128.511719" xlink:href="#DejaVuSans-63"/>
     <use x="183.492188" xlink:href="#DejaVuSans-65"/>
     <use x="245.015625" xlink:href="#DejaVuSans-20"/>
     <use x="276.802734" xlink:href="#DejaVuSans-41"/>
     <use x="345.210938" xlink:href="#DejaVuSans-72"/>
     <use x="384.074219" xlink:href="#DejaVuSans-65"/>
     <use x="445.597656" xlink:href="#DejaVuSans-6e"/>
     <use x="508.976562" xlink:href="#DejaVuSans-61"/>
     <use x="570.255859" xlink:href="#DejaVuSans-20"/>
     <use x="602.042969" xlink:href="#DejaVuSans-31"/>
     <use x="665.666016" xlink:href="#DejaVuSans-34"/>
     <use x="729.289062" xlink:href="#DejaVuSans-2e"/>
     <use x="761.076172" xlink:href="#DejaVuSans-36"/>
     <use x="824.699219" xlink:href="#DejaVuSans-b0"/>
    </g>
   </g>
   <g id="text_18">
    <g id="patch_19">
     <path d="M 71.585642 61.606475 
L 80.322277 85.04955 
L 82.173524 84.359638 
L 73.436889 60.916562 
z
" style="fill:#ffffff;"/>
    </g>
    <!-- Sherwood Meadow 17.3° -->
    <g style="fill:#4169e1;" transform="translate(72.001119 61.472981)rotate(-290.439138)scale(0.02 -0.02)">
     <defs>
      <path d="M 3425 4513 
L 3425 3897 
Q 3066 4069 2747 4153 
Q 2428 4238 2131 4238 
Q 1616 4238 1336 4038 
Q 1056 3838 1056 3469 
Q 1056 3159 1242 3001 
Q 1428 2844 1947 2747 
L 2328 2669 
Q 3034 2534 3370 2195 
Q 3706 1856 3706 1288 
Q 3706 609 3251 259 
Q 2797 -91 1919 -91 
Q 1588 -91 1214 -16 
Q 841 59 441 206 
L 441 856 
Q 825 641 1194 531 
Q 1563 422 1919 422 
Q 2459 422 2753 634 
Q 3047 847 3047 1241 
Q 3047 1584 2836 1778 
Q 2625 1972 2144 2069 
L 1759 2144 
Q 1053 2284 737 2584 
Q 422 2884 422 3419 
Q 422 4038 858 4394 
Q 1294 4750 2059 4750 
Q 2388 4750 2728 4690 
Q 3069 4631 3425 4513 
z
" id="DejaVuSans-53" transform="scale(0.015625)"/>
      <path d="M 628 4666 
L 1569 4666 
L 2759 1491 
L 3956 4666 
L 4897 4666 
L 4897 0 
L 4281 0 
L 4281 4097 
L 3078 897 
L 2444 897 
L 1241 4097 
L 1241 0 
L 628 0 
L 628 4666 
z
" id="DejaVuSans-4d" transform="scale(0.015625)"/>
     </defs>
     <use xlink:href="#DejaVuSans-53"/>
     <use x="63.476562" xlink:href="#DejaVuSans-68"/>
     <use x="126.855469" xlink:href="#DejaVuSans-65"/>
     <use x="188.378906" xlink:href="#DejaVuSans-72"/>
     <use x="229.492188" xlink:href="#DejaVuSans-77"/>
     <use x="311.279297" xlink:href="#DejaVuSans-6f"/>
     <use x="372.460938" xlink:href="#DejaVuSans-6f"/>
     <use x="433.642578" xlink:href="#DejaVuSans-64"/>
     <use x="497.119141" xlink:href="#DejaVuSans-20"/>
     <use x="528.90625" xlink:href="#DejaVuSans-4d"/>
     <use x="615.185547" xlink:href="#DejaVuSans-65"/>
     <use x="676.708984" xlink:href="#DejaVuSans-61"/>
     <use x="737.988281" xlink:href="#DejaVuSans-64"/>
     <use x="801.464844" xlink:href="#DejaVuSans-6f"/>
     <use x="862.646484" xlink:href="#DejaVuSans-77"/>
     <use x="944.433594" xlink:href="#DejaVuSans-20"/>
     <use x="976.220703" xlink:href="#DejaVuSans-31"/>
     <use x="1039.84375" xlink:href="#DejaVuSans-37"/>
     <use x="1103.466797" xlink:href="#DejaVuSans-2e"/>
     <use x="1135.253906" xlink:href="#DejaVuSans-33"/>
     <use x="1198.876953" xlink:href="#DejaVuSans-b0"/>
    </g>
   </g>
   <g id="text_19">
    <g id="patch_20">
     <path d="M 77.641062 46.824469 
L 86.379208 62.353559 
L 88.100971 61.384732 
L 79.362825 45.855641 
z
" style="fill:#ffffff;"/>
    </g>
    <!-- Alan-A-Dale 14.4° -->
    <g style="fill:#008000;" transform="translate(78.030791 46.628119)rotate(-299.366253)scale(0.02 -0.02)">
     <defs>
      <path d="M 313 2009 
L 1997 2009 
L 1997 1497 
L 313 1497 
L 313 2009 
z
" id="DejaVuSans-2d" transform="scale(0.015625)"/>
      <path d="M 1259 4147 
L 1259 519 
L 2022 519 
Q 2988 519 3436 956 
Q 3884 1394 3884 2338 
Q 3884 3275 3436 3711 
Q 2988 4147 2022 4147 
L 1259 4147 
z
M 628 4666 
L 1925 4666 
Q 3281 4666 3915 4102 
Q 4550 3538 4550 2338 
Q 4550 1131 3912 565 
Q 3275 0 1925 0 
L 628 0 
L 628 4666 
z
" id="DejaVuSans-44" transform="scale(0.015625)"/>
     </defs>
     <use xlink:href="#DejaVuSans-41"/>
     <use x="68.408203" xlink:href="#DejaVuSans-6c"/>
     <use x="96.191406" xlink:href="#DejaVuSans-61"/>
     <use x="157.470703" xlink:href="#DejaVuSans-6e"/>
     <use x="220.849609" xlink:href="#DejaVuSans-2d"/>
     <use x="254.683594" xlink:href="#DejaVuSans-41"/>
     <use x="320.841797" xlink:href="#DejaVuSans-2d"/>
     <use x="356.925781" xlink:href="#DejaVuSans-44"/>
     <use x="433.927734" xlink:href="#DejaVuSans-61"/>
     <use x="495.207031" xlink:href="#DejaVuSans-6c"/>
     <use x="522.990234" xlink:href="#DejaVuSans-65"/>
     <use x="584.513672" xlink:href="#DejaVuSans-20"/>
     <use x="616.300781" xlink:href="#DejaVuSans-31"/>
     <use x="679.923828" xlink:href="#DejaVuSans-34"/>
     <use x="743.546875" xlink:href="#DejaVuSans-2e"/>
     <use x="775.333984" xlink:href="#DejaVuSans-34"/>
     <use x="838.957031" xlink:href="#DejaVuSans-b0"/>
    </g>
   </g>
   <g id="text_20">
    <g id="patch_21">
     <path d="M 93.999777 41.646421 
L 116.266095 62.937572 
L 117.631455 61.509676 
L 95.365137 40.218525 
z
" style="fill:#ffffff;"/>
    </g>
    <!-- King Richard's Willy-Nilly 13.3° -->
    <g style="fill:#008000;" transform="translate(94.315509 41.345166)rotate(-316.282527)scale(0.02 -0.02)">
     <defs>
      <path d="M 628 4666 
L 1259 4666 
L 1259 2694 
L 3353 4666 
L 4166 4666 
L 1850 2491 
L 4331 0 
L 3500 0 
L 1259 2247 
L 1259 0 
L 628 0 
L 628 4666 
z
" id="DejaVuSans-4b" transform="scale(0.015625)"/>
     </defs>
     <use xlink:href="#DejaVuSans-4b"/>
     <use x="65.576172" xlink:href="#DejaVuSans-69"/>
     <use x="93.359375" xlink:href="#DejaVuSans-6e"/>
     <use x="156.738281" xlink:href="#DejaVuSans-67"/>
     <use x="220.214844" xlink:href="#DejaVuSans-20"/>
     <use x="252.001953" xlink:href="#DejaVuSans-52"/>
     <use x="321.484375" xlink:href="#DejaVuSans-69"/>
     <use x="349.267578" xlink:href="#DejaVuSans-63"/>
     <use x="404.248047" xlink:href="#DejaVuSans-68"/>
     <use x="467.626953" xlink:href="#DejaVuSans-61"/>
     <use x="528.90625" xlink:href="#DejaVuSans-72"/>
     <use x="568.269531" xlink:href="#DejaVuSans-64"/>
     <use x="631.746094" xlink:href="#DejaVuSans-27"/>
     <use x="659.236328" xlink:href="#DejaVuSans-73"/>
     <use x="711.335938" xlink:href="#DejaVuSans-20"/>
     <use x="743.123047" xlink:href="#DejaVuSans-57"/>
     <use x="839.75" xlink:href="#DejaVuSans-69"/>
     <use x="867.533203" xlink:href="#DejaVuSans-6c"/>
     <use x="895.316406" xlink:href="#DejaVuSans-6c"/>
     <use x="923.099609" xlink:href="#DejaVuSans-79"/>
     <use x="980.529297" xlink:href="#DejaVuSans-2d"/>
     <use x="1016.613281" xlink:href="#DejaVuSans-4e"/>
     <use x="1091.417969" xlink:href="#DejaVuSans-69"/>
     <use x="1119.201172" xlink:href="#DejaVuSans-6c"/>
     <use x="1146.984375" xlink:href="#DejaVuSans-6c"/>
     <use x="1174.767578" xlink:href="#DejaVuSans-79"/>
     <use x="1233.947266" xlink:href="#DejaVuSans-20"/>
     <use x="1265.734375" xlink:href="#DejaVuSans-31"/>
     <use x="1329.357422" xlink:href="#DejaVuSans-33"/>
     <use x="1392.980469" xlink:href="#DejaVuSans-2e"/>
     <use x="1424.767578" xlink:href="#DejaVuSans-33"/>
     <use x="1488.390625" xlink:href="#DejaVuSans-b0"/>
    </g>
   </g>
   <g id="text_21">
    <g id="patch_22">
     <path d="M 107.34805 31.521524 
L 110.585524 53.643697 
L 112.540327 53.357621 
L 109.302853 31.235448 
z
" style="fill:#ffffff;"/>
    </g>
    <!-- Doncaster Trail2 16.7° -->
    <g style="fill:#008000;" transform="translate(107.782289 31.478188)rotate(-278.32586)scale(0.02 -0.02)">
     <use xlink:href="#DejaVuSans-44"/>
     <use x="77.001953" xlink:href="#DejaVuSans-6f"/>
     <use x="138.183594" xlink:href="#DejaVuSans-6e"/>
     <use x="201.5625" xlink:href="#DejaVuSans-63"/>
     <use x="256.542969" xlink:href="#DejaVuSans-61"/>
     <use x="317.822266" xlink:href="#DejaVuSans-73"/>
     <use x="369.921875" xlink:href="#DejaVuSans-74"/>
     <use x="409.130859" xlink:href="#DejaVuSans-65"/>
     <use x="470.654297" xlink:href="#DejaVuSans-72"/>
     <use x="511.767578" xlink:href="#DejaVuSans-20"/>
     <use x="543.554688" xlink:href="#DejaVuSans-54"/>
     <use x="589.888672" xlink:href="#DejaVuSans-72"/>
     <use x="631.001953" xlink:href="#DejaVuSans-61"/>
     <use x="692.28125" xlink:href="#DejaVuSans-69"/>
     <use x="720.064453" xlink:href="#DejaVuSans-6c"/>
     <use x="747.847656" xlink:href="#DejaVuSans-32"/>
     <use x="811.470703" xlink:href="#DejaVuSans-20"/>
     <use x="843.257812" xlink:href="#DejaVuSans-31"/>
     <use x="906.880859" xlink:href="#DejaVuSans-36"/>
     <use x="970.503906" xlink:href="#DejaVuSans-2e"/>
     <use x="1002.291016" xlink:href="#DejaVuSans-37"/>
     <use x="1065.914062" xlink:href="#DejaVuSans-b0"/>
    </g>
   </g>
   <g id="text_22">
    <g id="patch_23">
     <path d="M 113.12369 28.421121 
L 122.035909 45.245456 
L 123.781718 44.320663 
L 114.8695 27.496328 
z
" style="fill:#ffffff;"/>
    </g>
    <!-- Oxford Way2 14.5° -->
    <g style="fill:#008000;" transform="translate(113.518279 28.234732)rotate(-297.911149)scale(0.02 -0.02)">
     <use xlink:href="#DejaVuSans-4f"/>
     <use x="78.710938" xlink:href="#DejaVuSans-78"/>
     <use x="137.890625" xlink:href="#DejaVuSans-66"/>
     <use x="173.095703" xlink:href="#DejaVuSans-6f"/>
     <use x="234.277344" xlink:href="#DejaVuSans-72"/>
     <use x="273.640625" xlink:href="#DejaVuSans-64"/>
     <use x="337.117188" xlink:href="#DejaVuSans-20"/>
     <use x="368.904297" xlink:href="#DejaVuSans-57"/>
     <use x="461.40625" xlink:href="#DejaVuSans-61"/>
     <use x="522.685547" xlink:href="#DejaVuSans-79"/>
     <use x="581.865234" xlink:href="#DejaVuSans-32"/>
     <use x="645.488281" xlink:href="#DejaVuSans-20"/>
     <use x="677.275391" xlink:href="#DejaVuSans-31"/>
     <use x="740.898438" xlink:href="#DejaVuSans-34"/>
     <use x="804.521484" xlink:href="#DejaVuSans-2e"/>
     <use x="836.308594" xlink:href="#DejaVuSans-35"/>
     <use x="899.931641" xlink:href="#DejaVuSans-b0"/>
    </g>
   </g>
   <g id="text_23">
    <g id="patch_24">
     <path d="M 125.369003 20.723661 
L 137.955054 46.882712 
L 139.735336 46.026155 
L 127.149285 19.867104 
z
" style="fill:#ffffff;"/>
    </g>
    <!-- Greenwood Forest Trail 13.6° -->
    <g style="fill:#008000;" transform="translate(125.770508 20.552677)rotate(-295.693864)scale(0.02 -0.02)">
     <defs>
      <path d="M 3809 666 
L 3809 1919 
L 2778 1919 
L 2778 2438 
L 4434 2438 
L 4434 434 
Q 4069 175 3628 42 
Q 3188 -91 2688 -91 
Q 1594 -91 976 548 
Q 359 1188 359 2328 
Q 359 3472 976 4111 
Q 1594 4750 2688 4750 
Q 3144 4750 3555 4637 
Q 3966 4525 4313 4306 
L 4313 3634 
Q 3963 3931 3569 4081 
Q 3175 4231 2741 4231 
Q 1884 4231 1454 3753 
Q 1025 3275 1025 2328 
Q 1025 1384 1454 906 
Q 1884 428 2741 428 
Q 3075 428 3337 486 
Q 3600 544 3809 666 
z
" id="DejaVuSans-47" transform="scale(0.015625)"/>
     </defs>
     <use xlink:href="#DejaVuSans-47"/>
     <use x="77.490234" xlink:href="#DejaVuSans-72"/>
     <use x="116.353516" xlink:href="#DejaVuSans-65"/>
     <use x="177.876953" xlink:href="#DejaVuSans-65"/>
     <use x="239.400391" xlink:href="#DejaVuSans-6e"/>
     <use x="302.779297" xlink:href="#DejaVuSans-77"/>
     <use x="384.566406" xlink:href="#DejaVuSans-6f"/>
     <use x="445.748047" xlink:href="#DejaVuSans-6f"/>
     <use x="506.929688" xlink:href="#DejaVuSans-64"/>
     <use x="570.40625" xlink:href="#DejaVuSans-20"/>
     <use x="602.193359" xlink:href="#DejaVuSans-46"/>
     <use x="656.087891" xlink:href="#DejaVuSans-6f"/>
     <use x="717.269531" xlink:href="#DejaVuSans-72"/>
     <use x="756.132812" xlink:href="#DejaVuSans-65"/>
     <use x="817.65625" xlink:href="#DejaVuSans-73"/>
     <use x="869.755859" xlink:href="#DejaVuSans-74"/>
     <use x="908.964844" xlink:href="#DejaVuSans-20"/>
     <use x="940.751953" xlink:href="#DejaVuSans-54"/>
     <use x="987.085938" xlink:href="#DejaVuSans-72"/>
     <use x="1028.199219" xlink:href="#DejaVuSans-61"/>
     <use x="1089.478516" xlink:href="#DejaVuSans-69"/>
     <use x="1117.261719" xlink:href="#DejaVuSans-6c"/>
     <use x="1145.044922" xlink:href="#DejaVuSans-20"/>
     <use x="1176.832031" xlink:href="#DejaVuSans-31"/>
     <use x="1240.455078" xlink:href="#DejaVuSans-33"/>
     <use x="1304.078125" xlink:href="#DejaVuSans-2e"/>
     <use x="1335.865234" xlink:href="#DejaVuSans-36"/>
     <use x="1399.488281" xlink:href="#DejaVuSans-b0"/>
    </g>
   </g>
   <g id="text_24">
    <g id="patch_25">
     <path d="M 141.463239 49.196506 
L 150.433546 69.415659 
L 152.239424 68.614474 
L 143.269117 48.395321 
z
" style="fill:#ffffff;"/>
    </g>
    <!-- Canterbury Trail 14.5° -->
    <g style="fill:#008000;" transform="translate(141.869831 49.038)rotate(-293.924657)scale(0.02 -0.02)">
     <use xlink:href="#DejaVuSans-43"/>
     <use x="69.824219" xlink:href="#DejaVuSans-61"/>
     <use x="131.103516" xlink:href="#DejaVuSans-6e"/>
     <use x="194.482422" xlink:href="#DejaVuSans-74"/>
     <use x="233.691406" xlink:href="#DejaVuSans-65"/>
     <use x="295.214844" xlink:href="#DejaVuSans-72"/>
     <use x="336.328125" xlink:href="#DejaVuSans-62"/>
     <use x="399.804688" xlink:href="#DejaVuSans-75"/>
     <use x="463.183594" xlink:href="#DejaVuSans-72"/>
     <use x="504.296875" xlink:href="#DejaVuSans-79"/>
     <use x="563.476562" xlink:href="#DejaVuSans-20"/>
     <use x="595.263672" xlink:href="#DejaVuSans-54"/>
     <use x="641.597656" xlink:href="#DejaVuSans-72"/>
     <use x="682.710938" xlink:href="#DejaVuSans-61"/>
     <use x="743.990234" xlink:href="#DejaVuSans-69"/>
     <use x="771.773438" xlink:href="#DejaVuSans-6c"/>
     <use x="799.556641" xlink:href="#DejaVuSans-20"/>
     <use x="831.34375" xlink:href="#DejaVuSans-31"/>
     <use x="894.966797" xlink:href="#DejaVuSans-34"/>
     <use x="958.589844" xlink:href="#DejaVuSans-2e"/>
     <use x="990.376953" xlink:href="#DejaVuSans-35"/>
     <use x="1054" xlink:href="#DejaVuSans-b0"/>
    </g>
   </g>
   <g id="text_25">
    <!-- Peek'n Peak -->
    <g transform="translate(50.067479 11.99353)scale(0.11 -0.11)">
     <defs>
      <path d="M 1259 4147 
L 1259 2394 
L 2053 2394 
Q 2494 2394 2734 2622 
Q 2975 2850 2975 3272 
Q 2975 3691 2734 3919 
Q 2494 4147 2053 4147 
L 1259 4147 
z
M 628 4666 
L 2053 4666 
Q 2838 4666 3239 4311 
Q 3641 3956 3641 3272 
Q 3641 2581 3239 2228 
Q 2838 1875 2053 1875 
L 1259 1875 
L 1259 0 
L 628 0 
L 628 4666 
z
" id="DejaVuSans-50" transform="scale(0.015625)"/>
     </defs>
     <use xlink:href="#DejaVuSans-50"/>
     <use x="56.677734" xlink:href="#DejaVuSans-65"/>
     <use x="118.201172" xlink:href="#DejaVuSans-65"/>
     <use x="179.724609" xlink:href="#DejaVuSans-6b"/>
     <use x="237.634766" xlink:href="#DejaVuSans-27"/>
     <use x="265.125" xlink:href="#DejaVuSans-6e"/>
     <use x="328.503906" xlink:href="#DejaVuSans-20"/>
     <use x="360.291016" xlink:href="#DejaVuSans-50"/>
     <use x="416.96875" xlink:href="#DejaVuSans-65"/>
     <use x="478.492188" xlink:href="#DejaVuSans-61"/>
     <use x="539.771484" xlink:href="#DejaVuSans-6b"/>
    </g>
   </g>
   <g id="legend_1">
    <g id="line2d_42">
     <path d="M 5.937283 147.835297 
L 16.937283 147.835297 
" style="fill:none;stroke:#008000;stroke-linecap:square;stroke-width:1.5;"/>
    </g>
    <g id="line2d_43"/>
    <g id="text_26">
     <!-- Easy -->
     <g transform="translate(21.337283 149.760297)scale(0.055 -0.055)">
      <defs>
       <path d="M 628 4666 
L 3578 4666 
L 3578 4134 
L 1259 4134 
L 1259 2753 
L 3481 2753 
L 3481 2222 
L 1259 2222 
L 1259 531 
L 3634 531 
L 3634 0 
L 628 0 
L 628 4666 
z
" id="DejaVuSans-45" transform="scale(0.015625)"/>
      </defs>
      <use xlink:href="#DejaVuSans-45"/>
      <use x="63.183594" xlink:href="#DejaVuSans-61"/>
      <use x="124.462891" xlink:href="#DejaVuSans-73"/>
      <use x="176.5625" xlink:href="#DejaVuSans-79"/>
     </g>
    </g>
    <g id="line2d_44">
     <path d="M 5.937283 155.908266 
L 16.937283 155.908266 
" style="fill:none;stroke:#4169e1;stroke-linecap:square;stroke-width:1.5;"/>
    </g>
    <g id="line2d_45"/>
    <g id="text_27">
     <!-- Intermediate -->
     <g transform="translate(21.337283 157.833266)scale(0.055 -0.055)">
      <defs>
       <path d="M 628 4666 
L 1259 4666 
L 1259 0 
L 628 0 
L 628 4666 
z
" id="DejaVuSans-49" transform="scale(0.015625)"/>
      </defs>
      <use xlink:href="#DejaVuSans-49"/>
      <use x="29.492188" xlink:href="#DejaVuSans-6e"/>
      <use x="92.871094" xlink:href="#DejaVuSans-74"/>
      <use x="132.080078" xlink:href="#DejaVuSans-65"/>
      <use x="193.603516" xlink:href="#DejaVuSans-72"/>
      <use x="232.966797" xlink:href="#DejaVuSans-6d"/>
      <use x="330.378906" xlink:href="#DejaVuSans-65"/>
      <use x="391.902344" xlink:href="#DejaVuSans-64"/>
      <use x="455.378906" xlink:href="#DejaVuSans-69"/>
      <use x="483.162109" xlink:href="#DejaVuSans-61"/>
      <use x="544.441406" xlink:href="#DejaVuSans-74"/>
      <use x="583.650391" xlink:href="#DejaVuSans-65"/>
     </g>
    </g>
    <g id="line2d_46">
     <path d="M 67.822596 147.835297 
L 78.822596 147.835297 
" style="fill:none;stroke:#000000;stroke-linecap:square;stroke-width:1.5;"/>
    </g>
    <g id="line2d_47"/>
    <g id="text_28">
     <!-- Advanced -->
     <g transform="translate(83.222596 149.760297)scale(0.055 -0.055)">
      <defs>
       <path d="M 191 3500 
L 800 3500 
L 1894 563 
L 2988 3500 
L 3597 3500 
L 2284 0 
L 1503 0 
L 191 3500 
z
" id="DejaVuSans-76" transform="scale(0.015625)"/>
      </defs>
      <use xlink:href="#DejaVuSans-41"/>
      <use x="66.658203" xlink:href="#DejaVuSans-64"/>
      <use x="130.134766" xlink:href="#DejaVuSans-76"/>
      <use x="189.314453" xlink:href="#DejaVuSans-61"/>
      <use x="250.59375" xlink:href="#DejaVuSans-6e"/>
      <use x="313.972656" xlink:href="#DejaVuSans-63"/>
      <use x="368.953125" xlink:href="#DejaVuSans-65"/>
      <use x="430.476562" xlink:href="#DejaVuSans-64"/>
     </g>
    </g>
    <g id="line2d_48">
     <path d="M 67.822596 155.908266 
L 78.822596 155.908266 
" style="fill:none;stroke:#ff0000;stroke-linecap:square;stroke-width:1.5;"/>
    </g>
    <g id="line2d_49"/>
    <g id="text_29">
     <!-- Expert -->
     <g transform="translate(83.222596 157.833266)scale(0.055 -0.055)">
      <use xlink:href="#DejaVuSans-45"/>
      <use x="63.183594" xlink:href="#DejaVuSans-78"/>
      <use x="122.363281" xlink:href="#DejaVuSans-70"/>
      <use x="185.839844" xlink:href="#DejaVuSans-65"/>
      <use x="247.363281" xlink:href="#DejaVuSans-72"/>
      <use x="288.476562" xlink:href="#DejaVuSans-74"/>
     </g>
    </g>
    <g id="line2d_50">
     <path d="M 121.391737 147.835297 
L 132.391737 147.835297 
" style="fill:none;stroke:#ffd700;stroke-linecap:square;stroke-width:1.5;"/>
    </g>
    <g id="line2d_51"/>
    <g id="text_30">
     <!-- Extreme -->
     <g transform="translate(136.791737 149.760297)scale(0.055 -0.055)">
      <use xlink:href="#DejaVuSans-45"/>
      <use x="63.183594" xlink:href="#DejaVuSans-78"/>
      <use x="122.363281" xlink:href="#DejaVuSans-74"/>
      <use x="161.572266" xlink:href="#DejaVuSans-72"/>
      <use x="200.435547" xlink:href="#DejaVuSans-65"/>
      <use x="261.958984" xlink:href="#DejaVuSans-6d"/>
      <use x="359.371094" xlink:href="#DejaVuSans-65"/>
     </g>
    </g>
    <g id="line2d_52">
     <path d="M 121.391737 155.908266 
L 132.391737 155.908266 
" style="fill:none;stroke:#000000;stroke-dasharray:1.5,2.475;stroke-dashoffset:0;stroke-width:1.5;"/>
    </g>
    <g id="line2d_53"/>
    <g id="text_31">
     <!-- Gladed -->
     <g transform="translate(136.791737 157.833266)scale(0.055 -0.055)">
      <use xlink:href="#DejaVuSans-47"/>
      <use x="77.490234" xlink:href="#DejaVuSans-6c"/>
      <use x="105.273438" xlink:href="#DejaVuSans-61"/>
      <use x="166.552734" xlink:href="#DejaVuSans-64"/>
      <use x="230.029297" xlink:href="#DejaVuSans-65"/>
      <use x="291.552734" xlink:href="#DejaVuSans-64"/>
     </g>
    </g>
   </g>
  </g>
  <g id="text_32">
   <!-- Sources: USGS and OpenStreetMaps -->
   <g transform="translate(39.312699 166.584743)scale(0.047826 -0.047826)">
    <defs>
     <path d="M 750 794 
L 1409 794 
L 1409 0 
L 750 0 
L 750 794 
z
M 750 3309 
L 1409 3309 
L 1409 2516 
L 750 2516 
L 750 3309 
z
" id="DejaVuSans-3a" transform="scale(0.015625)"/>
     <path d="M 556 4666 
L 1191 4666 
L 1191 1831 
Q 1191 1081 1462 751 
Q 1734 422 2344 422 
Q 2950 422 3222 751 
Q 3494 1081 3494 1831 
L 3494 4666 
L 4128 4666 
L 4128 1753 
Q 4128 841 3676 375 
Q 3225 -91 2344 -91 
Q 1459 -91 1007 375 
Q 556 841 556 1753 
L 556 4666 
z
" id="DejaVuSans-55" transform="scale(0.015625)"/>
    </defs>
    <use xlink:href="#DejaVuSans-53"/>
    <use x="63.476562" xlink:href="#DejaVuSans-6f"/>
    <use x="124.658203" xlink:href="#DejaVuSans-75"/>
    <use x="188.037109" xlink:href="#DejaVuSans-72"/>
    <use x="226.900391" xlink:href="#DejaVuSans-63"/>
    <use x="281.880859" xlink:href="#DejaVuSans-65"/>
    <use x="343.404297" xlink:href="#DejaVuSans-73"/>
    <use x="395.503906" xlink:href="#DejaVuSans-3a"/>
    <use x="429.195312" xlink:href="#DejaVuSans-20"/>
    <use x="460.982422" xlink:href="#DejaVuSans-55"/>
    <use x="534.175781" xlink:href="#DejaVuSans-53"/>
    <use x="597.652344" xlink:href="#DejaVuSans-47"/>
    <use x="675.142578" xlink:href="#DejaVuSans-53"/>
    <use x="738.619141" xlink:href="#DejaVuSans-20"/>
    <use x="770.40625" xlink:href="#DejaVuSans-61"/>
    <use x="831.685547" xlink:href="#DejaVuSans-6e"/>
    <use x="895.064453" xlink:href="#DejaVuSans-64"/>
    <use x="958.541016" xlink:href="#DejaVuSans-20"/>
    <use x="990.328125" xlink:href="#DejaVuSans-4f"/>
    <use x="1069.039062" xlink:href="#DejaVuSans-70"/>
    <use x="1132.515625" xlink:href="#DejaVuSans-65"/>
    <use x="1194.039062" xlink:href="#DejaVuSans-6e"/>
    <use x="1257.417969" xlink:href="#DejaVuSans-53"/>
    <use x="1320.894531" xlink:href="#DejaVuSans-74"/>
    <use x="1360.103516" xlink:href="#DejaVuSans-72"/>
    <use x="1398.966797" xlink:href="#DejaVuSans-65"/>
    <use x="1460.490234" xlink:href="#DejaVuSans-65"/>
    <use x="1522.013672" xlink:href="#DejaVuSans-74"/>
    <use x="1561.222656" xlink:href="#DejaVuSans-4d"/>
    <use x="1647.501953" xlink:href="#DejaVuSans-61"/>
    <use x="1708.78125" xlink:href="#DejaVuSans-70"/>
    <use x="1772.257812" xlink:href="#DejaVuSans-73"/>
   </g>
  </g>
 </g>
 <defs>
  <clipPath id="p29b86172c7">
   <rect height="132.592316" width="165.878864" x="0" y="17.49353"/>
  </clipPath>
 </defs>
</svg>
