<?xml version="1.0" encoding="utf-8" standalone="no"?>
<!DOCTYPE svg PUBLIC "-//W3C//DTD SVG 1.1//EN"
  "http://www.w3.org/Graphics/SVG/1.1/DTD/svg11.dtd">
<svg height="125.327868pt" version="1.1" viewBox="0 0 136.061433 125.327868" width="136.061433pt" xmlns="http://www.w3.org/2000/svg" xmlns:xlink="http://www.w3.org/1999/xlink">
 <metadata>
  <rdf:RDF xmlns:cc="http://creativecommons.org/ns#" xmlns:dc="http://purl.org/dc/elements/1.1/" xmlns:rdf="http://www.w3.org/1999/02/22-rdf-syntax-ns#">
   <cc:Work>
    <dc:type rdf:resource="http://purl.org/dc/dcmitype/StillImage"/>
    <dc:date>2022-04-14T21:31:55.445969</dc:date>
    <dc:format>image/svg+xml</dc:format>
    <dc:creator>
     <cc:Agent>
      <dc:title>Matplotlib v3.4.3, https://matplotlib.org/</dc:title>
     </cc:Agent>
    </dc:creator>
   </cc:Work>
  </rdf:RDF>
 </metadata>
 <defs>
  <style type="text/css">*{stroke-linecap:butt;stroke-linejoin:round;}</style>
 </defs>
 <g id="figure_1">
  <g id="patch_1">
   <path d="M 0 125.327868 
L 136.061433 125.327868 
L 136.061433 0 
L 0 0 
z
" style="fill:#ffffff;"/>
  </g>
  <g id="axes_1">
   <g id="patch_2">
    <path clip-path="url(#pa0d71b1d80)" d="M 51.43147 85.392908 
L 51.43147 85.392908 
L 49.743942 85.302901 
L 48.056415 85.212895 
L 46.368887 85.122888 
L 44.681359 85.032881 
L 44.730187 83.637337 
L 44.779015 82.241793 
L 44.827843 80.846248 
L 44.87667 79.450704 
L 44.925498 78.05516 
L 44.974326 76.659615 
L 45.023154 75.264071 
L 45.071982 73.868527 
L 45.12081 72.472982 
L 45.169638 71.077438 
L 45.218466 69.681894 
L 45.267294 68.28635 
L 45.316122 66.890805 
L 45.36495 65.495261 
L 45.413778 64.099717 
L 45.462606 62.704172 
L 46.867609 62.751117 
L 48.272612 62.798062 
L 49.677615 62.845006 
L 51.082619 62.891951 
z
" style="fill:#008000;opacity:0.1;"/>
   </g>
   <g id="patch_3">
    <path clip-path="url(#pa0d71b1d80)" d="M 51.43147 85.392908 
L 51.43147 85.392908 
L 49.743942 85.302901 
L 48.056415 85.212895 
L 46.368887 85.122888 
L 44.681359 85.032881 
L 44.730187 83.637337 
L 44.779015 82.241793 
L 44.827843 80.846248 
L 44.87667 79.450704 
L 44.925498 78.05516 
L 44.974326 76.659615 
L 45.023154 75.264071 
L 45.071982 73.868527 
L 45.12081 72.472982 
L 45.169638 71.077438 
L 45.218466 69.681894 
L 45.267294 68.28635 
L 45.316122 66.890805 
L 45.36495 65.495261 
L 45.413778 64.099717 
L 45.462606 62.704172 
L 46.867609 62.751117 
L 48.272612 62.798062 
L 49.677615 62.845006 
L 51.082619 62.891951 
z
" style="fill:none;stroke:#008000;stroke-linejoin:miter;"/>
   </g>
   <g id="patch_4">
    <path clip-path="url(#pa0d71b1d80)" d="M 6.184611 74.424097 
L 6.184611 74.424097 
L 8.055878 73.880175 
L 9.927146 73.336252 
L 11.798414 72.79233 
L 13.669682 72.248407 
L 15.09049 71.735193 
L 16.511299 71.221978 
L 17.070774 72.310618 
L 17.63025 73.399257 
L 18.189725 74.487896 
L 18.7492 75.576535 
L 19.308675 76.665175 
L 19.86815 77.753814 
L 20.427626 78.842453 
L 20.987101 79.931092 
L 21.546576 81.019732 
L 22.106051 82.108371 
L 22.665526 83.19701 
L 23.225002 84.28565 
L 23.784477 85.374289 
L 24.343952 86.462928 
L 24.903427 87.551567 
L 25.462902 88.640207 
L 24.306273 89.100476 
L 23.149643 89.560745 
L 21.993013 90.021015 
L 20.836383 90.481284 
L 19.679753 90.941553 
L 18.523124 91.401823 
L 17.366494 91.862092 
L 16.209864 92.322361 
z
" style="fill:#008000;opacity:0.1;"/>
   </g>
   <g id="patch_5">
    <path clip-path="url(#pa0d71b1d80)" d="M 6.184611 74.424097 
L 6.184611 74.424097 
L 8.055878 73.880175 
L 9.927146 73.336252 
L 11.798414 72.79233 
L 13.669682 72.248407 
L 15.09049 71.735193 
L 16.511299 71.221978 
L 17.070774 72.310618 
L 17.63025 73.399257 
L 18.189725 74.487896 
L 18.7492 75.576535 
L 19.308675 76.665175 
L 19.86815 77.753814 
L 20.427626 78.842453 
L 20.987101 79.931092 
L 21.546576 81.019732 
L 22.106051 82.108371 
L 22.665526 83.19701 
L 23.225002 84.28565 
L 23.784477 85.374289 
L 24.343952 86.462928 
L 24.903427 87.551567 
L 25.462902 88.640207 
L 24.306273 89.100476 
L 23.149643 89.560745 
L 21.993013 90.021015 
L 20.836383 90.481284 
L 19.679753 90.941553 
L 18.523124 91.401823 
L 17.366494 91.862092 
L 16.209864 92.322361 
z
" style="fill:none;stroke:#008000;stroke-linejoin:miter;"/>
   </g>
   <g id="line2d_1">
    <path clip-path="url(#pa0d71b1d80)" d="M 39.354878 31.143252 
" style="fill:none;stroke:#008000;stroke-linecap:square;stroke-width:1.5;"/>
   </g>
   <g id="line2d_2">
    <path clip-path="url(#pa0d71b1d80)" d="M 39.354878 31.143252 
" style="fill:none;stroke:#4169e1;stroke-linecap:square;stroke-width:1.5;"/>
   </g>
   <g id="line2d_3">
    <path clip-path="url(#pa0d71b1d80)" d="M 39.354878 31.143252 
" style="fill:none;stroke:#000000;stroke-linecap:square;stroke-width:1.5;"/>
   </g>
   <g id="line2d_4">
    <path clip-path="url(#pa0d71b1d80)" d="M 39.354878 31.143252 
" style="fill:none;stroke:#ff0000;stroke-linecap:square;stroke-width:1.5;"/>
   </g>
   <g id="line2d_5">
    <path clip-path="url(#pa0d71b1d80)" d="M 39.354878 31.143252 
" style="fill:none;stroke:#ffd700;stroke-linecap:square;stroke-width:1.5;"/>
   </g>
   <g id="line2d_6">
    <path clip-path="url(#pa0d71b1d80)" d="M 39.354878 31.143252 
" style="fill:none;stroke:#000000;stroke-dasharray:1.5,2.475;stroke-dashoffset:0;stroke-width:1.5;"/>
   </g>
   <g id="line2d_7">
    <path clip-path="url(#pa0d71b1d80)" d="M 82.575237 97.3825 
L 82.107843 93.127127 
L 81.64045 88.871753 
L 81.055643 83.550419 
L 80.53293 78.797362 
L 80.010217 74.044304 
L 79.468311 69.111234 
L 78.926406 64.178164 
L 78.509816 60.385883 
L 78.093226 56.593603 
L 77.676636 52.801323 
L 77.260046 49.009042 
L 76.615404 43.396157 
L 75.970762 37.783272 
L 75.728034 35.072483 
L 75.501111 33.005507 
" style="fill:none;stroke:#808080;stroke-linecap:square;stroke-width:1.5;"/>
   </g>
   <g id="line2d_8">
    <path clip-path="url(#pa0d71b1d80)" d="M 106.463113 106.357751 
L 109.389827 104.90988 
L 112.31654 103.462008 
L 115.243254 102.014136 
L 118.169968 100.566265 
L 121.096681 99.118393 
L 124.023395 97.670521 
L 126.950108 96.222649 
L 129.876822 94.774778 
" style="fill:none;stroke:#808080;stroke-linecap:square;stroke-width:1.5;"/>
   </g>
   <g id="line2d_9">
    <path clip-path="url(#pa0d71b1d80)" d="M 67.398493 98.239504 
L 68.367149 94.687242 
L 68.975664 92.452253 
L 70.047057 88.523022 
L 71.223443 84.204114 
L 72.275079 80.345476 
L 73.326715 76.486838 
L 73.702662 75.10603 
L 74.700671 71.445054 
" style="fill:none;stroke:#808080;stroke-linecap:square;stroke-width:1.5;"/>
   </g>
   <g id="line2d_10">
    <path clip-path="url(#pa0d71b1d80)" d="M 62.906321 101.128188 
L 64.301164 95.102331 
L 65.696006 89.076474 
" style="fill:none;stroke:#808080;stroke-linecap:square;stroke-width:1.5;"/>
   </g>
   <g id="line2d_11">
    <path clip-path="url(#pa0d71b1d80)" d="M 58.376894 100.515437 
L 59.054276 94.529818 
L 59.731658 88.5442 
" style="fill:none;stroke:#808080;stroke-linecap:square;stroke-width:1.5;"/>
   </g>
   <g id="line2d_12">
    <path clip-path="url(#pa0d71b1d80)" d="M 59.161528 85.678105 
L 64.55236 85.476208 
" style="fill:none;stroke:#808080;stroke-linecap:square;stroke-width:1.5;"/>
   </g>
   <g id="line2d_13">
    <path clip-path="url(#pa0d71b1d80)" d="M 52.729786 84.319887 
L 52.665435 82.862839 
L 52.56044 80.471132 
L 52.510766 79.348696 
L 52.314325 73.153415 
L 52.185622 70.572518 
L 52.008374 67.878672 
L 51.778064 62.649109 
L 51.664038 60.072448 
" style="fill:none;stroke:#808080;stroke-linecap:square;stroke-width:1.5;"/>
   </g>
   <g id="line2d_14">
    <path clip-path="url(#pa0d71b1d80)" d="M 43.409009 84.338242 
L 43.678833 78.997141 
L 43.802456 75.8162 
L 43.926078 72.635259 
L 44.194773 68.602961 
L 44.463467 64.570663 
L 44.758129 60.598723 
L 45.05279 56.626782 
L 45.347451 52.654841 
L 45.642112 48.682901 
L 45.8092 44.962626 
L 45.915323 42.470677 
L 46.041203 39.046189 
L 46.167083 35.6217 
L 46.307075 32.212036 
L 46.447068 28.802373 
L 47.00365 22.99112 
L 47.082678 20.873316 
" style="fill:none;stroke:#808080;stroke-linecap:square;stroke-width:1.5;"/>
   </g>
   <g id="line2d_15">
    <path clip-path="url(#pa0d71b1d80)" d="M 33.542941 87.514947 
L 33.907598 85.28843 
L 34.293706 82.930608 
L 35.02302 78.476161 
L 35.75798 73.986418 
L 36.672445 68.403888 
L 37.415872 63.862611 
L 38.159299 59.321334 
L 39.106505 53.536907 
L 39.790661 49.356362 
L 40.726577 43.641116 
L 40.939952 42.337961 
L 41.22671 40.587244 
L 41.682814 37.798802 
" style="fill:none;stroke:#808080;stroke-linecap:square;stroke-width:1.5;"/>
   </g>
   <g id="line2d_16">
    <path clip-path="url(#pa0d71b1d80)" d="M 22.913688 90.152318 
L 20.744372 86.271796 
L 18.575056 82.391274 
L 16.40574 78.510752 
L 14.236425 74.63023 
" style="fill:none;stroke:#808080;stroke-linecap:square;stroke-width:1.5;"/>
   </g>
   <g id="line2d_17">
    <path clip-path="url(#pa0d71b1d80)" d="M 22.499356 90.351392 
L 20.330322 86.473341 
L 18.161289 82.595289 
L 15.992255 78.717238 
L 13.823222 74.839187 
" style="fill:none;stroke:#808080;stroke-linecap:square;stroke-width:1.5;"/>
   </g>
   <g id="line2d_18">
    <path clip-path="url(#pa0d71b1d80)" d="M 106.539883 106.490467 
L 110.76336 104.418549 
L 114.986837 102.346631 
L 119.210313 100.274714 
L 123.43379 98.202796 
" style="fill:none;stroke:#808080;stroke-linecap:square;stroke-width:1.5;"/>
   </g>
   <g id="line2d_19">
    <path clip-path="url(#pa0d71b1d80)" d="M 39.354878 31.143252 
L 38.447186 30.268246 
L 37.539494 29.39324 
L 36.631803 28.518234 
L 35.724111 27.643228 
L 34.816419 26.768222 
L 33.908727 25.893216 
L 33.001035 25.018211 
L 32.093343 24.143205 
L 30.788818 23.988605 
L 29.484293 23.834005 
L 28.461447 24.519468 
L 27.4386 25.20493 
L 27.220709 27.061185 
L 27.002817 28.91744 
L 26.784926 30.773695 
L 26.567035 32.62995 
L 26.324589 34.227479 
L 26.082142 35.825009 
L 25.839696 37.422539 
L 25.59725 39.020069 
L 25.209731 40.382876 
L 24.822212 41.745682 
L 24.434693 43.108489 
L 24.047174 44.471295 
L 23.743199 45.577848 
L 23.439224 46.6844 
L 23.135248 47.790952 
L 22.831273 48.897505 
L 22.493147 49.806396 
L 22.15502 50.715286 
L 21.816894 51.624177 
L 21.478767 52.533068 
L 20.721793 54.268961 
L 19.964818 56.004854 
L 19.559518 56.922569 
L 19.154218 57.840283 
L 18.748918 58.757998 
L 18.343617 59.675713 
L 18.130807 60.675316 
L 17.917996 61.67492 
L 17.705185 62.674523 
L 17.492374 63.674126 
L 17.620512 65.467906 
L 17.74865 67.261686 
L 18.11867 68.265701 
L 18.48869 69.269716 
L 18.85871 70.273732 
L 19.22873 71.277747 
L 19.59875 72.281762 
L 19.96877 73.285778 
L 20.33879 74.289793 
L 20.70881 75.293809 
L 21.07883 76.297824 
L 21.448849 77.301839 
L 21.818869 78.305855 
L 22.188889 79.30987 
L 22.558909 80.313885 
L 22.928929 81.317901 
L 23.298949 82.321916 
L 23.668969 83.325932 
" style="fill:none;stroke:#008000;stroke-linecap:square;stroke-width:1.5;"/>
   </g>
   <g id="line2d_20">
    <path clip-path="url(#pa0d71b1d80)" d="M 39.660829 39.349034 
L 39.449429 40.464764 
L 39.23803 41.580493 
L 39.02663 42.696223 
L 38.815231 43.811953 
L 38.001243 45.129226 
L 36.983759 46.033881 
L 35.966275 46.938537 
L 34.948791 47.843192 
L 33.931306 48.747847 
L 32.913822 49.652502 
L 31.896338 50.557157 
L 30.878854 51.461812 
L 29.861369 52.366467 
L 29.065163 53.158173 
L 28.268957 53.949878 
L 27.472751 54.741584 
L 26.676545 55.533289 
L 26.139438 56.565366 
L 25.60233 57.597442 
L 25.065223 58.629518 
L 24.528115 59.661594 
L 24.298934 61.489965 
L 24.069753 63.318335 
L 24.277484 64.480833 
L 24.485214 65.643331 
L 24.692945 66.805828 
L 24.900675 67.968326 
L 25.108406 69.130824 
L 25.316136 70.293321 
L 25.523867 71.455819 
L 25.731597 72.618317 
L 25.939328 73.780814 
L 26.147058 74.943312 
L 26.354789 76.10581 
L 26.562519 77.268307 
L 26.77025 78.430805 
L 26.97798 79.593303 
L 27.185711 80.7558 
L 27.393441 81.918298 
" style="fill:none;stroke:#4169e1;stroke-linecap:square;stroke-width:1.5;"/>
   </g>
   <g id="line2d_21">
    <path clip-path="url(#pa0d71b1d80)" d="M 44.105584 33.287881 
L 43.948304 34.851084 
L 43.791025 36.414288 
L 43.633745 37.977492 
L 43.476465 39.540696 
L 43.319186 41.103899 
L 43.161906 42.667103 
L 43.004627 44.230307 
L 42.847347 45.793511 
L 42.690067 47.356714 
L 42.532788 48.919918 
L 42.375508 50.483122 
L 42.218228 52.046326 
L 42.060949 53.60953 
L 41.903669 55.172733 
L 41.746389 56.735937 
L 41.58911 58.299141 
L 41.43183 59.862345 
L 41.274551 61.425548 
L 41.117271 62.988752 
L 40.959991 64.551956 
L 40.802712 66.11516 
L 40.645432 67.678363 
L 40.488152 69.241567 
L 40.330873 70.804771 
L 40.173593 72.367975 
L 40.016314 73.931178 
L 39.859034 75.494382 
L 39.701754 77.057586 
L 39.544475 78.62079 
L 39.387195 80.183994 
L 39.229915 81.747197 
L 39.072636 83.310401 
" style="fill:none;stroke:#000000;stroke-linecap:square;stroke-width:1.5;"/>
   </g>
   <g id="line2d_22">
    <path clip-path="url(#pa0d71b1d80)" d="M 46.91559 43.625586 
L 48.199511 44.706372 
L 49.483433 45.787157 
L 50.767354 46.867943 
L 52.051275 47.948729 
L 52.892216 49.042398 
L 53.733158 50.136067 
L 54.574099 51.229736 
L 55.415041 52.323405 
L 56.255983 53.417074 
L 57.096924 54.510743 
L 57.937866 55.604412 
L 58.778807 56.698081 
L 59.17691 57.613855 
L 59.575013 58.529628 
L 59.973116 59.445402 
L 60.371219 60.361176 
L 60.769322 61.276949 
L 61.167425 62.192723 
L 61.565528 63.108496 
L 61.963631 64.02427 
L 62.670084 64.865744 
L 63.376537 65.707218 
L 64.08299 66.548692 
L 64.789443 67.390166 
" style="fill:none;stroke:#4169e1;stroke-linecap:square;stroke-width:1.5;"/>
   </g>
   <g id="line2d_23">
    <path clip-path="url(#pa0d71b1d80)" d="M 69.332419 27.077069 
L 68.507706 27.919249 
L 67.682994 28.761428 
L 67.029884 29.548898 
L 66.376775 30.336368 
L 65.723666 31.123838 
L 65.070557 31.911308 
L 63.913927 33.396595 
L 62.757297 34.881881 
L 62.161201 35.801008 
L 61.565105 36.720134 
L 61.857508 38.520267 
L 61.92694 39.656116 
L 61.996372 40.791965 
L 62.223295 41.970169 
L 62.450218 43.148374 
L 62.677141 44.326579 
L 62.904063 45.504784 
L 63.364401 47.008777 
L 63.824739 48.512771 
L 64.285076 50.016764 
L 64.745414 51.520758 
L 65.351106 53.28277 
L 65.956798 55.044783 
L 66.562491 56.806795 
L 67.168183 58.568808 
L 67.410347 59.579 
L 67.652511 60.589192 
L 67.894675 61.599385 
L 68.136839 62.609577 
L 67.894675 64.395591 
L 67.652511 66.181606 
L 67.167901 67.896674 
L 66.683291 69.611742 
L 66.19868 71.32681 
L 65.71407 73.041877 
L 65.011568 74.216552 
L 64.309067 75.391228 
L 63.606565 76.565903 
L 62.904063 77.740578 
" style="fill:none;stroke:#008000;stroke-linecap:square;stroke-width:1.5;"/>
   </g>
   <g id="line2d_24">
    <path clip-path="url(#pa0d71b1d80)" d="M 75.954957 29.148281 
L 77.171422 30.000167 
L 78.387887 30.852054 
L 79.604352 31.70394 
L 80.820817 32.555827 
L 82.037283 33.407713 
L 83.253748 34.259599 
L 84.470213 35.111486 
L 85.686678 35.963372 
L 86.767667 36.525473 
L 87.848656 37.087573 
L 88.929644 37.649674 
L 90.010633 38.211774 
L 91.091622 38.773874 
L 92.172611 39.335975 
L 93.2536 39.898075 
L 94.334588 40.460175 
L 95.317357 41.263882 
L 96.300125 42.067588 
L 97.282894 42.871295 
L 98.265662 43.675001 
L 99.332397 44.726138 
L 100.399133 45.777274 
L 101.465868 46.828411 
L 102.532604 47.879547 
L 103.59934 48.930684 
L 104.666075 49.98182 
L 105.732811 51.032957 
L 106.799546 52.084093 
L 107.914122 53.282417 
L 109.028697 54.480741 
L 110.143273 55.679065 
L 111.257849 56.877389 
L 112.715349 58.099714 
L 114.172849 59.32204 
L 115.63035 60.544366 
L 117.08785 61.766691 
L 118.462935 63.052198 
L 119.838021 64.337705 
L 120.531208 65.736514 
L 121.224396 67.135323 
L 121.917583 68.534133 
L 122.610771 69.932942 
L 122.939866 71.598947 
L 123.268961 73.264953 
L 123.313837 74.621406 
L 123.358714 75.977859 
L 123.40359 77.334312 
L 123.448467 78.690766 
L 122.897529 80.077927 
L 122.346592 81.465088 
L 121.604012 82.453044 
L 120.861432 83.440999 
L 120.118852 84.428954 
L 119.376272 85.41691 
" style="fill:none;stroke:#008000;stroke-linecap:square;stroke-width:1.5;"/>
   </g>
   <g id="line2d_25">
    <path clip-path="url(#pa0d71b1d80)" d="M 75.954957 29.148281 
L 76.253287 30.159532 
L 76.551617 31.170783 
L 76.849948 32.182034 
L 77.148278 33.193285 
L 77.596761 34.3429 
L 78.045245 35.492514 
L 78.493728 36.642129 
L 78.942211 37.791743 
L 79.676889 38.953358 
L 80.411566 40.114973 
L 81.146243 41.276589 
L 81.88092 42.438204 
L 83.28423 43.307562 
L 84.68754 44.176921 
L 86.090849 45.046279 
L 87.494159 45.915637 
L 88.822957 46.804762 
L 90.151754 47.693886 
L 91.480552 48.583011 
L 92.80935 49.472136 
L 94.302413 50.67999 
L 95.795476 51.887843 
L 96.666476 52.550363 
L 97.537476 53.212883 
L 98.408477 53.875402 
L 99.279477 54.537922 
L 100.145115 55.303155 
L 101.010752 56.068388 
L 101.87639 56.833621 
L 102.742028 57.598854 
L 103.473601 58.32526 
L 104.205173 59.051667 
L 105.414864 60.253168 
L 106.624556 61.454668 
L 107.834247 62.656169 
L 109.043939 63.857669 
" style="fill:none;stroke:#008000;stroke-linecap:square;stroke-width:1.5;"/>
   </g>
   <g id="line2d_26">
    <path clip-path="url(#pa0d71b1d80)" d="M 50.037192 19.119775 
L 51.81024 19.049181 
L 53.583287 18.978588 
L 55.356335 18.907994 
L 57.129382 18.837401 
L 58.980893 19.463212 
L 60.832404 20.089023 
L 62.683914 20.714834 
L 64.535425 21.340645 
L 65.531741 21.859507 
L 66.528057 22.378368 
L 67.524373 22.89723 
L 68.520689 23.416092 
L 68.926554 25.24658 
L 69.332419 27.077069 
" style="fill:none;stroke:#008000;stroke-linecap:square;stroke-width:1.5;"/>
   </g>
   <g id="line2d_27">
    <path clip-path="url(#pa0d71b1d80)" d="M 104.205173 59.051667 
L 104.14308 60.142689 
L 104.080986 61.233711 
L 104.018893 62.324732 
L 103.9568 63.415754 
L 103.60569 64.603136 
L 103.25458 65.790518 
L 102.903471 66.9779 
L 102.552361 68.165282 
L 102.201251 69.352664 
L 101.850142 70.540045 
L 101.499032 71.727427 
L 101.147922 72.914809 
L 100.682928 74.396566 
L 100.217933 75.878322 
L 99.752939 77.360079 
L 99.287944 78.841835 
L 98.82295 80.323592 
L 98.357955 81.805349 
L 97.892961 83.287105 
L 97.427966 84.768862 
" style="fill:none;stroke:#4169e1;stroke-linecap:square;stroke-width:1.5;"/>
   </g>
   <g id="line2d_28">
    <path clip-path="url(#pa0d71b1d80)" d="M 109.043939 63.857669 
L 109.764786 65.403666 
L 110.485633 66.949662 
L 110.210447 68.146222 
L 109.93526 69.342781 
L 109.660074 70.53934 
L 109.384887 71.735899 
L 109.109701 72.932458 
L 108.834515 74.129017 
L 108.559328 75.325576 
L 108.284142 76.522135 
L 108.037462 77.534445 
L 107.790782 78.546755 
L 107.544102 79.559065 
L 107.297422 80.571375 
L 107.050742 81.583685 
L 106.804062 82.595995 
L 106.557382 83.608305 
L 106.310702 84.620616 
" style="fill:none;stroke:#4169e1;stroke-linecap:square;stroke-width:1.5;"/>
   </g>
   <g id="line2d_29">
    <path clip-path="url(#pa0d71b1d80)" d="M 54.535009 60.91251 
L 54.762779 62.274611 
L 54.990548 63.636712 
L 55.218318 64.998812 
L 55.446088 66.360913 
L 55.579871 67.859789 
L 55.713654 69.358664 
L 55.847436 70.85754 
L 55.981219 72.356415 
L 56.115002 73.85529 
L 56.248785 75.354166 
L 56.382568 76.853041 
L 56.516351 78.351917 
" style="fill:none;stroke:#008000;stroke-linecap:square;stroke-width:1.5;"/>
   </g>
   <g id="line2d_30">
    <path clip-path="url(#pa0d71b1d80)" d="M 63.031637 88.602086 
L 62.724698 90.147906 
L 62.41776 91.693726 
L 62.110821 93.239547 
L 61.803882 94.785367 
L 61.496944 96.331187 
L 61.190005 97.877007 
L 60.883066 99.422827 
L 60.576127 100.968647 
" style="fill:none;stroke:#008000;stroke-linecap:square;stroke-width:1.5;"/>
   </g>
   <g id="line2d_31">
    <path clip-path="url(#pa0d71b1d80)" d="M 95.795476 51.887843 
L 95.559521 53.212177 
L 95.317357 54.386852 
L 95.075193 55.561527 
L 94.833029 56.736202 
L 94.590865 57.910877 
L 94.199818 59.050432 
L 93.808771 60.189986 
L 93.417724 61.329541 
L 93.026677 62.469096 
L 92.63563 63.608651 
L 92.244583 64.748206 
L 91.853536 65.88776 
L 91.462489 67.027315 
L 91.329623 68.040949 
L 91.196757 69.054583 
L 91.063892 70.068216 
L 90.931026 71.08185 
L 90.79816 72.095484 
L 90.665295 73.109118 
L 90.532429 74.122751 
L 90.399563 75.136385 
L 90.266698 76.150019 
L 90.133832 77.163653 
L 90.000966 78.177286 
L 89.868101 79.19092 
L 89.735235 80.204554 
L 89.602369 81.218188 
L 89.469504 82.231821 
L 89.336638 83.245455 
" style="fill:none;stroke:#4169e1;stroke-linecap:square;stroke-width:1.5;"/>
   </g>
   <g id="line2d_32">
    <path clip-path="url(#pa0d71b1d80)" d="M 50.51136 30.133765 
L 51.972811 30.925471 
L 53.434263 31.717176 
L 54.895715 32.508882 
L 56.357166 33.300587 
L 57.659151 34.155474 
L 58.961136 35.010361 
L 60.26312 35.865248 
L 61.565105 36.720134 
" style="fill:none;stroke:#008000;stroke-linecap:square;stroke-width:1.5;"/>
   </g>
   <g id="line2d_33">
    <path clip-path="url(#pa0d71b1d80)" d="M 38.815231 43.811953 
L 38.702616 45.068163 
L 38.590001 46.324373 
L 38.477386 47.580584 
L 38.364772 48.836794 
L 38.042168 50.36479 
L 37.719565 51.892785 
L 37.396962 53.42078 
L 37.074359 54.948776 
L 37.017346 56.05321 
L 36.960333 57.157645 
L 36.90332 58.262079 
L 36.846307 59.366514 
L 36.371857 61.133468 
L 35.897408 62.900422 
L 35.422958 64.667376 
L 34.948508 66.43433 
" style="fill:none;stroke:#000000;stroke-linecap:square;stroke-width:1.5;"/>
   </g>
   <g id="line2d_34">
    <path clip-path="url(#pa0d71b1d80)" d="M 71.211025 73.078586 
L 70.94487 74.351562 
L 70.678715 75.624539 
L 70.412561 76.897515 
L 70.146406 78.170492 
L 69.880251 79.443468 
L 69.614097 80.716445 
L 69.347942 81.989421 
L 69.081787 83.262397 
L 68.769627 84.455427 
L 68.457467 85.648456 
L 68.145307 86.841486 
L 67.833147 88.034515 
" style="fill:none;stroke:#008000;stroke-linecap:square;stroke-width:1.5;"/>
   </g>
   <g id="line2d_35">
    <path clip-path="url(#pa0d71b1d80)" d="M 109.043939 63.857669 
L 108.739681 64.763824 
L 108.435424 65.66998 
L 108.131166 66.576135 
L 107.826909 67.48229 
L 107.522651 68.388445 
L 107.218394 69.294601 
L 106.914137 70.200756 
L 106.609879 71.106911 
L 106.305622 72.013066 
L 106.001364 72.919221 
L 105.697107 73.825377 
L 105.39285 74.731532 
L 105.088592 75.637687 
L 104.784335 76.543842 
L 104.480077 77.449997 
L 104.17582 78.356153 
L 103.554322 80.092751 
L 102.932824 81.82935 
L 102.311326 83.565949 
L 101.689828 85.302548 
" style="fill:none;stroke:#4169e1;stroke-linecap:square;stroke-width:1.5;"/>
   </g>
   <g id="line2d_36">
    <path clip-path="url(#pa0d71b1d80)" d="M 68.754386 64.913747 
L 69.699334 66.173135 
L 71.034905 66.757648 
L 72.227098 66.838125 
L 74.140702 67.112733 
L 76.054306 67.387342 
L 77.247063 67.92597 
L 78.43982 68.464598 
L 79.293321 69.239714 
L 80.146822 70.01483 
L 81.015 71.305279 
L 81.558035 72.978343 
L 82.077926 74.009008 
L 82.597816 75.039672 
L 83.460349 76.150813 
L 84.322882 77.261954 
L 85.527493 77.960829 
L 86.732104 78.659704 
" style="fill:none;stroke:#008000;stroke-linecap:square;stroke-width:1.5;"/>
   </g>
   <g id="line2d_37">
    <path clip-path="url(#pa0d71b1d80)" d="M 75.954957 29.148281 
L 74.370447 28.232683 
L 72.785938 27.317086 
L 71.059178 27.197078 
L 69.332419 27.077069 
" style="fill:none;stroke:#008000;stroke-linecap:square;stroke-width:1.5;"/>
   </g>
   <g id="text_1">
    <g id="patch_6">
     <path d="M 79.16933 77.080438 
L 80.98473 90.289395 
L 82.941956 90.0204 
L 81.126557 76.811443 
z
" style="fill:#ffffff;"/>
    </g>
    <!-- Orange Chair -->
    <g style="fill:#808080;" transform="translate(79.603931 77.040896)rotate(-277.825533)scale(0.02 -0.02)">
     <defs>
      <path d="M 2522 4238 
Q 1834 4238 1429 3725 
Q 1025 3213 1025 2328 
Q 1025 1447 1429 934 
Q 1834 422 2522 422 
Q 3209 422 3611 934 
Q 4013 1447 4013 2328 
Q 4013 3213 3611 3725 
Q 3209 4238 2522 4238 
z
M 2522 4750 
Q 3503 4750 4090 4092 
Q 4678 3434 4678 2328 
Q 4678 1225 4090 567 
Q 3503 -91 2522 -91 
Q 1538 -91 948 565 
Q 359 1222 359 2328 
Q 359 3434 948 4092 
Q 1538 4750 2522 4750 
z
" id="DejaVuSans-4f" transform="scale(0.015625)"/>
      <path d="M 2631 2963 
Q 2534 3019 2420 3045 
Q 2306 3072 2169 3072 
Q 1681 3072 1420 2755 
Q 1159 2438 1159 1844 
L 1159 0 
L 581 0 
L 581 3500 
L 1159 3500 
L 1159 2956 
Q 1341 3275 1631 3429 
Q 1922 3584 2338 3584 
Q 2397 3584 2469 3576 
Q 2541 3569 2628 3553 
L 2631 2963 
z
" id="DejaVuSans-72" transform="scale(0.015625)"/>
      <path d="M 2194 1759 
Q 1497 1759 1228 1600 
Q 959 1441 959 1056 
Q 959 750 1161 570 
Q 1363 391 1709 391 
Q 2188 391 2477 730 
Q 2766 1069 2766 1631 
L 2766 1759 
L 2194 1759 
z
M 3341 1997 
L 3341 0 
L 2766 0 
L 2766 531 
Q 2569 213 2275 61 
Q 1981 -91 1556 -91 
Q 1019 -91 701 211 
Q 384 513 384 1019 
Q 384 1609 779 1909 
Q 1175 2209 1959 2209 
L 2766 2209 
L 2766 2266 
Q 2766 2663 2505 2880 
Q 2244 3097 1772 3097 
Q 1472 3097 1187 3025 
Q 903 2953 641 2809 
L 641 3341 
Q 956 3463 1253 3523 
Q 1550 3584 1831 3584 
Q 2591 3584 2966 3190 
Q 3341 2797 3341 1997 
z
" id="DejaVuSans-61" transform="scale(0.015625)"/>
      <path d="M 3513 2113 
L 3513 0 
L 2938 0 
L 2938 2094 
Q 2938 2591 2744 2837 
Q 2550 3084 2163 3084 
Q 1697 3084 1428 2787 
Q 1159 2491 1159 1978 
L 1159 0 
L 581 0 
L 581 3500 
L 1159 3500 
L 1159 2956 
Q 1366 3272 1645 3428 
Q 1925 3584 2291 3584 
Q 2894 3584 3203 3211 
Q 3513 2838 3513 2113 
z
" id="DejaVuSans-6e" transform="scale(0.015625)"/>
      <path d="M 2906 1791 
Q 2906 2416 2648 2759 
Q 2391 3103 1925 3103 
Q 1463 3103 1205 2759 
Q 947 2416 947 1791 
Q 947 1169 1205 825 
Q 1463 481 1925 481 
Q 2391 481 2648 825 
Q 2906 1169 2906 1791 
z
M 3481 434 
Q 3481 -459 3084 -895 
Q 2688 -1331 1869 -1331 
Q 1566 -1331 1297 -1286 
Q 1028 -1241 775 -1147 
L 775 -588 
Q 1028 -725 1275 -790 
Q 1522 -856 1778 -856 
Q 2344 -856 2625 -561 
Q 2906 -266 2906 331 
L 2906 616 
Q 2728 306 2450 153 
Q 2172 0 1784 0 
Q 1141 0 747 490 
Q 353 981 353 1791 
Q 353 2603 747 3093 
Q 1141 3584 1784 3584 
Q 2172 3584 2450 3431 
Q 2728 3278 2906 2969 
L 2906 3500 
L 3481 3500 
L 3481 434 
z
" id="DejaVuSans-67" transform="scale(0.015625)"/>
      <path d="M 3597 1894 
L 3597 1613 
L 953 1613 
Q 991 1019 1311 708 
Q 1631 397 2203 397 
Q 2534 397 2845 478 
Q 3156 559 3463 722 
L 3463 178 
Q 3153 47 2828 -22 
Q 2503 -91 2169 -91 
Q 1331 -91 842 396 
Q 353 884 353 1716 
Q 353 2575 817 3079 
Q 1281 3584 2069 3584 
Q 2775 3584 3186 3129 
Q 3597 2675 3597 1894 
z
M 3022 2063 
Q 3016 2534 2758 2815 
Q 2500 3097 2075 3097 
Q 1594 3097 1305 2825 
Q 1016 2553 972 2059 
L 3022 2063 
z
" id="DejaVuSans-65" transform="scale(0.015625)"/>
      <path id="DejaVuSans-20" transform="scale(0.015625)"/>
      <path d="M 4122 4306 
L 4122 3641 
Q 3803 3938 3442 4084 
Q 3081 4231 2675 4231 
Q 1875 4231 1450 3742 
Q 1025 3253 1025 2328 
Q 1025 1406 1450 917 
Q 1875 428 2675 428 
Q 3081 428 3442 575 
Q 3803 722 4122 1019 
L 4122 359 
Q 3791 134 3420 21 
Q 3050 -91 2638 -91 
Q 1578 -91 968 557 
Q 359 1206 359 2328 
Q 359 3453 968 4101 
Q 1578 4750 2638 4750 
Q 3056 4750 3426 4639 
Q 3797 4528 4122 4306 
z
" id="DejaVuSans-43" transform="scale(0.015625)"/>
      <path d="M 3513 2113 
L 3513 0 
L 2938 0 
L 2938 2094 
Q 2938 2591 2744 2837 
Q 2550 3084 2163 3084 
Q 1697 3084 1428 2787 
Q 1159 2491 1159 1978 
L 1159 0 
L 581 0 
L 581 4863 
L 1159 4863 
L 1159 2956 
Q 1366 3272 1645 3428 
Q 1925 3584 2291 3584 
Q 2894 3584 3203 3211 
Q 3513 2838 3513 2113 
z
" id="DejaVuSans-68" transform="scale(0.015625)"/>
      <path d="M 603 3500 
L 1178 3500 
L 1178 0 
L 603 0 
L 603 3500 
z
M 603 4863 
L 1178 4863 
L 1178 4134 
L 603 4134 
L 603 4863 
z
" id="DejaVuSans-69" transform="scale(0.015625)"/>
     </defs>
     <use xlink:href="#DejaVuSans-4f"/>
     <use x="78.710938" xlink:href="#DejaVuSans-72"/>
     <use x="119.824219" xlink:href="#DejaVuSans-61"/>
     <use x="181.103516" xlink:href="#DejaVuSans-6e"/>
     <use x="244.482422" xlink:href="#DejaVuSans-67"/>
     <use x="307.958984" xlink:href="#DejaVuSans-65"/>
     <use x="369.482422" xlink:href="#DejaVuSans-20"/>
     <use x="401.269531" xlink:href="#DejaVuSans-43"/>
     <use x="471.09375" xlink:href="#DejaVuSans-68"/>
     <use x="534.472656" xlink:href="#DejaVuSans-61"/>
     <use x="595.751953" xlink:href="#DejaVuSans-69"/>
     <use x="623.535156" xlink:href="#DejaVuSans-72"/>
    </g>
   </g>
   <g id="text_2">
    <g id="patch_7">
     <path d="M 118.219205 101.609081 
L 118.847459 101.360554 
L 118.12073 99.523448 
L 117.492476 99.771975 
z
" style="fill:#ffffff;"/>
    </g>
    <!--   -->
    <g style="fill:#808080;" transform="translate(118.077444 101.196352)rotate(-21.582919)scale(0.02 -0.02)">
     <use xlink:href="#DejaVuSans-20"/>
    </g>
   </g>
   <g id="text_3">
    <g id="patch_8">
     <path d="M 70.224053 90.201571 
L 74.09294 78.843679 
L 72.222834 78.206657 
L 68.353947 89.564549 
z
" style="fill:#ffffff;"/>
    </g>
    <!-- Green Chair -->
    <g style="fill:#808080;" transform="translate(69.817848 90.042076)rotate(-71.189402)scale(0.02 -0.02)">
     <defs>
      <path d="M 3809 666 
L 3809 1919 
L 2778 1919 
L 2778 2438 
L 4434 2438 
L 4434 434 
Q 4069 175 3628 42 
Q 3188 -91 2688 -91 
Q 1594 -91 976 548 
Q 359 1188 359 2328 
Q 359 3472 976 4111 
Q 1594 4750 2688 4750 
Q 3144 4750 3555 4637 
Q 3966 4525 4313 4306 
L 4313 3634 
Q 3963 3931 3569 4081 
Q 3175 4231 2741 4231 
Q 1884 4231 1454 3753 
Q 1025 3275 1025 2328 
Q 1025 1384 1454 906 
Q 1884 428 2741 428 
Q 3075 428 3337 486 
Q 3600 544 3809 666 
z
" id="DejaVuSans-47" transform="scale(0.015625)"/>
     </defs>
     <use xlink:href="#DejaVuSans-47"/>
     <use x="77.490234" xlink:href="#DejaVuSans-72"/>
     <use x="116.353516" xlink:href="#DejaVuSans-65"/>
     <use x="177.876953" xlink:href="#DejaVuSans-65"/>
     <use x="239.400391" xlink:href="#DejaVuSans-6e"/>
     <use x="302.779297" xlink:href="#DejaVuSans-20"/>
     <use x="334.566406" xlink:href="#DejaVuSans-43"/>
     <use x="404.390625" xlink:href="#DejaVuSans-68"/>
     <use x="467.769531" xlink:href="#DejaVuSans-61"/>
     <use x="529.048828" xlink:href="#DejaVuSans-69"/>
     <use x="556.832031" xlink:href="#DejaVuSans-72"/>
    </g>
   </g>
   <g id="text_4">
    <g id="patch_9">
     <path d="M 44.627322 78.555499 
L 45.19813 66.810925 
L 43.224834 66.715019 
L 42.654026 78.459593 
z
" style="fill:#ffffff;"/>
    </g>
    <!-- White Chair -->
    <g style="fill:#808080;" transform="translate(44.192869 78.514361)rotate(-87.217508)scale(0.02 -0.02)">
     <defs>
      <path d="M 213 4666 
L 850 4666 
L 1831 722 
L 2809 4666 
L 3519 4666 
L 4500 722 
L 5478 4666 
L 6119 4666 
L 4947 0 
L 4153 0 
L 3169 4050 
L 2175 0 
L 1381 0 
L 213 4666 
z
" id="DejaVuSans-57" transform="scale(0.015625)"/>
      <path d="M 1172 4494 
L 1172 3500 
L 2356 3500 
L 2356 3053 
L 1172 3053 
L 1172 1153 
Q 1172 725 1289 603 
Q 1406 481 1766 481 
L 2356 481 
L 2356 0 
L 1766 0 
Q 1100 0 847 248 
Q 594 497 594 1153 
L 594 3053 
L 172 3053 
L 172 3500 
L 594 3500 
L 594 4494 
L 1172 4494 
z
" id="DejaVuSans-74" transform="scale(0.015625)"/>
     </defs>
     <use xlink:href="#DejaVuSans-57"/>
     <use x="98.876953" xlink:href="#DejaVuSans-68"/>
     <use x="162.255859" xlink:href="#DejaVuSans-69"/>
     <use x="190.039062" xlink:href="#DejaVuSans-74"/>
     <use x="229.248047" xlink:href="#DejaVuSans-65"/>
     <use x="290.771484" xlink:href="#DejaVuSans-20"/>
     <use x="322.558594" xlink:href="#DejaVuSans-43"/>
     <use x="392.382812" xlink:href="#DejaVuSans-68"/>
     <use x="455.761719" xlink:href="#DejaVuSans-61"/>
     <use x="517.041016" xlink:href="#DejaVuSans-69"/>
     <use x="544.824219" xlink:href="#DejaVuSans-72"/>
    </g>
   </g>
   <g id="text_5">
    <g id="patch_10">
     <path d="M 35.748693 78.957113 
L 37.70275 69.411949 
L 35.767266 69.015723 
L 33.813209 78.560886 
z
" style="fill:#ffffff;"/>
    </g>
    <!-- Red Chair -->
    <g style="fill:#808080;" transform="translate(35.325624 78.850089)rotate(-78.430436)scale(0.02 -0.02)">
     <defs>
      <path d="M 2841 2188 
Q 3044 2119 3236 1894 
Q 3428 1669 3622 1275 
L 4263 0 
L 3584 0 
L 2988 1197 
Q 2756 1666 2539 1819 
Q 2322 1972 1947 1972 
L 1259 1972 
L 1259 0 
L 628 0 
L 628 4666 
L 2053 4666 
Q 2853 4666 3247 4331 
Q 3641 3997 3641 3322 
Q 3641 2881 3436 2590 
Q 3231 2300 2841 2188 
z
M 1259 4147 
L 1259 2491 
L 2053 2491 
Q 2509 2491 2742 2702 
Q 2975 2913 2975 3322 
Q 2975 3731 2742 3939 
Q 2509 4147 2053 4147 
L 1259 4147 
z
" id="DejaVuSans-52" transform="scale(0.015625)"/>
      <path d="M 2906 2969 
L 2906 4863 
L 3481 4863 
L 3481 0 
L 2906 0 
L 2906 525 
Q 2725 213 2448 61 
Q 2172 -91 1784 -91 
Q 1150 -91 751 415 
Q 353 922 353 1747 
Q 353 2572 751 3078 
Q 1150 3584 1784 3584 
Q 2172 3584 2448 3432 
Q 2725 3281 2906 2969 
z
M 947 1747 
Q 947 1113 1208 752 
Q 1469 391 1925 391 
Q 2381 391 2643 752 
Q 2906 1113 2906 1747 
Q 2906 2381 2643 2742 
Q 2381 3103 1925 3103 
Q 1469 3103 1208 2742 
Q 947 2381 947 1747 
z
" id="DejaVuSans-64" transform="scale(0.015625)"/>
     </defs>
     <use xlink:href="#DejaVuSans-52"/>
     <use x="64.982422" xlink:href="#DejaVuSans-65"/>
     <use x="126.505859" xlink:href="#DejaVuSans-64"/>
     <use x="189.982422" xlink:href="#DejaVuSans-20"/>
     <use x="221.769531" xlink:href="#DejaVuSans-43"/>
     <use x="291.59375" xlink:href="#DejaVuSans-68"/>
     <use x="354.972656" xlink:href="#DejaVuSans-61"/>
     <use x="416.251953" xlink:href="#DejaVuSans-69"/>
     <use x="444.035156" xlink:href="#DejaVuSans-72"/>
    </g>
   </g>
   <g id="text_6">
    <g id="patch_11">
     <path d="M 22.982668 49.866873 
L 28.523188 34.28643 
L 26.661756 33.624491 
L 21.121236 49.204934 
z
" style="fill:#ffffff;"/>
    </g>
    <!-- Backstage 14.5° -->
    <g style="fill:#008000;" transform="translate(22.578629 49.701967)rotate(-70.424239)scale(0.02 -0.02)">
     <defs>
      <path d="M 1259 2228 
L 1259 519 
L 2272 519 
Q 2781 519 3026 730 
Q 3272 941 3272 1375 
Q 3272 1813 3026 2020 
Q 2781 2228 2272 2228 
L 1259 2228 
z
M 1259 4147 
L 1259 2741 
L 2194 2741 
Q 2656 2741 2882 2914 
Q 3109 3088 3109 3444 
Q 3109 3797 2882 3972 
Q 2656 4147 2194 4147 
L 1259 4147 
z
M 628 4666 
L 2241 4666 
Q 2963 4666 3353 4366 
Q 3744 4066 3744 3513 
Q 3744 3084 3544 2831 
Q 3344 2578 2956 2516 
Q 3422 2416 3680 2098 
Q 3938 1781 3938 1306 
Q 3938 681 3513 340 
Q 3088 0 2303 0 
L 628 0 
L 628 4666 
z
" id="DejaVuSans-42" transform="scale(0.015625)"/>
      <path d="M 3122 3366 
L 3122 2828 
Q 2878 2963 2633 3030 
Q 2388 3097 2138 3097 
Q 1578 3097 1268 2742 
Q 959 2388 959 1747 
Q 959 1106 1268 751 
Q 1578 397 2138 397 
Q 2388 397 2633 464 
Q 2878 531 3122 666 
L 3122 134 
Q 2881 22 2623 -34 
Q 2366 -91 2075 -91 
Q 1284 -91 818 406 
Q 353 903 353 1747 
Q 353 2603 823 3093 
Q 1294 3584 2113 3584 
Q 2378 3584 2631 3529 
Q 2884 3475 3122 3366 
z
" id="DejaVuSans-63" transform="scale(0.015625)"/>
      <path d="M 581 4863 
L 1159 4863 
L 1159 1991 
L 2875 3500 
L 3609 3500 
L 1753 1863 
L 3688 0 
L 2938 0 
L 1159 1709 
L 1159 0 
L 581 0 
L 581 4863 
z
" id="DejaVuSans-6b" transform="scale(0.015625)"/>
      <path d="M 2834 3397 
L 2834 2853 
Q 2591 2978 2328 3040 
Q 2066 3103 1784 3103 
Q 1356 3103 1142 2972 
Q 928 2841 928 2578 
Q 928 2378 1081 2264 
Q 1234 2150 1697 2047 
L 1894 2003 
Q 2506 1872 2764 1633 
Q 3022 1394 3022 966 
Q 3022 478 2636 193 
Q 2250 -91 1575 -91 
Q 1294 -91 989 -36 
Q 684 19 347 128 
L 347 722 
Q 666 556 975 473 
Q 1284 391 1588 391 
Q 1994 391 2212 530 
Q 2431 669 2431 922 
Q 2431 1156 2273 1281 
Q 2116 1406 1581 1522 
L 1381 1569 
Q 847 1681 609 1914 
Q 372 2147 372 2553 
Q 372 3047 722 3315 
Q 1072 3584 1716 3584 
Q 2034 3584 2315 3537 
Q 2597 3491 2834 3397 
z
" id="DejaVuSans-73" transform="scale(0.015625)"/>
      <path d="M 794 531 
L 1825 531 
L 1825 4091 
L 703 3866 
L 703 4441 
L 1819 4666 
L 2450 4666 
L 2450 531 
L 3481 531 
L 3481 0 
L 794 0 
L 794 531 
z
" id="DejaVuSans-31" transform="scale(0.015625)"/>
      <path d="M 2419 4116 
L 825 1625 
L 2419 1625 
L 2419 4116 
z
M 2253 4666 
L 3047 4666 
L 3047 1625 
L 3713 1625 
L 3713 1100 
L 3047 1100 
L 3047 0 
L 2419 0 
L 2419 1100 
L 313 1100 
L 313 1709 
L 2253 4666 
z
" id="DejaVuSans-34" transform="scale(0.015625)"/>
      <path d="M 684 794 
L 1344 794 
L 1344 0 
L 684 0 
L 684 794 
z
" id="DejaVuSans-2e" transform="scale(0.015625)"/>
      <path d="M 691 4666 
L 3169 4666 
L 3169 4134 
L 1269 4134 
L 1269 2991 
Q 1406 3038 1543 3061 
Q 1681 3084 1819 3084 
Q 2600 3084 3056 2656 
Q 3513 2228 3513 1497 
Q 3513 744 3044 326 
Q 2575 -91 1722 -91 
Q 1428 -91 1123 -41 
Q 819 9 494 109 
L 494 744 
Q 775 591 1075 516 
Q 1375 441 1709 441 
Q 2250 441 2565 725 
Q 2881 1009 2881 1497 
Q 2881 1984 2565 2268 
Q 2250 2553 1709 2553 
Q 1456 2553 1204 2497 
Q 953 2441 691 2322 
L 691 4666 
z
" id="DejaVuSans-35" transform="scale(0.015625)"/>
      <path d="M 1600 4347 
Q 1350 4347 1178 4173 
Q 1006 4000 1006 3750 
Q 1006 3503 1178 3333 
Q 1350 3163 1600 3163 
Q 1850 3163 2022 3333 
Q 2194 3503 2194 3750 
Q 2194 3997 2020 4172 
Q 1847 4347 1600 4347 
z
M 1600 4750 
Q 1800 4750 1984 4673 
Q 2169 4597 2303 4453 
Q 2447 4313 2519 4134 
Q 2591 3956 2591 3750 
Q 2591 3338 2302 3052 
Q 2013 2766 1594 2766 
Q 1172 2766 890 3047 
Q 609 3328 609 3750 
Q 609 4169 896 4459 
Q 1184 4750 1600 4750 
z
" id="DejaVuSans-b0" transform="scale(0.015625)"/>
     </defs>
     <use xlink:href="#DejaVuSans-42"/>
     <use x="68.603516" xlink:href="#DejaVuSans-61"/>
     <use x="129.882812" xlink:href="#DejaVuSans-63"/>
     <use x="184.863281" xlink:href="#DejaVuSans-6b"/>
     <use x="242.773438" xlink:href="#DejaVuSans-73"/>
     <use x="294.873047" xlink:href="#DejaVuSans-74"/>
     <use x="334.082031" xlink:href="#DejaVuSans-61"/>
     <use x="395.361328" xlink:href="#DejaVuSans-67"/>
     <use x="458.837891" xlink:href="#DejaVuSans-65"/>
     <use x="520.361328" xlink:href="#DejaVuSans-20"/>
     <use x="552.148438" xlink:href="#DejaVuSans-31"/>
     <use x="615.771484" xlink:href="#DejaVuSans-34"/>
     <use x="679.394531" xlink:href="#DejaVuSans-2e"/>
     <use x="711.181641" xlink:href="#DejaVuSans-35"/>
     <use x="774.804688" xlink:href="#DejaVuSans-b0"/>
    </g>
   </g>
   <g id="text_7">
    <g id="patch_12">
     <path d="M 25.107999 56.77666 
L 37.794466 47.757127 
L 36.649709 46.146964 
L 23.963242 55.166497 
z
" style="fill:#ffffff;"/>
    </g>
    <!-- Tuff Enuff 21.3° -->
    <g style="fill:#4169e1;" transform="translate(24.871699 56.409776)rotate(-35.411191)scale(0.02 -0.02)">
     <defs>
      <path d="M -19 4666 
L 3928 4666 
L 3928 4134 
L 2272 4134 
L 2272 0 
L 1638 0 
L 1638 4134 
L -19 4134 
L -19 4666 
z
" id="DejaVuSans-54" transform="scale(0.015625)"/>
      <path d="M 544 1381 
L 544 3500 
L 1119 3500 
L 1119 1403 
Q 1119 906 1312 657 
Q 1506 409 1894 409 
Q 2359 409 2629 706 
Q 2900 1003 2900 1516 
L 2900 3500 
L 3475 3500 
L 3475 0 
L 2900 0 
L 2900 538 
Q 2691 219 2414 64 
Q 2138 -91 1772 -91 
Q 1169 -91 856 284 
Q 544 659 544 1381 
z
M 1991 3584 
L 1991 3584 
z
" id="DejaVuSans-75" transform="scale(0.015625)"/>
      <path d="M 2375 4863 
L 2375 4384 
L 1825 4384 
Q 1516 4384 1395 4259 
Q 1275 4134 1275 3809 
L 1275 3500 
L 2222 3500 
L 2222 3053 
L 1275 3053 
L 1275 0 
L 697 0 
L 697 3053 
L 147 3053 
L 147 3500 
L 697 3500 
L 697 3744 
Q 697 4328 969 4595 
Q 1241 4863 1831 4863 
L 2375 4863 
z
" id="DejaVuSans-66" transform="scale(0.015625)"/>
      <path d="M 628 4666 
L 3578 4666 
L 3578 4134 
L 1259 4134 
L 1259 2753 
L 3481 2753 
L 3481 2222 
L 1259 2222 
L 1259 531 
L 3634 531 
L 3634 0 
L 628 0 
L 628 4666 
z
" id="DejaVuSans-45" transform="scale(0.015625)"/>
      <path d="M 1228 531 
L 3431 531 
L 3431 0 
L 469 0 
L 469 531 
Q 828 903 1448 1529 
Q 2069 2156 2228 2338 
Q 2531 2678 2651 2914 
Q 2772 3150 2772 3378 
Q 2772 3750 2511 3984 
Q 2250 4219 1831 4219 
Q 1534 4219 1204 4116 
Q 875 4013 500 3803 
L 500 4441 
Q 881 4594 1212 4672 
Q 1544 4750 1819 4750 
Q 2544 4750 2975 4387 
Q 3406 4025 3406 3419 
Q 3406 3131 3298 2873 
Q 3191 2616 2906 2266 
Q 2828 2175 2409 1742 
Q 1991 1309 1228 531 
z
" id="DejaVuSans-32" transform="scale(0.015625)"/>
      <path d="M 2597 2516 
Q 3050 2419 3304 2112 
Q 3559 1806 3559 1356 
Q 3559 666 3084 287 
Q 2609 -91 1734 -91 
Q 1441 -91 1130 -33 
Q 819 25 488 141 
L 488 750 
Q 750 597 1062 519 
Q 1375 441 1716 441 
Q 2309 441 2620 675 
Q 2931 909 2931 1356 
Q 2931 1769 2642 2001 
Q 2353 2234 1838 2234 
L 1294 2234 
L 1294 2753 
L 1863 2753 
Q 2328 2753 2575 2939 
Q 2822 3125 2822 3475 
Q 2822 3834 2567 4026 
Q 2313 4219 1838 4219 
Q 1578 4219 1281 4162 
Q 984 4106 628 3988 
L 628 4550 
Q 988 4650 1302 4700 
Q 1616 4750 1894 4750 
Q 2613 4750 3031 4423 
Q 3450 4097 3450 3541 
Q 3450 3153 3228 2886 
Q 3006 2619 2597 2516 
z
" id="DejaVuSans-33" transform="scale(0.015625)"/>
     </defs>
     <use xlink:href="#DejaVuSans-54"/>
     <use x="45.958984" xlink:href="#DejaVuSans-75"/>
     <use x="109.337891" xlink:href="#DejaVuSans-66"/>
     <use x="144.542969" xlink:href="#DejaVuSans-66"/>
     <use x="179.748047" xlink:href="#DejaVuSans-20"/>
     <use x="211.535156" xlink:href="#DejaVuSans-45"/>
     <use x="274.71875" xlink:href="#DejaVuSans-6e"/>
     <use x="338.097656" xlink:href="#DejaVuSans-75"/>
     <use x="401.476562" xlink:href="#DejaVuSans-66"/>
     <use x="436.681641" xlink:href="#DejaVuSans-66"/>
     <use x="471.886719" xlink:href="#DejaVuSans-20"/>
     <use x="503.673828" xlink:href="#DejaVuSans-32"/>
     <use x="567.296875" xlink:href="#DejaVuSans-31"/>
     <use x="630.919922" xlink:href="#DejaVuSans-2e"/>
     <use x="662.707031" xlink:href="#DejaVuSans-33"/>
     <use x="726.330078" xlink:href="#DejaVuSans-b0"/>
    </g>
   </g>
   <g id="text_8">
    <g id="patch_13">
     <path d="M 42.466956 57.042448 
L 44.873348 37.917621 
L 42.913179 37.670981 
L 40.506787 56.795808 
z
" style="fill:#ffffff;"/>
    </g>
    <!-- Center Stage 24.2° -->
    <g transform="translate(42.036926 56.968181)rotate(-82.828414)scale(0.02 -0.02)">
     <defs>
      <path d="M 3425 4513 
L 3425 3897 
Q 3066 4069 2747 4153 
Q 2428 4238 2131 4238 
Q 1616 4238 1336 4038 
Q 1056 3838 1056 3469 
Q 1056 3159 1242 3001 
Q 1428 2844 1947 2747 
L 2328 2669 
Q 3034 2534 3370 2195 
Q 3706 1856 3706 1288 
Q 3706 609 3251 259 
Q 2797 -91 1919 -91 
Q 1588 -91 1214 -16 
Q 841 59 441 206 
L 441 856 
Q 825 641 1194 531 
Q 1563 422 1919 422 
Q 2459 422 2753 634 
Q 3047 847 3047 1241 
Q 3047 1584 2836 1778 
Q 2625 1972 2144 2069 
L 1759 2144 
Q 1053 2284 737 2584 
Q 422 2884 422 3419 
Q 422 4038 858 4394 
Q 1294 4750 2059 4750 
Q 2388 4750 2728 4690 
Q 3069 4631 3425 4513 
z
" id="DejaVuSans-53" transform="scale(0.015625)"/>
     </defs>
     <use xlink:href="#DejaVuSans-43"/>
     <use x="69.824219" xlink:href="#DejaVuSans-65"/>
     <use x="131.347656" xlink:href="#DejaVuSans-6e"/>
     <use x="194.726562" xlink:href="#DejaVuSans-74"/>
     <use x="233.935547" xlink:href="#DejaVuSans-65"/>
     <use x="295.458984" xlink:href="#DejaVuSans-72"/>
     <use x="336.572266" xlink:href="#DejaVuSans-20"/>
     <use x="368.359375" xlink:href="#DejaVuSans-53"/>
     <use x="431.835938" xlink:href="#DejaVuSans-74"/>
     <use x="471.044922" xlink:href="#DejaVuSans-61"/>
     <use x="532.324219" xlink:href="#DejaVuSans-67"/>
     <use x="595.800781" xlink:href="#DejaVuSans-65"/>
     <use x="657.324219" xlink:href="#DejaVuSans-20"/>
     <use x="689.111328" xlink:href="#DejaVuSans-32"/>
     <use x="752.734375" xlink:href="#DejaVuSans-34"/>
     <use x="816.357422" xlink:href="#DejaVuSans-2e"/>
     <use x="848.144531" xlink:href="#DejaVuSans-32"/>
     <use x="911.767578" xlink:href="#DejaVuSans-b0"/>
    </g>
   </g>
   <g id="text_9">
    <g id="patch_14">
     <path d="M 49.043501 47.122537 
L 60.362525 58.893638 
L 61.786581 57.524273 
L 50.467557 45.753173 
z
" style="fill:#ffffff;"/>
    </g>
    <!-- Deception 23.3° -->
    <g style="fill:#4169e1;" transform="translate(49.371593 46.834792)rotate(-313.87836)scale(0.02 -0.02)">
     <defs>
      <path d="M 1259 4147 
L 1259 519 
L 2022 519 
Q 2988 519 3436 956 
Q 3884 1394 3884 2338 
Q 3884 3275 3436 3711 
Q 2988 4147 2022 4147 
L 1259 4147 
z
M 628 4666 
L 1925 4666 
Q 3281 4666 3915 4102 
Q 4550 3538 4550 2338 
Q 4550 1131 3912 565 
Q 3275 0 1925 0 
L 628 0 
L 628 4666 
z
" id="DejaVuSans-44" transform="scale(0.015625)"/>
      <path d="M 1159 525 
L 1159 -1331 
L 581 -1331 
L 581 3500 
L 1159 3500 
L 1159 2969 
Q 1341 3281 1617 3432 
Q 1894 3584 2278 3584 
Q 2916 3584 3314 3078 
Q 3713 2572 3713 1747 
Q 3713 922 3314 415 
Q 2916 -91 2278 -91 
Q 1894 -91 1617 61 
Q 1341 213 1159 525 
z
M 3116 1747 
Q 3116 2381 2855 2742 
Q 2594 3103 2138 3103 
Q 1681 3103 1420 2742 
Q 1159 2381 1159 1747 
Q 1159 1113 1420 752 
Q 1681 391 2138 391 
Q 2594 391 2855 752 
Q 3116 1113 3116 1747 
z
" id="DejaVuSans-70" transform="scale(0.015625)"/>
      <path d="M 1959 3097 
Q 1497 3097 1228 2736 
Q 959 2375 959 1747 
Q 959 1119 1226 758 
Q 1494 397 1959 397 
Q 2419 397 2687 759 
Q 2956 1122 2956 1747 
Q 2956 2369 2687 2733 
Q 2419 3097 1959 3097 
z
M 1959 3584 
Q 2709 3584 3137 3096 
Q 3566 2609 3566 1747 
Q 3566 888 3137 398 
Q 2709 -91 1959 -91 
Q 1206 -91 779 398 
Q 353 888 353 1747 
Q 353 2609 779 3096 
Q 1206 3584 1959 3584 
z
" id="DejaVuSans-6f" transform="scale(0.015625)"/>
     </defs>
     <use xlink:href="#DejaVuSans-44"/>
     <use x="77.001953" xlink:href="#DejaVuSans-65"/>
     <use x="138.525391" xlink:href="#DejaVuSans-63"/>
     <use x="193.505859" xlink:href="#DejaVuSans-65"/>
     <use x="255.029297" xlink:href="#DejaVuSans-70"/>
     <use x="318.505859" xlink:href="#DejaVuSans-74"/>
     <use x="357.714844" xlink:href="#DejaVuSans-69"/>
     <use x="385.498047" xlink:href="#DejaVuSans-6f"/>
     <use x="446.679688" xlink:href="#DejaVuSans-6e"/>
     <use x="510.058594" xlink:href="#DejaVuSans-20"/>
     <use x="541.845703" xlink:href="#DejaVuSans-32"/>
     <use x="605.46875" xlink:href="#DejaVuSans-33"/>
     <use x="669.091797" xlink:href="#DejaVuSans-2e"/>
     <use x="700.878906" xlink:href="#DejaVuSans-33"/>
     <use x="764.501953" xlink:href="#DejaVuSans-b0"/>
    </g>
   </g>
   <g id="text_10">
    <g id="patch_15">
     <path d="M 59.273098 39.987553 
L 68.372653 63.76021 
L 70.217729 63.053962 
L 61.118175 39.281305 
z
" style="fill:#ffffff;"/>
    </g>
    <!-- Clyde’s Super Slide 12.9° -->
    <g style="fill:#008000;" transform="translate(59.687378 39.850392)rotate(-290.945546)scale(0.02 -0.02)">
     <defs>
      <path d="M 603 4863 
L 1178 4863 
L 1178 0 
L 603 0 
L 603 4863 
z
" id="DejaVuSans-6c" transform="scale(0.015625)"/>
      <path d="M 2059 -325 
Q 1816 -950 1584 -1140 
Q 1353 -1331 966 -1331 
L 506 -1331 
L 506 -850 
L 844 -850 
Q 1081 -850 1212 -737 
Q 1344 -625 1503 -206 
L 1606 56 
L 191 3500 
L 800 3500 
L 1894 763 
L 2988 3500 
L 3597 3500 
L 2059 -325 
z
" id="DejaVuSans-79" transform="scale(0.015625)"/>
      <path d="M 813 4666 
L 1472 4666 
L 1472 4191 
L 959 3194 
L 556 3194 
L 813 4191 
L 813 4666 
z
" id="DejaVuSans-2019" transform="scale(0.015625)"/>
      <path d="M 703 97 
L 703 672 
Q 941 559 1184 500 
Q 1428 441 1663 441 
Q 2288 441 2617 861 
Q 2947 1281 2994 2138 
Q 2813 1869 2534 1725 
Q 2256 1581 1919 1581 
Q 1219 1581 811 2004 
Q 403 2428 403 3163 
Q 403 3881 828 4315 
Q 1253 4750 1959 4750 
Q 2769 4750 3195 4129 
Q 3622 3509 3622 2328 
Q 3622 1225 3098 567 
Q 2575 -91 1691 -91 
Q 1453 -91 1209 -44 
Q 966 3 703 97 
z
M 1959 2075 
Q 2384 2075 2632 2365 
Q 2881 2656 2881 3163 
Q 2881 3666 2632 3958 
Q 2384 4250 1959 4250 
Q 1534 4250 1286 3958 
Q 1038 3666 1038 3163 
Q 1038 2656 1286 2365 
Q 1534 2075 1959 2075 
z
" id="DejaVuSans-39" transform="scale(0.015625)"/>
     </defs>
     <use xlink:href="#DejaVuSans-43"/>
     <use x="69.824219" xlink:href="#DejaVuSans-6c"/>
     <use x="97.607422" xlink:href="#DejaVuSans-79"/>
     <use x="156.787109" xlink:href="#DejaVuSans-64"/>
     <use x="220.263672" xlink:href="#DejaVuSans-65"/>
     <use x="281.787109" xlink:href="#DejaVuSans-2019"/>
     <use x="313.574219" xlink:href="#DejaVuSans-73"/>
     <use x="365.673828" xlink:href="#DejaVuSans-20"/>
     <use x="397.460938" xlink:href="#DejaVuSans-53"/>
     <use x="460.9375" xlink:href="#DejaVuSans-75"/>
     <use x="524.316406" xlink:href="#DejaVuSans-70"/>
     <use x="587.792969" xlink:href="#DejaVuSans-65"/>
     <use x="649.316406" xlink:href="#DejaVuSans-72"/>
     <use x="690.429688" xlink:href="#DejaVuSans-20"/>
     <use x="722.216797" xlink:href="#DejaVuSans-53"/>
     <use x="785.693359" xlink:href="#DejaVuSans-6c"/>
     <use x="813.476562" xlink:href="#DejaVuSans-69"/>
     <use x="841.259766" xlink:href="#DejaVuSans-64"/>
     <use x="904.736328" xlink:href="#DejaVuSans-65"/>
     <use x="966.259766" xlink:href="#DejaVuSans-20"/>
     <use x="998.046875" xlink:href="#DejaVuSans-31"/>
     <use x="1061.669922" xlink:href="#DejaVuSans-32"/>
     <use x="1125.292969" xlink:href="#DejaVuSans-2e"/>
     <use x="1157.080078" xlink:href="#DejaVuSans-39"/>
     <use x="1220.703125" xlink:href="#DejaVuSans-b0"/>
    </g>
   </g>
   <g id="text_11">
    <g id="patch_16">
     <path d="M 77.865352 33.893723 
L 94.911479 40.98144 
L 95.669982 39.157223 
L 78.623854 32.069506 
z
" style="fill:#ffffff;"/>
    </g>
    <!-- The Far Side 11.6° -->
    <g style="fill:#008000;" transform="translate(78.051189 33.498873)rotate(-337.422637)scale(0.02 -0.02)">
     <defs>
      <path d="M 628 4666 
L 3309 4666 
L 3309 4134 
L 1259 4134 
L 1259 2759 
L 3109 2759 
L 3109 2228 
L 1259 2228 
L 1259 0 
L 628 0 
L 628 4666 
z
" id="DejaVuSans-46" transform="scale(0.015625)"/>
      <path d="M 2113 2584 
Q 1688 2584 1439 2293 
Q 1191 2003 1191 1497 
Q 1191 994 1439 701 
Q 1688 409 2113 409 
Q 2538 409 2786 701 
Q 3034 994 3034 1497 
Q 3034 2003 2786 2293 
Q 2538 2584 2113 2584 
z
M 3366 4563 
L 3366 3988 
Q 3128 4100 2886 4159 
Q 2644 4219 2406 4219 
Q 1781 4219 1451 3797 
Q 1122 3375 1075 2522 
Q 1259 2794 1537 2939 
Q 1816 3084 2150 3084 
Q 2853 3084 3261 2657 
Q 3669 2231 3669 1497 
Q 3669 778 3244 343 
Q 2819 -91 2113 -91 
Q 1303 -91 875 529 
Q 447 1150 447 2328 
Q 447 3434 972 4092 
Q 1497 4750 2381 4750 
Q 2619 4750 2861 4703 
Q 3103 4656 3366 4563 
z
" id="DejaVuSans-36" transform="scale(0.015625)"/>
     </defs>
     <use xlink:href="#DejaVuSans-54"/>
     <use x="61.083984" xlink:href="#DejaVuSans-68"/>
     <use x="124.462891" xlink:href="#DejaVuSans-65"/>
     <use x="185.986328" xlink:href="#DejaVuSans-20"/>
     <use x="217.773438" xlink:href="#DejaVuSans-46"/>
     <use x="266.167969" xlink:href="#DejaVuSans-61"/>
     <use x="327.447266" xlink:href="#DejaVuSans-72"/>
     <use x="368.560547" xlink:href="#DejaVuSans-20"/>
     <use x="400.347656" xlink:href="#DejaVuSans-53"/>
     <use x="463.824219" xlink:href="#DejaVuSans-69"/>
     <use x="491.607422" xlink:href="#DejaVuSans-64"/>
     <use x="555.083984" xlink:href="#DejaVuSans-65"/>
     <use x="616.607422" xlink:href="#DejaVuSans-20"/>
     <use x="648.394531" xlink:href="#DejaVuSans-31"/>
     <use x="712.017578" xlink:href="#DejaVuSans-31"/>
     <use x="775.640625" xlink:href="#DejaVuSans-2e"/>
     <use x="807.427734" xlink:href="#DejaVuSans-36"/>
     <use x="871.050781" xlink:href="#DejaVuSans-b0"/>
    </g>
   </g>
   <g id="text_12">
    <g id="patch_17">
     <path d="M 84.070944 45.560687 
L 95.300536 51.569044 
L 96.232565 49.827086 
L 85.002973 43.818729 
z
" style="fill:#ffffff;"/>
    </g>
    <!-- Runway 9.2° -->
    <g style="fill:#008000;" transform="translate(84.294238 45.185745)rotate(-331.851137)scale(0.02 -0.02)">
     <defs>
      <path d="M 269 3500 
L 844 3500 
L 1563 769 
L 2278 3500 
L 2956 3500 
L 3675 769 
L 4391 3500 
L 4966 3500 
L 4050 0 
L 3372 0 
L 2619 2869 
L 1863 0 
L 1184 0 
L 269 3500 
z
" id="DejaVuSans-77" transform="scale(0.015625)"/>
     </defs>
     <use xlink:href="#DejaVuSans-52"/>
     <use x="64.982422" xlink:href="#DejaVuSans-75"/>
     <use x="128.361328" xlink:href="#DejaVuSans-6e"/>
     <use x="191.740234" xlink:href="#DejaVuSans-77"/>
     <use x="273.527344" xlink:href="#DejaVuSans-61"/>
     <use x="334.806641" xlink:href="#DejaVuSans-79"/>
     <use x="393.986328" xlink:href="#DejaVuSans-20"/>
     <use x="425.773438" xlink:href="#DejaVuSans-39"/>
     <use x="489.396484" xlink:href="#DejaVuSans-2e"/>
     <use x="521.183594" xlink:href="#DejaVuSans-32"/>
     <use x="584.806641" xlink:href="#DejaVuSans-b0"/>
    </g>
   </g>
   <g id="text_13">
    <g id="patch_18">
     <path d="M 45.47343 87.290938 
L 46.644271 60.532479 
L 44.670535 60.446116 
L 43.499693 87.204575 
z
" style="fill:#ffffff;"/>
    </g>
    <!-- Audition Terrain Park 16.0° -->
    <g style="fill:#008000;" transform="translate(45.038783 87.2519)rotate(-87.494568)scale(0.02 -0.02)">
     <defs>
      <path d="M 2188 4044 
L 1331 1722 
L 3047 1722 
L 2188 4044 
z
M 1831 4666 
L 2547 4666 
L 4325 0 
L 3669 0 
L 3244 1197 
L 1141 1197 
L 716 0 
L 50 0 
L 1831 4666 
z
" id="DejaVuSans-41" transform="scale(0.015625)"/>
      <path d="M 1259 4147 
L 1259 2394 
L 2053 2394 
Q 2494 2394 2734 2622 
Q 2975 2850 2975 3272 
Q 2975 3691 2734 3919 
Q 2494 4147 2053 4147 
L 1259 4147 
z
M 628 4666 
L 2053 4666 
Q 2838 4666 3239 4311 
Q 3641 3956 3641 3272 
Q 3641 2581 3239 2228 
Q 2838 1875 2053 1875 
L 1259 1875 
L 1259 0 
L 628 0 
L 628 4666 
z
" id="DejaVuSans-50" transform="scale(0.015625)"/>
      <path d="M 2034 4250 
Q 1547 4250 1301 3770 
Q 1056 3291 1056 2328 
Q 1056 1369 1301 889 
Q 1547 409 2034 409 
Q 2525 409 2770 889 
Q 3016 1369 3016 2328 
Q 3016 3291 2770 3770 
Q 2525 4250 2034 4250 
z
M 2034 4750 
Q 2819 4750 3233 4129 
Q 3647 3509 3647 2328 
Q 3647 1150 3233 529 
Q 2819 -91 2034 -91 
Q 1250 -91 836 529 
Q 422 1150 422 2328 
Q 422 3509 836 4129 
Q 1250 4750 2034 4750 
z
" id="DejaVuSans-30" transform="scale(0.015625)"/>
     </defs>
     <use xlink:href="#DejaVuSans-41"/>
     <use x="68.408203" xlink:href="#DejaVuSans-75"/>
     <use x="131.787109" xlink:href="#DejaVuSans-64"/>
     <use x="195.263672" xlink:href="#DejaVuSans-69"/>
     <use x="223.046875" xlink:href="#DejaVuSans-74"/>
     <use x="262.255859" xlink:href="#DejaVuSans-69"/>
     <use x="290.039062" xlink:href="#DejaVuSans-6f"/>
     <use x="351.220703" xlink:href="#DejaVuSans-6e"/>
     <use x="414.599609" xlink:href="#DejaVuSans-20"/>
     <use x="446.386719" xlink:href="#DejaVuSans-54"/>
     <use x="490.470703" xlink:href="#DejaVuSans-65"/>
     <use x="551.994141" xlink:href="#DejaVuSans-72"/>
     <use x="591.357422" xlink:href="#DejaVuSans-72"/>
     <use x="632.470703" xlink:href="#DejaVuSans-61"/>
     <use x="693.75" xlink:href="#DejaVuSans-69"/>
     <use x="721.533203" xlink:href="#DejaVuSans-6e"/>
     <use x="784.912109" xlink:href="#DejaVuSans-20"/>
     <use x="816.699219" xlink:href="#DejaVuSans-50"/>
     <use x="872.501953" xlink:href="#DejaVuSans-61"/>
     <use x="933.78125" xlink:href="#DejaVuSans-72"/>
     <use x="974.894531" xlink:href="#DejaVuSans-6b"/>
     <use x="1032.804688" xlink:href="#DejaVuSans-20"/>
     <use x="1064.591797" xlink:href="#DejaVuSans-31"/>
     <use x="1128.214844" xlink:href="#DejaVuSans-36"/>
     <use x="1191.837891" xlink:href="#DejaVuSans-2e"/>
     <use x="1223.625" xlink:href="#DejaVuSans-30"/>
     <use x="1287.248047" xlink:href="#DejaVuSans-b0"/>
    </g>
   </g>
   <g id="text_14">
    <g id="patch_19">
     <path d="M 99.230675 80.70949 
L 105.620374 63.430594 
L 103.767389 62.745364 
L 97.37769 80.02426 
z
" style="fill:#ffffff;"/>
    </g>
    <!-- Intermission 21.8° -->
    <g style="fill:#4169e1;" transform="translate(98.828736 80.53953)rotate(-69.705714)scale(0.02 -0.02)">
     <defs>
      <path d="M 628 4666 
L 1259 4666 
L 1259 0 
L 628 0 
L 628 4666 
z
" id="DejaVuSans-49" transform="scale(0.015625)"/>
      <path d="M 3328 2828 
Q 3544 3216 3844 3400 
Q 4144 3584 4550 3584 
Q 5097 3584 5394 3201 
Q 5691 2819 5691 2113 
L 5691 0 
L 5113 0 
L 5113 2094 
Q 5113 2597 4934 2840 
Q 4756 3084 4391 3084 
Q 3944 3084 3684 2787 
Q 3425 2491 3425 1978 
L 3425 0 
L 2847 0 
L 2847 2094 
Q 2847 2600 2669 2842 
Q 2491 3084 2119 3084 
Q 1678 3084 1418 2786 
Q 1159 2488 1159 1978 
L 1159 0 
L 581 0 
L 581 3500 
L 1159 3500 
L 1159 2956 
Q 1356 3278 1631 3431 
Q 1906 3584 2284 3584 
Q 2666 3584 2933 3390 
Q 3200 3197 3328 2828 
z
" id="DejaVuSans-6d" transform="scale(0.015625)"/>
      <path d="M 2034 2216 
Q 1584 2216 1326 1975 
Q 1069 1734 1069 1313 
Q 1069 891 1326 650 
Q 1584 409 2034 409 
Q 2484 409 2743 651 
Q 3003 894 3003 1313 
Q 3003 1734 2745 1975 
Q 2488 2216 2034 2216 
z
M 1403 2484 
Q 997 2584 770 2862 
Q 544 3141 544 3541 
Q 544 4100 942 4425 
Q 1341 4750 2034 4750 
Q 2731 4750 3128 4425 
Q 3525 4100 3525 3541 
Q 3525 3141 3298 2862 
Q 3072 2584 2669 2484 
Q 3125 2378 3379 2068 
Q 3634 1759 3634 1313 
Q 3634 634 3220 271 
Q 2806 -91 2034 -91 
Q 1263 -91 848 271 
Q 434 634 434 1313 
Q 434 1759 690 2068 
Q 947 2378 1403 2484 
z
M 1172 3481 
Q 1172 3119 1398 2916 
Q 1625 2713 2034 2713 
Q 2441 2713 2670 2916 
Q 2900 3119 2900 3481 
Q 2900 3844 2670 4047 
Q 2441 4250 2034 4250 
Q 1625 4250 1398 4047 
Q 1172 3844 1172 3481 
z
" id="DejaVuSans-38" transform="scale(0.015625)"/>
     </defs>
     <use xlink:href="#DejaVuSans-49"/>
     <use x="29.492188" xlink:href="#DejaVuSans-6e"/>
     <use x="92.871094" xlink:href="#DejaVuSans-74"/>
     <use x="132.080078" xlink:href="#DejaVuSans-65"/>
     <use x="193.603516" xlink:href="#DejaVuSans-72"/>
     <use x="232.966797" xlink:href="#DejaVuSans-6d"/>
     <use x="330.378906" xlink:href="#DejaVuSans-69"/>
     <use x="358.162109" xlink:href="#DejaVuSans-73"/>
     <use x="410.261719" xlink:href="#DejaVuSans-73"/>
     <use x="462.361328" xlink:href="#DejaVuSans-69"/>
     <use x="490.144531" xlink:href="#DejaVuSans-6f"/>
     <use x="551.326172" xlink:href="#DejaVuSans-6e"/>
     <use x="614.705078" xlink:href="#DejaVuSans-20"/>
     <use x="646.492188" xlink:href="#DejaVuSans-32"/>
     <use x="710.115234" xlink:href="#DejaVuSans-31"/>
     <use x="773.738281" xlink:href="#DejaVuSans-2e"/>
     <use x="805.525391" xlink:href="#DejaVuSans-38"/>
     <use x="869.148438" xlink:href="#DejaVuSans-b0"/>
    </g>
   </g>
   <g id="text_15">
    <g id="patch_20">
     <path d="M 90.366791 80.833445 
L 93.179134 63.677111 
L 91.229529 63.357523 
L 88.417187 80.513857 
z
" style="fill:#ffffff;"/>
    </g>
    <!-- Prime Time 23.4° -->
    <g style="fill:#4169e1;" transform="translate(89.939831 80.743189)rotate(-80.690617)scale(0.02 -0.02)">
     <use xlink:href="#DejaVuSans-50"/>
     <use x="58.552734" xlink:href="#DejaVuSans-72"/>
     <use x="99.666016" xlink:href="#DejaVuSans-69"/>
     <use x="127.449219" xlink:href="#DejaVuSans-6d"/>
     <use x="224.861328" xlink:href="#DejaVuSans-65"/>
     <use x="286.384766" xlink:href="#DejaVuSans-20"/>
     <use x="318.171875" xlink:href="#DejaVuSans-54"/>
     <use x="376.130859" xlink:href="#DejaVuSans-69"/>
     <use x="403.914062" xlink:href="#DejaVuSans-6d"/>
     <use x="501.326172" xlink:href="#DejaVuSans-65"/>
     <use x="562.849609" xlink:href="#DejaVuSans-20"/>
     <use x="594.636719" xlink:href="#DejaVuSans-32"/>
     <use x="658.259766" xlink:href="#DejaVuSans-33"/>
     <use x="721.882812" xlink:href="#DejaVuSans-2e"/>
     <use x="753.669922" xlink:href="#DejaVuSans-34"/>
     <use x="817.292969" xlink:href="#DejaVuSans-b0"/>
    </g>
   </g>
   <g id="text_16">
    <g id="patch_21">
     <path d="M 10.199243 65.191065 
L 31.231938 97.916549 
L 32.893909 96.848398 
L 11.861214 64.122915 
z
" style="fill:#ffffff;"/>
    </g>
    <!-- Jam Session Beginner Terrain Park 8.7° -->
    <g style="fill:#008000;" transform="translate(10.576783 64.972194)rotate(-302.728888)scale(0.02 -0.02)">
     <defs>
      <path d="M 628 4666 
L 1259 4666 
L 1259 325 
Q 1259 -519 939 -900 
Q 619 -1281 -91 -1281 
L -331 -1281 
L -331 -750 
L -134 -750 
Q 284 -750 456 -515 
Q 628 -281 628 325 
L 628 4666 
z
" id="DejaVuSans-4a" transform="scale(0.015625)"/>
      <path d="M 525 4666 
L 3525 4666 
L 3525 4397 
L 1831 0 
L 1172 0 
L 2766 4134 
L 525 4134 
L 525 4666 
z
" id="DejaVuSans-37" transform="scale(0.015625)"/>
     </defs>
     <use xlink:href="#DejaVuSans-4a"/>
     <use x="29.492188" xlink:href="#DejaVuSans-61"/>
     <use x="90.771484" xlink:href="#DejaVuSans-6d"/>
     <use x="188.183594" xlink:href="#DejaVuSans-20"/>
     <use x="219.970703" xlink:href="#DejaVuSans-53"/>
     <use x="283.447266" xlink:href="#DejaVuSans-65"/>
     <use x="344.970703" xlink:href="#DejaVuSans-73"/>
     <use x="397.070312" xlink:href="#DejaVuSans-73"/>
     <use x="449.169922" xlink:href="#DejaVuSans-69"/>
     <use x="476.953125" xlink:href="#DejaVuSans-6f"/>
     <use x="538.134766" xlink:href="#DejaVuSans-6e"/>
     <use x="601.513672" xlink:href="#DejaVuSans-20"/>
     <use x="633.300781" xlink:href="#DejaVuSans-42"/>
     <use x="701.904297" xlink:href="#DejaVuSans-65"/>
     <use x="763.427734" xlink:href="#DejaVuSans-67"/>
     <use x="826.904297" xlink:href="#DejaVuSans-69"/>
     <use x="854.6875" xlink:href="#DejaVuSans-6e"/>
     <use x="918.066406" xlink:href="#DejaVuSans-6e"/>
     <use x="981.445312" xlink:href="#DejaVuSans-65"/>
     <use x="1042.96875" xlink:href="#DejaVuSans-72"/>
     <use x="1084.082031" xlink:href="#DejaVuSans-20"/>
     <use x="1115.869141" xlink:href="#DejaVuSans-54"/>
     <use x="1159.953125" xlink:href="#DejaVuSans-65"/>
     <use x="1221.476562" xlink:href="#DejaVuSans-72"/>
     <use x="1260.839844" xlink:href="#DejaVuSans-72"/>
     <use x="1301.953125" xlink:href="#DejaVuSans-61"/>
     <use x="1363.232422" xlink:href="#DejaVuSans-69"/>
     <use x="1391.015625" xlink:href="#DejaVuSans-6e"/>
     <use x="1454.394531" xlink:href="#DejaVuSans-20"/>
     <use x="1486.181641" xlink:href="#DejaVuSans-50"/>
     <use x="1541.984375" xlink:href="#DejaVuSans-61"/>
     <use x="1603.263672" xlink:href="#DejaVuSans-72"/>
     <use x="1644.376953" xlink:href="#DejaVuSans-6b"/>
     <use x="1702.287109" xlink:href="#DejaVuSans-20"/>
     <use x="1734.074219" xlink:href="#DejaVuSans-38"/>
     <use x="1797.697266" xlink:href="#DejaVuSans-2e"/>
     <use x="1829.484375" xlink:href="#DejaVuSans-37"/>
     <use x="1893.107422" xlink:href="#DejaVuSans-b0"/>
    </g>
   </g>
   <g id="text_17">
    <!-- Perfect North Slopes -->
    <g transform="translate(21.993607 9.954748)scale(0.09 -0.09)">
     <defs>
      <path d="M 628 4666 
L 1478 4666 
L 3547 763 
L 3547 4666 
L 4159 4666 
L 4159 0 
L 3309 0 
L 1241 3903 
L 1241 0 
L 628 0 
L 628 4666 
z
" id="DejaVuSans-4e" transform="scale(0.015625)"/>
     </defs>
     <use xlink:href="#DejaVuSans-50"/>
     <use x="56.677734" xlink:href="#DejaVuSans-65"/>
     <use x="118.201172" xlink:href="#DejaVuSans-72"/>
     <use x="159.314453" xlink:href="#DejaVuSans-66"/>
     <use x="194.519531" xlink:href="#DejaVuSans-65"/>
     <use x="256.042969" xlink:href="#DejaVuSans-63"/>
     <use x="311.023438" xlink:href="#DejaVuSans-74"/>
     <use x="350.232422" xlink:href="#DejaVuSans-20"/>
     <use x="382.019531" xlink:href="#DejaVuSans-4e"/>
     <use x="456.824219" xlink:href="#DejaVuSans-6f"/>
     <use x="518.005859" xlink:href="#DejaVuSans-72"/>
     <use x="559.119141" xlink:href="#DejaVuSans-74"/>
     <use x="598.328125" xlink:href="#DejaVuSans-68"/>
     <use x="661.707031" xlink:href="#DejaVuSans-20"/>
     <use x="693.494141" xlink:href="#DejaVuSans-53"/>
     <use x="756.970703" xlink:href="#DejaVuSans-6c"/>
     <use x="784.753906" xlink:href="#DejaVuSans-6f"/>
     <use x="845.935547" xlink:href="#DejaVuSans-70"/>
     <use x="909.412109" xlink:href="#DejaVuSans-65"/>
     <use x="970.935547" xlink:href="#DejaVuSans-73"/>
    </g>
   </g>
   <g id="legend_1">
    <g id="line2d_38">
     <path d="M 5.028958 108.827562 
L 14.028958 108.827562 
" style="fill:none;stroke:#008000;stroke-linecap:square;stroke-width:1.5;"/>
    </g>
    <g id="line2d_39"/>
    <g id="text_18">
     <!-- Easy -->
     <g transform="translate(17.628958 110.402562)scale(0.045 -0.045)">
      <use xlink:href="#DejaVuSans-45"/>
      <use x="63.183594" xlink:href="#DejaVuSans-61"/>
      <use x="124.462891" xlink:href="#DejaVuSans-73"/>
      <use x="176.5625" xlink:href="#DejaVuSans-79"/>
     </g>
    </g>
    <g id="line2d_40">
     <path d="M 5.028958 115.432719 
L 14.028958 115.432719 
" style="fill:none;stroke:#4169e1;stroke-linecap:square;stroke-width:1.5;"/>
    </g>
    <g id="line2d_41"/>
    <g id="text_19">
     <!-- Intermediate -->
     <g transform="translate(17.628958 117.007719)scale(0.045 -0.045)">
      <use xlink:href="#DejaVuSans-49"/>
      <use x="29.492188" xlink:href="#DejaVuSans-6e"/>
      <use x="92.871094" xlink:href="#DejaVuSans-74"/>
      <use x="132.080078" xlink:href="#DejaVuSans-65"/>
      <use x="193.603516" xlink:href="#DejaVuSans-72"/>
      <use x="232.966797" xlink:href="#DejaVuSans-6d"/>
      <use x="330.378906" xlink:href="#DejaVuSans-65"/>
      <use x="391.902344" xlink:href="#DejaVuSans-64"/>
      <use x="455.378906" xlink:href="#DejaVuSans-69"/>
      <use x="483.162109" xlink:href="#DejaVuSans-61"/>
      <use x="544.441406" xlink:href="#DejaVuSans-74"/>
      <use x="583.650391" xlink:href="#DejaVuSans-65"/>
     </g>
    </g>
    <g id="line2d_42">
     <path d="M 55.662396 108.827562 
L 64.662396 108.827562 
" style="fill:none;stroke:#000000;stroke-linecap:square;stroke-width:1.5;"/>
    </g>
    <g id="line2d_43"/>
    <g id="text_20">
     <!-- Advanced -->
     <g transform="translate(68.262396 110.402562)scale(0.045 -0.045)">
      <defs>
       <path d="M 191 3500 
L 800 3500 
L 1894 563 
L 2988 3500 
L 3597 3500 
L 2284 0 
L 1503 0 
L 191 3500 
z
" id="DejaVuSans-76" transform="scale(0.015625)"/>
      </defs>
      <use xlink:href="#DejaVuSans-41"/>
      <use x="66.658203" xlink:href="#DejaVuSans-64"/>
      <use x="130.134766" xlink:href="#DejaVuSans-76"/>
      <use x="189.314453" xlink:href="#DejaVuSans-61"/>
      <use x="250.59375" xlink:href="#DejaVuSans-6e"/>
      <use x="313.972656" xlink:href="#DejaVuSans-63"/>
      <use x="368.953125" xlink:href="#DejaVuSans-65"/>
      <use x="430.476562" xlink:href="#DejaVuSans-64"/>
     </g>
    </g>
    <g id="line2d_44">
     <path d="M 55.662396 115.432719 
L 64.662396 115.432719 
" style="fill:none;stroke:#ff0000;stroke-linecap:square;stroke-width:1.5;"/>
    </g>
    <g id="line2d_45"/>
    <g id="text_21">
     <!-- Expert -->
     <g transform="translate(68.262396 117.007719)scale(0.045 -0.045)">
      <defs>
       <path d="M 3513 3500 
L 2247 1797 
L 3578 0 
L 2900 0 
L 1881 1375 
L 863 0 
L 184 0 
L 1544 1831 
L 300 3500 
L 978 3500 
L 1906 2253 
L 2834 3500 
L 3513 3500 
z
" id="DejaVuSans-78" transform="scale(0.015625)"/>
      </defs>
      <use xlink:href="#DejaVuSans-45"/>
      <use x="63.183594" xlink:href="#DejaVuSans-78"/>
      <use x="122.363281" xlink:href="#DejaVuSans-70"/>
      <use x="185.839844" xlink:href="#DejaVuSans-65"/>
      <use x="247.363281" xlink:href="#DejaVuSans-72"/>
      <use x="288.476562" xlink:href="#DejaVuSans-74"/>
     </g>
    </g>
    <g id="line2d_46">
     <path d="M 99.491693 108.827562 
L 108.491693 108.827562 
" style="fill:none;stroke:#ffd700;stroke-linecap:square;stroke-width:1.5;"/>
    </g>
    <g id="line2d_47"/>
    <g id="text_22">
     <!-- Extreme -->
     <g transform="translate(112.091693 110.402562)scale(0.045 -0.045)">
      <use xlink:href="#DejaVuSans-45"/>
      <use x="63.183594" xlink:href="#DejaVuSans-78"/>
      <use x="122.363281" xlink:href="#DejaVuSans-74"/>
      <use x="161.572266" xlink:href="#DejaVuSans-72"/>
      <use x="200.435547" xlink:href="#DejaVuSans-65"/>
      <use x="261.958984" xlink:href="#DejaVuSans-6d"/>
      <use x="359.371094" xlink:href="#DejaVuSans-65"/>
     </g>
    </g>
    <g id="line2d_48">
     <path d="M 99.491693 115.432719 
L 108.491693 115.432719 
" style="fill:none;stroke:#000000;stroke-dasharray:1.5,2.475;stroke-dashoffset:0;stroke-width:1.5;"/>
    </g>
    <g id="line2d_49"/>
    <g id="text_23">
     <!-- Gladed -->
     <g transform="translate(112.091693 117.007719)scale(0.045 -0.045)">
      <use xlink:href="#DejaVuSans-47"/>
      <use x="77.490234" xlink:href="#DejaVuSans-6c"/>
      <use x="105.273438" xlink:href="#DejaVuSans-61"/>
      <use x="166.552734" xlink:href="#DejaVuSans-64"/>
      <use x="230.029297" xlink:href="#DejaVuSans-65"/>
      <use x="291.552734" xlink:href="#DejaVuSans-64"/>
     </g>
    </g>
   </g>
  </g>
  <g id="text_24">
   <!-- Sources: USGS and OpenStreetMaps -->
   <g transform="translate(32.336117 124.514077)scale(0.03913 -0.03913)">
    <defs>
     <path d="M 750 794 
L 1409 794 
L 1409 0 
L 750 0 
L 750 794 
z
M 750 3309 
L 1409 3309 
L 1409 2516 
L 750 2516 
L 750 3309 
z
" id="DejaVuSans-3a" transform="scale(0.015625)"/>
     <path d="M 556 4666 
L 1191 4666 
L 1191 1831 
Q 1191 1081 1462 751 
Q 1734 422 2344 422 
Q 2950 422 3222 751 
Q 3494 1081 3494 1831 
L 3494 4666 
L 4128 4666 
L 4128 1753 
Q 4128 841 3676 375 
Q 3225 -91 2344 -91 
Q 1459 -91 1007 375 
Q 556 841 556 1753 
L 556 4666 
z
" id="DejaVuSans-55" transform="scale(0.015625)"/>
     <path d="M 628 4666 
L 1569 4666 
L 2759 1491 
L 3956 4666 
L 4897 4666 
L 4897 0 
L 4281 0 
L 4281 4097 
L 3078 897 
L 2444 897 
L 1241 4097 
L 1241 0 
L 628 0 
L 628 4666 
z
" id="DejaVuSans-4d" transform="scale(0.015625)"/>
    </defs>
    <use xlink:href="#DejaVuSans-53"/>
    <use x="63.476562" xlink:href="#DejaVuSans-6f"/>
    <use x="124.658203" xlink:href="#DejaVuSans-75"/>
    <use x="188.037109" xlink:href="#DejaVuSans-72"/>
    <use x="226.900391" xlink:href="#DejaVuSans-63"/>
    <use x="281.880859" xlink:href="#DejaVuSans-65"/>
    <use x="343.404297" xlink:href="#DejaVuSans-73"/>
    <use x="395.503906" xlink:href="#DejaVuSans-3a"/>
    <use x="429.195312" xlink:href="#DejaVuSans-20"/>
    <use x="460.982422" xlink:href="#DejaVuSans-55"/>
    <use x="534.175781" xlink:href="#DejaVuSans-53"/>
    <use x="597.652344" xlink:href="#DejaVuSans-47"/>
    <use x="675.142578" xlink:href="#DejaVuSans-53"/>
    <use x="738.619141" xlink:href="#DejaVuSans-20"/>
    <use x="770.40625" xlink:href="#DejaVuSans-61"/>
    <use x="831.685547" xlink:href="#DejaVuSans-6e"/>
    <use x="895.064453" xlink:href="#DejaVuSans-64"/>
    <use x="958.541016" xlink:href="#DejaVuSans-20"/>
    <use x="990.328125" xlink:href="#DejaVuSans-4f"/>
    <use x="1069.039062" xlink:href="#DejaVuSans-70"/>
    <use x="1132.515625" xlink:href="#DejaVuSans-65"/>
    <use x="1194.039062" xlink:href="#DejaVuSans-6e"/>
    <use x="1257.417969" xlink:href="#DejaVuSans-53"/>
    <use x="1320.894531" xlink:href="#DejaVuSans-74"/>
    <use x="1360.103516" xlink:href="#DejaVuSans-72"/>
    <use x="1398.966797" xlink:href="#DejaVuSans-65"/>
    <use x="1460.490234" xlink:href="#DejaVuSans-65"/>
    <use x="1522.013672" xlink:href="#DejaVuSans-74"/>
    <use x="1561.222656" xlink:href="#DejaVuSans-4d"/>
    <use x="1647.501953" xlink:href="#DejaVuSans-61"/>
    <use x="1708.78125" xlink:href="#DejaVuSans-70"/>
    <use x="1772.257812" xlink:href="#DejaVuSans-73"/>
   </g>
  </g>
 </g>
 <defs>
  <clipPath id="pa0d71b1d80">
   <rect height="96.418373" width="136.061433" x="0" y="14.454748"/>
  </clipPath>
 </defs>
</svg>
