<?xml version="1.0" encoding="utf-8" standalone="no"?>
<!DOCTYPE svg PUBLIC "-//W3C//DTD SVG 1.1//EN"
  "http://www.w3.org/Graphics/SVG/1.1/DTD/svg11.dtd">
<svg height="127.584547pt" version="1.1" viewBox="0 0 127.890156 127.584547" width="127.890156pt" xmlns="http://www.w3.org/2000/svg" xmlns:xlink="http://www.w3.org/1999/xlink">
 <metadata>
  <rdf:RDF xmlns:cc="http://creativecommons.org/ns#" xmlns:dc="http://purl.org/dc/elements/1.1/" xmlns:rdf="http://www.w3.org/1999/02/22-rdf-syntax-ns#">
   <cc:Work>
    <dc:type rdf:resource="http://purl.org/dc/dcmitype/StillImage"/>
    <dc:date>2022-04-14T21:32:11.728997</dc:date>
    <dc:format>image/svg+xml</dc:format>
    <dc:creator>
     <cc:Agent>
      <dc:title>Matplotlib v3.4.3, https://matplotlib.org/</dc:title>
     </cc:Agent>
    </dc:creator>
   </cc:Work>
  </rdf:RDF>
 </metadata>
 <defs>
  <style type="text/css">*{stroke-linecap:butt;stroke-linejoin:round;}</style>
 </defs>
 <g id="figure_1">
  <g id="patch_1">
   <path d="M 0 127.584547 
L 127.890156 127.584547 
L 127.890156 0 
L 0 0 
z
" style="fill:#ffffff;"/>
  </g>
  <g id="axes_1">
   <g id="line2d_1">
    <path clip-path="url(#p0307504acd)" d="M 59.466971 18.762352 
" style="fill:none;stroke:#008000;stroke-linecap:square;stroke-width:1.5;"/>
   </g>
   <g id="line2d_2">
    <path clip-path="url(#p0307504acd)" d="M 59.466971 18.762352 
" style="fill:none;stroke:#4169e1;stroke-linecap:square;stroke-width:1.5;"/>
   </g>
   <g id="line2d_3">
    <path clip-path="url(#p0307504acd)" d="M 59.466971 18.762352 
" style="fill:none;stroke:#000000;stroke-linecap:square;stroke-width:1.5;"/>
   </g>
   <g id="line2d_4">
    <path clip-path="url(#p0307504acd)" d="M 59.466971 18.762352 
" style="fill:none;stroke:#ff0000;stroke-linecap:square;stroke-width:1.5;"/>
   </g>
   <g id="line2d_5">
    <path clip-path="url(#p0307504acd)" d="M 59.466971 18.762352 
" style="fill:none;stroke:#ffd700;stroke-linecap:square;stroke-width:1.5;"/>
   </g>
   <g id="line2d_6">
    <path clip-path="url(#p0307504acd)" d="M 59.466971 18.762352 
" style="fill:none;stroke:#000000;stroke-dasharray:1.5,2.475;stroke-dashoffset:0;stroke-width:1.5;"/>
   </g>
   <g id="line2d_7">
    <path clip-path="url(#p0307504acd)" d="M 106.21654 107.32293 
L 106.758767 101.098061 
L 107.18353 96.213703 
L 107.608294 91.329345 
L 108.040851 86.36383 
L 108.473408 81.398316 
L 108.928233 76.171533 
L 109.383058 70.94475 
L 109.745471 66.778701 
L 110.107884 62.612652 
L 110.291595 60.506847 
" style="fill:none;stroke:#808080;stroke-linecap:square;stroke-width:1.5;"/>
   </g>
   <g id="line2d_8">
    <path clip-path="url(#p0307504acd)" d="M 19.267552 85.328013 
L 21.804998 82.551596 
L 24.342443 79.77518 
L 28.415272 75.317251 
L 32.244265 71.126997 
L 34.5607 68.591915 
L 36.877135 66.056833 
L 39.852148 62.801306 
L 42.827161 59.54578 
L 45.957494 56.119396 
L 49.087827 52.693013 
L 52.847789 48.578221 
L 56.607751 44.463429 
L 59.71526 41.063386 
" style="fill:none;stroke:#808080;stroke-linecap:square;stroke-width:1.5;"/>
   </g>
   <g id="line2d_9">
    <path clip-path="url(#p0307504acd)" d="M 7.603541 74.287841 
L 11.10074 70.537543 
L 13.628722 67.826621 
L 16.156704 65.115699 
L 18.914603 62.157747 
L 21.672503 59.199795 
L 24.987104 55.64527 
L 28.301705 52.090744 
L 31.556739 48.599578 
L 34.811773 45.108412 
L 38.033404 41.653553 
L 41.255036 38.198694 
L 44.147657 35.096938 
L 47.040279 31.995182 
L 51.169891 27.566441 
L 55.299503 23.137701 
L 58.570681 19.629449 
" style="fill:none;stroke:#808080;stroke-linecap:square;stroke-width:1.5;"/>
   </g>
   <g id="line2d_10">
    <path clip-path="url(#p0307504acd)" d="M 70.963971 109.528401 
L 71.051373 105.81085 
L 71.138775 102.093299 
L 71.251786 97.270877 
L 71.364796 92.448454 
L 71.481147 87.477245 
L 71.597497 82.506035 
L 71.719972 77.292778 
L 71.842446 72.079522 
L 71.940982 67.884285 
L 72.039518 63.689048 
L 72.174797 57.92122 
L 72.310075 52.153392 
L 72.452591 46.083718 
L 72.595107 40.014043 
L 72.719808 34.703256 
L 72.782158 32.026506 
" style="fill:none;stroke:#808080;stroke-linecap:square;stroke-width:1.5;"/>
   </g>
   <g id="line2d_11">
    <path clip-path="url(#p0307504acd)" d="M 88.049141 99.406582 
L 89.073472 93.739844 
L 89.921329 89.0477 
L 90.769185 84.355555 
L 91.385732 80.944478 
L 92.002279 77.533401 
L 92.618826 74.122324 
L 93.235373 70.711247 
L 94.253024 65.081528 
L 95.270674 59.451809 
L 95.682633 57.170875 
" style="fill:none;stroke:#808080;stroke-linecap:square;stroke-width:1.5;"/>
   </g>
   <g id="line2d_12">
    <path clip-path="url(#p0307504acd)" d="M 19.747429 94.727964 
L 25.824104 94.462069 
L 31.90078 94.196173 
L 37.977456 93.930278 
L 44.054132 93.664383 
" style="fill:none;stroke:#808080;stroke-linecap:square;stroke-width:1.5;"/>
   </g>
   <g id="line2d_13">
    <path clip-path="url(#p0307504acd)" d="M 74.925459 100.084313 
L 75.547852 96.476039 
L 76.170244 92.867765 
L 76.792636 89.259491 
L 77.415029 85.651217 
" style="fill:none;stroke:#808080;stroke-linecap:square;stroke-width:1.5;"/>
   </g>
   <g id="line2d_14">
    <path clip-path="url(#p0307504acd)" d="M 89.183699 99.818061 
L 89.771576 94.151323 
" style="fill:none;stroke:#808080;stroke-linecap:square;stroke-width:1.5;"/>
   </g>
   <g id="line2d_15">
    <path clip-path="url(#p0307504acd)" d="M 101.857567 108.229892 
L 101.291958 104.644043 
L 100.726349 101.058194 
" style="fill:none;stroke:#808080;stroke-linecap:square;stroke-width:1.5;"/>
   </g>
   <g id="line2d_16">
    <path clip-path="url(#p0307504acd)" d="M 59.466971 18.762352 
L 59.736971 19.825222 
L 60.006971 20.888091 
L 60.42227 22.123952 
L 60.696168 22.939792 
L 61.385364 24.493161 
L 62.64351 25.343172 
L 63.228046 26.324885 
L 63.812583 27.306597 
L 65.071842 28.508287 
L 65.850667 29.284972 
L 66.629493 30.061657 
L 68.181577 31.088219 
" style="fill:none;stroke:#008000;stroke-linecap:square;stroke-width:1.5;"/>
   </g>
   <g id="line2d_17">
    <path clip-path="url(#p0307504acd)" d="M 73.989087 30.436117 
L 75.027336 30.829799 
L 76.065584 31.223481 
L 77.421709 32.208041 
L 78.777834 33.192601 
L 80.102227 34.343034 
L 81.42662 35.493467 
L 81.783744 36.637493 
L 82.140868 37.781519 
L 82.497992 38.925546 
L 82.855116 40.069572 
L 83.049962 41.505833 
L 83.244807 42.942095 
L 83.439653 44.378357 
L 83.634498 45.814619 
L 83.724406 47.206743 
L 83.814313 48.598866 
L 83.90422 49.99099 
L 83.994127 51.383114 
L 83.784529 52.74605 
L 83.574931 54.108986 
L 83.365333 55.471922 
L 83.155735 56.834858 
L 82.646075 57.83152 
L 82.136414 58.828183 
L 81.626754 59.824845 
L 81.117094 60.821507 
L 80.427897 61.569004 
L 79.738701 62.316501 
L 79.049504 63.063998 
L 78.360308 63.811495 
L 77.987874 64.959792 
L 77.615441 66.10809 
" style="fill:none;stroke:#4169e1;stroke-linecap:square;stroke-width:1.5;"/>
   </g>
   <g id="line2d_18">
    <path clip-path="url(#p0307504acd)" d="M 96.168077 55.60042 
L 97.164016 56.201265 
L 98.159955 56.80211 
L 99.558389 58.107738 
L 100.956824 59.413366 
L 101.539412 60.584444 
L 102.122 61.755523 
L 102.704588 62.926601 
L 103.287176 64.097679 
L 103.488702 65.600148 
L 103.690228 67.102617 
L 103.891754 68.605085 
L 104.09328 70.107554 
L 103.881316 71.452158 
L 103.669352 72.796763 
L 103.457388 74.141367 
L 103.245424 75.485972 
L 103.03346 76.830576 
L 102.821495 78.17518 
L 102.609531 79.519785 
L 102.397567 80.864389 
L 102.185603 82.208994 
L 101.973639 83.553598 
L 101.761675 84.898203 
L 101.549711 86.242807 
L 101.337747 87.587411 
L 101.125782 88.932016 
L 100.913818 90.27662 
L 100.701854 91.621225 
L 100.278204 93.330857 
L 99.854554 95.040489 
L 99.430905 96.750121 
L 99.007255 98.459753 
L 97.841522 99.64151 
L 96.675789 100.823267 
L 95.574076 101.465402 
L 94.472364 102.107537 
L 93.222012 102.397993 
L 91.971661 102.688449 
L 90.74302 102.584511 
L 89.51438 102.480574 
L 87.945595 101.61063 
" style="fill:none;stroke:#008000;stroke-linecap:square;stroke-width:1.5;"/>
   </g>
   <g id="line2d_19">
    <path clip-path="url(#p0307504acd)" d="M 59.466971 18.762352 
L 58.418145 17.633276 
L 57.129938 17.311497 
L 55.94639 17.619038 
L 54.762843 17.92658 
L 53.638862 18.476168 
L 52.514882 19.025756 
L 51.390901 19.575344 
L 50.266921 20.124932 
L 49.368126 20.814053 
L 48.469332 21.503174 
L 47.570537 22.192295 
L 46.671742 22.881416 
L 45.675247 24.053562 
L 44.678751 25.225708 
L 43.682255 26.397855 
L 42.685759 27.570001 
L 41.511397 28.911046 
L 40.337035 30.252091 
L 39.162673 31.593136 
L 37.988312 32.93418 
L 36.81395 34.275225 
L 35.639588 35.61627 
L 34.465226 36.957315 
L 33.290864 38.29836 
L 32.116502 39.639405 
L 30.94214 40.98045 
L 29.767778 42.321495 
L 28.593416 43.66254 
L 27.419054 45.003585 
L 26.244692 46.34463 
L 25.07033 47.685674 
L 23.895969 49.026719 
L 22.854658 50.265072 
L 21.813348 51.503426 
L 20.772038 52.741779 
L 19.730728 53.980132 
L 18.689417 55.218485 
L 17.648107 56.456838 
L 16.606797 57.695191 
L 15.565487 58.933544 
L 14.748805 59.930029 
L 13.932124 60.926513 
L 13.115443 61.922997 
L 12.298762 62.919482 
L 11.482081 63.915966 
L 10.6654 64.912451 
L 9.848718 65.908935 
L 9.032037 66.90542 
L 8.477841 67.902082 
L 7.923644 68.898745 
L 7.369448 69.895407 
L 6.815252 70.89207 
L 6.427787 72.07525 
L 6.128839 72.990044 
L 5.82989 73.904838 
L 5.813189 74.443035 
L 6.230715 74.945638 
L 7.075788 75.065238 
L 7.603541 74.287841 
" style="fill:none;stroke:#ff0000;stroke-linecap:square;stroke-width:1.5;"/>
   </g>
   <g id="line2d_20">
    <path clip-path="url(#p0307504acd)" d="M 73.989087 30.436117 
L 72.785498 30.25387 
L 70.994033 29.983348 
L 69.587805 30.535783 
L 68.181577 31.088219 
L 67.85702 32.956961 
L 67.532463 34.825703 
L 67.207906 36.694445 
L 66.883349 38.563188 
L 67.191205 40.322297 
L 67.499061 42.081406 
L 67.732875 43.418357 
L 67.96669 44.755309 
L 68.165015 45.888123 
L 68.36334 47.020936 
L 68.561665 48.15375 
L 68.75999 49.286564 
L 68.958314 50.419377 
L 69.156639 51.552191 
L 69.354964 52.685004 
L 69.553289 53.817818 
L 69.61063 55.681577 
L 69.66797 57.545336 
L 69.634602 58.61261 
L 69.601235 59.679884 
L 69.567868 60.747158 
L 69.534501 61.814432 
L 69.501133 62.881707 
L 69.467766 63.948981 
L 69.434399 65.016255 
L 69.401031 66.083529 
L 69.367664 67.150803 
L 69.334297 68.218078 
L 69.30093 69.285352 
L 69.267562 70.352626 
L 69.234195 71.4199 
L 69.200828 72.487174 
L 69.16746 73.554449 
L 69.134093 74.621723 
L 69.100726 75.688997 
L 69.067358 76.756271 
L 69.033991 77.823545 
L 69.000624 78.89082 
L 68.967257 79.958094 
L 68.933889 81.025368 
L 68.900522 82.092642 
L 68.867155 83.159916 
L 68.833787 84.227191 
L 68.80042 85.294465 
L 68.767053 86.361739 
L 68.733685 87.429013 
L 68.700318 88.496287 
L 68.666951 89.563562 
L 68.633584 90.630836 
L 68.600216 91.69811 
L 68.575443 92.68356 
L 68.55067 93.66901 
L 68.525897 94.65446 
L 68.501123 95.63991 
L 68.47635 96.62536 
L 68.451577 97.61081 
L 68.426804 98.59626 
L 68.40203 99.58171 
L 68.371969 100.782688 
L 68.341907 101.983666 
L 68.311845 103.184645 
L 68.281783 104.385623 
L 68.250051 105.650316 
L 68.218319 106.91501 
L 68.186587 108.179703 
L 68.154855 109.444397 
L 69.849454 110.27305 
L 70.824796 110.23176 
L 70.963971 109.528401 
" style="fill:none;stroke:#4169e1;stroke-linecap:square;stroke-width:1.5;"/>
   </g>
   <g id="line2d_21">
    <path clip-path="url(#p0307504acd)" d="M 66.883349 38.563188 
L 65.505512 39.22668 
L 64.127676 39.890172 
L 62.596747 39.860273 
L 61.457735 38.849372 
L 60.15394 37.808572 
L 58.536166 37.119451 
L 56.63336 37.266103 
L 55.761565 38.105435 
L 54.889771 38.944767 
L 53.756326 40.036824 
L 53.085779 41.081006 
L 52.415232 42.125188 
L 51.744685 43.16937 
L 51.074138 44.213552 
L 50.403591 45.257734 
L 49.733044 46.301915 
L 49.062497 47.346097 
L 48.39195 48.390279 
L 47.721403 49.434461 
L 47.050856 50.478643 
L 46.380309 51.522825 
L 45.709762 52.567007 
L 45.039215 53.611189 
L 44.368668 54.655371 
L 43.698121 55.699552 
L 43.027574 56.743734 
L 42.682976 57.908762 
L 42.338377 59.073789 
L 41.993779 60.238816 
L 41.649181 61.403843 
L 41.304583 62.56887 
L 40.959984 63.733898 
L 40.615386 64.898925 
L 40.270788 66.063952 
L 39.828767 67.471026 
L 39.386746 68.8781 
L 38.944725 70.285173 
L 38.502704 71.692247 
L 37.813507 73.274805 
L 37.124311 74.857362 
L 36.435114 76.43992 
L 35.745918 78.022477 
L 34.502246 79.392888 
L 33.258575 80.763299 
L 32.014904 82.13371 
L 30.771233 83.504121 
L 29.812314 84.53709 
L 28.853396 85.57006 
L 27.894477 86.603029 
L 26.935559 87.635999 
L 25.843311 88.865453 
L 24.751062 90.094907 
" style="fill:none;stroke:#4169e1;stroke-linecap:square;stroke-width:1.5;"/>
   </g>
   <g id="line2d_22">
    <path clip-path="url(#p0307504acd)" d="M 63.577655 52.573414 
L 61.935385 52.791256 
L 60.293116 53.009098 
L 58.650846 53.22694 
L 57.008577 53.444782 
L 55.959473 53.78685 
L 54.910368 54.128919 
L 53.861264 54.470988 
L 52.81216 54.813057 
L 51.520056 56.159975 
L 50.227952 57.506893 
L 49.804024 58.77123 
L 49.380095 60.035568 
L 48.956167 61.299905 
L 48.532239 62.564243 
L 48.553394 63.52798 
L 48.574548 64.491717 
L 48.595703 65.455454 
L 48.616857 66.419191 
L 48.638012 67.382928 
L 48.659167 68.346665 
L 48.680321 69.310402 
L 48.701476 70.274139 
L 48.744064 71.703994 
L 48.786651 73.133848 
L 48.829239 74.563703 
L 48.871827 75.993557 
L 48.606837 77.216605 
L 48.341847 78.439652 
L 48.076857 79.662699 
L 47.811867 80.885746 
L 47.027753 82.16005 
L 46.243639 83.434355 
L 45.459525 84.708659 
L 44.675411 85.982963 
L 43.785801 87.16472 
L 42.896192 88.346477 
L 42.090924 89.019936 
L 41.285655 89.693395 
L 40.480386 90.366854 
L 39.675117 91.040313 
L 38.440771 91.138733 
L 37.206424 91.237154 
L 35.972078 91.335574 
L 34.737731 91.433994 
L 33.503385 91.532415 
L 32.269038 91.630835 
L 31.034692 91.729256 
L 29.800345 91.827676 
L 28.274426 91.372059 
L 26.748507 90.916442 
L 25.749785 90.505675 
L 24.751062 90.094907 
L 23.714206 89.668122 
L 22.677349 89.241337 
L 21.640492 88.814552 
L 20.603636 88.387767 
L 19.560377 87.374019 
L 18.517118 86.360271 
L 19.267552 85.328013 
" style="fill:none;stroke:#4169e1;stroke-linecap:square;stroke-width:1.5;"/>
   </g>
   <g id="line2d_23">
    <path clip-path="url(#p0307504acd)" d="M 78.777834 33.192601 
L 79.737309 33.563502 
L 80.696784 33.934402 
L 81.656259 34.305303 
L 82.615734 34.676204 
L 84.353757 35.437939 
L 86.091779 36.199674 
L 86.885914 36.844657 
L 87.680048 37.48964 
L 88.474183 38.134623 
L 89.268318 38.779606 
L 90.646711 39.92292 
L 92.025104 41.066234 
L 93.224239 41.974621 
L 94.423374 42.883007 
L 95.546798 44.41146 
L 96.670222 45.939913 
L 97.750779 46.706632 
L 98.831337 47.47335 
L 99.827276 47.784451 
L 100.823215 48.095552 
L 101.744835 48.665429 
L 102.666454 49.235307 
L 103.588073 49.805184 
L 104.509693 50.375061 
L 105.20891 51.514816 
L 105.908127 52.654571 
L 106.671365 53.898263 
L 107.434603 55.141955 
L 107.519221 56.634101 
L 106.904623 57.649985 
L 106.290024 58.665869 
L 105.611962 59.473877 
L 104.933899 60.281886 
L 103.789321 61.650161 
L 103.538249 62.87392 
L 103.287176 64.097679 
" style="fill:none;stroke:#4169e1;stroke-linecap:square;stroke-width:1.5;"/>
   </g>
   <g id="line2d_24">
    <path clip-path="url(#p0307504acd)" d="M 95.682633 57.170875 
L 96.168077 55.60042 
" style="fill:none;stroke:#008000;stroke-linecap:square;stroke-width:1.5;"/>
   </g>
   <g id="line2d_25">
    <path clip-path="url(#p0307504acd)" d="M 87.945595 101.61063 
L 87.997368 100.508606 
L 88.049141 99.406582 
" style="fill:none;stroke:#008000;stroke-linecap:square;stroke-width:1.5;"/>
   </g>
   <g id="line2d_26">
    <path clip-path="url(#p0307504acd)" d="M 58.570681 19.629449 
L 59.466971 18.762352 
" style="fill:none;stroke:#008000;stroke-linecap:square;stroke-width:1.5;"/>
   </g>
   <g id="line2d_27">
    <path clip-path="url(#p0307504acd)" d="M 72.785498 30.25387 
L 72.782158 32.026506 
" style="fill:none;stroke:#008000;stroke-linecap:square;stroke-width:1.5;"/>
   </g>
   <g id="line2d_28">
    <path clip-path="url(#p0307504acd)" d="M 60.42227 22.123952 
L 59.819363 23.02878 
L 59.216455 23.933607 
L 58.407289 24.92315 
L 57.598124 25.912694 
L 56.788958 26.902237 
L 55.979792 27.89178 
L 55.133049 28.815117 
L 54.286306 29.738453 
L 53.439563 30.66179 
L 52.59282 31.585127 
L 51.731324 32.398474 
L 50.869829 33.211822 
L 50.008333 34.02517 
L 49.146837 34.838518 
L 48.06795 35.681053 
L 46.989062 36.523589 
L 45.910175 37.366125 
L 44.831287 38.20866 
L 43.782461 39.710773 
L 42.733636 41.212886 
L 41.68481 42.714999 
L 40.635984 44.217111 
L 40.059102 45.012305 
L 39.48222 45.8075 
L 38.905338 46.602694 
L 38.328456 47.397888 
L 37.751574 48.193082 
L 37.174692 48.988277 
L 36.59781 49.783471 
L 36.020928 50.578665 
L 34.964587 51.787474 
L 33.908246 52.996284 
L 32.851905 54.205093 
L 31.795564 55.413902 
L 30.821614 56.388495 
L 29.847665 57.363089 
L 28.873715 58.337682 
L 27.899766 59.312276 
L 27.330539 60.103911 
L 26.761311 60.895545 
L 26.192084 61.68718 
L 25.622857 62.478815 
L 25.083413 63.563041 
L 24.543969 64.647267 
L 24.146763 65.636455 
L 23.749556 66.625642 
L 23.35235 67.61483 
L 22.955143 68.604017 
L 22.648122 69.703194 
L 22.341101 70.80237 
L 22.03408 71.901546 
L 21.727059 73.000723 
L 21.404729 73.953247 
L 21.082399 74.905772 
L 20.760069 75.858296 
L 20.437739 76.810821 
L 19.823697 78.203301 
L 19.209655 79.59578 
L 18.55052 80.401653 
L 17.891386 81.207526 
L 16.587591 81.354178 
L 15.283796 81.500829 
L 14.314578 81.197737 
L 13.345361 80.894645 
L 12.376143 80.591553 
L 11.406926 80.288461 
L 10.437709 79.985369 
L 9.468491 79.682276 
L 8.499274 79.379184 
L 7.530056 79.076092 
L 6.731746 78.695937 
L 6.456736 78.401209 
L 6.656035 77.198807 
L 6.855334 75.996405 
L 7.075788 75.065238 
" style="fill:none;stroke:#000000;stroke-linecap:square;stroke-width:1.5;"/>
   </g>
   <g id="line2d_29">
    <path clip-path="url(#p0307504acd)" d="M 17.891386 81.207526 
L 17.441571 82.614244 
L 17.42654 83.610906 
L 17.411509 84.607569 
L 17.771138 85.662607 
L 18.517118 86.360271 
" style="fill:none;stroke:#008000;stroke-linecap:square;stroke-width:1.5;"/>
   </g>
   <g id="line2d_30">
    <path clip-path="url(#p0307504acd)" d="M 59.71526 41.063386 
L 59.989157 40.211952 
L 59.060579 39.420317 
L 57.861443 38.775334 
L 56.375607 38.860051 
L 54.889771 38.944767 
" style="fill:none;stroke:#008000;stroke-linecap:square;stroke-width:1.5;"/>
   </g>
   <g id="line2d_31">
    <path clip-path="url(#p0307504acd)" d="M 58.152042 84.863853 
L 57.347051 85.859092 
L 56.542061 86.854331 
L 54.973832 87.786922 
L 53.405604 88.719513 
L 51.752757 89.341003 
L 50.09991 89.962494 
L 48.261682 90.325563 
L 46.63834 90.475775 
L 45.014998 90.625986 
L 43.680028 90.729568 
L 42.345058 90.833149 
L 41.010088 90.936731 
L 39.675117 91.040313 
" style="fill:none;stroke:#008000;stroke-linecap:square;stroke-width:1.5;"/>
   </g>
   <g id="line2d_32">
    <path clip-path="url(#p0307504acd)" d="M 83.707983 100.45023 
L 82.712044 100.532811 
L 81.716105 100.615391 
L 80.444598 101.154301 
L 79.173092 101.693211 
L 77.668884 102.23212 
L 76.164677 102.77103 
L 74.617603 102.916258 
L 73.07053 103.061486 
L 71.629786 103.040841 
L 70.189042 103.020195 
L 69.235413 103.702909 
L 68.281783 104.385623 
" style="fill:none;stroke:#008000;stroke-linecap:square;stroke-width:1.5;"/>
   </g>
   <g id="line2d_33">
    <path clip-path="url(#p0307504acd)" d="M 96.168077 55.60042 
L 94.641601 55.475125 
L 93.540446 55.890876 
L 92.565104 57.216437 
L 92.215496 58.273611 
L 91.865887 59.330785 
L 91.516279 60.387959 
L 91.16667 61.445133 
L 90.955193 62.550895 
L 90.743716 63.656656 
L 90.532239 64.762418 
L 90.320762 65.868179 
L 90.109285 66.97394 
L 89.897808 68.079702 
L 89.686331 69.185463 
L 89.474854 70.291225 
L 89.263377 71.396986 
L 89.0519 72.502747 
L 88.840423 73.608509 
L 88.628946 74.71427 
L 88.417469 75.820031 
L 88.205992 76.925793 
L 87.994515 78.031554 
L 87.783038 79.137316 
L 87.528347 80.469373 
L 87.273656 81.80143 
L 87.018965 83.133487 
L 86.764274 84.465544 
L 86.509583 85.797601 
L 86.254892 87.129659 
L 86.000201 88.461716 
L 85.74551 89.793773 
L 85.49082 91.12583 
L 85.236129 92.457887 
L 84.981438 93.789944 
L 84.726747 95.122001 
L 84.472056 96.454059 
L 84.217365 97.786116 
L 83.962674 99.118173 
L 83.707983 100.45023 
L 84.767386 100.74033 
L 85.826789 101.03043 
L 86.886192 101.32053 
L 87.945595 101.61063 
" style="fill:none;stroke:#008000;stroke-linecap:square;stroke-width:1.5;"/>
   </g>
   <g id="line2d_34">
    <path clip-path="url(#p0307504acd)" d="M 67.96669 44.755309 
L 67.41806 45.732572 
L 66.869431 46.709835 
L 66.320802 47.687098 
L 65.772172 48.664361 
L 65.223543 49.641625 
L 64.674914 50.618888 
L 64.126284 51.596151 
L 63.577655 52.573414 
L 63.408104 53.58249 
L 63.238554 54.591566 
L 63.069004 55.600643 
L 62.899453 56.609719 
L 62.729903 57.618795 
L 62.560352 58.627871 
L 62.390802 59.636947 
L 62.221252 60.646024 
L 62.051701 61.6551 
L 61.882151 62.664176 
L 61.7126 63.673252 
L 61.54305 64.682329 
L 61.373499 65.691405 
L 61.203949 66.700481 
L 61.034399 67.709557 
L 60.864848 68.718634 
L 60.695298 69.72771 
L 60.525747 70.736786 
L 60.356197 71.745862 
L 60.186647 72.754938 
L 60.017096 73.764015 
L 59.847546 74.773091 
L 59.677995 75.782167 
L 59.508445 76.791243 
L 59.338894 77.80032 
L 59.169344 78.809396 
L 58.999794 79.818472 
L 58.830243 80.827548 
L 58.660693 81.836625 
L 58.491142 82.845701 
L 58.321592 83.854777 
L 58.152042 84.863853 
L 58.49163 85.838447 
L 58.831217 86.81304 
L 59.636208 88.180603 
L 60.441198 89.548167 
L 60.939168 90.429145 
L 61.437137 91.310124 
L 61.935107 92.191102 
L 62.433076 93.07208 
L 63.555944 94.004672 
L 64.678811 94.937263 
L 65.505512 95.558753 
L 66.332214 96.180243 
L 66.849668 97.03061 
L 67.367122 97.880977 
L 67.884576 98.731343 
L 68.40203 99.58171 
" style="fill:none;stroke:#4169e1;stroke-linecap:square;stroke-width:1.5;"/>
   </g>
   <g id="line2d_35">
    <path clip-path="url(#p0307504acd)" d="M 69.66797 57.545336 
L 70.910528 58.913967 
L 72.153085 60.282598 
L 73.395643 61.651229 
L 74.638201 63.01986 
L 75.382511 63.791918 
L 76.126821 64.563975 
L 76.871131 65.336032 
L 77.615441 66.10809 
L 78.834617 67.372427 
L 79.48067 68.356987 
L 80.126722 69.341548 
L 80.772774 70.326108 
L 81.418826 71.310668 
L 81.525156 72.90604 
L 81.631486 74.501411 
L 80.804784 75.952267 
L 79.978082 77.403123 
L 79.141082 78.309908 
L 78.304081 79.216693 
L 77.46708 80.123477 
L 76.630079 81.030262 
L 75.793079 81.937047 
L 74.956078 82.843832 
L 74.119077 83.750617 
L 73.282076 84.657402 
L 72.696844 85.53749 
L 72.111611 86.417579 
L 71.526379 87.297667 
L 70.941146 88.177756 
L 70.355914 89.057844 
L 69.770681 89.937933 
L 69.185449 90.818021 
L 68.600216 91.69811 
" style="fill:none;stroke:#008000;stroke-linecap:square;stroke-width:1.5;"/>
   </g>
   <g id="line2d_36">
    <path clip-path="url(#p0307504acd)" d="M 110.308296 59.060263 
L 111.654957 58.776926 
L 113.001618 58.493589 
L 114.700671 57.965358 
L 114.990713 56.972967 
L 115.280754 55.980576 
L 115.570796 55.007406 
L 115.860837 54.034236 
L 116.979808 53.689676 
L 118.098778 53.345115 
L 119.839027 53.507429 
L 121.16509 54.764647 
L 121.434533 55.75775 
L 121.703977 56.750853 
L 121.890472 58.189607 
L 122.076967 59.62836 
L 121.931668 61.24936 
L 121.786369 62.870361 
L 121.289234 64.329047 
L 120.7921 65.787734 
L 119.921975 67.247133 
L 119.051851 68.706531 
L 118.264675 69.841303 
L 117.477499 70.976074 
L 117.02156 72.293092 
L 116.565622 73.61011 
L 115.944343 74.663725 
L 115.323064 75.71734 
L 114.503042 76.5225 
L 113.683021 77.327661 
" style="fill:none;stroke:#008000;stroke-linecap:square;stroke-width:1.5;"/>
   </g>
   <g id="line2d_37">
    <path clip-path="url(#p0307504acd)" d="M 109.065738 90.307054 
L 108.185036 91.573527 
L 107.304335 92.84 
L 106.423633 94.106474 
L 105.542931 95.372947 
L 104.859301 97.034525 
L 104.175672 98.696104 
L 103.895929 99.962577 
L 103.616187 101.229051 
L 103.336444 102.495524 
L 103.056702 103.761997 
L 103.243197 105.545311 
L 103.429692 107.328625 
L 104.300373 108.667 
L 105.356993 108.504686 
L 106.413612 108.342373 
" style="fill:none;stroke:#008000;stroke-linecap:square;stroke-width:1.5;"/>
   </g>
   <g id="line2d_38">
    <path clip-path="url(#p0307504acd)" d="M 110.291595 60.506847 
L 110.308296 59.060263 
L 108.77514 60.195034 
L 107.987964 60.944666 
L 107.200788 61.694299 
L 106.579509 62.849716 
L 105.95823 64.005132 
L 105.378147 65.382662 
L 104.798064 66.760192 
L 104.445672 68.433873 
L 104.09328 70.107554 
" style="fill:none;stroke:#008000;stroke-linecap:square;stroke-width:1.5;"/>
   </g>
   <g id="line2d_39">
    <path clip-path="url(#p0307504acd)" d="M 113.001618 58.493589 
L 112.879909 59.972832 
L 112.7582 61.452074 
L 112.636492 62.931317 
L 112.514783 64.41056 
L 112.393074 65.889803 
L 112.271365 67.369046 
L 112.149656 68.848289 
L 112.027947 70.327532 
L 111.906238 71.806774 
L 111.784529 73.286017 
L 111.662821 74.76526 
L 111.541112 76.244503 
L 111.419403 77.723746 
L 111.297694 79.202989 
L 111.175985 80.682231 
L 111.054276 82.161474 
L 110.805709 83.179672 
L 110.557142 84.197869 
L 110.308575 85.216067 
L 110.060007 86.234264 
L 109.81144 87.252462 
L 109.562873 88.270659 
L 109.314306 89.288857 
L 109.065738 90.307054 
L 108.931017 92.140913 
L 108.796295 93.974772 
L 108.661573 95.808631 
L 108.526851 97.64249 
L 108.53715 99.324357 
L 108.547449 101.006225 
L 108.557748 102.688093 
L 108.568047 104.369961 
L 108.547449 105.585889 
L 108.526851 106.801817 
L 107.739675 107.977879 
L 106.413612 108.342373 
L 106.21654 107.32293 
" style="fill:none;stroke:#008000;stroke-linecap:square;stroke-width:1.5;"/>
   </g>
   <g id="line2d_40">
    <path clip-path="url(#p0307504acd)" d="M 79.637381 86.324676 
L 79.353742 87.931082 
L 79.070102 89.537488 
L 78.786463 91.143894 
L 78.502823 92.750301 
L 78.219184 94.356707 
L 77.935544 95.963113 
L 77.651905 97.56952 
L 77.368266 99.175926 
" style="fill:none;stroke:#008000;stroke-linecap:square;stroke-width:1.5;"/>
   </g>
   <g id="text_1">
    <g id="patch_2">
     <path d="M 107.484405 101.380673 
L 109.695703 81.496377 
L 107.732182 81.278017 
L 105.520884 101.162313 
z
" style="fill:#ffffff;"/>
    </g>
    <!-- Drummer Boy Quad -->
    <g style="fill:#808080;" transform="translate(107.053349 101.312612)rotate(-83.654309)scale(0.02 -0.02)">
     <defs>
      <path d="M 1259 4147 
L 1259 519 
L 2022 519 
Q 2988 519 3436 956 
Q 3884 1394 3884 2338 
Q 3884 3275 3436 3711 
Q 2988 4147 2022 4147 
L 1259 4147 
z
M 628 4666 
L 1925 4666 
Q 3281 4666 3915 4102 
Q 4550 3538 4550 2338 
Q 4550 1131 3912 565 
Q 3275 0 1925 0 
L 628 0 
L 628 4666 
z
" id="DejaVuSans-44" transform="scale(0.015625)"/>
      <path d="M 2631 2963 
Q 2534 3019 2420 3045 
Q 2306 3072 2169 3072 
Q 1681 3072 1420 2755 
Q 1159 2438 1159 1844 
L 1159 0 
L 581 0 
L 581 3500 
L 1159 3500 
L 1159 2956 
Q 1341 3275 1631 3429 
Q 1922 3584 2338 3584 
Q 2397 3584 2469 3576 
Q 2541 3569 2628 3553 
L 2631 2963 
z
" id="DejaVuSans-72" transform="scale(0.015625)"/>
      <path d="M 544 1381 
L 544 3500 
L 1119 3500 
L 1119 1403 
Q 1119 906 1312 657 
Q 1506 409 1894 409 
Q 2359 409 2629 706 
Q 2900 1003 2900 1516 
L 2900 3500 
L 3475 3500 
L 3475 0 
L 2900 0 
L 2900 538 
Q 2691 219 2414 64 
Q 2138 -91 1772 -91 
Q 1169 -91 856 284 
Q 544 659 544 1381 
z
M 1991 3584 
L 1991 3584 
z
" id="DejaVuSans-75" transform="scale(0.015625)"/>
      <path d="M 3328 2828 
Q 3544 3216 3844 3400 
Q 4144 3584 4550 3584 
Q 5097 3584 5394 3201 
Q 5691 2819 5691 2113 
L 5691 0 
L 5113 0 
L 5113 2094 
Q 5113 2597 4934 2840 
Q 4756 3084 4391 3084 
Q 3944 3084 3684 2787 
Q 3425 2491 3425 1978 
L 3425 0 
L 2847 0 
L 2847 2094 
Q 2847 2600 2669 2842 
Q 2491 3084 2119 3084 
Q 1678 3084 1418 2786 
Q 1159 2488 1159 1978 
L 1159 0 
L 581 0 
L 581 3500 
L 1159 3500 
L 1159 2956 
Q 1356 3278 1631 3431 
Q 1906 3584 2284 3584 
Q 2666 3584 2933 3390 
Q 3200 3197 3328 2828 
z
" id="DejaVuSans-6d" transform="scale(0.015625)"/>
      <path d="M 3597 1894 
L 3597 1613 
L 953 1613 
Q 991 1019 1311 708 
Q 1631 397 2203 397 
Q 2534 397 2845 478 
Q 3156 559 3463 722 
L 3463 178 
Q 3153 47 2828 -22 
Q 2503 -91 2169 -91 
Q 1331 -91 842 396 
Q 353 884 353 1716 
Q 353 2575 817 3079 
Q 1281 3584 2069 3584 
Q 2775 3584 3186 3129 
Q 3597 2675 3597 1894 
z
M 3022 2063 
Q 3016 2534 2758 2815 
Q 2500 3097 2075 3097 
Q 1594 3097 1305 2825 
Q 1016 2553 972 2059 
L 3022 2063 
z
" id="DejaVuSans-65" transform="scale(0.015625)"/>
      <path id="DejaVuSans-20" transform="scale(0.015625)"/>
      <path d="M 1259 2228 
L 1259 519 
L 2272 519 
Q 2781 519 3026 730 
Q 3272 941 3272 1375 
Q 3272 1813 3026 2020 
Q 2781 2228 2272 2228 
L 1259 2228 
z
M 1259 4147 
L 1259 2741 
L 2194 2741 
Q 2656 2741 2882 2914 
Q 3109 3088 3109 3444 
Q 3109 3797 2882 3972 
Q 2656 4147 2194 4147 
L 1259 4147 
z
M 628 4666 
L 2241 4666 
Q 2963 4666 3353 4366 
Q 3744 4066 3744 3513 
Q 3744 3084 3544 2831 
Q 3344 2578 2956 2516 
Q 3422 2416 3680 2098 
Q 3938 1781 3938 1306 
Q 3938 681 3513 340 
Q 3088 0 2303 0 
L 628 0 
L 628 4666 
z
" id="DejaVuSans-42" transform="scale(0.015625)"/>
      <path d="M 1959 3097 
Q 1497 3097 1228 2736 
Q 959 2375 959 1747 
Q 959 1119 1226 758 
Q 1494 397 1959 397 
Q 2419 397 2687 759 
Q 2956 1122 2956 1747 
Q 2956 2369 2687 2733 
Q 2419 3097 1959 3097 
z
M 1959 3584 
Q 2709 3584 3137 3096 
Q 3566 2609 3566 1747 
Q 3566 888 3137 398 
Q 2709 -91 1959 -91 
Q 1206 -91 779 398 
Q 353 888 353 1747 
Q 353 2609 779 3096 
Q 1206 3584 1959 3584 
z
" id="DejaVuSans-6f" transform="scale(0.015625)"/>
      <path d="M 2059 -325 
Q 1816 -950 1584 -1140 
Q 1353 -1331 966 -1331 
L 506 -1331 
L 506 -850 
L 844 -850 
Q 1081 -850 1212 -737 
Q 1344 -625 1503 -206 
L 1606 56 
L 191 3500 
L 800 3500 
L 1894 763 
L 2988 3500 
L 3597 3500 
L 2059 -325 
z
" id="DejaVuSans-79" transform="scale(0.015625)"/>
      <path d="M 2522 4238 
Q 1834 4238 1429 3725 
Q 1025 3213 1025 2328 
Q 1025 1447 1429 934 
Q 1834 422 2522 422 
Q 3209 422 3611 934 
Q 4013 1447 4013 2328 
Q 4013 3213 3611 3725 
Q 3209 4238 2522 4238 
z
M 3406 84 
L 4238 -825 
L 3475 -825 
L 2784 -78 
Q 2681 -84 2626 -87 
Q 2572 -91 2522 -91 
Q 1538 -91 948 567 
Q 359 1225 359 2328 
Q 359 3434 948 4092 
Q 1538 4750 2522 4750 
Q 3503 4750 4090 4092 
Q 4678 3434 4678 2328 
Q 4678 1516 4351 937 
Q 4025 359 3406 84 
z
" id="DejaVuSans-51" transform="scale(0.015625)"/>
      <path d="M 2194 1759 
Q 1497 1759 1228 1600 
Q 959 1441 959 1056 
Q 959 750 1161 570 
Q 1363 391 1709 391 
Q 2188 391 2477 730 
Q 2766 1069 2766 1631 
L 2766 1759 
L 2194 1759 
z
M 3341 1997 
L 3341 0 
L 2766 0 
L 2766 531 
Q 2569 213 2275 61 
Q 1981 -91 1556 -91 
Q 1019 -91 701 211 
Q 384 513 384 1019 
Q 384 1609 779 1909 
Q 1175 2209 1959 2209 
L 2766 2209 
L 2766 2266 
Q 2766 2663 2505 2880 
Q 2244 3097 1772 3097 
Q 1472 3097 1187 3025 
Q 903 2953 641 2809 
L 641 3341 
Q 956 3463 1253 3523 
Q 1550 3584 1831 3584 
Q 2591 3584 2966 3190 
Q 3341 2797 3341 1997 
z
" id="DejaVuSans-61" transform="scale(0.015625)"/>
      <path d="M 2906 2969 
L 2906 4863 
L 3481 4863 
L 3481 0 
L 2906 0 
L 2906 525 
Q 2725 213 2448 61 
Q 2172 -91 1784 -91 
Q 1150 -91 751 415 
Q 353 922 353 1747 
Q 353 2572 751 3078 
Q 1150 3584 1784 3584 
Q 2172 3584 2448 3432 
Q 2725 3281 2906 2969 
z
M 947 1747 
Q 947 1113 1208 752 
Q 1469 391 1925 391 
Q 2381 391 2643 752 
Q 2906 1113 2906 1747 
Q 2906 2381 2643 2742 
Q 2381 3103 1925 3103 
Q 1469 3103 1208 2742 
Q 947 2381 947 1747 
z
" id="DejaVuSans-64" transform="scale(0.015625)"/>
     </defs>
     <use xlink:href="#DejaVuSans-44"/>
     <use x="77.001953" xlink:href="#DejaVuSans-72"/>
     <use x="118.115234" xlink:href="#DejaVuSans-75"/>
     <use x="181.494141" xlink:href="#DejaVuSans-6d"/>
     <use x="278.90625" xlink:href="#DejaVuSans-6d"/>
     <use x="376.318359" xlink:href="#DejaVuSans-65"/>
     <use x="437.841797" xlink:href="#DejaVuSans-72"/>
     <use x="478.955078" xlink:href="#DejaVuSans-20"/>
     <use x="510.742188" xlink:href="#DejaVuSans-42"/>
     <use x="579.345703" xlink:href="#DejaVuSans-6f"/>
     <use x="640.527344" xlink:href="#DejaVuSans-79"/>
     <use x="699.707031" xlink:href="#DejaVuSans-20"/>
     <use x="731.494141" xlink:href="#DejaVuSans-51"/>
     <use x="810.205078" xlink:href="#DejaVuSans-75"/>
     <use x="873.583984" xlink:href="#DejaVuSans-61"/>
     <use x="934.863281" xlink:href="#DejaVuSans-64"/>
    </g>
   </g>
   <g id="text_2">
    <g id="patch_3">
     <path d="M 26.831275 77.059427 
L 38.941788 66.69559 
L 37.657255 65.194567 
L 25.546742 75.558405 
z
" style="fill:#ffffff;"/>
    </g>
    <!-- Exhibition Quad -->
    <g style="fill:#808080;" transform="translate(26.563028 76.715211)rotate(-40.555986)scale(0.02 -0.02)">
     <defs>
      <path d="M 628 4666 
L 3578 4666 
L 3578 4134 
L 1259 4134 
L 1259 2753 
L 3481 2753 
L 3481 2222 
L 1259 2222 
L 1259 531 
L 3634 531 
L 3634 0 
L 628 0 
L 628 4666 
z
" id="DejaVuSans-45" transform="scale(0.015625)"/>
      <path d="M 3513 3500 
L 2247 1797 
L 3578 0 
L 2900 0 
L 1881 1375 
L 863 0 
L 184 0 
L 1544 1831 
L 300 3500 
L 978 3500 
L 1906 2253 
L 2834 3500 
L 3513 3500 
z
" id="DejaVuSans-78" transform="scale(0.015625)"/>
      <path d="M 3513 2113 
L 3513 0 
L 2938 0 
L 2938 2094 
Q 2938 2591 2744 2837 
Q 2550 3084 2163 3084 
Q 1697 3084 1428 2787 
Q 1159 2491 1159 1978 
L 1159 0 
L 581 0 
L 581 4863 
L 1159 4863 
L 1159 2956 
Q 1366 3272 1645 3428 
Q 1925 3584 2291 3584 
Q 2894 3584 3203 3211 
Q 3513 2838 3513 2113 
z
" id="DejaVuSans-68" transform="scale(0.015625)"/>
      <path d="M 603 3500 
L 1178 3500 
L 1178 0 
L 603 0 
L 603 3500 
z
M 603 4863 
L 1178 4863 
L 1178 4134 
L 603 4134 
L 603 4863 
z
" id="DejaVuSans-69" transform="scale(0.015625)"/>
      <path d="M 3116 1747 
Q 3116 2381 2855 2742 
Q 2594 3103 2138 3103 
Q 1681 3103 1420 2742 
Q 1159 2381 1159 1747 
Q 1159 1113 1420 752 
Q 1681 391 2138 391 
Q 2594 391 2855 752 
Q 3116 1113 3116 1747 
z
M 1159 2969 
Q 1341 3281 1617 3432 
Q 1894 3584 2278 3584 
Q 2916 3584 3314 3078 
Q 3713 2572 3713 1747 
Q 3713 922 3314 415 
Q 2916 -91 2278 -91 
Q 1894 -91 1617 61 
Q 1341 213 1159 525 
L 1159 0 
L 581 0 
L 581 4863 
L 1159 4863 
L 1159 2969 
z
" id="DejaVuSans-62" transform="scale(0.015625)"/>
      <path d="M 1172 4494 
L 1172 3500 
L 2356 3500 
L 2356 3053 
L 1172 3053 
L 1172 1153 
Q 1172 725 1289 603 
Q 1406 481 1766 481 
L 2356 481 
L 2356 0 
L 1766 0 
Q 1100 0 847 248 
Q 594 497 594 1153 
L 594 3053 
L 172 3053 
L 172 3500 
L 594 3500 
L 594 4494 
L 1172 4494 
z
" id="DejaVuSans-74" transform="scale(0.015625)"/>
      <path d="M 3513 2113 
L 3513 0 
L 2938 0 
L 2938 2094 
Q 2938 2591 2744 2837 
Q 2550 3084 2163 3084 
Q 1697 3084 1428 2787 
Q 1159 2491 1159 1978 
L 1159 0 
L 581 0 
L 581 3500 
L 1159 3500 
L 1159 2956 
Q 1366 3272 1645 3428 
Q 1925 3584 2291 3584 
Q 2894 3584 3203 3211 
Q 3513 2838 3513 2113 
z
" id="DejaVuSans-6e" transform="scale(0.015625)"/>
     </defs>
     <use xlink:href="#DejaVuSans-45"/>
     <use x="63.183594" xlink:href="#DejaVuSans-78"/>
     <use x="122.363281" xlink:href="#DejaVuSans-68"/>
     <use x="185.742188" xlink:href="#DejaVuSans-69"/>
     <use x="213.525391" xlink:href="#DejaVuSans-62"/>
     <use x="277.001953" xlink:href="#DejaVuSans-69"/>
     <use x="304.785156" xlink:href="#DejaVuSans-74"/>
     <use x="343.994141" xlink:href="#DejaVuSans-69"/>
     <use x="371.777344" xlink:href="#DejaVuSans-6f"/>
     <use x="432.958984" xlink:href="#DejaVuSans-6e"/>
     <use x="496.337891" xlink:href="#DejaVuSans-20"/>
     <use x="528.125" xlink:href="#DejaVuSans-51"/>
     <use x="606.835938" xlink:href="#DejaVuSans-75"/>
     <use x="670.214844" xlink:href="#DejaVuSans-61"/>
     <use x="731.494141" xlink:href="#DejaVuSans-64"/>
    </g>
   </g>
   <g id="text_3">
    <g id="patch_4">
     <path d="M 11.494795 70.31426 
L 22.08806 61.43094 
L 20.818613 59.917138 
L 10.225348 68.800457 
z
" style="fill:#ffffff;"/>
    </g>
    <!-- Ramrod Triple -->
    <g style="fill:#808080;" transform="translate(11.230006 69.967376)rotate(-39.982585)scale(0.02 -0.02)">
     <defs>
      <path d="M 2841 2188 
Q 3044 2119 3236 1894 
Q 3428 1669 3622 1275 
L 4263 0 
L 3584 0 
L 2988 1197 
Q 2756 1666 2539 1819 
Q 2322 1972 1947 1972 
L 1259 1972 
L 1259 0 
L 628 0 
L 628 4666 
L 2053 4666 
Q 2853 4666 3247 4331 
Q 3641 3997 3641 3322 
Q 3641 2881 3436 2590 
Q 3231 2300 2841 2188 
z
M 1259 4147 
L 1259 2491 
L 2053 2491 
Q 2509 2491 2742 2702 
Q 2975 2913 2975 3322 
Q 2975 3731 2742 3939 
Q 2509 4147 2053 4147 
L 1259 4147 
z
" id="DejaVuSans-52" transform="scale(0.015625)"/>
      <path d="M -19 4666 
L 3928 4666 
L 3928 4134 
L 2272 4134 
L 2272 0 
L 1638 0 
L 1638 4134 
L -19 4134 
L -19 4666 
z
" id="DejaVuSans-54" transform="scale(0.015625)"/>
      <path d="M 1159 525 
L 1159 -1331 
L 581 -1331 
L 581 3500 
L 1159 3500 
L 1159 2969 
Q 1341 3281 1617 3432 
Q 1894 3584 2278 3584 
Q 2916 3584 3314 3078 
Q 3713 2572 3713 1747 
Q 3713 922 3314 415 
Q 2916 -91 2278 -91 
Q 1894 -91 1617 61 
Q 1341 213 1159 525 
z
M 3116 1747 
Q 3116 2381 2855 2742 
Q 2594 3103 2138 3103 
Q 1681 3103 1420 2742 
Q 1159 2381 1159 1747 
Q 1159 1113 1420 752 
Q 1681 391 2138 391 
Q 2594 391 2855 752 
Q 3116 1113 3116 1747 
z
" id="DejaVuSans-70" transform="scale(0.015625)"/>
      <path d="M 603 4863 
L 1178 4863 
L 1178 0 
L 603 0 
L 603 4863 
z
" id="DejaVuSans-6c" transform="scale(0.015625)"/>
     </defs>
     <use xlink:href="#DejaVuSans-52"/>
     <use x="67.232422" xlink:href="#DejaVuSans-61"/>
     <use x="128.511719" xlink:href="#DejaVuSans-6d"/>
     <use x="225.923828" xlink:href="#DejaVuSans-72"/>
     <use x="264.787109" xlink:href="#DejaVuSans-6f"/>
     <use x="325.96875" xlink:href="#DejaVuSans-64"/>
     <use x="389.445312" xlink:href="#DejaVuSans-20"/>
     <use x="421.232422" xlink:href="#DejaVuSans-54"/>
     <use x="467.566406" xlink:href="#DejaVuSans-72"/>
     <use x="508.679688" xlink:href="#DejaVuSans-69"/>
     <use x="536.462891" xlink:href="#DejaVuSans-70"/>
     <use x="599.939453" xlink:href="#DejaVuSans-6c"/>
     <use x="627.722656" xlink:href="#DejaVuSans-65"/>
    </g>
   </g>
   <g id="text_4">
    <g id="patch_5">
     <path d="M 72.093287 101.116665 
L 72.611043 83.839422 
L 70.636305 83.780244 
L 70.118549 101.057487 
z
" style="fill:#ffffff;"/>
    </g>
    <!-- Minuteman Quad -->
    <g style="fill:#808080;" transform="translate(71.658144 101.083616)rotate(-88.283501)scale(0.02 -0.02)">
     <defs>
      <path d="M 628 4666 
L 1569 4666 
L 2759 1491 
L 3956 4666 
L 4897 4666 
L 4897 0 
L 4281 0 
L 4281 4097 
L 3078 897 
L 2444 897 
L 1241 4097 
L 1241 0 
L 628 0 
L 628 4666 
z
" id="DejaVuSans-4d" transform="scale(0.015625)"/>
     </defs>
     <use xlink:href="#DejaVuSans-4d"/>
     <use x="86.279297" xlink:href="#DejaVuSans-69"/>
     <use x="114.0625" xlink:href="#DejaVuSans-6e"/>
     <use x="177.441406" xlink:href="#DejaVuSans-75"/>
     <use x="240.820312" xlink:href="#DejaVuSans-74"/>
     <use x="280.029297" xlink:href="#DejaVuSans-65"/>
     <use x="341.552734" xlink:href="#DejaVuSans-6d"/>
     <use x="438.964844" xlink:href="#DejaVuSans-61"/>
     <use x="500.244141" xlink:href="#DejaVuSans-6e"/>
     <use x="563.623047" xlink:href="#DejaVuSans-20"/>
     <use x="595.410156" xlink:href="#DejaVuSans-51"/>
     <use x="674.121094" xlink:href="#DejaVuSans-75"/>
     <use x="737.5" xlink:href="#DejaVuSans-61"/>
     <use x="798.779297" xlink:href="#DejaVuSans-64"/>
    </g>
   </g>
   <g id="text_5">
    <g id="patch_6">
     <path d="M 89.811015 92.889717 
L 93.652259 76.266187 
L 91.727355 75.821394 
L 87.886112 92.444924 
z
" style="fill:#ffffff;"/>
    </g>
    <!-- Fife &amp;amp; Drum -->
    <g style="fill:#808080;" transform="translate(89.390773 92.772083)rotate(-76.988877)scale(0.02 -0.02)">
     <defs>
      <path d="M 628 4666 
L 3309 4666 
L 3309 4134 
L 1259 4134 
L 1259 2759 
L 3109 2759 
L 3109 2228 
L 1259 2228 
L 1259 0 
L 628 0 
L 628 4666 
z
" id="DejaVuSans-46" transform="scale(0.015625)"/>
      <path d="M 2375 4863 
L 2375 4384 
L 1825 4384 
Q 1516 4384 1395 4259 
Q 1275 4134 1275 3809 
L 1275 3500 
L 2222 3500 
L 2222 3053 
L 1275 3053 
L 1275 0 
L 697 0 
L 697 3053 
L 147 3053 
L 147 3500 
L 697 3500 
L 697 3744 
Q 697 4328 969 4595 
Q 1241 4863 1831 4863 
L 2375 4863 
z
" id="DejaVuSans-66" transform="scale(0.015625)"/>
      <path d="M 1556 2509 
Q 1272 2256 1139 2004 
Q 1006 1753 1006 1478 
Q 1006 1022 1337 719 
Q 1669 416 2169 416 
Q 2466 416 2725 514 
Q 2984 613 3213 813 
L 1556 2509 
z
M 1997 2859 
L 3584 1234 
Q 3769 1513 3872 1830 
Q 3975 2147 3994 2503 
L 4575 2503 
Q 4538 2091 4375 1687 
Q 4213 1284 3922 891 
L 4794 0 
L 4006 0 
L 3559 459 
Q 3234 181 2878 45 
Q 2522 -91 2113 -91 
Q 1359 -91 881 339 
Q 403 769 403 1441 
Q 403 1841 612 2192 
Q 822 2544 1241 2853 
Q 1091 3050 1012 3245 
Q 934 3441 934 3628 
Q 934 4134 1281 4442 
Q 1628 4750 2203 4750 
Q 2463 4750 2720 4694 
Q 2978 4638 3244 4525 
L 3244 3956 
Q 2972 4103 2725 4179 
Q 2478 4256 2266 4256 
Q 1938 4256 1733 4082 
Q 1528 3909 1528 3634 
Q 1528 3475 1620 3314 
Q 1713 3153 1997 2859 
z
" id="DejaVuSans-26" transform="scale(0.015625)"/>
      <path d="M 750 3309 
L 1409 3309 
L 1409 2516 
L 750 2516 
L 750 3309 
z
M 750 794 
L 1409 794 
L 1409 256 
L 897 -744 
L 494 -744 
L 750 256 
L 750 794 
z
" id="DejaVuSans-3b" transform="scale(0.015625)"/>
     </defs>
     <use xlink:href="#DejaVuSans-46"/>
     <use x="50.269531" xlink:href="#DejaVuSans-69"/>
     <use x="78.052734" xlink:href="#DejaVuSans-66"/>
     <use x="113.257812" xlink:href="#DejaVuSans-65"/>
     <use x="174.78125" xlink:href="#DejaVuSans-20"/>
     <use x="206.568359" xlink:href="#DejaVuSans-26"/>
     <use x="284.546875" xlink:href="#DejaVuSans-61"/>
     <use x="345.826172" xlink:href="#DejaVuSans-6d"/>
     <use x="443.238281" xlink:href="#DejaVuSans-70"/>
     <use x="506.714844" xlink:href="#DejaVuSans-3b"/>
     <use x="540.40625" xlink:href="#DejaVuSans-20"/>
     <use x="572.193359" xlink:href="#DejaVuSans-44"/>
     <use x="649.195312" xlink:href="#DejaVuSans-72"/>
     <use x="690.308594" xlink:href="#DejaVuSans-75"/>
     <use x="753.6875" xlink:href="#DejaVuSans-6d"/>
    </g>
   </g>
   <g id="text_6">
    <g id="patch_7">
     <path d="M 81.597969 33.460592 
L 83.881921 61.115502 
L 85.850842 60.952893 
L 83.56689 33.297983 
z
" style="fill:#ffffff;"/>
    </g>
    <!-- Upper Lafeyette Leap 24.1° -->
    <g style="fill:#4169e1;" transform="translate(82.034073 33.444643)rotate(-274.721205)scale(0.02 -0.02)">
     <defs>
      <path d="M 556 4666 
L 1191 4666 
L 1191 1831 
Q 1191 1081 1462 751 
Q 1734 422 2344 422 
Q 2950 422 3222 751 
Q 3494 1081 3494 1831 
L 3494 4666 
L 4128 4666 
L 4128 1753 
Q 4128 841 3676 375 
Q 3225 -91 2344 -91 
Q 1459 -91 1007 375 
Q 556 841 556 1753 
L 556 4666 
z
" id="DejaVuSans-55" transform="scale(0.015625)"/>
      <path d="M 628 4666 
L 1259 4666 
L 1259 531 
L 3531 531 
L 3531 0 
L 628 0 
L 628 4666 
z
" id="DejaVuSans-4c" transform="scale(0.015625)"/>
      <path d="M 1228 531 
L 3431 531 
L 3431 0 
L 469 0 
L 469 531 
Q 828 903 1448 1529 
Q 2069 2156 2228 2338 
Q 2531 2678 2651 2914 
Q 2772 3150 2772 3378 
Q 2772 3750 2511 3984 
Q 2250 4219 1831 4219 
Q 1534 4219 1204 4116 
Q 875 4013 500 3803 
L 500 4441 
Q 881 4594 1212 4672 
Q 1544 4750 1819 4750 
Q 2544 4750 2975 4387 
Q 3406 4025 3406 3419 
Q 3406 3131 3298 2873 
Q 3191 2616 2906 2266 
Q 2828 2175 2409 1742 
Q 1991 1309 1228 531 
z
" id="DejaVuSans-32" transform="scale(0.015625)"/>
      <path d="M 2419 4116 
L 825 1625 
L 2419 1625 
L 2419 4116 
z
M 2253 4666 
L 3047 4666 
L 3047 1625 
L 3713 1625 
L 3713 1100 
L 3047 1100 
L 3047 0 
L 2419 0 
L 2419 1100 
L 313 1100 
L 313 1709 
L 2253 4666 
z
" id="DejaVuSans-34" transform="scale(0.015625)"/>
      <path d="M 684 794 
L 1344 794 
L 1344 0 
L 684 0 
L 684 794 
z
" id="DejaVuSans-2e" transform="scale(0.015625)"/>
      <path d="M 794 531 
L 1825 531 
L 1825 4091 
L 703 3866 
L 703 4441 
L 1819 4666 
L 2450 4666 
L 2450 531 
L 3481 531 
L 3481 0 
L 794 0 
L 794 531 
z
" id="DejaVuSans-31" transform="scale(0.015625)"/>
      <path d="M 1600 4347 
Q 1350 4347 1178 4173 
Q 1006 4000 1006 3750 
Q 1006 3503 1178 3333 
Q 1350 3163 1600 3163 
Q 1850 3163 2022 3333 
Q 2194 3503 2194 3750 
Q 2194 3997 2020 4172 
Q 1847 4347 1600 4347 
z
M 1600 4750 
Q 1800 4750 1984 4673 
Q 2169 4597 2303 4453 
Q 2447 4313 2519 4134 
Q 2591 3956 2591 3750 
Q 2591 3338 2302 3052 
Q 2013 2766 1594 2766 
Q 1172 2766 890 3047 
Q 609 3328 609 3750 
Q 609 4169 896 4459 
Q 1184 4750 1600 4750 
z
" id="DejaVuSans-b0" transform="scale(0.015625)"/>
     </defs>
     <use xlink:href="#DejaVuSans-55"/>
     <use x="73.193359" xlink:href="#DejaVuSans-70"/>
     <use x="136.669922" xlink:href="#DejaVuSans-70"/>
     <use x="200.146484" xlink:href="#DejaVuSans-65"/>
     <use x="261.669922" xlink:href="#DejaVuSans-72"/>
     <use x="302.783203" xlink:href="#DejaVuSans-20"/>
     <use x="334.570312" xlink:href="#DejaVuSans-4c"/>
     <use x="390.283203" xlink:href="#DejaVuSans-61"/>
     <use x="451.5625" xlink:href="#DejaVuSans-66"/>
     <use x="486.767578" xlink:href="#DejaVuSans-65"/>
     <use x="548.291016" xlink:href="#DejaVuSans-79"/>
     <use x="607.470703" xlink:href="#DejaVuSans-65"/>
     <use x="668.994141" xlink:href="#DejaVuSans-74"/>
     <use x="708.203125" xlink:href="#DejaVuSans-74"/>
     <use x="747.412109" xlink:href="#DejaVuSans-65"/>
     <use x="808.935547" xlink:href="#DejaVuSans-20"/>
     <use x="840.722656" xlink:href="#DejaVuSans-4c"/>
     <use x="894.685547" xlink:href="#DejaVuSans-65"/>
     <use x="956.208984" xlink:href="#DejaVuSans-61"/>
     <use x="1017.488281" xlink:href="#DejaVuSans-70"/>
     <use x="1080.964844" xlink:href="#DejaVuSans-20"/>
     <use x="1112.751953" xlink:href="#DejaVuSans-32"/>
     <use x="1176.375" xlink:href="#DejaVuSans-34"/>
     <use x="1239.998047" xlink:href="#DejaVuSans-2e"/>
     <use x="1271.785156" xlink:href="#DejaVuSans-31"/>
     <use x="1335.408203" xlink:href="#DejaVuSans-b0"/>
    </g>
   </g>
   <g id="text_7">
    <g id="patch_8">
     <path d="M 101.800064 88.827088 
L 104.931737 73.292099 
L 102.995071 72.90169 
L 99.863398 88.436679 
z
" style="fill:#ffffff;"/>
    </g>
    <!-- Fanny Hill 12.2° -->
    <g style="fill:#008000;" transform="translate(101.376675 88.721336)rotate(-78.602589)scale(0.02 -0.02)">
     <defs>
      <path d="M 628 4666 
L 1259 4666 
L 1259 2753 
L 3553 2753 
L 3553 4666 
L 4184 4666 
L 4184 0 
L 3553 0 
L 3553 2222 
L 1259 2222 
L 1259 0 
L 628 0 
L 628 4666 
z
" id="DejaVuSans-48" transform="scale(0.015625)"/>
     </defs>
     <use xlink:href="#DejaVuSans-46"/>
     <use x="48.394531" xlink:href="#DejaVuSans-61"/>
     <use x="109.673828" xlink:href="#DejaVuSans-6e"/>
     <use x="173.052734" xlink:href="#DejaVuSans-6e"/>
     <use x="236.431641" xlink:href="#DejaVuSans-79"/>
     <use x="295.611328" xlink:href="#DejaVuSans-20"/>
     <use x="327.398438" xlink:href="#DejaVuSans-48"/>
     <use x="402.59375" xlink:href="#DejaVuSans-69"/>
     <use x="430.376953" xlink:href="#DejaVuSans-6c"/>
     <use x="458.160156" xlink:href="#DejaVuSans-6c"/>
     <use x="485.943359" xlink:href="#DejaVuSans-20"/>
     <use x="517.730469" xlink:href="#DejaVuSans-31"/>
     <use x="581.353516" xlink:href="#DejaVuSans-32"/>
     <use x="644.976562" xlink:href="#DejaVuSans-2e"/>
     <use x="676.763672" xlink:href="#DejaVuSans-32"/>
     <use x="740.386719" xlink:href="#DejaVuSans-b0"/>
    </g>
   </g>
   <g id="text_8">
    <g id="patch_9">
     <path d="M 33.831356 37.678257 
L 45.809893 26.981614 
L 44.493991 25.508014 
L 32.515454 36.204657 
z
" style="fill:#ffffff;"/>
    </g>
    <!-- Gunbarrel 35.0° -->
    <g style="fill:#ff0000;" transform="translate(33.555909 37.339774)rotate(-41.764348)scale(0.02 -0.02)">
     <defs>
      <path d="M 3809 666 
L 3809 1919 
L 2778 1919 
L 2778 2438 
L 4434 2438 
L 4434 434 
Q 4069 175 3628 42 
Q 3188 -91 2688 -91 
Q 1594 -91 976 548 
Q 359 1188 359 2328 
Q 359 3472 976 4111 
Q 1594 4750 2688 4750 
Q 3144 4750 3555 4637 
Q 3966 4525 4313 4306 
L 4313 3634 
Q 3963 3931 3569 4081 
Q 3175 4231 2741 4231 
Q 1884 4231 1454 3753 
Q 1025 3275 1025 2328 
Q 1025 1384 1454 906 
Q 1884 428 2741 428 
Q 3075 428 3337 486 
Q 3600 544 3809 666 
z
" id="DejaVuSans-47" transform="scale(0.015625)"/>
      <path d="M 2597 2516 
Q 3050 2419 3304 2112 
Q 3559 1806 3559 1356 
Q 3559 666 3084 287 
Q 2609 -91 1734 -91 
Q 1441 -91 1130 -33 
Q 819 25 488 141 
L 488 750 
Q 750 597 1062 519 
Q 1375 441 1716 441 
Q 2309 441 2620 675 
Q 2931 909 2931 1356 
Q 2931 1769 2642 2001 
Q 2353 2234 1838 2234 
L 1294 2234 
L 1294 2753 
L 1863 2753 
Q 2328 2753 2575 2939 
Q 2822 3125 2822 3475 
Q 2822 3834 2567 4026 
Q 2313 4219 1838 4219 
Q 1578 4219 1281 4162 
Q 984 4106 628 3988 
L 628 4550 
Q 988 4650 1302 4700 
Q 1616 4750 1894 4750 
Q 2613 4750 3031 4423 
Q 3450 4097 3450 3541 
Q 3450 3153 3228 2886 
Q 3006 2619 2597 2516 
z
" id="DejaVuSans-33" transform="scale(0.015625)"/>
      <path d="M 691 4666 
L 3169 4666 
L 3169 4134 
L 1269 4134 
L 1269 2991 
Q 1406 3038 1543 3061 
Q 1681 3084 1819 3084 
Q 2600 3084 3056 2656 
Q 3513 2228 3513 1497 
Q 3513 744 3044 326 
Q 2575 -91 1722 -91 
Q 1428 -91 1123 -41 
Q 819 9 494 109 
L 494 744 
Q 775 591 1075 516 
Q 1375 441 1709 441 
Q 2250 441 2565 725 
Q 2881 1009 2881 1497 
Q 2881 1984 2565 2268 
Q 2250 2553 1709 2553 
Q 1456 2553 1204 2497 
Q 953 2441 691 2322 
L 691 4666 
z
" id="DejaVuSans-35" transform="scale(0.015625)"/>
      <path d="M 2034 4250 
Q 1547 4250 1301 3770 
Q 1056 3291 1056 2328 
Q 1056 1369 1301 889 
Q 1547 409 2034 409 
Q 2525 409 2770 889 
Q 3016 1369 3016 2328 
Q 3016 3291 2770 3770 
Q 2525 4250 2034 4250 
z
M 2034 4750 
Q 2819 4750 3233 4129 
Q 3647 3509 3647 2328 
Q 3647 1150 3233 529 
Q 2819 -91 2034 -91 
Q 1250 -91 836 529 
Q 422 1150 422 2328 
Q 422 3509 836 4129 
Q 1250 4750 2034 4750 
z
" id="DejaVuSans-30" transform="scale(0.015625)"/>
     </defs>
     <use xlink:href="#DejaVuSans-47"/>
     <use x="77.490234" xlink:href="#DejaVuSans-75"/>
     <use x="140.869141" xlink:href="#DejaVuSans-6e"/>
     <use x="204.248047" xlink:href="#DejaVuSans-62"/>
     <use x="267.724609" xlink:href="#DejaVuSans-61"/>
     <use x="329.003906" xlink:href="#DejaVuSans-72"/>
     <use x="368.367188" xlink:href="#DejaVuSans-72"/>
     <use x="407.230469" xlink:href="#DejaVuSans-65"/>
     <use x="468.753906" xlink:href="#DejaVuSans-6c"/>
     <use x="496.537109" xlink:href="#DejaVuSans-20"/>
     <use x="528.324219" xlink:href="#DejaVuSans-33"/>
     <use x="591.947266" xlink:href="#DejaVuSans-35"/>
     <use x="655.570312" xlink:href="#DejaVuSans-2e"/>
     <use x="687.357422" xlink:href="#DejaVuSans-30"/>
     <use x="750.980469" xlink:href="#DejaVuSans-b0"/>
    </g>
   </g>
   <g id="text_9">
    <g id="patch_10">
     <path d="M 70.073856 73.74924 
L 70.76899 56.362193 
L 68.794942 56.28327 
L 68.099808 73.670318 
z
" style="fill:#ffffff;"/>
    </g>
    <!-- Minuteman 21.7° -->
    <g style="fill:#4169e1;" transform="translate(69.639065 73.711841)rotate(-87.710535)scale(0.02 -0.02)">
     <defs>
      <path d="M 525 4666 
L 3525 4666 
L 3525 4397 
L 1831 0 
L 1172 0 
L 2766 4134 
L 525 4134 
L 525 4666 
z
" id="DejaVuSans-37" transform="scale(0.015625)"/>
     </defs>
     <use xlink:href="#DejaVuSans-4d"/>
     <use x="86.279297" xlink:href="#DejaVuSans-69"/>
     <use x="114.0625" xlink:href="#DejaVuSans-6e"/>
     <use x="177.441406" xlink:href="#DejaVuSans-75"/>
     <use x="240.820312" xlink:href="#DejaVuSans-74"/>
     <use x="280.029297" xlink:href="#DejaVuSans-65"/>
     <use x="341.552734" xlink:href="#DejaVuSans-6d"/>
     <use x="438.964844" xlink:href="#DejaVuSans-61"/>
     <use x="500.244141" xlink:href="#DejaVuSans-6e"/>
     <use x="563.623047" xlink:href="#DejaVuSans-20"/>
     <use x="595.410156" xlink:href="#DejaVuSans-32"/>
     <use x="659.033203" xlink:href="#DejaVuSans-31"/>
     <use x="722.65625" xlink:href="#DejaVuSans-2e"/>
     <use x="754.443359" xlink:href="#DejaVuSans-37"/>
     <use x="818.066406" xlink:href="#DejaVuSans-b0"/>
    </g>
   </g>
   <g id="text_10">
    <g id="patch_11">
     <path d="M 44.060608 55.221167 
L 54.250078 42.813193 
L 52.723292 41.559392 
L 42.533822 53.967365 
z
" style="fill:#ffffff;"/>
    </g>
    <!-- Exhibition 22.2° -->
    <g style="fill:#4169e1;" transform="translate(43.736403 54.929049)rotate(-50.607046)scale(0.02 -0.02)">
     <use xlink:href="#DejaVuSans-45"/>
     <use x="63.183594" xlink:href="#DejaVuSans-78"/>
     <use x="122.363281" xlink:href="#DejaVuSans-68"/>
     <use x="185.742188" xlink:href="#DejaVuSans-69"/>
     <use x="213.525391" xlink:href="#DejaVuSans-62"/>
     <use x="277.001953" xlink:href="#DejaVuSans-69"/>
     <use x="304.785156" xlink:href="#DejaVuSans-74"/>
     <use x="343.994141" xlink:href="#DejaVuSans-69"/>
     <use x="371.777344" xlink:href="#DejaVuSans-6f"/>
     <use x="432.958984" xlink:href="#DejaVuSans-6e"/>
     <use x="496.337891" xlink:href="#DejaVuSans-20"/>
     <use x="528.125" xlink:href="#DejaVuSans-32"/>
     <use x="591.748047" xlink:href="#DejaVuSans-32"/>
     <use x="655.371094" xlink:href="#DejaVuSans-2e"/>
     <use x="687.158203" xlink:href="#DejaVuSans-32"/>
     <use x="750.78125" xlink:href="#DejaVuSans-b0"/>
    </g>
   </g>
   <g id="text_11">
    <g id="patch_12">
     <path d="M 47.381512 61.88405 
L 48.132422 81.59913 
L 50.106616 81.523937 
L 49.355705 61.808857 
z
" style="fill:#ffffff;"/>
    </g>
    <!-- Susquehanna 18.1° -->
    <g style="fill:#4169e1;" transform="translate(47.817895 61.887444)rotate(-272.181234)scale(0.02 -0.02)">
     <defs>
      <path d="M 3425 4513 
L 3425 3897 
Q 3066 4069 2747 4153 
Q 2428 4238 2131 4238 
Q 1616 4238 1336 4038 
Q 1056 3838 1056 3469 
Q 1056 3159 1242 3001 
Q 1428 2844 1947 2747 
L 2328 2669 
Q 3034 2534 3370 2195 
Q 3706 1856 3706 1288 
Q 3706 609 3251 259 
Q 2797 -91 1919 -91 
Q 1588 -91 1214 -16 
Q 841 59 441 206 
L 441 856 
Q 825 641 1194 531 
Q 1563 422 1919 422 
Q 2459 422 2753 634 
Q 3047 847 3047 1241 
Q 3047 1584 2836 1778 
Q 2625 1972 2144 2069 
L 1759 2144 
Q 1053 2284 737 2584 
Q 422 2884 422 3419 
Q 422 4038 858 4394 
Q 1294 4750 2059 4750 
Q 2388 4750 2728 4690 
Q 3069 4631 3425 4513 
z
" id="DejaVuSans-53" transform="scale(0.015625)"/>
      <path d="M 2834 3397 
L 2834 2853 
Q 2591 2978 2328 3040 
Q 2066 3103 1784 3103 
Q 1356 3103 1142 2972 
Q 928 2841 928 2578 
Q 928 2378 1081 2264 
Q 1234 2150 1697 2047 
L 1894 2003 
Q 2506 1872 2764 1633 
Q 3022 1394 3022 966 
Q 3022 478 2636 193 
Q 2250 -91 1575 -91 
Q 1294 -91 989 -36 
Q 684 19 347 128 
L 347 722 
Q 666 556 975 473 
Q 1284 391 1588 391 
Q 1994 391 2212 530 
Q 2431 669 2431 922 
Q 2431 1156 2273 1281 
Q 2116 1406 1581 1522 
L 1381 1569 
Q 847 1681 609 1914 
Q 372 2147 372 2553 
Q 372 3047 722 3315 
Q 1072 3584 1716 3584 
Q 2034 3584 2315 3537 
Q 2597 3491 2834 3397 
z
" id="DejaVuSans-73" transform="scale(0.015625)"/>
      <path d="M 947 1747 
Q 947 1113 1208 752 
Q 1469 391 1925 391 
Q 2381 391 2643 752 
Q 2906 1113 2906 1747 
Q 2906 2381 2643 2742 
Q 2381 3103 1925 3103 
Q 1469 3103 1208 2742 
Q 947 2381 947 1747 
z
M 2906 525 
Q 2725 213 2448 61 
Q 2172 -91 1784 -91 
Q 1150 -91 751 415 
Q 353 922 353 1747 
Q 353 2572 751 3078 
Q 1150 3584 1784 3584 
Q 2172 3584 2448 3432 
Q 2725 3281 2906 2969 
L 2906 3500 
L 3481 3500 
L 3481 -1331 
L 2906 -1331 
L 2906 525 
z
" id="DejaVuSans-71" transform="scale(0.015625)"/>
      <path d="M 2034 2216 
Q 1584 2216 1326 1975 
Q 1069 1734 1069 1313 
Q 1069 891 1326 650 
Q 1584 409 2034 409 
Q 2484 409 2743 651 
Q 3003 894 3003 1313 
Q 3003 1734 2745 1975 
Q 2488 2216 2034 2216 
z
M 1403 2484 
Q 997 2584 770 2862 
Q 544 3141 544 3541 
Q 544 4100 942 4425 
Q 1341 4750 2034 4750 
Q 2731 4750 3128 4425 
Q 3525 4100 3525 3541 
Q 3525 3141 3298 2862 
Q 3072 2584 2669 2484 
Q 3125 2378 3379 2068 
Q 3634 1759 3634 1313 
Q 3634 634 3220 271 
Q 2806 -91 2034 -91 
Q 1263 -91 848 271 
Q 434 634 434 1313 
Q 434 1759 690 2068 
Q 947 2378 1403 2484 
z
M 1172 3481 
Q 1172 3119 1398 2916 
Q 1625 2713 2034 2713 
Q 2441 2713 2670 2916 
Q 2900 3119 2900 3481 
Q 2900 3844 2670 4047 
Q 2441 4250 2034 4250 
Q 1625 4250 1398 4047 
Q 1172 3844 1172 3481 
z
" id="DejaVuSans-38" transform="scale(0.015625)"/>
     </defs>
     <use xlink:href="#DejaVuSans-53"/>
     <use x="63.476562" xlink:href="#DejaVuSans-75"/>
     <use x="126.855469" xlink:href="#DejaVuSans-73"/>
     <use x="178.955078" xlink:href="#DejaVuSans-71"/>
     <use x="242.431641" xlink:href="#DejaVuSans-75"/>
     <use x="305.810547" xlink:href="#DejaVuSans-65"/>
     <use x="367.333984" xlink:href="#DejaVuSans-68"/>
     <use x="430.712891" xlink:href="#DejaVuSans-61"/>
     <use x="491.992188" xlink:href="#DejaVuSans-6e"/>
     <use x="555.371094" xlink:href="#DejaVuSans-6e"/>
     <use x="618.75" xlink:href="#DejaVuSans-61"/>
     <use x="680.029297" xlink:href="#DejaVuSans-20"/>
     <use x="711.816406" xlink:href="#DejaVuSans-31"/>
     <use x="775.439453" xlink:href="#DejaVuSans-38"/>
     <use x="839.0625" xlink:href="#DejaVuSans-2e"/>
     <use x="870.849609" xlink:href="#DejaVuSans-31"/>
     <use x="934.472656" xlink:href="#DejaVuSans-b0"/>
    </g>
   </g>
   <g id="text_12">
    <g id="patch_13">
     <path d="M 88.231649 38.071013 
L 101.422391 52.104969 
L 102.861947 50.751908 
L 89.671205 36.717952 
z
" style="fill:#ffffff;"/>
    </g>
    <!-- Barrett's trail 20.7° -->
    <g style="fill:#4169e1;" transform="translate(88.562996 37.787022)rotate(-313.22598)scale(0.02 -0.02)">
     <defs>
      <path d="M 1147 4666 
L 1147 2931 
L 616 2931 
L 616 4666 
L 1147 4666 
z
" id="DejaVuSans-27" transform="scale(0.015625)"/>
     </defs>
     <use xlink:href="#DejaVuSans-42"/>
     <use x="68.603516" xlink:href="#DejaVuSans-61"/>
     <use x="129.882812" xlink:href="#DejaVuSans-72"/>
     <use x="169.246094" xlink:href="#DejaVuSans-72"/>
     <use x="208.109375" xlink:href="#DejaVuSans-65"/>
     <use x="269.632812" xlink:href="#DejaVuSans-74"/>
     <use x="308.841797" xlink:href="#DejaVuSans-74"/>
     <use x="348.050781" xlink:href="#DejaVuSans-27"/>
     <use x="375.541016" xlink:href="#DejaVuSans-73"/>
     <use x="427.640625" xlink:href="#DejaVuSans-20"/>
     <use x="459.427734" xlink:href="#DejaVuSans-74"/>
     <use x="498.636719" xlink:href="#DejaVuSans-72"/>
     <use x="539.75" xlink:href="#DejaVuSans-61"/>
     <use x="601.029297" xlink:href="#DejaVuSans-69"/>
     <use x="628.8125" xlink:href="#DejaVuSans-6c"/>
     <use x="656.595703" xlink:href="#DejaVuSans-20"/>
     <use x="688.382812" xlink:href="#DejaVuSans-32"/>
     <use x="752.005859" xlink:href="#DejaVuSans-30"/>
     <use x="815.628906" xlink:href="#DejaVuSans-2e"/>
     <use x="847.416016" xlink:href="#DejaVuSans-37"/>
     <use x="911.039062" xlink:href="#DejaVuSans-b0"/>
    </g>
   </g>
   <g id="text_13">
    <g id="patch_14">
     <path d="M 48.78538 35.928737 
L 59.375636 26.898124 
L 58.093746 25.394843 
L 47.50349 34.425456 
z
" style="fill:#ffffff;"/>
    </g>
    <!-- Ramrod 28.3° -->
    <g transform="translate(48.517739 35.584049)rotate(-40.455172)scale(0.02 -0.02)">
     <use xlink:href="#DejaVuSans-52"/>
     <use x="67.232422" xlink:href="#DejaVuSans-61"/>
     <use x="128.511719" xlink:href="#DejaVuSans-6d"/>
     <use x="225.923828" xlink:href="#DejaVuSans-72"/>
     <use x="264.787109" xlink:href="#DejaVuSans-6f"/>
     <use x="325.96875" xlink:href="#DejaVuSans-64"/>
     <use x="389.445312" xlink:href="#DejaVuSans-20"/>
     <use x="421.232422" xlink:href="#DejaVuSans-32"/>
     <use x="484.855469" xlink:href="#DejaVuSans-38"/>
     <use x="548.478516" xlink:href="#DejaVuSans-2e"/>
     <use x="580.265625" xlink:href="#DejaVuSans-33"/>
     <use x="643.888672" xlink:href="#DejaVuSans-b0"/>
    </g>
   </g>
   <g id="text_14">
    <g id="patch_15">
     <path d="M 87.396231 83.671636 
L 92.20368 64.014723 
L 90.284615 63.545381 
L 85.477166 83.202295 
z
" style="fill:#ffffff;"/>
    </g>
    <!-- Fife and Drum 16.3° -->
    <g style="fill:#008000;" transform="translate(86.977526 83.548645)rotate(-76.25706)scale(0.02 -0.02)">
     <defs>
      <path d="M 2113 2584 
Q 1688 2584 1439 2293 
Q 1191 2003 1191 1497 
Q 1191 994 1439 701 
Q 1688 409 2113 409 
Q 2538 409 2786 701 
Q 3034 994 3034 1497 
Q 3034 2003 2786 2293 
Q 2538 2584 2113 2584 
z
M 3366 4563 
L 3366 3988 
Q 3128 4100 2886 4159 
Q 2644 4219 2406 4219 
Q 1781 4219 1451 3797 
Q 1122 3375 1075 2522 
Q 1259 2794 1537 2939 
Q 1816 3084 2150 3084 
Q 2853 3084 3261 2657 
Q 3669 2231 3669 1497 
Q 3669 778 3244 343 
Q 2819 -91 2113 -91 
Q 1303 -91 875 529 
Q 447 1150 447 2328 
Q 447 3434 972 4092 
Q 1497 4750 2381 4750 
Q 2619 4750 2861 4703 
Q 3103 4656 3366 4563 
z
" id="DejaVuSans-36" transform="scale(0.015625)"/>
     </defs>
     <use xlink:href="#DejaVuSans-46"/>
     <use x="50.269531" xlink:href="#DejaVuSans-69"/>
     <use x="78.052734" xlink:href="#DejaVuSans-66"/>
     <use x="113.257812" xlink:href="#DejaVuSans-65"/>
     <use x="174.78125" xlink:href="#DejaVuSans-20"/>
     <use x="206.568359" xlink:href="#DejaVuSans-61"/>
     <use x="267.847656" xlink:href="#DejaVuSans-6e"/>
     <use x="331.226562" xlink:href="#DejaVuSans-64"/>
     <use x="394.703125" xlink:href="#DejaVuSans-20"/>
     <use x="426.490234" xlink:href="#DejaVuSans-44"/>
     <use x="503.492188" xlink:href="#DejaVuSans-72"/>
     <use x="544.605469" xlink:href="#DejaVuSans-75"/>
     <use x="607.984375" xlink:href="#DejaVuSans-6d"/>
     <use x="705.396484" xlink:href="#DejaVuSans-20"/>
     <use x="737.183594" xlink:href="#DejaVuSans-31"/>
     <use x="800.806641" xlink:href="#DejaVuSans-36"/>
     <use x="864.429688" xlink:href="#DejaVuSans-2e"/>
     <use x="896.216797" xlink:href="#DejaVuSans-33"/>
     <use x="959.839844" xlink:href="#DejaVuSans-b0"/>
    </g>
   </g>
   <g id="text_15">
    <g id="patch_16">
     <path d="M 61.801782 67.300457 
L 64.572261 54.406618 
L 62.640721 53.991591 
L 59.870242 66.88543 
z
" style="fill:#ffffff;"/>
    </g>
    <!-- Recruit 17.2° -->
    <g style="fill:#4169e1;" transform="translate(61.379774 67.189324)rotate(-77.873328)scale(0.02 -0.02)">
     <defs>
      <path d="M 3122 3366 
L 3122 2828 
Q 2878 2963 2633 3030 
Q 2388 3097 2138 3097 
Q 1578 3097 1268 2742 
Q 959 2388 959 1747 
Q 959 1106 1268 751 
Q 1578 397 2138 397 
Q 2388 397 2633 464 
Q 2878 531 3122 666 
L 3122 134 
Q 2881 22 2623 -34 
Q 2366 -91 2075 -91 
Q 1284 -91 818 406 
Q 353 903 353 1747 
Q 353 2603 823 3093 
Q 1294 3584 2113 3584 
Q 2378 3584 2631 3529 
Q 2884 3475 3122 3366 
z
" id="DejaVuSans-63" transform="scale(0.015625)"/>
     </defs>
     <use xlink:href="#DejaVuSans-52"/>
     <use x="64.982422" xlink:href="#DejaVuSans-65"/>
     <use x="126.505859" xlink:href="#DejaVuSans-63"/>
     <use x="181.486328" xlink:href="#DejaVuSans-72"/>
     <use x="222.599609" xlink:href="#DejaVuSans-75"/>
     <use x="285.978516" xlink:href="#DejaVuSans-69"/>
     <use x="313.761719" xlink:href="#DejaVuSans-74"/>
     <use x="352.970703" xlink:href="#DejaVuSans-20"/>
     <use x="384.757812" xlink:href="#DejaVuSans-31"/>
     <use x="448.380859" xlink:href="#DejaVuSans-37"/>
     <use x="512.003906" xlink:href="#DejaVuSans-2e"/>
     <use x="543.791016" xlink:href="#DejaVuSans-32"/>
     <use x="607.414062" xlink:href="#DejaVuSans-b0"/>
    </g>
   </g>
   <g id="text_16">
    <g id="patch_17">
     <path d="M 71.764324 61.341874 
L 89.559925 82.549385 
L 91.073328 81.279461 
L 73.277727 60.071951 
z
" style="fill:#ffffff;"/>
    </g>
    <!-- Lower Lafeyette Leap 14.1° -->
    <g style="fill:#008000;" transform="translate(72.111125 61.076976)rotate(-310.000613)scale(0.02 -0.02)">
     <defs>
      <path d="M 269 3500 
L 844 3500 
L 1563 769 
L 2278 3500 
L 2956 3500 
L 3675 769 
L 4391 3500 
L 4966 3500 
L 4050 0 
L 3372 0 
L 2619 2869 
L 1863 0 
L 1184 0 
L 269 3500 
z
" id="DejaVuSans-77" transform="scale(0.015625)"/>
     </defs>
     <use xlink:href="#DejaVuSans-4c"/>
     <use x="53.962891" xlink:href="#DejaVuSans-6f"/>
     <use x="115.144531" xlink:href="#DejaVuSans-77"/>
     <use x="196.931641" xlink:href="#DejaVuSans-65"/>
     <use x="258.455078" xlink:href="#DejaVuSans-72"/>
     <use x="299.568359" xlink:href="#DejaVuSans-20"/>
     <use x="331.355469" xlink:href="#DejaVuSans-4c"/>
     <use x="387.068359" xlink:href="#DejaVuSans-61"/>
     <use x="448.347656" xlink:href="#DejaVuSans-66"/>
     <use x="483.552734" xlink:href="#DejaVuSans-65"/>
     <use x="545.076172" xlink:href="#DejaVuSans-79"/>
     <use x="604.255859" xlink:href="#DejaVuSans-65"/>
     <use x="665.779297" xlink:href="#DejaVuSans-74"/>
     <use x="704.988281" xlink:href="#DejaVuSans-74"/>
     <use x="744.197266" xlink:href="#DejaVuSans-65"/>
     <use x="805.720703" xlink:href="#DejaVuSans-20"/>
     <use x="837.507812" xlink:href="#DejaVuSans-4c"/>
     <use x="891.470703" xlink:href="#DejaVuSans-65"/>
     <use x="952.994141" xlink:href="#DejaVuSans-61"/>
     <use x="1014.273438" xlink:href="#DejaVuSans-70"/>
     <use x="1077.75" xlink:href="#DejaVuSans-20"/>
     <use x="1109.537109" xlink:href="#DejaVuSans-31"/>
     <use x="1173.160156" xlink:href="#DejaVuSans-34"/>
     <use x="1236.783203" xlink:href="#DejaVuSans-2e"/>
     <use x="1268.570312" xlink:href="#DejaVuSans-31"/>
     <use x="1332.193359" xlink:href="#DejaVuSans-b0"/>
    </g>
   </g>
   <g id="text_17">
    <g id="patch_18">
     <path d="M 115.65011 74.479241 
L 125.76491 61.212869 
L 124.19384 60.015024 
L 114.07904 73.281396 
z
" style="fill:#ffffff;"/>
    </g>
    <!-- Powderhorn 8.8° -->
    <g style="fill:#008000;" transform="translate(115.315567 74.199023)rotate(-52.676689)scale(0.02 -0.02)">
     <defs>
      <path d="M 1259 4147 
L 1259 2394 
L 2053 2394 
Q 2494 2394 2734 2622 
Q 2975 2850 2975 3272 
Q 2975 3691 2734 3919 
Q 2494 4147 2053 4147 
L 1259 4147 
z
M 628 4666 
L 2053 4666 
Q 2838 4666 3239 4311 
Q 3641 3956 3641 3272 
Q 3641 2581 3239 2228 
Q 2838 1875 2053 1875 
L 1259 1875 
L 1259 0 
L 628 0 
L 628 4666 
z
" id="DejaVuSans-50" transform="scale(0.015625)"/>
     </defs>
     <use xlink:href="#DejaVuSans-50"/>
     <use x="56.677734" xlink:href="#DejaVuSans-6f"/>
     <use x="117.859375" xlink:href="#DejaVuSans-77"/>
     <use x="199.646484" xlink:href="#DejaVuSans-64"/>
     <use x="263.123047" xlink:href="#DejaVuSans-65"/>
     <use x="324.646484" xlink:href="#DejaVuSans-72"/>
     <use x="364.009766" xlink:href="#DejaVuSans-68"/>
     <use x="427.388672" xlink:href="#DejaVuSans-6f"/>
     <use x="488.570312" xlink:href="#DejaVuSans-72"/>
     <use x="527.933594" xlink:href="#DejaVuSans-6e"/>
     <use x="591.3125" xlink:href="#DejaVuSans-20"/>
     <use x="623.099609" xlink:href="#DejaVuSans-38"/>
     <use x="686.722656" xlink:href="#DejaVuSans-2e"/>
     <use x="718.509766" xlink:href="#DejaVuSans-38"/>
     <use x="782.132812" xlink:href="#DejaVuSans-b0"/>
    </g>
   </g>
   <g id="text_18">
    <g id="patch_19">
     <path d="M 111.835822 81.91631 
L 113.941434 61.903964 
L 111.976655 61.697239 
L 109.871042 81.709584 
z
" style="fill:#ffffff;"/>
    </g>
    <!-- Drummer Boy 13.4° -->
    <g style="fill:#008000;" transform="translate(111.40437 81.850804)rotate(-83.993685)scale(0.02 -0.02)">
     <use xlink:href="#DejaVuSans-44"/>
     <use x="77.001953" xlink:href="#DejaVuSans-72"/>
     <use x="118.115234" xlink:href="#DejaVuSans-75"/>
     <use x="181.494141" xlink:href="#DejaVuSans-6d"/>
     <use x="278.90625" xlink:href="#DejaVuSans-6d"/>
     <use x="376.318359" xlink:href="#DejaVuSans-65"/>
     <use x="437.841797" xlink:href="#DejaVuSans-72"/>
     <use x="478.955078" xlink:href="#DejaVuSans-20"/>
     <use x="510.742188" xlink:href="#DejaVuSans-42"/>
     <use x="579.345703" xlink:href="#DejaVuSans-6f"/>
     <use x="640.527344" xlink:href="#DejaVuSans-79"/>
     <use x="699.707031" xlink:href="#DejaVuSans-20"/>
     <use x="731.494141" xlink:href="#DejaVuSans-31"/>
     <use x="795.117188" xlink:href="#DejaVuSans-33"/>
     <use x="858.740234" xlink:href="#DejaVuSans-2e"/>
     <use x="890.527344" xlink:href="#DejaVuSans-34"/>
     <use x="954.150391" xlink:href="#DejaVuSans-b0"/>
    </g>
   </g>
   <g id="text_19">
    <!-- Roundtop -->
    <g transform="translate(44.733828 8.663419)scale(0.08 -0.08)">
     <use xlink:href="#DejaVuSans-52"/>
     <use x="64.982422" xlink:href="#DejaVuSans-6f"/>
     <use x="126.164062" xlink:href="#DejaVuSans-75"/>
     <use x="189.542969" xlink:href="#DejaVuSans-6e"/>
     <use x="252.921875" xlink:href="#DejaVuSans-64"/>
     <use x="316.398438" xlink:href="#DejaVuSans-74"/>
     <use x="355.607422" xlink:href="#DejaVuSans-6f"/>
     <use x="416.789062" xlink:href="#DejaVuSans-70"/>
    </g>
   </g>
   <g id="legend_1">
    <g id="line2d_41">
     <path d="M 7.943515 113.367604 
L 15.943515 113.367604 
" style="fill:none;stroke:#008000;stroke-linecap:square;stroke-width:1.5;"/>
    </g>
    <g id="line2d_42"/>
    <g id="text_20">
     <!-- Easy -->
     <g transform="translate(19.143515 114.767604)scale(0.04 -0.04)">
      <use xlink:href="#DejaVuSans-45"/>
      <use x="63.183594" xlink:href="#DejaVuSans-61"/>
      <use x="124.462891" xlink:href="#DejaVuSans-73"/>
      <use x="176.5625" xlink:href="#DejaVuSans-79"/>
     </g>
    </g>
    <g id="line2d_43">
     <path d="M 7.943515 119.238854 
L 15.943515 119.238854 
" style="fill:none;stroke:#4169e1;stroke-linecap:square;stroke-width:1.5;"/>
    </g>
    <g id="line2d_44"/>
    <g id="text_21">
     <!-- Intermediate -->
     <g transform="translate(19.143515 120.638854)scale(0.04 -0.04)">
      <defs>
       <path d="M 628 4666 
L 1259 4666 
L 1259 0 
L 628 0 
L 628 4666 
z
" id="DejaVuSans-49" transform="scale(0.015625)"/>
      </defs>
      <use xlink:href="#DejaVuSans-49"/>
      <use x="29.492188" xlink:href="#DejaVuSans-6e"/>
      <use x="92.871094" xlink:href="#DejaVuSans-74"/>
      <use x="132.080078" xlink:href="#DejaVuSans-65"/>
      <use x="193.603516" xlink:href="#DejaVuSans-72"/>
      <use x="232.966797" xlink:href="#DejaVuSans-6d"/>
      <use x="330.378906" xlink:href="#DejaVuSans-65"/>
      <use x="391.902344" xlink:href="#DejaVuSans-64"/>
      <use x="455.378906" xlink:href="#DejaVuSans-69"/>
      <use x="483.162109" xlink:href="#DejaVuSans-61"/>
      <use x="544.441406" xlink:href="#DejaVuSans-74"/>
      <use x="583.650391" xlink:href="#DejaVuSans-65"/>
     </g>
    </g>
    <g id="line2d_45">
     <path d="M 52.951015 113.367604 
L 60.951015 113.367604 
" style="fill:none;stroke:#000000;stroke-linecap:square;stroke-width:1.5;"/>
    </g>
    <g id="line2d_46"/>
    <g id="text_22">
     <!-- Advanced -->
     <g transform="translate(64.151015 114.767604)scale(0.04 -0.04)">
      <defs>
       <path d="M 2188 4044 
L 1331 1722 
L 3047 1722 
L 2188 4044 
z
M 1831 4666 
L 2547 4666 
L 4325 0 
L 3669 0 
L 3244 1197 
L 1141 1197 
L 716 0 
L 50 0 
L 1831 4666 
z
" id="DejaVuSans-41" transform="scale(0.015625)"/>
       <path d="M 191 3500 
L 800 3500 
L 1894 563 
L 2988 3500 
L 3597 3500 
L 2284 0 
L 1503 0 
L 191 3500 
z
" id="DejaVuSans-76" transform="scale(0.015625)"/>
      </defs>
      <use xlink:href="#DejaVuSans-41"/>
      <use x="66.658203" xlink:href="#DejaVuSans-64"/>
      <use x="130.134766" xlink:href="#DejaVuSans-76"/>
      <use x="189.314453" xlink:href="#DejaVuSans-61"/>
      <use x="250.59375" xlink:href="#DejaVuSans-6e"/>
      <use x="313.972656" xlink:href="#DejaVuSans-63"/>
      <use x="368.953125" xlink:href="#DejaVuSans-65"/>
      <use x="430.476562" xlink:href="#DejaVuSans-64"/>
     </g>
    </g>
    <g id="line2d_47">
     <path d="M 52.951015 119.238854 
L 60.951015 119.238854 
" style="fill:none;stroke:#ff0000;stroke-linecap:square;stroke-width:1.5;"/>
    </g>
    <g id="line2d_48"/>
    <g id="text_23">
     <!-- Expert -->
     <g transform="translate(64.151015 120.638854)scale(0.04 -0.04)">
      <use xlink:href="#DejaVuSans-45"/>
      <use x="63.183594" xlink:href="#DejaVuSans-78"/>
      <use x="122.363281" xlink:href="#DejaVuSans-70"/>
      <use x="185.839844" xlink:href="#DejaVuSans-65"/>
      <use x="247.363281" xlink:href="#DejaVuSans-72"/>
      <use x="288.476562" xlink:href="#DejaVuSans-74"/>
     </g>
    </g>
    <g id="line2d_49">
     <path d="M 91.91039 113.367604 
L 99.91039 113.367604 
" style="fill:none;stroke:#ffd700;stroke-linecap:square;stroke-width:1.5;"/>
    </g>
    <g id="line2d_50"/>
    <g id="text_24">
     <!-- Extreme -->
     <g transform="translate(103.11039 114.767604)scale(0.04 -0.04)">
      <use xlink:href="#DejaVuSans-45"/>
      <use x="63.183594" xlink:href="#DejaVuSans-78"/>
      <use x="122.363281" xlink:href="#DejaVuSans-74"/>
      <use x="161.572266" xlink:href="#DejaVuSans-72"/>
      <use x="200.435547" xlink:href="#DejaVuSans-65"/>
      <use x="261.958984" xlink:href="#DejaVuSans-6d"/>
      <use x="359.371094" xlink:href="#DejaVuSans-65"/>
     </g>
    </g>
    <g id="line2d_51">
     <path d="M 91.91039 119.238854 
L 99.91039 119.238854 
" style="fill:none;stroke:#000000;stroke-dasharray:1.5,2.475;stroke-dashoffset:0;stroke-width:1.5;"/>
    </g>
    <g id="line2d_52"/>
    <g id="text_25">
     <!-- Gladed -->
     <g transform="translate(103.11039 120.638854)scale(0.04 -0.04)">
      <use xlink:href="#DejaVuSans-47"/>
      <use x="77.490234" xlink:href="#DejaVuSans-6c"/>
      <use x="105.273438" xlink:href="#DejaVuSans-61"/>
      <use x="166.552734" xlink:href="#DejaVuSans-64"/>
      <use x="230.029297" xlink:href="#DejaVuSans-65"/>
      <use x="291.552734" xlink:href="#DejaVuSans-64"/>
     </g>
    </g>
   </g>
  </g>
  <g id="text_26">
   <!-- Sources: USGS and OpenStreetMaps -->
   <g transform="translate(32.216545 126.861177)scale(0.034783 -0.034783)">
    <defs>
     <path d="M 750 794 
L 1409 794 
L 1409 0 
L 750 0 
L 750 794 
z
M 750 3309 
L 1409 3309 
L 1409 2516 
L 750 2516 
L 750 3309 
z
" id="DejaVuSans-3a" transform="scale(0.015625)"/>
     <path d="M 2522 4238 
Q 1834 4238 1429 3725 
Q 1025 3213 1025 2328 
Q 1025 1447 1429 934 
Q 1834 422 2522 422 
Q 3209 422 3611 934 
Q 4013 1447 4013 2328 
Q 4013 3213 3611 3725 
Q 3209 4238 2522 4238 
z
M 2522 4750 
Q 3503 4750 4090 4092 
Q 4678 3434 4678 2328 
Q 4678 1225 4090 567 
Q 3503 -91 2522 -91 
Q 1538 -91 948 565 
Q 359 1222 359 2328 
Q 359 3434 948 4092 
Q 1538 4750 2522 4750 
z
" id="DejaVuSans-4f" transform="scale(0.015625)"/>
    </defs>
    <use xlink:href="#DejaVuSans-53"/>
    <use x="63.476562" xlink:href="#DejaVuSans-6f"/>
    <use x="124.658203" xlink:href="#DejaVuSans-75"/>
    <use x="188.037109" xlink:href="#DejaVuSans-72"/>
    <use x="226.900391" xlink:href="#DejaVuSans-63"/>
    <use x="281.880859" xlink:href="#DejaVuSans-65"/>
    <use x="343.404297" xlink:href="#DejaVuSans-73"/>
    <use x="395.503906" xlink:href="#DejaVuSans-3a"/>
    <use x="429.195312" xlink:href="#DejaVuSans-20"/>
    <use x="460.982422" xlink:href="#DejaVuSans-55"/>
    <use x="534.175781" xlink:href="#DejaVuSans-53"/>
    <use x="597.652344" xlink:href="#DejaVuSans-47"/>
    <use x="675.142578" xlink:href="#DejaVuSans-53"/>
    <use x="738.619141" xlink:href="#DejaVuSans-20"/>
    <use x="770.40625" xlink:href="#DejaVuSans-61"/>
    <use x="831.685547" xlink:href="#DejaVuSans-6e"/>
    <use x="895.064453" xlink:href="#DejaVuSans-64"/>
    <use x="958.541016" xlink:href="#DejaVuSans-20"/>
    <use x="990.328125" xlink:href="#DejaVuSans-4f"/>
    <use x="1069.039062" xlink:href="#DejaVuSans-70"/>
    <use x="1132.515625" xlink:href="#DejaVuSans-65"/>
    <use x="1194.039062" xlink:href="#DejaVuSans-6e"/>
    <use x="1257.417969" xlink:href="#DejaVuSans-53"/>
    <use x="1320.894531" xlink:href="#DejaVuSans-74"/>
    <use x="1360.103516" xlink:href="#DejaVuSans-72"/>
    <use x="1398.966797" xlink:href="#DejaVuSans-65"/>
    <use x="1460.490234" xlink:href="#DejaVuSans-65"/>
    <use x="1522.013672" xlink:href="#DejaVuSans-74"/>
    <use x="1561.222656" xlink:href="#DejaVuSans-4d"/>
    <use x="1647.501953" xlink:href="#DejaVuSans-61"/>
    <use x="1708.78125" xlink:href="#DejaVuSans-70"/>
    <use x="1772.257812" xlink:href="#DejaVuSans-73"/>
   </g>
  </g>
 </g>
 <defs>
  <clipPath id="p0307504acd">
   <rect height="102.257709" width="127.890156" x="0" y="12.663419"/>
  </clipPath>
 </defs>
</svg>
