<?xml version="1.0" encoding="utf-8" standalone="no"?>
<!DOCTYPE svg PUBLIC "-//W3C//DTD SVG 1.1//EN"
  "http://www.w3.org/Graphics/SVG/1.1/DTD/svg11.dtd">
<svg height="207.819987pt" version="1.1" viewBox="0 0 153.381487 207.819987" width="153.381487pt" xmlns="http://www.w3.org/2000/svg" xmlns:xlink="http://www.w3.org/1999/xlink">
 <metadata>
  <rdf:RDF xmlns:cc="http://creativecommons.org/ns#" xmlns:dc="http://purl.org/dc/elements/1.1/" xmlns:rdf="http://www.w3.org/1999/02/22-rdf-syntax-ns#">
   <cc:Work>
    <dc:type rdf:resource="http://purl.org/dc/dcmitype/StillImage"/>
    <dc:date>2022-04-14T21:32:21.967103</dc:date>
    <dc:format>image/svg+xml</dc:format>
    <dc:creator>
     <cc:Agent>
      <dc:title>Matplotlib v3.4.3, https://matplotlib.org/</dc:title>
     </cc:Agent>
    </dc:creator>
   </cc:Work>
  </rdf:RDF>
 </metadata>
 <defs>
  <style type="text/css">*{stroke-linecap:butt;stroke-linejoin:round;}</style>
 </defs>
 <g id="figure_1">
  <g id="patch_1">
   <path d="M 0 207.819987 
L 153.381487 207.819987 
L 153.381487 0 
L 0 0 
z
" style="fill:#ffffff;"/>
  </g>
  <g id="axes_1">
   <g id="patch_2">
    <path clip-path="url(#p8f78028f16)" d="M 15.454701 135.137134 
L 15.454701 135.137134 
L 17.017296 134.87538 
L 18.579891 134.613625 
L 18.330142 133.161842 
L 18.080393 131.710059 
L 17.830644 130.258275 
L 17.580895 128.806492 
L 17.331146 127.354709 
L 17.081397 125.902925 
L 16.831649 124.451142 
L 16.5819 122.999358 
L 16.332151 121.547575 
L 16.082402 120.095792 
L 15.832653 118.644008 
L 15.582904 117.192225 
L 15.333155 115.740442 
L 15.083406 114.288658 
L 14.833657 112.836875 
L 14.583908 111.385091 
L 13.020764 111.647565 
L 11.45762 111.910038 
z
" style="fill:#008000;opacity:0.1;"/>
   </g>
   <g id="patch_3">
    <path clip-path="url(#p8f78028f16)" d="M 15.454701 135.137134 
L 15.454701 135.137134 
L 17.017296 134.87538 
L 18.579891 134.613625 
L 18.330142 133.161842 
L 18.080393 131.710059 
L 17.830644 130.258275 
L 17.580895 128.806492 
L 17.331146 127.354709 
L 17.081397 125.902925 
L 16.831649 124.451142 
L 16.5819 122.999358 
L 16.332151 121.547575 
L 16.082402 120.095792 
L 15.832653 118.644008 
L 15.582904 117.192225 
L 15.333155 115.740442 
L 15.083406 114.288658 
L 14.833657 112.836875 
L 14.583908 111.385091 
L 13.020764 111.647565 
L 11.45762 111.910038 
z
" style="fill:none;stroke:#008000;stroke-linejoin:miter;"/>
   </g>
   <g id="patch_4">
    <path clip-path="url(#p8f78028f16)" d="M 114.82388 162.707625 
L 114.82388 162.707625 
L 115.932137 161.67463 
L 117.040393 160.641636 
L 118.14865 159.608641 
L 119.256906 158.575647 
L 120.365163 157.542652 
L 121.473419 156.509658 
L 122.581676 155.476663 
L 123.689932 154.443669 
L 122.084511 153.469281 
L 120.479091 152.494894 
L 119.065288 153.644024 
L 117.651486 154.793154 
L 116.370553 153.789283 
L 115.08962 152.785412 
L 113.977795 153.2291 
L 112.86597 153.672788 
L 111.754145 154.116476 
L 110.642319 154.560164 
L 109.228517 155.898418 
L 107.814714 157.236673 
z
" style="fill:#008000;opacity:0.1;"/>
   </g>
   <g id="patch_5">
    <path clip-path="url(#p8f78028f16)" d="M 114.82388 162.707625 
L 114.82388 162.707625 
L 115.932137 161.67463 
L 117.040393 160.641636 
L 118.14865 159.608641 
L 119.256906 158.575647 
L 120.365163 157.542652 
L 121.473419 156.509658 
L 122.581676 155.476663 
L 123.689932 154.443669 
L 122.084511 153.469281 
L 120.479091 152.494894 
L 119.065288 153.644024 
L 117.651486 154.793154 
L 116.370553 153.789283 
L 115.08962 152.785412 
L 113.977795 153.2291 
L 112.86597 153.672788 
L 111.754145 154.116476 
L 110.642319 154.560164 
L 109.228517 155.898418 
L 107.814714 157.236673 
z
" style="fill:none;stroke:#008000;stroke-linejoin:miter;"/>
   </g>
   <g id="line2d_1">
    <path clip-path="url(#p8f78028f16)" d="M 144.574678 129.556878 
" style="fill:none;stroke:#008000;stroke-linecap:square;stroke-width:1.5;"/>
   </g>
   <g id="line2d_2">
    <path clip-path="url(#p8f78028f16)" d="M 144.574678 129.556878 
" style="fill:none;stroke:#4169e1;stroke-linecap:square;stroke-width:1.5;"/>
   </g>
   <g id="line2d_3">
    <path clip-path="url(#p8f78028f16)" d="M 144.574678 129.556878 
" style="fill:none;stroke:#000000;stroke-linecap:square;stroke-width:1.5;"/>
   </g>
   <g id="line2d_4">
    <path clip-path="url(#p8f78028f16)" d="M 144.574678 129.556878 
" style="fill:none;stroke:#ff0000;stroke-linecap:square;stroke-width:1.5;"/>
   </g>
   <g id="line2d_5">
    <path clip-path="url(#p8f78028f16)" d="M 144.574678 129.556878 
" style="fill:none;stroke:#ffd700;stroke-linecap:square;stroke-width:1.5;"/>
   </g>
   <g id="line2d_6">
    <path clip-path="url(#p8f78028f16)" d="M 144.574678 129.556878 
" style="fill:none;stroke:#000000;stroke-dasharray:1.5,2.475;stroke-dashoffset:0;stroke-width:1.5;"/>
   </g>
   <g id="line2d_7">
    <path clip-path="url(#p8f78028f16)" d="M 111.753596 164.555725 
L 108.479064 160.456826 
L 106.075325 157.44809 
L 103.671586 154.439354 
L 100.881866 150.948099 
L 98.092145 147.456843 
L 95.179437 143.81098 
L 92.26673 140.165117 
L 89.261782 136.404197 
L 86.256834 132.643277 
L 82.547455 128.000016 
L 78.838076 123.356754 
L 76.687449 120.665143 
L 74.536822 117.973533 
L 72.386195 115.281922 
L 70.235568 112.590312 
L 66.396614 107.784532 
L 62.55766 102.978752 
L 59.342426 98.95464 
L 56.127192 94.930528 
L 53.83491 92.062017 
L 51.542628 89.193507 
L 49.08069 86.111422 
L 46.451292 82.820078 
L 43.821894 79.528734 
L 40.01149 74.759629 
L 37.8971 72.112603 
L 35.782711 69.465577 
" style="fill:none;stroke:#808080;stroke-linecap:square;stroke-width:1.5;"/>
   </g>
   <g id="line2d_8">
    <path clip-path="url(#p8f78028f16)" d="M 100.4289 179.576393 
L 96.04419 174.979873 
L 91.658383 170.384791 
L 87.621222 166.152858 
L 83.584061 161.920924 
L 80.759201 158.960368 
L 77.934341 155.999812 
L 75.330199 153.270089 
L 72.726057 150.540366 
L 69.129234 146.770817 
L 65.53241 143.001268 
L 61.993237 139.292123 
L 58.454064 135.582979 
L 56.127192 133.143775 
L 53.80032 130.70457 
L 51.473448 128.265365 
L 49.146576 125.826161 
L 46.793624 123.35999 
L 44.440673 120.893819 
L 42.087721 118.427648 
L 39.734769 115.961477 
L 35.834321 111.873364 
L 31.933873 107.785251 
L 27.991698 103.653273 
L 24.049522 99.521295 
L 20.299514 95.590666 
L 16.432009 91.536352 
" style="fill:none;stroke:#808080;stroke-linecap:square;stroke-width:1.5;"/>
   </g>
   <g id="line2d_9">
    <path clip-path="url(#p8f78028f16)" d="M 131.482043 153.677103 
L 131.676407 148.046509 
L 131.816414 143.985723 
L 131.956422 139.924936 
L 132.076664 136.433681 
L 132.196906 132.942425 
L 132.299029 129.96533 
" style="fill:none;stroke:#808080;stroke-linecap:square;stroke-width:1.5;"/>
   </g>
   <g id="line2d_10">
    <path clip-path="url(#p8f78028f16)" d="M 107.559955 169.301819 
L 104.563243 166.507017 
L 101.566531 163.712215 
L 98.569818 160.917413 
L 95.573106 158.122611 
L 91.371779 154.203488 
L 87.170452 150.284365 
L 84.789224 148.063408 
L 82.407996 145.842452 
L 80.026769 143.621496 
L 77.645541 141.40054 
L 74.660084 138.616165 
L 71.674627 135.83179 
L 68.68917 133.047415 
L 65.703714 130.263039 
L 61.99159 126.800548 
L 58.279466 123.338057 
L 54.7359 120.03305 
L 51.750993 117.249034 
L 48.766085 114.465019 
L 45.781177 111.681003 
L 42.796269 108.896988 
L 39.994744 106.28376 
L 37.193219 103.670532 
L 34.391694 101.057304 
L 31.590168 98.444075 
L 28.502314 95.564059 
L 25.414459 92.684043 
L 21.454714 88.990719 
" style="fill:none;stroke:#808080;stroke-linecap:square;stroke-width:1.5;"/>
   </g>
   <g id="line2d_11">
    <path clip-path="url(#p8f78028f16)" d="M 112.546423 163.943047 
L 109.192829 159.749226 
L 106.830817 156.795862 
L 104.468806 153.842497 
L 101.721363 150.406612 
L 98.973919 146.970728 
L 95.651071 142.815739 
L 93.368123 139.960891 
L 90.237992 136.047521 
L 87.10786 132.134151 
L 83.384756 127.477945 
L 79.661651 122.82174 
L 77.497847 120.115747 
L 75.334042 117.409754 
L 73.170238 114.703762 
L 71.006434 111.997769 
L 67.209207 107.249518 
L 63.411981 102.501267 
L 60.186315 98.467806 
L 56.960649 94.434345 
L 54.661779 91.559363 
L 52.362908 88.684381 
L 49.726372 85.388003 
L 47.114544 82.121827 
L 44.502715 78.855652 
L 40.690115 74.087985 
L 38.633376 71.515746 
L 36.576636 68.943506 
" style="fill:none;stroke:#808080;stroke-linecap:square;stroke-width:1.5;"/>
   </g>
   <g id="line2d_12">
    <path clip-path="url(#p8f78028f16)" d="M 124.645278 151.619024 
L 123.914493 148.360758 
L 123.183709 145.102493 
L 122.062 140.104712 
L 120.940292 135.106932 
L 119.574257 129.019707 
L 118.208222 122.932482 
L 116.963526 117.384586 
L 115.718831 111.836689 
L 114.389033 105.910544 
L 113.059235 99.984399 
L 111.711319 93.976275 
L 110.363402 87.968152 
L 109.00725 81.926231 
L 107.651097 75.884309 
L 106.848113 72.305323 
L 106.045128 68.726337 
L 105.242143 65.14735 
L 104.439158 61.568364 
L 103.621074 57.921782 
L 102.80299 54.2752 
L 101.984906 50.628618 
L 101.166823 46.982036 
L 100.321561 43.214284 
L 99.476299 39.446533 
L 98.631037 35.678782 
L 97.785776 31.91103 
L 96.491117 26.142369 
L 96.011248 24.00375 
" style="fill:none;stroke:#808080;stroke-linecap:square;stroke-width:1.5;"/>
   </g>
   <g id="line2d_13">
    <path clip-path="url(#p8f78028f16)" d="M 128.767542 147.196527 
L 128.797191 144.636513 
" style="fill:none;stroke:#808080;stroke-linecap:square;stroke-width:1.5;"/>
   </g>
   <g id="line2d_14">
    <path clip-path="url(#p8f78028f16)" d="M 132.44837 148.099723 
L 132.625164 144.266174 
L 132.801958 140.432624 
L 132.978752 136.599075 
L 133.155546 132.765525 
" style="fill:none;stroke:#808080;stroke-linecap:square;stroke-width:1.5;"/>
   </g>
   <g id="line2d_15">
    <path clip-path="url(#p8f78028f16)" d="M 143.199858 147.167763 
L 144.002294 142.897717 
L 144.80473 138.62767 
L 145.607166 134.357624 
L 146.409602 130.087578 
" style="fill:none;stroke:#808080;stroke-linecap:square;stroke-width:1.5;"/>
   </g>
   <g id="line2d_16">
    <path clip-path="url(#p8f78028f16)" d="M 144.574678 129.556878 
L 144.314291 131.008212 
L 144.053905 132.459546 
L 143.793518 133.91088 
L 143.533131 135.362214 
L 143.272744 136.813548 
L 143.012358 138.264882 
L 142.751971 139.716216 
L 142.491584 141.16755 
L 142.231197 142.618884 
L 141.970811 144.070218 
L 141.710424 145.521551 
L 141.450037 146.972885 
L 141.189651 148.424219 
L 140.929264 149.875553 
L 140.668877 151.326887 
L 140.40849 152.778221 
" style="fill:none;stroke:#008000;stroke-linecap:square;stroke-width:1.5;"/>
   </g>
   <g id="line2d_17">
    <path clip-path="url(#p8f78028f16)" d="M 137.581983 127.744733 
L 137.442525 129.425731 
L 137.303066 131.10673 
L 137.163608 132.787728 
L 137.024149 134.468726 
L 136.88469 136.149724 
L 136.745232 137.830722 
L 136.605773 139.51172 
L 136.466315 141.192718 
L 136.326856 142.873716 
L 136.187398 144.554715 
L 136.047939 146.235713 
L 135.90848 147.916711 
L 135.769022 149.597709 
L 135.629563 151.278707 
L 135.490105 152.959705 
L 135.350646 154.640703 
" style="fill:none;stroke:#008000;stroke-linecap:square;stroke-width:1.5;"/>
   </g>
   <g id="line2d_18">
    <path clip-path="url(#p8f78028f16)" d="M 93.800774 24.443843 
L 94.067681 25.609624 
L 94.334588 26.775406 
L 94.601494 27.941188 
L 94.868401 29.10697 
L 95.135308 30.272752 
L 95.402214 31.438533 
L 95.669121 32.604315 
L 95.936028 33.770097 
L 96.202934 34.935879 
L 96.469841 36.10166 
L 96.736748 37.267442 
L 97.003655 38.433224 
L 97.270561 39.599006 
L 97.537468 40.764788 
L 97.804375 41.930569 
L 98.071281 43.096351 
L 98.338188 44.262133 
L 98.605095 45.427915 
L 98.872001 46.593696 
L 99.138908 47.759478 
L 99.405815 48.92526 
L 99.672722 50.091042 
L 99.939628 51.256824 
L 100.206535 52.422605 
L 100.473442 53.588387 
L 100.740348 54.754169 
L 101.007255 55.919951 
L 101.274162 57.085732 
L 101.541068 58.251514 
L 101.807975 59.417296 
L 102.074882 60.583078 
L 102.341789 61.74886 
L 102.608695 62.914641 
L 102.875602 64.080423 
L 103.142509 65.246205 
L 103.409415 66.411987 
L 103.676322 67.577769 
L 103.943229 68.74355 
L 104.210135 69.909332 
L 104.477042 71.075114 
L 104.743949 72.240896 
L 105.010856 73.406677 
L 105.277762 74.572459 
L 105.544669 75.738241 
L 105.811576 76.904023 
L 106.078482 78.069805 
L 106.345389 79.235586 
L 106.612296 80.401368 
L 106.879202 81.56715 
L 107.146109 82.732932 
L 107.413016 83.898713 
L 107.679923 85.064495 
L 107.946829 86.230277 
L 108.213736 87.396059 
L 108.480643 88.561841 
L 108.747549 89.727622 
L 109.014456 90.893404 
L 109.281363 92.059186 
L 109.548269 93.224968 
L 109.815176 94.39075 
L 110.082083 95.556531 
L 110.34899 96.722313 
L 110.615896 97.888095 
L 110.882803 99.053877 
L 111.854827 100.552402 
L 112.82685 102.050927 
L 113.798874 103.549452 
L 114.770897 105.047977 
L 115.742921 106.546503 
L 116.714944 108.045028 
L 117.686968 109.543553 
L 118.658991 111.042078 
L 119.631015 112.540604 
L 120.603039 114.039129 
L 121.575062 115.537654 
L 122.547086 117.036179 
L 123.519109 118.534704 
L 124.491133 120.03323 
L 125.463156 121.531755 
L 126.43518 123.03028 
L 126.376157 124.907144 
L 126.317134 126.784009 
L 126.258111 128.660873 
L 126.199089 130.537738 
L 126.140066 132.414602 
L 126.081043 134.291466 
L 126.02202 136.168331 
L 125.962997 138.045195 
" style="fill:none;stroke:#4169e1;stroke-linecap:square;stroke-width:1.5;"/>
   </g>
   <g id="line2d_19">
    <path clip-path="url(#p8f78028f16)" d="M 92.386423 23.511882 
L 91.399781 24.763305 
L 90.413139 26.014728 
L 89.426497 27.26615 
L 88.439855 28.517573 
L 87.453213 29.768996 
L 86.466571 31.020419 
L 85.479929 32.271841 
L 84.493287 33.523264 
L 84.522661 35.458376 
L 84.552035 37.393488 
L 84.581409 39.3286 
L 84.610783 41.263712 
L 84.640157 43.198824 
L 84.669531 45.133935 
L 84.698906 47.069047 
L 84.72828 49.004159 
L 85.229013 50.604528 
L 85.729746 52.204896 
L 86.230479 53.805265 
L 86.731212 55.405633 
" style="fill:none;stroke:#008000;stroke-linecap:square;stroke-width:1.5;"/>
   </g>
   <g id="line2d_20">
    <path clip-path="url(#p8f78028f16)" d="M 37.368366 65.881557 
L 38.958413 65.183306 
L 40.548461 64.485055 
L 41.947576 64.746989 
L 43.346691 65.008923 
L 44.745807 65.270857 
L 46.144922 65.532791 
L 47.544038 65.794725 
L 48.943153 66.056659 
L 50.342269 66.318593 
L 51.741384 66.580527 
L 53.155187 65.707533 
L 54.568989 64.83454 
L 55.982792 63.961546 
L 57.396594 63.088552 
L 58.368549 62.317312 
L 59.340504 61.546072 
L 60.312459 60.774832 
L 61.284414 60.003591 
L 62.256369 59.232351 
L 63.228324 58.461111 
L 64.200279 57.689871 
L 65.172234 56.91863 
L 66.998235 56.365818 
L 68.824237 55.813006 
L 70.650238 55.260194 
L 72.47624 54.707382 
L 74.302241 54.15457 
L 76.128242 53.601758 
L 77.954244 53.048946 
L 79.780245 52.496134 
L 80.605055 53.092632 
L 81.429865 53.689129 
L 82.254674 54.285627 
L 83.079484 54.882125 
L 83.904294 55.478622 
L 84.729103 56.07512 
L 85.553913 56.671618 
L 86.378723 57.268116 
L 86.989815 58.643045 
L 87.600907 60.017974 
L 88.211999 61.392903 
L 88.823091 62.767832 
L 89.434183 64.142761 
L 90.045275 65.51769 
L 90.656367 66.892619 
L 91.26746 68.267548 
L 91.878552 69.642477 
L 92.489644 71.017406 
L 93.100736 72.392335 
L 93.711828 73.767264 
L 94.32292 75.142193 
L 94.934012 76.517122 
L 95.545104 77.892051 
L 96.156197 79.26698 
L 96.804212 80.707347 
L 97.452228 82.147715 
L 98.100244 83.588083 
L 98.748259 85.02845 
L 99.396275 86.468818 
L 100.044291 87.909185 
L 100.692307 89.349553 
L 101.340322 90.78992 
L 101.988338 92.230288 
L 102.636354 93.670656 
L 103.284369 95.111023 
L 103.932385 96.551391 
L 104.580401 97.991758 
L 105.228416 99.432126 
L 105.876432 100.872494 
L 106.524448 102.312861 
L 107.51109 103.971477 
L 108.497732 105.630093 
L 109.484374 107.288709 
L 110.471016 108.947325 
L 111.457658 110.605941 
L 112.4443 112.264557 
L 113.430942 113.923173 
L 114.417584 115.581789 
L 114.888874 116.862066 
L 115.360165 118.142343 
L 115.831455 119.422619 
L 116.302745 120.702896 
L 116.774036 121.983173 
L 117.245326 123.26345 
L 117.716617 124.543727 
L 118.187907 125.824003 
L 118.659197 127.10428 
L 119.130488 128.384557 
L 119.601778 129.664834 
L 120.073068 130.945111 
L 120.544359 132.225387 
L 121.015649 133.505664 
L 121.48694 134.785941 
L 121.95823 136.066218 
" style="fill:none;stroke:#008000;stroke-linecap:square;stroke-width:1.5;"/>
   </g>
   <g id="line2d_21">
    <path clip-path="url(#p8f78028f16)" d="M 123.725071 138.278185 
L 124.122721 139.936621 
L 124.52037 141.595058 
L 124.918019 143.253494 
L 125.315668 144.91193 
L 125.713317 146.570366 
L 126.110966 148.228803 
L 126.508615 149.887239 
L 126.906264 151.545675 
" style="fill:none;stroke:#008000;stroke-linecap:square;stroke-width:1.5;"/>
   </g>
   <g id="line2d_22">
    <path clip-path="url(#p8f78028f16)" d="M 35.129342 65.765062 
L 36.351663 66.245244 
L 37.573985 66.725427 
L 38.796306 67.205609 
L 40.018628 67.685792 
L 41.240949 68.165974 
L 42.463271 68.646157 
L 43.685592 69.126339 
L 44.907914 69.606521 
L 45.968266 70.464953 
L 47.028618 71.323385 
L 48.088969 72.181817 
L 49.149321 73.040248 
L 50.209673 73.89868 
L 51.270025 74.757112 
L 52.330377 75.615544 
L 53.390729 76.473975 
L 54.016577 78.016186 
L 54.642425 79.558397 
L 55.268272 81.100608 
L 55.89412 82.642819 
L 56.519968 84.18503 
L 57.145816 85.727241 
L 57.771664 87.269451 
L 58.397512 88.811662 
L 59.023359 90.353873 
L 59.649207 91.896084 
L 60.275055 93.438295 
L 60.900903 94.980506 
L 61.526751 96.522716 
L 62.152599 98.064927 
L 62.778446 99.607138 
L 63.404294 101.149349 
" style="fill:none;stroke:#000000;stroke-linecap:square;stroke-width:1.5;"/>
   </g>
   <g id="line2d_23">
    <path clip-path="url(#p8f78028f16)" d="M 34.068578 69.257036 
L 34.698166 70.104547 
L 35.327754 70.952057 
L 35.957343 71.799567 
L 36.586931 72.647078 
L 37.216519 73.494588 
L 37.846107 74.342098 
L 38.475696 75.189609 
L 39.105284 76.037119 
L 39.734872 76.884629 
L 40.36446 77.73214 
L 40.994049 78.57965 
L 41.623637 79.42716 
L 42.253225 80.274671 
L 42.882813 81.122181 
L 43.512401 81.969691 
L 44.14199 82.817202 
L 44.771578 83.664712 
L 45.401166 84.512223 
L 46.030754 85.359733 
L 46.660343 86.207243 
L 47.289931 87.054754 
L 47.919519 87.902264 
L 48.549107 88.749774 
L 49.178696 89.597285 
L 49.808284 90.444795 
L 50.437872 91.292305 
L 51.06746 92.139816 
L 51.697048 92.987326 
L 52.326637 93.834836 
L 52.956225 94.682347 
L 53.585813 95.529857 
L 54.215401 96.377367 
L 54.745509 97.293867 
L 55.275616 98.210366 
L 55.805723 99.126866 
L 56.335831 100.043365 
L 56.865938 100.959865 
L 57.396045 101.876364 
L 57.926153 102.792864 
L 58.45626 103.709363 
L 59.678581 104.727796 
L 60.900903 105.746229 
L 62.123224 106.764661 
L 63.345546 107.783094 
L 64.567867 108.801526 
L 65.790189 109.819959 
L 67.01251 110.838392 
L 68.234832 111.856824 
L 69.015306 113.28263 
L 69.79578 114.708436 
L 70.576254 116.134242 
L 71.356728 117.560047 
L 72.137201 118.985853 
L 72.917675 120.411659 
L 73.698149 121.837464 
L 74.478623 123.26327 
L 74.596669 124.369254 
L 74.714714 125.475237 
" style="fill:none;stroke:#4169e1;stroke-linecap:square;stroke-width:1.5;"/>
   </g>
   <g id="line2d_24">
    <path clip-path="url(#p8f78028f16)" d="M 35.954014 73.447981 
L 35.541678 74.524481 
L 35.129342 75.600982 
L 34.717006 76.677482 
L 34.304669 77.753983 
L 34.923174 79.179968 
L 35.541678 80.605954 
L 36.160182 82.031939 
L 36.778686 83.457924 
" style="fill:none;stroke:#008000;stroke-linecap:square;stroke-width:1.5;"/>
   </g>
   <g id="line2d_25">
    <path clip-path="url(#p8f78028f16)" d="M 24.879685 88.695886 
L 26.514343 88.390267 
L 28.149001 88.084647 
L 29.783658 87.779027 
L 31.418316 87.473408 
L 33.052974 87.167788 
L 34.687631 86.862168 
L 36.322289 86.556549 
L 37.956947 86.250929 
L 38.501878 87.764106 
L 39.04681 89.277283 
L 39.591742 90.79046 
L 40.136673 92.303637 
L 40.681605 93.816814 
L 41.226537 95.329991 
L 41.771468 96.843168 
L 42.3164 98.356345 
L 43.273531 99.31653 
L 44.230661 100.276715 
L 45.187792 101.2369 
L 46.144922 102.197085 
L 47.102053 103.15727 
L 48.059184 104.117455 
L 49.016314 105.077641 
L 49.973445 106.037826 
L 50.591949 107.521699 
L 51.210453 109.005573 
L 51.828958 110.489446 
L 52.447462 111.973319 
L 53.471027 112.729908 
L 54.494593 113.486496 
L 55.518159 114.243085 
L 56.541724 114.999673 
L 57.56529 115.756262 
L 58.588855 116.51285 
L 59.612421 117.269439 
L 60.635987 118.026027 
L 61.659552 118.782616 
L 62.683118 119.539204 
L 63.706683 120.295793 
L 64.730249 121.052381 
L 65.753814 121.80897 
L 66.77738 122.565558 
L 67.800946 123.322147 
L 68.824511 124.078735 
" style="fill:none;stroke:#008000;stroke-linecap:square;stroke-width:1.5;"/>
   </g>
   <g id="line2d_26">
    <path clip-path="url(#p8f78028f16)" d="M 20.520232 90.78992 
L 21.893508 92.030242 
L 23.266784 93.270563 
L 24.640059 94.510885 
L 26.013335 95.751207 
L 27.386611 96.991528 
L 28.759887 98.23185 
L 30.133163 99.472171 
L 31.506438 100.712493 
L 32.879714 101.952814 
L 34.25299 103.193136 
L 35.626266 104.433457 
L 36.999542 105.673779 
L 38.372817 106.9141 
L 39.746093 108.154422 
L 41.119369 109.394743 
L 42.492645 110.635065 
L 43.865921 111.875386 
L 45.239197 113.115708 
L 46.612472 114.356029 
L 47.985748 115.596351 
L 49.359024 116.836672 
L 50.7323 118.076994 
L 52.105576 119.317315 
L 53.478851 120.557637 
L 54.852127 121.797959 
L 56.225403 123.03828 
L 57.598679 124.278602 
L 58.971955 125.518923 
L 60.34523 126.759245 
L 61.718506 127.999566 
L 63.091782 129.239888 
L 64.465058 130.480209 
" style="fill:none;stroke:#008000;stroke-linecap:square;stroke-width:1.5;"/>
   </g>
   <g id="line2d_27">
    <path clip-path="url(#p8f78028f16)" d="M 17.57513 94.63138 
L 18.841616 95.951702 
L 20.108102 97.272024 
L 21.374587 98.592346 
L 22.641073 99.912668 
L 23.907559 101.23299 
L 25.174044 102.553312 
L 26.44053 103.873634 
L 27.707016 105.193956 
L 28.973501 106.514278 
L 30.239987 107.8346 
L 31.506473 109.154922 
L 32.772958 110.475244 
L 34.039444 111.795566 
L 35.30593 113.115888 
L 36.572415 114.43621 
L 37.838901 115.756532 
L 39.105387 117.076854 
L 40.371872 118.397176 
L 41.638358 119.717497 
L 42.904844 121.037819 
L 44.17133 122.358141 
L 45.437815 123.678463 
L 46.704301 124.998785 
L 47.970787 126.319107 
L 49.237272 127.639429 
L 50.503758 128.959751 
L 51.770244 130.280073 
L 53.036729 131.600395 
L 54.303215 132.920717 
L 55.569701 134.241039 
L 56.836186 135.561361 
L 58.102672 136.881683 
" style="fill:none;stroke:#008000;stroke-linecap:square;stroke-width:1.5;"/>
   </g>
   <g id="line2d_28">
    <path clip-path="url(#p8f78028f16)" d="M 15.101113 93.584363 
L 15.484075 94.908236 
L 15.867037 96.232108 
L 16.249999 97.555981 
L 16.632961 98.879853 
L 17.015923 100.203726 
L 17.398885 101.527598 
L 17.781847 102.851471 
L 18.164809 104.175343 
L 19.254398 105.45571 
L 20.343987 106.736077 
L 21.433576 108.016443 
L 22.523165 109.29681 
L 22.729333 110.431558 
L 22.935501 111.566306 
L 23.141669 112.701054 
L 23.347837 113.835802 
L 23.554005 114.97055 
L 23.760173 116.105298 
L 23.966341 117.240045 
L 24.172509 118.374793 
L 24.68793 119.211382 
L 25.20335 120.047971 
L 25.71877 120.88456 
L 26.23419 121.721149 
L 26.749611 122.557738 
L 27.265031 123.394327 
L 27.780451 124.230916 
L 28.295871 125.067505 
L 28.811292 125.904094 
L 29.326712 126.740683 
L 29.842132 127.577272 
L 30.357552 128.413861 
L 30.872973 129.25045 
L 31.388393 130.087038 
L 31.903813 130.923627 
L 32.419233 131.760216 
L 32.978989 132.894964 
L 33.538745 134.029712 
L 34.098501 135.16446 
L 34.658257 136.299208 
" style="fill:none;stroke:#008000;stroke-linecap:square;stroke-width:1.5;"/>
   </g>
   <g id="line2d_29">
    <path clip-path="url(#p8f78028f16)" d="M 11.684927 92.069928 
L 11.095797 93.801353 
L 10.506667 95.532778 
L 9.917537 97.264204 
L 9.328406 98.995629 
L 8.739276 100.727055 
L 8.150146 102.45848 
L 7.561016 104.189905 
L 6.971886 105.921331 
L 7.384222 107.6817 
L 7.796558 109.442069 
L 8.208894 111.202439 
L 8.621231 112.962808 
L 9.033567 114.723177 
L 9.445903 116.483547 
L 9.858239 118.243916 
L 10.270575 120.004286 
L 10.682912 121.764655 
L 11.095248 123.525024 
L 11.507584 125.285394 
L 11.91992 127.045763 
L 12.332256 128.806132 
L 12.744593 130.566502 
L 13.156929 132.326871 
L 13.569265 134.087241 
L 14.335189 134.843739 
L 15.101113 135.600238 
L 15.867037 136.356736 
L 16.632961 137.113235 
L 17.704431 137.127257 
L 18.775902 137.14128 
L 19.847372 137.155303 
L 20.918842 137.169325 
L 19.520962 137.099572 
L 18.123082 137.029819 
" style="fill:none;stroke:#008000;stroke-linecap:square;stroke-width:1.5;"/>
   </g>
   <g id="line2d_30">
    <path clip-path="url(#p8f78028f16)" d="M 48.560191 146.949155 
L 49.355489 148.040217 
L 50.150788 149.131279 
L 50.946086 150.222342 
L 51.741384 151.313404 
L 52.536682 152.404466 
L 53.331981 153.495529 
L 54.127279 154.586591 
L 54.922577 155.677653 
L 56.483525 156.681524 
L 58.044473 157.685395 
L 59.605421 158.689265 
L 61.166368 159.693136 
L 62.727316 160.697007 
L 64.288264 161.700878 
L 65.849212 162.704748 
L 67.41016 163.708619 
L 67.542755 164.799681 
L 67.67535 165.890744 
L 67.807946 166.981806 
L 67.940541 168.072868 
L 68.073137 169.163931 
L 68.205732 170.254993 
L 68.338328 171.346055 
L 68.470923 172.437117 
L 68.441412 173.673619 
L 68.4119 174.91012 
L 68.382389 176.146621 
L 68.352878 177.383122 
L 68.323366 178.619624 
L 68.293855 179.856125 
L 68.264343 181.092626 
L 68.234832 182.329128 
L 69.457153 182.5765 
L 70.679475 182.823872 
L 71.901796 183.071244 
L 73.124118 183.318616 
L 74.34644 183.565988 
L 75.568761 183.813361 
L 76.791083 184.060733 
L 78.013404 184.308105 
L 79.228382 184.126261 
L 80.44336 183.944417 
L 81.658338 183.762574 
L 82.873316 183.58073 
L 84.088294 183.398886 
L 85.303272 183.217043 
L 86.51825 183.035199 
L 87.733228 182.853355 
L 88.948206 182.671511 
L 90.163184 182.489668 
L 91.378162 182.307824 
L 92.59314 182.12598 
L 93.808118 181.944137 
L 95.023096 181.762293 
L 96.238074 181.580449 
L 97.453052 181.398605 
" style="fill:none;stroke:#4169e1;stroke-linecap:square;stroke-width:1.5;"/>
   </g>
   <g id="line2d_31">
    <path clip-path="url(#p8f78028f16)" d="M 59.870611 138.335714 
L 61.096605 139.641429 
L 62.322598 140.947144 
L 63.548591 142.252859 
L 64.774585 143.558574 
L 66.000578 144.864289 
L 67.226571 146.170005 
L 68.452564 147.47572 
L 69.678558 148.781435 
L 70.904551 150.08715 
L 72.130544 151.392865 
L 73.356538 152.69858 
L 74.582531 154.004295 
L 75.808524 155.310011 
L 77.034517 156.615726 
L 78.260511 157.921441 
L 79.486504 159.227156 
L 80.712497 160.532871 
L 81.93849 161.838586 
L 83.164484 163.144301 
L 84.390477 164.450017 
L 85.61647 165.755732 
L 86.842464 167.061447 
L 88.068457 168.367162 
L 89.29445 169.672877 
L 90.520443 170.978592 
L 91.746437 172.284307 
L 92.97243 173.590023 
L 94.198423 174.895738 
L 95.424417 176.201453 
L 96.65041 177.507168 
L 97.876403 178.812883 
L 99.102396 180.118598 
" style="fill:none;stroke:#4169e1;stroke-linecap:square;stroke-width:1.5;"/>
   </g>
   <g id="line2d_32">
    <path clip-path="url(#p8f78028f16)" d="M 68.705916 134.727244 
L 69.917188 135.883835 
L 71.12846 137.040426 
L 72.339732 138.197016 
L 73.551004 139.353607 
L 74.762276 140.510198 
L 75.973548 141.666788 
L 77.18482 142.823379 
L 78.396092 143.97997 
L 79.607363 145.136561 
L 80.818635 146.293151 
L 82.029907 147.449742 
L 83.241179 148.606333 
L 84.452451 149.762923 
L 85.663723 150.919514 
L 86.874995 152.076105 
L 88.086267 153.232696 
L 89.297539 154.389286 
L 90.50881 155.545877 
L 91.720082 156.702468 
L 92.931354 157.859058 
L 94.142626 159.015649 
L 95.353898 160.17224 
L 96.56517 161.328831 
L 97.776442 162.485421 
L 98.987714 163.642012 
L 100.198986 164.798603 
L 101.410257 165.955194 
L 102.621529 167.111784 
L 103.832801 168.268375 
L 105.044073 169.424966 
L 106.255345 170.581556 
L 107.466617 171.738147 
" style="fill:none;stroke:#4169e1;stroke-linecap:square;stroke-width:1.5;"/>
   </g>
   <g id="line2d_33">
    <path clip-path="url(#p8f78028f16)" d="M 77.777313 131.236708 
L 79.117543 132.63339 
L 80.457773 134.030072 
L 81.798002 135.426754 
L 83.138232 136.823436 
L 84.478462 138.220118 
L 85.818692 139.616799 
L 87.158922 141.013481 
L 88.499152 142.410163 
L 89.750916 143.646755 
L 91.00268 144.883346 
L 92.254445 146.119937 
L 93.506209 147.356528 
L 94.757973 148.593119 
L 96.009738 149.82971 
L 97.261502 151.066302 
L 98.513266 152.302893 
L 99.76503 153.539484 
L 101.016795 154.776075 
L 102.268559 156.012666 
L 103.520323 157.249257 
L 104.772088 158.485849 
L 106.023852 159.72244 
L 107.275616 160.959031 
L 108.527381 162.195622 
" style="fill:none;stroke:#4169e1;stroke-linecap:square;stroke-width:1.5;"/>
   </g>
   <g id="line2d_34">
    <path clip-path="url(#p8f78028f16)" d="M 93.918271 144.039656 
L 95.685387 144.010532 
L 97.452503 143.981408 
L 99.219618 143.952284 
L 100.986734 143.923161 
L 101.79672 144.621412 
L 102.606705 145.319663 
L 103.41669 146.017914 
L 104.226676 146.716165 
L 105.036661 147.414416 
L 105.846646 148.112667 
L 106.656632 148.810918 
L 107.466617 149.509169 
L 108.276602 150.20742 
L 109.086587 150.905671 
L 109.896573 151.603922 
L 110.706558 152.302174 
L 111.516543 153.000425 
L 112.326529 153.698676 
L 113.136514 154.396927 
L 113.946499 155.095178 
" style="fill:none;stroke:#4169e1;stroke-linecap:square;stroke-width:1.5;"/>
   </g>
   <g id="line2d_35">
    <path clip-path="url(#p8f78028f16)" d="M 91.928515 132.101072 
L 93.138895 133.152044 
L 94.349275 134.203016 
L 95.559654 135.253989 
L 96.770034 136.304961 
L 98.04479 136.060285 
L 99.319545 135.81561 
L 100.594301 135.570934 
L 101.869057 135.326259 
L 103.143813 135.081583 
L 104.418568 134.836908 
L 105.693324 134.592232 
L 106.96808 134.347557 
L 108.242836 134.102881 
L 109.517591 133.858206 
L 110.792347 133.61353 
L 112.067103 133.368855 
L 113.341859 133.124179 
L 114.616614 132.879503 
L 115.89137 132.634828 
L 117.166126 132.390152 
L 117.496105 133.876183 
L 117.826083 135.362214 
L 118.156062 136.848245 
L 118.486041 138.334275 
L 117.880851 139.819947 
L 117.275661 141.305618 
L 116.670471 142.791289 
L 116.065281 144.27696 
L 115.460092 145.762631 
L 114.854902 147.248303 
L 114.249712 148.733974 
L 113.644522 150.219645 
L 114.011287 151.596731 
L 114.378052 152.973818 
L 114.744817 154.350904 
L 115.111582 155.72799 
" style="fill:none;stroke:#008000;stroke-linecap:square;stroke-width:1.5;"/>
   </g>
   <g id="line2d_36">
    <path clip-path="url(#p8f78028f16)" d="M 85.618838 133.405529 
L 86.872867 134.581805 
L 88.126896 135.758081 
L 89.380925 136.934358 
L 90.634955 138.110634 
L 91.888984 139.28691 
L 93.143013 140.463186 
L 94.397042 141.639462 
L 95.651071 142.815739 
" style="fill:none;stroke:#008000;stroke-linecap:square;stroke-width:1.5;"/>
   </g>
   <g id="line2d_37">
    <path clip-path="url(#p8f78028f16)" d="M 88.406912 131.521473 
L 89.965938 130.687941 
L 91.524964 129.854408 
L 93.08399 129.020875 
L 94.643016 128.187342 
L 96.202042 127.35381 
L 97.761068 126.520277 
L 99.320094 125.686744 
L 100.879121 124.853212 
L 102.438147 124.019679 
L 103.997173 123.186146 
L 105.556199 122.352613 
L 107.115225 121.519081 
L 108.674251 120.685548 
L 110.233277 119.852015 
L 111.792304 119.018482 
L 113.35133 118.18495 
" style="fill:none;stroke:#008000;stroke-linecap:square;stroke-width:1.5;"/>
   </g>
   <g id="line2d_38">
    <path clip-path="url(#p8f78028f16)" d="M 68.157965 130.217017 
L 69.166706 130.108252 
L 70.175448 129.999487 
L 71.184189 129.890723 
L 72.19293 129.781958 
L 73.201671 129.673193 
L 74.210412 129.564429 
L 75.219154 129.455664 
L 76.227895 129.346899 
L 77.181731 129.817913 
L 78.135568 130.288927 
L 79.089404 130.759941 
L 80.04324 131.230955 
L 80.997076 131.701969 
L 81.950913 132.172983 
L 82.904749 132.643997 
L 83.858585 133.11501 
" style="fill:none;stroke:#008000;stroke-linecap:square;stroke-width:1.5;"/>
   </g>
   <g id="line2d_39">
    <path clip-path="url(#p8f78028f16)" d="M 59.794843 135.144325 
L 61.482072 134.601041 
L 63.169301 134.057757 
L 64.85653 133.514473 
L 66.543759 132.971189 
" style="fill:none;stroke:#008000;stroke-linecap:square;stroke-width:1.5;"/>
   </g>
   <g id="line2d_40">
    <path clip-path="url(#p8f78028f16)" d="M 20.918842 137.169325 
L 21.917906 137.13337 
L 22.91697 137.097415 
L 23.916035 137.061459 
L 24.915099 137.025504 
L 25.914163 136.989549 
L 26.913227 136.953594 
L 27.912292 136.917638 
L 28.911356 136.881683 
L 29.91042 136.845728 
L 30.909484 136.809773 
L 31.908549 136.773817 
L 32.907613 136.737862 
L 33.906677 136.701907 
L 34.905741 136.665952 
L 35.904806 136.629996 
L 36.90387 136.594041 
L 37.821057 137.500113 
L 38.738244 138.406186 
L 39.655431 139.312258 
L 40.572619 140.218331 
L 41.489806 141.124403 
L 42.406993 142.030476 
L 43.32418 142.936548 
L 44.241368 143.842621 
L 45.855299 143.98752 
L 47.46923 144.13242 
L 49.083161 144.27732 
L 50.697092 144.42222 
L 51.650791 143.697362 
L 52.60449 142.972504 
L 53.558189 142.247646 
L 54.511888 141.522788 
L 55.465587 140.79793 
L 56.419286 140.073072 
L 57.372985 139.348214 
L 58.326684 138.623356 
" style="fill:none;stroke:#008000;stroke-linecap:square;stroke-width:1.5;"/>
   </g>
   <g id="text_1">
    <g id="patch_6">
     <path d="M 102.030136 154.94853 
L 108.75554 161.375914 
L 110.120514 159.94765 
L 103.395111 153.520266 
z
" style="fill:#ffffff;"/>
    </g>
    <!-- D Double -->
    <g style="fill:#808080;" transform="translate(102.345788 154.64719)rotate(-316.298)scale(0.02 -0.02)">
     <defs>
      <path d="M 1259 4147 
L 1259 519 
L 2022 519 
Q 2988 519 3436 956 
Q 3884 1394 3884 2338 
Q 3884 3275 3436 3711 
Q 2988 4147 2022 4147 
L 1259 4147 
z
M 628 4666 
L 1925 4666 
Q 3281 4666 3915 4102 
Q 4550 3538 4550 2338 
Q 4550 1131 3912 565 
Q 3275 0 1925 0 
L 628 0 
L 628 4666 
z
" id="DejaVuSans-44" transform="scale(0.015625)"/>
      <path id="DejaVuSans-20" transform="scale(0.015625)"/>
      <path d="M 1959 3097 
Q 1497 3097 1228 2736 
Q 959 2375 959 1747 
Q 959 1119 1226 758 
Q 1494 397 1959 397 
Q 2419 397 2687 759 
Q 2956 1122 2956 1747 
Q 2956 2369 2687 2733 
Q 2419 3097 1959 3097 
z
M 1959 3584 
Q 2709 3584 3137 3096 
Q 3566 2609 3566 1747 
Q 3566 888 3137 398 
Q 2709 -91 1959 -91 
Q 1206 -91 779 398 
Q 353 888 353 1747 
Q 353 2609 779 3096 
Q 1206 3584 1959 3584 
z
" id="DejaVuSans-6f" transform="scale(0.015625)"/>
      <path d="M 544 1381 
L 544 3500 
L 1119 3500 
L 1119 1403 
Q 1119 906 1312 657 
Q 1506 409 1894 409 
Q 2359 409 2629 706 
Q 2900 1003 2900 1516 
L 2900 3500 
L 3475 3500 
L 3475 0 
L 2900 0 
L 2900 538 
Q 2691 219 2414 64 
Q 2138 -91 1772 -91 
Q 1169 -91 856 284 
Q 544 659 544 1381 
z
M 1991 3584 
L 1991 3584 
z
" id="DejaVuSans-75" transform="scale(0.015625)"/>
      <path d="M 3116 1747 
Q 3116 2381 2855 2742 
Q 2594 3103 2138 3103 
Q 1681 3103 1420 2742 
Q 1159 2381 1159 1747 
Q 1159 1113 1420 752 
Q 1681 391 2138 391 
Q 2594 391 2855 752 
Q 3116 1113 3116 1747 
z
M 1159 2969 
Q 1341 3281 1617 3432 
Q 1894 3584 2278 3584 
Q 2916 3584 3314 3078 
Q 3713 2572 3713 1747 
Q 3713 922 3314 415 
Q 2916 -91 2278 -91 
Q 1894 -91 1617 61 
Q 1341 213 1159 525 
L 1159 0 
L 581 0 
L 581 4863 
L 1159 4863 
L 1159 2969 
z
" id="DejaVuSans-62" transform="scale(0.015625)"/>
      <path d="M 603 4863 
L 1178 4863 
L 1178 0 
L 603 0 
L 603 4863 
z
" id="DejaVuSans-6c" transform="scale(0.015625)"/>
      <path d="M 3597 1894 
L 3597 1613 
L 953 1613 
Q 991 1019 1311 708 
Q 1631 397 2203 397 
Q 2534 397 2845 478 
Q 3156 559 3463 722 
L 3463 178 
Q 3153 47 2828 -22 
Q 2503 -91 2169 -91 
Q 1331 -91 842 396 
Q 353 884 353 1716 
Q 353 2575 817 3079 
Q 1281 3584 2069 3584 
Q 2775 3584 3186 3129 
Q 3597 2675 3597 1894 
z
M 3022 2063 
Q 3016 2534 2758 2815 
Q 2500 3097 2075 3097 
Q 1594 3097 1305 2825 
Q 1016 2553 972 2059 
L 3022 2063 
z
" id="DejaVuSans-65" transform="scale(0.015625)"/>
     </defs>
     <use xlink:href="#DejaVuSans-44"/>
     <use x="77.001953" xlink:href="#DejaVuSans-20"/>
     <use x="108.789062" xlink:href="#DejaVuSans-44"/>
     <use x="185.791016" xlink:href="#DejaVuSans-6f"/>
     <use x="246.972656" xlink:href="#DejaVuSans-75"/>
     <use x="310.351562" xlink:href="#DejaVuSans-62"/>
     <use x="373.828125" xlink:href="#DejaVuSans-6c"/>
     <use x="401.611328" xlink:href="#DejaVuSans-65"/>
    </g>
   </g>
   <g id="text_2">
    <g id="patch_7">
     <path d="M 52.627106 131.607634 
L 58.39276 136.222335 
L 59.627278 134.679915 
L 53.861624 130.065215 
z
" style="fill:#ffffff;"/>
    </g>
    <!-- B Quad -->
    <g style="fill:#808080;" transform="translate(52.915126 131.279785)rotate(-321.327004)scale(0.02 -0.02)">
     <defs>
      <path d="M 1259 2228 
L 1259 519 
L 2272 519 
Q 2781 519 3026 730 
Q 3272 941 3272 1375 
Q 3272 1813 3026 2020 
Q 2781 2228 2272 2228 
L 1259 2228 
z
M 1259 4147 
L 1259 2741 
L 2194 2741 
Q 2656 2741 2882 2914 
Q 3109 3088 3109 3444 
Q 3109 3797 2882 3972 
Q 2656 4147 2194 4147 
L 1259 4147 
z
M 628 4666 
L 2241 4666 
Q 2963 4666 3353 4366 
Q 3744 4066 3744 3513 
Q 3744 3084 3544 2831 
Q 3344 2578 2956 2516 
Q 3422 2416 3680 2098 
Q 3938 1781 3938 1306 
Q 3938 681 3513 340 
Q 3088 0 2303 0 
L 628 0 
L 628 4666 
z
" id="DejaVuSans-42" transform="scale(0.015625)"/>
      <path d="M 2522 4238 
Q 1834 4238 1429 3725 
Q 1025 3213 1025 2328 
Q 1025 1447 1429 934 
Q 1834 422 2522 422 
Q 3209 422 3611 934 
Q 4013 1447 4013 2328 
Q 4013 3213 3611 3725 
Q 3209 4238 2522 4238 
z
M 3406 84 
L 4238 -825 
L 3475 -825 
L 2784 -78 
Q 2681 -84 2626 -87 
Q 2572 -91 2522 -91 
Q 1538 -91 948 567 
Q 359 1225 359 2328 
Q 359 3434 948 4092 
Q 1538 4750 2522 4750 
Q 3503 4750 4090 4092 
Q 4678 3434 4678 2328 
Q 4678 1516 4351 937 
Q 4025 359 3406 84 
z
" id="DejaVuSans-51" transform="scale(0.015625)"/>
      <path d="M 2194 1759 
Q 1497 1759 1228 1600 
Q 959 1441 959 1056 
Q 959 750 1161 570 
Q 1363 391 1709 391 
Q 2188 391 2477 730 
Q 2766 1069 2766 1631 
L 2766 1759 
L 2194 1759 
z
M 3341 1997 
L 3341 0 
L 2766 0 
L 2766 531 
Q 2569 213 2275 61 
Q 1981 -91 1556 -91 
Q 1019 -91 701 211 
Q 384 513 384 1019 
Q 384 1609 779 1909 
Q 1175 2209 1959 2209 
L 2766 2209 
L 2766 2266 
Q 2766 2663 2505 2880 
Q 2244 3097 1772 3097 
Q 1472 3097 1187 3025 
Q 903 2953 641 2809 
L 641 3341 
Q 956 3463 1253 3523 
Q 1550 3584 1831 3584 
Q 2591 3584 2966 3190 
Q 3341 2797 3341 1997 
z
" id="DejaVuSans-61" transform="scale(0.015625)"/>
      <path d="M 2906 2969 
L 2906 4863 
L 3481 4863 
L 3481 0 
L 2906 0 
L 2906 525 
Q 2725 213 2448 61 
Q 2172 -91 1784 -91 
Q 1150 -91 751 415 
Q 353 922 353 1747 
Q 353 2572 751 3078 
Q 1150 3584 1784 3584 
Q 2172 3584 2448 3432 
Q 2725 3281 2906 2969 
z
M 947 1747 
Q 947 1113 1208 752 
Q 1469 391 1925 391 
Q 2381 391 2643 752 
Q 2906 1113 2906 1747 
Q 2906 2381 2643 2742 
Q 2381 3103 1925 3103 
Q 1469 3103 1208 2742 
Q 947 2381 947 1747 
z
" id="DejaVuSans-64" transform="scale(0.015625)"/>
     </defs>
     <use xlink:href="#DejaVuSans-42"/>
     <use x="68.603516" xlink:href="#DejaVuSans-20"/>
     <use x="100.390625" xlink:href="#DejaVuSans-51"/>
     <use x="179.101562" xlink:href="#DejaVuSans-75"/>
     <use x="242.480469" xlink:href="#DejaVuSans-61"/>
     <use x="303.759766" xlink:href="#DejaVuSans-64"/>
    </g>
   </g>
   <g id="text_3">
    <g id="patch_8">
     <path d="M 87.038456 153.257966 
L 102.961805 164.596569 
L 104.107756 162.987255 
L 88.184407 151.648652 
z
" style="fill:#ffffff;"/>
    </g>
    <!-- C High Speed Quad -->
    <g style="fill:#808080;" transform="translate(87.307611 152.914459)rotate(-324.54632)scale(0.02 -0.02)">
     <defs>
      <path d="M 4122 4306 
L 4122 3641 
Q 3803 3938 3442 4084 
Q 3081 4231 2675 4231 
Q 1875 4231 1450 3742 
Q 1025 3253 1025 2328 
Q 1025 1406 1450 917 
Q 1875 428 2675 428 
Q 3081 428 3442 575 
Q 3803 722 4122 1019 
L 4122 359 
Q 3791 134 3420 21 
Q 3050 -91 2638 -91 
Q 1578 -91 968 557 
Q 359 1206 359 2328 
Q 359 3453 968 4101 
Q 1578 4750 2638 4750 
Q 3056 4750 3426 4639 
Q 3797 4528 4122 4306 
z
" id="DejaVuSans-43" transform="scale(0.015625)"/>
      <path d="M 628 4666 
L 1259 4666 
L 1259 2753 
L 3553 2753 
L 3553 4666 
L 4184 4666 
L 4184 0 
L 3553 0 
L 3553 2222 
L 1259 2222 
L 1259 0 
L 628 0 
L 628 4666 
z
" id="DejaVuSans-48" transform="scale(0.015625)"/>
      <path d="M 603 3500 
L 1178 3500 
L 1178 0 
L 603 0 
L 603 3500 
z
M 603 4863 
L 1178 4863 
L 1178 4134 
L 603 4134 
L 603 4863 
z
" id="DejaVuSans-69" transform="scale(0.015625)"/>
      <path d="M 2906 1791 
Q 2906 2416 2648 2759 
Q 2391 3103 1925 3103 
Q 1463 3103 1205 2759 
Q 947 2416 947 1791 
Q 947 1169 1205 825 
Q 1463 481 1925 481 
Q 2391 481 2648 825 
Q 2906 1169 2906 1791 
z
M 3481 434 
Q 3481 -459 3084 -895 
Q 2688 -1331 1869 -1331 
Q 1566 -1331 1297 -1286 
Q 1028 -1241 775 -1147 
L 775 -588 
Q 1028 -725 1275 -790 
Q 1522 -856 1778 -856 
Q 2344 -856 2625 -561 
Q 2906 -266 2906 331 
L 2906 616 
Q 2728 306 2450 153 
Q 2172 0 1784 0 
Q 1141 0 747 490 
Q 353 981 353 1791 
Q 353 2603 747 3093 
Q 1141 3584 1784 3584 
Q 2172 3584 2450 3431 
Q 2728 3278 2906 2969 
L 2906 3500 
L 3481 3500 
L 3481 434 
z
" id="DejaVuSans-67" transform="scale(0.015625)"/>
      <path d="M 3513 2113 
L 3513 0 
L 2938 0 
L 2938 2094 
Q 2938 2591 2744 2837 
Q 2550 3084 2163 3084 
Q 1697 3084 1428 2787 
Q 1159 2491 1159 1978 
L 1159 0 
L 581 0 
L 581 4863 
L 1159 4863 
L 1159 2956 
Q 1366 3272 1645 3428 
Q 1925 3584 2291 3584 
Q 2894 3584 3203 3211 
Q 3513 2838 3513 2113 
z
" id="DejaVuSans-68" transform="scale(0.015625)"/>
      <path d="M 3425 4513 
L 3425 3897 
Q 3066 4069 2747 4153 
Q 2428 4238 2131 4238 
Q 1616 4238 1336 4038 
Q 1056 3838 1056 3469 
Q 1056 3159 1242 3001 
Q 1428 2844 1947 2747 
L 2328 2669 
Q 3034 2534 3370 2195 
Q 3706 1856 3706 1288 
Q 3706 609 3251 259 
Q 2797 -91 1919 -91 
Q 1588 -91 1214 -16 
Q 841 59 441 206 
L 441 856 
Q 825 641 1194 531 
Q 1563 422 1919 422 
Q 2459 422 2753 634 
Q 3047 847 3047 1241 
Q 3047 1584 2836 1778 
Q 2625 1972 2144 2069 
L 1759 2144 
Q 1053 2284 737 2584 
Q 422 2884 422 3419 
Q 422 4038 858 4394 
Q 1294 4750 2059 4750 
Q 2388 4750 2728 4690 
Q 3069 4631 3425 4513 
z
" id="DejaVuSans-53" transform="scale(0.015625)"/>
      <path d="M 1159 525 
L 1159 -1331 
L 581 -1331 
L 581 3500 
L 1159 3500 
L 1159 2969 
Q 1341 3281 1617 3432 
Q 1894 3584 2278 3584 
Q 2916 3584 3314 3078 
Q 3713 2572 3713 1747 
Q 3713 922 3314 415 
Q 2916 -91 2278 -91 
Q 1894 -91 1617 61 
Q 1341 213 1159 525 
z
M 3116 1747 
Q 3116 2381 2855 2742 
Q 2594 3103 2138 3103 
Q 1681 3103 1420 2742 
Q 1159 2381 1159 1747 
Q 1159 1113 1420 752 
Q 1681 391 2138 391 
Q 2594 391 2855 752 
Q 3116 1113 3116 1747 
z
" id="DejaVuSans-70" transform="scale(0.015625)"/>
     </defs>
     <use xlink:href="#DejaVuSans-43"/>
     <use x="69.824219" xlink:href="#DejaVuSans-20"/>
     <use x="101.611328" xlink:href="#DejaVuSans-48"/>
     <use x="176.806641" xlink:href="#DejaVuSans-69"/>
     <use x="204.589844" xlink:href="#DejaVuSans-67"/>
     <use x="268.066406" xlink:href="#DejaVuSans-68"/>
     <use x="331.445312" xlink:href="#DejaVuSans-20"/>
     <use x="363.232422" xlink:href="#DejaVuSans-53"/>
     <use x="426.708984" xlink:href="#DejaVuSans-70"/>
     <use x="490.185547" xlink:href="#DejaVuSans-65"/>
     <use x="551.708984" xlink:href="#DejaVuSans-65"/>
     <use x="613.232422" xlink:href="#DejaVuSans-64"/>
     <use x="676.708984" xlink:href="#DejaVuSans-20"/>
     <use x="708.496094" xlink:href="#DejaVuSans-51"/>
     <use x="787.207031" xlink:href="#DejaVuSans-75"/>
     <use x="850.585938" xlink:href="#DejaVuSans-61"/>
     <use x="911.865234" xlink:href="#DejaVuSans-64"/>
    </g>
   </g>
   <g id="text_4">
    <g id="patch_9">
     <path d="M 102.884209 154.393828 
L 109.41321 160.626884 
L 110.777426 159.197895 
L 104.248425 152.964839 
z
" style="fill:#ffffff;"/>
    </g>
    <!-- E Double -->
    <g style="fill:#808080;" transform="translate(103.199701 154.092321)rotate(-316.328419)scale(0.02 -0.02)">
     <defs>
      <path d="M 628 4666 
L 3578 4666 
L 3578 4134 
L 1259 4134 
L 1259 2753 
L 3481 2753 
L 3481 2222 
L 1259 2222 
L 1259 531 
L 3634 531 
L 3634 0 
L 628 0 
L 628 4666 
z
" id="DejaVuSans-45" transform="scale(0.015625)"/>
     </defs>
     <use xlink:href="#DejaVuSans-45"/>
     <use x="63.183594" xlink:href="#DejaVuSans-20"/>
     <use x="94.970703" xlink:href="#DejaVuSans-44"/>
     <use x="171.972656" xlink:href="#DejaVuSans-6f"/>
     <use x="233.154297" xlink:href="#DejaVuSans-75"/>
     <use x="296.533203" xlink:href="#DejaVuSans-62"/>
     <use x="360.009766" xlink:href="#DejaVuSans-6c"/>
     <use x="387.792969" xlink:href="#DejaVuSans-65"/>
    </g>
   </g>
   <g id="text_5">
    <g id="patch_10">
     <path d="M 119.857427 136.107641 
L 122.371145 144.658958 
L 124.266574 144.101784 
L 121.752856 135.550467 
z
" style="fill:#ffffff;"/>
    </g>
    <!-- F Double -->
    <g style="fill:#808080;" transform="translate(120.281309 136.003884)rotate(-286.38106)scale(0.02 -0.02)">
     <defs>
      <path d="M 628 4666 
L 3309 4666 
L 3309 4134 
L 1259 4134 
L 1259 2759 
L 3109 2759 
L 3109 2228 
L 1259 2228 
L 1259 0 
L 628 0 
L 628 4666 
z
" id="DejaVuSans-46" transform="scale(0.015625)"/>
     </defs>
     <use xlink:href="#DejaVuSans-46"/>
     <use x="57.519531" xlink:href="#DejaVuSans-20"/>
     <use x="89.306641" xlink:href="#DejaVuSans-44"/>
     <use x="166.308594" xlink:href="#DejaVuSans-6f"/>
     <use x="227.490234" xlink:href="#DejaVuSans-75"/>
     <use x="290.869141" xlink:href="#DejaVuSans-62"/>
     <use x="354.345703" xlink:href="#DejaVuSans-6c"/>
     <use x="382.128906" xlink:href="#DejaVuSans-65"/>
    </g>
   </g>
   <g id="text_6">
    <g id="patch_11">
     <path d="M 136.533236 149.721415 
L 138.363458 132.877432 
L 136.399393 132.664022 
L 134.569172 149.508005 
z
" style="fill:#ffffff;"/>
    </g>
    <!-- Little Chief 11.7° -->
    <g style="fill:#008000;" transform="translate(136.10201 149.654441)rotate(-83.798724)scale(0.02 -0.02)">
     <defs>
      <path d="M 628 4666 
L 1259 4666 
L 1259 531 
L 3531 531 
L 3531 0 
L 628 0 
L 628 4666 
z
" id="DejaVuSans-4c" transform="scale(0.015625)"/>
      <path d="M 1172 4494 
L 1172 3500 
L 2356 3500 
L 2356 3053 
L 1172 3053 
L 1172 1153 
Q 1172 725 1289 603 
Q 1406 481 1766 481 
L 2356 481 
L 2356 0 
L 1766 0 
Q 1100 0 847 248 
Q 594 497 594 1153 
L 594 3053 
L 172 3053 
L 172 3500 
L 594 3500 
L 594 4494 
L 1172 4494 
z
" id="DejaVuSans-74" transform="scale(0.015625)"/>
      <path d="M 2375 4863 
L 2375 4384 
L 1825 4384 
Q 1516 4384 1395 4259 
Q 1275 4134 1275 3809 
L 1275 3500 
L 2222 3500 
L 2222 3053 
L 1275 3053 
L 1275 0 
L 697 0 
L 697 3053 
L 147 3053 
L 147 3500 
L 697 3500 
L 697 3744 
Q 697 4328 969 4595 
Q 1241 4863 1831 4863 
L 2375 4863 
z
" id="DejaVuSans-66" transform="scale(0.015625)"/>
      <path d="M 794 531 
L 1825 531 
L 1825 4091 
L 703 3866 
L 703 4441 
L 1819 4666 
L 2450 4666 
L 2450 531 
L 3481 531 
L 3481 0 
L 794 0 
L 794 531 
z
" id="DejaVuSans-31" transform="scale(0.015625)"/>
      <path d="M 684 794 
L 1344 794 
L 1344 0 
L 684 0 
L 684 794 
z
" id="DejaVuSans-2e" transform="scale(0.015625)"/>
      <path d="M 525 4666 
L 3525 4666 
L 3525 4397 
L 1831 0 
L 1172 0 
L 2766 4134 
L 525 4134 
L 525 4666 
z
" id="DejaVuSans-37" transform="scale(0.015625)"/>
      <path d="M 1600 4347 
Q 1350 4347 1178 4173 
Q 1006 4000 1006 3750 
Q 1006 3503 1178 3333 
Q 1350 3163 1600 3163 
Q 1850 3163 2022 3333 
Q 2194 3503 2194 3750 
Q 2194 3997 2020 4172 
Q 1847 4347 1600 4347 
z
M 1600 4750 
Q 1800 4750 1984 4673 
Q 2169 4597 2303 4453 
Q 2447 4313 2519 4134 
Q 2591 3956 2591 3750 
Q 2591 3338 2302 3052 
Q 2013 2766 1594 2766 
Q 1172 2766 890 3047 
Q 609 3328 609 3750 
Q 609 4169 896 4459 
Q 1184 4750 1600 4750 
z
" id="DejaVuSans-b0" transform="scale(0.015625)"/>
     </defs>
     <use xlink:href="#DejaVuSans-4c"/>
     <use x="55.712891" xlink:href="#DejaVuSans-69"/>
     <use x="83.496094" xlink:href="#DejaVuSans-74"/>
     <use x="122.705078" xlink:href="#DejaVuSans-74"/>
     <use x="161.914062" xlink:href="#DejaVuSans-6c"/>
     <use x="189.697266" xlink:href="#DejaVuSans-65"/>
     <use x="251.220703" xlink:href="#DejaVuSans-20"/>
     <use x="283.007812" xlink:href="#DejaVuSans-43"/>
     <use x="352.832031" xlink:href="#DejaVuSans-68"/>
     <use x="416.210938" xlink:href="#DejaVuSans-69"/>
     <use x="443.994141" xlink:href="#DejaVuSans-65"/>
     <use x="505.517578" xlink:href="#DejaVuSans-66"/>
     <use x="540.722656" xlink:href="#DejaVuSans-20"/>
     <use x="572.509766" xlink:href="#DejaVuSans-31"/>
     <use x="636.132812" xlink:href="#DejaVuSans-31"/>
     <use x="699.755859" xlink:href="#DejaVuSans-2e"/>
     <use x="731.542969" xlink:href="#DejaVuSans-37"/>
     <use x="795.166016" xlink:href="#DejaVuSans-b0"/>
    </g>
   </g>
   <g id="text_7">
    <g id="patch_12">
     <path d="M 93.438042 31.359987 
L 101.345957 57.731733 
L 103.238334 57.164279 
L 95.330419 30.792532 
z
" style="fill:#ffffff;"/>
    </g>
    <!-- Freestyle Terrain Park 20.2° -->
    <g style="fill:#4169e1;" transform="translate(93.861355 31.253931)rotate(-286.69205)scale(0.02 -0.02)">
     <defs>
      <path d="M 2631 2963 
Q 2534 3019 2420 3045 
Q 2306 3072 2169 3072 
Q 1681 3072 1420 2755 
Q 1159 2438 1159 1844 
L 1159 0 
L 581 0 
L 581 3500 
L 1159 3500 
L 1159 2956 
Q 1341 3275 1631 3429 
Q 1922 3584 2338 3584 
Q 2397 3584 2469 3576 
Q 2541 3569 2628 3553 
L 2631 2963 
z
" id="DejaVuSans-72" transform="scale(0.015625)"/>
      <path d="M 2834 3397 
L 2834 2853 
Q 2591 2978 2328 3040 
Q 2066 3103 1784 3103 
Q 1356 3103 1142 2972 
Q 928 2841 928 2578 
Q 928 2378 1081 2264 
Q 1234 2150 1697 2047 
L 1894 2003 
Q 2506 1872 2764 1633 
Q 3022 1394 3022 966 
Q 3022 478 2636 193 
Q 2250 -91 1575 -91 
Q 1294 -91 989 -36 
Q 684 19 347 128 
L 347 722 
Q 666 556 975 473 
Q 1284 391 1588 391 
Q 1994 391 2212 530 
Q 2431 669 2431 922 
Q 2431 1156 2273 1281 
Q 2116 1406 1581 1522 
L 1381 1569 
Q 847 1681 609 1914 
Q 372 2147 372 2553 
Q 372 3047 722 3315 
Q 1072 3584 1716 3584 
Q 2034 3584 2315 3537 
Q 2597 3491 2834 3397 
z
" id="DejaVuSans-73" transform="scale(0.015625)"/>
      <path d="M 2059 -325 
Q 1816 -950 1584 -1140 
Q 1353 -1331 966 -1331 
L 506 -1331 
L 506 -850 
L 844 -850 
Q 1081 -850 1212 -737 
Q 1344 -625 1503 -206 
L 1606 56 
L 191 3500 
L 800 3500 
L 1894 763 
L 2988 3500 
L 3597 3500 
L 2059 -325 
z
" id="DejaVuSans-79" transform="scale(0.015625)"/>
      <path d="M -19 4666 
L 3928 4666 
L 3928 4134 
L 2272 4134 
L 2272 0 
L 1638 0 
L 1638 4134 
L -19 4134 
L -19 4666 
z
" id="DejaVuSans-54" transform="scale(0.015625)"/>
      <path d="M 3513 2113 
L 3513 0 
L 2938 0 
L 2938 2094 
Q 2938 2591 2744 2837 
Q 2550 3084 2163 3084 
Q 1697 3084 1428 2787 
Q 1159 2491 1159 1978 
L 1159 0 
L 581 0 
L 581 3500 
L 1159 3500 
L 1159 2956 
Q 1366 3272 1645 3428 
Q 1925 3584 2291 3584 
Q 2894 3584 3203 3211 
Q 3513 2838 3513 2113 
z
" id="DejaVuSans-6e" transform="scale(0.015625)"/>
      <path d="M 1259 4147 
L 1259 2394 
L 2053 2394 
Q 2494 2394 2734 2622 
Q 2975 2850 2975 3272 
Q 2975 3691 2734 3919 
Q 2494 4147 2053 4147 
L 1259 4147 
z
M 628 4666 
L 2053 4666 
Q 2838 4666 3239 4311 
Q 3641 3956 3641 3272 
Q 3641 2581 3239 2228 
Q 2838 1875 2053 1875 
L 1259 1875 
L 1259 0 
L 628 0 
L 628 4666 
z
" id="DejaVuSans-50" transform="scale(0.015625)"/>
      <path d="M 581 4863 
L 1159 4863 
L 1159 1991 
L 2875 3500 
L 3609 3500 
L 1753 1863 
L 3688 0 
L 2938 0 
L 1159 1709 
L 1159 0 
L 581 0 
L 581 4863 
z
" id="DejaVuSans-6b" transform="scale(0.015625)"/>
      <path d="M 1228 531 
L 3431 531 
L 3431 0 
L 469 0 
L 469 531 
Q 828 903 1448 1529 
Q 2069 2156 2228 2338 
Q 2531 2678 2651 2914 
Q 2772 3150 2772 3378 
Q 2772 3750 2511 3984 
Q 2250 4219 1831 4219 
Q 1534 4219 1204 4116 
Q 875 4013 500 3803 
L 500 4441 
Q 881 4594 1212 4672 
Q 1544 4750 1819 4750 
Q 2544 4750 2975 4387 
Q 3406 4025 3406 3419 
Q 3406 3131 3298 2873 
Q 3191 2616 2906 2266 
Q 2828 2175 2409 1742 
Q 1991 1309 1228 531 
z
" id="DejaVuSans-32" transform="scale(0.015625)"/>
      <path d="M 2034 4250 
Q 1547 4250 1301 3770 
Q 1056 3291 1056 2328 
Q 1056 1369 1301 889 
Q 1547 409 2034 409 
Q 2525 409 2770 889 
Q 3016 1369 3016 2328 
Q 3016 3291 2770 3770 
Q 2525 4250 2034 4250 
z
M 2034 4750 
Q 2819 4750 3233 4129 
Q 3647 3509 3647 2328 
Q 3647 1150 3233 529 
Q 2819 -91 2034 -91 
Q 1250 -91 836 529 
Q 422 1150 422 2328 
Q 422 3509 836 4129 
Q 1250 4750 2034 4750 
z
" id="DejaVuSans-30" transform="scale(0.015625)"/>
     </defs>
     <use xlink:href="#DejaVuSans-46"/>
     <use x="50.269531" xlink:href="#DejaVuSans-72"/>
     <use x="89.132812" xlink:href="#DejaVuSans-65"/>
     <use x="150.65625" xlink:href="#DejaVuSans-65"/>
     <use x="212.179688" xlink:href="#DejaVuSans-73"/>
     <use x="264.279297" xlink:href="#DejaVuSans-74"/>
     <use x="303.488281" xlink:href="#DejaVuSans-79"/>
     <use x="362.667969" xlink:href="#DejaVuSans-6c"/>
     <use x="390.451172" xlink:href="#DejaVuSans-65"/>
     <use x="451.974609" xlink:href="#DejaVuSans-20"/>
     <use x="483.761719" xlink:href="#DejaVuSans-54"/>
     <use x="527.845703" xlink:href="#DejaVuSans-65"/>
     <use x="589.369141" xlink:href="#DejaVuSans-72"/>
     <use x="628.732422" xlink:href="#DejaVuSans-72"/>
     <use x="669.845703" xlink:href="#DejaVuSans-61"/>
     <use x="731.125" xlink:href="#DejaVuSans-69"/>
     <use x="758.908203" xlink:href="#DejaVuSans-6e"/>
     <use x="822.287109" xlink:href="#DejaVuSans-20"/>
     <use x="854.074219" xlink:href="#DejaVuSans-50"/>
     <use x="909.876953" xlink:href="#DejaVuSans-61"/>
     <use x="971.15625" xlink:href="#DejaVuSans-72"/>
     <use x="1012.269531" xlink:href="#DejaVuSans-6b"/>
     <use x="1070.179688" xlink:href="#DejaVuSans-20"/>
     <use x="1101.966797" xlink:href="#DejaVuSans-32"/>
     <use x="1165.589844" xlink:href="#DejaVuSans-30"/>
     <use x="1229.212891" xlink:href="#DejaVuSans-2e"/>
     <use x="1261" xlink:href="#DejaVuSans-32"/>
     <use x="1324.623047" xlink:href="#DejaVuSans-b0"/>
    </g>
   </g>
   <g id="text_8">
    <g id="patch_13">
     <path d="M 83.500259 35.558878 
L 83.804821 50.878039 
L 85.780055 50.838769 
L 85.475494 35.519609 
z
" style="fill:#ffffff;"/>
    </g>
    <!-- Bennekill 11.9° -->
    <g style="fill:#008000;" transform="translate(83.936508 35.570209)rotate(-271.138952)scale(0.02 -0.02)">
     <defs>
      <path d="M 703 97 
L 703 672 
Q 941 559 1184 500 
Q 1428 441 1663 441 
Q 2288 441 2617 861 
Q 2947 1281 2994 2138 
Q 2813 1869 2534 1725 
Q 2256 1581 1919 1581 
Q 1219 1581 811 2004 
Q 403 2428 403 3163 
Q 403 3881 828 4315 
Q 1253 4750 1959 4750 
Q 2769 4750 3195 4129 
Q 3622 3509 3622 2328 
Q 3622 1225 3098 567 
Q 2575 -91 1691 -91 
Q 1453 -91 1209 -44 
Q 966 3 703 97 
z
M 1959 2075 
Q 2384 2075 2632 2365 
Q 2881 2656 2881 3163 
Q 2881 3666 2632 3958 
Q 2384 4250 1959 4250 
Q 1534 4250 1286 3958 
Q 1038 3666 1038 3163 
Q 1038 2656 1286 2365 
Q 1534 2075 1959 2075 
z
" id="DejaVuSans-39" transform="scale(0.015625)"/>
     </defs>
     <use xlink:href="#DejaVuSans-42"/>
     <use x="68.603516" xlink:href="#DejaVuSans-65"/>
     <use x="130.126953" xlink:href="#DejaVuSans-6e"/>
     <use x="193.505859" xlink:href="#DejaVuSans-6e"/>
     <use x="256.884766" xlink:href="#DejaVuSans-65"/>
     <use x="318.408203" xlink:href="#DejaVuSans-6b"/>
     <use x="376.318359" xlink:href="#DejaVuSans-69"/>
     <use x="404.101562" xlink:href="#DejaVuSans-6c"/>
     <use x="431.884766" xlink:href="#DejaVuSans-6c"/>
     <use x="459.667969" xlink:href="#DejaVuSans-20"/>
     <use x="491.455078" xlink:href="#DejaVuSans-31"/>
     <use x="555.078125" xlink:href="#DejaVuSans-31"/>
     <use x="618.701172" xlink:href="#DejaVuSans-2e"/>
     <use x="650.488281" xlink:href="#DejaVuSans-39"/>
     <use x="714.111328" xlink:href="#DejaVuSans-b0"/>
    </g>
   </g>
   <g id="text_9">
    <g id="patch_14">
     <path d="M 54.047028 65.725681 
L 67.601596 57.513692 
L 66.57789 55.823982 
L 53.023323 64.035971 
z
" style="fill:#ffffff;"/>
    </g>
    <!-- Kittatinny 16.5° -->
    <g style="fill:#008000;" transform="translate(53.838245 65.34247)rotate(-31.209436)scale(0.02 -0.02)">
     <defs>
      <path d="M 628 4666 
L 1259 4666 
L 1259 2694 
L 3353 4666 
L 4166 4666 
L 1850 2491 
L 4331 0 
L 3500 0 
L 1259 2247 
L 1259 0 
L 628 0 
L 628 4666 
z
" id="DejaVuSans-4b" transform="scale(0.015625)"/>
      <path d="M 2113 2584 
Q 1688 2584 1439 2293 
Q 1191 2003 1191 1497 
Q 1191 994 1439 701 
Q 1688 409 2113 409 
Q 2538 409 2786 701 
Q 3034 994 3034 1497 
Q 3034 2003 2786 2293 
Q 2538 2584 2113 2584 
z
M 3366 4563 
L 3366 3988 
Q 3128 4100 2886 4159 
Q 2644 4219 2406 4219 
Q 1781 4219 1451 3797 
Q 1122 3375 1075 2522 
Q 1259 2794 1537 2939 
Q 1816 3084 2150 3084 
Q 2853 3084 3261 2657 
Q 3669 2231 3669 1497 
Q 3669 778 3244 343 
Q 2819 -91 2113 -91 
Q 1303 -91 875 529 
Q 447 1150 447 2328 
Q 447 3434 972 4092 
Q 1497 4750 2381 4750 
Q 2619 4750 2861 4703 
Q 3103 4656 3366 4563 
z
" id="DejaVuSans-36" transform="scale(0.015625)"/>
      <path d="M 691 4666 
L 3169 4666 
L 3169 4134 
L 1269 4134 
L 1269 2991 
Q 1406 3038 1543 3061 
Q 1681 3084 1819 3084 
Q 2600 3084 3056 2656 
Q 3513 2228 3513 1497 
Q 3513 744 3044 326 
Q 2575 -91 1722 -91 
Q 1428 -91 1123 -41 
Q 819 9 494 109 
L 494 744 
Q 775 591 1075 516 
Q 1375 441 1709 441 
Q 2250 441 2565 725 
Q 2881 1009 2881 1497 
Q 2881 1984 2565 2268 
Q 2250 2553 1709 2553 
Q 1456 2553 1204 2497 
Q 953 2441 691 2322 
L 691 4666 
z
" id="DejaVuSans-35" transform="scale(0.015625)"/>
     </defs>
     <use xlink:href="#DejaVuSans-4b"/>
     <use x="65.576172" xlink:href="#DejaVuSans-69"/>
     <use x="93.359375" xlink:href="#DejaVuSans-74"/>
     <use x="132.568359" xlink:href="#DejaVuSans-74"/>
     <use x="171.777344" xlink:href="#DejaVuSans-61"/>
     <use x="233.056641" xlink:href="#DejaVuSans-74"/>
     <use x="272.265625" xlink:href="#DejaVuSans-69"/>
     <use x="300.048828" xlink:href="#DejaVuSans-6e"/>
     <use x="363.427734" xlink:href="#DejaVuSans-6e"/>
     <use x="426.806641" xlink:href="#DejaVuSans-79"/>
     <use x="485.986328" xlink:href="#DejaVuSans-20"/>
     <use x="517.773438" xlink:href="#DejaVuSans-31"/>
     <use x="581.396484" xlink:href="#DejaVuSans-36"/>
     <use x="645.019531" xlink:href="#DejaVuSans-2e"/>
     <use x="676.806641" xlink:href="#DejaVuSans-35"/>
     <use x="740.429688" xlink:href="#DejaVuSans-b0"/>
    </g>
   </g>
   <g id="text_10">
    <g id="patch_15">
     <path d="M 53.108906 80.601408 
L 60.689899 94.864714 
L 62.434421 93.937495 
L 54.853429 79.674189 
z
" style="fill:#ffffff;"/>
    </g>
    <!-- Renegade 25.7° -->
    <g transform="translate(53.503236 80.41447)rotate(-297.990786)scale(0.02 -0.02)">
     <defs>
      <path d="M 2841 2188 
Q 3044 2119 3236 1894 
Q 3428 1669 3622 1275 
L 4263 0 
L 3584 0 
L 2988 1197 
Q 2756 1666 2539 1819 
Q 2322 1972 1947 1972 
L 1259 1972 
L 1259 0 
L 628 0 
L 628 4666 
L 2053 4666 
Q 2853 4666 3247 4331 
Q 3641 3997 3641 3322 
Q 3641 2881 3436 2590 
Q 3231 2300 2841 2188 
z
M 1259 4147 
L 1259 2491 
L 2053 2491 
Q 2509 2491 2742 2702 
Q 2975 2913 2975 3322 
Q 2975 3731 2742 3939 
Q 2509 4147 2053 4147 
L 1259 4147 
z
" id="DejaVuSans-52" transform="scale(0.015625)"/>
     </defs>
     <use xlink:href="#DejaVuSans-52"/>
     <use x="64.982422" xlink:href="#DejaVuSans-65"/>
     <use x="126.505859" xlink:href="#DejaVuSans-6e"/>
     <use x="189.884766" xlink:href="#DejaVuSans-65"/>
     <use x="251.408203" xlink:href="#DejaVuSans-67"/>
     <use x="314.884766" xlink:href="#DejaVuSans-61"/>
     <use x="376.164062" xlink:href="#DejaVuSans-64"/>
     <use x="439.640625" xlink:href="#DejaVuSans-65"/>
     <use x="501.164062" xlink:href="#DejaVuSans-20"/>
     <use x="532.951172" xlink:href="#DejaVuSans-32"/>
     <use x="596.574219" xlink:href="#DejaVuSans-35"/>
     <use x="660.197266" xlink:href="#DejaVuSans-2e"/>
     <use x="691.984375" xlink:href="#DejaVuSans-37"/>
     <use x="755.607422" xlink:href="#DejaVuSans-b0"/>
    </g>
   </g>
   <g id="text_11">
    <g id="patch_16">
     <path d="M 34.139663 72.550415 
L 43.914086 82.596542 
L 45.330081 81.218844 
L 35.555658 71.172717 
z
" style="fill:#ffffff;"/>
    </g>
    <!-- Lookout 17.7° -->
    <g style="fill:#4169e1;" transform="translate(34.466061 72.260749)rotate(-314.214627)scale(0.02 -0.02)">
     <use xlink:href="#DejaVuSans-4c"/>
     <use x="53.962891" xlink:href="#DejaVuSans-6f"/>
     <use x="115.144531" xlink:href="#DejaVuSans-6f"/>
     <use x="176.326172" xlink:href="#DejaVuSans-6b"/>
     <use x="230.611328" xlink:href="#DejaVuSans-6f"/>
     <use x="291.792969" xlink:href="#DejaVuSans-75"/>
     <use x="355.171875" xlink:href="#DejaVuSans-74"/>
     <use x="394.380859" xlink:href="#DejaVuSans-20"/>
     <use x="426.167969" xlink:href="#DejaVuSans-31"/>
     <use x="489.791016" xlink:href="#DejaVuSans-37"/>
     <use x="553.414062" xlink:href="#DejaVuSans-2e"/>
     <use x="585.201172" xlink:href="#DejaVuSans-37"/>
     <use x="648.824219" xlink:href="#DejaVuSans-b0"/>
    </g>
   </g>
   <g id="text_12">
    <g id="patch_17">
     <path d="M 33.779949 93.743298 
L 55.394306 110.29891 
L 56.595635 108.730502 
L 34.981278 92.17489 
z
" style="fill:#ffffff;"/>
    </g>
    <!-- Upper Pennsylvannia 14.5° -->
    <g style="fill:#008000;" transform="translate(34.060909 93.409378)rotate(-322.549532)scale(0.02 -0.02)">
     <defs>
      <path d="M 556 4666 
L 1191 4666 
L 1191 1831 
Q 1191 1081 1462 751 
Q 1734 422 2344 422 
Q 2950 422 3222 751 
Q 3494 1081 3494 1831 
L 3494 4666 
L 4128 4666 
L 4128 1753 
Q 4128 841 3676 375 
Q 3225 -91 2344 -91 
Q 1459 -91 1007 375 
Q 556 841 556 1753 
L 556 4666 
z
" id="DejaVuSans-55" transform="scale(0.015625)"/>
      <path d="M 191 3500 
L 800 3500 
L 1894 563 
L 2988 3500 
L 3597 3500 
L 2284 0 
L 1503 0 
L 191 3500 
z
" id="DejaVuSans-76" transform="scale(0.015625)"/>
      <path d="M 2419 4116 
L 825 1625 
L 2419 1625 
L 2419 4116 
z
M 2253 4666 
L 3047 4666 
L 3047 1625 
L 3713 1625 
L 3713 1100 
L 3047 1100 
L 3047 0 
L 2419 0 
L 2419 1100 
L 313 1100 
L 313 1709 
L 2253 4666 
z
" id="DejaVuSans-34" transform="scale(0.015625)"/>
     </defs>
     <use xlink:href="#DejaVuSans-55"/>
     <use x="73.193359" xlink:href="#DejaVuSans-70"/>
     <use x="136.669922" xlink:href="#DejaVuSans-70"/>
     <use x="200.146484" xlink:href="#DejaVuSans-65"/>
     <use x="261.669922" xlink:href="#DejaVuSans-72"/>
     <use x="302.783203" xlink:href="#DejaVuSans-20"/>
     <use x="334.570312" xlink:href="#DejaVuSans-50"/>
     <use x="391.248047" xlink:href="#DejaVuSans-65"/>
     <use x="452.771484" xlink:href="#DejaVuSans-6e"/>
     <use x="516.150391" xlink:href="#DejaVuSans-6e"/>
     <use x="579.529297" xlink:href="#DejaVuSans-73"/>
     <use x="631.628906" xlink:href="#DejaVuSans-79"/>
     <use x="690.808594" xlink:href="#DejaVuSans-6c"/>
     <use x="718.591797" xlink:href="#DejaVuSans-76"/>
     <use x="777.771484" xlink:href="#DejaVuSans-61"/>
     <use x="839.050781" xlink:href="#DejaVuSans-6e"/>
     <use x="902.429688" xlink:href="#DejaVuSans-6e"/>
     <use x="965.808594" xlink:href="#DejaVuSans-69"/>
     <use x="993.591797" xlink:href="#DejaVuSans-61"/>
     <use x="1054.871094" xlink:href="#DejaVuSans-20"/>
     <use x="1086.658203" xlink:href="#DejaVuSans-31"/>
     <use x="1150.28125" xlink:href="#DejaVuSans-34"/>
     <use x="1213.904297" xlink:href="#DejaVuSans-2e"/>
     <use x="1245.691406" xlink:href="#DejaVuSans-35"/>
     <use x="1309.314453" xlink:href="#DejaVuSans-b0"/>
    </g>
   </g>
   <g id="text_13">
    <g id="patch_18">
     <path d="M 22.692743 96.12782 
L 41.945122 109.404212 
L 43.066686 107.777808 
L 23.814306 94.501417 
z
" style="fill:#ffffff;"/>
    </g>
    <!-- Upper Tomahawk 14.3° -->
    <g style="fill:#008000;" transform="translate(22.956689 95.780295)rotate(-325.409953)scale(0.02 -0.02)">
     <defs>
      <path d="M 3328 2828 
Q 3544 3216 3844 3400 
Q 4144 3584 4550 3584 
Q 5097 3584 5394 3201 
Q 5691 2819 5691 2113 
L 5691 0 
L 5113 0 
L 5113 2094 
Q 5113 2597 4934 2840 
Q 4756 3084 4391 3084 
Q 3944 3084 3684 2787 
Q 3425 2491 3425 1978 
L 3425 0 
L 2847 0 
L 2847 2094 
Q 2847 2600 2669 2842 
Q 2491 3084 2119 3084 
Q 1678 3084 1418 2786 
Q 1159 2488 1159 1978 
L 1159 0 
L 581 0 
L 581 3500 
L 1159 3500 
L 1159 2956 
Q 1356 3278 1631 3431 
Q 1906 3584 2284 3584 
Q 2666 3584 2933 3390 
Q 3200 3197 3328 2828 
z
" id="DejaVuSans-6d" transform="scale(0.015625)"/>
      <path d="M 269 3500 
L 844 3500 
L 1563 769 
L 2278 3500 
L 2956 3500 
L 3675 769 
L 4391 3500 
L 4966 3500 
L 4050 0 
L 3372 0 
L 2619 2869 
L 1863 0 
L 1184 0 
L 269 3500 
z
" id="DejaVuSans-77" transform="scale(0.015625)"/>
      <path d="M 2597 2516 
Q 3050 2419 3304 2112 
Q 3559 1806 3559 1356 
Q 3559 666 3084 287 
Q 2609 -91 1734 -91 
Q 1441 -91 1130 -33 
Q 819 25 488 141 
L 488 750 
Q 750 597 1062 519 
Q 1375 441 1716 441 
Q 2309 441 2620 675 
Q 2931 909 2931 1356 
Q 2931 1769 2642 2001 
Q 2353 2234 1838 2234 
L 1294 2234 
L 1294 2753 
L 1863 2753 
Q 2328 2753 2575 2939 
Q 2822 3125 2822 3475 
Q 2822 3834 2567 4026 
Q 2313 4219 1838 4219 
Q 1578 4219 1281 4162 
Q 984 4106 628 3988 
L 628 4550 
Q 988 4650 1302 4700 
Q 1616 4750 1894 4750 
Q 2613 4750 3031 4423 
Q 3450 4097 3450 3541 
Q 3450 3153 3228 2886 
Q 3006 2619 2597 2516 
z
" id="DejaVuSans-33" transform="scale(0.015625)"/>
     </defs>
     <use xlink:href="#DejaVuSans-55"/>
     <use x="73.193359" xlink:href="#DejaVuSans-70"/>
     <use x="136.669922" xlink:href="#DejaVuSans-70"/>
     <use x="200.146484" xlink:href="#DejaVuSans-65"/>
     <use x="261.669922" xlink:href="#DejaVuSans-72"/>
     <use x="302.783203" xlink:href="#DejaVuSans-20"/>
     <use x="334.570312" xlink:href="#DejaVuSans-54"/>
     <use x="378.654297" xlink:href="#DejaVuSans-6f"/>
     <use x="439.835938" xlink:href="#DejaVuSans-6d"/>
     <use x="537.248047" xlink:href="#DejaVuSans-61"/>
     <use x="598.527344" xlink:href="#DejaVuSans-68"/>
     <use x="661.90625" xlink:href="#DejaVuSans-61"/>
     <use x="723.185547" xlink:href="#DejaVuSans-77"/>
     <use x="804.972656" xlink:href="#DejaVuSans-6b"/>
     <use x="862.882812" xlink:href="#DejaVuSans-20"/>
     <use x="894.669922" xlink:href="#DejaVuSans-31"/>
     <use x="958.292969" xlink:href="#DejaVuSans-34"/>
     <use x="1021.916016" xlink:href="#DejaVuSans-2e"/>
     <use x="1053.703125" xlink:href="#DejaVuSans-33"/>
     <use x="1117.326172" xlink:href="#DejaVuSans-b0"/>
    </g>
   </g>
   <g id="text_14">
    <g id="patch_19">
     <path d="M 19.123762 99.936681 
L 37.592877 114.63761 
L 38.823241 113.091875 
L 20.354126 98.390946 
z
" style="fill:#ffffff;"/>
    </g>
    <!-- Upper Arrowhead 15.6° -->
    <g style="fill:#008000;" transform="translate(19.410899 99.608057)rotate(-321.481134)scale(0.02 -0.02)">
     <defs>
      <path d="M 2188 4044 
L 1331 1722 
L 3047 1722 
L 2188 4044 
z
M 1831 4666 
L 2547 4666 
L 4325 0 
L 3669 0 
L 3244 1197 
L 1141 1197 
L 716 0 
L 50 0 
L 1831 4666 
z
" id="DejaVuSans-41" transform="scale(0.015625)"/>
     </defs>
     <use xlink:href="#DejaVuSans-55"/>
     <use x="73.193359" xlink:href="#DejaVuSans-70"/>
     <use x="136.669922" xlink:href="#DejaVuSans-70"/>
     <use x="200.146484" xlink:href="#DejaVuSans-65"/>
     <use x="261.669922" xlink:href="#DejaVuSans-72"/>
     <use x="302.783203" xlink:href="#DejaVuSans-20"/>
     <use x="334.570312" xlink:href="#DejaVuSans-41"/>
     <use x="402.978516" xlink:href="#DejaVuSans-72"/>
     <use x="442.341797" xlink:href="#DejaVuSans-72"/>
     <use x="481.205078" xlink:href="#DejaVuSans-6f"/>
     <use x="542.386719" xlink:href="#DejaVuSans-77"/>
     <use x="624.173828" xlink:href="#DejaVuSans-68"/>
     <use x="687.552734" xlink:href="#DejaVuSans-65"/>
     <use x="749.076172" xlink:href="#DejaVuSans-61"/>
     <use x="810.355469" xlink:href="#DejaVuSans-64"/>
     <use x="873.832031" xlink:href="#DejaVuSans-20"/>
     <use x="905.619141" xlink:href="#DejaVuSans-31"/>
     <use x="969.242188" xlink:href="#DejaVuSans-35"/>
     <use x="1032.865234" xlink:href="#DejaVuSans-2e"/>
     <use x="1064.652344" xlink:href="#DejaVuSans-36"/>
     <use x="1128.275391" xlink:href="#DejaVuSans-b0"/>
    </g>
   </g>
   <g id="text_15">
    <g id="patch_20">
     <path d="M 12.496505 101.325193 
L 29.051297 116.178208 
L 30.370647 114.707694 
L 13.815854 99.854679 
z
" style="fill:#ffffff;"/>
    </g>
    <!-- Upper Delaware 12.6° -->
    <g style="fill:#008000;" transform="translate(12.802516 101.014069)rotate(-318.10144)scale(0.02 -0.02)">
     <use xlink:href="#DejaVuSans-55"/>
     <use x="73.193359" xlink:href="#DejaVuSans-70"/>
     <use x="136.669922" xlink:href="#DejaVuSans-70"/>
     <use x="200.146484" xlink:href="#DejaVuSans-65"/>
     <use x="261.669922" xlink:href="#DejaVuSans-72"/>
     <use x="302.783203" xlink:href="#DejaVuSans-20"/>
     <use x="334.570312" xlink:href="#DejaVuSans-44"/>
     <use x="411.572266" xlink:href="#DejaVuSans-65"/>
     <use x="473.095703" xlink:href="#DejaVuSans-6c"/>
     <use x="500.878906" xlink:href="#DejaVuSans-61"/>
     <use x="562.158203" xlink:href="#DejaVuSans-77"/>
     <use x="643.945312" xlink:href="#DejaVuSans-61"/>
     <use x="705.224609" xlink:href="#DejaVuSans-72"/>
     <use x="744.087891" xlink:href="#DejaVuSans-65"/>
     <use x="805.611328" xlink:href="#DejaVuSans-20"/>
     <use x="837.398438" xlink:href="#DejaVuSans-31"/>
     <use x="901.021484" xlink:href="#DejaVuSans-32"/>
     <use x="964.644531" xlink:href="#DejaVuSans-2e"/>
     <use x="996.431641" xlink:href="#DejaVuSans-36"/>
     <use x="1060.054688" xlink:href="#DejaVuSans-b0"/>
    </g>
   </g>
   <g id="text_16">
    <g id="patch_21">
     <path d="M 6.510758 111.116623 
L 12.141649 129.471379 
L 14.030393 128.891948 
L 8.399502 110.537192 
z
" style="fill:#ffffff;"/>
    </g>
    <!-- Country Club 10.4° -->
    <g style="fill:#008000;" transform="translate(6.93339 111.007887)rotate(-287.055021)scale(0.02 -0.02)">
     <use xlink:href="#DejaVuSans-43"/>
     <use x="69.824219" xlink:href="#DejaVuSans-6f"/>
     <use x="131.005859" xlink:href="#DejaVuSans-75"/>
     <use x="194.384766" xlink:href="#DejaVuSans-6e"/>
     <use x="257.763672" xlink:href="#DejaVuSans-74"/>
     <use x="296.972656" xlink:href="#DejaVuSans-72"/>
     <use x="338.085938" xlink:href="#DejaVuSans-79"/>
     <use x="397.265625" xlink:href="#DejaVuSans-20"/>
     <use x="429.052734" xlink:href="#DejaVuSans-43"/>
     <use x="498.876953" xlink:href="#DejaVuSans-6c"/>
     <use x="526.660156" xlink:href="#DejaVuSans-75"/>
     <use x="590.039062" xlink:href="#DejaVuSans-62"/>
     <use x="653.515625" xlink:href="#DejaVuSans-20"/>
     <use x="685.302734" xlink:href="#DejaVuSans-31"/>
     <use x="748.925781" xlink:href="#DejaVuSans-30"/>
     <use x="812.548828" xlink:href="#DejaVuSans-2e"/>
     <use x="844.335938" xlink:href="#DejaVuSans-34"/>
     <use x="907.958984" xlink:href="#DejaVuSans-b0"/>
    </g>
   </g>
   <g id="text_17">
    <g id="patch_22">
     <path d="M 12.592476 109.787193 
L 18.644012 136.645768 
L 20.571323 136.211524 
L 14.519787 109.352949 
z
" style="fill:#ffffff;"/>
    </g>
    <!-- Freestyle Terrain Park 13.5° -->
    <g style="fill:#008000;" transform="translate(13.022149 109.710885)rotate(-282.69735)scale(0.02 -0.02)">
     <use xlink:href="#DejaVuSans-46"/>
     <use x="50.269531" xlink:href="#DejaVuSans-72"/>
     <use x="89.132812" xlink:href="#DejaVuSans-65"/>
     <use x="150.65625" xlink:href="#DejaVuSans-65"/>
     <use x="212.179688" xlink:href="#DejaVuSans-73"/>
     <use x="264.279297" xlink:href="#DejaVuSans-74"/>
     <use x="303.488281" xlink:href="#DejaVuSans-79"/>
     <use x="362.667969" xlink:href="#DejaVuSans-6c"/>
     <use x="390.451172" xlink:href="#DejaVuSans-65"/>
     <use x="451.974609" xlink:href="#DejaVuSans-20"/>
     <use x="483.761719" xlink:href="#DejaVuSans-54"/>
     <use x="527.845703" xlink:href="#DejaVuSans-65"/>
     <use x="589.369141" xlink:href="#DejaVuSans-72"/>
     <use x="628.732422" xlink:href="#DejaVuSans-72"/>
     <use x="669.845703" xlink:href="#DejaVuSans-61"/>
     <use x="731.125" xlink:href="#DejaVuSans-69"/>
     <use x="758.908203" xlink:href="#DejaVuSans-6e"/>
     <use x="822.287109" xlink:href="#DejaVuSans-20"/>
     <use x="854.074219" xlink:href="#DejaVuSans-50"/>
     <use x="909.876953" xlink:href="#DejaVuSans-61"/>
     <use x="971.15625" xlink:href="#DejaVuSans-72"/>
     <use x="1012.269531" xlink:href="#DejaVuSans-6b"/>
     <use x="1070.179688" xlink:href="#DejaVuSans-20"/>
     <use x="1101.966797" xlink:href="#DejaVuSans-31"/>
     <use x="1165.589844" xlink:href="#DejaVuSans-33"/>
     <use x="1229.212891" xlink:href="#DejaVuSans-2e"/>
     <use x="1261" xlink:href="#DejaVuSans-35"/>
     <use x="1324.623047" xlink:href="#DejaVuSans-b0"/>
    </g>
   </g>
   <g id="text_18">
    <g id="patch_23">
     <path d="M 49.216779 154.688598 
L 69.123284 164.463302 
L 69.994063 162.689932 
L 50.087557 152.915229 
z
" style="fill:#ffffff;"/>
    </g>
    <!-- Lower Delaware 19.5° -->
    <g style="fill:#4169e1;" transform="translate(49.426875 154.306105)rotate(-333.847549)scale(0.02 -0.02)">
     <use xlink:href="#DejaVuSans-4c"/>
     <use x="53.962891" xlink:href="#DejaVuSans-6f"/>
     <use x="115.144531" xlink:href="#DejaVuSans-77"/>
     <use x="196.931641" xlink:href="#DejaVuSans-65"/>
     <use x="258.455078" xlink:href="#DejaVuSans-72"/>
     <use x="299.568359" xlink:href="#DejaVuSans-20"/>
     <use x="331.355469" xlink:href="#DejaVuSans-44"/>
     <use x="408.357422" xlink:href="#DejaVuSans-65"/>
     <use x="469.880859" xlink:href="#DejaVuSans-6c"/>
     <use x="497.664062" xlink:href="#DejaVuSans-61"/>
     <use x="558.943359" xlink:href="#DejaVuSans-77"/>
     <use x="640.730469" xlink:href="#DejaVuSans-61"/>
     <use x="702.009766" xlink:href="#DejaVuSans-72"/>
     <use x="740.873047" xlink:href="#DejaVuSans-65"/>
     <use x="802.396484" xlink:href="#DejaVuSans-20"/>
     <use x="834.183594" xlink:href="#DejaVuSans-31"/>
     <use x="897.806641" xlink:href="#DejaVuSans-39"/>
     <use x="961.429688" xlink:href="#DejaVuSans-2e"/>
     <use x="993.216797" xlink:href="#DejaVuSans-35"/>
     <use x="1056.839844" xlink:href="#DejaVuSans-b0"/>
    </g>
   </g>
   <g id="text_19">
    <g id="patch_24">
     <path d="M 61.148969 143.42742 
L 79.413703 158.27969 
L 80.660133 156.74688 
L 62.395399 141.89461 
z
" style="fill:#ffffff;"/>
    </g>
    <!-- Lower Arrowhead 23.0° -->
    <g style="fill:#4169e1;" transform="translate(61.439521 143.101811)rotate(-320.883146)scale(0.02 -0.02)">
     <use xlink:href="#DejaVuSans-4c"/>
     <use x="53.962891" xlink:href="#DejaVuSans-6f"/>
     <use x="115.144531" xlink:href="#DejaVuSans-77"/>
     <use x="196.931641" xlink:href="#DejaVuSans-65"/>
     <use x="258.455078" xlink:href="#DejaVuSans-72"/>
     <use x="299.568359" xlink:href="#DejaVuSans-20"/>
     <use x="331.355469" xlink:href="#DejaVuSans-41"/>
     <use x="399.763672" xlink:href="#DejaVuSans-72"/>
     <use x="439.126953" xlink:href="#DejaVuSans-72"/>
     <use x="477.990234" xlink:href="#DejaVuSans-6f"/>
     <use x="539.171875" xlink:href="#DejaVuSans-77"/>
     <use x="620.958984" xlink:href="#DejaVuSans-68"/>
     <use x="684.337891" xlink:href="#DejaVuSans-65"/>
     <use x="745.861328" xlink:href="#DejaVuSans-61"/>
     <use x="807.140625" xlink:href="#DejaVuSans-64"/>
     <use x="870.617188" xlink:href="#DejaVuSans-20"/>
     <use x="902.404297" xlink:href="#DejaVuSans-32"/>
     <use x="966.027344" xlink:href="#DejaVuSans-33"/>
     <use x="1029.650391" xlink:href="#DejaVuSans-2e"/>
     <use x="1061.4375" xlink:href="#DejaVuSans-30"/>
     <use x="1125.060547" xlink:href="#DejaVuSans-b0"/>
    </g>
   </g>
   <g id="text_20">
    <g id="patch_25">
     <path d="M 69.602783 139.065184 
L 88.448082 152.804346 
L 89.611944 151.207937 
L 70.766645 137.468775 
z
" style="fill:#ffffff;"/>
    </g>
    <!-- Lower Tomahawk 21.5° -->
    <g style="fill:#4169e1;" transform="translate(69.87576 138.724706)rotate(-323.906088)scale(0.02 -0.02)">
     <use xlink:href="#DejaVuSans-4c"/>
     <use x="53.962891" xlink:href="#DejaVuSans-6f"/>
     <use x="115.144531" xlink:href="#DejaVuSans-77"/>
     <use x="196.931641" xlink:href="#DejaVuSans-65"/>
     <use x="258.455078" xlink:href="#DejaVuSans-72"/>
     <use x="299.568359" xlink:href="#DejaVuSans-20"/>
     <use x="331.355469" xlink:href="#DejaVuSans-54"/>
     <use x="375.439453" xlink:href="#DejaVuSans-6f"/>
     <use x="436.621094" xlink:href="#DejaVuSans-6d"/>
     <use x="534.033203" xlink:href="#DejaVuSans-61"/>
     <use x="595.3125" xlink:href="#DejaVuSans-68"/>
     <use x="658.691406" xlink:href="#DejaVuSans-61"/>
     <use x="719.970703" xlink:href="#DejaVuSans-77"/>
     <use x="801.757812" xlink:href="#DejaVuSans-6b"/>
     <use x="859.667969" xlink:href="#DejaVuSans-20"/>
     <use x="891.455078" xlink:href="#DejaVuSans-32"/>
     <use x="955.078125" xlink:href="#DejaVuSans-31"/>
     <use x="1018.701172" xlink:href="#DejaVuSans-2e"/>
     <use x="1050.488281" xlink:href="#DejaVuSans-35"/>
     <use x="1114.111328" xlink:href="#DejaVuSans-b0"/>
    </g>
   </g>
   <g id="text_21">
    <g id="patch_26">
     <path d="M 78.905864 135.378769 
L 91.501435 145.400788 
L 92.73152 143.85483 
L 80.135949 133.832811 
z
" style="fill:#ffffff;"/>
    </g>
    <!-- Tecumesh 20.3° -->
    <g style="fill:#4169e1;" transform="translate(79.192943 135.050094)rotate(-321.491506)scale(0.02 -0.02)">
     <defs>
      <path d="M 3122 3366 
L 3122 2828 
Q 2878 2963 2633 3030 
Q 2388 3097 2138 3097 
Q 1578 3097 1268 2742 
Q 959 2388 959 1747 
Q 959 1106 1268 751 
Q 1578 397 2138 397 
Q 2388 397 2633 464 
Q 2878 531 3122 666 
L 3122 134 
Q 2881 22 2623 -34 
Q 2366 -91 2075 -91 
Q 1284 -91 818 406 
Q 353 903 353 1747 
Q 353 2603 823 3093 
Q 1294 3584 2113 3584 
Q 2378 3584 2631 3529 
Q 2884 3475 3122 3366 
z
" id="DejaVuSans-63" transform="scale(0.015625)"/>
     </defs>
     <use xlink:href="#DejaVuSans-54"/>
     <use x="44.083984" xlink:href="#DejaVuSans-65"/>
     <use x="105.607422" xlink:href="#DejaVuSans-63"/>
     <use x="160.587891" xlink:href="#DejaVuSans-75"/>
     <use x="223.966797" xlink:href="#DejaVuSans-6d"/>
     <use x="321.378906" xlink:href="#DejaVuSans-65"/>
     <use x="382.902344" xlink:href="#DejaVuSans-73"/>
     <use x="435.001953" xlink:href="#DejaVuSans-68"/>
     <use x="498.380859" xlink:href="#DejaVuSans-20"/>
     <use x="530.167969" xlink:href="#DejaVuSans-32"/>
     <use x="593.791016" xlink:href="#DejaVuSans-30"/>
     <use x="657.414062" xlink:href="#DejaVuSans-2e"/>
     <use x="689.201172" xlink:href="#DejaVuSans-33"/>
     <use x="752.824219" xlink:href="#DejaVuSans-b0"/>
    </g>
   </g>
   <g id="text_22">
    <g id="patch_27">
     <path d="M 101.322438 135.826114 
L 128.197256 131.887638 
L 127.91079 129.932892 
L 101.035972 133.871369 
z
" style="fill:#ffffff;"/>
    </g>
    <!-- Lower Pennsylvannia 13.5° -->
    <g style="fill:#008000;" transform="translate(101.279016 135.391884)rotate(-8.337288)scale(0.02 -0.02)">
     <use xlink:href="#DejaVuSans-4c"/>
     <use x="53.962891" xlink:href="#DejaVuSans-6f"/>
     <use x="115.144531" xlink:href="#DejaVuSans-77"/>
     <use x="196.931641" xlink:href="#DejaVuSans-65"/>
     <use x="258.455078" xlink:href="#DejaVuSans-72"/>
     <use x="299.568359" xlink:href="#DejaVuSans-20"/>
     <use x="331.355469" xlink:href="#DejaVuSans-50"/>
     <use x="388.033203" xlink:href="#DejaVuSans-65"/>
     <use x="449.556641" xlink:href="#DejaVuSans-6e"/>
     <use x="512.935547" xlink:href="#DejaVuSans-6e"/>
     <use x="576.314453" xlink:href="#DejaVuSans-73"/>
     <use x="628.414062" xlink:href="#DejaVuSans-79"/>
     <use x="687.59375" xlink:href="#DejaVuSans-6c"/>
     <use x="715.376953" xlink:href="#DejaVuSans-76"/>
     <use x="774.556641" xlink:href="#DejaVuSans-61"/>
     <use x="835.835938" xlink:href="#DejaVuSans-6e"/>
     <use x="899.214844" xlink:href="#DejaVuSans-6e"/>
     <use x="962.59375" xlink:href="#DejaVuSans-69"/>
     <use x="990.376953" xlink:href="#DejaVuSans-61"/>
     <use x="1051.65625" xlink:href="#DejaVuSans-20"/>
     <use x="1083.443359" xlink:href="#DejaVuSans-31"/>
     <use x="1147.066406" xlink:href="#DejaVuSans-33"/>
     <use x="1210.689453" xlink:href="#DejaVuSans-2e"/>
     <use x="1242.476562" xlink:href="#DejaVuSans-35"/>
     <use x="1306.099609" xlink:href="#DejaVuSans-b0"/>
    </g>
   </g>
   <g id="text_23">
    <g id="patch_28">
     <path d="M 92.12402 129.888348 
L 104.144779 124.981301 
L 103.398116 123.152206 
L 91.377357 128.059253 
z
" style="fill:#ffffff;"/>
    </g>
    <!-- Minisink 5.0° -->
    <g style="fill:#008000;" transform="translate(91.97778 129.477185)rotate(-22.205994)scale(0.02 -0.02)">
     <defs>
      <path d="M 628 4666 
L 1569 4666 
L 2759 1491 
L 3956 4666 
L 4897 4666 
L 4897 0 
L 4281 0 
L 4281 4097 
L 3078 897 
L 2444 897 
L 1241 4097 
L 1241 0 
L 628 0 
L 628 4666 
z
" id="DejaVuSans-4d" transform="scale(0.015625)"/>
     </defs>
     <use xlink:href="#DejaVuSans-4d"/>
     <use x="86.279297" xlink:href="#DejaVuSans-69"/>
     <use x="114.0625" xlink:href="#DejaVuSans-6e"/>
     <use x="177.441406" xlink:href="#DejaVuSans-69"/>
     <use x="205.224609" xlink:href="#DejaVuSans-73"/>
     <use x="257.324219" xlink:href="#DejaVuSans-69"/>
     <use x="285.107422" xlink:href="#DejaVuSans-6e"/>
     <use x="348.486328" xlink:href="#DejaVuSans-6b"/>
     <use x="406.396484" xlink:href="#DejaVuSans-20"/>
     <use x="438.183594" xlink:href="#DejaVuSans-35"/>
     <use x="501.806641" xlink:href="#DejaVuSans-2e"/>
     <use x="533.59375" xlink:href="#DejaVuSans-30"/>
     <use x="597.216797" xlink:href="#DejaVuSans-b0"/>
    </g>
   </g>
   <g id="text_24">
    <g id="patch_29">
     <path d="M 31.109208 133.889168 
L 45.177604 144.500469 
L 46.36728 142.923204 
L 32.298884 132.311903 
z
" style="fill:#ffffff;"/>
    </g>
    <!-- Pocahontas 12.0° -->
    <g style="fill:#008000;" transform="translate(31.387687 133.553175)rotate(-322.974021)scale(0.02 -0.02)">
     <use xlink:href="#DejaVuSans-50"/>
     <use x="56.677734" xlink:href="#DejaVuSans-6f"/>
     <use x="117.859375" xlink:href="#DejaVuSans-63"/>
     <use x="172.839844" xlink:href="#DejaVuSans-61"/>
     <use x="234.119141" xlink:href="#DejaVuSans-68"/>
     <use x="297.498047" xlink:href="#DejaVuSans-6f"/>
     <use x="358.679688" xlink:href="#DejaVuSans-6e"/>
     <use x="422.058594" xlink:href="#DejaVuSans-74"/>
     <use x="461.267578" xlink:href="#DejaVuSans-61"/>
     <use x="522.546875" xlink:href="#DejaVuSans-73"/>
     <use x="574.646484" xlink:href="#DejaVuSans-20"/>
     <use x="606.433594" xlink:href="#DejaVuSans-31"/>
     <use x="670.056641" xlink:href="#DejaVuSans-32"/>
     <use x="733.679688" xlink:href="#DejaVuSans-2e"/>
     <use x="765.466797" xlink:href="#DejaVuSans-30"/>
     <use x="829.089844" xlink:href="#DejaVuSans-b0"/>
    </g>
   </g>
   <g id="text_25">
    <g id="patch_30">
     <path d="M 108.994252 148.26147 
L 131.133268 158.520829 
L 131.963929 156.728318 
L 109.824913 146.468958 
z
" style="fill:#ffffff;"/>
    </g>
    <!-- Greenhouse Slope 11.8° -->
    <g style="fill:#008000;" transform="translate(109.19569 147.874347)rotate(-335.136697)scale(0.02 -0.02)">
     <defs>
      <path d="M 3809 666 
L 3809 1919 
L 2778 1919 
L 2778 2438 
L 4434 2438 
L 4434 434 
Q 4069 175 3628 42 
Q 3188 -91 2688 -91 
Q 1594 -91 976 548 
Q 359 1188 359 2328 
Q 359 3472 976 4111 
Q 1594 4750 2688 4750 
Q 3144 4750 3555 4637 
Q 3966 4525 4313 4306 
L 4313 3634 
Q 3963 3931 3569 4081 
Q 3175 4231 2741 4231 
Q 1884 4231 1454 3753 
Q 1025 3275 1025 2328 
Q 1025 1384 1454 906 
Q 1884 428 2741 428 
Q 3075 428 3337 486 
Q 3600 544 3809 666 
z
" id="DejaVuSans-47" transform="scale(0.015625)"/>
      <path d="M 2034 2216 
Q 1584 2216 1326 1975 
Q 1069 1734 1069 1313 
Q 1069 891 1326 650 
Q 1584 409 2034 409 
Q 2484 409 2743 651 
Q 3003 894 3003 1313 
Q 3003 1734 2745 1975 
Q 2488 2216 2034 2216 
z
M 1403 2484 
Q 997 2584 770 2862 
Q 544 3141 544 3541 
Q 544 4100 942 4425 
Q 1341 4750 2034 4750 
Q 2731 4750 3128 4425 
Q 3525 4100 3525 3541 
Q 3525 3141 3298 2862 
Q 3072 2584 2669 2484 
Q 3125 2378 3379 2068 
Q 3634 1759 3634 1313 
Q 3634 634 3220 271 
Q 2806 -91 2034 -91 
Q 1263 -91 848 271 
Q 434 634 434 1313 
Q 434 1759 690 2068 
Q 947 2378 1403 2484 
z
M 1172 3481 
Q 1172 3119 1398 2916 
Q 1625 2713 2034 2713 
Q 2441 2713 2670 2916 
Q 2900 3119 2900 3481 
Q 2900 3844 2670 4047 
Q 2441 4250 2034 4250 
Q 1625 4250 1398 4047 
Q 1172 3844 1172 3481 
z
" id="DejaVuSans-38" transform="scale(0.015625)"/>
     </defs>
     <use xlink:href="#DejaVuSans-47"/>
     <use x="77.490234" xlink:href="#DejaVuSans-72"/>
     <use x="116.353516" xlink:href="#DejaVuSans-65"/>
     <use x="177.876953" xlink:href="#DejaVuSans-65"/>
     <use x="239.400391" xlink:href="#DejaVuSans-6e"/>
     <use x="302.779297" xlink:href="#DejaVuSans-68"/>
     <use x="366.158203" xlink:href="#DejaVuSans-6f"/>
     <use x="427.339844" xlink:href="#DejaVuSans-75"/>
     <use x="490.71875" xlink:href="#DejaVuSans-73"/>
     <use x="542.818359" xlink:href="#DejaVuSans-65"/>
     <use x="604.341797" xlink:href="#DejaVuSans-20"/>
     <use x="636.128906" xlink:href="#DejaVuSans-53"/>
     <use x="699.605469" xlink:href="#DejaVuSans-6c"/>
     <use x="727.388672" xlink:href="#DejaVuSans-6f"/>
     <use x="788.570312" xlink:href="#DejaVuSans-70"/>
     <use x="852.046875" xlink:href="#DejaVuSans-65"/>
     <use x="913.570312" xlink:href="#DejaVuSans-20"/>
     <use x="945.357422" xlink:href="#DejaVuSans-31"/>
     <use x="1008.980469" xlink:href="#DejaVuSans-31"/>
     <use x="1072.603516" xlink:href="#DejaVuSans-2e"/>
     <use x="1104.390625" xlink:href="#DejaVuSans-38"/>
     <use x="1168.013672" xlink:href="#DejaVuSans-b0"/>
    </g>
   </g>
   <g id="text_26">
    <!-- Shawnee Mountain -->
    <g transform="translate(28.990744 10.472071)scale(0.1 -0.1)">
     <use xlink:href="#DejaVuSans-53"/>
     <use x="63.476562" xlink:href="#DejaVuSans-68"/>
     <use x="126.855469" xlink:href="#DejaVuSans-61"/>
     <use x="188.134766" xlink:href="#DejaVuSans-77"/>
     <use x="269.921875" xlink:href="#DejaVuSans-6e"/>
     <use x="333.300781" xlink:href="#DejaVuSans-65"/>
     <use x="394.824219" xlink:href="#DejaVuSans-65"/>
     <use x="456.347656" xlink:href="#DejaVuSans-20"/>
     <use x="488.134766" xlink:href="#DejaVuSans-4d"/>
     <use x="574.414062" xlink:href="#DejaVuSans-6f"/>
     <use x="635.595703" xlink:href="#DejaVuSans-75"/>
     <use x="698.974609" xlink:href="#DejaVuSans-6e"/>
     <use x="762.353516" xlink:href="#DejaVuSans-74"/>
     <use x="801.5625" xlink:href="#DejaVuSans-61"/>
     <use x="862.841797" xlink:href="#DejaVuSans-69"/>
     <use x="890.625" xlink:href="#DejaVuSans-6e"/>
    </g>
   </g>
   <g id="legend_1">
    <g id="line2d_41">
     <path d="M 6.688791 190.887308 
L 16.688791 190.887308 
" style="fill:none;stroke:#008000;stroke-linecap:square;stroke-width:1.5;"/>
    </g>
    <g id="line2d_42"/>
    <g id="text_27">
     <!-- Easy -->
     <g transform="translate(20.688791 192.637308)scale(0.05 -0.05)">
      <use xlink:href="#DejaVuSans-45"/>
      <use x="63.183594" xlink:href="#DejaVuSans-61"/>
      <use x="124.462891" xlink:href="#DejaVuSans-73"/>
      <use x="176.5625" xlink:href="#DejaVuSans-79"/>
     </g>
    </g>
    <g id="line2d_43">
     <path d="M 6.688791 198.226371 
L 16.688791 198.226371 
" style="fill:none;stroke:#4169e1;stroke-linecap:square;stroke-width:1.5;"/>
    </g>
    <g id="line2d_44"/>
    <g id="text_28">
     <!-- Intermediate -->
     <g transform="translate(20.688791 199.976371)scale(0.05 -0.05)">
      <defs>
       <path d="M 628 4666 
L 1259 4666 
L 1259 0 
L 628 0 
L 628 4666 
z
" id="DejaVuSans-49" transform="scale(0.015625)"/>
      </defs>
      <use xlink:href="#DejaVuSans-49"/>
      <use x="29.492188" xlink:href="#DejaVuSans-6e"/>
      <use x="92.871094" xlink:href="#DejaVuSans-74"/>
      <use x="132.080078" xlink:href="#DejaVuSans-65"/>
      <use x="193.603516" xlink:href="#DejaVuSans-72"/>
      <use x="232.966797" xlink:href="#DejaVuSans-6d"/>
      <use x="330.378906" xlink:href="#DejaVuSans-65"/>
      <use x="391.902344" xlink:href="#DejaVuSans-64"/>
      <use x="455.378906" xlink:href="#DejaVuSans-69"/>
      <use x="483.162109" xlink:href="#DejaVuSans-61"/>
      <use x="544.441406" xlink:href="#DejaVuSans-74"/>
      <use x="583.650391" xlink:href="#DejaVuSans-65"/>
     </g>
    </g>
    <g id="line2d_45">
     <path d="M 62.948166 190.887308 
L 72.948166 190.887308 
" style="fill:none;stroke:#000000;stroke-linecap:square;stroke-width:1.5;"/>
    </g>
    <g id="line2d_46"/>
    <g id="text_29">
     <!-- Advanced -->
     <g transform="translate(76.948166 192.637308)scale(0.05 -0.05)">
      <use xlink:href="#DejaVuSans-41"/>
      <use x="66.658203" xlink:href="#DejaVuSans-64"/>
      <use x="130.134766" xlink:href="#DejaVuSans-76"/>
      <use x="189.314453" xlink:href="#DejaVuSans-61"/>
      <use x="250.59375" xlink:href="#DejaVuSans-6e"/>
      <use x="313.972656" xlink:href="#DejaVuSans-63"/>
      <use x="368.953125" xlink:href="#DejaVuSans-65"/>
      <use x="430.476562" xlink:href="#DejaVuSans-64"/>
     </g>
    </g>
    <g id="line2d_47">
     <path d="M 62.948166 198.226371 
L 72.948166 198.226371 
" style="fill:none;stroke:#ff0000;stroke-linecap:square;stroke-width:1.5;"/>
    </g>
    <g id="line2d_48"/>
    <g id="text_30">
     <!-- Expert -->
     <g transform="translate(76.948166 199.976371)scale(0.05 -0.05)">
      <defs>
       <path d="M 3513 3500 
L 2247 1797 
L 3578 0 
L 2900 0 
L 1881 1375 
L 863 0 
L 184 0 
L 1544 1831 
L 300 3500 
L 978 3500 
L 1906 2253 
L 2834 3500 
L 3513 3500 
z
" id="DejaVuSans-78" transform="scale(0.015625)"/>
      </defs>
      <use xlink:href="#DejaVuSans-45"/>
      <use x="63.183594" xlink:href="#DejaVuSans-78"/>
      <use x="122.363281" xlink:href="#DejaVuSans-70"/>
      <use x="185.839844" xlink:href="#DejaVuSans-65"/>
      <use x="247.363281" xlink:href="#DejaVuSans-72"/>
      <use x="288.476562" xlink:href="#DejaVuSans-74"/>
     </g>
    </g>
    <g id="line2d_49">
     <path d="M 111.647384 190.887308 
L 121.647384 190.887308 
" style="fill:none;stroke:#ffd700;stroke-linecap:square;stroke-width:1.5;"/>
    </g>
    <g id="line2d_50"/>
    <g id="text_31">
     <!-- Extreme -->
     <g transform="translate(125.647384 192.637308)scale(0.05 -0.05)">
      <use xlink:href="#DejaVuSans-45"/>
      <use x="63.183594" xlink:href="#DejaVuSans-78"/>
      <use x="122.363281" xlink:href="#DejaVuSans-74"/>
      <use x="161.572266" xlink:href="#DejaVuSans-72"/>
      <use x="200.435547" xlink:href="#DejaVuSans-65"/>
      <use x="261.958984" xlink:href="#DejaVuSans-6d"/>
      <use x="359.371094" xlink:href="#DejaVuSans-65"/>
     </g>
    </g>
    <g id="line2d_51">
     <path d="M 111.647384 198.226371 
L 121.647384 198.226371 
" style="fill:none;stroke:#000000;stroke-dasharray:1.5,2.475;stroke-dashoffset:0;stroke-width:1.5;"/>
    </g>
    <g id="line2d_52"/>
    <g id="text_32">
     <!-- Gladed -->
     <g transform="translate(125.647384 199.976371)scale(0.05 -0.05)">
      <use xlink:href="#DejaVuSans-47"/>
      <use x="77.490234" xlink:href="#DejaVuSans-6c"/>
      <use x="105.273438" xlink:href="#DejaVuSans-61"/>
      <use x="166.552734" xlink:href="#DejaVuSans-64"/>
      <use x="230.029297" xlink:href="#DejaVuSans-65"/>
      <use x="291.552734" xlink:href="#DejaVuSans-64"/>
     </g>
    </g>
   </g>
  </g>
  <g id="text_33">
   <!-- Sources: USGS and OpenStreetMaps -->
   <g transform="translate(37.030078 206.915775)scale(0.043478 -0.043478)">
    <defs>
     <path d="M 750 794 
L 1409 794 
L 1409 0 
L 750 0 
L 750 794 
z
M 750 3309 
L 1409 3309 
L 1409 2516 
L 750 2516 
L 750 3309 
z
" id="DejaVuSans-3a" transform="scale(0.015625)"/>
     <path d="M 2522 4238 
Q 1834 4238 1429 3725 
Q 1025 3213 1025 2328 
Q 1025 1447 1429 934 
Q 1834 422 2522 422 
Q 3209 422 3611 934 
Q 4013 1447 4013 2328 
Q 4013 3213 3611 3725 
Q 3209 4238 2522 4238 
z
M 2522 4750 
Q 3503 4750 4090 4092 
Q 4678 3434 4678 2328 
Q 4678 1225 4090 567 
Q 3503 -91 2522 -91 
Q 1538 -91 948 565 
Q 359 1222 359 2328 
Q 359 3434 948 4092 
Q 1538 4750 2522 4750 
z
" id="DejaVuSans-4f" transform="scale(0.015625)"/>
    </defs>
    <use xlink:href="#DejaVuSans-53"/>
    <use x="63.476562" xlink:href="#DejaVuSans-6f"/>
    <use x="124.658203" xlink:href="#DejaVuSans-75"/>
    <use x="188.037109" xlink:href="#DejaVuSans-72"/>
    <use x="226.900391" xlink:href="#DejaVuSans-63"/>
    <use x="281.880859" xlink:href="#DejaVuSans-65"/>
    <use x="343.404297" xlink:href="#DejaVuSans-73"/>
    <use x="395.503906" xlink:href="#DejaVuSans-3a"/>
    <use x="429.195312" xlink:href="#DejaVuSans-20"/>
    <use x="460.982422" xlink:href="#DejaVuSans-55"/>
    <use x="534.175781" xlink:href="#DejaVuSans-53"/>
    <use x="597.652344" xlink:href="#DejaVuSans-47"/>
    <use x="675.142578" xlink:href="#DejaVuSans-53"/>
    <use x="738.619141" xlink:href="#DejaVuSans-20"/>
    <use x="770.40625" xlink:href="#DejaVuSans-61"/>
    <use x="831.685547" xlink:href="#DejaVuSans-6e"/>
    <use x="895.064453" xlink:href="#DejaVuSans-64"/>
    <use x="958.541016" xlink:href="#DejaVuSans-20"/>
    <use x="990.328125" xlink:href="#DejaVuSans-4f"/>
    <use x="1069.039062" xlink:href="#DejaVuSans-70"/>
    <use x="1132.515625" xlink:href="#DejaVuSans-65"/>
    <use x="1194.039062" xlink:href="#DejaVuSans-6e"/>
    <use x="1257.417969" xlink:href="#DejaVuSans-53"/>
    <use x="1320.894531" xlink:href="#DejaVuSans-74"/>
    <use x="1360.103516" xlink:href="#DejaVuSans-72"/>
    <use x="1398.966797" xlink:href="#DejaVuSans-65"/>
    <use x="1460.490234" xlink:href="#DejaVuSans-65"/>
    <use x="1522.013672" xlink:href="#DejaVuSans-74"/>
    <use x="1561.222656" xlink:href="#DejaVuSans-4d"/>
    <use x="1647.501953" xlink:href="#DejaVuSans-61"/>
    <use x="1708.78125" xlink:href="#DejaVuSans-70"/>
    <use x="1772.257812" xlink:href="#DejaVuSans-73"/>
   </g>
  </g>
 </g>
 <defs>
  <clipPath id="p8f78028f16">
   <rect height="176.875845" width="153.381487" x="0" y="15.472071"/>
  </clipPath>
 </defs>
</svg>
