<?xml version="1.0" encoding="utf-8" standalone="no"?>
<!DOCTYPE svg PUBLIC "-//W3C//DTD SVG 1.1//EN"
  "http://www.w3.org/Graphics/SVG/1.1/DTD/svg11.dtd">
<svg height="78.695311pt" version="1.1" viewBox="0 0 66.120331 78.695311" width="66.120331pt" xmlns="http://www.w3.org/2000/svg" xmlns:xlink="http://www.w3.org/1999/xlink">
 <metadata>
  <rdf:RDF xmlns:cc="http://creativecommons.org/ns#" xmlns:dc="http://purl.org/dc/elements/1.1/" xmlns:rdf="http://www.w3.org/1999/02/22-rdf-syntax-ns#">
   <cc:Work>
    <dc:type rdf:resource="http://purl.org/dc/dcmitype/StillImage"/>
    <dc:date>2022-04-14T21:32:28.586678</dc:date>
    <dc:format>image/svg+xml</dc:format>
    <dc:creator>
     <cc:Agent>
      <dc:title>Matplotlib v3.4.3, https://matplotlib.org/</dc:title>
     </cc:Agent>
    </dc:creator>
   </cc:Work>
  </rdf:RDF>
 </metadata>
 <defs>
  <style type="text/css">*{stroke-linecap:butt;stroke-linejoin:round;}</style>
 </defs>
 <g id="figure_1">
  <g id="patch_1">
   <path d="M 0 78.695311 
L 66.120331 78.695311 
L 66.120331 0 
L 0 0 
z
" style="fill:#ffffff;"/>
  </g>
  <g id="axes_1">
   <g id="patch_2">
    <path clip-path="url(#p07a605d9c3)" d="M 30.680186 46.631002 
L 30.680186 46.631002 
L 30.039339 47.589097 
L 29.398491 48.547191 
L 28.757644 49.505286 
L 28.116796 50.46338 
L 27.475949 51.421475 
L 26.835101 52.379569 
L 26.194253 53.337664 
L 25.553406 54.295758 
L 27.231946 55.271747 
L 28.910486 56.247737 
L 30.589027 57.223726 
L 32.267567 58.199716 
L 33.946107 59.175705 
L 35.624647 60.151694 
L 37.303188 61.127684 
L 38.981728 62.103673 
L 39.70391 61.199524 
L 40.426091 60.295376 
L 41.148273 59.391227 
L 41.870455 58.487079 
L 42.592637 57.58293 
L 43.314818 56.678781 
L 44.037 55.774633 
L 44.759182 54.870484 
z
" style="fill:#008000;opacity:0.1;"/>
   </g>
   <g id="patch_3">
    <path clip-path="url(#p07a605d9c3)" d="M 30.680186 46.631002 
L 30.680186 46.631002 
L 30.039339 47.589097 
L 29.398491 48.547191 
L 28.757644 49.505286 
L 28.116796 50.46338 
L 27.475949 51.421475 
L 26.835101 52.379569 
L 26.194253 53.337664 
L 25.553406 54.295758 
L 27.231946 55.271747 
L 28.910486 56.247737 
L 30.589027 57.223726 
L 32.267567 58.199716 
L 33.946107 59.175705 
L 35.624647 60.151694 
L 37.303188 61.127684 
L 38.981728 62.103673 
L 39.70391 61.199524 
L 40.426091 60.295376 
L 41.148273 59.391227 
L 41.870455 58.487079 
L 42.592637 57.58293 
L 43.314818 56.678781 
L 44.037 55.774633 
L 44.759182 54.870484 
z
" style="fill:none;stroke:#008000;stroke-linejoin:miter;"/>
   </g>
   <g id="line2d_1">
    <path clip-path="url(#p07a605d9c3)" d="M 33.164972 64.793391 
L 29.294413 60.971985 
L 26.128385 57.84652 
L 22.962358 54.721055 
L 20.534343 52.323925 
L 18.106328 49.926795 
L 13.707369 45.583956 
L 9.308411 41.241117 
L 6.027388 38.001752 
" style="fill:none;stroke:#808080;stroke-linecap:square;stroke-width:1.5;"/>
   </g>
   <g id="line2d_2">
    <path clip-path="url(#p07a605d9c3)" d="M 46.532157 56.630191 
L 44.868355 60.143335 
" style="fill:none;stroke:#808080;stroke-linecap:square;stroke-width:1.5;"/>
   </g>
   <g id="line2d_3">
    <path clip-path="url(#p07a605d9c3)" d="M 44.759182 54.870484 
L 41.239433 52.810614 
L 37.719684 50.750743 
L 34.199935 48.690873 
L 30.680186 46.631002 
" style="fill:none;stroke:#808080;stroke-linecap:square;stroke-width:1.5;"/>
   </g>
   <g id="line2d_4">
    <path clip-path="url(#p07a605d9c3)" d="M 38.981728 62.103673 
L 35.624647 60.151694 
L 32.267567 58.199716 
L 28.910486 56.247737 
L 25.553406 54.295758 
" style="fill:none;stroke:#808080;stroke-linecap:square;stroke-width:1.5;"/>
   </g>
   <g id="line2d_5">
    <path clip-path="url(#p07a605d9c3)" d="M 37.547918 60.866445 
L 32.338893 57.827189 
L 27.129869 54.787933 
" style="fill:none;stroke:#808080;stroke-linecap:square;stroke-width:1.5;"/>
   </g>
   <g id="line2d_6">
    <path clip-path="url(#p07a605d9c3)" d="M 50.190192 48.519239 
L 45.069234 45.076107 
L 42.050227 43.046802 
L 39.03122 41.017496 
L 35.879749 38.898847 
L 32.728278 36.780197 
L 29.232548 34.429568 
L 25.736817 32.078938 
L 22.498008 29.901249 
L 19.259198 27.72356 
L 14.98397 24.849929 
" style="fill:none;stroke:#808080;stroke-linecap:square;stroke-width:1.5;"/>
   </g>
   <g id="line2d_7">
    <path clip-path="url(#p07a605d9c3)" d="M 47.527818 45.541113 
L 43.714029 42.891234 
L 39.90024 40.241355 
L 36.086451 37.591476 
L 32.272662 34.941597 
L 28.458873 32.291717 
L 24.645083 29.641838 
L 20.831294 26.991959 
L 17.017505 24.34208 
" style="fill:none;stroke:#808080;stroke-linecap:square;stroke-width:1.5;"/>
   </g>
   <g id="line2d_8">
    <path clip-path="url(#p07a605d9c3)" d="M 52.251385 41.984081 
L 47.465225 38.101022 
" style="fill:none;stroke:#808080;stroke-linecap:square;stroke-width:1.5;"/>
   </g>
   <g id="line2d_9">
    <path clip-path="url(#p07a605d9c3)" d="M 62.919805 32.978646 
L 58.113266 30.838575 
L 54.471243 29.217325 
L 50.82922 27.596075 
L 46.692278 25.754339 
L 42.555336 23.912603 
L 36.891422 21.391123 
L 31.598698 19.034746 
L 26.617482 16.817349 
" style="fill:none;stroke:#808080;stroke-linecap:square;stroke-width:1.5;"/>
   </g>
   <g id="line2d_10">
    <path clip-path="url(#p07a605d9c3)" d="M 26.617482 16.817349 
L 27.295085 15.595795 
L 27.972687 14.37424 
L 29.532502 14.99083 
L 31.092316 15.60742 
L 32.65213 16.224009 
L 34.211944 16.840599 
L 35.771759 17.457189 
L 37.331573 18.073778 
L 38.891387 18.690368 
L 40.451201 19.306958 
L 42.011016 19.923547 
L 43.57083 20.540137 
L 45.130644 21.156726 
L 46.690458 21.773316 
L 48.250273 22.389906 
L 49.810087 23.006495 
L 51.369901 23.623085 
L 52.929715 24.239675 
L 54.674306 24.784619 
L 56.418896 25.329564 
L 57.977163 25.815992 
L 59.535431 26.302419 
L 60.430289 27.020043 
L 61.325146 27.737667 
L 62.220004 28.45529 
L 63.114861 29.172914 
L 63.017333 31.07578 
L 62.919805 32.978646 
" style="fill:none;stroke:#008000;stroke-linecap:square;stroke-width:1.5;"/>
   </g>
   <g id="line2d_11">
    <path clip-path="url(#p07a605d9c3)" d="M 27.972687 14.37424 
L 29.564071 13.4761 
L 31.155454 12.57796 
L 32.746838 11.67982 
L 34.338221 10.78168 
L 36.05006 10.895058 
L 37.761898 11.008436 
L 39.473736 11.121813 
L 41.185574 11.235191 
L 42.148847 11.605106 
L 43.11212 11.97502 
L 44.075393 12.344935 
L 45.038666 12.71485 
L 46.001938 13.084764 
L 46.965211 13.454679 
L 47.928484 13.824593 
L 48.891757 14.194508 
L 50.084658 15.427818 
L 51.277559 16.661128 
L 52.47046 17.894438 
L 53.66336 19.127748 
L 54.352244 20.678202 
L 55.041128 22.228656 
L 55.730012 23.77911 
L 56.418896 25.329564 
" style="fill:none;stroke:#008000;stroke-linecap:square;stroke-width:1.5;"/>
   </g>
   <g id="line2d_12">
    <path clip-path="url(#p07a605d9c3)" d="M 17.017505 24.34208 
L 17.100477 22.42772 
L 18.874908 21.82478 
L 19.762123 22.918327 
L 20.649339 24.011874 
L 21.584954 24.341819 
L 22.52057 24.671764 
L 23.456186 25.001709 
L 24.391801 25.331654 
L 25.327417 25.661599 
L 26.263033 25.991544 
L 27.198648 26.321489 
L 28.134264 26.651434 
L 28.828606 27.370887 
L 29.522949 28.090339 
L 30.217291 28.809792 
L 30.911634 29.529244 
L 31.667477 30.270641 
L 32.423321 31.012038 
L 33.179164 31.753434 
L 33.935008 32.494831 
L 34.686121 33.716385 
L 35.437233 34.937939 
" style="fill:none;stroke:#4169e1;stroke-linecap:square;stroke-width:1.5;"/>
   </g>
   <g id="line2d_13">
    <path clip-path="url(#p07a605d9c3)" d="M 35.437233 34.937939 
L 36.880869 35.920982 
L 38.324504 36.904025 
L 39.76814 37.887068 
L 41.211776 38.87011 
L 42.355185 39.615295 
L 43.498593 40.36048 
L 44.642002 41.105664 
L 45.785411 41.850849 
L 46.92882 42.596033 
L 48.072229 43.341218 
L 49.215638 44.086403 
L 50.359047 44.831587 
" style="fill:none;stroke:#008000;stroke-linecap:square;stroke-width:1.5;"/>
   </g>
   <g id="line2d_14">
    <path clip-path="url(#p07a605d9c3)" d="M 47.465225 38.101022 
L 48.229439 37.08637 
L 49.907433 37.689832 
L 51.585428 38.293294 
L 53.263422 38.896757 
L 54.941416 39.500219 
" style="fill:none;stroke:#008000;stroke-linecap:square;stroke-width:1.5;"/>
   </g>
   <g id="line2d_15">
    <path clip-path="url(#p07a605d9c3)" d="M 26.617482 16.817349 
L 27.391157 17.661151 
L 28.164832 18.504953 
L 28.938508 19.348756 
L 29.712183 20.192558 
L 30.290801 21.342794 
L 30.86942 22.49303 
L 31.448039 23.643266 
L 32.026658 24.793502 
L 32.265201 25.756168 
L 32.503745 26.718834 
L 32.742289 27.6815 
L 32.980833 28.644166 
L 33.219377 29.606832 
L 33.45792 30.569499 
L 33.696464 31.532165 
L 33.935008 32.494831 
" style="fill:none;stroke:#008000;stroke-linecap:square;stroke-width:1.5;"/>
   </g>
   <g id="line2d_16">
    <path clip-path="url(#p07a605d9c3)" d="M 26.617482 16.817349 
L 27.87334 17.868575 
L 29.129197 18.919801 
L 30.385054 19.971027 
L 31.640912 21.022254 
L 33.203183 21.927186 
L 34.765453 22.832118 
L 36.327724 23.737051 
L 37.889995 24.641983 
L 38.526475 25.829837 
L 39.162956 27.017691 
L 39.799436 28.205546 
L 40.435917 29.3934 
L 40.918099 30.279523 
L 41.400282 31.165646 
L 41.882464 32.051769 
L 42.364646 32.937892 
L 43.830844 33.975012 
L 45.297042 35.012131 
L 46.763241 36.04925 
L 48.229439 37.08637 
" style="fill:none;stroke:#4169e1;stroke-linecap:square;stroke-width:1.5;"/>
   </g>
   <g id="line2d_17">
    <path clip-path="url(#p07a605d9c3)" d="M 14.98397 24.849929 
L 16.200889 26.096562 
L 17.417808 27.343195 
L 18.553392 28.105491 
L 19.688977 28.867787 
L 20.824562 29.630083 
L 21.960147 30.392378 
L 23.095732 31.154674 
L 24.231316 31.91697 
L 25.366901 32.679266 
L 26.502486 33.441561 
L 27.832945 34.349629 
L 29.163405 35.257696 
L 30.493864 36.165763 
L 31.824323 37.07383 
L 33.154782 37.981897 
L 34.485242 38.889965 
L 35.815701 39.798032 
L 37.14616 40.706099 
L 38.017909 41.300287 
L 38.889658 41.894476 
L 39.761408 42.488664 
L 40.633157 43.082853 
L 41.504906 43.677041 
L 42.376655 44.271229 
L 43.248405 44.865418 
L 44.120154 45.459606 
L 45.106353 46.154763 
L 46.092552 46.849921 
L 47.078752 47.545078 
L 48.064951 48.240235 
" style="fill:none;stroke:#008000;stroke-linecap:square;stroke-width:1.5;"/>
   </g>
   <g id="line2d_18">
    <path clip-path="url(#p07a605d9c3)" d="M 14.98397 24.849929 
L 14.687018 25.827486 
L 14.390067 26.805043 
L 14.80347 28.598711 
L 15.216873 30.392378 
L 16.225999 31.289212 
L 17.235124 32.186046 
L 18.24425 33.08288 
L 19.253376 33.979714 
L 20.38896 34.831745 
L 21.524545 35.683777 
L 22.66013 36.535808 
L 23.795715 37.38784 
L 24.9313 38.239871 
L 26.066884 39.091902 
L 27.202469 39.943934 
L 28.338054 40.795965 
L 29.493108 41.545722 
L 30.648162 42.295478 
L 31.803216 43.045234 
L 32.95827 43.79499 
L 33.779982 44.328179 
L 34.601693 44.861368 
L 35.423405 45.394558 
L 36.245116 45.927747 
L 37.066827 46.460936 
L 37.888539 46.994125 
L 38.71025 47.527314 
L 39.531962 48.060503 
L 41.068759 48.419445 
L 42.605555 48.778388 
L 44.142352 49.13733 
L 45.679149 49.496273 
" style="fill:none;stroke:#4169e1;stroke-linecap:square;stroke-width:1.5;"/>
   </g>
   <g id="line2d_19">
    <path clip-path="url(#p07a605d9c3)" d="M 14.390067 26.805043 
L 14.160803 27.769015 
L 13.931539 28.732988 
L 13.702275 29.69696 
L 13.473011 30.660932 
L 13.19753 31.849309 
L 12.922049 33.037686 
L 12.646568 34.226063 
L 12.371087 35.414439 
L 13.013391 36.58035 
L 13.655694 37.74626 
L 14.297997 38.91217 
L 14.9403 40.07808 
L 16.61502 40.414556 
L 18.289739 40.751032 
L 19.964458 41.087508 
L 21.639177 41.423984 
L 23.29097 41.894737 
L 24.942763 42.36549 
L 26.594556 42.836243 
L 28.246348 43.306996 
L 29.424329 43.428994 
L 30.602309 43.550993 
L 31.78029 43.672992 
L 32.95827 43.79499 
" style="fill:none;stroke:#008000;stroke-linecap:square;stroke-width:1.5;"/>
   </g>
   <g id="line2d_20">
    <path clip-path="url(#p07a605d9c3)" d="M 6.027388 38.001752 
L 5.271908 39.739775 
L 4.516429 41.477799 
L 3.760949 43.215823 
L 3.00547 44.953847 
L 3.120466 45.940286 
L 3.235461 46.926725 
L 3.350457 47.913164 
L 3.465453 48.899603 
L 4.291168 49.706832 
L 5.116882 50.514061 
L 5.942597 51.321289 
L 6.768311 52.128518 
L 7.594026 52.935747 
L 8.41974 53.742976 
L 9.245454 54.550205 
L 10.071169 55.357434 
L 11.172364 56.456075 
L 12.273559 57.554716 
L 13.374755 58.653357 
L 14.47595 59.751998 
L 15.577145 60.85064 
L 16.67834 61.949281 
L 17.779535 63.047922 
L 18.880731 64.146563 
L 20.417527 65.08833 
L 21.954324 66.030097 
L 23.491121 66.971864 
L 25.027918 67.913631 
L 26.04505 67.523601 
L 27.062181 67.133571 
L 28.079313 66.743541 
L 29.096445 66.353511 
L 30.113577 65.963481 
L 31.130708 65.573451 
L 32.14784 65.183421 
L 33.164972 64.793391 
" style="fill:none;stroke:#4169e1;stroke-linecap:square;stroke-width:1.5;"/>
   </g>
   <g id="line2d_21">
    <path clip-path="url(#p07a605d9c3)" d="M 6.027388 38.001752 
L 6.533588 39.806914 
L 7.039789 41.612076 
L 7.545989 43.417239 
L 8.05219 45.222401 
L 8.579861 46.130468 
L 9.107532 47.038535 
L 9.635203 47.946602 
L 10.162875 48.85467 
L 10.690546 49.762737 
L 11.218217 50.670804 
L 11.745888 51.578871 
L 12.273559 52.486938 
" style="fill:none;stroke:#000000;stroke-dasharray:5.55,2.4;stroke-dashoffset:0;stroke-width:1.5;"/>
   </g>
   <g id="line2d_22">
    <path clip-path="url(#p07a605d9c3)" d="M 12.273559 52.486938 
L 13.363291 53.37267 
L 14.453023 54.258401 
L 15.542755 55.144132 
L 16.632487 56.029863 
L 17.722219 56.915595 
L 18.811951 57.801326 
L 19.901683 58.687057 
L 20.991415 59.572788 
L 22.51311 60.225364 
L 24.034804 60.877939 
L 25.556499 61.530514 
L 27.078194 62.18309 
L 28.599888 62.835665 
L 30.121583 63.48824 
L 31.643277 64.140816 
L 33.164972 64.793391 
" style="fill:none;stroke:#008000;stroke-linecap:square;stroke-width:1.5;"/>
   </g>
   <g id="line2d_23">
    <path clip-path="url(#p07a605d9c3)" d="M 25.553406 54.295758 
L 26.845654 55.613187 
L 28.137903 56.930616 
L 29.430151 58.248045 
L 30.7224 59.565474 
L 32.265383 60.678091 
L 33.808367 61.790709 
L 35.35135 62.903326 
L 36.894334 64.015943 
" style="fill:none;stroke:#008000;stroke-linecap:square;stroke-width:1.5;"/>
   </g>
   <g id="text_1">
    <g id="patch_4">
     <path d="M 13.610928 44.481856 
L 25.859878 61.327835 
L 27.457758 60.165994 
L 15.208807 43.320015 
z
" style="fill:#ffffff;"/>
    </g>
    <!-- Evvy's Double Nickel -->
    <g style="fill:#808080;" transform="translate(13.975274 44.241663)rotate(-306.021433)scale(0.02 -0.02)">
     <defs>
      <path d="M 628 4666 
L 3578 4666 
L 3578 4134 
L 1259 4134 
L 1259 2753 
L 3481 2753 
L 3481 2222 
L 1259 2222 
L 1259 531 
L 3634 531 
L 3634 0 
L 628 0 
L 628 4666 
z
" id="DejaVuSans-45" transform="scale(0.015625)"/>
      <path d="M 191 3500 
L 800 3500 
L 1894 563 
L 2988 3500 
L 3597 3500 
L 2284 0 
L 1503 0 
L 191 3500 
z
" id="DejaVuSans-76" transform="scale(0.015625)"/>
      <path d="M 2059 -325 
Q 1816 -950 1584 -1140 
Q 1353 -1331 966 -1331 
L 506 -1331 
L 506 -850 
L 844 -850 
Q 1081 -850 1212 -737 
Q 1344 -625 1503 -206 
L 1606 56 
L 191 3500 
L 800 3500 
L 1894 763 
L 2988 3500 
L 3597 3500 
L 2059 -325 
z
" id="DejaVuSans-79" transform="scale(0.015625)"/>
      <path d="M 1147 4666 
L 1147 2931 
L 616 2931 
L 616 4666 
L 1147 4666 
z
" id="DejaVuSans-27" transform="scale(0.015625)"/>
      <path d="M 2834 3397 
L 2834 2853 
Q 2591 2978 2328 3040 
Q 2066 3103 1784 3103 
Q 1356 3103 1142 2972 
Q 928 2841 928 2578 
Q 928 2378 1081 2264 
Q 1234 2150 1697 2047 
L 1894 2003 
Q 2506 1872 2764 1633 
Q 3022 1394 3022 966 
Q 3022 478 2636 193 
Q 2250 -91 1575 -91 
Q 1294 -91 989 -36 
Q 684 19 347 128 
L 347 722 
Q 666 556 975 473 
Q 1284 391 1588 391 
Q 1994 391 2212 530 
Q 2431 669 2431 922 
Q 2431 1156 2273 1281 
Q 2116 1406 1581 1522 
L 1381 1569 
Q 847 1681 609 1914 
Q 372 2147 372 2553 
Q 372 3047 722 3315 
Q 1072 3584 1716 3584 
Q 2034 3584 2315 3537 
Q 2597 3491 2834 3397 
z
" id="DejaVuSans-73" transform="scale(0.015625)"/>
      <path id="DejaVuSans-20" transform="scale(0.015625)"/>
      <path d="M 1259 4147 
L 1259 519 
L 2022 519 
Q 2988 519 3436 956 
Q 3884 1394 3884 2338 
Q 3884 3275 3436 3711 
Q 2988 4147 2022 4147 
L 1259 4147 
z
M 628 4666 
L 1925 4666 
Q 3281 4666 3915 4102 
Q 4550 3538 4550 2338 
Q 4550 1131 3912 565 
Q 3275 0 1925 0 
L 628 0 
L 628 4666 
z
" id="DejaVuSans-44" transform="scale(0.015625)"/>
      <path d="M 1959 3097 
Q 1497 3097 1228 2736 
Q 959 2375 959 1747 
Q 959 1119 1226 758 
Q 1494 397 1959 397 
Q 2419 397 2687 759 
Q 2956 1122 2956 1747 
Q 2956 2369 2687 2733 
Q 2419 3097 1959 3097 
z
M 1959 3584 
Q 2709 3584 3137 3096 
Q 3566 2609 3566 1747 
Q 3566 888 3137 398 
Q 2709 -91 1959 -91 
Q 1206 -91 779 398 
Q 353 888 353 1747 
Q 353 2609 779 3096 
Q 1206 3584 1959 3584 
z
" id="DejaVuSans-6f" transform="scale(0.015625)"/>
      <path d="M 544 1381 
L 544 3500 
L 1119 3500 
L 1119 1403 
Q 1119 906 1312 657 
Q 1506 409 1894 409 
Q 2359 409 2629 706 
Q 2900 1003 2900 1516 
L 2900 3500 
L 3475 3500 
L 3475 0 
L 2900 0 
L 2900 538 
Q 2691 219 2414 64 
Q 2138 -91 1772 -91 
Q 1169 -91 856 284 
Q 544 659 544 1381 
z
M 1991 3584 
L 1991 3584 
z
" id="DejaVuSans-75" transform="scale(0.015625)"/>
      <path d="M 3116 1747 
Q 3116 2381 2855 2742 
Q 2594 3103 2138 3103 
Q 1681 3103 1420 2742 
Q 1159 2381 1159 1747 
Q 1159 1113 1420 752 
Q 1681 391 2138 391 
Q 2594 391 2855 752 
Q 3116 1113 3116 1747 
z
M 1159 2969 
Q 1341 3281 1617 3432 
Q 1894 3584 2278 3584 
Q 2916 3584 3314 3078 
Q 3713 2572 3713 1747 
Q 3713 922 3314 415 
Q 2916 -91 2278 -91 
Q 1894 -91 1617 61 
Q 1341 213 1159 525 
L 1159 0 
L 581 0 
L 581 4863 
L 1159 4863 
L 1159 2969 
z
" id="DejaVuSans-62" transform="scale(0.015625)"/>
      <path d="M 603 4863 
L 1178 4863 
L 1178 0 
L 603 0 
L 603 4863 
z
" id="DejaVuSans-6c" transform="scale(0.015625)"/>
      <path d="M 3597 1894 
L 3597 1613 
L 953 1613 
Q 991 1019 1311 708 
Q 1631 397 2203 397 
Q 2534 397 2845 478 
Q 3156 559 3463 722 
L 3463 178 
Q 3153 47 2828 -22 
Q 2503 -91 2169 -91 
Q 1331 -91 842 396 
Q 353 884 353 1716 
Q 353 2575 817 3079 
Q 1281 3584 2069 3584 
Q 2775 3584 3186 3129 
Q 3597 2675 3597 1894 
z
M 3022 2063 
Q 3016 2534 2758 2815 
Q 2500 3097 2075 3097 
Q 1594 3097 1305 2825 
Q 1016 2553 972 2059 
L 3022 2063 
z
" id="DejaVuSans-65" transform="scale(0.015625)"/>
      <path d="M 628 4666 
L 1478 4666 
L 3547 763 
L 3547 4666 
L 4159 4666 
L 4159 0 
L 3309 0 
L 1241 3903 
L 1241 0 
L 628 0 
L 628 4666 
z
" id="DejaVuSans-4e" transform="scale(0.015625)"/>
      <path d="M 603 3500 
L 1178 3500 
L 1178 0 
L 603 0 
L 603 3500 
z
M 603 4863 
L 1178 4863 
L 1178 4134 
L 603 4134 
L 603 4863 
z
" id="DejaVuSans-69" transform="scale(0.015625)"/>
      <path d="M 3122 3366 
L 3122 2828 
Q 2878 2963 2633 3030 
Q 2388 3097 2138 3097 
Q 1578 3097 1268 2742 
Q 959 2388 959 1747 
Q 959 1106 1268 751 
Q 1578 397 2138 397 
Q 2388 397 2633 464 
Q 2878 531 3122 666 
L 3122 134 
Q 2881 22 2623 -34 
Q 2366 -91 2075 -91 
Q 1284 -91 818 406 
Q 353 903 353 1747 
Q 353 2603 823 3093 
Q 1294 3584 2113 3584 
Q 2378 3584 2631 3529 
Q 2884 3475 3122 3366 
z
" id="DejaVuSans-63" transform="scale(0.015625)"/>
      <path d="M 581 4863 
L 1159 4863 
L 1159 1991 
L 2875 3500 
L 3609 3500 
L 1753 1863 
L 3688 0 
L 2938 0 
L 1159 1709 
L 1159 0 
L 581 0 
L 581 4863 
z
" id="DejaVuSans-6b" transform="scale(0.015625)"/>
     </defs>
     <use xlink:href="#DejaVuSans-45"/>
     <use x="63.183594" xlink:href="#DejaVuSans-76"/>
     <use x="122.363281" xlink:href="#DejaVuSans-76"/>
     <use x="181.542969" xlink:href="#DejaVuSans-79"/>
     <use x="240.722656" xlink:href="#DejaVuSans-27"/>
     <use x="268.212891" xlink:href="#DejaVuSans-73"/>
     <use x="320.3125" xlink:href="#DejaVuSans-20"/>
     <use x="352.099609" xlink:href="#DejaVuSans-44"/>
     <use x="429.101562" xlink:href="#DejaVuSans-6f"/>
     <use x="490.283203" xlink:href="#DejaVuSans-75"/>
     <use x="553.662109" xlink:href="#DejaVuSans-62"/>
     <use x="617.138672" xlink:href="#DejaVuSans-6c"/>
     <use x="644.921875" xlink:href="#DejaVuSans-65"/>
     <use x="706.445312" xlink:href="#DejaVuSans-20"/>
     <use x="738.232422" xlink:href="#DejaVuSans-4e"/>
     <use x="813.037109" xlink:href="#DejaVuSans-69"/>
     <use x="840.820312" xlink:href="#DejaVuSans-63"/>
     <use x="895.800781" xlink:href="#DejaVuSans-6b"/>
     <use x="950.085938" xlink:href="#DejaVuSans-65"/>
     <use x="1011.609375" xlink:href="#DejaVuSans-6c"/>
    </g>
   </g>
   <g id="text_2">
    <g id="patch_5">
     <path d="M 33.706132 37.384577 
L 43.005976 46.092531 
L 44.356308 44.650415 
L 35.056464 35.942461 
z
" style="fill:#ffffff;"/>
    </g>
    <!-- Hornet Chair -->
    <g style="fill:#808080;" transform="translate(34.018693 37.080032)rotate(-316.88255)scale(0.02 -0.02)">
     <defs>
      <path d="M 628 4666 
L 1259 4666 
L 1259 2753 
L 3553 2753 
L 3553 4666 
L 4184 4666 
L 4184 0 
L 3553 0 
L 3553 2222 
L 1259 2222 
L 1259 0 
L 628 0 
L 628 4666 
z
" id="DejaVuSans-48" transform="scale(0.015625)"/>
      <path d="M 2631 2963 
Q 2534 3019 2420 3045 
Q 2306 3072 2169 3072 
Q 1681 3072 1420 2755 
Q 1159 2438 1159 1844 
L 1159 0 
L 581 0 
L 581 3500 
L 1159 3500 
L 1159 2956 
Q 1341 3275 1631 3429 
Q 1922 3584 2338 3584 
Q 2397 3584 2469 3576 
Q 2541 3569 2628 3553 
L 2631 2963 
z
" id="DejaVuSans-72" transform="scale(0.015625)"/>
      <path d="M 3513 2113 
L 3513 0 
L 2938 0 
L 2938 2094 
Q 2938 2591 2744 2837 
Q 2550 3084 2163 3084 
Q 1697 3084 1428 2787 
Q 1159 2491 1159 1978 
L 1159 0 
L 581 0 
L 581 3500 
L 1159 3500 
L 1159 2956 
Q 1366 3272 1645 3428 
Q 1925 3584 2291 3584 
Q 2894 3584 3203 3211 
Q 3513 2838 3513 2113 
z
" id="DejaVuSans-6e" transform="scale(0.015625)"/>
      <path d="M 1172 4494 
L 1172 3500 
L 2356 3500 
L 2356 3053 
L 1172 3053 
L 1172 1153 
Q 1172 725 1289 603 
Q 1406 481 1766 481 
L 2356 481 
L 2356 0 
L 1766 0 
Q 1100 0 847 248 
Q 594 497 594 1153 
L 594 3053 
L 172 3053 
L 172 3500 
L 594 3500 
L 594 4494 
L 1172 4494 
z
" id="DejaVuSans-74" transform="scale(0.015625)"/>
      <path d="M 4122 4306 
L 4122 3641 
Q 3803 3938 3442 4084 
Q 3081 4231 2675 4231 
Q 1875 4231 1450 3742 
Q 1025 3253 1025 2328 
Q 1025 1406 1450 917 
Q 1875 428 2675 428 
Q 3081 428 3442 575 
Q 3803 722 4122 1019 
L 4122 359 
Q 3791 134 3420 21 
Q 3050 -91 2638 -91 
Q 1578 -91 968 557 
Q 359 1206 359 2328 
Q 359 3453 968 4101 
Q 1578 4750 2638 4750 
Q 3056 4750 3426 4639 
Q 3797 4528 4122 4306 
z
" id="DejaVuSans-43" transform="scale(0.015625)"/>
      <path d="M 3513 2113 
L 3513 0 
L 2938 0 
L 2938 2094 
Q 2938 2591 2744 2837 
Q 2550 3084 2163 3084 
Q 1697 3084 1428 2787 
Q 1159 2491 1159 1978 
L 1159 0 
L 581 0 
L 581 4863 
L 1159 4863 
L 1159 2956 
Q 1366 3272 1645 3428 
Q 1925 3584 2291 3584 
Q 2894 3584 3203 3211 
Q 3513 2838 3513 2113 
z
" id="DejaVuSans-68" transform="scale(0.015625)"/>
      <path d="M 2194 1759 
Q 1497 1759 1228 1600 
Q 959 1441 959 1056 
Q 959 750 1161 570 
Q 1363 391 1709 391 
Q 2188 391 2477 730 
Q 2766 1069 2766 1631 
L 2766 1759 
L 2194 1759 
z
M 3341 1997 
L 3341 0 
L 2766 0 
L 2766 531 
Q 2569 213 2275 61 
Q 1981 -91 1556 -91 
Q 1019 -91 701 211 
Q 384 513 384 1019 
Q 384 1609 779 1909 
Q 1175 2209 1959 2209 
L 2766 2209 
L 2766 2266 
Q 2766 2663 2505 2880 
Q 2244 3097 1772 3097 
Q 1472 3097 1187 3025 
Q 903 2953 641 2809 
L 641 3341 
Q 956 3463 1253 3523 
Q 1550 3584 1831 3584 
Q 2591 3584 2966 3190 
Q 3341 2797 3341 1997 
z
" id="DejaVuSans-61" transform="scale(0.015625)"/>
     </defs>
     <use xlink:href="#DejaVuSans-48"/>
     <use x="75.195312" xlink:href="#DejaVuSans-6f"/>
     <use x="136.376953" xlink:href="#DejaVuSans-72"/>
     <use x="175.740234" xlink:href="#DejaVuSans-6e"/>
     <use x="239.119141" xlink:href="#DejaVuSans-65"/>
     <use x="300.642578" xlink:href="#DejaVuSans-74"/>
     <use x="339.851562" xlink:href="#DejaVuSans-20"/>
     <use x="371.638672" xlink:href="#DejaVuSans-43"/>
     <use x="441.462891" xlink:href="#DejaVuSans-68"/>
     <use x="504.841797" xlink:href="#DejaVuSans-61"/>
     <use x="566.121094" xlink:href="#DejaVuSans-69"/>
     <use x="593.904297" xlink:href="#DejaVuSans-72"/>
    </g>
   </g>
   <g id="text_3">
    <g id="patch_6">
     <path d="M 30.879443 33.926392 
L 39.919457 42.676142 
L 41.293459 41.25656 
L 32.253444 32.506809 
z
" style="fill:#ffffff;"/>
    </g>
    <!-- Hornet T-Bar -->
    <g style="fill:#808080;" transform="translate(31.196998 33.627059)rotate(-315.934774)scale(0.02 -0.02)">
     <defs>
      <path d="M -19 4666 
L 3928 4666 
L 3928 4134 
L 2272 4134 
L 2272 0 
L 1638 0 
L 1638 4134 
L -19 4134 
L -19 4666 
z
" id="DejaVuSans-54" transform="scale(0.015625)"/>
      <path d="M 313 2009 
L 1997 2009 
L 1997 1497 
L 313 1497 
L 313 2009 
z
" id="DejaVuSans-2d" transform="scale(0.015625)"/>
      <path d="M 1259 2228 
L 1259 519 
L 2272 519 
Q 2781 519 3026 730 
Q 3272 941 3272 1375 
Q 3272 1813 3026 2020 
Q 2781 2228 2272 2228 
L 1259 2228 
z
M 1259 4147 
L 1259 2741 
L 2194 2741 
Q 2656 2741 2882 2914 
Q 3109 3088 3109 3444 
Q 3109 3797 2882 3972 
Q 2656 4147 2194 4147 
L 1259 4147 
z
M 628 4666 
L 2241 4666 
Q 2963 4666 3353 4366 
Q 3744 4066 3744 3513 
Q 3744 3084 3544 2831 
Q 3344 2578 2956 2516 
Q 3422 2416 3680 2098 
Q 3938 1781 3938 1306 
Q 3938 681 3513 340 
Q 3088 0 2303 0 
L 628 0 
L 628 4666 
z
" id="DejaVuSans-42" transform="scale(0.015625)"/>
     </defs>
     <use xlink:href="#DejaVuSans-48"/>
     <use x="75.195312" xlink:href="#DejaVuSans-6f"/>
     <use x="136.376953" xlink:href="#DejaVuSans-72"/>
     <use x="175.740234" xlink:href="#DejaVuSans-6e"/>
     <use x="239.119141" xlink:href="#DejaVuSans-65"/>
     <use x="300.642578" xlink:href="#DejaVuSans-74"/>
     <use x="339.851562" xlink:href="#DejaVuSans-20"/>
     <use x="371.638672" xlink:href="#DejaVuSans-54"/>
     <use x="423.597656" xlink:href="#DejaVuSans-2d"/>
     <use x="456.056641" xlink:href="#DejaVuSans-42"/>
     <use x="524.660156" xlink:href="#DejaVuSans-61"/>
     <use x="585.939453" xlink:href="#DejaVuSans-72"/>
    </g>
   </g>
   <g id="text_4">
    <g id="patch_7">
     <path d="M 45.494032 25.450023 
L 55.123247 31.421137 
L 56.164408 29.742126 
L 46.535193 23.771013 
z
" style="fill:#ffffff;"/>
    </g>
    <!-- Wasp Chair -->
    <g style="fill:#808080;" transform="translate(45.74077 25.090076)rotate(-328.196787)scale(0.02 -0.02)">
     <defs>
      <path d="M 213 4666 
L 850 4666 
L 1831 722 
L 2809 4666 
L 3519 4666 
L 4500 722 
L 5478 4666 
L 6119 4666 
L 4947 0 
L 4153 0 
L 3169 4050 
L 2175 0 
L 1381 0 
L 213 4666 
z
" id="DejaVuSans-57" transform="scale(0.015625)"/>
      <path d="M 1159 525 
L 1159 -1331 
L 581 -1331 
L 581 3500 
L 1159 3500 
L 1159 2969 
Q 1341 3281 1617 3432 
Q 1894 3584 2278 3584 
Q 2916 3584 3314 3078 
Q 3713 2572 3713 1747 
Q 3713 922 3314 415 
Q 2916 -91 2278 -91 
Q 1894 -91 1617 61 
Q 1341 213 1159 525 
z
M 3116 1747 
Q 3116 2381 2855 2742 
Q 2594 3103 2138 3103 
Q 1681 3103 1420 2742 
Q 1159 2381 1159 1747 
Q 1159 1113 1420 752 
Q 1681 391 2138 391 
Q 2594 391 2855 752 
Q 3116 1113 3116 1747 
z
" id="DejaVuSans-70" transform="scale(0.015625)"/>
     </defs>
     <use xlink:href="#DejaVuSans-57"/>
     <use x="92.501953" xlink:href="#DejaVuSans-61"/>
     <use x="153.78125" xlink:href="#DejaVuSans-73"/>
     <use x="205.880859" xlink:href="#DejaVuSans-70"/>
     <use x="269.357422" xlink:href="#DejaVuSans-20"/>
     <use x="301.144531" xlink:href="#DejaVuSans-43"/>
     <use x="370.96875" xlink:href="#DejaVuSans-68"/>
     <use x="434.347656" xlink:href="#DejaVuSans-61"/>
     <use x="495.626953" xlink:href="#DejaVuSans-69"/>
     <use x="523.410156" xlink:href="#DejaVuSans-72"/>
    </g>
   </g>
   <g id="text_5">
    <g id="patch_8">
     <path d="M 30.251452 15.545072 
L 40.339103 21.0999 
L 41.292065 19.369305 
L 31.204414 13.814478 
z
" style="fill:#ffffff;"/>
    </g>
    <!-- Wasp 16.8° -->
    <g style="fill:#008000;" transform="translate(30.47925 15.17285)rotate(-331.16035)scale(0.02 -0.02)">
     <defs>
      <path d="M 794 531 
L 1825 531 
L 1825 4091 
L 703 3866 
L 703 4441 
L 1819 4666 
L 2450 4666 
L 2450 531 
L 3481 531 
L 3481 0 
L 794 0 
L 794 531 
z
" id="DejaVuSans-31" transform="scale(0.015625)"/>
      <path d="M 2113 2584 
Q 1688 2584 1439 2293 
Q 1191 2003 1191 1497 
Q 1191 994 1439 701 
Q 1688 409 2113 409 
Q 2538 409 2786 701 
Q 3034 994 3034 1497 
Q 3034 2003 2786 2293 
Q 2538 2584 2113 2584 
z
M 3366 4563 
L 3366 3988 
Q 3128 4100 2886 4159 
Q 2644 4219 2406 4219 
Q 1781 4219 1451 3797 
Q 1122 3375 1075 2522 
Q 1259 2794 1537 2939 
Q 1816 3084 2150 3084 
Q 2853 3084 3261 2657 
Q 3669 2231 3669 1497 
Q 3669 778 3244 343 
Q 2819 -91 2113 -91 
Q 1303 -91 875 529 
Q 447 1150 447 2328 
Q 447 3434 972 4092 
Q 1497 4750 2381 4750 
Q 2619 4750 2861 4703 
Q 3103 4656 3366 4563 
z
" id="DejaVuSans-36" transform="scale(0.015625)"/>
      <path d="M 684 794 
L 1344 794 
L 1344 0 
L 684 0 
L 684 794 
z
" id="DejaVuSans-2e" transform="scale(0.015625)"/>
      <path d="M 2034 2216 
Q 1584 2216 1326 1975 
Q 1069 1734 1069 1313 
Q 1069 891 1326 650 
Q 1584 409 2034 409 
Q 2484 409 2743 651 
Q 3003 894 3003 1313 
Q 3003 1734 2745 1975 
Q 2488 2216 2034 2216 
z
M 1403 2484 
Q 997 2584 770 2862 
Q 544 3141 544 3541 
Q 544 4100 942 4425 
Q 1341 4750 2034 4750 
Q 2731 4750 3128 4425 
Q 3525 4100 3525 3541 
Q 3525 3141 3298 2862 
Q 3072 2584 2669 2484 
Q 3125 2378 3379 2068 
Q 3634 1759 3634 1313 
Q 3634 634 3220 271 
Q 2806 -91 2034 -91 
Q 1263 -91 848 271 
Q 434 634 434 1313 
Q 434 1759 690 2068 
Q 947 2378 1403 2484 
z
M 1172 3481 
Q 1172 3119 1398 2916 
Q 1625 2713 2034 2713 
Q 2441 2713 2670 2916 
Q 2900 3119 2900 3481 
Q 2900 3844 2670 4047 
Q 2441 4250 2034 4250 
Q 1625 4250 1398 4047 
Q 1172 3844 1172 3481 
z
" id="DejaVuSans-38" transform="scale(0.015625)"/>
      <path d="M 1600 4347 
Q 1350 4347 1178 4173 
Q 1006 4000 1006 3750 
Q 1006 3503 1178 3333 
Q 1350 3163 1600 3163 
Q 1850 3163 2022 3333 
Q 2194 3503 2194 3750 
Q 2194 3997 2020 4172 
Q 1847 4347 1600 4347 
z
M 1600 4750 
Q 1800 4750 1984 4673 
Q 2169 4597 2303 4453 
Q 2447 4313 2519 4134 
Q 2591 3956 2591 3750 
Q 2591 3338 2302 3052 
Q 2013 2766 1594 2766 
Q 1172 2766 890 3047 
Q 609 3328 609 3750 
Q 609 4169 896 4459 
Q 1184 4750 1600 4750 
z
" id="DejaVuSans-b0" transform="scale(0.015625)"/>
     </defs>
     <use xlink:href="#DejaVuSans-57"/>
     <use x="92.501953" xlink:href="#DejaVuSans-61"/>
     <use x="153.78125" xlink:href="#DejaVuSans-73"/>
     <use x="205.880859" xlink:href="#DejaVuSans-70"/>
     <use x="269.357422" xlink:href="#DejaVuSans-20"/>
     <use x="301.144531" xlink:href="#DejaVuSans-31"/>
     <use x="364.767578" xlink:href="#DejaVuSans-36"/>
     <use x="428.390625" xlink:href="#DejaVuSans-2e"/>
     <use x="460.177734" xlink:href="#DejaVuSans-38"/>
     <use x="523.800781" xlink:href="#DejaVuSans-b0"/>
    </g>
   </g>
   <g id="text_6">
    <g id="patch_9">
     <path d="M 36.857577 9.458686 
L 52.287863 17.713044 
L 53.219754 15.971013 
L 37.789468 7.716655 
z
" style="fill:#ffffff;"/>
    </g>
    <!-- Hugh's Run 16.2° -->
    <g style="fill:#008000;" transform="translate(37.080842 9.083727)rotate(-331.855659)scale(0.02 -0.02)">
     <defs>
      <path d="M 2906 1791 
Q 2906 2416 2648 2759 
Q 2391 3103 1925 3103 
Q 1463 3103 1205 2759 
Q 947 2416 947 1791 
Q 947 1169 1205 825 
Q 1463 481 1925 481 
Q 2391 481 2648 825 
Q 2906 1169 2906 1791 
z
M 3481 434 
Q 3481 -459 3084 -895 
Q 2688 -1331 1869 -1331 
Q 1566 -1331 1297 -1286 
Q 1028 -1241 775 -1147 
L 775 -588 
Q 1028 -725 1275 -790 
Q 1522 -856 1778 -856 
Q 2344 -856 2625 -561 
Q 2906 -266 2906 331 
L 2906 616 
Q 2728 306 2450 153 
Q 2172 0 1784 0 
Q 1141 0 747 490 
Q 353 981 353 1791 
Q 353 2603 747 3093 
Q 1141 3584 1784 3584 
Q 2172 3584 2450 3431 
Q 2728 3278 2906 2969 
L 2906 3500 
L 3481 3500 
L 3481 434 
z
" id="DejaVuSans-67" transform="scale(0.015625)"/>
      <path d="M 2841 2188 
Q 3044 2119 3236 1894 
Q 3428 1669 3622 1275 
L 4263 0 
L 3584 0 
L 2988 1197 
Q 2756 1666 2539 1819 
Q 2322 1972 1947 1972 
L 1259 1972 
L 1259 0 
L 628 0 
L 628 4666 
L 2053 4666 
Q 2853 4666 3247 4331 
Q 3641 3997 3641 3322 
Q 3641 2881 3436 2590 
Q 3231 2300 2841 2188 
z
M 1259 4147 
L 1259 2491 
L 2053 2491 
Q 2509 2491 2742 2702 
Q 2975 2913 2975 3322 
Q 2975 3731 2742 3939 
Q 2509 4147 2053 4147 
L 1259 4147 
z
" id="DejaVuSans-52" transform="scale(0.015625)"/>
      <path d="M 1228 531 
L 3431 531 
L 3431 0 
L 469 0 
L 469 531 
Q 828 903 1448 1529 
Q 2069 2156 2228 2338 
Q 2531 2678 2651 2914 
Q 2772 3150 2772 3378 
Q 2772 3750 2511 3984 
Q 2250 4219 1831 4219 
Q 1534 4219 1204 4116 
Q 875 4013 500 3803 
L 500 4441 
Q 881 4594 1212 4672 
Q 1544 4750 1819 4750 
Q 2544 4750 2975 4387 
Q 3406 4025 3406 3419 
Q 3406 3131 3298 2873 
Q 3191 2616 2906 2266 
Q 2828 2175 2409 1742 
Q 1991 1309 1228 531 
z
" id="DejaVuSans-32" transform="scale(0.015625)"/>
     </defs>
     <use xlink:href="#DejaVuSans-48"/>
     <use x="75.195312" xlink:href="#DejaVuSans-75"/>
     <use x="138.574219" xlink:href="#DejaVuSans-67"/>
     <use x="202.050781" xlink:href="#DejaVuSans-68"/>
     <use x="265.429688" xlink:href="#DejaVuSans-27"/>
     <use x="292.919922" xlink:href="#DejaVuSans-73"/>
     <use x="345.019531" xlink:href="#DejaVuSans-20"/>
     <use x="376.806641" xlink:href="#DejaVuSans-52"/>
     <use x="441.789062" xlink:href="#DejaVuSans-75"/>
     <use x="505.167969" xlink:href="#DejaVuSans-6e"/>
     <use x="568.546875" xlink:href="#DejaVuSans-20"/>
     <use x="600.333984" xlink:href="#DejaVuSans-31"/>
     <use x="663.957031" xlink:href="#DejaVuSans-36"/>
     <use x="727.580078" xlink:href="#DejaVuSans-2e"/>
     <use x="759.367188" xlink:href="#DejaVuSans-32"/>
     <use x="822.990234" xlink:href="#DejaVuSans-b0"/>
    </g>
   </g>
   <g id="text_7">
    <g id="patch_10">
     <path d="M 33.640439 15.411926 
L 42.841553 39.332719 
L 44.685473 38.623457 
L 35.484359 14.702664 
z
" style="fill:#ffffff;"/>
    </g>
    <!-- Upper Yellow Jacket 19.6° -->
    <g style="fill:#4169e1;" transform="translate(34.054494 15.274088)rotate(-291.0392)scale(0.02 -0.02)">
     <defs>
      <path d="M 556 4666 
L 1191 4666 
L 1191 1831 
Q 1191 1081 1462 751 
Q 1734 422 2344 422 
Q 2950 422 3222 751 
Q 3494 1081 3494 1831 
L 3494 4666 
L 4128 4666 
L 4128 1753 
Q 4128 841 3676 375 
Q 3225 -91 2344 -91 
Q 1459 -91 1007 375 
Q 556 841 556 1753 
L 556 4666 
z
" id="DejaVuSans-55" transform="scale(0.015625)"/>
      <path d="M -13 4666 
L 666 4666 
L 1959 2747 
L 3244 4666 
L 3922 4666 
L 2272 2222 
L 2272 0 
L 1638 0 
L 1638 2222 
L -13 4666 
z
" id="DejaVuSans-59" transform="scale(0.015625)"/>
      <path d="M 269 3500 
L 844 3500 
L 1563 769 
L 2278 3500 
L 2956 3500 
L 3675 769 
L 4391 3500 
L 4966 3500 
L 4050 0 
L 3372 0 
L 2619 2869 
L 1863 0 
L 1184 0 
L 269 3500 
z
" id="DejaVuSans-77" transform="scale(0.015625)"/>
      <path d="M 628 4666 
L 1259 4666 
L 1259 325 
Q 1259 -519 939 -900 
Q 619 -1281 -91 -1281 
L -331 -1281 
L -331 -750 
L -134 -750 
Q 284 -750 456 -515 
Q 628 -281 628 325 
L 628 4666 
z
" id="DejaVuSans-4a" transform="scale(0.015625)"/>
      <path d="M 703 97 
L 703 672 
Q 941 559 1184 500 
Q 1428 441 1663 441 
Q 2288 441 2617 861 
Q 2947 1281 2994 2138 
Q 2813 1869 2534 1725 
Q 2256 1581 1919 1581 
Q 1219 1581 811 2004 
Q 403 2428 403 3163 
Q 403 3881 828 4315 
Q 1253 4750 1959 4750 
Q 2769 4750 3195 4129 
Q 3622 3509 3622 2328 
Q 3622 1225 3098 567 
Q 2575 -91 1691 -91 
Q 1453 -91 1209 -44 
Q 966 3 703 97 
z
M 1959 2075 
Q 2384 2075 2632 2365 
Q 2881 2656 2881 3163 
Q 2881 3666 2632 3958 
Q 2384 4250 1959 4250 
Q 1534 4250 1286 3958 
Q 1038 3666 1038 3163 
Q 1038 2656 1286 2365 
Q 1534 2075 1959 2075 
z
" id="DejaVuSans-39" transform="scale(0.015625)"/>
     </defs>
     <use xlink:href="#DejaVuSans-55"/>
     <use x="73.193359" xlink:href="#DejaVuSans-70"/>
     <use x="136.669922" xlink:href="#DejaVuSans-70"/>
     <use x="200.146484" xlink:href="#DejaVuSans-65"/>
     <use x="261.669922" xlink:href="#DejaVuSans-72"/>
     <use x="302.783203" xlink:href="#DejaVuSans-20"/>
     <use x="334.570312" xlink:href="#DejaVuSans-59"/>
     <use x="382.404297" xlink:href="#DejaVuSans-65"/>
     <use x="443.927734" xlink:href="#DejaVuSans-6c"/>
     <use x="471.710938" xlink:href="#DejaVuSans-6c"/>
     <use x="499.494141" xlink:href="#DejaVuSans-6f"/>
     <use x="560.675781" xlink:href="#DejaVuSans-77"/>
     <use x="642.462891" xlink:href="#DejaVuSans-20"/>
     <use x="674.25" xlink:href="#DejaVuSans-4a"/>
     <use x="703.742188" xlink:href="#DejaVuSans-61"/>
     <use x="765.021484" xlink:href="#DejaVuSans-63"/>
     <use x="820.001953" xlink:href="#DejaVuSans-6b"/>
     <use x="874.287109" xlink:href="#DejaVuSans-65"/>
     <use x="935.810547" xlink:href="#DejaVuSans-74"/>
     <use x="975.019531" xlink:href="#DejaVuSans-20"/>
     <use x="1006.806641" xlink:href="#DejaVuSans-31"/>
     <use x="1070.429688" xlink:href="#DejaVuSans-39"/>
     <use x="1134.052734" xlink:href="#DejaVuSans-2e"/>
     <use x="1165.839844" xlink:href="#DejaVuSans-36"/>
     <use x="1229.462891" xlink:href="#DejaVuSans-b0"/>
    </g>
   </g>
   <g id="text_8">
    <g id="patch_11">
     <path d="M 21.181864 29.032142 
L 35.783658 42.915029 
L 37.144945 41.48325 
L 22.543151 27.600363 
z
" style="fill:#ffffff;"/>
    </g>
    <!-- Roger's Chute 15.5° -->
    <g style="fill:#008000;" transform="translate(21.496738 28.729989)rotate(-316.445745)scale(0.02 -0.02)">
     <defs>
      <path d="M 691 4666 
L 3169 4666 
L 3169 4134 
L 1269 4134 
L 1269 2991 
Q 1406 3038 1543 3061 
Q 1681 3084 1819 3084 
Q 2600 3084 3056 2656 
Q 3513 2228 3513 1497 
Q 3513 744 3044 326 
Q 2575 -91 1722 -91 
Q 1428 -91 1123 -41 
Q 819 9 494 109 
L 494 744 
Q 775 591 1075 516 
Q 1375 441 1709 441 
Q 2250 441 2565 725 
Q 2881 1009 2881 1497 
Q 2881 1984 2565 2268 
Q 2250 2553 1709 2553 
Q 1456 2553 1204 2497 
Q 953 2441 691 2322 
L 691 4666 
z
" id="DejaVuSans-35" transform="scale(0.015625)"/>
     </defs>
     <use xlink:href="#DejaVuSans-52"/>
     <use x="64.982422" xlink:href="#DejaVuSans-6f"/>
     <use x="126.164062" xlink:href="#DejaVuSans-67"/>
     <use x="189.640625" xlink:href="#DejaVuSans-65"/>
     <use x="251.164062" xlink:href="#DejaVuSans-72"/>
     <use x="292.277344" xlink:href="#DejaVuSans-27"/>
     <use x="319.767578" xlink:href="#DejaVuSans-73"/>
     <use x="371.867188" xlink:href="#DejaVuSans-20"/>
     <use x="403.654297" xlink:href="#DejaVuSans-43"/>
     <use x="473.478516" xlink:href="#DejaVuSans-68"/>
     <use x="536.857422" xlink:href="#DejaVuSans-75"/>
     <use x="600.236328" xlink:href="#DejaVuSans-74"/>
     <use x="639.445312" xlink:href="#DejaVuSans-65"/>
     <use x="700.96875" xlink:href="#DejaVuSans-20"/>
     <use x="732.755859" xlink:href="#DejaVuSans-31"/>
     <use x="796.378906" xlink:href="#DejaVuSans-35"/>
     <use x="860.001953" xlink:href="#DejaVuSans-2e"/>
     <use x="891.789062" xlink:href="#DejaVuSans-35"/>
     <use x="955.412109" xlink:href="#DejaVuSans-b0"/>
    </g>
   </g>
   <g id="text_9">
    <g id="patch_12">
     <path d="M 17.339412 32.403561 
L 26.553354 42.033836 
L 27.980848 40.668055 
L 18.766906 31.037781 
z
" style="fill:#ffffff;"/>
    </g>
    <!-- Stinger 17.3° -->
    <g style="fill:#4169e1;" transform="translate(17.668226 32.116642)rotate(-313.734348)scale(0.02 -0.02)">
     <defs>
      <path d="M 3425 4513 
L 3425 3897 
Q 3066 4069 2747 4153 
Q 2428 4238 2131 4238 
Q 1616 4238 1336 4038 
Q 1056 3838 1056 3469 
Q 1056 3159 1242 3001 
Q 1428 2844 1947 2747 
L 2328 2669 
Q 3034 2534 3370 2195 
Q 3706 1856 3706 1288 
Q 3706 609 3251 259 
Q 2797 -91 1919 -91 
Q 1588 -91 1214 -16 
Q 841 59 441 206 
L 441 856 
Q 825 641 1194 531 
Q 1563 422 1919 422 
Q 2459 422 2753 634 
Q 3047 847 3047 1241 
Q 3047 1584 2836 1778 
Q 2625 1972 2144 2069 
L 1759 2144 
Q 1053 2284 737 2584 
Q 422 2884 422 3419 
Q 422 4038 858 4394 
Q 1294 4750 2059 4750 
Q 2388 4750 2728 4690 
Q 3069 4631 3425 4513 
z
" id="DejaVuSans-53" transform="scale(0.015625)"/>
      <path d="M 525 4666 
L 3525 4666 
L 3525 4397 
L 1831 0 
L 1172 0 
L 2766 4134 
L 525 4134 
L 525 4666 
z
" id="DejaVuSans-37" transform="scale(0.015625)"/>
      <path d="M 2597 2516 
Q 3050 2419 3304 2112 
Q 3559 1806 3559 1356 
Q 3559 666 3084 287 
Q 2609 -91 1734 -91 
Q 1441 -91 1130 -33 
Q 819 25 488 141 
L 488 750 
Q 750 597 1062 519 
Q 1375 441 1716 441 
Q 2309 441 2620 675 
Q 2931 909 2931 1356 
Q 2931 1769 2642 2001 
Q 2353 2234 1838 2234 
L 1294 2234 
L 1294 2753 
L 1863 2753 
Q 2328 2753 2575 2939 
Q 2822 3125 2822 3475 
Q 2822 3834 2567 4026 
Q 2313 4219 1838 4219 
Q 1578 4219 1281 4162 
Q 984 4106 628 3988 
L 628 4550 
Q 988 4650 1302 4700 
Q 1616 4750 1894 4750 
Q 2613 4750 3031 4423 
Q 3450 4097 3450 3541 
Q 3450 3153 3228 2886 
Q 3006 2619 2597 2516 
z
" id="DejaVuSans-33" transform="scale(0.015625)"/>
     </defs>
     <use xlink:href="#DejaVuSans-53"/>
     <use x="63.476562" xlink:href="#DejaVuSans-74"/>
     <use x="102.685547" xlink:href="#DejaVuSans-69"/>
     <use x="130.46875" xlink:href="#DejaVuSans-6e"/>
     <use x="193.847656" xlink:href="#DejaVuSans-67"/>
     <use x="257.324219" xlink:href="#DejaVuSans-65"/>
     <use x="318.847656" xlink:href="#DejaVuSans-72"/>
     <use x="359.960938" xlink:href="#DejaVuSans-20"/>
     <use x="391.748047" xlink:href="#DejaVuSans-31"/>
     <use x="455.371094" xlink:href="#DejaVuSans-37"/>
     <use x="518.994141" xlink:href="#DejaVuSans-2e"/>
     <use x="550.78125" xlink:href="#DejaVuSans-33"/>
     <use x="614.404297" xlink:href="#DejaVuSans-b0"/>
    </g>
   </g>
   <g id="text_10">
    <g id="patch_13">
     <path d="M 10.401949 32.20483 
L 15.072264 44.014245 
L 16.909439 43.28769 
L 12.239124 31.478275 
z
" style="fill:#ffffff;"/>
    </g>
    <!-- Queen 16.2° -->
    <g style="fill:#008000;" transform="translate(10.814691 32.063108)rotate(-291.577504)scale(0.02 -0.02)">
     <defs>
      <path d="M 2522 4238 
Q 1834 4238 1429 3725 
Q 1025 3213 1025 2328 
Q 1025 1447 1429 934 
Q 1834 422 2522 422 
Q 3209 422 3611 934 
Q 4013 1447 4013 2328 
Q 4013 3213 3611 3725 
Q 3209 4238 2522 4238 
z
M 3406 84 
L 4238 -825 
L 3475 -825 
L 2784 -78 
Q 2681 -84 2626 -87 
Q 2572 -91 2522 -91 
Q 1538 -91 948 567 
Q 359 1225 359 2328 
Q 359 3434 948 4092 
Q 1538 4750 2522 4750 
Q 3503 4750 4090 4092 
Q 4678 3434 4678 2328 
Q 4678 1516 4351 937 
Q 4025 359 3406 84 
z
" id="DejaVuSans-51" transform="scale(0.015625)"/>
     </defs>
     <use xlink:href="#DejaVuSans-51"/>
     <use x="78.710938" xlink:href="#DejaVuSans-75"/>
     <use x="142.089844" xlink:href="#DejaVuSans-65"/>
     <use x="203.613281" xlink:href="#DejaVuSans-65"/>
     <use x="265.136719" xlink:href="#DejaVuSans-6e"/>
     <use x="328.515625" xlink:href="#DejaVuSans-20"/>
     <use x="360.302734" xlink:href="#DejaVuSans-31"/>
     <use x="423.925781" xlink:href="#DejaVuSans-36"/>
     <use x="487.548828" xlink:href="#DejaVuSans-2e"/>
     <use x="519.335938" xlink:href="#DejaVuSans-32"/>
     <use x="582.958984" xlink:href="#DejaVuSans-b0"/>
    </g>
   </g>
   <g id="text_11">
    <g id="patch_14">
     <path d="M 29.091136 56.514504 
L 37.557602 63.372113 
L 38.801078 61.836905 
L 30.334612 54.979297 
z
" style="fill:#ffffff;"/>
    </g>
    <!-- Drone 9.4° -->
    <g style="fill:#008000;" transform="translate(29.381061 56.188337)rotate(-320.993465)scale(0.02 -0.02)">
     <defs>
      <path d="M 2419 4116 
L 825 1625 
L 2419 1625 
L 2419 4116 
z
M 2253 4666 
L 3047 4666 
L 3047 1625 
L 3713 1625 
L 3713 1100 
L 3047 1100 
L 3047 0 
L 2419 0 
L 2419 1100 
L 313 1100 
L 313 1709 
L 2253 4666 
z
" id="DejaVuSans-34" transform="scale(0.015625)"/>
     </defs>
     <use xlink:href="#DejaVuSans-44"/>
     <use x="77.001953" xlink:href="#DejaVuSans-72"/>
     <use x="115.865234" xlink:href="#DejaVuSans-6f"/>
     <use x="177.046875" xlink:href="#DejaVuSans-6e"/>
     <use x="240.425781" xlink:href="#DejaVuSans-65"/>
     <use x="301.949219" xlink:href="#DejaVuSans-20"/>
     <use x="333.736328" xlink:href="#DejaVuSans-39"/>
     <use x="397.359375" xlink:href="#DejaVuSans-2e"/>
     <use x="429.146484" xlink:href="#DejaVuSans-34"/>
     <use x="492.769531" xlink:href="#DejaVuSans-b0"/>
    </g>
   </g>
   <g id="text_12">
    <g id="patch_15">
     <path d="M 5.199096 49.845795 
L 15.54199 64.22023 
L 17.145632 63.066355 
L 6.802738 48.69192 
z
" style="fill:#ffffff;"/>
    </g>
    <!-- Duke's Yard 17.8° -->
    <g style="fill:#4169e1;" transform="translate(5.564634 49.607418)rotate(-305.736297)scale(0.02 -0.02)">
     <defs>
      <path d="M 2906 2969 
L 2906 4863 
L 3481 4863 
L 3481 0 
L 2906 0 
L 2906 525 
Q 2725 213 2448 61 
Q 2172 -91 1784 -91 
Q 1150 -91 751 415 
Q 353 922 353 1747 
Q 353 2572 751 3078 
Q 1150 3584 1784 3584 
Q 2172 3584 2448 3432 
Q 2725 3281 2906 2969 
z
M 947 1747 
Q 947 1113 1208 752 
Q 1469 391 1925 391 
Q 2381 391 2643 752 
Q 2906 1113 2906 1747 
Q 2906 2381 2643 2742 
Q 2381 3103 1925 3103 
Q 1469 3103 1208 2742 
Q 947 2381 947 1747 
z
" id="DejaVuSans-64" transform="scale(0.015625)"/>
     </defs>
     <use xlink:href="#DejaVuSans-44"/>
     <use x="77.001953" xlink:href="#DejaVuSans-75"/>
     <use x="140.380859" xlink:href="#DejaVuSans-6b"/>
     <use x="194.666016" xlink:href="#DejaVuSans-65"/>
     <use x="256.189453" xlink:href="#DejaVuSans-27"/>
     <use x="283.679688" xlink:href="#DejaVuSans-73"/>
     <use x="335.779297" xlink:href="#DejaVuSans-20"/>
     <use x="367.566406" xlink:href="#DejaVuSans-59"/>
     <use x="414.900391" xlink:href="#DejaVuSans-61"/>
     <use x="476.179688" xlink:href="#DejaVuSans-72"/>
     <use x="515.542969" xlink:href="#DejaVuSans-64"/>
     <use x="579.019531" xlink:href="#DejaVuSans-20"/>
     <use x="610.806641" xlink:href="#DejaVuSans-31"/>
     <use x="674.429688" xlink:href="#DejaVuSans-37"/>
     <use x="738.052734" xlink:href="#DejaVuSans-2e"/>
     <use x="769.839844" xlink:href="#DejaVuSans-38"/>
     <use x="833.462891" xlink:href="#DejaVuSans-b0"/>
    </g>
   </g>
   <g id="text_13">
    <!-- Ski Bradford -->
    <g transform="translate(17.693369 5.425083)scale(0.05 -0.05)">
     <defs>
      <path d="M 2375 4863 
L 2375 4384 
L 1825 4384 
Q 1516 4384 1395 4259 
Q 1275 4134 1275 3809 
L 1275 3500 
L 2222 3500 
L 2222 3053 
L 1275 3053 
L 1275 0 
L 697 0 
L 697 3053 
L 147 3053 
L 147 3500 
L 697 3500 
L 697 3744 
Q 697 4328 969 4595 
Q 1241 4863 1831 4863 
L 2375 4863 
z
" id="DejaVuSans-66" transform="scale(0.015625)"/>
     </defs>
     <use xlink:href="#DejaVuSans-53"/>
     <use x="63.476562" xlink:href="#DejaVuSans-6b"/>
     <use x="121.386719" xlink:href="#DejaVuSans-69"/>
     <use x="149.169922" xlink:href="#DejaVuSans-20"/>
     <use x="180.957031" xlink:href="#DejaVuSans-42"/>
     <use x="249.560547" xlink:href="#DejaVuSans-72"/>
     <use x="290.673828" xlink:href="#DejaVuSans-61"/>
     <use x="351.953125" xlink:href="#DejaVuSans-64"/>
     <use x="415.429688" xlink:href="#DejaVuSans-66"/>
     <use x="450.634766" xlink:href="#DejaVuSans-6f"/>
     <use x="511.816406" xlink:href="#DejaVuSans-72"/>
     <use x="551.179688" xlink:href="#DejaVuSans-64"/>
    </g>
   </g>
  </g>
  <g id="text_14">
   <!-- Sources: USGS and OpenStreetMaps -->
   <g transform="translate(13.229833 78.243205)scale(0.021739 -0.021739)">
    <defs>
     <path d="M 750 794 
L 1409 794 
L 1409 0 
L 750 0 
L 750 794 
z
M 750 3309 
L 1409 3309 
L 1409 2516 
L 750 2516 
L 750 3309 
z
" id="DejaVuSans-3a" transform="scale(0.015625)"/>
     <path d="M 3809 666 
L 3809 1919 
L 2778 1919 
L 2778 2438 
L 4434 2438 
L 4434 434 
Q 4069 175 3628 42 
Q 3188 -91 2688 -91 
Q 1594 -91 976 548 
Q 359 1188 359 2328 
Q 359 3472 976 4111 
Q 1594 4750 2688 4750 
Q 3144 4750 3555 4637 
Q 3966 4525 4313 4306 
L 4313 3634 
Q 3963 3931 3569 4081 
Q 3175 4231 2741 4231 
Q 1884 4231 1454 3753 
Q 1025 3275 1025 2328 
Q 1025 1384 1454 906 
Q 1884 428 2741 428 
Q 3075 428 3337 486 
Q 3600 544 3809 666 
z
" id="DejaVuSans-47" transform="scale(0.015625)"/>
     <path d="M 2522 4238 
Q 1834 4238 1429 3725 
Q 1025 3213 1025 2328 
Q 1025 1447 1429 934 
Q 1834 422 2522 422 
Q 3209 422 3611 934 
Q 4013 1447 4013 2328 
Q 4013 3213 3611 3725 
Q 3209 4238 2522 4238 
z
M 2522 4750 
Q 3503 4750 4090 4092 
Q 4678 3434 4678 2328 
Q 4678 1225 4090 567 
Q 3503 -91 2522 -91 
Q 1538 -91 948 565 
Q 359 1222 359 2328 
Q 359 3434 948 4092 
Q 1538 4750 2522 4750 
z
" id="DejaVuSans-4f" transform="scale(0.015625)"/>
     <path d="M 628 4666 
L 1569 4666 
L 2759 1491 
L 3956 4666 
L 4897 4666 
L 4897 0 
L 4281 0 
L 4281 4097 
L 3078 897 
L 2444 897 
L 1241 4097 
L 1241 0 
L 628 0 
L 628 4666 
z
" id="DejaVuSans-4d" transform="scale(0.015625)"/>
    </defs>
    <use xlink:href="#DejaVuSans-53"/>
    <use x="63.476562" xlink:href="#DejaVuSans-6f"/>
    <use x="124.658203" xlink:href="#DejaVuSans-75"/>
    <use x="188.037109" xlink:href="#DejaVuSans-72"/>
    <use x="226.900391" xlink:href="#DejaVuSans-63"/>
    <use x="281.880859" xlink:href="#DejaVuSans-65"/>
    <use x="343.404297" xlink:href="#DejaVuSans-73"/>
    <use x="395.503906" xlink:href="#DejaVuSans-3a"/>
    <use x="429.195312" xlink:href="#DejaVuSans-20"/>
    <use x="460.982422" xlink:href="#DejaVuSans-55"/>
    <use x="534.175781" xlink:href="#DejaVuSans-53"/>
    <use x="597.652344" xlink:href="#DejaVuSans-47"/>
    <use x="675.142578" xlink:href="#DejaVuSans-53"/>
    <use x="738.619141" xlink:href="#DejaVuSans-20"/>
    <use x="770.40625" xlink:href="#DejaVuSans-61"/>
    <use x="831.685547" xlink:href="#DejaVuSans-6e"/>
    <use x="895.064453" xlink:href="#DejaVuSans-64"/>
    <use x="958.541016" xlink:href="#DejaVuSans-20"/>
    <use x="990.328125" xlink:href="#DejaVuSans-4f"/>
    <use x="1069.039062" xlink:href="#DejaVuSans-70"/>
    <use x="1132.515625" xlink:href="#DejaVuSans-65"/>
    <use x="1194.039062" xlink:href="#DejaVuSans-6e"/>
    <use x="1257.417969" xlink:href="#DejaVuSans-53"/>
    <use x="1320.894531" xlink:href="#DejaVuSans-74"/>
    <use x="1360.103516" xlink:href="#DejaVuSans-72"/>
    <use x="1398.966797" xlink:href="#DejaVuSans-65"/>
    <use x="1460.490234" xlink:href="#DejaVuSans-65"/>
    <use x="1522.013672" xlink:href="#DejaVuSans-74"/>
    <use x="1561.222656" xlink:href="#DejaVuSans-4d"/>
    <use x="1647.501953" xlink:href="#DejaVuSans-61"/>
    <use x="1708.78125" xlink:href="#DejaVuSans-70"/>
    <use x="1772.257812" xlink:href="#DejaVuSans-73"/>
   </g>
  </g>
 </g>
 <defs>
  <clipPath id="p07a605d9c3">
   <rect height="62.845146" width="66.120331" x="0" y="7.925083"/>
  </clipPath>
 </defs>
</svg>
