<?xml version="1.0" encoding="utf-8" standalone="no"?>
<!DOCTYPE svg PUBLIC "-//W3C//DTD SVG 1.1//EN"
  "http://www.w3.org/Graphics/SVG/1.1/DTD/svg11.dtd">
<svg height="226.046551pt" version="1.1" viewBox="0 0 150.353414 226.046551" width="150.353414pt" xmlns="http://www.w3.org/2000/svg" xmlns:xlink="http://www.w3.org/1999/xlink">
 <metadata>
  <rdf:RDF xmlns:cc="http://creativecommons.org/ns#" xmlns:dc="http://purl.org/dc/elements/1.1/" xmlns:rdf="http://www.w3.org/1999/02/22-rdf-syntax-ns#">
   <cc:Work>
    <dc:type rdf:resource="http://purl.org/dc/dcmitype/StillImage"/>
    <dc:date>2022-04-14T21:32:29.503111</dc:date>
    <dc:format>image/svg+xml</dc:format>
    <dc:creator>
     <cc:Agent>
      <dc:title>Matplotlib v3.4.3, https://matplotlib.org/</dc:title>
     </cc:Agent>
    </dc:creator>
   </cc:Work>
  </rdf:RDF>
 </metadata>
 <defs>
  <style type="text/css">*{stroke-linecap:butt;stroke-linejoin:round;}</style>
 </defs>
 <g id="figure_1">
  <g id="patch_1">
   <path d="M 0 226.046551 
L 150.353414 226.046551 
L 150.353414 0 
L 0 0 
z
" style="fill:#ffffff;"/>
  </g>
  <g id="axes_1">
   <g id="patch_2">
    <path clip-path="url(#p28217d54de)" d="M 29.350395 142.135192 
L 29.350395 142.135192 
L 28.6025 141.024399 
L 27.854604 139.913607 
L 27.106709 138.802814 
L 26.358814 137.692022 
L 25.797825 138.586637 
L 25.236837 139.481251 
L 24.675848 140.375866 
L 24.114859 141.270481 
L 24.691356 142.07268 
L 25.267853 142.874879 
L 25.84435 143.677078 
L 26.420847 144.479277 
L 26.997343 145.281477 
L 27.57384 146.083676 
L 28.150337 146.885875 
L 28.726834 147.688074 
L 29.241164 148.552063 
L 29.755493 149.416053 
L 30.269823 150.280043 
L 30.784153 151.144033 
L 31.95279 152.316436 
L 33.121426 153.488839 
L 34.290063 154.661242 
L 35.4587 155.833645 
L 36.097634 157.407058 
L 36.736568 158.980471 
L 37.375501 160.553883 
L 38.014435 162.127296 
L 38.731314 162.914182 
L 39.448193 163.701069 
L 40.165072 164.487955 
L 40.881951 165.274842 
L 41.692418 166.215574 
L 42.502885 167.156307 
L 43.313352 168.09704 
L 44.123819 169.037773 
L 45.557577 168.358975 
L 46.991335 167.680178 
L 45.791412 166.369061 
L 44.59149 165.057943 
L 43.391567 163.746826 
L 42.191644 162.435709 
L 41.365534 161.355902 
L 40.539424 160.276095 
L 39.713314 159.196288 
L 38.887205 158.116481 
L 38.402543 157.085314 
L 37.917881 156.054147 
L 37.433219 155.022979 
L 36.948557 153.991812 
L 36.463895 152.960645 
L 35.979233 151.929478 
L 35.494571 150.898311 
L 35.009909 149.867144 
z
" style="fill:#008000;opacity:0.1;"/>
   </g>
   <g id="patch_3">
    <path clip-path="url(#p28217d54de)" d="M 29.350395 142.135192 
L 29.350395 142.135192 
L 28.6025 141.024399 
L 27.854604 139.913607 
L 27.106709 138.802814 
L 26.358814 137.692022 
L 25.797825 138.586637 
L 25.236837 139.481251 
L 24.675848 140.375866 
L 24.114859 141.270481 
L 24.691356 142.07268 
L 25.267853 142.874879 
L 25.84435 143.677078 
L 26.420847 144.479277 
L 26.997343 145.281477 
L 27.57384 146.083676 
L 28.150337 146.885875 
L 28.726834 147.688074 
L 29.241164 148.552063 
L 29.755493 149.416053 
L 30.269823 150.280043 
L 30.784153 151.144033 
L 31.95279 152.316436 
L 33.121426 153.488839 
L 34.290063 154.661242 
L 35.4587 155.833645 
L 36.097634 157.407058 
L 36.736568 158.980471 
L 37.375501 160.553883 
L 38.014435 162.127296 
L 38.731314 162.914182 
L 39.448193 163.701069 
L 40.165072 164.487955 
L 40.881951 165.274842 
L 41.692418 166.215574 
L 42.502885 167.156307 
L 43.313352 168.09704 
L 44.123819 169.037773 
L 45.557577 168.358975 
L 46.991335 167.680178 
L 45.791412 166.369061 
L 44.59149 165.057943 
L 43.391567 163.746826 
L 42.191644 162.435709 
L 41.365534 161.355902 
L 40.539424 160.276095 
L 39.713314 159.196288 
L 38.887205 158.116481 
L 38.402543 157.085314 
L 37.917881 156.054147 
L 37.433219 155.022979 
L 36.948557 153.991812 
L 36.463895 152.960645 
L 35.979233 151.929478 
L 35.494571 150.898311 
L 35.009909 149.867144 
z
" style="fill:none;stroke:#008000;stroke-linejoin:miter;"/>
   </g>
   <g id="line2d_1">
    <path clip-path="url(#p28217d54de)" d="M 48.514635 26.627179 
" style="fill:none;stroke:#008000;stroke-linecap:square;stroke-width:1.5;"/>
   </g>
   <g id="line2d_2">
    <path clip-path="url(#p28217d54de)" d="M 48.514635 26.627179 
" style="fill:none;stroke:#4169e1;stroke-linecap:square;stroke-width:1.5;"/>
   </g>
   <g id="line2d_3">
    <path clip-path="url(#p28217d54de)" d="M 48.514635 26.627179 
" style="fill:none;stroke:#000000;stroke-linecap:square;stroke-width:1.5;"/>
   </g>
   <g id="line2d_4">
    <path clip-path="url(#p28217d54de)" d="M 48.514635 26.627179 
" style="fill:none;stroke:#ff0000;stroke-linecap:square;stroke-width:1.5;"/>
   </g>
   <g id="line2d_5">
    <path clip-path="url(#p28217d54de)" d="M 48.514635 26.627179 
" style="fill:none;stroke:#ffd700;stroke-linecap:square;stroke-width:1.5;"/>
   </g>
   <g id="line2d_6">
    <path clip-path="url(#p28217d54de)" d="M 48.514635 26.627179 
" style="fill:none;stroke:#000000;stroke-dasharray:1.5,2.475;stroke-dashoffset:0;stroke-width:1.5;"/>
   </g>
   <g id="line2d_7">
    <path clip-path="url(#p28217d54de)" d="M 112.846027 175.044628 
L 112.974407 171.734228 
L 113.102787 168.423829 
L 113.281872 163.806275 
L 113.442347 159.671518 
L 113.602822 155.536762 
L 113.763297 151.402005 
L 113.923772 147.267248 
L 114.143313 141.608439 
L 114.362854 135.94963 
L 114.514968 132.031051 
L 114.667083 128.112472 
L 114.910357 121.833954 
L 115.153632 115.555436 
L 115.29361 111.94491 
L 115.433587 108.334383 
L 115.573565 104.723857 
L 115.713542 101.113331 
L 115.888312 96.616837 
L 116.125114 90.515585 
L 116.361916 84.414332 
L 116.524819 80.208958 
L 116.687721 76.003583 
L 116.93693 69.581667 
L 117.186138 63.159751 
L 117.43211 56.812777 
L 117.604722 52.37393 
" style="fill:none;stroke:#808080;stroke-linecap:square;stroke-width:1.5;"/>
   </g>
   <g id="line2d_8">
    <path clip-path="url(#p28217d54de)" d="M 63.65486 186.386746 
L 60.159468 181.623633 
L 57.444606 177.924113 
L 54.729744 174.224594 
L 51.485179 169.804483 
L 48.240614 165.384372 
L 44.79269 160.685391 
L 41.344767 155.986411 
L 37.785725 151.136827 
L 34.226682 146.287243 
L 30.76851 141.574571 
L 27.310337 136.8619 
L 23.700051 131.943139 
L 20.089764 127.024378 
L 16.407736 122.006175 
" style="fill:none;stroke:#808080;stroke-linecap:square;stroke-width:1.5;"/>
   </g>
   <g id="line2d_9">
    <path clip-path="url(#p28217d54de)" d="M 85.530187 186.845042 
L 88.874543 187.770282 
L 93.8339 189.140848 
L 96.995935 190.014926 
L 100.15797 190.889004 
L 103.355606 191.77245 
" style="fill:none;stroke:#808080;stroke-linecap:square;stroke-width:1.5;"/>
   </g>
   <g id="line2d_10">
    <path clip-path="url(#p28217d54de)" d="M 78.007543 177.90826 
L 76.180014 172.725763 
L 74.812064 168.848257 
L 73.444115 164.970752 
L 71.691025 159.997946 
L 69.937935 155.025141 
L 67.789456 148.934698 
L 65.640976 142.844254 
L 63.703407 137.34974 
L 61.765838 131.855226 
L 60.206937 127.434395 
L 58.648035 123.013563 
L 57.218593 118.960953 
L 55.78915 114.908344 
L 54.423358 111.034442 
L 53.057566 107.160539 
L 51.969841 104.076045 
L 50.882116 100.991551 
L 49.794391 97.907057 
L 48.706666 94.822563 
L 47.616784 91.732304 
L 46.526901 88.642046 
L 45.437018 85.551787 
L 44.347136 82.461528 
L 42.674958 77.720033 
L 41.00278 72.978538 
L 39.140728 67.69804 
L 37.278677 62.417541 
L 36.132965 59.168392 
L 34.987253 55.919243 
L 33.828596 52.633344 
L 32.669938 49.347444 
L 30.617474 43.526502 
L 28.565011 37.70556 
L 26.712669 32.453886 
" style="fill:none;stroke:#808080;stroke-linecap:square;stroke-width:1.5;"/>
   </g>
   <g id="line2d_11">
    <path clip-path="url(#p28217d54de)" d="M 91.54895 173.325295 
L 91.134681 166.932203 
L 90.719334 160.53767 
L 90.407014 155.720512 
L 90.094694 150.903355 
L 89.730591 145.297149 
L 89.366487 139.690944 
L 89.046616 134.75705 
L 88.726744 129.823157 
L 88.508013 126.451507 
L 88.289281 123.079857 
L 88.070549 119.708207 
L 87.851818 116.336557 
L 87.63821 113.043092 
L 87.424603 109.749626 
L 87.210996 106.45616 
L 86.997389 103.162695 
L 86.768408 99.633235 
L 86.539428 96.103776 
L 86.310447 92.574316 
L 86.081466 89.044857 
L 85.836843 85.276881 
L 85.59222 81.508906 
L 85.347596 77.74093 
L 85.102973 73.972955 
L 84.700571 67.763613 
L 84.298169 61.554272 
L 83.992862 56.854571 
" style="fill:none;stroke:#808080;stroke-linecap:square;stroke-width:1.5;"/>
   </g>
   <g id="line2d_12">
    <path clip-path="url(#p28217d54de)" d="M 84.778246 174.070387 
L 84.496134 169.157752 
L 84.214021 164.245116 
L 83.931908 159.33248 
L 83.649796 154.419844 
L 83.367683 149.507208 
L 83.085571 144.594572 
L 82.803458 139.681936 
L 82.521345 134.7693 
" style="fill:none;stroke:#808080;stroke-linecap:square;stroke-width:1.5;"/>
   </g>
   <g id="line2d_13">
    <path clip-path="url(#p28217d54de)" d="M 84.516092 196.30065 
L 87.213154 198.259219 
" style="fill:none;stroke:#808080;stroke-linecap:square;stroke-width:1.5;"/>
   </g>
   <g id="line2d_14">
    <path clip-path="url(#p28217d54de)" d="M 86.853905 196.271826 
L 90.210668 197.488186 
L 93.567431 198.704545 
" style="fill:none;stroke:#808080;stroke-linecap:square;stroke-width:1.5;"/>
   </g>
   <g id="line2d_15">
    <path clip-path="url(#p28217d54de)" d="M 93.057147 200.069346 
L 96.519095 200.929733 
L 99.981043 201.79012 
" style="fill:none;stroke:#808080;stroke-linecap:square;stroke-width:1.5;"/>
   </g>
   <g id="line2d_16">
    <path clip-path="url(#p28217d54de)" d="M 44.182076 201.739678 
L 44.647049 196.644373 
L 45.112023 191.549067 
" style="fill:none;stroke:#808080;stroke-linecap:square;stroke-width:1.5;"/>
   </g>
   <g id="line2d_17">
    <path clip-path="url(#p28217d54de)" d="M 48.514635 26.627179 
L 48.376546 27.801744 
L 48.810503 29.348855 
L 49.24446 30.895966 
L 49.678418 32.443077 
L 50.112375 33.990188 
L 51.819615 34.878317 
L 53.526855 35.766447 
L 55.234095 36.654577 
L 56.941335 37.542706 
L 57.751532 38.287438 
L 58.561729 39.03217 
L 59.371926 39.776902 
L 60.182124 40.521633 
L 60.992321 41.266365 
L 61.802518 42.011097 
L 62.612716 42.755829 
L 63.422913 43.500561 
L 64.754048 44.001913 
L 66.085182 44.503264 
L 67.416317 45.004616 
L 68.747452 45.505968 
L 70.078587 46.00732 
L 71.409721 46.508672 
L 72.740856 47.010024 
L 74.071991 47.511376 
L 74.694068 48.528491 
L 75.316145 49.545607 
L 75.938223 50.562722 
L 76.5603 51.579838 
L 77.182377 52.596954 
L 77.804454 53.614069 
L 78.426532 54.631185 
L 79.048609 55.6483 
L 79.178877 56.822865 
L 79.309145 57.99743 
L 79.439413 59.171995 
L 79.569681 60.34656 
L 79.699949 61.521125 
L 79.830217 62.69569 
L 79.960485 63.870255 
L 80.090753 65.04482 
L 79.888204 66.276312 
L 79.685655 67.507803 
L 79.483105 68.739295 
L 79.280556 69.970787 
L 80.096687 71.729752 
L 80.912818 73.488717 
L 81.850316 74.944313 
" style="fill:none;stroke:#4169e1;stroke-linecap:square;stroke-width:1.5;"/>
   </g>
   <g id="line2d_18">
    <path clip-path="url(#p28217d54de)" d="M 26.585367 29.620518 
L 28.039893 28.650241 
L 29.494418 27.679964 
L 30.948943 26.709687 
L 32.403469 25.739409 
L 34.015233 25.368665 
L 35.626996 24.99792 
L 37.23876 24.627176 
L 38.850524 24.256431 
L 40.624382 24.34038 
L 42.398239 24.424329 
L 44.172097 24.508278 
L 45.945954 24.592227 
L 47.230295 25.609703 
L 48.514635 26.627179 
L 49.834577 27.672758 
L 51.154519 28.718337 
L 52.28297 29.105114 
L 53.41142 29.491892 
L 54.539871 29.87867 
L 55.668322 30.265448 
L 56.796772 30.652225 
L 57.925223 31.039003 
L 59.053673 31.425781 
L 60.182124 31.812559 
L 61.137018 32.356786 
L 62.091913 32.901013 
L 63.046808 33.44524 
L 64.001702 33.989467 
L 64.956597 34.533694 
L 65.911492 35.077921 
L 66.866386 35.622148 
L 67.821281 36.166375 
L 68.97886 37.656199 
L 70.136439 39.146023 
L 71.294017 40.635847 
L 72.451596 42.125671 
L 74.028568 42.813296 
L 75.60554 43.500921 
L 77.182512 44.188546 
L 78.759484 44.876171 
L 80.336456 45.563796 
L 81.913428 46.251421 
L 83.490399 46.939045 
L 85.067371 47.62667 
L 85.718442 48.357171 
L 86.369513 49.087671 
L 87.020583 49.818171 
L 87.671654 50.548671 
L 88.322725 51.279171 
L 88.973795 52.009671 
L 89.624866 52.740171 
L 90.275937 53.470671 
" style="fill:none;stroke:#008000;stroke-linecap:square;stroke-width:1.5;"/>
   </g>
   <g id="line2d_19">
    <path clip-path="url(#p28217d54de)" d="M 24.087888 30.588993 
L 23.09483 31.257703 
L 22.101772 31.926412 
L 20.578202 32.893807 
L 19.054632 33.861202 
L 17.531062 34.828596 
L 16.007492 35.795991 
L 14.695371 37.063152 
L 13.383251 38.330313 
L 12.071131 39.597474 
L 10.75901 40.864635 
L 10.585319 42.153774 
L 10.411629 43.442913 
L 10.237938 44.732052 
L 10.064247 46.021191 
L 9.256747 46.788262 
L 8.449247 47.555332 
L 7.641746 48.322402 
L 6.834246 49.089472 
L 7.301782 50.115415 
L 7.769317 51.141358 
L 8.236853 52.167301 
L 8.704389 53.193243 
L 9.171924 54.219186 
L 9.63946 55.245129 
L 10.106995 56.271072 
L 10.574531 57.297015 
L 10.80014 58.322778 
L 11.025749 59.34854 
L 11.251359 60.374303 
L 11.476968 61.400066 
L 11.702577 62.425828 
L 11.928186 63.451591 
L 12.153795 64.477354 
L 12.379405 65.503116 
L 13.117321 66.233617 
L 13.855237 66.964117 
L 14.593153 67.694617 
L 15.331069 68.425117 
L 16.068985 69.155617 
L 16.806901 69.886117 
L 17.544817 70.616617 
L 18.282733 71.347117 
L 19.020649 72.077618 
L 19.758565 72.808118 
L 20.496481 73.538618 
L 21.234397 74.269118 
L 21.972313 74.999618 
L 22.710229 75.730118 
L 23.448145 76.460618 
L 24.186061 77.191118 
L 24.793709 78.566008 
L 25.401357 79.940897 
L 26.009005 81.315787 
L 26.616653 82.690676 
L 26.457392 84.409468 
L 26.29813 86.128261 
L 26.138869 87.847053 
L 25.979607 89.565845 
L 25.820346 91.284637 
L 25.661084 93.003429 
L 25.501823 94.722221 
L 25.342561 96.441013 
L 25.769371 97.543879 
L 26.196181 98.646745 
L 26.622991 99.749611 
L 27.049801 100.852477 
L 27.476611 101.955343 
L 27.903421 103.058209 
L 28.330231 104.161075 
L 28.757041 105.263941 
L 29.183851 106.366807 
L 29.610661 107.469673 
L 30.037471 108.572539 
L 30.464281 109.675405 
L 30.891091 110.778271 
L 31.317901 111.881137 
L 31.744711 112.984003 
L 32.171521 114.086869 
L 33.162961 115.617407 
L 34.154401 117.147944 
" style="fill:none;stroke:#4169e1;stroke-linecap:square;stroke-width:1.5;"/>
   </g>
   <g id="line2d_20">
    <path clip-path="url(#p28217d54de)" d="M 92.636405 58.632992 
L 92.277965 59.662718 
L 91.919526 60.692444 
L 91.561086 61.72217 
L 91.202647 62.751896 
L 90.594729 64.270183 
L 89.986812 65.788471 
L 89.378894 67.306758 
L 88.770976 68.825045 
L 87.905894 69.589954 
L 87.040811 70.354862 
L 86.175729 71.119771 
L 85.310646 71.884679 
L 84.445564 72.649587 
L 83.580481 73.414496 
L 82.715399 74.179404 
L 81.850316 74.944313 
L 80.802778 75.964311 
L 79.755239 76.984309 
L 78.7077 78.004306 
L 77.660161 79.024304 
L 76.699468 79.730845 
L 75.738775 80.437385 
L 74.778081 81.143926 
L 73.817388 81.850466 
L 73.070842 82.747964 
L 72.324295 83.645461 
L 71.577748 84.542958 
L 70.831202 85.440455 
L 69.630335 86.457391 
L 68.429468 87.474326 
L 67.228602 88.491262 
L 66.027735 89.508197 
L 64.826868 90.525133 
L 63.626002 91.542068 
L 62.425135 92.559004 
L 61.224268 93.575939 
L 59.835282 93.518652 
L 58.446295 93.461365 
L 57.057308 93.404078 
L 55.668322 93.346791 
L 55.089532 94.24717 
L 54.510743 95.14755 
L 53.931953 96.04793 
L 53.353164 96.948309 
L 52.774374 97.848689 
L 52.195585 98.749069 
L 51.616796 99.649449 
L 51.038006 100.549828 
L 50.083246 101.986328 
L 49.128487 103.422828 
L 48.173727 104.859329 
L 47.218967 106.295829 
L 45.728706 107.054972 
L 44.238444 107.814116 
L 42.748183 108.57326 
L 41.257922 109.332403 
L 39.76766 110.091547 
L 38.277399 110.850691 
L 36.787138 111.609834 
L 35.296876 112.368978 
L 34.855367 114.139112 
L 34.413858 115.909246 
L 33.972349 117.679381 
L 33.53084 119.449515 
L 32.888805 120.817829 
L 32.246769 122.186143 
L 31.604734 123.554457 
L 30.962698 124.922771 
L 30.320663 126.291085 
L 29.678627 127.659399 
L 29.036592 129.027714 
L 28.394556 130.396028 
L 27.752521 131.764342 
L 27.110485 133.132656 
L 26.46845 134.50097 
L 25.826414 135.869284 
L 25.184379 137.237598 
L 24.542343 138.605912 
L 23.900308 139.974226 
L 23.258272 141.342541 
" style="fill:none;stroke:#008000;stroke-linecap:square;stroke-width:1.5;"/>
   </g>
   <g id="line2d_21">
    <path clip-path="url(#p28217d54de)" d="M 22.101772 31.926412 
L 21.638956 33.645745 
L 21.786621 35.267257 
L 21.934285 36.888769 
L 22.081949 38.510281 
L 22.229613 40.131793 
L 22.377277 41.753305 
L 22.524941 43.374817 
L 22.672605 44.996329 
L 22.820269 46.617842 
L 24.027744 48.08821 
L 25.235218 49.558578 
L 26.442693 51.028945 
L 27.650167 52.499313 
L 28.389027 53.150729 
L 29.127887 53.802144 
L 29.866747 54.453559 
L 30.605607 55.104974 
L 31.344467 55.756389 
L 32.083327 56.407804 
L 32.822187 57.059219 
L 33.561047 57.710635 
L 34.445684 58.256123 
L 35.33032 58.801611 
L 35.789326 60.005315 
L 36.248332 61.209019 
L 36.707338 62.412723 
L 37.166344 63.616426 
L 37.625351 64.82013 
L 38.084357 66.023834 
L 38.543363 67.227538 
L 39.002369 68.431242 
L 39.461375 69.634946 
L 39.920381 70.83865 
L 40.379388 72.042354 
L 40.838394 73.246057 
L 41.2974 74.449761 
L 41.756406 75.653465 
L 42.215412 76.857169 
L 42.674418 78.060873 
L 43.133425 79.264577 
L 43.592431 80.468281 
L 44.051437 81.671985 
L 44.510443 82.875688 
L 44.969449 84.079392 
L 45.428455 85.283096 
L 45.887461 86.4868 
L 46.346468 87.690504 
L 46.805474 88.894208 
L 47.26448 90.097912 
L 47.723486 91.301616 
L 48.182492 92.505319 
L 48.641498 93.709023 
L 49.100505 94.912727 
L 49.559511 96.116431 
L 50.018517 97.320135 
L 50.528262 98.934982 
L 51.038006 100.549828 
" style="fill:none;stroke:#4169e1;stroke-linecap:square;stroke-width:1.5;"/>
   </g>
   <g id="line2d_22">
    <path clip-path="url(#p28217d54de)" d="M 124.48115 64.559141 
L 124.227626 66.245506 
L 123.974103 67.931872 
L 123.720579 69.618237 
L 123.467055 71.304602 
L 123.213531 72.990968 
L 122.960007 74.677333 
L 122.706484 76.363699 
L 122.45296 78.050064 
L 121.990144 78.981069 
L 121.527328 79.912074 
L 121.064513 80.843079 
L 120.601697 81.774083 
L 120.138881 82.705088 
L 119.676065 83.636093 
L 119.21325 84.567098 
L 118.750434 85.498103 
L 118.229361 86.600969 
L 117.708289 87.703835 
L 117.187217 88.806701 
L 116.666145 89.909567 
L 116.246751 91.700238 
L 115.827358 93.490909 
L 115.407965 95.28158 
L 114.988572 97.072251 
L 115.267314 98.581892 
L 115.546055 100.091532 
L 115.824796 101.601172 
L 116.103538 103.110812 
L 116.382279 104.620452 
L 116.66102 106.130093 
L 116.939761 107.639733 
L 117.218503 109.149373 
L 116.964709 110.670543 
L 116.710916 112.191712 
L 116.457122 113.712882 
L 116.203329 115.234052 
L 116.695273 117.024363 
L 117.187217 118.814673 
L 117.679161 120.604984 
L 118.171105 122.395295 
L 118.663049 124.185606 
L 119.154993 125.975916 
L 119.646937 127.766227 
L 120.138881 129.556538 
L 120.977937 131.174988 
L 121.816993 132.793437 
L 122.656049 134.411887 
L 123.495104 136.030336 
L 123.798928 137.340733 
L 124.102752 138.651129 
L 124.406576 139.961526 
L 124.7104 141.271923 
L 125.014224 142.582319 
L 125.318048 143.892716 
L 125.621872 145.203112 
L 125.925696 146.513509 
L 125.231203 148.260944 
L 124.53671 150.00838 
L 123.842216 151.755815 
L 123.147723 153.503251 
L 122.45323 155.250686 
L 121.758736 156.998122 
L 121.064243 158.745558 
L 120.369749 160.492993 
L 119.400426 161.495337 
L 118.431102 162.49768 
L 117.461778 163.500024 
L 116.492454 164.502367 
L 114.842931 165.41896 
L 113.193408 166.335553 
L 111.543885 167.252146 
L 109.894362 168.168739 
L 108.535043 169.171803 
L 107.175724 170.174867 
L 107.406593 171.979229 
L 107.637461 173.783592 
L 109.084705 174.671361 
L 110.531948 175.55913 
" style="fill:none;stroke:#4169e1;stroke-linecap:square;stroke-width:1.5;"/>
   </g>
   <g id="line2d_23">
    <path clip-path="url(#p28217d54de)" d="M 119.147441 54.050027 
L 119.524221 54.968242 
L 119.901 55.886456 
L 120.27778 56.80467 
L 120.654559 57.722885 
L 121.031339 58.641099 
L 121.408118 59.559313 
L 121.784898 60.477528 
L 122.161677 61.395742 
L 122.741545 62.186592 
L 123.321414 62.977441 
L 123.901282 63.768291 
L 124.48115 64.559141 
L 125.305372 65.682904 
L 126.129594 66.806667 
L 126.953816 67.93043 
L 127.778038 69.054194 
L 128.269949 70.343333 
L 128.761859 71.632472 
L 129.253769 72.921611 
L 129.745679 74.21075 
L 130.23759 75.499889 
L 130.7295 76.789028 
L 131.22141 78.078167 
L 131.713321 79.367306 
L 132.205231 80.656445 
L 132.697141 81.945584 
L 133.189052 83.234723 
L 133.680962 84.523862 
L 134.172872 85.813002 
L 134.664783 87.102141 
L 135.156693 88.39128 
L 135.648603 89.680419 
L 136.140514 90.969558 
L 136.632424 92.258697 
L 137.124334 93.547836 
L 137.616244 94.836975 
L 138.108155 96.126114 
L 138.600065 97.415253 
L 139.091975 98.704392 
L 139.583886 99.993531 
L 140.075796 101.28267 
L 140.567706 102.571809 
L 141.059617 103.860948 
L 141.551527 105.150087 
L 142.043437 106.439227 
L 142.535348 107.728366 
L 143.027258 109.017505 
L 143.519168 110.306644 
L 143.159583 111.218283 
L 142.799997 112.129922 
L 142.440411 113.041561 
L 142.080825 113.953199 
L 141.72124 114.864838 
L 141.361654 115.776477 
L 141.002068 116.688116 
L 140.642482 117.599755 
L 140.282897 118.511394 
L 139.923311 119.423033 
L 139.563725 120.334672 
L 139.204139 121.246311 
L 138.844554 122.15795 
L 138.484968 123.069589 
L 138.125382 123.981228 
L 137.765797 124.892867 
L 137.430889 126.27289 
L 137.095981 127.652914 
L 136.761074 129.032938 
L 136.426166 130.412962 
L 136.091258 131.792985 
L 135.756351 133.173009 
L 135.421443 134.553033 
L 135.086536 135.933057 
L 134.751628 137.31308 
L 134.41672 138.693104 
L 134.081813 140.073128 
L 133.746905 141.453151 
L 133.411998 142.833175 
L 133.07709 144.213199 
L 132.742182 145.593223 
L 132.407275 146.973246 
L 132.696669 148.548641 
L 132.986064 150.124035 
L 133.275459 151.699429 
L 133.564853 153.274823 
L 133.854248 154.850217 
L 134.143643 156.425612 
L 134.433038 158.001006 
L 134.722432 159.5764 
L 133.941094 160.979933 
L 133.159755 162.383466 
L 132.378416 163.786999 
L 131.597077 165.190532 
L 130.815739 166.594065 
L 130.0344 167.997598 
L 129.253061 169.401131 
L 128.471722 170.804665 
L 127.082871 171.57804 
L 125.694019 172.351415 
L 124.305167 173.124791 
L 122.916315 173.898166 
L 121.527463 174.671541 
L 120.138611 175.444917 
L 118.749759 176.218292 
L 117.360908 176.991667 
L 116.201711 177.281345 
L 115.042514 177.571023 
" style="fill:none;stroke:#4169e1;stroke-linecap:square;stroke-width:1.5;"/>
   </g>
   <g id="line2d_24">
    <path clip-path="url(#p28217d54de)" d="M 99.535488 121.993205 
L 99.739858 123.498882 
L 99.944228 125.004558 
L 100.148598 126.510235 
L 100.352968 128.015912 
L 100.557338 129.521589 
L 100.761707 131.027266 
L 100.966077 132.532943 
L 101.170447 134.03862 
L 101.374817 135.544297 
L 101.579187 137.049974 
L 101.783557 138.555651 
L 101.987926 140.061328 
L 102.192296 141.567005 
L 102.396666 143.072682 
L 102.601036 144.578359 
L 102.805406 146.084036 
L 103.009776 147.589713 
L 103.214145 149.09539 
L 103.418515 150.601067 
L 103.622885 152.106744 
L 103.827255 153.612421 
L 104.031625 155.118098 
L 104.235995 156.623775 
L 104.440365 158.129451 
L 104.644734 159.635128 
L 104.849104 161.140805 
L 105.053474 162.646482 
L 105.257844 164.152159 
L 105.462214 165.657836 
L 105.666584 167.163513 
L 105.870953 168.66919 
L 106.075323 170.174867 
L 105.120563 171.263682 
L 104.165804 172.352496 
" style="fill:none;stroke:#4169e1;stroke-linecap:square;stroke-width:1.5;"/>
   </g>
   <g id="line2d_25">
    <path clip-path="url(#p28217d54de)" d="M 77.278258 119.116601 
L 78.22169 120.554903 
L 79.165122 121.993205 
L 79.512234 123.225057 
L 79.859345 124.456909 
L 80.206457 125.688761 
L 80.553569 126.920613 
L 80.900681 128.152465 
L 81.247793 129.384317 
L 81.594905 130.616169 
L 81.942016 131.848021 
L 81.316298 133.103292 
L 80.69058 134.358563 
L 80.064862 135.613834 
L 79.439143 136.869106 
L 79.042945 138.742645 
L 78.646747 140.616184 
L 78.250548 142.489723 
L 77.85435 144.363262 
" style="fill:none;stroke:#008000;stroke-linecap:square;stroke-width:1.5;"/>
   </g>
   <g id="line2d_26">
    <path clip-path="url(#p28217d54de)" d="M 97.492195 55.449417 
L 97.923724 56.858354 
L 98.355254 58.267292 
L 98.786784 59.676229 
L 99.218314 61.085167 
L 99.649844 62.494104 
L 100.081374 63.903042 
L 100.512903 65.311979 
L 100.944433 66.720917 
L 101.375963 68.129854 
L 101.807493 69.538792 
L 102.239023 70.947729 
L 102.670553 72.356667 
L 103.102083 73.765604 
L 103.533612 75.174542 
L 103.965142 76.583479 
L 104.396672 77.992417 
L 105.091165 79.653922 
L 105.785659 81.315427 
L 106.480152 82.976932 
L 107.174646 84.638437 
L 107.869139 86.299942 
L 108.563632 87.961447 
L 109.258126 89.622951 
L 109.952619 91.284456 
L 110.155168 92.745457 
L 110.357718 94.206457 
L 110.560267 95.667457 
L 110.762816 97.128457 
L 110.965366 98.589458 
L 111.167915 100.050458 
L 111.370464 101.511458 
L 111.573014 102.972458 
L 112.267507 104.003626 
L 112.962 105.034793 
L 113.656494 106.06596 
L 114.350987 107.097127 
L 115.784745 108.12325 
L 117.218503 109.149373 
" style="fill:none;stroke:#008000;stroke-linecap:square;stroke-width:1.5;"/>
   </g>
   <g id="line2d_27">
    <path clip-path="url(#p28217d54de)" d="M 34.154401 117.147944 
L 35.047668 118.187398 
L 35.940934 119.226852 
L 36.834201 120.266306 
L 37.727468 121.30576 
L 38.190554 122.852691 
L 38.653639 124.399621 
L 39.116724 125.946552 
L 39.57981 127.493483 
L 40.042895 129.040414 
L 40.505981 130.587345 
L 40.969066 132.134276 
L 41.432152 133.681207 
L 42.763152 134.998809 
L 44.094152 136.316411 
L 45.425151 137.634014 
L 46.756151 138.951616 
L 47.132257 140.699052 
L 47.508362 142.446487 
L 47.884467 144.193923 
L 48.260572 145.941359 
L 48.636677 147.688794 
L 49.012783 149.43623 
L 49.388888 151.183665 
L 49.764993 152.931101 
L 50.444518 153.728256 
L 51.124043 154.525411 
L 51.803567 155.322566 
L 52.483092 156.11972 
L 53.162616 156.916875 
L 53.842141 157.71403 
L 54.521666 158.511185 
L 55.20119 159.30834 
L 55.880715 160.105495 
L 56.56024 160.90265 
L 57.239764 161.699805 
L 57.919289 162.49696 
L 58.598814 163.294114 
L 59.278338 164.091269 
L 59.957863 164.888424 
L 60.637388 165.685579 
L 61.112071 167.56128 
L 61.586753 169.436981 
L 62.061436 171.312682 
L 62.536119 173.188383 
L 63.555339 174.734413 
L 64.574558 176.280443 
L 65.593778 177.826473 
L 66.612997 179.372503 
" style="fill:none;stroke:#008000;stroke-linecap:square;stroke-width:1.5;"/>
   </g>
   <g id="line2d_28">
    <path clip-path="url(#p28217d54de)" d="M 16.684994 120.152813 
L 18.150307 119.779906 
L 19.615621 119.407 
L 21.080934 119.034094 
L 22.546248 118.661187 
L 24.002661 118.837732 
L 25.459074 119.014277 
L 25.979944 120.0885 
L 26.500814 121.162722 
L 27.021684 122.236945 
L 27.542554 123.311167 
L 28.063424 124.38539 
L 28.584294 125.459612 
L 29.105165 126.533835 
L 29.626035 127.608057 
L 30.146905 128.68228 
L 30.667775 129.756502 
L 31.188645 130.830725 
L 31.709515 131.904947 
L 32.230385 132.97917 
L 32.751255 134.053392 
L 33.272125 135.127615 
L 33.792995 136.201837 
L 34.328294 137.11852 
L 34.863593 138.035203 
L 35.398893 138.951887 
L 35.934192 139.86857 
L 36.469491 140.785253 
L 37.00479 141.701936 
L 37.54009 142.618619 
L 38.075389 143.535302 
L 38.610688 144.451985 
L 39.145988 145.368668 
L 39.681287 146.285351 
L 40.216586 147.202034 
L 40.751885 148.118717 
L 41.287185 149.0354 
L 41.822484 149.952084 
L 42.357783 150.868767 
L 43.196974 152.129082 
L 44.036165 153.389397 
L 44.875355 154.649713 
L 45.714546 155.910028 
L 46.553737 157.170344 
L 47.392928 158.430659 
L 48.232118 159.690974 
L 49.071309 160.95129 
L 49.852513 161.753309 
L 50.633717 162.555327 
L 51.414921 163.357346 
L 52.196124 164.159365 
L 52.977328 164.961384 
L 53.758532 165.763403 
L 54.539736 166.565422 
L 55.32094 167.367441 
L 55.439071 169.260076 
L 55.557203 171.15271 
L 55.675334 173.045345 
L 55.793465 174.93798 
L 56.626048 175.676227 
L 57.458631 176.414473 
L 58.291214 177.15272 
L 59.123797 177.890966 
L 60.458573 178.534815 
L 61.793348 179.178664 
L 63.128124 179.822513 
L 64.4629 180.466362 
L 65.451103 181.281351 
L 66.439307 182.096341 
L 65.902591 183.769556 
L 65.365876 185.44277 
" style="fill:none;stroke:#4169e1;stroke-linecap:square;stroke-width:1.5;"/>
   </g>
   <g id="line2d_29">
    <path clip-path="url(#p28217d54de)" d="M 118.054592 51.179189 
L 117.881171 49.574791 
L 117.70775 47.970393 
L 117.534329 46.365995 
L 117.360908 44.761597 
L 116.735729 43.076312 
L 116.11055 41.391028 
L 115.485371 39.705743 
L 114.860192 38.020459 
L 114.235013 36.335174 
L 113.609834 34.64989 
L 112.984656 32.964605 
L 112.359477 31.279321 
L 110.890118 30.439831 
L 109.420758 29.600341 
L 108.302017 30.23158 
L 107.183276 30.862818 
L 106.700907 32.403804 
L 106.218537 33.94479 
L 105.736168 35.485776 
L 105.253798 37.026762 
L 104.771429 38.567748 
L 104.289059 40.108734 
L 103.80669 41.64972 
L 103.32432 43.190706 
L 102.522214 44.354102 
L 101.720108 45.517498 
L 100.918002 46.680893 
L 100.115896 47.844289 
L 99.787933 48.79493 
L 99.459971 49.745571 
L 99.132008 50.696212 
L 98.804045 51.646853 
L 98.476083 52.597494 
L 98.14812 53.548135 
L 97.820157 54.498776 
L 97.492195 55.449417 
L 96.989462 56.907895 
L 96.26611 57.638395 
L 95.542758 58.368895 
L 94.819407 59.099396 
L 94.096055 59.829896 
L 93.372703 60.560396 
L 92.649351 61.290896 
L 91.925999 62.021396 
L 91.202647 62.751896 
" style="fill:none;stroke:#008000;stroke-linecap:square;stroke-width:1.5;"/>
   </g>
   <g id="line2d_30">
    <path clip-path="url(#p28217d54de)" d="M 88.770976 68.825045 
L 89.812581 70.042846 
L 90.854187 71.260646 
L 91.895792 72.478447 
L 92.937397 73.696247 
L 92.850686 74.702374 
L 92.763976 75.7085 
L 92.677265 76.714627 
L 92.590555 77.720754 
L 92.503844 78.72688 
L 92.417134 79.733007 
L 92.330423 80.739133 
L 92.243713 81.74526 
L 92.518678 82.687073 
L 92.793644 83.628887 
L 93.068609 84.570701 
L 93.343574 85.512515 
L 93.61854 86.454328 
L 93.893505 87.396142 
L 94.168471 88.337956 
L 94.443436 89.27977 
L 94.508435 90.790851 
L 94.573435 92.301932 
L 94.638434 93.813014 
L 94.703433 95.324095 
L 94.768432 96.835177 
L 94.833431 98.346258 
L 94.89843 99.857339 
L 94.96343 101.368421 
L 95.210143 102.446246 
L 95.456857 103.524072 
L 95.703571 104.601897 
L 95.950284 105.679723 
L 96.196998 106.757548 
L 96.443712 107.835374 
L 96.690426 108.913199 
L 96.937139 109.991024 
L 97.183853 111.06885 
L 97.430567 112.146675 
L 97.67728 113.224501 
L 97.923994 114.302326 
L 98.170708 115.380152 
L 98.417421 116.457977 
L 98.664135 117.535803 
L 98.910849 118.613628 
L 99.223169 120.303416 
L 99.535488 121.993205 
" style="fill:none;stroke:#008000;stroke-linecap:square;stroke-width:1.5;"/>
   </g>
   <g id="line2d_31">
    <path clip-path="url(#p28217d54de)" d="M 81.850316 74.944313 
L 81.68148 76.679498 
L 81.512644 78.414684 
L 81.38032 79.686619 
L 81.247995 80.958553 
L 81.11567 82.230488 
L 80.983346 83.502423 
L 80.851021 84.774358 
L 80.718697 86.046293 
L 80.586372 87.318228 
L 80.454048 88.590163 
L 80.321723 89.862098 
L 80.189398 91.134033 
L 80.057074 92.405968 
L 79.924749 93.677903 
L 79.792425 94.949838 
L 79.6601 96.221773 
L 79.527775 97.493708 
L 79.395451 98.765642 
L 79.263126 100.037577 
L 79.130802 101.309512 
L 78.998477 102.581447 
L 78.866153 103.853382 
L 78.733828 105.125317 
L 78.601503 106.397252 
L 78.469179 107.669187 
L 78.336854 108.941122 
L 78.20453 110.213057 
L 78.072205 111.484992 
L 77.93988 112.756927 
L 77.807556 114.028862 
L 77.675231 115.300797 
L 77.542907 116.572731 
L 77.410582 117.844666 
L 77.278258 119.116601 
L 77.063369 120.069854 
L 76.848481 121.023108 
L 76.633592 121.976361 
L 76.418704 122.929614 
L 76.203816 123.882867 
L 75.988927 124.83612 
L 75.774039 125.789373 
L 75.559151 126.742626 
L 75.344262 127.695879 
L 75.129374 128.649133 
L 74.914485 129.602386 
L 74.699597 130.555639 
L 74.484709 131.508892 
L 74.26982 132.462145 
L 74.054932 133.415398 
L 73.840043 134.368651 
L 74.341832 135.617978 
L 74.84362 136.867304 
L 75.345408 138.11663 
L 75.847197 139.365957 
L 76.348985 140.615283 
L 76.850773 141.864609 
L 77.352562 143.113936 
L 77.85435 144.363262 
L 78.238142 145.268506 
L 78.621934 146.17375 
L 79.005725 147.078993 
L 79.389517 147.984237 
L 79.773309 148.889481 
L 80.157101 149.794724 
L 80.540893 150.699968 
L 80.924685 151.605212 
L 80.444203 153.08855 
L 79.963722 154.571889 
L 79.48324 156.055227 
L 79.002759 157.538566 
L 78.522277 159.021905 
L 78.041796 160.505243 
L 77.561314 161.988582 
L 77.080833 163.47192 
L 78.007004 164.732236 
L 78.933175 165.992551 
L 79.859345 167.252867 
L 80.785516 168.513182 
L 81.074776 169.687567 
L 81.364036 170.861952 
L 81.653296 172.036336 
L 81.942556 173.210721 
L 82.231816 174.385106 
L 82.521076 175.559491 
L 82.810335 176.733876 
L 83.099595 177.90826 
" style="fill:none;stroke:#008000;stroke-linecap:square;stroke-width:1.5;"/>
   </g>
   <g id="line2d_32">
    <path clip-path="url(#p28217d54de)" d="M 85.526951 55.780889 
L 85.389131 57.453383 
L 85.251311 59.125877 
L 85.113491 60.798371 
L 84.975671 62.470865 
L 85.118481 64.380524 
L 85.26129 66.290183 
L 85.404099 68.199842 
L 85.546909 70.109501 
L 85.689718 72.019159 
L 85.832528 73.928818 
L 85.975337 75.838477 
L 86.118147 77.748136 
L 86.260956 79.657795 
L 86.403765 81.567454 
L 86.546575 83.477113 
L 86.689384 85.386771 
L 86.832194 87.29643 
L 86.975003 89.206089 
L 87.117812 91.115748 
L 87.260622 93.025407 
L 87.38526 94.798378 
L 87.509898 96.57135 
L 87.634536 98.344321 
L 87.759174 100.117293 
L 87.883812 101.890264 
L 88.00845 103.663236 
L 88.133088 105.436208 
L 88.257725 107.209179 
L 88.382363 108.982151 
L 88.507001 110.755122 
L 88.631639 112.528094 
L 88.756277 114.301065 
L 88.880915 116.074037 
L 89.005553 117.847008 
L 89.130191 119.61998 
L 89.254829 121.392951 
L 89.379467 123.165923 
L 89.504105 124.938895 
L 89.628743 126.711866 
L 89.753381 128.484838 
L 89.878019 130.257809 
L 90.002657 132.030781 
L 90.127295 133.803752 
L 90.251933 135.576724 
L 90.376571 137.349695 
L 90.501209 139.122667 
L 90.625847 140.895638 
L 90.750485 142.66861 
L 90.875123 144.441582 
L 90.999761 146.214553 
L 91.124398 147.987525 
L 91.249036 149.760496 
L 91.072514 151.290583 
L 90.895991 152.82067 
L 90.719468 154.350757 
L 90.542946 155.880844 
L 90.366423 157.410931 
L 90.1899 158.941018 
L 90.013378 160.471105 
L 89.836855 162.001192 
L 89.660332 163.531279 
L 89.48381 165.061366 
L 89.307287 166.591453 
L 89.130764 168.12154 
L 88.954242 169.651627 
L 88.777719 171.181714 
L 88.601196 172.711801 
L 88.424674 174.241888 
" style="fill:none;stroke:#4169e1;stroke-linecap:square;stroke-width:1.5;"/>
   </g>
   <g id="line2d_33">
    <path clip-path="url(#p28217d54de)" d="M 66.612997 179.372503 
L 67.777319 179.535717 
L 68.94164 179.698931 
L 70.105962 179.862145 
L 71.270283 180.02536 
" style="fill:none;stroke:#008000;stroke-linecap:square;stroke-width:1.5;"/>
   </g>
   <g id="line2d_34">
    <path clip-path="url(#p28217d54de)" d="M 15.446503 122.337648 
L 15.967306 123.613095 
L 16.488108 124.888543 
L 17.008911 126.163991 
L 17.529713 127.439439 
L 18.050516 128.714887 
L 18.571319 129.990334 
L 19.092121 131.265782 
L 19.612924 132.54123 
L 20.068592 133.641394 
L 20.524261 134.741558 
L 20.979929 135.841721 
L 21.435598 136.941885 
L 21.891267 138.042049 
L 22.346935 139.142213 
L 22.802604 140.242377 
L 23.258272 141.342541 
L 23.705175 142.295614 
L 24.152078 143.248687 
L 24.598981 144.201759 
L 25.045885 145.154832 
L 25.492788 146.107905 
L 25.939691 147.060978 
L 26.386594 148.014051 
L 26.833497 148.967124 
L 27.2804 149.920197 
L 27.727303 150.87327 
L 28.174206 151.826343 
L 28.621109 152.779416 
L 29.068012 153.732489 
L 29.514916 154.685562 
L 29.961819 155.638635 
L 30.408722 156.591708 
L 31.247778 157.400753 
L 32.086833 158.209797 
L 32.925889 159.018842 
L 33.764945 159.827887 
L 34.604001 160.636931 
L 35.443057 161.445976 
L 36.282113 162.255021 
L 37.121169 163.064065 
L 37.960224 163.87311 
L 38.79928 164.682155 
L 39.638336 165.491199 
L 40.477392 166.300244 
L 41.316448 167.109289 
L 42.155504 167.918333 
L 42.99456 168.727378 
L 43.833615 169.536423 
L 44.682044 170.650098 
L 45.530472 171.763772 
L 46.3789 172.877447 
L 47.227328 173.991122 
L 48.075756 175.104797 
L 48.924184 176.218472 
L 49.772612 177.332147 
L 50.621041 178.445822 
L 51.469469 179.559497 
L 52.317897 180.673172 
L 53.166325 181.786847 
L 54.014753 182.900522 
L 54.863181 184.014197 
L 55.711609 185.127871 
L 56.560037 186.241546 
L 57.408466 187.355221 
L 59.152925 187.790459 
L 60.897384 188.225696 
" style="fill:none;stroke:#008000;stroke-linecap:square;stroke-width:1.5;"/>
   </g>
   <g id="line2d_35">
    <path clip-path="url(#p28217d54de)" d="M 51.038006 100.549828 
L 51.357338 101.168096 
L 51.588207 101.254567 
L 52.550384 102.289337 
L 53.51256 103.324107 
L 54.474737 104.358877 
L 55.436914 105.393648 
L 56.39909 106.428418 
L 57.361267 107.463188 
L 58.323444 108.497958 
L 59.28562 109.532728 
L 59.065001 110.660635 
L 58.844381 111.788541 
L 58.623762 112.916448 
L 58.403142 114.044354 
L 58.182522 115.172261 
L 57.961903 116.300168 
L 57.741283 117.428074 
L 57.520663 118.555981 
L 57.932774 120.446814 
L 58.344885 122.337648 
L 58.756996 124.228481 
L 59.169107 126.119314 
L 59.574476 127.637241 
L 59.979844 129.155168 
L 60.385212 130.673095 
L 60.790581 132.191022 
L 61.177474 133.884774 
L 61.564368 135.578525 
L 61.951261 137.272277 
L 62.338155 138.966028 
L 62.725048 140.65978 
L 63.111942 142.353531 
L 63.498835 144.047283 
L 63.885729 145.741034 
L 64.261901 146.765986 
L 64.638074 147.790938 
L 65.014247 148.81589 
L 65.390419 149.840842 
L 65.766592 150.865794 
L 66.142765 151.890746 
L 66.518937 152.915698 
L 66.89511 153.94065 
L 67.271283 154.965602 
L 67.647455 155.990554 
L 68.023628 157.015506 
L 68.399801 158.040458 
L 68.775973 159.06541 
L 69.152146 160.090362 
L 69.528319 161.115314 
L 69.904491 162.140266 
L 70.280664 163.165218 
L 70.656837 164.190171 
L 71.033009 165.215123 
L 71.409182 166.240075 
L 71.785355 167.265027 
L 72.161527 168.289979 
L 72.5377 169.314931 
L 72.913873 170.339883 
L 73.290045 171.364835 
L 73.666218 172.389787 
L 74.042391 173.414739 
L 74.418563 174.439691 
L 74.794736 175.464643 
L 75.170909 176.489595 
L 75.547081 177.514547 
L 75.923254 178.539499 
L 76.5603 179.312694 
L 77.197346 180.085889 
" style="fill:none;stroke:#008000;stroke-linecap:square;stroke-width:1.5;"/>
   </g>
   <g id="line2d_36">
    <path clip-path="url(#p28217d54de)" d="M 104.744054 193.032045 
L 103.644731 193.490341 
L 102.545409 193.948638 
L 101.532595 193.662203 
L 100.519781 193.375767 
L 99.506967 193.089332 
L 98.494153 192.802897 
L 97.481339 192.516461 
L 96.468525 192.230026 
L 95.455711 191.943591 
L 94.442897 191.657155 
L 93.430083 191.37072 
L 92.417269 191.084285 
L 91.404455 190.797849 
L 90.391641 190.511414 
L 89.378827 190.224979 
L 88.366012 189.938544 
L 87.353198 189.652108 
L 86.340384 189.365673 
L 85.009654 187.990783 
L 83.678924 186.615894 
" style="fill:none;stroke:#008000;stroke-linecap:square;stroke-width:1.5;"/>
   </g>
   <g id="line2d_37">
    <path clip-path="url(#p28217d54de)" d="M 84.262568 135.883336 
L 84.353459 136.91126 
L 84.44435 137.939185 
L 84.535241 138.967109 
L 84.626132 139.995034 
L 84.717023 141.022958 
L 84.807914 142.050882 
L 84.898805 143.078807 
L 84.989696 144.106731 
L 85.05456 145.738512 
L 85.119425 147.370293 
L 85.184289 149.002073 
L 85.249153 150.633854 
L 85.314018 152.265634 
L 85.378882 153.897415 
L 85.443746 155.529195 
L 85.508611 157.160976 
L 85.599502 159.036857 
L 85.690393 160.912738 
L 85.781284 162.788619 
L 85.872175 164.6645 
L 85.963065 166.540381 
L 86.053956 168.416262 
L 86.144847 170.292143 
L 86.235738 172.168025 
L 85.976281 173.349795 
L 85.716824 174.531566 
" style="fill:none;stroke:#008000;stroke-linecap:square;stroke-width:1.5;"/>
   </g>
   <g id="text_1">
    <g id="patch_4">
     <path d="M 114.001684 167.961287 
L 114.855985 151.484043 
L 112.88301 151.38175 
L 112.028709 167.858993 
z
" style="fill:#ffffff;"/>
    </g>
    <!-- Overbrook Triple -->
    <g style="fill:#808080;" transform="translate(113.567367 167.918742)rotate(-87.032024)scale(0.02 -0.02)">
     <defs>
      <path d="M 2522 4238 
Q 1834 4238 1429 3725 
Q 1025 3213 1025 2328 
Q 1025 1447 1429 934 
Q 1834 422 2522 422 
Q 3209 422 3611 934 
Q 4013 1447 4013 2328 
Q 4013 3213 3611 3725 
Q 3209 4238 2522 4238 
z
M 2522 4750 
Q 3503 4750 4090 4092 
Q 4678 3434 4678 2328 
Q 4678 1225 4090 567 
Q 3503 -91 2522 -91 
Q 1538 -91 948 565 
Q 359 1222 359 2328 
Q 359 3434 948 4092 
Q 1538 4750 2522 4750 
z
" id="DejaVuSans-4f" transform="scale(0.015625)"/>
      <path d="M 191 3500 
L 800 3500 
L 1894 563 
L 2988 3500 
L 3597 3500 
L 2284 0 
L 1503 0 
L 191 3500 
z
" id="DejaVuSans-76" transform="scale(0.015625)"/>
      <path d="M 3597 1894 
L 3597 1613 
L 953 1613 
Q 991 1019 1311 708 
Q 1631 397 2203 397 
Q 2534 397 2845 478 
Q 3156 559 3463 722 
L 3463 178 
Q 3153 47 2828 -22 
Q 2503 -91 2169 -91 
Q 1331 -91 842 396 
Q 353 884 353 1716 
Q 353 2575 817 3079 
Q 1281 3584 2069 3584 
Q 2775 3584 3186 3129 
Q 3597 2675 3597 1894 
z
M 3022 2063 
Q 3016 2534 2758 2815 
Q 2500 3097 2075 3097 
Q 1594 3097 1305 2825 
Q 1016 2553 972 2059 
L 3022 2063 
z
" id="DejaVuSans-65" transform="scale(0.015625)"/>
      <path d="M 2631 2963 
Q 2534 3019 2420 3045 
Q 2306 3072 2169 3072 
Q 1681 3072 1420 2755 
Q 1159 2438 1159 1844 
L 1159 0 
L 581 0 
L 581 3500 
L 1159 3500 
L 1159 2956 
Q 1341 3275 1631 3429 
Q 1922 3584 2338 3584 
Q 2397 3584 2469 3576 
Q 2541 3569 2628 3553 
L 2631 2963 
z
" id="DejaVuSans-72" transform="scale(0.015625)"/>
      <path d="M 3116 1747 
Q 3116 2381 2855 2742 
Q 2594 3103 2138 3103 
Q 1681 3103 1420 2742 
Q 1159 2381 1159 1747 
Q 1159 1113 1420 752 
Q 1681 391 2138 391 
Q 2594 391 2855 752 
Q 3116 1113 3116 1747 
z
M 1159 2969 
Q 1341 3281 1617 3432 
Q 1894 3584 2278 3584 
Q 2916 3584 3314 3078 
Q 3713 2572 3713 1747 
Q 3713 922 3314 415 
Q 2916 -91 2278 -91 
Q 1894 -91 1617 61 
Q 1341 213 1159 525 
L 1159 0 
L 581 0 
L 581 4863 
L 1159 4863 
L 1159 2969 
z
" id="DejaVuSans-62" transform="scale(0.015625)"/>
      <path d="M 1959 3097 
Q 1497 3097 1228 2736 
Q 959 2375 959 1747 
Q 959 1119 1226 758 
Q 1494 397 1959 397 
Q 2419 397 2687 759 
Q 2956 1122 2956 1747 
Q 2956 2369 2687 2733 
Q 2419 3097 1959 3097 
z
M 1959 3584 
Q 2709 3584 3137 3096 
Q 3566 2609 3566 1747 
Q 3566 888 3137 398 
Q 2709 -91 1959 -91 
Q 1206 -91 779 398 
Q 353 888 353 1747 
Q 353 2609 779 3096 
Q 1206 3584 1959 3584 
z
" id="DejaVuSans-6f" transform="scale(0.015625)"/>
      <path d="M 581 4863 
L 1159 4863 
L 1159 1991 
L 2875 3500 
L 3609 3500 
L 1753 1863 
L 3688 0 
L 2938 0 
L 1159 1709 
L 1159 0 
L 581 0 
L 581 4863 
z
" id="DejaVuSans-6b" transform="scale(0.015625)"/>
      <path id="DejaVuSans-20" transform="scale(0.015625)"/>
      <path d="M -19 4666 
L 3928 4666 
L 3928 4134 
L 2272 4134 
L 2272 0 
L 1638 0 
L 1638 4134 
L -19 4134 
L -19 4666 
z
" id="DejaVuSans-54" transform="scale(0.015625)"/>
      <path d="M 603 3500 
L 1178 3500 
L 1178 0 
L 603 0 
L 603 3500 
z
M 603 4863 
L 1178 4863 
L 1178 4134 
L 603 4134 
L 603 4863 
z
" id="DejaVuSans-69" transform="scale(0.015625)"/>
      <path d="M 1159 525 
L 1159 -1331 
L 581 -1331 
L 581 3500 
L 1159 3500 
L 1159 2969 
Q 1341 3281 1617 3432 
Q 1894 3584 2278 3584 
Q 2916 3584 3314 3078 
Q 3713 2572 3713 1747 
Q 3713 922 3314 415 
Q 2916 -91 2278 -91 
Q 1894 -91 1617 61 
Q 1341 213 1159 525 
z
M 3116 1747 
Q 3116 2381 2855 2742 
Q 2594 3103 2138 3103 
Q 1681 3103 1420 2742 
Q 1159 2381 1159 1747 
Q 1159 1113 1420 752 
Q 1681 391 2138 391 
Q 2594 391 2855 752 
Q 3116 1113 3116 1747 
z
" id="DejaVuSans-70" transform="scale(0.015625)"/>
      <path d="M 603 4863 
L 1178 4863 
L 1178 0 
L 603 0 
L 603 4863 
z
" id="DejaVuSans-6c" transform="scale(0.015625)"/>
     </defs>
     <use xlink:href="#DejaVuSans-4f"/>
     <use x="78.710938" xlink:href="#DejaVuSans-76"/>
     <use x="137.890625" xlink:href="#DejaVuSans-65"/>
     <use x="199.414062" xlink:href="#DejaVuSans-72"/>
     <use x="240.527344" xlink:href="#DejaVuSans-62"/>
     <use x="304.003906" xlink:href="#DejaVuSans-72"/>
     <use x="342.867188" xlink:href="#DejaVuSans-6f"/>
     <use x="404.048828" xlink:href="#DejaVuSans-6f"/>
     <use x="465.230469" xlink:href="#DejaVuSans-6b"/>
     <use x="523.140625" xlink:href="#DejaVuSans-20"/>
     <use x="554.927734" xlink:href="#DejaVuSans-54"/>
     <use x="601.261719" xlink:href="#DejaVuSans-72"/>
     <use x="642.375" xlink:href="#DejaVuSans-69"/>
     <use x="670.158203" xlink:href="#DejaVuSans-70"/>
     <use x="733.634766" xlink:href="#DejaVuSans-6c"/>
     <use x="761.417969" xlink:href="#DejaVuSans-65"/>
    </g>
   </g>
   <g id="text_2">
    <g id="patch_5">
     <path d="M 49.421756 170.221152 
L 58.626946 179.611068 
L 60.037732 178.228036 
L 50.832542 168.83812 
z
" style="fill:#ffffff;"/>
    </g>
    <!-- Cruiser Quad -->
    <g style="fill:#808080;" transform="translate(49.747058 169.930257)rotate(-314.430837)scale(0.02 -0.02)">
     <defs>
      <path d="M 4122 4306 
L 4122 3641 
Q 3803 3938 3442 4084 
Q 3081 4231 2675 4231 
Q 1875 4231 1450 3742 
Q 1025 3253 1025 2328 
Q 1025 1406 1450 917 
Q 1875 428 2675 428 
Q 3081 428 3442 575 
Q 3803 722 4122 1019 
L 4122 359 
Q 3791 134 3420 21 
Q 3050 -91 2638 -91 
Q 1578 -91 968 557 
Q 359 1206 359 2328 
Q 359 3453 968 4101 
Q 1578 4750 2638 4750 
Q 3056 4750 3426 4639 
Q 3797 4528 4122 4306 
z
" id="DejaVuSans-43" transform="scale(0.015625)"/>
      <path d="M 544 1381 
L 544 3500 
L 1119 3500 
L 1119 1403 
Q 1119 906 1312 657 
Q 1506 409 1894 409 
Q 2359 409 2629 706 
Q 2900 1003 2900 1516 
L 2900 3500 
L 3475 3500 
L 3475 0 
L 2900 0 
L 2900 538 
Q 2691 219 2414 64 
Q 2138 -91 1772 -91 
Q 1169 -91 856 284 
Q 544 659 544 1381 
z
M 1991 3584 
L 1991 3584 
z
" id="DejaVuSans-75" transform="scale(0.015625)"/>
      <path d="M 2834 3397 
L 2834 2853 
Q 2591 2978 2328 3040 
Q 2066 3103 1784 3103 
Q 1356 3103 1142 2972 
Q 928 2841 928 2578 
Q 928 2378 1081 2264 
Q 1234 2150 1697 2047 
L 1894 2003 
Q 2506 1872 2764 1633 
Q 3022 1394 3022 966 
Q 3022 478 2636 193 
Q 2250 -91 1575 -91 
Q 1294 -91 989 -36 
Q 684 19 347 128 
L 347 722 
Q 666 556 975 473 
Q 1284 391 1588 391 
Q 1994 391 2212 530 
Q 2431 669 2431 922 
Q 2431 1156 2273 1281 
Q 2116 1406 1581 1522 
L 1381 1569 
Q 847 1681 609 1914 
Q 372 2147 372 2553 
Q 372 3047 722 3315 
Q 1072 3584 1716 3584 
Q 2034 3584 2315 3537 
Q 2597 3491 2834 3397 
z
" id="DejaVuSans-73" transform="scale(0.015625)"/>
      <path d="M 2522 4238 
Q 1834 4238 1429 3725 
Q 1025 3213 1025 2328 
Q 1025 1447 1429 934 
Q 1834 422 2522 422 
Q 3209 422 3611 934 
Q 4013 1447 4013 2328 
Q 4013 3213 3611 3725 
Q 3209 4238 2522 4238 
z
M 3406 84 
L 4238 -825 
L 3475 -825 
L 2784 -78 
Q 2681 -84 2626 -87 
Q 2572 -91 2522 -91 
Q 1538 -91 948 567 
Q 359 1225 359 2328 
Q 359 3434 948 4092 
Q 1538 4750 2522 4750 
Q 3503 4750 4090 4092 
Q 4678 3434 4678 2328 
Q 4678 1516 4351 937 
Q 4025 359 3406 84 
z
" id="DejaVuSans-51" transform="scale(0.015625)"/>
      <path d="M 2194 1759 
Q 1497 1759 1228 1600 
Q 959 1441 959 1056 
Q 959 750 1161 570 
Q 1363 391 1709 391 
Q 2188 391 2477 730 
Q 2766 1069 2766 1631 
L 2766 1759 
L 2194 1759 
z
M 3341 1997 
L 3341 0 
L 2766 0 
L 2766 531 
Q 2569 213 2275 61 
Q 1981 -91 1556 -91 
Q 1019 -91 701 211 
Q 384 513 384 1019 
Q 384 1609 779 1909 
Q 1175 2209 1959 2209 
L 2766 2209 
L 2766 2266 
Q 2766 2663 2505 2880 
Q 2244 3097 1772 3097 
Q 1472 3097 1187 3025 
Q 903 2953 641 2809 
L 641 3341 
Q 956 3463 1253 3523 
Q 1550 3584 1831 3584 
Q 2591 3584 2966 3190 
Q 3341 2797 3341 1997 
z
" id="DejaVuSans-61" transform="scale(0.015625)"/>
      <path d="M 2906 2969 
L 2906 4863 
L 3481 4863 
L 3481 0 
L 2906 0 
L 2906 525 
Q 2725 213 2448 61 
Q 2172 -91 1784 -91 
Q 1150 -91 751 415 
Q 353 922 353 1747 
Q 353 2572 751 3078 
Q 1150 3584 1784 3584 
Q 2172 3584 2448 3432 
Q 2725 3281 2906 2969 
z
M 947 1747 
Q 947 1113 1208 752 
Q 1469 391 1925 391 
Q 2381 391 2643 752 
Q 2906 1113 2906 1747 
Q 2906 2381 2643 2742 
Q 2381 3103 1925 3103 
Q 1469 3103 1208 2742 
Q 947 2381 947 1747 
z
" id="DejaVuSans-64" transform="scale(0.015625)"/>
     </defs>
     <use xlink:href="#DejaVuSans-43"/>
     <use x="69.824219" xlink:href="#DejaVuSans-72"/>
     <use x="110.9375" xlink:href="#DejaVuSans-75"/>
     <use x="174.316406" xlink:href="#DejaVuSans-69"/>
     <use x="202.099609" xlink:href="#DejaVuSans-73"/>
     <use x="254.199219" xlink:href="#DejaVuSans-65"/>
     <use x="315.722656" xlink:href="#DejaVuSans-72"/>
     <use x="356.835938" xlink:href="#DejaVuSans-20"/>
     <use x="388.623047" xlink:href="#DejaVuSans-51"/>
     <use x="467.333984" xlink:href="#DejaVuSans-75"/>
     <use x="530.712891" xlink:href="#DejaVuSans-61"/>
     <use x="591.992188" xlink:href="#DejaVuSans-64"/>
    </g>
   </g>
   <g id="text_3">
    <g id="patch_6">
     <path d="M 67.47274 153.359377 
L 74.121973 167.478255 
L 75.909309 166.636516 
L 69.260076 152.517638 
z
" style="fill:#ffffff;"/>
    </g>
    <!-- Top Flight Quad -->
    <g style="fill:#808080;" transform="translate(67.875652 153.191734)rotate(-295.217915)scale(0.02 -0.02)">
     <defs>
      <path d="M 628 4666 
L 3309 4666 
L 3309 4134 
L 1259 4134 
L 1259 2759 
L 3109 2759 
L 3109 2228 
L 1259 2228 
L 1259 0 
L 628 0 
L 628 4666 
z
" id="DejaVuSans-46" transform="scale(0.015625)"/>
      <path d="M 2906 1791 
Q 2906 2416 2648 2759 
Q 2391 3103 1925 3103 
Q 1463 3103 1205 2759 
Q 947 2416 947 1791 
Q 947 1169 1205 825 
Q 1463 481 1925 481 
Q 2391 481 2648 825 
Q 2906 1169 2906 1791 
z
M 3481 434 
Q 3481 -459 3084 -895 
Q 2688 -1331 1869 -1331 
Q 1566 -1331 1297 -1286 
Q 1028 -1241 775 -1147 
L 775 -588 
Q 1028 -725 1275 -790 
Q 1522 -856 1778 -856 
Q 2344 -856 2625 -561 
Q 2906 -266 2906 331 
L 2906 616 
Q 2728 306 2450 153 
Q 2172 0 1784 0 
Q 1141 0 747 490 
Q 353 981 353 1791 
Q 353 2603 747 3093 
Q 1141 3584 1784 3584 
Q 2172 3584 2450 3431 
Q 2728 3278 2906 2969 
L 2906 3500 
L 3481 3500 
L 3481 434 
z
" id="DejaVuSans-67" transform="scale(0.015625)"/>
      <path d="M 3513 2113 
L 3513 0 
L 2938 0 
L 2938 2094 
Q 2938 2591 2744 2837 
Q 2550 3084 2163 3084 
Q 1697 3084 1428 2787 
Q 1159 2491 1159 1978 
L 1159 0 
L 581 0 
L 581 4863 
L 1159 4863 
L 1159 2956 
Q 1366 3272 1645 3428 
Q 1925 3584 2291 3584 
Q 2894 3584 3203 3211 
Q 3513 2838 3513 2113 
z
" id="DejaVuSans-68" transform="scale(0.015625)"/>
      <path d="M 1172 4494 
L 1172 3500 
L 2356 3500 
L 2356 3053 
L 1172 3053 
L 1172 1153 
Q 1172 725 1289 603 
Q 1406 481 1766 481 
L 2356 481 
L 2356 0 
L 1766 0 
Q 1100 0 847 248 
Q 594 497 594 1153 
L 594 3053 
L 172 3053 
L 172 3500 
L 594 3500 
L 594 4494 
L 1172 4494 
z
" id="DejaVuSans-74" transform="scale(0.015625)"/>
     </defs>
     <use xlink:href="#DejaVuSans-54"/>
     <use x="44.083984" xlink:href="#DejaVuSans-6f"/>
     <use x="105.265625" xlink:href="#DejaVuSans-70"/>
     <use x="168.742188" xlink:href="#DejaVuSans-20"/>
     <use x="200.529297" xlink:href="#DejaVuSans-46"/>
     <use x="258.048828" xlink:href="#DejaVuSans-6c"/>
     <use x="285.832031" xlink:href="#DejaVuSans-69"/>
     <use x="313.615234" xlink:href="#DejaVuSans-67"/>
     <use x="377.091797" xlink:href="#DejaVuSans-68"/>
     <use x="440.470703" xlink:href="#DejaVuSans-74"/>
     <use x="479.679688" xlink:href="#DejaVuSans-20"/>
     <use x="511.466797" xlink:href="#DejaVuSans-51"/>
     <use x="590.177734" xlink:href="#DejaVuSans-75"/>
     <use x="653.556641" xlink:href="#DejaVuSans-61"/>
     <use x="714.835938" xlink:href="#DejaVuSans-64"/>
    </g>
   </g>
   <g id="text_4">
    <g id="patch_7">
     <path d="M 88.809413 148.722736 
L 90.036358 162.888763 
L 92.004615 162.718289 
L 90.777669 148.552261 
z
" style="fill:#ffffff;"/>
    </g>
    <!-- Highline Quad -->
    <g style="fill:#808080;" transform="translate(89.24545 148.705045)rotate(-274.950138)scale(0.02 -0.02)">
     <defs>
      <path d="M 628 4666 
L 1259 4666 
L 1259 2753 
L 3553 2753 
L 3553 4666 
L 4184 4666 
L 4184 0 
L 3553 0 
L 3553 2222 
L 1259 2222 
L 1259 0 
L 628 0 
L 628 4666 
z
" id="DejaVuSans-48" transform="scale(0.015625)"/>
      <path d="M 3513 2113 
L 3513 0 
L 2938 0 
L 2938 2094 
Q 2938 2591 2744 2837 
Q 2550 3084 2163 3084 
Q 1697 3084 1428 2787 
Q 1159 2491 1159 1978 
L 1159 0 
L 581 0 
L 581 3500 
L 1159 3500 
L 1159 2956 
Q 1366 3272 1645 3428 
Q 1925 3584 2291 3584 
Q 2894 3584 3203 3211 
Q 3513 2838 3513 2113 
z
" id="DejaVuSans-6e" transform="scale(0.015625)"/>
     </defs>
     <use xlink:href="#DejaVuSans-48"/>
     <use x="75.195312" xlink:href="#DejaVuSans-69"/>
     <use x="102.978516" xlink:href="#DejaVuSans-67"/>
     <use x="166.455078" xlink:href="#DejaVuSans-68"/>
     <use x="229.833984" xlink:href="#DejaVuSans-6c"/>
     <use x="257.617188" xlink:href="#DejaVuSans-69"/>
     <use x="285.400391" xlink:href="#DejaVuSans-6e"/>
     <use x="348.779297" xlink:href="#DejaVuSans-65"/>
     <use x="410.302734" xlink:href="#DejaVuSans-20"/>
     <use x="442.089844" xlink:href="#DejaVuSans-51"/>
     <use x="520.800781" xlink:href="#DejaVuSans-75"/>
     <use x="584.179688" xlink:href="#DejaVuSans-61"/>
     <use x="645.458984" xlink:href="#DejaVuSans-64"/>
    </g>
   </g>
   <g id="text_5">
    <g id="patch_8">
     <path d="M 82.590178 154.75686 
L 83.303802 164.059215 
L 85.273639 163.9081 
L 84.560015 154.605745 
z
" style="fill:#ffffff;"/>
    </g>
    <!-- Poma Lift -->
    <g style="fill:#808080;" transform="translate(83.026368 154.743456)rotate(-274.386816)scale(0.02 -0.02)">
     <defs>
      <path d="M 1259 4147 
L 1259 2394 
L 2053 2394 
Q 2494 2394 2734 2622 
Q 2975 2850 2975 3272 
Q 2975 3691 2734 3919 
Q 2494 4147 2053 4147 
L 1259 4147 
z
M 628 4666 
L 2053 4666 
Q 2838 4666 3239 4311 
Q 3641 3956 3641 3272 
Q 3641 2581 3239 2228 
Q 2838 1875 2053 1875 
L 1259 1875 
L 1259 0 
L 628 0 
L 628 4666 
z
" id="DejaVuSans-50" transform="scale(0.015625)"/>
      <path d="M 3328 2828 
Q 3544 3216 3844 3400 
Q 4144 3584 4550 3584 
Q 5097 3584 5394 3201 
Q 5691 2819 5691 2113 
L 5691 0 
L 5113 0 
L 5113 2094 
Q 5113 2597 4934 2840 
Q 4756 3084 4391 3084 
Q 3944 3084 3684 2787 
Q 3425 2491 3425 1978 
L 3425 0 
L 2847 0 
L 2847 2094 
Q 2847 2600 2669 2842 
Q 2491 3084 2119 3084 
Q 1678 3084 1418 2786 
Q 1159 2488 1159 1978 
L 1159 0 
L 581 0 
L 581 3500 
L 1159 3500 
L 1159 2956 
Q 1356 3278 1631 3431 
Q 1906 3584 2284 3584 
Q 2666 3584 2933 3390 
Q 3200 3197 3328 2828 
z
" id="DejaVuSans-6d" transform="scale(0.015625)"/>
      <path d="M 628 4666 
L 1259 4666 
L 1259 531 
L 3531 531 
L 3531 0 
L 628 0 
L 628 4666 
z
" id="DejaVuSans-4c" transform="scale(0.015625)"/>
      <path d="M 2375 4863 
L 2375 4384 
L 1825 4384 
Q 1516 4384 1395 4259 
Q 1275 4134 1275 3809 
L 1275 3500 
L 2222 3500 
L 2222 3053 
L 1275 3053 
L 1275 0 
L 697 0 
L 697 3053 
L 147 3053 
L 147 3500 
L 697 3500 
L 697 3744 
Q 697 4328 969 4595 
Q 1241 4863 1831 4863 
L 2375 4863 
z
" id="DejaVuSans-66" transform="scale(0.015625)"/>
     </defs>
     <use xlink:href="#DejaVuSans-50"/>
     <use x="56.677734" xlink:href="#DejaVuSans-6f"/>
     <use x="117.859375" xlink:href="#DejaVuSans-6d"/>
     <use x="215.271484" xlink:href="#DejaVuSans-61"/>
     <use x="276.550781" xlink:href="#DejaVuSans-20"/>
     <use x="308.337891" xlink:href="#DejaVuSans-4c"/>
     <use x="364.050781" xlink:href="#DejaVuSans-69"/>
     <use x="391.833984" xlink:href="#DejaVuSans-66"/>
     <use x="425.289062" xlink:href="#DejaVuSans-74"/>
    </g>
   </g>
   <g id="text_6">
    <g id="patch_9">
     <path d="M 55.819381 38.906022 
L 65.045368 45.254263 
L 66.165261 43.626708 
L 56.939274 37.278467 
z
" style="fill:#ffffff;"/>
    </g>
    <!-- Whip 17.4 -->
    <g style="fill:#4169e1;" transform="translate(56.082971 38.558226)rotate(-325.468818)scale(0.02 -0.02)">
     <defs>
      <path d="M 213 4666 
L 850 4666 
L 1831 722 
L 2809 4666 
L 3519 4666 
L 4500 722 
L 5478 4666 
L 6119 4666 
L 4947 0 
L 4153 0 
L 3169 4050 
L 2175 0 
L 1381 0 
L 213 4666 
z
" id="DejaVuSans-57" transform="scale(0.015625)"/>
      <path d="M 794 531 
L 1825 531 
L 1825 4091 
L 703 3866 
L 703 4441 
L 1819 4666 
L 2450 4666 
L 2450 531 
L 3481 531 
L 3481 0 
L 794 0 
L 794 531 
z
" id="DejaVuSans-31" transform="scale(0.015625)"/>
      <path d="M 525 4666 
L 3525 4666 
L 3525 4397 
L 1831 0 
L 1172 0 
L 2766 4134 
L 525 4134 
L 525 4666 
z
" id="DejaVuSans-37" transform="scale(0.015625)"/>
      <path d="M 684 794 
L 1344 794 
L 1344 0 
L 684 0 
L 684 794 
z
" id="DejaVuSans-2e" transform="scale(0.015625)"/>
      <path d="M 2419 4116 
L 825 1625 
L 2419 1625 
L 2419 4116 
z
M 2253 4666 
L 3047 4666 
L 3047 1625 
L 3713 1625 
L 3713 1100 
L 3047 1100 
L 3047 0 
L 2419 0 
L 2419 1100 
L 313 1100 
L 313 1709 
L 2253 4666 
z
" id="DejaVuSans-34" transform="scale(0.015625)"/>
      <path d="M 1600 4347 
Q 1350 4347 1178 4173 
Q 1006 4000 1006 3750 
Q 1006 3503 1178 3333 
Q 1350 3163 1600 3163 
Q 1850 3163 2022 3333 
Q 2194 3503 2194 3750 
Q 2194 3997 2020 4172 
Q 1847 4347 1600 4347 
z
M 1600 4750 
Q 1800 4750 1984 4673 
Q 2169 4597 2303 4453 
Q 2447 4313 2519 4134 
Q 2591 3956 2591 3750 
Q 2591 3338 2302 3052 
Q 2013 2766 1594 2766 
Q 1172 2766 890 3047 
Q 609 3328 609 3750 
Q 609 4169 896 4459 
Q 1184 4750 1600 4750 
z
" id="DejaVuSans-b0" transform="scale(0.015625)"/>
     </defs>
     <use xlink:href="#DejaVuSans-57"/>
     <use x="98.876953" xlink:href="#DejaVuSans-68"/>
     <use x="162.255859" xlink:href="#DejaVuSans-69"/>
     <use x="190.039062" xlink:href="#DejaVuSans-70"/>
     <use x="253.515625" xlink:href="#DejaVuSans-20"/>
     <use x="285.302734" xlink:href="#DejaVuSans-31"/>
     <use x="348.925781" xlink:href="#DejaVuSans-37"/>
     <use x="412.548828" xlink:href="#DejaVuSans-2e"/>
     <use x="444.335938" xlink:href="#DejaVuSans-34"/>
     <use x="507.958984" xlink:href="#DejaVuSans-b0"/>
    </g>
   </g>
   <g id="text_7">
    <g id="patch_10">
     <path d="M 52.177784 30.778672 
L 67.695475 34.760087 
L 68.186463 32.846445 
L 52.668772 28.86503 
z
" style="fill:#ffffff;"/>
    </g>
    <!-- Pied Piper 15.7 -->
    <g style="fill:#008000;" transform="translate(52.305497 30.361382)rotate(-345.609875)scale(0.02 -0.02)">
     <defs>
      <path d="M 691 4666 
L 3169 4666 
L 3169 4134 
L 1269 4134 
L 1269 2991 
Q 1406 3038 1543 3061 
Q 1681 3084 1819 3084 
Q 2600 3084 3056 2656 
Q 3513 2228 3513 1497 
Q 3513 744 3044 326 
Q 2575 -91 1722 -91 
Q 1428 -91 1123 -41 
Q 819 9 494 109 
L 494 744 
Q 775 591 1075 516 
Q 1375 441 1709 441 
Q 2250 441 2565 725 
Q 2881 1009 2881 1497 
Q 2881 1984 2565 2268 
Q 2250 2553 1709 2553 
Q 1456 2553 1204 2497 
Q 953 2441 691 2322 
L 691 4666 
z
" id="DejaVuSans-35" transform="scale(0.015625)"/>
     </defs>
     <use xlink:href="#DejaVuSans-50"/>
     <use x="58.052734" xlink:href="#DejaVuSans-69"/>
     <use x="85.835938" xlink:href="#DejaVuSans-65"/>
     <use x="147.359375" xlink:href="#DejaVuSans-64"/>
     <use x="210.835938" xlink:href="#DejaVuSans-20"/>
     <use x="242.623047" xlink:href="#DejaVuSans-50"/>
     <use x="300.675781" xlink:href="#DejaVuSans-69"/>
     <use x="328.458984" xlink:href="#DejaVuSans-70"/>
     <use x="391.935547" xlink:href="#DejaVuSans-65"/>
     <use x="453.458984" xlink:href="#DejaVuSans-72"/>
     <use x="494.572266" xlink:href="#DejaVuSans-20"/>
     <use x="526.359375" xlink:href="#DejaVuSans-31"/>
     <use x="589.982422" xlink:href="#DejaVuSans-35"/>
     <use x="653.605469" xlink:href="#DejaVuSans-2e"/>
     <use x="685.392578" xlink:href="#DejaVuSans-37"/>
     <use x="749.015625" xlink:href="#DejaVuSans-b0"/>
    </g>
   </g>
   <g id="text_8">
    <g id="patch_11">
     <path d="M 10.848309 67.618364 
L 28.968395 81.046168 
L 30.144653 79.458872 
L 12.024568 66.031067 
z
" style="fill:#ffffff;"/>
    </g>
    <!-- Upper Applejack 17.3 -->
    <g style="fill:#4169e1;" transform="translate(11.123929 67.280022)rotate(-323.459878)scale(0.02 -0.02)">
     <defs>
      <path d="M 556 4666 
L 1191 4666 
L 1191 1831 
Q 1191 1081 1462 751 
Q 1734 422 2344 422 
Q 2950 422 3222 751 
Q 3494 1081 3494 1831 
L 3494 4666 
L 4128 4666 
L 4128 1753 
Q 4128 841 3676 375 
Q 3225 -91 2344 -91 
Q 1459 -91 1007 375 
Q 556 841 556 1753 
L 556 4666 
z
" id="DejaVuSans-55" transform="scale(0.015625)"/>
      <path d="M 2188 4044 
L 1331 1722 
L 3047 1722 
L 2188 4044 
z
M 1831 4666 
L 2547 4666 
L 4325 0 
L 3669 0 
L 3244 1197 
L 1141 1197 
L 716 0 
L 50 0 
L 1831 4666 
z
" id="DejaVuSans-41" transform="scale(0.015625)"/>
      <path d="M 603 3500 
L 1178 3500 
L 1178 -63 
Q 1178 -731 923 -1031 
Q 669 -1331 103 -1331 
L -116 -1331 
L -116 -844 
L 38 -844 
Q 366 -844 484 -692 
Q 603 -541 603 -63 
L 603 3500 
z
M 603 4863 
L 1178 4863 
L 1178 4134 
L 603 4134 
L 603 4863 
z
" id="DejaVuSans-6a" transform="scale(0.015625)"/>
      <path d="M 3122 3366 
L 3122 2828 
Q 2878 2963 2633 3030 
Q 2388 3097 2138 3097 
Q 1578 3097 1268 2742 
Q 959 2388 959 1747 
Q 959 1106 1268 751 
Q 1578 397 2138 397 
Q 2388 397 2633 464 
Q 2878 531 3122 666 
L 3122 134 
Q 2881 22 2623 -34 
Q 2366 -91 2075 -91 
Q 1284 -91 818 406 
Q 353 903 353 1747 
Q 353 2603 823 3093 
Q 1294 3584 2113 3584 
Q 2378 3584 2631 3529 
Q 2884 3475 3122 3366 
z
" id="DejaVuSans-63" transform="scale(0.015625)"/>
      <path d="M 2597 2516 
Q 3050 2419 3304 2112 
Q 3559 1806 3559 1356 
Q 3559 666 3084 287 
Q 2609 -91 1734 -91 
Q 1441 -91 1130 -33 
Q 819 25 488 141 
L 488 750 
Q 750 597 1062 519 
Q 1375 441 1716 441 
Q 2309 441 2620 675 
Q 2931 909 2931 1356 
Q 2931 1769 2642 2001 
Q 2353 2234 1838 2234 
L 1294 2234 
L 1294 2753 
L 1863 2753 
Q 2328 2753 2575 2939 
Q 2822 3125 2822 3475 
Q 2822 3834 2567 4026 
Q 2313 4219 1838 4219 
Q 1578 4219 1281 4162 
Q 984 4106 628 3988 
L 628 4550 
Q 988 4650 1302 4700 
Q 1616 4750 1894 4750 
Q 2613 4750 3031 4423 
Q 3450 4097 3450 3541 
Q 3450 3153 3228 2886 
Q 3006 2619 2597 2516 
z
" id="DejaVuSans-33" transform="scale(0.015625)"/>
     </defs>
     <use xlink:href="#DejaVuSans-55"/>
     <use x="73.193359" xlink:href="#DejaVuSans-70"/>
     <use x="136.669922" xlink:href="#DejaVuSans-70"/>
     <use x="200.146484" xlink:href="#DejaVuSans-65"/>
     <use x="261.669922" xlink:href="#DejaVuSans-72"/>
     <use x="302.783203" xlink:href="#DejaVuSans-20"/>
     <use x="334.570312" xlink:href="#DejaVuSans-41"/>
     <use x="402.978516" xlink:href="#DejaVuSans-70"/>
     <use x="466.455078" xlink:href="#DejaVuSans-70"/>
     <use x="529.931641" xlink:href="#DejaVuSans-6c"/>
     <use x="557.714844" xlink:href="#DejaVuSans-65"/>
     <use x="619.238281" xlink:href="#DejaVuSans-6a"/>
     <use x="647.021484" xlink:href="#DejaVuSans-61"/>
     <use x="708.300781" xlink:href="#DejaVuSans-63"/>
     <use x="763.28125" xlink:href="#DejaVuSans-6b"/>
     <use x="821.191406" xlink:href="#DejaVuSans-20"/>
     <use x="852.978516" xlink:href="#DejaVuSans-31"/>
     <use x="916.601562" xlink:href="#DejaVuSans-37"/>
     <use x="980.224609" xlink:href="#DejaVuSans-2e"/>
     <use x="1012.011719" xlink:href="#DejaVuSans-33"/>
     <use x="1075.634766" xlink:href="#DejaVuSans-b0"/>
    </g>
   </g>
   <g id="text_9">
    <g id="patch_12">
     <path d="M 76.902883 79.211218 
L 89.618335 70.795036 
L 88.527914 69.14759 
L 75.812462 77.563773 
z
" style="fill:#ffffff;"/>
    </g>
    <!-- Crosstown 9.8 -->
    <g style="fill:#008000;" transform="translate(76.678951 78.836657)rotate(-33.500026)scale(0.02 -0.02)">
     <defs>
      <path d="M 269 3500 
L 844 3500 
L 1563 769 
L 2278 3500 
L 2956 3500 
L 3675 769 
L 4391 3500 
L 4966 3500 
L 4050 0 
L 3372 0 
L 2619 2869 
L 1863 0 
L 1184 0 
L 269 3500 
z
" id="DejaVuSans-77" transform="scale(0.015625)"/>
      <path d="M 703 97 
L 703 672 
Q 941 559 1184 500 
Q 1428 441 1663 441 
Q 2288 441 2617 861 
Q 2947 1281 2994 2138 
Q 2813 1869 2534 1725 
Q 2256 1581 1919 1581 
Q 1219 1581 811 2004 
Q 403 2428 403 3163 
Q 403 3881 828 4315 
Q 1253 4750 1959 4750 
Q 2769 4750 3195 4129 
Q 3622 3509 3622 2328 
Q 3622 1225 3098 567 
Q 2575 -91 1691 -91 
Q 1453 -91 1209 -44 
Q 966 3 703 97 
z
M 1959 2075 
Q 2384 2075 2632 2365 
Q 2881 2656 2881 3163 
Q 2881 3666 2632 3958 
Q 2384 4250 1959 4250 
Q 1534 4250 1286 3958 
Q 1038 3666 1038 3163 
Q 1038 2656 1286 2365 
Q 1534 2075 1959 2075 
z
" id="DejaVuSans-39" transform="scale(0.015625)"/>
      <path d="M 2034 2216 
Q 1584 2216 1326 1975 
Q 1069 1734 1069 1313 
Q 1069 891 1326 650 
Q 1584 409 2034 409 
Q 2484 409 2743 651 
Q 3003 894 3003 1313 
Q 3003 1734 2745 1975 
Q 2488 2216 2034 2216 
z
M 1403 2484 
Q 997 2584 770 2862 
Q 544 3141 544 3541 
Q 544 4100 942 4425 
Q 1341 4750 2034 4750 
Q 2731 4750 3128 4425 
Q 3525 4100 3525 3541 
Q 3525 3141 3298 2862 
Q 3072 2584 2669 2484 
Q 3125 2378 3379 2068 
Q 3634 1759 3634 1313 
Q 3634 634 3220 271 
Q 2806 -91 2034 -91 
Q 1263 -91 848 271 
Q 434 634 434 1313 
Q 434 1759 690 2068 
Q 947 2378 1403 2484 
z
M 1172 3481 
Q 1172 3119 1398 2916 
Q 1625 2713 2034 2713 
Q 2441 2713 2670 2916 
Q 2900 3119 2900 3481 
Q 2900 3844 2670 4047 
Q 2441 4250 2034 4250 
Q 1625 4250 1398 4047 
Q 1172 3844 1172 3481 
z
" id="DejaVuSans-38" transform="scale(0.015625)"/>
     </defs>
     <use xlink:href="#DejaVuSans-43"/>
     <use x="69.824219" xlink:href="#DejaVuSans-72"/>
     <use x="108.6875" xlink:href="#DejaVuSans-6f"/>
     <use x="169.869141" xlink:href="#DejaVuSans-73"/>
     <use x="221.96875" xlink:href="#DejaVuSans-73"/>
     <use x="274.068359" xlink:href="#DejaVuSans-74"/>
     <use x="313.277344" xlink:href="#DejaVuSans-6f"/>
     <use x="374.458984" xlink:href="#DejaVuSans-77"/>
     <use x="456.246094" xlink:href="#DejaVuSans-6e"/>
     <use x="519.625" xlink:href="#DejaVuSans-20"/>
     <use x="551.412109" xlink:href="#DejaVuSans-39"/>
     <use x="615.035156" xlink:href="#DejaVuSans-2e"/>
     <use x="646.822266" xlink:href="#DejaVuSans-38"/>
     <use x="710.445312" xlink:href="#DejaVuSans-b0"/>
    </g>
   </g>
   <g id="text_10">
    <g id="patch_13">
     <path d="M 34.51919 62.412048 
L 43.561195 80.162005 
L 45.321572 79.265252 
L 36.279567 61.515294 
z
" style="fill:#ffffff;"/>
    </g>
    <!-- Lucifer's Leap 21.7 -->
    <g style="fill:#4169e1;" transform="translate(34.91671 62.231993)rotate(-296.994747)scale(0.02 -0.02)">
     <defs>
      <path d="M 1147 4666 
L 1147 2931 
L 616 2931 
L 616 4666 
L 1147 4666 
z
" id="DejaVuSans-27" transform="scale(0.015625)"/>
      <path d="M 1228 531 
L 3431 531 
L 3431 0 
L 469 0 
L 469 531 
Q 828 903 1448 1529 
Q 2069 2156 2228 2338 
Q 2531 2678 2651 2914 
Q 2772 3150 2772 3378 
Q 2772 3750 2511 3984 
Q 2250 4219 1831 4219 
Q 1534 4219 1204 4116 
Q 875 4013 500 3803 
L 500 4441 
Q 881 4594 1212 4672 
Q 1544 4750 1819 4750 
Q 2544 4750 2975 4387 
Q 3406 4025 3406 3419 
Q 3406 3131 3298 2873 
Q 3191 2616 2906 2266 
Q 2828 2175 2409 1742 
Q 1991 1309 1228 531 
z
" id="DejaVuSans-32" transform="scale(0.015625)"/>
     </defs>
     <use xlink:href="#DejaVuSans-4c"/>
     <use x="53.962891" xlink:href="#DejaVuSans-75"/>
     <use x="117.341797" xlink:href="#DejaVuSans-63"/>
     <use x="172.322266" xlink:href="#DejaVuSans-69"/>
     <use x="200.105469" xlink:href="#DejaVuSans-66"/>
     <use x="235.310547" xlink:href="#DejaVuSans-65"/>
     <use x="296.833984" xlink:href="#DejaVuSans-72"/>
     <use x="337.947266" xlink:href="#DejaVuSans-27"/>
     <use x="365.4375" xlink:href="#DejaVuSans-73"/>
     <use x="417.537109" xlink:href="#DejaVuSans-20"/>
     <use x="449.324219" xlink:href="#DejaVuSans-4c"/>
     <use x="503.287109" xlink:href="#DejaVuSans-65"/>
     <use x="564.810547" xlink:href="#DejaVuSans-61"/>
     <use x="626.089844" xlink:href="#DejaVuSans-70"/>
     <use x="689.566406" xlink:href="#DejaVuSans-20"/>
     <use x="721.353516" xlink:href="#DejaVuSans-32"/>
     <use x="784.976562" xlink:href="#DejaVuSans-31"/>
     <use x="848.599609" xlink:href="#DejaVuSans-2e"/>
     <use x="880.386719" xlink:href="#DejaVuSans-37"/>
     <use x="944.009766" xlink:href="#DejaVuSans-b0"/>
    </g>
   </g>
   <g id="text_11">
    <g id="patch_14">
     <path d="M 115.228039 92.353734 
L 124.844236 77.8734 
L 123.19846 76.780462 
L 113.582263 91.260796 
z
" style="fill:#ffffff;"/>
    </g>
    <!-- Downspout 20.8 -->
    <g style="fill:#4169e1;" transform="translate(114.87595 92.095908)rotate(-56.412393)scale(0.02 -0.02)">
     <defs>
      <path d="M 1259 4147 
L 1259 519 
L 2022 519 
Q 2988 519 3436 956 
Q 3884 1394 3884 2338 
Q 3884 3275 3436 3711 
Q 2988 4147 2022 4147 
L 1259 4147 
z
M 628 4666 
L 1925 4666 
Q 3281 4666 3915 4102 
Q 4550 3538 4550 2338 
Q 4550 1131 3912 565 
Q 3275 0 1925 0 
L 628 0 
L 628 4666 
z
" id="DejaVuSans-44" transform="scale(0.015625)"/>
      <path d="M 2034 4250 
Q 1547 4250 1301 3770 
Q 1056 3291 1056 2328 
Q 1056 1369 1301 889 
Q 1547 409 2034 409 
Q 2525 409 2770 889 
Q 3016 1369 3016 2328 
Q 3016 3291 2770 3770 
Q 2525 4250 2034 4250 
z
M 2034 4750 
Q 2819 4750 3233 4129 
Q 3647 3509 3647 2328 
Q 3647 1150 3233 529 
Q 2819 -91 2034 -91 
Q 1250 -91 836 529 
Q 422 1150 422 2328 
Q 422 3509 836 4129 
Q 1250 4750 2034 4750 
z
" id="DejaVuSans-30" transform="scale(0.015625)"/>
     </defs>
     <use xlink:href="#DejaVuSans-44"/>
     <use x="77.001953" xlink:href="#DejaVuSans-6f"/>
     <use x="138.183594" xlink:href="#DejaVuSans-77"/>
     <use x="219.970703" xlink:href="#DejaVuSans-6e"/>
     <use x="283.349609" xlink:href="#DejaVuSans-73"/>
     <use x="335.449219" xlink:href="#DejaVuSans-70"/>
     <use x="398.925781" xlink:href="#DejaVuSans-6f"/>
     <use x="460.107422" xlink:href="#DejaVuSans-75"/>
     <use x="523.486328" xlink:href="#DejaVuSans-74"/>
     <use x="562.695312" xlink:href="#DejaVuSans-20"/>
     <use x="594.482422" xlink:href="#DejaVuSans-32"/>
     <use x="658.105469" xlink:href="#DejaVuSans-30"/>
     <use x="721.728516" xlink:href="#DejaVuSans-2e"/>
     <use x="753.515625" xlink:href="#DejaVuSans-38"/>
     <use x="817.138672" xlink:href="#DejaVuSans-b0"/>
    </g>
   </g>
   <g id="text_12">
    <g id="patch_15">
     <path d="M 127.159426 72.932894 
L 135.490899 89.277221 
L 137.251036 88.379997 
L 128.919563 72.035669 
z
" style="fill:#ffffff;"/>
    </g>
    <!-- Freewheeler 17.8 -->
    <g style="fill:#4169e1;" transform="translate(127.556897 72.752732)rotate(-297.01008)scale(0.02 -0.02)">
     <use xlink:href="#DejaVuSans-46"/>
     <use x="50.269531" xlink:href="#DejaVuSans-72"/>
     <use x="89.132812" xlink:href="#DejaVuSans-65"/>
     <use x="150.65625" xlink:href="#DejaVuSans-65"/>
     <use x="212.179688" xlink:href="#DejaVuSans-77"/>
     <use x="293.966797" xlink:href="#DejaVuSans-68"/>
     <use x="357.345703" xlink:href="#DejaVuSans-65"/>
     <use x="418.869141" xlink:href="#DejaVuSans-65"/>
     <use x="480.392578" xlink:href="#DejaVuSans-6c"/>
     <use x="508.175781" xlink:href="#DejaVuSans-65"/>
     <use x="569.699219" xlink:href="#DejaVuSans-72"/>
     <use x="610.8125" xlink:href="#DejaVuSans-20"/>
     <use x="642.599609" xlink:href="#DejaVuSans-31"/>
     <use x="706.222656" xlink:href="#DejaVuSans-37"/>
     <use x="769.845703" xlink:href="#DejaVuSans-2e"/>
     <use x="801.632812" xlink:href="#DejaVuSans-38"/>
     <use x="865.255859" xlink:href="#DejaVuSans-b0"/>
    </g>
   </g>
   <g id="text_13">
    <g id="patch_16">
     <path d="M 98.572126 124.866904 
L 101.416101 140.551462 
L 103.360029 140.198983 
L 100.516053 124.514425 
z
" style="fill:#ffffff;"/>
    </g>
    <!-- West Way 17.6 -->
    <g style="fill:#4169e1;" transform="translate(99.004637 124.808806)rotate(-280.277396)scale(0.02 -0.02)">
     <defs>
      <path d="M 2059 -325 
Q 1816 -950 1584 -1140 
Q 1353 -1331 966 -1331 
L 506 -1331 
L 506 -850 
L 844 -850 
Q 1081 -850 1212 -737 
Q 1344 -625 1503 -206 
L 1606 56 
L 191 3500 
L 800 3500 
L 1894 763 
L 2988 3500 
L 3597 3500 
L 2059 -325 
z
" id="DejaVuSans-79" transform="scale(0.015625)"/>
      <path d="M 2113 2584 
Q 1688 2584 1439 2293 
Q 1191 2003 1191 1497 
Q 1191 994 1439 701 
Q 1688 409 2113 409 
Q 2538 409 2786 701 
Q 3034 994 3034 1497 
Q 3034 2003 2786 2293 
Q 2538 2584 2113 2584 
z
M 3366 4563 
L 3366 3988 
Q 3128 4100 2886 4159 
Q 2644 4219 2406 4219 
Q 1781 4219 1451 3797 
Q 1122 3375 1075 2522 
Q 1259 2794 1537 2939 
Q 1816 3084 2150 3084 
Q 2853 3084 3261 2657 
Q 3669 2231 3669 1497 
Q 3669 778 3244 343 
Q 2819 -91 2113 -91 
Q 1303 -91 875 529 
Q 447 1150 447 2328 
Q 447 3434 972 4092 
Q 1497 4750 2381 4750 
Q 2619 4750 2861 4703 
Q 3103 4656 3366 4563 
z
" id="DejaVuSans-36" transform="scale(0.015625)"/>
     </defs>
     <use xlink:href="#DejaVuSans-57"/>
     <use x="93.001953" xlink:href="#DejaVuSans-65"/>
     <use x="154.525391" xlink:href="#DejaVuSans-73"/>
     <use x="206.625" xlink:href="#DejaVuSans-74"/>
     <use x="245.833984" xlink:href="#DejaVuSans-20"/>
     <use x="277.621094" xlink:href="#DejaVuSans-57"/>
     <use x="370.123047" xlink:href="#DejaVuSans-61"/>
     <use x="431.402344" xlink:href="#DejaVuSans-79"/>
     <use x="490.582031" xlink:href="#DejaVuSans-20"/>
     <use x="522.369141" xlink:href="#DejaVuSans-31"/>
     <use x="585.992188" xlink:href="#DejaVuSans-37"/>
     <use x="649.615234" xlink:href="#DejaVuSans-2e"/>
     <use x="681.402344" xlink:href="#DejaVuSans-36"/>
     <use x="745.025391" xlink:href="#DejaVuSans-b0"/>
    </g>
   </g>
   <g id="text_14">
    <g id="patch_17">
     <path d="M 77.502116 121.618178 
L 81.756055 132.919046 
L 83.605022 132.223047 
L 79.351083 120.922179 
z
" style="fill:#ffffff;"/>
    </g>
    <!-- Chute 15.2 -->
    <g style="fill:#008000;" transform="translate(77.917151 121.483318)rotate(-290.627635)scale(0.02 -0.02)">
     <use xlink:href="#DejaVuSans-43"/>
     <use x="69.824219" xlink:href="#DejaVuSans-68"/>
     <use x="133.203125" xlink:href="#DejaVuSans-75"/>
     <use x="196.582031" xlink:href="#DejaVuSans-74"/>
     <use x="235.791016" xlink:href="#DejaVuSans-65"/>
     <use x="297.314453" xlink:href="#DejaVuSans-20"/>
     <use x="329.101562" xlink:href="#DejaVuSans-31"/>
     <use x="392.724609" xlink:href="#DejaVuSans-35"/>
     <use x="456.347656" xlink:href="#DejaVuSans-2e"/>
     <use x="488.134766" xlink:href="#DejaVuSans-32"/>
     <use x="551.757812" xlink:href="#DejaVuSans-b0"/>
    </g>
   </g>
   <g id="text_15">
    <g id="patch_18">
     <path d="M 97.167982 59.745326 
L 102.029332 71.626769 
L 103.857825 70.878632 
L 98.996475 58.99719 
z
" style="fill:#ffffff;"/>
    </g>
    <!-- Fiddler 11.6 -->
    <g style="fill:#008000;" transform="translate(97.579027 59.598754)rotate(-292.252161)scale(0.02 -0.02)">
     <use xlink:href="#DejaVuSans-46"/>
     <use x="50.269531" xlink:href="#DejaVuSans-69"/>
     <use x="78.052734" xlink:href="#DejaVuSans-64"/>
     <use x="141.529297" xlink:href="#DejaVuSans-64"/>
     <use x="205.005859" xlink:href="#DejaVuSans-6c"/>
     <use x="232.789062" xlink:href="#DejaVuSans-65"/>
     <use x="294.3125" xlink:href="#DejaVuSans-72"/>
     <use x="335.425781" xlink:href="#DejaVuSans-20"/>
     <use x="367.212891" xlink:href="#DejaVuSans-31"/>
     <use x="430.835938" xlink:href="#DejaVuSans-31"/>
     <use x="494.458984" xlink:href="#DejaVuSans-2e"/>
     <use x="526.246094" xlink:href="#DejaVuSans-36"/>
     <use x="589.869141" xlink:href="#DejaVuSans-b0"/>
    </g>
   </g>
   <g id="text_16">
    <g id="patch_19">
     <path d="M 46.100338 152.631048 
L 62.998438 167.470121 
L 64.302043 165.985632 
L 47.403943 151.146559 
z
" style="fill:#ffffff;"/>
    </g>
    <!-- Lower Applejack 16.0 -->
    <g style="fill:#008000;" transform="translate(46.403017 152.31668)rotate(-318.712001)scale(0.02 -0.02)">
     <use xlink:href="#DejaVuSans-4c"/>
     <use x="53.962891" xlink:href="#DejaVuSans-6f"/>
     <use x="115.144531" xlink:href="#DejaVuSans-77"/>
     <use x="196.931641" xlink:href="#DejaVuSans-65"/>
     <use x="258.455078" xlink:href="#DejaVuSans-72"/>
     <use x="299.568359" xlink:href="#DejaVuSans-20"/>
     <use x="331.355469" xlink:href="#DejaVuSans-41"/>
     <use x="399.763672" xlink:href="#DejaVuSans-70"/>
     <use x="463.240234" xlink:href="#DejaVuSans-70"/>
     <use x="526.716797" xlink:href="#DejaVuSans-6c"/>
     <use x="554.5" xlink:href="#DejaVuSans-65"/>
     <use x="616.023438" xlink:href="#DejaVuSans-6a"/>
     <use x="643.806641" xlink:href="#DejaVuSans-61"/>
     <use x="705.085938" xlink:href="#DejaVuSans-63"/>
     <use x="760.066406" xlink:href="#DejaVuSans-6b"/>
     <use x="817.976562" xlink:href="#DejaVuSans-20"/>
     <use x="849.763672" xlink:href="#DejaVuSans-31"/>
     <use x="913.386719" xlink:href="#DejaVuSans-36"/>
     <use x="977.009766" xlink:href="#DejaVuSans-2e"/>
     <use x="1008.796875" xlink:href="#DejaVuSans-30"/>
     <use x="1072.419922" xlink:href="#DejaVuSans-b0"/>
    </g>
   </g>
   <g id="text_17">
    <g id="patch_20">
     <path d="M 24.569472 121.078432 
L 30.94096 130.914855 
L 32.599117 129.840793 
L 26.227629 120.00437 
z
" style="fill:#ffffff;"/>
    </g>
    <!-- Dipsy 17.8 -->
    <g style="fill:#4169e1;" transform="translate(24.946231 120.858218)rotate(-302.932923)scale(0.02 -0.02)">
     <use xlink:href="#DejaVuSans-44"/>
     <use x="77.001953" xlink:href="#DejaVuSans-69"/>
     <use x="104.785156" xlink:href="#DejaVuSans-70"/>
     <use x="168.261719" xlink:href="#DejaVuSans-73"/>
     <use x="220.361328" xlink:href="#DejaVuSans-79"/>
     <use x="279.541016" xlink:href="#DejaVuSans-20"/>
     <use x="311.328125" xlink:href="#DejaVuSans-31"/>
     <use x="374.951172" xlink:href="#DejaVuSans-37"/>
     <use x="438.574219" xlink:href="#DejaVuSans-2e"/>
     <use x="470.361328" xlink:href="#DejaVuSans-38"/>
     <use x="533.984375" xlink:href="#DejaVuSans-b0"/>
    </g>
   </g>
   <g id="text_18">
    <g id="patch_21">
     <path d="M 96.490792 59.265263 
L 102.255618 46.756635 
L 100.461373 45.929725 
L 94.696548 58.438353 
z
" style="fill:#ffffff;"/>
    </g>
    <!-- Uptown 13.1 -->
    <g style="fill:#008000;" transform="translate(96.103249 59.064635)rotate(-65.25654)scale(0.02 -0.02)">
     <use xlink:href="#DejaVuSans-55"/>
     <use x="73.193359" xlink:href="#DejaVuSans-70"/>
     <use x="136.669922" xlink:href="#DejaVuSans-74"/>
     <use x="175.878906" xlink:href="#DejaVuSans-6f"/>
     <use x="237.060547" xlink:href="#DejaVuSans-77"/>
     <use x="318.847656" xlink:href="#DejaVuSans-6e"/>
     <use x="382.226562" xlink:href="#DejaVuSans-20"/>
     <use x="414.013672" xlink:href="#DejaVuSans-31"/>
     <use x="477.636719" xlink:href="#DejaVuSans-33"/>
     <use x="541.259766" xlink:href="#DejaVuSans-2e"/>
     <use x="573.046875" xlink:href="#DejaVuSans-31"/>
     <use x="636.669922" xlink:href="#DejaVuSans-b0"/>
    </g>
   </g>
   <g id="text_19">
    <g id="patch_22">
     <path d="M 94.13201 103.924523 
L 97.359569 114.479582 
L 99.248841 113.901875 
L 96.021282 103.346816 
z
" style="fill:#ffffff;"/>
    </g>
    <!-- Twist 11.2 -->
    <g style="fill:#008000;" transform="translate(94.554742 103.816173)rotate(-287.002744)scale(0.02 -0.02)">
     <use xlink:href="#DejaVuSans-54"/>
     <use x="44.583984" xlink:href="#DejaVuSans-77"/>
     <use x="126.371094" xlink:href="#DejaVuSans-69"/>
     <use x="154.154297" xlink:href="#DejaVuSans-73"/>
     <use x="206.253906" xlink:href="#DejaVuSans-74"/>
     <use x="245.462891" xlink:href="#DejaVuSans-20"/>
     <use x="277.25" xlink:href="#DejaVuSans-31"/>
     <use x="340.873047" xlink:href="#DejaVuSans-31"/>
     <use x="404.496094" xlink:href="#DejaVuSans-2e"/>
     <use x="436.283203" xlink:href="#DejaVuSans-32"/>
     <use x="499.90625" xlink:href="#DejaVuSans-b0"/>
    </g>
   </g>
   <g id="text_20">
    <g id="patch_23">
     <path d="M 80.582578 94.201756 
L 82.811633 78.162784 
L 80.854815 77.890831 
L 78.62576 93.929802 
z
" style="fill:#ffffff;"/>
    </g>
    <!-- Nut Hatch 15.6 -->
    <g style="fill:#008000;" transform="translate(80.153544 94.121937)rotate(-82.087861)scale(0.02 -0.02)">
     <defs>
      <path d="M 628 4666 
L 1478 4666 
L 3547 763 
L 3547 4666 
L 4159 4666 
L 4159 0 
L 3309 0 
L 1241 3903 
L 1241 0 
L 628 0 
L 628 4666 
z
" id="DejaVuSans-4e" transform="scale(0.015625)"/>
     </defs>
     <use xlink:href="#DejaVuSans-4e"/>
     <use x="74.804688" xlink:href="#DejaVuSans-75"/>
     <use x="138.183594" xlink:href="#DejaVuSans-74"/>
     <use x="177.392578" xlink:href="#DejaVuSans-20"/>
     <use x="209.179688" xlink:href="#DejaVuSans-48"/>
     <use x="284.375" xlink:href="#DejaVuSans-61"/>
     <use x="345.654297" xlink:href="#DejaVuSans-74"/>
     <use x="384.863281" xlink:href="#DejaVuSans-63"/>
     <use x="439.84375" xlink:href="#DejaVuSans-68"/>
     <use x="503.222656" xlink:href="#DejaVuSans-20"/>
     <use x="535.009766" xlink:href="#DejaVuSans-31"/>
     <use x="598.632812" xlink:href="#DejaVuSans-35"/>
     <use x="662.255859" xlink:href="#DejaVuSans-2e"/>
     <use x="694.042969" xlink:href="#DejaVuSans-36"/>
     <use x="757.666016" xlink:href="#DejaVuSans-b0"/>
    </g>
   </g>
   <g id="text_21">
    <g id="patch_24">
     <path d="M 84.116898 67.172796 
L 85.867937 84.700548 
L 87.833776 84.504159 
L 86.082737 66.976407 
z
" style="fill:#ffffff;"/>
    </g>
    <!-- Main Street 17.2 -->
    <g style="fill:#4169e1;" transform="translate(84.552664 67.149362)rotate(-275.704974)scale(0.02 -0.02)">
     <defs>
      <path d="M 628 4666 
L 1569 4666 
L 2759 1491 
L 3956 4666 
L 4897 4666 
L 4897 0 
L 4281 0 
L 4281 4097 
L 3078 897 
L 2444 897 
L 1241 4097 
L 1241 0 
L 628 0 
L 628 4666 
z
" id="DejaVuSans-4d" transform="scale(0.015625)"/>
      <path d="M 3425 4513 
L 3425 3897 
Q 3066 4069 2747 4153 
Q 2428 4238 2131 4238 
Q 1616 4238 1336 4038 
Q 1056 3838 1056 3469 
Q 1056 3159 1242 3001 
Q 1428 2844 1947 2747 
L 2328 2669 
Q 3034 2534 3370 2195 
Q 3706 1856 3706 1288 
Q 3706 609 3251 259 
Q 2797 -91 1919 -91 
Q 1588 -91 1214 -16 
Q 841 59 441 206 
L 441 856 
Q 825 641 1194 531 
Q 1563 422 1919 422 
Q 2459 422 2753 634 
Q 3047 847 3047 1241 
Q 3047 1584 2836 1778 
Q 2625 1972 2144 2069 
L 1759 2144 
Q 1053 2284 737 2584 
Q 422 2884 422 3419 
Q 422 4038 858 4394 
Q 1294 4750 2059 4750 
Q 2388 4750 2728 4690 
Q 3069 4631 3425 4513 
z
" id="DejaVuSans-53" transform="scale(0.015625)"/>
     </defs>
     <use xlink:href="#DejaVuSans-4d"/>
     <use x="86.279297" xlink:href="#DejaVuSans-61"/>
     <use x="147.558594" xlink:href="#DejaVuSans-69"/>
     <use x="175.341797" xlink:href="#DejaVuSans-6e"/>
     <use x="238.720703" xlink:href="#DejaVuSans-20"/>
     <use x="270.507812" xlink:href="#DejaVuSans-53"/>
     <use x="333.984375" xlink:href="#DejaVuSans-74"/>
     <use x="373.193359" xlink:href="#DejaVuSans-72"/>
     <use x="412.056641" xlink:href="#DejaVuSans-65"/>
     <use x="473.580078" xlink:href="#DejaVuSans-65"/>
     <use x="535.103516" xlink:href="#DejaVuSans-74"/>
     <use x="574.3125" xlink:href="#DejaVuSans-20"/>
     <use x="606.099609" xlink:href="#DejaVuSans-31"/>
     <use x="669.722656" xlink:href="#DejaVuSans-37"/>
     <use x="733.345703" xlink:href="#DejaVuSans-2e"/>
     <use x="765.132812" xlink:href="#DejaVuSans-32"/>
     <use x="828.755859" xlink:href="#DejaVuSans-b0"/>
    </g>
   </g>
   <g id="text_22">
    <g id="patch_25">
     <path d="M 15.56956 127.191547 
L 21.921914 138.83698 
L 23.656287 137.890913 
L 17.303934 126.24548 
z
" style="fill:#ffffff;"/>
    </g>
    <!-- Cruiser 13.0 -->
    <g style="fill:#008000;" transform="translate(15.961841 127.000347)rotate(-298.611594)scale(0.02 -0.02)">
     <use xlink:href="#DejaVuSans-43"/>
     <use x="69.824219" xlink:href="#DejaVuSans-72"/>
     <use x="110.9375" xlink:href="#DejaVuSans-75"/>
     <use x="174.316406" xlink:href="#DejaVuSans-69"/>
     <use x="202.099609" xlink:href="#DejaVuSans-73"/>
     <use x="254.199219" xlink:href="#DejaVuSans-65"/>
     <use x="315.722656" xlink:href="#DejaVuSans-72"/>
     <use x="356.835938" xlink:href="#DejaVuSans-20"/>
     <use x="388.623047" xlink:href="#DejaVuSans-31"/>
     <use x="452.246094" xlink:href="#DejaVuSans-33"/>
     <use x="515.869141" xlink:href="#DejaVuSans-2e"/>
     <use x="547.65625" xlink:href="#DejaVuSans-30"/>
     <use x="611.279297" xlink:href="#DejaVuSans-b0"/>
    </g>
   </g>
   <g id="text_23">
    <g id="patch_26">
     <path d="M 56.976492 124.058071 
L 61.933174 137.951951 
L 63.793933 137.28812 
L 58.837251 123.39424 
z
" style="fill:#ffffff;"/>
    </g>
    <!-- Hob Nob 16.5 -->
    <g style="fill:#008000;" transform="translate(57.393804 123.930428)rotate(-289.634007)scale(0.02 -0.02)">
     <use xlink:href="#DejaVuSans-48"/>
     <use x="75.195312" xlink:href="#DejaVuSans-6f"/>
     <use x="136.376953" xlink:href="#DejaVuSans-62"/>
     <use x="199.853516" xlink:href="#DejaVuSans-20"/>
     <use x="231.640625" xlink:href="#DejaVuSans-4e"/>
     <use x="306.445312" xlink:href="#DejaVuSans-6f"/>
     <use x="367.626953" xlink:href="#DejaVuSans-62"/>
     <use x="431.103516" xlink:href="#DejaVuSans-20"/>
     <use x="462.890625" xlink:href="#DejaVuSans-31"/>
     <use x="526.513672" xlink:href="#DejaVuSans-36"/>
     <use x="590.136719" xlink:href="#DejaVuSans-2e"/>
     <use x="621.923828" xlink:href="#DejaVuSans-35"/>
     <use x="685.546875" xlink:href="#DejaVuSans-b0"/>
    </g>
   </g>
   <g id="text_24">
    <g id="patch_27">
     <path d="M 20.53821 139.847084 
L 39.483812 163.670657 
L 41.030095 162.440982 
L 22.084493 138.617408 
z
" style="fill:#ffffff;"/>
    </g>
    <!-- Cruiser Progression Park 13.2 -->
    <g style="fill:#008000;" transform="translate(20.891858 139.5914)rotate(-308.493336)scale(0.02 -0.02)">
     <use xlink:href="#DejaVuSans-43"/>
     <use x="69.824219" xlink:href="#DejaVuSans-72"/>
     <use x="110.9375" xlink:href="#DejaVuSans-75"/>
     <use x="174.316406" xlink:href="#DejaVuSans-69"/>
     <use x="202.099609" xlink:href="#DejaVuSans-73"/>
     <use x="254.199219" xlink:href="#DejaVuSans-65"/>
     <use x="315.722656" xlink:href="#DejaVuSans-72"/>
     <use x="356.835938" xlink:href="#DejaVuSans-20"/>
     <use x="388.623047" xlink:href="#DejaVuSans-50"/>
     <use x="447.175781" xlink:href="#DejaVuSans-72"/>
     <use x="486.039062" xlink:href="#DejaVuSans-6f"/>
     <use x="547.220703" xlink:href="#DejaVuSans-67"/>
     <use x="610.697266" xlink:href="#DejaVuSans-72"/>
     <use x="649.560547" xlink:href="#DejaVuSans-65"/>
     <use x="711.083984" xlink:href="#DejaVuSans-73"/>
     <use x="763.183594" xlink:href="#DejaVuSans-73"/>
     <use x="815.283203" xlink:href="#DejaVuSans-69"/>
     <use x="843.066406" xlink:href="#DejaVuSans-6f"/>
     <use x="904.248047" xlink:href="#DejaVuSans-6e"/>
     <use x="967.626953" xlink:href="#DejaVuSans-20"/>
     <use x="999.414062" xlink:href="#DejaVuSans-50"/>
     <use x="1055.216797" xlink:href="#DejaVuSans-61"/>
     <use x="1116.496094" xlink:href="#DejaVuSans-72"/>
     <use x="1157.609375" xlink:href="#DejaVuSans-6b"/>
     <use x="1215.519531" xlink:href="#DejaVuSans-20"/>
     <use x="1247.306641" xlink:href="#DejaVuSans-31"/>
     <use x="1310.929688" xlink:href="#DejaVuSans-33"/>
     <use x="1374.552734" xlink:href="#DejaVuSans-2e"/>
     <use x="1406.339844" xlink:href="#DejaVuSans-32"/>
     <use x="1469.962891" xlink:href="#DejaVuSans-b0"/>
    </g>
   </g>
   <g id="text_25">
    <g id="patch_28">
     <path d="M 83.703451 139.743822 
L 84.692282 158.365086 
L 86.665127 158.260324 
L 85.676296 139.63906 
z
" style="fill:#ffffff;"/>
    </g>
    <!-- Race Course 15.8 -->
    <g style="fill:#008000;" transform="translate(84.139836 139.740678)rotate(-273.039679)scale(0.02 -0.02)">
     <defs>
      <path d="M 2841 2188 
Q 3044 2119 3236 1894 
Q 3428 1669 3622 1275 
L 4263 0 
L 3584 0 
L 2988 1197 
Q 2756 1666 2539 1819 
Q 2322 1972 1947 1972 
L 1259 1972 
L 1259 0 
L 628 0 
L 628 4666 
L 2053 4666 
Q 2853 4666 3247 4331 
Q 3641 3997 3641 3322 
Q 3641 2881 3436 2590 
Q 3231 2300 2841 2188 
z
M 1259 4147 
L 1259 2491 
L 2053 2491 
Q 2509 2491 2742 2702 
Q 2975 2913 2975 3322 
Q 2975 3731 2742 3939 
Q 2509 4147 2053 4147 
L 1259 4147 
z
" id="DejaVuSans-52" transform="scale(0.015625)"/>
     </defs>
     <use xlink:href="#DejaVuSans-52"/>
     <use x="67.232422" xlink:href="#DejaVuSans-61"/>
     <use x="128.511719" xlink:href="#DejaVuSans-63"/>
     <use x="183.492188" xlink:href="#DejaVuSans-65"/>
     <use x="245.015625" xlink:href="#DejaVuSans-20"/>
     <use x="276.802734" xlink:href="#DejaVuSans-43"/>
     <use x="346.626953" xlink:href="#DejaVuSans-6f"/>
     <use x="407.808594" xlink:href="#DejaVuSans-75"/>
     <use x="471.1875" xlink:href="#DejaVuSans-72"/>
     <use x="512.300781" xlink:href="#DejaVuSans-73"/>
     <use x="564.400391" xlink:href="#DejaVuSans-65"/>
     <use x="625.923828" xlink:href="#DejaVuSans-20"/>
     <use x="657.710938" xlink:href="#DejaVuSans-31"/>
     <use x="721.333984" xlink:href="#DejaVuSans-35"/>
     <use x="784.957031" xlink:href="#DejaVuSans-2e"/>
     <use x="816.744141" xlink:href="#DejaVuSans-38"/>
     <use x="880.367188" xlink:href="#DejaVuSans-b0"/>
    </g>
   </g>
   <g id="text_26">
    <!-- Ski Butternut -->
    <g transform="translate(42.267332 10.379747)scale(0.1 -0.1)">
     <defs>
      <path d="M 1259 2228 
L 1259 519 
L 2272 519 
Q 2781 519 3026 730 
Q 3272 941 3272 1375 
Q 3272 1813 3026 2020 
Q 2781 2228 2272 2228 
L 1259 2228 
z
M 1259 4147 
L 1259 2741 
L 2194 2741 
Q 2656 2741 2882 2914 
Q 3109 3088 3109 3444 
Q 3109 3797 2882 3972 
Q 2656 4147 2194 4147 
L 1259 4147 
z
M 628 4666 
L 2241 4666 
Q 2963 4666 3353 4366 
Q 3744 4066 3744 3513 
Q 3744 3084 3544 2831 
Q 3344 2578 2956 2516 
Q 3422 2416 3680 2098 
Q 3938 1781 3938 1306 
Q 3938 681 3513 340 
Q 3088 0 2303 0 
L 628 0 
L 628 4666 
z
" id="DejaVuSans-42" transform="scale(0.015625)"/>
     </defs>
     <use xlink:href="#DejaVuSans-53"/>
     <use x="63.476562" xlink:href="#DejaVuSans-6b"/>
     <use x="121.386719" xlink:href="#DejaVuSans-69"/>
     <use x="149.169922" xlink:href="#DejaVuSans-20"/>
     <use x="180.957031" xlink:href="#DejaVuSans-42"/>
     <use x="249.560547" xlink:href="#DejaVuSans-75"/>
     <use x="312.939453" xlink:href="#DejaVuSans-74"/>
     <use x="352.148438" xlink:href="#DejaVuSans-74"/>
     <use x="391.357422" xlink:href="#DejaVuSans-65"/>
     <use x="452.880859" xlink:href="#DejaVuSans-72"/>
     <use x="492.244141" xlink:href="#DejaVuSans-6e"/>
     <use x="555.623047" xlink:href="#DejaVuSans-75"/>
     <use x="619.001953" xlink:href="#DejaVuSans-74"/>
    </g>
   </g>
   <g id="legend_1">
    <g id="line2d_38">
     <path d="M 5.174754 209.324832 
L 15.174754 209.324832 
" style="fill:none;stroke:#008000;stroke-linecap:square;stroke-width:1.5;"/>
    </g>
    <g id="line2d_39"/>
    <g id="text_27">
     <!-- Easy -->
     <g transform="translate(19.174754 211.074832)scale(0.05 -0.05)">
      <defs>
       <path d="M 628 4666 
L 3578 4666 
L 3578 4134 
L 1259 4134 
L 1259 2753 
L 3481 2753 
L 3481 2222 
L 1259 2222 
L 1259 531 
L 3634 531 
L 3634 0 
L 628 0 
L 628 4666 
z
" id="DejaVuSans-45" transform="scale(0.015625)"/>
      </defs>
      <use xlink:href="#DejaVuSans-45"/>
      <use x="63.183594" xlink:href="#DejaVuSans-61"/>
      <use x="124.462891" xlink:href="#DejaVuSans-73"/>
      <use x="176.5625" xlink:href="#DejaVuSans-79"/>
     </g>
    </g>
    <g id="line2d_40">
     <path d="M 5.174754 216.663894 
L 15.174754 216.663894 
" style="fill:none;stroke:#4169e1;stroke-linecap:square;stroke-width:1.5;"/>
    </g>
    <g id="line2d_41"/>
    <g id="text_28">
     <!-- Intermediate -->
     <g transform="translate(19.174754 218.413894)scale(0.05 -0.05)">
      <defs>
       <path d="M 628 4666 
L 1259 4666 
L 1259 0 
L 628 0 
L 628 4666 
z
" id="DejaVuSans-49" transform="scale(0.015625)"/>
      </defs>
      <use xlink:href="#DejaVuSans-49"/>
      <use x="29.492188" xlink:href="#DejaVuSans-6e"/>
      <use x="92.871094" xlink:href="#DejaVuSans-74"/>
      <use x="132.080078" xlink:href="#DejaVuSans-65"/>
      <use x="193.603516" xlink:href="#DejaVuSans-72"/>
      <use x="232.966797" xlink:href="#DejaVuSans-6d"/>
      <use x="330.378906" xlink:href="#DejaVuSans-65"/>
      <use x="391.902344" xlink:href="#DejaVuSans-64"/>
      <use x="455.378906" xlink:href="#DejaVuSans-69"/>
      <use x="483.162109" xlink:href="#DejaVuSans-61"/>
      <use x="544.441406" xlink:href="#DejaVuSans-74"/>
      <use x="583.650391" xlink:href="#DejaVuSans-65"/>
     </g>
    </g>
    <g id="line2d_42">
     <path d="M 61.434129 209.324832 
L 71.434129 209.324832 
" style="fill:none;stroke:#000000;stroke-linecap:square;stroke-width:1.5;"/>
    </g>
    <g id="line2d_43"/>
    <g id="text_29">
     <!-- Advanced -->
     <g transform="translate(75.434129 211.074832)scale(0.05 -0.05)">
      <use xlink:href="#DejaVuSans-41"/>
      <use x="66.658203" xlink:href="#DejaVuSans-64"/>
      <use x="130.134766" xlink:href="#DejaVuSans-76"/>
      <use x="189.314453" xlink:href="#DejaVuSans-61"/>
      <use x="250.59375" xlink:href="#DejaVuSans-6e"/>
      <use x="313.972656" xlink:href="#DejaVuSans-63"/>
      <use x="368.953125" xlink:href="#DejaVuSans-65"/>
      <use x="430.476562" xlink:href="#DejaVuSans-64"/>
     </g>
    </g>
    <g id="line2d_44">
     <path d="M 61.434129 216.663894 
L 71.434129 216.663894 
" style="fill:none;stroke:#ff0000;stroke-linecap:square;stroke-width:1.5;"/>
    </g>
    <g id="line2d_45"/>
    <g id="text_30">
     <!-- Expert -->
     <g transform="translate(75.434129 218.413894)scale(0.05 -0.05)">
      <defs>
       <path d="M 3513 3500 
L 2247 1797 
L 3578 0 
L 2900 0 
L 1881 1375 
L 863 0 
L 184 0 
L 1544 1831 
L 300 3500 
L 978 3500 
L 1906 2253 
L 2834 3500 
L 3513 3500 
z
" id="DejaVuSans-78" transform="scale(0.015625)"/>
      </defs>
      <use xlink:href="#DejaVuSans-45"/>
      <use x="63.183594" xlink:href="#DejaVuSans-78"/>
      <use x="122.363281" xlink:href="#DejaVuSans-70"/>
      <use x="185.839844" xlink:href="#DejaVuSans-65"/>
      <use x="247.363281" xlink:href="#DejaVuSans-72"/>
      <use x="288.476562" xlink:href="#DejaVuSans-74"/>
     </g>
    </g>
    <g id="line2d_46">
     <path d="M 110.133348 209.324832 
L 120.133348 209.324832 
" style="fill:none;stroke:#ffd700;stroke-linecap:square;stroke-width:1.5;"/>
    </g>
    <g id="line2d_47"/>
    <g id="text_31">
     <!-- Extreme -->
     <g transform="translate(124.133348 211.074832)scale(0.05 -0.05)">
      <use xlink:href="#DejaVuSans-45"/>
      <use x="63.183594" xlink:href="#DejaVuSans-78"/>
      <use x="122.363281" xlink:href="#DejaVuSans-74"/>
      <use x="161.572266" xlink:href="#DejaVuSans-72"/>
      <use x="200.435547" xlink:href="#DejaVuSans-65"/>
      <use x="261.958984" xlink:href="#DejaVuSans-6d"/>
      <use x="359.371094" xlink:href="#DejaVuSans-65"/>
     </g>
    </g>
    <g id="line2d_48">
     <path d="M 110.133348 216.663894 
L 120.133348 216.663894 
" style="fill:none;stroke:#000000;stroke-dasharray:1.5,2.475;stroke-dashoffset:0;stroke-width:1.5;"/>
    </g>
    <g id="line2d_49"/>
    <g id="text_32">
     <!-- Gladed -->
     <g transform="translate(124.133348 218.413894)scale(0.05 -0.05)">
      <defs>
       <path d="M 3809 666 
L 3809 1919 
L 2778 1919 
L 2778 2438 
L 4434 2438 
L 4434 434 
Q 4069 175 3628 42 
Q 3188 -91 2688 -91 
Q 1594 -91 976 548 
Q 359 1188 359 2328 
Q 359 3472 976 4111 
Q 1594 4750 2688 4750 
Q 3144 4750 3555 4637 
Q 3966 4525 4313 4306 
L 4313 3634 
Q 3963 3931 3569 4081 
Q 3175 4231 2741 4231 
Q 1884 4231 1454 3753 
Q 1025 3275 1025 2328 
Q 1025 1384 1454 906 
Q 1884 428 2741 428 
Q 3075 428 3337 486 
Q 3600 544 3809 666 
z
" id="DejaVuSans-47" transform="scale(0.015625)"/>
      </defs>
      <use xlink:href="#DejaVuSans-47"/>
      <use x="77.490234" xlink:href="#DejaVuSans-6c"/>
      <use x="105.273438" xlink:href="#DejaVuSans-61"/>
      <use x="166.552734" xlink:href="#DejaVuSans-64"/>
      <use x="230.029297" xlink:href="#DejaVuSans-65"/>
      <use x="291.552734" xlink:href="#DejaVuSans-64"/>
     </g>
    </g>
   </g>
  </g>
  <g id="text_33">
   <!-- Sources: USGS and OpenStreetMaps -->
   <g transform="translate(35.516041 225.142339)scale(0.043478 -0.043478)">
    <defs>
     <path d="M 750 794 
L 1409 794 
L 1409 0 
L 750 0 
L 750 794 
z
M 750 3309 
L 1409 3309 
L 1409 2516 
L 750 2516 
L 750 3309 
z
" id="DejaVuSans-3a" transform="scale(0.015625)"/>
    </defs>
    <use xlink:href="#DejaVuSans-53"/>
    <use x="63.476562" xlink:href="#DejaVuSans-6f"/>
    <use x="124.658203" xlink:href="#DejaVuSans-75"/>
    <use x="188.037109" xlink:href="#DejaVuSans-72"/>
    <use x="226.900391" xlink:href="#DejaVuSans-63"/>
    <use x="281.880859" xlink:href="#DejaVuSans-65"/>
    <use x="343.404297" xlink:href="#DejaVuSans-73"/>
    <use x="395.503906" xlink:href="#DejaVuSans-3a"/>
    <use x="429.195312" xlink:href="#DejaVuSans-20"/>
    <use x="460.982422" xlink:href="#DejaVuSans-55"/>
    <use x="534.175781" xlink:href="#DejaVuSans-53"/>
    <use x="597.652344" xlink:href="#DejaVuSans-47"/>
    <use x="675.142578" xlink:href="#DejaVuSans-53"/>
    <use x="738.619141" xlink:href="#DejaVuSans-20"/>
    <use x="770.40625" xlink:href="#DejaVuSans-61"/>
    <use x="831.685547" xlink:href="#DejaVuSans-6e"/>
    <use x="895.064453" xlink:href="#DejaVuSans-64"/>
    <use x="958.541016" xlink:href="#DejaVuSans-20"/>
    <use x="990.328125" xlink:href="#DejaVuSans-4f"/>
    <use x="1069.039062" xlink:href="#DejaVuSans-70"/>
    <use x="1132.515625" xlink:href="#DejaVuSans-65"/>
    <use x="1194.039062" xlink:href="#DejaVuSans-6e"/>
    <use x="1257.417969" xlink:href="#DejaVuSans-53"/>
    <use x="1320.894531" xlink:href="#DejaVuSans-74"/>
    <use x="1360.103516" xlink:href="#DejaVuSans-72"/>
    <use x="1398.966797" xlink:href="#DejaVuSans-65"/>
    <use x="1460.490234" xlink:href="#DejaVuSans-65"/>
    <use x="1522.013672" xlink:href="#DejaVuSans-74"/>
    <use x="1561.222656" xlink:href="#DejaVuSans-4d"/>
    <use x="1647.501953" xlink:href="#DejaVuSans-61"/>
    <use x="1708.78125" xlink:href="#DejaVuSans-70"/>
    <use x="1772.257812" xlink:href="#DejaVuSans-73"/>
   </g>
  </g>
 </g>
 <defs>
  <clipPath id="p28217d54de">
   <rect height="195.287058" width="150.353414" x="0" y="15.379747"/>
  </clipPath>
 </defs>
</svg>
