<?xml version="1.0" encoding="utf-8" standalone="no"?>
<!DOCTYPE svg PUBLIC "-//W3C//DTD SVG 1.1//EN"
  "http://www.w3.org/Graphics/SVG/1.1/DTD/svg11.dtd">
<svg height="149.521142pt" version="1.1" viewBox="0 0 70.494834 149.521142" width="70.494834pt" xmlns="http://www.w3.org/2000/svg" xmlns:xlink="http://www.w3.org/1999/xlink">
 <metadata>
  <rdf:RDF xmlns:cc="http://creativecommons.org/ns#" xmlns:dc="http://purl.org/dc/elements/1.1/" xmlns:rdf="http://www.w3.org/1999/02/22-rdf-syntax-ns#">
   <cc:Work>
    <dc:type rdf:resource="http://purl.org/dc/dcmitype/StillImage"/>
    <dc:date>2022-04-14T21:32:32.255301</dc:date>
    <dc:format>image/svg+xml</dc:format>
    <dc:creator>
     <cc:Agent>
      <dc:title>Matplotlib v3.4.3, https://matplotlib.org/</dc:title>
     </cc:Agent>
    </dc:creator>
   </cc:Work>
  </rdf:RDF>
 </metadata>
 <defs>
  <style type="text/css">*{stroke-linecap:butt;stroke-linejoin:round;}</style>
 </defs>
 <g id="figure_1">
  <g id="patch_1">
   <path d="M 0 149.521142 
L 70.494834 149.521142 
L 70.494834 0 
L 0 0 
z
" style="fill:#ffffff;"/>
  </g>
  <g id="axes_1">
   <g id="line2d_1">
    <path clip-path="url(#p664713b301)" d="M 18.599209 123.5791 
L 21.00539 119.61985 
L 23.41157 115.6606 
L 24.276223 114.238806 
L 26.22242 111.035727 
L 28.168617 107.832648 
L 31.350656 102.598203 
L 34.556714 97.322796 
L 37.762771 92.04739 
L 38.754065 90.415399 
L 41.324734 86.186127 
L 43.895402 81.956855 
L 44.812458 80.448826 
L 46.809603 77.162746 
L 48.806747 73.876665 
L 50.038223 71.849073 
L 51.954579 68.695578 
L 53.870935 65.542084 
L 55.448854 62.94642 
" style="fill:none;stroke:#808080;stroke-linecap:square;stroke-width:1.5;"/>
   </g>
   <g id="line2d_2">
    <path clip-path="url(#p664713b301)" d="M 12.216207 119.966945 
L 15.575835 114.735733 
L 17.547506 111.664701 
L 19.519176 108.593669 
L 21.512682 105.490837 
L 23.506187 102.388006 
L 25.341755 99.529865 
L 27.177323 96.671724 
L 29.012891 93.812506 
L 30.848459 90.953287 
L 33.511561 86.856062 
L 36.174663 82.758837 
L 37.855932 80.129757 
L 39.877095 76.970334 
L 41.898258 73.810911 
L 43.711991 70.976485 
L 45.525724 68.142059 
L 47.550526 64.976169 
L 50.569533 60.256976 
L 52.327952 57.508246 
" style="fill:none;stroke:#808080;stroke-linecap:square;stroke-width:1.5;"/>
   </g>
   <g id="line2d_3">
    <path clip-path="url(#p664713b301)" d="M 42.690128 135.050468 
L 43.669777 133.048745 
L 45.061374 130.201923 
L 47.272498 125.682148 
L 49.915949 120.278467 
L 51.22894 117.594413 
L 52.070303 115.872953 
" style="fill:none;stroke:#808080;stroke-linecap:square;stroke-width:1.5;"/>
   </g>
   <g id="line2d_4">
    <path clip-path="url(#p664713b301)" d="M 25.215114 128.484775 
L 28.677365 124.17358 
L 32.139616 119.862385 
" style="fill:none;stroke:#808080;stroke-linecap:square;stroke-width:1.5;"/>
   </g>
   <g id="line2d_5">
    <path clip-path="url(#p664713b301)" d="M 24.520771 128.115044 
L 25.36359 126.438857 
" style="fill:none;stroke:#808080;stroke-linecap:square;stroke-width:1.5;"/>
   </g>
   <g id="line2d_6">
    <path clip-path="url(#p664713b301)" d="M 51.916004 114.375704 
L 50.864301 114.392412 
L 49.812598 114.40912 
L 48.710675 114.890956 
L 47.608752 115.372792 
L 46.469346 115.92685 
L 45.32994 116.480908 
L 44.190534 117.034966 
L 43.051128 117.589023 
L 42.168644 118.035557 
L 41.286159 118.482091 
L 40.403675 118.928625 
L 39.52119 119.375159 
L 38.638705 119.821693 
L 37.756221 120.268227 
L 36.873736 120.714761 
L 35.991252 121.161295 
" style="fill:none;stroke:#4169e1;stroke-linecap:square;stroke-width:1.5;"/>
   </g>
   <g id="line2d_7">
    <path clip-path="url(#p664713b301)" d="M 53.530314 114.775617 
L 54.203186 115.76489 
L 54.876058 116.754164 
L 55.54893 117.743437 
L 56.221801 118.732711 
L 57.194172 119.8128 
L 58.198567 120.929539 
L 59.536304 121.912615 
L 60.874042 122.89569 
L 62.269277 123.821096 
L 63.664513 124.746502 
L 64.652895 125.55603 
L 65.641278 126.365558 
L 65.233698 128.158161 
L 64.826117 129.950764 
L 63.780236 131.338604 
L 62.734356 132.726443 
L 61.454844 133.882527 
L 60.175332 135.03861 
L 58.256793 135.385705 
L 56.338253 135.732799 
L 54.769068 135.790469 
L 53.199883 135.848138 
L 51.862146 135.848138 
L 50.524408 135.848138 
L 48.780546 135.848138 
L 47.036683 135.848138 
L 45.762994 135.704234 
L 44.489305 135.56033 
" style="fill:none;stroke:#008000;stroke-linecap:square;stroke-width:1.5;"/>
   </g>
   <g id="line2d_8">
    <path clip-path="url(#p664713b301)" d="M 57.860857 59.705074 
L 58.808118 60.220057 
L 59.755379 60.73504 
L 60.70264 61.250022 
L 61.6499 61.765005 
L 62.421028 62.389667 
L 63.192156 63.01433 
L 63.963284 63.638992 
L 64.734412 64.263655 
L 65.703871 65.052163 
L 66.67333 65.840671 
L 66.981927 66.914293 
L 67.290524 67.987915 
L 66.497197 69.67542 
L 65.703871 71.362925 
L 64.670727 72.565629 
L 63.637583 73.768333 
L 62.604439 74.971037 
L 61.571296 76.173742 
L 60.771783 76.98327 
L 59.97227 77.792798 
L 59.172757 78.602326 
L 58.373244 79.411854 
L 57.573731 80.221382 
L 56.774219 81.03091 
L 55.974706 81.840438 
L 55.175193 82.649966 
L 53.80907 83.835423 
L 52.442948 85.020881 
L 51.076825 86.206338 
L 49.710703 87.391795 
L 48.460668 88.866139 
L 47.210633 90.340482 
L 45.960598 91.814826 
L 44.710563 93.289169 
L 43.853189 94.171054 
L 42.995814 95.052938 
L 42.138439 95.934822 
L 41.281064 96.816707 
L 40.42369 97.698591 
L 39.566315 98.580475 
L 38.70894 99.462359 
L 37.851565 100.344244 
L 36.906852 101.818722 
L 35.962139 103.2932 
L 35.017425 104.767678 
L 34.072712 106.242157 
L 33.127998 107.716635 
L 32.183285 109.191113 
L 31.238572 110.665591 
L 30.293858 112.14007 
L 29.24725 113.730291 
L 28.200641 115.320512 
L 27.154033 116.910734 
L 26.107424 118.500955 
L 25.002954 119.975568 
L 23.898483 121.450181 
L 22.794013 122.924794 
L 21.689543 124.399407 
" style="fill:none;stroke:#4169e1;stroke-linecap:square;stroke-width:1.5;"/>
   </g>
   <g id="line2d_9">
    <path clip-path="url(#p664713b301)" d="M 57.194172 119.8128 
L 56.787319 120.891273 
L 56.380467 121.969745 
L 54.911721 122.664473 
L 53.442976 123.359201 
L 52.041918 123.358662 
L 50.64086 123.358123 
L 49.013449 123.58934 
L 47.386038 123.820557 
L 46.318323 124.540616 
L 45.250607 125.260676 
L 44.364848 126.619411 
L 43.479088 127.978146 
L 43.019104 129.160639 
L 42.337862 130.910125 
L 41.656621 132.659611 
" style="fill:none;stroke:#008000;stroke-linecap:square;stroke-width:1.5;"/>
   </g>
   <g id="line2d_10">
    <path clip-path="url(#p664713b301)" d="M 54.802548 54.700229 
L 54.447371 52.937808 
L 53.713726 51.151133 
L 52.980081 49.364458 
L 52.80322 47.828942 
L 52.626359 46.293426 
L 52.550302 45.27397 
L 52.474244 44.254515 
L 52.398187 43.235059 
L 52.322129 42.215604 
L 52.474244 40.378266 
L 52.626359 38.540928 
L 52.575411 36.879833 
L 52.524464 35.218738 
L 52.651105 33.96025 
L 52.777746 32.701763 
L 52.85344 31.669642 
L 52.929133 30.63752 
L 53.38475 28.876177 
L 54.017228 27.743269 
L 54.649705 26.610361 
L 54.80182 24.923934 
L 54.953935 23.237507 
L 54.68828 22.054745 
L 54.422625 20.871982 
L 54.156969 19.68922 
L 53.891314 18.506457 
L 53.372377 17.587519 
L 52.85344 16.668581 
L 52.334502 15.749642 
L 51.815565 14.830704 
L 50.373749 14.251854 
L 48.931933 13.673003 
L 47.332179 14.121963 
L 45.732426 14.570922 
L 44.984224 14.781119 
L 43.782226 15.51088 
L 42.580227 16.240641 
L 41.378229 16.970402 
L 40.17623 17.700163 
L 39.241706 18.607783 
L 38.049533 19.764405 
L 37.264941 21.224466 
L 36.480348 22.684527 
L 35.266341 23.087135 
L 34.052333 23.489743 
L 32.4322 24.571989 
L 30.812068 25.654234 
L 29.091496 26.106966 
L 27.396398 26.031511 
L 25.701299 25.956055 
L 24.132114 26.233084 
L 22.562929 26.510113 
L 21.145859 26.862597 
L 19.728789 27.215082 
L 18.615221 28.372782 
L 17.501653 29.530483 
L 16.717788 30.889757 
L 15.933923 32.249031 
L 14.693714 33.607766 
L 13.453505 34.966501 
L 11.909794 35.897836 
L 10.366083 36.82917 
L 9.101127 37.458683 
L 7.836172 38.088196 
L 6.380527 39.358541 
L 4.924883 40.628886 
L 4.89577 41.153839 
L 4.792419 43.028904 
L 4.689068 44.90397 
L 4.715998 46.549974 
L 4.742927 48.195979 
L 4.769857 49.841983 
L 4.796786 51.487987 
" style="fill:none;stroke:#4169e1;stroke-linecap:square;stroke-width:1.5;"/>
   </g>
   <g id="line2d_11">
    <path clip-path="url(#p664713b301)" d="M 52.199855 54.760593 
L 51.068455 53.596964 
L 49.937055 52.433335 
L 48.805656 51.269706 
L 47.674256 50.106077 
L 46.400203 49.226752 
L 45.12615 48.347428 
L 43.852097 47.468104 
L 42.578044 46.58878 
L 41.367675 45.753381 
L 40.157307 44.917983 
L 39.275004 44.278903 
L 38.392701 43.639823 
L 37.510399 43.000743 
L 36.628096 42.361664 
L 35.745793 41.722584 
L 34.863491 41.083504 
L 33.981188 40.444424 
L 33.098886 39.805344 
L 31.44964 39.194965 
L 29.800395 38.584585 
L 28.151149 37.974205 
L 26.501904 37.363825 
L 25.039709 37.339033 
L 23.577514 37.31424 
L 22.053454 37.28837 
L 20.48063 37.860213 
L 18.907806 38.432057 
L 17.757118 38.909043 
L 16.606431 39.386028 
L 15.455744 39.863014 
L 14.305057 40.339999 
L 13.499722 40.969513 
L 12.694386 41.599026 
L 11.889051 42.228539 
L 11.083715 42.858052 
L 10.354801 43.945417 
L 9.625887 45.032783 
L 8.896973 46.120148 
L 8.168059 47.207514 
L 7.502465 48.048571 
L 6.836872 48.889629 
L 6.171278 49.730686 
L 5.505685 50.571744 
L 4.796786 51.487987 
L 4.000548 52.517953 
L 3.204311 53.547918 
L 3.204311 55.188263 
L 3.204311 56.828609 
L 3.204311 58.468954 
L 3.204311 60.109299 
L 3.491982 61.101267 
L 3.779654 62.093236 
L 4.067326 63.085204 
L 4.354998 64.077172 
L 4.64267 65.069141 
L 4.930341 66.061109 
L 5.218013 67.053077 
L 5.505685 68.045045 
L 6.330308 69.647393 
L 7.15493 71.249742 
L 7.979553 72.85209 
L 8.804176 74.454438 
L 9.839503 76.07565 
L 10.87483 77.696862 
L 11.910158 79.318074 
L 12.945485 80.939286 
L 13.674399 82.198312 
L 14.403313 83.457338 
L 15.132227 84.716364 
L 15.861141 85.975391 
L 16.052922 87.520339 
L 16.244704 89.065287 
L 16.436485 90.610235 
L 16.628266 92.155183 
L 16.493983 93.376212 
L 16.3597 94.597241 
L 16.225416 95.818271 
L 16.091133 97.0393 
" style="fill:none;stroke:#008000;stroke-linecap:square;stroke-width:1.5;"/>
   </g>
   <g id="line2d_12">
    <path clip-path="url(#p664713b301)" d="M 49.121167 57.974991 
L 47.356197 57.555136 
L 45.591228 57.135281 
L 44.216372 55.948476 
L 42.841515 54.761671 
L 41.525613 53.625529 
L 40.356002 53.301341 
L 39.186392 52.977152 
L 38.016781 52.652964 
L 36.847171 52.328775 
L 35.40863 52.328775 
L 33.970089 52.328775 
L 32.531548 52.328775 
L 31.093007 52.328775 
L 29.290191 52.137981 
L 27.487375 51.947187 
L 26.624542 51.470201 
L 25.761709 50.993216 
L 24.898875 50.51623 
L 24.036042 50.039245 
L 22.866067 49.753323 
L 21.696093 49.467401 
L 20.526119 49.181479 
L 19.356144 48.895557 
L 18.129036 48.895557 
L 16.901927 48.895557 
L 15.674819 48.895557 
L 14.44771 48.895557 
L 13.329957 49.105081 
L 12.212204 49.314604 
L 11.094451 49.524127 
L 9.976698 49.733651 
L 8.858944 49.943174 
L 7.741191 50.152697 
L 6.623438 50.362221 
L 5.505685 50.571744 
" style="fill:none;stroke:#008000;stroke-linecap:square;stroke-width:1.5;"/>
   </g>
   <g id="line2d_13">
    <path clip-path="url(#p664713b301)" d="M 36.847171 52.328775 
L 36.542213 53.323708 
L 36.237256 54.318641 
L 35.932298 55.313573 
L 35.62734 56.308506 
L 35.994891 58.16848 
L 36.362441 60.028454 
L 36.529112 60.991588 
L 36.695784 61.954721 
L 36.862455 62.917855 
L 37.029126 63.880988 
L 36.745639 64.976977 
L 36.462153 66.072966 
L 36.178666 67.168955 
L 35.895179 68.264944 
L 34.459186 69.526665 
L 33.023192 70.788386 
L 32.722601 71.867936 
L 32.422011 72.947487 
L 32.12142 74.027037 
L 31.82083 75.106588 
L 31.737494 76.285577 
L 31.654158 77.464567 
L 31.570823 78.643557 
L 31.487487 79.822546 
L 31.220376 81.566104 
L 30.953265 83.309661 
L 30.686155 85.053219 
L 30.419044 86.796776 
L 29.96088 88.451943 
L 29.502715 90.10711 
L 29.044551 91.762276 
L 28.586387 93.417443 
L 27.563797 94.65801 
L 26.541206 95.898577 
L 25.518616 97.139143 
L 24.496025 98.37971 
L 23.473435 99.620277 
L 22.450845 100.860843 
L 21.428254 102.10141 
L 20.405664 103.341977 
L 19.859069 104.444433 
L 19.312475 105.54689 
L 18.76588 106.649346 
L 18.219286 107.751803 
L 17.672691 108.854259 
L 17.126096 109.956715 
L 16.579502 111.059172 
L 16.032907 112.161628 
" style="fill:none;stroke:#4169e1;stroke-linecap:square;stroke-width:1.5;"/>
   </g>
   <g id="line2d_14">
    <path clip-path="url(#p664713b301)" d="M 27.487375 51.947187 
L 25.910912 52.956133 
L 24.334449 53.965078 
L 23.448689 54.9972 
L 22.562929 56.029321 
L 22.183734 57.086235 
L 21.804538 58.143149 
L 22.309647 59.90557 
L 23.119713 60.937691 
L 23.92978 61.969812 
L 24.891233 63.202968 
L 25.852686 64.436124 
L 26.333777 65.870854 
L 26.814867 67.305583 
L 27.029939 68.337435 
L 27.24501 69.369287 
L 27.460082 70.401138 
L 27.675153 71.43299 
L 27.598732 73.371115 
L 27.522311 75.309239 
L 26.826513 76.504667 
L 26.130714 77.700095 
L 25.434916 78.895524 
L 24.739118 80.090952 
L 24.207808 81.261588 
L 23.676498 82.432223 
L 23.145187 83.602859 
L 22.613877 84.773495 
L 22.234318 86.119834 
L 21.854758 87.466173 
L 21.475199 88.812512 
L 21.095639 90.15885 
L 20.99611 91.162541 
L 20.89658 92.166232 
L 20.79705 93.169923 
L 20.697521 94.173614 
L 20.597991 95.177304 
L 20.498461 96.180995 
L 20.398932 97.184686 
L 20.299402 98.188377 
L 19.485333 99.4854 
L 18.671263 100.782424 
L 17.857194 102.079447 
L 17.043125 103.376471 
" style="fill:none;stroke:#4169e1;stroke-linecap:square;stroke-width:1.5;"/>
   </g>
   <g id="line2d_15">
    <path clip-path="url(#p664713b301)" d="M 16.091133 97.0393 
L 16.329131 98.623592 
L 16.567129 100.207885 
L 16.805127 101.792178 
L 17.043125 103.376471 
L 17.094072 103.711708 
L 16.847704 105.491376 
L 16.601337 107.271044 
L 16.354969 109.050712 
L 16.108601 110.830381 
L 16.032907 112.161628 
L 15.968859 113.306663 
L 15.904811 114.451698 
L 15.840762 115.596733 
L 15.776714 116.741768 
L 15.712665 117.886802 
L 15.648617 119.031837 
L 15.584569 120.176872 
L 15.52052 121.321907 
" style="fill:none;stroke:#4169e1;stroke-linecap:square;stroke-width:1.5;"/>
   </g>
   <g id="line2d_16">
    <path clip-path="url(#p664713b301)" d="M 43.019104 129.160639 
L 41.224294 129.55139 
L 39.429484 129.942141 
L 37.962194 129.665112 
L 36.494905 129.388083 
L 34.874772 128.78444 
L 33.707345 128.62814 
L 32.539918 128.47184 
L 31.527153 128.297484 
L 30.514388 128.123128 
L 29.501624 127.948772 
L 28.488859 127.774417 
" style="fill:none;stroke:#008000;stroke-linecap:square;stroke-width:1.5;"/>
   </g>
   <g id="line2d_17">
    <path clip-path="url(#p664713b301)" d="M 35.991252 121.161295 
L 35.053452 121.987935 
L 34.115653 122.814575 
L 33.177854 123.641216 
L 32.240055 124.467856 
L 31.302256 125.294496 
L 30.364457 126.121136 
L 29.426658 126.947776 
L 28.488859 127.774417 
L 27.055049 129.038833 
" style="fill:none;stroke:#008000;stroke-linecap:square;stroke-width:1.5;"/>
   </g>
   <g id="line2d_18">
    <path clip-path="url(#p664713b301)" d="M 54.170798 60.048935 
L 53.563248 60.89417 
L 52.955699 61.739404 
L 52.348149 62.584639 
L 51.740599 63.429873 
L 51.13305 64.275108 
L 50.5255 65.120342 
L 49.91795 65.965577 
L 49.3104 66.810812 
L 48.835496 67.710347 
L 48.360592 68.609883 
L 47.885688 69.509418 
L 47.410784 70.408953 
L 46.93588 71.308489 
L 46.460976 72.208024 
L 45.986072 73.10756 
L 45.511168 74.007095 
L 44.850669 75.111169 
L 44.19017 76.215242 
L 43.529671 77.319315 
L 42.869173 78.423389 
L 42.208674 79.527462 
L 41.548175 80.631536 
L 40.887676 81.735609 
L 40.227178 82.839682 
L 39.689863 83.693001 
L 39.152548 84.54632 
L 38.615233 85.399639 
L 38.077918 86.252959 
L 37.540603 87.106278 
L 37.003289 87.959597 
L 36.465974 88.812916 
L 35.928659 89.666235 
L 35.010875 90.135136 
L 34.093091 90.604037 
L 33.175307 91.072938 
L 32.257523 91.541839 
L 31.339739 92.01074 
L 30.421955 92.479641 
L 29.504171 92.948542 
L 28.586387 93.417443 
" style="fill:none;stroke:#000000;stroke-linecap:square;stroke-width:1.5;"/>
   </g>
   <g id="line2d_19">
    <path clip-path="url(#p664713b301)" d="M 42.841515 54.761671 
L 42.917209 53.762966 
L 42.992903 52.764261 
L 42.889188 51.22039 
L 42.785473 49.67652 
L 42.681758 48.13265 
L 42.578044 46.58878 
L 42.55075 45.255915 
L 42.523457 43.92305 
L 42.496164 42.590186 
L 42.46887 41.257321 
L 42.919392 39.883764 
L 43.369914 38.510207 
L 43.820437 37.136651 
L 44.270959 35.763094 
L 44.052976 34.216259 
L 43.834993 32.669425 
L 43.61701 31.12259 
L 43.399027 29.575756 
L 43.602818 28.564115 
L 43.806608 27.552475 
L 44.286243 26.338183 
L 44.765878 25.123891 
L 45.245513 23.909599 
L 45.725148 22.695307 
L 46.204783 21.481014 
L 46.684417 20.266722 
L 47.164052 19.05243 
L 47.643687 17.838138 
L 47.643687 17.548174 
L 47.792163 15.770662 
L 46.762294 15.170792 
L 45.732426 14.570922 
" style="fill:none;stroke:#008000;stroke-linecap:square;stroke-width:1.5;"/>
   </g>
   <g id="text_1">
    <g id="patch_2">
     <path d="M 22.716383 120.108132 
L 27.637448 109.180718 
L 25.836063 108.36948 
L 20.914999 119.296894 
z
" style="fill:#ffffff;"/>
    </g>
    <!-- Triple Barrel -->
    <g style="fill:#808080;" transform="translate(22.327106 119.91089)rotate(-65.756001)scale(0.02 -0.02)">
     <defs>
      <path d="M -19 4666 
L 3928 4666 
L 3928 4134 
L 2272 4134 
L 2272 0 
L 1638 0 
L 1638 4134 
L -19 4134 
L -19 4666 
z
" id="DejaVuSans-54" transform="scale(0.015625)"/>
      <path d="M 2631 2963 
Q 2534 3019 2420 3045 
Q 2306 3072 2169 3072 
Q 1681 3072 1420 2755 
Q 1159 2438 1159 1844 
L 1159 0 
L 581 0 
L 581 3500 
L 1159 3500 
L 1159 2956 
Q 1341 3275 1631 3429 
Q 1922 3584 2338 3584 
Q 2397 3584 2469 3576 
Q 2541 3569 2628 3553 
L 2631 2963 
z
" id="DejaVuSans-72" transform="scale(0.015625)"/>
      <path d="M 603 3500 
L 1178 3500 
L 1178 0 
L 603 0 
L 603 3500 
z
M 603 4863 
L 1178 4863 
L 1178 4134 
L 603 4134 
L 603 4863 
z
" id="DejaVuSans-69" transform="scale(0.015625)"/>
      <path d="M 1159 525 
L 1159 -1331 
L 581 -1331 
L 581 3500 
L 1159 3500 
L 1159 2969 
Q 1341 3281 1617 3432 
Q 1894 3584 2278 3584 
Q 2916 3584 3314 3078 
Q 3713 2572 3713 1747 
Q 3713 922 3314 415 
Q 2916 -91 2278 -91 
Q 1894 -91 1617 61 
Q 1341 213 1159 525 
z
M 3116 1747 
Q 3116 2381 2855 2742 
Q 2594 3103 2138 3103 
Q 1681 3103 1420 2742 
Q 1159 2381 1159 1747 
Q 1159 1113 1420 752 
Q 1681 391 2138 391 
Q 2594 391 2855 752 
Q 3116 1113 3116 1747 
z
" id="DejaVuSans-70" transform="scale(0.015625)"/>
      <path d="M 603 4863 
L 1178 4863 
L 1178 0 
L 603 0 
L 603 4863 
z
" id="DejaVuSans-6c" transform="scale(0.015625)"/>
      <path d="M 3597 1894 
L 3597 1613 
L 953 1613 
Q 991 1019 1311 708 
Q 1631 397 2203 397 
Q 2534 397 2845 478 
Q 3156 559 3463 722 
L 3463 178 
Q 3153 47 2828 -22 
Q 2503 -91 2169 -91 
Q 1331 -91 842 396 
Q 353 884 353 1716 
Q 353 2575 817 3079 
Q 1281 3584 2069 3584 
Q 2775 3584 3186 3129 
Q 3597 2675 3597 1894 
z
M 3022 2063 
Q 3016 2534 2758 2815 
Q 2500 3097 2075 3097 
Q 1594 3097 1305 2825 
Q 1016 2553 972 2059 
L 3022 2063 
z
" id="DejaVuSans-65" transform="scale(0.015625)"/>
      <path id="DejaVuSans-20" transform="scale(0.015625)"/>
      <path d="M 1259 2228 
L 1259 519 
L 2272 519 
Q 2781 519 3026 730 
Q 3272 941 3272 1375 
Q 3272 1813 3026 2020 
Q 2781 2228 2272 2228 
L 1259 2228 
z
M 1259 4147 
L 1259 2741 
L 2194 2741 
Q 2656 2741 2882 2914 
Q 3109 3088 3109 3444 
Q 3109 3797 2882 3972 
Q 2656 4147 2194 4147 
L 1259 4147 
z
M 628 4666 
L 2241 4666 
Q 2963 4666 3353 4366 
Q 3744 4066 3744 3513 
Q 3744 3084 3544 2831 
Q 3344 2578 2956 2516 
Q 3422 2416 3680 2098 
Q 3938 1781 3938 1306 
Q 3938 681 3513 340 
Q 3088 0 2303 0 
L 628 0 
L 628 4666 
z
" id="DejaVuSans-42" transform="scale(0.015625)"/>
      <path d="M 2194 1759 
Q 1497 1759 1228 1600 
Q 959 1441 959 1056 
Q 959 750 1161 570 
Q 1363 391 1709 391 
Q 2188 391 2477 730 
Q 2766 1069 2766 1631 
L 2766 1759 
L 2194 1759 
z
M 3341 1997 
L 3341 0 
L 2766 0 
L 2766 531 
Q 2569 213 2275 61 
Q 1981 -91 1556 -91 
Q 1019 -91 701 211 
Q 384 513 384 1019 
Q 384 1609 779 1909 
Q 1175 2209 1959 2209 
L 2766 2209 
L 2766 2266 
Q 2766 2663 2505 2880 
Q 2244 3097 1772 3097 
Q 1472 3097 1187 3025 
Q 903 2953 641 2809 
L 641 3341 
Q 956 3463 1253 3523 
Q 1550 3584 1831 3584 
Q 2591 3584 2966 3190 
Q 3341 2797 3341 1997 
z
" id="DejaVuSans-61" transform="scale(0.015625)"/>
     </defs>
     <use xlink:href="#DejaVuSans-54"/>
     <use x="46.333984" xlink:href="#DejaVuSans-72"/>
     <use x="87.447266" xlink:href="#DejaVuSans-69"/>
     <use x="115.230469" xlink:href="#DejaVuSans-70"/>
     <use x="178.707031" xlink:href="#DejaVuSans-6c"/>
     <use x="206.490234" xlink:href="#DejaVuSans-65"/>
     <use x="268.013672" xlink:href="#DejaVuSans-20"/>
     <use x="299.800781" xlink:href="#DejaVuSans-42"/>
     <use x="368.404297" xlink:href="#DejaVuSans-61"/>
     <use x="429.683594" xlink:href="#DejaVuSans-72"/>
     <use x="469.046875" xlink:href="#DejaVuSans-72"/>
     <use x="507.910156" xlink:href="#DejaVuSans-65"/>
     <use x="569.433594" xlink:href="#DejaVuSans-6c"/>
    </g>
   </g>
   <g id="text_2">
    <g id="patch_3">
     <path d="M 18.975689 113.1225 
L 25.833681 98.707948 
L 24.049675 97.859174 
L 17.191683 112.273726 
z
" style="fill:#ffffff;"/>
    </g>
    <!-- Exhibition Triple -->
    <g style="fill:#808080;" transform="translate(18.590626 112.917151)rotate(-64.556361)scale(0.02 -0.02)">
     <defs>
      <path d="M 628 4666 
L 3578 4666 
L 3578 4134 
L 1259 4134 
L 1259 2753 
L 3481 2753 
L 3481 2222 
L 1259 2222 
L 1259 531 
L 3634 531 
L 3634 0 
L 628 0 
L 628 4666 
z
" id="DejaVuSans-45" transform="scale(0.015625)"/>
      <path d="M 3513 3500 
L 2247 1797 
L 3578 0 
L 2900 0 
L 1881 1375 
L 863 0 
L 184 0 
L 1544 1831 
L 300 3500 
L 978 3500 
L 1906 2253 
L 2834 3500 
L 3513 3500 
z
" id="DejaVuSans-78" transform="scale(0.015625)"/>
      <path d="M 3513 2113 
L 3513 0 
L 2938 0 
L 2938 2094 
Q 2938 2591 2744 2837 
Q 2550 3084 2163 3084 
Q 1697 3084 1428 2787 
Q 1159 2491 1159 1978 
L 1159 0 
L 581 0 
L 581 4863 
L 1159 4863 
L 1159 2956 
Q 1366 3272 1645 3428 
Q 1925 3584 2291 3584 
Q 2894 3584 3203 3211 
Q 3513 2838 3513 2113 
z
" id="DejaVuSans-68" transform="scale(0.015625)"/>
      <path d="M 3116 1747 
Q 3116 2381 2855 2742 
Q 2594 3103 2138 3103 
Q 1681 3103 1420 2742 
Q 1159 2381 1159 1747 
Q 1159 1113 1420 752 
Q 1681 391 2138 391 
Q 2594 391 2855 752 
Q 3116 1113 3116 1747 
z
M 1159 2969 
Q 1341 3281 1617 3432 
Q 1894 3584 2278 3584 
Q 2916 3584 3314 3078 
Q 3713 2572 3713 1747 
Q 3713 922 3314 415 
Q 2916 -91 2278 -91 
Q 1894 -91 1617 61 
Q 1341 213 1159 525 
L 1159 0 
L 581 0 
L 581 4863 
L 1159 4863 
L 1159 2969 
z
" id="DejaVuSans-62" transform="scale(0.015625)"/>
      <path d="M 1172 4494 
L 1172 3500 
L 2356 3500 
L 2356 3053 
L 1172 3053 
L 1172 1153 
Q 1172 725 1289 603 
Q 1406 481 1766 481 
L 2356 481 
L 2356 0 
L 1766 0 
Q 1100 0 847 248 
Q 594 497 594 1153 
L 594 3053 
L 172 3053 
L 172 3500 
L 594 3500 
L 594 4494 
L 1172 4494 
z
" id="DejaVuSans-74" transform="scale(0.015625)"/>
      <path d="M 1959 3097 
Q 1497 3097 1228 2736 
Q 959 2375 959 1747 
Q 959 1119 1226 758 
Q 1494 397 1959 397 
Q 2419 397 2687 759 
Q 2956 1122 2956 1747 
Q 2956 2369 2687 2733 
Q 2419 3097 1959 3097 
z
M 1959 3584 
Q 2709 3584 3137 3096 
Q 3566 2609 3566 1747 
Q 3566 888 3137 398 
Q 2709 -91 1959 -91 
Q 1206 -91 779 398 
Q 353 888 353 1747 
Q 353 2609 779 3096 
Q 1206 3584 1959 3584 
z
" id="DejaVuSans-6f" transform="scale(0.015625)"/>
      <path d="M 3513 2113 
L 3513 0 
L 2938 0 
L 2938 2094 
Q 2938 2591 2744 2837 
Q 2550 3084 2163 3084 
Q 1697 3084 1428 2787 
Q 1159 2491 1159 1978 
L 1159 0 
L 581 0 
L 581 3500 
L 1159 3500 
L 1159 2956 
Q 1366 3272 1645 3428 
Q 1925 3584 2291 3584 
Q 2894 3584 3203 3211 
Q 3513 2838 3513 2113 
z
" id="DejaVuSans-6e" transform="scale(0.015625)"/>
     </defs>
     <use xlink:href="#DejaVuSans-45"/>
     <use x="63.183594" xlink:href="#DejaVuSans-78"/>
     <use x="122.363281" xlink:href="#DejaVuSans-68"/>
     <use x="185.742188" xlink:href="#DejaVuSans-69"/>
     <use x="213.525391" xlink:href="#DejaVuSans-62"/>
     <use x="277.001953" xlink:href="#DejaVuSans-69"/>
     <use x="304.785156" xlink:href="#DejaVuSans-74"/>
     <use x="343.994141" xlink:href="#DejaVuSans-69"/>
     <use x="371.777344" xlink:href="#DejaVuSans-6f"/>
     <use x="432.958984" xlink:href="#DejaVuSans-6e"/>
     <use x="496.337891" xlink:href="#DejaVuSans-20"/>
     <use x="528.125" xlink:href="#DejaVuSans-54"/>
     <use x="574.458984" xlink:href="#DejaVuSans-72"/>
     <use x="615.572266" xlink:href="#DejaVuSans-69"/>
     <use x="643.355469" xlink:href="#DejaVuSans-70"/>
     <use x="706.832031" xlink:href="#DejaVuSans-6c"/>
     <use x="734.615234" xlink:href="#DejaVuSans-65"/>
    </g>
   </g>
   <g id="text_3">
    <g id="patch_4">
     <path d="M 56.152903 141.504868 
L 65.725763 129.824672 
L 64.197762 128.572352 
L 54.624902 140.252548 
z
" style="fill:#ffffff;"/>
    </g>
    <!-- Big Bend 10.2° -->
    <g style="fill:#008000;" transform="translate(55.828415 141.213065)rotate(-50.662625)scale(0.02 -0.02)">
     <defs>
      <path d="M 2906 1791 
Q 2906 2416 2648 2759 
Q 2391 3103 1925 3103 
Q 1463 3103 1205 2759 
Q 947 2416 947 1791 
Q 947 1169 1205 825 
Q 1463 481 1925 481 
Q 2391 481 2648 825 
Q 2906 1169 2906 1791 
z
M 3481 434 
Q 3481 -459 3084 -895 
Q 2688 -1331 1869 -1331 
Q 1566 -1331 1297 -1286 
Q 1028 -1241 775 -1147 
L 775 -588 
Q 1028 -725 1275 -790 
Q 1522 -856 1778 -856 
Q 2344 -856 2625 -561 
Q 2906 -266 2906 331 
L 2906 616 
Q 2728 306 2450 153 
Q 2172 0 1784 0 
Q 1141 0 747 490 
Q 353 981 353 1791 
Q 353 2603 747 3093 
Q 1141 3584 1784 3584 
Q 2172 3584 2450 3431 
Q 2728 3278 2906 2969 
L 2906 3500 
L 3481 3500 
L 3481 434 
z
" id="DejaVuSans-67" transform="scale(0.015625)"/>
      <path d="M 2906 2969 
L 2906 4863 
L 3481 4863 
L 3481 0 
L 2906 0 
L 2906 525 
Q 2725 213 2448 61 
Q 2172 -91 1784 -91 
Q 1150 -91 751 415 
Q 353 922 353 1747 
Q 353 2572 751 3078 
Q 1150 3584 1784 3584 
Q 2172 3584 2448 3432 
Q 2725 3281 2906 2969 
z
M 947 1747 
Q 947 1113 1208 752 
Q 1469 391 1925 391 
Q 2381 391 2643 752 
Q 2906 1113 2906 1747 
Q 2906 2381 2643 2742 
Q 2381 3103 1925 3103 
Q 1469 3103 1208 2742 
Q 947 2381 947 1747 
z
" id="DejaVuSans-64" transform="scale(0.015625)"/>
      <path d="M 794 531 
L 1825 531 
L 1825 4091 
L 703 3866 
L 703 4441 
L 1819 4666 
L 2450 4666 
L 2450 531 
L 3481 531 
L 3481 0 
L 794 0 
L 794 531 
z
" id="DejaVuSans-31" transform="scale(0.015625)"/>
      <path d="M 2034 4250 
Q 1547 4250 1301 3770 
Q 1056 3291 1056 2328 
Q 1056 1369 1301 889 
Q 1547 409 2034 409 
Q 2525 409 2770 889 
Q 3016 1369 3016 2328 
Q 3016 3291 2770 3770 
Q 2525 4250 2034 4250 
z
M 2034 4750 
Q 2819 4750 3233 4129 
Q 3647 3509 3647 2328 
Q 3647 1150 3233 529 
Q 2819 -91 2034 -91 
Q 1250 -91 836 529 
Q 422 1150 422 2328 
Q 422 3509 836 4129 
Q 1250 4750 2034 4750 
z
" id="DejaVuSans-30" transform="scale(0.015625)"/>
      <path d="M 684 794 
L 1344 794 
L 1344 0 
L 684 0 
L 684 794 
z
" id="DejaVuSans-2e" transform="scale(0.015625)"/>
      <path d="M 1228 531 
L 3431 531 
L 3431 0 
L 469 0 
L 469 531 
Q 828 903 1448 1529 
Q 2069 2156 2228 2338 
Q 2531 2678 2651 2914 
Q 2772 3150 2772 3378 
Q 2772 3750 2511 3984 
Q 2250 4219 1831 4219 
Q 1534 4219 1204 4116 
Q 875 4013 500 3803 
L 500 4441 
Q 881 4594 1212 4672 
Q 1544 4750 1819 4750 
Q 2544 4750 2975 4387 
Q 3406 4025 3406 3419 
Q 3406 3131 3298 2873 
Q 3191 2616 2906 2266 
Q 2828 2175 2409 1742 
Q 1991 1309 1228 531 
z
" id="DejaVuSans-32" transform="scale(0.015625)"/>
      <path d="M 1600 4347 
Q 1350 4347 1178 4173 
Q 1006 4000 1006 3750 
Q 1006 3503 1178 3333 
Q 1350 3163 1600 3163 
Q 1850 3163 2022 3333 
Q 2194 3503 2194 3750 
Q 2194 3997 2020 4172 
Q 1847 4347 1600 4347 
z
M 1600 4750 
Q 1800 4750 1984 4673 
Q 2169 4597 2303 4453 
Q 2447 4313 2519 4134 
Q 2591 3956 2591 3750 
Q 2591 3338 2302 3052 
Q 2013 2766 1594 2766 
Q 1172 2766 890 3047 
Q 609 3328 609 3750 
Q 609 4169 896 4459 
Q 1184 4750 1600 4750 
z
" id="DejaVuSans-b0" transform="scale(0.015625)"/>
     </defs>
     <use xlink:href="#DejaVuSans-42"/>
     <use x="68.603516" xlink:href="#DejaVuSans-69"/>
     <use x="96.386719" xlink:href="#DejaVuSans-67"/>
     <use x="159.863281" xlink:href="#DejaVuSans-20"/>
     <use x="191.650391" xlink:href="#DejaVuSans-42"/>
     <use x="260.253906" xlink:href="#DejaVuSans-65"/>
     <use x="321.777344" xlink:href="#DejaVuSans-6e"/>
     <use x="385.15625" xlink:href="#DejaVuSans-64"/>
     <use x="448.632812" xlink:href="#DejaVuSans-20"/>
     <use x="480.419922" xlink:href="#DejaVuSans-31"/>
     <use x="544.042969" xlink:href="#DejaVuSans-30"/>
     <use x="607.666016" xlink:href="#DejaVuSans-2e"/>
     <use x="639.453125" xlink:href="#DejaVuSans-32"/>
     <use x="703.076172" xlink:href="#DejaVuSans-b0"/>
    </g>
   </g>
   <g id="text_4">
    <g id="patch_5">
     <path d="M 55.229948 85.666737 
L 64.710221 72.704178 
L 63.115567 71.537914 
L 53.635293 84.500473 
z
" style="fill:#ffffff;"/>
    </g>
    <!-- Gunbarrel 23.0° -->
    <g style="fill:#4169e1;" transform="translate(54.889881 85.393248)rotate(-53.819823)scale(0.02 -0.02)">
     <defs>
      <path d="M 3809 666 
L 3809 1919 
L 2778 1919 
L 2778 2438 
L 4434 2438 
L 4434 434 
Q 4069 175 3628 42 
Q 3188 -91 2688 -91 
Q 1594 -91 976 548 
Q 359 1188 359 2328 
Q 359 3472 976 4111 
Q 1594 4750 2688 4750 
Q 3144 4750 3555 4637 
Q 3966 4525 4313 4306 
L 4313 3634 
Q 3963 3931 3569 4081 
Q 3175 4231 2741 4231 
Q 1884 4231 1454 3753 
Q 1025 3275 1025 2328 
Q 1025 1384 1454 906 
Q 1884 428 2741 428 
Q 3075 428 3337 486 
Q 3600 544 3809 666 
z
" id="DejaVuSans-47" transform="scale(0.015625)"/>
      <path d="M 544 1381 
L 544 3500 
L 1119 3500 
L 1119 1403 
Q 1119 906 1312 657 
Q 1506 409 1894 409 
Q 2359 409 2629 706 
Q 2900 1003 2900 1516 
L 2900 3500 
L 3475 3500 
L 3475 0 
L 2900 0 
L 2900 538 
Q 2691 219 2414 64 
Q 2138 -91 1772 -91 
Q 1169 -91 856 284 
Q 544 659 544 1381 
z
M 1991 3584 
L 1991 3584 
z
" id="DejaVuSans-75" transform="scale(0.015625)"/>
      <path d="M 2597 2516 
Q 3050 2419 3304 2112 
Q 3559 1806 3559 1356 
Q 3559 666 3084 287 
Q 2609 -91 1734 -91 
Q 1441 -91 1130 -33 
Q 819 25 488 141 
L 488 750 
Q 750 597 1062 519 
Q 1375 441 1716 441 
Q 2309 441 2620 675 
Q 2931 909 2931 1356 
Q 2931 1769 2642 2001 
Q 2353 2234 1838 2234 
L 1294 2234 
L 1294 2753 
L 1863 2753 
Q 2328 2753 2575 2939 
Q 2822 3125 2822 3475 
Q 2822 3834 2567 4026 
Q 2313 4219 1838 4219 
Q 1578 4219 1281 4162 
Q 984 4106 628 3988 
L 628 4550 
Q 988 4650 1302 4700 
Q 1616 4750 1894 4750 
Q 2613 4750 3031 4423 
Q 3450 4097 3450 3541 
Q 3450 3153 3228 2886 
Q 3006 2619 2597 2516 
z
" id="DejaVuSans-33" transform="scale(0.015625)"/>
     </defs>
     <use xlink:href="#DejaVuSans-47"/>
     <use x="77.490234" xlink:href="#DejaVuSans-75"/>
     <use x="140.869141" xlink:href="#DejaVuSans-6e"/>
     <use x="204.248047" xlink:href="#DejaVuSans-62"/>
     <use x="267.724609" xlink:href="#DejaVuSans-61"/>
     <use x="329.003906" xlink:href="#DejaVuSans-72"/>
     <use x="368.367188" xlink:href="#DejaVuSans-72"/>
     <use x="407.230469" xlink:href="#DejaVuSans-65"/>
     <use x="468.753906" xlink:href="#DejaVuSans-6c"/>
     <use x="496.537109" xlink:href="#DejaVuSans-20"/>
     <use x="528.324219" xlink:href="#DejaVuSans-32"/>
     <use x="591.947266" xlink:href="#DejaVuSans-33"/>
     <use x="655.570312" xlink:href="#DejaVuSans-2e"/>
     <use x="687.357422" xlink:href="#DejaVuSans-30"/>
     <use x="750.980469" xlink:href="#DejaVuSans-b0"/>
    </g>
   </g>
   <g id="text_5">
    <g id="patch_6">
     <path d="M 53.081362 47.261834 
L 54.143278 29.940918 
L 52.171356 29.820023 
L 51.10944 47.140939 
z
" style="fill:#ffffff;"/>
    </g>
    <!-- Tom's Treat 18.7° -->
    <g style="fill:#4169e1;" transform="translate(52.647466 47.215195)rotate(-86.491684)scale(0.02 -0.02)">
     <defs>
      <path d="M 3328 2828 
Q 3544 3216 3844 3400 
Q 4144 3584 4550 3584 
Q 5097 3584 5394 3201 
Q 5691 2819 5691 2113 
L 5691 0 
L 5113 0 
L 5113 2094 
Q 5113 2597 4934 2840 
Q 4756 3084 4391 3084 
Q 3944 3084 3684 2787 
Q 3425 2491 3425 1978 
L 3425 0 
L 2847 0 
L 2847 2094 
Q 2847 2600 2669 2842 
Q 2491 3084 2119 3084 
Q 1678 3084 1418 2786 
Q 1159 2488 1159 1978 
L 1159 0 
L 581 0 
L 581 3500 
L 1159 3500 
L 1159 2956 
Q 1356 3278 1631 3431 
Q 1906 3584 2284 3584 
Q 2666 3584 2933 3390 
Q 3200 3197 3328 2828 
z
" id="DejaVuSans-6d" transform="scale(0.015625)"/>
      <path d="M 1147 4666 
L 1147 2931 
L 616 2931 
L 616 4666 
L 1147 4666 
z
" id="DejaVuSans-27" transform="scale(0.015625)"/>
      <path d="M 2834 3397 
L 2834 2853 
Q 2591 2978 2328 3040 
Q 2066 3103 1784 3103 
Q 1356 3103 1142 2972 
Q 928 2841 928 2578 
Q 928 2378 1081 2264 
Q 1234 2150 1697 2047 
L 1894 2003 
Q 2506 1872 2764 1633 
Q 3022 1394 3022 966 
Q 3022 478 2636 193 
Q 2250 -91 1575 -91 
Q 1294 -91 989 -36 
Q 684 19 347 128 
L 347 722 
Q 666 556 975 473 
Q 1284 391 1588 391 
Q 1994 391 2212 530 
Q 2431 669 2431 922 
Q 2431 1156 2273 1281 
Q 2116 1406 1581 1522 
L 1381 1569 
Q 847 1681 609 1914 
Q 372 2147 372 2553 
Q 372 3047 722 3315 
Q 1072 3584 1716 3584 
Q 2034 3584 2315 3537 
Q 2597 3491 2834 3397 
z
" id="DejaVuSans-73" transform="scale(0.015625)"/>
      <path d="M 2034 2216 
Q 1584 2216 1326 1975 
Q 1069 1734 1069 1313 
Q 1069 891 1326 650 
Q 1584 409 2034 409 
Q 2484 409 2743 651 
Q 3003 894 3003 1313 
Q 3003 1734 2745 1975 
Q 2488 2216 2034 2216 
z
M 1403 2484 
Q 997 2584 770 2862 
Q 544 3141 544 3541 
Q 544 4100 942 4425 
Q 1341 4750 2034 4750 
Q 2731 4750 3128 4425 
Q 3525 4100 3525 3541 
Q 3525 3141 3298 2862 
Q 3072 2584 2669 2484 
Q 3125 2378 3379 2068 
Q 3634 1759 3634 1313 
Q 3634 634 3220 271 
Q 2806 -91 2034 -91 
Q 1263 -91 848 271 
Q 434 634 434 1313 
Q 434 1759 690 2068 
Q 947 2378 1403 2484 
z
M 1172 3481 
Q 1172 3119 1398 2916 
Q 1625 2713 2034 2713 
Q 2441 2713 2670 2916 
Q 2900 3119 2900 3481 
Q 2900 3844 2670 4047 
Q 2441 4250 2034 4250 
Q 1625 4250 1398 4047 
Q 1172 3844 1172 3481 
z
" id="DejaVuSans-38" transform="scale(0.015625)"/>
      <path d="M 525 4666 
L 3525 4666 
L 3525 4397 
L 1831 0 
L 1172 0 
L 2766 4134 
L 525 4134 
L 525 4666 
z
" id="DejaVuSans-37" transform="scale(0.015625)"/>
     </defs>
     <use xlink:href="#DejaVuSans-54"/>
     <use x="44.083984" xlink:href="#DejaVuSans-6f"/>
     <use x="105.265625" xlink:href="#DejaVuSans-6d"/>
     <use x="202.677734" xlink:href="#DejaVuSans-27"/>
     <use x="230.167969" xlink:href="#DejaVuSans-73"/>
     <use x="282.267578" xlink:href="#DejaVuSans-20"/>
     <use x="314.054688" xlink:href="#DejaVuSans-54"/>
     <use x="360.388672" xlink:href="#DejaVuSans-72"/>
     <use x="399.251953" xlink:href="#DejaVuSans-65"/>
     <use x="460.775391" xlink:href="#DejaVuSans-61"/>
     <use x="522.054688" xlink:href="#DejaVuSans-74"/>
     <use x="561.263672" xlink:href="#DejaVuSans-20"/>
     <use x="593.050781" xlink:href="#DejaVuSans-31"/>
     <use x="656.673828" xlink:href="#DejaVuSans-38"/>
     <use x="720.296875" xlink:href="#DejaVuSans-2e"/>
     <use x="752.083984" xlink:href="#DejaVuSans-37"/>
     <use x="815.707031" xlink:href="#DejaVuSans-b0"/>
    </g>
   </g>
   <g id="text_6">
    <g id="patch_7">
     <path d="M 31.209547 37.995487 
L 44.1944 50.696488 
L 45.575855 49.284159 
L 32.591003 36.583158 
z
" style="fill:#ffffff;"/>
    </g>
    <!-- Canyon Run 16.0° -->
    <g style="fill:#008000;" transform="translate(31.528674 37.697831)rotate(-315.633143)scale(0.02 -0.02)">
     <defs>
      <path d="M 4122 4306 
L 4122 3641 
Q 3803 3938 3442 4084 
Q 3081 4231 2675 4231 
Q 1875 4231 1450 3742 
Q 1025 3253 1025 2328 
Q 1025 1406 1450 917 
Q 1875 428 2675 428 
Q 3081 428 3442 575 
Q 3803 722 4122 1019 
L 4122 359 
Q 3791 134 3420 21 
Q 3050 -91 2638 -91 
Q 1578 -91 968 557 
Q 359 1206 359 2328 
Q 359 3453 968 4101 
Q 1578 4750 2638 4750 
Q 3056 4750 3426 4639 
Q 3797 4528 4122 4306 
z
" id="DejaVuSans-43" transform="scale(0.015625)"/>
      <path d="M 2059 -325 
Q 1816 -950 1584 -1140 
Q 1353 -1331 966 -1331 
L 506 -1331 
L 506 -850 
L 844 -850 
Q 1081 -850 1212 -737 
Q 1344 -625 1503 -206 
L 1606 56 
L 191 3500 
L 800 3500 
L 1894 763 
L 2988 3500 
L 3597 3500 
L 2059 -325 
z
" id="DejaVuSans-79" transform="scale(0.015625)"/>
      <path d="M 2841 2188 
Q 3044 2119 3236 1894 
Q 3428 1669 3622 1275 
L 4263 0 
L 3584 0 
L 2988 1197 
Q 2756 1666 2539 1819 
Q 2322 1972 1947 1972 
L 1259 1972 
L 1259 0 
L 628 0 
L 628 4666 
L 2053 4666 
Q 2853 4666 3247 4331 
Q 3641 3997 3641 3322 
Q 3641 2881 3436 2590 
Q 3231 2300 2841 2188 
z
M 1259 4147 
L 1259 2491 
L 2053 2491 
Q 2509 2491 2742 2702 
Q 2975 2913 2975 3322 
Q 2975 3731 2742 3939 
Q 2509 4147 2053 4147 
L 1259 4147 
z
" id="DejaVuSans-52" transform="scale(0.015625)"/>
      <path d="M 2113 2584 
Q 1688 2584 1439 2293 
Q 1191 2003 1191 1497 
Q 1191 994 1439 701 
Q 1688 409 2113 409 
Q 2538 409 2786 701 
Q 3034 994 3034 1497 
Q 3034 2003 2786 2293 
Q 2538 2584 2113 2584 
z
M 3366 4563 
L 3366 3988 
Q 3128 4100 2886 4159 
Q 2644 4219 2406 4219 
Q 1781 4219 1451 3797 
Q 1122 3375 1075 2522 
Q 1259 2794 1537 2939 
Q 1816 3084 2150 3084 
Q 2853 3084 3261 2657 
Q 3669 2231 3669 1497 
Q 3669 778 3244 343 
Q 2819 -91 2113 -91 
Q 1303 -91 875 529 
Q 447 1150 447 2328 
Q 447 3434 972 4092 
Q 1497 4750 2381 4750 
Q 2619 4750 2861 4703 
Q 3103 4656 3366 4563 
z
" id="DejaVuSans-36" transform="scale(0.015625)"/>
     </defs>
     <use xlink:href="#DejaVuSans-43"/>
     <use x="69.824219" xlink:href="#DejaVuSans-61"/>
     <use x="131.103516" xlink:href="#DejaVuSans-6e"/>
     <use x="194.482422" xlink:href="#DejaVuSans-79"/>
     <use x="253.662109" xlink:href="#DejaVuSans-6f"/>
     <use x="314.84375" xlink:href="#DejaVuSans-6e"/>
     <use x="378.222656" xlink:href="#DejaVuSans-20"/>
     <use x="410.009766" xlink:href="#DejaVuSans-52"/>
     <use x="474.992188" xlink:href="#DejaVuSans-75"/>
     <use x="538.371094" xlink:href="#DejaVuSans-6e"/>
     <use x="601.75" xlink:href="#DejaVuSans-20"/>
     <use x="633.537109" xlink:href="#DejaVuSans-31"/>
     <use x="697.160156" xlink:href="#DejaVuSans-36"/>
     <use x="760.783203" xlink:href="#DejaVuSans-2e"/>
     <use x="792.570312" xlink:href="#DejaVuSans-30"/>
     <use x="856.193359" xlink:href="#DejaVuSans-b0"/>
    </g>
   </g>
   <g id="text_7">
    <g id="patch_8">
     <path d="M 28.435197 50.234916 
L 44.566592 56.272896 
L 45.259144 54.422635 
L 29.12775 48.384655 
z
" style="fill:#ffffff;"/>
    </g>
    <!-- Nor' Easter 16.7° -->
    <g style="fill:#008000;" transform="translate(28.606745 49.833652)rotate(-339.479128)scale(0.02 -0.02)">
     <defs>
      <path d="M 628 4666 
L 1478 4666 
L 3547 763 
L 3547 4666 
L 4159 4666 
L 4159 0 
L 3309 0 
L 1241 3903 
L 1241 0 
L 628 0 
L 628 4666 
z
" id="DejaVuSans-4e" transform="scale(0.015625)"/>
     </defs>
     <use xlink:href="#DejaVuSans-4e"/>
     <use x="74.804688" xlink:href="#DejaVuSans-6f"/>
     <use x="135.986328" xlink:href="#DejaVuSans-72"/>
     <use x="177.099609" xlink:href="#DejaVuSans-27"/>
     <use x="204.589844" xlink:href="#DejaVuSans-20"/>
     <use x="236.376953" xlink:href="#DejaVuSans-45"/>
     <use x="299.560547" xlink:href="#DejaVuSans-61"/>
     <use x="360.839844" xlink:href="#DejaVuSans-73"/>
     <use x="412.939453" xlink:href="#DejaVuSans-74"/>
     <use x="452.148438" xlink:href="#DejaVuSans-65"/>
     <use x="513.671875" xlink:href="#DejaVuSans-72"/>
     <use x="554.785156" xlink:href="#DejaVuSans-20"/>
     <use x="586.572266" xlink:href="#DejaVuSans-31"/>
     <use x="650.195312" xlink:href="#DejaVuSans-36"/>
     <use x="713.818359" xlink:href="#DejaVuSans-2e"/>
     <use x="745.605469" xlink:href="#DejaVuSans-37"/>
     <use x="809.228516" xlink:href="#DejaVuSans-b0"/>
    </g>
   </g>
   <g id="text_8">
    <g id="patch_9">
     <path d="M 32.208945 85.350143 
L 32.905624 72.040239 
L 30.9327 71.93697 
L 30.236021 85.246875 
z
" style="fill:#ffffff;"/>
    </g>
    <!-- Stinger 21.8° -->
    <g style="fill:#4169e1;" transform="translate(31.774649 85.307383)rotate(-87.00371)scale(0.02 -0.02)">
     <defs>
      <path d="M 3425 4513 
L 3425 3897 
Q 3066 4069 2747 4153 
Q 2428 4238 2131 4238 
Q 1616 4238 1336 4038 
Q 1056 3838 1056 3469 
Q 1056 3159 1242 3001 
Q 1428 2844 1947 2747 
L 2328 2669 
Q 3034 2534 3370 2195 
Q 3706 1856 3706 1288 
Q 3706 609 3251 259 
Q 2797 -91 1919 -91 
Q 1588 -91 1214 -16 
Q 841 59 441 206 
L 441 856 
Q 825 641 1194 531 
Q 1563 422 1919 422 
Q 2459 422 2753 634 
Q 3047 847 3047 1241 
Q 3047 1584 2836 1778 
Q 2625 1972 2144 2069 
L 1759 2144 
Q 1053 2284 737 2584 
Q 422 2884 422 3419 
Q 422 4038 858 4394 
Q 1294 4750 2059 4750 
Q 2388 4750 2728 4690 
Q 3069 4631 3425 4513 
z
" id="DejaVuSans-53" transform="scale(0.015625)"/>
     </defs>
     <use xlink:href="#DejaVuSans-53"/>
     <use x="63.476562" xlink:href="#DejaVuSans-74"/>
     <use x="102.685547" xlink:href="#DejaVuSans-69"/>
     <use x="130.46875" xlink:href="#DejaVuSans-6e"/>
     <use x="193.847656" xlink:href="#DejaVuSans-67"/>
     <use x="257.324219" xlink:href="#DejaVuSans-65"/>
     <use x="318.847656" xlink:href="#DejaVuSans-72"/>
     <use x="359.960938" xlink:href="#DejaVuSans-20"/>
     <use x="391.748047" xlink:href="#DejaVuSans-32"/>
     <use x="455.371094" xlink:href="#DejaVuSans-31"/>
     <use x="518.994141" xlink:href="#DejaVuSans-2e"/>
     <use x="550.78125" xlink:href="#DejaVuSans-38"/>
     <use x="614.404297" xlink:href="#DejaVuSans-b0"/>
    </g>
   </g>
   <g id="text_9">
    <g id="patch_10">
     <path d="M 21.358518 99.363765 
L 22.404962 85.113385 
L 20.434642 84.968699 
L 19.388198 99.219079 
z
" style="fill:#ffffff;"/>
    </g>
    <!-- Temptor 20.7° -->
    <g style="fill:#4169e1;" transform="translate(20.925216 99.311893)rotate(-85.800156)scale(0.02 -0.02)">
     <use xlink:href="#DejaVuSans-54"/>
     <use x="44.083984" xlink:href="#DejaVuSans-65"/>
     <use x="105.607422" xlink:href="#DejaVuSans-6d"/>
     <use x="203.019531" xlink:href="#DejaVuSans-70"/>
     <use x="266.496094" xlink:href="#DejaVuSans-74"/>
     <use x="305.705078" xlink:href="#DejaVuSans-6f"/>
     <use x="366.886719" xlink:href="#DejaVuSans-72"/>
     <use x="408" xlink:href="#DejaVuSans-20"/>
     <use x="439.787109" xlink:href="#DejaVuSans-32"/>
     <use x="503.410156" xlink:href="#DejaVuSans-30"/>
     <use x="567.033203" xlink:href="#DejaVuSans-2e"/>
     <use x="598.820312" xlink:href="#DejaVuSans-37"/>
     <use x="662.443359" xlink:href="#DejaVuSans-b0"/>
    </g>
   </g>
   <g id="text_10">
    <g id="patch_11">
     <path d="M 42.749585 84.098933 
L 51.062565 62.835542 
L 49.222559 62.116187 
L 40.909579 83.379578 
z
" style="fill:#ffffff;"/>
    </g>
    <!-- Satan's Stairway 26.5° -->
    <g transform="translate(42.350855 83.921575)rotate(-68.646854)scale(0.02 -0.02)">
     <defs>
      <path d="M 269 3500 
L 844 3500 
L 1563 769 
L 2278 3500 
L 2956 3500 
L 3675 769 
L 4391 3500 
L 4966 3500 
L 4050 0 
L 3372 0 
L 2619 2869 
L 1863 0 
L 1184 0 
L 269 3500 
z
" id="DejaVuSans-77" transform="scale(0.015625)"/>
      <path d="M 691 4666 
L 3169 4666 
L 3169 4134 
L 1269 4134 
L 1269 2991 
Q 1406 3038 1543 3061 
Q 1681 3084 1819 3084 
Q 2600 3084 3056 2656 
Q 3513 2228 3513 1497 
Q 3513 744 3044 326 
Q 2575 -91 1722 -91 
Q 1428 -91 1123 -41 
Q 819 9 494 109 
L 494 744 
Q 775 591 1075 516 
Q 1375 441 1709 441 
Q 2250 441 2565 725 
Q 2881 1009 2881 1497 
Q 2881 1984 2565 2268 
Q 2250 2553 1709 2553 
Q 1456 2553 1204 2497 
Q 953 2441 691 2322 
L 691 4666 
z
" id="DejaVuSans-35" transform="scale(0.015625)"/>
     </defs>
     <use xlink:href="#DejaVuSans-53"/>
     <use x="63.476562" xlink:href="#DejaVuSans-61"/>
     <use x="124.755859" xlink:href="#DejaVuSans-74"/>
     <use x="163.964844" xlink:href="#DejaVuSans-61"/>
     <use x="225.244141" xlink:href="#DejaVuSans-6e"/>
     <use x="288.623047" xlink:href="#DejaVuSans-27"/>
     <use x="316.113281" xlink:href="#DejaVuSans-73"/>
     <use x="368.212891" xlink:href="#DejaVuSans-20"/>
     <use x="400" xlink:href="#DejaVuSans-53"/>
     <use x="463.476562" xlink:href="#DejaVuSans-74"/>
     <use x="502.685547" xlink:href="#DejaVuSans-61"/>
     <use x="563.964844" xlink:href="#DejaVuSans-69"/>
     <use x="591.748047" xlink:href="#DejaVuSans-72"/>
     <use x="632.861328" xlink:href="#DejaVuSans-77"/>
     <use x="714.648438" xlink:href="#DejaVuSans-61"/>
     <use x="775.927734" xlink:href="#DejaVuSans-79"/>
     <use x="835.107422" xlink:href="#DejaVuSans-20"/>
     <use x="866.894531" xlink:href="#DejaVuSans-32"/>
     <use x="930.517578" xlink:href="#DejaVuSans-36"/>
     <use x="994.140625" xlink:href="#DejaVuSans-2e"/>
     <use x="1025.927734" xlink:href="#DejaVuSans-35"/>
     <use x="1089.550781" xlink:href="#DejaVuSans-b0"/>
    </g>
   </g>
   <g id="text_11">
    <g id="patch_12">
     <path d="M 41.355673 32.996062 
L 41.60667 49.548534 
L 43.582068 49.51858 
L 43.33107 32.966108 
z
" style="fill:#ffffff;"/>
    </g>
    <!-- Panhandle 11.0° -->
    <g style="fill:#008000;" transform="translate(41.791863 33.00945)rotate(-270.868753)scale(0.02 -0.02)">
     <defs>
      <path d="M 1259 4147 
L 1259 2394 
L 2053 2394 
Q 2494 2394 2734 2622 
Q 2975 2850 2975 3272 
Q 2975 3691 2734 3919 
Q 2494 4147 2053 4147 
L 1259 4147 
z
M 628 4666 
L 2053 4666 
Q 2838 4666 3239 4311 
Q 3641 3956 3641 3272 
Q 3641 2581 3239 2228 
Q 2838 1875 2053 1875 
L 1259 1875 
L 1259 0 
L 628 0 
L 628 4666 
z
" id="DejaVuSans-50" transform="scale(0.015625)"/>
     </defs>
     <use xlink:href="#DejaVuSans-50"/>
     <use x="55.802734" xlink:href="#DejaVuSans-61"/>
     <use x="117.082031" xlink:href="#DejaVuSans-6e"/>
     <use x="180.460938" xlink:href="#DejaVuSans-68"/>
     <use x="243.839844" xlink:href="#DejaVuSans-61"/>
     <use x="305.119141" xlink:href="#DejaVuSans-6e"/>
     <use x="368.498047" xlink:href="#DejaVuSans-64"/>
     <use x="431.974609" xlink:href="#DejaVuSans-6c"/>
     <use x="459.757812" xlink:href="#DejaVuSans-65"/>
     <use x="521.28125" xlink:href="#DejaVuSans-20"/>
     <use x="553.068359" xlink:href="#DejaVuSans-31"/>
     <use x="616.691406" xlink:href="#DejaVuSans-31"/>
     <use x="680.314453" xlink:href="#DejaVuSans-2e"/>
     <use x="712.101562" xlink:href="#DejaVuSans-30"/>
     <use x="775.724609" xlink:href="#DejaVuSans-b0"/>
    </g>
   </g>
   <g id="text_12">
    <!-- Ski Sundown -->
    <g transform="translate(19.222027 5.064247)scale(0.05 -0.05)">
     <defs>
      <path d="M 581 4863 
L 1159 4863 
L 1159 1991 
L 2875 3500 
L 3609 3500 
L 1753 1863 
L 3688 0 
L 2938 0 
L 1159 1709 
L 1159 0 
L 581 0 
L 581 4863 
z
" id="DejaVuSans-6b" transform="scale(0.015625)"/>
     </defs>
     <use xlink:href="#DejaVuSans-53"/>
     <use x="63.476562" xlink:href="#DejaVuSans-6b"/>
     <use x="121.386719" xlink:href="#DejaVuSans-69"/>
     <use x="149.169922" xlink:href="#DejaVuSans-20"/>
     <use x="180.957031" xlink:href="#DejaVuSans-53"/>
     <use x="244.433594" xlink:href="#DejaVuSans-75"/>
     <use x="307.8125" xlink:href="#DejaVuSans-6e"/>
     <use x="371.191406" xlink:href="#DejaVuSans-64"/>
     <use x="434.667969" xlink:href="#DejaVuSans-6f"/>
     <use x="495.849609" xlink:href="#DejaVuSans-77"/>
     <use x="577.636719" xlink:href="#DejaVuSans-6e"/>
    </g>
   </g>
  </g>
  <g id="text_13">
   <!-- Sources: USGS and OpenStreetMaps -->
   <g transform="translate(15.417084 149.069036)scale(0.021739 -0.021739)">
    <defs>
     <path d="M 3122 3366 
L 3122 2828 
Q 2878 2963 2633 3030 
Q 2388 3097 2138 3097 
Q 1578 3097 1268 2742 
Q 959 2388 959 1747 
Q 959 1106 1268 751 
Q 1578 397 2138 397 
Q 2388 397 2633 464 
Q 2878 531 3122 666 
L 3122 134 
Q 2881 22 2623 -34 
Q 2366 -91 2075 -91 
Q 1284 -91 818 406 
Q 353 903 353 1747 
Q 353 2603 823 3093 
Q 1294 3584 2113 3584 
Q 2378 3584 2631 3529 
Q 2884 3475 3122 3366 
z
" id="DejaVuSans-63" transform="scale(0.015625)"/>
     <path d="M 750 794 
L 1409 794 
L 1409 0 
L 750 0 
L 750 794 
z
M 750 3309 
L 1409 3309 
L 1409 2516 
L 750 2516 
L 750 3309 
z
" id="DejaVuSans-3a" transform="scale(0.015625)"/>
     <path d="M 556 4666 
L 1191 4666 
L 1191 1831 
Q 1191 1081 1462 751 
Q 1734 422 2344 422 
Q 2950 422 3222 751 
Q 3494 1081 3494 1831 
L 3494 4666 
L 4128 4666 
L 4128 1753 
Q 4128 841 3676 375 
Q 3225 -91 2344 -91 
Q 1459 -91 1007 375 
Q 556 841 556 1753 
L 556 4666 
z
" id="DejaVuSans-55" transform="scale(0.015625)"/>
     <path d="M 2522 4238 
Q 1834 4238 1429 3725 
Q 1025 3213 1025 2328 
Q 1025 1447 1429 934 
Q 1834 422 2522 422 
Q 3209 422 3611 934 
Q 4013 1447 4013 2328 
Q 4013 3213 3611 3725 
Q 3209 4238 2522 4238 
z
M 2522 4750 
Q 3503 4750 4090 4092 
Q 4678 3434 4678 2328 
Q 4678 1225 4090 567 
Q 3503 -91 2522 -91 
Q 1538 -91 948 565 
Q 359 1222 359 2328 
Q 359 3434 948 4092 
Q 1538 4750 2522 4750 
z
" id="DejaVuSans-4f" transform="scale(0.015625)"/>
     <path d="M 628 4666 
L 1569 4666 
L 2759 1491 
L 3956 4666 
L 4897 4666 
L 4897 0 
L 4281 0 
L 4281 4097 
L 3078 897 
L 2444 897 
L 1241 4097 
L 1241 0 
L 628 0 
L 628 4666 
z
" id="DejaVuSans-4d" transform="scale(0.015625)"/>
    </defs>
    <use xlink:href="#DejaVuSans-53"/>
    <use x="63.476562" xlink:href="#DejaVuSans-6f"/>
    <use x="124.658203" xlink:href="#DejaVuSans-75"/>
    <use x="188.037109" xlink:href="#DejaVuSans-72"/>
    <use x="226.900391" xlink:href="#DejaVuSans-63"/>
    <use x="281.880859" xlink:href="#DejaVuSans-65"/>
    <use x="343.404297" xlink:href="#DejaVuSans-73"/>
    <use x="395.503906" xlink:href="#DejaVuSans-3a"/>
    <use x="429.195312" xlink:href="#DejaVuSans-20"/>
    <use x="460.982422" xlink:href="#DejaVuSans-55"/>
    <use x="534.175781" xlink:href="#DejaVuSans-53"/>
    <use x="597.652344" xlink:href="#DejaVuSans-47"/>
    <use x="675.142578" xlink:href="#DejaVuSans-53"/>
    <use x="738.619141" xlink:href="#DejaVuSans-20"/>
    <use x="770.40625" xlink:href="#DejaVuSans-61"/>
    <use x="831.685547" xlink:href="#DejaVuSans-6e"/>
    <use x="895.064453" xlink:href="#DejaVuSans-64"/>
    <use x="958.541016" xlink:href="#DejaVuSans-20"/>
    <use x="990.328125" xlink:href="#DejaVuSans-4f"/>
    <use x="1069.039062" xlink:href="#DejaVuSans-70"/>
    <use x="1132.515625" xlink:href="#DejaVuSans-65"/>
    <use x="1194.039062" xlink:href="#DejaVuSans-6e"/>
    <use x="1257.417969" xlink:href="#DejaVuSans-53"/>
    <use x="1320.894531" xlink:href="#DejaVuSans-74"/>
    <use x="1360.103516" xlink:href="#DejaVuSans-72"/>
    <use x="1398.966797" xlink:href="#DejaVuSans-65"/>
    <use x="1460.490234" xlink:href="#DejaVuSans-65"/>
    <use x="1522.013672" xlink:href="#DejaVuSans-74"/>
    <use x="1561.222656" xlink:href="#DejaVuSans-4d"/>
    <use x="1647.501953" xlink:href="#DejaVuSans-61"/>
    <use x="1708.78125" xlink:href="#DejaVuSans-70"/>
    <use x="1772.257812" xlink:href="#DejaVuSans-73"/>
   </g>
  </g>
 </g>
 <defs>
  <clipPath id="p664713b301">
   <rect height="134.392648" width="70.494834" x="0" y="7.564247"/>
  </clipPath>
 </defs>
</svg>
