<?xml version="1.0" encoding="utf-8" standalone="no"?>
<!DOCTYPE svg PUBLIC "-//W3C//DTD SVG 1.1//EN"
  "http://www.w3.org/Graphics/SVG/1.1/DTD/svg11.dtd">
<svg height="123.860134pt" version="1.1" viewBox="0 0 127.412647 123.860134" width="127.412647pt" xmlns="http://www.w3.org/2000/svg" xmlns:xlink="http://www.w3.org/1999/xlink">
 <metadata>
  <rdf:RDF xmlns:cc="http://creativecommons.org/ns#" xmlns:dc="http://purl.org/dc/elements/1.1/" xmlns:rdf="http://www.w3.org/1999/02/22-rdf-syntax-ns#">
   <cc:Work>
    <dc:type rdf:resource="http://purl.org/dc/dcmitype/StillImage"/>
    <dc:date>2022-04-14T21:33:44.278998</dc:date>
    <dc:format>image/svg+xml</dc:format>
    <dc:creator>
     <cc:Agent>
      <dc:title>Matplotlib v3.4.3, https://matplotlib.org/</dc:title>
     </cc:Agent>
    </dc:creator>
   </cc:Work>
  </rdf:RDF>
 </metadata>
 <defs>
  <style type="text/css">*{stroke-linecap:butt;stroke-linejoin:round;}</style>
 </defs>
 <g id="figure_1">
  <g id="patch_1">
   <path d="M 0 123.860134 
L 127.412647 123.860134 
L 127.412647 0 
L 0 0 
z
" style="fill:#ffffff;"/>
  </g>
  <g id="axes_1">
   <g id="line2d_1">
    <path clip-path="url(#padde9f3948)" d="M 77.839882 44.677637 
" style="fill:none;stroke:#008000;stroke-linecap:square;stroke-width:1.5;"/>
   </g>
   <g id="line2d_2">
    <path clip-path="url(#padde9f3948)" d="M 77.839882 44.677637 
" style="fill:none;stroke:#4169e1;stroke-linecap:square;stroke-width:1.5;"/>
   </g>
   <g id="line2d_3">
    <path clip-path="url(#padde9f3948)" d="M 77.839882 44.677637 
" style="fill:none;stroke:#000000;stroke-linecap:square;stroke-width:1.5;"/>
   </g>
   <g id="line2d_4">
    <path clip-path="url(#padde9f3948)" d="M 77.839882 44.677637 
" style="fill:none;stroke:#ff0000;stroke-linecap:square;stroke-width:1.5;"/>
   </g>
   <g id="line2d_5">
    <path clip-path="url(#padde9f3948)" d="M 77.839882 44.677637 
" style="fill:none;stroke:#ffd700;stroke-linecap:square;stroke-width:1.5;"/>
   </g>
   <g id="line2d_6">
    <path clip-path="url(#padde9f3948)" d="M 77.839882 44.677637 
" style="fill:none;stroke:#000000;stroke-dasharray:1.5,2.475;stroke-dashoffset:0;stroke-width:1.5;"/>
   </g>
   <g id="line2d_7">
    <path clip-path="url(#padde9f3948)" d="M 31.813408 99.466347 
L 35.05904 95.198906 
L 38.110376 91.187341 
L 41.161713 87.175776 
L 43.986634 83.461311 
L 46.811556 79.746846 
L 49.109667 76.725023 
L 51.407779 73.7032 
L 53.705891 70.681377 
L 56.004003 67.659554 
L 59.718788 62.775168 
L 63.433573 57.890782 
L 65.715625 54.890638 
L 67.997677 51.890493 
L 70.598816 48.470286 
L 73.22523 45.015961 
L 75.459893 42.077654 
" style="fill:none;stroke:#808080;stroke-linecap:square;stroke-width:1.5;"/>
   </g>
   <g id="line2d_8">
    <path clip-path="url(#padde9f3948)" d="M 15.708459 85.586502 
L 16.387704 82.444915 
L 17.090907 79.195292 
L 17.794109 75.945668 
L 18.497312 72.696044 
L 19.200515 69.446421 
L 19.901875 66.202484 
L 20.603235 62.958546 
L 21.740575 57.702429 
L 22.877915 52.446312 
L 23.736712 48.47384 
L 24.595509 44.501367 
L 25.751805 39.157826 
L 26.908101 33.814284 
L 28.067556 28.453685 
L 28.395068 26.938331 
" style="fill:none;stroke:#808080;stroke-linecap:square;stroke-width:1.5;"/>
   </g>
   <g id="line2d_9">
    <path clip-path="url(#padde9f3948)" d="M 5.791484 84.524617 
L 6.521541 80.690744 
L 7.251597 76.85687 
L 7.981654 73.022997 
L 8.71171 69.189124 
" style="fill:none;stroke:#808080;stroke-linecap:square;stroke-width:1.5;"/>
   </g>
   <g id="line2d_10">
    <path clip-path="url(#padde9f3948)" d="M 77.839882 44.677637 
L 83.263311 48.871158 
L 90.042069 47.988386 
L 95.690859 45.340071 
L 99.758956 41.808984 
L 103.374224 40.265199 
L 108.11946 40.265199 
L 118.06171 43.35419 
L 120.773424 45.340071 
L 121.621163 48.043826 
L 120.887158 52.456263 
L 118.288125 57.477116 
L 115.576411 61.448878 
L 111.734728 65.420641 
L 110.378871 72.81261 
L 109.701206 76.232818 
L 106.76413 82.852895 
L 101.50946 89.858385 
L 97.950796 95.650953 
L 93.883752 100.505487 
L 89.590292 104.477249 
L 85.296833 106.683468 
L 81.45515 106.683468 
L 71.766696 105.084066 
L 64.055951 103.152381 
L 57.276402 99.787258 
L 52.757318 97.911901 
L 49.367412 96.754062 
L 42.588653 96.533725 
L 37.617002 97.416497 
L 37.617002 97.416497 
" style="fill:none;stroke:#008000;stroke-linecap:square;stroke-width:1.5;"/>
   </g>
   <g id="line2d_11">
    <path clip-path="url(#padde9f3948)" d="M 90.042069 47.988386 
L 91.214161 48.236444 
L 92.386254 48.484501 
L 93.558346 48.732558 
L 94.730438 48.980616 
L 96.291648 49.445457 
L 97.852858 49.910298 
L 99.362994 50.360924 
L 101.057946 50.884759 
L 102.752899 51.408594 
L 102.78107 52.504951 
L 102.80924 53.601308 
L 102.83741 54.697665 
L 102.86558 55.794022 
L 102.893751 56.890379 
L 102.921921 57.986736 
L 102.950091 59.083093 
L 102.978261 60.17945 
L 103.091469 62.000433 
L 103.204676 63.821416 
L 103.374224 64.786637 
L 103.543772 65.751858 
L 103.71332 66.717078 
L 103.882868 67.682299 
L 104.108756 68.675239 
L 104.334645 69.66818 
L 104.560533 70.661121 
L 104.786422 71.654061 
L 105.01231 72.591917 
L 105.238198 73.529773 
L 105.464087 74.467629 
L 105.689975 75.405486 
L 106.480848 76.453866 
L 107.271721 77.502246 
L 107.814063 78.382175 
L 108.356406 79.262104 
" style="fill:none;stroke:#4169e1;stroke-linecap:square;stroke-width:1.5;"/>
   </g>
   <g id="line2d_12">
    <path clip-path="url(#padde9f3948)" d="M 102.752899 51.408594 
L 104.334645 51.987868 
L 105.91639 52.567143 
L 107.384928 53.560083 
L 108.853466 54.553024 
L 109.813887 55.214747 
L 110.774307 55.876471 
L 111.339292 56.676438 
L 111.904276 57.476406 
L 112.46926 58.276373 
L 113.034245 59.076341 
L 114.305328 60.262609 
L 115.576411 61.448878 
" style="fill:none;stroke:#008000;stroke-linecap:square;stroke-width:1.5;"/>
   </g>
   <g id="line2d_13">
    <path clip-path="url(#padde9f3948)" d="M 83.263311 48.871158 
L 83.839879 49.658687 
L 84.416447 50.446216 
L 85.074104 51.343203 
L 85.73176 52.24019 
L 86.630048 53.465551 
L 87.528336 54.690912 
L 88.206265 55.408076 
L 88.884193 56.125239 
L 89.562122 56.842402 
L 90.24005 57.559565 
L 90.437769 58.883367 
L 90.635487 60.20717 
L 90.833205 61.530972 
L 91.030923 62.854774 
L 90.833205 64.261736 
L 90.635487 65.668698 
L 90.437769 67.07566 
L 90.24005 68.482622 
L 90.24005 70.082557 
L 90.24005 71.682492 
L 90.465939 72.675432 
L 90.691827 73.668373 
L 91.368966 75.323037 
L 92.273046 76.0402 
L 93.177126 76.757363 
L 94.137547 78.026081 
L 95.097968 79.294799 
L 95.662952 80.2323 
L 96.227936 81.1698 
L 96.792921 82.879904 
L 97.357905 84.590008 
L 97.047242 86.079419 
L 96.73658 87.568829 
L 96.425918 89.05824 
L 96.115255 90.547651 
L 95.211175 91.596031 
L 94.307095 92.644412 
L 93.064445 93.913129 
L 91.821796 95.181847 
" style="fill:none;stroke:#4169e1;stroke-linecap:square;stroke-width:1.5;"/>
   </g>
   <g id="line2d_14">
    <path clip-path="url(#padde9f3948)" d="M 85.73176 52.24019 
L 86.774059 52.687262 
L 87.816357 53.134334 
L 88.858656 53.581406 
L 89.900955 54.028478 
L 91.35159 54.63334 
L 92.802225 55.238202 
L 93.927455 56.366189 
L 95.052685 57.494175 
L 96.035747 59.126805 
L 97.018809 60.759435 
L 97.188357 62.166042 
L 97.357905 63.572648 
L 97.527453 64.979255 
L 97.697001 66.385861 
L 97.781511 67.682299 
L 97.866022 68.978737 
L 97.950533 70.275174 
L 98.035044 71.571612 
L 98.035044 73.281716 
L 98.035044 74.99182 
L 98.317799 76.757363 
L 98.600554 78.522907 
L 98.431006 80.177571 
L 98.261458 81.832235 
L 97.809682 83.211121 
L 97.357905 84.590008 
" style="fill:none;stroke:#000000;stroke-dasharray:5.55,2.4;stroke-dashoffset:0;stroke-width:1.5;"/>
   </g>
   <g id="line2d_15">
    <path clip-path="url(#padde9f3948)" d="M 84.416447 50.446216 
L 84.19872 52.052192 
L 83.980993 53.658169 
L 83.763266 55.264145 
L 83.545539 56.870122 
L 83.771428 58.607946 
L 83.997316 60.345769 
L 84.223205 62.083593 
L 84.449093 63.821416 
L 84.703415 65.255743 
L 84.957737 66.690069 
L 85.212059 68.124396 
L 85.466381 69.558722 
L 85.579325 70.744636 
L 85.692269 71.930549 
L 85.805213 73.116463 
L 85.918158 74.302376 
L 86.68086 75.460925 
L 87.443562 76.619474 
L 88.206265 77.778024 
L 88.968967 78.936573 
L 89.646896 79.956878 
L 90.324824 80.977183 
L 91.002753 81.997488 
L 91.680681 83.017793 
L 92.358347 83.734956 
L 93.036012 84.452119 
L 93.713677 85.169282 
L 94.391342 85.886446 
L 94.786779 87.044995 
L 95.182215 88.203544 
L 95.648735 89.375597 
L 96.115255 90.547651 
" style="fill:none;stroke:#4169e1;stroke-linecap:square;stroke-width:1.5;"/>
   </g>
   <g id="line2d_16">
    <path clip-path="url(#padde9f3948)" d="M 75.523078 47.601729 
L 75.240849 48.925887 
L 74.958621 50.250045 
L 74.845413 52.043308 
L 74.732206 53.836571 
L 74.958094 55.601404 
L 75.183982 57.366237 
L 75.735013 58.60759 
L 76.286044 59.848943 
L 76.837075 61.090297 
L 77.388106 62.33165 
L 78.00943 63.269151 
L 78.630755 64.206652 
L 79.477442 65.916755 
L 80.296748 67.461251 
L 81.116054 69.005746 
L 81.341943 70.275174 
L 81.567831 71.544603 
L 81.963267 72.827181 
L 82.358704 74.109759 
L 82.75414 75.392336 
L 83.149576 76.674914 
L 83.629787 78.109241 
L 84.109997 79.543567 
L 84.590207 80.536508 
L 85.070418 81.529448 
L 85.720176 82.466949 
L 86.369934 83.40445 
L 87.189241 84.45283 
L 88.008547 85.50121 
L 88.799419 86.438711 
L 89.590292 87.376212 
L 90.381165 88.175824 
L 91.172038 88.975436 
L 91.736495 90.520642 
L 91.793362 92.010408 
L 91.807579 93.596128 
L 91.821796 95.181847 
L 90.804771 95.816206 
L 89.787747 96.450565 
L 88.770723 97.084924 
L 87.753698 97.719283 
L 86.539219 98.188033 
L 85.32474 98.656784 
L 84.11026 99.125534 
L 82.895781 99.594285 
L 81.681039 99.870417 
L 80.466296 100.14655 
L 79.251553 100.422683 
L 78.036811 100.698815 
L 77.034135 100.505665 
L 76.031459 100.312514 
L 75.028783 100.119363 
L 74.026107 99.926212 
L 73.023431 99.733062 
L 72.020755 99.539911 
L 71.018079 99.34676 
L 70.015403 99.153609 
L 68.885566 98.919234 
L 67.755729 98.684859 
L 66.625892 98.450484 
L 65.496055 98.216109 
L 64.366218 97.981734 
L 63.236381 97.747358 
L 62.106544 97.512983 
L 60.976707 97.278608 
L 59.451302 97.08528 
L 57.925897 96.891951 
L 56.400492 96.698623 
L 54.875087 96.505294 
L 53.498168 96.567486 
L 52.12125 96.629678 
L 50.744331 96.69187 
L 49.367412 96.754062 
" style="fill:none;stroke:#4169e1;stroke-linecap:square;stroke-width:1.5;"/>
   </g>
   <g id="line2d_17">
    <path clip-path="url(#padde9f3948)" d="M 75.183982 57.366237 
L 74.788546 58.304448 
L 74.39311 59.24266 
L 74.167748 60.566107 
L 74.082974 61.724656 
L 73.9982 62.883205 
L 73.884992 64.069474 
L 73.771785 65.255743 
L 74.167221 66.248683 
L 74.562658 67.241624 
L 75.551512 68.261573 
L 76.540366 69.281523 
L 77.302805 69.943957 
L 78.065244 70.606392 
L 79.082005 70.909889 
L 80.098767 71.213386 
L 81.567831 71.544603 
" style="fill:none;stroke:#4169e1;stroke-linecap:square;stroke-width:1.5;"/>
   </g>
   <g id="line2d_18">
    <path clip-path="url(#padde9f3948)" d="M 73.9982 62.883205 
L 73.207327 64.593309 
L 72.642343 65.420641 
L 72.077359 66.247973 
L 70.551954 66.937416 
L 69.026549 67.626859 
L 67.444803 68.454191 
L 65.863058 69.281523 
L 64.281312 70.275174 
L 62.699567 71.268826 
L 61.401104 71.628118 
L 60.10264 71.98741 
L 58.804177 72.346703 
L 57.505713 72.705995 
" style="fill:none;stroke:#ff0000;stroke-linecap:square;stroke-width:1.5;"/>
   </g>
   <g id="line2d_19">
    <path clip-path="url(#padde9f3948)" d="M 76.540366 69.281523 
L 75.749493 70.826729 
L 75.183982 71.598621 
L 74.055067 72.86805 
L 72.980912 74.413256 
L 72.077359 75.846161 
L 70.94739 76.950692 
L 70.128084 77.888192 
L 69.308778 78.825693 
L 68.489998 79.542856 
L 67.671218 80.26002 
L 66.908252 80.867014 
L 66.145287 81.474008 
L 64.789956 82.30134 
L 63.716855 82.797455 
L 62.24779 83.128672 
L 60.835593 83.29357 
L 59.648757 83.515329 
L 58.011198 83.680227 
L 56.485266 83.680227 
" style="fill:none;stroke:#ff0000;stroke-linecap:square;stroke-width:1.5;"/>
   </g>
   <g id="line2d_20">
    <path clip-path="url(#padde9f3948)" d="M 75.381964 44.870965 
L 74.365203 46.4709 
L 73.348442 48.070835 
L 72.388021 49.560601 
L 71.4276 51.050367 
L 70.636728 52.015588 
L 69.845855 52.980809 
L 69.054982 53.946029 
L 68.264109 54.91125 
L 67.558011 55.766302 
L 66.851912 56.621354 
L 66.145813 57.476406 
L 65.439715 58.331457 
L 64.535898 59.434922 
L 63.632081 60.538387 
L 62.728264 61.641851 
L 61.824447 62.745316 
L 61.287633 63.600368 
L 60.750819 64.45542 
L 60.214005 65.310472 
L 59.677191 66.165524 
L 59.366528 67.10338 
L 59.055866 68.041236 
L 58.745203 68.979092 
L 58.434541 69.916948 
L 57.970127 71.311472 
L 57.505713 72.705995 
L 56.965477 74.329385 
L 56.824362 75.680908 
L 56.683248 77.03243 
L 56.542133 78.383952 
L 56.401019 79.735474 
L 56.422081 80.721662 
L 56.443143 81.70785 
L 56.464204 82.694039 
L 56.485266 83.680227 
L 55.821818 84.797552 
L 55.158369 85.914876 
L 54.254289 86.852377 
L 53.350209 87.789878 
L 52.446129 88.727379 
L 51.542049 89.664879 
L 49.960303 90.327313 
L 48.378558 90.989748 
L 47.305193 91.348329 
L 46.231828 91.706911 
L 45.158463 92.065492 
L 44.085098 92.424074 
L 42.503353 92.975629 
L 40.921607 93.527183 
L 39.170314 94.354515 
L 37.419021 95.181847 
" style="fill:none;stroke:#ff0000;stroke-linecap:square;stroke-width:1.5;"/>
   </g>
   <g id="line2d_21">
    <path clip-path="url(#padde9f3948)" d="M 84.109997 79.543567 
L 83.757211 80.853509 
L 83.404425 82.163452 
L 82.499818 83.377441 
L 81.708946 84.48055 
L 80.578977 85.803997 
L 80.296748 86.907106 
L 80.014519 88.010215 
L 80.184067 89.113325 
L 80.353615 90.216434 
L 80.805392 91.872519 
L 81.144488 92.81002 
L 81.483584 93.747521 
L 81.483584 94.740461 
L 81.483584 95.733402 
L 81.031807 97.167728 
L 80.1272 98.602055 
L 79.082005 99.650435 
L 78.036811 100.698815 
" style="fill:none;stroke:#4169e1;stroke-linecap:square;stroke-width:1.5;"/>
   </g>
   <g id="line2d_22">
    <path clip-path="url(#padde9f3948)" d="M 71.879377 43.767856 
L 70.128084 43.216301 
L 68.37679 42.664746 
L 67.642521 41.892499 
L 66.908252 41.120251 
L 66.173983 40.348004 
L 65.439715 39.575756 
L 64.083857 39.161735 
L 62.728 38.747713 
L 61.372143 38.333692 
L 60.016286 37.919671 
L 58.575655 38.030195 
L 57.135025 38.140719 
L 55.694394 38.251243 
L 54.253763 38.361767 
L 53.095624 39.299623 
L 51.937485 40.23748 
L 50.779346 41.175336 
L 49.621207 42.113192 
L 49.282375 43.161394 
L 48.943542 44.209597 
L 48.604709 45.2578 
L 48.265877 46.306002 
L 47.927044 47.354205 
L 47.588212 48.402408 
L 47.249379 49.45061 
L 46.910546 50.498813 
L 46.656224 52.043308 
L 46.401902 53.587803 
L 46.147581 55.132298 
L 45.893259 56.676793 
L 45.554163 58.0834 
L 45.215067 59.490007 
L 44.875971 60.896613 
L 44.536875 62.30322 
L 44.466318 63.365282 
L 44.395761 64.427345 
L 44.325203 65.489407 
L 44.254646 66.55147 
L 44.184089 67.613532 
L 44.113532 68.675595 
L 44.042975 69.737657 
L 43.972417 70.79972 
L 43.407433 71.875465 
L 42.842449 72.95121 
L 42.277464 74.026954 
L 41.71248 75.102699 
L 40.921607 76.288613 
L 40.130735 77.474526 
L 39.339862 78.66044 
L 38.548989 79.846354 
L 37.532228 81.335764 
L 36.515467 82.825175 
L 35.498706 84.314586 
L 34.481945 85.803997 
L 34.199453 86.98991 
L 33.916961 88.175824 
L 33.634468 89.361737 
L 33.351976 90.547651 
L 33.069221 92.203026 
L 32.786465 93.8584 
" style="fill:none;stroke:#000000;stroke-linecap:square;stroke-width:1.5;"/>
   </g>
   <g id="line2d_23">
    <path clip-path="url(#padde9f3948)" d="M 68.37679 42.664746 
L 66.964593 43.547518 
L 65.552395 44.43029 
L 64.789693 45.036929 
L 64.02699 45.643568 
L 63.264288 46.250207 
L 62.501586 46.856846 
L 61.682543 47.822422 
L 60.8635 48.787998 
L 60.044457 49.753574 
L 59.225414 50.71915 
L 58.349767 51.905064 
L 57.47412 53.090977 
L 56.598474 54.276891 
L 55.722827 55.462805 
L 54.931954 56.676793 
L 54.141082 57.890782 
L 53.067453 59.435277 
L 51.993825 60.979773 
L 51.259556 61.834825 
L 50.525287 62.689876 
L 49.791018 63.544928 
L 49.056749 64.39998 
L 47.926781 65.944475 
L 46.796812 67.488971 
L 46.090714 68.316658 
L 45.384615 69.144345 
L 44.678516 69.972033 
L 43.972417 70.79972 
" style="fill:none;stroke:#000000;stroke-linecap:square;stroke-width:1.5;"/>
   </g>
   <g id="line2d_24">
    <path clip-path="url(#padde9f3948)" d="M 60.016286 37.919671 
L 58.942922 37.561089 
L 57.869557 37.202507 
L 56.796192 36.843926 
L 55.722827 36.485344 
L 54.592858 36.320091 
L 53.46289 36.154838 
L 52.332921 35.989585 
L 51.202953 35.824332 
L 49.282638 36.100109 
L 47.362323 36.375886 
L 46.543017 36.955161 
L 45.723711 37.534435 
L 44.904404 38.11371 
L 44.085098 38.692984 
L 43.351093 40.127311 
L 42.617087 41.561637 
L 42.023669 42.609662 
L 41.430251 43.657687 
L 40.836833 44.705712 
L 40.243416 45.753737 
L 39.819809 46.663873 
L 39.396202 47.574009 
L 38.972596 48.484146 
L 38.548989 49.394282 
L 38.040609 50.332138 
L 37.532228 51.269994 
L 37.023848 52.20785 
L 36.515467 53.145706 
L 36.261145 54.166367 
L 36.006823 55.187027 
L 35.752501 56.207688 
L 35.498179 57.228348 
L 35.046403 59.048621 
L 34.594626 60.868893 
L 34.594626 62.30322 
L 34.594626 63.737546 
L 34.594626 64.951535 
L 34.594626 66.165524 
L 34.764174 67.820188 
L 34.933722 69.474852 
L 35.555046 70.68884 
L 36.176371 71.902829 
L 36.741355 73.171547 
L 37.30634 74.440265 
L 37.617002 75.791787 
L 37.927665 77.143309 
L 38.238327 78.494831 
L 38.548989 79.846354 
" style="fill:none;stroke:#4169e1;stroke-linecap:square;stroke-width:1.5;"/>
   </g>
   <g id="line2d_25">
    <path clip-path="url(#padde9f3948)" d="M 74.591091 38.361767 
L 74.280429 37.258303 
L 73.969766 36.154838 
L 73.659104 35.051373 
L 73.348442 33.947909 
L 72.953005 33.010408 
L 72.557569 32.072907 
L 72.048925 30.969087 
L 71.540281 29.865267 
L 71.116675 28.844962 
L 70.693068 27.824657 
L 70.269461 26.804352 
L 69.845855 25.784047 
L 69.591533 24.763386 
L 69.337211 23.742726 
L 69.082889 22.722065 
L 68.828567 21.701405 
L 68.037694 20.542856 
L 67.246822 19.384307 
L 65.947832 18.446095 
L 64.648842 17.507884 
L 63.123437 17.342275 
L 61.598032 17.176667 
L 59.733531 17.176667 
L 57.86903 17.176667 
L 55.948715 17.176667 
L 54.028401 17.176667 
L 52.446655 17.728932 
L 50.86491 18.281198 
L 49.734941 18.805032 
L 48.604973 19.328867 
L 47.475004 19.852702 
L 46.345035 20.376537 
L 45.328274 21.011251 
L 44.311513 21.645965 
L 43.294752 22.28068 
L 42.277991 22.915394 
" style="fill:none;stroke:#4169e1;stroke-linecap:square;stroke-width:1.5;"/>
   </g>
   <g id="line2d_26">
    <path clip-path="url(#padde9f3948)" d="M 42.277991 22.915394 
L 41.458685 23.659922 
L 40.639379 24.404449 
L 39.820072 25.148977 
L 39.000766 25.893505 
L 37.758117 27.327831 
L 36.515467 28.762158 
L 36.204805 29.837902 
L 35.894142 30.913647 
L 35.58348 31.989392 
L 35.272818 33.065137 
L 35.018496 34.085797 
L 34.764174 35.106458 
L 34.509852 36.127118 
L 34.25553 37.147778 
L 33.973301 38.306328 
L 33.691072 39.464877 
L 33.182428 41.120251 
L 32.673784 42.775626 
L 31.911082 44.402925 
L 31.148379 46.030225 
L 30.385677 47.657524 
L 29.622975 49.284824 
L 29.255972 50.19496 
L 28.888969 51.105096 
L 28.521966 52.015233 
L 28.154963 52.925369 
L 28.154963 53.973749 
L 28.154963 55.02213 
L 28.154963 56.345932 
L 28.154963 57.669734 
L 28.154963 58.993536 
L 28.154963 60.317338 
L 28.211304 61.586056 
L 28.267644 62.854774 
L 28.380852 64.34454 
L 28.494059 65.834307 
L 28.494059 67.324073 
L 28.494059 68.813839 
L 28.437192 70.68884 
L 28.380325 72.563842 
L 28.154437 73.529418 
L 27.928548 74.494994 
L 27.70266 75.46057 
L 27.476771 76.426146 
L 27.476771 77.446806 
L 27.476771 78.467467 
L 27.476771 79.488127 
L 27.476771 80.508788 
L 27.589452 81.997843 
L 27.702133 83.486899 
L 28.041229 85.307171 
L 28.380325 87.127444 
L 28.606477 88.313713 
L 28.832628 89.499981 
L 29.05878 90.68625 
L 29.284932 91.872519 
" style="fill:none;stroke:#008000;stroke-linecap:square;stroke-width:1.5;"/>
   </g>
   <g id="line2d_27">
    <path clip-path="url(#padde9f3948)" d="M 42.277991 22.915394 
L 41.148022 23.30134 
L 40.018054 23.687286 
L 38.718537 24.294281 
L 37.419021 24.901275 
L 36.40226 25.232137 
L 35.385498 25.562998 
L 34.368737 25.89386 
L 33.351976 26.224722 
L 31.431135 25.948945 
L 29.510294 25.673167 
" style="fill:none;stroke:#008000;stroke-linecap:square;stroke-width:1.5;"/>
   </g>
   <g id="line2d_28">
    <path clip-path="url(#padde9f3948)" d="M 29.510294 25.673167 
L 28.380325 25.39739 
L 27.250356 25.121613 
L 26.064047 24.900564 
L 24.877738 24.679516 
L 23.974185 25.066173 
L 23.070631 25.45283 
L 22.251325 26.47349 
L 21.432019 27.49415 
L 20.612712 28.514811 
L 19.793406 29.535471 
L 18.889589 30.445608 
L 17.985772 31.355744 
L 17.081955 32.26588 
L 16.178138 33.176016 
L 15.409381 34.084376 
L 14.528205 35.126004 
L 13.64703 36.167632 
L 12.765854 37.20926 
L 11.884679 38.250888 
L 10.980862 39.464521 
L 10.077045 40.678155 
L 9.173228 41.891788 
L 8.269411 43.105422 
L 8.269411 44.126082 
L 8.269411 45.146742 
L 8.269411 46.167403 
L 8.269411 47.188063 
L 8.61114 48.128407 
L 8.952869 49.068751 
L 9.403329 50.308683 
L 9.85379 51.548615 
L 10.30425 52.788546 
L 10.75471 54.028478 
L 10.811577 55.573684 
L 10.868444 57.11889 
L 11.037466 58.332168 
L 11.206487 59.545446 
L 11.404205 61.25555 
L 11.601924 62.965654 
L 11.799642 64.675757 
L 11.99736 66.385861 
L 12.280115 68.206134 
L 12.562871 70.026406 
L 12.732419 71.406004 
L 12.901967 72.785601 
L 12.676078 74.109048 
L 12.45019 75.432495 
L 11.54611 76.591044 
L 10.64203 77.749593 
L 10.585689 79.294088 
L 10.529349 80.838583 
L 10.529349 81.942403 
L 10.529349 83.046223 
L 10.981125 83.928284 
L 11.432902 84.810345 
L 12.619211 86.024334 
L 13.80552 87.238323 
L 14.991829 88.010926 
L 16.178138 88.783529 
" style="fill:none;stroke:#008000;stroke-linecap:square;stroke-width:1.5;"/>
   </g>
   <g id="line2d_29">
    <path clip-path="url(#padde9f3948)" d="M 29.510294 29.204254 
L 29.679842 30.472972 
L 29.849389 31.74169 
L 29.90573 33.286185 
L 29.96207 34.83068 
L 29.96207 36.265007 
L 29.849389 37.533725 
L 29.736709 38.802442 
L 29.171724 39.850823 
L 28.60674 40.899203 
L 27.759 42.388969 
L 26.911261 43.878735 
L 26.79858 44.871676 
L 26.685899 45.864616 
L 26.516351 47.188774 
L 26.346803 48.512932 
L 26.177255 50.057427 
L 26.007707 51.601922 
L 25.49959 53.146417 
L 24.991472 54.690912 
L 24.624206 55.766657 
L 24.25694 56.842402 
L 23.889674 57.918147 
L 23.522408 58.993892 
L 23.38103 60.097356 
L 23.239652 61.200821 
L 23.098275 62.304286 
L 22.956897 63.40775 
L 22.674668 65.282752 
L 22.392439 67.157753 
L 22.279232 69.033466 
L 22.166024 70.909178 
L 21.940136 72.067727 
L 21.714247 73.226276 
L 21.432019 74.219217 
L 21.14979 75.212157 
L 20.923901 76.591755 
L 20.698013 77.971352 
L 20.471598 79.404968 
L 20.245183 80.838583 
L 20.245183 82.052572 
L 20.245183 83.266561 
L 20.245183 84.314941 
L 20.245183 85.363322 
L 20.810694 86.797648 
" style="fill:none;stroke:#008000;stroke-linecap:square;stroke-width:1.5;"/>
   </g>
   <g id="line2d_30">
    <path clip-path="url(#padde9f3948)" d="M 24.991472 54.690912 
L 25.386909 56.566625 
L 25.782345 58.442337 
L 25.782345 59.655615 
L 25.782345 60.868893 
L 25.669138 62.468828 
L 25.55593 64.068763 
L 25.49959 65.503089 
L 25.443249 66.937416 
L 25.330042 68.64752 
L 25.216834 70.357623 
L 24.877738 71.79195 
L 24.538642 73.226276 
L 24.425961 74.440265 
L 24.313281 75.654254 
L 24.030525 77.143309 
L 23.74777 78.632365 
L 23.691429 79.790914 
L 23.635089 80.949463 
L 23.578748 82.163452 
L 23.522408 83.377441 
L 23.578748 84.42511 
L 23.635089 85.47278 
L 23.861504 87.349203 
" style="fill:none;stroke:#008000;stroke-linecap:square;stroke-width:1.5;"/>
   </g>
   <g id="line2d_31">
    <path clip-path="url(#padde9f3948)" d="M 26.346803 27.659048 
L 26.007707 28.927766 
L 25.668611 30.196484 
L 25.668611 31.63081 
L 25.668611 33.065137 
L 25.103627 34.113517 
L 24.538642 35.161897 
L 24.002092 35.989585 
L 23.465541 36.817272 
L 22.92899 37.644959 
L 22.392439 38.472647 
L 22.44878 39.465587 
L 22.50512 40.458528 
L 22.957424 41.617077 
L 23.409727 42.775626 
L 23.466067 43.988904 
L 23.522408 45.202182 
L 23.239652 46.360731 
L 22.956897 47.51928 
L 22.44878 48.843438 
L 21.940662 50.167596 
L 21.092923 51.601922 
L 20.245183 53.036248 
L 19.680725 54.470575 
L 19.116267 55.904901 
L 19.116267 57.11889 
L 19.116267 58.111831 
L 19.116267 59.104771 
L 19.568044 60.759435 
L 19.680725 62.248491 
L 19.793406 63.737546 
L 19.45431 65.503089 
L 19.058874 66.441301 
L 18.663438 67.379513 
L 18.324868 68.482622 
L 17.986299 69.585731 
L 17.703543 70.799009 
L 17.420788 72.012287 
L 17.138296 72.950143 
L 16.855804 73.888 
L 16.573312 74.825856 
L 16.290819 75.763712 
L 16.008327 76.701568 
L 15.725835 77.639424 
L 15.443343 78.57728 
L 15.160851 79.515136 
L 15.04817 81.391559 
" style="fill:none;stroke:#4169e1;stroke-linecap:square;stroke-width:1.5;"/>
   </g>
   <g id="line2d_32">
    <path clip-path="url(#padde9f3948)" d="M 25.668611 33.065137 
L 24.821398 33.7823 
L 23.974185 34.499463 
L 23.126971 35.437675 
L 22.279758 36.375886 
L 21.742944 37.258658 
L 21.20613 38.14143 
L 20.669316 39.024201 
L 20.132502 39.906973 
L 19.002533 40.789034 
L 17.872565 41.671095 
L 16.855804 41.919508 
L 15.839043 42.167921 
L 14.822281 42.416334 
L 13.80552 42.664746 
L 13.014648 43.271741 
L 12.223775 43.878735 
L 11.60245 45.202182 
L 10.981125 46.525629 
L 9.966997 47.79719 
L 8.952869 49.068751 
" style="fill:none;stroke:#008000;stroke-linecap:square;stroke-width:1.5;"/>
   </g>
   <g id="line2d_33">
    <path clip-path="url(#padde9f3948)" d="M 9.935404 70.495512 
L 9.992271 71.654061 
L 9.992271 72.703152 
L 9.992271 73.695382 
L 9.935404 75.129708 
L 9.597361 76.177378 
L 9.314079 77.833463 
L 9.088191 78.770964 
L 8.862303 79.708465 
L 8.580074 80.700695 
L 8.240978 81.638906 
L 7.901882 82.962353 
L 7.562786 83.791107 
L 7.337424 84.231782 
" style="fill:none;stroke:#008000;stroke-linecap:square;stroke-width:1.5;"/>
   </g>
   <g id="text_1">
    <g id="patch_2">
     <path d="M 37.704707 90.959481 
L 51.647086 77.378331 
L 50.268561 75.963141 
L 36.326182 89.544291 
z
" style="fill:#ffffff;"/>
    </g>
    <!-- 2000' Quad Chair 1 -->
    <g style="fill:#808080;" transform="translate(37.414851 90.633253)rotate(-44.248073)scale(0.02 -0.02)">
     <defs>
      <path d="M 1228 531 
L 3431 531 
L 3431 0 
L 469 0 
L 469 531 
Q 828 903 1448 1529 
Q 2069 2156 2228 2338 
Q 2531 2678 2651 2914 
Q 2772 3150 2772 3378 
Q 2772 3750 2511 3984 
Q 2250 4219 1831 4219 
Q 1534 4219 1204 4116 
Q 875 4013 500 3803 
L 500 4441 
Q 881 4594 1212 4672 
Q 1544 4750 1819 4750 
Q 2544 4750 2975 4387 
Q 3406 4025 3406 3419 
Q 3406 3131 3298 2873 
Q 3191 2616 2906 2266 
Q 2828 2175 2409 1742 
Q 1991 1309 1228 531 
z
" id="DejaVuSans-32" transform="scale(0.015625)"/>
      <path d="M 2034 4250 
Q 1547 4250 1301 3770 
Q 1056 3291 1056 2328 
Q 1056 1369 1301 889 
Q 1547 409 2034 409 
Q 2525 409 2770 889 
Q 3016 1369 3016 2328 
Q 3016 3291 2770 3770 
Q 2525 4250 2034 4250 
z
M 2034 4750 
Q 2819 4750 3233 4129 
Q 3647 3509 3647 2328 
Q 3647 1150 3233 529 
Q 2819 -91 2034 -91 
Q 1250 -91 836 529 
Q 422 1150 422 2328 
Q 422 3509 836 4129 
Q 1250 4750 2034 4750 
z
" id="DejaVuSans-30" transform="scale(0.015625)"/>
      <path d="M 1147 4666 
L 1147 2931 
L 616 2931 
L 616 4666 
L 1147 4666 
z
" id="DejaVuSans-27" transform="scale(0.015625)"/>
      <path id="DejaVuSans-20" transform="scale(0.015625)"/>
      <path d="M 2522 4238 
Q 1834 4238 1429 3725 
Q 1025 3213 1025 2328 
Q 1025 1447 1429 934 
Q 1834 422 2522 422 
Q 3209 422 3611 934 
Q 4013 1447 4013 2328 
Q 4013 3213 3611 3725 
Q 3209 4238 2522 4238 
z
M 3406 84 
L 4238 -825 
L 3475 -825 
L 2784 -78 
Q 2681 -84 2626 -87 
Q 2572 -91 2522 -91 
Q 1538 -91 948 567 
Q 359 1225 359 2328 
Q 359 3434 948 4092 
Q 1538 4750 2522 4750 
Q 3503 4750 4090 4092 
Q 4678 3434 4678 2328 
Q 4678 1516 4351 937 
Q 4025 359 3406 84 
z
" id="DejaVuSans-51" transform="scale(0.015625)"/>
      <path d="M 544 1381 
L 544 3500 
L 1119 3500 
L 1119 1403 
Q 1119 906 1312 657 
Q 1506 409 1894 409 
Q 2359 409 2629 706 
Q 2900 1003 2900 1516 
L 2900 3500 
L 3475 3500 
L 3475 0 
L 2900 0 
L 2900 538 
Q 2691 219 2414 64 
Q 2138 -91 1772 -91 
Q 1169 -91 856 284 
Q 544 659 544 1381 
z
M 1991 3584 
L 1991 3584 
z
" id="DejaVuSans-75" transform="scale(0.015625)"/>
      <path d="M 2194 1759 
Q 1497 1759 1228 1600 
Q 959 1441 959 1056 
Q 959 750 1161 570 
Q 1363 391 1709 391 
Q 2188 391 2477 730 
Q 2766 1069 2766 1631 
L 2766 1759 
L 2194 1759 
z
M 3341 1997 
L 3341 0 
L 2766 0 
L 2766 531 
Q 2569 213 2275 61 
Q 1981 -91 1556 -91 
Q 1019 -91 701 211 
Q 384 513 384 1019 
Q 384 1609 779 1909 
Q 1175 2209 1959 2209 
L 2766 2209 
L 2766 2266 
Q 2766 2663 2505 2880 
Q 2244 3097 1772 3097 
Q 1472 3097 1187 3025 
Q 903 2953 641 2809 
L 641 3341 
Q 956 3463 1253 3523 
Q 1550 3584 1831 3584 
Q 2591 3584 2966 3190 
Q 3341 2797 3341 1997 
z
" id="DejaVuSans-61" transform="scale(0.015625)"/>
      <path d="M 2906 2969 
L 2906 4863 
L 3481 4863 
L 3481 0 
L 2906 0 
L 2906 525 
Q 2725 213 2448 61 
Q 2172 -91 1784 -91 
Q 1150 -91 751 415 
Q 353 922 353 1747 
Q 353 2572 751 3078 
Q 1150 3584 1784 3584 
Q 2172 3584 2448 3432 
Q 2725 3281 2906 2969 
z
M 947 1747 
Q 947 1113 1208 752 
Q 1469 391 1925 391 
Q 2381 391 2643 752 
Q 2906 1113 2906 1747 
Q 2906 2381 2643 2742 
Q 2381 3103 1925 3103 
Q 1469 3103 1208 2742 
Q 947 2381 947 1747 
z
" id="DejaVuSans-64" transform="scale(0.015625)"/>
      <path d="M 4122 4306 
L 4122 3641 
Q 3803 3938 3442 4084 
Q 3081 4231 2675 4231 
Q 1875 4231 1450 3742 
Q 1025 3253 1025 2328 
Q 1025 1406 1450 917 
Q 1875 428 2675 428 
Q 3081 428 3442 575 
Q 3803 722 4122 1019 
L 4122 359 
Q 3791 134 3420 21 
Q 3050 -91 2638 -91 
Q 1578 -91 968 557 
Q 359 1206 359 2328 
Q 359 3453 968 4101 
Q 1578 4750 2638 4750 
Q 3056 4750 3426 4639 
Q 3797 4528 4122 4306 
z
" id="DejaVuSans-43" transform="scale(0.015625)"/>
      <path d="M 3513 2113 
L 3513 0 
L 2938 0 
L 2938 2094 
Q 2938 2591 2744 2837 
Q 2550 3084 2163 3084 
Q 1697 3084 1428 2787 
Q 1159 2491 1159 1978 
L 1159 0 
L 581 0 
L 581 4863 
L 1159 4863 
L 1159 2956 
Q 1366 3272 1645 3428 
Q 1925 3584 2291 3584 
Q 2894 3584 3203 3211 
Q 3513 2838 3513 2113 
z
" id="DejaVuSans-68" transform="scale(0.015625)"/>
      <path d="M 603 3500 
L 1178 3500 
L 1178 0 
L 603 0 
L 603 3500 
z
M 603 4863 
L 1178 4863 
L 1178 4134 
L 603 4134 
L 603 4863 
z
" id="DejaVuSans-69" transform="scale(0.015625)"/>
      <path d="M 2631 2963 
Q 2534 3019 2420 3045 
Q 2306 3072 2169 3072 
Q 1681 3072 1420 2755 
Q 1159 2438 1159 1844 
L 1159 0 
L 581 0 
L 581 3500 
L 1159 3500 
L 1159 2956 
Q 1341 3275 1631 3429 
Q 1922 3584 2338 3584 
Q 2397 3584 2469 3576 
Q 2541 3569 2628 3553 
L 2631 2963 
z
" id="DejaVuSans-72" transform="scale(0.015625)"/>
      <path d="M 794 531 
L 1825 531 
L 1825 4091 
L 703 3866 
L 703 4441 
L 1819 4666 
L 2450 4666 
L 2450 531 
L 3481 531 
L 3481 0 
L 794 0 
L 794 531 
z
" id="DejaVuSans-31" transform="scale(0.015625)"/>
     </defs>
     <use xlink:href="#DejaVuSans-32"/>
     <use x="63.623047" xlink:href="#DejaVuSans-30"/>
     <use x="127.246094" xlink:href="#DejaVuSans-30"/>
     <use x="190.869141" xlink:href="#DejaVuSans-30"/>
     <use x="254.492188" xlink:href="#DejaVuSans-27"/>
     <use x="281.982422" xlink:href="#DejaVuSans-20"/>
     <use x="313.769531" xlink:href="#DejaVuSans-51"/>
     <use x="392.480469" xlink:href="#DejaVuSans-75"/>
     <use x="455.859375" xlink:href="#DejaVuSans-61"/>
     <use x="517.138672" xlink:href="#DejaVuSans-64"/>
     <use x="580.615234" xlink:href="#DejaVuSans-20"/>
     <use x="612.402344" xlink:href="#DejaVuSans-43"/>
     <use x="682.226562" xlink:href="#DejaVuSans-68"/>
     <use x="745.605469" xlink:href="#DejaVuSans-61"/>
     <use x="806.884766" xlink:href="#DejaVuSans-69"/>
     <use x="834.667969" xlink:href="#DejaVuSans-72"/>
     <use x="875.78125" xlink:href="#DejaVuSans-20"/>
     <use x="907.568359" xlink:href="#DejaVuSans-31"/>
    </g>
   </g>
   <g id="text_2">
    <g id="patch_3">
     <path d="M 17.174674 79.904793 
L 23.122733 59.541989 
L 21.226356 58.988049 
L 15.278297 79.350853 
z
" style="fill:#ffffff;"/>
    </g>
    <!-- 1600' Double Chair 2 -->
    <g style="fill:#808080;" transform="translate(16.761831 79.763364)rotate(-73.716699)scale(0.02 -0.02)">
     <defs>
      <path d="M 2113 2584 
Q 1688 2584 1439 2293 
Q 1191 2003 1191 1497 
Q 1191 994 1439 701 
Q 1688 409 2113 409 
Q 2538 409 2786 701 
Q 3034 994 3034 1497 
Q 3034 2003 2786 2293 
Q 2538 2584 2113 2584 
z
M 3366 4563 
L 3366 3988 
Q 3128 4100 2886 4159 
Q 2644 4219 2406 4219 
Q 1781 4219 1451 3797 
Q 1122 3375 1075 2522 
Q 1259 2794 1537 2939 
Q 1816 3084 2150 3084 
Q 2853 3084 3261 2657 
Q 3669 2231 3669 1497 
Q 3669 778 3244 343 
Q 2819 -91 2113 -91 
Q 1303 -91 875 529 
Q 447 1150 447 2328 
Q 447 3434 972 4092 
Q 1497 4750 2381 4750 
Q 2619 4750 2861 4703 
Q 3103 4656 3366 4563 
z
" id="DejaVuSans-36" transform="scale(0.015625)"/>
      <path d="M 1259 4147 
L 1259 519 
L 2022 519 
Q 2988 519 3436 956 
Q 3884 1394 3884 2338 
Q 3884 3275 3436 3711 
Q 2988 4147 2022 4147 
L 1259 4147 
z
M 628 4666 
L 1925 4666 
Q 3281 4666 3915 4102 
Q 4550 3538 4550 2338 
Q 4550 1131 3912 565 
Q 3275 0 1925 0 
L 628 0 
L 628 4666 
z
" id="DejaVuSans-44" transform="scale(0.015625)"/>
      <path d="M 1959 3097 
Q 1497 3097 1228 2736 
Q 959 2375 959 1747 
Q 959 1119 1226 758 
Q 1494 397 1959 397 
Q 2419 397 2687 759 
Q 2956 1122 2956 1747 
Q 2956 2369 2687 2733 
Q 2419 3097 1959 3097 
z
M 1959 3584 
Q 2709 3584 3137 3096 
Q 3566 2609 3566 1747 
Q 3566 888 3137 398 
Q 2709 -91 1959 -91 
Q 1206 -91 779 398 
Q 353 888 353 1747 
Q 353 2609 779 3096 
Q 1206 3584 1959 3584 
z
" id="DejaVuSans-6f" transform="scale(0.015625)"/>
      <path d="M 3116 1747 
Q 3116 2381 2855 2742 
Q 2594 3103 2138 3103 
Q 1681 3103 1420 2742 
Q 1159 2381 1159 1747 
Q 1159 1113 1420 752 
Q 1681 391 2138 391 
Q 2594 391 2855 752 
Q 3116 1113 3116 1747 
z
M 1159 2969 
Q 1341 3281 1617 3432 
Q 1894 3584 2278 3584 
Q 2916 3584 3314 3078 
Q 3713 2572 3713 1747 
Q 3713 922 3314 415 
Q 2916 -91 2278 -91 
Q 1894 -91 1617 61 
Q 1341 213 1159 525 
L 1159 0 
L 581 0 
L 581 4863 
L 1159 4863 
L 1159 2969 
z
" id="DejaVuSans-62" transform="scale(0.015625)"/>
      <path d="M 603 4863 
L 1178 4863 
L 1178 0 
L 603 0 
L 603 4863 
z
" id="DejaVuSans-6c" transform="scale(0.015625)"/>
      <path d="M 3597 1894 
L 3597 1613 
L 953 1613 
Q 991 1019 1311 708 
Q 1631 397 2203 397 
Q 2534 397 2845 478 
Q 3156 559 3463 722 
L 3463 178 
Q 3153 47 2828 -22 
Q 2503 -91 2169 -91 
Q 1331 -91 842 396 
Q 353 884 353 1716 
Q 353 2575 817 3079 
Q 1281 3584 2069 3584 
Q 2775 3584 3186 3129 
Q 3597 2675 3597 1894 
z
M 3022 2063 
Q 3016 2534 2758 2815 
Q 2500 3097 2075 3097 
Q 1594 3097 1305 2825 
Q 1016 2553 972 2059 
L 3022 2063 
z
" id="DejaVuSans-65" transform="scale(0.015625)"/>
     </defs>
     <use xlink:href="#DejaVuSans-31"/>
     <use x="63.623047" xlink:href="#DejaVuSans-36"/>
     <use x="127.246094" xlink:href="#DejaVuSans-30"/>
     <use x="190.869141" xlink:href="#DejaVuSans-30"/>
     <use x="254.492188" xlink:href="#DejaVuSans-27"/>
     <use x="281.982422" xlink:href="#DejaVuSans-20"/>
     <use x="313.769531" xlink:href="#DejaVuSans-44"/>
     <use x="390.771484" xlink:href="#DejaVuSans-6f"/>
     <use x="451.953125" xlink:href="#DejaVuSans-75"/>
     <use x="515.332031" xlink:href="#DejaVuSans-62"/>
     <use x="578.808594" xlink:href="#DejaVuSans-6c"/>
     <use x="606.591797" xlink:href="#DejaVuSans-65"/>
     <use x="668.115234" xlink:href="#DejaVuSans-20"/>
     <use x="699.902344" xlink:href="#DejaVuSans-43"/>
     <use x="769.726562" xlink:href="#DejaVuSans-68"/>
     <use x="833.105469" xlink:href="#DejaVuSans-61"/>
     <use x="894.384766" xlink:href="#DejaVuSans-69"/>
     <use x="922.167969" xlink:href="#DejaVuSans-72"/>
     <use x="963.28125" xlink:href="#DejaVuSans-20"/>
     <use x="995.068359" xlink:href="#DejaVuSans-32"/>
    </g>
   </g>
   <g id="text_3">
    <g id="patch_4">
     <path d="M 97.107827 95.137746 
L 108.2992 84.346153 
L 106.927855 82.924005 
L 95.736481 93.715598 
z
" style="fill:#ffffff;"/>
    </g>
    <!-- Easy Mile 13.1° -->
    <g style="fill:#008000;" transform="translate(96.819625 94.810055)rotate(-43.958138)scale(0.02 -0.02)">
     <defs>
      <path d="M 628 4666 
L 3578 4666 
L 3578 4134 
L 1259 4134 
L 1259 2753 
L 3481 2753 
L 3481 2222 
L 1259 2222 
L 1259 531 
L 3634 531 
L 3634 0 
L 628 0 
L 628 4666 
z
" id="DejaVuSans-45" transform="scale(0.015625)"/>
      <path d="M 2834 3397 
L 2834 2853 
Q 2591 2978 2328 3040 
Q 2066 3103 1784 3103 
Q 1356 3103 1142 2972 
Q 928 2841 928 2578 
Q 928 2378 1081 2264 
Q 1234 2150 1697 2047 
L 1894 2003 
Q 2506 1872 2764 1633 
Q 3022 1394 3022 966 
Q 3022 478 2636 193 
Q 2250 -91 1575 -91 
Q 1294 -91 989 -36 
Q 684 19 347 128 
L 347 722 
Q 666 556 975 473 
Q 1284 391 1588 391 
Q 1994 391 2212 530 
Q 2431 669 2431 922 
Q 2431 1156 2273 1281 
Q 2116 1406 1581 1522 
L 1381 1569 
Q 847 1681 609 1914 
Q 372 2147 372 2553 
Q 372 3047 722 3315 
Q 1072 3584 1716 3584 
Q 2034 3584 2315 3537 
Q 2597 3491 2834 3397 
z
" id="DejaVuSans-73" transform="scale(0.015625)"/>
      <path d="M 2059 -325 
Q 1816 -950 1584 -1140 
Q 1353 -1331 966 -1331 
L 506 -1331 
L 506 -850 
L 844 -850 
Q 1081 -850 1212 -737 
Q 1344 -625 1503 -206 
L 1606 56 
L 191 3500 
L 800 3500 
L 1894 763 
L 2988 3500 
L 3597 3500 
L 2059 -325 
z
" id="DejaVuSans-79" transform="scale(0.015625)"/>
      <path d="M 628 4666 
L 1569 4666 
L 2759 1491 
L 3956 4666 
L 4897 4666 
L 4897 0 
L 4281 0 
L 4281 4097 
L 3078 897 
L 2444 897 
L 1241 4097 
L 1241 0 
L 628 0 
L 628 4666 
z
" id="DejaVuSans-4d" transform="scale(0.015625)"/>
      <path d="M 2597 2516 
Q 3050 2419 3304 2112 
Q 3559 1806 3559 1356 
Q 3559 666 3084 287 
Q 2609 -91 1734 -91 
Q 1441 -91 1130 -33 
Q 819 25 488 141 
L 488 750 
Q 750 597 1062 519 
Q 1375 441 1716 441 
Q 2309 441 2620 675 
Q 2931 909 2931 1356 
Q 2931 1769 2642 2001 
Q 2353 2234 1838 2234 
L 1294 2234 
L 1294 2753 
L 1863 2753 
Q 2328 2753 2575 2939 
Q 2822 3125 2822 3475 
Q 2822 3834 2567 4026 
Q 2313 4219 1838 4219 
Q 1578 4219 1281 4162 
Q 984 4106 628 3988 
L 628 4550 
Q 988 4650 1302 4700 
Q 1616 4750 1894 4750 
Q 2613 4750 3031 4423 
Q 3450 4097 3450 3541 
Q 3450 3153 3228 2886 
Q 3006 2619 2597 2516 
z
" id="DejaVuSans-33" transform="scale(0.015625)"/>
      <path d="M 684 794 
L 1344 794 
L 1344 0 
L 684 0 
L 684 794 
z
" id="DejaVuSans-2e" transform="scale(0.015625)"/>
      <path d="M 1600 4347 
Q 1350 4347 1178 4173 
Q 1006 4000 1006 3750 
Q 1006 3503 1178 3333 
Q 1350 3163 1600 3163 
Q 1850 3163 2022 3333 
Q 2194 3503 2194 3750 
Q 2194 3997 2020 4172 
Q 1847 4347 1600 4347 
z
M 1600 4750 
Q 1800 4750 1984 4673 
Q 2169 4597 2303 4453 
Q 2447 4313 2519 4134 
Q 2591 3956 2591 3750 
Q 2591 3338 2302 3052 
Q 2013 2766 1594 2766 
Q 1172 2766 890 3047 
Q 609 3328 609 3750 
Q 609 4169 896 4459 
Q 1184 4750 1600 4750 
z
" id="DejaVuSans-b0" transform="scale(0.015625)"/>
     </defs>
     <use xlink:href="#DejaVuSans-45"/>
     <use x="63.183594" xlink:href="#DejaVuSans-61"/>
     <use x="124.462891" xlink:href="#DejaVuSans-73"/>
     <use x="176.5625" xlink:href="#DejaVuSans-79"/>
     <use x="235.742188" xlink:href="#DejaVuSans-20"/>
     <use x="267.529297" xlink:href="#DejaVuSans-4d"/>
     <use x="353.808594" xlink:href="#DejaVuSans-69"/>
     <use x="381.591797" xlink:href="#DejaVuSans-6c"/>
     <use x="409.375" xlink:href="#DejaVuSans-65"/>
     <use x="470.898438" xlink:href="#DejaVuSans-20"/>
     <use x="502.685547" xlink:href="#DejaVuSans-31"/>
     <use x="566.308594" xlink:href="#DejaVuSans-33"/>
     <use x="629.931641" xlink:href="#DejaVuSans-2e"/>
     <use x="661.71875" xlink:href="#DejaVuSans-31"/>
     <use x="725.341797" xlink:href="#DejaVuSans-b0"/>
    </g>
   </g>
   <g id="text_4">
    <g id="patch_5">
     <path d="M 101.433845 54.532121 
L 103.006803 73.275924 
L 104.975508 73.110712 
L 103.40255 54.366909 
z
" style="fill:#ffffff;"/>
    </g>
    <!-- Perley's Peril 20.0° -->
    <g style="fill:#4169e1;" transform="translate(101.869928 54.515595)rotate(-274.796954)scale(0.02 -0.02)">
     <defs>
      <path d="M 1259 4147 
L 1259 2394 
L 2053 2394 
Q 2494 2394 2734 2622 
Q 2975 2850 2975 3272 
Q 2975 3691 2734 3919 
Q 2494 4147 2053 4147 
L 1259 4147 
z
M 628 4666 
L 2053 4666 
Q 2838 4666 3239 4311 
Q 3641 3956 3641 3272 
Q 3641 2581 3239 2228 
Q 2838 1875 2053 1875 
L 1259 1875 
L 1259 0 
L 628 0 
L 628 4666 
z
" id="DejaVuSans-50" transform="scale(0.015625)"/>
     </defs>
     <use xlink:href="#DejaVuSans-50"/>
     <use x="56.677734" xlink:href="#DejaVuSans-65"/>
     <use x="118.201172" xlink:href="#DejaVuSans-72"/>
     <use x="159.314453" xlink:href="#DejaVuSans-6c"/>
     <use x="187.097656" xlink:href="#DejaVuSans-65"/>
     <use x="248.621094" xlink:href="#DejaVuSans-79"/>
     <use x="307.800781" xlink:href="#DejaVuSans-27"/>
     <use x="335.291016" xlink:href="#DejaVuSans-73"/>
     <use x="387.390625" xlink:href="#DejaVuSans-20"/>
     <use x="419.177734" xlink:href="#DejaVuSans-50"/>
     <use x="475.855469" xlink:href="#DejaVuSans-65"/>
     <use x="537.378906" xlink:href="#DejaVuSans-72"/>
     <use x="578.492188" xlink:href="#DejaVuSans-69"/>
     <use x="606.275391" xlink:href="#DejaVuSans-6c"/>
     <use x="634.058594" xlink:href="#DejaVuSans-20"/>
     <use x="665.845703" xlink:href="#DejaVuSans-32"/>
     <use x="729.46875" xlink:href="#DejaVuSans-30"/>
     <use x="793.091797" xlink:href="#DejaVuSans-2e"/>
     <use x="824.878906" xlink:href="#DejaVuSans-30"/>
     <use x="888.501953" xlink:href="#DejaVuSans-b0"/>
    </g>
   </g>
   <g id="text_5">
    <g id="patch_6">
     <path d="M 84.501152 64.933378 
L 96.507465 86.667979 
L 98.23678 85.712696 
L 86.230467 63.978095 
z
" style="fill:#ffffff;"/>
    </g>
    <!-- Bunny's Boulevard 19.1° -->
    <g style="fill:#4169e1;" transform="translate(84.89241 64.740093)rotate(-298.916502)scale(0.02 -0.02)">
     <defs>
      <path d="M 1259 2228 
L 1259 519 
L 2272 519 
Q 2781 519 3026 730 
Q 3272 941 3272 1375 
Q 3272 1813 3026 2020 
Q 2781 2228 2272 2228 
L 1259 2228 
z
M 1259 4147 
L 1259 2741 
L 2194 2741 
Q 2656 2741 2882 2914 
Q 3109 3088 3109 3444 
Q 3109 3797 2882 3972 
Q 2656 4147 2194 4147 
L 1259 4147 
z
M 628 4666 
L 2241 4666 
Q 2963 4666 3353 4366 
Q 3744 4066 3744 3513 
Q 3744 3084 3544 2831 
Q 3344 2578 2956 2516 
Q 3422 2416 3680 2098 
Q 3938 1781 3938 1306 
Q 3938 681 3513 340 
Q 3088 0 2303 0 
L 628 0 
L 628 4666 
z
" id="DejaVuSans-42" transform="scale(0.015625)"/>
      <path d="M 3513 2113 
L 3513 0 
L 2938 0 
L 2938 2094 
Q 2938 2591 2744 2837 
Q 2550 3084 2163 3084 
Q 1697 3084 1428 2787 
Q 1159 2491 1159 1978 
L 1159 0 
L 581 0 
L 581 3500 
L 1159 3500 
L 1159 2956 
Q 1366 3272 1645 3428 
Q 1925 3584 2291 3584 
Q 2894 3584 3203 3211 
Q 3513 2838 3513 2113 
z
" id="DejaVuSans-6e" transform="scale(0.015625)"/>
      <path d="M 191 3500 
L 800 3500 
L 1894 563 
L 2988 3500 
L 3597 3500 
L 2284 0 
L 1503 0 
L 191 3500 
z
" id="DejaVuSans-76" transform="scale(0.015625)"/>
      <path d="M 703 97 
L 703 672 
Q 941 559 1184 500 
Q 1428 441 1663 441 
Q 2288 441 2617 861 
Q 2947 1281 2994 2138 
Q 2813 1869 2534 1725 
Q 2256 1581 1919 1581 
Q 1219 1581 811 2004 
Q 403 2428 403 3163 
Q 403 3881 828 4315 
Q 1253 4750 1959 4750 
Q 2769 4750 3195 4129 
Q 3622 3509 3622 2328 
Q 3622 1225 3098 567 
Q 2575 -91 1691 -91 
Q 1453 -91 1209 -44 
Q 966 3 703 97 
z
M 1959 2075 
Q 2384 2075 2632 2365 
Q 2881 2656 2881 3163 
Q 2881 3666 2632 3958 
Q 2384 4250 1959 4250 
Q 1534 4250 1286 3958 
Q 1038 3666 1038 3163 
Q 1038 2656 1286 2365 
Q 1534 2075 1959 2075 
z
" id="DejaVuSans-39" transform="scale(0.015625)"/>
     </defs>
     <use xlink:href="#DejaVuSans-42"/>
     <use x="68.603516" xlink:href="#DejaVuSans-75"/>
     <use x="131.982422" xlink:href="#DejaVuSans-6e"/>
     <use x="195.361328" xlink:href="#DejaVuSans-6e"/>
     <use x="258.740234" xlink:href="#DejaVuSans-79"/>
     <use x="317.919922" xlink:href="#DejaVuSans-27"/>
     <use x="345.410156" xlink:href="#DejaVuSans-73"/>
     <use x="397.509766" xlink:href="#DejaVuSans-20"/>
     <use x="429.296875" xlink:href="#DejaVuSans-42"/>
     <use x="497.900391" xlink:href="#DejaVuSans-6f"/>
     <use x="559.082031" xlink:href="#DejaVuSans-75"/>
     <use x="622.460938" xlink:href="#DejaVuSans-6c"/>
     <use x="650.244141" xlink:href="#DejaVuSans-65"/>
     <use x="711.767578" xlink:href="#DejaVuSans-76"/>
     <use x="770.947266" xlink:href="#DejaVuSans-61"/>
     <use x="832.226562" xlink:href="#DejaVuSans-72"/>
     <use x="871.589844" xlink:href="#DejaVuSans-64"/>
     <use x="935.066406" xlink:href="#DejaVuSans-20"/>
     <use x="966.853516" xlink:href="#DejaVuSans-31"/>
     <use x="1030.476562" xlink:href="#DejaVuSans-39"/>
     <use x="1094.099609" xlink:href="#DejaVuSans-2e"/>
     <use x="1125.886719" xlink:href="#DejaVuSans-31"/>
     <use x="1189.509766" xlink:href="#DejaVuSans-b0"/>
    </g>
   </g>
   <g id="text_6">
    <g id="patch_7">
     <path d="M 96.166955 60.939066 
L 97.597069 77.19158 
L 99.56509 77.018407 
L 98.134975 60.765894 
z
" style="fill:#ffffff;"/>
    </g>
    <!-- The Glade 21.5° -->
    <g transform="translate(96.602967 60.920777)rotate(-275.0287)scale(0.02 -0.02)">
     <defs>
      <path d="M -19 4666 
L 3928 4666 
L 3928 4134 
L 2272 4134 
L 2272 0 
L 1638 0 
L 1638 4134 
L -19 4134 
L -19 4666 
z
" id="DejaVuSans-54" transform="scale(0.015625)"/>
      <path d="M 3809 666 
L 3809 1919 
L 2778 1919 
L 2778 2438 
L 4434 2438 
L 4434 434 
Q 4069 175 3628 42 
Q 3188 -91 2688 -91 
Q 1594 -91 976 548 
Q 359 1188 359 2328 
Q 359 3472 976 4111 
Q 1594 4750 2688 4750 
Q 3144 4750 3555 4637 
Q 3966 4525 4313 4306 
L 4313 3634 
Q 3963 3931 3569 4081 
Q 3175 4231 2741 4231 
Q 1884 4231 1454 3753 
Q 1025 3275 1025 2328 
Q 1025 1384 1454 906 
Q 1884 428 2741 428 
Q 3075 428 3337 486 
Q 3600 544 3809 666 
z
" id="DejaVuSans-47" transform="scale(0.015625)"/>
      <path d="M 691 4666 
L 3169 4666 
L 3169 4134 
L 1269 4134 
L 1269 2991 
Q 1406 3038 1543 3061 
Q 1681 3084 1819 3084 
Q 2600 3084 3056 2656 
Q 3513 2228 3513 1497 
Q 3513 744 3044 326 
Q 2575 -91 1722 -91 
Q 1428 -91 1123 -41 
Q 819 9 494 109 
L 494 744 
Q 775 591 1075 516 
Q 1375 441 1709 441 
Q 2250 441 2565 725 
Q 2881 1009 2881 1497 
Q 2881 1984 2565 2268 
Q 2250 2553 1709 2553 
Q 1456 2553 1204 2497 
Q 953 2441 691 2322 
L 691 4666 
z
" id="DejaVuSans-35" transform="scale(0.015625)"/>
     </defs>
     <use xlink:href="#DejaVuSans-54"/>
     <use x="61.083984" xlink:href="#DejaVuSans-68"/>
     <use x="124.462891" xlink:href="#DejaVuSans-65"/>
     <use x="185.986328" xlink:href="#DejaVuSans-20"/>
     <use x="217.773438" xlink:href="#DejaVuSans-47"/>
     <use x="295.263672" xlink:href="#DejaVuSans-6c"/>
     <use x="323.046875" xlink:href="#DejaVuSans-61"/>
     <use x="384.326172" xlink:href="#DejaVuSans-64"/>
     <use x="447.802734" xlink:href="#DejaVuSans-65"/>
     <use x="509.326172" xlink:href="#DejaVuSans-20"/>
     <use x="541.113281" xlink:href="#DejaVuSans-32"/>
     <use x="604.736328" xlink:href="#DejaVuSans-31"/>
     <use x="668.359375" xlink:href="#DejaVuSans-2e"/>
     <use x="700.146484" xlink:href="#DejaVuSans-35"/>
     <use x="763.769531" xlink:href="#DejaVuSans-b0"/>
    </g>
   </g>
   <g id="text_7">
    <g id="patch_8">
     <path d="M 82.394592 60.596568 
L 86.108168 76.112092 
L 88.029526 75.652223 
L 84.315949 60.136699 
z
" style="fill:#ffffff;"/>
    </g>
    <!-- Porcupine 18.9° -->
    <g style="fill:#4169e1;" transform="translate(82.82321 60.514545)rotate(-283.460291)scale(0.02 -0.02)">
     <defs>
      <path d="M 3122 3366 
L 3122 2828 
Q 2878 2963 2633 3030 
Q 2388 3097 2138 3097 
Q 1578 3097 1268 2742 
Q 959 2388 959 1747 
Q 959 1106 1268 751 
Q 1578 397 2138 397 
Q 2388 397 2633 464 
Q 2878 531 3122 666 
L 3122 134 
Q 2881 22 2623 -34 
Q 2366 -91 2075 -91 
Q 1284 -91 818 406 
Q 353 903 353 1747 
Q 353 2603 823 3093 
Q 1294 3584 2113 3584 
Q 2378 3584 2631 3529 
Q 2884 3475 3122 3366 
z
" id="DejaVuSans-63" transform="scale(0.015625)"/>
      <path d="M 1159 525 
L 1159 -1331 
L 581 -1331 
L 581 3500 
L 1159 3500 
L 1159 2969 
Q 1341 3281 1617 3432 
Q 1894 3584 2278 3584 
Q 2916 3584 3314 3078 
Q 3713 2572 3713 1747 
Q 3713 922 3314 415 
Q 2916 -91 2278 -91 
Q 1894 -91 1617 61 
Q 1341 213 1159 525 
z
M 3116 1747 
Q 3116 2381 2855 2742 
Q 2594 3103 2138 3103 
Q 1681 3103 1420 2742 
Q 1159 2381 1159 1747 
Q 1159 1113 1420 752 
Q 1681 391 2138 391 
Q 2594 391 2855 752 
Q 3116 1113 3116 1747 
z
" id="DejaVuSans-70" transform="scale(0.015625)"/>
      <path d="M 2034 2216 
Q 1584 2216 1326 1975 
Q 1069 1734 1069 1313 
Q 1069 891 1326 650 
Q 1584 409 2034 409 
Q 2484 409 2743 651 
Q 3003 894 3003 1313 
Q 3003 1734 2745 1975 
Q 2488 2216 2034 2216 
z
M 1403 2484 
Q 997 2584 770 2862 
Q 544 3141 544 3541 
Q 544 4100 942 4425 
Q 1341 4750 2034 4750 
Q 2731 4750 3128 4425 
Q 3525 4100 3525 3541 
Q 3525 3141 3298 2862 
Q 3072 2584 2669 2484 
Q 3125 2378 3379 2068 
Q 3634 1759 3634 1313 
Q 3634 634 3220 271 
Q 2806 -91 2034 -91 
Q 1263 -91 848 271 
Q 434 634 434 1313 
Q 434 1759 690 2068 
Q 947 2378 1403 2484 
z
M 1172 3481 
Q 1172 3119 1398 2916 
Q 1625 2713 2034 2713 
Q 2441 2713 2670 2916 
Q 2900 3119 2900 3481 
Q 2900 3844 2670 4047 
Q 2441 4250 2034 4250 
Q 1625 4250 1398 4047 
Q 1172 3844 1172 3481 
z
" id="DejaVuSans-38" transform="scale(0.015625)"/>
     </defs>
     <use xlink:href="#DejaVuSans-50"/>
     <use x="56.677734" xlink:href="#DejaVuSans-6f"/>
     <use x="117.859375" xlink:href="#DejaVuSans-72"/>
     <use x="156.722656" xlink:href="#DejaVuSans-63"/>
     <use x="211.703125" xlink:href="#DejaVuSans-75"/>
     <use x="275.082031" xlink:href="#DejaVuSans-70"/>
     <use x="338.558594" xlink:href="#DejaVuSans-69"/>
     <use x="366.341797" xlink:href="#DejaVuSans-6e"/>
     <use x="429.720703" xlink:href="#DejaVuSans-65"/>
     <use x="491.244141" xlink:href="#DejaVuSans-20"/>
     <use x="523.03125" xlink:href="#DejaVuSans-31"/>
     <use x="586.654297" xlink:href="#DejaVuSans-38"/>
     <use x="650.277344" xlink:href="#DejaVuSans-2e"/>
     <use x="682.064453" xlink:href="#DejaVuSans-39"/>
     <use x="745.6875" xlink:href="#DejaVuSans-b0"/>
    </g>
   </g>
   <g id="text_8">
    <g id="patch_9">
     <path d="M 64.306514 99.386793 
L 77.450535 101.262538 
L 77.729643 99.306728 
L 64.585622 97.430983 
z
" style="fill:#ffffff;"/>
    </g>
    <!-- Skyline 19.8° -->
    <g style="fill:#4169e1;" transform="translate(64.387901 98.958053)rotate(-351.878323)scale(0.02 -0.02)">
     <defs>
      <path d="M 3425 4513 
L 3425 3897 
Q 3066 4069 2747 4153 
Q 2428 4238 2131 4238 
Q 1616 4238 1336 4038 
Q 1056 3838 1056 3469 
Q 1056 3159 1242 3001 
Q 1428 2844 1947 2747 
L 2328 2669 
Q 3034 2534 3370 2195 
Q 3706 1856 3706 1288 
Q 3706 609 3251 259 
Q 2797 -91 1919 -91 
Q 1588 -91 1214 -16 
Q 841 59 441 206 
L 441 856 
Q 825 641 1194 531 
Q 1563 422 1919 422 
Q 2459 422 2753 634 
Q 3047 847 3047 1241 
Q 3047 1584 2836 1778 
Q 2625 1972 2144 2069 
L 1759 2144 
Q 1053 2284 737 2584 
Q 422 2884 422 3419 
Q 422 4038 858 4394 
Q 1294 4750 2059 4750 
Q 2388 4750 2728 4690 
Q 3069 4631 3425 4513 
z
" id="DejaVuSans-53" transform="scale(0.015625)"/>
      <path d="M 581 4863 
L 1159 4863 
L 1159 1991 
L 2875 3500 
L 3609 3500 
L 1753 1863 
L 3688 0 
L 2938 0 
L 1159 1709 
L 1159 0 
L 581 0 
L 581 4863 
z
" id="DejaVuSans-6b" transform="scale(0.015625)"/>
     </defs>
     <use xlink:href="#DejaVuSans-53"/>
     <use x="63.476562" xlink:href="#DejaVuSans-6b"/>
     <use x="117.761719" xlink:href="#DejaVuSans-79"/>
     <use x="176.941406" xlink:href="#DejaVuSans-6c"/>
     <use x="204.724609" xlink:href="#DejaVuSans-69"/>
     <use x="232.507812" xlink:href="#DejaVuSans-6e"/>
     <use x="295.886719" xlink:href="#DejaVuSans-65"/>
     <use x="357.410156" xlink:href="#DejaVuSans-20"/>
     <use x="389.197266" xlink:href="#DejaVuSans-31"/>
     <use x="452.820312" xlink:href="#DejaVuSans-39"/>
     <use x="516.443359" xlink:href="#DejaVuSans-2e"/>
     <use x="548.230469" xlink:href="#DejaVuSans-38"/>
     <use x="611.853516" xlink:href="#DejaVuSans-b0"/>
    </g>
   </g>
   <g id="text_9">
    <g id="patch_10">
     <path d="M 59.299535 86.869737 
L 77.118283 75.307604 
L 76.042902 73.650302 
L 58.224154 85.212435 
z
" style="fill:#ffffff;"/>
    </g>
    <!-- Back Scratcher 32.3° -->
    <g style="fill:#ff0000;" transform="translate(59.079021 86.493154)rotate(-32.978515)scale(0.02 -0.02)">
     <defs>
      <path d="M 1172 4494 
L 1172 3500 
L 2356 3500 
L 2356 3053 
L 1172 3053 
L 1172 1153 
Q 1172 725 1289 603 
Q 1406 481 1766 481 
L 2356 481 
L 2356 0 
L 1766 0 
Q 1100 0 847 248 
Q 594 497 594 1153 
L 594 3053 
L 172 3053 
L 172 3500 
L 594 3500 
L 594 4494 
L 1172 4494 
z
" id="DejaVuSans-74" transform="scale(0.015625)"/>
     </defs>
     <use xlink:href="#DejaVuSans-42"/>
     <use x="68.603516" xlink:href="#DejaVuSans-61"/>
     <use x="129.882812" xlink:href="#DejaVuSans-63"/>
     <use x="184.863281" xlink:href="#DejaVuSans-6b"/>
     <use x="242.773438" xlink:href="#DejaVuSans-20"/>
     <use x="274.560547" xlink:href="#DejaVuSans-53"/>
     <use x="338.037109" xlink:href="#DejaVuSans-63"/>
     <use x="393.017578" xlink:href="#DejaVuSans-72"/>
     <use x="434.130859" xlink:href="#DejaVuSans-61"/>
     <use x="495.410156" xlink:href="#DejaVuSans-74"/>
     <use x="534.619141" xlink:href="#DejaVuSans-63"/>
     <use x="589.599609" xlink:href="#DejaVuSans-68"/>
     <use x="652.978516" xlink:href="#DejaVuSans-65"/>
     <use x="714.501953" xlink:href="#DejaVuSans-72"/>
     <use x="755.615234" xlink:href="#DejaVuSans-20"/>
     <use x="787.402344" xlink:href="#DejaVuSans-33"/>
     <use x="851.025391" xlink:href="#DejaVuSans-32"/>
     <use x="914.648438" xlink:href="#DejaVuSans-2e"/>
     <use x="946.435547" xlink:href="#DejaVuSans-33"/>
     <use x="1010.058594" xlink:href="#DejaVuSans-b0"/>
    </g>
   </g>
   <g id="text_10">
    <g id="patch_11">
     <path d="M 64.100991 59.756767 
L 75.333935 49.60075 
L 74.008973 48.135291 
L 62.776029 58.291308 
z
" style="fill:#ffffff;"/>
    </g>
    <!-- Show Off 30.8° -->
    <g style="fill:#ff0000;" transform="translate(63.823463 59.419989)rotate(-42.117612)scale(0.02 -0.02)">
     <defs>
      <path d="M 269 3500 
L 844 3500 
L 1563 769 
L 2278 3500 
L 2956 3500 
L 3675 769 
L 4391 3500 
L 4966 3500 
L 4050 0 
L 3372 0 
L 2619 2869 
L 1863 0 
L 1184 0 
L 269 3500 
z
" id="DejaVuSans-77" transform="scale(0.015625)"/>
      <path d="M 2522 4238 
Q 1834 4238 1429 3725 
Q 1025 3213 1025 2328 
Q 1025 1447 1429 934 
Q 1834 422 2522 422 
Q 3209 422 3611 934 
Q 4013 1447 4013 2328 
Q 4013 3213 3611 3725 
Q 3209 4238 2522 4238 
z
M 2522 4750 
Q 3503 4750 4090 4092 
Q 4678 3434 4678 2328 
Q 4678 1225 4090 567 
Q 3503 -91 2522 -91 
Q 1538 -91 948 565 
Q 359 1222 359 2328 
Q 359 3434 948 4092 
Q 1538 4750 2522 4750 
z
" id="DejaVuSans-4f" transform="scale(0.015625)"/>
      <path d="M 2375 4863 
L 2375 4384 
L 1825 4384 
Q 1516 4384 1395 4259 
Q 1275 4134 1275 3809 
L 1275 3500 
L 2222 3500 
L 2222 3053 
L 1275 3053 
L 1275 0 
L 697 0 
L 697 3053 
L 147 3053 
L 147 3500 
L 697 3500 
L 697 3744 
Q 697 4328 969 4595 
Q 1241 4863 1831 4863 
L 2375 4863 
z
" id="DejaVuSans-66" transform="scale(0.015625)"/>
     </defs>
     <use xlink:href="#DejaVuSans-53"/>
     <use x="63.476562" xlink:href="#DejaVuSans-68"/>
     <use x="126.855469" xlink:href="#DejaVuSans-6f"/>
     <use x="188.037109" xlink:href="#DejaVuSans-77"/>
     <use x="269.824219" xlink:href="#DejaVuSans-20"/>
     <use x="301.611328" xlink:href="#DejaVuSans-4f"/>
     <use x="380.322266" xlink:href="#DejaVuSans-66"/>
     <use x="415.527344" xlink:href="#DejaVuSans-66"/>
     <use x="450.732422" xlink:href="#DejaVuSans-20"/>
     <use x="482.519531" xlink:href="#DejaVuSans-33"/>
     <use x="546.142578" xlink:href="#DejaVuSans-30"/>
     <use x="609.765625" xlink:href="#DejaVuSans-2e"/>
     <use x="641.552734" xlink:href="#DejaVuSans-38"/>
     <use x="705.175781" xlink:href="#DejaVuSans-b0"/>
    </g>
   </g>
   <g id="text_11">
    <g id="patch_12">
     <path d="M 35.053526 84.898365 
L 45.094516 73.744309 
L 43.626198 72.422515 
L 33.585208 83.576571 
z
" style="fill:#ffffff;"/>
    </g>
    <!-- The Face 26.2° -->
    <g transform="translate(34.742911 84.591836)rotate(-48.006148)scale(0.02 -0.02)">
     <defs>
      <path d="M 628 4666 
L 3309 4666 
L 3309 4134 
L 1259 4134 
L 1259 2759 
L 3109 2759 
L 3109 2228 
L 1259 2228 
L 1259 0 
L 628 0 
L 628 4666 
z
" id="DejaVuSans-46" transform="scale(0.015625)"/>
     </defs>
     <use xlink:href="#DejaVuSans-54"/>
     <use x="61.083984" xlink:href="#DejaVuSans-68"/>
     <use x="124.462891" xlink:href="#DejaVuSans-65"/>
     <use x="185.986328" xlink:href="#DejaVuSans-20"/>
     <use x="217.773438" xlink:href="#DejaVuSans-46"/>
     <use x="266.167969" xlink:href="#DejaVuSans-61"/>
     <use x="327.447266" xlink:href="#DejaVuSans-63"/>
     <use x="382.427734" xlink:href="#DejaVuSans-65"/>
     <use x="443.951172" xlink:href="#DejaVuSans-20"/>
     <use x="475.738281" xlink:href="#DejaVuSans-32"/>
     <use x="539.361328" xlink:href="#DejaVuSans-36"/>
     <use x="602.984375" xlink:href="#DejaVuSans-2e"/>
     <use x="634.771484" xlink:href="#DejaVuSans-32"/>
     <use x="698.394531" xlink:href="#DejaVuSans-b0"/>
    </g>
   </g>
   <g id="text_12">
    <g id="patch_13">
     <path d="M 52.030049 60.259714 
L 62.566181 49.688737 
L 61.166898 48.294068 
L 50.630767 58.865045 
z
" style="fill:#ffffff;"/>
    </g>
    <!-- Mid-Face 29.4° -->
    <g transform="translate(51.735405 59.937804)rotate(-45.09459)scale(0.02 -0.02)">
     <defs>
      <path d="M 313 2009 
L 1997 2009 
L 1997 1497 
L 313 1497 
L 313 2009 
z
" id="DejaVuSans-2d" transform="scale(0.015625)"/>
      <path d="M 2419 4116 
L 825 1625 
L 2419 1625 
L 2419 4116 
z
M 2253 4666 
L 3047 4666 
L 3047 1625 
L 3713 1625 
L 3713 1100 
L 3047 1100 
L 3047 0 
L 2419 0 
L 2419 1100 
L 313 1100 
L 313 1709 
L 2253 4666 
z
" id="DejaVuSans-34" transform="scale(0.015625)"/>
     </defs>
     <use xlink:href="#DejaVuSans-4d"/>
     <use x="86.279297" xlink:href="#DejaVuSans-69"/>
     <use x="114.0625" xlink:href="#DejaVuSans-64"/>
     <use x="177.539062" xlink:href="#DejaVuSans-2d"/>
     <use x="213.623047" xlink:href="#DejaVuSans-46"/>
     <use x="262.017578" xlink:href="#DejaVuSans-61"/>
     <use x="323.296875" xlink:href="#DejaVuSans-63"/>
     <use x="378.277344" xlink:href="#DejaVuSans-65"/>
     <use x="439.800781" xlink:href="#DejaVuSans-20"/>
     <use x="471.587891" xlink:href="#DejaVuSans-32"/>
     <use x="535.210938" xlink:href="#DejaVuSans-39"/>
     <use x="598.833984" xlink:href="#DejaVuSans-2e"/>
     <use x="630.621094" xlink:href="#DejaVuSans-34"/>
     <use x="694.244141" xlink:href="#DejaVuSans-b0"/>
    </g>
   </g>
   <g id="text_13">
    <g id="patch_14">
     <path d="M 37.161491 52.751874 
L 44.150991 41.626883 
L 42.478128 40.575873 
L 35.488627 51.700864 
z
" style="fill:#ffffff;"/>
    </g>
    <!-- Crystal 22.9° -->
    <g style="fill:#4169e1;" transform="translate(36.803 52.503025)rotate(-57.860077)scale(0.02 -0.02)">
     <use xlink:href="#DejaVuSans-43"/>
     <use x="69.824219" xlink:href="#DejaVuSans-72"/>
     <use x="110.9375" xlink:href="#DejaVuSans-79"/>
     <use x="170.117188" xlink:href="#DejaVuSans-73"/>
     <use x="222.216797" xlink:href="#DejaVuSans-74"/>
     <use x="261.425781" xlink:href="#DejaVuSans-61"/>
     <use x="322.705078" xlink:href="#DejaVuSans-6c"/>
     <use x="350.488281" xlink:href="#DejaVuSans-20"/>
     <use x="382.275391" xlink:href="#DejaVuSans-32"/>
     <use x="445.898438" xlink:href="#DejaVuSans-32"/>
     <use x="509.521484" xlink:href="#DejaVuSans-2e"/>
     <use x="541.308594" xlink:href="#DejaVuSans-39"/>
     <use x="604.931641" xlink:href="#DejaVuSans-b0"/>
    </g>
   </g>
   <g id="text_14">
    <g id="patch_15">
     <path d="M 66.018928 21.504931 
L 73.643781 35.110247 
L 75.367208 34.144383 
L 67.742355 20.539067 
z
" style="fill:#ffffff;"/>
    </g>
    <!-- The Gully 17.8° -->
    <g style="fill:#4169e1;" transform="translate(66.408994 21.309252)rotate(-299.267661)scale(0.02 -0.02)">
     <defs>
      <path d="M 525 4666 
L 3525 4666 
L 3525 4397 
L 1831 0 
L 1172 0 
L 2766 4134 
L 525 4134 
L 525 4666 
z
" id="DejaVuSans-37" transform="scale(0.015625)"/>
     </defs>
     <use xlink:href="#DejaVuSans-54"/>
     <use x="61.083984" xlink:href="#DejaVuSans-68"/>
     <use x="124.462891" xlink:href="#DejaVuSans-65"/>
     <use x="185.986328" xlink:href="#DejaVuSans-20"/>
     <use x="217.773438" xlink:href="#DejaVuSans-47"/>
     <use x="295.263672" xlink:href="#DejaVuSans-75"/>
     <use x="358.642578" xlink:href="#DejaVuSans-6c"/>
     <use x="386.425781" xlink:href="#DejaVuSans-6c"/>
     <use x="414.208984" xlink:href="#DejaVuSans-79"/>
     <use x="473.388672" xlink:href="#DejaVuSans-20"/>
     <use x="505.175781" xlink:href="#DejaVuSans-31"/>
     <use x="568.798828" xlink:href="#DejaVuSans-37"/>
     <use x="632.421875" xlink:href="#DejaVuSans-2e"/>
     <use x="664.208984" xlink:href="#DejaVuSans-38"/>
     <use x="727.832031" xlink:href="#DejaVuSans-b0"/>
    </g>
   </g>
   <g id="text_15">
    <g id="patch_16">
     <path d="M 26.780966 54.562154 
L 27.782237 71.265609 
L 29.754322 71.147394 
L 28.753051 54.44394 
z
" style="fill:#ffffff;"/>
    </g>
    <!-- Laskey Lot 15.0° -->
    <g style="fill:#008000;" transform="translate(27.217319 54.556034)rotate(-273.430432)scale(0.02 -0.02)">
     <defs>
      <path d="M 628 4666 
L 1259 4666 
L 1259 531 
L 3531 531 
L 3531 0 
L 628 0 
L 628 4666 
z
" id="DejaVuSans-4c" transform="scale(0.015625)"/>
     </defs>
     <use xlink:href="#DejaVuSans-4c"/>
     <use x="55.712891" xlink:href="#DejaVuSans-61"/>
     <use x="116.992188" xlink:href="#DejaVuSans-73"/>
     <use x="169.091797" xlink:href="#DejaVuSans-6b"/>
     <use x="223.376953" xlink:href="#DejaVuSans-65"/>
     <use x="284.900391" xlink:href="#DejaVuSans-79"/>
     <use x="344.080078" xlink:href="#DejaVuSans-20"/>
     <use x="375.867188" xlink:href="#DejaVuSans-4c"/>
     <use x="429.830078" xlink:href="#DejaVuSans-6f"/>
     <use x="491.011719" xlink:href="#DejaVuSans-74"/>
     <use x="530.220703" xlink:href="#DejaVuSans-20"/>
     <use x="562.007812" xlink:href="#DejaVuSans-31"/>
     <use x="625.630859" xlink:href="#DejaVuSans-35"/>
     <use x="689.253906" xlink:href="#DejaVuSans-2e"/>
     <use x="721.041016" xlink:href="#DejaVuSans-30"/>
     <use x="784.664062" xlink:href="#DejaVuSans-b0"/>
    </g>
   </g>
   <g id="text_16">
    <g id="patch_17">
     <path d="M 10.304388 38.790199 
L 23.233201 29.145372 
L 22.051889 27.561833 
L 9.123076 37.20666 
z
" style="fill:#ffffff;"/>
    </g>
    <!-- Milky Way 15.9° -->
    <g style="fill:#008000;" transform="translate(10.059753 38.42882)rotate(-36.722746)scale(0.02 -0.02)">
     <defs>
      <path d="M 213 4666 
L 850 4666 
L 1831 722 
L 2809 4666 
L 3519 4666 
L 4500 722 
L 5478 4666 
L 6119 4666 
L 4947 0 
L 4153 0 
L 3169 4050 
L 2175 0 
L 1381 0 
L 213 4666 
z
" id="DejaVuSans-57" transform="scale(0.015625)"/>
     </defs>
     <use xlink:href="#DejaVuSans-4d"/>
     <use x="86.279297" xlink:href="#DejaVuSans-69"/>
     <use x="114.0625" xlink:href="#DejaVuSans-6c"/>
     <use x="141.845703" xlink:href="#DejaVuSans-6b"/>
     <use x="196.130859" xlink:href="#DejaVuSans-79"/>
     <use x="255.310547" xlink:href="#DejaVuSans-20"/>
     <use x="287.097656" xlink:href="#DejaVuSans-57"/>
     <use x="379.599609" xlink:href="#DejaVuSans-61"/>
     <use x="440.878906" xlink:href="#DejaVuSans-79"/>
     <use x="500.058594" xlink:href="#DejaVuSans-20"/>
     <use x="531.845703" xlink:href="#DejaVuSans-31"/>
     <use x="595.46875" xlink:href="#DejaVuSans-35"/>
     <use x="659.091797" xlink:href="#DejaVuSans-2e"/>
     <use x="690.878906" xlink:href="#DejaVuSans-39"/>
     <use x="754.501953" xlink:href="#DejaVuSans-b0"/>
    </g>
   </g>
   <g id="text_17">
    <g id="patch_18">
     <path d="M 22.172636 72.714573 
L 25.112765 58.244309 
L 23.1767 57.850931 
L 20.236571 72.321195 
z
" style="fill:#ffffff;"/>
    </g>
    <!-- Bee Line 16.2° -->
    <g style="fill:#008000;" transform="translate(21.74941 72.608171)rotate(-78.514749)scale(0.02 -0.02)">
     <use xlink:href="#DejaVuSans-42"/>
     <use x="68.603516" xlink:href="#DejaVuSans-65"/>
     <use x="130.126953" xlink:href="#DejaVuSans-65"/>
     <use x="191.650391" xlink:href="#DejaVuSans-20"/>
     <use x="223.4375" xlink:href="#DejaVuSans-4c"/>
     <use x="279.150391" xlink:href="#DejaVuSans-69"/>
     <use x="306.933594" xlink:href="#DejaVuSans-6e"/>
     <use x="370.3125" xlink:href="#DejaVuSans-65"/>
     <use x="431.835938" xlink:href="#DejaVuSans-20"/>
     <use x="463.623047" xlink:href="#DejaVuSans-31"/>
     <use x="527.246094" xlink:href="#DejaVuSans-36"/>
     <use x="590.869141" xlink:href="#DejaVuSans-2e"/>
     <use x="622.65625" xlink:href="#DejaVuSans-32"/>
     <use x="686.279297" xlink:href="#DejaVuSans-b0"/>
    </g>
   </g>
   <g id="text_18">
    <g id="patch_19">
     <path d="M 26.033134 74.468432 
L 26.826218 59.511006 
L 24.853365 59.4064 
L 24.06028 74.363826 
z
" style="fill:#ffffff;"/>
    </g>
    <!-- Chimney 16.6° -->
    <g style="fill:#008000;" transform="translate(25.598867 74.425378)rotate(-86.96486)scale(0.02 -0.02)">
     <defs>
      <path d="M 3328 2828 
Q 3544 3216 3844 3400 
Q 4144 3584 4550 3584 
Q 5097 3584 5394 3201 
Q 5691 2819 5691 2113 
L 5691 0 
L 5113 0 
L 5113 2094 
Q 5113 2597 4934 2840 
Q 4756 3084 4391 3084 
Q 3944 3084 3684 2787 
Q 3425 2491 3425 1978 
L 3425 0 
L 2847 0 
L 2847 2094 
Q 2847 2600 2669 2842 
Q 2491 3084 2119 3084 
Q 1678 3084 1418 2786 
Q 1159 2488 1159 1978 
L 1159 0 
L 581 0 
L 581 3500 
L 1159 3500 
L 1159 2956 
Q 1356 3278 1631 3431 
Q 1906 3584 2284 3584 
Q 2666 3584 2933 3390 
Q 3200 3197 3328 2828 
z
" id="DejaVuSans-6d" transform="scale(0.015625)"/>
     </defs>
     <use xlink:href="#DejaVuSans-43"/>
     <use x="69.824219" xlink:href="#DejaVuSans-68"/>
     <use x="133.203125" xlink:href="#DejaVuSans-69"/>
     <use x="160.986328" xlink:href="#DejaVuSans-6d"/>
     <use x="258.398438" xlink:href="#DejaVuSans-6e"/>
     <use x="321.777344" xlink:href="#DejaVuSans-65"/>
     <use x="383.300781" xlink:href="#DejaVuSans-79"/>
     <use x="442.480469" xlink:href="#DejaVuSans-20"/>
     <use x="474.267578" xlink:href="#DejaVuSans-31"/>
     <use x="537.890625" xlink:href="#DejaVuSans-36"/>
     <use x="601.513672" xlink:href="#DejaVuSans-2e"/>
     <use x="633.300781" xlink:href="#DejaVuSans-36"/>
     <use x="696.923828" xlink:href="#DejaVuSans-b0"/>
    </g>
   </g>
   <g id="text_19">
    <g id="patch_20">
     <path d="M 20.10408 65.727328 
L 20.10408 48.510453 
L 18.128455 48.510453 
L 18.128455 65.727328 
z
" style="fill:#ffffff;"/>
    </g>
    <!-- Double Dip 17.6° -->
    <g style="fill:#4169e1;" transform="translate(19.668142 65.707328)rotate(-90)scale(0.02 -0.02)">
     <use xlink:href="#DejaVuSans-44"/>
     <use x="77.001953" xlink:href="#DejaVuSans-6f"/>
     <use x="138.183594" xlink:href="#DejaVuSans-75"/>
     <use x="201.5625" xlink:href="#DejaVuSans-62"/>
     <use x="265.039062" xlink:href="#DejaVuSans-6c"/>
     <use x="292.822266" xlink:href="#DejaVuSans-65"/>
     <use x="354.345703" xlink:href="#DejaVuSans-20"/>
     <use x="386.132812" xlink:href="#DejaVuSans-44"/>
     <use x="463.134766" xlink:href="#DejaVuSans-69"/>
     <use x="490.917969" xlink:href="#DejaVuSans-70"/>
     <use x="554.394531" xlink:href="#DejaVuSans-20"/>
     <use x="586.181641" xlink:href="#DejaVuSans-31"/>
     <use x="649.804688" xlink:href="#DejaVuSans-37"/>
     <use x="713.427734" xlink:href="#DejaVuSans-2e"/>
     <use x="745.214844" xlink:href="#DejaVuSans-36"/>
     <use x="808.837891" xlink:href="#DejaVuSans-b0"/>
    </g>
   </g>
   <g id="text_20">
    <!-- Suicide Six -->
    <g transform="translate(41.920074 8.701327)scale(0.08 -0.08)">
     <defs>
      <path d="M 3513 3500 
L 2247 1797 
L 3578 0 
L 2900 0 
L 1881 1375 
L 863 0 
L 184 0 
L 1544 1831 
L 300 3500 
L 978 3500 
L 1906 2253 
L 2834 3500 
L 3513 3500 
z
" id="DejaVuSans-78" transform="scale(0.015625)"/>
     </defs>
     <use xlink:href="#DejaVuSans-53"/>
     <use x="63.476562" xlink:href="#DejaVuSans-75"/>
     <use x="126.855469" xlink:href="#DejaVuSans-69"/>
     <use x="154.638672" xlink:href="#DejaVuSans-63"/>
     <use x="209.619141" xlink:href="#DejaVuSans-69"/>
     <use x="237.402344" xlink:href="#DejaVuSans-64"/>
     <use x="300.878906" xlink:href="#DejaVuSans-65"/>
     <use x="362.402344" xlink:href="#DejaVuSans-20"/>
     <use x="394.189453" xlink:href="#DejaVuSans-53"/>
     <use x="457.666016" xlink:href="#DejaVuSans-69"/>
     <use x="485.449219" xlink:href="#DejaVuSans-78"/>
    </g>
   </g>
   <g id="legend_1">
    <g id="line2d_34">
     <path d="M 7.704761 109.552076 
L 15.704761 109.552076 
" style="fill:none;stroke:#008000;stroke-linecap:square;stroke-width:1.5;"/>
    </g>
    <g id="line2d_35"/>
    <g id="text_21">
     <!-- Easy -->
     <g transform="translate(18.904761 110.952076)scale(0.04 -0.04)">
      <use xlink:href="#DejaVuSans-45"/>
      <use x="63.183594" xlink:href="#DejaVuSans-61"/>
      <use x="124.462891" xlink:href="#DejaVuSans-73"/>
      <use x="176.5625" xlink:href="#DejaVuSans-79"/>
     </g>
    </g>
    <g id="line2d_36">
     <path d="M 7.704761 115.423326 
L 15.704761 115.423326 
" style="fill:none;stroke:#4169e1;stroke-linecap:square;stroke-width:1.5;"/>
    </g>
    <g id="line2d_37"/>
    <g id="text_22">
     <!-- Intermediate -->
     <g transform="translate(18.904761 116.823326)scale(0.04 -0.04)">
      <defs>
       <path d="M 628 4666 
L 1259 4666 
L 1259 0 
L 628 0 
L 628 4666 
z
" id="DejaVuSans-49" transform="scale(0.015625)"/>
      </defs>
      <use xlink:href="#DejaVuSans-49"/>
      <use x="29.492188" xlink:href="#DejaVuSans-6e"/>
      <use x="92.871094" xlink:href="#DejaVuSans-74"/>
      <use x="132.080078" xlink:href="#DejaVuSans-65"/>
      <use x="193.603516" xlink:href="#DejaVuSans-72"/>
      <use x="232.966797" xlink:href="#DejaVuSans-6d"/>
      <use x="330.378906" xlink:href="#DejaVuSans-65"/>
      <use x="391.902344" xlink:href="#DejaVuSans-64"/>
      <use x="455.378906" xlink:href="#DejaVuSans-69"/>
      <use x="483.162109" xlink:href="#DejaVuSans-61"/>
      <use x="544.441406" xlink:href="#DejaVuSans-74"/>
      <use x="583.650391" xlink:href="#DejaVuSans-65"/>
     </g>
    </g>
    <g id="line2d_38">
     <path d="M 52.712261 109.552076 
L 60.712261 109.552076 
" style="fill:none;stroke:#000000;stroke-linecap:square;stroke-width:1.5;"/>
    </g>
    <g id="line2d_39"/>
    <g id="text_23">
     <!-- Advanced -->
     <g transform="translate(63.912261 110.952076)scale(0.04 -0.04)">
      <defs>
       <path d="M 2188 4044 
L 1331 1722 
L 3047 1722 
L 2188 4044 
z
M 1831 4666 
L 2547 4666 
L 4325 0 
L 3669 0 
L 3244 1197 
L 1141 1197 
L 716 0 
L 50 0 
L 1831 4666 
z
" id="DejaVuSans-41" transform="scale(0.015625)"/>
      </defs>
      <use xlink:href="#DejaVuSans-41"/>
      <use x="66.658203" xlink:href="#DejaVuSans-64"/>
      <use x="130.134766" xlink:href="#DejaVuSans-76"/>
      <use x="189.314453" xlink:href="#DejaVuSans-61"/>
      <use x="250.59375" xlink:href="#DejaVuSans-6e"/>
      <use x="313.972656" xlink:href="#DejaVuSans-63"/>
      <use x="368.953125" xlink:href="#DejaVuSans-65"/>
      <use x="430.476562" xlink:href="#DejaVuSans-64"/>
     </g>
    </g>
    <g id="line2d_40">
     <path d="M 52.712261 115.423326 
L 60.712261 115.423326 
" style="fill:none;stroke:#ff0000;stroke-linecap:square;stroke-width:1.5;"/>
    </g>
    <g id="line2d_41"/>
    <g id="text_24">
     <!-- Expert -->
     <g transform="translate(63.912261 116.823326)scale(0.04 -0.04)">
      <use xlink:href="#DejaVuSans-45"/>
      <use x="63.183594" xlink:href="#DejaVuSans-78"/>
      <use x="122.363281" xlink:href="#DejaVuSans-70"/>
      <use x="185.839844" xlink:href="#DejaVuSans-65"/>
      <use x="247.363281" xlink:href="#DejaVuSans-72"/>
      <use x="288.476562" xlink:href="#DejaVuSans-74"/>
     </g>
    </g>
    <g id="line2d_42">
     <path d="M 91.671636 109.552076 
L 99.671636 109.552076 
" style="fill:none;stroke:#ffd700;stroke-linecap:square;stroke-width:1.5;"/>
    </g>
    <g id="line2d_43"/>
    <g id="text_25">
     <!-- Extreme -->
     <g transform="translate(102.871636 110.952076)scale(0.04 -0.04)">
      <use xlink:href="#DejaVuSans-45"/>
      <use x="63.183594" xlink:href="#DejaVuSans-78"/>
      <use x="122.363281" xlink:href="#DejaVuSans-74"/>
      <use x="161.572266" xlink:href="#DejaVuSans-72"/>
      <use x="200.435547" xlink:href="#DejaVuSans-65"/>
      <use x="261.958984" xlink:href="#DejaVuSans-6d"/>
      <use x="359.371094" xlink:href="#DejaVuSans-65"/>
     </g>
    </g>
    <g id="line2d_44">
     <path d="M 91.671636 115.423326 
L 99.671636 115.423326 
" style="fill:none;stroke:#000000;stroke-dasharray:1.5,2.475;stroke-dashoffset:0;stroke-width:1.5;"/>
    </g>
    <g id="line2d_45"/>
    <g id="text_26">
     <!-- Gladed -->
     <g transform="translate(102.871636 116.823326)scale(0.04 -0.04)">
      <use xlink:href="#DejaVuSans-47"/>
      <use x="77.490234" xlink:href="#DejaVuSans-6c"/>
      <use x="105.273438" xlink:href="#DejaVuSans-61"/>
      <use x="166.552734" xlink:href="#DejaVuSans-64"/>
      <use x="230.029297" xlink:href="#DejaVuSans-65"/>
      <use x="291.552734" xlink:href="#DejaVuSans-64"/>
     </g>
    </g>
   </g>
  </g>
  <g id="text_27">
   <!-- Sources: USGS and OpenStreetMaps -->
   <g transform="translate(31.977791 123.136765)scale(0.034783 -0.034783)">
    <defs>
     <path d="M 750 794 
L 1409 794 
L 1409 0 
L 750 0 
L 750 794 
z
M 750 3309 
L 1409 3309 
L 1409 2516 
L 750 2516 
L 750 3309 
z
" id="DejaVuSans-3a" transform="scale(0.015625)"/>
     <path d="M 556 4666 
L 1191 4666 
L 1191 1831 
Q 1191 1081 1462 751 
Q 1734 422 2344 422 
Q 2950 422 3222 751 
Q 3494 1081 3494 1831 
L 3494 4666 
L 4128 4666 
L 4128 1753 
Q 4128 841 3676 375 
Q 3225 -91 2344 -91 
Q 1459 -91 1007 375 
Q 556 841 556 1753 
L 556 4666 
z
" id="DejaVuSans-55" transform="scale(0.015625)"/>
    </defs>
    <use xlink:href="#DejaVuSans-53"/>
    <use x="63.476562" xlink:href="#DejaVuSans-6f"/>
    <use x="124.658203" xlink:href="#DejaVuSans-75"/>
    <use x="188.037109" xlink:href="#DejaVuSans-72"/>
    <use x="226.900391" xlink:href="#DejaVuSans-63"/>
    <use x="281.880859" xlink:href="#DejaVuSans-65"/>
    <use x="343.404297" xlink:href="#DejaVuSans-73"/>
    <use x="395.503906" xlink:href="#DejaVuSans-3a"/>
    <use x="429.195312" xlink:href="#DejaVuSans-20"/>
    <use x="460.982422" xlink:href="#DejaVuSans-55"/>
    <use x="534.175781" xlink:href="#DejaVuSans-53"/>
    <use x="597.652344" xlink:href="#DejaVuSans-47"/>
    <use x="675.142578" xlink:href="#DejaVuSans-53"/>
    <use x="738.619141" xlink:href="#DejaVuSans-20"/>
    <use x="770.40625" xlink:href="#DejaVuSans-61"/>
    <use x="831.685547" xlink:href="#DejaVuSans-6e"/>
    <use x="895.064453" xlink:href="#DejaVuSans-64"/>
    <use x="958.541016" xlink:href="#DejaVuSans-20"/>
    <use x="990.328125" xlink:href="#DejaVuSans-4f"/>
    <use x="1069.039062" xlink:href="#DejaVuSans-70"/>
    <use x="1132.515625" xlink:href="#DejaVuSans-65"/>
    <use x="1194.039062" xlink:href="#DejaVuSans-6e"/>
    <use x="1257.417969" xlink:href="#DejaVuSans-53"/>
    <use x="1320.894531" xlink:href="#DejaVuSans-74"/>
    <use x="1360.103516" xlink:href="#DejaVuSans-72"/>
    <use x="1398.966797" xlink:href="#DejaVuSans-65"/>
    <use x="1460.490234" xlink:href="#DejaVuSans-65"/>
    <use x="1522.013672" xlink:href="#DejaVuSans-74"/>
    <use x="1561.222656" xlink:href="#DejaVuSans-4d"/>
    <use x="1647.501953" xlink:href="#DejaVuSans-61"/>
    <use x="1708.78125" xlink:href="#DejaVuSans-70"/>
    <use x="1772.257812" xlink:href="#DejaVuSans-73"/>
   </g>
  </g>
 </g>
 <defs>
  <clipPath id="padde9f3948">
   <rect height="98.457481" width="127.412647" x="0" y="12.701327"/>
  </clipPath>
 </defs>
</svg>
