<?xml version="1.0" encoding="utf-8" standalone="no"?>
<!DOCTYPE svg PUBLIC "-//W3C//DTD SVG 1.1//EN"
  "http://www.w3.org/Graphics/SVG/1.1/DTD/svg11.dtd">
<svg height="128.769078pt" version="1.1" viewBox="0 0 91.049556 128.769078" width="91.049556pt" xmlns="http://www.w3.org/2000/svg" xmlns:xlink="http://www.w3.org/1999/xlink">
 <metadata>
  <rdf:RDF xmlns:cc="http://creativecommons.org/ns#" xmlns:dc="http://purl.org/dc/elements/1.1/" xmlns:rdf="http://www.w3.org/1999/02/22-rdf-syntax-ns#">
   <cc:Work>
    <dc:type rdf:resource="http://purl.org/dc/dcmitype/StillImage"/>
    <dc:date>2022-04-14T21:34:11.089891</dc:date>
    <dc:format>image/svg+xml</dc:format>
    <dc:creator>
     <cc:Agent>
      <dc:title>Matplotlib v3.4.3, https://matplotlib.org/</dc:title>
     </cc:Agent>
    </dc:creator>
   </cc:Work>
  </rdf:RDF>
 </metadata>
 <defs>
  <style type="text/css">*{stroke-linecap:butt;stroke-linejoin:round;}</style>
 </defs>
 <g id="figure_1">
  <g id="patch_1">
   <path d="M 0 128.769078 
L 91.049556 128.769078 
L 91.049556 0 
L 0 0 
z
" style="fill:#ffffff;"/>
  </g>
  <g id="axes_1">
   <g id="line2d_1">
    <path clip-path="url(#p7605f836b9)" d="M 48.678432 65.687814 
" style="fill:none;stroke:#008000;stroke-linecap:square;stroke-width:1.5;"/>
   </g>
   <g id="line2d_2">
    <path clip-path="url(#p7605f836b9)" d="M 48.678432 65.687814 
" style="fill:none;stroke:#4169e1;stroke-linecap:square;stroke-width:1.5;"/>
   </g>
   <g id="line2d_3">
    <path clip-path="url(#p7605f836b9)" d="M 48.678432 65.687814 
" style="fill:none;stroke:#000000;stroke-linecap:square;stroke-width:1.5;"/>
   </g>
   <g id="line2d_4">
    <path clip-path="url(#p7605f836b9)" d="M 48.678432 65.687814 
" style="fill:none;stroke:#ff0000;stroke-linecap:square;stroke-width:1.5;"/>
   </g>
   <g id="line2d_5">
    <path clip-path="url(#p7605f836b9)" d="M 48.678432 65.687814 
" style="fill:none;stroke:#ffd700;stroke-linecap:square;stroke-width:1.5;"/>
   </g>
   <g id="line2d_6">
    <path clip-path="url(#p7605f836b9)" d="M 48.678432 65.687814 
" style="fill:none;stroke:#000000;stroke-dasharray:1.5,2.475;stroke-dashoffset:0;stroke-width:1.5;"/>
   </g>
   <g id="line2d_7">
    <path clip-path="url(#p7605f836b9)" d="M 33.897816 106.853613 
L 28.430415 108.530946 
" style="fill:none;stroke:#808080;stroke-linecap:square;stroke-width:1.5;"/>
   </g>
   <g id="line2d_8">
    <path clip-path="url(#p7605f836b9)" d="M 36.060904 113.47455 
L 35.967015 110.179174 
L 35.873126 106.883797 
L 35.761769 102.979902 
L 35.650412 99.076007 
L 35.53105 94.862193 
L 35.411687 90.64838 
L 35.22682 84.192373 
L 35.095812 79.544135 
L 34.913856 73.171132 
L 34.785759 68.660875 
L 34.657663 64.150618 
L 34.544122 60.180966 
L 34.430582 56.211315 
L 34.325048 52.493371 
L 34.219514 48.775427 
L 34.100879 44.61659 
L 33.982244 40.457753 
L 33.910917 37.955768 
L 33.772631 33.077381 
L 33.634344 28.198995 
L 33.531722 24.60394 
L 33.429099 21.008886 
" style="fill:none;stroke:#808080;stroke-linecap:square;stroke-width:1.5;"/>
   </g>
   <g id="line2d_9">
    <path clip-path="url(#p7605f836b9)" d="M 37.219597 113.620077 
L 37.042009 110.81518 
" style="fill:none;stroke:#808080;stroke-linecap:square;stroke-width:1.5;"/>
   </g>
   <g id="line2d_10">
    <path clip-path="url(#p7605f836b9)" d="M 40.343411 108.602093 
L 38.836819 104.657773 
" style="fill:none;stroke:#808080;stroke-linecap:square;stroke-width:1.5;"/>
   </g>
   <g id="line2d_11">
    <path clip-path="url(#p7605f836b9)" d="M 45.085901 114.496473 
L 45.74822 108.468423 
L 46.182729 104.507396 
L 46.617239 100.546368 
L 47.315949 94.179833 
L 47.716251 90.538426 
L 48.219176 85.955944 
L 48.722102 81.373462 
L 49.09038 78.017719 
L 49.783267 71.706161 
L 49.98269 69.882224 
" style="fill:none;stroke:#808080;stroke-linecap:square;stroke-width:1.5;"/>
   </g>
   <g id="line2d_12">
    <path clip-path="url(#p7605f836b9)" d="M 49.096202 108.645212 
L 48.625301 104.471014 
L 48.1544 100.296816 
L 47.683499 96.122618 
L 47.212598 91.94842 
L 46.741697 87.774222 
L 46.270796 83.600025 
L 45.799895 79.425827 
L 45.328994 75.251629 
" style="fill:none;stroke:#808080;stroke-linecap:square;stroke-width:1.5;"/>
   </g>
   <g id="line2d_13">
    <path clip-path="url(#p7605f836b9)" d="M 60.422574 114.112713 
L 60.297388 112.774943 
L 59.926199 108.823078 
L 59.595767 105.311567 
L 59.265336 101.800055 
L 58.802441 96.868309 
" style="fill:none;stroke:#808080;stroke-linecap:square;stroke-width:1.5;"/>
   </g>
   <g id="line2d_14">
    <path clip-path="url(#p7605f836b9)" d="M 48.678432 65.687814 
L 48.290503 64.756441 
L 47.902574 63.825069 
L 47.514644 62.893696 
L 47.126715 61.962324 
L 47.714068 60.845 
L 48.30142 59.727677 
L 48.888773 58.610353 
L 49.476126 57.49303 
L 50.495077 56.605585 
L 51.514028 55.71814 
L 52.532979 54.830695 
L 53.551931 53.94325 
L 53.862711 52.78173 
L 54.173491 51.620209 
L 52.976951 50.80957 
L 51.780411 49.998931 
L 50.124069 50.130309 
L 48.467728 50.261688 
L 46.811386 50.393066 
L 45.155044 50.524445 
L 43.498703 50.655823 
L 41.842361 50.787202 
L 40.186019 50.91858 
L 38.529678 51.049959 
L 37.140993 51.446655 
L 35.435705 51.932822 
L 33.730417 52.41899 
L 31.925418 52.934263 
L 30.906466 53.898514 
L 29.887515 54.862765 
L 28.868564 55.827016 
L 27.849612 56.791266 
L 27.351054 58.330618 
L 26.852496 59.86997 
L 26.353938 61.409321 
L 25.855379 62.948673 
L 25.356821 64.488025 
L 24.858263 66.027376 
L 24.359704 67.566728 
L 23.861146 69.10608 
L 23.484316 70.820738 
L 23.107486 72.535395 
L 22.730656 74.250053 
L 22.353826 75.964711 
L 21.976996 77.679369 
L 21.600166 79.394026 
L 21.223336 81.108684 
L 20.846506 82.823342 
L 21.777391 84.44462 
L 22.708275 86.065898 
L 24.248348 87.095905 
L 25.78842 88.125913 
L 27.328492 89.15592 
L 28.868564 90.185927 
L 30.330759 91.435034 
L 31.792954 92.68414 
L 33.255149 93.933246 
L 34.717344 95.182352 
L 35.50412 96.069797 
L 36.290896 96.957242 
L 37.077672 97.844687 
L 37.864448 98.732132 
" style="fill:none;stroke:#008000;stroke-linecap:square;stroke-width:1.5;"/>
   </g>
   <g id="line2d_15">
    <path clip-path="url(#p7605f836b9)" d="M 22.04159 18.151168 
L 20.811934 17.975861 
L 19.582278 17.800555 
L 18.352623 17.625249 
L 17.122967 17.449943 
L 15.893311 17.274637 
L 14.663655 17.099331 
L 13.433999 16.924025 
L 12.204343 16.748719 
L 11.196127 16.809086 
L 10.187912 16.869452 
L 9.179696 16.929819 
L 8.17148 16.990186 
L 7.163264 17.050553 
L 6.155048 17.110919 
L 5.146832 17.171286 
L 4.138616 17.231653 
L 4.714688 18.206683 
L 5.290759 19.181714 
L 5.86683 20.156744 
L 6.442902 21.131775 
L 7.018973 22.106806 
L 7.595044 23.081836 
L 8.171116 24.056867 
L 8.747187 25.031897 
L 9.520862 26.721088 
L 10.294538 28.410278 
L 11.068213 30.099469 
L 11.841888 31.788659 
L 12.37984 32.88503 
L 12.917791 33.9814 
L 13.455743 35.07777 
L 13.993695 36.174141 
L 14.531646 37.270511 
L 15.069598 38.366881 
L 15.60755 39.463252 
L 16.145501 40.559622 
L 16.683453 41.655992 
L 17.221405 42.752363 
L 17.759356 43.848733 
L 18.297308 44.945104 
L 18.83526 46.041474 
L 19.373212 47.137844 
L 19.911163 48.234215 
L 20.449115 49.330585 
" style="fill:none;stroke:#4169e1;stroke-linecap:square;stroke-width:1.5;"/>
   </g>
   <g id="line2d_16">
    <path clip-path="url(#p7605f836b9)" d="M 24.286194 19.378984 
L 24.524192 20.81869 
L 24.76219 22.258396 
L 25.000188 23.698102 
L 25.238186 25.137808 
L 25.476184 26.577515 
L 25.714182 28.017221 
L 25.95218 29.456927 
L 26.190178 30.896633 
L 26.428175 32.336339 
L 26.666173 33.776045 
L 26.904171 35.215751 
L 27.142169 36.655458 
L 27.380167 38.095164 
L 27.618165 39.53487 
L 27.856163 40.974576 
L 28.094161 42.414282 
" style="fill:none;stroke:#4169e1;stroke-linecap:square;stroke-width:1.5;"/>
   </g>
   <g id="line2d_17">
    <path clip-path="url(#p7605f836b9)" d="M 34.862909 15.645948 
L 35.711549 14.959277 
L 36.56019 14.272605 
L 38.065327 14.501675 
L 39.570464 14.730745 
L 41.113447 15.29345 
L 42.65643 15.856154 
L 44.199414 16.418858 
L 45.742397 16.981562 
L 47.24717 17.6968 
L 48.751942 18.412038 
L 50.256715 19.127276 
L 51.761488 19.842514 
L 53.092311 21.082458 
L 54.423134 22.322401 
L 55.753957 23.562344 
L 57.08478 24.802288 
L 57.711799 25.565226 
L 58.338818 26.328165 
L 58.965837 27.091103 
L 59.592856 27.854042 
L 59.091387 28.922317 
L 58.589917 29.990593 
L 57.625552 30.515298 
L 56.661188 31.040004 
L 55.696823 31.564709 
L 54.732459 32.089415 
L 54.431868 33.256864 
L 54.131277 34.424314 
L 53.830687 35.591763 
L 53.530096 36.759213 
" style="fill:none;stroke:#008000;stroke-linecap:square;stroke-width:1.5;"/>
   </g>
   <g id="line2d_18">
    <path clip-path="url(#p7605f836b9)" d="M 24.286194 19.378984 
L 23.864421 20.314668 
L 23.442648 21.250352 
L 23.020875 22.186037 
L 22.599102 23.121721 
L 21.574328 23.296893 
L 20.549554 23.472064 
L 19.524781 23.647235 
L 18.500007 23.822406 
L 16.911898 24.042314 
L 15.32379 24.262221 
L 14.888552 25.203026 
L 14.453314 26.143831 
L 14.018077 27.084636 
L 13.582839 28.02544 
L 13.147601 28.966245 
L 12.712363 29.90705 
L 12.277126 30.847854 
L 11.841888 31.788659 
" style="fill:none;stroke:#4169e1;stroke-linecap:square;stroke-width:1.5;"/>
   </g>
   <g id="line2d_19">
    <path clip-path="url(#p7605f836b9)" d="M 51.176319 68.131588 
L 51.763307 69.753136 
L 52.350296 71.374683 
L 52.937285 72.996231 
L 53.524273 74.617778 
L 54.454976 75.253246 
L 55.385679 75.888713 
L 56.316382 76.524181 
L 57.247085 77.159649 
L 58.177788 77.795116 
L 59.10849 78.430584 
L 60.039193 79.066052 
L 60.969896 79.701519 
L 62.177353 80.019253 
L 63.384811 80.336987 
L 64.592268 80.654721 
L 65.799725 80.972455 
L 66.797206 80.906698 
L 67.794686 80.840941 
L 68.792167 80.775185 
L 69.789647 80.709428 
L 68.891878 81.563995 
L 67.994109 82.418561 
L 67.096341 83.273128 
L 66.198572 84.127694 
L 64.802609 85.070116 
L 63.406645 86.012538 
L 62.010682 86.95496 
L 60.614719 87.897381 
L 59.00332 88.929275 
L 57.391921 89.961169 
L 55.780523 90.993063 
L 54.169124 92.024957 
L 53.715691 93.008611 
L 53.262257 93.992265 
L 52.808824 94.97592 
L 52.355391 95.959574 
" style="fill:none;stroke:#4169e1;stroke-linecap:square;stroke-width:1.5;"/>
   </g>
   <g id="line2d_20">
    <path clip-path="url(#p7605f836b9)" d="M 40.950415 77.999393 
L 41.016919 79.062144 
L 41.083424 80.124895 
L 41.149929 81.187646 
L 41.216434 82.250397 
L 41.282939 83.313148 
L 41.349443 84.375899 
L 41.415948 85.43865 
L 41.482453 86.501401 
L 41.548958 87.564152 
L 41.615462 88.626903 
L 41.681967 89.689653 
L 41.748472 90.752404 
L 41.814977 91.815155 
L 41.881481 92.877906 
L 41.947986 93.940657 
L 42.014491 95.003408 
" style="fill:none;stroke:#ff0000;stroke-linecap:square;stroke-width:1.5;"/>
   </g>
   <g id="line2d_21">
    <path clip-path="url(#p7605f836b9)" d="M 69.981792 80.821538 
L 71.422153 80.876515 
L 72.862513 80.931492 
L 74.302874 80.986468 
L 75.743234 81.041445 
L 76.812405 80.926371 
L 77.881576 80.811297 
L 78.950747 80.696223 
L 80.019918 80.581149 
L 81.089089 80.466075 
L 82.15826 80.351001 
L 83.227431 80.235927 
L 84.296602 80.120853 
L 85.426182 79.638997 
L 86.555763 79.157141 
L 86.91094 80.252366 
L 85.59249 81.172689 
L 84.27404 82.093012 
L 82.955589 83.013335 
L 81.637139 83.933659 
L 80.556869 84.377381 
L 79.476599 84.821103 
L 78.396328 85.264826 
L 77.316058 85.708548 
L 76.235788 86.152271 
L 75.155517 86.595993 
L 74.075247 87.039716 
L 72.994977 87.483438 
L 72.053175 87.921636 
L 71.111373 88.359834 
L 70.16957 88.798031 
L 69.227768 89.236229 
L 68.285966 89.674427 
L 67.344164 90.112625 
L 66.402362 90.550823 
L 65.46056 90.98902 
L 64.247462 91.564256 
L 63.034364 92.139492 
L 61.821266 92.714727 
L 60.608168 93.289963 
L 59.39507 93.865199 
L 58.181973 94.440434 
L 56.968875 95.01567 
L 55.755777 95.590906 
L 54.055584 95.77524 
L 52.355391 95.959574 
" style="fill:none;stroke:#008000;stroke-linecap:square;stroke-width:1.5;"/>
   </g>
   <g id="line2d_22">
    <path clip-path="url(#p7605f836b9)" d="M 46.486231 63.613785 
L 45.010208 62.858123 
L 44.908313 61.172166 
L 44.946887 59.687253 
L 44.985462 58.202339 
L 44.24745 57.723717 
L 42.990683 57.585197 
L 41.733915 57.446677 
L 40.477148 57.308157 
L 39.220381 57.169636 
L 37.963614 57.031116 
L 36.706846 56.892596 
L 35.450079 56.754076 
L 34.193312 56.615556 
L 34.077588 55.566415 
L 33.961865 54.517273 
L 33.846141 53.468132 
L 33.730417 52.41899 
" style="fill:none;stroke:#008000;stroke-linecap:square;stroke-width:1.5;"/>
   </g>
   <g id="line2d_23">
    <path clip-path="url(#p7605f836b9)" d="M 34.172933 78.597671 
L 34.172933 80.153731 
L 34.172933 81.709791 
L 34.350158 82.7177 
L 34.527382 83.725609 
L 34.704607 84.733518 
L 34.881832 85.741427 
L 35.773414 86.899174 
L 36.664997 88.056922 
L 37.556579 89.21467 
L 38.448161 90.372417 
L 39.339744 91.530165 
L 40.231326 92.687913 
L 41.122909 93.84566 
L 42.014491 95.003408 
" style="fill:none;stroke:#4169e1;stroke-linecap:square;stroke-width:1.5;"/>
   </g>
   <g id="line2d_24">
    <path clip-path="url(#p7605f836b9)" d="M 31.367906 78.073774 
L 30.375156 77.822066 
L 29.382406 77.570358 
L 28.058498 78.828897 
L 26.734589 80.087435 
L 27.040274 81.446765 
L 27.345959 82.806094 
L 27.651645 84.165424 
L 27.95733 85.524753 
L 29.255037 86.833418 
L 30.552745 88.142082 
L 32.156137 89.12412 
L 33.75953 90.106157 
L 34.472432 90.86128 
L 35.185334 91.616403 
L 35.898236 92.371526 
L 36.611138 93.12665 
L 37.285465 94.120814 
L 37.959793 95.114979 
L 38.63412 96.109143 
L 39.308447 97.103308 
" style="fill:none;stroke:#4169e1;stroke-linecap:square;stroke-width:1.5;"/>
   </g>
   <g id="line2d_25">
    <path clip-path="url(#p7605f836b9)" d="M 47.046655 68.106795 
L 46.200652 68.644638 
L 45.35465 69.182481 
L 44.508647 69.720325 
L 43.662645 70.258168 
L 42.816642 70.796011 
L 41.97064 71.333855 
L 41.124637 71.871698 
L 40.278635 72.409541 
L 39.432632 72.947385 
L 38.58663 73.485228 
L 37.740627 74.023071 
L 36.894625 74.560915 
L 36.048622 75.098758 
L 35.20262 75.636601 
L 34.356617 76.174445 
L 33.510615 76.712288 
L 32.43926 77.393031 
L 31.367906 78.073774 
" style="fill:none;stroke:#008000;stroke-linecap:square;stroke-width:1.5;"/>
   </g>
   <g id="line2d_26">
    <path clip-path="url(#p7605f836b9)" d="M 56.64372 97.01168 
L 56.713227 98.076048 
L 56.782734 99.140416 
L 56.852241 100.204784 
L 56.921748 101.269152 
L 56.991255 102.33352 
L 57.060762 103.397887 
L 57.130269 104.462255 
L 57.199776 105.526623 
L 57.269283 106.590991 
L 57.33879 107.655359 
L 57.408297 108.719727 
L 57.477804 109.784095 
L 57.547311 110.848463 
L 57.616819 111.912831 
L 57.686326 112.977199 
L 57.755833 114.041566 
" style="fill:none;stroke:#008000;stroke-linecap:square;stroke-width:1.5;"/>
   </g>
   <g id="line2d_27">
    <path clip-path="url(#p7605f836b9)" d="M 51.375742 75.329243 
L 51.33371 76.475133 
L 51.291678 77.621023 
L 51.249647 78.766913 
L 51.207615 79.912803 
L 51.165583 81.058693 
L 51.123551 82.204583 
L 51.08152 83.350473 
L 51.039488 84.496363 
L 50.997456 85.642253 
L 50.955425 86.788143 
L 50.913393 87.934033 
L 50.871361 89.079922 
L 50.829329 90.225812 
L 50.787298 91.371702 
L 50.745266 92.517592 
L 50.703234 93.663482 
L 51.529312 94.811528 
L 52.355391 95.959574 
" style="fill:none;stroke:#ff0000;stroke-linecap:square;stroke-width:1.5;"/>
   </g>
   <g id="line2d_28">
    <path clip-path="url(#p7605f836b9)" d="M 53.530096 36.759213 
L 51.943079 36.908648 
L 50.356063 37.058082 
L 48.769046 37.207517 
L 47.18203 37.356951 
L 45.595013 37.506386 
L 44.007996 37.655821 
L 42.42098 37.805255 
L 40.833963 37.95469 
L 39.40634 38.356775 
L 37.978716 38.758861 
L 36.551093 39.160946 
L 35.123469 39.563032 
L 33.897816 39.908254 
L 32.672163 40.253477 
L 31.446511 40.598699 
L 30.220858 40.943921 
L 29.157509 41.679102 
L 28.094161 42.414282 
L 26.560275 43.475012 
L 25.02639 44.535742 
L 23.492504 45.596471 
L 21.958618 46.657201 
" style="fill:none;stroke:#008000;stroke-linecap:square;stroke-width:1.5;"/>
   </g>
   <g id="line2d_29">
    <path clip-path="url(#p7605f836b9)" d="M 35.123469 39.563032 
L 35.133295 41.370261 
L 35.14312 43.17749 
L 35.152946 44.984719 
L 35.162771 46.791948 
L 35.657327 47.955625 
L 36.151882 49.119301 
L 36.646437 50.282978 
L 37.140993 51.446655 
" style="fill:none;stroke:#008000;stroke-linecap:square;stroke-width:1.5;"/>
   </g>
   <g id="line2d_30">
    <path clip-path="url(#p7605f836b9)" d="M 21.958618 46.657201 
L 21.203867 47.993893 
L 20.449115 49.330585 
L 19.619397 50.800946 
L 19.619397 52.546461 
L 19.619397 54.291976 
L 19.619397 56.037491 
L 19.619397 57.783006 
L 19.619397 59.52852 
L 19.619397 61.274035 
L 19.619397 63.01955 
L 19.619397 64.765065 
L 19.310801 66.23866 
L 19.002204 67.712255 
L 18.693607 69.18585 
L 18.385011 70.659445 
L 18.076414 72.13304 
L 17.767817 73.606635 
L 17.459221 75.08023 
L 17.150624 76.553825 
L 17.295461 78.299071 
L 17.440297 80.044316 
L 17.585134 81.789562 
L 17.729971 83.534807 
L 18.347164 84.41228 
L 18.964357 85.289754 
L 19.581551 86.167228 
L 20.198744 87.044701 
L 21.674404 87.998711 
L 23.150064 88.952721 
L 24.625723 89.906731 
L 26.101383 90.860741 
L 26.998424 91.504563 
L 27.895465 92.148385 
L 28.792506 92.792207 
L 29.689547 93.436029 
L 30.586588 94.079851 
L 31.483629 94.723673 
L 32.38067 95.367495 
L 33.277712 96.011317 
L 34.203502 97.060458 
L 35.129292 98.1096 
L 36.055082 99.158741 
L 36.980872 100.207883 
" style="fill:none;stroke:#008000;stroke-linecap:square;stroke-width:1.5;"/>
   </g>
   <g id="line2d_31">
    <path clip-path="url(#p7605f836b9)" d="M 31.925418 52.934263 
L 30.53746 52.325206 
L 29.149503 51.716149 
L 28.156026 52.746426 
L 27.162548 53.776703 
L 26.169071 54.80698 
L 25.175593 55.837256 
L 24.539113 57.086632 
L 23.902632 58.336008 
L 23.266151 59.585384 
L 22.629671 60.834759 
L 22.465547 62.532574 
L 22.301423 64.230388 
L 22.137299 65.928203 
L 21.973175 67.626017 
L 21.404018 68.779992 
L 20.834861 69.933966 
L 20.265704 71.087941 
L 19.696547 72.241916 
L 19.426525 73.93973 
L 19.156502 75.637545 
L 18.88648 77.335359 
L 18.616458 79.033173 
L 18.814244 80.034614 
L 19.01203 81.036055 
L 19.209815 82.037496 
L 19.407601 83.038937 
L 19.605387 84.040378 
L 19.803173 85.041819 
L 20.000958 86.04326 
L 20.198744 87.044701 
" style="fill:none;stroke:#008000;stroke-linecap:square;stroke-width:1.5;"/>
   </g>
   <g id="text_1">
    <g id="patch_2">
     <path d="M 34.525226 92.583165 
L 34.800415 105.610572 
L 36.775599 105.568848 
L 36.50041 92.541442 
z
" style="fill:#ffffff;"/>
    </g>
    <!-- Double Chair -->
    <g style="fill:#808080;" transform="translate(34.961488 92.593954)rotate(-271.210127)scale(0.02 -0.02)">
     <defs>
      <path d="M 1259 4147 
L 1259 519 
L 2022 519 
Q 2988 519 3436 956 
Q 3884 1394 3884 2338 
Q 3884 3275 3436 3711 
Q 2988 4147 2022 4147 
L 1259 4147 
z
M 628 4666 
L 1925 4666 
Q 3281 4666 3915 4102 
Q 4550 3538 4550 2338 
Q 4550 1131 3912 565 
Q 3275 0 1925 0 
L 628 0 
L 628 4666 
z
" id="DejaVuSans-44" transform="scale(0.015625)"/>
      <path d="M 1959 3097 
Q 1497 3097 1228 2736 
Q 959 2375 959 1747 
Q 959 1119 1226 758 
Q 1494 397 1959 397 
Q 2419 397 2687 759 
Q 2956 1122 2956 1747 
Q 2956 2369 2687 2733 
Q 2419 3097 1959 3097 
z
M 1959 3584 
Q 2709 3584 3137 3096 
Q 3566 2609 3566 1747 
Q 3566 888 3137 398 
Q 2709 -91 1959 -91 
Q 1206 -91 779 398 
Q 353 888 353 1747 
Q 353 2609 779 3096 
Q 1206 3584 1959 3584 
z
" id="DejaVuSans-6f" transform="scale(0.015625)"/>
      <path d="M 544 1381 
L 544 3500 
L 1119 3500 
L 1119 1403 
Q 1119 906 1312 657 
Q 1506 409 1894 409 
Q 2359 409 2629 706 
Q 2900 1003 2900 1516 
L 2900 3500 
L 3475 3500 
L 3475 0 
L 2900 0 
L 2900 538 
Q 2691 219 2414 64 
Q 2138 -91 1772 -91 
Q 1169 -91 856 284 
Q 544 659 544 1381 
z
M 1991 3584 
L 1991 3584 
z
" id="DejaVuSans-75" transform="scale(0.015625)"/>
      <path d="M 3116 1747 
Q 3116 2381 2855 2742 
Q 2594 3103 2138 3103 
Q 1681 3103 1420 2742 
Q 1159 2381 1159 1747 
Q 1159 1113 1420 752 
Q 1681 391 2138 391 
Q 2594 391 2855 752 
Q 3116 1113 3116 1747 
z
M 1159 2969 
Q 1341 3281 1617 3432 
Q 1894 3584 2278 3584 
Q 2916 3584 3314 3078 
Q 3713 2572 3713 1747 
Q 3713 922 3314 415 
Q 2916 -91 2278 -91 
Q 1894 -91 1617 61 
Q 1341 213 1159 525 
L 1159 0 
L 581 0 
L 581 4863 
L 1159 4863 
L 1159 2969 
z
" id="DejaVuSans-62" transform="scale(0.015625)"/>
      <path d="M 603 4863 
L 1178 4863 
L 1178 0 
L 603 0 
L 603 4863 
z
" id="DejaVuSans-6c" transform="scale(0.015625)"/>
      <path d="M 3597 1894 
L 3597 1613 
L 953 1613 
Q 991 1019 1311 708 
Q 1631 397 2203 397 
Q 2534 397 2845 478 
Q 3156 559 3463 722 
L 3463 178 
Q 3153 47 2828 -22 
Q 2503 -91 2169 -91 
Q 1331 -91 842 396 
Q 353 884 353 1716 
Q 353 2575 817 3079 
Q 1281 3584 2069 3584 
Q 2775 3584 3186 3129 
Q 3597 2675 3597 1894 
z
M 3022 2063 
Q 3016 2534 2758 2815 
Q 2500 3097 2075 3097 
Q 1594 3097 1305 2825 
Q 1016 2553 972 2059 
L 3022 2063 
z
" id="DejaVuSans-65" transform="scale(0.015625)"/>
      <path id="DejaVuSans-20" transform="scale(0.015625)"/>
      <path d="M 4122 4306 
L 4122 3641 
Q 3803 3938 3442 4084 
Q 3081 4231 2675 4231 
Q 1875 4231 1450 3742 
Q 1025 3253 1025 2328 
Q 1025 1406 1450 917 
Q 1875 428 2675 428 
Q 3081 428 3442 575 
Q 3803 722 4122 1019 
L 4122 359 
Q 3791 134 3420 21 
Q 3050 -91 2638 -91 
Q 1578 -91 968 557 
Q 359 1206 359 2328 
Q 359 3453 968 4101 
Q 1578 4750 2638 4750 
Q 3056 4750 3426 4639 
Q 3797 4528 4122 4306 
z
" id="DejaVuSans-43" transform="scale(0.015625)"/>
      <path d="M 3513 2113 
L 3513 0 
L 2938 0 
L 2938 2094 
Q 2938 2591 2744 2837 
Q 2550 3084 2163 3084 
Q 1697 3084 1428 2787 
Q 1159 2491 1159 1978 
L 1159 0 
L 581 0 
L 581 4863 
L 1159 4863 
L 1159 2956 
Q 1366 3272 1645 3428 
Q 1925 3584 2291 3584 
Q 2894 3584 3203 3211 
Q 3513 2838 3513 2113 
z
" id="DejaVuSans-68" transform="scale(0.015625)"/>
      <path d="M 2194 1759 
Q 1497 1759 1228 1600 
Q 959 1441 959 1056 
Q 959 750 1161 570 
Q 1363 391 1709 391 
Q 2188 391 2477 730 
Q 2766 1069 2766 1631 
L 2766 1759 
L 2194 1759 
z
M 3341 1997 
L 3341 0 
L 2766 0 
L 2766 531 
Q 2569 213 2275 61 
Q 1981 -91 1556 -91 
Q 1019 -91 701 211 
Q 384 513 384 1019 
Q 384 1609 779 1909 
Q 1175 2209 1959 2209 
L 2766 2209 
L 2766 2266 
Q 2766 2663 2505 2880 
Q 2244 3097 1772 3097 
Q 1472 3097 1187 3025 
Q 903 2953 641 2809 
L 641 3341 
Q 956 3463 1253 3523 
Q 1550 3584 1831 3584 
Q 2591 3584 2966 3190 
Q 3341 2797 3341 1997 
z
" id="DejaVuSans-61" transform="scale(0.015625)"/>
      <path d="M 603 3500 
L 1178 3500 
L 1178 0 
L 603 0 
L 603 3500 
z
M 603 4863 
L 1178 4863 
L 1178 4134 
L 603 4134 
L 603 4863 
z
" id="DejaVuSans-69" transform="scale(0.015625)"/>
      <path d="M 2631 2963 
Q 2534 3019 2420 3045 
Q 2306 3072 2169 3072 
Q 1681 3072 1420 2755 
Q 1159 2438 1159 1844 
L 1159 0 
L 581 0 
L 581 3500 
L 1159 3500 
L 1159 2956 
Q 1341 3275 1631 3429 
Q 1922 3584 2338 3584 
Q 2397 3584 2469 3576 
Q 2541 3569 2628 3553 
L 2631 2963 
z
" id="DejaVuSans-72" transform="scale(0.015625)"/>
     </defs>
     <use xlink:href="#DejaVuSans-44"/>
     <use x="77.001953" xlink:href="#DejaVuSans-6f"/>
     <use x="138.183594" xlink:href="#DejaVuSans-75"/>
     <use x="201.5625" xlink:href="#DejaVuSans-62"/>
     <use x="265.039062" xlink:href="#DejaVuSans-6c"/>
     <use x="292.822266" xlink:href="#DejaVuSans-65"/>
     <use x="354.345703" xlink:href="#DejaVuSans-20"/>
     <use x="386.132812" xlink:href="#DejaVuSans-43"/>
     <use x="455.957031" xlink:href="#DejaVuSans-68"/>
     <use x="519.335938" xlink:href="#DejaVuSans-61"/>
     <use x="580.615234" xlink:href="#DejaVuSans-69"/>
     <use x="608.398438" xlink:href="#DejaVuSans-72"/>
    </g>
   </g>
   <g id="text_2">
    <g id="patch_3">
     <path d="M 47.144196 106.259512 
L 48.059422 94.993188 
L 46.090283 94.833224 
L 45.175057 106.099548 
z
" style="fill:#ffffff;"/>
    </g>
    <!-- Triple Chair -->
    <g style="fill:#808080;" transform="translate(46.711309 106.20428)rotate(-85.355745)scale(0.02 -0.02)">
     <defs>
      <path d="M -19 4666 
L 3928 4666 
L 3928 4134 
L 2272 4134 
L 2272 0 
L 1638 0 
L 1638 4134 
L -19 4134 
L -19 4666 
z
" id="DejaVuSans-54" transform="scale(0.015625)"/>
      <path d="M 1159 525 
L 1159 -1331 
L 581 -1331 
L 581 3500 
L 1159 3500 
L 1159 2969 
Q 1341 3281 1617 3432 
Q 1894 3584 2278 3584 
Q 2916 3584 3314 3078 
Q 3713 2572 3713 1747 
Q 3713 922 3314 415 
Q 2916 -91 2278 -91 
Q 1894 -91 1617 61 
Q 1341 213 1159 525 
z
M 3116 1747 
Q 3116 2381 2855 2742 
Q 2594 3103 2138 3103 
Q 1681 3103 1420 2742 
Q 1159 2381 1159 1747 
Q 1159 1113 1420 752 
Q 1681 391 2138 391 
Q 2594 391 2855 752 
Q 3116 1113 3116 1747 
z
" id="DejaVuSans-70" transform="scale(0.015625)"/>
     </defs>
     <use xlink:href="#DejaVuSans-54"/>
     <use x="46.333984" xlink:href="#DejaVuSans-72"/>
     <use x="87.447266" xlink:href="#DejaVuSans-69"/>
     <use x="115.230469" xlink:href="#DejaVuSans-70"/>
     <use x="178.707031" xlink:href="#DejaVuSans-6c"/>
     <use x="206.490234" xlink:href="#DejaVuSans-65"/>
     <use x="268.013672" xlink:href="#DejaVuSans-20"/>
     <use x="299.800781" xlink:href="#DejaVuSans-43"/>
     <use x="369.625" xlink:href="#DejaVuSans-68"/>
     <use x="433.003906" xlink:href="#DejaVuSans-61"/>
     <use x="494.283203" xlink:href="#DejaVuSans-69"/>
     <use x="522.066406" xlink:href="#DejaVuSans-72"/>
    </g>
   </g>
   <g id="text_3">
    <g id="patch_4">
     <path d="M 46.013916 89.465532 
L 46.442514 94.595785 
L 48.41128 94.431308 
L 47.982683 89.301055 
z
" style="fill:#ffffff;"/>
    </g>
    <!-- T-Bar -->
    <g style="fill:#808080;" transform="translate(46.450005 89.44917)rotate(-274.775581)scale(0.02 -0.02)">
     <defs>
      <path d="M 313 2009 
L 1997 2009 
L 1997 1497 
L 313 1497 
L 313 2009 
z
" id="DejaVuSans-2d" transform="scale(0.015625)"/>
      <path d="M 1259 2228 
L 1259 519 
L 2272 519 
Q 2781 519 3026 730 
Q 3272 941 3272 1375 
Q 3272 1813 3026 2020 
Q 2781 2228 2272 2228 
L 1259 2228 
z
M 1259 4147 
L 1259 2741 
L 2194 2741 
Q 2656 2741 2882 2914 
Q 3109 3088 3109 3444 
Q 3109 3797 2882 3972 
Q 2656 4147 2194 4147 
L 1259 4147 
z
M 628 4666 
L 2241 4666 
Q 2963 4666 3353 4366 
Q 3744 4066 3744 3513 
Q 3744 3084 3544 2831 
Q 3344 2578 2956 2516 
Q 3422 2416 3680 2098 
Q 3938 1781 3938 1306 
Q 3938 681 3513 340 
Q 3088 0 2303 0 
L 628 0 
L 628 4666 
z
" id="DejaVuSans-42" transform="scale(0.015625)"/>
     </defs>
     <use xlink:href="#DejaVuSans-54"/>
     <use x="51.958984" xlink:href="#DejaVuSans-2d"/>
     <use x="84.417969" xlink:href="#DejaVuSans-42"/>
     <use x="153.021484" xlink:href="#DejaVuSans-61"/>
     <use x="214.300781" xlink:href="#DejaVuSans-72"/>
    </g>
   </g>
   <g id="text_4">
    <g id="patch_5">
     <path d="M 22.70117 78.177753 
L 26.942262 60.495184 
L 25.021122 60.034406 
L 20.78003 77.716976 
z
" style="fill:#ffffff;"/>
    </g>
    <!-- Lovers Lane 11.0° -->
    <g style="fill:#008000;" transform="translate(22.281919 78.056631)rotate(-76.512613)scale(0.02 -0.02)">
     <defs>
      <path d="M 628 4666 
L 1259 4666 
L 1259 531 
L 3531 531 
L 3531 0 
L 628 0 
L 628 4666 
z
" id="DejaVuSans-4c" transform="scale(0.015625)"/>
      <path d="M 191 3500 
L 800 3500 
L 1894 563 
L 2988 3500 
L 3597 3500 
L 2284 0 
L 1503 0 
L 191 3500 
z
" id="DejaVuSans-76" transform="scale(0.015625)"/>
      <path d="M 2834 3397 
L 2834 2853 
Q 2591 2978 2328 3040 
Q 2066 3103 1784 3103 
Q 1356 3103 1142 2972 
Q 928 2841 928 2578 
Q 928 2378 1081 2264 
Q 1234 2150 1697 2047 
L 1894 2003 
Q 2506 1872 2764 1633 
Q 3022 1394 3022 966 
Q 3022 478 2636 193 
Q 2250 -91 1575 -91 
Q 1294 -91 989 -36 
Q 684 19 347 128 
L 347 722 
Q 666 556 975 473 
Q 1284 391 1588 391 
Q 1994 391 2212 530 
Q 2431 669 2431 922 
Q 2431 1156 2273 1281 
Q 2116 1406 1581 1522 
L 1381 1569 
Q 847 1681 609 1914 
Q 372 2147 372 2553 
Q 372 3047 722 3315 
Q 1072 3584 1716 3584 
Q 2034 3584 2315 3537 
Q 2597 3491 2834 3397 
z
" id="DejaVuSans-73" transform="scale(0.015625)"/>
      <path d="M 3513 2113 
L 3513 0 
L 2938 0 
L 2938 2094 
Q 2938 2591 2744 2837 
Q 2550 3084 2163 3084 
Q 1697 3084 1428 2787 
Q 1159 2491 1159 1978 
L 1159 0 
L 581 0 
L 581 3500 
L 1159 3500 
L 1159 2956 
Q 1366 3272 1645 3428 
Q 1925 3584 2291 3584 
Q 2894 3584 3203 3211 
Q 3513 2838 3513 2113 
z
" id="DejaVuSans-6e" transform="scale(0.015625)"/>
      <path d="M 794 531 
L 1825 531 
L 1825 4091 
L 703 3866 
L 703 4441 
L 1819 4666 
L 2450 4666 
L 2450 531 
L 3481 531 
L 3481 0 
L 794 0 
L 794 531 
z
" id="DejaVuSans-31" transform="scale(0.015625)"/>
      <path d="M 684 794 
L 1344 794 
L 1344 0 
L 684 0 
L 684 794 
z
" id="DejaVuSans-2e" transform="scale(0.015625)"/>
      <path d="M 2034 4250 
Q 1547 4250 1301 3770 
Q 1056 3291 1056 2328 
Q 1056 1369 1301 889 
Q 1547 409 2034 409 
Q 2525 409 2770 889 
Q 3016 1369 3016 2328 
Q 3016 3291 2770 3770 
Q 2525 4250 2034 4250 
z
M 2034 4750 
Q 2819 4750 3233 4129 
Q 3647 3509 3647 2328 
Q 3647 1150 3233 529 
Q 2819 -91 2034 -91 
Q 1250 -91 836 529 
Q 422 1150 422 2328 
Q 422 3509 836 4129 
Q 1250 4750 2034 4750 
z
" id="DejaVuSans-30" transform="scale(0.015625)"/>
      <path d="M 1600 4347 
Q 1350 4347 1178 4173 
Q 1006 4000 1006 3750 
Q 1006 3503 1178 3333 
Q 1350 3163 1600 3163 
Q 1850 3163 2022 3333 
Q 2194 3503 2194 3750 
Q 2194 3997 2020 4172 
Q 1847 4347 1600 4347 
z
M 1600 4750 
Q 1800 4750 1984 4673 
Q 2169 4597 2303 4453 
Q 2447 4313 2519 4134 
Q 2591 3956 2591 3750 
Q 2591 3338 2302 3052 
Q 2013 2766 1594 2766 
Q 1172 2766 890 3047 
Q 609 3328 609 3750 
Q 609 4169 896 4459 
Q 1184 4750 1600 4750 
z
" id="DejaVuSans-b0" transform="scale(0.015625)"/>
     </defs>
     <use xlink:href="#DejaVuSans-4c"/>
     <use x="53.962891" xlink:href="#DejaVuSans-6f"/>
     <use x="115.144531" xlink:href="#DejaVuSans-76"/>
     <use x="174.324219" xlink:href="#DejaVuSans-65"/>
     <use x="235.847656" xlink:href="#DejaVuSans-72"/>
     <use x="276.960938" xlink:href="#DejaVuSans-73"/>
     <use x="329.060547" xlink:href="#DejaVuSans-20"/>
     <use x="360.847656" xlink:href="#DejaVuSans-4c"/>
     <use x="416.560547" xlink:href="#DejaVuSans-61"/>
     <use x="477.839844" xlink:href="#DejaVuSans-6e"/>
     <use x="541.21875" xlink:href="#DejaVuSans-65"/>
     <use x="602.742188" xlink:href="#DejaVuSans-20"/>
     <use x="634.529297" xlink:href="#DejaVuSans-31"/>
     <use x="698.152344" xlink:href="#DejaVuSans-31"/>
     <use x="761.775391" xlink:href="#DejaVuSans-2e"/>
     <use x="793.5625" xlink:href="#DejaVuSans-30"/>
     <use x="857.185547" xlink:href="#DejaVuSans-b0"/>
    </g>
   </g>
   <g id="text_5">
    <g id="patch_6">
     <path d="M 5.126166 19.220254 
L 10.558248 31.63546 
L 12.368208 30.84354 
L 6.936127 18.428334 
z
" style="fill:#ffffff;"/>
    </g>
    <!-- Wildcat 22.1° -->
    <g style="fill:#4169e1;" transform="translate(5.533566 19.063834)rotate(-293.631039)scale(0.02 -0.02)">
     <defs>
      <path d="M 213 4666 
L 850 4666 
L 1831 722 
L 2809 4666 
L 3519 4666 
L 4500 722 
L 5478 4666 
L 6119 4666 
L 4947 0 
L 4153 0 
L 3169 4050 
L 2175 0 
L 1381 0 
L 213 4666 
z
" id="DejaVuSans-57" transform="scale(0.015625)"/>
      <path d="M 2906 2969 
L 2906 4863 
L 3481 4863 
L 3481 0 
L 2906 0 
L 2906 525 
Q 2725 213 2448 61 
Q 2172 -91 1784 -91 
Q 1150 -91 751 415 
Q 353 922 353 1747 
Q 353 2572 751 3078 
Q 1150 3584 1784 3584 
Q 2172 3584 2448 3432 
Q 2725 3281 2906 2969 
z
M 947 1747 
Q 947 1113 1208 752 
Q 1469 391 1925 391 
Q 2381 391 2643 752 
Q 2906 1113 2906 1747 
Q 2906 2381 2643 2742 
Q 2381 3103 1925 3103 
Q 1469 3103 1208 2742 
Q 947 2381 947 1747 
z
" id="DejaVuSans-64" transform="scale(0.015625)"/>
      <path d="M 3122 3366 
L 3122 2828 
Q 2878 2963 2633 3030 
Q 2388 3097 2138 3097 
Q 1578 3097 1268 2742 
Q 959 2388 959 1747 
Q 959 1106 1268 751 
Q 1578 397 2138 397 
Q 2388 397 2633 464 
Q 2878 531 3122 666 
L 3122 134 
Q 2881 22 2623 -34 
Q 2366 -91 2075 -91 
Q 1284 -91 818 406 
Q 353 903 353 1747 
Q 353 2603 823 3093 
Q 1294 3584 2113 3584 
Q 2378 3584 2631 3529 
Q 2884 3475 3122 3366 
z
" id="DejaVuSans-63" transform="scale(0.015625)"/>
      <path d="M 1172 4494 
L 1172 3500 
L 2356 3500 
L 2356 3053 
L 1172 3053 
L 1172 1153 
Q 1172 725 1289 603 
Q 1406 481 1766 481 
L 2356 481 
L 2356 0 
L 1766 0 
Q 1100 0 847 248 
Q 594 497 594 1153 
L 594 3053 
L 172 3053 
L 172 3500 
L 594 3500 
L 594 4494 
L 1172 4494 
z
" id="DejaVuSans-74" transform="scale(0.015625)"/>
      <path d="M 1228 531 
L 3431 531 
L 3431 0 
L 469 0 
L 469 531 
Q 828 903 1448 1529 
Q 2069 2156 2228 2338 
Q 2531 2678 2651 2914 
Q 2772 3150 2772 3378 
Q 2772 3750 2511 3984 
Q 2250 4219 1831 4219 
Q 1534 4219 1204 4116 
Q 875 4013 500 3803 
L 500 4441 
Q 881 4594 1212 4672 
Q 1544 4750 1819 4750 
Q 2544 4750 2975 4387 
Q 3406 4025 3406 3419 
Q 3406 3131 3298 2873 
Q 3191 2616 2906 2266 
Q 2828 2175 2409 1742 
Q 1991 1309 1228 531 
z
" id="DejaVuSans-32" transform="scale(0.015625)"/>
     </defs>
     <use xlink:href="#DejaVuSans-57"/>
     <use x="96.626953" xlink:href="#DejaVuSans-69"/>
     <use x="124.410156" xlink:href="#DejaVuSans-6c"/>
     <use x="152.193359" xlink:href="#DejaVuSans-64"/>
     <use x="215.669922" xlink:href="#DejaVuSans-63"/>
     <use x="270.650391" xlink:href="#DejaVuSans-61"/>
     <use x="331.929688" xlink:href="#DejaVuSans-74"/>
     <use x="371.138672" xlink:href="#DejaVuSans-20"/>
     <use x="402.925781" xlink:href="#DejaVuSans-32"/>
     <use x="466.548828" xlink:href="#DejaVuSans-32"/>
     <use x="530.171875" xlink:href="#DejaVuSans-2e"/>
     <use x="561.958984" xlink:href="#DejaVuSans-31"/>
     <use x="625.582031" xlink:href="#DejaVuSans-b0"/>
    </g>
   </g>
   <g id="text_6">
    <g id="patch_7">
     <path d="M 40.005645 14.22269 
L 53.42156 22.833534 
L 54.488695 21.17091 
L 41.072779 12.560066 
z
" style="fill:#ffffff;"/>
    </g>
    <!-- Bull's Run 11.9° -->
    <g style="fill:#008000;" transform="translate(40.257948 13.866622)rotate(-327.306112)scale(0.02 -0.02)">
     <defs>
      <path d="M 1147 4666 
L 1147 2931 
L 616 2931 
L 616 4666 
L 1147 4666 
z
" id="DejaVuSans-27" transform="scale(0.015625)"/>
      <path d="M 2841 2188 
Q 3044 2119 3236 1894 
Q 3428 1669 3622 1275 
L 4263 0 
L 3584 0 
L 2988 1197 
Q 2756 1666 2539 1819 
Q 2322 1972 1947 1972 
L 1259 1972 
L 1259 0 
L 628 0 
L 628 4666 
L 2053 4666 
Q 2853 4666 3247 4331 
Q 3641 3997 3641 3322 
Q 3641 2881 3436 2590 
Q 3231 2300 2841 2188 
z
M 1259 4147 
L 1259 2491 
L 2053 2491 
Q 2509 2491 2742 2702 
Q 2975 2913 2975 3322 
Q 2975 3731 2742 3939 
Q 2509 4147 2053 4147 
L 1259 4147 
z
" id="DejaVuSans-52" transform="scale(0.015625)"/>
      <path d="M 703 97 
L 703 672 
Q 941 559 1184 500 
Q 1428 441 1663 441 
Q 2288 441 2617 861 
Q 2947 1281 2994 2138 
Q 2813 1869 2534 1725 
Q 2256 1581 1919 1581 
Q 1219 1581 811 2004 
Q 403 2428 403 3163 
Q 403 3881 828 4315 
Q 1253 4750 1959 4750 
Q 2769 4750 3195 4129 
Q 3622 3509 3622 2328 
Q 3622 1225 3098 567 
Q 2575 -91 1691 -91 
Q 1453 -91 1209 -44 
Q 966 3 703 97 
z
M 1959 2075 
Q 2384 2075 2632 2365 
Q 2881 2656 2881 3163 
Q 2881 3666 2632 3958 
Q 2384 4250 1959 4250 
Q 1534 4250 1286 3958 
Q 1038 3666 1038 3163 
Q 1038 2656 1286 2365 
Q 1534 2075 1959 2075 
z
" id="DejaVuSans-39" transform="scale(0.015625)"/>
     </defs>
     <use xlink:href="#DejaVuSans-42"/>
     <use x="68.603516" xlink:href="#DejaVuSans-75"/>
     <use x="131.982422" xlink:href="#DejaVuSans-6c"/>
     <use x="159.765625" xlink:href="#DejaVuSans-6c"/>
     <use x="187.548828" xlink:href="#DejaVuSans-27"/>
     <use x="215.039062" xlink:href="#DejaVuSans-73"/>
     <use x="267.138672" xlink:href="#DejaVuSans-20"/>
     <use x="298.925781" xlink:href="#DejaVuSans-52"/>
     <use x="363.908203" xlink:href="#DejaVuSans-75"/>
     <use x="427.287109" xlink:href="#DejaVuSans-6e"/>
     <use x="490.666016" xlink:href="#DejaVuSans-20"/>
     <use x="522.453125" xlink:href="#DejaVuSans-31"/>
     <use x="586.076172" xlink:href="#DejaVuSans-31"/>
     <use x="649.699219" xlink:href="#DejaVuSans-2e"/>
     <use x="681.486328" xlink:href="#DejaVuSans-39"/>
     <use x="745.109375" xlink:href="#DejaVuSans-b0"/>
    </g>
   </g>
   <g id="text_7">
    <g id="patch_8">
     <path d="M 50.756075 72.295938 
L 64.260322 84.746774 
L 65.5995 83.294295 
L 52.095253 70.843458 
z
" style="fill:#ffffff;"/>
    </g>
    <!-- Competition 17.2° -->
    <g style="fill:#4169e1;" transform="translate(51.06628 71.988994)rotate(-317.324125)scale(0.02 -0.02)">
     <defs>
      <path d="M 3328 2828 
Q 3544 3216 3844 3400 
Q 4144 3584 4550 3584 
Q 5097 3584 5394 3201 
Q 5691 2819 5691 2113 
L 5691 0 
L 5113 0 
L 5113 2094 
Q 5113 2597 4934 2840 
Q 4756 3084 4391 3084 
Q 3944 3084 3684 2787 
Q 3425 2491 3425 1978 
L 3425 0 
L 2847 0 
L 2847 2094 
Q 2847 2600 2669 2842 
Q 2491 3084 2119 3084 
Q 1678 3084 1418 2786 
Q 1159 2488 1159 1978 
L 1159 0 
L 581 0 
L 581 3500 
L 1159 3500 
L 1159 2956 
Q 1356 3278 1631 3431 
Q 1906 3584 2284 3584 
Q 2666 3584 2933 3390 
Q 3200 3197 3328 2828 
z
" id="DejaVuSans-6d" transform="scale(0.015625)"/>
      <path d="M 525 4666 
L 3525 4666 
L 3525 4397 
L 1831 0 
L 1172 0 
L 2766 4134 
L 525 4134 
L 525 4666 
z
" id="DejaVuSans-37" transform="scale(0.015625)"/>
     </defs>
     <use xlink:href="#DejaVuSans-43"/>
     <use x="69.824219" xlink:href="#DejaVuSans-6f"/>
     <use x="131.005859" xlink:href="#DejaVuSans-6d"/>
     <use x="228.417969" xlink:href="#DejaVuSans-70"/>
     <use x="291.894531" xlink:href="#DejaVuSans-65"/>
     <use x="353.417969" xlink:href="#DejaVuSans-74"/>
     <use x="392.626953" xlink:href="#DejaVuSans-69"/>
     <use x="420.410156" xlink:href="#DejaVuSans-74"/>
     <use x="459.619141" xlink:href="#DejaVuSans-69"/>
     <use x="487.402344" xlink:href="#DejaVuSans-6f"/>
     <use x="548.583984" xlink:href="#DejaVuSans-6e"/>
     <use x="611.962891" xlink:href="#DejaVuSans-20"/>
     <use x="643.75" xlink:href="#DejaVuSans-31"/>
     <use x="707.373047" xlink:href="#DejaVuSans-37"/>
     <use x="770.996094" xlink:href="#DejaVuSans-2e"/>
     <use x="802.783203" xlink:href="#DejaVuSans-32"/>
     <use x="866.40625" xlink:href="#DejaVuSans-b0"/>
    </g>
   </g>
   <g id="text_8">
    <g id="patch_9">
     <path d="M 65.186463 93.402482 
L 79.970914 84.113642 
L 78.919886 82.44079 
L 64.135436 91.729629 
z
" style="fill:#ffffff;"/>
    </g>
    <!-- Sunset Run 16.2° -->
    <g style="fill:#008000;" transform="translate(64.97148 93.022714)rotate(-32.140505)scale(0.02 -0.02)">
     <defs>
      <path d="M 3425 4513 
L 3425 3897 
Q 3066 4069 2747 4153 
Q 2428 4238 2131 4238 
Q 1616 4238 1336 4038 
Q 1056 3838 1056 3469 
Q 1056 3159 1242 3001 
Q 1428 2844 1947 2747 
L 2328 2669 
Q 3034 2534 3370 2195 
Q 3706 1856 3706 1288 
Q 3706 609 3251 259 
Q 2797 -91 1919 -91 
Q 1588 -91 1214 -16 
Q 841 59 441 206 
L 441 856 
Q 825 641 1194 531 
Q 1563 422 1919 422 
Q 2459 422 2753 634 
Q 3047 847 3047 1241 
Q 3047 1584 2836 1778 
Q 2625 1972 2144 2069 
L 1759 2144 
Q 1053 2284 737 2584 
Q 422 2884 422 3419 
Q 422 4038 858 4394 
Q 1294 4750 2059 4750 
Q 2388 4750 2728 4690 
Q 3069 4631 3425 4513 
z
" id="DejaVuSans-53" transform="scale(0.015625)"/>
      <path d="M 2113 2584 
Q 1688 2584 1439 2293 
Q 1191 2003 1191 1497 
Q 1191 994 1439 701 
Q 1688 409 2113 409 
Q 2538 409 2786 701 
Q 3034 994 3034 1497 
Q 3034 2003 2786 2293 
Q 2538 2584 2113 2584 
z
M 3366 4563 
L 3366 3988 
Q 3128 4100 2886 4159 
Q 2644 4219 2406 4219 
Q 1781 4219 1451 3797 
Q 1122 3375 1075 2522 
Q 1259 2794 1537 2939 
Q 1816 3084 2150 3084 
Q 2853 3084 3261 2657 
Q 3669 2231 3669 1497 
Q 3669 778 3244 343 
Q 2819 -91 2113 -91 
Q 1303 -91 875 529 
Q 447 1150 447 2328 
Q 447 3434 972 4092 
Q 1497 4750 2381 4750 
Q 2619 4750 2861 4703 
Q 3103 4656 3366 4563 
z
" id="DejaVuSans-36" transform="scale(0.015625)"/>
     </defs>
     <use xlink:href="#DejaVuSans-53"/>
     <use x="63.476562" xlink:href="#DejaVuSans-75"/>
     <use x="126.855469" xlink:href="#DejaVuSans-6e"/>
     <use x="190.234375" xlink:href="#DejaVuSans-73"/>
     <use x="242.333984" xlink:href="#DejaVuSans-65"/>
     <use x="303.857422" xlink:href="#DejaVuSans-74"/>
     <use x="343.066406" xlink:href="#DejaVuSans-20"/>
     <use x="374.853516" xlink:href="#DejaVuSans-52"/>
     <use x="439.835938" xlink:href="#DejaVuSans-75"/>
     <use x="503.214844" xlink:href="#DejaVuSans-6e"/>
     <use x="566.59375" xlink:href="#DejaVuSans-20"/>
     <use x="598.380859" xlink:href="#DejaVuSans-31"/>
     <use x="662.003906" xlink:href="#DejaVuSans-36"/>
     <use x="725.626953" xlink:href="#DejaVuSans-2e"/>
     <use x="757.414062" xlink:href="#DejaVuSans-32"/>
     <use x="821.037109" xlink:href="#DejaVuSans-b0"/>
    </g>
   </g>
   <g id="text_9">
    <g id="patch_10">
     <path d="M 25.374211 82.75911 
L 34.138896 94.694419 
L 35.731278 93.525054 
L 26.966593 81.589745 
z
" style="fill:#ffffff;"/>
    </g>
    <!-- Santa Fe 17.0° -->
    <g style="fill:#4169e1;" transform="translate(25.737421 82.517201)rotate(-306.291672)scale(0.02 -0.02)">
     <defs>
      <path d="M 628 4666 
L 3309 4666 
L 3309 4134 
L 1259 4134 
L 1259 2759 
L 3109 2759 
L 3109 2228 
L 1259 2228 
L 1259 0 
L 628 0 
L 628 4666 
z
" id="DejaVuSans-46" transform="scale(0.015625)"/>
     </defs>
     <use xlink:href="#DejaVuSans-53"/>
     <use x="63.476562" xlink:href="#DejaVuSans-61"/>
     <use x="124.755859" xlink:href="#DejaVuSans-6e"/>
     <use x="188.134766" xlink:href="#DejaVuSans-74"/>
     <use x="227.34375" xlink:href="#DejaVuSans-61"/>
     <use x="288.623047" xlink:href="#DejaVuSans-20"/>
     <use x="320.410156" xlink:href="#DejaVuSans-46"/>
     <use x="372.429688" xlink:href="#DejaVuSans-65"/>
     <use x="433.953125" xlink:href="#DejaVuSans-20"/>
     <use x="465.740234" xlink:href="#DejaVuSans-31"/>
     <use x="529.363281" xlink:href="#DejaVuSans-37"/>
     <use x="592.986328" xlink:href="#DejaVuSans-2e"/>
     <use x="624.773438" xlink:href="#DejaVuSans-30"/>
     <use x="688.396484" xlink:href="#DejaVuSans-b0"/>
    </g>
   </g>
   <g id="text_10">
    <g id="patch_11">
     <path d="M 29.436055 43.064657 
L 47.223673 36.299649 
L 46.521377 34.453065 
L 28.733759 41.218072 
z
" style="fill:#ffffff;"/>
    </g>
    <!-- Deer Pasture 10.5° -->
    <g style="fill:#008000;" transform="translate(29.299781 42.650084)rotate(-20.82287)scale(0.02 -0.02)">
     <defs>
      <path d="M 1259 4147 
L 1259 2394 
L 2053 2394 
Q 2494 2394 2734 2622 
Q 2975 2850 2975 3272 
Q 2975 3691 2734 3919 
Q 2494 4147 2053 4147 
L 1259 4147 
z
M 628 4666 
L 2053 4666 
Q 2838 4666 3239 4311 
Q 3641 3956 3641 3272 
Q 3641 2581 3239 2228 
Q 2838 1875 2053 1875 
L 1259 1875 
L 1259 0 
L 628 0 
L 628 4666 
z
" id="DejaVuSans-50" transform="scale(0.015625)"/>
      <path d="M 691 4666 
L 3169 4666 
L 3169 4134 
L 1269 4134 
L 1269 2991 
Q 1406 3038 1543 3061 
Q 1681 3084 1819 3084 
Q 2600 3084 3056 2656 
Q 3513 2228 3513 1497 
Q 3513 744 3044 326 
Q 2575 -91 1722 -91 
Q 1428 -91 1123 -41 
Q 819 9 494 109 
L 494 744 
Q 775 591 1075 516 
Q 1375 441 1709 441 
Q 2250 441 2565 725 
Q 2881 1009 2881 1497 
Q 2881 1984 2565 2268 
Q 2250 2553 1709 2553 
Q 1456 2553 1204 2497 
Q 953 2441 691 2322 
L 691 4666 
z
" id="DejaVuSans-35" transform="scale(0.015625)"/>
     </defs>
     <use xlink:href="#DejaVuSans-44"/>
     <use x="77.001953" xlink:href="#DejaVuSans-65"/>
     <use x="138.525391" xlink:href="#DejaVuSans-65"/>
     <use x="200.048828" xlink:href="#DejaVuSans-72"/>
     <use x="241.162109" xlink:href="#DejaVuSans-20"/>
     <use x="272.949219" xlink:href="#DejaVuSans-50"/>
     <use x="328.751953" xlink:href="#DejaVuSans-61"/>
     <use x="390.03125" xlink:href="#DejaVuSans-73"/>
     <use x="442.130859" xlink:href="#DejaVuSans-74"/>
     <use x="481.339844" xlink:href="#DejaVuSans-75"/>
     <use x="544.71875" xlink:href="#DejaVuSans-72"/>
     <use x="583.582031" xlink:href="#DejaVuSans-65"/>
     <use x="645.105469" xlink:href="#DejaVuSans-20"/>
     <use x="676.892578" xlink:href="#DejaVuSans-31"/>
     <use x="740.515625" xlink:href="#DejaVuSans-30"/>
     <use x="804.138672" xlink:href="#DejaVuSans-2e"/>
     <use x="835.925781" xlink:href="#DejaVuSans-35"/>
     <use x="899.548828" xlink:href="#DejaVuSans-b0"/>
    </g>
   </g>
   <g id="text_11">
    <g id="patch_12">
     <path d="M 19.099025 74.049884 
L 21.474864 58.730205 
L 19.522577 58.427436 
L 17.146738 73.747115 
z
" style="fill:#ffffff;"/>
    </g>
    <!-- The Road 16.1° -->
    <g style="fill:#008000;" transform="translate(18.671302 73.963312)rotate(-81.18456)scale(0.02 -0.02)">
     <use xlink:href="#DejaVuSans-54"/>
     <use x="61.083984" xlink:href="#DejaVuSans-68"/>
     <use x="124.462891" xlink:href="#DejaVuSans-65"/>
     <use x="185.986328" xlink:href="#DejaVuSans-20"/>
     <use x="217.773438" xlink:href="#DejaVuSans-52"/>
     <use x="282.755859" xlink:href="#DejaVuSans-6f"/>
     <use x="343.9375" xlink:href="#DejaVuSans-61"/>
     <use x="405.216797" xlink:href="#DejaVuSans-64"/>
     <use x="468.693359" xlink:href="#DejaVuSans-20"/>
     <use x="500.480469" xlink:href="#DejaVuSans-31"/>
     <use x="564.103516" xlink:href="#DejaVuSans-36"/>
     <use x="627.726562" xlink:href="#DejaVuSans-2e"/>
     <use x="659.513672" xlink:href="#DejaVuSans-31"/>
     <use x="723.136719" xlink:href="#DejaVuSans-b0"/>
    </g>
   </g>
   <g id="text_12">
    <g id="patch_13">
     <path d="M 22.778017 72.001712 
L 24.123658 53.204504 
L 22.153076 53.063435 
L 20.807435 71.860644 
z
" style="fill:#ffffff;"/>
    </g>
    <!-- Sissy Schuss 12.4° -->
    <g style="fill:#008000;" transform="translate(22.34462 71.950636)rotate(-85.905335)scale(0.02 -0.02)">
     <defs>
      <path d="M 2059 -325 
Q 1816 -950 1584 -1140 
Q 1353 -1331 966 -1331 
L 506 -1331 
L 506 -850 
L 844 -850 
Q 1081 -850 1212 -737 
Q 1344 -625 1503 -206 
L 1606 56 
L 191 3500 
L 800 3500 
L 1894 763 
L 2988 3500 
L 3597 3500 
L 2059 -325 
z
" id="DejaVuSans-79" transform="scale(0.015625)"/>
      <path d="M 2419 4116 
L 825 1625 
L 2419 1625 
L 2419 4116 
z
M 2253 4666 
L 3047 4666 
L 3047 1625 
L 3713 1625 
L 3713 1100 
L 3047 1100 
L 3047 0 
L 2419 0 
L 2419 1100 
L 313 1100 
L 313 1709 
L 2253 4666 
z
" id="DejaVuSans-34" transform="scale(0.015625)"/>
     </defs>
     <use xlink:href="#DejaVuSans-53"/>
     <use x="63.476562" xlink:href="#DejaVuSans-69"/>
     <use x="91.259766" xlink:href="#DejaVuSans-73"/>
     <use x="143.359375" xlink:href="#DejaVuSans-73"/>
     <use x="195.458984" xlink:href="#DejaVuSans-79"/>
     <use x="254.638672" xlink:href="#DejaVuSans-20"/>
     <use x="286.425781" xlink:href="#DejaVuSans-53"/>
     <use x="349.902344" xlink:href="#DejaVuSans-63"/>
     <use x="404.882812" xlink:href="#DejaVuSans-68"/>
     <use x="468.261719" xlink:href="#DejaVuSans-75"/>
     <use x="531.640625" xlink:href="#DejaVuSans-73"/>
     <use x="583.740234" xlink:href="#DejaVuSans-73"/>
     <use x="635.839844" xlink:href="#DejaVuSans-20"/>
     <use x="667.626953" xlink:href="#DejaVuSans-31"/>
     <use x="731.25" xlink:href="#DejaVuSans-32"/>
     <use x="794.873047" xlink:href="#DejaVuSans-2e"/>
     <use x="826.660156" xlink:href="#DejaVuSans-34"/>
     <use x="890.283203" xlink:href="#DejaVuSans-b0"/>
    </g>
   </g>
   <g id="text_13">
    <!-- Thunder Ridge -->
    <g transform="translate(23.478528 6.261412)scale(0.06 -0.06)">
     <defs>
      <path d="M 2906 1791 
Q 2906 2416 2648 2759 
Q 2391 3103 1925 3103 
Q 1463 3103 1205 2759 
Q 947 2416 947 1791 
Q 947 1169 1205 825 
Q 1463 481 1925 481 
Q 2391 481 2648 825 
Q 2906 1169 2906 1791 
z
M 3481 434 
Q 3481 -459 3084 -895 
Q 2688 -1331 1869 -1331 
Q 1566 -1331 1297 -1286 
Q 1028 -1241 775 -1147 
L 775 -588 
Q 1028 -725 1275 -790 
Q 1522 -856 1778 -856 
Q 2344 -856 2625 -561 
Q 2906 -266 2906 331 
L 2906 616 
Q 2728 306 2450 153 
Q 2172 0 1784 0 
Q 1141 0 747 490 
Q 353 981 353 1791 
Q 353 2603 747 3093 
Q 1141 3584 1784 3584 
Q 2172 3584 2450 3431 
Q 2728 3278 2906 2969 
L 2906 3500 
L 3481 3500 
L 3481 434 
z
" id="DejaVuSans-67" transform="scale(0.015625)"/>
     </defs>
     <use xlink:href="#DejaVuSans-54"/>
     <use x="61.083984" xlink:href="#DejaVuSans-68"/>
     <use x="124.462891" xlink:href="#DejaVuSans-75"/>
     <use x="187.841797" xlink:href="#DejaVuSans-6e"/>
     <use x="251.220703" xlink:href="#DejaVuSans-64"/>
     <use x="314.697266" xlink:href="#DejaVuSans-65"/>
     <use x="376.220703" xlink:href="#DejaVuSans-72"/>
     <use x="417.333984" xlink:href="#DejaVuSans-20"/>
     <use x="449.121094" xlink:href="#DejaVuSans-52"/>
     <use x="518.603516" xlink:href="#DejaVuSans-69"/>
     <use x="546.386719" xlink:href="#DejaVuSans-64"/>
     <use x="609.863281" xlink:href="#DejaVuSans-67"/>
     <use x="673.339844" xlink:href="#DejaVuSans-65"/>
    </g>
   </g>
   <g id="legend_1">
    <g id="line2d_32">
     <path d="M 3.523606 118.659524 
L 9.523606 118.659524 
" style="fill:none;stroke:#008000;stroke-linecap:square;stroke-width:1.5;"/>
    </g>
    <g id="line2d_33"/>
    <g id="text_14">
     <!-- Easy -->
     <g transform="translate(11.923606 119.709524)scale(0.03 -0.03)">
      <defs>
       <path d="M 628 4666 
L 3578 4666 
L 3578 4134 
L 1259 4134 
L 1259 2753 
L 3481 2753 
L 3481 2222 
L 1259 2222 
L 1259 531 
L 3634 531 
L 3634 0 
L 628 0 
L 628 4666 
z
" id="DejaVuSans-45" transform="scale(0.015625)"/>
      </defs>
      <use xlink:href="#DejaVuSans-45"/>
      <use x="63.183594" xlink:href="#DejaVuSans-61"/>
      <use x="124.462891" xlink:href="#DejaVuSans-73"/>
      <use x="176.5625" xlink:href="#DejaVuSans-79"/>
     </g>
    </g>
    <g id="line2d_34">
     <path d="M 3.523606 123.062961 
L 9.523606 123.062961 
" style="fill:none;stroke:#4169e1;stroke-linecap:square;stroke-width:1.5;"/>
    </g>
    <g id="line2d_35"/>
    <g id="text_15">
     <!-- Intermediate -->
     <g transform="translate(11.923606 124.112961)scale(0.03 -0.03)">
      <defs>
       <path d="M 628 4666 
L 1259 4666 
L 1259 0 
L 628 0 
L 628 4666 
z
" id="DejaVuSans-49" transform="scale(0.015625)"/>
      </defs>
      <use xlink:href="#DejaVuSans-49"/>
      <use x="29.492188" xlink:href="#DejaVuSans-6e"/>
      <use x="92.871094" xlink:href="#DejaVuSans-74"/>
      <use x="132.080078" xlink:href="#DejaVuSans-65"/>
      <use x="193.603516" xlink:href="#DejaVuSans-72"/>
      <use x="232.966797" xlink:href="#DejaVuSans-6d"/>
      <use x="330.378906" xlink:href="#DejaVuSans-65"/>
      <use x="391.902344" xlink:href="#DejaVuSans-64"/>
      <use x="455.378906" xlink:href="#DejaVuSans-69"/>
      <use x="483.162109" xlink:href="#DejaVuSans-61"/>
      <use x="544.441406" xlink:href="#DejaVuSans-74"/>
      <use x="583.650391" xlink:href="#DejaVuSans-65"/>
     </g>
    </g>
    <g id="line2d_36">
     <path d="M 37.279231 118.659524 
L 43.279231 118.659524 
" style="fill:none;stroke:#000000;stroke-linecap:square;stroke-width:1.5;"/>
    </g>
    <g id="line2d_37"/>
    <g id="text_16">
     <!-- Advanced -->
     <g transform="translate(45.679231 119.709524)scale(0.03 -0.03)">
      <defs>
       <path d="M 2188 4044 
L 1331 1722 
L 3047 1722 
L 2188 4044 
z
M 1831 4666 
L 2547 4666 
L 4325 0 
L 3669 0 
L 3244 1197 
L 1141 1197 
L 716 0 
L 50 0 
L 1831 4666 
z
" id="DejaVuSans-41" transform="scale(0.015625)"/>
      </defs>
      <use xlink:href="#DejaVuSans-41"/>
      <use x="66.658203" xlink:href="#DejaVuSans-64"/>
      <use x="130.134766" xlink:href="#DejaVuSans-76"/>
      <use x="189.314453" xlink:href="#DejaVuSans-61"/>
      <use x="250.59375" xlink:href="#DejaVuSans-6e"/>
      <use x="313.972656" xlink:href="#DejaVuSans-63"/>
      <use x="368.953125" xlink:href="#DejaVuSans-65"/>
      <use x="430.476562" xlink:href="#DejaVuSans-64"/>
     </g>
    </g>
    <g id="line2d_38">
     <path d="M 37.279231 123.062961 
L 43.279231 123.062961 
" style="fill:none;stroke:#ff0000;stroke-linecap:square;stroke-width:1.5;"/>
    </g>
    <g id="line2d_39"/>
    <g id="text_17">
     <!-- Expert -->
     <g transform="translate(45.679231 124.112961)scale(0.03 -0.03)">
      <defs>
       <path d="M 3513 3500 
L 2247 1797 
L 3578 0 
L 2900 0 
L 1881 1375 
L 863 0 
L 184 0 
L 1544 1831 
L 300 3500 
L 978 3500 
L 1906 2253 
L 2834 3500 
L 3513 3500 
z
" id="DejaVuSans-78" transform="scale(0.015625)"/>
      </defs>
      <use xlink:href="#DejaVuSans-45"/>
      <use x="63.183594" xlink:href="#DejaVuSans-78"/>
      <use x="122.363281" xlink:href="#DejaVuSans-70"/>
      <use x="185.839844" xlink:href="#DejaVuSans-65"/>
      <use x="247.363281" xlink:href="#DejaVuSans-72"/>
      <use x="288.476562" xlink:href="#DejaVuSans-74"/>
     </g>
    </g>
    <g id="line2d_40">
     <path d="M 66.498762 118.659524 
L 72.498762 118.659524 
" style="fill:none;stroke:#ffd700;stroke-linecap:square;stroke-width:1.5;"/>
    </g>
    <g id="line2d_41"/>
    <g id="text_18">
     <!-- Extreme -->
     <g transform="translate(74.898762 119.709524)scale(0.03 -0.03)">
      <use xlink:href="#DejaVuSans-45"/>
      <use x="63.183594" xlink:href="#DejaVuSans-78"/>
      <use x="122.363281" xlink:href="#DejaVuSans-74"/>
      <use x="161.572266" xlink:href="#DejaVuSans-72"/>
      <use x="200.435547" xlink:href="#DejaVuSans-65"/>
      <use x="261.958984" xlink:href="#DejaVuSans-6d"/>
      <use x="359.371094" xlink:href="#DejaVuSans-65"/>
     </g>
    </g>
    <g id="line2d_42">
     <path d="M 66.498762 123.062961 
L 72.498762 123.062961 
" style="fill:none;stroke:#000000;stroke-dasharray:1.5,2.475;stroke-dashoffset:0;stroke-width:1.5;"/>
    </g>
    <g id="line2d_43"/>
    <g id="text_19">
     <!-- Gladed -->
     <g transform="translate(74.898762 124.112961)scale(0.03 -0.03)">
      <defs>
       <path d="M 3809 666 
L 3809 1919 
L 2778 1919 
L 2778 2438 
L 4434 2438 
L 4434 434 
Q 4069 175 3628 42 
Q 3188 -91 2688 -91 
Q 1594 -91 976 548 
Q 359 1188 359 2328 
Q 359 3472 976 4111 
Q 1594 4750 2688 4750 
Q 3144 4750 3555 4637 
Q 3966 4525 4313 4306 
L 4313 3634 
Q 3963 3931 3569 4081 
Q 3175 4231 2741 4231 
Q 1884 4231 1454 3753 
Q 1025 3275 1025 2328 
Q 1025 1384 1454 906 
Q 1884 428 2741 428 
Q 3075 428 3337 486 
Q 3600 544 3809 666 
z
" id="DejaVuSans-47" transform="scale(0.015625)"/>
      </defs>
      <use xlink:href="#DejaVuSans-47"/>
      <use x="77.490234" xlink:href="#DejaVuSans-6c"/>
      <use x="105.273438" xlink:href="#DejaVuSans-61"/>
      <use x="166.552734" xlink:href="#DejaVuSans-64"/>
      <use x="230.029297" xlink:href="#DejaVuSans-65"/>
      <use x="291.552734" xlink:href="#DejaVuSans-64"/>
     </g>
    </g>
   </g>
  </g>
  <g id="text_20">
   <!-- Sources: USGS and OpenStreetMaps -->
   <g transform="translate(21.728379 128.226551)scale(0.026087 -0.026087)">
    <defs>
     <path d="M 750 794 
L 1409 794 
L 1409 0 
L 750 0 
L 750 794 
z
M 750 3309 
L 1409 3309 
L 1409 2516 
L 750 2516 
L 750 3309 
z
" id="DejaVuSans-3a" transform="scale(0.015625)"/>
     <path d="M 556 4666 
L 1191 4666 
L 1191 1831 
Q 1191 1081 1462 751 
Q 1734 422 2344 422 
Q 2950 422 3222 751 
Q 3494 1081 3494 1831 
L 3494 4666 
L 4128 4666 
L 4128 1753 
Q 4128 841 3676 375 
Q 3225 -91 2344 -91 
Q 1459 -91 1007 375 
Q 556 841 556 1753 
L 556 4666 
z
" id="DejaVuSans-55" transform="scale(0.015625)"/>
     <path d="M 2522 4238 
Q 1834 4238 1429 3725 
Q 1025 3213 1025 2328 
Q 1025 1447 1429 934 
Q 1834 422 2522 422 
Q 3209 422 3611 934 
Q 4013 1447 4013 2328 
Q 4013 3213 3611 3725 
Q 3209 4238 2522 4238 
z
M 2522 4750 
Q 3503 4750 4090 4092 
Q 4678 3434 4678 2328 
Q 4678 1225 4090 567 
Q 3503 -91 2522 -91 
Q 1538 -91 948 565 
Q 359 1222 359 2328 
Q 359 3434 948 4092 
Q 1538 4750 2522 4750 
z
" id="DejaVuSans-4f" transform="scale(0.015625)"/>
     <path d="M 628 4666 
L 1569 4666 
L 2759 1491 
L 3956 4666 
L 4897 4666 
L 4897 0 
L 4281 0 
L 4281 4097 
L 3078 897 
L 2444 897 
L 1241 4097 
L 1241 0 
L 628 0 
L 628 4666 
z
" id="DejaVuSans-4d" transform="scale(0.015625)"/>
    </defs>
    <use xlink:href="#DejaVuSans-53"/>
    <use x="63.476562" xlink:href="#DejaVuSans-6f"/>
    <use x="124.658203" xlink:href="#DejaVuSans-75"/>
    <use x="188.037109" xlink:href="#DejaVuSans-72"/>
    <use x="226.900391" xlink:href="#DejaVuSans-63"/>
    <use x="281.880859" xlink:href="#DejaVuSans-65"/>
    <use x="343.404297" xlink:href="#DejaVuSans-73"/>
    <use x="395.503906" xlink:href="#DejaVuSans-3a"/>
    <use x="429.195312" xlink:href="#DejaVuSans-20"/>
    <use x="460.982422" xlink:href="#DejaVuSans-55"/>
    <use x="534.175781" xlink:href="#DejaVuSans-53"/>
    <use x="597.652344" xlink:href="#DejaVuSans-47"/>
    <use x="675.142578" xlink:href="#DejaVuSans-53"/>
    <use x="738.619141" xlink:href="#DejaVuSans-20"/>
    <use x="770.40625" xlink:href="#DejaVuSans-61"/>
    <use x="831.685547" xlink:href="#DejaVuSans-6e"/>
    <use x="895.064453" xlink:href="#DejaVuSans-64"/>
    <use x="958.541016" xlink:href="#DejaVuSans-20"/>
    <use x="990.328125" xlink:href="#DejaVuSans-4f"/>
    <use x="1069.039062" xlink:href="#DejaVuSans-70"/>
    <use x="1132.515625" xlink:href="#DejaVuSans-65"/>
    <use x="1194.039062" xlink:href="#DejaVuSans-6e"/>
    <use x="1257.417969" xlink:href="#DejaVuSans-53"/>
    <use x="1320.894531" xlink:href="#DejaVuSans-74"/>
    <use x="1360.103516" xlink:href="#DejaVuSans-72"/>
    <use x="1398.966797" xlink:href="#DejaVuSans-65"/>
    <use x="1460.490234" xlink:href="#DejaVuSans-65"/>
    <use x="1522.013672" xlink:href="#DejaVuSans-74"/>
    <use x="1561.222656" xlink:href="#DejaVuSans-4d"/>
    <use x="1647.501953" xlink:href="#DejaVuSans-61"/>
    <use x="1708.78125" xlink:href="#DejaVuSans-70"/>
    <use x="1772.257812" xlink:href="#DejaVuSans-73"/>
   </g>
  </g>
 </g>
 <defs>
  <clipPath id="p7605f836b9">
   <rect height="110.246255" width="91.049556" x="0" y="9.261412"/>
  </clipPath>
 </defs>
</svg>
