<?xml version="1.0" encoding="utf-8" standalone="no"?>
<!DOCTYPE svg PUBLIC "-//W3C//DTD SVG 1.1//EN"
  "http://www.w3.org/Graphics/SVG/1.1/DTD/svg11.dtd">
<svg height="100.874326pt" version="1.1" viewBox="0 0 90.682338 100.874326" width="90.682338pt" xmlns="http://www.w3.org/2000/svg" xmlns:xlink="http://www.w3.org/1999/xlink">
 <metadata>
  <rdf:RDF xmlns:cc="http://creativecommons.org/ns#" xmlns:dc="http://purl.org/dc/elements/1.1/" xmlns:rdf="http://www.w3.org/1999/02/22-rdf-syntax-ns#">
   <cc:Work>
    <dc:type rdf:resource="http://purl.org/dc/dcmitype/StillImage"/>
    <dc:date>2022-04-14T21:34:17.422092</dc:date>
    <dc:format>image/svg+xml</dc:format>
    <dc:creator>
     <cc:Agent>
      <dc:title>Matplotlib v3.4.3, https://matplotlib.org/</dc:title>
     </cc:Agent>
    </dc:creator>
   </cc:Work>
  </rdf:RDF>
 </metadata>
 <defs>
  <style type="text/css">*{stroke-linecap:butt;stroke-linejoin:round;}</style>
 </defs>
 <g id="figure_1">
  <g id="patch_1">
   <path d="M 0 100.874326 
L 90.682338 100.874326 
L 90.682338 0 
L 0 0 
z
" style="fill:#ffffff;"/>
  </g>
  <g id="axes_1">
   <g id="patch_2">
    <path clip-path="url(#pabf0fd1bbc)" d="M 69.03748 54.804471 
L 69.03748 54.804471 
L 68.244792 53.925871 
L 67.452103 53.04727 
L 66.659415 52.16867 
L 65.866726 51.290069 
L 64.773059 52.239329 
L 65.566023 53.117573 
L 66.358987 53.995816 
L 67.151951 54.87406 
L 67.944915 55.752303 
z
" style="fill:#008000;opacity:0.1;"/>
   </g>
   <g id="patch_3">
    <path clip-path="url(#pabf0fd1bbc)" d="M 69.03748 54.804471 
L 69.03748 54.804471 
L 68.244792 53.925871 
L 67.452103 53.04727 
L 66.659415 52.16867 
L 65.866726 51.290069 
L 64.773059 52.239329 
L 65.566023 53.117573 
L 66.358987 53.995816 
L 67.151951 54.87406 
L 67.944915 55.752303 
z
" style="fill:none;stroke:#008000;stroke-linejoin:miter;"/>
   </g>
   <g id="patch_4">
    <path clip-path="url(#pabf0fd1bbc)" d="M 72.569849 55.325493 
L 72.569849 55.325493 
L 73.999775 54.229205 
L 73.261936 53.303856 
L 72.524096 52.378506 
L 71.786256 51.453156 
L 71.048417 50.527807 
L 70.310577 49.602457 
L 69.572738 48.677107 
L 68.834898 47.751758 
L 68.097058 46.826408 
L 66.664927 47.925551 
z
" style="fill:#008000;opacity:0.1;"/>
   </g>
   <g id="patch_5">
    <path clip-path="url(#pabf0fd1bbc)" d="M 72.569849 55.325493 
L 72.569849 55.325493 
L 73.999775 54.229205 
L 73.261936 53.303856 
L 72.524096 52.378506 
L 71.786256 51.453156 
L 71.048417 50.527807 
L 70.310577 49.602457 
L 69.572738 48.677107 
L 68.834898 47.751758 
L 68.097058 46.826408 
L 66.664927 47.925551 
z
" style="fill:none;stroke:#008000;stroke-linejoin:miter;"/>
   </g>
   <g id="line2d_1">
    <path clip-path="url(#pabf0fd1bbc)" d="M 71.968994 71.341572 
" style="fill:none;stroke:#008000;stroke-linecap:square;stroke-width:1.5;"/>
   </g>
   <g id="line2d_2">
    <path clip-path="url(#pabf0fd1bbc)" d="M 71.968994 71.341572 
" style="fill:none;stroke:#4169e1;stroke-linecap:square;stroke-width:1.5;"/>
   </g>
   <g id="line2d_3">
    <path clip-path="url(#pabf0fd1bbc)" d="M 71.968994 71.341572 
" style="fill:none;stroke:#000000;stroke-linecap:square;stroke-width:1.5;"/>
   </g>
   <g id="line2d_4">
    <path clip-path="url(#pabf0fd1bbc)" d="M 71.968994 71.341572 
" style="fill:none;stroke:#ff0000;stroke-linecap:square;stroke-width:1.5;"/>
   </g>
   <g id="line2d_5">
    <path clip-path="url(#pabf0fd1bbc)" d="M 71.968994 71.341572 
" style="fill:none;stroke:#ffd700;stroke-linecap:square;stroke-width:1.5;"/>
   </g>
   <g id="line2d_6">
    <path clip-path="url(#pabf0fd1bbc)" d="M 71.968994 71.341572 
" style="fill:none;stroke:#000000;stroke-dasharray:1.5,2.475;stroke-dashoffset:0;stroke-width:1.5;"/>
   </g>
   <g id="line2d_7">
    <path clip-path="url(#pabf0fd1bbc)" d="M 82.996072 87.698814 
L 79.390938 84.52843 
L 74.842076 80.527265 
L 70.799255 76.971467 
L 69.360509 75.706739 
L 68.482929 74.934484 
" style="fill:none;stroke:#808080;stroke-linecap:square;stroke-width:1.5;"/>
   </g>
   <g id="line2d_8">
    <path clip-path="url(#pabf0fd1bbc)" d="M 69.546829 69.762804 
L 66.062969 65.167816 
L 63.120431 61.285131 
L 61.111147 58.634341 
L 59.101864 55.983551 
L 57.224328 53.506912 
L 56.002772 51.895312 
L 53.78567 48.97045 
L 51.568568 46.045589 
L 49.266024 43.007958 
L 46.963479 39.970327 
L 44.367121 36.545142 
L 41.770764 33.119956 
L 39.799516 30.519127 
L 37.828269 27.918299 
L 36.608918 26.308126 
L 35.34216 24.638 
" style="fill:none;stroke:#808080;stroke-linecap:square;stroke-width:1.5;"/>
   </g>
   <g id="line2d_9">
    <path clip-path="url(#pabf0fd1bbc)" d="M 84.650905 57.234005 
L 82.531856 54.61337 
L 80.412806 51.992736 
L 78.293757 49.372101 
L 76.174707 46.751467 
L 74.055658 44.130832 
L 71.936608 41.510197 
L 69.817559 38.889563 
L 67.698509 36.268928 
L 65.57946 33.648294 
L 63.46041 31.027659 
L 61.341361 28.407025 
L 59.222311 25.78639 
L 57.103261 23.165756 
L 54.984212 20.545121 
L 52.865162 17.924487 
L 50.746113 15.303852 
" style="fill:none;stroke:#808080;stroke-linecap:square;stroke-width:1.5;"/>
   </g>
   <g id="line2d_10">
    <path clip-path="url(#pabf0fd1bbc)" d="M 57.507668 67.875704 
L 53.268328 66.567082 
L 49.028989 65.25846 
L 44.78965 63.949838 
L 40.55031 62.641216 
" style="fill:none;stroke:#808080;stroke-linecap:square;stroke-width:1.5;"/>
   </g>
   <g id="line2d_11">
    <path clip-path="url(#pabf0fd1bbc)" d="M 71.968994 71.341572 
L 72.60823 72.239979 
L 73.247466 73.138385 
L 73.886701 74.036792 
L 74.525937 74.935198 
L 75.165173 75.833604 
L 75.804409 76.732011 
L 76.443645 77.630417 
L 77.082881 78.528824 
L 77.722117 79.42723 
L 78.361353 80.325636 
L 79.000589 81.224043 
L 79.639825 82.122449 
L 80.279061 83.020856 
L 80.918297 83.919262 
L 81.557533 84.817668 
L 82.196769 85.716075 
" style="fill:none;stroke:#008000;stroke-linecap:square;stroke-width:1.5;"/>
   </g>
   <g id="line2d_12">
    <path clip-path="url(#pabf0fd1bbc)" d="M 36.960612 56.181968 
L 38.217998 55.527479 
L 39.475385 54.872989 
L 40.78955 54.548956 
L 42.103715 54.224923 
L 43.331335 53.99082 
L 44.558954 53.756717 
L 46.399557 53.656795 
L 48.240159 53.556873 
L 49.245903 53.723885 
L 50.251647 53.890898 
L 51.257391 54.05791 
L 52.263135 54.224923 
L 54.138466 54.559662 
L 56.013797 54.894401 
L 57.138886 55.078186 
L 58.263974 55.261971 
L 59.389062 55.445757 
L 60.514151 55.629542 
L 61.67314 55.997112 
L 62.83213 56.364683 
L 63.99112 56.732253 
L 65.15011 57.099824 
" style="fill:none;stroke:#008000;stroke-linecap:square;stroke-width:1.5;"/>
   </g>
   <g id="line2d_13">
    <path clip-path="url(#pabf0fd1bbc)" d="M 31.194603 37.376636 
L 32.149081 38.429743 
L 33.10356 39.48285 
L 34.058038 40.535957 
L 35.012516 41.589065 
L 35.711493 42.943008 
L 36.41047 44.296952 
L 37.109447 45.650896 
L 37.808424 47.00484 
L 38.421958 47.840617 
L 39.035493 48.676394 
L 39.649027 49.51217 
L 40.262561 50.347947 
L 41.336659 51.20014 
L 42.410758 52.052332 
L 43.484856 52.904524 
L 44.558954 53.756717 
L 45.683767 54.910103 
L 46.808579 56.063489 
L 47.933392 57.216875 
L 49.058205 58.370261 
" style="fill:none;stroke:#4169e1;stroke-linecap:square;stroke-width:1.5;"/>
   </g>
   <g id="line2d_14">
    <path clip-path="url(#pabf0fd1bbc)" d="M 42.665983 19.285033 
L 42.7178 20.32565 
L 41.848489 21.495808 
L 40.979178 22.665967 
L 40.109867 23.836126 
L 39.240555 25.006285 
L 38.575755 26.076164 
L 37.910956 27.146044 
L 37.246156 28.215924 
L 36.581356 29.285804 
L 36.016882 30.222216 
L 35.452409 31.158629 
L 34.887935 32.095041 
L 34.323462 33.031454 
L 33.541247 34.117749 
L 32.759032 35.204045 
L 31.976818 36.29034 
L 31.194603 37.376636 
L 30.376282 38.295919 
L 29.55796 39.215202 
L 28.739639 40.134485 
L 27.921318 41.053768 
L 26.889941 41.990537 
L 25.858564 42.927306 
L 24.827187 43.864076 
L 23.795811 44.800845 
L 23.284256 45.266196 
L 22.517201 45.984922 
L 21.750145 46.703647 
L 20.98309 47.422372 
L 20.216034 48.141097 
L 18.886435 49.411535 
L 17.556835 50.681972 
L 17.147812 51.751138 
L 18.239274 52.286435 
L 19.773386 52.25289 
L 21.307497 52.219345 
L 23.080296 52.286435 
L 24.853096 52.353526 
L 26.35303 52.921654 
L 27.852964 53.489782 
L 29.352898 54.091456 
L 30.852832 54.693129 
L 32.379777 55.065339 
L 33.906722 55.437549 
L 35.433667 55.809758 
L 36.960612 56.181968 
L 38.149093 56.565954 
L 39.495781 56.816473 
L 40.842469 57.066992 
L 42.189158 57.317511 
L 43.535846 57.56803 
L 44.916436 57.768588 
L 46.297025 57.969146 
L 47.677615 58.169703 
L 49.058205 58.370261 
L 50.899359 58.570819 
L 52.740512 58.771377 
L 54.581666 58.971935 
L 56.42282 59.172493 
L 58.19562 59.37305 
L 59.968419 59.573608 
L 61.195763 59.707433 
L 62.423107 59.841257 
L 63.650451 59.975081 
L 64.877795 60.108905 
L 65.815185 60.426515 
L 66.752575 60.744124 
L 67.689965 61.061733 
L 68.627355 61.379343 
" style="fill:none;stroke:#008000;stroke-linecap:square;stroke-width:1.5;"/>
   </g>
   <g id="line2d_15">
    <path clip-path="url(#pabf0fd1bbc)" d="M 39.240555 25.006285 
L 40.032692 26.666418 
L 40.82483 28.326552 
L 41.469922 29.08596 
L 42.115015 29.845367 
L 42.760108 30.604775 
L 43.405201 31.364183 
L 44.050294 32.12359 
L 44.695387 32.882998 
L 45.34048 33.642406 
L 45.985573 34.401813 
L 47.119481 35.539497 
L 48.253389 36.677181 
L 49.309434 37.953597 
L 50.365479 39.230012 
L 51.421524 40.506427 
L 52.477569 41.782842 
L 53.533614 43.059257 
L 54.589659 44.335672 
L 55.645704 45.612087 
L 56.701749 46.888503 
L 57.757794 48.164918 
L 58.813839 49.441333 
L 59.869884 50.717748 
L 60.92593 51.994163 
L 61.981975 53.270578 
L 63.03802 54.546993 
L 64.094065 55.823408 
L 65.15011 57.099824 
" style="fill:none;stroke:#000000;stroke-linecap:square;stroke-width:1.5;"/>
   </g>
   <g id="line2d_16">
    <path clip-path="url(#pabf0fd1bbc)" d="M 56.013797 31.358473 
L 56.724902 32.133226 
L 57.436006 32.907979 
L 58.14711 33.682731 
L 58.858215 34.457484 
L 59.723943 35.579466 
L 60.589671 36.701448 
L 61.455399 37.82343 
L 62.321127 38.945412 
L 63.158122 39.998341 
L 63.995116 41.05127 
L 64.832111 42.104198 
L 65.669106 43.157127 
L 66.5061 44.210056 
L 67.343095 45.262985 
L 68.180089 46.315913 
L 69.017084 47.368842 
L 69.854079 48.421771 
L 70.691073 49.4747 
L 71.528068 50.527628 
L 72.365062 51.580557 
L 73.202057 52.633486 
L 74.039051 53.686415 
L 74.876046 54.739343 
L 75.713041 55.792272 
" style="fill:none;stroke:#4169e1;stroke-linecap:square;stroke-width:1.5;"/>
   </g>
   <g id="line2d_17">
    <path clip-path="url(#pabf0fd1bbc)" d="M 64.132514 22.529645 
L 64.727857 23.349363 
L 65.3232 24.16908 
L 65.918543 24.988798 
L 66.513886 25.808516 
L 67.391742 27.053795 
L 68.269598 28.299073 
L 69.147453 29.544352 
L 70.025309 30.789631 
L 70.903164 32.034909 
L 71.78102 33.280188 
L 72.658875 34.525467 
L 73.536731 35.770746 
L 74.789708 37.241741 
L 76.042684 38.712737 
L 77.295661 40.183732 
L 78.548638 41.654728 
L 79.801615 43.125723 
L 81.054592 44.596719 
L 82.307568 46.067714 
L 83.560545 47.53871 
L 84.310512 48.591817 
L 85.060479 49.644924 
L 85.810446 50.698031 
L 86.560413 51.751138 
" style="fill:none;stroke:#4169e1;stroke-linecap:square;stroke-width:1.5;"/>
   </g>
   <g id="line2d_18">
    <path clip-path="url(#pabf0fd1bbc)" d="M 45.139965 18.183035 
L 45.819579 19.0065 
L 46.499194 19.829965 
L 47.178809 20.65343 
L 47.858423 21.476895 
L 48.538038 22.300359 
L 49.217652 23.123824 
L 49.897267 23.947289 
L 50.576881 24.770754 
L 51.256496 25.594219 
L 51.93611 26.417684 
L 52.615725 27.241149 
L 53.295339 28.064613 
L 53.974954 28.888078 
L 54.654568 29.711543 
L 55.334183 30.535008 
L 56.013797 31.358473 
" style="fill:none;stroke:#000000;stroke-linecap:square;stroke-width:1.5;"/>
   </g>
   <g id="line2d_19">
    <path clip-path="url(#pabf0fd1bbc)" d="M 54.04255 13.175512 
L 54.88485 13.782896 
L 55.727151 14.390279 
L 56.569451 14.997663 
L 57.411751 15.605046 
L 58.251847 16.470621 
L 59.091942 17.336196 
L 59.932037 18.201771 
L 60.772133 19.067345 
L 61.612228 19.93292 
L 62.452323 20.798495 
L 63.292419 21.66407 
L 64.132514 22.529645 
" style="fill:none;stroke:#000000;stroke-linecap:square;stroke-width:1.5;"/>
   </g>
   <g id="line2d_20">
    <path clip-path="url(#pabf0fd1bbc)" d="M 34.758944 23.564552 
L 33.489981 24.202626 
L 33.142698 25.737143 
L 32.157074 26.929071 
L 30.738173 28.065327 
L 29.319272 29.201584 
L 27.958251 30.451323 
L 26.597231 31.701063 
L 26.0515 32.133583 
L 24.818368 33.109964 
L 23.585235 34.086345 
L 22.672927 34.625924 
L 21.760619 35.165503 
L 20.848311 35.705083 
L 19.936002 36.244662 
L 18.400789 37.267435 
L 16.865575 38.290209 
L 15.909719 39.170237 
L 14.953862 40.050265 
L 13.795699 41.272169 
L 12.637536 42.494073 
L 11.478822 44.027163 
L 10.667943 45.333287 
L 9.857063 46.639411 
L 8.959088 47.690734 
L 8.061112 48.742057 
L 7.105255 49.821215 
L 6.149399 50.900373 
L 5.425616 51.60982 
L 4.701833 52.319267 
L 4.121924 53.455523 
L 4.643401 53.966553 
L 6.092069 54.194946 
L 7.614604 53.818098 
L 9.06217 53.704971 
L 10.509736 53.591845 
L 11.957302 53.478719 
L 13.404868 53.365593 
L 14.447821 53.186447 
L 15.490774 53.007301 
L 16.865024 52.646868 
L 18.239274 52.286435 
" style="fill:none;stroke:#008000;stroke-linecap:square;stroke-width:1.5;"/>
   </g>
   <g id="line2d_21">
    <path clip-path="url(#pabf0fd1bbc)" d="M 65.15011 57.099824 
L 66.019421 58.169703 
L 66.888732 59.239583 
L 67.758043 60.309463 
L 68.627355 61.379343 
L 69.513754 62.64978 
L 70.400154 63.920218 
L 71.286554 65.190656 
L 72.172954 66.461093 
" style="fill:none;stroke:#008000;stroke-linecap:square;stroke-width:1.5;"/>
   </g>
   <g id="line2d_22">
    <path clip-path="url(#pabf0fd1bbc)" d="M 48.253389 36.677181 
L 49.259133 36.791735 
L 50.264877 36.906288 
L 51.270621 37.020842 
L 52.276365 37.135395 
L 53.274254 38.384867 
L 54.272143 39.634339 
L 55.270032 40.883811 
L 56.267921 42.133283 
L 57.265809 43.382755 
L 58.263698 44.632227 
L 59.261587 45.881699 
L 60.259476 47.13117 
L 61.257365 48.380642 
L 62.255254 49.630114 
L 63.253142 50.879586 
L 64.251031 52.129058 
L 65.24892 53.37853 
L 66.246809 54.628002 
L 67.244698 55.877473 
L 68.242587 57.126945 
L 68.338779 58.190045 
L 68.434971 59.253144 
L 68.531163 60.316243 
L 68.627355 61.379343 
" style="fill:none;stroke:#4169e1;stroke-linecap:square;stroke-width:1.5;"/>
   </g>
   <g id="line2d_23">
    <path clip-path="url(#pabf0fd1bbc)" d="M 34.323462 33.031454 
L 35.61227 33.939317 
L 36.908932 33.997129 
L 38.205595 34.054941 
L 39.502258 34.112753 
L 40.798921 34.170565 
L 42.095584 34.228377 
L 43.392247 34.286189 
L 44.68891 34.344001 
L 45.985573 34.401813 
" style="fill:none;stroke:#008000;stroke-linecap:square;stroke-width:1.5;"/>
   </g>
   <g id="line2d_24">
    <path clip-path="url(#pabf0fd1bbc)" d="M 56.013797 31.358473 
L 57.162865 31.360257 
L 58.311932 31.362041 
L 59.461 31.363826 
L 60.610067 31.36561 
L 61.762993 32.698677 
L 62.915919 34.031745 
L 64.068845 35.364812 
L 65.221771 36.69788 
L 66.374697 38.030947 
L 67.527624 39.364014 
L 68.68055 40.697082 
L 69.833476 42.030149 
L 70.439982 42.792769 
L 71.046487 43.555388 
L 71.652993 44.318007 
L 72.259499 45.080627 
L 72.866005 45.843246 
L 73.472511 46.605866 
L 74.079017 47.368485 
L 74.685522 48.131105 
L 75.292028 48.893724 
L 75.898534 49.656344 
L 76.50504 50.418963 
L 77.111546 51.181583 
L 77.718052 51.944202 
L 78.324557 52.706821 
L 78.931063 53.469441 
L 79.537569 54.23206 
" style="fill:none;stroke:#4169e1;stroke-linecap:square;stroke-width:1.5;"/>
   </g>
   <g id="line2d_25">
    <path clip-path="url(#pabf0fd1bbc)" d="M 23.795811 44.800845 
L 24.74078 45.401627 
L 25.685749 46.002408 
L 26.630719 46.603189 
L 27.575688 47.203971 
L 28.520658 47.804752 
L 29.465627 48.405534 
L 30.410597 49.006315 
L 31.355566 49.607096 
L 32.056197 50.428955 
L 32.756827 51.250814 
L 33.457458 52.072673 
L 34.158089 52.894532 
L 34.858719 53.716391 
L 35.55935 54.53825 
L 36.259981 55.360109 
L 36.960612 56.181968 
" style="fill:none;stroke:#ff0000;stroke-dasharray:5.55,2.4;stroke-dashoffset:0;stroke-width:1.5;"/>
   </g>
   <g id="text_1">
    <g id="patch_6">
     <path d="M 56.63993 55.488745 
L 64.172351 63.163755 
L 65.582365 61.779937 
L 58.049944 54.104927 
z
" style="fill:#ffffff;"/>
    </g>
    <!-- Utah Quad -->
    <g style="fill:#808080;" transform="translate(56.96507 55.197669)rotate(-314.462795)scale(0.02 -0.02)">
     <defs>
      <path d="M 556 4666 
L 1191 4666 
L 1191 1831 
Q 1191 1081 1462 751 
Q 1734 422 2344 422 
Q 2950 422 3222 751 
Q 3494 1081 3494 1831 
L 3494 4666 
L 4128 4666 
L 4128 1753 
Q 4128 841 3676 375 
Q 3225 -91 2344 -91 
Q 1459 -91 1007 375 
Q 556 841 556 1753 
L 556 4666 
z
" id="DejaVuSans-55" transform="scale(0.015625)"/>
      <path d="M 1172 4494 
L 1172 3500 
L 2356 3500 
L 2356 3053 
L 1172 3053 
L 1172 1153 
Q 1172 725 1289 603 
Q 1406 481 1766 481 
L 2356 481 
L 2356 0 
L 1766 0 
Q 1100 0 847 248 
Q 594 497 594 1153 
L 594 3053 
L 172 3053 
L 172 3500 
L 594 3500 
L 594 4494 
L 1172 4494 
z
" id="DejaVuSans-74" transform="scale(0.015625)"/>
      <path d="M 2194 1759 
Q 1497 1759 1228 1600 
Q 959 1441 959 1056 
Q 959 750 1161 570 
Q 1363 391 1709 391 
Q 2188 391 2477 730 
Q 2766 1069 2766 1631 
L 2766 1759 
L 2194 1759 
z
M 3341 1997 
L 3341 0 
L 2766 0 
L 2766 531 
Q 2569 213 2275 61 
Q 1981 -91 1556 -91 
Q 1019 -91 701 211 
Q 384 513 384 1019 
Q 384 1609 779 1909 
Q 1175 2209 1959 2209 
L 2766 2209 
L 2766 2266 
Q 2766 2663 2505 2880 
Q 2244 3097 1772 3097 
Q 1472 3097 1187 3025 
Q 903 2953 641 2809 
L 641 3341 
Q 956 3463 1253 3523 
Q 1550 3584 1831 3584 
Q 2591 3584 2966 3190 
Q 3341 2797 3341 1997 
z
" id="DejaVuSans-61" transform="scale(0.015625)"/>
      <path d="M 3513 2113 
L 3513 0 
L 2938 0 
L 2938 2094 
Q 2938 2591 2744 2837 
Q 2550 3084 2163 3084 
Q 1697 3084 1428 2787 
Q 1159 2491 1159 1978 
L 1159 0 
L 581 0 
L 581 4863 
L 1159 4863 
L 1159 2956 
Q 1366 3272 1645 3428 
Q 1925 3584 2291 3584 
Q 2894 3584 3203 3211 
Q 3513 2838 3513 2113 
z
" id="DejaVuSans-68" transform="scale(0.015625)"/>
      <path id="DejaVuSans-20" transform="scale(0.015625)"/>
      <path d="M 2522 4238 
Q 1834 4238 1429 3725 
Q 1025 3213 1025 2328 
Q 1025 1447 1429 934 
Q 1834 422 2522 422 
Q 3209 422 3611 934 
Q 4013 1447 4013 2328 
Q 4013 3213 3611 3725 
Q 3209 4238 2522 4238 
z
M 3406 84 
L 4238 -825 
L 3475 -825 
L 2784 -78 
Q 2681 -84 2626 -87 
Q 2572 -91 2522 -91 
Q 1538 -91 948 567 
Q 359 1225 359 2328 
Q 359 3434 948 4092 
Q 1538 4750 2522 4750 
Q 3503 4750 4090 4092 
Q 4678 3434 4678 2328 
Q 4678 1516 4351 937 
Q 4025 359 3406 84 
z
" id="DejaVuSans-51" transform="scale(0.015625)"/>
      <path d="M 544 1381 
L 544 3500 
L 1119 3500 
L 1119 1403 
Q 1119 906 1312 657 
Q 1506 409 1894 409 
Q 2359 409 2629 706 
Q 2900 1003 2900 1516 
L 2900 3500 
L 3475 3500 
L 3475 0 
L 2900 0 
L 2900 538 
Q 2691 219 2414 64 
Q 2138 -91 1772 -91 
Q 1169 -91 856 284 
Q 544 659 544 1381 
z
M 1991 3584 
L 1991 3584 
z
" id="DejaVuSans-75" transform="scale(0.015625)"/>
      <path d="M 2906 2969 
L 2906 4863 
L 3481 4863 
L 3481 0 
L 2906 0 
L 2906 525 
Q 2725 213 2448 61 
Q 2172 -91 1784 -91 
Q 1150 -91 751 415 
Q 353 922 353 1747 
Q 353 2572 751 3078 
Q 1150 3584 1784 3584 
Q 2172 3584 2448 3432 
Q 2725 3281 2906 2969 
z
M 947 1747 
Q 947 1113 1208 752 
Q 1469 391 1925 391 
Q 2381 391 2643 752 
Q 2906 1113 2906 1747 
Q 2906 2381 2643 2742 
Q 2381 3103 1925 3103 
Q 1469 3103 1208 2742 
Q 947 2381 947 1747 
z
" id="DejaVuSans-64" transform="scale(0.015625)"/>
     </defs>
     <use xlink:href="#DejaVuSans-55"/>
     <use x="73.193359" xlink:href="#DejaVuSans-74"/>
     <use x="112.402344" xlink:href="#DejaVuSans-61"/>
     <use x="173.681641" xlink:href="#DejaVuSans-68"/>
     <use x="237.060547" xlink:href="#DejaVuSans-20"/>
     <use x="268.847656" xlink:href="#DejaVuSans-51"/>
     <use x="347.558594" xlink:href="#DejaVuSans-75"/>
     <use x="410.9375" xlink:href="#DejaVuSans-61"/>
     <use x="472.216797" xlink:href="#DejaVuSans-64"/>
    </g>
   </g>
   <g id="text_2">
    <g id="patch_7">
     <path d="M 74.391035 47.010398 
L 80.831899 53.162446 
L 82.196478 51.733804 
L 75.755615 45.581756 
z
" style="fill:#ffffff;"/>
    </g>
    <!-- T-Bar Lift -->
    <g style="fill:#808080;" transform="translate(74.706603 46.708971)rotate(-316.313836)scale(0.02 -0.02)">
     <defs>
      <path d="M -19 4666 
L 3928 4666 
L 3928 4134 
L 2272 4134 
L 2272 0 
L 1638 0 
L 1638 4134 
L -19 4134 
L -19 4666 
z
" id="DejaVuSans-54" transform="scale(0.015625)"/>
      <path d="M 313 2009 
L 1997 2009 
L 1997 1497 
L 313 1497 
L 313 2009 
z
" id="DejaVuSans-2d" transform="scale(0.015625)"/>
      <path d="M 1259 2228 
L 1259 519 
L 2272 519 
Q 2781 519 3026 730 
Q 3272 941 3272 1375 
Q 3272 1813 3026 2020 
Q 2781 2228 2272 2228 
L 1259 2228 
z
M 1259 4147 
L 1259 2741 
L 2194 2741 
Q 2656 2741 2882 2914 
Q 3109 3088 3109 3444 
Q 3109 3797 2882 3972 
Q 2656 4147 2194 4147 
L 1259 4147 
z
M 628 4666 
L 2241 4666 
Q 2963 4666 3353 4366 
Q 3744 4066 3744 3513 
Q 3744 3084 3544 2831 
Q 3344 2578 2956 2516 
Q 3422 2416 3680 2098 
Q 3938 1781 3938 1306 
Q 3938 681 3513 340 
Q 3088 0 2303 0 
L 628 0 
L 628 4666 
z
" id="DejaVuSans-42" transform="scale(0.015625)"/>
      <path d="M 2631 2963 
Q 2534 3019 2420 3045 
Q 2306 3072 2169 3072 
Q 1681 3072 1420 2755 
Q 1159 2438 1159 1844 
L 1159 0 
L 581 0 
L 581 3500 
L 1159 3500 
L 1159 2956 
Q 1341 3275 1631 3429 
Q 1922 3584 2338 3584 
Q 2397 3584 2469 3576 
Q 2541 3569 2628 3553 
L 2631 2963 
z
" id="DejaVuSans-72" transform="scale(0.015625)"/>
      <path d="M 628 4666 
L 1259 4666 
L 1259 531 
L 3531 531 
L 3531 0 
L 628 0 
L 628 4666 
z
" id="DejaVuSans-4c" transform="scale(0.015625)"/>
      <path d="M 603 3500 
L 1178 3500 
L 1178 0 
L 603 0 
L 603 3500 
z
M 603 4863 
L 1178 4863 
L 1178 4134 
L 603 4134 
L 603 4863 
z
" id="DejaVuSans-69" transform="scale(0.015625)"/>
      <path d="M 2375 4863 
L 2375 4384 
L 1825 4384 
Q 1516 4384 1395 4259 
Q 1275 4134 1275 3809 
L 1275 3500 
L 2222 3500 
L 2222 3053 
L 1275 3053 
L 1275 0 
L 697 0 
L 697 3053 
L 147 3053 
L 147 3500 
L 697 3500 
L 697 3744 
Q 697 4328 969 4595 
Q 1241 4863 1831 4863 
L 2375 4863 
z
" id="DejaVuSans-66" transform="scale(0.015625)"/>
     </defs>
     <use xlink:href="#DejaVuSans-54"/>
     <use x="51.958984" xlink:href="#DejaVuSans-2d"/>
     <use x="84.417969" xlink:href="#DejaVuSans-42"/>
     <use x="153.021484" xlink:href="#DejaVuSans-61"/>
     <use x="214.300781" xlink:href="#DejaVuSans-72"/>
     <use x="255.414062" xlink:href="#DejaVuSans-20"/>
     <use x="287.201172" xlink:href="#DejaVuSans-4c"/>
     <use x="342.914062" xlink:href="#DejaVuSans-69"/>
     <use x="370.697266" xlink:href="#DejaVuSans-66"/>
     <use x="404.152344" xlink:href="#DejaVuSans-74"/>
    </g>
   </g>
   <g id="text_3">
    <g id="patch_8">
     <path d="M 41.0084 53.739337 
L 61.255059 56.336058 
L 61.506383 54.376484 
L 41.259724 51.779763 
z
" style="fill:#ffffff;"/>
    </g>
    <!-- Tower 3 Chute 14.6° -->
    <g style="fill:#008000;" transform="translate(41.083694 53.309485)rotate(-352.691468)scale(0.02 -0.02)">
     <defs>
      <path d="M 1959 3097 
Q 1497 3097 1228 2736 
Q 959 2375 959 1747 
Q 959 1119 1226 758 
Q 1494 397 1959 397 
Q 2419 397 2687 759 
Q 2956 1122 2956 1747 
Q 2956 2369 2687 2733 
Q 2419 3097 1959 3097 
z
M 1959 3584 
Q 2709 3584 3137 3096 
Q 3566 2609 3566 1747 
Q 3566 888 3137 398 
Q 2709 -91 1959 -91 
Q 1206 -91 779 398 
Q 353 888 353 1747 
Q 353 2609 779 3096 
Q 1206 3584 1959 3584 
z
" id="DejaVuSans-6f" transform="scale(0.015625)"/>
      <path d="M 269 3500 
L 844 3500 
L 1563 769 
L 2278 3500 
L 2956 3500 
L 3675 769 
L 4391 3500 
L 4966 3500 
L 4050 0 
L 3372 0 
L 2619 2869 
L 1863 0 
L 1184 0 
L 269 3500 
z
" id="DejaVuSans-77" transform="scale(0.015625)"/>
      <path d="M 3597 1894 
L 3597 1613 
L 953 1613 
Q 991 1019 1311 708 
Q 1631 397 2203 397 
Q 2534 397 2845 478 
Q 3156 559 3463 722 
L 3463 178 
Q 3153 47 2828 -22 
Q 2503 -91 2169 -91 
Q 1331 -91 842 396 
Q 353 884 353 1716 
Q 353 2575 817 3079 
Q 1281 3584 2069 3584 
Q 2775 3584 3186 3129 
Q 3597 2675 3597 1894 
z
M 3022 2063 
Q 3016 2534 2758 2815 
Q 2500 3097 2075 3097 
Q 1594 3097 1305 2825 
Q 1016 2553 972 2059 
L 3022 2063 
z
" id="DejaVuSans-65" transform="scale(0.015625)"/>
      <path d="M 2597 2516 
Q 3050 2419 3304 2112 
Q 3559 1806 3559 1356 
Q 3559 666 3084 287 
Q 2609 -91 1734 -91 
Q 1441 -91 1130 -33 
Q 819 25 488 141 
L 488 750 
Q 750 597 1062 519 
Q 1375 441 1716 441 
Q 2309 441 2620 675 
Q 2931 909 2931 1356 
Q 2931 1769 2642 2001 
Q 2353 2234 1838 2234 
L 1294 2234 
L 1294 2753 
L 1863 2753 
Q 2328 2753 2575 2939 
Q 2822 3125 2822 3475 
Q 2822 3834 2567 4026 
Q 2313 4219 1838 4219 
Q 1578 4219 1281 4162 
Q 984 4106 628 3988 
L 628 4550 
Q 988 4650 1302 4700 
Q 1616 4750 1894 4750 
Q 2613 4750 3031 4423 
Q 3450 4097 3450 3541 
Q 3450 3153 3228 2886 
Q 3006 2619 2597 2516 
z
" id="DejaVuSans-33" transform="scale(0.015625)"/>
      <path d="M 4122 4306 
L 4122 3641 
Q 3803 3938 3442 4084 
Q 3081 4231 2675 4231 
Q 1875 4231 1450 3742 
Q 1025 3253 1025 2328 
Q 1025 1406 1450 917 
Q 1875 428 2675 428 
Q 3081 428 3442 575 
Q 3803 722 4122 1019 
L 4122 359 
Q 3791 134 3420 21 
Q 3050 -91 2638 -91 
Q 1578 -91 968 557 
Q 359 1206 359 2328 
Q 359 3453 968 4101 
Q 1578 4750 2638 4750 
Q 3056 4750 3426 4639 
Q 3797 4528 4122 4306 
z
" id="DejaVuSans-43" transform="scale(0.015625)"/>
      <path d="M 794 531 
L 1825 531 
L 1825 4091 
L 703 3866 
L 703 4441 
L 1819 4666 
L 2450 4666 
L 2450 531 
L 3481 531 
L 3481 0 
L 794 0 
L 794 531 
z
" id="DejaVuSans-31" transform="scale(0.015625)"/>
      <path d="M 2419 4116 
L 825 1625 
L 2419 1625 
L 2419 4116 
z
M 2253 4666 
L 3047 4666 
L 3047 1625 
L 3713 1625 
L 3713 1100 
L 3047 1100 
L 3047 0 
L 2419 0 
L 2419 1100 
L 313 1100 
L 313 1709 
L 2253 4666 
z
" id="DejaVuSans-34" transform="scale(0.015625)"/>
      <path d="M 684 794 
L 1344 794 
L 1344 0 
L 684 0 
L 684 794 
z
" id="DejaVuSans-2e" transform="scale(0.015625)"/>
      <path d="M 2113 2584 
Q 1688 2584 1439 2293 
Q 1191 2003 1191 1497 
Q 1191 994 1439 701 
Q 1688 409 2113 409 
Q 2538 409 2786 701 
Q 3034 994 3034 1497 
Q 3034 2003 2786 2293 
Q 2538 2584 2113 2584 
z
M 3366 4563 
L 3366 3988 
Q 3128 4100 2886 4159 
Q 2644 4219 2406 4219 
Q 1781 4219 1451 3797 
Q 1122 3375 1075 2522 
Q 1259 2794 1537 2939 
Q 1816 3084 2150 3084 
Q 2853 3084 3261 2657 
Q 3669 2231 3669 1497 
Q 3669 778 3244 343 
Q 2819 -91 2113 -91 
Q 1303 -91 875 529 
Q 447 1150 447 2328 
Q 447 3434 972 4092 
Q 1497 4750 2381 4750 
Q 2619 4750 2861 4703 
Q 3103 4656 3366 4563 
z
" id="DejaVuSans-36" transform="scale(0.015625)"/>
      <path d="M 1600 4347 
Q 1350 4347 1178 4173 
Q 1006 4000 1006 3750 
Q 1006 3503 1178 3333 
Q 1350 3163 1600 3163 
Q 1850 3163 2022 3333 
Q 2194 3503 2194 3750 
Q 2194 3997 2020 4172 
Q 1847 4347 1600 4347 
z
M 1600 4750 
Q 1800 4750 1984 4673 
Q 2169 4597 2303 4453 
Q 2447 4313 2519 4134 
Q 2591 3956 2591 3750 
Q 2591 3338 2302 3052 
Q 2013 2766 1594 2766 
Q 1172 2766 890 3047 
Q 609 3328 609 3750 
Q 609 4169 896 4459 
Q 1184 4750 1600 4750 
z
" id="DejaVuSans-b0" transform="scale(0.015625)"/>
     </defs>
     <use xlink:href="#DejaVuSans-54"/>
     <use x="44.083984" xlink:href="#DejaVuSans-6f"/>
     <use x="105.265625" xlink:href="#DejaVuSans-77"/>
     <use x="187.052734" xlink:href="#DejaVuSans-65"/>
     <use x="248.576172" xlink:href="#DejaVuSans-72"/>
     <use x="289.689453" xlink:href="#DejaVuSans-20"/>
     <use x="321.476562" xlink:href="#DejaVuSans-33"/>
     <use x="385.099609" xlink:href="#DejaVuSans-20"/>
     <use x="416.886719" xlink:href="#DejaVuSans-43"/>
     <use x="486.710938" xlink:href="#DejaVuSans-68"/>
     <use x="550.089844" xlink:href="#DejaVuSans-75"/>
     <use x="613.46875" xlink:href="#DejaVuSans-74"/>
     <use x="652.677734" xlink:href="#DejaVuSans-65"/>
     <use x="714.201172" xlink:href="#DejaVuSans-20"/>
     <use x="745.988281" xlink:href="#DejaVuSans-31"/>
     <use x="809.611328" xlink:href="#DejaVuSans-34"/>
     <use x="873.234375" xlink:href="#DejaVuSans-2e"/>
     <use x="905.021484" xlink:href="#DejaVuSans-36"/>
     <use x="968.644531" xlink:href="#DejaVuSans-b0"/>
    </g>
   </g>
   <g id="text_4">
    <g id="patch_9">
     <path d="M 35.323091 48.673674 
L 46.317993 55.411119 
L 47.350227 53.726605 
L 36.355326 46.98916 
z
" style="fill:#ffffff;"/>
    </g>
    <!-- Grizzly 21.7° -->
    <g style="fill:#4169e1;" transform="translate(35.567915 48.312422)rotate(-328.500905)scale(0.02 -0.02)">
     <defs>
      <path d="M 3809 666 
L 3809 1919 
L 2778 1919 
L 2778 2438 
L 4434 2438 
L 4434 434 
Q 4069 175 3628 42 
Q 3188 -91 2688 -91 
Q 1594 -91 976 548 
Q 359 1188 359 2328 
Q 359 3472 976 4111 
Q 1594 4750 2688 4750 
Q 3144 4750 3555 4637 
Q 3966 4525 4313 4306 
L 4313 3634 
Q 3963 3931 3569 4081 
Q 3175 4231 2741 4231 
Q 1884 4231 1454 3753 
Q 1025 3275 1025 2328 
Q 1025 1384 1454 906 
Q 1884 428 2741 428 
Q 3075 428 3337 486 
Q 3600 544 3809 666 
z
" id="DejaVuSans-47" transform="scale(0.015625)"/>
      <path d="M 353 3500 
L 3084 3500 
L 3084 2975 
L 922 459 
L 3084 459 
L 3084 0 
L 275 0 
L 275 525 
L 2438 3041 
L 353 3041 
L 353 3500 
z
" id="DejaVuSans-7a" transform="scale(0.015625)"/>
      <path d="M 603 4863 
L 1178 4863 
L 1178 0 
L 603 0 
L 603 4863 
z
" id="DejaVuSans-6c" transform="scale(0.015625)"/>
      <path d="M 2059 -325 
Q 1816 -950 1584 -1140 
Q 1353 -1331 966 -1331 
L 506 -1331 
L 506 -850 
L 844 -850 
Q 1081 -850 1212 -737 
Q 1344 -625 1503 -206 
L 1606 56 
L 191 3500 
L 800 3500 
L 1894 763 
L 2988 3500 
L 3597 3500 
L 2059 -325 
z
" id="DejaVuSans-79" transform="scale(0.015625)"/>
      <path d="M 1228 531 
L 3431 531 
L 3431 0 
L 469 0 
L 469 531 
Q 828 903 1448 1529 
Q 2069 2156 2228 2338 
Q 2531 2678 2651 2914 
Q 2772 3150 2772 3378 
Q 2772 3750 2511 3984 
Q 2250 4219 1831 4219 
Q 1534 4219 1204 4116 
Q 875 4013 500 3803 
L 500 4441 
Q 881 4594 1212 4672 
Q 1544 4750 1819 4750 
Q 2544 4750 2975 4387 
Q 3406 4025 3406 3419 
Q 3406 3131 3298 2873 
Q 3191 2616 2906 2266 
Q 2828 2175 2409 1742 
Q 1991 1309 1228 531 
z
" id="DejaVuSans-32" transform="scale(0.015625)"/>
      <path d="M 525 4666 
L 3525 4666 
L 3525 4397 
L 1831 0 
L 1172 0 
L 2766 4134 
L 525 4134 
L 525 4666 
z
" id="DejaVuSans-37" transform="scale(0.015625)"/>
     </defs>
     <use xlink:href="#DejaVuSans-47"/>
     <use x="77.490234" xlink:href="#DejaVuSans-72"/>
     <use x="118.603516" xlink:href="#DejaVuSans-69"/>
     <use x="146.386719" xlink:href="#DejaVuSans-7a"/>
     <use x="198.876953" xlink:href="#DejaVuSans-7a"/>
     <use x="251.367188" xlink:href="#DejaVuSans-6c"/>
     <use x="279.150391" xlink:href="#DejaVuSans-79"/>
     <use x="338.330078" xlink:href="#DejaVuSans-20"/>
     <use x="370.117188" xlink:href="#DejaVuSans-32"/>
     <use x="433.740234" xlink:href="#DejaVuSans-31"/>
     <use x="497.363281" xlink:href="#DejaVuSans-2e"/>
     <use x="529.150391" xlink:href="#DejaVuSans-37"/>
     <use x="592.773438" xlink:href="#DejaVuSans-b0"/>
    </g>
   </g>
   <g id="text_5">
    <g id="patch_10">
     <path d="M 33.182021 34.843289 
L 42.849582 22.826976 
L 41.31029 21.588559 
L 31.64273 33.604872 
z
" style="fill:#ffffff;"/>
    </g>
    <!-- Deer Run 13.2° -->
    <g style="fill:#008000;" transform="translate(32.854901 34.554439)rotate(-51.182058)scale(0.02 -0.02)">
     <defs>
      <path d="M 1259 4147 
L 1259 519 
L 2022 519 
Q 2988 519 3436 956 
Q 3884 1394 3884 2338 
Q 3884 3275 3436 3711 
Q 2988 4147 2022 4147 
L 1259 4147 
z
M 628 4666 
L 1925 4666 
Q 3281 4666 3915 4102 
Q 4550 3538 4550 2338 
Q 4550 1131 3912 565 
Q 3275 0 1925 0 
L 628 0 
L 628 4666 
z
" id="DejaVuSans-44" transform="scale(0.015625)"/>
      <path d="M 2841 2188 
Q 3044 2119 3236 1894 
Q 3428 1669 3622 1275 
L 4263 0 
L 3584 0 
L 2988 1197 
Q 2756 1666 2539 1819 
Q 2322 1972 1947 1972 
L 1259 1972 
L 1259 0 
L 628 0 
L 628 4666 
L 2053 4666 
Q 2853 4666 3247 4331 
Q 3641 3997 3641 3322 
Q 3641 2881 3436 2590 
Q 3231 2300 2841 2188 
z
M 1259 4147 
L 1259 2491 
L 2053 2491 
Q 2509 2491 2742 2702 
Q 2975 2913 2975 3322 
Q 2975 3731 2742 3939 
Q 2509 4147 2053 4147 
L 1259 4147 
z
" id="DejaVuSans-52" transform="scale(0.015625)"/>
      <path d="M 3513 2113 
L 3513 0 
L 2938 0 
L 2938 2094 
Q 2938 2591 2744 2837 
Q 2550 3084 2163 3084 
Q 1697 3084 1428 2787 
Q 1159 2491 1159 1978 
L 1159 0 
L 581 0 
L 581 3500 
L 1159 3500 
L 1159 2956 
Q 1366 3272 1645 3428 
Q 1925 3584 2291 3584 
Q 2894 3584 3203 3211 
Q 3513 2838 3513 2113 
z
" id="DejaVuSans-6e" transform="scale(0.015625)"/>
     </defs>
     <use xlink:href="#DejaVuSans-44"/>
     <use x="77.001953" xlink:href="#DejaVuSans-65"/>
     <use x="138.525391" xlink:href="#DejaVuSans-65"/>
     <use x="200.048828" xlink:href="#DejaVuSans-72"/>
     <use x="241.162109" xlink:href="#DejaVuSans-20"/>
     <use x="272.949219" xlink:href="#DejaVuSans-52"/>
     <use x="337.931641" xlink:href="#DejaVuSans-75"/>
     <use x="401.310547" xlink:href="#DejaVuSans-6e"/>
     <use x="464.689453" xlink:href="#DejaVuSans-20"/>
     <use x="496.476562" xlink:href="#DejaVuSans-31"/>
     <use x="560.099609" xlink:href="#DejaVuSans-33"/>
     <use x="623.722656" xlink:href="#DejaVuSans-2e"/>
     <use x="655.509766" xlink:href="#DejaVuSans-32"/>
     <use x="719.132812" xlink:href="#DejaVuSans-b0"/>
    </g>
   </g>
   <g id="text_6">
    <g id="patch_11">
     <path d="M 39.364547 29.198342 
L 47.406998 36.510598 
L 48.736041 35.048839 
L 40.69359 27.736583 
z
" style="fill:#ffffff;"/>
    </g>
    <!-- Utah 24.4° -->
    <g transform="translate(39.672609 28.889247)rotate(-317.722656)scale(0.02 -0.02)">
     <use xlink:href="#DejaVuSans-55"/>
     <use x="73.193359" xlink:href="#DejaVuSans-74"/>
     <use x="112.402344" xlink:href="#DejaVuSans-61"/>
     <use x="173.681641" xlink:href="#DejaVuSans-68"/>
     <use x="237.060547" xlink:href="#DejaVuSans-20"/>
     <use x="268.847656" xlink:href="#DejaVuSans-32"/>
     <use x="332.470703" xlink:href="#DejaVuSans-34"/>
     <use x="396.09375" xlink:href="#DejaVuSans-2e"/>
     <use x="427.880859" xlink:href="#DejaVuSans-34"/>
     <use x="491.503906" xlink:href="#DejaVuSans-b0"/>
    </g>
   </g>
   <g id="text_7">
    <g id="patch_12">
     <path d="M 56.962806 36.075387 
L 72.998695 51.655823 
L 74.375405 50.238868 
L 58.339516 34.658431 
z
" style="fill:#ffffff;"/>
    </g>
    <!-- Lower Tuscarora 20.1° -->
    <g style="fill:#4169e1;" transform="translate(57.280932 35.776661)rotate(-315.825324)scale(0.02 -0.02)">
     <defs>
      <path d="M 2834 3397 
L 2834 2853 
Q 2591 2978 2328 3040 
Q 2066 3103 1784 3103 
Q 1356 3103 1142 2972 
Q 928 2841 928 2578 
Q 928 2378 1081 2264 
Q 1234 2150 1697 2047 
L 1894 2003 
Q 2506 1872 2764 1633 
Q 3022 1394 3022 966 
Q 3022 478 2636 193 
Q 2250 -91 1575 -91 
Q 1294 -91 989 -36 
Q 684 19 347 128 
L 347 722 
Q 666 556 975 473 
Q 1284 391 1588 391 
Q 1994 391 2212 530 
Q 2431 669 2431 922 
Q 2431 1156 2273 1281 
Q 2116 1406 1581 1522 
L 1381 1569 
Q 847 1681 609 1914 
Q 372 2147 372 2553 
Q 372 3047 722 3315 
Q 1072 3584 1716 3584 
Q 2034 3584 2315 3537 
Q 2597 3491 2834 3397 
z
" id="DejaVuSans-73" transform="scale(0.015625)"/>
      <path d="M 3122 3366 
L 3122 2828 
Q 2878 2963 2633 3030 
Q 2388 3097 2138 3097 
Q 1578 3097 1268 2742 
Q 959 2388 959 1747 
Q 959 1106 1268 751 
Q 1578 397 2138 397 
Q 2388 397 2633 464 
Q 2878 531 3122 666 
L 3122 134 
Q 2881 22 2623 -34 
Q 2366 -91 2075 -91 
Q 1284 -91 818 406 
Q 353 903 353 1747 
Q 353 2603 823 3093 
Q 1294 3584 2113 3584 
Q 2378 3584 2631 3529 
Q 2884 3475 3122 3366 
z
" id="DejaVuSans-63" transform="scale(0.015625)"/>
      <path d="M 2034 4250 
Q 1547 4250 1301 3770 
Q 1056 3291 1056 2328 
Q 1056 1369 1301 889 
Q 1547 409 2034 409 
Q 2525 409 2770 889 
Q 3016 1369 3016 2328 
Q 3016 3291 2770 3770 
Q 2525 4250 2034 4250 
z
M 2034 4750 
Q 2819 4750 3233 4129 
Q 3647 3509 3647 2328 
Q 3647 1150 3233 529 
Q 2819 -91 2034 -91 
Q 1250 -91 836 529 
Q 422 1150 422 2328 
Q 422 3509 836 4129 
Q 1250 4750 2034 4750 
z
" id="DejaVuSans-30" transform="scale(0.015625)"/>
     </defs>
     <use xlink:href="#DejaVuSans-4c"/>
     <use x="53.962891" xlink:href="#DejaVuSans-6f"/>
     <use x="115.144531" xlink:href="#DejaVuSans-77"/>
     <use x="196.931641" xlink:href="#DejaVuSans-65"/>
     <use x="258.455078" xlink:href="#DejaVuSans-72"/>
     <use x="299.568359" xlink:href="#DejaVuSans-20"/>
     <use x="331.355469" xlink:href="#DejaVuSans-54"/>
     <use x="377.314453" xlink:href="#DejaVuSans-75"/>
     <use x="440.693359" xlink:href="#DejaVuSans-73"/>
     <use x="492.792969" xlink:href="#DejaVuSans-63"/>
     <use x="547.773438" xlink:href="#DejaVuSans-61"/>
     <use x="609.052734" xlink:href="#DejaVuSans-72"/>
     <use x="647.916016" xlink:href="#DejaVuSans-6f"/>
     <use x="709.097656" xlink:href="#DejaVuSans-72"/>
     <use x="750.210938" xlink:href="#DejaVuSans-61"/>
     <use x="811.490234" xlink:href="#DejaVuSans-20"/>
     <use x="843.277344" xlink:href="#DejaVuSans-32"/>
     <use x="906.900391" xlink:href="#DejaVuSans-30"/>
     <use x="970.523438" xlink:href="#DejaVuSans-2e"/>
     <use x="1002.310547" xlink:href="#DejaVuSans-31"/>
     <use x="1065.933594" xlink:href="#DejaVuSans-b0"/>
    </g>
   </g>
   <g id="text_8">
    <g id="patch_13">
     <path d="M 64.287198 26.818699 
L 79.57136 43.564095 
L 81.030553 42.232235 
L 65.74639 25.486839 
z
" style="fill:#ffffff;"/>
    </g>
    <!-- Lower Shamokin 19.8° -->
    <g style="fill:#4169e1;" transform="translate(64.622663 26.539585)rotate(-312.387898)scale(0.02 -0.02)">
     <defs>
      <path d="M 3425 4513 
L 3425 3897 
Q 3066 4069 2747 4153 
Q 2428 4238 2131 4238 
Q 1616 4238 1336 4038 
Q 1056 3838 1056 3469 
Q 1056 3159 1242 3001 
Q 1428 2844 1947 2747 
L 2328 2669 
Q 3034 2534 3370 2195 
Q 3706 1856 3706 1288 
Q 3706 609 3251 259 
Q 2797 -91 1919 -91 
Q 1588 -91 1214 -16 
Q 841 59 441 206 
L 441 856 
Q 825 641 1194 531 
Q 1563 422 1919 422 
Q 2459 422 2753 634 
Q 3047 847 3047 1241 
Q 3047 1584 2836 1778 
Q 2625 1972 2144 2069 
L 1759 2144 
Q 1053 2284 737 2584 
Q 422 2884 422 3419 
Q 422 4038 858 4394 
Q 1294 4750 2059 4750 
Q 2388 4750 2728 4690 
Q 3069 4631 3425 4513 
z
" id="DejaVuSans-53" transform="scale(0.015625)"/>
      <path d="M 3328 2828 
Q 3544 3216 3844 3400 
Q 4144 3584 4550 3584 
Q 5097 3584 5394 3201 
Q 5691 2819 5691 2113 
L 5691 0 
L 5113 0 
L 5113 2094 
Q 5113 2597 4934 2840 
Q 4756 3084 4391 3084 
Q 3944 3084 3684 2787 
Q 3425 2491 3425 1978 
L 3425 0 
L 2847 0 
L 2847 2094 
Q 2847 2600 2669 2842 
Q 2491 3084 2119 3084 
Q 1678 3084 1418 2786 
Q 1159 2488 1159 1978 
L 1159 0 
L 581 0 
L 581 3500 
L 1159 3500 
L 1159 2956 
Q 1356 3278 1631 3431 
Q 1906 3584 2284 3584 
Q 2666 3584 2933 3390 
Q 3200 3197 3328 2828 
z
" id="DejaVuSans-6d" transform="scale(0.015625)"/>
      <path d="M 581 4863 
L 1159 4863 
L 1159 1991 
L 2875 3500 
L 3609 3500 
L 1753 1863 
L 3688 0 
L 2938 0 
L 1159 1709 
L 1159 0 
L 581 0 
L 581 4863 
z
" id="DejaVuSans-6b" transform="scale(0.015625)"/>
      <path d="M 703 97 
L 703 672 
Q 941 559 1184 500 
Q 1428 441 1663 441 
Q 2288 441 2617 861 
Q 2947 1281 2994 2138 
Q 2813 1869 2534 1725 
Q 2256 1581 1919 1581 
Q 1219 1581 811 2004 
Q 403 2428 403 3163 
Q 403 3881 828 4315 
Q 1253 4750 1959 4750 
Q 2769 4750 3195 4129 
Q 3622 3509 3622 2328 
Q 3622 1225 3098 567 
Q 2575 -91 1691 -91 
Q 1453 -91 1209 -44 
Q 966 3 703 97 
z
M 1959 2075 
Q 2384 2075 2632 2365 
Q 2881 2656 2881 3163 
Q 2881 3666 2632 3958 
Q 2384 4250 1959 4250 
Q 1534 4250 1286 3958 
Q 1038 3666 1038 3163 
Q 1038 2656 1286 2365 
Q 1534 2075 1959 2075 
z
" id="DejaVuSans-39" transform="scale(0.015625)"/>
      <path d="M 2034 2216 
Q 1584 2216 1326 1975 
Q 1069 1734 1069 1313 
Q 1069 891 1326 650 
Q 1584 409 2034 409 
Q 2484 409 2743 651 
Q 3003 894 3003 1313 
Q 3003 1734 2745 1975 
Q 2488 2216 2034 2216 
z
M 1403 2484 
Q 997 2584 770 2862 
Q 544 3141 544 3541 
Q 544 4100 942 4425 
Q 1341 4750 2034 4750 
Q 2731 4750 3128 4425 
Q 3525 4100 3525 3541 
Q 3525 3141 3298 2862 
Q 3072 2584 2669 2484 
Q 3125 2378 3379 2068 
Q 3634 1759 3634 1313 
Q 3634 634 3220 271 
Q 2806 -91 2034 -91 
Q 1263 -91 848 271 
Q 434 634 434 1313 
Q 434 1759 690 2068 
Q 947 2378 1403 2484 
z
M 1172 3481 
Q 1172 3119 1398 2916 
Q 1625 2713 2034 2713 
Q 2441 2713 2670 2916 
Q 2900 3119 2900 3481 
Q 2900 3844 2670 4047 
Q 2441 4250 2034 4250 
Q 1625 4250 1398 4047 
Q 1172 3844 1172 3481 
z
" id="DejaVuSans-38" transform="scale(0.015625)"/>
     </defs>
     <use xlink:href="#DejaVuSans-4c"/>
     <use x="53.962891" xlink:href="#DejaVuSans-6f"/>
     <use x="115.144531" xlink:href="#DejaVuSans-77"/>
     <use x="196.931641" xlink:href="#DejaVuSans-65"/>
     <use x="258.455078" xlink:href="#DejaVuSans-72"/>
     <use x="299.568359" xlink:href="#DejaVuSans-20"/>
     <use x="331.355469" xlink:href="#DejaVuSans-53"/>
     <use x="394.832031" xlink:href="#DejaVuSans-68"/>
     <use x="458.210938" xlink:href="#DejaVuSans-61"/>
     <use x="519.490234" xlink:href="#DejaVuSans-6d"/>
     <use x="616.902344" xlink:href="#DejaVuSans-6f"/>
     <use x="678.083984" xlink:href="#DejaVuSans-6b"/>
     <use x="735.994141" xlink:href="#DejaVuSans-69"/>
     <use x="763.777344" xlink:href="#DejaVuSans-6e"/>
     <use x="827.15625" xlink:href="#DejaVuSans-20"/>
     <use x="858.943359" xlink:href="#DejaVuSans-31"/>
     <use x="922.566406" xlink:href="#DejaVuSans-39"/>
     <use x="986.189453" xlink:href="#DejaVuSans-2e"/>
     <use x="1017.976562" xlink:href="#DejaVuSans-38"/>
     <use x="1081.599609" xlink:href="#DejaVuSans-b0"/>
    </g>
   </g>
   <g id="text_9">
    <g id="patch_14">
     <path d="M 5.371624 53.796217 
L 15.882329 40.720357 
L 14.342503 39.482605 
L 3.831798 52.558466 
z
" style="fill:#ffffff;"/>
    </g>
    <!-- Lion's Way 12.0° -->
    <g style="fill:#008000;" transform="translate(5.044379 53.507509)rotate(-51.206804)scale(0.02 -0.02)">
     <defs>
      <path d="M 1147 4666 
L 1147 2931 
L 616 2931 
L 616 4666 
L 1147 4666 
z
" id="DejaVuSans-27" transform="scale(0.015625)"/>
      <path d="M 213 4666 
L 850 4666 
L 1831 722 
L 2809 4666 
L 3519 4666 
L 4500 722 
L 5478 4666 
L 6119 4666 
L 4947 0 
L 4153 0 
L 3169 4050 
L 2175 0 
L 1381 0 
L 213 4666 
z
" id="DejaVuSans-57" transform="scale(0.015625)"/>
     </defs>
     <use xlink:href="#DejaVuSans-4c"/>
     <use x="55.712891" xlink:href="#DejaVuSans-69"/>
     <use x="83.496094" xlink:href="#DejaVuSans-6f"/>
     <use x="144.677734" xlink:href="#DejaVuSans-6e"/>
     <use x="208.056641" xlink:href="#DejaVuSans-27"/>
     <use x="235.546875" xlink:href="#DejaVuSans-73"/>
     <use x="287.646484" xlink:href="#DejaVuSans-20"/>
     <use x="319.433594" xlink:href="#DejaVuSans-57"/>
     <use x="411.935547" xlink:href="#DejaVuSans-61"/>
     <use x="473.214844" xlink:href="#DejaVuSans-79"/>
     <use x="532.394531" xlink:href="#DejaVuSans-20"/>
     <use x="564.181641" xlink:href="#DejaVuSans-31"/>
     <use x="627.804688" xlink:href="#DejaVuSans-32"/>
     <use x="691.427734" xlink:href="#DejaVuSans-2e"/>
     <use x="723.214844" xlink:href="#DejaVuSans-30"/>
     <use x="786.837891" xlink:href="#DejaVuSans-b0"/>
    </g>
   </g>
   <g id="text_10">
    <g id="patch_15">
     <path d="M 53.666937 42.414388 
L 67.474399 55.767067 
L 68.847793 54.346897 
L 55.040331 40.994217 
z
" style="fill:#ffffff;"/>
    </g>
    <!-- Winter's Way 19.2° -->
    <g style="fill:#4169e1;" transform="translate(53.984364 42.114919)rotate(-315.959298)scale(0.02 -0.02)">
     <use xlink:href="#DejaVuSans-57"/>
     <use x="96.626953" xlink:href="#DejaVuSans-69"/>
     <use x="124.410156" xlink:href="#DejaVuSans-6e"/>
     <use x="187.789062" xlink:href="#DejaVuSans-74"/>
     <use x="226.998047" xlink:href="#DejaVuSans-65"/>
     <use x="288.521484" xlink:href="#DejaVuSans-72"/>
     <use x="329.634766" xlink:href="#DejaVuSans-27"/>
     <use x="357.125" xlink:href="#DejaVuSans-73"/>
     <use x="409.224609" xlink:href="#DejaVuSans-20"/>
     <use x="441.011719" xlink:href="#DejaVuSans-57"/>
     <use x="533.513672" xlink:href="#DejaVuSans-61"/>
     <use x="594.792969" xlink:href="#DejaVuSans-79"/>
     <use x="653.972656" xlink:href="#DejaVuSans-20"/>
     <use x="685.759766" xlink:href="#DejaVuSans-31"/>
     <use x="749.382812" xlink:href="#DejaVuSans-39"/>
     <use x="813.005859" xlink:href="#DejaVuSans-2e"/>
     <use x="844.792969" xlink:href="#DejaVuSans-32"/>
     <use x="908.416016" xlink:href="#DejaVuSans-b0"/>
    </g>
   </g>
   <g id="text_11">
    <g id="patch_16">
     <path d="M 63.853793 37.773607 
L 75.649791 49.229207 
L 77.02617 47.81193 
L 65.230172 36.35633 
z
" style="fill:#ffffff;"/>
    </g>
    <!-- Doc White 20.6° -->
    <g style="fill:#4169e1;" transform="translate(64.17185 37.474807)rotate(-315.838737)scale(0.02 -0.02)">
     <use xlink:href="#DejaVuSans-44"/>
     <use x="77.001953" xlink:href="#DejaVuSans-6f"/>
     <use x="138.183594" xlink:href="#DejaVuSans-63"/>
     <use x="193.164062" xlink:href="#DejaVuSans-20"/>
     <use x="224.951172" xlink:href="#DejaVuSans-57"/>
     <use x="323.828125" xlink:href="#DejaVuSans-68"/>
     <use x="387.207031" xlink:href="#DejaVuSans-69"/>
     <use x="414.990234" xlink:href="#DejaVuSans-74"/>
     <use x="454.199219" xlink:href="#DejaVuSans-65"/>
     <use x="515.722656" xlink:href="#DejaVuSans-20"/>
     <use x="547.509766" xlink:href="#DejaVuSans-32"/>
     <use x="611.132812" xlink:href="#DejaVuSans-30"/>
     <use x="674.755859" xlink:href="#DejaVuSans-2e"/>
     <use x="706.542969" xlink:href="#DejaVuSans-36"/>
     <use x="770.166016" xlink:href="#DejaVuSans-b0"/>
    </g>
   </g>
   <g id="text_12">
    <!-- Tussey -->
    <g transform="translate(35.314138 6.449347)scale(0.06 -0.06)">
     <use xlink:href="#DejaVuSans-54"/>
     <use x="45.958984" xlink:href="#DejaVuSans-75"/>
     <use x="109.337891" xlink:href="#DejaVuSans-73"/>
     <use x="161.4375" xlink:href="#DejaVuSans-73"/>
     <use x="213.537109" xlink:href="#DejaVuSans-65"/>
     <use x="275.060547" xlink:href="#DejaVuSans-79"/>
    </g>
   </g>
   <g id="legend_1">
    <g id="line2d_26">
     <path d="M 3.339997 90.326658 
L 9.339997 90.326658 
" style="fill:none;stroke:#008000;stroke-linecap:square;stroke-width:1.5;"/>
    </g>
    <g id="line2d_27"/>
    <g id="text_13">
     <!-- Easy -->
     <g transform="translate(11.739997 91.376658)scale(0.03 -0.03)">
      <defs>
       <path d="M 628 4666 
L 3578 4666 
L 3578 4134 
L 1259 4134 
L 1259 2753 
L 3481 2753 
L 3481 2222 
L 1259 2222 
L 1259 531 
L 3634 531 
L 3634 0 
L 628 0 
L 628 4666 
z
" id="DejaVuSans-45" transform="scale(0.015625)"/>
      </defs>
      <use xlink:href="#DejaVuSans-45"/>
      <use x="63.183594" xlink:href="#DejaVuSans-61"/>
      <use x="124.462891" xlink:href="#DejaVuSans-73"/>
      <use x="176.5625" xlink:href="#DejaVuSans-79"/>
     </g>
    </g>
    <g id="line2d_28">
     <path d="M 3.339997 94.730095 
L 9.339997 94.730095 
" style="fill:none;stroke:#4169e1;stroke-linecap:square;stroke-width:1.5;"/>
    </g>
    <g id="line2d_29"/>
    <g id="text_14">
     <!-- Intermediate -->
     <g transform="translate(11.739997 95.780095)scale(0.03 -0.03)">
      <defs>
       <path d="M 628 4666 
L 1259 4666 
L 1259 0 
L 628 0 
L 628 4666 
z
" id="DejaVuSans-49" transform="scale(0.015625)"/>
      </defs>
      <use xlink:href="#DejaVuSans-49"/>
      <use x="29.492188" xlink:href="#DejaVuSans-6e"/>
      <use x="92.871094" xlink:href="#DejaVuSans-74"/>
      <use x="132.080078" xlink:href="#DejaVuSans-65"/>
      <use x="193.603516" xlink:href="#DejaVuSans-72"/>
      <use x="232.966797" xlink:href="#DejaVuSans-6d"/>
      <use x="330.378906" xlink:href="#DejaVuSans-65"/>
      <use x="391.902344" xlink:href="#DejaVuSans-64"/>
      <use x="455.378906" xlink:href="#DejaVuSans-69"/>
      <use x="483.162109" xlink:href="#DejaVuSans-61"/>
      <use x="544.441406" xlink:href="#DejaVuSans-74"/>
      <use x="583.650391" xlink:href="#DejaVuSans-65"/>
     </g>
    </g>
    <g id="line2d_30">
     <path d="M 37.095622 90.326658 
L 43.095622 90.326658 
" style="fill:none;stroke:#000000;stroke-linecap:square;stroke-width:1.5;"/>
    </g>
    <g id="line2d_31"/>
    <g id="text_15">
     <!-- Advanced -->
     <g transform="translate(45.495622 91.376658)scale(0.03 -0.03)">
      <defs>
       <path d="M 2188 4044 
L 1331 1722 
L 3047 1722 
L 2188 4044 
z
M 1831 4666 
L 2547 4666 
L 4325 0 
L 3669 0 
L 3244 1197 
L 1141 1197 
L 716 0 
L 50 0 
L 1831 4666 
z
" id="DejaVuSans-41" transform="scale(0.015625)"/>
       <path d="M 191 3500 
L 800 3500 
L 1894 563 
L 2988 3500 
L 3597 3500 
L 2284 0 
L 1503 0 
L 191 3500 
z
" id="DejaVuSans-76" transform="scale(0.015625)"/>
      </defs>
      <use xlink:href="#DejaVuSans-41"/>
      <use x="66.658203" xlink:href="#DejaVuSans-64"/>
      <use x="130.134766" xlink:href="#DejaVuSans-76"/>
      <use x="189.314453" xlink:href="#DejaVuSans-61"/>
      <use x="250.59375" xlink:href="#DejaVuSans-6e"/>
      <use x="313.972656" xlink:href="#DejaVuSans-63"/>
      <use x="368.953125" xlink:href="#DejaVuSans-65"/>
      <use x="430.476562" xlink:href="#DejaVuSans-64"/>
     </g>
    </g>
    <g id="line2d_32">
     <path d="M 37.095622 94.730095 
L 43.095622 94.730095 
" style="fill:none;stroke:#ff0000;stroke-linecap:square;stroke-width:1.5;"/>
    </g>
    <g id="line2d_33"/>
    <g id="text_16">
     <!-- Expert -->
     <g transform="translate(45.495622 95.780095)scale(0.03 -0.03)">
      <defs>
       <path d="M 3513 3500 
L 2247 1797 
L 3578 0 
L 2900 0 
L 1881 1375 
L 863 0 
L 184 0 
L 1544 1831 
L 300 3500 
L 978 3500 
L 1906 2253 
L 2834 3500 
L 3513 3500 
z
" id="DejaVuSans-78" transform="scale(0.015625)"/>
       <path d="M 1159 525 
L 1159 -1331 
L 581 -1331 
L 581 3500 
L 1159 3500 
L 1159 2969 
Q 1341 3281 1617 3432 
Q 1894 3584 2278 3584 
Q 2916 3584 3314 3078 
Q 3713 2572 3713 1747 
Q 3713 922 3314 415 
Q 2916 -91 2278 -91 
Q 1894 -91 1617 61 
Q 1341 213 1159 525 
z
M 3116 1747 
Q 3116 2381 2855 2742 
Q 2594 3103 2138 3103 
Q 1681 3103 1420 2742 
Q 1159 2381 1159 1747 
Q 1159 1113 1420 752 
Q 1681 391 2138 391 
Q 2594 391 2855 752 
Q 3116 1113 3116 1747 
z
" id="DejaVuSans-70" transform="scale(0.015625)"/>
      </defs>
      <use xlink:href="#DejaVuSans-45"/>
      <use x="63.183594" xlink:href="#DejaVuSans-78"/>
      <use x="122.363281" xlink:href="#DejaVuSans-70"/>
      <use x="185.839844" xlink:href="#DejaVuSans-65"/>
      <use x="247.363281" xlink:href="#DejaVuSans-72"/>
      <use x="288.476562" xlink:href="#DejaVuSans-74"/>
     </g>
    </g>
    <g id="line2d_34">
     <path d="M 66.315153 90.326658 
L 72.315153 90.326658 
" style="fill:none;stroke:#ffd700;stroke-linecap:square;stroke-width:1.5;"/>
    </g>
    <g id="line2d_35"/>
    <g id="text_17">
     <!-- Extreme -->
     <g transform="translate(74.715153 91.376658)scale(0.03 -0.03)">
      <use xlink:href="#DejaVuSans-45"/>
      <use x="63.183594" xlink:href="#DejaVuSans-78"/>
      <use x="122.363281" xlink:href="#DejaVuSans-74"/>
      <use x="161.572266" xlink:href="#DejaVuSans-72"/>
      <use x="200.435547" xlink:href="#DejaVuSans-65"/>
      <use x="261.958984" xlink:href="#DejaVuSans-6d"/>
      <use x="359.371094" xlink:href="#DejaVuSans-65"/>
     </g>
    </g>
    <g id="line2d_36">
     <path d="M 66.315153 94.730095 
L 72.315153 94.730095 
" style="fill:none;stroke:#000000;stroke-dasharray:1.5,2.475;stroke-dashoffset:0;stroke-width:1.5;"/>
    </g>
    <g id="line2d_37"/>
    <g id="text_18">
     <!-- Gladed -->
     <g transform="translate(74.715153 95.780095)scale(0.03 -0.03)">
      <use xlink:href="#DejaVuSans-47"/>
      <use x="77.490234" xlink:href="#DejaVuSans-6c"/>
      <use x="105.273438" xlink:href="#DejaVuSans-61"/>
      <use x="166.552734" xlink:href="#DejaVuSans-64"/>
      <use x="230.029297" xlink:href="#DejaVuSans-65"/>
      <use x="291.552734" xlink:href="#DejaVuSans-64"/>
     </g>
    </g>
   </g>
  </g>
  <g id="text_19">
   <!-- Sources: USGS and OpenStreetMaps -->
   <g transform="translate(21.544769 100.331799)scale(0.026087 -0.026087)">
    <defs>
     <path d="M 750 794 
L 1409 794 
L 1409 0 
L 750 0 
L 750 794 
z
M 750 3309 
L 1409 3309 
L 1409 2516 
L 750 2516 
L 750 3309 
z
" id="DejaVuSans-3a" transform="scale(0.015625)"/>
     <path d="M 2522 4238 
Q 1834 4238 1429 3725 
Q 1025 3213 1025 2328 
Q 1025 1447 1429 934 
Q 1834 422 2522 422 
Q 3209 422 3611 934 
Q 4013 1447 4013 2328 
Q 4013 3213 3611 3725 
Q 3209 4238 2522 4238 
z
M 2522 4750 
Q 3503 4750 4090 4092 
Q 4678 3434 4678 2328 
Q 4678 1225 4090 567 
Q 3503 -91 2522 -91 
Q 1538 -91 948 565 
Q 359 1222 359 2328 
Q 359 3434 948 4092 
Q 1538 4750 2522 4750 
z
" id="DejaVuSans-4f" transform="scale(0.015625)"/>
     <path d="M 628 4666 
L 1569 4666 
L 2759 1491 
L 3956 4666 
L 4897 4666 
L 4897 0 
L 4281 0 
L 4281 4097 
L 3078 897 
L 2444 897 
L 1241 4097 
L 1241 0 
L 628 0 
L 628 4666 
z
" id="DejaVuSans-4d" transform="scale(0.015625)"/>
    </defs>
    <use xlink:href="#DejaVuSans-53"/>
    <use x="63.476562" xlink:href="#DejaVuSans-6f"/>
    <use x="124.658203" xlink:href="#DejaVuSans-75"/>
    <use x="188.037109" xlink:href="#DejaVuSans-72"/>
    <use x="226.900391" xlink:href="#DejaVuSans-63"/>
    <use x="281.880859" xlink:href="#DejaVuSans-65"/>
    <use x="343.404297" xlink:href="#DejaVuSans-73"/>
    <use x="395.503906" xlink:href="#DejaVuSans-3a"/>
    <use x="429.195312" xlink:href="#DejaVuSans-20"/>
    <use x="460.982422" xlink:href="#DejaVuSans-55"/>
    <use x="534.175781" xlink:href="#DejaVuSans-53"/>
    <use x="597.652344" xlink:href="#DejaVuSans-47"/>
    <use x="675.142578" xlink:href="#DejaVuSans-53"/>
    <use x="738.619141" xlink:href="#DejaVuSans-20"/>
    <use x="770.40625" xlink:href="#DejaVuSans-61"/>
    <use x="831.685547" xlink:href="#DejaVuSans-6e"/>
    <use x="895.064453" xlink:href="#DejaVuSans-64"/>
    <use x="958.541016" xlink:href="#DejaVuSans-20"/>
    <use x="990.328125" xlink:href="#DejaVuSans-4f"/>
    <use x="1069.039062" xlink:href="#DejaVuSans-70"/>
    <use x="1132.515625" xlink:href="#DejaVuSans-65"/>
    <use x="1194.039062" xlink:href="#DejaVuSans-6e"/>
    <use x="1257.417969" xlink:href="#DejaVuSans-53"/>
    <use x="1320.894531" xlink:href="#DejaVuSans-74"/>
    <use x="1360.103516" xlink:href="#DejaVuSans-72"/>
    <use x="1398.966797" xlink:href="#DejaVuSans-65"/>
    <use x="1460.490234" xlink:href="#DejaVuSans-65"/>
    <use x="1522.013672" xlink:href="#DejaVuSans-74"/>
    <use x="1561.222656" xlink:href="#DejaVuSans-4d"/>
    <use x="1647.501953" xlink:href="#DejaVuSans-61"/>
    <use x="1708.78125" xlink:href="#DejaVuSans-70"/>
    <use x="1772.257812" xlink:href="#DejaVuSans-73"/>
   </g>
  </g>
 </g>
 <defs>
  <clipPath id="pabf0fd1bbc">
   <rect height="81.975632" width="90.682338" x="0" y="9.449347"/>
  </clipPath>
 </defs>
</svg>
