<?xml version="1.0" encoding="utf-8" standalone="no"?>
<!DOCTYPE svg PUBLIC "-//W3C//DTD SVG 1.1//EN"
  "http://www.w3.org/Graphics/SVG/1.1/DTD/svg11.dtd">
<svg height="226.365426pt" version="1.1" viewBox="0 0 143.655682 226.365426" width="143.655682pt" xmlns="http://www.w3.org/2000/svg" xmlns:xlink="http://www.w3.org/1999/xlink">
 <metadata>
  <rdf:RDF xmlns:cc="http://creativecommons.org/ns#" xmlns:dc="http://purl.org/dc/elements/1.1/" xmlns:rdf="http://www.w3.org/1999/02/22-rdf-syntax-ns#">
   <cc:Work>
    <dc:type rdf:resource="http://purl.org/dc/dcmitype/StillImage"/>
    <dc:date>2022-04-14T21:34:39.939200</dc:date>
    <dc:format>image/svg+xml</dc:format>
    <dc:creator>
     <cc:Agent>
      <dc:title>Matplotlib v3.4.3, https://matplotlib.org/</dc:title>
     </cc:Agent>
    </dc:creator>
   </cc:Work>
  </rdf:RDF>
 </metadata>
 <defs>
  <style type="text/css">*{stroke-linecap:butt;stroke-linejoin:round;}</style>
 </defs>
 <g id="figure_1">
  <g id="patch_1">
   <path d="M 0 226.365426 
L 143.655682 226.365426 
L 143.655682 0 
L 0 0 
z
" style="fill:#ffffff;"/>
  </g>
  <g id="axes_1">
   <g id="line2d_1">
    <path clip-path="url(#p521916760c)" d="M 50.507741 180.188622 
" style="fill:none;stroke:#008000;stroke-linecap:square;stroke-width:1.5;"/>
   </g>
   <g id="line2d_2">
    <path clip-path="url(#p521916760c)" d="M 50.507741 180.188622 
" style="fill:none;stroke:#4169e1;stroke-linecap:square;stroke-width:1.5;"/>
   </g>
   <g id="line2d_3">
    <path clip-path="url(#p521916760c)" d="M 50.507741 180.188622 
" style="fill:none;stroke:#000000;stroke-linecap:square;stroke-width:1.5;"/>
   </g>
   <g id="line2d_4">
    <path clip-path="url(#p521916760c)" d="M 50.507741 180.188622 
" style="fill:none;stroke:#ff0000;stroke-linecap:square;stroke-width:1.5;"/>
   </g>
   <g id="line2d_5">
    <path clip-path="url(#p521916760c)" d="M 50.507741 180.188622 
" style="fill:none;stroke:#ffd700;stroke-linecap:square;stroke-width:1.5;"/>
   </g>
   <g id="line2d_6">
    <path clip-path="url(#p521916760c)" d="M 50.507741 180.188622 
" style="fill:none;stroke:#000000;stroke-dasharray:1.5,2.475;stroke-dashoffset:0;stroke-width:1.5;"/>
   </g>
   <g id="line2d_7">
    <path clip-path="url(#p521916760c)" d="M 128.942244 152.390222 
L 126.988768 147.221849 
L 125.356263 142.900854 
L 123.723757 138.579859 
L 122.003185 134.025993 
L 120.282613 129.472127 
L 118.326955 124.297447 
L 116.371296 119.122767 
L 114.842869 115.078799 
L 113.314442 111.034831 
L 111.852975 107.166963 
L 110.391508 103.299094 
L 108.119246 97.284395 
L 106.384846 92.695835 
L 104.650445 88.107275 
L 102.708615 82.967289 
L 100.996049 78.434975 
L 99.283483 73.902662 
L 98.107322 70.790442 
L 96.931161 67.678221 
L 95.755 64.566001 
L 94.57884 61.453781 
L 92.385183 55.648298 
L 90.191526 49.842816 
L 87.981858 43.993177 
L 86.668866 40.520085 
L 85.355875 37.046994 
L 84.743048 35.424781 
L 83.380565 31.818695 
L 82.018082 28.212609 
L 81.162162 25.950132 
" style="fill:none;stroke:#808080;stroke-linecap:square;stroke-width:1.5;"/>
   </g>
   <g id="line2d_8">
    <path clip-path="url(#p521916760c)" d="M 36.411278 199.229385 
L 35.708201 193.856002 
L 35.018226 188.575662 
L 34.32825 183.295322 
L 33.592422 177.671721 
L 32.856594 172.04812 
L 32.098203 166.245265 
L 31.339812 160.442411 
L 30.732808 155.79813 
L 30.125804 151.153849 
L 29.722591 148.070278 
L 28.926353 141.982511 
L 28.130115 135.894745 
L 27.589343 131.761939 
L 27.048571 127.629134 
L 26.374608 122.474429 
L 25.533245 116.039721 
L 24.691882 109.605013 
L 24.343983 106.937771 
L 23.742802 102.340275 
L 23.141621 97.742778 
L 22.655072 94.021308 
L 22.168522 90.299838 
L 21.681973 86.578368 
L 21.195424 82.856899 
L 20.593515 78.255722 
L 19.991606 73.654546 
L 19.303814 68.394707 
L 18.616022 63.134869 
L 18.086167 59.084067 
L 17.77757 56.723816 
" style="fill:none;stroke:#808080;stroke-linecap:square;stroke-width:1.5;"/>
   </g>
   <g id="line2d_9">
    <path clip-path="url(#p521916760c)" d="M 30.9628 200.412139 
L 30.642558 196.817093 
L 30.322316 193.222046 
L 29.882711 188.279185 
L 29.443107 183.336325 
L 29.090113 179.375938 
L 28.737119 175.415552 
L 28.255301 169.996436 
L 27.773482 164.577319 
L 27.265462 158.869085 
L 26.757442 153.160852 
L 26.523083 150.534612 
" style="fill:none;stroke:#808080;stroke-linecap:square;stroke-width:1.5;"/>
   </g>
   <g id="line2d_10">
    <path clip-path="url(#p521916760c)" d="M 54.599558 190.791355 
L 53.718893 186.392561 
L 52.838228 181.993767 
" style="fill:none;stroke:#808080;stroke-linecap:square;stroke-width:1.5;"/>
   </g>
   <g id="line2d_11">
    <path clip-path="url(#p521916760c)" d="M 48.744955 192.878259 
L 47.977831 186.787338 
L 47.210706 180.696417 
" style="fill:none;stroke:#808080;stroke-linecap:square;stroke-width:1.5;"/>
   </g>
   <g id="line2d_12">
    <path clip-path="url(#p521916760c)" d="M 25.310531 199.606815 
L 24.733004 195.302379 
L 24.155477 190.997943 
L 23.57795 186.693506 
L 23.000423 182.38907 
" style="fill:none;stroke:#808080;stroke-linecap:square;stroke-width:1.5;"/>
   </g>
   <g id="line2d_13">
    <path clip-path="url(#p521916760c)" d="M 50.507741 180.188622 
L 50.727907 181.513963 
L 50.948074 182.839305 
L 51.16824 184.164647 
L 51.388406 185.489988 
L 51.608572 186.81533 
L 51.828739 188.140672 
L 52.048905 189.466013 
L 52.269071 190.791355 
" style="fill:none;stroke:#008000;stroke-linecap:square;stroke-width:1.5;"/>
   </g>
   <g id="line2d_14">
    <path clip-path="url(#p521916760c)" d="M 13.966692 57.027652 
L 13.369514 58.757102 
L 12.772336 60.486551 
L 12.175158 62.216 
L 11.577979 63.94545 
L 12.468834 65.613921 
L 11.825439 66.743583 
L 11.182044 67.873244 
L 10.711871 68.95323 
L 10.241698 70.033216 
L 9.771524 71.113202 
L 9.301351 72.193188 
L 8.806432 73.518924 
L 8.311513 74.84466 
L 7.816594 76.170396 
L 7.321674 77.496131 
L 6.925739 79.067354 
L 6.529804 80.638578 
L 7.123707 82.111501 
L 7.71761 83.584424 
L 8.954908 84.959047 
L 10.192206 86.33367 
L 10.390173 88.002667 
L 10.588141 89.671665 
L 11.528488 91.292301 
L 12.468834 92.912936 
L 13.754896 94.042072 
L 15.040958 95.171208 
L 16.228764 95.956557 
L 17.41657 96.741906 
L 18.158949 97.969341 
L 18.901328 99.196777 
L 19.445739 100.768 
L 19.99015 102.339223 
L 20.903567 103.106174 
L 21.816984 103.873124 
L 22.730401 104.640074 
L 23.643818 105.407025 
" style="fill:none;stroke:#ff0000;stroke-linecap:square;stroke-width:1.5;"/>
   </g>
   <g id="line2d_15">
    <path clip-path="url(#p521916760c)" d="M 22.256589 58.586785 
L 23.645274 58.922162 
L 24.451701 58.289782 
L 25.258128 57.657403 
L 26.719596 57.099143 
L 28.463458 57.340951 
L 30.20732 57.582758 
L 31.613837 57.471054 
L 33.020354 57.359349 
L 34.42687 57.247645 
L 35.833387 57.13594 
L 37.48336 57.228983 
L 39.133333 57.322027 
L 40.933966 57.84349 
L 41.683623 58.772872 
L 41.777512 59.796348 
L 41.871401 60.819825 
L 41.458726 61.992065 
L 41.046051 63.164306 
L 40.014726 64.410666 
L 38.983402 65.657026 
L 38.064526 66.968569 
L 37.145651 68.280112 
L 36.226775 69.591655 
L 35.307899 70.903197 
L 34.529857 72.140358 
L 33.751815 73.377519 
L 32.973773 74.61468 
L 32.195731 75.85184 
L 31.633124 77.182045 
L 31.070517 78.512249 
L 30.507911 79.842453 
L 29.945304 81.172657 
L 29.439104 82.288914 
L 28.932903 83.405171 
L 28.426703 84.521428 
L 27.920502 85.637685 
L 27.4234 87.312202 
L 26.926297 88.986719 
L 26.429194 90.661236 
L 25.932092 92.335752 
L 25.672987 93.480658 
L 25.413882 94.625564 
L 25.073261 96.271432 
L 24.732641 97.9173 
L 24.404393 99.033557 
L 24.076145 100.149814 
L 23.747897 101.266071 
L 23.419649 102.382328 
L 23.531734 103.894676 
L 23.643818 105.407025 
L 23.738435 106.68545 
L 23.833052 107.963876 
L 23.776646 108.98709 
L 23.72024 110.010304 
L 23.663833 111.033517 
L 23.607427 112.056731 
L 23.72024 113.117004 
L 23.833052 114.177278 
L 24.326516 115.105082 
L 24.819979 116.032887 
L 25.258128 116.856084 
L 26.364418 117.963142 
L 27.470708 119.0702 
L 28.576998 120.177257 
L 29.683288 121.284315 
L 31.184058 121.995545 
L 32.684827 122.706774 
L 33.427206 123.885323 
L 34.169585 125.063872 
L 34.268569 126.732343 
L 34.992024 127.734793 
L 35.71548 128.737243 
L 37.093975 129.666099 
L 38.472471 130.594955 
L 40.289115 130.920344 
L 42.10576 131.245733 
L 43.23534 132.794352 
L 42.99807 134.42813 
L 42.7608 136.061907 
L 42.249869 136.89772 
L 41.738937 137.733533 
L 41.228006 138.569346 
L 40.717075 139.405159 
L 39.685387 140.346631 
L 38.653698 141.288103 
L 37.62201 142.229576 
L 36.590322 143.171048 
L 35.750051 144.559601 
L 34.90978 145.948154 
L 34.069509 147.336708 
L 33.229239 148.725261 
" style="fill:none;stroke:#4169e1;stroke-linecap:square;stroke-width:1.5;"/>
   </g>
   <g id="line2d_16">
    <path clip-path="url(#p521916760c)" d="M 54.924167 52.809689 
L 53.690508 53.813453 
L 52.456849 54.817216 
L 51.22319 55.82098 
L 49.989531 56.824744 
L 49.525545 57.773707 
L 49.061558 58.72267 
L 48.597571 59.671633 
L 48.133585 60.620596 
L 47.669598 61.569559 
L 47.205611 62.518522 
L 46.741624 63.467485 
L 46.277638 64.416448 
L 45.799458 65.392878 
L 45.321279 66.369307 
L 44.8431 67.345736 
L 44.36492 68.322165 
L 43.420571 69.842136 
L 42.476221 71.362106 
L 41.531872 72.882076 
L 40.587522 74.402047 
L 40.488539 75.604908 
L 40.389555 76.807769 
L 40.290571 78.010629 
L 40.191587 79.21349 
L 40.092603 80.416351 
L 39.993619 81.619212 
L 39.894636 82.822073 
L 39.795652 84.024934 
L 39.911557 85.491943 
L 40.027463 86.958952 
L 40.143369 88.425962 
L 40.259275 89.892971 
L 40.37518 91.35998 
L 40.491086 92.82699 
L 40.606992 94.293999 
L 40.722897 95.761008 
L 40.868462 97.604002 
L 40.983458 99.048539 
L 41.583456 99.999802 
L 42.183455 100.951064 
L 42.783453 101.902327 
L 43.383452 102.85359 
L 43.983451 103.804853 
L 44.583449 104.756116 
L 45.183448 105.707379 
L 45.783446 106.658641 
L 46.383445 107.609904 
L 46.983443 108.561167 
L 47.583442 109.51243 
L 48.18344 110.463693 
L 48.783439 111.414955 
L 49.383437 112.366218 
L 49.983436 113.317481 
L 50.583435 114.268744 
L 51.398596 115.989782 
L 52.213757 117.710821 
L 52.969236 119.305173 
L 53.724716 120.899526 
L 54.480195 122.493878 
L 55.235675 124.088231 
L 54.975842 125.610304 
L 54.71601 127.132377 
L 54.456177 128.65445 
L 54.196345 130.176523 
L 53.936512 131.698596 
L 53.676679 133.220669 
L 53.416847 134.742742 
L 53.157014 136.264815 
L 52.953042 137.37805 
L 52.74907 138.491284 
L 52.545098 139.604519 
L 52.341125 140.717753 
L 52.137153 141.830987 
L 51.933181 142.944222 
L 51.729209 144.057456 
L 51.525237 145.170691 
L 50.151836 146.258299 
L 48.778435 147.345907 
L 47.405034 148.433515 
L 46.031634 149.521123 
L 45.116033 150.343531 
L 44.200433 151.16594 
L 43.284832 151.988348 
L 42.369232 152.810756 
L 41.453631 153.633165 
L 40.538031 154.455573 
L 39.62243 155.277981 
L 38.70683 156.10039 
" style="fill:none;stroke:#4169e1;stroke-linecap:square;stroke-width:1.5;"/>
   </g>
   <g id="line2d_17">
    <path clip-path="url(#p521916760c)" d="M 25.413882 94.625564 
L 26.582037 95.225615 
L 27.750192 95.825665 
L 28.918347 96.425716 
L 30.086502 97.025767 
L 31.382025 97.202391 
L 32.677549 97.379016 
L 34.08443 97.533037 
L 35.49131 97.687057 
L 36.835598 97.666294 
L 38.179886 97.64553 
L 39.524174 97.624766 
L 40.868462 97.604002 
" style="fill:none;stroke:#008000;stroke-linecap:square;stroke-width:1.5;"/>
   </g>
   <g id="line2d_18">
    <path clip-path="url(#p521916760c)" d="M 30.086502 97.025767 
L 29.632341 98.161736 
L 29.178179 99.297706 
L 29.64908 100.906777 
L 30.119982 102.515848 
L 30.30776 103.858931 
L 30.495538 105.202014 
L 31.20662 105.938738 
L 31.917703 106.675463 
L 32.628785 107.412187 
L 33.339868 108.148911 
L 33.33077 109.40999 
L 33.321672 110.671069 
L 33.312574 111.932147 
L 33.303476 113.193226 
L 33.144811 114.922675 
L 32.802007 115.944049 
L 32.459203 116.965423 
L 32.433001 118.380523 
L 32.406799 119.795622 
L 32.545813 121.251198 
L 32.684827 122.706774 
" style="fill:none;stroke:#4169e1;stroke-linecap:square;stroke-width:1.5;"/>
   </g>
   <g id="line2d_19">
    <path clip-path="url(#p521916760c)" d="M 80.860844 23.139909 
L 79.914493 24.094391 
L 78.968142 25.048874 
L 78.021791 26.003356 
L 77.07544 26.957839 
L 76.129089 27.912321 
L 75.182738 28.866804 
L 74.236387 29.821286 
L 73.290036 30.775769 
L 72.412282 31.490941 
L 71.534528 32.206113 
L 70.656775 32.921285 
L 69.779021 33.636457 
L 68.391792 34.901741 
L 67.004562 36.167025 
L 65.954315 37.097195 
L 64.904067 38.027365 
L 63.853819 38.957536 
L 62.803572 39.887706 
L 62.072474 40.855199 
L 61.341377 41.822692 
L 60.610279 42.790185 
L 59.879181 43.757677 
L 59.142625 44.952259 
L 58.406069 46.146841 
L 57.669513 47.341422 
L 56.932957 48.536004 
L 56.430759 49.604425 
L 55.928562 50.672846 
L 55.426364 51.741267 
L 54.924167 52.809689 
" style="fill:none;stroke:#008000;stroke-linecap:square;stroke-width:1.5;"/>
   </g>
   <g id="line2d_20">
    <path clip-path="url(#p521916760c)" d="M 54.924167 52.809689 
L 55.411808 54.51338 
L 55.899449 56.217072 
L 55.569018 58.039039 
L 55.238586 59.861005 
L 54.84629 61.092121 
L 54.453994 62.323237 
L 54.535874 63.473136 
L 54.617754 64.623036 
L 54.699634 65.772936 
L 54.781514 66.922836 
L 54.86303 68.202313 
L 54.944546 69.48179 
L 55.026062 70.761267 
L 55.107578 72.040744 
L 55.156706 73.304188 
L 55.205834 74.567632 
L 55.254962 75.831077 
L 55.30409 77.094521 
L 54.964561 78.651288 
L 54.625032 80.208055 
L 54.285503 81.764822 
L 53.945974 83.321589 
L 54.484562 84.582668 
L 55.023151 85.843747 
L 55.561739 87.104825 
L 56.100328 88.365904 
L 56.96207 90.032799 
L 57.823811 91.699694 
L 57.305602 93.324009 
L 57.26266 95.24743 
L 57.219719 97.170851 
L 57.791787 98.394082 
L 58.363855 99.617312 
L 58.911906 100.78745 
L 59.459956 101.957588 
L 59.944504 102.940588 
L 60.429051 103.923588 
L 60.913599 104.906588 
L 61.398147 105.889588 
L 61.882694 106.872588 
L 62.367242 107.855588 
L 62.85179 108.838588 
L 63.336338 109.821589 
L 63.818156 110.91971 
L 64.299974 112.017831 
L 64.781793 113.115953 
L 65.263611 114.214074 
L 65.854239 115.187612 
L 66.444867 116.16115 
L 67.035495 117.134688 
L 67.626123 118.108226 
" style="fill:none;stroke:#4169e1;stroke-linecap:square;stroke-width:1.5;"/>
   </g>
   <g id="line2d_21">
    <path clip-path="url(#p521916760c)" d="M 40.722897 95.761008 
L 41.919073 96.023185 
L 43.115249 96.285363 
L 44.311425 96.54754 
L 45.507601 96.809717 
L 46.703778 97.071894 
L 47.899954 97.334071 
L 49.09613 97.596248 
L 50.292306 97.858425 
L 51.301249 98.078286 
L 52.310193 98.298147 
L 53.319137 98.518008 
L 54.32808 98.737869 
L 55.337024 98.95773 
L 56.345968 99.17759 
L 57.354912 99.397451 
L 58.363855 99.617312 
" style="fill:none;stroke:#4169e1;stroke-linecap:square;stroke-width:1.5;"/>
   </g>
   <g id="line2d_22">
    <path clip-path="url(#p521916760c)" d="M 52.213757 117.710821 
L 53.74 117.22852 
L 55.266243 116.746219 
L 56.792487 116.263919 
L 58.31873 115.781618 
L 59.394816 115.615769 
L 60.470901 115.449921 
L 61.546986 115.284072 
L 62.623072 115.118224 
L 63.96372 115.714332 
L 65.304369 116.31044 
L 66.465246 117.209333 
L 67.626123 118.108226 
L 68.509699 119.091752 
L 69.393275 120.075278 
" style="fill:none;stroke:#4169e1;stroke-linecap:square;stroke-width:1.5;"/>
   </g>
   <g id="line2d_23">
    <path clip-path="url(#p521916760c)" d="M 69.393275 120.075278 
L 70.34927 120.544963 
L 71.305264 121.014647 
L 72.261259 121.484332 
L 73.217254 121.954017 
L 74.007305 122.674971 
L 74.797356 123.395926 
L 75.587407 124.11688 
L 76.377458 124.837834 
L 77.276137 125.933327 
L 78.174816 127.02882 
L 79.073494 128.124313 
L 79.972173 129.219807 
L 80.870852 130.3153 
L 81.76953 131.410793 
L 82.668209 132.506286 
L 83.566887 133.601779 
L 84.370949 134.387259 
L 85.175011 135.172739 
L 85.979073 135.958219 
L 86.783134 136.743699 
L 87.587196 137.52918 
L 88.391258 138.31466 
L 89.19532 139.10014 
L 89.999381 139.88562 
L 91.335299 141.137762 
L 92.671217 142.389904 
L 94.007135 143.642047 
L 95.343053 144.894189 
L 96.926067 145.679538 
L 98.50908 146.464886 
L 99.473991 146.685799 
L 100.438901 146.906711 
L 101.403812 147.127623 
L 102.368722 147.348535 
L 103.333633 147.569447 
L 104.298543 147.79036 
L 105.263453 148.011272 
L 106.228364 148.232184 
L 108.034455 148.845902 
L 109.840546 149.45962 
L 111.646637 150.073338 
L 113.452729 150.687056 
L 114.603052 151.006268 
L 115.753375 151.32548 
L 116.903698 151.644692 
L 118.054021 151.963904 
L 119.204345 152.283117 
L 120.354668 152.602329 
L 121.504991 152.921541 
L 122.655314 153.240753 
" style="fill:none;stroke:#4169e1;stroke-linecap:square;stroke-width:1.5;"/>
   </g>
   <g id="line2d_24">
    <path clip-path="url(#p521916760c)" d="M 69.393275 120.075278 
L 69.792122 121.171297 
L 70.190968 122.267315 
L 69.99664 123.503688 
L 69.802311 124.74006 
L 69.147271 126.348605 
L 68.526803 127.223318 
L 67.906334 128.09803 
L 67.285866 128.972742 
L 66.665397 129.847455 
L 65.196652 130.884073 
L 63.727906 131.920691 
L 62.389441 133.345778 
L 61.050975 134.770866 
L 60.071327 136.357859 
L 59.091678 137.944852 
L 57.883493 139.435122 
L 56.675308 140.925392 
L 55.712399 141.783809 
L 54.74949 142.642225 
L 53.786581 143.500642 
L 52.823672 144.359059 
L 51.525237 145.170691 
" style="fill:none;stroke:#008000;stroke-linecap:square;stroke-width:1.5;"/>
   </g>
   <g id="line2d_25">
    <path clip-path="url(#p521916760c)" d="M 51.525237 145.170691 
L 51.683174 146.600378 
L 51.841112 148.030064 
L 51.999049 149.459751 
L 52.156986 150.889438 
L 52.314924 152.319125 
L 52.472861 153.748812 
L 52.630799 155.178499 
L 52.788736 156.608185 
L 52.792557 157.914472 
L 52.796378 159.220758 
L 52.800199 160.527044 
L 52.80402 161.83333 
L 52.807842 163.139616 
L 52.811663 164.445902 
L 52.815484 165.752188 
L 52.819305 167.058475 
L 52.114409 168.379742 
L 51.409513 169.70101 
L 50.704617 171.022278 
L 49.999721 172.343545 
L 48.997874 173.266619 
L 47.996026 174.189693 
L 46.994179 175.112767 
L 45.992331 176.035841 
L 44.917701 176.909765 
L 43.843072 177.783688 
L 42.768442 178.657612 
L 41.693812 179.531536 
" style="fill:none;stroke:#4169e1;stroke-linecap:square;stroke-width:1.5;"/>
   </g>
   <g id="line2d_26">
    <path clip-path="url(#p521916760c)" d="M 23.822863 153.843169 
L 23.971111 155.17817 
L 24.119359 156.513171 
L 24.267608 157.848172 
L 24.415856 159.183172 
L 24.564104 160.518173 
L 24.712352 161.853174 
L 24.860601 163.188175 
L 25.008849 164.523176 
L 25.157097 165.858176 
L 25.305346 167.193177 
L 25.453594 168.528178 
L 25.601842 169.863179 
L 25.750091 171.19818 
L 25.898339 172.53318 
L 26.046587 173.868181 
L 26.194836 175.203182 
L 26.343084 176.538183 
L 26.491332 177.873184 
L 26.639581 179.208184 
L 26.787829 180.543185 
L 26.936077 181.878186 
L 27.084325 183.213187 
L 27.232574 184.548188 
L 27.380822 185.883188 
L 27.52907 187.218189 
L 27.677319 188.55319 
L 27.825567 189.888191 
L 27.973815 191.223191 
L 28.122064 192.558192 
L 28.270312 193.893193 
L 28.41856 195.228194 
L 28.566809 196.563195 
" style="fill:none;stroke:#4169e1;stroke-linecap:square;stroke-width:1.5;"/>
   </g>
   <g id="line2d_27">
    <path clip-path="url(#p521916760c)" d="M 15.173422 185.305479 
L 15.301337 186.447559 
L 15.429251 187.58964 
L 15.557166 188.73172 
L 15.685081 189.873801 
L 15.812996 191.015881 
L 15.940911 192.157961 
L 16.068825 193.300042 
L 16.19674 194.442122 
L 16.324655 195.584203 
L 16.45257 196.726283 
L 16.580484 197.868364 
L 16.708399 199.010444 
L 16.836314 200.152525 
L 16.964229 201.294605 
L 17.092144 202.436686 
L 17.220058 203.578766 
" style="fill:none;stroke:#008000;stroke-linecap:square;stroke-width:1.5;"/>
   </g>
   <g id="line2d_28">
    <path clip-path="url(#p521916760c)" d="M 16.423821 185.305479 
L 16.533904 186.447559 
L 16.643987 187.58964 
L 16.75407 188.73172 
L 16.864153 189.873801 
L 16.974236 191.015881 
L 17.084319 192.157961 
L 17.194403 193.300042 
L 17.304486 194.442122 
L 17.414569 195.584203 
L 17.524652 196.726283 
L 17.634735 197.868364 
L 17.744818 199.010444 
L 17.854901 200.152525 
L 17.964984 201.294605 
L 18.075068 202.436686 
L 18.185151 203.578766 
" style="fill:none;stroke:#008000;stroke-linecap:square;stroke-width:1.5;"/>
   </g>
   <g id="line2d_29">
    <path clip-path="url(#p521916760c)" d="M 17.674219 185.136213 
L 17.77011 186.271197 
L 17.866001 187.406181 
L 17.961891 188.541165 
L 18.057782 189.676149 
L 18.153672 190.811133 
L 18.249563 191.946117 
L 18.345454 193.081101 
L 18.441344 194.216085 
L 18.537235 195.351069 
L 18.633125 196.486053 
L 18.729016 197.621037 
L 18.824907 198.756021 
L 18.920797 199.891005 
L 19.016688 201.025989 
L 19.112578 202.160973 
L 19.208469 203.295956 
" style="fill:none;stroke:#008000;stroke-linecap:square;stroke-width:1.5;"/>
   </g>
   <g id="line2d_30">
    <path clip-path="url(#p521916760c)" d="M 18.867848 185.079441 
L 18.960191 186.214491 
L 19.052533 187.349541 
L 19.144875 188.48459 
L 19.237218 189.61964 
L 19.32956 190.754689 
L 19.421903 191.889739 
L 19.514245 193.024789 
L 19.606588 194.159838 
L 19.69893 195.294888 
L 19.791273 196.429938 
L 19.883615 197.564987 
L 19.975958 198.700037 
L 20.0683 199.835087 
L 20.160643 200.970136 
L 20.252985 202.105186 
L 20.345327 203.240236 
" style="fill:none;stroke:#4169e1;stroke-linecap:square;stroke-width:1.5;"/>
   </g>
   <g id="line2d_31">
    <path clip-path="url(#p521916760c)" d="M 54.924167 52.809689 
L 56.03446 53.952492 
L 57.144753 55.095295 
L 58.255046 56.238098 
L 59.365339 57.380902 
L 60.078787 58.852642 
L 60.792235 60.324382 
L 61.505682 61.796123 
L 62.21913 63.267863 
L 62.932578 64.739603 
L 63.646026 66.211343 
L 64.359474 67.683084 
L 65.072922 69.154824 
L 65.469949 70.554416 
L 65.866976 71.954009 
L 66.264003 73.353601 
L 66.66103 74.753193 
L 67.445259 76.492367 
L 68.229487 78.231542 
L 69.013716 79.970716 
L 69.797944 81.70989 
L 70.842187 82.707214 
L 71.886431 83.704539 
L 72.930674 84.701863 
L 73.974917 85.699188 
L 75.01916 86.696512 
L 76.063403 87.693837 
L 77.107646 88.691161 
L 78.151889 89.688486 
L 79.229976 90.804743 
L 80.308063 91.921 
L 81.38615 93.037257 
L 82.464237 94.153514 
L 83.542323 95.269771 
L 84.62041 96.386028 
L 85.698497 97.502285 
L 86.776584 98.618542 
L 87.854671 99.734799 
L 88.932758 100.851056 
L 90.010845 101.967313 
L 91.088931 103.08357 
L 92.167018 104.199827 
L 93.245105 105.316084 
L 94.323192 106.432341 
L 95.401279 107.548598 
L 96.066872 108.562547 
L 96.732466 109.576496 
L 97.398059 110.590444 
L 98.063653 111.604393 
L 98.729246 112.618342 
L 99.39484 113.632291 
L 100.060434 114.646239 
L 100.726027 115.660188 
L 101.391621 116.674137 
L 102.057214 117.688086 
L 102.722808 118.702035 
L 103.388401 119.715983 
L 104.053995 120.729932 
L 104.719588 121.743881 
L 105.385182 122.75783 
L 106.050775 123.771778 
L 106.763313 125.390443 
L 107.475851 127.009108 
L 108.18839 128.627772 
L 108.900928 130.246437 
L 109.613466 131.865102 
L 110.326004 133.483766 
L 111.038542 135.102431 
L 111.75108 136.721096 
L 112.388652 137.855882 
L 113.026225 138.990669 
L 113.663797 140.125456 
L 114.301369 141.260243 
L 114.938942 142.39503 
L 115.576514 143.529817 
L 116.214087 144.664603 
L 116.851659 145.79939 
L 117.826577 146.450562 
L 118.801495 147.101734 
L 119.776413 147.752906 
L 120.751331 148.404077 
L 121.726249 149.055249 
L 122.701167 149.706421 
L 123.676085 150.357593 
L 124.651003 151.008765 
" style="fill:none;stroke:#4169e1;stroke-linecap:square;stroke-width:1.5;"/>
   </g>
   <g id="line2d_32">
    <path clip-path="url(#p521916760c)" d="M 69.797944 81.70989 
L 69.73708 82.711748 
L 69.676216 83.713607 
L 69.615352 84.715465 
L 69.554488 85.717324 
L 69.493624 86.719182 
L 69.43276 87.72104 
L 69.371895 88.722899 
L 69.311031 89.724757 
L 69.250167 90.726616 
L 69.189303 91.728474 
L 69.128439 92.730332 
L 69.067575 93.732191 
L 69.006711 94.734049 
L 68.945846 95.735908 
L 68.884982 96.737766 
L 68.824118 97.739624 
L 68.601404 98.893204 
L 68.378691 100.046783 
L 68.155977 101.200363 
L 67.933264 102.353942 
L 67.491475 103.591629 
L 67.049687 104.829315 
L 66.607899 106.067001 
L 66.166111 107.304688 
L 65.940486 109.032034 
L 65.714861 110.759381 
L 65.489236 112.486728 
L 65.263611 114.214074 
" style="fill:none;stroke:#4169e1;stroke-linecap:square;stroke-width:1.5;"/>
   </g>
   <g id="line2d_33">
    <path clip-path="url(#p521916760c)" d="M 73.290036 30.775769 
L 73.665228 31.897545 
L 74.040421 33.019322 
L 74.415613 34.141098 
L 74.790806 35.262875 
L 75.165998 36.384651 
L 75.54119 37.506428 
L 75.916383 38.628204 
L 76.291575 39.749981 
L 76.937154 40.72641 
L 77.582732 41.702839 
L 78.228311 42.679269 
L 78.873889 43.655698 
L 79.897571 44.061777 
L 80.921253 44.467856 
L 81.944935 44.873934 
L 82.968618 45.280013 
L 84.422807 45.412745 
L 85.876996 45.545476 
L 87.331185 45.678207 
L 88.785374 45.810939 
" style="fill:none;stroke:#4169e1;stroke-linecap:square;stroke-width:1.5;"/>
   </g>
   <g id="line2d_34">
    <path clip-path="url(#p521916760c)" d="M 88.785374 45.810939 
L 88.970968 47.704396 
L 89.156563 49.597854 
L 89.504462 50.563639 
L 89.852361 51.529423 
L 90.20026 52.495207 
L 90.548159 53.460992 
L 90.896058 54.426776 
L 91.243958 55.392561 
L 91.591857 56.358345 
L 91.939756 57.324129 
L 92.539299 58.136024 
L 93.138843 58.947919 
L 93.738387 59.759814 
L 94.33793 60.571709 
L 94.937474 61.383604 
L 95.537018 62.195499 
L 96.136561 63.007394 
L 96.736105 63.819289 
L 97.455557 65.426915 
L 98.17501 67.03454 
L 98.894462 68.642166 
L 99.613914 70.249792 
L 100.333367 71.857417 
L 101.052819 73.465043 
L 101.772272 75.072668 
L 102.491724 76.680294 
L 102.893436 77.654423 
L 103.295149 78.628553 
L 103.696861 79.602682 
L 104.098574 80.576812 
L 104.500286 81.550941 
L 104.901999 82.52507 
L 105.303711 83.4992 
L 105.705424 84.473329 
L 106.107136 85.447458 
L 106.508848 86.421588 
L 106.910561 87.395717 
L 107.312273 88.369847 
L 107.713986 89.343976 
L 108.115698 90.318105 
L 108.517411 91.292235 
L 108.919123 92.266364 
L 109.320836 93.240494 
L 109.722548 94.214623 
L 110.12426 95.188752 
L 110.525973 96.162882 
L 110.927685 97.137011 
L 111.329398 98.111141 
L 111.73111 99.08527 
L 112.132823 100.059399 
L 112.534535 101.033529 
L 112.936248 102.007658 
L 113.33796 102.981787 
L 113.739672 103.955917 
L 114.141385 104.930046 
L 114.543097 105.904176 
L 114.94481 106.878305 
L 115.346522 107.852434 
L 115.751601 108.893127 
L 116.15668 109.933819 
L 116.561758 110.974511 
L 116.966837 112.015203 
L 117.371915 113.055895 
L 117.776994 114.096587 
L 118.182073 115.13728 
L 118.587151 116.177972 
L 118.99223 117.218664 
L 119.397309 118.259356 
L 119.802387 119.300048 
L 120.207466 120.34074 
L 120.612544 121.381433 
L 121.017623 122.422125 
L 121.422702 123.462817 
L 121.82778 124.503509 
L 122.232859 125.544201 
L 122.637937 126.584893 
L 123.043016 127.625585 
L 123.448095 128.666278 
L 123.853173 129.70697 
L 124.258252 130.747662 
L 124.663331 131.788354 
L 125.068409 132.829046 
L 125.473488 133.869738 
L 125.878566 134.910431 
L 126.283645 135.951123 
L 126.688724 136.991815 
L 127.093802 138.032507 
L 127.498881 139.073199 
L 127.90396 140.113891 
L 128.309038 141.154584 
" style="fill:none;stroke:#4169e1;stroke-linecap:square;stroke-width:1.5;"/>
   </g>
   <g id="line2d_35">
    <path clip-path="url(#p521916760c)" d="M 90.24393 26.119397 
L 89.444781 27.891426 
L 88.645632 29.663454 
L 87.960023 30.919276 
L 87.274414 32.175098 
L 86.588806 33.43092 
L 85.903197 34.686742 
L 86.319512 36.489259 
L 86.735826 38.291777 
L 87.248213 40.171567 
L 87.7606 42.051358 
L 88.272987 43.931148 
L 88.785374 45.810939 
" style="fill:none;stroke:#4169e1;stroke-linecap:square;stroke-width:1.5;"/>
   </g>
   <g id="line2d_36">
    <path clip-path="url(#p521916760c)" d="M 97.919544 30.03773 
L 97.715754 31.139794 
L 97.511964 32.241858 
L 97.308173 33.343922 
L 97.104383 34.445986 
L 96.343445 35.491015 
L 95.582507 36.536044 
L 94.821568 37.581073 
L 94.06063 38.626102 
L 93.250928 39.701094 
L 92.441225 40.776086 
L 91.631523 41.851078 
L 90.821821 42.92607 
L 89.803597 44.368504 
L 88.785374 45.810939 
" style="fill:none;stroke:#008000;stroke-linecap:square;stroke-width:1.5;"/>
   </g>
   <g id="line2d_37">
    <path clip-path="url(#p521916760c)" d="M 80.860844 23.139909 
L 81.873973 22.963284 
L 82.887101 22.786659 
L 84.49195 23.288147 
L 86.096798 23.789635 
L 87.133581 24.372075 
L 88.170364 24.954516 
L 89.207147 25.536957 
L 90.24393 26.119397 
L 91.203381 26.609189 
L 92.162833 27.098981 
L 93.122285 27.588772 
L 94.081737 28.078564 
L 95.041189 28.568355 
L 96.00064 29.058147 
L 96.960092 29.547939 
L 97.919544 30.03773 
L 99.485818 29.965714 
L 101.052091 29.893697 
L 102.383279 30.200688 
L 103.714466 30.507678 
L 105.045653 30.814668 
L 106.37684 31.121659 
L 107.708027 31.428649 
L 109.039214 31.735639 
L 110.370401 32.04263 
L 111.701588 32.34962 
L 113.117202 33.140226 
L 114.532817 33.930831 
L 115.948431 34.721436 
L 117.364046 35.512042 
L 118.365165 36.727387 
L 119.366285 37.942733 
L 120.367405 39.158078 
L 121.368524 40.373424 
L 121.789206 41.957 
L 122.209887 43.540576 
L 122.630568 45.124153 
L 123.05125 46.707729 
L 123.001758 48.444538 
L 122.952266 50.181346 
L 122.902774 51.918155 
L 122.853282 53.654963 
L 122.80379 55.391772 
L 122.754298 57.128581 
L 122.704806 58.865389 
L 122.655314 60.602198 
L 123.150051 62.197865 
L 123.644789 63.793531 
L 124.139526 65.389198 
L 124.634263 66.984865 
L 125.129 68.580531 
L 125.623738 70.176198 
L 126.118475 71.771865 
L 126.613212 73.367531 
L 126.724569 75.257835 
L 126.835926 77.148139 
L 126.947283 79.038443 
L 127.058639 80.928747 
L 127.328116 82.363559 
L 127.597592 83.798371 
L 127.867068 85.233183 
L 128.136544 86.667995 
L 128.406021 88.102807 
L 128.675497 89.537619 
L 128.944973 90.972431 
L 129.214449 92.407243 
L 129.84256 93.865711 
L 130.470671 95.324178 
L 131.098781 96.782645 
L 131.726892 98.241112 
L 132.158127 99.561986 
L 132.589361 100.882859 
L 133.020596 102.203732 
L 133.451831 103.524606 
L 133.883066 104.845479 
L 134.3143 106.166353 
L 134.745535 107.487226 
L 135.17677 108.8081 
L 135.664047 110.463955 
L 136.151324 112.119811 
L 136.638601 113.775667 
L 137.125878 115.431522 
L 136.957205 116.798918 
L 136.788532 118.166313 
L 136.61986 119.533708 
L 136.451187 120.901103 
L 136.282514 122.268498 
L 136.113841 123.635893 
L 135.945168 125.003288 
L 135.776495 126.370683 
L 135.354722 127.48694 
L 134.932949 128.603197 
L 134.511176 129.719454 
L 134.089403 130.835711 
L 133.66763 131.951968 
L 133.245857 133.068225 
L 132.824084 134.184482 
L 132.402311 135.300739 
" style="fill:none;stroke:#4169e1;stroke-linecap:square;stroke-width:1.5;"/>
   </g>
   <g id="line2d_38">
    <path clip-path="url(#p521916760c)" d="M 129.214449 92.407243 
L 128.668946 93.3269 
L 128.123444 94.246557 
L 127.577941 95.166214 
L 127.032438 96.085871 
L 126.094275 97.326449 
L 125.156112 98.567027 
L 124.275447 99.638865 
L 123.394782 100.710703 
L 122.584715 101.542573 
L 121.774649 102.374443 
L 120.964583 103.206314 
L 120.154517 104.038184 
L 118.952518 104.991747 
L 117.750519 105.945309 
L 116.548521 106.898872 
L 115.346522 107.852434 
" style="fill:none;stroke:#008000;stroke-linecap:square;stroke-width:1.5;"/>
   </g>
   <g id="line2d_39">
    <path clip-path="url(#p521916760c)" d="M 24.819979 116.032887 
L 25.024224 117.892045 
L 25.228469 119.751203 
L 25.432715 121.610361 
L 25.63696 123.469519 
L 25.841205 125.328677 
L 26.04545 127.187835 
L 26.249695 129.046993 
L 26.45394 130.906151 
L 26.658186 132.765309 
L 26.862431 134.624467 
L 27.066676 136.483625 
L 27.270921 138.342783 
L 27.475166 140.201941 
L 27.679411 142.061099 
L 27.883656 143.920257 
L 28.087902 145.779415 
" style="fill:none;stroke:#000000;stroke-linecap:square;stroke-width:1.5;"/>
   </g>
   <g id="line2d_40">
    <path clip-path="url(#p521916760c)" d="M 44.36492 68.322165 
L 45.07855 69.616098 
L 45.79218 70.910031 
L 46.50581 72.203964 
L 47.21944 73.497897 
L 47.256559 75.321441 
L 47.293678 77.144985 
L 47.818437 78.819239 
L 48.343197 80.493493 
L 49.506257 81.126398 
L 50.669318 81.759303 
L 52.307646 82.540446 
L 53.945974 83.321589 
" style="fill:none;stroke:#4169e1;stroke-linecap:square;stroke-width:1.5;"/>
   </g>
   <g id="line2d_41">
    <path clip-path="url(#p521916760c)" d="M 18.418054 55.745021 
L 19.432638 55.155878 
L 20.447223 54.566735 
L 21.461807 53.977592 
L 22.476391 53.38845 
L 23.490976 52.799307 
L 24.50556 52.210164 
L 25.520144 51.621021 
L 26.534729 51.031878 
L 27.425401 50.504107 
L 28.316074 49.976335 
L 29.206746 49.448564 
L 30.097419 48.920793 
L 30.988092 48.393022 
L 31.878764 47.865251 
L 32.769437 47.33748 
L 33.660109 46.809709 
L 35.193995 45.999391 
L 36.727881 45.189073 
L 38.261766 44.378755 
L 39.795652 43.568437 
L 40.909038 43.924446 
L 42.022424 44.280455 
L 43.13581 44.636464 
L 44.249197 44.992473 
L 45.362583 45.348482 
L 46.475969 45.704491 
L 47.589355 46.0605 
L 48.702742 46.416509 
L 49.48042 47.215656 
L 50.258098 48.014804 
L 51.035776 48.813951 
L 51.813454 49.613099 
L 52.591132 50.412246 
L 53.368811 51.211394 
L 54.146489 52.010541 
L 54.924167 52.809689 
" style="fill:none;stroke:#008000;stroke-linecap:square;stroke-width:1.5;"/>
   </g>
   <g id="text_1">
    <g id="patch_2">
     <path d="M 121.328154 133.553034 
L 124.213418 144.126761 
L 126.11936 143.606685 
L 123.234096 133.032958 
z
" style="fill:#ffffff;"/>
    </g>
    <!-- Apex Chair -->
    <g style="fill:#808080;" transform="translate(121.753981 133.45757)rotate(-285.262786)scale(0.02 -0.02)">
     <defs>
      <path d="M 2188 4044 
L 1331 1722 
L 3047 1722 
L 2188 4044 
z
M 1831 4666 
L 2547 4666 
L 4325 0 
L 3669 0 
L 3244 1197 
L 1141 1197 
L 716 0 
L 50 0 
L 1831 4666 
z
" id="DejaVuSans-41" transform="scale(0.015625)"/>
      <path d="M 1159 525 
L 1159 -1331 
L 581 -1331 
L 581 3500 
L 1159 3500 
L 1159 2969 
Q 1341 3281 1617 3432 
Q 1894 3584 2278 3584 
Q 2916 3584 3314 3078 
Q 3713 2572 3713 1747 
Q 3713 922 3314 415 
Q 2916 -91 2278 -91 
Q 1894 -91 1617 61 
Q 1341 213 1159 525 
z
M 3116 1747 
Q 3116 2381 2855 2742 
Q 2594 3103 2138 3103 
Q 1681 3103 1420 2742 
Q 1159 2381 1159 1747 
Q 1159 1113 1420 752 
Q 1681 391 2138 391 
Q 2594 391 2855 752 
Q 3116 1113 3116 1747 
z
" id="DejaVuSans-70" transform="scale(0.015625)"/>
      <path d="M 3597 1894 
L 3597 1613 
L 953 1613 
Q 991 1019 1311 708 
Q 1631 397 2203 397 
Q 2534 397 2845 478 
Q 3156 559 3463 722 
L 3463 178 
Q 3153 47 2828 -22 
Q 2503 -91 2169 -91 
Q 1331 -91 842 396 
Q 353 884 353 1716 
Q 353 2575 817 3079 
Q 1281 3584 2069 3584 
Q 2775 3584 3186 3129 
Q 3597 2675 3597 1894 
z
M 3022 2063 
Q 3016 2534 2758 2815 
Q 2500 3097 2075 3097 
Q 1594 3097 1305 2825 
Q 1016 2553 972 2059 
L 3022 2063 
z
" id="DejaVuSans-65" transform="scale(0.015625)"/>
      <path d="M 3513 3500 
L 2247 1797 
L 3578 0 
L 2900 0 
L 1881 1375 
L 863 0 
L 184 0 
L 1544 1831 
L 300 3500 
L 978 3500 
L 1906 2253 
L 2834 3500 
L 3513 3500 
z
" id="DejaVuSans-78" transform="scale(0.015625)"/>
      <path id="DejaVuSans-20" transform="scale(0.015625)"/>
      <path d="M 4122 4306 
L 4122 3641 
Q 3803 3938 3442 4084 
Q 3081 4231 2675 4231 
Q 1875 4231 1450 3742 
Q 1025 3253 1025 2328 
Q 1025 1406 1450 917 
Q 1875 428 2675 428 
Q 3081 428 3442 575 
Q 3803 722 4122 1019 
L 4122 359 
Q 3791 134 3420 21 
Q 3050 -91 2638 -91 
Q 1578 -91 968 557 
Q 359 1206 359 2328 
Q 359 3453 968 4101 
Q 1578 4750 2638 4750 
Q 3056 4750 3426 4639 
Q 3797 4528 4122 4306 
z
" id="DejaVuSans-43" transform="scale(0.015625)"/>
      <path d="M 3513 2113 
L 3513 0 
L 2938 0 
L 2938 2094 
Q 2938 2591 2744 2837 
Q 2550 3084 2163 3084 
Q 1697 3084 1428 2787 
Q 1159 2491 1159 1978 
L 1159 0 
L 581 0 
L 581 4863 
L 1159 4863 
L 1159 2956 
Q 1366 3272 1645 3428 
Q 1925 3584 2291 3584 
Q 2894 3584 3203 3211 
Q 3513 2838 3513 2113 
z
" id="DejaVuSans-68" transform="scale(0.015625)"/>
      <path d="M 2194 1759 
Q 1497 1759 1228 1600 
Q 959 1441 959 1056 
Q 959 750 1161 570 
Q 1363 391 1709 391 
Q 2188 391 2477 730 
Q 2766 1069 2766 1631 
L 2766 1759 
L 2194 1759 
z
M 3341 1997 
L 3341 0 
L 2766 0 
L 2766 531 
Q 2569 213 2275 61 
Q 1981 -91 1556 -91 
Q 1019 -91 701 211 
Q 384 513 384 1019 
Q 384 1609 779 1909 
Q 1175 2209 1959 2209 
L 2766 2209 
L 2766 2266 
Q 2766 2663 2505 2880 
Q 2244 3097 1772 3097 
Q 1472 3097 1187 3025 
Q 903 2953 641 2809 
L 641 3341 
Q 956 3463 1253 3523 
Q 1550 3584 1831 3584 
Q 2591 3584 2966 3190 
Q 3341 2797 3341 1997 
z
" id="DejaVuSans-61" transform="scale(0.015625)"/>
      <path d="M 603 3500 
L 1178 3500 
L 1178 0 
L 603 0 
L 603 3500 
z
M 603 4863 
L 1178 4863 
L 1178 4134 
L 603 4134 
L 603 4863 
z
" id="DejaVuSans-69" transform="scale(0.015625)"/>
      <path d="M 2631 2963 
Q 2534 3019 2420 3045 
Q 2306 3072 2169 3072 
Q 1681 3072 1420 2755 
Q 1159 2438 1159 1844 
L 1159 0 
L 581 0 
L 581 3500 
L 1159 3500 
L 1159 2956 
Q 1341 3275 1631 3429 
Q 1922 3584 2338 3584 
Q 2397 3584 2469 3576 
Q 2541 3569 2628 3553 
L 2631 2963 
z
" id="DejaVuSans-72" transform="scale(0.015625)"/>
     </defs>
     <use xlink:href="#DejaVuSans-41"/>
     <use x="68.408203" xlink:href="#DejaVuSans-70"/>
     <use x="131.884766" xlink:href="#DejaVuSans-65"/>
     <use x="191.658203" xlink:href="#DejaVuSans-78"/>
     <use x="250.837891" xlink:href="#DejaVuSans-20"/>
     <use x="282.625" xlink:href="#DejaVuSans-43"/>
     <use x="352.449219" xlink:href="#DejaVuSans-68"/>
     <use x="415.828125" xlink:href="#DejaVuSans-61"/>
     <use x="477.107422" xlink:href="#DejaVuSans-69"/>
     <use x="504.890625" xlink:href="#DejaVuSans-72"/>
    </g>
   </g>
   <g id="text_2">
    <g id="patch_3">
     <path d="M 32.715246 176.717308 
L 33.974369 190.058962 
L 35.941254 189.873337 
L 34.682132 176.531683 
z
" style="fill:#ffffff;"/>
    </g>
    <!-- West Express -->
    <g style="fill:#808080;" transform="translate(33.151134 176.69626)rotate(-275.391339)scale(0.02 -0.02)">
     <defs>
      <path d="M 213 4666 
L 850 4666 
L 1831 722 
L 2809 4666 
L 3519 4666 
L 4500 722 
L 5478 4666 
L 6119 4666 
L 4947 0 
L 4153 0 
L 3169 4050 
L 2175 0 
L 1381 0 
L 213 4666 
z
" id="DejaVuSans-57" transform="scale(0.015625)"/>
      <path d="M 2834 3397 
L 2834 2853 
Q 2591 2978 2328 3040 
Q 2066 3103 1784 3103 
Q 1356 3103 1142 2972 
Q 928 2841 928 2578 
Q 928 2378 1081 2264 
Q 1234 2150 1697 2047 
L 1894 2003 
Q 2506 1872 2764 1633 
Q 3022 1394 3022 966 
Q 3022 478 2636 193 
Q 2250 -91 1575 -91 
Q 1294 -91 989 -36 
Q 684 19 347 128 
L 347 722 
Q 666 556 975 473 
Q 1284 391 1588 391 
Q 1994 391 2212 530 
Q 2431 669 2431 922 
Q 2431 1156 2273 1281 
Q 2116 1406 1581 1522 
L 1381 1569 
Q 847 1681 609 1914 
Q 372 2147 372 2553 
Q 372 3047 722 3315 
Q 1072 3584 1716 3584 
Q 2034 3584 2315 3537 
Q 2597 3491 2834 3397 
z
" id="DejaVuSans-73" transform="scale(0.015625)"/>
      <path d="M 1172 4494 
L 1172 3500 
L 2356 3500 
L 2356 3053 
L 1172 3053 
L 1172 1153 
Q 1172 725 1289 603 
Q 1406 481 1766 481 
L 2356 481 
L 2356 0 
L 1766 0 
Q 1100 0 847 248 
Q 594 497 594 1153 
L 594 3053 
L 172 3053 
L 172 3500 
L 594 3500 
L 594 4494 
L 1172 4494 
z
" id="DejaVuSans-74" transform="scale(0.015625)"/>
      <path d="M 628 4666 
L 3578 4666 
L 3578 4134 
L 1259 4134 
L 1259 2753 
L 3481 2753 
L 3481 2222 
L 1259 2222 
L 1259 531 
L 3634 531 
L 3634 0 
L 628 0 
L 628 4666 
z
" id="DejaVuSans-45" transform="scale(0.015625)"/>
     </defs>
     <use xlink:href="#DejaVuSans-57"/>
     <use x="93.001953" xlink:href="#DejaVuSans-65"/>
     <use x="154.525391" xlink:href="#DejaVuSans-73"/>
     <use x="206.625" xlink:href="#DejaVuSans-74"/>
     <use x="245.833984" xlink:href="#DejaVuSans-20"/>
     <use x="277.621094" xlink:href="#DejaVuSans-45"/>
     <use x="340.804688" xlink:href="#DejaVuSans-78"/>
     <use x="399.984375" xlink:href="#DejaVuSans-70"/>
     <use x="463.460938" xlink:href="#DejaVuSans-72"/>
     <use x="502.324219" xlink:href="#DejaVuSans-65"/>
     <use x="563.847656" xlink:href="#DejaVuSans-73"/>
     <use x="615.947266" xlink:href="#DejaVuSans-73"/>
    </g>
   </g>
   <g id="text_3">
    <g id="patch_4">
     <path d="M 28.561453 183.119833 
L 29.232408 193.565181 
L 31.20397 193.438538 
L 30.533015 182.99319 
z
" style="fill:#ffffff;"/>
    </g>
    <!-- Face Chair -->
    <g style="fill:#808080;" transform="translate(28.997776 183.111847)rotate(-273.675335)scale(0.02 -0.02)">
     <defs>
      <path d="M 628 4666 
L 3309 4666 
L 3309 4134 
L 1259 4134 
L 1259 2759 
L 3109 2759 
L 3109 2228 
L 1259 2228 
L 1259 0 
L 628 0 
L 628 4666 
z
" id="DejaVuSans-46" transform="scale(0.015625)"/>
      <path d="M 3122 3366 
L 3122 2828 
Q 2878 2963 2633 3030 
Q 2388 3097 2138 3097 
Q 1578 3097 1268 2742 
Q 959 2388 959 1747 
Q 959 1106 1268 751 
Q 1578 397 2138 397 
Q 2388 397 2633 464 
Q 2878 531 3122 666 
L 3122 134 
Q 2881 22 2623 -34 
Q 2366 -91 2075 -91 
Q 1284 -91 818 406 
Q 353 903 353 1747 
Q 353 2603 823 3093 
Q 1294 3584 2113 3584 
Q 2378 3584 2631 3529 
Q 2884 3475 3122 3366 
z
" id="DejaVuSans-63" transform="scale(0.015625)"/>
     </defs>
     <use xlink:href="#DejaVuSans-46"/>
     <use x="48.394531" xlink:href="#DejaVuSans-61"/>
     <use x="109.673828" xlink:href="#DejaVuSans-63"/>
     <use x="164.654297" xlink:href="#DejaVuSans-65"/>
     <use x="226.177734" xlink:href="#DejaVuSans-20"/>
     <use x="257.964844" xlink:href="#DejaVuSans-43"/>
     <use x="327.789062" xlink:href="#DejaVuSans-68"/>
     <use x="391.167969" xlink:href="#DejaVuSans-61"/>
     <use x="452.447266" xlink:href="#DejaVuSans-69"/>
     <use x="480.230469" xlink:href="#DejaVuSans-72"/>
    </g>
   </g>
   <g id="text_4">
    <g id="patch_5">
     <path d="M 7.292489 82.418495 
L 11.238041 67.78514 
L 9.330536 67.270825 
L 5.384985 81.904179 
z
" style="fill:#ffffff;"/>
    </g>
    <!-- The Cure 30.5° -->
    <g style="fill:#ff0000;" transform="translate(6.87679 82.285696)rotate(-74.910331)scale(0.02 -0.02)">
     <defs>
      <path d="M -19 4666 
L 3928 4666 
L 3928 4134 
L 2272 4134 
L 2272 0 
L 1638 0 
L 1638 4134 
L -19 4134 
L -19 4666 
z
" id="DejaVuSans-54" transform="scale(0.015625)"/>
      <path d="M 544 1381 
L 544 3500 
L 1119 3500 
L 1119 1403 
Q 1119 906 1312 657 
Q 1506 409 1894 409 
Q 2359 409 2629 706 
Q 2900 1003 2900 1516 
L 2900 3500 
L 3475 3500 
L 3475 0 
L 2900 0 
L 2900 538 
Q 2691 219 2414 64 
Q 2138 -91 1772 -91 
Q 1169 -91 856 284 
Q 544 659 544 1381 
z
M 1991 3584 
L 1991 3584 
z
" id="DejaVuSans-75" transform="scale(0.015625)"/>
      <path d="M 2597 2516 
Q 3050 2419 3304 2112 
Q 3559 1806 3559 1356 
Q 3559 666 3084 287 
Q 2609 -91 1734 -91 
Q 1441 -91 1130 -33 
Q 819 25 488 141 
L 488 750 
Q 750 597 1062 519 
Q 1375 441 1716 441 
Q 2309 441 2620 675 
Q 2931 909 2931 1356 
Q 2931 1769 2642 2001 
Q 2353 2234 1838 2234 
L 1294 2234 
L 1294 2753 
L 1863 2753 
Q 2328 2753 2575 2939 
Q 2822 3125 2822 3475 
Q 2822 3834 2567 4026 
Q 2313 4219 1838 4219 
Q 1578 4219 1281 4162 
Q 984 4106 628 3988 
L 628 4550 
Q 988 4650 1302 4700 
Q 1616 4750 1894 4750 
Q 2613 4750 3031 4423 
Q 3450 4097 3450 3541 
Q 3450 3153 3228 2886 
Q 3006 2619 2597 2516 
z
" id="DejaVuSans-33" transform="scale(0.015625)"/>
      <path d="M 2034 4250 
Q 1547 4250 1301 3770 
Q 1056 3291 1056 2328 
Q 1056 1369 1301 889 
Q 1547 409 2034 409 
Q 2525 409 2770 889 
Q 3016 1369 3016 2328 
Q 3016 3291 2770 3770 
Q 2525 4250 2034 4250 
z
M 2034 4750 
Q 2819 4750 3233 4129 
Q 3647 3509 3647 2328 
Q 3647 1150 3233 529 
Q 2819 -91 2034 -91 
Q 1250 -91 836 529 
Q 422 1150 422 2328 
Q 422 3509 836 4129 
Q 1250 4750 2034 4750 
z
" id="DejaVuSans-30" transform="scale(0.015625)"/>
      <path d="M 684 794 
L 1344 794 
L 1344 0 
L 684 0 
L 684 794 
z
" id="DejaVuSans-2e" transform="scale(0.015625)"/>
      <path d="M 691 4666 
L 3169 4666 
L 3169 4134 
L 1269 4134 
L 1269 2991 
Q 1406 3038 1543 3061 
Q 1681 3084 1819 3084 
Q 2600 3084 3056 2656 
Q 3513 2228 3513 1497 
Q 3513 744 3044 326 
Q 2575 -91 1722 -91 
Q 1428 -91 1123 -41 
Q 819 9 494 109 
L 494 744 
Q 775 591 1075 516 
Q 1375 441 1709 441 
Q 2250 441 2565 725 
Q 2881 1009 2881 1497 
Q 2881 1984 2565 2268 
Q 2250 2553 1709 2553 
Q 1456 2553 1204 2497 
Q 953 2441 691 2322 
L 691 4666 
z
" id="DejaVuSans-35" transform="scale(0.015625)"/>
      <path d="M 1600 4347 
Q 1350 4347 1178 4173 
Q 1006 4000 1006 3750 
Q 1006 3503 1178 3333 
Q 1350 3163 1600 3163 
Q 1850 3163 2022 3333 
Q 2194 3503 2194 3750 
Q 2194 3997 2020 4172 
Q 1847 4347 1600 4347 
z
M 1600 4750 
Q 1800 4750 1984 4673 
Q 2169 4597 2303 4453 
Q 2447 4313 2519 4134 
Q 2591 3956 2591 3750 
Q 2591 3338 2302 3052 
Q 2013 2766 1594 2766 
Q 1172 2766 890 3047 
Q 609 3328 609 3750 
Q 609 4169 896 4459 
Q 1184 4750 1600 4750 
z
" id="DejaVuSans-b0" transform="scale(0.015625)"/>
     </defs>
     <use xlink:href="#DejaVuSans-54"/>
     <use x="61.083984" xlink:href="#DejaVuSans-68"/>
     <use x="124.462891" xlink:href="#DejaVuSans-65"/>
     <use x="185.986328" xlink:href="#DejaVuSans-20"/>
     <use x="217.773438" xlink:href="#DejaVuSans-43"/>
     <use x="287.597656" xlink:href="#DejaVuSans-75"/>
     <use x="350.976562" xlink:href="#DejaVuSans-72"/>
     <use x="389.839844" xlink:href="#DejaVuSans-65"/>
     <use x="451.363281" xlink:href="#DejaVuSans-20"/>
     <use x="483.150391" xlink:href="#DejaVuSans-33"/>
     <use x="546.773438" xlink:href="#DejaVuSans-30"/>
     <use x="610.396484" xlink:href="#DejaVuSans-2e"/>
     <use x="642.183594" xlink:href="#DejaVuSans-35"/>
     <use x="705.806641" xlink:href="#DejaVuSans-b0"/>
    </g>
   </g>
   <g id="text_5">
    <g id="patch_6">
     <path d="M 25.281611 100.725394 
L 29.5085 81.011256 
L 27.576778 80.597077 
L 23.349889 100.311215 
z
" style="fill:#ffffff;"/>
    </g>
    <!-- Holy Mackerel 21.7° -->
    <g style="fill:#4169e1;" transform="translate(24.859554 100.614446)rotate(-77.898487)scale(0.02 -0.02)">
     <defs>
      <path d="M 628 4666 
L 1259 4666 
L 1259 2753 
L 3553 2753 
L 3553 4666 
L 4184 4666 
L 4184 0 
L 3553 0 
L 3553 2222 
L 1259 2222 
L 1259 0 
L 628 0 
L 628 4666 
z
" id="DejaVuSans-48" transform="scale(0.015625)"/>
      <path d="M 1959 3097 
Q 1497 3097 1228 2736 
Q 959 2375 959 1747 
Q 959 1119 1226 758 
Q 1494 397 1959 397 
Q 2419 397 2687 759 
Q 2956 1122 2956 1747 
Q 2956 2369 2687 2733 
Q 2419 3097 1959 3097 
z
M 1959 3584 
Q 2709 3584 3137 3096 
Q 3566 2609 3566 1747 
Q 3566 888 3137 398 
Q 2709 -91 1959 -91 
Q 1206 -91 779 398 
Q 353 888 353 1747 
Q 353 2609 779 3096 
Q 1206 3584 1959 3584 
z
" id="DejaVuSans-6f" transform="scale(0.015625)"/>
      <path d="M 603 4863 
L 1178 4863 
L 1178 0 
L 603 0 
L 603 4863 
z
" id="DejaVuSans-6c" transform="scale(0.015625)"/>
      <path d="M 2059 -325 
Q 1816 -950 1584 -1140 
Q 1353 -1331 966 -1331 
L 506 -1331 
L 506 -850 
L 844 -850 
Q 1081 -850 1212 -737 
Q 1344 -625 1503 -206 
L 1606 56 
L 191 3500 
L 800 3500 
L 1894 763 
L 2988 3500 
L 3597 3500 
L 2059 -325 
z
" id="DejaVuSans-79" transform="scale(0.015625)"/>
      <path d="M 628 4666 
L 1569 4666 
L 2759 1491 
L 3956 4666 
L 4897 4666 
L 4897 0 
L 4281 0 
L 4281 4097 
L 3078 897 
L 2444 897 
L 1241 4097 
L 1241 0 
L 628 0 
L 628 4666 
z
" id="DejaVuSans-4d" transform="scale(0.015625)"/>
      <path d="M 581 4863 
L 1159 4863 
L 1159 1991 
L 2875 3500 
L 3609 3500 
L 1753 1863 
L 3688 0 
L 2938 0 
L 1159 1709 
L 1159 0 
L 581 0 
L 581 4863 
z
" id="DejaVuSans-6b" transform="scale(0.015625)"/>
      <path d="M 1228 531 
L 3431 531 
L 3431 0 
L 469 0 
L 469 531 
Q 828 903 1448 1529 
Q 2069 2156 2228 2338 
Q 2531 2678 2651 2914 
Q 2772 3150 2772 3378 
Q 2772 3750 2511 3984 
Q 2250 4219 1831 4219 
Q 1534 4219 1204 4116 
Q 875 4013 500 3803 
L 500 4441 
Q 881 4594 1212 4672 
Q 1544 4750 1819 4750 
Q 2544 4750 2975 4387 
Q 3406 4025 3406 3419 
Q 3406 3131 3298 2873 
Q 3191 2616 2906 2266 
Q 2828 2175 2409 1742 
Q 1991 1309 1228 531 
z
" id="DejaVuSans-32" transform="scale(0.015625)"/>
      <path d="M 794 531 
L 1825 531 
L 1825 4091 
L 703 3866 
L 703 4441 
L 1819 4666 
L 2450 4666 
L 2450 531 
L 3481 531 
L 3481 0 
L 794 0 
L 794 531 
z
" id="DejaVuSans-31" transform="scale(0.015625)"/>
      <path d="M 525 4666 
L 3525 4666 
L 3525 4397 
L 1831 0 
L 1172 0 
L 2766 4134 
L 525 4134 
L 525 4666 
z
" id="DejaVuSans-37" transform="scale(0.015625)"/>
     </defs>
     <use xlink:href="#DejaVuSans-48"/>
     <use x="75.195312" xlink:href="#DejaVuSans-6f"/>
     <use x="136.376953" xlink:href="#DejaVuSans-6c"/>
     <use x="164.160156" xlink:href="#DejaVuSans-79"/>
     <use x="223.339844" xlink:href="#DejaVuSans-20"/>
     <use x="255.126953" xlink:href="#DejaVuSans-4d"/>
     <use x="341.40625" xlink:href="#DejaVuSans-61"/>
     <use x="402.685547" xlink:href="#DejaVuSans-63"/>
     <use x="457.666016" xlink:href="#DejaVuSans-6b"/>
     <use x="511.951172" xlink:href="#DejaVuSans-65"/>
     <use x="573.474609" xlink:href="#DejaVuSans-72"/>
     <use x="612.337891" xlink:href="#DejaVuSans-65"/>
     <use x="673.861328" xlink:href="#DejaVuSans-6c"/>
     <use x="701.644531" xlink:href="#DejaVuSans-20"/>
     <use x="733.431641" xlink:href="#DejaVuSans-32"/>
     <use x="797.054688" xlink:href="#DejaVuSans-31"/>
     <use x="860.677734" xlink:href="#DejaVuSans-2e"/>
     <use x="892.464844" xlink:href="#DejaVuSans-37"/>
     <use x="956.087891" xlink:href="#DejaVuSans-b0"/>
    </g>
   </g>
   <g id="text_6">
    <g id="patch_7">
     <path d="M 46.248043 68.196675 
L 50.02606 57.498222 
L 48.163179 56.84037 
L 44.385162 67.538823 
z
" style="fill:#ffffff;"/>
    </g>
    <!-- Frolic 19.8° -->
    <g style="fill:#4169e1;" transform="translate(45.843643 68.032656)rotate(-70.550005)scale(0.02 -0.02)">
     <defs>
      <path d="M 703 97 
L 703 672 
Q 941 559 1184 500 
Q 1428 441 1663 441 
Q 2288 441 2617 861 
Q 2947 1281 2994 2138 
Q 2813 1869 2534 1725 
Q 2256 1581 1919 1581 
Q 1219 1581 811 2004 
Q 403 2428 403 3163 
Q 403 3881 828 4315 
Q 1253 4750 1959 4750 
Q 2769 4750 3195 4129 
Q 3622 3509 3622 2328 
Q 3622 1225 3098 567 
Q 2575 -91 1691 -91 
Q 1453 -91 1209 -44 
Q 966 3 703 97 
z
M 1959 2075 
Q 2384 2075 2632 2365 
Q 2881 2656 2881 3163 
Q 2881 3666 2632 3958 
Q 2384 4250 1959 4250 
Q 1534 4250 1286 3958 
Q 1038 3666 1038 3163 
Q 1038 2656 1286 2365 
Q 1534 2075 1959 2075 
z
" id="DejaVuSans-39" transform="scale(0.015625)"/>
      <path d="M 2034 2216 
Q 1584 2216 1326 1975 
Q 1069 1734 1069 1313 
Q 1069 891 1326 650 
Q 1584 409 2034 409 
Q 2484 409 2743 651 
Q 3003 894 3003 1313 
Q 3003 1734 2745 1975 
Q 2488 2216 2034 2216 
z
M 1403 2484 
Q 997 2584 770 2862 
Q 544 3141 544 3541 
Q 544 4100 942 4425 
Q 1341 4750 2034 4750 
Q 2731 4750 3128 4425 
Q 3525 4100 3525 3541 
Q 3525 3141 3298 2862 
Q 3072 2584 2669 2484 
Q 3125 2378 3379 2068 
Q 3634 1759 3634 1313 
Q 3634 634 3220 271 
Q 2806 -91 2034 -91 
Q 1263 -91 848 271 
Q 434 634 434 1313 
Q 434 1759 690 2068 
Q 947 2378 1403 2484 
z
M 1172 3481 
Q 1172 3119 1398 2916 
Q 1625 2713 2034 2713 
Q 2441 2713 2670 2916 
Q 2900 3119 2900 3481 
Q 2900 3844 2670 4047 
Q 2441 4250 2034 4250 
Q 1625 4250 1398 4047 
Q 1172 3844 1172 3481 
z
" id="DejaVuSans-38" transform="scale(0.015625)"/>
     </defs>
     <use xlink:href="#DejaVuSans-46"/>
     <use x="50.269531" xlink:href="#DejaVuSans-72"/>
     <use x="89.132812" xlink:href="#DejaVuSans-6f"/>
     <use x="150.314453" xlink:href="#DejaVuSans-6c"/>
     <use x="178.097656" xlink:href="#DejaVuSans-69"/>
     <use x="205.880859" xlink:href="#DejaVuSans-63"/>
     <use x="260.861328" xlink:href="#DejaVuSans-20"/>
     <use x="292.648438" xlink:href="#DejaVuSans-31"/>
     <use x="356.271484" xlink:href="#DejaVuSans-39"/>
     <use x="419.894531" xlink:href="#DejaVuSans-2e"/>
     <use x="451.681641" xlink:href="#DejaVuSans-38"/>
     <use x="515.304688" xlink:href="#DejaVuSans-b0"/>
    </g>
   </g>
   <g id="text_7">
    <g id="patch_8">
     <path d="M 34.279507 116.91191 
L 34.357631 101.918364 
L 32.382033 101.90807 
L 32.303909 116.901616 
z
" style="fill:#ffffff;"/>
    </g>
    <!-- Slip Thru 19.0° -->
    <g style="fill:#4169e1;" transform="translate(33.84368 116.889639)rotate(-89.701463)scale(0.02 -0.02)">
     <defs>
      <path d="M 3425 4513 
L 3425 3897 
Q 3066 4069 2747 4153 
Q 2428 4238 2131 4238 
Q 1616 4238 1336 4038 
Q 1056 3838 1056 3469 
Q 1056 3159 1242 3001 
Q 1428 2844 1947 2747 
L 2328 2669 
Q 3034 2534 3370 2195 
Q 3706 1856 3706 1288 
Q 3706 609 3251 259 
Q 2797 -91 1919 -91 
Q 1588 -91 1214 -16 
Q 841 59 441 206 
L 441 856 
Q 825 641 1194 531 
Q 1563 422 1919 422 
Q 2459 422 2753 634 
Q 3047 847 3047 1241 
Q 3047 1584 2836 1778 
Q 2625 1972 2144 2069 
L 1759 2144 
Q 1053 2284 737 2584 
Q 422 2884 422 3419 
Q 422 4038 858 4394 
Q 1294 4750 2059 4750 
Q 2388 4750 2728 4690 
Q 3069 4631 3425 4513 
z
" id="DejaVuSans-53" transform="scale(0.015625)"/>
     </defs>
     <use xlink:href="#DejaVuSans-53"/>
     <use x="63.476562" xlink:href="#DejaVuSans-6c"/>
     <use x="91.259766" xlink:href="#DejaVuSans-69"/>
     <use x="119.042969" xlink:href="#DejaVuSans-70"/>
     <use x="182.519531" xlink:href="#DejaVuSans-20"/>
     <use x="214.306641" xlink:href="#DejaVuSans-54"/>
     <use x="275.390625" xlink:href="#DejaVuSans-68"/>
     <use x="338.769531" xlink:href="#DejaVuSans-72"/>
     <use x="379.882812" xlink:href="#DejaVuSans-75"/>
     <use x="443.261719" xlink:href="#DejaVuSans-20"/>
     <use x="475.048828" xlink:href="#DejaVuSans-31"/>
     <use x="538.671875" xlink:href="#DejaVuSans-39"/>
     <use x="602.294922" xlink:href="#DejaVuSans-2e"/>
     <use x="634.082031" xlink:href="#DejaVuSans-30"/>
     <use x="697.705078" xlink:href="#DejaVuSans-b0"/>
    </g>
   </g>
   <g id="text_8">
    <g id="patch_9">
     <path d="M 61.343712 45.393644 
L 76.988708 25.636295 
L 75.439871 24.409837 
L 59.794875 44.167186 
z
" style="fill:#ffffff;"/>
    </g>
    <!-- Northwest Passage 13.8° -->
    <g style="fill:#008000;" transform="translate(61.014364 45.107337)rotate(-51.625809)scale(0.02 -0.02)">
     <defs>
      <path d="M 628 4666 
L 1478 4666 
L 3547 763 
L 3547 4666 
L 4159 4666 
L 4159 0 
L 3309 0 
L 1241 3903 
L 1241 0 
L 628 0 
L 628 4666 
z
" id="DejaVuSans-4e" transform="scale(0.015625)"/>
      <path d="M 269 3500 
L 844 3500 
L 1563 769 
L 2278 3500 
L 2956 3500 
L 3675 769 
L 4391 3500 
L 4966 3500 
L 4050 0 
L 3372 0 
L 2619 2869 
L 1863 0 
L 1184 0 
L 269 3500 
z
" id="DejaVuSans-77" transform="scale(0.015625)"/>
      <path d="M 1259 4147 
L 1259 2394 
L 2053 2394 
Q 2494 2394 2734 2622 
Q 2975 2850 2975 3272 
Q 2975 3691 2734 3919 
Q 2494 4147 2053 4147 
L 1259 4147 
z
M 628 4666 
L 2053 4666 
Q 2838 4666 3239 4311 
Q 3641 3956 3641 3272 
Q 3641 2581 3239 2228 
Q 2838 1875 2053 1875 
L 1259 1875 
L 1259 0 
L 628 0 
L 628 4666 
z
" id="DejaVuSans-50" transform="scale(0.015625)"/>
      <path d="M 2906 1791 
Q 2906 2416 2648 2759 
Q 2391 3103 1925 3103 
Q 1463 3103 1205 2759 
Q 947 2416 947 1791 
Q 947 1169 1205 825 
Q 1463 481 1925 481 
Q 2391 481 2648 825 
Q 2906 1169 2906 1791 
z
M 3481 434 
Q 3481 -459 3084 -895 
Q 2688 -1331 1869 -1331 
Q 1566 -1331 1297 -1286 
Q 1028 -1241 775 -1147 
L 775 -588 
Q 1028 -725 1275 -790 
Q 1522 -856 1778 -856 
Q 2344 -856 2625 -561 
Q 2906 -266 2906 331 
L 2906 616 
Q 2728 306 2450 153 
Q 2172 0 1784 0 
Q 1141 0 747 490 
Q 353 981 353 1791 
Q 353 2603 747 3093 
Q 1141 3584 1784 3584 
Q 2172 3584 2450 3431 
Q 2728 3278 2906 2969 
L 2906 3500 
L 3481 3500 
L 3481 434 
z
" id="DejaVuSans-67" transform="scale(0.015625)"/>
     </defs>
     <use xlink:href="#DejaVuSans-4e"/>
     <use x="74.804688" xlink:href="#DejaVuSans-6f"/>
     <use x="135.986328" xlink:href="#DejaVuSans-72"/>
     <use x="177.099609" xlink:href="#DejaVuSans-74"/>
     <use x="216.308594" xlink:href="#DejaVuSans-68"/>
     <use x="279.6875" xlink:href="#DejaVuSans-77"/>
     <use x="361.474609" xlink:href="#DejaVuSans-65"/>
     <use x="422.998047" xlink:href="#DejaVuSans-73"/>
     <use x="475.097656" xlink:href="#DejaVuSans-74"/>
     <use x="514.306641" xlink:href="#DejaVuSans-20"/>
     <use x="546.09375" xlink:href="#DejaVuSans-50"/>
     <use x="601.896484" xlink:href="#DejaVuSans-61"/>
     <use x="663.175781" xlink:href="#DejaVuSans-73"/>
     <use x="715.275391" xlink:href="#DejaVuSans-73"/>
     <use x="767.375" xlink:href="#DejaVuSans-61"/>
     <use x="828.654297" xlink:href="#DejaVuSans-67"/>
     <use x="892.130859" xlink:href="#DejaVuSans-65"/>
     <use x="953.654297" xlink:href="#DejaVuSans-20"/>
     <use x="985.441406" xlink:href="#DejaVuSans-31"/>
     <use x="1049.064453" xlink:href="#DejaVuSans-33"/>
     <use x="1112.6875" xlink:href="#DejaVuSans-2e"/>
     <use x="1144.474609" xlink:href="#DejaVuSans-38"/>
     <use x="1208.097656" xlink:href="#DejaVuSans-b0"/>
    </g>
   </g>
   <g id="text_9">
    <g id="patch_10">
     <path d="M 53.704447 64.021771 
L 54.211109 75.03262 
L 56.184645 74.941809 
L 55.677983 63.930959 
z
" style="fill:#ffffff;"/>
    </g>
    <!-- Alley 19.2° -->
    <g style="fill:#4169e1;" transform="translate(54.140843 64.021712)rotate(-272.634595)scale(0.02 -0.02)">
     <use xlink:href="#DejaVuSans-41"/>
     <use x="68.408203" xlink:href="#DejaVuSans-6c"/>
     <use x="96.191406" xlink:href="#DejaVuSans-6c"/>
     <use x="123.974609" xlink:href="#DejaVuSans-65"/>
     <use x="185.498047" xlink:href="#DejaVuSans-79"/>
     <use x="244.677734" xlink:href="#DejaVuSans-20"/>
     <use x="276.464844" xlink:href="#DejaVuSans-31"/>
     <use x="340.087891" xlink:href="#DejaVuSans-39"/>
     <use x="403.710938" xlink:href="#DejaVuSans-2e"/>
     <use x="435.498047" xlink:href="#DejaVuSans-32"/>
     <use x="499.121094" xlink:href="#DejaVuSans-b0"/>
    </g>
   </g>
   <g id="text_10">
    <g id="patch_11">
     <path d="M 75.444972 123.516722 
L 82.799685 135.929941 
L 84.499374 134.922891 
L 77.144661 122.509672 
z
" style="fill:#ffffff;"/>
    </g>
    <!-- Banister 17.4° -->
    <g style="fill:#4169e1;" transform="translate(75.830216 123.311715)rotate(-300.646334)scale(0.02 -0.02)">
     <defs>
      <path d="M 1259 2228 
L 1259 519 
L 2272 519 
Q 2781 519 3026 730 
Q 3272 941 3272 1375 
Q 3272 1813 3026 2020 
Q 2781 2228 2272 2228 
L 1259 2228 
z
M 1259 4147 
L 1259 2741 
L 2194 2741 
Q 2656 2741 2882 2914 
Q 3109 3088 3109 3444 
Q 3109 3797 2882 3972 
Q 2656 4147 2194 4147 
L 1259 4147 
z
M 628 4666 
L 2241 4666 
Q 2963 4666 3353 4366 
Q 3744 4066 3744 3513 
Q 3744 3084 3544 2831 
Q 3344 2578 2956 2516 
Q 3422 2416 3680 2098 
Q 3938 1781 3938 1306 
Q 3938 681 3513 340 
Q 3088 0 2303 0 
L 628 0 
L 628 4666 
z
" id="DejaVuSans-42" transform="scale(0.015625)"/>
      <path d="M 3513 2113 
L 3513 0 
L 2938 0 
L 2938 2094 
Q 2938 2591 2744 2837 
Q 2550 3084 2163 3084 
Q 1697 3084 1428 2787 
Q 1159 2491 1159 1978 
L 1159 0 
L 581 0 
L 581 3500 
L 1159 3500 
L 1159 2956 
Q 1366 3272 1645 3428 
Q 1925 3584 2291 3584 
Q 2894 3584 3203 3211 
Q 3513 2838 3513 2113 
z
" id="DejaVuSans-6e" transform="scale(0.015625)"/>
      <path d="M 2419 4116 
L 825 1625 
L 2419 1625 
L 2419 4116 
z
M 2253 4666 
L 3047 4666 
L 3047 1625 
L 3713 1625 
L 3713 1100 
L 3047 1100 
L 3047 0 
L 2419 0 
L 2419 1100 
L 313 1100 
L 313 1709 
L 2253 4666 
z
" id="DejaVuSans-34" transform="scale(0.015625)"/>
     </defs>
     <use xlink:href="#DejaVuSans-42"/>
     <use x="68.603516" xlink:href="#DejaVuSans-61"/>
     <use x="129.882812" xlink:href="#DejaVuSans-6e"/>
     <use x="193.261719" xlink:href="#DejaVuSans-69"/>
     <use x="221.044922" xlink:href="#DejaVuSans-73"/>
     <use x="273.144531" xlink:href="#DejaVuSans-74"/>
     <use x="312.353516" xlink:href="#DejaVuSans-65"/>
     <use x="373.876953" xlink:href="#DejaVuSans-72"/>
     <use x="414.990234" xlink:href="#DejaVuSans-20"/>
     <use x="446.777344" xlink:href="#DejaVuSans-31"/>
     <use x="510.400391" xlink:href="#DejaVuSans-37"/>
     <use x="574.023438" xlink:href="#DejaVuSans-2e"/>
     <use x="605.810547" xlink:href="#DejaVuSans-34"/>
     <use x="669.433594" xlink:href="#DejaVuSans-b0"/>
    </g>
   </g>
   <g id="text_11">
    <g id="patch_12">
     <path d="M 58.730481 140.499341 
L 67.683352 127.301281 
L 66.0484 126.192216 
L 57.095529 139.390276 
z
" style="fill:#ffffff;"/>
    </g>
    <!-- Inchworm 12.6° -->
    <g style="fill:#008000;" transform="translate(58.380944 140.238066)rotate(-55.849092)scale(0.02 -0.02)">
     <defs>
      <path d="M 628 4666 
L 1259 4666 
L 1259 0 
L 628 0 
L 628 4666 
z
" id="DejaVuSans-49" transform="scale(0.015625)"/>
      <path d="M 3328 2828 
Q 3544 3216 3844 3400 
Q 4144 3584 4550 3584 
Q 5097 3584 5394 3201 
Q 5691 2819 5691 2113 
L 5691 0 
L 5113 0 
L 5113 2094 
Q 5113 2597 4934 2840 
Q 4756 3084 4391 3084 
Q 3944 3084 3684 2787 
Q 3425 2491 3425 1978 
L 3425 0 
L 2847 0 
L 2847 2094 
Q 2847 2600 2669 2842 
Q 2491 3084 2119 3084 
Q 1678 3084 1418 2786 
Q 1159 2488 1159 1978 
L 1159 0 
L 581 0 
L 581 3500 
L 1159 3500 
L 1159 2956 
Q 1356 3278 1631 3431 
Q 1906 3584 2284 3584 
Q 2666 3584 2933 3390 
Q 3200 3197 3328 2828 
z
" id="DejaVuSans-6d" transform="scale(0.015625)"/>
      <path d="M 2113 2584 
Q 1688 2584 1439 2293 
Q 1191 2003 1191 1497 
Q 1191 994 1439 701 
Q 1688 409 2113 409 
Q 2538 409 2786 701 
Q 3034 994 3034 1497 
Q 3034 2003 2786 2293 
Q 2538 2584 2113 2584 
z
M 3366 4563 
L 3366 3988 
Q 3128 4100 2886 4159 
Q 2644 4219 2406 4219 
Q 1781 4219 1451 3797 
Q 1122 3375 1075 2522 
Q 1259 2794 1537 2939 
Q 1816 3084 2150 3084 
Q 2853 3084 3261 2657 
Q 3669 2231 3669 1497 
Q 3669 778 3244 343 
Q 2819 -91 2113 -91 
Q 1303 -91 875 529 
Q 447 1150 447 2328 
Q 447 3434 972 4092 
Q 1497 4750 2381 4750 
Q 2619 4750 2861 4703 
Q 3103 4656 3366 4563 
z
" id="DejaVuSans-36" transform="scale(0.015625)"/>
     </defs>
     <use xlink:href="#DejaVuSans-49"/>
     <use x="29.492188" xlink:href="#DejaVuSans-6e"/>
     <use x="92.871094" xlink:href="#DejaVuSans-63"/>
     <use x="147.851562" xlink:href="#DejaVuSans-68"/>
     <use x="211.230469" xlink:href="#DejaVuSans-77"/>
     <use x="293.017578" xlink:href="#DejaVuSans-6f"/>
     <use x="354.199219" xlink:href="#DejaVuSans-72"/>
     <use x="393.5625" xlink:href="#DejaVuSans-6d"/>
     <use x="490.974609" xlink:href="#DejaVuSans-20"/>
     <use x="522.761719" xlink:href="#DejaVuSans-31"/>
     <use x="586.384766" xlink:href="#DejaVuSans-32"/>
     <use x="650.007812" xlink:href="#DejaVuSans-2e"/>
     <use x="681.794922" xlink:href="#DejaVuSans-36"/>
     <use x="745.417969" xlink:href="#DejaVuSans-b0"/>
    </g>
   </g>
   <g id="text_12">
    <g id="patch_13">
     <path d="M 51.785806 148.95111 
L 51.823688 166.882007 
L 53.799309 166.877833 
L 53.761426 148.946936 
z
" style="fill:#ffffff;"/>
    </g>
    <!-- Brandt Pass 19.3° -->
    <g style="fill:#4169e1;" transform="translate(52.221785 148.970189)rotate(-270.121047)scale(0.02 -0.02)">
     <defs>
      <path d="M 2906 2969 
L 2906 4863 
L 3481 4863 
L 3481 0 
L 2906 0 
L 2906 525 
Q 2725 213 2448 61 
Q 2172 -91 1784 -91 
Q 1150 -91 751 415 
Q 353 922 353 1747 
Q 353 2572 751 3078 
Q 1150 3584 1784 3584 
Q 2172 3584 2448 3432 
Q 2725 3281 2906 2969 
z
M 947 1747 
Q 947 1113 1208 752 
Q 1469 391 1925 391 
Q 2381 391 2643 752 
Q 2906 1113 2906 1747 
Q 2906 2381 2643 2742 
Q 2381 3103 1925 3103 
Q 1469 3103 1208 2742 
Q 947 2381 947 1747 
z
" id="DejaVuSans-64" transform="scale(0.015625)"/>
     </defs>
     <use xlink:href="#DejaVuSans-42"/>
     <use x="68.603516" xlink:href="#DejaVuSans-72"/>
     <use x="109.716797" xlink:href="#DejaVuSans-61"/>
     <use x="170.996094" xlink:href="#DejaVuSans-6e"/>
     <use x="234.375" xlink:href="#DejaVuSans-64"/>
     <use x="297.851562" xlink:href="#DejaVuSans-74"/>
     <use x="337.060547" xlink:href="#DejaVuSans-20"/>
     <use x="368.847656" xlink:href="#DejaVuSans-50"/>
     <use x="424.650391" xlink:href="#DejaVuSans-61"/>
     <use x="485.929688" xlink:href="#DejaVuSans-73"/>
     <use x="538.029297" xlink:href="#DejaVuSans-73"/>
     <use x="590.128906" xlink:href="#DejaVuSans-20"/>
     <use x="621.916016" xlink:href="#DejaVuSans-31"/>
     <use x="685.539062" xlink:href="#DejaVuSans-39"/>
     <use x="749.162109" xlink:href="#DejaVuSans-2e"/>
     <use x="780.949219" xlink:href="#DejaVuSans-33"/>
     <use x="844.572266" xlink:href="#DejaVuSans-b0"/>
    </g>
   </g>
   <g id="text_13">
    <g id="patch_14">
     <path d="M 23.525325 157.868683 
L 24.819568 174.005615 
L 26.788869 173.847669 
L 25.494627 157.710738 
z
" style="fill:#ffffff;"/>
    </g>
    <!-- Race Face 18.2° -->
    <g style="fill:#4169e1;" transform="translate(23.961466 157.853767)rotate(-274.585522)scale(0.02 -0.02)">
     <defs>
      <path d="M 2841 2188 
Q 3044 2119 3236 1894 
Q 3428 1669 3622 1275 
L 4263 0 
L 3584 0 
L 2988 1197 
Q 2756 1666 2539 1819 
Q 2322 1972 1947 1972 
L 1259 1972 
L 1259 0 
L 628 0 
L 628 4666 
L 2053 4666 
Q 2853 4666 3247 4331 
Q 3641 3997 3641 3322 
Q 3641 2881 3436 2590 
Q 3231 2300 2841 2188 
z
M 1259 4147 
L 1259 2491 
L 2053 2491 
Q 2509 2491 2742 2702 
Q 2975 2913 2975 3322 
Q 2975 3731 2742 3939 
Q 2509 4147 2053 4147 
L 1259 4147 
z
" id="DejaVuSans-52" transform="scale(0.015625)"/>
     </defs>
     <use xlink:href="#DejaVuSans-52"/>
     <use x="67.232422" xlink:href="#DejaVuSans-61"/>
     <use x="128.511719" xlink:href="#DejaVuSans-63"/>
     <use x="183.492188" xlink:href="#DejaVuSans-65"/>
     <use x="245.015625" xlink:href="#DejaVuSans-20"/>
     <use x="276.802734" xlink:href="#DejaVuSans-46"/>
     <use x="325.197266" xlink:href="#DejaVuSans-61"/>
     <use x="386.476562" xlink:href="#DejaVuSans-63"/>
     <use x="441.457031" xlink:href="#DejaVuSans-65"/>
     <use x="502.980469" xlink:href="#DejaVuSans-20"/>
     <use x="534.767578" xlink:href="#DejaVuSans-31"/>
     <use x="598.390625" xlink:href="#DejaVuSans-38"/>
     <use x="662.013672" xlink:href="#DejaVuSans-2e"/>
     <use x="693.800781" xlink:href="#DejaVuSans-32"/>
     <use x="757.423828" xlink:href="#DejaVuSans-b0"/>
    </g>
   </g>
   <g id="text_14">
    <g id="patch_15">
     <path d="M 60.108886 59.663969 
L 63.89163 70.468086 
L 65.75627 69.815237 
L 61.973526 59.01112 
z
" style="fill:#ffffff;"/>
    </g>
    <!-- Mach 23.5° -->
    <g style="fill:#4169e1;" transform="translate(60.526943 59.538789)rotate(-289.296199)scale(0.02 -0.02)">
     <use xlink:href="#DejaVuSans-4d"/>
     <use x="86.279297" xlink:href="#DejaVuSans-61"/>
     <use x="147.558594" xlink:href="#DejaVuSans-63"/>
     <use x="202.539062" xlink:href="#DejaVuSans-68"/>
     <use x="265.917969" xlink:href="#DejaVuSans-20"/>
     <use x="297.705078" xlink:href="#DejaVuSans-32"/>
     <use x="361.328125" xlink:href="#DejaVuSans-33"/>
     <use x="424.951172" xlink:href="#DejaVuSans-2e"/>
     <use x="456.738281" xlink:href="#DejaVuSans-35"/>
     <use x="520.361328" xlink:href="#DejaVuSans-b0"/>
    </g>
   </g>
   <g id="text_15">
    <g id="patch_16">
     <path d="M 69.962902 97.017499 
L 70.511158 84.522334 
L 68.537432 84.435732 
L 67.989176 96.930897 
z
" style="fill:#ffffff;"/>
    </g>
    <!-- Go-Go 22.1° -->
    <g style="fill:#4169e1;" transform="translate(69.52826 96.978409)rotate(-87.487617)scale(0.02 -0.02)">
     <defs>
      <path d="M 3809 666 
L 3809 1919 
L 2778 1919 
L 2778 2438 
L 4434 2438 
L 4434 434 
Q 4069 175 3628 42 
Q 3188 -91 2688 -91 
Q 1594 -91 976 548 
Q 359 1188 359 2328 
Q 359 3472 976 4111 
Q 1594 4750 2688 4750 
Q 3144 4750 3555 4637 
Q 3966 4525 4313 4306 
L 4313 3634 
Q 3963 3931 3569 4081 
Q 3175 4231 2741 4231 
Q 1884 4231 1454 3753 
Q 1025 3275 1025 2328 
Q 1025 1384 1454 906 
Q 1884 428 2741 428 
Q 3075 428 3337 486 
Q 3600 544 3809 666 
z
" id="DejaVuSans-47" transform="scale(0.015625)"/>
      <path d="M 313 2009 
L 1997 2009 
L 1997 1497 
L 313 1497 
L 313 2009 
z
" id="DejaVuSans-2d" transform="scale(0.015625)"/>
     </defs>
     <use xlink:href="#DejaVuSans-47"/>
     <use x="77.490234" xlink:href="#DejaVuSans-6f"/>
     <use x="140.546875" xlink:href="#DejaVuSans-2d"/>
     <use x="180.255859" xlink:href="#DejaVuSans-47"/>
     <use x="257.746094" xlink:href="#DejaVuSans-6f"/>
     <use x="318.927734" xlink:href="#DejaVuSans-20"/>
     <use x="350.714844" xlink:href="#DejaVuSans-32"/>
     <use x="414.337891" xlink:href="#DejaVuSans-32"/>
     <use x="477.960938" xlink:href="#DejaVuSans-2e"/>
     <use x="509.748047" xlink:href="#DejaVuSans-31"/>
     <use x="573.371094" xlink:href="#DejaVuSans-b0"/>
    </g>
   </g>
   <g id="text_16">
    <g id="patch_17">
     <path d="M 98.721775 68.846754 
L 102.942902 81.9062 
L 104.822768 81.298582 
L 100.601641 68.239136 
z
" style="fill:#ffffff;"/>
    </g>
    <!-- Midway 22.0° -->
    <g style="fill:#4169e1;" transform="translate(99.142734 68.731709)rotate(-287.912081)scale(0.02 -0.02)">
     <use xlink:href="#DejaVuSans-4d"/>
     <use x="86.279297" xlink:href="#DejaVuSans-69"/>
     <use x="114.0625" xlink:href="#DejaVuSans-64"/>
     <use x="177.539062" xlink:href="#DejaVuSans-77"/>
     <use x="259.326172" xlink:href="#DejaVuSans-61"/>
     <use x="320.605469" xlink:href="#DejaVuSans-79"/>
     <use x="379.785156" xlink:href="#DejaVuSans-20"/>
     <use x="411.572266" xlink:href="#DejaVuSans-32"/>
     <use x="475.195312" xlink:href="#DejaVuSans-32"/>
     <use x="538.818359" xlink:href="#DejaVuSans-2e"/>
     <use x="570.605469" xlink:href="#DejaVuSans-30"/>
     <use x="634.228516" xlink:href="#DejaVuSans-b0"/>
    </g>
   </g>
   <g id="text_17">
    <g id="patch_18">
     <path d="M 85.898668 24.069422 
L 95.367788 30.762274 
L 96.508095 29.148956 
L 87.038974 22.456104 
z
" style="fill:#ffffff;"/>
    </g>
    <!-- A.O.A 22.7° -->
    <g style="fill:#4169e1;" transform="translate(86.166618 23.724974)rotate(-324.747014)scale(0.02 -0.02)">
     <defs>
      <path d="M 2522 4238 
Q 1834 4238 1429 3725 
Q 1025 3213 1025 2328 
Q 1025 1447 1429 934 
Q 1834 422 2522 422 
Q 3209 422 3611 934 
Q 4013 1447 4013 2328 
Q 4013 3213 3611 3725 
Q 3209 4238 2522 4238 
z
M 2522 4750 
Q 3503 4750 4090 4092 
Q 4678 3434 4678 2328 
Q 4678 1225 4090 567 
Q 3503 -91 2522 -91 
Q 1538 -91 948 565 
Q 359 1222 359 2328 
Q 359 3434 948 4092 
Q 1538 4750 2522 4750 
z
" id="DejaVuSans-4f" transform="scale(0.015625)"/>
     </defs>
     <use xlink:href="#DejaVuSans-41"/>
     <use x="66.658203" xlink:href="#DejaVuSans-2e"/>
     <use x="98.445312" xlink:href="#DejaVuSans-4f"/>
     <use x="173.15625" xlink:href="#DejaVuSans-2e"/>
     <use x="204.943359" xlink:href="#DejaVuSans-41"/>
     <use x="273.351562" xlink:href="#DejaVuSans-20"/>
     <use x="305.138672" xlink:href="#DejaVuSans-32"/>
     <use x="368.761719" xlink:href="#DejaVuSans-32"/>
     <use x="432.384766" xlink:href="#DejaVuSans-2e"/>
     <use x="464.171875" xlink:href="#DejaVuSans-37"/>
     <use x="527.794922" xlink:href="#DejaVuSans-b0"/>
    </g>
   </g>
   <g id="text_18">
    <g id="patch_19">
     <path d="M 24.63947 121.241778 
L 25.890485 137.008474 
L 27.859921 136.852209 
L 26.608905 121.085512 
z
" style="fill:#ffffff;"/>
    </g>
    <!-- Gnar Wall 25.7° -->
    <g transform="translate(25.075623 121.227234)rotate(-274.536655)scale(0.02 -0.02)">
     <use xlink:href="#DejaVuSans-47"/>
     <use x="77.490234" xlink:href="#DejaVuSans-6e"/>
     <use x="140.869141" xlink:href="#DejaVuSans-61"/>
     <use x="202.148438" xlink:href="#DejaVuSans-72"/>
     <use x="243.261719" xlink:href="#DejaVuSans-20"/>
     <use x="275.048828" xlink:href="#DejaVuSans-57"/>
     <use x="367.550781" xlink:href="#DejaVuSans-61"/>
     <use x="428.830078" xlink:href="#DejaVuSans-6c"/>
     <use x="456.613281" xlink:href="#DejaVuSans-6c"/>
     <use x="484.396484" xlink:href="#DejaVuSans-20"/>
     <use x="516.183594" xlink:href="#DejaVuSans-32"/>
     <use x="579.806641" xlink:href="#DejaVuSans-35"/>
     <use x="643.429688" xlink:href="#DejaVuSans-2e"/>
     <use x="675.216797" xlink:href="#DejaVuSans-37"/>
     <use x="738.839844" xlink:href="#DejaVuSans-b0"/>
    </g>
   </g>
   <g id="text_19">
    <g id="patch_20">
     <path d="M 22.165299 56.503293 
L 37.501289 43.921202 
L 36.248194 42.393836 
L 20.912204 54.975927 
z
" style="fill:#ffffff;"/>
    </g>
    <!-- The Meadows 16.4° -->
    <g style="fill:#008000;" transform="translate(21.904256 56.153582)rotate(-39.366447)scale(0.02 -0.02)">
     <use xlink:href="#DejaVuSans-54"/>
     <use x="61.083984" xlink:href="#DejaVuSans-68"/>
     <use x="124.462891" xlink:href="#DejaVuSans-65"/>
     <use x="185.986328" xlink:href="#DejaVuSans-20"/>
     <use x="217.773438" xlink:href="#DejaVuSans-4d"/>
     <use x="304.052734" xlink:href="#DejaVuSans-65"/>
     <use x="365.576172" xlink:href="#DejaVuSans-61"/>
     <use x="426.855469" xlink:href="#DejaVuSans-64"/>
     <use x="490.332031" xlink:href="#DejaVuSans-6f"/>
     <use x="551.513672" xlink:href="#DejaVuSans-77"/>
     <use x="633.300781" xlink:href="#DejaVuSans-73"/>
     <use x="685.400391" xlink:href="#DejaVuSans-20"/>
     <use x="717.1875" xlink:href="#DejaVuSans-31"/>
     <use x="780.810547" xlink:href="#DejaVuSans-36"/>
     <use x="844.433594" xlink:href="#DejaVuSans-2e"/>
     <use x="876.220703" xlink:href="#DejaVuSans-34"/>
     <use x="939.84375" xlink:href="#DejaVuSans-b0"/>
    </g>
   </g>
   <g id="text_20">
    <!-- West Mountain -->
    <g transform="translate(38.371747 9.247054)scale(0.09 -0.09)">
     <use xlink:href="#DejaVuSans-57"/>
     <use x="93.001953" xlink:href="#DejaVuSans-65"/>
     <use x="154.525391" xlink:href="#DejaVuSans-73"/>
     <use x="206.625" xlink:href="#DejaVuSans-74"/>
     <use x="245.833984" xlink:href="#DejaVuSans-20"/>
     <use x="277.621094" xlink:href="#DejaVuSans-4d"/>
     <use x="363.900391" xlink:href="#DejaVuSans-6f"/>
     <use x="425.082031" xlink:href="#DejaVuSans-75"/>
     <use x="488.460938" xlink:href="#DejaVuSans-6e"/>
     <use x="551.839844" xlink:href="#DejaVuSans-74"/>
     <use x="591.048828" xlink:href="#DejaVuSans-61"/>
     <use x="652.328125" xlink:href="#DejaVuSans-69"/>
     <use x="680.111328" xlink:href="#DejaVuSans-6e"/>
    </g>
   </g>
   <g id="legend_1">
    <g id="line2d_42">
     <path d="M 8.826083 211.529707 
L 17.826083 211.529707 
" style="fill:none;stroke:#008000;stroke-linecap:square;stroke-width:1.5;"/>
    </g>
    <g id="line2d_43"/>
    <g id="text_21">
     <!-- Easy -->
     <g transform="translate(21.426083 213.104707)scale(0.045 -0.045)">
      <use xlink:href="#DejaVuSans-45"/>
      <use x="63.183594" xlink:href="#DejaVuSans-61"/>
      <use x="124.462891" xlink:href="#DejaVuSans-73"/>
      <use x="176.5625" xlink:href="#DejaVuSans-79"/>
     </g>
    </g>
    <g id="line2d_44">
     <path d="M 8.826083 218.134863 
L 17.826083 218.134863 
" style="fill:none;stroke:#4169e1;stroke-linecap:square;stroke-width:1.5;"/>
    </g>
    <g id="line2d_45"/>
    <g id="text_22">
     <!-- Intermediate -->
     <g transform="translate(21.426083 219.709863)scale(0.045 -0.045)">
      <use xlink:href="#DejaVuSans-49"/>
      <use x="29.492188" xlink:href="#DejaVuSans-6e"/>
      <use x="92.871094" xlink:href="#DejaVuSans-74"/>
      <use x="132.080078" xlink:href="#DejaVuSans-65"/>
      <use x="193.603516" xlink:href="#DejaVuSans-72"/>
      <use x="232.966797" xlink:href="#DejaVuSans-6d"/>
      <use x="330.378906" xlink:href="#DejaVuSans-65"/>
      <use x="391.902344" xlink:href="#DejaVuSans-64"/>
      <use x="455.378906" xlink:href="#DejaVuSans-69"/>
      <use x="483.162109" xlink:href="#DejaVuSans-61"/>
      <use x="544.441406" xlink:href="#DejaVuSans-74"/>
      <use x="583.650391" xlink:href="#DejaVuSans-65"/>
     </g>
    </g>
    <g id="line2d_46">
     <path d="M 59.459521 211.529707 
L 68.459521 211.529707 
" style="fill:none;stroke:#000000;stroke-linecap:square;stroke-width:1.5;"/>
    </g>
    <g id="line2d_47"/>
    <g id="text_23">
     <!-- Advanced -->
     <g transform="translate(72.059521 213.104707)scale(0.045 -0.045)">
      <defs>
       <path d="M 191 3500 
L 800 3500 
L 1894 563 
L 2988 3500 
L 3597 3500 
L 2284 0 
L 1503 0 
L 191 3500 
z
" id="DejaVuSans-76" transform="scale(0.015625)"/>
      </defs>
      <use xlink:href="#DejaVuSans-41"/>
      <use x="66.658203" xlink:href="#DejaVuSans-64"/>
      <use x="130.134766" xlink:href="#DejaVuSans-76"/>
      <use x="189.314453" xlink:href="#DejaVuSans-61"/>
      <use x="250.59375" xlink:href="#DejaVuSans-6e"/>
      <use x="313.972656" xlink:href="#DejaVuSans-63"/>
      <use x="368.953125" xlink:href="#DejaVuSans-65"/>
      <use x="430.476562" xlink:href="#DejaVuSans-64"/>
     </g>
    </g>
    <g id="line2d_48">
     <path d="M 59.459521 218.134863 
L 68.459521 218.134863 
" style="fill:none;stroke:#ff0000;stroke-linecap:square;stroke-width:1.5;"/>
    </g>
    <g id="line2d_49"/>
    <g id="text_24">
     <!-- Expert -->
     <g transform="translate(72.059521 219.709863)scale(0.045 -0.045)">
      <use xlink:href="#DejaVuSans-45"/>
      <use x="63.183594" xlink:href="#DejaVuSans-78"/>
      <use x="122.363281" xlink:href="#DejaVuSans-70"/>
      <use x="185.839844" xlink:href="#DejaVuSans-65"/>
      <use x="247.363281" xlink:href="#DejaVuSans-72"/>
      <use x="288.476562" xlink:href="#DejaVuSans-74"/>
     </g>
    </g>
    <g id="line2d_50">
     <path d="M 103.288817 211.529707 
L 112.288817 211.529707 
" style="fill:none;stroke:#ffd700;stroke-linecap:square;stroke-width:1.5;"/>
    </g>
    <g id="line2d_51"/>
    <g id="text_25">
     <!-- Extreme -->
     <g transform="translate(115.888817 213.104707)scale(0.045 -0.045)">
      <use xlink:href="#DejaVuSans-45"/>
      <use x="63.183594" xlink:href="#DejaVuSans-78"/>
      <use x="122.363281" xlink:href="#DejaVuSans-74"/>
      <use x="161.572266" xlink:href="#DejaVuSans-72"/>
      <use x="200.435547" xlink:href="#DejaVuSans-65"/>
      <use x="261.958984" xlink:href="#DejaVuSans-6d"/>
      <use x="359.371094" xlink:href="#DejaVuSans-65"/>
     </g>
    </g>
    <g id="line2d_52">
     <path d="M 103.288817 218.134863 
L 112.288817 218.134863 
" style="fill:none;stroke:#000000;stroke-dasharray:1.5,2.475;stroke-dashoffset:0;stroke-width:1.5;"/>
    </g>
    <g id="line2d_53"/>
    <g id="text_26">
     <!-- Gladed -->
     <g transform="translate(115.888817 219.709863)scale(0.045 -0.045)">
      <use xlink:href="#DejaVuSans-47"/>
      <use x="77.490234" xlink:href="#DejaVuSans-6c"/>
      <use x="105.273438" xlink:href="#DejaVuSans-61"/>
      <use x="166.552734" xlink:href="#DejaVuSans-64"/>
      <use x="230.029297" xlink:href="#DejaVuSans-65"/>
      <use x="291.552734" xlink:href="#DejaVuSans-64"/>
     </g>
    </g>
   </g>
  </g>
  <g id="text_27">
   <!-- Sources: USGS and OpenStreetMaps -->
   <g transform="translate(36.133242 225.551635)scale(0.03913 -0.03913)">
    <defs>
     <path d="M 750 794 
L 1409 794 
L 1409 0 
L 750 0 
L 750 794 
z
M 750 3309 
L 1409 3309 
L 1409 2516 
L 750 2516 
L 750 3309 
z
" id="DejaVuSans-3a" transform="scale(0.015625)"/>
     <path d="M 556 4666 
L 1191 4666 
L 1191 1831 
Q 1191 1081 1462 751 
Q 1734 422 2344 422 
Q 2950 422 3222 751 
Q 3494 1081 3494 1831 
L 3494 4666 
L 4128 4666 
L 4128 1753 
Q 4128 841 3676 375 
Q 3225 -91 2344 -91 
Q 1459 -91 1007 375 
Q 556 841 556 1753 
L 556 4666 
z
" id="DejaVuSans-55" transform="scale(0.015625)"/>
    </defs>
    <use xlink:href="#DejaVuSans-53"/>
    <use x="63.476562" xlink:href="#DejaVuSans-6f"/>
    <use x="124.658203" xlink:href="#DejaVuSans-75"/>
    <use x="188.037109" xlink:href="#DejaVuSans-72"/>
    <use x="226.900391" xlink:href="#DejaVuSans-63"/>
    <use x="281.880859" xlink:href="#DejaVuSans-65"/>
    <use x="343.404297" xlink:href="#DejaVuSans-73"/>
    <use x="395.503906" xlink:href="#DejaVuSans-3a"/>
    <use x="429.195312" xlink:href="#DejaVuSans-20"/>
    <use x="460.982422" xlink:href="#DejaVuSans-55"/>
    <use x="534.175781" xlink:href="#DejaVuSans-53"/>
    <use x="597.652344" xlink:href="#DejaVuSans-47"/>
    <use x="675.142578" xlink:href="#DejaVuSans-53"/>
    <use x="738.619141" xlink:href="#DejaVuSans-20"/>
    <use x="770.40625" xlink:href="#DejaVuSans-61"/>
    <use x="831.685547" xlink:href="#DejaVuSans-6e"/>
    <use x="895.064453" xlink:href="#DejaVuSans-64"/>
    <use x="958.541016" xlink:href="#DejaVuSans-20"/>
    <use x="990.328125" xlink:href="#DejaVuSans-4f"/>
    <use x="1069.039062" xlink:href="#DejaVuSans-70"/>
    <use x="1132.515625" xlink:href="#DejaVuSans-65"/>
    <use x="1194.039062" xlink:href="#DejaVuSans-6e"/>
    <use x="1257.417969" xlink:href="#DejaVuSans-53"/>
    <use x="1320.894531" xlink:href="#DejaVuSans-74"/>
    <use x="1360.103516" xlink:href="#DejaVuSans-72"/>
    <use x="1398.966797" xlink:href="#DejaVuSans-65"/>
    <use x="1460.490234" xlink:href="#DejaVuSans-65"/>
    <use x="1522.013672" xlink:href="#DejaVuSans-74"/>
    <use x="1561.222656" xlink:href="#DejaVuSans-4d"/>
    <use x="1647.501953" xlink:href="#DejaVuSans-61"/>
    <use x="1708.78125" xlink:href="#DejaVuSans-70"/>
    <use x="1772.257812" xlink:href="#DejaVuSans-73"/>
   </g>
  </g>
 </g>
 <defs>
  <clipPath id="p521916760c">
   <rect height="198.871317" width="143.655682" x="0" y="13.747054"/>
  </clipPath>
 </defs>
</svg>
