<?xml version="1.0" encoding="utf-8" standalone="no"?>
<!DOCTYPE svg PUBLIC "-//W3C//DTD SVG 1.1//EN"
  "http://www.w3.org/Graphics/SVG/1.1/DTD/svg11.dtd">
<svg height="187.421436pt" version="1.1" viewBox="0 0 216.107194 187.421436" width="216.107194pt" xmlns="http://www.w3.org/2000/svg" xmlns:xlink="http://www.w3.org/1999/xlink">
 <metadata>
  <rdf:RDF xmlns:cc="http://creativecommons.org/ns#" xmlns:dc="http://purl.org/dc/elements/1.1/" xmlns:rdf="http://www.w3.org/1999/02/22-rdf-syntax-ns#">
   <cc:Work>
    <dc:type rdf:resource="http://purl.org/dc/dcmitype/StillImage"/>
    <dc:date>2022-04-14T21:34:50.711366</dc:date>
    <dc:format>image/svg+xml</dc:format>
    <dc:creator>
     <cc:Agent>
      <dc:title>Matplotlib v3.4.3, https://matplotlib.org/</dc:title>
     </cc:Agent>
    </dc:creator>
   </cc:Work>
  </rdf:RDF>
 </metadata>
 <defs>
  <style type="text/css">*{stroke-linecap:butt;stroke-linejoin:round;}</style>
 </defs>
 <g id="figure_1">
  <g id="patch_1">
   <path d="M 0 187.421436 
L 216.107194 187.421436 
L 216.107194 0 
L 0 0 
z
" style="fill:#ffffff;"/>
  </g>
  <g id="axes_1">
   <g id="line2d_1">
    <path clip-path="url(#p869d1a5c08)" d="M 200.25777 65.386139 
" style="fill:none;stroke:#008000;stroke-linecap:square;stroke-width:1.5;"/>
   </g>
   <g id="line2d_2">
    <path clip-path="url(#p869d1a5c08)" d="M 200.25777 65.386139 
" style="fill:none;stroke:#4169e1;stroke-linecap:square;stroke-width:1.5;"/>
   </g>
   <g id="line2d_3">
    <path clip-path="url(#p869d1a5c08)" d="M 200.25777 65.386139 
" style="fill:none;stroke:#000000;stroke-linecap:square;stroke-width:1.5;"/>
   </g>
   <g id="line2d_4">
    <path clip-path="url(#p869d1a5c08)" d="M 200.25777 65.386139 
" style="fill:none;stroke:#ff0000;stroke-linecap:square;stroke-width:1.5;"/>
   </g>
   <g id="line2d_5">
    <path clip-path="url(#p869d1a5c08)" d="M 200.25777 65.386139 
" style="fill:none;stroke:#ffd700;stroke-linecap:square;stroke-width:1.5;"/>
   </g>
   <g id="line2d_6">
    <path clip-path="url(#p869d1a5c08)" d="M 200.25777 65.386139 
" style="fill:none;stroke:#000000;stroke-dasharray:1.5,2.475;stroke-dashoffset:0;stroke-width:1.5;"/>
   </g>
   <g id="line2d_7">
    <path clip-path="url(#p869d1a5c08)" d="M 143.026188 128.509887 
L 146.979719 124.338354 
L 151.007488 120.08722 
L 154.45591 116.447616 
L 157.904333 112.808013 
L 160.883309 109.663766 
L 163.862286 106.519519 
L 167.622944 102.550216 
L 171.383602 98.580913 
L 175.379347 94.364201 
L 179.375092 90.147489 
L 182.367897 86.989258 
L 185.360703 83.831027 
L 189.220345 79.757382 
L 193.079986 75.683737 
L 195.818054 72.793353 
L 198.556122 69.902969 
L 200.570734 67.776326 
" style="fill:none;stroke:#808080;stroke-linecap:square;stroke-width:1.5;"/>
   </g>
   <g id="line2d_8">
    <path clip-path="url(#p869d1a5c08)" d="M 71.928135 134.227189 
L 74.957331 130.892544 
L 77.986528 127.557899 
L 80.947309 124.298553 
L 83.908091 121.039207 
L 88.038482 116.49172 
L 92.168874 111.944232 
L 94.504092 109.37306 
L 96.83931 106.801888 
L 99.174528 104.230715 
L 101.509746 101.659543 
L 103.983978 98.935891 
L 106.45821 96.21224 
L 108.932442 93.488588 
L 111.406674 90.764936 
L 115.392957 86.375576 
L 119.37924 81.986215 
L 123.568586 77.374724 
L 127.757931 72.763233 
L 130.494179 69.75049 
L 133.230427 66.737746 
L 135.966675 63.725002 
L 138.702924 60.712258 
L 142.664097 56.351134 
L 146.62527 51.990011 
L 150.586443 47.628887 
L 154.547616 43.267764 
" style="fill:none;stroke:#808080;stroke-linecap:square;stroke-width:1.5;"/>
   </g>
   <g id="line2d_9">
    <path clip-path="url(#p869d1a5c08)" d="M 64.973065 133.281655 
L 62.150569 128.385106 
L 60.111939 124.835323 
L 58.073309 121.28554 
L 55.860001 117.422731 
L 53.646693 113.559922 
L 51.032355 109.025343 
L 48.418017 104.490764 
L 46.481282 101.148589 
L 44.544547 97.806415 
L 42.479715 94.083983 
L 40.414883 90.361552 
L 37.703017 85.618289 
L 34.991151 80.875026 
L 32.873916 77.174646 
L 30.75668 73.474266 
L 28.061554 68.815444 
L 25.366428 64.156623 
L 22.996639 59.954971 
L 20.626849 55.753319 
L 18.803654 52.750525 
L 16.980459 49.747731 
" style="fill:none;stroke:#808080;stroke-linecap:square;stroke-width:1.5;"/>
   </g>
   <g id="line2d_10">
    <path clip-path="url(#p869d1a5c08)" d="M 61.881275 134.810214 
L 56.783607 131.984371 
L 52.871562 129.933027 
L 48.959517 127.881683 
L 44.78764 125.74751 
L 40.615762 123.613337 
L 37.439545 121.994959 
L 34.263329 120.376581 
L 31.876071 119.229893 
" style="fill:none;stroke:#808080;stroke-linecap:square;stroke-width:1.5;"/>
   </g>
   <g id="line2d_11">
    <path clip-path="url(#p869d1a5c08)" d="M 48.626175 156.708072 
L 45.838615 152.431121 
L 43.910614 149.446077 
L 41.982612 146.461032 
L 39.95126 143.316247 
L 37.919908 140.171462 
L 36.053772 137.283229 
L 34.187635 134.394997 
L 30.839652 129.214465 
L 28.436383 125.491495 
" style="fill:none;stroke:#808080;stroke-linecap:square;stroke-width:1.5;"/>
   </g>
   <g id="line2d_12">
    <path clip-path="url(#p869d1a5c08)" d="M 53.540431 151.372641 
L 50.98068 148.573959 
L 48.420929 145.775278 
L 45.861178 142.976597 
L 43.301426 140.177916 
" style="fill:none;stroke:#808080;stroke-linecap:square;stroke-width:1.5;"/>
   </g>
   <g id="line2d_13">
    <path clip-path="url(#p869d1a5c08)" d="M 54.706403 148.717833 
L 51.808942 146.063564 
L 48.911481 143.409294 
" style="fill:none;stroke:#808080;stroke-linecap:square;stroke-width:1.5;"/>
   </g>
   <g id="line2d_14">
    <path clip-path="url(#p869d1a5c08)" d="M 84.956155 132.579229 
L 89.410428 129.547929 
L 93.8647 126.51663 
L 97.04674 124.350724 
L 100.228779 122.184819 
L 104.445781 119.314873 
L 108.662784 116.444927 
L 112.376862 113.917051 
L 116.090939 111.389175 
L 117.728539 110.274759 
" style="fill:none;stroke:#808080;stroke-linecap:square;stroke-width:1.5;"/>
   </g>
   <g id="line2d_15">
    <path clip-path="url(#p869d1a5c08)" d="M 200.25777 65.386139 
L 199.206795 65.562015 
L 198.155819 65.73789 
L 197.104844 65.913766 
L 196.053869 66.089641 
L 194.32893 66.269282 
L 192.603991 66.448922 
L 191.563205 66.493564 
L 190.522419 66.538205 
L 189.481633 66.582846 
L 188.440847 66.627487 
L 187.075816 66.540356 
L 185.710785 66.453225 
L 184.345754 66.366094 
L 182.980724 66.278963 
L 182.049839 65.968626 
L 181.118954 65.658289 
L 180.188069 65.347952 
L 179.257184 65.037615 
L 178.3263 64.727278 
L 177.395415 64.416941 
L 176.46453 64.106604 
L 175.533645 63.796266 
L 173.775227 63.354157 
L 172.406921 63.201947 
L 171.038615 63.049736 
L 169.767109 62.997834 
L 168.495603 62.945932 
L 167.224098 62.89403 
L 165.952592 62.842128 
L 164.843755 62.947546 
L 163.734917 63.052963 
L 162.62608 63.158381 
L 161.517243 63.263799 
L 160.37165 63.464819 
L 159.226058 63.665839 
L 158.080466 63.866859 
L 156.934873 64.067879 
L 155.789281 64.268899 
L 154.643688 64.469918 
L 153.498096 64.670938 
L 152.352504 64.871958 
" style="fill:none;stroke:#008000;stroke-linecap:square;stroke-width:1.5;"/>
   </g>
   <g id="line2d_16">
    <path clip-path="url(#p869d1a5c08)" d="M 202.953624 67.295492 
L 203.795715 68.196922 
L 204.637805 69.098351 
L 205.049389 70.628254 
L 205.460972 72.158157 
L 205.872556 73.68806 
L 206.284139 75.217962 
L 206.205898 76.918093 
L 206.127658 78.618224 
L 206.049417 80.318355 
L 205.971176 82.018486 
L 205.618546 83.014173 
L 205.265916 84.00986 
L 204.913286 85.005548 
L 204.560656 86.001235 
L 204.208026 86.996922 
L 203.855396 87.992609 
L 203.502766 88.988297 
L 203.150136 89.983984 
L 202.631563 90.844873 
L 202.11299 91.705763 
L 201.594416 92.566653 
L 201.075843 93.427542 
L 200.557269 94.288432 
L 200.038696 95.149322 
L 199.520122 96.010211 
L 199.001549 96.871101 
L 198.482976 97.73199 
L 197.964402 98.59288 
L 197.445829 99.45377 
L 196.927255 100.314659 
L 196.408682 101.175549 
L 195.890109 102.036438 
L 195.371535 102.897328 
L 194.852962 103.758218 
L 193.930629 104.536212 
L 193.008296 105.314206 
L 192.085963 106.0922 
L 191.16363 106.870194 
L 190.241297 107.648188 
L 189.318964 108.426182 
L 188.396632 109.204176 
L 187.474299 109.982171 
L 186.824353 110.950293 
L 186.174408 111.918416 
L 185.524463 112.886539 
L 184.874517 113.854661 
L 184.224572 114.822784 
L 183.574627 115.790906 
L 182.924681 116.759029 
L 182.274736 117.727152 
L 181.624791 118.695274 
L 180.974845 119.663397 
L 180.3249 120.63152 
L 179.674955 121.599642 
L 179.025009 122.567765 
L 178.375064 123.535888 
L 177.725118 124.50401 
L 177.075173 125.472133 
L 176.09607 125.967489 
L 175.116967 126.462845 
L 174.137864 126.958201 
L 173.158761 127.453557 
L 172.179658 127.948913 
L 171.200555 128.444269 
L 170.221452 128.939625 
L 169.242349 129.434982 
L 168.18355 129.594318 
L 167.12475 129.753655 
L 166.06595 129.912992 
L 165.007151 130.072329 
L 163.948351 130.231666 
L 162.889552 130.391003 
L 161.830752 130.550339 
L 160.771953 130.709676 
L 159.721341 130.637471 
L 158.67073 130.565265 
L 157.620118 130.493059 
L 156.569506 130.420853 
L 155.518895 130.348647 
L 154.468283 130.276441 
L 153.417672 130.204236 
L 152.36706 130.13203 
L 151.215645 129.884083 
L 150.06423 129.636136 
L 148.912815 129.388189 
L 147.7614 129.140242 
" style="fill:none;stroke:#000000;stroke-linecap:square;stroke-width:1.5;"/>
   </g>
   <g id="line2d_17">
    <path clip-path="url(#p869d1a5c08)" d="M 200.746867 69.01875 
L 199.94972 69.939408 
L 199.152572 70.860066 
L 198.355425 71.780723 
L 197.558277 72.701381 
L 196.76113 73.622039 
L 195.963982 74.542697 
L 195.166835 75.463354 
L 194.369688 76.384012 
L 193.57254 77.30467 
L 192.775393 78.225328 
L 191.978245 79.145985 
L 191.181098 80.066643 
L 190.383951 80.987301 
L 189.586803 81.907959 
L 188.789656 82.828616 
L 187.992508 83.749274 
L 186.64167 84.990085 
L 185.290832 86.230895 
L 183.939993 87.471706 
L 182.589155 88.712516 
L 181.658634 90.068426 
L 180.728113 91.424335 
L 179.797593 92.780245 
L 178.867072 94.136154 
L 178.146528 95.203778 
L 177.425983 96.271403 
L 176.705439 97.339027 
L 175.984895 98.406651 
L 175.294556 99.156811 
L 174.604216 99.906972 
L 173.913877 100.657133 
L 173.223537 101.407293 
L 172.533198 102.157454 
L 171.842858 102.907614 
L 171.152519 103.657775 
L 170.462179 104.407936 
L 169.298937 105.344863 
L 168.135695 106.281791 
L 166.972453 107.218718 
L 165.809211 108.155646 
L 164.645969 109.092573 
L 163.482727 110.029501 
L 162.319485 110.966429 
L 161.156243 111.903356 
L 160.49538 112.660778 
L 159.834517 113.418199 
L 159.173655 114.175621 
L 158.512792 114.933042 
L 157.851929 115.690464 
L 157.191067 116.447885 
L 156.530204 117.205307 
L 155.869341 117.962728 
L 155.208479 118.72015 
L 154.547616 119.477571 
L 153.886753 120.234993 
L 153.225891 120.992414 
L 152.565028 121.749836 
L 151.904165 122.507257 
L 151.243303 123.264679 
L 150.58244 124.0221 
L 149.320396 125.003131 
L 148.058352 125.984162 
" style="fill:none;stroke:#4169e1;stroke-linecap:square;stroke-width:1.5;"/>
   </g>
   <g id="line2d_18">
    <path clip-path="url(#p869d1a5c08)" d="M 138.876145 128.931558 
L 137.152298 129.514045 
L 135.428451 130.096532 
L 133.704604 130.679019 
L 131.980756 131.261506 
L 130.986551 131.702137 
L 129.992346 132.142767 
L 128.99814 132.583397 
L 128.003935 133.024027 
L 127.00973 133.464658 
L 126.015524 133.905288 
L 125.021319 134.345918 
L 124.027114 134.786548 
L 123.000156 135.258777 
L 121.973199 135.731006 
L 120.540845 136.695901 
L 119.69366 138.164221 
L 119.0852 139.275948 
L 118.476741 140.387676 
L 117.732178 141.137433 
L 116.987616 141.88719 
L 115.89006 142.539597 
L 114.792504 143.192004 
L 113.975159 143.823435 
L 113.157815 144.454866 
L 112.439454 145.415459 
L 111.721094 146.376052 
L 111.106448 147.197612 
L 110.491802 148.019171 
L 109.877156 148.840731 
L 109.26251 149.662291 
L 108.475734 150.690114 
L 107.688958 151.717938 
L 106.201289 152.596778 
L 104.544765 152.931856 
L 102.888242 153.266934 
L 101.680057 153.262362 
L 100.471871 153.257791 
L 99.263686 153.253219 
L 98.055501 153.248647 
L 96.299266 153.216914 
L 94.543031 153.185181 
L 92.967659 152.501579 
L 91.392288 151.817977 
L 89.816916 151.134375 
L 88.241545 150.450773 
L 86.459108 149.728983 
L 84.676671 149.007194 
L 83.036887 148.228931 
L 81.397104 147.450668 
L 80.528448 146.450544 
L 79.659792 145.450419 
L 78.791136 144.450295 
L 77.92248 143.45017 
L 76.851125 142.55385 
L 75.779771 141.65753 
L 74.708416 140.76121 
L 73.637062 139.864889 
" style="fill:none;stroke:#008000;stroke-linecap:square;stroke-width:1.5;"/>
   </g>
   <g id="line2d_19">
    <path clip-path="url(#p869d1a5c08)" d="M 182.980724 66.278963 
L 182.175388 67.1137 
L 181.370053 67.948437 
L 180.564717 68.783174 
L 179.759382 69.617911 
L 178.686208 70.597328 
L 177.613034 71.576745 
L 176.53986 72.556163 
L 175.466686 73.53558 
L 174.689917 74.201702 
L 173.913149 74.867825 
L 173.136381 75.533947 
L 172.359612 76.200069 
L 171.582844 76.866191 
L 170.806075 77.532313 
L 170.029307 78.198435 
L 169.252539 78.864557 
L 168.404989 79.844782 
L 167.55744 80.825006 
L 166.709891 81.80523 
L 165.862342 82.785454 
L 165.014793 83.765678 
L 164.167244 84.745903 
L 163.319695 85.726127 
L 162.472146 86.706351 
L 161.768705 88.223345 
L 161.065265 89.74034 
L 160.361825 91.257334 
L 159.658384 92.774328 
L 158.954944 94.291323 
L 158.251504 95.808317 
L 157.548064 97.325312 
L 156.844623 98.842306 
L 156.278559 99.686186 
L 155.712496 100.530067 
L 155.146432 101.373947 
L 154.580368 102.217827 
L 154.014304 103.061707 
L 153.44824 103.905587 
L 152.882176 104.749468 
L 152.316113 105.593348 
L 151.671444 106.364081 
L 151.026775 107.134814 
L 150.382107 107.905548 
L 149.737438 108.676281 
L 149.092769 109.447014 
L 148.448101 110.217747 
L 147.803432 110.98848 
L 147.158764 111.759213 
L 146.391639 113.379205 
L 145.624514 114.999197 
L 144.857389 116.619189 
L 144.090265 118.239181 
L 143.739818 119.52544 
L 143.389372 120.811698 
L 143.038925 122.097957 
L 142.688479 123.384215 
" style="fill:none;stroke:#000000;stroke-linecap:square;stroke-width:1.5;"/>
   </g>
   <g id="line2d_20">
    <path clip-path="url(#p869d1a5c08)" d="M 157.304607 48.193357 
L 156.995101 49.235769 
L 156.685594 50.278182 
L 156.376088 51.320594 
L 156.066581 52.363007 
L 155.757075 53.40542 
L 155.447568 54.447832 
L 155.138062 55.490245 
L 154.828555 56.532657 
L 154.519049 57.57507 
L 154.209542 58.617483 
L 153.900036 59.659895 
L 153.59053 60.702308 
L 153.281023 61.74472 
L 152.971517 62.787133 
L 152.66201 63.829546 
L 152.352504 64.871958 
L 151.866682 66.005737 
L 151.380861 67.139517 
L 150.89504 68.273296 
L 150.409218 69.407075 
L 149.708325 70.426562 
L 149.007432 71.446049 
L 148.306539 72.465536 
L 147.605646 73.485023 
L 146.305756 74.788492 
L 145.005865 76.091962 
L 143.705974 77.395431 
L 142.406084 78.698901 
L 141.382765 80.179591 
L 140.359447 81.660281 
L 139.609062 83.153341 
L 138.858678 84.646401 
L 138.108293 86.139461 
L 137.357908 87.632522 
L 136.84734 89.428658 
L 136.336773 91.224794 
L 135.826206 93.020931 
L 135.315638 94.817067 
L 134.495746 96.124302 
L 133.675855 97.431536 
L 132.855963 98.738771 
L 132.036071 100.046005 
" style="fill:none;stroke:#4169e1;stroke-linecap:square;stroke-width:1.5;"/>
   </g>
   <g id="line2d_21">
    <path clip-path="url(#p869d1a5c08)" d="M 132.036071 100.046005 
L 131.117559 101.129765 
L 130.199047 102.213524 
L 129.280535 103.297284 
L 128.362024 104.381043 
L 127.443512 105.464803 
L 126.525 106.548562 
L 125.606488 107.632322 
L 124.687976 108.716081 
L 123.685401 109.482781 
L 122.682826 110.24948 
L 121.680251 111.016179 
L 120.677675 111.782879 
L 119.698026 112.740782 
L 118.718378 113.698686 
L 117.738729 114.656589 
L 116.75908 115.614493 
L 115.175338 116.707934 
L 113.591597 117.801374 
L 112.737498 119.231776 
L 111.883398 120.662177 
L 111.029298 122.092578 
L 110.175199 123.522979 
L 109.526345 124.586838 
L 108.877492 125.650698 
L 108.228638 126.714557 
L 107.579784 127.778416 
L 106.772266 128.473044 
L 105.964747 129.167672 
L 105.157228 129.8623 
L 104.349709 130.556928 
L 103.129515 131.071916 
L 101.909321 131.586903 
L 100.689126 132.10189 
L 99.468932 132.616878 
L 97.937594 133.07835 
L 96.406256 133.539822 
L 94.874918 134.001293 
L 93.343579 134.462765 
L 91.66231 134.780094 
L 89.98104 135.097423 
L 88.299771 135.414752 
L 86.618501 135.732081 
L 84.847345 136.006383 
L 83.07619 136.280684 
L 81.305034 136.554986 
L 79.533878 136.829287 
L 78.059674 136.925293 
L 76.58547 137.021298 
L 75.111266 137.117304 
L 73.637062 137.213309 
" style="fill:none;stroke:#4169e1;stroke-linecap:square;stroke-width:1.5;"/>
   </g>
   <g id="line2d_22">
    <path clip-path="url(#p869d1a5c08)" d="M 132.036071 100.046005 
L 131.817724 101.337911 
L 131.599377 102.629817 
L 131.381031 103.921723 
L 131.162684 105.213629 
L 131.02367 106.57653 
L 130.884656 107.939432 
L 130.911585 109.718626 
L 130.938515 111.49782 
L 131.084079 112.88116 
L 131.229644 114.2645 
L 131.663062 115.324728 
L 132.09648 116.384957 
L 132.529898 117.445186 
L 132.963317 118.505415 
L 133.396735 119.565643 
L 133.830153 120.625872 
L 134.263571 121.686101 
L 134.696989 122.74633 
L 135.679186 123.687022 
L 136.661382 124.627715 
L 137.643578 125.568407 
L 138.625774 126.5091 
" style="fill:none;stroke:#4169e1;stroke-linecap:square;stroke-width:1.5;"/>
   </g>
   <g id="line2d_23">
    <path clip-path="url(#p869d1a5c08)" d="M 113.591597 117.801374 
L 112.206915 117.698108 
L 110.822233 117.594842 
L 109.437551 117.491575 
L 108.052869 117.388309 
L 106.779908 117.070442 
L 105.506946 116.752575 
L 104.29585 116.603054 
L 103.084754 116.453533 
L 101.760845 116.507048 
L 100.436936 116.560564 
L 99.113027 116.61408 
L 97.789118 116.667595 
" style="fill:none;stroke:#008000;stroke-linecap:square;stroke-width:1.5;"/>
   </g>
   <g id="line2d_24">
    <path clip-path="url(#p869d1a5c08)" d="M 137.357908 87.632522 
L 136.381716 87.968272 
L 135.405524 88.304022 
L 134.429333 88.639772 
L 133.453141 88.975523 
L 132.476949 89.311273 
L 131.500758 89.647023 
L 130.524566 89.982774 
L 129.548374 90.318524 
L 128.22774 91.083341 
L 126.907107 91.848158 
L 125.586473 92.612975 
L 124.26584 93.377792 
L 123.034728 94.243186 
L 121.803617 95.10858 
L 120.572505 95.973974 
L 119.341394 96.839368 
L 118.470918 97.820399 
L 117.600443 98.80143 
L 116.729967 99.782461 
L 115.859491 100.763492 
L 114.658585 102.061852 
L 113.457678 103.360212 
L 112.256771 104.658572 
L 111.055864 105.956932 
L 109.990332 107.096627 
L 108.9248 108.236323 
L 107.859268 109.376018 
L 106.793736 110.515714 
L 105.217637 111.640887 
L 103.641538 112.766061 
L 102.065438 113.891235 
L 100.489339 115.016408 
L 99.139229 115.842002 
L 97.789118 116.667595 
L 96.94812 117.178011 
L 96.107121 117.688427 
L 95.266122 118.198843 
L 94.425123 118.709258 
L 92.638684 119.228817 
L 90.852244 119.748377 
L 89.065804 120.267936 
L 87.279364 120.787495 
L 85.36228 120.90609 
L 83.445196 121.024685 
L 81.528112 121.14328 
L 79.611027 121.261875 
" style="fill:none;stroke:#4169e1;stroke-linecap:square;stroke-width:1.5;"/>
   </g>
   <g id="line2d_25">
    <path clip-path="url(#p869d1a5c08)" d="M 124.687976 108.716081 
L 125.827018 108.991458 
L 126.96606 109.266836 
L 127.937703 109.901494 
L 128.909346 110.536152 
L 129.548374 111.444036 
L 130.187402 112.35192 
L 130.708523 113.30821 
L 131.229644 114.2645 
" style="fill:none;stroke:#4169e1;stroke-linecap:square;stroke-width:1.5;"/>
   </g>
   <g id="line2d_26">
    <path clip-path="url(#p869d1a5c08)" d="M 152.237508 42.066216 
L 150.460893 42.014583 
L 148.684279 41.962949 
L 147.67297 42.025609 
L 146.661661 42.088268 
L 145.650352 42.150927 
L 144.639043 42.213586 
L 143.333329 42.288884 
L 142.027616 42.364183 
L 140.381282 42.509401 
L 138.734948 42.654619 
L 136.993997 43.145135 
L 135.253046 43.63565 
L 134.367286 44.068616 
L 133.481526 44.501582 
L 132.595766 44.934548 
L 131.710006 45.367514 
L 130.419577 46.4346 
L 129.129148 47.501687 
L 128.408604 48.150867 
L 127.68806 48.800047 
L 126.967516 49.449227 
L 126.246972 50.098407 
L 124.805884 51.339217 
L 123.364795 52.580028 
L 122.50924 53.157136 
L 121.653685 53.734245 
L 120.79813 54.311354 
L 119.942575 54.888462 
L 118.876679 55.523121 
L 117.810783 56.157779 
L 116.744887 56.792437 
L 115.678992 57.427095 
L 114.388563 58.581312 
L 113.098133 59.73553 
L 112.452555 60.485556 
L 111.806977 61.235582 
L 111.161398 61.985608 
L 110.51582 62.735634 
L 109.615504 64.409411 
L 108.715187 66.083187 
L 107.844712 67.641327 
L 106.974236 69.199466 
L 106.193647 69.862899 
L 105.413057 70.526332 
L 104.632468 71.189765 
L 103.851878 71.853198 
L 102.816187 72.531422 
L 101.780496 73.209646 
L 100.744805 73.887869 
L 99.709114 74.566093 
L 98.498381 75.305362 
L 97.287649 76.044631 
L 96.076916 76.783901 
L 94.866184 77.52317 
L 93.720228 78.370546 
L 92.574271 79.217922 
L 91.428315 80.065298 
L 90.282359 80.912675 
L 89.276508 81.677492 
L 88.270658 82.442308 
L 87.264807 83.207125 
L 86.258957 83.971942 
L 84.93432 84.912904 
L 83.609683 85.853865 
L 82.285047 86.794827 
L 80.96041 87.735788 
L 79.635773 88.676749 
L 78.311137 89.617711 
L 76.9865 90.558672 
L 75.661863 91.499634 
L 74.912206 92.237827 
L 74.162549 92.976021 
L 73.412892 93.714214 
L 72.663235 94.452408 
L 72.209802 95.545311 
L 71.756369 96.638213 
L 71.489986 98.145796 
L 71.223603 99.653378 
L 71.532563 100.913685 
L 71.841524 102.173993 
L 72.150485 103.4343 
L 72.459445 104.694607 
L 72.768406 105.954915 
L 73.077366 107.215222 
L 73.386327 108.47553 
L 73.695287 109.735837 
L 73.624689 111.125631 
L 73.55409 112.515425 
L 73.45729 113.630917 
L 73.360489 114.74641 
L 73.263689 115.861902 
L 73.166888 116.977395 
L 72.870665 118.249669 
L 72.574441 119.521944 
L 72.278217 120.794218 
L 71.981994 122.066493 
L 71.571866 123.486944 
L 71.161738 124.907395 
L 70.75161 126.327846 
L 70.341482 127.748297 
" style="fill:none;stroke:#4169e1;stroke-linecap:square;stroke-width:1.5;"/>
   </g>
   <g id="line2d_27">
    <path clip-path="url(#p869d1a5c08)" d="M 149.829872 44.198237 
L 148.896075 45.06632 
L 147.962279 45.934404 
L 147.028483 46.802487 
L 146.094687 47.67057 
L 145.102665 48.151405 
L 144.110644 48.632239 
L 143.118622 49.113073 
L 142.1266 49.593907 
L 140.858369 50.196295 
L 139.590139 50.798682 
L 138.321909 51.40107 
L 137.053678 52.003457 
L 135.523068 52.522478 
L 133.992457 53.0415 
L 133.361799 53.806048 
L 132.731141 54.570595 
L 132.100483 55.335143 
L 131.469825 56.099691 
L 130.809326 56.864508 
L 130.148828 57.629325 
L 129.488329 58.394142 
L 128.82783 59.158959 
L 127.657492 60.629968 
L 126.487153 62.100976 
L 125.376496 63.024458 
L 124.26584 63.947939 
L 123.155183 64.87142 
L 122.044526 65.794902 
L 120.96371 66.68934 
L 119.882893 67.583777 
L 118.802077 68.478215 
L 117.721261 69.372653 
L 116.985797 70.021833 
L 116.250332 70.671013 
L 115.514868 71.320193 
L 114.779403 71.969373 
L 114.138919 72.982675 
L 113.498436 73.995976 
L 112.857952 75.009278 
L 112.217468 76.02258 
L 111.416864 76.884478 
L 110.616259 77.746376 
L 109.815655 78.608274 
L 109.01505 79.470172 
L 108.21954 80.23472 
L 107.42403 80.999268 
L 106.628521 81.763816 
L 105.833011 82.528364 
L 104.872285 83.798218 
L 103.91156 85.068072 
L 103.371152 85.933466 
L 102.830744 86.79886 
L 102.290336 87.664254 
L 101.749928 88.529649 
L 100.369249 89.510679 
L 98.98857 90.49171 
L 97.416473 91.18338 
L 95.844377 91.87505 
L 94.313767 92.804986 
L 92.783156 93.734921 
L 91.810058 94.503369 
L 90.836959 95.271816 
L 89.863861 96.040263 
L 88.890762 96.808711 
L 87.917664 97.577158 
L 86.944565 98.345605 
L 85.971467 99.114053 
L 84.998368 99.8825 
L 84.13317 100.523881 
L 83.267971 101.165263 
L 82.402772 101.806644 
L 81.537573 102.448025 
L 80.672374 103.089406 
L 79.807176 103.730788 
L 78.941977 104.372169 
L 78.076778 105.01355 
L 76.981405 106.194122 
L 75.886033 107.374694 
L 74.79066 108.555265 
L 73.695287 109.735837 
" style="fill:none;stroke:#000000;stroke-linecap:square;stroke-width:1.5;"/>
   </g>
   <g id="line2d_28">
    <path clip-path="url(#p869d1a5c08)" d="M 149.106416 46.926192 
L 148.638881 47.763954 
L 148.171346 48.601716 
L 147.703811 49.439478 
L 147.236277 50.27724 
L 146.768742 51.115003 
L 146.301207 51.952765 
L 145.833672 52.790527 
L 145.366137 53.628289 
L 144.898602 54.466052 
L 144.431067 55.303814 
L 143.963532 56.141576 
L 143.495998 56.979338 
L 143.028463 57.817101 
L 142.560928 58.654863 
L 142.093393 59.492625 
L 141.625858 60.330387 
L 140.44624 61.627806 
L 139.266622 62.925225 
L 138.087004 64.222644 
L 136.907386 65.520063 
L 135.727768 66.817481 
L 134.54815 68.1149 
L 133.368532 69.412319 
L 132.188914 70.709738 
L 131.266399 71.709997 
L 130.343884 72.710256 
L 129.421369 73.710515 
L 128.498854 74.710774 
L 127.576339 75.711032 
L 126.653825 76.711291 
L 125.73131 77.71155 
L 124.808795 78.711809 
L 123.482157 80.073366 
L 122.155519 81.434923 
L 120.82888 82.79648 
L 119.502242 84.158037 
L 118.175604 85.519594 
L 116.848966 86.881151 
L 115.522328 88.242708 
L 114.19569 89.604265 
L 113.152538 90.728363 
L 112.109387 91.852461 
L 111.066235 92.976559 
L 110.023084 94.100656 
L 108.979933 95.224754 
L 107.936781 96.348852 
L 106.89363 97.47295 
L 105.850479 98.597048 
L 105.17788 99.298467 
L 104.505281 99.999885 
L 103.832682 100.701303 
L 103.160083 101.402722 
L 102.487484 102.10414 
L 101.814886 102.805558 
L 101.142287 103.506976 
L 100.469688 104.208395 
L 99.797089 104.909813 
L 99.12449 105.611231 
L 98.451892 106.31265 
L 97.779293 107.014068 
L 97.106694 107.715486 
L 96.434095 108.416905 
L 95.761496 109.118323 
L 95.088897 109.819741 
L 94.353251 110.584424 
L 93.617605 111.349106 
L 92.881958 112.113788 
L 92.146312 112.878471 
L 91.410665 113.643153 
L 90.675019 114.407836 
L 89.939372 115.172518 
L 89.203726 115.937201 
L 88.333068 116.413194 
L 87.462411 116.889188 
L 86.591754 117.365181 
L 85.721096 117.841175 
L 84.850439 118.317169 
L 83.979781 118.793162 
L 83.109124 119.269156 
L 82.238466 119.74515 
L 80.924747 120.503512 
L 79.611027 121.261875 
L 78.577884 121.858077 
L 77.54474 122.454279 
L 76.511596 123.050482 
L 75.478452 123.646684 
L 74.19421 124.672087 
L 72.909967 125.69749 
L 71.625725 126.722894 
L 70.341482 127.748297 
L 70.01287 128.729328 
L 69.684259 129.710359 
L 69.355647 130.69139 
L 69.027035 131.672421 
" style="fill:none;stroke:#4169e1;stroke-linecap:square;stroke-width:1.5;"/>
   </g>
   <g id="line2d_29">
    <path clip-path="url(#p869d1a5c08)" d="M 45.599889 91.971862 
L 45.467062 93.030074 
L 45.334234 94.088286 
L 45.201407 95.146498 
L 45.068579 96.20471 
L 45.053659 97.257812 
L 45.038738 98.310914 
L 45.023818 99.364017 
L 45.008898 100.417119 
L 45.548942 102.176951 
L 46.088986 103.936783 
L 46.734564 105.062225 
L 47.380143 106.187668 
L 48.025721 107.31311 
L 48.6713 108.438553 
L 49.268114 109.492731 
L 50.080364 110.927166 
L 50.892613 112.361601 
L 51.538192 113.313857 
L 52.18377 114.266113 
L 52.829349 115.218369 
L 53.474927 116.170626 
L 54.766084 117.526535 
L 56.057241 118.882445 
L 57.167898 119.401735 
L 58.278555 119.921025 
L 59.389211 120.440315 
L 60.499868 120.959606 
L 61.46205 122.141253 
L 62.424231 123.322901 
" style="fill:none;stroke:#4169e1;stroke-linecap:square;stroke-width:1.5;"/>
   </g>
   <g id="line2d_30">
    <path clip-path="url(#p869d1a5c08)" d="M 37.388598 135.509413 
L 38.748898 135.604343 
L 40.109198 135.699273 
L 41.469498 135.794203 
L 42.829798 135.889132 
L 44.190097 135.984062 
L 45.550397 136.078992 
L 46.910697 136.173922 
L 48.270997 136.268852 
L 49.837271 135.867619 
L 51.403545 135.466386 
L 52.969818 135.065153 
L 54.536092 134.663919 
" style="fill:none;stroke:#008000;stroke-linecap:square;stroke-width:1.5;"/>
   </g>
   <g id="line2d_31">
    <path clip-path="url(#p869d1a5c08)" d="M 22.821961 66.022948 
L 23.906417 66.665271 
L 24.990872 67.307593 
L 26.075327 67.949916 
L 27.159782 68.592238 
L 28.244238 69.234561 
L 29.328693 69.876883 
L 30.413148 70.519206 
L 31.497604 71.161528 
L 32.632643 71.84513 
L 33.767682 72.528733 
L 34.90272 73.212335 
L 36.037759 73.895937 
L 36.948993 74.747347 
L 37.860227 75.598757 
L 38.751809 76.505565 
L 39.643391 77.412374 
L 40.534974 78.319182 
L 41.426556 79.22599 
L 42.15729 79.949393 
L 42.888023 80.672795 
L 43.618757 81.396198 
L 44.349491 82.119601 
L 45.131172 83.344276 
L 45.912853 84.568951 
L 46.106454 85.516636 
L 46.300054 86.46432 
L 46.125013 87.841206 
L 45.949972 89.218091 
L 45.774931 90.594977 
L 45.599889 91.971862 
" style="fill:none;stroke:#008000;stroke-linecap:square;stroke-width:1.5;"/>
   </g>
   <g id="line2d_32">
    <path clip-path="url(#p869d1a5c08)" d="M 16.39529 47.052047 
L 15.996443 48.07503 
L 15.597597 49.098013 
L 15.980067 50.24739 
L 16.362538 51.396767 
L 16.745009 52.546143 
L 17.127479 53.69552 
L 17.610026 54.68798 
L 18.092572 55.680441 
L 18.575118 56.672901 
L 19.057664 57.665361 
L 19.54021 58.657821 
L 20.022757 59.650281 
L 20.505303 60.642741 
L 20.987849 61.635202 
L 21.446377 62.732138 
L 21.904905 63.829075 
L 22.363433 64.926012 
L 22.821961 66.022948 
L 23.565432 67.479166 
L 24.308902 68.935384 
L 25.052373 70.391602 
L 25.795843 71.84782 
L 26.539314 73.304038 
L 27.282784 74.760255 
L 28.026255 76.216473 
L 28.769725 77.672691 
L 29.403841 78.661655 
L 30.037956 79.650619 
L 30.672071 80.639583 
L 31.306186 81.628548 
L 31.940302 82.617512 
L 32.574417 83.606476 
L 33.208532 84.59544 
L 33.842647 85.584404 
L 35.118702 86.291268 
L 36.394756 86.998132 
L 37.670811 87.704996 
L 38.946865 88.41186 
L 40.22292 89.118724 
L 41.498974 89.825588 
L 42.775029 90.532452 
L 44.051083 91.239316 
L 45.599889 91.971862 
L 46.502025 92.442881 
L 47.404161 92.913899 
L 48.306297 93.384918 
L 49.208433 93.855937 
L 50.110568 94.326955 
L 51.012704 94.797974 
L 51.91484 95.268992 
L 52.816976 95.740011 
L 54.228223 96.894228 
L 55.639471 98.048445 
L 57.050718 99.202663 
L 58.461966 100.35688 
L 59.272396 101.770608 
L 60.082826 103.184336 
L 60.893256 104.598064 
L 61.703687 106.011792 
L 61.763732 107.310152 
L 61.823777 108.608512 
L 61.883823 109.906872 
L 61.943868 111.205232 
L 61.943868 112.676779 
L 61.943868 114.148325 
L 61.943868 115.619871 
L 61.943868 117.091418 
L 62.063959 118.649289 
L 62.184049 120.207159 
L 62.30414 121.76503 
L 62.424231 123.322901 
L 63.294706 124.881578 
L 64.165182 126.440255 
L 65.035657 127.998933 
L 65.906133 129.55761 
L 66.272591 130.520086 
L 66.63905 131.482561 
L 67.005508 132.445036 
L 67.371967 133.407511 
" style="fill:none;stroke:#008000;stroke-linecap:square;stroke-width:1.5;"/>
   </g>
   <g id="line2d_33">
    <path clip-path="url(#p869d1a5c08)" d="M 30.76687 122.273025 
L 32.147549 122.629617 
L 33.528228 122.986209 
L 34.5026 123.555788 
L 35.476972 124.125367 
L 36.451344 124.694946 
L 37.425717 125.264524 
L 38.400089 125.834103 
L 39.374461 126.403682 
L 40.348833 126.973261 
L 41.323205 127.54284 
L 42.297577 128.112418 
L 43.27195 128.681997 
L 44.246322 129.251576 
L 45.220694 129.821155 
L 46.195066 130.390734 
L 47.169438 130.960313 
L 48.14381 131.529891 
L 49.118183 132.09947 
L 50.47266 132.740582 
L 51.827137 133.381695 
L 53.181615 134.022807 
L 54.536092 134.663919 
L 55.801047 135.269534 
L 57.066003 135.875148 
L 58.330958 136.480763 
L 59.595913 137.086377 
" style="fill:none;stroke:#008000;stroke-linecap:square;stroke-width:1.5;"/>
   </g>
   <g id="line2d_34">
    <path clip-path="url(#p869d1a5c08)" d="M 30.616939 122.923819 
L 31.047627 123.913724 
L 31.478316 124.90363 
L 31.909005 125.893535 
L 32.339694 126.883441 
L 32.770383 127.873346 
L 33.201072 128.863251 
L 33.631761 129.853157 
L 34.06245 130.843062 
L 34.893987 132.00965 
L 35.725524 133.176238 
L 36.557061 134.342825 
L 37.388598 135.509413 
L 38.060014 136.590752 
L 38.73143 137.672092 
L 39.402846 138.753431 
L 40.074262 139.83477 
L 40.745678 140.916109 
L 41.417094 141.997448 
L 42.08851 143.078788 
L 42.759927 144.160127 
L 43.910614 145.569014 
L 45.061301 146.977902 
L 46.211988 148.386789 
L 47.362675 149.795676 
L 48.513362 151.204564 
L 49.664049 152.613451 
L 50.814736 154.022338 
L 51.965424 155.431226 
" style="fill:none;stroke:#008000;stroke-linecap:square;stroke-width:1.5;"/>
   </g>
   <g id="line2d_35">
    <path clip-path="url(#p869d1a5c08)" d="M 16.39529 47.052047 
L 17.225371 46.07021 
L 18.055453 45.088372 
L 18.885534 44.106534 
L 19.715616 43.124697 
L 20.619935 42.595994 
L 21.524254 42.067292 
L 22.428573 41.538589 
L 23.332893 41.009887 
L 24.619046 40.42471 
L 25.905199 39.839534 
L 27.191352 39.254357 
L 28.477505 38.669181 
L 29.763658 38.084005 
L 31.049811 37.498828 
L 32.335964 36.913652 
L 33.622117 36.328476 
L 34.90827 35.743299 
L 36.194423 35.158123 
L 37.480576 34.572947 
L 38.766729 33.98777 
L 40.052882 33.402594 
L 41.339035 32.817418 
L 42.625188 32.232241 
L 43.911342 31.647065 
L 45.177752 31.41364 
L 46.444163 31.180215 
L 47.710574 30.946789 
L 48.976985 30.713364 
L 50.646609 31.357166 
L 52.316234 32.000967 
L 53.338097 32.962636 
L 54.359959 33.924304 
L 55.381822 34.885973 
L 56.403684 35.847641 
L 57.014873 36.606744 
L 57.626062 37.365846 
L 58.237251 38.124948 
L 58.848439 38.884051 
L 59.459628 39.643153 
L 60.070817 40.402255 
L 60.682006 41.161357 
L 61.293195 41.92046 
L 61.904384 42.679562 
L 62.515572 43.438664 
L 63.126761 44.197766 
L 63.73795 44.956869 
L 64.349139 45.715971 
L 64.960328 46.475073 
L 65.571516 47.234176 
L 66.182705 47.993278 
L 66.717655 49.092904 
L 67.252604 50.19253 
L 67.787554 51.292156 
L 68.322503 52.391782 
L 68.76884 53.645097 
L 69.215177 54.898413 
L 69.661514 56.151728 
L 70.107851 57.405043 
L 70.554188 58.658359 
L 71.000525 59.911674 
L 71.446862 61.16499 
L 71.893199 62.418305 
L 72.128741 64.235888 
L 72.364282 66.053471 
L 72.599824 67.871054 
L 72.835365 69.688637 
L 73.070907 71.50622 
L 73.306448 73.323803 
L 73.54199 75.141386 
L 73.777531 76.958969 
L 74.013073 78.776552 
L 74.248614 80.594135 
L 74.484156 82.411719 
L 74.719697 84.229302 
L 74.955239 86.046885 
L 75.19078 87.864468 
L 75.426322 89.682051 
L 75.661863 91.499634 
" style="fill:none;stroke:#008000;stroke-linecap:square;stroke-width:1.5;"/>
   </g>
   <g id="line2d_36">
    <path clip-path="url(#p869d1a5c08)" d="M 28.769725 77.672691 
L 27.800266 78.985573 
L 26.830807 80.298455 
L 25.861347 81.611337 
L 24.891888 82.924218 
L 23.800882 83.288878 
L 22.709877 83.653537 
L 21.404891 83.822959 
L 20.099906 83.99238 
L 18.615512 83.999103 
L 17.131118 84.005827 
L 15.646725 84.01255 
L 14.162331 84.019273 
L 12.409735 84.331223 
L 11.638971 85.1111 
L 10.868207 85.890976 
L 10.345631 86.964517 
L 9.823054 88.038057 
L 9.886375 89.003491 
L 9.949695 89.968924 
L 10.296503 91.291218 
L 10.64331 92.613513 
L 10.990117 93.935807 
L 11.336925 95.258101 
L 12.204489 96.170288 
L 13.072053 97.082474 
L 14.023408 97.549862 
L 14.974763 98.01725 
L 15.926118 98.484639 
L 16.877472 98.952027 
L 17.828827 99.419415 
L 18.780182 99.886803 
L 19.731537 100.354191 
L 20.682891 100.821579 
L 21.634246 101.288967 
L 22.585601 101.756355 
L 23.536956 102.223743 
L 24.488311 102.691131 
L 25.439665 103.158519 
L 26.39102 103.625908 
L 27.342375 104.093296 
L 28.29373 104.560684 
L 29.232257 104.979935 
L 30.170784 105.399186 
L 31.10931 105.818436 
L 32.047837 106.237687 
L 33.303331 106.563622 
L 34.558824 106.889557 
L 35.814318 107.215491 
L 37.069812 107.541426 
L 38.325305 107.86736 
L 39.580799 108.193295 
L 40.836292 108.51923 
L 42.091786 108.845164 
L 43.885868 109.007056 
L 45.67995 109.168948 
L 47.474032 109.330839 
L 49.268114 109.492731 
" style="fill:none;stroke:#4169e1;stroke-linecap:square;stroke-width:1.5;"/>
   </g>
   <g id="text_1">
    <g id="patch_2">
     <path d="M 152.52839 122.20842 
L 164.898646 104.540729 
L 163.280275 103.407606 
L 150.910019 121.075297 
z
" style="fill:#ffffff;"/>
    </g>
    <!-- Expert's Choice Quad -->
    <g style="fill:#808080;" transform="translate(152.182755 121.942004)rotate(-55.00173)scale(0.02 -0.02)">
     <defs>
      <path d="M 628 4666 
L 3578 4666 
L 3578 4134 
L 1259 4134 
L 1259 2753 
L 3481 2753 
L 3481 2222 
L 1259 2222 
L 1259 531 
L 3634 531 
L 3634 0 
L 628 0 
L 628 4666 
z
" id="DejaVuSans-45" transform="scale(0.015625)"/>
      <path d="M 3513 3500 
L 2247 1797 
L 3578 0 
L 2900 0 
L 1881 1375 
L 863 0 
L 184 0 
L 1544 1831 
L 300 3500 
L 978 3500 
L 1906 2253 
L 2834 3500 
L 3513 3500 
z
" id="DejaVuSans-78" transform="scale(0.015625)"/>
      <path d="M 1159 525 
L 1159 -1331 
L 581 -1331 
L 581 3500 
L 1159 3500 
L 1159 2969 
Q 1341 3281 1617 3432 
Q 1894 3584 2278 3584 
Q 2916 3584 3314 3078 
Q 3713 2572 3713 1747 
Q 3713 922 3314 415 
Q 2916 -91 2278 -91 
Q 1894 -91 1617 61 
Q 1341 213 1159 525 
z
M 3116 1747 
Q 3116 2381 2855 2742 
Q 2594 3103 2138 3103 
Q 1681 3103 1420 2742 
Q 1159 2381 1159 1747 
Q 1159 1113 1420 752 
Q 1681 391 2138 391 
Q 2594 391 2855 752 
Q 3116 1113 3116 1747 
z
" id="DejaVuSans-70" transform="scale(0.015625)"/>
      <path d="M 3597 1894 
L 3597 1613 
L 953 1613 
Q 991 1019 1311 708 
Q 1631 397 2203 397 
Q 2534 397 2845 478 
Q 3156 559 3463 722 
L 3463 178 
Q 3153 47 2828 -22 
Q 2503 -91 2169 -91 
Q 1331 -91 842 396 
Q 353 884 353 1716 
Q 353 2575 817 3079 
Q 1281 3584 2069 3584 
Q 2775 3584 3186 3129 
Q 3597 2675 3597 1894 
z
M 3022 2063 
Q 3016 2534 2758 2815 
Q 2500 3097 2075 3097 
Q 1594 3097 1305 2825 
Q 1016 2553 972 2059 
L 3022 2063 
z
" id="DejaVuSans-65" transform="scale(0.015625)"/>
      <path d="M 2631 2963 
Q 2534 3019 2420 3045 
Q 2306 3072 2169 3072 
Q 1681 3072 1420 2755 
Q 1159 2438 1159 1844 
L 1159 0 
L 581 0 
L 581 3500 
L 1159 3500 
L 1159 2956 
Q 1341 3275 1631 3429 
Q 1922 3584 2338 3584 
Q 2397 3584 2469 3576 
Q 2541 3569 2628 3553 
L 2631 2963 
z
" id="DejaVuSans-72" transform="scale(0.015625)"/>
      <path d="M 1172 4494 
L 1172 3500 
L 2356 3500 
L 2356 3053 
L 1172 3053 
L 1172 1153 
Q 1172 725 1289 603 
Q 1406 481 1766 481 
L 2356 481 
L 2356 0 
L 1766 0 
Q 1100 0 847 248 
Q 594 497 594 1153 
L 594 3053 
L 172 3053 
L 172 3500 
L 594 3500 
L 594 4494 
L 1172 4494 
z
" id="DejaVuSans-74" transform="scale(0.015625)"/>
      <path d="M 1147 4666 
L 1147 2931 
L 616 2931 
L 616 4666 
L 1147 4666 
z
" id="DejaVuSans-27" transform="scale(0.015625)"/>
      <path d="M 2834 3397 
L 2834 2853 
Q 2591 2978 2328 3040 
Q 2066 3103 1784 3103 
Q 1356 3103 1142 2972 
Q 928 2841 928 2578 
Q 928 2378 1081 2264 
Q 1234 2150 1697 2047 
L 1894 2003 
Q 2506 1872 2764 1633 
Q 3022 1394 3022 966 
Q 3022 478 2636 193 
Q 2250 -91 1575 -91 
Q 1294 -91 989 -36 
Q 684 19 347 128 
L 347 722 
Q 666 556 975 473 
Q 1284 391 1588 391 
Q 1994 391 2212 530 
Q 2431 669 2431 922 
Q 2431 1156 2273 1281 
Q 2116 1406 1581 1522 
L 1381 1569 
Q 847 1681 609 1914 
Q 372 2147 372 2553 
Q 372 3047 722 3315 
Q 1072 3584 1716 3584 
Q 2034 3584 2315 3537 
Q 2597 3491 2834 3397 
z
" id="DejaVuSans-73" transform="scale(0.015625)"/>
      <path id="DejaVuSans-20" transform="scale(0.015625)"/>
      <path d="M 4122 4306 
L 4122 3641 
Q 3803 3938 3442 4084 
Q 3081 4231 2675 4231 
Q 1875 4231 1450 3742 
Q 1025 3253 1025 2328 
Q 1025 1406 1450 917 
Q 1875 428 2675 428 
Q 3081 428 3442 575 
Q 3803 722 4122 1019 
L 4122 359 
Q 3791 134 3420 21 
Q 3050 -91 2638 -91 
Q 1578 -91 968 557 
Q 359 1206 359 2328 
Q 359 3453 968 4101 
Q 1578 4750 2638 4750 
Q 3056 4750 3426 4639 
Q 3797 4528 4122 4306 
z
" id="DejaVuSans-43" transform="scale(0.015625)"/>
      <path d="M 3513 2113 
L 3513 0 
L 2938 0 
L 2938 2094 
Q 2938 2591 2744 2837 
Q 2550 3084 2163 3084 
Q 1697 3084 1428 2787 
Q 1159 2491 1159 1978 
L 1159 0 
L 581 0 
L 581 4863 
L 1159 4863 
L 1159 2956 
Q 1366 3272 1645 3428 
Q 1925 3584 2291 3584 
Q 2894 3584 3203 3211 
Q 3513 2838 3513 2113 
z
" id="DejaVuSans-68" transform="scale(0.015625)"/>
      <path d="M 1959 3097 
Q 1497 3097 1228 2736 
Q 959 2375 959 1747 
Q 959 1119 1226 758 
Q 1494 397 1959 397 
Q 2419 397 2687 759 
Q 2956 1122 2956 1747 
Q 2956 2369 2687 2733 
Q 2419 3097 1959 3097 
z
M 1959 3584 
Q 2709 3584 3137 3096 
Q 3566 2609 3566 1747 
Q 3566 888 3137 398 
Q 2709 -91 1959 -91 
Q 1206 -91 779 398 
Q 353 888 353 1747 
Q 353 2609 779 3096 
Q 1206 3584 1959 3584 
z
" id="DejaVuSans-6f" transform="scale(0.015625)"/>
      <path d="M 603 3500 
L 1178 3500 
L 1178 0 
L 603 0 
L 603 3500 
z
M 603 4863 
L 1178 4863 
L 1178 4134 
L 603 4134 
L 603 4863 
z
" id="DejaVuSans-69" transform="scale(0.015625)"/>
      <path d="M 3122 3366 
L 3122 2828 
Q 2878 2963 2633 3030 
Q 2388 3097 2138 3097 
Q 1578 3097 1268 2742 
Q 959 2388 959 1747 
Q 959 1106 1268 751 
Q 1578 397 2138 397 
Q 2388 397 2633 464 
Q 2878 531 3122 666 
L 3122 134 
Q 2881 22 2623 -34 
Q 2366 -91 2075 -91 
Q 1284 -91 818 406 
Q 353 903 353 1747 
Q 353 2603 823 3093 
Q 1294 3584 2113 3584 
Q 2378 3584 2631 3529 
Q 2884 3475 3122 3366 
z
" id="DejaVuSans-63" transform="scale(0.015625)"/>
      <path d="M 2522 4238 
Q 1834 4238 1429 3725 
Q 1025 3213 1025 2328 
Q 1025 1447 1429 934 
Q 1834 422 2522 422 
Q 3209 422 3611 934 
Q 4013 1447 4013 2328 
Q 4013 3213 3611 3725 
Q 3209 4238 2522 4238 
z
M 3406 84 
L 4238 -825 
L 3475 -825 
L 2784 -78 
Q 2681 -84 2626 -87 
Q 2572 -91 2522 -91 
Q 1538 -91 948 567 
Q 359 1225 359 2328 
Q 359 3434 948 4092 
Q 1538 4750 2522 4750 
Q 3503 4750 4090 4092 
Q 4678 3434 4678 2328 
Q 4678 1516 4351 937 
Q 4025 359 3406 84 
z
" id="DejaVuSans-51" transform="scale(0.015625)"/>
      <path d="M 544 1381 
L 544 3500 
L 1119 3500 
L 1119 1403 
Q 1119 906 1312 657 
Q 1506 409 1894 409 
Q 2359 409 2629 706 
Q 2900 1003 2900 1516 
L 2900 3500 
L 3475 3500 
L 3475 0 
L 2900 0 
L 2900 538 
Q 2691 219 2414 64 
Q 2138 -91 1772 -91 
Q 1169 -91 856 284 
Q 544 659 544 1381 
z
M 1991 3584 
L 1991 3584 
z
" id="DejaVuSans-75" transform="scale(0.015625)"/>
      <path d="M 2194 1759 
Q 1497 1759 1228 1600 
Q 959 1441 959 1056 
Q 959 750 1161 570 
Q 1363 391 1709 391 
Q 2188 391 2477 730 
Q 2766 1069 2766 1631 
L 2766 1759 
L 2194 1759 
z
M 3341 1997 
L 3341 0 
L 2766 0 
L 2766 531 
Q 2569 213 2275 61 
Q 1981 -91 1556 -91 
Q 1019 -91 701 211 
Q 384 513 384 1019 
Q 384 1609 779 1909 
Q 1175 2209 1959 2209 
L 2766 2209 
L 2766 2266 
Q 2766 2663 2505 2880 
Q 2244 3097 1772 3097 
Q 1472 3097 1187 3025 
Q 903 2953 641 2809 
L 641 3341 
Q 956 3463 1253 3523 
Q 1550 3584 1831 3584 
Q 2591 3584 2966 3190 
Q 3341 2797 3341 1997 
z
" id="DejaVuSans-61" transform="scale(0.015625)"/>
      <path d="M 2906 2969 
L 2906 4863 
L 3481 4863 
L 3481 0 
L 2906 0 
L 2906 525 
Q 2725 213 2448 61 
Q 2172 -91 1784 -91 
Q 1150 -91 751 415 
Q 353 922 353 1747 
Q 353 2572 751 3078 
Q 1150 3584 1784 3584 
Q 2172 3584 2448 3432 
Q 2725 3281 2906 2969 
z
M 947 1747 
Q 947 1113 1208 752 
Q 1469 391 1925 391 
Q 2381 391 2643 752 
Q 2906 1113 2906 1747 
Q 2906 2381 2643 2742 
Q 2381 3103 1925 3103 
Q 1469 3103 1208 2742 
Q 947 2381 947 1747 
z
" id="DejaVuSans-64" transform="scale(0.015625)"/>
     </defs>
     <use xlink:href="#DejaVuSans-45"/>
     <use x="63.183594" xlink:href="#DejaVuSans-78"/>
     <use x="122.363281" xlink:href="#DejaVuSans-70"/>
     <use x="185.839844" xlink:href="#DejaVuSans-65"/>
     <use x="247.363281" xlink:href="#DejaVuSans-72"/>
     <use x="288.476562" xlink:href="#DejaVuSans-74"/>
     <use x="327.685547" xlink:href="#DejaVuSans-27"/>
     <use x="355.175781" xlink:href="#DejaVuSans-73"/>
     <use x="407.275391" xlink:href="#DejaVuSans-20"/>
     <use x="439.0625" xlink:href="#DejaVuSans-43"/>
     <use x="508.886719" xlink:href="#DejaVuSans-68"/>
     <use x="572.265625" xlink:href="#DejaVuSans-6f"/>
     <use x="633.447266" xlink:href="#DejaVuSans-69"/>
     <use x="661.230469" xlink:href="#DejaVuSans-63"/>
     <use x="716.210938" xlink:href="#DejaVuSans-65"/>
     <use x="777.734375" xlink:href="#DejaVuSans-20"/>
     <use x="809.521484" xlink:href="#DejaVuSans-51"/>
     <use x="888.232422" xlink:href="#DejaVuSans-75"/>
     <use x="951.611328" xlink:href="#DejaVuSans-61"/>
     <use x="1012.890625" xlink:href="#DejaVuSans-64"/>
    </g>
   </g>
   <g id="text_2">
    <g id="patch_3">
     <path d="M 82.340048 126.754119 
L 95.377296 107.330343 
L 93.736917 106.22932 
L 80.699669 125.653096 
z
" style="fill:#ffffff;"/>
    </g>
    <!-- Whitetail Express Quad -->
    <g style="fill:#808080;" transform="translate(81.989231 126.494564)rotate(-56.130469)scale(0.02 -0.02)">
     <defs>
      <path d="M 213 4666 
L 850 4666 
L 1831 722 
L 2809 4666 
L 3519 4666 
L 4500 722 
L 5478 4666 
L 6119 4666 
L 4947 0 
L 4153 0 
L 3169 4050 
L 2175 0 
L 1381 0 
L 213 4666 
z
" id="DejaVuSans-57" transform="scale(0.015625)"/>
      <path d="M 603 4863 
L 1178 4863 
L 1178 0 
L 603 0 
L 603 4863 
z
" id="DejaVuSans-6c" transform="scale(0.015625)"/>
     </defs>
     <use xlink:href="#DejaVuSans-57"/>
     <use x="98.876953" xlink:href="#DejaVuSans-68"/>
     <use x="162.255859" xlink:href="#DejaVuSans-69"/>
     <use x="190.039062" xlink:href="#DejaVuSans-74"/>
     <use x="229.248047" xlink:href="#DejaVuSans-65"/>
     <use x="290.771484" xlink:href="#DejaVuSans-74"/>
     <use x="329.980469" xlink:href="#DejaVuSans-61"/>
     <use x="391.259766" xlink:href="#DejaVuSans-69"/>
     <use x="419.042969" xlink:href="#DejaVuSans-6c"/>
     <use x="446.826172" xlink:href="#DejaVuSans-20"/>
     <use x="478.613281" xlink:href="#DejaVuSans-45"/>
     <use x="541.796875" xlink:href="#DejaVuSans-78"/>
     <use x="600.976562" xlink:href="#DejaVuSans-70"/>
     <use x="664.453125" xlink:href="#DejaVuSans-72"/>
     <use x="703.316406" xlink:href="#DejaVuSans-65"/>
     <use x="764.839844" xlink:href="#DejaVuSans-73"/>
     <use x="816.939453" xlink:href="#DejaVuSans-73"/>
     <use x="869.039062" xlink:href="#DejaVuSans-20"/>
     <use x="900.826172" xlink:href="#DejaVuSans-51"/>
     <use x="979.537109" xlink:href="#DejaVuSans-75"/>
     <use x="1042.916016" xlink:href="#DejaVuSans-61"/>
     <use x="1104.195312" xlink:href="#DejaVuSans-64"/>
    </g>
   </g>
   <g id="text_3">
    <g id="patch_4">
     <path d="M 54.321886 114.974579 
L 60.006106 128.368315 
L 61.824731 127.596501 
L 56.140511 114.202766 
z
" style="fill:#ffffff;"/>
    </g>
    <!-- EZ Rider Quad -->
    <g style="fill:#808080;" transform="translate(54.730994 114.822683)rotate(-292.996073)scale(0.02 -0.02)">
     <defs>
      <path d="M 359 4666 
L 4025 4666 
L 4025 4184 
L 1075 531 
L 4097 531 
L 4097 0 
L 288 0 
L 288 481 
L 3238 4134 
L 359 4134 
L 359 4666 
z
" id="DejaVuSans-5a" transform="scale(0.015625)"/>
      <path d="M 2841 2188 
Q 3044 2119 3236 1894 
Q 3428 1669 3622 1275 
L 4263 0 
L 3584 0 
L 2988 1197 
Q 2756 1666 2539 1819 
Q 2322 1972 1947 1972 
L 1259 1972 
L 1259 0 
L 628 0 
L 628 4666 
L 2053 4666 
Q 2853 4666 3247 4331 
Q 3641 3997 3641 3322 
Q 3641 2881 3436 2590 
Q 3231 2300 2841 2188 
z
M 1259 4147 
L 1259 2491 
L 2053 2491 
Q 2509 2491 2742 2702 
Q 2975 2913 2975 3322 
Q 2975 3731 2742 3939 
Q 2509 4147 2053 4147 
L 1259 4147 
z
" id="DejaVuSans-52" transform="scale(0.015625)"/>
     </defs>
     <use xlink:href="#DejaVuSans-45"/>
     <use x="63.183594" xlink:href="#DejaVuSans-5a"/>
     <use x="131.689453" xlink:href="#DejaVuSans-20"/>
     <use x="163.476562" xlink:href="#DejaVuSans-52"/>
     <use x="232.958984" xlink:href="#DejaVuSans-69"/>
     <use x="260.742188" xlink:href="#DejaVuSans-64"/>
     <use x="324.21875" xlink:href="#DejaVuSans-65"/>
     <use x="385.742188" xlink:href="#DejaVuSans-72"/>
     <use x="426.855469" xlink:href="#DejaVuSans-20"/>
     <use x="458.642578" xlink:href="#DejaVuSans-51"/>
     <use x="537.353516" xlink:href="#DejaVuSans-75"/>
     <use x="600.732422" xlink:href="#DejaVuSans-61"/>
     <use x="662.011719" xlink:href="#DejaVuSans-64"/>
    </g>
   </g>
   <g id="text_4">
    <g id="patch_5">
     <path d="M 43.125832 124.953439 
L 53.649919 132.421135 
L 54.793203 130.809926 
L 44.269116 123.34223 
z
" style="fill:#ffffff;"/>
    </g>
    <!-- U-Me Double -->
    <g style="fill:#808080;" transform="translate(43.394417 124.609487)rotate(-324.641197)scale(0.02 -0.02)">
     <defs>
      <path d="M 556 4666 
L 1191 4666 
L 1191 1831 
Q 1191 1081 1462 751 
Q 1734 422 2344 422 
Q 2950 422 3222 751 
Q 3494 1081 3494 1831 
L 3494 4666 
L 4128 4666 
L 4128 1753 
Q 4128 841 3676 375 
Q 3225 -91 2344 -91 
Q 1459 -91 1007 375 
Q 556 841 556 1753 
L 556 4666 
z
" id="DejaVuSans-55" transform="scale(0.015625)"/>
      <path d="M 313 2009 
L 1997 2009 
L 1997 1497 
L 313 1497 
L 313 2009 
z
" id="DejaVuSans-2d" transform="scale(0.015625)"/>
      <path d="M 628 4666 
L 1569 4666 
L 2759 1491 
L 3956 4666 
L 4897 4666 
L 4897 0 
L 4281 0 
L 4281 4097 
L 3078 897 
L 2444 897 
L 1241 4097 
L 1241 0 
L 628 0 
L 628 4666 
z
" id="DejaVuSans-4d" transform="scale(0.015625)"/>
      <path d="M 1259 4147 
L 1259 519 
L 2022 519 
Q 2988 519 3436 956 
Q 3884 1394 3884 2338 
Q 3884 3275 3436 3711 
Q 2988 4147 2022 4147 
L 1259 4147 
z
M 628 4666 
L 1925 4666 
Q 3281 4666 3915 4102 
Q 4550 3538 4550 2338 
Q 4550 1131 3912 565 
Q 3275 0 1925 0 
L 628 0 
L 628 4666 
z
" id="DejaVuSans-44" transform="scale(0.015625)"/>
      <path d="M 3116 1747 
Q 3116 2381 2855 2742 
Q 2594 3103 2138 3103 
Q 1681 3103 1420 2742 
Q 1159 2381 1159 1747 
Q 1159 1113 1420 752 
Q 1681 391 2138 391 
Q 2594 391 2855 752 
Q 3116 1113 3116 1747 
z
M 1159 2969 
Q 1341 3281 1617 3432 
Q 1894 3584 2278 3584 
Q 2916 3584 3314 3078 
Q 3713 2572 3713 1747 
Q 3713 922 3314 415 
Q 2916 -91 2278 -91 
Q 1894 -91 1617 61 
Q 1341 213 1159 525 
L 1159 0 
L 581 0 
L 581 4863 
L 1159 4863 
L 1159 2969 
z
" id="DejaVuSans-62" transform="scale(0.015625)"/>
     </defs>
     <use xlink:href="#DejaVuSans-55"/>
     <use x="73.193359" xlink:href="#DejaVuSans-2d"/>
     <use x="109.277344" xlink:href="#DejaVuSans-4d"/>
     <use x="195.556641" xlink:href="#DejaVuSans-65"/>
     <use x="257.080078" xlink:href="#DejaVuSans-20"/>
     <use x="288.867188" xlink:href="#DejaVuSans-44"/>
     <use x="365.869141" xlink:href="#DejaVuSans-6f"/>
     <use x="427.050781" xlink:href="#DejaVuSans-75"/>
     <use x="490.429688" xlink:href="#DejaVuSans-62"/>
     <use x="553.90625" xlink:href="#DejaVuSans-6c"/>
     <use x="581.689453" xlink:href="#DejaVuSans-65"/>
    </g>
   </g>
   <g id="text_5">
    <g id="patch_6">
     <path d="M 38.344248 141.131435 
L 43.83803 152.641624 
L 45.620977 151.790629 
L 40.127195 140.280439 
z
" style="fill:#ffffff;"/>
    </g>
    <!-- Lift Off Quad -->
    <g style="fill:#808080;" transform="translate(38.746284 140.961705)rotate(-295.515017)scale(0.02 -0.02)">
     <defs>
      <path d="M 628 4666 
L 1259 4666 
L 1259 531 
L 3531 531 
L 3531 0 
L 628 0 
L 628 4666 
z
" id="DejaVuSans-4c" transform="scale(0.015625)"/>
      <path d="M 2375 4863 
L 2375 4384 
L 1825 4384 
Q 1516 4384 1395 4259 
Q 1275 4134 1275 3809 
L 1275 3500 
L 2222 3500 
L 2222 3053 
L 1275 3053 
L 1275 0 
L 697 0 
L 697 3053 
L 147 3053 
L 147 3500 
L 697 3500 
L 697 3744 
Q 697 4328 969 4595 
Q 1241 4863 1831 4863 
L 2375 4863 
z
" id="DejaVuSans-66" transform="scale(0.015625)"/>
      <path d="M 2522 4238 
Q 1834 4238 1429 3725 
Q 1025 3213 1025 2328 
Q 1025 1447 1429 934 
Q 1834 422 2522 422 
Q 3209 422 3611 934 
Q 4013 1447 4013 2328 
Q 4013 3213 3611 3725 
Q 3209 4238 2522 4238 
z
M 2522 4750 
Q 3503 4750 4090 4092 
Q 4678 3434 4678 2328 
Q 4678 1225 4090 567 
Q 3503 -91 2522 -91 
Q 1538 -91 948 565 
Q 359 1222 359 2328 
Q 359 3434 948 4092 
Q 1538 4750 2522 4750 
z
" id="DejaVuSans-4f" transform="scale(0.015625)"/>
     </defs>
     <use xlink:href="#DejaVuSans-4c"/>
     <use x="55.712891" xlink:href="#DejaVuSans-69"/>
     <use x="83.496094" xlink:href="#DejaVuSans-66"/>
     <use x="116.951172" xlink:href="#DejaVuSans-74"/>
     <use x="156.160156" xlink:href="#DejaVuSans-20"/>
     <use x="187.947266" xlink:href="#DejaVuSans-4f"/>
     <use x="266.658203" xlink:href="#DejaVuSans-66"/>
     <use x="301.863281" xlink:href="#DejaVuSans-66"/>
     <use x="337.068359" xlink:href="#DejaVuSans-20"/>
     <use x="368.855469" xlink:href="#DejaVuSans-51"/>
     <use x="447.566406" xlink:href="#DejaVuSans-75"/>
     <use x="510.945312" xlink:href="#DejaVuSans-61"/>
     <use x="572.224609" xlink:href="#DejaVuSans-64"/>
    </g>
   </g>
   <g id="text_6">
    <g id="patch_7">
     <path d="M 93.958499 129.303294 
L 107.837525 116.519479 
L 106.499059 115.066343 
L 92.620032 127.850159 
z
" style="fill:#ffffff;"/>
    </g>
    <!-- Jib Junction Double -->
    <g style="fill:#808080;" transform="translate(93.677866 128.969098)rotate(-42.647823)scale(0.02 -0.02)">
     <defs>
      <path d="M 628 4666 
L 1259 4666 
L 1259 325 
Q 1259 -519 939 -900 
Q 619 -1281 -91 -1281 
L -331 -1281 
L -331 -750 
L -134 -750 
Q 284 -750 456 -515 
Q 628 -281 628 325 
L 628 4666 
z
" id="DejaVuSans-4a" transform="scale(0.015625)"/>
      <path d="M 3513 2113 
L 3513 0 
L 2938 0 
L 2938 2094 
Q 2938 2591 2744 2837 
Q 2550 3084 2163 3084 
Q 1697 3084 1428 2787 
Q 1159 2491 1159 1978 
L 1159 0 
L 581 0 
L 581 3500 
L 1159 3500 
L 1159 2956 
Q 1366 3272 1645 3428 
Q 1925 3584 2291 3584 
Q 2894 3584 3203 3211 
Q 3513 2838 3513 2113 
z
" id="DejaVuSans-6e" transform="scale(0.015625)"/>
     </defs>
     <use xlink:href="#DejaVuSans-4a"/>
     <use x="29.492188" xlink:href="#DejaVuSans-69"/>
     <use x="57.275391" xlink:href="#DejaVuSans-62"/>
     <use x="120.751953" xlink:href="#DejaVuSans-20"/>
     <use x="152.539062" xlink:href="#DejaVuSans-4a"/>
     <use x="182.03125" xlink:href="#DejaVuSans-75"/>
     <use x="245.410156" xlink:href="#DejaVuSans-6e"/>
     <use x="308.789062" xlink:href="#DejaVuSans-63"/>
     <use x="363.769531" xlink:href="#DejaVuSans-74"/>
     <use x="402.978516" xlink:href="#DejaVuSans-69"/>
     <use x="430.761719" xlink:href="#DejaVuSans-6f"/>
     <use x="491.943359" xlink:href="#DejaVuSans-6e"/>
     <use x="555.322266" xlink:href="#DejaVuSans-20"/>
     <use x="587.109375" xlink:href="#DejaVuSans-44"/>
     <use x="664.111328" xlink:href="#DejaVuSans-6f"/>
     <use x="725.292969" xlink:href="#DejaVuSans-75"/>
     <use x="788.671875" xlink:href="#DejaVuSans-62"/>
     <use x="852.148438" xlink:href="#DejaVuSans-6c"/>
     <use x="879.931641" xlink:href="#DejaVuSans-65"/>
    </g>
   </g>
   <g id="text_7">
    <g id="patch_8">
     <path d="M 159.910227 63.442683 
L 179.515028 64.525604 
L 179.623991 62.552986 
L 160.01919 61.470065 
z
" style="fill:#ffffff;"/>
    </g>
    <!-- Ridge Runner 10.6 -->
    <g style="fill:#008000;" transform="translate(159.95424 63.008512)rotate(-356.838335)scale(0.02 -0.02)">
     <defs>
      <path d="M 2906 1791 
Q 2906 2416 2648 2759 
Q 2391 3103 1925 3103 
Q 1463 3103 1205 2759 
Q 947 2416 947 1791 
Q 947 1169 1205 825 
Q 1463 481 1925 481 
Q 2391 481 2648 825 
Q 2906 1169 2906 1791 
z
M 3481 434 
Q 3481 -459 3084 -895 
Q 2688 -1331 1869 -1331 
Q 1566 -1331 1297 -1286 
Q 1028 -1241 775 -1147 
L 775 -588 
Q 1028 -725 1275 -790 
Q 1522 -856 1778 -856 
Q 2344 -856 2625 -561 
Q 2906 -266 2906 331 
L 2906 616 
Q 2728 306 2450 153 
Q 2172 0 1784 0 
Q 1141 0 747 490 
Q 353 981 353 1791 
Q 353 2603 747 3093 
Q 1141 3584 1784 3584 
Q 2172 3584 2450 3431 
Q 2728 3278 2906 2969 
L 2906 3500 
L 3481 3500 
L 3481 434 
z
" id="DejaVuSans-67" transform="scale(0.015625)"/>
      <path d="M 794 531 
L 1825 531 
L 1825 4091 
L 703 3866 
L 703 4441 
L 1819 4666 
L 2450 4666 
L 2450 531 
L 3481 531 
L 3481 0 
L 794 0 
L 794 531 
z
" id="DejaVuSans-31" transform="scale(0.015625)"/>
      <path d="M 2034 4250 
Q 1547 4250 1301 3770 
Q 1056 3291 1056 2328 
Q 1056 1369 1301 889 
Q 1547 409 2034 409 
Q 2525 409 2770 889 
Q 3016 1369 3016 2328 
Q 3016 3291 2770 3770 
Q 2525 4250 2034 4250 
z
M 2034 4750 
Q 2819 4750 3233 4129 
Q 3647 3509 3647 2328 
Q 3647 1150 3233 529 
Q 2819 -91 2034 -91 
Q 1250 -91 836 529 
Q 422 1150 422 2328 
Q 422 3509 836 4129 
Q 1250 4750 2034 4750 
z
" id="DejaVuSans-30" transform="scale(0.015625)"/>
      <path d="M 684 794 
L 1344 794 
L 1344 0 
L 684 0 
L 684 794 
z
" id="DejaVuSans-2e" transform="scale(0.015625)"/>
      <path d="M 2113 2584 
Q 1688 2584 1439 2293 
Q 1191 2003 1191 1497 
Q 1191 994 1439 701 
Q 1688 409 2113 409 
Q 2538 409 2786 701 
Q 3034 994 3034 1497 
Q 3034 2003 2786 2293 
Q 2538 2584 2113 2584 
z
M 3366 4563 
L 3366 3988 
Q 3128 4100 2886 4159 
Q 2644 4219 2406 4219 
Q 1781 4219 1451 3797 
Q 1122 3375 1075 2522 
Q 1259 2794 1537 2939 
Q 1816 3084 2150 3084 
Q 2853 3084 3261 2657 
Q 3669 2231 3669 1497 
Q 3669 778 3244 343 
Q 2819 -91 2113 -91 
Q 1303 -91 875 529 
Q 447 1150 447 2328 
Q 447 3434 972 4092 
Q 1497 4750 2381 4750 
Q 2619 4750 2861 4703 
Q 3103 4656 3366 4563 
z
" id="DejaVuSans-36" transform="scale(0.015625)"/>
      <path d="M 1600 4347 
Q 1350 4347 1178 4173 
Q 1006 4000 1006 3750 
Q 1006 3503 1178 3333 
Q 1350 3163 1600 3163 
Q 1850 3163 2022 3333 
Q 2194 3503 2194 3750 
Q 2194 3997 2020 4172 
Q 1847 4347 1600 4347 
z
M 1600 4750 
Q 1800 4750 1984 4673 
Q 2169 4597 2303 4453 
Q 2447 4313 2519 4134 
Q 2591 3956 2591 3750 
Q 2591 3338 2302 3052 
Q 2013 2766 1594 2766 
Q 1172 2766 890 3047 
Q 609 3328 609 3750 
Q 609 4169 896 4459 
Q 1184 4750 1600 4750 
z
" id="DejaVuSans-b0" transform="scale(0.015625)"/>
     </defs>
     <use xlink:href="#DejaVuSans-52"/>
     <use x="69.482422" xlink:href="#DejaVuSans-69"/>
     <use x="97.265625" xlink:href="#DejaVuSans-64"/>
     <use x="160.742188" xlink:href="#DejaVuSans-67"/>
     <use x="224.21875" xlink:href="#DejaVuSans-65"/>
     <use x="285.742188" xlink:href="#DejaVuSans-20"/>
     <use x="317.529297" xlink:href="#DejaVuSans-52"/>
     <use x="382.511719" xlink:href="#DejaVuSans-75"/>
     <use x="445.890625" xlink:href="#DejaVuSans-6e"/>
     <use x="509.269531" xlink:href="#DejaVuSans-6e"/>
     <use x="572.648438" xlink:href="#DejaVuSans-65"/>
     <use x="634.171875" xlink:href="#DejaVuSans-72"/>
     <use x="675.285156" xlink:href="#DejaVuSans-20"/>
     <use x="707.072266" xlink:href="#DejaVuSans-31"/>
     <use x="770.695312" xlink:href="#DejaVuSans-30"/>
     <use x="834.318359" xlink:href="#DejaVuSans-2e"/>
     <use x="866.105469" xlink:href="#DejaVuSans-36"/>
     <use x="929.728516" xlink:href="#DejaVuSans-b0"/>
    </g>
   </g>
   <g id="text_8">
    <g id="patch_9">
     <path d="M 200.665852 97.689866 
L 206.402158 84.803305 
L 204.597274 83.999881 
L 198.860968 96.886442 
z
" style="fill:#ffffff;"/>
    </g>
    <!-- Far Side 24.8 -->
    <g transform="translate(200.275723 97.494312)rotate(-66.004307)scale(0.02 -0.02)">
     <defs>
      <path d="M 628 4666 
L 3309 4666 
L 3309 4134 
L 1259 4134 
L 1259 2759 
L 3109 2759 
L 3109 2228 
L 1259 2228 
L 1259 0 
L 628 0 
L 628 4666 
z
" id="DejaVuSans-46" transform="scale(0.015625)"/>
      <path d="M 3425 4513 
L 3425 3897 
Q 3066 4069 2747 4153 
Q 2428 4238 2131 4238 
Q 1616 4238 1336 4038 
Q 1056 3838 1056 3469 
Q 1056 3159 1242 3001 
Q 1428 2844 1947 2747 
L 2328 2669 
Q 3034 2534 3370 2195 
Q 3706 1856 3706 1288 
Q 3706 609 3251 259 
Q 2797 -91 1919 -91 
Q 1588 -91 1214 -16 
Q 841 59 441 206 
L 441 856 
Q 825 641 1194 531 
Q 1563 422 1919 422 
Q 2459 422 2753 634 
Q 3047 847 3047 1241 
Q 3047 1584 2836 1778 
Q 2625 1972 2144 2069 
L 1759 2144 
Q 1053 2284 737 2584 
Q 422 2884 422 3419 
Q 422 4038 858 4394 
Q 1294 4750 2059 4750 
Q 2388 4750 2728 4690 
Q 3069 4631 3425 4513 
z
" id="DejaVuSans-53" transform="scale(0.015625)"/>
      <path d="M 1228 531 
L 3431 531 
L 3431 0 
L 469 0 
L 469 531 
Q 828 903 1448 1529 
Q 2069 2156 2228 2338 
Q 2531 2678 2651 2914 
Q 2772 3150 2772 3378 
Q 2772 3750 2511 3984 
Q 2250 4219 1831 4219 
Q 1534 4219 1204 4116 
Q 875 4013 500 3803 
L 500 4441 
Q 881 4594 1212 4672 
Q 1544 4750 1819 4750 
Q 2544 4750 2975 4387 
Q 3406 4025 3406 3419 
Q 3406 3131 3298 2873 
Q 3191 2616 2906 2266 
Q 2828 2175 2409 1742 
Q 1991 1309 1228 531 
z
" id="DejaVuSans-32" transform="scale(0.015625)"/>
      <path d="M 2419 4116 
L 825 1625 
L 2419 1625 
L 2419 4116 
z
M 2253 4666 
L 3047 4666 
L 3047 1625 
L 3713 1625 
L 3713 1100 
L 3047 1100 
L 3047 0 
L 2419 0 
L 2419 1100 
L 313 1100 
L 313 1709 
L 2253 4666 
z
" id="DejaVuSans-34" transform="scale(0.015625)"/>
      <path d="M 2034 2216 
Q 1584 2216 1326 1975 
Q 1069 1734 1069 1313 
Q 1069 891 1326 650 
Q 1584 409 2034 409 
Q 2484 409 2743 651 
Q 3003 894 3003 1313 
Q 3003 1734 2745 1975 
Q 2488 2216 2034 2216 
z
M 1403 2484 
Q 997 2584 770 2862 
Q 544 3141 544 3541 
Q 544 4100 942 4425 
Q 1341 4750 2034 4750 
Q 2731 4750 3128 4425 
Q 3525 4100 3525 3541 
Q 3525 3141 3298 2862 
Q 3072 2584 2669 2484 
Q 3125 2378 3379 2068 
Q 3634 1759 3634 1313 
Q 3634 634 3220 271 
Q 2806 -91 2034 -91 
Q 1263 -91 848 271 
Q 434 634 434 1313 
Q 434 1759 690 2068 
Q 947 2378 1403 2484 
z
M 1172 3481 
Q 1172 3119 1398 2916 
Q 1625 2713 2034 2713 
Q 2441 2713 2670 2916 
Q 2900 3119 2900 3481 
Q 2900 3844 2670 4047 
Q 2441 4250 2034 4250 
Q 1625 4250 1398 4047 
Q 1172 3844 1172 3481 
z
" id="DejaVuSans-38" transform="scale(0.015625)"/>
     </defs>
     <use xlink:href="#DejaVuSans-46"/>
     <use x="48.394531" xlink:href="#DejaVuSans-61"/>
     <use x="109.673828" xlink:href="#DejaVuSans-72"/>
     <use x="150.787109" xlink:href="#DejaVuSans-20"/>
     <use x="182.574219" xlink:href="#DejaVuSans-53"/>
     <use x="246.050781" xlink:href="#DejaVuSans-69"/>
     <use x="273.833984" xlink:href="#DejaVuSans-64"/>
     <use x="337.310547" xlink:href="#DejaVuSans-65"/>
     <use x="398.833984" xlink:href="#DejaVuSans-20"/>
     <use x="430.621094" xlink:href="#DejaVuSans-32"/>
     <use x="494.244141" xlink:href="#DejaVuSans-34"/>
     <use x="557.867188" xlink:href="#DejaVuSans-2e"/>
     <use x="589.654297" xlink:href="#DejaVuSans-38"/>
     <use x="653.277344" xlink:href="#DejaVuSans-b0"/>
    </g>
   </g>
   <g id="text_9">
    <g id="patch_10">
     <path d="M 186.889351 88.281773 
L 195.542682 74.757611 
L 193.87855 73.692829 
L 185.225219 87.216991 
z
" style="fill:#ffffff;"/>
    </g>
    <!-- Exhibition 23.5 -->
    <g style="fill:#4169e1;" transform="translate(186.532926 88.029974)rotate(-57.387169)scale(0.02 -0.02)">
     <defs>
      <path d="M 2597 2516 
Q 3050 2419 3304 2112 
Q 3559 1806 3559 1356 
Q 3559 666 3084 287 
Q 2609 -91 1734 -91 
Q 1441 -91 1130 -33 
Q 819 25 488 141 
L 488 750 
Q 750 597 1062 519 
Q 1375 441 1716 441 
Q 2309 441 2620 675 
Q 2931 909 2931 1356 
Q 2931 1769 2642 2001 
Q 2353 2234 1838 2234 
L 1294 2234 
L 1294 2753 
L 1863 2753 
Q 2328 2753 2575 2939 
Q 2822 3125 2822 3475 
Q 2822 3834 2567 4026 
Q 2313 4219 1838 4219 
Q 1578 4219 1281 4162 
Q 984 4106 628 3988 
L 628 4550 
Q 988 4650 1302 4700 
Q 1616 4750 1894 4750 
Q 2613 4750 3031 4423 
Q 3450 4097 3450 3541 
Q 3450 3153 3228 2886 
Q 3006 2619 2597 2516 
z
" id="DejaVuSans-33" transform="scale(0.015625)"/>
      <path d="M 691 4666 
L 3169 4666 
L 3169 4134 
L 1269 4134 
L 1269 2991 
Q 1406 3038 1543 3061 
Q 1681 3084 1819 3084 
Q 2600 3084 3056 2656 
Q 3513 2228 3513 1497 
Q 3513 744 3044 326 
Q 2575 -91 1722 -91 
Q 1428 -91 1123 -41 
Q 819 9 494 109 
L 494 744 
Q 775 591 1075 516 
Q 1375 441 1709 441 
Q 2250 441 2565 725 
Q 2881 1009 2881 1497 
Q 2881 1984 2565 2268 
Q 2250 2553 1709 2553 
Q 1456 2553 1204 2497 
Q 953 2441 691 2322 
L 691 4666 
z
" id="DejaVuSans-35" transform="scale(0.015625)"/>
     </defs>
     <use xlink:href="#DejaVuSans-45"/>
     <use x="63.183594" xlink:href="#DejaVuSans-78"/>
     <use x="122.363281" xlink:href="#DejaVuSans-68"/>
     <use x="185.742188" xlink:href="#DejaVuSans-69"/>
     <use x="213.525391" xlink:href="#DejaVuSans-62"/>
     <use x="277.001953" xlink:href="#DejaVuSans-69"/>
     <use x="304.785156" xlink:href="#DejaVuSans-74"/>
     <use x="343.994141" xlink:href="#DejaVuSans-69"/>
     <use x="371.777344" xlink:href="#DejaVuSans-6f"/>
     <use x="432.958984" xlink:href="#DejaVuSans-6e"/>
     <use x="496.337891" xlink:href="#DejaVuSans-20"/>
     <use x="528.125" xlink:href="#DejaVuSans-32"/>
     <use x="591.748047" xlink:href="#DejaVuSans-33"/>
     <use x="655.371094" xlink:href="#DejaVuSans-2e"/>
     <use x="687.158203" xlink:href="#DejaVuSans-35"/>
     <use x="750.78125" xlink:href="#DejaVuSans-b0"/>
    </g>
   </g>
   <g id="text_10">
    <g id="patch_11">
     <path d="M 123.223556 137.198515 
L 135.788856 129.662555 
L 134.772724 127.968279 
L 122.207425 135.504239 
z
" style="fill:#ffffff;"/>
    </g>
    <!-- Fallmount 9.5 -->
    <g style="fill:#008000;" transform="translate(123.016491 136.814373)rotate(-30.952961)scale(0.02 -0.02)">
     <defs>
      <path d="M 3328 2828 
Q 3544 3216 3844 3400 
Q 4144 3584 4550 3584 
Q 5097 3584 5394 3201 
Q 5691 2819 5691 2113 
L 5691 0 
L 5113 0 
L 5113 2094 
Q 5113 2597 4934 2840 
Q 4756 3084 4391 3084 
Q 3944 3084 3684 2787 
Q 3425 2491 3425 1978 
L 3425 0 
L 2847 0 
L 2847 2094 
Q 2847 2600 2669 2842 
Q 2491 3084 2119 3084 
Q 1678 3084 1418 2786 
Q 1159 2488 1159 1978 
L 1159 0 
L 581 0 
L 581 3500 
L 1159 3500 
L 1159 2956 
Q 1356 3278 1631 3431 
Q 1906 3584 2284 3584 
Q 2666 3584 2933 3390 
Q 3200 3197 3328 2828 
z
" id="DejaVuSans-6d" transform="scale(0.015625)"/>
      <path d="M 703 97 
L 703 672 
Q 941 559 1184 500 
Q 1428 441 1663 441 
Q 2288 441 2617 861 
Q 2947 1281 2994 2138 
Q 2813 1869 2534 1725 
Q 2256 1581 1919 1581 
Q 1219 1581 811 2004 
Q 403 2428 403 3163 
Q 403 3881 828 4315 
Q 1253 4750 1959 4750 
Q 2769 4750 3195 4129 
Q 3622 3509 3622 2328 
Q 3622 1225 3098 567 
Q 2575 -91 1691 -91 
Q 1453 -91 1209 -44 
Q 966 3 703 97 
z
M 1959 2075 
Q 2384 2075 2632 2365 
Q 2881 2656 2881 3163 
Q 2881 3666 2632 3958 
Q 2384 4250 1959 4250 
Q 1534 4250 1286 3958 
Q 1038 3666 1038 3163 
Q 1038 2656 1286 2365 
Q 1534 2075 1959 2075 
z
" id="DejaVuSans-39" transform="scale(0.015625)"/>
     </defs>
     <use xlink:href="#DejaVuSans-46"/>
     <use x="48.394531" xlink:href="#DejaVuSans-61"/>
     <use x="109.673828" xlink:href="#DejaVuSans-6c"/>
     <use x="137.457031" xlink:href="#DejaVuSans-6c"/>
     <use x="165.240234" xlink:href="#DejaVuSans-6d"/>
     <use x="262.652344" xlink:href="#DejaVuSans-6f"/>
     <use x="323.833984" xlink:href="#DejaVuSans-75"/>
     <use x="387.212891" xlink:href="#DejaVuSans-6e"/>
     <use x="450.591797" xlink:href="#DejaVuSans-74"/>
     <use x="489.800781" xlink:href="#DejaVuSans-20"/>
     <use x="521.587891" xlink:href="#DejaVuSans-39"/>
     <use x="585.210938" xlink:href="#DejaVuSans-2e"/>
     <use x="616.998047" xlink:href="#DejaVuSans-35"/>
     <use x="680.621094" xlink:href="#DejaVuSans-b0"/>
    </g>
   </g>
   <g id="text_11">
    <g id="patch_12">
     <path d="M 164.347515 86.305136 
L 177.207709 71.381406 
L 175.711099 70.091735 
L 162.850905 85.015465 
z
" style="fill:#ffffff;"/>
    </g>
    <!-- Bold Decision 27.3 -->
    <g transform="translate(164.030332 86.005409)rotate(-49.247607)scale(0.02 -0.02)">
     <defs>
      <path d="M 1259 2228 
L 1259 519 
L 2272 519 
Q 2781 519 3026 730 
Q 3272 941 3272 1375 
Q 3272 1813 3026 2020 
Q 2781 2228 2272 2228 
L 1259 2228 
z
M 1259 4147 
L 1259 2741 
L 2194 2741 
Q 2656 2741 2882 2914 
Q 3109 3088 3109 3444 
Q 3109 3797 2882 3972 
Q 2656 4147 2194 4147 
L 1259 4147 
z
M 628 4666 
L 2241 4666 
Q 2963 4666 3353 4366 
Q 3744 4066 3744 3513 
Q 3744 3084 3544 2831 
Q 3344 2578 2956 2516 
Q 3422 2416 3680 2098 
Q 3938 1781 3938 1306 
Q 3938 681 3513 340 
Q 3088 0 2303 0 
L 628 0 
L 628 4666 
z
" id="DejaVuSans-42" transform="scale(0.015625)"/>
      <path d="M 525 4666 
L 3525 4666 
L 3525 4397 
L 1831 0 
L 1172 0 
L 2766 4134 
L 525 4134 
L 525 4666 
z
" id="DejaVuSans-37" transform="scale(0.015625)"/>
     </defs>
     <use xlink:href="#DejaVuSans-42"/>
     <use x="68.603516" xlink:href="#DejaVuSans-6f"/>
     <use x="129.785156" xlink:href="#DejaVuSans-6c"/>
     <use x="157.568359" xlink:href="#DejaVuSans-64"/>
     <use x="221.044922" xlink:href="#DejaVuSans-20"/>
     <use x="252.832031" xlink:href="#DejaVuSans-44"/>
     <use x="329.833984" xlink:href="#DejaVuSans-65"/>
     <use x="391.357422" xlink:href="#DejaVuSans-63"/>
     <use x="446.337891" xlink:href="#DejaVuSans-69"/>
     <use x="474.121094" xlink:href="#DejaVuSans-73"/>
     <use x="526.220703" xlink:href="#DejaVuSans-69"/>
     <use x="554.003906" xlink:href="#DejaVuSans-6f"/>
     <use x="615.185547" xlink:href="#DejaVuSans-6e"/>
     <use x="678.564453" xlink:href="#DejaVuSans-20"/>
     <use x="710.351562" xlink:href="#DejaVuSans-32"/>
     <use x="773.974609" xlink:href="#DejaVuSans-37"/>
     <use x="837.597656" xlink:href="#DejaVuSans-2e"/>
     <use x="869.384766" xlink:href="#DejaVuSans-33"/>
     <use x="933.007812" xlink:href="#DejaVuSans-b0"/>
    </g>
   </g>
   <g id="text_12">
    <g id="patch_13">
     <path d="M 153.014655 68.304282 
L 156.715137 51.438915 
L 154.785417 51.015509 
L 151.084935 67.880876 
z
" style="fill:#ffffff;"/>
    </g>
    <!-- Angel Drop 18.0 -->
    <g style="fill:#4169e1;" transform="translate(152.593133 68.191319)rotate(-77.62466)scale(0.02 -0.02)">
     <defs>
      <path d="M 2188 4044 
L 1331 1722 
L 3047 1722 
L 2188 4044 
z
M 1831 4666 
L 2547 4666 
L 4325 0 
L 3669 0 
L 3244 1197 
L 1141 1197 
L 716 0 
L 50 0 
L 1831 4666 
z
" id="DejaVuSans-41" transform="scale(0.015625)"/>
     </defs>
     <use xlink:href="#DejaVuSans-41"/>
     <use x="68.408203" xlink:href="#DejaVuSans-6e"/>
     <use x="131.787109" xlink:href="#DejaVuSans-67"/>
     <use x="195.263672" xlink:href="#DejaVuSans-65"/>
     <use x="256.787109" xlink:href="#DejaVuSans-6c"/>
     <use x="284.570312" xlink:href="#DejaVuSans-20"/>
     <use x="316.357422" xlink:href="#DejaVuSans-44"/>
     <use x="393.359375" xlink:href="#DejaVuSans-72"/>
     <use x="432.222656" xlink:href="#DejaVuSans-6f"/>
     <use x="493.404297" xlink:href="#DejaVuSans-70"/>
     <use x="556.880859" xlink:href="#DejaVuSans-20"/>
     <use x="588.667969" xlink:href="#DejaVuSans-31"/>
     <use x="652.291016" xlink:href="#DejaVuSans-38"/>
     <use x="715.914062" xlink:href="#DejaVuSans-2e"/>
     <use x="747.701172" xlink:href="#DejaVuSans-30"/>
     <use x="811.324219" xlink:href="#DejaVuSans-b0"/>
    </g>
   </g>
   <g id="text_13">
    <g id="patch_14">
     <path d="M 88.799593 137.708568 
L 104.758924 131.200438 
L 104.012919 129.371075 
L 88.053588 135.879205 
z
" style="fill:#ffffff;"/>
    </g>
    <!-- Jib Junction 18.7 -->
    <g style="fill:#4169e1;" transform="translate(88.6535 137.297353)rotate(-22.185373)scale(0.02 -0.02)">
     <use xlink:href="#DejaVuSans-4a"/>
     <use x="29.492188" xlink:href="#DejaVuSans-69"/>
     <use x="57.275391" xlink:href="#DejaVuSans-62"/>
     <use x="120.751953" xlink:href="#DejaVuSans-20"/>
     <use x="152.539062" xlink:href="#DejaVuSans-4a"/>
     <use x="182.03125" xlink:href="#DejaVuSans-75"/>
     <use x="245.410156" xlink:href="#DejaVuSans-6e"/>
     <use x="308.789062" xlink:href="#DejaVuSans-63"/>
     <use x="363.769531" xlink:href="#DejaVuSans-74"/>
     <use x="402.978516" xlink:href="#DejaVuSans-69"/>
     <use x="430.761719" xlink:href="#DejaVuSans-6f"/>
     <use x="491.943359" xlink:href="#DejaVuSans-6e"/>
     <use x="555.322266" xlink:href="#DejaVuSans-20"/>
     <use x="587.109375" xlink:href="#DejaVuSans-31"/>
     <use x="650.732422" xlink:href="#DejaVuSans-38"/>
     <use x="714.355469" xlink:href="#DejaVuSans-2e"/>
     <use x="746.142578" xlink:href="#DejaVuSans-37"/>
     <use x="809.765625" xlink:href="#DejaVuSans-b0"/>
    </g>
   </g>
   <g id="text_14">
    <g id="patch_15">
     <path d="M 129.642052 111.301561 
L 133.526532 124.160133 
L 135.417744 123.588811 
L 131.533265 110.730239 
z
" style="fill:#ffffff;"/>
    </g>
    <!-- Drop In 22.8 -->
    <g style="fill:#4169e1;" transform="translate(130.065147 111.194639)rotate(-286.809177)scale(0.02 -0.02)">
     <defs>
      <path d="M 628 4666 
L 1259 4666 
L 1259 0 
L 628 0 
L 628 4666 
z
" id="DejaVuSans-49" transform="scale(0.015625)"/>
     </defs>
     <use xlink:href="#DejaVuSans-44"/>
     <use x="77.001953" xlink:href="#DejaVuSans-72"/>
     <use x="115.865234" xlink:href="#DejaVuSans-6f"/>
     <use x="177.046875" xlink:href="#DejaVuSans-70"/>
     <use x="240.523438" xlink:href="#DejaVuSans-20"/>
     <use x="272.310547" xlink:href="#DejaVuSans-49"/>
     <use x="301.802734" xlink:href="#DejaVuSans-6e"/>
     <use x="365.181641" xlink:href="#DejaVuSans-20"/>
     <use x="396.96875" xlink:href="#DejaVuSans-32"/>
     <use x="460.591797" xlink:href="#DejaVuSans-32"/>
     <use x="524.214844" xlink:href="#DejaVuSans-2e"/>
     <use x="556.001953" xlink:href="#DejaVuSans-38"/>
     <use x="619.625" xlink:href="#DejaVuSans-b0"/>
    </g>
   </g>
   <g id="text_15">
    <g id="patch_16">
     <path d="M 109.930263 110.271462 
L 118.61612 97.56379 
L 116.985092 96.448961 
L 108.299235 109.156634 
z
" style="fill:#ffffff;"/>
    </g>
    <!-- Homerun 20.9 -->
    <g style="fill:#4169e1;" transform="translate(109.581649 110.008955)rotate(-55.646892)scale(0.02 -0.02)">
     <defs>
      <path d="M 628 4666 
L 1259 4666 
L 1259 2753 
L 3553 2753 
L 3553 4666 
L 4184 4666 
L 4184 0 
L 3553 0 
L 3553 2222 
L 1259 2222 
L 1259 0 
L 628 0 
L 628 4666 
z
" id="DejaVuSans-48" transform="scale(0.015625)"/>
     </defs>
     <use xlink:href="#DejaVuSans-48"/>
     <use x="75.195312" xlink:href="#DejaVuSans-6f"/>
     <use x="136.376953" xlink:href="#DejaVuSans-6d"/>
     <use x="233.789062" xlink:href="#DejaVuSans-65"/>
     <use x="295.3125" xlink:href="#DejaVuSans-72"/>
     <use x="336.425781" xlink:href="#DejaVuSans-75"/>
     <use x="399.804688" xlink:href="#DejaVuSans-6e"/>
     <use x="463.183594" xlink:href="#DejaVuSans-20"/>
     <use x="494.970703" xlink:href="#DejaVuSans-32"/>
     <use x="558.59375" xlink:href="#DejaVuSans-30"/>
     <use x="622.216797" xlink:href="#DejaVuSans-2e"/>
     <use x="654.003906" xlink:href="#DejaVuSans-39"/>
     <use x="717.626953" xlink:href="#DejaVuSans-b0"/>
    </g>
   </g>
   <g id="text_16">
    <g id="patch_17">
     <path d="M 121.070707 57.207992 
L 130.040241 46.757125 
L 128.541061 45.470443 
L 119.571526 55.921309 
z
" style="fill:#ffffff;"/>
    </g>
    <!-- Fanciful 22.0 -->
    <g style="fill:#4169e1;" transform="translate(120.752926 56.908898)rotate(-49.36191)scale(0.02 -0.02)">
     <use xlink:href="#DejaVuSans-46"/>
     <use x="48.394531" xlink:href="#DejaVuSans-61"/>
     <use x="109.673828" xlink:href="#DejaVuSans-6e"/>
     <use x="173.052734" xlink:href="#DejaVuSans-63"/>
     <use x="228.033203" xlink:href="#DejaVuSans-69"/>
     <use x="255.816406" xlink:href="#DejaVuSans-66"/>
     <use x="291.021484" xlink:href="#DejaVuSans-75"/>
     <use x="354.400391" xlink:href="#DejaVuSans-6c"/>
     <use x="382.183594" xlink:href="#DejaVuSans-20"/>
     <use x="413.970703" xlink:href="#DejaVuSans-32"/>
     <use x="477.59375" xlink:href="#DejaVuSans-32"/>
     <use x="541.216797" xlink:href="#DejaVuSans-2e"/>
     <use x="573.003906" xlink:href="#DejaVuSans-30"/>
     <use x="636.626953" xlink:href="#DejaVuSans-b0"/>
    </g>
   </g>
   <g id="text_17">
    <g id="patch_18">
     <path d="M 78.003495 108.072075 
L 91.66202 94.370463 
L 90.262844 92.975687 
L 76.604319 106.677299 
z
" style="fill:#ffffff;"/>
    </g>
    <!-- Snow Dancer 24.2 -->
    <g transform="translate(77.708876 107.750142)rotate(-45.090229)scale(0.02 -0.02)">
     <defs>
      <path d="M 269 3500 
L 844 3500 
L 1563 769 
L 2278 3500 
L 2956 3500 
L 3675 769 
L 4391 3500 
L 4966 3500 
L 4050 0 
L 3372 0 
L 2619 2869 
L 1863 0 
L 1184 0 
L 269 3500 
z
" id="DejaVuSans-77" transform="scale(0.015625)"/>
     </defs>
     <use xlink:href="#DejaVuSans-53"/>
     <use x="63.476562" xlink:href="#DejaVuSans-6e"/>
     <use x="126.855469" xlink:href="#DejaVuSans-6f"/>
     <use x="188.037109" xlink:href="#DejaVuSans-77"/>
     <use x="269.824219" xlink:href="#DejaVuSans-20"/>
     <use x="301.611328" xlink:href="#DejaVuSans-44"/>
     <use x="378.613281" xlink:href="#DejaVuSans-61"/>
     <use x="439.892578" xlink:href="#DejaVuSans-6e"/>
     <use x="503.271484" xlink:href="#DejaVuSans-63"/>
     <use x="558.251953" xlink:href="#DejaVuSans-65"/>
     <use x="619.775391" xlink:href="#DejaVuSans-72"/>
     <use x="660.888672" xlink:href="#DejaVuSans-20"/>
     <use x="692.675781" xlink:href="#DejaVuSans-32"/>
     <use x="756.298828" xlink:href="#DejaVuSans-34"/>
     <use x="819.921875" xlink:href="#DejaVuSans-2e"/>
     <use x="851.708984" xlink:href="#DejaVuSans-32"/>
     <use x="915.332031" xlink:href="#DejaVuSans-b0"/>
    </g>
   </g>
   <g id="text_18">
    <g id="patch_19">
     <path d="M 128.71181 77.656143 
L 137.305878 64.865127 
L 135.666017 63.763332 
L 127.071949 76.554349 
z
" style="fill:#ffffff;"/>
    </g>
    <!-- Limelight 20.3 -->
    <g style="fill:#4169e1;" transform="translate(128.361115 77.396423)rotate(-56.103514)scale(0.02 -0.02)">
     <use xlink:href="#DejaVuSans-4c"/>
     <use x="55.712891" xlink:href="#DejaVuSans-69"/>
     <use x="83.496094" xlink:href="#DejaVuSans-6d"/>
     <use x="180.908203" xlink:href="#DejaVuSans-65"/>
     <use x="242.431641" xlink:href="#DejaVuSans-6c"/>
     <use x="270.214844" xlink:href="#DejaVuSans-69"/>
     <use x="297.998047" xlink:href="#DejaVuSans-67"/>
     <use x="361.474609" xlink:href="#DejaVuSans-68"/>
     <use x="424.853516" xlink:href="#DejaVuSans-74"/>
     <use x="464.0625" xlink:href="#DejaVuSans-20"/>
     <use x="495.849609" xlink:href="#DejaVuSans-32"/>
     <use x="559.472656" xlink:href="#DejaVuSans-30"/>
     <use x="623.095703" xlink:href="#DejaVuSans-2e"/>
     <use x="654.882812" xlink:href="#DejaVuSans-33"/>
     <use x="718.505859" xlink:href="#DejaVuSans-b0"/>
    </g>
   </g>
   <g id="text_19">
    <g id="patch_20">
     <path d="M 46.640294 105.265141 
L 51.697934 117.351811 
L 53.520433 116.589191 
L 48.462794 104.50252 
z
" style="fill:#ffffff;"/>
    </g>
    <!-- Stalker 17.5 -->
    <g style="fill:#4169e1;" transform="translate(47.050164 105.115312)rotate(-292.70676)scale(0.02 -0.02)">
     <defs>
      <path d="M 581 4863 
L 1159 4863 
L 1159 1991 
L 2875 3500 
L 3609 3500 
L 1753 1863 
L 3688 0 
L 2938 0 
L 1159 1709 
L 1159 0 
L 581 0 
L 581 4863 
z
" id="DejaVuSans-6b" transform="scale(0.015625)"/>
     </defs>
     <use xlink:href="#DejaVuSans-53"/>
     <use x="63.476562" xlink:href="#DejaVuSans-74"/>
     <use x="102.685547" xlink:href="#DejaVuSans-61"/>
     <use x="163.964844" xlink:href="#DejaVuSans-6c"/>
     <use x="191.748047" xlink:href="#DejaVuSans-6b"/>
     <use x="246.033203" xlink:href="#DejaVuSans-65"/>
     <use x="307.556641" xlink:href="#DejaVuSans-72"/>
     <use x="348.669922" xlink:href="#DejaVuSans-20"/>
     <use x="380.457031" xlink:href="#DejaVuSans-31"/>
     <use x="444.080078" xlink:href="#DejaVuSans-37"/>
     <use x="507.703125" xlink:href="#DejaVuSans-2e"/>
     <use x="539.490234" xlink:href="#DejaVuSans-35"/>
     <use x="603.113281" xlink:href="#DejaVuSans-b0"/>
    </g>
   </g>
   <g id="text_20">
    <g id="patch_21">
     <path d="M 26.785831 68.11282 
L 39.501409 78.476077 
L 40.749532 76.944646 
L 28.033955 66.581389 
z
" style="fill:#ffffff;"/>
    </g>
    <!-- Park Place 14.1 -->
    <g style="fill:#008000;" transform="translate(27.076743 67.787532)rotate(-320.8198)scale(0.02 -0.02)">
     <defs>
      <path d="M 1259 4147 
L 1259 2394 
L 2053 2394 
Q 2494 2394 2734 2622 
Q 2975 2850 2975 3272 
Q 2975 3691 2734 3919 
Q 2494 4147 2053 4147 
L 1259 4147 
z
M 628 4666 
L 2053 4666 
Q 2838 4666 3239 4311 
Q 3641 3956 3641 3272 
Q 3641 2581 3239 2228 
Q 2838 1875 2053 1875 
L 1259 1875 
L 1259 0 
L 628 0 
L 628 4666 
z
" id="DejaVuSans-50" transform="scale(0.015625)"/>
     </defs>
     <use xlink:href="#DejaVuSans-50"/>
     <use x="55.802734" xlink:href="#DejaVuSans-61"/>
     <use x="117.082031" xlink:href="#DejaVuSans-72"/>
     <use x="158.195312" xlink:href="#DejaVuSans-6b"/>
     <use x="216.105469" xlink:href="#DejaVuSans-20"/>
     <use x="247.892578" xlink:href="#DejaVuSans-50"/>
     <use x="308.195312" xlink:href="#DejaVuSans-6c"/>
     <use x="335.978516" xlink:href="#DejaVuSans-61"/>
     <use x="397.257812" xlink:href="#DejaVuSans-63"/>
     <use x="452.238281" xlink:href="#DejaVuSans-65"/>
     <use x="513.761719" xlink:href="#DejaVuSans-20"/>
     <use x="545.548828" xlink:href="#DejaVuSans-31"/>
     <use x="609.171875" xlink:href="#DejaVuSans-34"/>
     <use x="672.794922" xlink:href="#DejaVuSans-2e"/>
     <use x="704.582031" xlink:href="#DejaVuSans-31"/>
     <use x="768.205078" xlink:href="#DejaVuSans-b0"/>
    </g>
   </g>
   <g id="text_21">
    <g id="patch_22">
     <path d="M 14.966231 49.550047 
L 20.324751 64.463786 
L 22.184005 63.795754 
L 16.825485 48.882015 
z
" style="fill:#ffffff;"/>
    </g>
    <!-- SnowPark 15.2 -->
    <g style="fill:#008000;" transform="translate(15.383253 49.421462)rotate(-289.763409)scale(0.02 -0.02)">
     <use xlink:href="#DejaVuSans-53"/>
     <use x="63.476562" xlink:href="#DejaVuSans-6e"/>
     <use x="126.855469" xlink:href="#DejaVuSans-6f"/>
     <use x="188.037109" xlink:href="#DejaVuSans-77"/>
     <use x="269.824219" xlink:href="#DejaVuSans-50"/>
     <use x="325.626953" xlink:href="#DejaVuSans-61"/>
     <use x="386.90625" xlink:href="#DejaVuSans-72"/>
     <use x="428.019531" xlink:href="#DejaVuSans-6b"/>
     <use x="485.929688" xlink:href="#DejaVuSans-20"/>
     <use x="517.716797" xlink:href="#DejaVuSans-31"/>
     <use x="581.339844" xlink:href="#DejaVuSans-35"/>
     <use x="644.962891" xlink:href="#DejaVuSans-2e"/>
     <use x="676.75" xlink:href="#DejaVuSans-32"/>
     <use x="740.373047" xlink:href="#DejaVuSans-b0"/>
    </g>
   </g>
   <g id="text_22">
    <g id="patch_23">
     <path d="M 34.426848 123.749445 
L 43.096398 130.607375 
L 44.322074 129.057919 
L 35.652524 122.199989 
z
" style="fill:#ffffff;"/>
    </g>
    <!-- Velvet 7.2 -->
    <g style="fill:#008000;" transform="translate(34.712989 123.419953)rotate(-321.65472)scale(0.02 -0.02)">
     <defs>
      <path d="M 1831 0 
L 50 4666 
L 709 4666 
L 2188 738 
L 3669 4666 
L 4325 4666 
L 2547 0 
L 1831 0 
z
" id="DejaVuSans-56" transform="scale(0.015625)"/>
      <path d="M 191 3500 
L 800 3500 
L 1894 563 
L 2988 3500 
L 3597 3500 
L 2284 0 
L 1503 0 
L 191 3500 
z
" id="DejaVuSans-76" transform="scale(0.015625)"/>
     </defs>
     <use xlink:href="#DejaVuSans-56"/>
     <use x="60.658203" xlink:href="#DejaVuSans-65"/>
     <use x="122.181641" xlink:href="#DejaVuSans-6c"/>
     <use x="149.964844" xlink:href="#DejaVuSans-76"/>
     <use x="209.144531" xlink:href="#DejaVuSans-65"/>
     <use x="270.667969" xlink:href="#DejaVuSans-74"/>
     <use x="309.876953" xlink:href="#DejaVuSans-20"/>
     <use x="341.664062" xlink:href="#DejaVuSans-37"/>
     <use x="405.287109" xlink:href="#DejaVuSans-2e"/>
     <use x="437.074219" xlink:href="#DejaVuSans-32"/>
     <use x="500.697266" xlink:href="#DejaVuSans-b0"/>
    </g>
   </g>
   <g id="text_23">
    <g id="patch_24">
     <path d="M 36.264667 133.136878 
L 44.773896 151.681926 
L 46.569522 150.858019 
L 38.060292 132.312971 
z
" style="fill:#ffffff;"/>
    </g>
    <!-- Northern Lights 6.3 -->
    <g style="fill:#008000;" transform="translate(36.669227 132.973254)rotate(-294.647602)scale(0.02 -0.02)">
     <defs>
      <path d="M 628 4666 
L 1478 4666 
L 3547 763 
L 3547 4666 
L 4159 4666 
L 4159 0 
L 3309 0 
L 1241 3903 
L 1241 0 
L 628 0 
L 628 4666 
z
" id="DejaVuSans-4e" transform="scale(0.015625)"/>
     </defs>
     <use xlink:href="#DejaVuSans-4e"/>
     <use x="74.804688" xlink:href="#DejaVuSans-6f"/>
     <use x="135.986328" xlink:href="#DejaVuSans-72"/>
     <use x="177.099609" xlink:href="#DejaVuSans-74"/>
     <use x="216.308594" xlink:href="#DejaVuSans-68"/>
     <use x="279.6875" xlink:href="#DejaVuSans-65"/>
     <use x="341.210938" xlink:href="#DejaVuSans-72"/>
     <use x="380.574219" xlink:href="#DejaVuSans-6e"/>
     <use x="443.953125" xlink:href="#DejaVuSans-20"/>
     <use x="475.740234" xlink:href="#DejaVuSans-4c"/>
     <use x="531.453125" xlink:href="#DejaVuSans-69"/>
     <use x="559.236328" xlink:href="#DejaVuSans-67"/>
     <use x="622.712891" xlink:href="#DejaVuSans-68"/>
     <use x="686.091797" xlink:href="#DejaVuSans-74"/>
     <use x="725.300781" xlink:href="#DejaVuSans-73"/>
     <use x="777.400391" xlink:href="#DejaVuSans-20"/>
     <use x="809.1875" xlink:href="#DejaVuSans-36"/>
     <use x="872.810547" xlink:href="#DejaVuSans-2e"/>
     <use x="904.597656" xlink:href="#DejaVuSans-33"/>
     <use x="968.220703" xlink:href="#DejaVuSans-b0"/>
    </g>
   </g>
   <g id="text_24">
    <g id="patch_25">
     <path d="M 21.656967 44.028541 
L 36.333834 34.99215 
L 35.298042 33.309822 
L 20.621176 42.346212 
z
" style="fill:#ffffff;"/>
    </g>
    <!-- Sidewinder 11.7 -->
    <g style="fill:#008000;" transform="translate(21.445442 43.646836)rotate(-31.620164)scale(0.02 -0.02)">
     <use xlink:href="#DejaVuSans-53"/>
     <use x="63.476562" xlink:href="#DejaVuSans-69"/>
     <use x="91.259766" xlink:href="#DejaVuSans-64"/>
     <use x="154.736328" xlink:href="#DejaVuSans-65"/>
     <use x="216.259766" xlink:href="#DejaVuSans-77"/>
     <use x="298.046875" xlink:href="#DejaVuSans-69"/>
     <use x="325.830078" xlink:href="#DejaVuSans-6e"/>
     <use x="389.208984" xlink:href="#DejaVuSans-64"/>
     <use x="452.685547" xlink:href="#DejaVuSans-65"/>
     <use x="514.208984" xlink:href="#DejaVuSans-72"/>
     <use x="555.322266" xlink:href="#DejaVuSans-20"/>
     <use x="587.109375" xlink:href="#DejaVuSans-31"/>
     <use x="650.732422" xlink:href="#DejaVuSans-31"/>
     <use x="714.355469" xlink:href="#DejaVuSans-2e"/>
     <use x="746.142578" xlink:href="#DejaVuSans-37"/>
     <use x="809.765625" xlink:href="#DejaVuSans-b0"/>
    </g>
   </g>
   <g id="text_25">
    <g id="patch_26">
     <path d="M 12.82372 96.782852 
L 27.44829 106.505528 
L 28.542063 104.860306 
L 13.917493 95.13763 
z
" style="fill:#ffffff;"/>
    </g>
    <!-- Ledgewood 18.0 -->
    <g style="fill:#4169e1;" transform="translate(13.081725 96.430894)rotate(-326.383332)scale(0.02 -0.02)">
     <use xlink:href="#DejaVuSans-4c"/>
     <use x="53.962891" xlink:href="#DejaVuSans-65"/>
     <use x="115.486328" xlink:href="#DejaVuSans-64"/>
     <use x="178.962891" xlink:href="#DejaVuSans-67"/>
     <use x="242.439453" xlink:href="#DejaVuSans-65"/>
     <use x="303.962891" xlink:href="#DejaVuSans-77"/>
     <use x="385.75" xlink:href="#DejaVuSans-6f"/>
     <use x="446.931641" xlink:href="#DejaVuSans-6f"/>
     <use x="508.113281" xlink:href="#DejaVuSans-64"/>
     <use x="571.589844" xlink:href="#DejaVuSans-20"/>
     <use x="603.376953" xlink:href="#DejaVuSans-31"/>
     <use x="667" xlink:href="#DejaVuSans-38"/>
     <use x="730.623047" xlink:href="#DejaVuSans-2e"/>
     <use x="762.410156" xlink:href="#DejaVuSans-30"/>
     <use x="826.033203" xlink:href="#DejaVuSans-b0"/>
    </g>
   </g>
   <g id="text_26">
    <!-- Whitetail -->
    <g transform="translate(74.542659 16.913629)scale(0.15 -0.15)">
     <use xlink:href="#DejaVuSans-57"/>
     <use x="98.876953" xlink:href="#DejaVuSans-68"/>
     <use x="162.255859" xlink:href="#DejaVuSans-69"/>
     <use x="190.039062" xlink:href="#DejaVuSans-74"/>
     <use x="229.248047" xlink:href="#DejaVuSans-65"/>
     <use x="290.771484" xlink:href="#DejaVuSans-74"/>
     <use x="329.980469" xlink:href="#DejaVuSans-61"/>
     <use x="391.259766" xlink:href="#DejaVuSans-69"/>
     <use x="419.042969" xlink:href="#DejaVuSans-6c"/>
    </g>
   </g>
   <g id="legend_1">
    <g id="line2d_37">
     <path d="M 3.050667 159.117809 
L 18.050667 159.117809 
" style="fill:none;stroke:#008000;stroke-linecap:square;stroke-width:1.5;"/>
    </g>
    <g id="line2d_38"/>
    <g id="text_27">
     <!-- Easy -->
     <g transform="translate(24.050667 161.742809)scale(0.075 -0.075)">
      <defs>
       <path d="M 2059 -325 
Q 1816 -950 1584 -1140 
Q 1353 -1331 966 -1331 
L 506 -1331 
L 506 -850 
L 844 -850 
Q 1081 -850 1212 -737 
Q 1344 -625 1503 -206 
L 1606 56 
L 191 3500 
L 800 3500 
L 1894 763 
L 2988 3500 
L 3597 3500 
L 2059 -325 
z
" id="DejaVuSans-79" transform="scale(0.015625)"/>
      </defs>
      <use xlink:href="#DejaVuSans-45"/>
      <use x="63.183594" xlink:href="#DejaVuSans-61"/>
      <use x="124.462891" xlink:href="#DejaVuSans-73"/>
      <use x="176.5625" xlink:href="#DejaVuSans-79"/>
     </g>
    </g>
    <g id="line2d_39">
     <path d="M 3.050667 170.126403 
L 18.050667 170.126403 
" style="fill:none;stroke:#4169e1;stroke-linecap:square;stroke-width:1.5;"/>
    </g>
    <g id="line2d_40"/>
    <g id="text_28">
     <!-- Intermediate -->
     <g transform="translate(24.050667 172.751403)scale(0.075 -0.075)">
      <use xlink:href="#DejaVuSans-49"/>
      <use x="29.492188" xlink:href="#DejaVuSans-6e"/>
      <use x="92.871094" xlink:href="#DejaVuSans-74"/>
      <use x="132.080078" xlink:href="#DejaVuSans-65"/>
      <use x="193.603516" xlink:href="#DejaVuSans-72"/>
      <use x="232.966797" xlink:href="#DejaVuSans-6d"/>
      <use x="330.378906" xlink:href="#DejaVuSans-65"/>
      <use x="391.902344" xlink:href="#DejaVuSans-64"/>
      <use x="455.378906" xlink:href="#DejaVuSans-69"/>
      <use x="483.162109" xlink:href="#DejaVuSans-61"/>
      <use x="544.441406" xlink:href="#DejaVuSans-74"/>
      <use x="583.650391" xlink:href="#DejaVuSans-65"/>
     </g>
    </g>
    <g id="line2d_41">
     <path d="M 87.43973 159.117809 
L 102.43973 159.117809 
" style="fill:none;stroke:#000000;stroke-linecap:square;stroke-width:1.5;"/>
    </g>
    <g id="line2d_42"/>
    <g id="text_29">
     <!-- Advanced -->
     <g transform="translate(108.43973 161.742809)scale(0.075 -0.075)">
      <use xlink:href="#DejaVuSans-41"/>
      <use x="66.658203" xlink:href="#DejaVuSans-64"/>
      <use x="130.134766" xlink:href="#DejaVuSans-76"/>
      <use x="189.314453" xlink:href="#DejaVuSans-61"/>
      <use x="250.59375" xlink:href="#DejaVuSans-6e"/>
      <use x="313.972656" xlink:href="#DejaVuSans-63"/>
      <use x="368.953125" xlink:href="#DejaVuSans-65"/>
      <use x="430.476562" xlink:href="#DejaVuSans-64"/>
     </g>
    </g>
    <g id="line2d_43">
     <path d="M 87.43973 170.126403 
L 102.43973 170.126403 
" style="fill:none;stroke:#ff0000;stroke-linecap:square;stroke-width:1.5;"/>
    </g>
    <g id="line2d_44"/>
    <g id="text_30">
     <!-- Expert -->
     <g transform="translate(108.43973 172.751403)scale(0.075 -0.075)">
      <use xlink:href="#DejaVuSans-45"/>
      <use x="63.183594" xlink:href="#DejaVuSans-78"/>
      <use x="122.363281" xlink:href="#DejaVuSans-70"/>
      <use x="185.839844" xlink:href="#DejaVuSans-65"/>
      <use x="247.363281" xlink:href="#DejaVuSans-72"/>
      <use x="288.476562" xlink:href="#DejaVuSans-74"/>
     </g>
    </g>
    <g id="line2d_45">
     <path d="M 160.488558 159.117809 
L 175.488558 159.117809 
" style="fill:none;stroke:#ffd700;stroke-linecap:square;stroke-width:1.5;"/>
    </g>
    <g id="line2d_46"/>
    <g id="text_31">
     <!-- Extreme -->
     <g transform="translate(181.488558 161.742809)scale(0.075 -0.075)">
      <use xlink:href="#DejaVuSans-45"/>
      <use x="63.183594" xlink:href="#DejaVuSans-78"/>
      <use x="122.363281" xlink:href="#DejaVuSans-74"/>
      <use x="161.572266" xlink:href="#DejaVuSans-72"/>
      <use x="200.435547" xlink:href="#DejaVuSans-65"/>
      <use x="261.958984" xlink:href="#DejaVuSans-6d"/>
      <use x="359.371094" xlink:href="#DejaVuSans-65"/>
     </g>
    </g>
    <g id="line2d_47">
     <path d="M 160.488558 170.126403 
L 175.488558 170.126403 
" style="fill:none;stroke:#000000;stroke-dasharray:1.5,2.475;stroke-dashoffset:0;stroke-width:1.5;"/>
    </g>
    <g id="line2d_48"/>
    <g id="text_32">
     <!-- Gladed -->
     <g transform="translate(181.488558 172.751403)scale(0.075 -0.075)">
      <defs>
       <path d="M 3809 666 
L 3809 1919 
L 2778 1919 
L 2778 2438 
L 4434 2438 
L 4434 434 
Q 4069 175 3628 42 
Q 3188 -91 2688 -91 
Q 1594 -91 976 548 
Q 359 1188 359 2328 
Q 359 3472 976 4111 
Q 1594 4750 2688 4750 
Q 3144 4750 3555 4637 
Q 3966 4525 4313 4306 
L 4313 3634 
Q 3963 3931 3569 4081 
Q 3175 4231 2741 4231 
Q 1884 4231 1454 3753 
Q 1025 3275 1025 2328 
Q 1025 1384 1454 906 
Q 1884 428 2741 428 
Q 3075 428 3337 486 
Q 3600 544 3809 666 
z
" id="DejaVuSans-47" transform="scale(0.015625)"/>
      </defs>
      <use xlink:href="#DejaVuSans-47"/>
      <use x="77.490234" xlink:href="#DejaVuSans-6c"/>
      <use x="105.273438" xlink:href="#DejaVuSans-61"/>
      <use x="166.552734" xlink:href="#DejaVuSans-64"/>
      <use x="230.029297" xlink:href="#DejaVuSans-65"/>
      <use x="291.552734" xlink:href="#DejaVuSans-64"/>
     </g>
    </g>
   </g>
  </g>
  <g id="text_33">
   <!-- Sources: USGS and OpenStreetMaps -->
   <g transform="translate(48.562598 186.065118)scale(0.065217 -0.065217)">
    <defs>
     <path d="M 750 794 
L 1409 794 
L 1409 0 
L 750 0 
L 750 794 
z
M 750 3309 
L 1409 3309 
L 1409 2516 
L 750 2516 
L 750 3309 
z
" id="DejaVuSans-3a" transform="scale(0.015625)"/>
    </defs>
    <use xlink:href="#DejaVuSans-53"/>
    <use x="63.476562" xlink:href="#DejaVuSans-6f"/>
    <use x="124.658203" xlink:href="#DejaVuSans-75"/>
    <use x="188.037109" xlink:href="#DejaVuSans-72"/>
    <use x="226.900391" xlink:href="#DejaVuSans-63"/>
    <use x="281.880859" xlink:href="#DejaVuSans-65"/>
    <use x="343.404297" xlink:href="#DejaVuSans-73"/>
    <use x="395.503906" xlink:href="#DejaVuSans-3a"/>
    <use x="429.195312" xlink:href="#DejaVuSans-20"/>
    <use x="460.982422" xlink:href="#DejaVuSans-55"/>
    <use x="534.175781" xlink:href="#DejaVuSans-53"/>
    <use x="597.652344" xlink:href="#DejaVuSans-47"/>
    <use x="675.142578" xlink:href="#DejaVuSans-53"/>
    <use x="738.619141" xlink:href="#DejaVuSans-20"/>
    <use x="770.40625" xlink:href="#DejaVuSans-61"/>
    <use x="831.685547" xlink:href="#DejaVuSans-6e"/>
    <use x="895.064453" xlink:href="#DejaVuSans-64"/>
    <use x="958.541016" xlink:href="#DejaVuSans-20"/>
    <use x="990.328125" xlink:href="#DejaVuSans-4f"/>
    <use x="1069.039062" xlink:href="#DejaVuSans-70"/>
    <use x="1132.515625" xlink:href="#DejaVuSans-65"/>
    <use x="1194.039062" xlink:href="#DejaVuSans-6e"/>
    <use x="1257.417969" xlink:href="#DejaVuSans-53"/>
    <use x="1320.894531" xlink:href="#DejaVuSans-74"/>
    <use x="1360.103516" xlink:href="#DejaVuSans-72"/>
    <use x="1398.966797" xlink:href="#DejaVuSans-65"/>
    <use x="1460.490234" xlink:href="#DejaVuSans-65"/>
    <use x="1522.013672" xlink:href="#DejaVuSans-74"/>
    <use x="1561.222656" xlink:href="#DejaVuSans-4d"/>
    <use x="1647.501953" xlink:href="#DejaVuSans-61"/>
    <use x="1708.78125" xlink:href="#DejaVuSans-70"/>
    <use x="1772.257812" xlink:href="#DejaVuSans-73"/>
   </g>
  </g>
 </g>
 <defs>
  <clipPath id="p869d1a5c08">
   <rect height="138.594178" width="216.107194" x="0" y="24.413629"/>
  </clipPath>
 </defs>
</svg>
