<?xml version="1.0" encoding="utf-8" standalone="no"?>
<!DOCTYPE svg PUBLIC "-//W3C//DTD SVG 1.1//EN"
  "http://www.w3.org/Graphics/SVG/1.1/DTD/svg11.dtd">
<svg height="195.180042pt" version="1.1" viewBox="0 0 155.134997 195.180042" width="155.134997pt" xmlns="http://www.w3.org/2000/svg" xmlns:xlink="http://www.w3.org/1999/xlink">
 <metadata>
  <rdf:RDF xmlns:cc="http://creativecommons.org/ns#" xmlns:dc="http://purl.org/dc/elements/1.1/" xmlns:rdf="http://www.w3.org/1999/02/22-rdf-syntax-ns#">
   <cc:Work>
    <dc:type rdf:resource="http://purl.org/dc/dcmitype/StillImage"/>
    <dc:date>2022-04-14T21:35:04.630728</dc:date>
    <dc:format>image/svg+xml</dc:format>
    <dc:creator>
     <cc:Agent>
      <dc:title>Matplotlib v3.4.3, https://matplotlib.org/</dc:title>
     </cc:Agent>
    </dc:creator>
   </cc:Work>
  </rdf:RDF>
 </metadata>
 <defs>
  <style type="text/css">*{stroke-linecap:butt;stroke-linejoin:round;}</style>
 </defs>
 <g id="figure_1">
  <g id="patch_1">
   <path d="M 0 195.180042 
L 155.134997 195.180042 
L 155.134997 0 
L 0 0 
z
" style="fill:#ffffff;"/>
  </g>
  <g id="axes_1">
   <g id="line2d_1">
    <path clip-path="url(#pf427b5a2b5)" d="M 118.833414 110.878413 
" style="fill:none;stroke:#008000;stroke-linecap:square;stroke-width:1.5;"/>
   </g>
   <g id="line2d_2">
    <path clip-path="url(#pf427b5a2b5)" d="M 118.833414 110.878413 
" style="fill:none;stroke:#4169e1;stroke-linecap:square;stroke-width:1.5;"/>
   </g>
   <g id="line2d_3">
    <path clip-path="url(#pf427b5a2b5)" d="M 118.833414 110.878413 
" style="fill:none;stroke:#000000;stroke-linecap:square;stroke-width:1.5;"/>
   </g>
   <g id="line2d_4">
    <path clip-path="url(#pf427b5a2b5)" d="M 118.833414 110.878413 
" style="fill:none;stroke:#ff0000;stroke-linecap:square;stroke-width:1.5;"/>
   </g>
   <g id="line2d_5">
    <path clip-path="url(#pf427b5a2b5)" d="M 118.833414 110.878413 
" style="fill:none;stroke:#ffd700;stroke-linecap:square;stroke-width:1.5;"/>
   </g>
   <g id="line2d_6">
    <path clip-path="url(#pf427b5a2b5)" d="M 118.833414 110.878413 
" style="fill:none;stroke:#000000;stroke-dasharray:1.5,2.475;stroke-dashoffset:0;stroke-width:1.5;"/>
   </g>
   <g id="line2d_7">
    <path clip-path="url(#pf427b5a2b5)" d="M 144.8088 172.174559 
L 144.893001 166.427956 
L 144.967398 161.351765 
L 145.041794 156.275575 
L 145.109847 151.68102 
L 145.1779 147.086465 
L 145.270175 140.774245 
L 145.352069 135.18412 
L 145.433963 129.593994 
L 145.484714 126.161536 
" style="fill:none;stroke:#808080;stroke-linecap:square;stroke-width:1.5;"/>
   </g>
   <g id="line2d_8">
    <path clip-path="url(#pf427b5a2b5)" d="M 123.845095 137.323125 
L 121.92693 132.868538 
L 120.007612 128.413952 
L 118.645692 125.251382 
L 117.283772 122.088812 
L 115.921852 118.926242 
L 114.559932 115.763672 
L 113.173502 112.545115 
L 111.787071 109.326558 
L 110.400641 106.108 
L 109.01421 102.889443 
L 106.623137 97.335207 
L 104.354327 92.069521 
L 102.18702 87.037115 
L 100.019714 82.00471 
L 98.429702 78.312413 
L 96.83969 74.620117 
L 95.025911 70.40886 
L 93.212132 66.197603 
L 91.72593 62.746483 
L 90.239727 59.295362 
L 87.92132 53.911959 
" style="fill:none;stroke:#808080;stroke-linecap:square;stroke-width:1.5;"/>
   </g>
   <g id="line2d_9">
    <path clip-path="url(#pf427b5a2b5)" d="M 67.822691 85.806111 
L 66.58044 81.460628 
L 65.685374 78.331076 
L 64.790307 75.201524 
L 63.43502 70.458387 
L 61.974192 65.348461 
L 60.513365 60.238535 
L 59.581965 56.980499 
L 58.650566 53.722463 
L 57.220305 48.720923 
L 56.197207 45.143472 
L 55.174108 41.566021 
L 53.810747 36.797044 
L 52.209777 31.196869 
L 50.608807 25.596694 
L 49.992872 23.441898 
" style="fill:none;stroke:#808080;stroke-linecap:square;stroke-width:1.5;"/>
   </g>
   <g id="line2d_10">
    <path clip-path="url(#pf427b5a2b5)" d="M 119.749242 142.960625 
L 117.421608 137.767435 
L 115.093973 132.574246 
L 112.602551 127.01642 
L 110.111128 121.458595 
L 108.777756 118.483367 
L 107.444383 115.50814 
L 106.111011 112.532913 
L 104.777638 109.557685 
L 102.512289 104.504464 
" style="fill:none;stroke:#808080;stroke-linecap:square;stroke-width:1.5;"/>
   </g>
   <g id="line2d_11">
    <path clip-path="url(#pf427b5a2b5)" d="M 122.818536 124.369939 
L 121.822256 120.997058 
L 120.825975 117.624176 
L 119.829694 114.251295 
L 118.833414 110.878413 
" style="fill:none;stroke:#808080;stroke-linecap:square;stroke-width:1.5;"/>
   </g>
   <g id="line2d_12">
    <path clip-path="url(#pf427b5a2b5)" d="M 138.493736 136.267978 
L 136.406593 133.346585 
L 134.31945 130.425191 
L 132.232307 127.503798 
L 130.145164 124.582404 
" style="fill:none;stroke:#808080;stroke-linecap:square;stroke-width:1.5;"/>
   </g>
   <g id="line2d_13">
    <path clip-path="url(#pf427b5a2b5)" d="M 124.704405 136.214862 
L 122.736642 131.654043 
L 120.542806 126.567803 
L 119.057757 123.125297 
L 117.572708 119.68279 
L 116.087659 116.240283 
L 114.602609 112.797776 
L 112.307848 107.47682 
L 110.013086 102.155865 
L 107.965737 97.411292 
L 106.151381 93.203624 
L 104.620194 89.654167 
L 103.089008 86.10471 
L 101.557821 82.555253 
L 100.026634 79.005796 
L 98.603294 75.70577 
L 97.179953 72.405743 
L 95.756613 69.105717 
L 94.333272 65.805691 
L 92.823424 62.305761 
L 91.313576 58.805832 
L 89.731061 55.135068 
L 88.937497 53.296098 
" style="fill:none;stroke:#808080;stroke-linecap:square;stroke-width:1.5;"/>
   </g>
   <g id="line2d_14">
    <path clip-path="url(#pf427b5a2b5)" d="M 65.883765 84.690669 
L 64.725715 80.556216 
L 63.506533 76.204991 
L 62.02206 70.904851 
L 60.573921 65.736784 
L 59.125781 60.568717 
L 58.189191 57.225264 
L 57.252601 53.881812 
L 56.039186 49.550685 
L 55.033389 45.961032 
L 54.027593 42.371379 
L 53.018913 38.770959 
L 52.010233 35.170539 
L 50.724151 30.579572 
L 49.43807 25.988606 
L 48.754082 23.54813 
" style="fill:none;stroke:#808080;stroke-linecap:square;stroke-width:1.5;"/>
   </g>
   <g id="line2d_15">
    <path clip-path="url(#pf427b5a2b5)" d="M 87.133523 98.872707 
L 92.910509 99.736204 
L 98.687495 100.599702 
" style="fill:none;stroke:#808080;stroke-linecap:square;stroke-width:1.5;"/>
   </g>
   <g id="line2d_16">
    <path clip-path="url(#pf427b5a2b5)" d="M 87.267321 98.554009 
L 93.448587 99.483543 
L 99.629852 100.413078 
" style="fill:none;stroke:#808080;stroke-linecap:square;stroke-width:1.5;"/>
   </g>
   <g id="line2d_17">
    <path clip-path="url(#pf427b5a2b5)" d="M 118.833414 110.878413 
L 119.903803 110.964548 
L 120.779838 111.720378 
L 121.655872 112.476207 
L 122.531907 113.232037 
L 123.407942 113.987867 
L 123.865857 114.890843 
L 124.323771 115.793819 
L 124.562532 116.912849 
L 124.801293 118.031879 
L 124.880881 119.091333 
L 124.84051 120.112026 
L 124.501977 121.034383 
L 124.163443 121.956739 
L 123.49099 123.163339 
L 122.818536 124.369939 
L 122.37677 125.283682 
L 121.935004 126.197425 
L 121.347617 127.640177 
L 120.760229 129.082929 
L 120.172842 130.525681 
L 119.585454 131.968433 
L 118.241701 133.365247 
" style="fill:none;stroke:#008000;stroke-linecap:square;stroke-width:1.5;"/>
   </g>
   <g id="line2d_18">
    <path clip-path="url(#pf427b5a2b5)" d="M 130.145164 124.582404 
L 130.056349 125.921795 
L 130.26541 126.942847 
L 130.47447 127.963899 
L 130.68353 128.984951 
L 130.892591 130.006004 
L 131.320516 131.232702 
L 131.74844 132.4594 
L 132.176365 133.686098 
L 132.60429 134.912796 
L 133.281069 136.375287 
L 133.957848 137.837778 
L 134.634627 139.30027 
L 135.311405 140.762761 
L 136.06806 141.430303 
L 137.182279 141.707369 
" style="fill:none;stroke:#008000;stroke-linecap:square;stroke-width:1.5;"/>
   </g>
   <g id="line2d_19">
    <path clip-path="url(#pf427b5a2b5)" d="M 92.525838 69.387449 
L 92.826308 70.381584 
L 93.126778 71.375719 
L 93.644383 72.288744 
L 94.161987 73.201769 
L 94.679592 74.114795 
L 95.197196 75.02782 
L 95.764543 75.901367 
L 96.331889 76.774913 
L 96.899236 77.64846 
L 97.466582 78.522007 
L 98.033929 79.395554 
L 98.601275 80.269101 
L 99.168622 81.142648 
L 99.735968 82.016195 
L 100.413035 83.468996 
L 101.090102 84.921797 
L 101.43844 86.433098 
L 101.786778 87.944398 
L 102.135116 89.455699 
L 102.483454 90.967 
L 102.483454 92.635855 
L 102.483454 94.30471 
L 102.364073 95.384261 
L 102.244692 96.463813 
L 102.212684 97.985522 
L 102.180677 99.50723 
L 102.148669 101.028939 
L 102.116661 102.550648 
L 102.314475 103.527556 
L 102.512289 104.504464 
" style="fill:none;stroke:#008000;stroke-linecap:square;stroke-width:1.5;"/>
   </g>
   <g id="line2d_20">
    <path clip-path="url(#pf427b5a2b5)" d="M 104.137481 102.761677 
L 105.076955 103.876041 
L 106.016429 104.990406 
L 106.955903 106.10477 
L 107.895377 107.219135 
L 108.41327 108.239828 
L 108.931163 109.260521 
L 109.433773 110.477529 
L 109.936383 111.694537 
L 110.438992 112.911545 
L 110.941602 114.128553 
L 111.444212 115.345561 
L 111.946822 116.562569 
L 112.449432 117.779577 
L 112.952042 118.996585 
L 113.454652 120.213593 
L 113.957262 121.430601 
L 114.459871 122.647609 
L 114.962481 123.864617 
L 115.465091 125.081625 
L 115.967701 126.298633 
L 116.470311 127.515641 
L 116.972921 128.732649 
L 117.510422 130.16607 
L 118.047924 131.599491 
L 118.241701 133.365247 
" style="fill:none;stroke:#008000;stroke-linecap:square;stroke-width:1.5;"/>
   </g>
   <g id="line2d_21">
    <path clip-path="url(#pf427b5a2b5)" d="M 51.950254 23.345714 
L 52.507364 24.171169 
L 53.741541 25.152384 
L 54.975717 26.133599 
L 55.921247 26.643946 
L 56.866776 27.154292 
L 57.812306 27.664639 
L 58.757835 28.174986 
L 59.733354 28.577664 
L 60.708873 28.980343 
L 61.684392 29.383021 
L 62.65991 29.7857 
L 63.954066 30.649198 
L 65.248222 31.512696 
L 66.442605 32.494628 
L 67.636988 33.476561 
L 68.910959 34.801596 
L 70.184929 36.126631 
L 71.4589 37.451666 
L 72.73287 38.776701 
L 73.862517 39.527506 
L 74.992163 40.278311 
L 76.12181 41.029117 
L 77.251457 41.779922 
L 78.381104 42.530727 
L 79.51075 43.281533 
L 80.640397 44.032338 
L 81.770044 44.783143 
L 82.924633 45.804554 
L 84.079223 46.825965 
L 84.765806 47.581436 
L 85.452389 48.336907 
L 86.138972 49.092378 
L 86.825555 49.847849 
L 87.353541 50.709911 
L 87.881526 51.571973 
L 88.409512 52.434036 
L 88.937497 53.296098 
" style="fill:none;stroke:#008000;stroke-linecap:square;stroke-width:1.5;"/>
   </g>
   <g id="line2d_22">
    <path clip-path="url(#pf427b5a2b5)" d="M 102.512289 104.504464 
L 103.324885 103.633071 
L 104.137481 102.761677 
L 105.013516 102.271428 
L 105.889551 101.78118 
L 106.934564 101.535697 
L 107.979578 101.290213 
L 109.024591 101.04473 
L 110.069604 100.799247 
L 111.204297 101.147733 
L 112.33899 101.496218 
L 113.473683 101.844704 
L 114.608376 102.19319 
L 115.743069 102.541675 
L 116.877762 102.890161 
L 118.012455 103.238647 
L 119.147148 103.587132 
L 121.038207 103.822566 
L 122.929266 104.058 
L 124.820325 104.293435 
L 126.711384 104.528869 
L 127.686614 104.88202 
L 128.661845 105.235171 
L 129.418499 105.922094 
L 130.175153 106.609016 
L 130.832035 108.042437 
L 131.488917 109.475857 
L 131.787369 111.222951 
L 132.085821 112.970045 
L 132.384272 114.717139 
L 132.682724 116.464232 
L 133.011165 117.612333 
L 133.339606 118.760433 
L 133.668047 119.908534 
L 133.996488 121.056634 
L 134.155662 122.607772 
L 134.314836 124.15891 
L 134.693163 125.631091 
L 135.071491 127.103273 
L 135.867938 128.673791 
L 136.664386 130.244309 
L 137.460834 131.814827 
L 138.257282 133.385345 
L 138.695011 134.798668 
L 139.13274 136.211991 
L 139.171957 137.192488 
L 138.853608 138.213181 
L 138.53526 139.233874 
L 137.85877 140.470621 
L 137.182279 141.707369 
L 137.162094 143.356843 
L 137.141909 145.006318 
L 137.364522 145.964923 
L 137.587135 146.923527 
L 137.809748 147.882132 
L 138.032362 148.840737 
L 137.634426 150.411255 
L 136.352958 150.947442 
L 135.071491 151.483629 
L 134.142974 151.045778 
L 133.214458 150.607928 
L 131.821107 149.498947 
L 130.427756 148.389966 
L 129.034405 147.280985 
L 127.641054 146.172004 
L 126.492519 145.103578 
L 125.343985 144.035152 
L 124.195451 142.966726 
L 123.046917 141.8983 
" style="fill:none;stroke:#008000;stroke-linecap:square;stroke-width:1.5;"/>
   </g>
   <g id="line2d_23">
    <path clip-path="url(#pf427b5a2b5)" d="M 87.92132 53.911959 
L 86.538926 54.610366 
L 85.156533 55.308773 
L 84.519836 56.053836 
L 83.82316 57.428398 
L 83.126485 58.80296 
L 82.693514 59.867977 
L 82.260543 60.932994 
L 81.827571 61.99801 
L 81.3946 63.063027 
L 80.961629 64.128043 
L 80.528658 65.19306 
L 80.095687 66.258077 
L 79.662716 67.323093 
L 79.060622 68.348811 
L 78.458528 69.374529 
L 77.856434 70.400246 
L 77.25434 71.425964 
L 76.652247 72.451682 
L 76.050153 73.4774 
L 75.448059 74.503117 
L 74.845965 75.528835 
L 74.218928 76.736153 
L 73.591892 77.943471 
L 72.964855 79.150789 
L 72.337818 80.358107 
L 71.710781 81.565424 
L 71.083744 82.772742 
L 70.456707 83.98006 
L 69.829671 85.187378 
" style="fill:none;stroke:#4169e1;stroke-linecap:square;stroke-width:1.5;"/>
   </g>
   <g id="line2d_24">
    <path clip-path="url(#pf427b5a2b5)" d="M 145.484714 126.161536 
L 146.025099 126.994887 
L 146.565484 127.828238 
L 147.105869 128.661588 
L 147.646254 129.494939 
L 147.86483 130.535013 
L 148.083406 131.575086 
L 148.033808 132.861002 
L 147.98421 134.146917 
L 147.934613 135.432833 
L 147.885015 136.718748 
L 147.456802 137.974876 
L 147.028588 139.231003 
L 146.600375 140.48713 
L 146.172162 141.743258 
L 146.162358 143.53952 
L 146.152554 145.335782 
L 146.142749 147.132044 
L 146.132945 148.928307 
L 146.331913 150.223912 
L 146.530881 151.519518 
L 146.053358 152.383016 
L 145.575835 153.246514 
L 144.480648 154.286587 
L 143.38546 155.326661 
L 142.887752 156.760081 
L 142.390044 158.193502 
L 142.171468 159.704444 
L 141.952892 161.215386 
L 141.952892 162.216699 
L 141.952892 163.218012 
L 141.952892 164.219325 
L 141.952892 165.220638 
L 142.191653 166.732297 
L 142.430414 168.243957 
L 143.047503 169.67666 
L 143.664591 171.109363 
L 144.8088 172.174559 
" style="fill:none;stroke:#008000;stroke-linecap:square;stroke-width:1.5;"/>
   </g>
   <g id="line2d_25">
    <path clip-path="url(#pf427b5a2b5)" d="M 111.025803 86.189409 
L 111.881653 87.465634 
L 112.737503 88.74186 
L 113.613538 89.379972 
L 114.489572 90.018085 
L 115.365607 90.656198 
L 116.241642 91.294311 
L 117.167275 91.775228 
L 118.092908 92.256145 
L 119.01854 92.737063 
L 119.944173 93.21798 
L 120.978805 93.650088 
L 122.004066 93.919976 
L 123.029327 94.189864 
L 124.054588 94.459752 
L 125.079848 94.72964 
L 126.105109 94.999527 
L 127.13037 95.269415 
L 128.15563 95.539303 
L 129.180891 95.809191 
L 130.434676 96.554972 
L 131.688462 97.300753 
L 132.60429 98.5375 
L 133.520119 99.774247 
L 134.276773 101.089233 
L 135.033427 102.404219 
L 135.341971 103.366054 
L 135.650516 104.327888 
L 135.95906 105.289723 
L 136.267604 106.251558 
" style="fill:none;stroke:#008000;stroke-linecap:square;stroke-width:1.5;"/>
   </g>
   <g id="line2d_26">
    <path clip-path="url(#pf427b5a2b5)" d="M 136.267604 106.251558 
L 136.362042 107.233132 
L 136.456479 108.214705 
L 136.550917 109.196279 
L 136.645354 110.177853 
L 136.739792 111.159427 
L 136.83423 112.141001 
L 136.928667 113.122575 
L 137.023105 114.104148 
L 137.282051 115.124842 
L 137.540998 116.145535 
L 138.138478 117.598336 
L 138.735958 119.051137 
L 138.914741 120.111309 
L 139.093523 121.17148 
L 138.854762 122.663042 
L 138.616 124.154603 
L 138.894555 125.136536 
L 139.17311 126.118469 
L 139.840085 127.620079 
L 140.507059 129.12169 
L 141.174034 130.6233 
L 141.841009 132.124911 
L 142.059873 133.400778 
L 142.278738 134.676644 
L 142.497602 135.952511 
L 142.716467 137.228377 
L 142.756837 138.21031 
L 142.31882 139.417269 
L 141.880802 140.624228 
L 141.442785 141.831187 
L 141.004767 143.038146 
L 140.845593 144.058839 
L 140.845593 145.472162 
L 140.845593 146.885485 
L 140.845593 148.298807 
L 140.845593 149.71213 
L 140.016272 150.454322 
L 139.186951 151.196514 
L 138.158086 151.268292 
L 137.129221 151.340071 
L 136.100356 151.41185 
L 135.071491 151.483629 
" style="fill:none;stroke:#008000;stroke-linecap:square;stroke-width:1.5;"/>
   </g>
   <g id="line2d_27">
    <path clip-path="url(#pf427b5a2b5)" d="M 87.92132 53.911959 
L 87.503776 54.780482 
L 87.344602 56.351 
L 87.185427 57.921518 
L 87.215128 58.971999 
L 87.244829 60.022481 
L 87.27453 61.072962 
L 87.304231 62.123444 
L 87.184851 63.75282 
L 87.06547 65.382197 
L 86.801766 66.398045 
L 86.538061 67.413893 
L 86.274357 68.429741 
L 86.010652 69.44559 
L 85.746948 70.461438 
L 85.483244 71.477286 
L 85.219539 72.493134 
L 84.955835 73.508982 
L 84.458127 74.617963 
L 83.960419 75.726944 
L 83.462712 76.835925 
L 82.965004 77.944906 
L 82.427502 78.995208 
L 81.890001 80.04551 
L 81.3525 81.095812 
L 80.814998 82.146114 
L 80.277497 83.196416 
L 79.739996 84.246718 
L 79.202494 85.29702 
L 78.664993 86.347322 
L 78.207079 87.623547 
L 77.749165 88.899773 
L 77.916413 90.25639 
" style="fill:none;stroke:#4169e1;stroke-linecap:square;stroke-width:1.5;"/>
   </g>
   <g id="line2d_28">
    <path clip-path="url(#pf427b5a2b5)" d="M 88.937497 53.296098 
L 89.837322 53.854536 
L 90.737146 54.412975 
L 91.636971 54.971413 
L 92.536795 55.529851 
L 93.43662 56.08829 
L 94.336444 56.646728 
L 95.236269 57.205166 
L 96.136093 57.763605 
L 97.074991 58.205762 
L 98.013888 58.647918 
L 98.952785 59.090075 
L 99.891682 59.532232 
L 100.624979 60.307442 
L 101.358276 61.082652 
L 102.091574 61.857862 
L 102.824871 62.633072 
L 103.999069 64.183492 
L 105.173267 65.733913 
L 105.69116 66.598128 
L 106.24827 68.306461 
L 106.80538 70.014795 
L 107.203892 71.545835 
L 107.602404 73.076874 
L 107.930845 74.892517 
L 108.259286 76.708159 
L 108.587727 78.523802 
L 108.916168 80.339444 
L 109.234516 81.331067 
L 109.552865 82.32269 
L 109.871213 83.314313 
L 110.189562 84.305936 
L 110.607682 85.247672 
L 111.025803 86.189409 
" style="fill:none;stroke:#008000;stroke-linecap:square;stroke-width:1.5;"/>
   </g>
   <g id="line2d_29">
    <path clip-path="url(#pf427b5a2b5)" d="M 99.891682 59.532232 
L 98.696722 60.867316 
L 97.860481 61.338184 
L 97.283186 62.143542 
L 96.705891 62.948899 
L 96.88525 63.930114 
L 97.06461 64.911329 
L 97.940356 65.814305 
L 98.816103 66.717281 
L 99.691849 67.620257 
L 100.567596 68.523233 
L 100.648336 69.505166 
L 100.090073 70.290425 
L 98.438064 69.995773 
L 96.786055 69.701122 
L 95.134046 69.40647 
L 93.482036 69.111819 
L 92.525838 69.387449 
L 91.689596 70.172708 
L 90.853355 70.957967 
L 89.917918 72.115757 
L 88.982481 73.273548 
L 88.316083 74.800281 
L 87.649685 76.327014 
L 86.983288 77.853747 
L 86.31689 79.380481 
L 85.689853 80.460212 
L 85.062816 81.539943 
L 84.435779 82.619674 
L 83.808742 83.699405 
L 83.181706 84.779137 
L 82.554669 85.858868 
L 81.927632 86.938599 
L 81.300595 88.01833 
L 80.45455 88.577845 
L 79.608504 89.13736 
L 78.762458 89.696875 
L 77.916413 90.25639 
L 76.940606 90.432966 
L 75.964799 90.609542 
L 74.054708 90.295151 
L 72.620987 89.765424 
L 71.187265 89.235697 
L 69.535544 88.215004 
L 67.883824 87.194311 
L 67.365931 86.565529 
" style="fill:none;stroke:#4169e1;stroke-linecap:square;stroke-width:1.5;"/>
   </g>
   <g id="line2d_30">
    <path clip-path="url(#pf427b5a2b5)" d="M 46.123093 23.871134 
L 46.307067 25.003802 
L 46.49104 26.13647 
L 46.675013 27.269138 
L 46.858986 28.401806 
L 46.972023 30.331936 
L 47.085059 32.262065 
L 47.2748 33.393298 
L 47.46454 34.52453 
L 47.65428 35.655763 
L 47.844021 36.786995 
L 48.245416 38.161198 
L 48.646812 39.535402 
L 49.048208 40.909605 
L 49.449604 42.283809 
L 49.963171 43.588745 
L 50.476739 44.893682 
L 50.990306 46.198619 
L 51.503874 47.503556 
L 51.673429 48.308913 
L 52.078141 49.284027 
L 52.482853 50.259141 
L 52.887565 51.234255 
L 53.292277 52.209368 
L 53.696989 53.184482 
L 54.101701 54.159596 
L 54.506413 55.13471 
L 54.911125 56.109823 
L 55.7837 57.803083 
L 56.656274 59.496343 
L 56.895612 60.565846 
L 57.13495 61.635348 
L 57.076125 62.90942 
L 57.0173 64.183492 
" style="fill:none;stroke:#000000;stroke-linecap:square;stroke-width:1.5;"/>
   </g>
   <g id="line2d_31">
    <path clip-path="url(#pf427b5a2b5)" d="M 102.512289 104.504464 
L 101.319636 105.449072 
L 100.126983 106.39368 
L 99.529503 107.257895 
L 99.091774 108.710696 
L 98.654045 110.163497 
L 98.624056 111.488532 
L 98.594066 112.813567 
L 98.564077 114.138602 
L 98.534088 115.463637 
L 98.355017 117.063226 
L 98.175946 118.662814 
L 97.996875 120.262403 
L 97.817804 121.861991 
L 98.016771 123.393749 
L 98.215739 124.925507 
L 98.653468 125.867243 
L 99.091197 126.80898 
L 99.748079 127.603929 
L 100.404961 128.398878 
L 101.061843 129.193827 
L 101.718725 129.988777 
L 102.614945 130.460363 
L 103.511165 130.931949 
L 105.163463 131.148003 
L 106.81576 131.364057 
L 108.199019 131.344318 
L 109.582278 131.324578 
L 110.965536 131.304839 
L 112.348795 131.2851 
L 113.364395 131.402817 
L 114.379996 131.520534 
L 115.345422 131.981712 
L 116.310848 132.442891 
L 117.276275 132.904069 
L 118.241701 133.365247 
L 119.642549 134.354717 
L 121.043398 135.344186 
L 122.444246 136.333656 
L 123.845095 137.323125 
L 123.896423 138.333769 
L 123.94775 139.344413 
L 123.497334 140.621357 
L 123.046917 141.8983 
L 121.398079 142.429462 
L 119.749242 142.960625 
" style="fill:none;stroke:#4169e1;stroke-dasharray:5.55,2.4;stroke-dashoffset:0;stroke-width:1.5;"/>
   </g>
   <g id="line2d_32">
    <path clip-path="url(#pf427b5a2b5)" d="M 46.123093 23.871134 
L 45.398159 25.162433 
L 44.673224 26.453732 
L 43.948289 27.745031 
L 43.223355 29.03633 
L 42.948837 29.98022 
L 42.674319 30.92411 
L 42.399801 31.868 
L 42.125283 32.81189 
L 42.062132 34.088833 
L 41.998982 35.365777 
L 41.935831 36.64272 
L 41.872681 37.919663 
L 42.12586 39.044077 
L 42.379039 40.16849 
L 42.632218 41.292903 
L 42.885398 42.417317 
L 43.300635 43.361207 
L 43.715872 44.305097 
L 44.131109 45.248987 
L 44.546346 46.192877 
L 45.028482 47.057093 
L 45.510619 47.921308 
L 45.992755 48.785524 
L 46.474892 49.64974 
L 46.957028 50.513955 
L 47.439164 51.378171 
L 47.921301 52.242387 
L 48.403437 53.106602 
L 49.307731 54.133755 
L 50.212025 55.160909 
L 51.116319 56.188062 
L 52.020614 57.215215 
L 52.924908 58.242369 
L 53.829202 59.269522 
L 54.733496 60.296675 
L 55.63779 61.323829 
L 56.327545 62.753661 
L 57.0173 64.183492 
L 56.945787 65.385068 
" style="fill:none;stroke:#4169e1;stroke-linecap:square;stroke-width:1.5;"/>
   </g>
   <g id="line2d_33">
    <path clip-path="url(#pf427b5a2b5)" d="M 81.770044 44.783143 
L 81.630478 46.051832 
L 81.490912 47.320521 
L 81.351346 48.589209 
L 81.211781 49.857898 
L 81.012236 50.878591 
L 80.6143 51.860524 
L 80.096408 52.7635 
L 79.380124 53.627716 
L 78.21573 54.717316 
L 77.051336 55.806917 
L 75.886942 56.896518 
L 74.722548 57.986119 
L 74.045481 58.692421 
L 73.368413 59.398724 
L 72.691346 60.224179 
L 72.09502 61.086959 
L 71.49754 62.107652 
L 71.059234 63.207302 
L 70.690999 64.257783 
L 70.322765 65.308265 
L 69.95453 66.358746 
L 69.586296 67.409228 
L 69.437502 68.464375 
L 69.288709 69.519522 
L 69.139916 70.574669 
L 68.991122 71.629816 
L 68.976993 72.719416 
L 68.962863 73.809017 
L 68.948734 74.898618 
L 68.934604 75.988219 
L 68.282336 77.814269 
L 67.630068 79.640319 
L 67.640448 81.179255 
L 67.963987 82.609087 
L 68.287526 84.038919 
L 68.344045 85.56637 
" style="fill:none;stroke:#4169e1;stroke-linecap:square;stroke-width:1.5;"/>
   </g>
   <g id="line2d_34">
    <path clip-path="url(#pf427b5a2b5)" d="M 102.824871 62.633072 
L 102.77931 63.661661 
L 102.733749 64.69025 
L 102.982603 65.681514 
L 103.231457 66.672778 
L 103.480311 67.664042 
L 103.729165 68.655306 
L 103.878535 69.705428 
L 104.027905 70.755551 
L 104.177275 71.805673 
L 104.326645 72.855796 
L 104.316552 74.377146 
L 104.30646 75.898495 
L 104.296367 77.419845 
L 104.286275 78.941195 
L 104.535128 80.26623 
L 104.783982 81.591265 
L 105.032836 82.9163 
L 105.28169 84.241335 
L 105.331576 86.018217 
L 105.381462 87.795099 
L 105.431349 89.57198 
L 105.481235 91.348862 
L 105.32206 92.840424 
L 105.162886 94.331985 
L 104.784559 95.509874 
L 104.406232 96.687763 
L 104.027905 97.865651 
L 103.649578 99.04354 
L 102.883119 100.797094 
L 102.116661 102.550648 
" style="fill:none;stroke:#008000;stroke-linecap:square;stroke-width:1.5;"/>
   </g>
   <g id="line2d_35">
    <path clip-path="url(#pf427b5a2b5)" d="M 111.025803 86.189409 
L 110.413328 87.126839 
L 110.094692 88.088673 
L 109.776055 89.050508 
L 109.457418 90.012343 
L 109.138781 90.974178 
L 108.292736 92.495527 
L 107.44669 94.016877 
L 106.600645 95.538227 
L 105.754599 97.059576 
L 105.35032 98.485102 
L 104.94604 99.910627 
L 104.541761 101.336152 
L 104.137481 102.761677 
" style="fill:none;stroke:#4169e1;stroke-linecap:square;stroke-width:1.5;"/>
   </g>
   <g id="line2d_36">
    <path clip-path="url(#pf427b5a2b5)" d="M 48.754082 23.54813 
L 49.992872 23.441898 
L 50.961759 23.253837 
L 51.950254 23.345714 
L 52.95259 23.489272 
L 53.937913 23.793613 
L 54.923236 24.097955 
L 55.908559 24.402297 
L 56.893882 24.706638 
L 58.4565 24.942073 
L 60.019118 25.177507 
L 61.581736 25.412941 
L 63.144354 25.648375 
L 64.099976 26.080483 
L 65.055598 26.512591 
L 66.165348 27.46958 
L 67.275098 28.42657 
L 68.384847 29.38356 
L 69.494597 30.340549 
L 70.604347 31.297539 
L 71.714097 32.254529 
L 72.823847 33.211518 
L 73.933597 34.168508 
L 74.789447 34.767501 
L 75.645297 35.366494 
L 76.501146 35.965488 
L 77.356996 36.564481 
L 78.55138 37.094208 
L 79.745763 37.623935 
L 80.940146 38.153662 
L 82.13453 38.683389 
L 82.8338 39.473582 
L 83.533071 40.263776 
L 84.232342 41.05397 
L 84.931613 41.844164 
L 85.630884 42.634358 
L 86.330154 43.424552 
L 87.029425 44.214746 
L 87.728696 45.004939 
L 88.427967 45.795133 
L 89.127237 46.585327 
L 89.826508 47.375521 
L 90.525779 48.165715 
L 91.22505 48.955909 
L 91.924321 49.746103 
L 92.623591 50.536296 
L 93.322862 51.32649 
L 94.078363 51.994032 
L 95.033985 52.465259 
L 95.989607 52.936487 
L 96.945229 53.407714 
L 97.900851 53.878941 
L 98.876081 54.723059 
L 99.851312 55.567176 
L 100.210031 56.508913 
L 100.448792 57.452085 
L 100.170237 58.492159 
L 99.891682 59.532232 
" style="fill:none;stroke:#008000;stroke-linecap:square;stroke-width:1.5;"/>
   </g>
   <g id="line2d_37">
    <path clip-path="url(#pf427b5a2b5)" d="M 72.73287 38.776701 
L 72.816206 39.869173 
L 72.899541 40.961645 
L 72.982877 42.054117 
L 73.066213 43.146589 
L 72.708071 44.61877 
L 72.349929 46.090951 
L 71.787485 47.160813 
L 71.22504 48.230675 
L 70.662596 49.300536 
L 70.100151 50.370398 
L 69.537707 51.440259 
L 68.975263 52.510121 
L 68.412818 53.579983 
L 67.850374 54.649844 
L 67.094008 55.93576 
L 66.337642 57.221676 
L 65.581276 58.507591 
L 64.82491 59.793507 
L 64.337295 61.206829 
L 63.84968 62.620152 
L 63.362065 64.033475 
L 62.87445 65.446798 
L 62.496122 66.821001 
L 62.117795 68.195204 
L 61.739468 69.569408 
L 61.361141 70.943611 
" style="fill:none;stroke:#000000;stroke-linecap:square;stroke-width:1.5;"/>
   </g>
   <g id="line2d_38">
    <path clip-path="url(#pf427b5a2b5)" d="M 48.754082 23.54813 
L 47.438588 23.709632 
L 46.123093 23.871134 
L 44.775591 23.792178 
L 43.428089 23.713221 
L 42.080587 23.634265 
L 40.733085 23.555308 
L 39.299941 23.280396 
L 37.866796 23.005483 
L 35.915759 23.024863 
L 33.964721 23.044244 
L 32.332609 23.623498 
L 30.700496 24.202752 
L 29.068384 24.782006 
L 27.436271 25.36126 
L 26.152208 25.999373 
L 24.868145 26.637486 
L 23.584082 27.275598 
L 22.300019 27.913711 
L 21.463922 28.644957 
L 20.627825 29.376202 
L 19.791728 30.107448 
L 18.955631 30.838694 
L 18.119533 31.569939 
L 17.283436 32.301185 
L 16.447339 33.03243 
L 15.611242 33.763676 
L 14.03882 34.912135 
L 12.466398 36.060595 
L 10.893976 37.209054 
L 9.321553 38.357513 
L 8.38554 39.476543 
L 7.449526 40.595573 
L 7.051591 41.57607 
L 7.608701 42.401526 
L 9.181411 42.381428 
L 10.754121 42.36133 
L 11.719548 42.047298 
L 12.684974 41.733266 
L 13.6504 41.419234 
L 14.615826 41.105202 
L 15.62119 40.904042 
L 16.626554 40.702882 
L 17.631918 40.501723 
L 18.637282 40.300563 
L 19.642646 40.099403 
L 20.64801 39.898243 
L 21.653374 39.697083 
L 22.658738 39.495924 
L 23.574278 39.054126 
L 24.489818 38.612328 
L 25.405358 38.17053 
L 26.320898 37.728732 
L 27.166944 37.188956 
L 28.012989 36.64918 
L 28.859035 36.109404 
L 29.705081 35.569628 
L 31.426008 35.466267 
L 32.381053 35.898375 
L 33.256511 36.527156 
L 33.774404 37.507653 
L 34.172628 38.970503 
L 34.570852 40.433353 
L 34.969076 41.896204 
L 35.3673 43.359054 
L 35.725442 44.301149 
L 36.083584 45.243245 
L 36.441726 46.18534 
L 36.799868 47.127436 
L 37.636109 48.501998 
L 38.47235 49.87656 
L 39.258705 50.887563 
L 40.045061 51.898567 
L 40.831416 52.90957 
L 41.617771 53.920573 
L 42.712382 55.117842 
L 43.806993 56.31511 
L 45.080964 57.375282 
L 46.354934 58.435453 
L 47.628905 59.495625 
L 48.902875 60.555797 
L 50.067557 61.17417 
L 51.23224 61.792544 
L 52.396922 62.410917 
L 53.561604 63.029291 
L 54.40765 63.618235 
L 55.253696 64.207179 
L 56.099741 64.796124 
L 56.945787 65.385068 
L 58.049625 66.774704 
L 59.153464 68.16434 
L 60.257302 69.553975 
L 61.361141 70.943611 
L 62.206033 72.170309 
L 63.050925 73.397007 
L 63.916868 74.682923 
L 64.78281 75.968839 
L 65.648752 77.254754 
L 66.514695 78.54067 
L 67.630068 79.640319 
" style="fill:none;stroke:#008000;stroke-linecap:square;stroke-width:1.5;"/>
   </g>
   <g id="text_1">
    <g id="patch_2">
     <path d="M 146.118809 149.639866 
L 146.21228 144.569478 
L 144.23699 144.533064 
L 144.14352 149.603452 
z
" style="fill:#ffffff;"/>
    </g>
    <!-- Lift 1 -->
    <g style="fill:#808080;" transform="translate(145.683314 149.611834)rotate(-88.943894)scale(0.02 -0.02)">
     <defs>
      <path d="M 628 4666 
L 1259 4666 
L 1259 531 
L 3531 531 
L 3531 0 
L 628 0 
L 628 4666 
z
" id="DejaVuSans-4c" transform="scale(0.015625)"/>
      <path d="M 603 3500 
L 1178 3500 
L 1178 0 
L 603 0 
L 603 3500 
z
M 603 4863 
L 1178 4863 
L 1178 4134 
L 603 4134 
L 603 4863 
z
" id="DejaVuSans-69" transform="scale(0.015625)"/>
      <path d="M 2375 4863 
L 2375 4384 
L 1825 4384 
Q 1516 4384 1395 4259 
Q 1275 4134 1275 3809 
L 1275 3500 
L 2222 3500 
L 2222 3053 
L 1275 3053 
L 1275 0 
L 697 0 
L 697 3053 
L 147 3053 
L 147 3500 
L 697 3500 
L 697 3744 
Q 697 4328 969 4595 
Q 1241 4863 1831 4863 
L 2375 4863 
z
" id="DejaVuSans-66" transform="scale(0.015625)"/>
      <path d="M 1172 4494 
L 1172 3500 
L 2356 3500 
L 2356 3053 
L 1172 3053 
L 1172 1153 
Q 1172 725 1289 603 
Q 1406 481 1766 481 
L 2356 481 
L 2356 0 
L 1766 0 
Q 1100 0 847 248 
Q 594 497 594 1153 
L 594 3053 
L 172 3053 
L 172 3500 
L 594 3500 
L 594 4494 
L 1172 4494 
z
" id="DejaVuSans-74" transform="scale(0.015625)"/>
      <path id="DejaVuSans-20" transform="scale(0.015625)"/>
      <path d="M 794 531 
L 1825 531 
L 1825 4091 
L 703 3866 
L 703 4441 
L 1819 4666 
L 2450 4666 
L 2450 531 
L 3481 531 
L 3481 0 
L 794 0 
L 794 531 
z
" id="DejaVuSans-31" transform="scale(0.015625)"/>
     </defs>
     <use xlink:href="#DejaVuSans-4c"/>
     <use x="55.712891" xlink:href="#DejaVuSans-69"/>
     <use x="83.496094" xlink:href="#DejaVuSans-66"/>
     <use x="116.951172" xlink:href="#DejaVuSans-74"/>
     <use x="156.160156" xlink:href="#DejaVuSans-20"/>
     <use x="187.947266" xlink:href="#DejaVuSans-31"/>
    </g>
   </g>
   <g id="text_2">
    <g id="patch_3">
     <path d="M 104.554909 95.566704 
L 106.94995 100.036754 
L 108.691364 99.10371 
L 106.296323 94.633659 
z
" style="fill:#ffffff;"/>
    </g>
    <!-- Lift 2 -->
    <g style="fill:#808080;" transform="translate(104.948612 95.378449)rotate(-298.182289)scale(0.02 -0.02)">
     <defs>
      <path d="M 1228 531 
L 3431 531 
L 3431 0 
L 469 0 
L 469 531 
Q 828 903 1448 1529 
Q 2069 2156 2228 2338 
Q 2531 2678 2651 2914 
Q 2772 3150 2772 3378 
Q 2772 3750 2511 3984 
Q 2250 4219 1831 4219 
Q 1534 4219 1204 4116 
Q 875 4013 500 3803 
L 500 4441 
Q 881 4594 1212 4672 
Q 1544 4750 1819 4750 
Q 2544 4750 2975 4387 
Q 3406 4025 3406 3419 
Q 3406 3131 3298 2873 
Q 3191 2616 2906 2266 
Q 2828 2175 2409 1742 
Q 1991 1309 1228 531 
z
" id="DejaVuSans-32" transform="scale(0.015625)"/>
     </defs>
     <use xlink:href="#DejaVuSans-4c"/>
     <use x="55.712891" xlink:href="#DejaVuSans-69"/>
     <use x="83.496094" xlink:href="#DejaVuSans-66"/>
     <use x="116.951172" xlink:href="#DejaVuSans-74"/>
     <use x="156.160156" xlink:href="#DejaVuSans-20"/>
     <use x="187.947266" xlink:href="#DejaVuSans-32"/>
    </g>
   </g>
   <g id="text_3">
    <g id="patch_4">
     <path d="M 56.869919 51.664682 
L 58.569896 56.442511 
L 60.431212 55.780245 
L 58.731235 51.002416 
z
" style="fill:#ffffff;"/>
    </g>
    <!-- Lift 3 -->
    <g style="fill:#808080;" transform="translate(57.287338 51.53739)rotate(-289.585825)scale(0.02 -0.02)">
     <defs>
      <path d="M 2597 2516 
Q 3050 2419 3304 2112 
Q 3559 1806 3559 1356 
Q 3559 666 3084 287 
Q 2609 -91 1734 -91 
Q 1441 -91 1130 -33 
Q 819 25 488 141 
L 488 750 
Q 750 597 1062 519 
Q 1375 441 1716 441 
Q 2309 441 2620 675 
Q 2931 909 2931 1356 
Q 2931 1769 2642 2001 
Q 2353 2234 1838 2234 
L 1294 2234 
L 1294 2753 
L 1863 2753 
Q 2328 2753 2575 2939 
Q 2822 3125 2822 3475 
Q 2822 3834 2567 4026 
Q 2313 4219 1838 4219 
Q 1578 4219 1281 4162 
Q 984 4106 628 3988 
L 628 4550 
Q 988 4650 1302 4700 
Q 1616 4750 1894 4750 
Q 2613 4750 3031 4423 
Q 3450 4097 3450 3541 
Q 3450 3153 3228 2886 
Q 3006 2619 2597 2516 
z
" id="DejaVuSans-33" transform="scale(0.015625)"/>
     </defs>
     <use xlink:href="#DejaVuSans-4c"/>
     <use x="55.712891" xlink:href="#DejaVuSans-69"/>
     <use x="83.496094" xlink:href="#DejaVuSans-66"/>
     <use x="116.951172" xlink:href="#DejaVuSans-74"/>
     <use x="156.160156" xlink:href="#DejaVuSans-20"/>
     <use x="187.947266" xlink:href="#DejaVuSans-33"/>
    </g>
   </g>
   <g id="text_4">
    <g id="patch_5">
     <path d="M 106.679897 116.750117 
L 109.15024 121.178998 
L 110.875615 120.216618 
L 108.405272 115.787737 
z
" style="fill:#ffffff;"/>
    </g>
    <!-- Lift 4 -->
    <g style="fill:#808080;" transform="translate(107.070357 116.555227)rotate(-299.151924)scale(0.02 -0.02)">
     <defs>
      <path d="M 2419 4116 
L 825 1625 
L 2419 1625 
L 2419 4116 
z
M 2253 4666 
L 3047 4666 
L 3047 1625 
L 3713 1625 
L 3713 1100 
L 3047 1100 
L 3047 0 
L 2419 0 
L 2419 1100 
L 313 1100 
L 313 1709 
L 2253 4666 
z
" id="DejaVuSans-34" transform="scale(0.015625)"/>
     </defs>
     <use xlink:href="#DejaVuSans-4c"/>
     <use x="55.712891" xlink:href="#DejaVuSans-69"/>
     <use x="83.496094" xlink:href="#DejaVuSans-66"/>
     <use x="116.951172" xlink:href="#DejaVuSans-74"/>
     <use x="156.160156" xlink:href="#DejaVuSans-20"/>
     <use x="187.947266" xlink:href="#DejaVuSans-34"/>
    </g>
   </g>
   <g id="text_5">
    <g id="patch_6">
     <path d="M 102.550445 87.887445 
L 104.949334 92.355432 
L 106.689944 91.420889 
L 104.291055 86.952902 
z
" style="fill:#ffffff;"/>
    </g>
    <!-- Lift 8 -->
    <g style="fill:#808080;" transform="translate(102.943985 87.698852)rotate(-298.231616)scale(0.02 -0.02)">
     <defs>
      <path d="M 2034 2216 
Q 1584 2216 1326 1975 
Q 1069 1734 1069 1313 
Q 1069 891 1326 650 
Q 1584 409 2034 409 
Q 2484 409 2743 651 
Q 3003 894 3003 1313 
Q 3003 1734 2745 1975 
Q 2488 2216 2034 2216 
z
M 1403 2484 
Q 997 2584 770 2862 
Q 544 3141 544 3541 
Q 544 4100 942 4425 
Q 1341 4750 2034 4750 
Q 2731 4750 3128 4425 
Q 3525 4100 3525 3541 
Q 3525 3141 3298 2862 
Q 3072 2584 2669 2484 
Q 3125 2378 3379 2068 
Q 3634 1759 3634 1313 
Q 3634 634 3220 271 
Q 2806 -91 2034 -91 
Q 1263 -91 848 271 
Q 434 634 434 1313 
Q 434 1759 690 2068 
Q 947 2378 1403 2484 
z
M 1172 3481 
Q 1172 3119 1398 2916 
Q 1625 2713 2034 2713 
Q 2441 2713 2670 2916 
Q 2900 3119 2900 3481 
Q 2900 3844 2670 4047 
Q 2441 4250 2034 4250 
Q 1625 4250 1398 4047 
Q 1172 3844 1172 3481 
z
" id="DejaVuSans-38" transform="scale(0.015625)"/>
     </defs>
     <use xlink:href="#DejaVuSans-4c"/>
     <use x="55.712891" xlink:href="#DejaVuSans-69"/>
     <use x="83.496094" xlink:href="#DejaVuSans-66"/>
     <use x="116.951172" xlink:href="#DejaVuSans-74"/>
     <use x="156.160156" xlink:href="#DejaVuSans-20"/>
     <use x="187.947266" xlink:href="#DejaVuSans-38"/>
    </g>
   </g>
   <g id="text_6">
    <g id="patch_7">
     <path d="M 54.271599 47.481674 
L 55.941302 52.270168 
L 57.806773 51.619695 
L 56.137069 46.831202 
z
" style="fill:#ffffff;"/>
    </g>
    <!-- Lift 9 -->
    <g style="fill:#808080;" transform="translate(54.689815 47.357027)rotate(-289.223191)scale(0.02 -0.02)">
     <defs>
      <path d="M 703 97 
L 703 672 
Q 941 559 1184 500 
Q 1428 441 1663 441 
Q 2288 441 2617 861 
Q 2947 1281 2994 2138 
Q 2813 1869 2534 1725 
Q 2256 1581 1919 1581 
Q 1219 1581 811 2004 
Q 403 2428 403 3163 
Q 403 3881 828 4315 
Q 1253 4750 1959 4750 
Q 2769 4750 3195 4129 
Q 3622 3509 3622 2328 
Q 3622 1225 3098 567 
Q 2575 -91 1691 -91 
Q 1453 -91 1209 -44 
Q 966 3 703 97 
z
M 1959 2075 
Q 2384 2075 2632 2365 
Q 2881 2656 2881 3163 
Q 2881 3666 2632 3958 
Q 2384 4250 1959 4250 
Q 1534 4250 1286 3958 
Q 1038 3666 1038 3163 
Q 1038 2656 1286 2365 
Q 1534 2075 1959 2075 
z
" id="DejaVuSans-39" transform="scale(0.015625)"/>
     </defs>
     <use xlink:href="#DejaVuSans-4c"/>
     <use x="55.712891" xlink:href="#DejaVuSans-69"/>
     <use x="83.496094" xlink:href="#DejaVuSans-66"/>
     <use x="116.951172" xlink:href="#DejaVuSans-74"/>
     <use x="156.160156" xlink:href="#DejaVuSans-20"/>
     <use x="187.947266" xlink:href="#DejaVuSans-39"/>
    </g>
   </g>
   <g id="text_7">
    <g id="patch_8">
     <path d="M 119.973601 112.66052 
L 123.964668 115.427205 
L 125.090214 113.803554 
L 121.099147 111.03687 
z
" style="fill:#ffffff;"/>
    </g>
    <!--  7.6° -->
    <g style="fill:#008000;" transform="translate(120.238398 112.313643)rotate(-325.269556)scale(0.02 -0.02)">
     <defs>
      <path d="M 525 4666 
L 3525 4666 
L 3525 4397 
L 1831 0 
L 1172 0 
L 2766 4134 
L 525 4134 
L 525 4666 
z
" id="DejaVuSans-37" transform="scale(0.015625)"/>
      <path d="M 684 794 
L 1344 794 
L 1344 0 
L 684 0 
L 684 794 
z
" id="DejaVuSans-2e" transform="scale(0.015625)"/>
      <path d="M 2113 2584 
Q 1688 2584 1439 2293 
Q 1191 2003 1191 1497 
Q 1191 994 1439 701 
Q 1688 409 2113 409 
Q 2538 409 2786 701 
Q 3034 994 3034 1497 
Q 3034 2003 2786 2293 
Q 2538 2584 2113 2584 
z
M 3366 4563 
L 3366 3988 
Q 3128 4100 2886 4159 
Q 2644 4219 2406 4219 
Q 1781 4219 1451 3797 
Q 1122 3375 1075 2522 
Q 1259 2794 1537 2939 
Q 1816 3084 2150 3084 
Q 2853 3084 3261 2657 
Q 3669 2231 3669 1497 
Q 3669 778 3244 343 
Q 2819 -91 2113 -91 
Q 1303 -91 875 529 
Q 447 1150 447 2328 
Q 447 3434 972 4092 
Q 1497 4750 2381 4750 
Q 2619 4750 2861 4703 
Q 3103 4656 3366 4563 
z
" id="DejaVuSans-36" transform="scale(0.015625)"/>
      <path d="M 1600 4347 
Q 1350 4347 1178 4173 
Q 1006 4000 1006 3750 
Q 1006 3503 1178 3333 
Q 1350 3163 1600 3163 
Q 1850 3163 2022 3333 
Q 2194 3503 2194 3750 
Q 2194 3997 2020 4172 
Q 1847 4347 1600 4347 
z
M 1600 4750 
Q 1800 4750 1984 4673 
Q 2169 4597 2303 4453 
Q 2447 4313 2519 4134 
Q 2591 3956 2591 3750 
Q 2591 3338 2302 3052 
Q 2013 2766 1594 2766 
Q 1172 2766 890 3047 
Q 609 3328 609 3750 
Q 609 4169 896 4459 
Q 1184 4750 1600 4750 
z
" id="DejaVuSans-b0" transform="scale(0.015625)"/>
     </defs>
     <use xlink:href="#DejaVuSans-20"/>
     <use x="31.787109" xlink:href="#DejaVuSans-37"/>
     <use x="95.410156" xlink:href="#DejaVuSans-2e"/>
     <use x="127.197266" xlink:href="#DejaVuSans-36"/>
     <use x="190.820312" xlink:href="#DejaVuSans-b0"/>
    </g>
   </g>
   <g id="text_8">
    <g id="patch_9">
     <path d="M 92.056824 73.572604 
L 102.4746 86.460465 
L 104.011034 85.218504 
L 93.593257 72.330643 
z
" style="fill:#ffffff;"/>
    </g>
    <!-- Buttermilk 12.3° -->
    <g style="fill:#008000;" transform="translate(92.408423 73.314109)rotate(-308.950001)scale(0.02 -0.02)">
     <defs>
      <path d="M 1259 2228 
L 1259 519 
L 2272 519 
Q 2781 519 3026 730 
Q 3272 941 3272 1375 
Q 3272 1813 3026 2020 
Q 2781 2228 2272 2228 
L 1259 2228 
z
M 1259 4147 
L 1259 2741 
L 2194 2741 
Q 2656 2741 2882 2914 
Q 3109 3088 3109 3444 
Q 3109 3797 2882 3972 
Q 2656 4147 2194 4147 
L 1259 4147 
z
M 628 4666 
L 2241 4666 
Q 2963 4666 3353 4366 
Q 3744 4066 3744 3513 
Q 3744 3084 3544 2831 
Q 3344 2578 2956 2516 
Q 3422 2416 3680 2098 
Q 3938 1781 3938 1306 
Q 3938 681 3513 340 
Q 3088 0 2303 0 
L 628 0 
L 628 4666 
z
" id="DejaVuSans-42" transform="scale(0.015625)"/>
      <path d="M 544 1381 
L 544 3500 
L 1119 3500 
L 1119 1403 
Q 1119 906 1312 657 
Q 1506 409 1894 409 
Q 2359 409 2629 706 
Q 2900 1003 2900 1516 
L 2900 3500 
L 3475 3500 
L 3475 0 
L 2900 0 
L 2900 538 
Q 2691 219 2414 64 
Q 2138 -91 1772 -91 
Q 1169 -91 856 284 
Q 544 659 544 1381 
z
M 1991 3584 
L 1991 3584 
z
" id="DejaVuSans-75" transform="scale(0.015625)"/>
      <path d="M 3597 1894 
L 3597 1613 
L 953 1613 
Q 991 1019 1311 708 
Q 1631 397 2203 397 
Q 2534 397 2845 478 
Q 3156 559 3463 722 
L 3463 178 
Q 3153 47 2828 -22 
Q 2503 -91 2169 -91 
Q 1331 -91 842 396 
Q 353 884 353 1716 
Q 353 2575 817 3079 
Q 1281 3584 2069 3584 
Q 2775 3584 3186 3129 
Q 3597 2675 3597 1894 
z
M 3022 2063 
Q 3016 2534 2758 2815 
Q 2500 3097 2075 3097 
Q 1594 3097 1305 2825 
Q 1016 2553 972 2059 
L 3022 2063 
z
" id="DejaVuSans-65" transform="scale(0.015625)"/>
      <path d="M 2631 2963 
Q 2534 3019 2420 3045 
Q 2306 3072 2169 3072 
Q 1681 3072 1420 2755 
Q 1159 2438 1159 1844 
L 1159 0 
L 581 0 
L 581 3500 
L 1159 3500 
L 1159 2956 
Q 1341 3275 1631 3429 
Q 1922 3584 2338 3584 
Q 2397 3584 2469 3576 
Q 2541 3569 2628 3553 
L 2631 2963 
z
" id="DejaVuSans-72" transform="scale(0.015625)"/>
      <path d="M 3328 2828 
Q 3544 3216 3844 3400 
Q 4144 3584 4550 3584 
Q 5097 3584 5394 3201 
Q 5691 2819 5691 2113 
L 5691 0 
L 5113 0 
L 5113 2094 
Q 5113 2597 4934 2840 
Q 4756 3084 4391 3084 
Q 3944 3084 3684 2787 
Q 3425 2491 3425 1978 
L 3425 0 
L 2847 0 
L 2847 2094 
Q 2847 2600 2669 2842 
Q 2491 3084 2119 3084 
Q 1678 3084 1418 2786 
Q 1159 2488 1159 1978 
L 1159 0 
L 581 0 
L 581 3500 
L 1159 3500 
L 1159 2956 
Q 1356 3278 1631 3431 
Q 1906 3584 2284 3584 
Q 2666 3584 2933 3390 
Q 3200 3197 3328 2828 
z
" id="DejaVuSans-6d" transform="scale(0.015625)"/>
      <path d="M 603 4863 
L 1178 4863 
L 1178 0 
L 603 0 
L 603 4863 
z
" id="DejaVuSans-6c" transform="scale(0.015625)"/>
      <path d="M 581 4863 
L 1159 4863 
L 1159 1991 
L 2875 3500 
L 3609 3500 
L 1753 1863 
L 3688 0 
L 2938 0 
L 1159 1709 
L 1159 0 
L 581 0 
L 581 4863 
z
" id="DejaVuSans-6b" transform="scale(0.015625)"/>
     </defs>
     <use xlink:href="#DejaVuSans-42"/>
     <use x="68.603516" xlink:href="#DejaVuSans-75"/>
     <use x="131.982422" xlink:href="#DejaVuSans-74"/>
     <use x="171.191406" xlink:href="#DejaVuSans-74"/>
     <use x="210.400391" xlink:href="#DejaVuSans-65"/>
     <use x="271.923828" xlink:href="#DejaVuSans-72"/>
     <use x="311.287109" xlink:href="#DejaVuSans-6d"/>
     <use x="408.699219" xlink:href="#DejaVuSans-69"/>
     <use x="436.482422" xlink:href="#DejaVuSans-6c"/>
     <use x="464.265625" xlink:href="#DejaVuSans-6b"/>
     <use x="522.175781" xlink:href="#DejaVuSans-20"/>
     <use x="553.962891" xlink:href="#DejaVuSans-31"/>
     <use x="617.585938" xlink:href="#DejaVuSans-32"/>
     <use x="681.208984" xlink:href="#DejaVuSans-2e"/>
     <use x="712.996094" xlink:href="#DejaVuSans-33"/>
     <use x="776.619141" xlink:href="#DejaVuSans-b0"/>
    </g>
   </g>
   <g id="text_9">
    <g id="patch_10">
     <path d="M 107.224236 109.296408 
L 113.90709 122.297876 
L 115.664188 121.394714 
L 108.981334 108.393246 
z
" style="fill:#ffffff;"/>
    </g>
    <!-- Cascade 16.9° -->
    <g style="fill:#008000;" transform="translate(107.621097 109.114906)rotate(-297.203511)scale(0.02 -0.02)">
     <defs>
      <path d="M 4122 4306 
L 4122 3641 
Q 3803 3938 3442 4084 
Q 3081 4231 2675 4231 
Q 1875 4231 1450 3742 
Q 1025 3253 1025 2328 
Q 1025 1406 1450 917 
Q 1875 428 2675 428 
Q 3081 428 3442 575 
Q 3803 722 4122 1019 
L 4122 359 
Q 3791 134 3420 21 
Q 3050 -91 2638 -91 
Q 1578 -91 968 557 
Q 359 1206 359 2328 
Q 359 3453 968 4101 
Q 1578 4750 2638 4750 
Q 3056 4750 3426 4639 
Q 3797 4528 4122 4306 
z
" id="DejaVuSans-43" transform="scale(0.015625)"/>
      <path d="M 2194 1759 
Q 1497 1759 1228 1600 
Q 959 1441 959 1056 
Q 959 750 1161 570 
Q 1363 391 1709 391 
Q 2188 391 2477 730 
Q 2766 1069 2766 1631 
L 2766 1759 
L 2194 1759 
z
M 3341 1997 
L 3341 0 
L 2766 0 
L 2766 531 
Q 2569 213 2275 61 
Q 1981 -91 1556 -91 
Q 1019 -91 701 211 
Q 384 513 384 1019 
Q 384 1609 779 1909 
Q 1175 2209 1959 2209 
L 2766 2209 
L 2766 2266 
Q 2766 2663 2505 2880 
Q 2244 3097 1772 3097 
Q 1472 3097 1187 3025 
Q 903 2953 641 2809 
L 641 3341 
Q 956 3463 1253 3523 
Q 1550 3584 1831 3584 
Q 2591 3584 2966 3190 
Q 3341 2797 3341 1997 
z
" id="DejaVuSans-61" transform="scale(0.015625)"/>
      <path d="M 2834 3397 
L 2834 2853 
Q 2591 2978 2328 3040 
Q 2066 3103 1784 3103 
Q 1356 3103 1142 2972 
Q 928 2841 928 2578 
Q 928 2378 1081 2264 
Q 1234 2150 1697 2047 
L 1894 2003 
Q 2506 1872 2764 1633 
Q 3022 1394 3022 966 
Q 3022 478 2636 193 
Q 2250 -91 1575 -91 
Q 1294 -91 989 -36 
Q 684 19 347 128 
L 347 722 
Q 666 556 975 473 
Q 1284 391 1588 391 
Q 1994 391 2212 530 
Q 2431 669 2431 922 
Q 2431 1156 2273 1281 
Q 2116 1406 1581 1522 
L 1381 1569 
Q 847 1681 609 1914 
Q 372 2147 372 2553 
Q 372 3047 722 3315 
Q 1072 3584 1716 3584 
Q 2034 3584 2315 3537 
Q 2597 3491 2834 3397 
z
" id="DejaVuSans-73" transform="scale(0.015625)"/>
      <path d="M 3122 3366 
L 3122 2828 
Q 2878 2963 2633 3030 
Q 2388 3097 2138 3097 
Q 1578 3097 1268 2742 
Q 959 2388 959 1747 
Q 959 1106 1268 751 
Q 1578 397 2138 397 
Q 2388 397 2633 464 
Q 2878 531 3122 666 
L 3122 134 
Q 2881 22 2623 -34 
Q 2366 -91 2075 -91 
Q 1284 -91 818 406 
Q 353 903 353 1747 
Q 353 2603 823 3093 
Q 1294 3584 2113 3584 
Q 2378 3584 2631 3529 
Q 2884 3475 3122 3366 
z
" id="DejaVuSans-63" transform="scale(0.015625)"/>
      <path d="M 2906 2969 
L 2906 4863 
L 3481 4863 
L 3481 0 
L 2906 0 
L 2906 525 
Q 2725 213 2448 61 
Q 2172 -91 1784 -91 
Q 1150 -91 751 415 
Q 353 922 353 1747 
Q 353 2572 751 3078 
Q 1150 3584 1784 3584 
Q 2172 3584 2448 3432 
Q 2725 3281 2906 2969 
z
M 947 1747 
Q 947 1113 1208 752 
Q 1469 391 1925 391 
Q 2381 391 2643 752 
Q 2906 1113 2906 1747 
Q 2906 2381 2643 2742 
Q 2381 3103 1925 3103 
Q 1469 3103 1208 2742 
Q 947 2381 947 1747 
z
" id="DejaVuSans-64" transform="scale(0.015625)"/>
     </defs>
     <use xlink:href="#DejaVuSans-43"/>
     <use x="69.824219" xlink:href="#DejaVuSans-61"/>
     <use x="131.103516" xlink:href="#DejaVuSans-73"/>
     <use x="183.203125" xlink:href="#DejaVuSans-63"/>
     <use x="238.183594" xlink:href="#DejaVuSans-61"/>
     <use x="299.462891" xlink:href="#DejaVuSans-64"/>
     <use x="362.939453" xlink:href="#DejaVuSans-65"/>
     <use x="424.462891" xlink:href="#DejaVuSans-20"/>
     <use x="456.25" xlink:href="#DejaVuSans-31"/>
     <use x="519.873047" xlink:href="#DejaVuSans-36"/>
     <use x="583.496094" xlink:href="#DejaVuSans-2e"/>
     <use x="615.283203" xlink:href="#DejaVuSans-39"/>
     <use x="678.90625" xlink:href="#DejaVuSans-b0"/>
    </g>
   </g>
   <g id="text_10">
    <g id="patch_11">
     <path d="M 65.1301 35.984111 
L 81.664304 44.813607 
L 82.594933 43.070902 
L 66.06073 34.241405 
z
" style="fill:#ffffff;"/>
    </g>
    <!-- Compromise 11.9° -->
    <g style="fill:#008000;" transform="translate(65.353093 35.60899)rotate(-331.897157)scale(0.02 -0.02)">
     <defs>
      <path d="M 1959 3097 
Q 1497 3097 1228 2736 
Q 959 2375 959 1747 
Q 959 1119 1226 758 
Q 1494 397 1959 397 
Q 2419 397 2687 759 
Q 2956 1122 2956 1747 
Q 2956 2369 2687 2733 
Q 2419 3097 1959 3097 
z
M 1959 3584 
Q 2709 3584 3137 3096 
Q 3566 2609 3566 1747 
Q 3566 888 3137 398 
Q 2709 -91 1959 -91 
Q 1206 -91 779 398 
Q 353 888 353 1747 
Q 353 2609 779 3096 
Q 1206 3584 1959 3584 
z
" id="DejaVuSans-6f" transform="scale(0.015625)"/>
      <path d="M 1159 525 
L 1159 -1331 
L 581 -1331 
L 581 3500 
L 1159 3500 
L 1159 2969 
Q 1341 3281 1617 3432 
Q 1894 3584 2278 3584 
Q 2916 3584 3314 3078 
Q 3713 2572 3713 1747 
Q 3713 922 3314 415 
Q 2916 -91 2278 -91 
Q 1894 -91 1617 61 
Q 1341 213 1159 525 
z
M 3116 1747 
Q 3116 2381 2855 2742 
Q 2594 3103 2138 3103 
Q 1681 3103 1420 2742 
Q 1159 2381 1159 1747 
Q 1159 1113 1420 752 
Q 1681 391 2138 391 
Q 2594 391 2855 752 
Q 3116 1113 3116 1747 
z
" id="DejaVuSans-70" transform="scale(0.015625)"/>
     </defs>
     <use xlink:href="#DejaVuSans-43"/>
     <use x="69.824219" xlink:href="#DejaVuSans-6f"/>
     <use x="131.005859" xlink:href="#DejaVuSans-6d"/>
     <use x="228.417969" xlink:href="#DejaVuSans-70"/>
     <use x="291.894531" xlink:href="#DejaVuSans-72"/>
     <use x="330.757812" xlink:href="#DejaVuSans-6f"/>
     <use x="391.939453" xlink:href="#DejaVuSans-6d"/>
     <use x="489.351562" xlink:href="#DejaVuSans-69"/>
     <use x="517.134766" xlink:href="#DejaVuSans-73"/>
     <use x="569.234375" xlink:href="#DejaVuSans-65"/>
     <use x="630.757812" xlink:href="#DejaVuSans-20"/>
     <use x="662.544922" xlink:href="#DejaVuSans-31"/>
     <use x="726.167969" xlink:href="#DejaVuSans-31"/>
     <use x="789.791016" xlink:href="#DejaVuSans-2e"/>
     <use x="821.578125" xlink:href="#DejaVuSans-39"/>
     <use x="885.201172" xlink:href="#DejaVuSans-b0"/>
    </g>
   </g>
   <g id="text_11">
    <g id="patch_12">
     <path d="M 130.966888 117.512679 
L 137.294375 137.295722 
L 139.176093 136.693866 
L 132.848606 116.910823 
z
" style="fill:#ffffff;"/>
    </g>
    <!-- Country Roads 13.7° -->
    <g style="fill:#008000;" transform="translate(131.388197 117.398924)rotate(-287.736562)scale(0.02 -0.02)">
     <defs>
      <path d="M 3513 2113 
L 3513 0 
L 2938 0 
L 2938 2094 
Q 2938 2591 2744 2837 
Q 2550 3084 2163 3084 
Q 1697 3084 1428 2787 
Q 1159 2491 1159 1978 
L 1159 0 
L 581 0 
L 581 3500 
L 1159 3500 
L 1159 2956 
Q 1366 3272 1645 3428 
Q 1925 3584 2291 3584 
Q 2894 3584 3203 3211 
Q 3513 2838 3513 2113 
z
" id="DejaVuSans-6e" transform="scale(0.015625)"/>
      <path d="M 2059 -325 
Q 1816 -950 1584 -1140 
Q 1353 -1331 966 -1331 
L 506 -1331 
L 506 -850 
L 844 -850 
Q 1081 -850 1212 -737 
Q 1344 -625 1503 -206 
L 1606 56 
L 191 3500 
L 800 3500 
L 1894 763 
L 2988 3500 
L 3597 3500 
L 2059 -325 
z
" id="DejaVuSans-79" transform="scale(0.015625)"/>
      <path d="M 2841 2188 
Q 3044 2119 3236 1894 
Q 3428 1669 3622 1275 
L 4263 0 
L 3584 0 
L 2988 1197 
Q 2756 1666 2539 1819 
Q 2322 1972 1947 1972 
L 1259 1972 
L 1259 0 
L 628 0 
L 628 4666 
L 2053 4666 
Q 2853 4666 3247 4331 
Q 3641 3997 3641 3322 
Q 3641 2881 3436 2590 
Q 3231 2300 2841 2188 
z
M 1259 4147 
L 1259 2491 
L 2053 2491 
Q 2509 2491 2742 2702 
Q 2975 2913 2975 3322 
Q 2975 3731 2742 3939 
Q 2509 4147 2053 4147 
L 1259 4147 
z
" id="DejaVuSans-52" transform="scale(0.015625)"/>
     </defs>
     <use xlink:href="#DejaVuSans-43"/>
     <use x="69.824219" xlink:href="#DejaVuSans-6f"/>
     <use x="131.005859" xlink:href="#DejaVuSans-75"/>
     <use x="194.384766" xlink:href="#DejaVuSans-6e"/>
     <use x="257.763672" xlink:href="#DejaVuSans-74"/>
     <use x="296.972656" xlink:href="#DejaVuSans-72"/>
     <use x="338.085938" xlink:href="#DejaVuSans-79"/>
     <use x="397.265625" xlink:href="#DejaVuSans-20"/>
     <use x="429.052734" xlink:href="#DejaVuSans-52"/>
     <use x="494.035156" xlink:href="#DejaVuSans-6f"/>
     <use x="555.216797" xlink:href="#DejaVuSans-61"/>
     <use x="616.496094" xlink:href="#DejaVuSans-64"/>
     <use x="679.972656" xlink:href="#DejaVuSans-73"/>
     <use x="732.072266" xlink:href="#DejaVuSans-20"/>
     <use x="763.859375" xlink:href="#DejaVuSans-31"/>
     <use x="827.482422" xlink:href="#DejaVuSans-33"/>
     <use x="891.105469" xlink:href="#DejaVuSans-2e"/>
     <use x="922.892578" xlink:href="#DejaVuSans-37"/>
     <use x="986.515625" xlink:href="#DejaVuSans-b0"/>
    </g>
   </g>
   <g id="text_12">
    <g id="patch_13">
     <path d="M 75.564383 74.808864 
L 84.152106 63.054213 
L 82.55686 61.888758 
L 73.969138 73.643409 
z
" style="fill:#ffffff;"/>
    </g>
    <!-- Drop Off 24.0° -->
    <g style="fill:#4169e1;" transform="translate(75.224178 74.535548)rotate(-53.848852)scale(0.02 -0.02)">
     <defs>
      <path d="M 1259 4147 
L 1259 519 
L 2022 519 
Q 2988 519 3436 956 
Q 3884 1394 3884 2338 
Q 3884 3275 3436 3711 
Q 2988 4147 2022 4147 
L 1259 4147 
z
M 628 4666 
L 1925 4666 
Q 3281 4666 3915 4102 
Q 4550 3538 4550 2338 
Q 4550 1131 3912 565 
Q 3275 0 1925 0 
L 628 0 
L 628 4666 
z
" id="DejaVuSans-44" transform="scale(0.015625)"/>
      <path d="M 2522 4238 
Q 1834 4238 1429 3725 
Q 1025 3213 1025 2328 
Q 1025 1447 1429 934 
Q 1834 422 2522 422 
Q 3209 422 3611 934 
Q 4013 1447 4013 2328 
Q 4013 3213 3611 3725 
Q 3209 4238 2522 4238 
z
M 2522 4750 
Q 3503 4750 4090 4092 
Q 4678 3434 4678 2328 
Q 4678 1225 4090 567 
Q 3503 -91 2522 -91 
Q 1538 -91 948 565 
Q 359 1222 359 2328 
Q 359 3434 948 4092 
Q 1538 4750 2522 4750 
z
" id="DejaVuSans-4f" transform="scale(0.015625)"/>
      <path d="M 2034 4250 
Q 1547 4250 1301 3770 
Q 1056 3291 1056 2328 
Q 1056 1369 1301 889 
Q 1547 409 2034 409 
Q 2525 409 2770 889 
Q 3016 1369 3016 2328 
Q 3016 3291 2770 3770 
Q 2525 4250 2034 4250 
z
M 2034 4750 
Q 2819 4750 3233 4129 
Q 3647 3509 3647 2328 
Q 3647 1150 3233 529 
Q 2819 -91 2034 -91 
Q 1250 -91 836 529 
Q 422 1150 422 2328 
Q 422 3509 836 4129 
Q 1250 4750 2034 4750 
z
" id="DejaVuSans-30" transform="scale(0.015625)"/>
     </defs>
     <use xlink:href="#DejaVuSans-44"/>
     <use x="77.001953" xlink:href="#DejaVuSans-72"/>
     <use x="115.865234" xlink:href="#DejaVuSans-6f"/>
     <use x="177.046875" xlink:href="#DejaVuSans-70"/>
     <use x="240.523438" xlink:href="#DejaVuSans-20"/>
     <use x="272.310547" xlink:href="#DejaVuSans-4f"/>
     <use x="351.021484" xlink:href="#DejaVuSans-66"/>
     <use x="386.226562" xlink:href="#DejaVuSans-66"/>
     <use x="421.431641" xlink:href="#DejaVuSans-20"/>
     <use x="453.21875" xlink:href="#DejaVuSans-32"/>
     <use x="516.841797" xlink:href="#DejaVuSans-34"/>
     <use x="580.464844" xlink:href="#DejaVuSans-2e"/>
     <use x="612.251953" xlink:href="#DejaVuSans-30"/>
     <use x="675.875" xlink:href="#DejaVuSans-b0"/>
    </g>
   </g>
   <g id="text_13">
    <g id="patch_14">
     <path d="M 144.126939 148.598976 
L 151.748934 130.634677 
L 149.930238 129.86303 
L 142.308243 147.827329 
z
" style="fill:#ffffff;"/>
    </g>
    <!-- Highland Run 13.4° -->
    <g style="fill:#008000;" transform="translate(143.733441 148.410294)rotate(-67.009181)scale(0.02 -0.02)">
     <defs>
      <path d="M 628 4666 
L 1259 4666 
L 1259 2753 
L 3553 2753 
L 3553 4666 
L 4184 4666 
L 4184 0 
L 3553 0 
L 3553 2222 
L 1259 2222 
L 1259 0 
L 628 0 
L 628 4666 
z
" id="DejaVuSans-48" transform="scale(0.015625)"/>
      <path d="M 2906 1791 
Q 2906 2416 2648 2759 
Q 2391 3103 1925 3103 
Q 1463 3103 1205 2759 
Q 947 2416 947 1791 
Q 947 1169 1205 825 
Q 1463 481 1925 481 
Q 2391 481 2648 825 
Q 2906 1169 2906 1791 
z
M 3481 434 
Q 3481 -459 3084 -895 
Q 2688 -1331 1869 -1331 
Q 1566 -1331 1297 -1286 
Q 1028 -1241 775 -1147 
L 775 -588 
Q 1028 -725 1275 -790 
Q 1522 -856 1778 -856 
Q 2344 -856 2625 -561 
Q 2906 -266 2906 331 
L 2906 616 
Q 2728 306 2450 153 
Q 2172 0 1784 0 
Q 1141 0 747 490 
Q 353 981 353 1791 
Q 353 2603 747 3093 
Q 1141 3584 1784 3584 
Q 2172 3584 2450 3431 
Q 2728 3278 2906 2969 
L 2906 3500 
L 3481 3500 
L 3481 434 
z
" id="DejaVuSans-67" transform="scale(0.015625)"/>
      <path d="M 3513 2113 
L 3513 0 
L 2938 0 
L 2938 2094 
Q 2938 2591 2744 2837 
Q 2550 3084 2163 3084 
Q 1697 3084 1428 2787 
Q 1159 2491 1159 1978 
L 1159 0 
L 581 0 
L 581 4863 
L 1159 4863 
L 1159 2956 
Q 1366 3272 1645 3428 
Q 1925 3584 2291 3584 
Q 2894 3584 3203 3211 
Q 3513 2838 3513 2113 
z
" id="DejaVuSans-68" transform="scale(0.015625)"/>
     </defs>
     <use xlink:href="#DejaVuSans-48"/>
     <use x="75.195312" xlink:href="#DejaVuSans-69"/>
     <use x="102.978516" xlink:href="#DejaVuSans-67"/>
     <use x="166.455078" xlink:href="#DejaVuSans-68"/>
     <use x="229.833984" xlink:href="#DejaVuSans-6c"/>
     <use x="257.617188" xlink:href="#DejaVuSans-61"/>
     <use x="318.896484" xlink:href="#DejaVuSans-6e"/>
     <use x="382.275391" xlink:href="#DejaVuSans-64"/>
     <use x="445.751953" xlink:href="#DejaVuSans-20"/>
     <use x="477.539062" xlink:href="#DejaVuSans-52"/>
     <use x="542.521484" xlink:href="#DejaVuSans-75"/>
     <use x="605.900391" xlink:href="#DejaVuSans-6e"/>
     <use x="669.279297" xlink:href="#DejaVuSans-20"/>
     <use x="701.066406" xlink:href="#DejaVuSans-31"/>
     <use x="764.689453" xlink:href="#DejaVuSans-33"/>
     <use x="828.3125" xlink:href="#DejaVuSans-2e"/>
     <use x="860.099609" xlink:href="#DejaVuSans-34"/>
     <use x="923.722656" xlink:href="#DejaVuSans-b0"/>
    </g>
   </g>
   <g id="text_14">
    <g id="patch_15">
     <path d="M 115.86585 93.790513 
L 133.885039 97.601632 
L 134.293847 95.668766 
L 116.274657 91.857648 
z
" style="fill:#ffffff;"/>
    </g>
    <!-- Last Chance 11.2° -->
    <g style="fill:#008000;" transform="translate(115.975623 93.36815)rotate(-348.057751)scale(0.02 -0.02)">
     <use xlink:href="#DejaVuSans-4c"/>
     <use x="55.712891" xlink:href="#DejaVuSans-61"/>
     <use x="116.992188" xlink:href="#DejaVuSans-73"/>
     <use x="169.091797" xlink:href="#DejaVuSans-74"/>
     <use x="208.300781" xlink:href="#DejaVuSans-20"/>
     <use x="240.087891" xlink:href="#DejaVuSans-43"/>
     <use x="309.912109" xlink:href="#DejaVuSans-68"/>
     <use x="373.291016" xlink:href="#DejaVuSans-61"/>
     <use x="434.570312" xlink:href="#DejaVuSans-6e"/>
     <use x="497.949219" xlink:href="#DejaVuSans-63"/>
     <use x="552.929688" xlink:href="#DejaVuSans-65"/>
     <use x="614.453125" xlink:href="#DejaVuSans-20"/>
     <use x="646.240234" xlink:href="#DejaVuSans-31"/>
     <use x="709.863281" xlink:href="#DejaVuSans-31"/>
     <use x="773.486328" xlink:href="#DejaVuSans-2e"/>
     <use x="805.273438" xlink:href="#DejaVuSans-32"/>
     <use x="868.896484" xlink:href="#DejaVuSans-b0"/>
    </g>
   </g>
   <g id="text_15">
    <g id="patch_16">
     <path d="M 134.567736 110.009789 
L 138.630318 122.87614 
L 140.51426 122.281281 
L 136.451678 109.41493 
z
" style="fill:#ffffff;"/>
    </g>
    <!-- Last Run 9.7° -->
    <g style="fill:#008000;" transform="translate(134.989465 109.897601)rotate(-287.52364)scale(0.02 -0.02)">
     <use xlink:href="#DejaVuSans-4c"/>
     <use x="55.712891" xlink:href="#DejaVuSans-61"/>
     <use x="116.992188" xlink:href="#DejaVuSans-73"/>
     <use x="169.091797" xlink:href="#DejaVuSans-74"/>
     <use x="208.300781" xlink:href="#DejaVuSans-20"/>
     <use x="240.087891" xlink:href="#DejaVuSans-52"/>
     <use x="305.070312" xlink:href="#DejaVuSans-75"/>
     <use x="368.449219" xlink:href="#DejaVuSans-6e"/>
     <use x="431.828125" xlink:href="#DejaVuSans-20"/>
     <use x="463.615234" xlink:href="#DejaVuSans-39"/>
     <use x="527.238281" xlink:href="#DejaVuSans-2e"/>
     <use x="559.025391" xlink:href="#DejaVuSans-37"/>
     <use x="622.648438" xlink:href="#DejaVuSans-b0"/>
    </g>
   </g>
   <g id="text_16">
    <g id="patch_17">
     <path d="M 84.469994 77.227513 
L 89.95866 60.239356 
L 88.07872 59.63197 
L 82.590054 76.620127 
z
" style="fill:#ffffff;"/>
    </g>
    <!-- Look at Me! 20.3° -->
    <g style="fill:#4169e1;" transform="translate(84.061319 77.074457)rotate(-72.094989)scale(0.02 -0.02)">
     <defs>
      <path d="M 628 4666 
L 1569 4666 
L 2759 1491 
L 3956 4666 
L 4897 4666 
L 4897 0 
L 4281 0 
L 4281 4097 
L 3078 897 
L 2444 897 
L 1241 4097 
L 1241 0 
L 628 0 
L 628 4666 
z
" id="DejaVuSans-4d" transform="scale(0.015625)"/>
      <path d="M 966 794 
L 1600 794 
L 1600 0 
L 966 0 
L 966 794 
z
M 966 4666 
L 1600 4666 
L 1600 2619 
L 1538 1503 
L 1031 1503 
L 966 2619 
L 966 4666 
z
" id="DejaVuSans-21" transform="scale(0.015625)"/>
     </defs>
     <use xlink:href="#DejaVuSans-4c"/>
     <use x="53.962891" xlink:href="#DejaVuSans-6f"/>
     <use x="115.144531" xlink:href="#DejaVuSans-6f"/>
     <use x="176.326172" xlink:href="#DejaVuSans-6b"/>
     <use x="234.236328" xlink:href="#DejaVuSans-20"/>
     <use x="266.023438" xlink:href="#DejaVuSans-61"/>
     <use x="327.302734" xlink:href="#DejaVuSans-74"/>
     <use x="366.511719" xlink:href="#DejaVuSans-20"/>
     <use x="398.298828" xlink:href="#DejaVuSans-4d"/>
     <use x="484.578125" xlink:href="#DejaVuSans-65"/>
     <use x="546.101562" xlink:href="#DejaVuSans-21"/>
     <use x="586.189453" xlink:href="#DejaVuSans-20"/>
     <use x="617.976562" xlink:href="#DejaVuSans-32"/>
     <use x="681.599609" xlink:href="#DejaVuSans-30"/>
     <use x="745.222656" xlink:href="#DejaVuSans-2e"/>
     <use x="777.009766" xlink:href="#DejaVuSans-33"/>
     <use x="840.632812" xlink:href="#DejaVuSans-b0"/>
    </g>
   </g>
   <g id="text_17">
    <g id="patch_18">
     <path d="M 105.735119 69.99409 
L 108.856073 83.856165 
L 110.783453 83.422228 
L 107.662499 69.560154 
z
" style="fill:#ffffff;"/>
    </g>
    <!-- Meadows 8.1° -->
    <g style="fill:#008000;" transform="translate(106.164804 69.91785)rotate(-282.688199)scale(0.02 -0.02)">
     <defs>
      <path d="M 269 3500 
L 844 3500 
L 1563 769 
L 2278 3500 
L 2956 3500 
L 3675 769 
L 4391 3500 
L 4966 3500 
L 4050 0 
L 3372 0 
L 2619 2869 
L 1863 0 
L 1184 0 
L 269 3500 
z
" id="DejaVuSans-77" transform="scale(0.015625)"/>
     </defs>
     <use xlink:href="#DejaVuSans-4d"/>
     <use x="86.279297" xlink:href="#DejaVuSans-65"/>
     <use x="147.802734" xlink:href="#DejaVuSans-61"/>
     <use x="209.082031" xlink:href="#DejaVuSans-64"/>
     <use x="272.558594" xlink:href="#DejaVuSans-6f"/>
     <use x="333.740234" xlink:href="#DejaVuSans-77"/>
     <use x="415.527344" xlink:href="#DejaVuSans-73"/>
     <use x="467.626953" xlink:href="#DejaVuSans-20"/>
     <use x="499.414062" xlink:href="#DejaVuSans-38"/>
     <use x="563.037109" xlink:href="#DejaVuSans-2e"/>
     <use x="594.824219" xlink:href="#DejaVuSans-31"/>
     <use x="658.447266" xlink:href="#DejaVuSans-b0"/>
    </g>
   </g>
   <g id="text_18">
    <g id="patch_19">
     <path d="M 81.184399 88.592163 
L 90.542403 75.645025 
L 88.941233 74.487722 
L 79.583229 87.434861 
z
" style="fill:#ffffff;"/>
    </g>
    <!-- Milkshake 17.4° -->
    <g style="fill:#4169e1;" transform="translate(80.842804 88.320586)rotate(-54.141145)scale(0.02 -0.02)">
     <use xlink:href="#DejaVuSans-4d"/>
     <use x="86.279297" xlink:href="#DejaVuSans-69"/>
     <use x="114.0625" xlink:href="#DejaVuSans-6c"/>
     <use x="141.845703" xlink:href="#DejaVuSans-6b"/>
     <use x="199.755859" xlink:href="#DejaVuSans-73"/>
     <use x="251.855469" xlink:href="#DejaVuSans-68"/>
     <use x="315.234375" xlink:href="#DejaVuSans-61"/>
     <use x="376.513672" xlink:href="#DejaVuSans-6b"/>
     <use x="430.798828" xlink:href="#DejaVuSans-65"/>
     <use x="492.322266" xlink:href="#DejaVuSans-20"/>
     <use x="524.109375" xlink:href="#DejaVuSans-31"/>
     <use x="587.732422" xlink:href="#DejaVuSans-37"/>
     <use x="651.355469" xlink:href="#DejaVuSans-2e"/>
     <use x="683.142578" xlink:href="#DejaVuSans-34"/>
     <use x="746.765625" xlink:href="#DejaVuSans-b0"/>
    </g>
   </g>
   <g id="text_19">
    <g id="patch_20">
     <path d="M 47.038967 40.633827 
L 54.194566 55.242339 
L 55.968781 54.373285 
L 48.813182 39.764774 
z
" style="fill:#ffffff;"/>
    </g>
    <!-- Nose Dive 26.2° -->
    <g transform="translate(47.439259 40.460024)rotate(-296.096721)scale(0.02 -0.02)">
     <defs>
      <path d="M 628 4666 
L 1478 4666 
L 3547 763 
L 3547 4666 
L 4159 4666 
L 4159 0 
L 3309 0 
L 1241 3903 
L 1241 0 
L 628 0 
L 628 4666 
z
" id="DejaVuSans-4e" transform="scale(0.015625)"/>
      <path d="M 191 3500 
L 800 3500 
L 1894 563 
L 2988 3500 
L 3597 3500 
L 2284 0 
L 1503 0 
L 191 3500 
z
" id="DejaVuSans-76" transform="scale(0.015625)"/>
     </defs>
     <use xlink:href="#DejaVuSans-4e"/>
     <use x="74.804688" xlink:href="#DejaVuSans-6f"/>
     <use x="135.986328" xlink:href="#DejaVuSans-73"/>
     <use x="188.085938" xlink:href="#DejaVuSans-65"/>
     <use x="249.609375" xlink:href="#DejaVuSans-20"/>
     <use x="281.396484" xlink:href="#DejaVuSans-44"/>
     <use x="358.398438" xlink:href="#DejaVuSans-69"/>
     <use x="386.181641" xlink:href="#DejaVuSans-76"/>
     <use x="445.361328" xlink:href="#DejaVuSans-65"/>
     <use x="506.884766" xlink:href="#DejaVuSans-20"/>
     <use x="538.671875" xlink:href="#DejaVuSans-32"/>
     <use x="602.294922" xlink:href="#DejaVuSans-36"/>
     <use x="665.917969" xlink:href="#DejaVuSans-2e"/>
     <use x="697.705078" xlink:href="#DejaVuSans-32"/>
     <use x="761.328125" xlink:href="#DejaVuSans-b0"/>
    </g>
   </g>
   <g id="text_20">
    <g id="patch_21">
     <path d="M 97.519588 130.531732 
L 100.789027 107.06653 
L 98.832304 106.793897 
L 95.562864 130.259099 
z
" style="fill:#ffffff;"/>
    </g>
    <!-- Panorama Glades 14.5° -->
    <g style="fill:#4169e1;" transform="translate(97.090581 130.451764)rotate(-82.067965)scale(0.02 -0.02)">
     <defs>
      <path d="M 1259 4147 
L 1259 2394 
L 2053 2394 
Q 2494 2394 2734 2622 
Q 2975 2850 2975 3272 
Q 2975 3691 2734 3919 
Q 2494 4147 2053 4147 
L 1259 4147 
z
M 628 4666 
L 2053 4666 
Q 2838 4666 3239 4311 
Q 3641 3956 3641 3272 
Q 3641 2581 3239 2228 
Q 2838 1875 2053 1875 
L 1259 1875 
L 1259 0 
L 628 0 
L 628 4666 
z
" id="DejaVuSans-50" transform="scale(0.015625)"/>
      <path d="M 3809 666 
L 3809 1919 
L 2778 1919 
L 2778 2438 
L 4434 2438 
L 4434 434 
Q 4069 175 3628 42 
Q 3188 -91 2688 -91 
Q 1594 -91 976 548 
Q 359 1188 359 2328 
Q 359 3472 976 4111 
Q 1594 4750 2688 4750 
Q 3144 4750 3555 4637 
Q 3966 4525 4313 4306 
L 4313 3634 
Q 3963 3931 3569 4081 
Q 3175 4231 2741 4231 
Q 1884 4231 1454 3753 
Q 1025 3275 1025 2328 
Q 1025 1384 1454 906 
Q 1884 428 2741 428 
Q 3075 428 3337 486 
Q 3600 544 3809 666 
z
" id="DejaVuSans-47" transform="scale(0.015625)"/>
      <path d="M 691 4666 
L 3169 4666 
L 3169 4134 
L 1269 4134 
L 1269 2991 
Q 1406 3038 1543 3061 
Q 1681 3084 1819 3084 
Q 2600 3084 3056 2656 
Q 3513 2228 3513 1497 
Q 3513 744 3044 326 
Q 2575 -91 1722 -91 
Q 1428 -91 1123 -41 
Q 819 9 494 109 
L 494 744 
Q 775 591 1075 516 
Q 1375 441 1709 441 
Q 2250 441 2565 725 
Q 2881 1009 2881 1497 
Q 2881 1984 2565 2268 
Q 2250 2553 1709 2553 
Q 1456 2553 1204 2497 
Q 953 2441 691 2322 
L 691 4666 
z
" id="DejaVuSans-35" transform="scale(0.015625)"/>
     </defs>
     <use xlink:href="#DejaVuSans-50"/>
     <use x="55.802734" xlink:href="#DejaVuSans-61"/>
     <use x="117.082031" xlink:href="#DejaVuSans-6e"/>
     <use x="180.460938" xlink:href="#DejaVuSans-6f"/>
     <use x="241.642578" xlink:href="#DejaVuSans-72"/>
     <use x="282.755859" xlink:href="#DejaVuSans-61"/>
     <use x="344.035156" xlink:href="#DejaVuSans-6d"/>
     <use x="441.447266" xlink:href="#DejaVuSans-61"/>
     <use x="502.726562" xlink:href="#DejaVuSans-20"/>
     <use x="534.513672" xlink:href="#DejaVuSans-47"/>
     <use x="612.003906" xlink:href="#DejaVuSans-6c"/>
     <use x="639.787109" xlink:href="#DejaVuSans-61"/>
     <use x="701.066406" xlink:href="#DejaVuSans-64"/>
     <use x="764.542969" xlink:href="#DejaVuSans-65"/>
     <use x="826.066406" xlink:href="#DejaVuSans-73"/>
     <use x="878.166016" xlink:href="#DejaVuSans-20"/>
     <use x="909.953125" xlink:href="#DejaVuSans-31"/>
     <use x="973.576172" xlink:href="#DejaVuSans-34"/>
     <use x="1037.199219" xlink:href="#DejaVuSans-2e"/>
     <use x="1068.986328" xlink:href="#DejaVuSans-35"/>
     <use x="1132.609375" xlink:href="#DejaVuSans-b0"/>
    </g>
   </g>
   <g id="text_21">
    <g id="patch_22">
     <path d="M 41.49533 44.040328 
L 48.867391 54.657507 
L 50.49018 53.53072 
L 43.118119 42.913541 
z
" style="fill:#ffffff;"/>
    </g>
    <!-- Plunge 24.1° -->
    <g style="fill:#4169e1;" transform="translate(41.864818 43.808121)rotate(-304.774264)scale(0.02 -0.02)">
     <use xlink:href="#DejaVuSans-50"/>
     <use x="60.302734" xlink:href="#DejaVuSans-6c"/>
     <use x="88.085938" xlink:href="#DejaVuSans-75"/>
     <use x="151.464844" xlink:href="#DejaVuSans-6e"/>
     <use x="214.84375" xlink:href="#DejaVuSans-67"/>
     <use x="278.320312" xlink:href="#DejaVuSans-65"/>
     <use x="339.84375" xlink:href="#DejaVuSans-20"/>
     <use x="371.630859" xlink:href="#DejaVuSans-32"/>
     <use x="435.253906" xlink:href="#DejaVuSans-34"/>
     <use x="498.876953" xlink:href="#DejaVuSans-2e"/>
     <use x="530.664062" xlink:href="#DejaVuSans-31"/>
     <use x="594.287109" xlink:href="#DejaVuSans-b0"/>
    </g>
   </g>
   <g id="text_22">
    <g id="patch_23">
     <path d="M 67.455896 74.349646 
L 75.000425 57.056901 
L 73.189633 56.266883 
L 65.645104 73.559629 
z
" style="fill:#ffffff;"/>
    </g>
    <!-- Powder Bowl 21.5° -->
    <g style="fill:#4169e1;" transform="translate(67.064328 74.156991)rotate(-66.429181)scale(0.02 -0.02)">
     <use xlink:href="#DejaVuSans-50"/>
     <use x="56.677734" xlink:href="#DejaVuSans-6f"/>
     <use x="117.859375" xlink:href="#DejaVuSans-77"/>
     <use x="199.646484" xlink:href="#DejaVuSans-64"/>
     <use x="263.123047" xlink:href="#DejaVuSans-65"/>
     <use x="324.646484" xlink:href="#DejaVuSans-72"/>
     <use x="365.759766" xlink:href="#DejaVuSans-20"/>
     <use x="397.546875" xlink:href="#DejaVuSans-42"/>
     <use x="466.150391" xlink:href="#DejaVuSans-6f"/>
     <use x="527.332031" xlink:href="#DejaVuSans-77"/>
     <use x="609.119141" xlink:href="#DejaVuSans-6c"/>
     <use x="636.902344" xlink:href="#DejaVuSans-20"/>
     <use x="668.689453" xlink:href="#DejaVuSans-32"/>
     <use x="732.3125" xlink:href="#DejaVuSans-31"/>
     <use x="795.935547" xlink:href="#DejaVuSans-2e"/>
     <use x="827.722656" xlink:href="#DejaVuSans-35"/>
     <use x="891.345703" xlink:href="#DejaVuSans-b0"/>
    </g>
   </g>
   <g id="text_23">
    <g id="patch_24">
     <path d="M 105.192673 88.506686 
L 105.375619 66.349316 
L 103.400061 66.333005 
L 103.217115 88.490374 
z
" style="fill:#ffffff;"/>
    </g>
    <!-- Rendezvous Too 12.7° -->
    <g style="fill:#008000;" transform="translate(104.756915 88.483087)rotate(-89.526939)scale(0.02 -0.02)">
     <defs>
      <path d="M 353 3500 
L 3084 3500 
L 3084 2975 
L 922 459 
L 3084 459 
L 3084 0 
L 275 0 
L 275 525 
L 2438 3041 
L 353 3041 
L 353 3500 
z
" id="DejaVuSans-7a" transform="scale(0.015625)"/>
      <path d="M -19 4666 
L 3928 4666 
L 3928 4134 
L 2272 4134 
L 2272 0 
L 1638 0 
L 1638 4134 
L -19 4134 
L -19 4666 
z
" id="DejaVuSans-54" transform="scale(0.015625)"/>
     </defs>
     <use xlink:href="#DejaVuSans-52"/>
     <use x="64.982422" xlink:href="#DejaVuSans-65"/>
     <use x="126.505859" xlink:href="#DejaVuSans-6e"/>
     <use x="189.884766" xlink:href="#DejaVuSans-64"/>
     <use x="253.361328" xlink:href="#DejaVuSans-65"/>
     <use x="314.884766" xlink:href="#DejaVuSans-7a"/>
     <use x="367.375" xlink:href="#DejaVuSans-76"/>
     <use x="426.554688" xlink:href="#DejaVuSans-6f"/>
     <use x="487.736328" xlink:href="#DejaVuSans-75"/>
     <use x="551.115234" xlink:href="#DejaVuSans-73"/>
     <use x="603.214844" xlink:href="#DejaVuSans-20"/>
     <use x="635.001953" xlink:href="#DejaVuSans-54"/>
     <use x="679.085938" xlink:href="#DejaVuSans-6f"/>
     <use x="740.267578" xlink:href="#DejaVuSans-6f"/>
     <use x="801.449219" xlink:href="#DejaVuSans-20"/>
     <use x="833.236328" xlink:href="#DejaVuSans-31"/>
     <use x="896.859375" xlink:href="#DejaVuSans-32"/>
     <use x="960.482422" xlink:href="#DejaVuSans-2e"/>
     <use x="992.269531" xlink:href="#DejaVuSans-37"/>
     <use x="1055.892578" xlink:href="#DejaVuSans-b0"/>
    </g>
   </g>
   <g id="text_24">
    <g id="patch_25">
     <path d="M 79.796268 39.13701 
L 94.333098 52.335552 
L 95.661124 50.872869 
L 81.124294 37.674327 
z
" style="fill:#ffffff;"/>
    </g>
    <!-- Ridge Runner 13.7° -->
    <g style="fill:#008000;" transform="translate(80.104115 38.827701)rotate(-317.762494)scale(0.02 -0.02)">
     <use xlink:href="#DejaVuSans-52"/>
     <use x="69.482422" xlink:href="#DejaVuSans-69"/>
     <use x="97.265625" xlink:href="#DejaVuSans-64"/>
     <use x="160.742188" xlink:href="#DejaVuSans-67"/>
     <use x="224.21875" xlink:href="#DejaVuSans-65"/>
     <use x="285.742188" xlink:href="#DejaVuSans-20"/>
     <use x="317.529297" xlink:href="#DejaVuSans-52"/>
     <use x="382.511719" xlink:href="#DejaVuSans-75"/>
     <use x="445.890625" xlink:href="#DejaVuSans-6e"/>
     <use x="509.269531" xlink:href="#DejaVuSans-6e"/>
     <use x="572.648438" xlink:href="#DejaVuSans-65"/>
     <use x="634.171875" xlink:href="#DejaVuSans-72"/>
     <use x="675.285156" xlink:href="#DejaVuSans-20"/>
     <use x="707.072266" xlink:href="#DejaVuSans-31"/>
     <use x="770.695312" xlink:href="#DejaVuSans-33"/>
     <use x="834.318359" xlink:href="#DejaVuSans-2e"/>
     <use x="866.105469" xlink:href="#DejaVuSans-37"/>
     <use x="929.728516" xlink:href="#DejaVuSans-b0"/>
    </g>
   </g>
   <g id="text_25">
    <g id="patch_26">
     <path d="M 63.9779 62.162137 
L 74.500923 46.079526 
L 72.847737 44.997829 
L 62.324714 61.080439 
z
" style="fill:#ffffff;"/>
    </g>
    <!-- Turkey Chute 25.1° -->
    <g transform="translate(63.624062 61.906716)rotate(-56.80285)scale(0.02 -0.02)">
     <use xlink:href="#DejaVuSans-54"/>
     <use x="45.958984" xlink:href="#DejaVuSans-75"/>
     <use x="109.337891" xlink:href="#DejaVuSans-72"/>
     <use x="150.451172" xlink:href="#DejaVuSans-6b"/>
     <use x="204.736328" xlink:href="#DejaVuSans-65"/>
     <use x="266.259766" xlink:href="#DejaVuSans-79"/>
     <use x="325.439453" xlink:href="#DejaVuSans-20"/>
     <use x="357.226562" xlink:href="#DejaVuSans-43"/>
     <use x="427.050781" xlink:href="#DejaVuSans-68"/>
     <use x="490.429688" xlink:href="#DejaVuSans-75"/>
     <use x="553.808594" xlink:href="#DejaVuSans-74"/>
     <use x="593.017578" xlink:href="#DejaVuSans-65"/>
     <use x="654.541016" xlink:href="#DejaVuSans-20"/>
     <use x="686.328125" xlink:href="#DejaVuSans-32"/>
     <use x="749.951172" xlink:href="#DejaVuSans-35"/>
     <use x="813.574219" xlink:href="#DejaVuSans-2e"/>
     <use x="845.361328" xlink:href="#DejaVuSans-31"/>
     <use x="908.984375" xlink:href="#DejaVuSans-b0"/>
    </g>
   </g>
   <g id="text_26">
    <g id="patch_27">
     <path d="M 10.582655 38.217188 
L 25.120099 28.001618 
L 23.984218 26.385182 
L 9.446773 36.600751 
z
" style="fill:#ffffff;"/>
    </g>
    <!-- Wood's Run 14.9° -->
    <g style="fill:#008000;" transform="translate(10.348377 37.849009)rotate(-35.095996)scale(0.02 -0.02)">
     <defs>
      <path d="M 213 4666 
L 850 4666 
L 1831 722 
L 2809 4666 
L 3519 4666 
L 4500 722 
L 5478 4666 
L 6119 4666 
L 4947 0 
L 4153 0 
L 3169 4050 
L 2175 0 
L 1381 0 
L 213 4666 
z
" id="DejaVuSans-57" transform="scale(0.015625)"/>
      <path d="M 1147 4666 
L 1147 2931 
L 616 2931 
L 616 4666 
L 1147 4666 
z
" id="DejaVuSans-27" transform="scale(0.015625)"/>
     </defs>
     <use xlink:href="#DejaVuSans-57"/>
     <use x="93.001953" xlink:href="#DejaVuSans-6f"/>
     <use x="154.183594" xlink:href="#DejaVuSans-6f"/>
     <use x="215.365234" xlink:href="#DejaVuSans-64"/>
     <use x="278.841797" xlink:href="#DejaVuSans-27"/>
     <use x="306.332031" xlink:href="#DejaVuSans-73"/>
     <use x="358.431641" xlink:href="#DejaVuSans-20"/>
     <use x="390.21875" xlink:href="#DejaVuSans-52"/>
     <use x="455.201172" xlink:href="#DejaVuSans-75"/>
     <use x="518.580078" xlink:href="#DejaVuSans-6e"/>
     <use x="581.958984" xlink:href="#DejaVuSans-20"/>
     <use x="613.746094" xlink:href="#DejaVuSans-31"/>
     <use x="677.369141" xlink:href="#DejaVuSans-34"/>
     <use x="740.992188" xlink:href="#DejaVuSans-2e"/>
     <use x="772.779297" xlink:href="#DejaVuSans-39"/>
     <use x="836.402344" xlink:href="#DejaVuSans-b0"/>
    </g>
   </g>
   <g id="text_27">
    <!-- Winterplace -->
    <g transform="translate(47.633123 10.547029)scale(0.1 -0.1)">
     <use xlink:href="#DejaVuSans-57"/>
     <use x="96.626953" xlink:href="#DejaVuSans-69"/>
     <use x="124.410156" xlink:href="#DejaVuSans-6e"/>
     <use x="187.789062" xlink:href="#DejaVuSans-74"/>
     <use x="226.998047" xlink:href="#DejaVuSans-65"/>
     <use x="288.521484" xlink:href="#DejaVuSans-72"/>
     <use x="329.634766" xlink:href="#DejaVuSans-70"/>
     <use x="393.111328" xlink:href="#DejaVuSans-6c"/>
     <use x="420.894531" xlink:href="#DejaVuSans-61"/>
     <use x="482.173828" xlink:href="#DejaVuSans-63"/>
     <use x="537.154297" xlink:href="#DejaVuSans-65"/>
    </g>
   </g>
   <g id="legend_1">
    <g id="line2d_39">
     <path d="M 7.565545 178.074345 
L 17.565545 178.074345 
" style="fill:none;stroke:#008000;stroke-linecap:square;stroke-width:1.5;"/>
    </g>
    <g id="line2d_40"/>
    <g id="text_28">
     <!-- Easy -->
     <g transform="translate(21.565545 179.824345)scale(0.05 -0.05)">
      <defs>
       <path d="M 628 4666 
L 3578 4666 
L 3578 4134 
L 1259 4134 
L 1259 2753 
L 3481 2753 
L 3481 2222 
L 1259 2222 
L 1259 531 
L 3634 531 
L 3634 0 
L 628 0 
L 628 4666 
z
" id="DejaVuSans-45" transform="scale(0.015625)"/>
      </defs>
      <use xlink:href="#DejaVuSans-45"/>
      <use x="63.183594" xlink:href="#DejaVuSans-61"/>
      <use x="124.462891" xlink:href="#DejaVuSans-73"/>
      <use x="176.5625" xlink:href="#DejaVuSans-79"/>
     </g>
    </g>
    <g id="line2d_41">
     <path d="M 7.565545 185.413407 
L 17.565545 185.413407 
" style="fill:none;stroke:#4169e1;stroke-linecap:square;stroke-width:1.5;"/>
    </g>
    <g id="line2d_42"/>
    <g id="text_29">
     <!-- Intermediate -->
     <g transform="translate(21.565545 187.163407)scale(0.05 -0.05)">
      <defs>
       <path d="M 628 4666 
L 1259 4666 
L 1259 0 
L 628 0 
L 628 4666 
z
" id="DejaVuSans-49" transform="scale(0.015625)"/>
      </defs>
      <use xlink:href="#DejaVuSans-49"/>
      <use x="29.492188" xlink:href="#DejaVuSans-6e"/>
      <use x="92.871094" xlink:href="#DejaVuSans-74"/>
      <use x="132.080078" xlink:href="#DejaVuSans-65"/>
      <use x="193.603516" xlink:href="#DejaVuSans-72"/>
      <use x="232.966797" xlink:href="#DejaVuSans-6d"/>
      <use x="330.378906" xlink:href="#DejaVuSans-65"/>
      <use x="391.902344" xlink:href="#DejaVuSans-64"/>
      <use x="455.378906" xlink:href="#DejaVuSans-69"/>
      <use x="483.162109" xlink:href="#DejaVuSans-61"/>
      <use x="544.441406" xlink:href="#DejaVuSans-74"/>
      <use x="583.650391" xlink:href="#DejaVuSans-65"/>
     </g>
    </g>
    <g id="line2d_43">
     <path d="M 63.82492 178.074345 
L 73.82492 178.074345 
" style="fill:none;stroke:#000000;stroke-linecap:square;stroke-width:1.5;"/>
    </g>
    <g id="line2d_44"/>
    <g id="text_30">
     <!-- Advanced -->
     <g transform="translate(77.82492 179.824345)scale(0.05 -0.05)">
      <defs>
       <path d="M 2188 4044 
L 1331 1722 
L 3047 1722 
L 2188 4044 
z
M 1831 4666 
L 2547 4666 
L 4325 0 
L 3669 0 
L 3244 1197 
L 1141 1197 
L 716 0 
L 50 0 
L 1831 4666 
z
" id="DejaVuSans-41" transform="scale(0.015625)"/>
      </defs>
      <use xlink:href="#DejaVuSans-41"/>
      <use x="66.658203" xlink:href="#DejaVuSans-64"/>
      <use x="130.134766" xlink:href="#DejaVuSans-76"/>
      <use x="189.314453" xlink:href="#DejaVuSans-61"/>
      <use x="250.59375" xlink:href="#DejaVuSans-6e"/>
      <use x="313.972656" xlink:href="#DejaVuSans-63"/>
      <use x="368.953125" xlink:href="#DejaVuSans-65"/>
      <use x="430.476562" xlink:href="#DejaVuSans-64"/>
     </g>
    </g>
    <g id="line2d_45">
     <path d="M 63.82492 185.413407 
L 73.82492 185.413407 
" style="fill:none;stroke:#ff0000;stroke-linecap:square;stroke-width:1.5;"/>
    </g>
    <g id="line2d_46"/>
    <g id="text_31">
     <!-- Expert -->
     <g transform="translate(77.82492 187.163407)scale(0.05 -0.05)">
      <defs>
       <path d="M 3513 3500 
L 2247 1797 
L 3578 0 
L 2900 0 
L 1881 1375 
L 863 0 
L 184 0 
L 1544 1831 
L 300 3500 
L 978 3500 
L 1906 2253 
L 2834 3500 
L 3513 3500 
z
" id="DejaVuSans-78" transform="scale(0.015625)"/>
      </defs>
      <use xlink:href="#DejaVuSans-45"/>
      <use x="63.183594" xlink:href="#DejaVuSans-78"/>
      <use x="122.363281" xlink:href="#DejaVuSans-70"/>
      <use x="185.839844" xlink:href="#DejaVuSans-65"/>
      <use x="247.363281" xlink:href="#DejaVuSans-72"/>
      <use x="288.476562" xlink:href="#DejaVuSans-74"/>
     </g>
    </g>
    <g id="line2d_47">
     <path d="M 112.524139 178.074345 
L 122.524139 178.074345 
" style="fill:none;stroke:#ffd700;stroke-linecap:square;stroke-width:1.5;"/>
    </g>
    <g id="line2d_48"/>
    <g id="text_32">
     <!-- Extreme -->
     <g transform="translate(126.524139 179.824345)scale(0.05 -0.05)">
      <use xlink:href="#DejaVuSans-45"/>
      <use x="63.183594" xlink:href="#DejaVuSans-78"/>
      <use x="122.363281" xlink:href="#DejaVuSans-74"/>
      <use x="161.572266" xlink:href="#DejaVuSans-72"/>
      <use x="200.435547" xlink:href="#DejaVuSans-65"/>
      <use x="261.958984" xlink:href="#DejaVuSans-6d"/>
      <use x="359.371094" xlink:href="#DejaVuSans-65"/>
     </g>
    </g>
    <g id="line2d_49">
     <path d="M 112.524139 185.413407 
L 122.524139 185.413407 
" style="fill:none;stroke:#000000;stroke-dasharray:1.5,2.475;stroke-dashoffset:0;stroke-width:1.5;"/>
    </g>
    <g id="line2d_50"/>
    <g id="text_33">
     <!-- Gladed -->
     <g transform="translate(126.524139 187.163407)scale(0.05 -0.05)">
      <use xlink:href="#DejaVuSans-47"/>
      <use x="77.490234" xlink:href="#DejaVuSans-6c"/>
      <use x="105.273438" xlink:href="#DejaVuSans-61"/>
      <use x="166.552734" xlink:href="#DejaVuSans-64"/>
      <use x="230.029297" xlink:href="#DejaVuSans-65"/>
      <use x="291.552734" xlink:href="#DejaVuSans-64"/>
     </g>
    </g>
   </g>
  </g>
  <g id="text_34">
   <!-- Sources: USGS and OpenStreetMaps -->
   <g transform="translate(37.906833 194.27583)scale(0.043478 -0.043478)">
    <defs>
     <path d="M 3425 4513 
L 3425 3897 
Q 3066 4069 2747 4153 
Q 2428 4238 2131 4238 
Q 1616 4238 1336 4038 
Q 1056 3838 1056 3469 
Q 1056 3159 1242 3001 
Q 1428 2844 1947 2747 
L 2328 2669 
Q 3034 2534 3370 2195 
Q 3706 1856 3706 1288 
Q 3706 609 3251 259 
Q 2797 -91 1919 -91 
Q 1588 -91 1214 -16 
Q 841 59 441 206 
L 441 856 
Q 825 641 1194 531 
Q 1563 422 1919 422 
Q 2459 422 2753 634 
Q 3047 847 3047 1241 
Q 3047 1584 2836 1778 
Q 2625 1972 2144 2069 
L 1759 2144 
Q 1053 2284 737 2584 
Q 422 2884 422 3419 
Q 422 4038 858 4394 
Q 1294 4750 2059 4750 
Q 2388 4750 2728 4690 
Q 3069 4631 3425 4513 
z
" id="DejaVuSans-53" transform="scale(0.015625)"/>
     <path d="M 750 794 
L 1409 794 
L 1409 0 
L 750 0 
L 750 794 
z
M 750 3309 
L 1409 3309 
L 1409 2516 
L 750 2516 
L 750 3309 
z
" id="DejaVuSans-3a" transform="scale(0.015625)"/>
     <path d="M 556 4666 
L 1191 4666 
L 1191 1831 
Q 1191 1081 1462 751 
Q 1734 422 2344 422 
Q 2950 422 3222 751 
Q 3494 1081 3494 1831 
L 3494 4666 
L 4128 4666 
L 4128 1753 
Q 4128 841 3676 375 
Q 3225 -91 2344 -91 
Q 1459 -91 1007 375 
Q 556 841 556 1753 
L 556 4666 
z
" id="DejaVuSans-55" transform="scale(0.015625)"/>
    </defs>
    <use xlink:href="#DejaVuSans-53"/>
    <use x="63.476562" xlink:href="#DejaVuSans-6f"/>
    <use x="124.658203" xlink:href="#DejaVuSans-75"/>
    <use x="188.037109" xlink:href="#DejaVuSans-72"/>
    <use x="226.900391" xlink:href="#DejaVuSans-63"/>
    <use x="281.880859" xlink:href="#DejaVuSans-65"/>
    <use x="343.404297" xlink:href="#DejaVuSans-73"/>
    <use x="395.503906" xlink:href="#DejaVuSans-3a"/>
    <use x="429.195312" xlink:href="#DejaVuSans-20"/>
    <use x="460.982422" xlink:href="#DejaVuSans-55"/>
    <use x="534.175781" xlink:href="#DejaVuSans-53"/>
    <use x="597.652344" xlink:href="#DejaVuSans-47"/>
    <use x="675.142578" xlink:href="#DejaVuSans-53"/>
    <use x="738.619141" xlink:href="#DejaVuSans-20"/>
    <use x="770.40625" xlink:href="#DejaVuSans-61"/>
    <use x="831.685547" xlink:href="#DejaVuSans-6e"/>
    <use x="895.064453" xlink:href="#DejaVuSans-64"/>
    <use x="958.541016" xlink:href="#DejaVuSans-20"/>
    <use x="990.328125" xlink:href="#DejaVuSans-4f"/>
    <use x="1069.039062" xlink:href="#DejaVuSans-70"/>
    <use x="1132.515625" xlink:href="#DejaVuSans-65"/>
    <use x="1194.039062" xlink:href="#DejaVuSans-6e"/>
    <use x="1257.417969" xlink:href="#DejaVuSans-53"/>
    <use x="1320.894531" xlink:href="#DejaVuSans-74"/>
    <use x="1360.103516" xlink:href="#DejaVuSans-72"/>
    <use x="1398.966797" xlink:href="#DejaVuSans-65"/>
    <use x="1460.490234" xlink:href="#DejaVuSans-65"/>
    <use x="1522.013672" xlink:href="#DejaVuSans-74"/>
    <use x="1561.222656" xlink:href="#DejaVuSans-4d"/>
    <use x="1647.501953" xlink:href="#DejaVuSans-61"/>
    <use x="1708.78125" xlink:href="#DejaVuSans-70"/>
    <use x="1772.257812" xlink:href="#DejaVuSans-73"/>
   </g>
  </g>
 </g>
 <defs>
  <clipPath id="pf427b5a2b5">
   <rect height="164.085984" width="155.134997" x="0" y="15.547029"/>
  </clipPath>
 </defs>
</svg>
