<?xml version="1.0" encoding="utf-8" standalone="no"?>
<!DOCTYPE svg PUBLIC "-//W3C//DTD SVG 1.1//EN"
  "http://www.w3.org/Graphics/SVG/1.1/DTD/svg11.dtd">
<svg height="189.112964pt" version="1.1" viewBox="0 0 186.544069 189.112964" width="186.544069pt" xmlns="http://www.w3.org/2000/svg" xmlns:xlink="http://www.w3.org/1999/xlink">
 <metadata>
  <rdf:RDF xmlns:cc="http://creativecommons.org/ns#" xmlns:dc="http://purl.org/dc/elements/1.1/" xmlns:rdf="http://www.w3.org/1999/02/22-rdf-syntax-ns#">
   <cc:Work>
    <dc:type rdf:resource="http://purl.org/dc/dcmitype/StillImage"/>
    <dc:date>2022-04-14T21:35:03.823329</dc:date>
    <dc:format>image/svg+xml</dc:format>
    <dc:creator>
     <cc:Agent>
      <dc:title>Matplotlib v3.4.3, https://matplotlib.org/</dc:title>
     </cc:Agent>
    </dc:creator>
   </cc:Work>
  </rdf:RDF>
 </metadata>
 <defs>
  <style type="text/css">*{stroke-linecap:butt;stroke-linejoin:round;}</style>
 </defs>
 <g id="figure_1">
  <g id="patch_1">
   <path d="M 0 189.112964 
L 186.544069 189.112964 
L 186.544069 0 
L 0 0 
z
" style="fill:#ffffff;"/>
  </g>
  <g id="axes_1">
   <g id="patch_2">
    <path clip-path="url(#p9d2d6d2c41)" d="M 164.327874 62.618032 
L 164.327874 62.618032 
L 164.983278 63.637368 
L 165.638682 64.656704 
L 166.294086 65.67604 
L 166.94949 66.695376 
L 167.485895 67.656617 
L 168.0223 68.617857 
L 168.558706 69.579098 
L 169.095111 70.540339 
L 169.631516 71.50158 
L 170.167921 72.46282 
L 170.704326 73.424061 
L 171.240731 74.385302 
L 171.359912 75.681363 
L 171.479093 76.977424 
L 171.598274 78.273485 
L 171.717454 79.569547 
L 171.836635 80.865608 
L 171.955816 82.161669 
L 172.074997 83.45773 
L 172.194178 84.753791 
L 172.61122 83.778097 
L 173.028263 82.802402 
L 173.445305 81.826708 
L 173.862347 80.851014 
L 174.279389 79.875319 
L 174.696431 78.899625 
L 175.113474 77.92393 
L 175.530516 76.948236 
L 175.679355 75.521109 
L 175.828195 74.093983 
L 175.977035 72.666856 
L 176.125874 71.239729 
L 175.798354 70.074453 
L 175.470834 68.909177 
L 175.143314 67.7439 
L 174.815794 66.578624 
L 173.892188 65.908983 
L 172.968581 65.239342 
L 172.044975 64.569701 
L 171.121368 63.90006 
z
" style="opacity:0.1;"/>
   </g>
   <g id="patch_3">
    <path clip-path="url(#p9d2d6d2c41)" d="M 164.327874 62.618032 
L 164.327874 62.618032 
L 164.983278 63.637368 
L 165.638682 64.656704 
L 166.294086 65.67604 
L 166.94949 66.695376 
L 167.485895 67.656617 
L 168.0223 68.617857 
L 168.558706 69.579098 
L 169.095111 70.540339 
L 169.631516 71.50158 
L 170.167921 72.46282 
L 170.704326 73.424061 
L 171.240731 74.385302 
L 171.359912 75.681363 
L 171.479093 76.977424 
L 171.598274 78.273485 
L 171.717454 79.569547 
L 171.836635 80.865608 
L 171.955816 82.161669 
L 172.074997 83.45773 
L 172.194178 84.753791 
L 172.61122 83.778097 
L 173.028263 82.802402 
L 173.445305 81.826708 
L 173.862347 80.851014 
L 174.279389 79.875319 
L 174.696431 78.899625 
L 175.113474 77.92393 
L 175.530516 76.948236 
L 175.679355 75.521109 
L 175.828195 74.093983 
L 175.977035 72.666856 
L 176.125874 71.239729 
L 175.798354 70.074453 
L 175.470834 68.909177 
L 175.143314 67.7439 
L 174.815794 66.578624 
L 173.892188 65.908983 
L 172.968581 65.239342 
L 172.044975 64.569701 
L 171.121368 63.90006 
z
" style="fill:none;stroke:#000000;stroke-dasharray:3.7,1.6;stroke-dashoffset:0;stroke-linejoin:miter;"/>
   </g>
   <g id="line2d_1">
    <path clip-path="url(#p9d2d6d2c41)" d="M 171.19415 86.038065 
" style="fill:none;stroke:#008000;stroke-linecap:square;stroke-width:1.5;"/>
   </g>
   <g id="line2d_2">
    <path clip-path="url(#p9d2d6d2c41)" d="M 171.19415 86.038065 
" style="fill:none;stroke:#4169e1;stroke-linecap:square;stroke-width:1.5;"/>
   </g>
   <g id="line2d_3">
    <path clip-path="url(#p9d2d6d2c41)" d="M 171.19415 86.038065 
" style="fill:none;stroke:#000000;stroke-linecap:square;stroke-width:1.5;"/>
   </g>
   <g id="line2d_4">
    <path clip-path="url(#p9d2d6d2c41)" d="M 171.19415 86.038065 
" style="fill:none;stroke:#ff0000;stroke-linecap:square;stroke-width:1.5;"/>
   </g>
   <g id="line2d_5">
    <path clip-path="url(#p9d2d6d2c41)" d="M 171.19415 86.038065 
" style="fill:none;stroke:#ffd700;stroke-linecap:square;stroke-width:1.5;"/>
   </g>
   <g id="line2d_6">
    <path clip-path="url(#p9d2d6d2c41)" d="M 171.19415 86.038065 
" style="fill:none;stroke:#000000;stroke-dasharray:1.5,2.475;stroke-dashoffset:0;stroke-width:1.5;"/>
   </g>
   <g id="line2d_7">
    <path clip-path="url(#p9d2d6d2c41)" d="M 8.479276 34.835509 
L 9.466931 38.337512 
L 10.454586 41.839516 
L 11.664226 46.125106 
L 12.873867 50.410696 
L 13.998353 54.39795 
L 15.122838 58.385205 
L 16.247324 62.372459 
L 17.371809 66.359714 
L 18.913337 71.82349 
L 20.454865 77.287266 
L 22.020411 82.8358 
L 23.585956 88.384334 
L 25.164603 93.980579 
L 26.74325 99.576825 
L 27.758562 103.175092 
L 28.773874 106.77336 
L 29.789186 110.371628 
L 30.804498 113.969896 
L 31.788878 117.460112 
L 32.773258 120.950327 
L 33.757638 124.440543 
L 34.742017 127.930759 
L 35.794812 131.662057 
L 36.847607 135.393355 
L 37.900402 139.124653 
L 38.953197 142.855951 
L 40.667947 148.93436 
L 42.382696 155.012769 
L 43.860176 160.248654 
L 44.279401 161.738367 
L 44.700083 163.228079 
" style="fill:none;stroke:#808080;stroke-linecap:square;stroke-width:1.5;"/>
   </g>
   <g id="line2d_8">
    <path clip-path="url(#p9d2d6d2c41)" d="M 54.432523 83.012612 
L 55.349579 83.941017 
L 58.05635 86.680763 
L 60.763122 89.42051 
L 63.234806 91.9217 
L 65.706491 94.42289 
L 70.108361 98.879118 
L 74.51023 103.335346 
L 77.206812 106.064989 
L 79.903394 108.794632 
L 82.763372 111.689019 
L 85.62335 114.583406 
L 88.483327 117.477793 
L 91.343305 120.37218 
L 95.575592 124.656086 
L 99.807879 128.939992 
L 103.721744 132.901426 
L 107.635608 136.86286 
L 111.549473 140.824295 
L 115.463338 144.785729 
L 118.6643 148.025601 
" style="fill:none;stroke:#808080;stroke-linecap:square;stroke-width:1.5;"/>
   </g>
   <g id="line2d_9">
    <path clip-path="url(#p9d2d6d2c41)" d="M 125.647028 47.298802 
L 126.85958 48.488775 
L 129.759224 51.335732 
L 132.655229 54.178759 
L 135.551234 57.021786 
L 138.213609 59.6358 
L 140.875983 62.249813 
L 143.648986 64.97272 
L 146.421989 67.695628 
L 149.605484 70.820432 
L 152.788979 73.945236 
L 156.885891 77.967572 
L 160.982803 81.989909 
L 164.966902 85.899983 
L 168.464816 89.334068 
L 170.600247 91.431116 
" style="fill:none;stroke:#808080;stroke-linecap:square;stroke-width:1.5;"/>
   </g>
   <g id="line2d_10">
    <path clip-path="url(#p9d2d6d2c41)" d="M 84.274695 104.857614 
L 87.283512 108.142391 
L 90.156955 111.280106 
L 93.030397 114.41782 
L 96.221898 117.902423 
L 99.413399 121.387025 
L 102.657304 124.92832 
L 105.901208 128.469615 
L 108.382718 131.179051 
L 110.864228 133.888487 
L 113.345739 136.597923 
L 115.827249 139.307359 
L 118.635188 142.373225 
" style="fill:none;stroke:#808080;stroke-linecap:square;stroke-width:1.5;"/>
   </g>
   <g id="line2d_11">
    <path clip-path="url(#p9d2d6d2c41)" d="M 126.105556 141.825388 
L 127.692209 138.584393 
" style="fill:none;stroke:#808080;stroke-linecap:square;stroke-width:1.5;"/>
   </g>
   <g id="line2d_12">
    <path clip-path="url(#p9d2d6d2c41)" d="M 112.809697 62.148778 
L 114.418549 66.72288 
L 116.0274 71.296983 
L 117.636251 75.871085 
L 119.245103 80.445188 
" style="fill:none;stroke:#808080;stroke-linecap:square;stroke-width:1.5;"/>
   </g>
   <g id="line2d_13">
    <path clip-path="url(#p9d2d6d2c41)" d="M 107.928921 90.228794 
L 110.122577 95.592657 
" style="fill:none;stroke:#808080;stroke-linecap:square;stroke-width:1.5;"/>
   </g>
   <g id="line2d_14">
    <path clip-path="url(#p9d2d6d2c41)" d="M 112.857734 105.222465 
L 115.892753 108.861989 
L 119.911788 113.683628 
L 123.887154 118.45026 
L 126.925084 122.095397 
L 130.591853 126.492687 
" style="fill:none;stroke:#808080;stroke-linecap:square;stroke-width:1.5;"/>
   </g>
   <g id="line2d_15">
    <path clip-path="url(#p9d2d6d2c41)" d="M 117.700664 114.2977 
L 120.372499 116.435724 
L 123.044335 118.573748 
" style="fill:none;stroke:#808080;stroke-linecap:square;stroke-width:1.5;"/>
   </g>
   <g id="line2d_16">
    <path clip-path="url(#p9d2d6d2c41)" d="M 171.19415 86.038065 
L 170.309482 85.443359 
L 169.424814 84.848652 
L 168.540146 84.253946 
L 167.655478 83.65924 
L 166.77081 83.064534 
L 165.886142 82.469827 
L 165.001474 81.875121 
L 164.116806 81.280415 
L 162.999598 80.543417 
L 161.882391 79.806419 
L 161.135645 79.062825 
L 160.3889 78.319232 
L 159.642154 77.575639 
L 158.895408 76.832045 
L 158.148663 76.088452 
L 157.401917 75.344859 
L 156.655171 74.601265 
L 155.908425 73.857672 
L 155.057055 73.195889 
L 154.205685 72.534106 
L 153.354315 71.872324 
L 152.502945 71.210541 
L 151.651574 70.548759 
L 150.800204 69.886976 
L 149.948834 69.225193 
L 149.097464 68.563411 
L 148.315783 67.799189 
L 147.534101 67.034968 
L 146.75242 66.270746 
L 145.970739 65.506525 
L 145.133016 64.442284 
L 144.295292 63.378043 
L 143.68101 62.122958 
L 143.290169 61.167891 
L 142.899329 60.212825 
L 142.508488 59.257759 
L 142.117648 58.302692 
L 141.782849 57.238171 
L 141.448051 56.173649 
L 141.113253 55.109128 
L 140.778455 54.044606 
L 140.161625 52.591379 
L 139.544796 51.138151 
L 138.927966 49.684924 
L 138.311137 48.231696 
L 137.74853 47.372894 
L 137.185923 46.514092 
L 136.623317 45.65529 
L 136.06071 44.796489 
L 134.757908 43.658155 
L 133.455106 42.519822 
" style="fill:none;stroke:#4169e1;stroke-linecap:square;stroke-width:1.5;"/>
   </g>
   <g id="line2d_17">
    <path clip-path="url(#p9d2d6d2c41)" d="M 41.654874 160.609014 
L 42.212386 159.29892 
L 42.97296 157.995843 
L 43.733535 156.692765 
L 44.494109 155.389688 
L 45.254683 154.08661 
L 46.315484 152.578936 
L 47.376285 151.071261 
L 48.437086 149.563587 
L 49.497887 148.055912 
L 50.419311 146.554973 
L 51.340734 145.054035 
L 51.731574 143.730469 
L 52.122415 142.406904 
L 52.00196 140.926734 
L 51.881506 139.446563 
L 51.761051 137.966393 
L 51.640596 136.486222 
L 51.423705 134.971251 
L 51.206814 133.45628 
L 50.989923 131.941308 
L 50.773032 130.426337 
L 50.733002 129.461447 
L 50.692972 128.496558 
L 50.673321 127.4594 
L 50.653669 126.422243 
L 50.634018 125.385085 
L 50.614367 124.347927 
L 50.594716 123.31077 
L 50.575065 122.273612 
L 50.555413 121.236454 
L 50.535762 120.199297 
L 50.591441 119.204939 
L 50.647119 118.210581 
L 50.702797 117.216223 
L 50.758476 116.221865 
L 50.844359 114.698474 
L 50.930242 113.175083 
L 50.821796 112.200651 
L 50.713351 111.22622 
L 50.604905 110.251789 
L 50.49646 109.277357 
L 50.298492 108.351198 
L 49.982617 107.425039 
L 49.512444 106.483164 
L 49.154355 105.61089 
L 48.443273 104.762192 
L 47.73219 103.913494 
L 47.377013 103.006419 
L 47.021836 102.099345 
L 46.272179 100.84482 
L 45.522522 99.590296 
L 44.890772 97.815439 
L 44.752486 96.339198 
L 44.6142 94.862956 
L 44.475913 93.386715 
L 44.337627 91.910474 
L 44.0243 90.497661 
L 43.710972 89.084847 
L 43.397645 87.672034 
L 43.084317 86.259221 
L 42.580664 85.004135 
L 41.794616 83.44033 
L 41.008568 81.876524 
L 40.557318 80.932123 
L 40.106068 79.987721 
L 39.654818 79.04332 
L 39.203568 78.098918 
L 38.128575 76.584508 
L 37.053581 75.070098 
L 36.324485 73.838728 
L 35.595389 72.607357 
L 34.866293 71.375987 
L 34.137197 70.144616 
L 33.408101 68.913246 
L 32.679005 67.681876 
L 31.949909 66.450505 
L 31.220813 65.219135 
L 30.159648 63.690692 
L 29.098483 62.162249 
L 28.177788 60.579359 
L 27.257092 58.996469 
L 26.848784 58.089114 
L 26.440476 57.181759 
L 26.032167 56.274404 
L 25.623859 55.367049 
L 25.215551 54.459694 
L 24.807242 53.552339 
L 24.398934 52.644984 
L 23.990626 51.737629 
L 22.978953 50.12078 
L 21.96728 48.503931 
L 20.955606 46.887082 
L 19.943933 45.270233 
L 19.399522 43.700814 
L 18.855111 42.131396 
" style="fill:none;stroke:#000000;stroke-linecap:square;stroke-width:1.5;"/>
   </g>
   <g id="line2d_18">
    <path clip-path="url(#p9d2d6d2c41)" d="M 36.445122 125.319552 
L 37.354172 124.511268 
L 38.263222 123.702984 
L 39.128603 122.741182 
L 39.993983 121.77938 
L 40.859364 120.817578 
L 41.724745 119.855776 
L 42.324834 118.897201 
L 42.924924 117.938627 
L 43.525013 116.980053 
L 44.125103 116.021478 
L 44.725192 115.062904 
L 45.325282 114.104329 
L 45.925372 113.145755 
L 46.525461 112.18718 
L 47.272207 110.761176 
L 48.018952 109.335172 
L 48.765698 107.909168 
L 49.512444 106.483164 
" style="fill:none;stroke:#008000;stroke-linecap:square;stroke-width:1.5;"/>
   </g>
   <g id="line2d_19">
    <path clip-path="url(#p9d2d6d2c41)" d="M 41.008568 81.876524 
L 41.741485 80.86673 
L 42.474402 79.856936 
L 43.207319 78.847143 
L 43.940236 77.837349 
L 44.386391 76.472808 
L 44.832546 75.108267 
L 44.902417 73.846165 
L 44.972288 72.584063 
L 45.042159 71.321961 
L 45.11203 70.059859 
L 45.11203 68.667814 
L 44.916974 67.194941 
L 44.554518 65.720945 
L 44.302692 64.984508 
L 43.605438 63.56552 
L 42.739329 62.091524 
L 42.264789 61.437039 
L 41.389037 60.492076 
L 40.513285 59.547113 
L 39.637532 58.60215 
L 38.76178 57.657188 
L 37.886028 56.712225 
L 37.010276 55.767262 
L 36.134523 54.822299 
L 35.258771 53.877337 
L 34.302777 52.997205 
L 33.346782 52.117073 
L 32.390787 51.236942 
L 31.434793 50.35681 
L 30.464605 49.354032 
L 29.494418 48.351255 
L 28.524231 47.348477 
L 27.554044 46.3457 
L 26.494335 44.980598 
L 25.168242 43.820934 
L 23.84215 42.661271 
L 22.376316 42.224573 
L 20.910481 41.787875 
L 19.882796 41.959636 
L 18.855111 42.131396 
L 17.775751 42.232432 
L 16.69639 42.333467 
L 15.662882 41.869826 
L 14.488541 40.646455 
L 13.3142 39.423083 
L 12.139858 38.199711 
L 10.965517 36.976339 
" style="fill:none;stroke:#4169e1;stroke-linecap:square;stroke-width:1.5;"/>
   </g>
   <g id="line2d_20">
    <path clip-path="url(#p9d2d6d2c41)" d="M 171.01365 91.757798 
L 170.645372 92.997167 
L 170.277094 94.236536 
L 169.902266 95.201425 
L 169.527437 96.166315 
L 169.013594 97.054304 
L 168.499752 97.942294 
L 167.493174 99.312448 
L 166.486595 100.682602 
L 165.687082 101.454401 
L 164.88757 102.2262 
L 164.088057 102.998 
L 163.288544 103.769799 
L 161.768851 104.445053 
L 160.249158 105.120307 
L 159.281882 105.400119 
L 158.314606 105.679931 
L 157.34733 105.959744 
L 156.380054 106.239556 
L 155.313067 106.355185 
L 153.931296 106.278005 
L 152.549525 106.200826 
L 151.167755 106.123646 
L 149.785984 106.046466 
L 148.443879 105.670108 
L 147.101775 105.293751 
L 145.759671 104.917394 
L 144.417566 104.541036 
L 143.351306 104.077957 
L 142.285047 103.614878 
L 141.515011 102.997438 
L 140.744975 102.379999 
L 140.113589 101.617742 
L 139.482203 100.855485 
L 138.850817 100.093228 
L 138.219431 99.330972 
L 137.389714 98.077008 
L 136.559996 96.823045 
L 136.046881 95.800341 
L 135.533767 94.777637 
L 135.252463 93.769387 
L 134.97116 92.761137 
L 134.689857 91.752887 
L 134.408553 90.744636 
L 134.12725 89.736386 
L 133.845947 88.728136 
L 133.564643 87.719885 
L 133.28334 86.711635 
L 132.784964 85.766111 
L 132.286587 84.820587 
L 131.788211 83.875063 
L 131.289835 82.929539 
L 130.791458 81.984015 
L 130.293082 81.038491 
L 129.794706 80.092967 
L 129.296329 79.147443 
L 128.733723 77.497476 
L 128.171116 75.84751 
L 127.608509 74.197544 
L 127.045903 72.547578 
L 126.660885 71.611596 
L 126.275866 70.675614 
L 125.890848 69.739632 
L 125.50583 68.803651 
L 125.229986 67.298783 
L 124.954141 65.793915 
L 124.860252 64.640847 
L 124.766363 63.487779 
L 124.672474 62.334711 
L 124.578585 61.181643 
L 124.484696 60.028575 
L 124.390807 58.875508 
L 124.296918 57.72244 
L 124.203028 56.569372 
L 123.857677 55.276678 
L 123.512325 53.983985 
L 123.166973 52.691292 
L 122.821622 51.398598 
L 122.209523 50.105344 
L 121.597424 48.812089 
L 121.558122 47.809592 
L 122.032662 46.999063 
L 122.995571 46.140822 
L 123.95848 45.282582 
" style="fill:none;stroke:#4169e1;stroke-linecap:square;stroke-width:1.5;"/>
   </g>
   <g id="line2d_21">
    <path clip-path="url(#p9d2d6d2c41)" d="M 84.49013 115.278867 
L 83.520307 114.410242 
L 82.550484 113.541617 
L 81.58066 112.672993 
L 80.610837 111.804368 
L 79.576965 110.874841 
L 78.543094 109.945314 
L 77.509222 109.015787 
L 76.47535 108.086261 
L 75.664192 107.262821 
L 74.853034 106.439382 
L 74.041876 105.615942 
L 73.230718 104.792503 
L 72.046552 103.808529 
L 70.862385 102.824555 
L 69.692956 101.517128 
L 68.523527 100.2097 
L 67.354099 98.902272 
L 66.18467 97.594844 
L 65.015242 96.287417 
L 63.845813 94.979989 
L 62.676385 93.672561 
L 61.506956 92.365134 
L 60.144473 91.03371 
L 58.781989 89.702286 
L 57.75576 89.306845 
L 56.72953 88.911403 
L 55.703301 88.515961 
L 54.677071 88.120519 
L 53.788764 87.657159 
L 52.900457 87.193799 
L 52.01215 86.730439 
L 51.123843 86.267079 
L 50.729363 85.187121 
L 51.163145 84.376592 
L 51.621673 84.057769 
L 52.663915 83.334804 
L 54.432523 83.012612 
" style="fill:none;stroke:#008000;stroke-linecap:square;stroke-width:1.5;"/>
   </g>
   <g id="line2d_22">
    <path clip-path="url(#p9d2d6d2c41)" d="M 44.700083 163.228079 
L 43.540298 163.189349 
L 42.380513 163.150619 
L 41.220728 163.111888 
L 40.060943 163.073158 
L 38.901158 163.034428 
L 37.741373 162.995698 
L 36.581588 162.956967 
L 35.421803 162.918237 
L 33.941413 162.512972 
L 32.461022 162.107708 
L 31.533776 161.682797 
L 30.606531 161.257887 
L 29.105761 160.0623 
L 28.138485 158.788691 
L 27.171209 157.515082 
L 26.692666 156.453648 
L 26.214123 155.392213 
L 25.73558 154.330779 
L 25.257037 153.269345 
L 24.778493 152.207911 
L 24.29995 151.146476 
L 23.821407 150.085042 
L 23.342864 149.023608 
L 21.922155 148.05928 
L 20.97453 147.239208 
L 20.026905 146.419137 
L 19.07928 145.599065 
L 18.131656 144.778993 
L 17.559587 143.94938 
L 16.987519 143.119766 
L 16.859058 142.038966 
L 16.730598 140.958167 
L 16.602137 139.877367 
L 16.473676 138.796568 
L 16.670916 137.175509 
L 16.868156 135.55445 
L 17.292659 133.967351 
L 17.717161 132.380251 
L 18.141663 130.793152 
L 18.566166 129.206052 
L 18.990668 127.618952 
L 19.41517 126.031853 
L 19.839673 124.444753 
L 20.264175 122.857654 
L 21.07315 121.227053 
L 21.882124 119.596451 
L 22.691099 117.96585 
L 23.500073 116.335249 
L 23.89983 115.360818 
L 24.299586 114.386387 
L 24.699343 113.411955 
L 25.099099 112.437524 
L 25.498855 111.463092 
L 25.898612 110.488661 
L 26.298368 109.514229 
L 26.698125 108.539798 
L 27.300034 107.767999 
L 27.901943 106.9962 
L 28.503852 106.2244 
L 29.105761 105.452601 
L 30.75064 104.470312 
" style="fill:none;stroke:#4169e1;stroke-linecap:square;stroke-width:1.5;"/>
   </g>
   <g id="line2d_23">
    <path clip-path="url(#p9d2d6d2c41)" d="M 177.466523 66.446155 
L 175.89843 65.505683 
L 174.330337 64.565211 
L 172.762243 63.624738 
L 171.19415 62.684266 
L 169.792364 62.298086 
L 168.390579 61.911906 
L 167.137268 61.738461 
L 165.883958 61.565017 
L 164.630648 61.391573 
L 163.377338 61.218128 
L 162.449365 60.725861 
L 161.521391 60.233593 
L 160.593418 59.741326 
L 159.665444 59.249058 
L 158.78205 58.385626 
L 157.898656 57.522193 
L 157.015261 56.65876 
L 156.131867 55.795327 
L 155.248472 54.931895 
L 154.365078 54.068462 
L 153.481684 53.205029 
L 152.598289 52.341597 
L 151.453425 51.048623 
L 150.30856 49.755649 
L 149.163696 48.462675 
L 148.018831 47.169701 
L 146.834664 46.204811 
L 145.650497 45.239922 
L 144.702873 44.719028 
L 143.755248 44.198134 
L 142.294508 43.638509 
L 140.833769 43.078885 
L 139.37303 42.751081 
L 137.91229 42.423276 
L 136.797994 42.447413 
L 135.683698 42.471549 
L 134.569402 42.495685 
L 133.455106 42.519822 
L 132.467087 42.51477 
L 131.479068 42.509718 
L 130.49105 42.504666 
L 129.503031 42.499614 
L 128.020457 42.354797 
L 126.537883 42.209979 
" style="fill:none;stroke:#4169e1;stroke-linecap:square;stroke-width:1.5;"/>
   </g>
   <g id="line2d_24">
    <path clip-path="url(#p9d2d6d2c41)" d="M 65.859334 84.997399 
L 66.131539 84.070118 
L 66.403745 83.142836 
L 66.48235 81.251227 
L 66.186126 80.305983 
L 65.889902 79.36074 
L 65.298183 78.588941 
L 64.706463 77.817142 
L 63.936427 77.218787 
L 63.166391 76.620432 
L 62.28791 76.14781 
L 61.409428 75.675189 
L 60.530946 75.202567 
L 59.652465 74.729945 
L 58.626235 74.6334 
L 57.600006 74.536855 
L 56.573776 74.44031 
L 55.547547 74.343765 
L 54.521317 74.073214 
L 53.495088 73.802664 
L 52.261429 72.953685 
L 51.02777 72.104706 
L 49.794111 71.255727 
L 48.560452 70.406748 
L 47.649583 69.603796 
L 46.738713 68.800844 
L 45.827843 67.997892 
L 44.916974 67.194941 
" style="fill:none;stroke:#008000;stroke-linecap:square;stroke-width:1.5;"/>
   </g>
   <g id="line2d_25">
    <path clip-path="url(#p9d2d6d2c41)" d="M 177.466523 66.446155 
L 177.198685 64.749881 
L 176.930846 63.053607 
L 176.663007 61.357333 
L 176.395169 59.661059 
L 176.12733 57.964785 
L 175.859491 56.26851 
L 175.591653 54.572236 
L 175.323814 52.875962 
L 175.112018 51.537242 
L 174.900222 50.198521 
L 174.841268 48.973185 
L 174.782314 47.747848 
L 174.723361 46.522512 
L 174.664407 45.297176 
L 174.368183 43.869207 
L 174.07196 42.441238 
L 173.775736 41.495995 
L 173.479512 40.550751 
L 172.966398 39.643677 
L 172.453283 38.736603 
L 171.75239 37.993711 
L 171.051497 37.250819 
L 170.350604 36.507927 
L 169.649711 35.765036 
L 168.860024 35.079959 
L 168.070337 34.394882 
L 167.280649 33.709805 
L 166.490962 33.024728 
L 165.020397 32.021389 
L 163.549832 31.01805 
L 162.079267 30.014711 
L 160.608702 29.011373 
L 159.266598 28.297388 
L 157.924493 27.583404 
L 157.006345 27.216589 
L 156.088197 26.849774 
L 155.17005 26.482959 
L 154.251902 26.116144 
L 153.245323 26.000514 
L 152.238745 25.884885 
L 150.699401 25.98143 
L 149.160057 26.077975 
L 147.521365 26.791959 
L 145.882673 27.505943 
L 144.243981 28.219928 
L 142.605289 28.933912 
L 141.539393 29.609166 
L 140.473497 30.28442 
L 139.407601 30.959674 
L 138.341705 31.634928 
L 137.187015 32.512955 
L 136.032325 33.390982 
L 134.877635 34.269008 
L 133.722945 35.147035 
L 132.568255 36.025062 
L 131.413564 36.903089 
L 130.258874 37.781115 
L 129.104184 38.659142 
L 128.462609 39.546851 
L 127.821033 40.434561 
L 127.179458 41.32227 
L 126.537883 42.209979 
L 125.893032 42.97813 
L 125.248181 43.74628 
L 124.603331 44.514431 
L 123.95848 45.282582 
" style="fill:none;stroke:#008000;stroke-linecap:square;stroke-width:1.5;"/>
   </g>
   <g id="line2d_26">
    <path clip-path="url(#p9d2d6d2c41)" d="M 171.01365 91.757798 
L 171.437243 90.757546 
L 171.860835 89.757295 
L 172.566459 87.99647 
L 173.272083 86.235646 
L 173.977707 84.474821 
L 174.683331 82.713996 
L 175.388954 80.953172 
L 176.094578 79.192347 
L 176.800202 77.431523 
L 177.505826 75.670698 
L 177.645567 74.672692 
L 177.785309 73.674685 
L 177.925051 72.676679 
L 178.064793 71.678672 
L 177.915226 70.370543 
L 177.765658 69.062414 
L 177.616091 67.754284 
L 177.466523 66.446155 
" style="fill:none;stroke:#008000;stroke-linecap:square;stroke-width:1.5;"/>
   </g>
   <g id="line2d_27">
    <path clip-path="url(#p9d2d6d2c41)" d="M 171.860835 89.757295 
L 171.667963 88.63973 
L 171.47509 87.522165 
L 171.19415 86.038065 
L 170.915394 84.233739 
L 170.636638 82.429413 
L 170.357882 80.625087 
L 170.079126 78.820761 
L 169.781993 77.844786 
L 169.484859 76.868811 
L 169.187726 75.892836 
L 168.890593 74.916861 
L 168.593459 73.940886 
L 168.296326 72.964911 
L 167.999192 71.988936 
L 167.702059 71.012961 
L 166.862879 69.568433 
L 166.0237 68.123906 
L 165.184521 66.679379 
L 164.345342 65.234852 
L 164.103341 64.230671 
L 163.86134 63.22649 
L 163.619339 62.222309 
L 163.377338 61.218128 
" style="fill:none;stroke:#000000;stroke-linecap:square;stroke-width:1.5;"/>
   </g>
   <g id="line2d_28">
    <path clip-path="url(#p9d2d6d2c41)" d="M 44.700083 163.228079 
L 43.93878 162.573313 
L 43.177478 161.918547 
L 42.416176 161.26378 
L 41.654874 160.609014 
L 40.813147 159.905414 
L 39.971421 159.201814 
L 39.129694 158.498214 
L 38.287968 157.794614 
L 37.757385 156.93497 
L 37.226803 156.075326 
L 36.69622 155.215682 
L 36.165638 154.356038 
L 35.83084 153.38722 
L 35.496041 152.418401 
L 35.161243 151.449583 
L 34.826445 150.480765 
L 34.575346 149.116224 
L 34.324247 147.751683 
L 34.310237 146.353183 
L 34.296226 144.954683 
L 34.282216 143.556183 
L 34.268205 142.157683 
L 34.254194 140.759183 
L 34.240184 139.360683 
L 34.226173 137.962183 
L 34.212163 136.563683 
L 34.324247 135.198581 
L 34.589175 134.243515 
L 34.854102 133.288448 
L 35.119029 132.333382 
L 35.383957 131.378316 
L 35.649248 129.863625 
L 35.914539 128.348934 
L 36.17983 126.834243 
L 36.445122 125.319552 
L 36.431293 123.914317 
L 36.417464 122.509081 
L 36.403636 121.103845 
L 36.389807 119.69861 
L 36.040816 118.347821 
L 35.691825 116.997032 
L 35.342835 115.646243 
L 34.993844 114.295455 
L 34.184141 112.548943 
L 33.374439 110.802432 
L 32.564737 109.055921 
L 31.755034 107.30941 
L 31.252837 105.889861 
L 30.75064 104.470312 
L 30.33196 103.501634 
L 29.91328 102.532956 
L 29.4946 101.564277 
L 29.07592 100.595599 
L 28.657241 99.626921 
L 28.238561 98.658243 
L 27.819881 97.689565 
L 27.401201 96.720887 
L 26.968147 94.92021 
L 26.535093 93.119532 
L 26.140977 91.482055 
L 25.746861 89.844578 
L 25.352745 88.207101 
L 24.958629 86.569624 
L 24.564514 84.932147 
L 24.170398 83.29467 
L 23.776282 81.657193 
L 23.382166 80.019716 
L 22.823563 78.245701 
L 22.264959 76.471685 
L 21.706355 74.69767 
L 21.147752 72.923655 
L 20.533833 71.272566 
L 19.919915 69.621477 
L 19.305997 67.970388 
L 18.692079 66.319299 
L 18.416416 65.324731 
L 18.140754 64.330163 
L 17.865091 63.335594 
L 17.589428 62.341026 
L 17.313765 61.346457 
L 17.038103 60.351889 
L 16.76244 59.357321 
L 16.486777 58.362752 
L 16.211115 57.368184 
L 15.935452 56.373615 
L 15.659789 55.379047 
L 15.384126 54.384479 
L 15.108464 53.38991 
L 14.832801 52.395342 
L 14.557138 51.400774 
L 14.281476 50.406205 
L 13.965601 48.717789 
L 13.649726 47.029374 
L 13.333851 45.340958 
L 13.017976 43.652542 
L 12.504861 41.983491 
L 11.991746 40.314441 
L 11.478632 38.64539 
L 10.965517 36.976339 
L 9.722396 35.905924 
L 8.479276 34.835509 
" style="fill:none;stroke:#4169e1;stroke-linecap:square;stroke-width:1.5;"/>
   </g>
   <g id="line2d_29">
    <path clip-path="url(#p9d2d6d2c41)" d="M 51.621673 84.057769 
L 50.787589 83.262395 
L 49.953504 82.467021 
L 49.11942 81.671647 
L 48.285335 80.876273 
L 46.466144 81.126335 
L 44.646952 81.376398 
L 42.82776 81.626461 
L 41.008568 81.876524 
L 39.499064 82.115642 
L 38.532516 82.931784 
L 37.565968 83.747927 
L 36.59287 84.785505 
L 35.619771 85.823084 
L 34.646673 86.860663 
L 33.673574 87.898241 
L 32.700476 88.93582 
L 31.727377 89.973398 
L 30.754279 91.010977 
L 29.78118 92.048556 
L 28.158136 92.584044 
L 26.535093 93.119532 
" style="fill:none;stroke:#008000;stroke-linecap:square;stroke-width:1.5;"/>
   </g>
   <g id="line2d_30">
    <path clip-path="url(#p9d2d6d2c41)" d="M 121.288828 122.803768 
L 120.418534 121.682133 
L 119.548241 120.560499 
L 118.677947 119.438864 
L 117.807654 118.31723 
L 116.93736 117.195595 
L 116.067066 116.07396 
L 115.196773 114.952326 
L 114.326479 113.830691 
" style="fill:none;stroke:#008000;stroke-linecap:square;stroke-width:1.5;"/>
   </g>
   <g id="line2d_31">
    <path clip-path="url(#p9d2d6d2c41)" d="M 119.47655 148.616098 
L 118.690502 149.188633 
L 117.460482 149.235782 
L 116.230463 149.282932 
L 115.45515 148.670264 
L 114.679837 148.057596 
L 113.904524 147.444928 
L 113.129212 146.83226 
L 112.353899 146.219592 
L 111.578586 145.606923 
L 110.803273 144.994255 
L 110.02796 144.381587 
L 109.008281 142.927798 
L 107.988602 141.474009 
L 106.968923 140.02022 
L 105.949244 138.566432 
L 104.929565 137.216765 
L 103.909886 135.867099 
L 102.890207 134.517433 
L 101.870528 133.167767 
L 101.042084 132.482409 
L 100.21364 131.797052 
L 99.385196 131.111694 
L 98.556753 130.426337 
L 97.728309 129.740979 
L 96.899865 129.055621 
L 96.071421 128.370264 
L 95.242977 127.684906 
L 94.570924 126.909529 
L 93.898872 126.134151 
L 93.226819 125.358774 
L 92.554766 124.583396 
L 91.882713 123.808019 
L 91.21066 123.032641 
L 90.538607 122.257264 
L 89.866554 121.481887 
L 89.194501 120.706509 
L 88.522448 119.931132 
L 87.850395 119.155754 
L 87.178342 118.380377 
L 86.506289 117.604999 
L 85.834236 116.829622 
L 85.162183 116.054244 
L 84.49013 115.278867 
" style="fill:none;stroke:#008000;stroke-linecap:square;stroke-width:1.5;"/>
   </g>
   <g id="text_1">
    <g id="patch_4">
     <path d="M 9.947393 41.611018 
L 13.869924 59.63059 
L 15.800342 59.210373 
L 11.87781 41.190801 
z
" style="fill:#ffffff;"/>
    </g>
    <!-- Highlands Express -->
    <g style="fill:#808080;" transform="translate(10.377609 41.537836)rotate(-282.280662)scale(0.02 -0.02)">
     <defs>
      <path d="M 628 4666 
L 1259 4666 
L 1259 2753 
L 3553 2753 
L 3553 4666 
L 4184 4666 
L 4184 0 
L 3553 0 
L 3553 2222 
L 1259 2222 
L 1259 0 
L 628 0 
L 628 4666 
z
" id="DejaVuSans-48" transform="scale(0.015625)"/>
      <path d="M 603 3500 
L 1178 3500 
L 1178 0 
L 603 0 
L 603 3500 
z
M 603 4863 
L 1178 4863 
L 1178 4134 
L 603 4134 
L 603 4863 
z
" id="DejaVuSans-69" transform="scale(0.015625)"/>
      <path d="M 2906 1791 
Q 2906 2416 2648 2759 
Q 2391 3103 1925 3103 
Q 1463 3103 1205 2759 
Q 947 2416 947 1791 
Q 947 1169 1205 825 
Q 1463 481 1925 481 
Q 2391 481 2648 825 
Q 2906 1169 2906 1791 
z
M 3481 434 
Q 3481 -459 3084 -895 
Q 2688 -1331 1869 -1331 
Q 1566 -1331 1297 -1286 
Q 1028 -1241 775 -1147 
L 775 -588 
Q 1028 -725 1275 -790 
Q 1522 -856 1778 -856 
Q 2344 -856 2625 -561 
Q 2906 -266 2906 331 
L 2906 616 
Q 2728 306 2450 153 
Q 2172 0 1784 0 
Q 1141 0 747 490 
Q 353 981 353 1791 
Q 353 2603 747 3093 
Q 1141 3584 1784 3584 
Q 2172 3584 2450 3431 
Q 2728 3278 2906 2969 
L 2906 3500 
L 3481 3500 
L 3481 434 
z
" id="DejaVuSans-67" transform="scale(0.015625)"/>
      <path d="M 3513 2113 
L 3513 0 
L 2938 0 
L 2938 2094 
Q 2938 2591 2744 2837 
Q 2550 3084 2163 3084 
Q 1697 3084 1428 2787 
Q 1159 2491 1159 1978 
L 1159 0 
L 581 0 
L 581 4863 
L 1159 4863 
L 1159 2956 
Q 1366 3272 1645 3428 
Q 1925 3584 2291 3584 
Q 2894 3584 3203 3211 
Q 3513 2838 3513 2113 
z
" id="DejaVuSans-68" transform="scale(0.015625)"/>
      <path d="M 603 4863 
L 1178 4863 
L 1178 0 
L 603 0 
L 603 4863 
z
" id="DejaVuSans-6c" transform="scale(0.015625)"/>
      <path d="M 2194 1759 
Q 1497 1759 1228 1600 
Q 959 1441 959 1056 
Q 959 750 1161 570 
Q 1363 391 1709 391 
Q 2188 391 2477 730 
Q 2766 1069 2766 1631 
L 2766 1759 
L 2194 1759 
z
M 3341 1997 
L 3341 0 
L 2766 0 
L 2766 531 
Q 2569 213 2275 61 
Q 1981 -91 1556 -91 
Q 1019 -91 701 211 
Q 384 513 384 1019 
Q 384 1609 779 1909 
Q 1175 2209 1959 2209 
L 2766 2209 
L 2766 2266 
Q 2766 2663 2505 2880 
Q 2244 3097 1772 3097 
Q 1472 3097 1187 3025 
Q 903 2953 641 2809 
L 641 3341 
Q 956 3463 1253 3523 
Q 1550 3584 1831 3584 
Q 2591 3584 2966 3190 
Q 3341 2797 3341 1997 
z
" id="DejaVuSans-61" transform="scale(0.015625)"/>
      <path d="M 3513 2113 
L 3513 0 
L 2938 0 
L 2938 2094 
Q 2938 2591 2744 2837 
Q 2550 3084 2163 3084 
Q 1697 3084 1428 2787 
Q 1159 2491 1159 1978 
L 1159 0 
L 581 0 
L 581 3500 
L 1159 3500 
L 1159 2956 
Q 1366 3272 1645 3428 
Q 1925 3584 2291 3584 
Q 2894 3584 3203 3211 
Q 3513 2838 3513 2113 
z
" id="DejaVuSans-6e" transform="scale(0.015625)"/>
      <path d="M 2906 2969 
L 2906 4863 
L 3481 4863 
L 3481 0 
L 2906 0 
L 2906 525 
Q 2725 213 2448 61 
Q 2172 -91 1784 -91 
Q 1150 -91 751 415 
Q 353 922 353 1747 
Q 353 2572 751 3078 
Q 1150 3584 1784 3584 
Q 2172 3584 2448 3432 
Q 2725 3281 2906 2969 
z
M 947 1747 
Q 947 1113 1208 752 
Q 1469 391 1925 391 
Q 2381 391 2643 752 
Q 2906 1113 2906 1747 
Q 2906 2381 2643 2742 
Q 2381 3103 1925 3103 
Q 1469 3103 1208 2742 
Q 947 2381 947 1747 
z
" id="DejaVuSans-64" transform="scale(0.015625)"/>
      <path d="M 2834 3397 
L 2834 2853 
Q 2591 2978 2328 3040 
Q 2066 3103 1784 3103 
Q 1356 3103 1142 2972 
Q 928 2841 928 2578 
Q 928 2378 1081 2264 
Q 1234 2150 1697 2047 
L 1894 2003 
Q 2506 1872 2764 1633 
Q 3022 1394 3022 966 
Q 3022 478 2636 193 
Q 2250 -91 1575 -91 
Q 1294 -91 989 -36 
Q 684 19 347 128 
L 347 722 
Q 666 556 975 473 
Q 1284 391 1588 391 
Q 1994 391 2212 530 
Q 2431 669 2431 922 
Q 2431 1156 2273 1281 
Q 2116 1406 1581 1522 
L 1381 1569 
Q 847 1681 609 1914 
Q 372 2147 372 2553 
Q 372 3047 722 3315 
Q 1072 3584 1716 3584 
Q 2034 3584 2315 3537 
Q 2597 3491 2834 3397 
z
" id="DejaVuSans-73" transform="scale(0.015625)"/>
      <path id="DejaVuSans-20" transform="scale(0.015625)"/>
      <path d="M 628 4666 
L 3578 4666 
L 3578 4134 
L 1259 4134 
L 1259 2753 
L 3481 2753 
L 3481 2222 
L 1259 2222 
L 1259 531 
L 3634 531 
L 3634 0 
L 628 0 
L 628 4666 
z
" id="DejaVuSans-45" transform="scale(0.015625)"/>
      <path d="M 3513 3500 
L 2247 1797 
L 3578 0 
L 2900 0 
L 1881 1375 
L 863 0 
L 184 0 
L 1544 1831 
L 300 3500 
L 978 3500 
L 1906 2253 
L 2834 3500 
L 3513 3500 
z
" id="DejaVuSans-78" transform="scale(0.015625)"/>
      <path d="M 1159 525 
L 1159 -1331 
L 581 -1331 
L 581 3500 
L 1159 3500 
L 1159 2969 
Q 1341 3281 1617 3432 
Q 1894 3584 2278 3584 
Q 2916 3584 3314 3078 
Q 3713 2572 3713 1747 
Q 3713 922 3314 415 
Q 2916 -91 2278 -91 
Q 1894 -91 1617 61 
Q 1341 213 1159 525 
z
M 3116 1747 
Q 3116 2381 2855 2742 
Q 2594 3103 2138 3103 
Q 1681 3103 1420 2742 
Q 1159 2381 1159 1747 
Q 1159 1113 1420 752 
Q 1681 391 2138 391 
Q 2594 391 2855 752 
Q 3116 1113 3116 1747 
z
" id="DejaVuSans-70" transform="scale(0.015625)"/>
      <path d="M 2631 2963 
Q 2534 3019 2420 3045 
Q 2306 3072 2169 3072 
Q 1681 3072 1420 2755 
Q 1159 2438 1159 1844 
L 1159 0 
L 581 0 
L 581 3500 
L 1159 3500 
L 1159 2956 
Q 1341 3275 1631 3429 
Q 1922 3584 2338 3584 
Q 2397 3584 2469 3576 
Q 2541 3569 2628 3553 
L 2631 2963 
z
" id="DejaVuSans-72" transform="scale(0.015625)"/>
      <path d="M 3597 1894 
L 3597 1613 
L 953 1613 
Q 991 1019 1311 708 
Q 1631 397 2203 397 
Q 2534 397 2845 478 
Q 3156 559 3463 722 
L 3463 178 
Q 3153 47 2828 -22 
Q 2503 -91 2169 -91 
Q 1331 -91 842 396 
Q 353 884 353 1716 
Q 353 2575 817 3079 
Q 1281 3584 2069 3584 
Q 2775 3584 3186 3129 
Q 3597 2675 3597 1894 
z
M 3022 2063 
Q 3016 2534 2758 2815 
Q 2500 3097 2075 3097 
Q 1594 3097 1305 2825 
Q 1016 2553 972 2059 
L 3022 2063 
z
" id="DejaVuSans-65" transform="scale(0.015625)"/>
     </defs>
     <use xlink:href="#DejaVuSans-48"/>
     <use x="75.195312" xlink:href="#DejaVuSans-69"/>
     <use x="102.978516" xlink:href="#DejaVuSans-67"/>
     <use x="166.455078" xlink:href="#DejaVuSans-68"/>
     <use x="229.833984" xlink:href="#DejaVuSans-6c"/>
     <use x="257.617188" xlink:href="#DejaVuSans-61"/>
     <use x="318.896484" xlink:href="#DejaVuSans-6e"/>
     <use x="382.275391" xlink:href="#DejaVuSans-64"/>
     <use x="445.751953" xlink:href="#DejaVuSans-73"/>
     <use x="497.851562" xlink:href="#DejaVuSans-20"/>
     <use x="529.638672" xlink:href="#DejaVuSans-45"/>
     <use x="592.822266" xlink:href="#DejaVuSans-78"/>
     <use x="652.001953" xlink:href="#DejaVuSans-70"/>
     <use x="715.478516" xlink:href="#DejaVuSans-72"/>
     <use x="754.341797" xlink:href="#DejaVuSans-65"/>
     <use x="815.865234" xlink:href="#DejaVuSans-73"/>
     <use x="867.964844" xlink:href="#DejaVuSans-73"/>
    </g>
   </g>
   <g id="text_2">
    <g id="patch_5">
     <path d="M 59.083224 87.361938 
L 70.758445 102.681369 
L 72.329758 101.483843 
L 60.654537 86.164412 
z
" style="fill:#ffffff;"/>
    </g>
    <!-- Blue Ridge Express -->
    <g style="fill:#808080;" transform="translate(59.44207 87.113602)rotate(-307.311696)scale(0.02 -0.02)">
     <defs>
      <path d="M 1259 2228 
L 1259 519 
L 2272 519 
Q 2781 519 3026 730 
Q 3272 941 3272 1375 
Q 3272 1813 3026 2020 
Q 2781 2228 2272 2228 
L 1259 2228 
z
M 1259 4147 
L 1259 2741 
L 2194 2741 
Q 2656 2741 2882 2914 
Q 3109 3088 3109 3444 
Q 3109 3797 2882 3972 
Q 2656 4147 2194 4147 
L 1259 4147 
z
M 628 4666 
L 2241 4666 
Q 2963 4666 3353 4366 
Q 3744 4066 3744 3513 
Q 3744 3084 3544 2831 
Q 3344 2578 2956 2516 
Q 3422 2416 3680 2098 
Q 3938 1781 3938 1306 
Q 3938 681 3513 340 
Q 3088 0 2303 0 
L 628 0 
L 628 4666 
z
" id="DejaVuSans-42" transform="scale(0.015625)"/>
      <path d="M 544 1381 
L 544 3500 
L 1119 3500 
L 1119 1403 
Q 1119 906 1312 657 
Q 1506 409 1894 409 
Q 2359 409 2629 706 
Q 2900 1003 2900 1516 
L 2900 3500 
L 3475 3500 
L 3475 0 
L 2900 0 
L 2900 538 
Q 2691 219 2414 64 
Q 2138 -91 1772 -91 
Q 1169 -91 856 284 
Q 544 659 544 1381 
z
M 1991 3584 
L 1991 3584 
z
" id="DejaVuSans-75" transform="scale(0.015625)"/>
      <path d="M 2841 2188 
Q 3044 2119 3236 1894 
Q 3428 1669 3622 1275 
L 4263 0 
L 3584 0 
L 2988 1197 
Q 2756 1666 2539 1819 
Q 2322 1972 1947 1972 
L 1259 1972 
L 1259 0 
L 628 0 
L 628 4666 
L 2053 4666 
Q 2853 4666 3247 4331 
Q 3641 3997 3641 3322 
Q 3641 2881 3436 2590 
Q 3231 2300 2841 2188 
z
M 1259 4147 
L 1259 2491 
L 2053 2491 
Q 2509 2491 2742 2702 
Q 2975 2913 2975 3322 
Q 2975 3731 2742 3939 
Q 2509 4147 2053 4147 
L 1259 4147 
z
" id="DejaVuSans-52" transform="scale(0.015625)"/>
     </defs>
     <use xlink:href="#DejaVuSans-42"/>
     <use x="68.603516" xlink:href="#DejaVuSans-6c"/>
     <use x="96.386719" xlink:href="#DejaVuSans-75"/>
     <use x="159.765625" xlink:href="#DejaVuSans-65"/>
     <use x="221.289062" xlink:href="#DejaVuSans-20"/>
     <use x="253.076172" xlink:href="#DejaVuSans-52"/>
     <use x="322.558594" xlink:href="#DejaVuSans-69"/>
     <use x="350.341797" xlink:href="#DejaVuSans-64"/>
     <use x="413.818359" xlink:href="#DejaVuSans-67"/>
     <use x="477.294922" xlink:href="#DejaVuSans-65"/>
     <use x="538.818359" xlink:href="#DejaVuSans-20"/>
     <use x="570.605469" xlink:href="#DejaVuSans-45"/>
     <use x="633.789062" xlink:href="#DejaVuSans-78"/>
     <use x="692.96875" xlink:href="#DejaVuSans-70"/>
     <use x="756.445312" xlink:href="#DejaVuSans-72"/>
     <use x="795.308594" xlink:href="#DejaVuSans-65"/>
     <use x="856.832031" xlink:href="#DejaVuSans-73"/>
     <use x="908.931641" xlink:href="#DejaVuSans-73"/>
    </g>
   </g>
   <g id="text_3">
    <g id="patch_6">
     <path d="M 131.81403 53.8636 
L 137.734872 61.400435 
L 139.288438 60.179973 
L 133.367596 52.643138 
z
" style="fill:#ffffff;"/>
    </g>
    <!-- Big Acorn -->
    <g style="fill:#808080;" transform="translate(132.169192 53.610023)rotate(-308.15273)scale(0.02 -0.02)">
     <defs>
      <path d="M 2188 4044 
L 1331 1722 
L 3047 1722 
L 2188 4044 
z
M 1831 4666 
L 2547 4666 
L 4325 0 
L 3669 0 
L 3244 1197 
L 1141 1197 
L 716 0 
L 50 0 
L 1831 4666 
z
" id="DejaVuSans-41" transform="scale(0.015625)"/>
      <path d="M 3122 3366 
L 3122 2828 
Q 2878 2963 2633 3030 
Q 2388 3097 2138 3097 
Q 1578 3097 1268 2742 
Q 959 2388 959 1747 
Q 959 1106 1268 751 
Q 1578 397 2138 397 
Q 2388 397 2633 464 
Q 2878 531 3122 666 
L 3122 134 
Q 2881 22 2623 -34 
Q 2366 -91 2075 -91 
Q 1284 -91 818 406 
Q 353 903 353 1747 
Q 353 2603 823 3093 
Q 1294 3584 2113 3584 
Q 2378 3584 2631 3529 
Q 2884 3475 3122 3366 
z
" id="DejaVuSans-63" transform="scale(0.015625)"/>
      <path d="M 1959 3097 
Q 1497 3097 1228 2736 
Q 959 2375 959 1747 
Q 959 1119 1226 758 
Q 1494 397 1959 397 
Q 2419 397 2687 759 
Q 2956 1122 2956 1747 
Q 2956 2369 2687 2733 
Q 2419 3097 1959 3097 
z
M 1959 3584 
Q 2709 3584 3137 3096 
Q 3566 2609 3566 1747 
Q 3566 888 3137 398 
Q 2709 -91 1959 -91 
Q 1206 -91 779 398 
Q 353 888 353 1747 
Q 353 2609 779 3096 
Q 1206 3584 1959 3584 
z
" id="DejaVuSans-6f" transform="scale(0.015625)"/>
     </defs>
     <use xlink:href="#DejaVuSans-42"/>
     <use x="68.603516" xlink:href="#DejaVuSans-69"/>
     <use x="96.386719" xlink:href="#DejaVuSans-67"/>
     <use x="159.863281" xlink:href="#DejaVuSans-20"/>
     <use x="191.650391" xlink:href="#DejaVuSans-41"/>
     <use x="258.308594" xlink:href="#DejaVuSans-63"/>
     <use x="313.289062" xlink:href="#DejaVuSans-6f"/>
     <use x="374.470703" xlink:href="#DejaVuSans-72"/>
     <use x="413.833984" xlink:href="#DejaVuSans-6e"/>
    </g>
   </g>
   <g id="text_4">
    <g id="patch_7">
     <path d="M 88.327632 109.47145 
L 96.119429 120.503908 
L 97.733163 119.36419 
L 89.941366 108.331732 
z
" style="fill:#ffffff;"/>
    </g>
    <!-- Loggers Alley -->
    <g style="fill:#808080;" transform="translate(88.695253 109.236298)rotate(-305.232077)scale(0.02 -0.02)">
     <defs>
      <path d="M 628 4666 
L 1259 4666 
L 1259 531 
L 3531 531 
L 3531 0 
L 628 0 
L 628 4666 
z
" id="DejaVuSans-4c" transform="scale(0.015625)"/>
      <path d="M 2059 -325 
Q 1816 -950 1584 -1140 
Q 1353 -1331 966 -1331 
L 506 -1331 
L 506 -850 
L 844 -850 
Q 1081 -850 1212 -737 
Q 1344 -625 1503 -206 
L 1606 56 
L 191 3500 
L 800 3500 
L 1894 763 
L 2988 3500 
L 3597 3500 
L 2059 -325 
z
" id="DejaVuSans-79" transform="scale(0.015625)"/>
     </defs>
     <use xlink:href="#DejaVuSans-4c"/>
     <use x="53.962891" xlink:href="#DejaVuSans-6f"/>
     <use x="115.144531" xlink:href="#DejaVuSans-67"/>
     <use x="178.621094" xlink:href="#DejaVuSans-67"/>
     <use x="242.097656" xlink:href="#DejaVuSans-65"/>
     <use x="303.621094" xlink:href="#DejaVuSans-72"/>
     <use x="344.734375" xlink:href="#DejaVuSans-73"/>
     <use x="396.833984" xlink:href="#DejaVuSans-20"/>
     <use x="428.621094" xlink:href="#DejaVuSans-41"/>
     <use x="497.029297" xlink:href="#DejaVuSans-6c"/>
     <use x="524.8125" xlink:href="#DejaVuSans-6c"/>
     <use x="552.595703" xlink:href="#DejaVuSans-65"/>
     <use x="614.119141" xlink:href="#DejaVuSans-79"/>
    </g>
   </g>
   <g id="text_5">
    <g id="patch_8">
     <path d="M 119.663703 113.709929 
L 126.449005 124.259321 
L 128.110604 123.190591 
L 121.325302 112.641199 
z
" style="fill:#ffffff;"/>
    </g>
    <!-- Potato Patch -->
    <g style="fill:#808080;" transform="translate(120.041168 113.490926)rotate(-302.748864)scale(0.02 -0.02)">
     <defs>
      <path d="M 1259 4147 
L 1259 2394 
L 2053 2394 
Q 2494 2394 2734 2622 
Q 2975 2850 2975 3272 
Q 2975 3691 2734 3919 
Q 2494 4147 2053 4147 
L 1259 4147 
z
M 628 4666 
L 2053 4666 
Q 2838 4666 3239 4311 
Q 3641 3956 3641 3272 
Q 3641 2581 3239 2228 
Q 2838 1875 2053 1875 
L 1259 1875 
L 1259 0 
L 628 0 
L 628 4666 
z
" id="DejaVuSans-50" transform="scale(0.015625)"/>
      <path d="M 1172 4494 
L 1172 3500 
L 2356 3500 
L 2356 3053 
L 1172 3053 
L 1172 1153 
Q 1172 725 1289 603 
Q 1406 481 1766 481 
L 2356 481 
L 2356 0 
L 1766 0 
Q 1100 0 847 248 
Q 594 497 594 1153 
L 594 3053 
L 172 3053 
L 172 3500 
L 594 3500 
L 594 4494 
L 1172 4494 
z
" id="DejaVuSans-74" transform="scale(0.015625)"/>
     </defs>
     <use xlink:href="#DejaVuSans-50"/>
     <use x="56.677734" xlink:href="#DejaVuSans-6f"/>
     <use x="117.859375" xlink:href="#DejaVuSans-74"/>
     <use x="157.068359" xlink:href="#DejaVuSans-61"/>
     <use x="218.347656" xlink:href="#DejaVuSans-74"/>
     <use x="257.556641" xlink:href="#DejaVuSans-6f"/>
     <use x="318.738281" xlink:href="#DejaVuSans-20"/>
     <use x="350.525391" xlink:href="#DejaVuSans-50"/>
     <use x="406.328125" xlink:href="#DejaVuSans-61"/>
     <use x="467.607422" xlink:href="#DejaVuSans-74"/>
     <use x="506.816406" xlink:href="#DejaVuSans-63"/>
     <use x="561.796875" xlink:href="#DejaVuSans-68"/>
    </g>
   </g>
   <g id="text_6">
    <g id="patch_9">
     <path d="M 148.8364 68.328555 
L 159.875242 79.454688 
L 161.27771 78.063223 
L 150.238869 66.93709 
z
" style="fill:#ffffff;"/>
    </g>
    <!-- Big Acorn 22.8° -->
    <g style="fill:#4169e1;" transform="translate(149.159953 68.035715)rotate(-314.774355)scale(0.02 -0.02)">
     <defs>
      <path d="M 1228 531 
L 3431 531 
L 3431 0 
L 469 0 
L 469 531 
Q 828 903 1448 1529 
Q 2069 2156 2228 2338 
Q 2531 2678 2651 2914 
Q 2772 3150 2772 3378 
Q 2772 3750 2511 3984 
Q 2250 4219 1831 4219 
Q 1534 4219 1204 4116 
Q 875 4013 500 3803 
L 500 4441 
Q 881 4594 1212 4672 
Q 1544 4750 1819 4750 
Q 2544 4750 2975 4387 
Q 3406 4025 3406 3419 
Q 3406 3131 3298 2873 
Q 3191 2616 2906 2266 
Q 2828 2175 2409 1742 
Q 1991 1309 1228 531 
z
" id="DejaVuSans-32" transform="scale(0.015625)"/>
      <path d="M 684 794 
L 1344 794 
L 1344 0 
L 684 0 
L 684 794 
z
" id="DejaVuSans-2e" transform="scale(0.015625)"/>
      <path d="M 2034 2216 
Q 1584 2216 1326 1975 
Q 1069 1734 1069 1313 
Q 1069 891 1326 650 
Q 1584 409 2034 409 
Q 2484 409 2743 651 
Q 3003 894 3003 1313 
Q 3003 1734 2745 1975 
Q 2488 2216 2034 2216 
z
M 1403 2484 
Q 997 2584 770 2862 
Q 544 3141 544 3541 
Q 544 4100 942 4425 
Q 1341 4750 2034 4750 
Q 2731 4750 3128 4425 
Q 3525 4100 3525 3541 
Q 3525 3141 3298 2862 
Q 3072 2584 2669 2484 
Q 3125 2378 3379 2068 
Q 3634 1759 3634 1313 
Q 3634 634 3220 271 
Q 2806 -91 2034 -91 
Q 1263 -91 848 271 
Q 434 634 434 1313 
Q 434 1759 690 2068 
Q 947 2378 1403 2484 
z
M 1172 3481 
Q 1172 3119 1398 2916 
Q 1625 2713 2034 2713 
Q 2441 2713 2670 2916 
Q 2900 3119 2900 3481 
Q 2900 3844 2670 4047 
Q 2441 4250 2034 4250 
Q 1625 4250 1398 4047 
Q 1172 3844 1172 3481 
z
" id="DejaVuSans-38" transform="scale(0.015625)"/>
      <path d="M 1600 4347 
Q 1350 4347 1178 4173 
Q 1006 4000 1006 3750 
Q 1006 3503 1178 3333 
Q 1350 3163 1600 3163 
Q 1850 3163 2022 3333 
Q 2194 3503 2194 3750 
Q 2194 3997 2020 4172 
Q 1847 4347 1600 4347 
z
M 1600 4750 
Q 1800 4750 1984 4673 
Q 2169 4597 2303 4453 
Q 2447 4313 2519 4134 
Q 2591 3956 2591 3750 
Q 2591 3338 2302 3052 
Q 2013 2766 1594 2766 
Q 1172 2766 890 3047 
Q 609 3328 609 3750 
Q 609 4169 896 4459 
Q 1184 4750 1600 4750 
z
" id="DejaVuSans-b0" transform="scale(0.015625)"/>
     </defs>
     <use xlink:href="#DejaVuSans-42"/>
     <use x="68.603516" xlink:href="#DejaVuSans-69"/>
     <use x="96.386719" xlink:href="#DejaVuSans-67"/>
     <use x="159.863281" xlink:href="#DejaVuSans-20"/>
     <use x="191.650391" xlink:href="#DejaVuSans-41"/>
     <use x="258.308594" xlink:href="#DejaVuSans-63"/>
     <use x="313.289062" xlink:href="#DejaVuSans-6f"/>
     <use x="374.470703" xlink:href="#DejaVuSans-72"/>
     <use x="413.833984" xlink:href="#DejaVuSans-6e"/>
     <use x="477.212891" xlink:href="#DejaVuSans-20"/>
     <use x="509" xlink:href="#DejaVuSans-32"/>
     <use x="572.623047" xlink:href="#DejaVuSans-32"/>
     <use x="636.246094" xlink:href="#DejaVuSans-2e"/>
     <use x="668.033203" xlink:href="#DejaVuSans-38"/>
     <use x="731.65625" xlink:href="#DejaVuSans-b0"/>
    </g>
   </g>
   <g id="text_7">
    <g id="patch_10">
     <path d="M 49.47183 120.93351 
L 50.01956 138.052563 
L 51.994174 137.989384 
L 51.446444 120.870332 
z
" style="fill:#ffffff;"/>
    </g>
    <!-- Cliffhanger 25.7° -->
    <g transform="translate(49.908184 120.939559)rotate(-271.832573)scale(0.02 -0.02)">
     <defs>
      <path d="M 4122 4306 
L 4122 3641 
Q 3803 3938 3442 4084 
Q 3081 4231 2675 4231 
Q 1875 4231 1450 3742 
Q 1025 3253 1025 2328 
Q 1025 1406 1450 917 
Q 1875 428 2675 428 
Q 3081 428 3442 575 
Q 3803 722 4122 1019 
L 4122 359 
Q 3791 134 3420 21 
Q 3050 -91 2638 -91 
Q 1578 -91 968 557 
Q 359 1206 359 2328 
Q 359 3453 968 4101 
Q 1578 4750 2638 4750 
Q 3056 4750 3426 4639 
Q 3797 4528 4122 4306 
z
" id="DejaVuSans-43" transform="scale(0.015625)"/>
      <path d="M 2375 4863 
L 2375 4384 
L 1825 4384 
Q 1516 4384 1395 4259 
Q 1275 4134 1275 3809 
L 1275 3500 
L 2222 3500 
L 2222 3053 
L 1275 3053 
L 1275 0 
L 697 0 
L 697 3053 
L 147 3053 
L 147 3500 
L 697 3500 
L 697 3744 
Q 697 4328 969 4595 
Q 1241 4863 1831 4863 
L 2375 4863 
z
" id="DejaVuSans-66" transform="scale(0.015625)"/>
      <path d="M 691 4666 
L 3169 4666 
L 3169 4134 
L 1269 4134 
L 1269 2991 
Q 1406 3038 1543 3061 
Q 1681 3084 1819 3084 
Q 2600 3084 3056 2656 
Q 3513 2228 3513 1497 
Q 3513 744 3044 326 
Q 2575 -91 1722 -91 
Q 1428 -91 1123 -41 
Q 819 9 494 109 
L 494 744 
Q 775 591 1075 516 
Q 1375 441 1709 441 
Q 2250 441 2565 725 
Q 2881 1009 2881 1497 
Q 2881 1984 2565 2268 
Q 2250 2553 1709 2553 
Q 1456 2553 1204 2497 
Q 953 2441 691 2322 
L 691 4666 
z
" id="DejaVuSans-35" transform="scale(0.015625)"/>
      <path d="M 525 4666 
L 3525 4666 
L 3525 4397 
L 1831 0 
L 1172 0 
L 2766 4134 
L 525 4134 
L 525 4666 
z
" id="DejaVuSans-37" transform="scale(0.015625)"/>
     </defs>
     <use xlink:href="#DejaVuSans-43"/>
     <use x="69.824219" xlink:href="#DejaVuSans-6c"/>
     <use x="97.607422" xlink:href="#DejaVuSans-69"/>
     <use x="125.390625" xlink:href="#DejaVuSans-66"/>
     <use x="160.595703" xlink:href="#DejaVuSans-66"/>
     <use x="195.800781" xlink:href="#DejaVuSans-68"/>
     <use x="259.179688" xlink:href="#DejaVuSans-61"/>
     <use x="320.458984" xlink:href="#DejaVuSans-6e"/>
     <use x="383.837891" xlink:href="#DejaVuSans-67"/>
     <use x="447.314453" xlink:href="#DejaVuSans-65"/>
     <use x="508.837891" xlink:href="#DejaVuSans-72"/>
     <use x="549.951172" xlink:href="#DejaVuSans-20"/>
     <use x="581.738281" xlink:href="#DejaVuSans-32"/>
     <use x="645.361328" xlink:href="#DejaVuSans-35"/>
     <use x="708.984375" xlink:href="#DejaVuSans-2e"/>
     <use x="740.771484" xlink:href="#DejaVuSans-37"/>
     <use x="804.394531" xlink:href="#DejaVuSans-b0"/>
    </g>
   </g>
   <g id="text_8">
    <g id="patch_11">
     <path d="M 26.370289 45.327115 
L 38.808809 60.175687 
L 40.323275 58.907032 
L 27.884755 44.058459 
z
" style="fill:#ffffff;"/>
    </g>
    <!-- Devil's Elbow 23.9° -->
    <g style="fill:#4169e1;" transform="translate(26.717311 45.062507)rotate(-309.952616)scale(0.02 -0.02)">
     <defs>
      <path d="M 1259 4147 
L 1259 519 
L 2022 519 
Q 2988 519 3436 956 
Q 3884 1394 3884 2338 
Q 3884 3275 3436 3711 
Q 2988 4147 2022 4147 
L 1259 4147 
z
M 628 4666 
L 1925 4666 
Q 3281 4666 3915 4102 
Q 4550 3538 4550 2338 
Q 4550 1131 3912 565 
Q 3275 0 1925 0 
L 628 0 
L 628 4666 
z
" id="DejaVuSans-44" transform="scale(0.015625)"/>
      <path d="M 191 3500 
L 800 3500 
L 1894 563 
L 2988 3500 
L 3597 3500 
L 2284 0 
L 1503 0 
L 191 3500 
z
" id="DejaVuSans-76" transform="scale(0.015625)"/>
      <path d="M 1147 4666 
L 1147 2931 
L 616 2931 
L 616 4666 
L 1147 4666 
z
" id="DejaVuSans-27" transform="scale(0.015625)"/>
      <path d="M 3116 1747 
Q 3116 2381 2855 2742 
Q 2594 3103 2138 3103 
Q 1681 3103 1420 2742 
Q 1159 2381 1159 1747 
Q 1159 1113 1420 752 
Q 1681 391 2138 391 
Q 2594 391 2855 752 
Q 3116 1113 3116 1747 
z
M 1159 2969 
Q 1341 3281 1617 3432 
Q 1894 3584 2278 3584 
Q 2916 3584 3314 3078 
Q 3713 2572 3713 1747 
Q 3713 922 3314 415 
Q 2916 -91 2278 -91 
Q 1894 -91 1617 61 
Q 1341 213 1159 525 
L 1159 0 
L 581 0 
L 581 4863 
L 1159 4863 
L 1159 2969 
z
" id="DejaVuSans-62" transform="scale(0.015625)"/>
      <path d="M 269 3500 
L 844 3500 
L 1563 769 
L 2278 3500 
L 2956 3500 
L 3675 769 
L 4391 3500 
L 4966 3500 
L 4050 0 
L 3372 0 
L 2619 2869 
L 1863 0 
L 1184 0 
L 269 3500 
z
" id="DejaVuSans-77" transform="scale(0.015625)"/>
      <path d="M 2597 2516 
Q 3050 2419 3304 2112 
Q 3559 1806 3559 1356 
Q 3559 666 3084 287 
Q 2609 -91 1734 -91 
Q 1441 -91 1130 -33 
Q 819 25 488 141 
L 488 750 
Q 750 597 1062 519 
Q 1375 441 1716 441 
Q 2309 441 2620 675 
Q 2931 909 2931 1356 
Q 2931 1769 2642 2001 
Q 2353 2234 1838 2234 
L 1294 2234 
L 1294 2753 
L 1863 2753 
Q 2328 2753 2575 2939 
Q 2822 3125 2822 3475 
Q 2822 3834 2567 4026 
Q 2313 4219 1838 4219 
Q 1578 4219 1281 4162 
Q 984 4106 628 3988 
L 628 4550 
Q 988 4650 1302 4700 
Q 1616 4750 1894 4750 
Q 2613 4750 3031 4423 
Q 3450 4097 3450 3541 
Q 3450 3153 3228 2886 
Q 3006 2619 2597 2516 
z
" id="DejaVuSans-33" transform="scale(0.015625)"/>
      <path d="M 703 97 
L 703 672 
Q 941 559 1184 500 
Q 1428 441 1663 441 
Q 2288 441 2617 861 
Q 2947 1281 2994 2138 
Q 2813 1869 2534 1725 
Q 2256 1581 1919 1581 
Q 1219 1581 811 2004 
Q 403 2428 403 3163 
Q 403 3881 828 4315 
Q 1253 4750 1959 4750 
Q 2769 4750 3195 4129 
Q 3622 3509 3622 2328 
Q 3622 1225 3098 567 
Q 2575 -91 1691 -91 
Q 1453 -91 1209 -44 
Q 966 3 703 97 
z
M 1959 2075 
Q 2384 2075 2632 2365 
Q 2881 2656 2881 3163 
Q 2881 3666 2632 3958 
Q 2384 4250 1959 4250 
Q 1534 4250 1286 3958 
Q 1038 3666 1038 3163 
Q 1038 2656 1286 2365 
Q 1534 2075 1959 2075 
z
" id="DejaVuSans-39" transform="scale(0.015625)"/>
     </defs>
     <use xlink:href="#DejaVuSans-44"/>
     <use x="77.001953" xlink:href="#DejaVuSans-65"/>
     <use x="138.525391" xlink:href="#DejaVuSans-76"/>
     <use x="197.705078" xlink:href="#DejaVuSans-69"/>
     <use x="225.488281" xlink:href="#DejaVuSans-6c"/>
     <use x="253.271484" xlink:href="#DejaVuSans-27"/>
     <use x="280.761719" xlink:href="#DejaVuSans-73"/>
     <use x="332.861328" xlink:href="#DejaVuSans-20"/>
     <use x="364.648438" xlink:href="#DejaVuSans-45"/>
     <use x="427.832031" xlink:href="#DejaVuSans-6c"/>
     <use x="455.615234" xlink:href="#DejaVuSans-62"/>
     <use x="519.091797" xlink:href="#DejaVuSans-6f"/>
     <use x="580.273438" xlink:href="#DejaVuSans-77"/>
     <use x="662.060547" xlink:href="#DejaVuSans-20"/>
     <use x="693.847656" xlink:href="#DejaVuSans-32"/>
     <use x="757.470703" xlink:href="#DejaVuSans-33"/>
     <use x="821.09375" xlink:href="#DejaVuSans-2e"/>
     <use x="852.880859" xlink:href="#DejaVuSans-39"/>
     <use x="916.503906" xlink:href="#DejaVuSans-b0"/>
    </g>
   </g>
   <g id="text_9">
    <g id="patch_12">
     <path d="M 124.620356 70.267587 
L 132.142112 88.771272 
L 133.972303 88.027298 
L 126.450546 69.523613 
z
" style="fill:#ffffff;"/>
    </g>
    <!-- Eagles Swoop 20.6° -->
    <g style="fill:#4169e1;" transform="translate(125.031734 70.121951)rotate(-292.121764)scale(0.02 -0.02)">
     <defs>
      <path d="M 3425 4513 
L 3425 3897 
Q 3066 4069 2747 4153 
Q 2428 4238 2131 4238 
Q 1616 4238 1336 4038 
Q 1056 3838 1056 3469 
Q 1056 3159 1242 3001 
Q 1428 2844 1947 2747 
L 2328 2669 
Q 3034 2534 3370 2195 
Q 3706 1856 3706 1288 
Q 3706 609 3251 259 
Q 2797 -91 1919 -91 
Q 1588 -91 1214 -16 
Q 841 59 441 206 
L 441 856 
Q 825 641 1194 531 
Q 1563 422 1919 422 
Q 2459 422 2753 634 
Q 3047 847 3047 1241 
Q 3047 1584 2836 1778 
Q 2625 1972 2144 2069 
L 1759 2144 
Q 1053 2284 737 2584 
Q 422 2884 422 3419 
Q 422 4038 858 4394 
Q 1294 4750 2059 4750 
Q 2388 4750 2728 4690 
Q 3069 4631 3425 4513 
z
" id="DejaVuSans-53" transform="scale(0.015625)"/>
      <path d="M 2034 4250 
Q 1547 4250 1301 3770 
Q 1056 3291 1056 2328 
Q 1056 1369 1301 889 
Q 1547 409 2034 409 
Q 2525 409 2770 889 
Q 3016 1369 3016 2328 
Q 3016 3291 2770 3770 
Q 2525 4250 2034 4250 
z
M 2034 4750 
Q 2819 4750 3233 4129 
Q 3647 3509 3647 2328 
Q 3647 1150 3233 529 
Q 2819 -91 2034 -91 
Q 1250 -91 836 529 
Q 422 1150 422 2328 
Q 422 3509 836 4129 
Q 1250 4750 2034 4750 
z
" id="DejaVuSans-30" transform="scale(0.015625)"/>
      <path d="M 2113 2584 
Q 1688 2584 1439 2293 
Q 1191 2003 1191 1497 
Q 1191 994 1439 701 
Q 1688 409 2113 409 
Q 2538 409 2786 701 
Q 3034 994 3034 1497 
Q 3034 2003 2786 2293 
Q 2538 2584 2113 2584 
z
M 3366 4563 
L 3366 3988 
Q 3128 4100 2886 4159 
Q 2644 4219 2406 4219 
Q 1781 4219 1451 3797 
Q 1122 3375 1075 2522 
Q 1259 2794 1537 2939 
Q 1816 3084 2150 3084 
Q 2853 3084 3261 2657 
Q 3669 2231 3669 1497 
Q 3669 778 3244 343 
Q 2819 -91 2113 -91 
Q 1303 -91 875 529 
Q 447 1150 447 2328 
Q 447 3434 972 4092 
Q 1497 4750 2381 4750 
Q 2619 4750 2861 4703 
Q 3103 4656 3366 4563 
z
" id="DejaVuSans-36" transform="scale(0.015625)"/>
     </defs>
     <use xlink:href="#DejaVuSans-45"/>
     <use x="63.183594" xlink:href="#DejaVuSans-61"/>
     <use x="124.462891" xlink:href="#DejaVuSans-67"/>
     <use x="187.939453" xlink:href="#DejaVuSans-6c"/>
     <use x="215.722656" xlink:href="#DejaVuSans-65"/>
     <use x="277.246094" xlink:href="#DejaVuSans-73"/>
     <use x="329.345703" xlink:href="#DejaVuSans-20"/>
     <use x="361.132812" xlink:href="#DejaVuSans-53"/>
     <use x="424.609375" xlink:href="#DejaVuSans-77"/>
     <use x="506.396484" xlink:href="#DejaVuSans-6f"/>
     <use x="567.578125" xlink:href="#DejaVuSans-6f"/>
     <use x="628.759766" xlink:href="#DejaVuSans-70"/>
     <use x="692.236328" xlink:href="#DejaVuSans-20"/>
     <use x="724.023438" xlink:href="#DejaVuSans-32"/>
     <use x="787.646484" xlink:href="#DejaVuSans-30"/>
     <use x="851.269531" xlink:href="#DejaVuSans-2e"/>
     <use x="883.056641" xlink:href="#DejaVuSans-36"/>
     <use x="946.679688" xlink:href="#DejaVuSans-b0"/>
    </g>
   </g>
   <g id="text_10">
    <g id="patch_13">
     <path d="M 61.613759 91.544647 
L 76.145914 112.611411 
L 77.772153 111.489608 
L 63.239998 90.422844 
z
" style="fill:#ffffff;"/>
    </g>
    <!-- Lower Diamond Hill 10.8° -->
    <g style="fill:#008000;" transform="translate(61.983958 91.313575)rotate(-304.598468)scale(0.02 -0.02)">
     <defs>
      <path d="M 3328 2828 
Q 3544 3216 3844 3400 
Q 4144 3584 4550 3584 
Q 5097 3584 5394 3201 
Q 5691 2819 5691 2113 
L 5691 0 
L 5113 0 
L 5113 2094 
Q 5113 2597 4934 2840 
Q 4756 3084 4391 3084 
Q 3944 3084 3684 2787 
Q 3425 2491 3425 1978 
L 3425 0 
L 2847 0 
L 2847 2094 
Q 2847 2600 2669 2842 
Q 2491 3084 2119 3084 
Q 1678 3084 1418 2786 
Q 1159 2488 1159 1978 
L 1159 0 
L 581 0 
L 581 3500 
L 1159 3500 
L 1159 2956 
Q 1356 3278 1631 3431 
Q 1906 3584 2284 3584 
Q 2666 3584 2933 3390 
Q 3200 3197 3328 2828 
z
" id="DejaVuSans-6d" transform="scale(0.015625)"/>
      <path d="M 794 531 
L 1825 531 
L 1825 4091 
L 703 3866 
L 703 4441 
L 1819 4666 
L 2450 4666 
L 2450 531 
L 3481 531 
L 3481 0 
L 794 0 
L 794 531 
z
" id="DejaVuSans-31" transform="scale(0.015625)"/>
     </defs>
     <use xlink:href="#DejaVuSans-4c"/>
     <use x="53.962891" xlink:href="#DejaVuSans-6f"/>
     <use x="115.144531" xlink:href="#DejaVuSans-77"/>
     <use x="196.931641" xlink:href="#DejaVuSans-65"/>
     <use x="258.455078" xlink:href="#DejaVuSans-72"/>
     <use x="299.568359" xlink:href="#DejaVuSans-20"/>
     <use x="331.355469" xlink:href="#DejaVuSans-44"/>
     <use x="408.357422" xlink:href="#DejaVuSans-69"/>
     <use x="436.140625" xlink:href="#DejaVuSans-61"/>
     <use x="497.419922" xlink:href="#DejaVuSans-6d"/>
     <use x="594.832031" xlink:href="#DejaVuSans-6f"/>
     <use x="656.013672" xlink:href="#DejaVuSans-6e"/>
     <use x="719.392578" xlink:href="#DejaVuSans-64"/>
     <use x="782.869141" xlink:href="#DejaVuSans-20"/>
     <use x="814.65625" xlink:href="#DejaVuSans-48"/>
     <use x="889.851562" xlink:href="#DejaVuSans-69"/>
     <use x="917.634766" xlink:href="#DejaVuSans-6c"/>
     <use x="945.417969" xlink:href="#DejaVuSans-6c"/>
     <use x="973.201172" xlink:href="#DejaVuSans-20"/>
     <use x="1004.988281" xlink:href="#DejaVuSans-31"/>
     <use x="1068.611328" xlink:href="#DejaVuSans-30"/>
     <use x="1132.234375" xlink:href="#DejaVuSans-2e"/>
     <use x="1164.021484" xlink:href="#DejaVuSans-38"/>
     <use x="1227.644531" xlink:href="#DejaVuSans-b0"/>
    </g>
   </g>
   <g id="text_11">
    <g id="patch_14">
     <path d="M 20.318398 126.931362 
L 26.908973 109.706332 
L 25.063799 109.000339 
L 18.473224 126.225369 
z
" style="fill:#ffffff;"/>
    </g>
    <!-- Outer Limits 21.7° -->
    <g style="fill:#4169e1;" transform="translate(19.918393 126.7569)rotate(-69.062341)scale(0.02 -0.02)">
     <defs>
      <path d="M 2522 4238 
Q 1834 4238 1429 3725 
Q 1025 3213 1025 2328 
Q 1025 1447 1429 934 
Q 1834 422 2522 422 
Q 3209 422 3611 934 
Q 4013 1447 4013 2328 
Q 4013 3213 3611 3725 
Q 3209 4238 2522 4238 
z
M 2522 4750 
Q 3503 4750 4090 4092 
Q 4678 3434 4678 2328 
Q 4678 1225 4090 567 
Q 3503 -91 2522 -91 
Q 1538 -91 948 565 
Q 359 1222 359 2328 
Q 359 3434 948 4092 
Q 1538 4750 2522 4750 
z
" id="DejaVuSans-4f" transform="scale(0.015625)"/>
     </defs>
     <use xlink:href="#DejaVuSans-4f"/>
     <use x="78.710938" xlink:href="#DejaVuSans-75"/>
     <use x="142.089844" xlink:href="#DejaVuSans-74"/>
     <use x="181.298828" xlink:href="#DejaVuSans-65"/>
     <use x="242.822266" xlink:href="#DejaVuSans-72"/>
     <use x="283.935547" xlink:href="#DejaVuSans-20"/>
     <use x="315.722656" xlink:href="#DejaVuSans-4c"/>
     <use x="371.435547" xlink:href="#DejaVuSans-69"/>
     <use x="399.21875" xlink:href="#DejaVuSans-6d"/>
     <use x="496.630859" xlink:href="#DejaVuSans-69"/>
     <use x="524.414062" xlink:href="#DejaVuSans-74"/>
     <use x="563.623047" xlink:href="#DejaVuSans-73"/>
     <use x="615.722656" xlink:href="#DejaVuSans-20"/>
     <use x="647.509766" xlink:href="#DejaVuSans-32"/>
     <use x="711.132812" xlink:href="#DejaVuSans-31"/>
     <use x="774.755859" xlink:href="#DejaVuSans-2e"/>
     <use x="806.542969" xlink:href="#DejaVuSans-37"/>
     <use x="870.166016" xlink:href="#DejaVuSans-b0"/>
    </g>
   </g>
   <g id="text_12">
    <g id="patch_15">
     <path d="M 148.499064 48.484983 
L 156.913347 59.148852 
L 158.464304 57.925076 
L 150.05002 47.261207 
z
" style="fill:#ffffff;"/>
    </g>
    <!-- Sunrise 20.8° -->
    <g style="fill:#4169e1;" transform="translate(148.853684 48.230648)rotate(-308.275064)scale(0.02 -0.02)">
     <use xlink:href="#DejaVuSans-53"/>
     <use x="63.476562" xlink:href="#DejaVuSans-75"/>
     <use x="126.855469" xlink:href="#DejaVuSans-6e"/>
     <use x="190.234375" xlink:href="#DejaVuSans-72"/>
     <use x="231.347656" xlink:href="#DejaVuSans-69"/>
     <use x="259.130859" xlink:href="#DejaVuSans-73"/>
     <use x="311.230469" xlink:href="#DejaVuSans-65"/>
     <use x="372.753906" xlink:href="#DejaVuSans-20"/>
     <use x="404.541016" xlink:href="#DejaVuSans-32"/>
     <use x="468.164062" xlink:href="#DejaVuSans-30"/>
     <use x="531.787109" xlink:href="#DejaVuSans-2e"/>
     <use x="563.574219" xlink:href="#DejaVuSans-38"/>
     <use x="627.197266" xlink:href="#DejaVuSans-b0"/>
    </g>
   </g>
   <g id="text_13">
    <g id="patch_16">
     <path d="M 54.886208 72.329027 
L 66.802315 80.641672 
L 67.932647 79.02135 
L 56.016541 70.708705 
z
" style="fill:#ffffff;"/>
    </g>
    <!-- The Gap 15.4° -->
    <g style="fill:#008000;" transform="translate(55.152028 71.982933)rotate(-325.100475)scale(0.02 -0.02)">
     <defs>
      <path d="M -19 4666 
L 3928 4666 
L 3928 4134 
L 2272 4134 
L 2272 0 
L 1638 0 
L 1638 4134 
L -19 4134 
L -19 4666 
z
" id="DejaVuSans-54" transform="scale(0.015625)"/>
      <path d="M 3809 666 
L 3809 1919 
L 2778 1919 
L 2778 2438 
L 4434 2438 
L 4434 434 
Q 4069 175 3628 42 
Q 3188 -91 2688 -91 
Q 1594 -91 976 548 
Q 359 1188 359 2328 
Q 359 3472 976 4111 
Q 1594 4750 2688 4750 
Q 3144 4750 3555 4637 
Q 3966 4525 4313 4306 
L 4313 3634 
Q 3963 3931 3569 4081 
Q 3175 4231 2741 4231 
Q 1884 4231 1454 3753 
Q 1025 3275 1025 2328 
Q 1025 1384 1454 906 
Q 1884 428 2741 428 
Q 3075 428 3337 486 
Q 3600 544 3809 666 
z
" id="DejaVuSans-47" transform="scale(0.015625)"/>
      <path d="M 2419 4116 
L 825 1625 
L 2419 1625 
L 2419 4116 
z
M 2253 4666 
L 3047 4666 
L 3047 1625 
L 3713 1625 
L 3713 1100 
L 3047 1100 
L 3047 0 
L 2419 0 
L 2419 1100 
L 313 1100 
L 313 1709 
L 2253 4666 
z
" id="DejaVuSans-34" transform="scale(0.015625)"/>
     </defs>
     <use xlink:href="#DejaVuSans-54"/>
     <use x="61.083984" xlink:href="#DejaVuSans-68"/>
     <use x="124.462891" xlink:href="#DejaVuSans-65"/>
     <use x="185.986328" xlink:href="#DejaVuSans-20"/>
     <use x="217.773438" xlink:href="#DejaVuSans-47"/>
     <use x="295.263672" xlink:href="#DejaVuSans-61"/>
     <use x="356.542969" xlink:href="#DejaVuSans-70"/>
     <use x="420.019531" xlink:href="#DejaVuSans-20"/>
     <use x="451.806641" xlink:href="#DejaVuSans-31"/>
     <use x="515.429688" xlink:href="#DejaVuSans-35"/>
     <use x="579.052734" xlink:href="#DejaVuSans-2e"/>
     <use x="610.839844" xlink:href="#DejaVuSans-34"/>
     <use x="674.462891" xlink:href="#DejaVuSans-b0"/>
    </g>
   </g>
   <g id="text_14">
    <g id="patch_17">
     <path d="M 174.52891 53.010423 
L 175.764613 63.157961 
L 177.72575 62.919147 
L 176.490048 52.771608 
z
" style="fill:#ffffff;"/>
    </g>
    <!-- Tyro 14.8° -->
    <g style="fill:#008000;" transform="translate(174.964068 52.97758)rotate(-276.942933)scale(0.02 -0.02)">
     <use xlink:href="#DejaVuSans-54"/>
     <use x="45.458984" xlink:href="#DejaVuSans-79"/>
     <use x="104.638672" xlink:href="#DejaVuSans-72"/>
     <use x="143.501953" xlink:href="#DejaVuSans-6f"/>
     <use x="204.683594" xlink:href="#DejaVuSans-20"/>
     <use x="236.470703" xlink:href="#DejaVuSans-31"/>
     <use x="300.09375" xlink:href="#DejaVuSans-34"/>
     <use x="363.716797" xlink:href="#DejaVuSans-2e"/>
     <use x="395.503906" xlink:href="#DejaVuSans-38"/>
     <use x="459.126953" xlink:href="#DejaVuSans-b0"/>
    </g>
   </g>
   <g id="text_15">
    <g id="patch_18">
     <path d="M 174.117883 87.889025 
L 177.136315 78.122318 
L 175.248778 77.538968 
L 172.230346 87.305675 
z
" style="fill:#ffffff;"/>
    </g>
    <!-- Tyro 15.9° -->
    <g style="fill:#008000;" transform="translate(173.707288 87.741196)rotate(-72.826067)scale(0.02 -0.02)">
     <use xlink:href="#DejaVuSans-54"/>
     <use x="45.458984" xlink:href="#DejaVuSans-79"/>
     <use x="104.638672" xlink:href="#DejaVuSans-72"/>
     <use x="143.501953" xlink:href="#DejaVuSans-6f"/>
     <use x="204.683594" xlink:href="#DejaVuSans-20"/>
     <use x="236.470703" xlink:href="#DejaVuSans-31"/>
     <use x="300.09375" xlink:href="#DejaVuSans-35"/>
     <use x="363.716797" xlink:href="#DejaVuSans-2e"/>
     <use x="395.503906" xlink:href="#DejaVuSans-39"/>
     <use x="459.126953" xlink:href="#DejaVuSans-b0"/>
    </g>
   </g>
   <g id="text_16">
    <g id="patch_19">
     <path d="M 165.90881 66.249364 
L 170.543321 85.987895 
L 172.466642 85.536308 
L 167.832131 65.797777 
z
" style="fill:#ffffff;"/>
    </g>
    <!-- Upper Sunrise 24.4° -->
    <g transform="translate(166.337778 66.169188)rotate(-283.213426)scale(0.02 -0.02)">
     <defs>
      <path d="M 556 4666 
L 1191 4666 
L 1191 1831 
Q 1191 1081 1462 751 
Q 1734 422 2344 422 
Q 2950 422 3222 751 
Q 3494 1081 3494 1831 
L 3494 4666 
L 4128 4666 
L 4128 1753 
Q 4128 841 3676 375 
Q 3225 -91 2344 -91 
Q 1459 -91 1007 375 
Q 556 841 556 1753 
L 556 4666 
z
" id="DejaVuSans-55" transform="scale(0.015625)"/>
     </defs>
     <use xlink:href="#DejaVuSans-55"/>
     <use x="73.193359" xlink:href="#DejaVuSans-70"/>
     <use x="136.669922" xlink:href="#DejaVuSans-70"/>
     <use x="200.146484" xlink:href="#DejaVuSans-65"/>
     <use x="261.669922" xlink:href="#DejaVuSans-72"/>
     <use x="302.783203" xlink:href="#DejaVuSans-20"/>
     <use x="334.570312" xlink:href="#DejaVuSans-53"/>
     <use x="398.046875" xlink:href="#DejaVuSans-75"/>
     <use x="461.425781" xlink:href="#DejaVuSans-6e"/>
     <use x="524.804688" xlink:href="#DejaVuSans-72"/>
     <use x="565.917969" xlink:href="#DejaVuSans-69"/>
     <use x="593.701172" xlink:href="#DejaVuSans-73"/>
     <use x="645.800781" xlink:href="#DejaVuSans-65"/>
     <use x="707.324219" xlink:href="#DejaVuSans-20"/>
     <use x="739.111328" xlink:href="#DejaVuSans-32"/>
     <use x="802.734375" xlink:href="#DejaVuSans-34"/>
     <use x="866.357422" xlink:href="#DejaVuSans-2e"/>
     <use x="898.144531" xlink:href="#DejaVuSans-34"/>
     <use x="961.767578" xlink:href="#DejaVuSans-b0"/>
    </g>
   </g>
   <g id="text_17">
    <g id="patch_20">
     <path d="M 24.10208 89.6599 
L 29.663439 106.343978 
L 31.537682 105.719231 
L 25.976322 89.035152 
z
" style="fill:#ffffff;"/>
    </g>
    <!-- Wild Turkey 23.2° -->
    <g style="fill:#4169e1;" transform="translate(24.521971 89.541018)rotate(-288.434949)scale(0.02 -0.02)">
     <defs>
      <path d="M 213 4666 
L 850 4666 
L 1831 722 
L 2809 4666 
L 3519 4666 
L 4500 722 
L 5478 4666 
L 6119 4666 
L 4947 0 
L 4153 0 
L 3169 4050 
L 2175 0 
L 1381 0 
L 213 4666 
z
" id="DejaVuSans-57" transform="scale(0.015625)"/>
      <path d="M 581 4863 
L 1159 4863 
L 1159 1991 
L 2875 3500 
L 3609 3500 
L 1753 1863 
L 3688 0 
L 2938 0 
L 1159 1709 
L 1159 0 
L 581 0 
L 581 4863 
z
" id="DejaVuSans-6b" transform="scale(0.015625)"/>
     </defs>
     <use xlink:href="#DejaVuSans-57"/>
     <use x="96.626953" xlink:href="#DejaVuSans-69"/>
     <use x="124.410156" xlink:href="#DejaVuSans-6c"/>
     <use x="152.193359" xlink:href="#DejaVuSans-64"/>
     <use x="215.669922" xlink:href="#DejaVuSans-20"/>
     <use x="247.457031" xlink:href="#DejaVuSans-54"/>
     <use x="293.416016" xlink:href="#DejaVuSans-75"/>
     <use x="356.794922" xlink:href="#DejaVuSans-72"/>
     <use x="397.908203" xlink:href="#DejaVuSans-6b"/>
     <use x="452.193359" xlink:href="#DejaVuSans-65"/>
     <use x="513.716797" xlink:href="#DejaVuSans-79"/>
     <use x="572.896484" xlink:href="#DejaVuSans-20"/>
     <use x="604.683594" xlink:href="#DejaVuSans-32"/>
     <use x="668.306641" xlink:href="#DejaVuSans-33"/>
     <use x="731.929688" xlink:href="#DejaVuSans-2e"/>
     <use x="763.716797" xlink:href="#DejaVuSans-32"/>
     <use x="827.339844" xlink:href="#DejaVuSans-b0"/>
    </g>
   </g>
   <g id="text_18">
    <g id="patch_21">
     <path d="M 34.123144 84.107132 
L 48.240655 81.590889 
L 47.893991 79.645916 
L 33.77648 82.16216 
z
" style="fill:#ffffff;"/>
    </g>
    <!-- Hydraulic 8.6° -->
    <g style="fill:#008000;" transform="translate(34.06634 83.674449)rotate(-10.106026)scale(0.02 -0.02)">
     <use xlink:href="#DejaVuSans-48"/>
     <use x="75.195312" xlink:href="#DejaVuSans-79"/>
     <use x="134.375" xlink:href="#DejaVuSans-64"/>
     <use x="197.851562" xlink:href="#DejaVuSans-72"/>
     <use x="238.964844" xlink:href="#DejaVuSans-61"/>
     <use x="300.244141" xlink:href="#DejaVuSans-75"/>
     <use x="363.623047" xlink:href="#DejaVuSans-6c"/>
     <use x="391.40625" xlink:href="#DejaVuSans-69"/>
     <use x="419.189453" xlink:href="#DejaVuSans-63"/>
     <use x="474.169922" xlink:href="#DejaVuSans-20"/>
     <use x="505.957031" xlink:href="#DejaVuSans-38"/>
     <use x="569.580078" xlink:href="#DejaVuSans-2e"/>
     <use x="601.367188" xlink:href="#DejaVuSans-36"/>
     <use x="664.990234" xlink:href="#DejaVuSans-b0"/>
    </g>
   </g>
   <g id="text_19">
    <g id="patch_22">
     <path d="M 170.462794 74.303841 
L 171.954887 95.343499 
L 173.925563 95.203742 
L 172.433469 74.164084 
z
" style="fill:#ffffff;"/>
    </g>
    <!-- Sunrise Glades 22.6° -->
    <g transform="translate(170.899054 74.292952)rotate(-274.056519)scale(0.02 -0.02)">
     <use xlink:href="#DejaVuSans-53"/>
     <use x="63.476562" xlink:href="#DejaVuSans-75"/>
     <use x="126.855469" xlink:href="#DejaVuSans-6e"/>
     <use x="190.234375" xlink:href="#DejaVuSans-72"/>
     <use x="231.347656" xlink:href="#DejaVuSans-69"/>
     <use x="259.130859" xlink:href="#DejaVuSans-73"/>
     <use x="311.230469" xlink:href="#DejaVuSans-65"/>
     <use x="372.753906" xlink:href="#DejaVuSans-20"/>
     <use x="404.541016" xlink:href="#DejaVuSans-47"/>
     <use x="482.03125" xlink:href="#DejaVuSans-6c"/>
     <use x="509.814453" xlink:href="#DejaVuSans-61"/>
     <use x="571.09375" xlink:href="#DejaVuSans-64"/>
     <use x="634.570312" xlink:href="#DejaVuSans-65"/>
     <use x="696.09375" xlink:href="#DejaVuSans-73"/>
     <use x="748.193359" xlink:href="#DejaVuSans-20"/>
     <use x="779.980469" xlink:href="#DejaVuSans-32"/>
     <use x="843.603516" xlink:href="#DejaVuSans-32"/>
     <use x="907.226562" xlink:href="#DejaVuSans-2e"/>
     <use x="939.013672" xlink:href="#DejaVuSans-36"/>
     <use x="1002.636719" xlink:href="#DejaVuSans-b0"/>
    </g>
   </g>
   <g id="text_20">
    <g id="patch_23">
     <path d="M 86.334125 116.824783 
L 98.477043 134.990667 
L 100.119512 133.892765 
L 87.976594 115.72688 
z
" style="fill:#ffffff;"/>
    </g>
    <!-- Upper Diamond 13.2° -->
    <g style="fill:#008000;" transform="translate(86.707663 116.599149)rotate(-303.760601)scale(0.02 -0.02)">
     <use xlink:href="#DejaVuSans-55"/>
     <use x="73.193359" xlink:href="#DejaVuSans-70"/>
     <use x="136.669922" xlink:href="#DejaVuSans-70"/>
     <use x="200.146484" xlink:href="#DejaVuSans-65"/>
     <use x="261.669922" xlink:href="#DejaVuSans-72"/>
     <use x="302.783203" xlink:href="#DejaVuSans-20"/>
     <use x="334.570312" xlink:href="#DejaVuSans-44"/>
     <use x="411.572266" xlink:href="#DejaVuSans-69"/>
     <use x="439.355469" xlink:href="#DejaVuSans-61"/>
     <use x="500.634766" xlink:href="#DejaVuSans-6d"/>
     <use x="598.046875" xlink:href="#DejaVuSans-6f"/>
     <use x="659.228516" xlink:href="#DejaVuSans-6e"/>
     <use x="722.607422" xlink:href="#DejaVuSans-64"/>
     <use x="786.083984" xlink:href="#DejaVuSans-20"/>
     <use x="817.871094" xlink:href="#DejaVuSans-31"/>
     <use x="881.494141" xlink:href="#DejaVuSans-33"/>
     <use x="945.117188" xlink:href="#DejaVuSans-2e"/>
     <use x="976.904297" xlink:href="#DejaVuSans-32"/>
     <use x="1040.527344" xlink:href="#DejaVuSans-b0"/>
    </g>
   </g>
   <g id="text_21">
    <!-- Wintergreen Resort -->
    <g transform="translate(35.159222 13.017725)scale(0.12 -0.12)">
     <use xlink:href="#DejaVuSans-57"/>
     <use x="96.626953" xlink:href="#DejaVuSans-69"/>
     <use x="124.410156" xlink:href="#DejaVuSans-6e"/>
     <use x="187.789062" xlink:href="#DejaVuSans-74"/>
     <use x="226.998047" xlink:href="#DejaVuSans-65"/>
     <use x="288.521484" xlink:href="#DejaVuSans-72"/>
     <use x="327.884766" xlink:href="#DejaVuSans-67"/>
     <use x="391.361328" xlink:href="#DejaVuSans-72"/>
     <use x="430.224609" xlink:href="#DejaVuSans-65"/>
     <use x="491.748047" xlink:href="#DejaVuSans-65"/>
     <use x="553.271484" xlink:href="#DejaVuSans-6e"/>
     <use x="616.650391" xlink:href="#DejaVuSans-20"/>
     <use x="648.4375" xlink:href="#DejaVuSans-52"/>
     <use x="713.419922" xlink:href="#DejaVuSans-65"/>
     <use x="774.943359" xlink:href="#DejaVuSans-73"/>
     <use x="827.042969" xlink:href="#DejaVuSans-6f"/>
     <use x="888.224609" xlink:href="#DejaVuSans-72"/>
     <use x="929.337891" xlink:href="#DejaVuSans-74"/>
    </g>
   </g>
   <g id="legend_1">
    <g id="line2d_32">
     <path d="M 9.269691 167.733326 
L 21.269691 167.733326 
" style="fill:none;stroke:#008000;stroke-linecap:square;stroke-width:1.5;"/>
    </g>
    <g id="line2d_33"/>
    <g id="text_22">
     <!-- Easy -->
     <g transform="translate(26.069691 169.833326)scale(0.06 -0.06)">
      <use xlink:href="#DejaVuSans-45"/>
      <use x="63.183594" xlink:href="#DejaVuSans-61"/>
      <use x="124.462891" xlink:href="#DejaVuSans-73"/>
      <use x="176.5625" xlink:href="#DejaVuSans-79"/>
     </g>
    </g>
    <g id="line2d_34">
     <path d="M 9.269691 176.540201 
L 21.269691 176.540201 
" style="fill:none;stroke:#4169e1;stroke-linecap:square;stroke-width:1.5;"/>
    </g>
    <g id="line2d_35"/>
    <g id="text_23">
     <!-- Intermediate -->
     <g transform="translate(26.069691 178.640201)scale(0.06 -0.06)">
      <defs>
       <path d="M 628 4666 
L 1259 4666 
L 1259 0 
L 628 0 
L 628 4666 
z
" id="DejaVuSans-49" transform="scale(0.015625)"/>
      </defs>
      <use xlink:href="#DejaVuSans-49"/>
      <use x="29.492188" xlink:href="#DejaVuSans-6e"/>
      <use x="92.871094" xlink:href="#DejaVuSans-74"/>
      <use x="132.080078" xlink:href="#DejaVuSans-65"/>
      <use x="193.603516" xlink:href="#DejaVuSans-72"/>
      <use x="232.966797" xlink:href="#DejaVuSans-6d"/>
      <use x="330.378906" xlink:href="#DejaVuSans-65"/>
      <use x="391.902344" xlink:href="#DejaVuSans-64"/>
      <use x="455.378906" xlink:href="#DejaVuSans-69"/>
      <use x="483.162109" xlink:href="#DejaVuSans-61"/>
      <use x="544.441406" xlink:href="#DejaVuSans-74"/>
      <use x="583.650391" xlink:href="#DejaVuSans-65"/>
     </g>
    </g>
    <g id="line2d_36">
     <path d="M 76.780941 167.733326 
L 88.780941 167.733326 
" style="fill:none;stroke:#000000;stroke-linecap:square;stroke-width:1.5;"/>
    </g>
    <g id="line2d_37"/>
    <g id="text_24">
     <!-- Advanced -->
     <g transform="translate(93.580941 169.833326)scale(0.06 -0.06)">
      <use xlink:href="#DejaVuSans-41"/>
      <use x="66.658203" xlink:href="#DejaVuSans-64"/>
      <use x="130.134766" xlink:href="#DejaVuSans-76"/>
      <use x="189.314453" xlink:href="#DejaVuSans-61"/>
      <use x="250.59375" xlink:href="#DejaVuSans-6e"/>
      <use x="313.972656" xlink:href="#DejaVuSans-63"/>
      <use x="368.953125" xlink:href="#DejaVuSans-65"/>
      <use x="430.476562" xlink:href="#DejaVuSans-64"/>
     </g>
    </g>
    <g id="line2d_38">
     <path d="M 76.780941 176.540201 
L 88.780941 176.540201 
" style="fill:none;stroke:#ff0000;stroke-linecap:square;stroke-width:1.5;"/>
    </g>
    <g id="line2d_39"/>
    <g id="text_25">
     <!-- Expert -->
     <g transform="translate(93.580941 178.640201)scale(0.06 -0.06)">
      <use xlink:href="#DejaVuSans-45"/>
      <use x="63.183594" xlink:href="#DejaVuSans-78"/>
      <use x="122.363281" xlink:href="#DejaVuSans-70"/>
      <use x="185.839844" xlink:href="#DejaVuSans-65"/>
      <use x="247.363281" xlink:href="#DejaVuSans-72"/>
      <use x="288.476562" xlink:href="#DejaVuSans-74"/>
     </g>
    </g>
    <g id="line2d_40">
     <path d="M 135.220003 167.733326 
L 147.220003 167.733326 
" style="fill:none;stroke:#ffd700;stroke-linecap:square;stroke-width:1.5;"/>
    </g>
    <g id="line2d_41"/>
    <g id="text_26">
     <!-- Extreme -->
     <g transform="translate(152.020003 169.833326)scale(0.06 -0.06)">
      <use xlink:href="#DejaVuSans-45"/>
      <use x="63.183594" xlink:href="#DejaVuSans-78"/>
      <use x="122.363281" xlink:href="#DejaVuSans-74"/>
      <use x="161.572266" xlink:href="#DejaVuSans-72"/>
      <use x="200.435547" xlink:href="#DejaVuSans-65"/>
      <use x="261.958984" xlink:href="#DejaVuSans-6d"/>
      <use x="359.371094" xlink:href="#DejaVuSans-65"/>
     </g>
    </g>
    <g id="line2d_42">
     <path d="M 135.220003 176.540201 
L 147.220003 176.540201 
" style="fill:none;stroke:#000000;stroke-dasharray:1.5,2.475;stroke-dashoffset:0;stroke-width:1.5;"/>
    </g>
    <g id="line2d_43"/>
    <g id="text_27">
     <!-- Gladed -->
     <g transform="translate(152.020003 178.640201)scale(0.06 -0.06)">
      <use xlink:href="#DejaVuSans-47"/>
      <use x="77.490234" xlink:href="#DejaVuSans-6c"/>
      <use x="105.273438" xlink:href="#DejaVuSans-61"/>
      <use x="166.552734" xlink:href="#DejaVuSans-64"/>
      <use x="230.029297" xlink:href="#DejaVuSans-65"/>
      <use x="291.552734" xlink:href="#DejaVuSans-64"/>
     </g>
    </g>
   </g>
  </g>
  <g id="text_28">
   <!-- Sources: USGS and OpenStreetMaps -->
   <g transform="translate(45.679236 188.027909)scale(0.052174 -0.052174)">
    <defs>
     <path d="M 750 794 
L 1409 794 
L 1409 0 
L 750 0 
L 750 794 
z
M 750 3309 
L 1409 3309 
L 1409 2516 
L 750 2516 
L 750 3309 
z
" id="DejaVuSans-3a" transform="scale(0.015625)"/>
     <path d="M 628 4666 
L 1569 4666 
L 2759 1491 
L 3956 4666 
L 4897 4666 
L 4897 0 
L 4281 0 
L 4281 4097 
L 3078 897 
L 2444 897 
L 1241 4097 
L 1241 0 
L 628 0 
L 628 4666 
z
" id="DejaVuSans-4d" transform="scale(0.015625)"/>
    </defs>
    <use xlink:href="#DejaVuSans-53"/>
    <use x="63.476562" xlink:href="#DejaVuSans-6f"/>
    <use x="124.658203" xlink:href="#DejaVuSans-75"/>
    <use x="188.037109" xlink:href="#DejaVuSans-72"/>
    <use x="226.900391" xlink:href="#DejaVuSans-63"/>
    <use x="281.880859" xlink:href="#DejaVuSans-65"/>
    <use x="343.404297" xlink:href="#DejaVuSans-73"/>
    <use x="395.503906" xlink:href="#DejaVuSans-3a"/>
    <use x="429.195312" xlink:href="#DejaVuSans-20"/>
    <use x="460.982422" xlink:href="#DejaVuSans-55"/>
    <use x="534.175781" xlink:href="#DejaVuSans-53"/>
    <use x="597.652344" xlink:href="#DejaVuSans-47"/>
    <use x="675.142578" xlink:href="#DejaVuSans-53"/>
    <use x="738.619141" xlink:href="#DejaVuSans-20"/>
    <use x="770.40625" xlink:href="#DejaVuSans-61"/>
    <use x="831.685547" xlink:href="#DejaVuSans-6e"/>
    <use x="895.064453" xlink:href="#DejaVuSans-64"/>
    <use x="958.541016" xlink:href="#DejaVuSans-20"/>
    <use x="990.328125" xlink:href="#DejaVuSans-4f"/>
    <use x="1069.039062" xlink:href="#DejaVuSans-70"/>
    <use x="1132.515625" xlink:href="#DejaVuSans-65"/>
    <use x="1194.039062" xlink:href="#DejaVuSans-6e"/>
    <use x="1257.417969" xlink:href="#DejaVuSans-53"/>
    <use x="1320.894531" xlink:href="#DejaVuSans-74"/>
    <use x="1360.103516" xlink:href="#DejaVuSans-72"/>
    <use x="1398.966797" xlink:href="#DejaVuSans-65"/>
    <use x="1460.490234" xlink:href="#DejaVuSans-65"/>
    <use x="1522.013672" xlink:href="#DejaVuSans-74"/>
    <use x="1561.222656" xlink:href="#DejaVuSans-4d"/>
    <use x="1647.501953" xlink:href="#DejaVuSans-61"/>
    <use x="1708.78125" xlink:href="#DejaVuSans-70"/>
    <use x="1772.257812" xlink:href="#DejaVuSans-73"/>
   </g>
  </g>
 </g>
 <defs>
  <clipPath id="p9d2d6d2c41">
   <rect height="151.077514" width="186.544069" x="0" y="19.017725"/>
  </clipPath>
 </defs>
</svg>
