<?xml version="1.0" encoding="utf-8" standalone="no"?>
<!DOCTYPE svg PUBLIC "-//W3C//DTD SVG 1.1//EN"
  "http://www.w3.org/Graphics/SVG/1.1/DTD/svg11.dtd">
<svg height="233.406034pt" version="1.1" viewBox="0 0 229.175247 233.406034" width="229.175247pt" xmlns="http://www.w3.org/2000/svg" xmlns:xlink="http://www.w3.org/1999/xlink">
 <metadata>
  <rdf:RDF xmlns:cc="http://creativecommons.org/ns#" xmlns:dc="http://purl.org/dc/elements/1.1/" xmlns:rdf="http://www.w3.org/1999/02/22-rdf-syntax-ns#">
   <cc:Work>
    <dc:type rdf:resource="http://purl.org/dc/dcmitype/StillImage"/>
    <dc:date>2022-04-14T21:35:05.619454</dc:date>
    <dc:format>image/svg+xml</dc:format>
    <dc:creator>
     <cc:Agent>
      <dc:title>Matplotlib v3.4.3, https://matplotlib.org/</dc:title>
     </cc:Agent>
    </dc:creator>
   </cc:Work>
  </rdf:RDF>
 </metadata>
 <defs>
  <style type="text/css">*{stroke-linecap:butt;stroke-linejoin:round;}</style>
 </defs>
 <g id="figure_1">
  <g id="patch_1">
   <path d="M 0 233.406034 
L 229.175247 233.406034 
L 229.175247 0 
L 0 0 
z
" style="fill:#ffffff;"/>
  </g>
  <g id="axes_1">
   <g id="line2d_1">
    <path clip-path="url(#p888e61e2cb)" d="M 161.855533 73.686106 
" style="fill:none;stroke:#008000;stroke-linecap:square;stroke-width:1.5;"/>
   </g>
   <g id="line2d_2">
    <path clip-path="url(#p888e61e2cb)" d="M 161.855533 73.686106 
" style="fill:none;stroke:#4169e1;stroke-linecap:square;stroke-width:1.5;"/>
   </g>
   <g id="line2d_3">
    <path clip-path="url(#p888e61e2cb)" d="M 161.855533 73.686106 
" style="fill:none;stroke:#000000;stroke-linecap:square;stroke-width:1.5;"/>
   </g>
   <g id="line2d_4">
    <path clip-path="url(#p888e61e2cb)" d="M 161.855533 73.686106 
" style="fill:none;stroke:#ff0000;stroke-linecap:square;stroke-width:1.5;"/>
   </g>
   <g id="line2d_5">
    <path clip-path="url(#p888e61e2cb)" d="M 161.855533 73.686106 
" style="fill:none;stroke:#ffd700;stroke-linecap:square;stroke-width:1.5;"/>
   </g>
   <g id="line2d_6">
    <path clip-path="url(#p888e61e2cb)" d="M 161.855533 73.686106 
" style="fill:none;stroke:#000000;stroke-dasharray:1.5,2.475;stroke-dashoffset:0;stroke-width:1.5;"/>
   </g>
   <g id="line2d_7">
    <path clip-path="url(#p888e61e2cb)" d="M 209.093696 81.633268 
L 205.331166 81.412869 
L 202.041758 81.221619 
L 198.75235 81.03037 
L 194.725477 80.8313 
L 190.698605 80.63223 
L 186.415808 80.382681 
L 182.133011 80.133133 
L 177.805316 79.868654 
L 173.47762 79.604175 
L 169.194824 79.361025 
L 164.912027 79.117875 
L 160.019728 78.824247 
L 155.127428 78.530619 
L 150.867081 78.287469 
L 146.606734 78.044319 
L 141.684127 77.7578 
L 136.761521 77.471281 
L 133.291956 77.265813 
L 129.822392 77.060344 
" style="fill:none;stroke:#808080;stroke-linecap:square;stroke-width:1.5;"/>
   </g>
   <g id="line2d_8">
    <path clip-path="url(#p888e61e2cb)" d="M 29.926764 167.883224 
L 33.749908 163.810818 
L 36.219349 161.148967 
L 38.876243 158.267428 
L 41.533137 155.385888 
L 44.227634 152.511459 
L 46.922131 149.637029 
L 49.451063 146.902659 
L 52.867872 143.167251 
L 56.526012 139.293205 
L 60.184152 135.419159 
L 62.26185 133.139807 
L 64.534859 130.699777 
L 67.620537 127.346868 
L 71.670421 123.024203 
L 74.011339 120.509877 
L 76.352257 117.995551 
L 78.693175 115.481225 
L 81.034093 112.966898 
L 83.751039 110.048389 
L 86.467985 107.129879 
L 89.143681 104.251539 
L 91.819377 101.373199 
L 94.495072 98.494859 
L 97.170768 95.616519 
L 99.564442 93.013678 
L 101.958116 90.410836 
L 105.488294 86.61713 
L 109.018473 82.823423 
L 111.893127 79.750634 
" style="fill:none;stroke:#808080;stroke-linecap:square;stroke-width:1.5;"/>
   </g>
   <g id="line2d_9">
    <path clip-path="url(#p888e61e2cb)" d="M 86.768808 42.607001 
L 90.848998 47.165706 
L 94.258511 50.974343 
L 97.668023 54.78298 
L 100.994473 58.422408 
L 104.320922 62.061835 
L 107.399866 65.510013 
L 110.47881 68.958192 
L 114.37716 73.383235 
L 115.596166 74.633111 
" style="fill:none;stroke:#808080;stroke-linecap:square;stroke-width:1.5;"/>
   </g>
   <g id="line2d_10">
    <path clip-path="url(#p888e61e2cb)" d="M 11.095031 51.312051 
L 14.986365 50.591488 
L 18.877699 49.870926 
L 22.769033 49.150363 
L 26.660367 48.429801 
L 31.914103 47.312164 
L 37.167839 46.194528 
L 42.165651 45.172872 
L 47.163463 44.151216 
L 52.364443 43.062729 
L 57.565422 41.974242 
L 63.435957 40.431449 
L 69.683082 39.092703 
L 75.930207 37.753957 
L 81.544818 36.651962 
L 83.983952 36.137223 
" style="fill:none;stroke:#808080;stroke-linecap:square;stroke-width:1.5;"/>
   </g>
   <g id="line2d_11">
    <path clip-path="url(#p888e61e2cb)" d="M 27.984885 149.585839 
L 31.758921 147.024945 
L 35.532956 144.464051 
L 39.306992 141.903156 
L 43.081028 139.342262 
" style="fill:none;stroke:#808080;stroke-linecap:square;stroke-width:1.5;"/>
   </g>
   <g id="line2d_12">
    <path clip-path="url(#p888e61e2cb)" d="M 47.331834 178.570443 
L 50.172252 173.506953 
L 53.012671 168.443464 
" style="fill:none;stroke:#808080;stroke-linecap:square;stroke-width:1.5;"/>
   </g>
   <g id="line2d_13">
    <path clip-path="url(#p888e61e2cb)" d="M 62.030621 191.608111 
L 64.491082 187.328104 
L 67.636252 181.856521 
L 69.547263 178.532762 
L 71.458273 175.209002 
L 74.240604 170.368756 
L 77.022934 165.528509 
L 79.805265 160.688262 
L 82.587596 155.848015 
L 85.132804 151.420128 
L 87.678012 146.992241 
L 89.147329 144.435612 
L 91.508452 140.32837 
L 93.869574 136.221127 
L 96.628613 131.421406 
L 99.387652 126.621684 
L 101.739795 122.530083 
L 104.091938 118.438482 
L 106.569236 114.128614 
L 107.279762 112.892958 
L 110.044413 108.082572 
L 112.278696 104.195728 
L 114.512979 100.308885 
L 116.201179 97.371891 
L 117.889379 94.434896 
L 119.715081 91.259017 
L 121.540784 88.083138 
" style="fill:none;stroke:#808080;stroke-linecap:square;stroke-width:1.5;"/>
   </g>
   <g id="line2d_14">
    <path clip-path="url(#p888e61e2cb)" d="M 61.116928 190.948336 
L 63.362996 187.038031 
L 65.004052 184.181375 
L 66.645108 181.32472 
L 68.654335 177.827485 
L 70.663562 174.33025 
L 72.696221 170.791957 
L 74.72888 167.253664 
L 76.761539 163.715371 
L 78.794197 160.177079 
L 80.826856 156.638786 
L 82.859515 153.100493 
L 84.892173 149.5622 
L 86.924832 146.023907 
L 89.865712 140.904962 
L 92.806592 135.786017 
L 95.640275 130.852634 
L 98.473959 125.919251 
L 100.790183 121.888082 
L 103.106406 117.856913 
L 106.251576 112.381064 
L 109.022963 107.555036 
L 111.262297 103.656817 
L 113.501631 99.758599 
L 115.396366 96.460434 
L 117.2911 93.162269 
L 118.939452 90.292816 
L 120.587804 87.423363 
" style="fill:none;stroke:#808080;stroke-linecap:square;stroke-width:1.5;"/>
   </g>
   <g id="line2d_15">
    <path clip-path="url(#p888e61e2cb)" d="M 84.162425 198.257052 
L 88.841455 194.83589 
L 93.520485 191.414729 
" style="fill:none;stroke:#808080;stroke-linecap:square;stroke-width:1.5;"/>
   </g>
   <g id="line2d_16">
    <path clip-path="url(#p888e61e2cb)" d="M 94.86633 194.261431 
L 98.90106 190.046833 
L 102.93579 185.832235 
" style="fill:none;stroke:#808080;stroke-linecap:square;stroke-width:1.5;"/>
   </g>
   <g id="line2d_17">
    <path clip-path="url(#p888e61e2cb)" d="M 161.855533 73.686106 
L 163.31587 72.509815 
L 164.776208 71.333524 
L 166.236546 70.157233 
L 167.696883 68.980942 
L 168.705425 68.17933 
L 169.713968 67.377717 
L 170.72251 66.576105 
L 171.731052 65.774492 
L 172.762324 65.171594 
L 173.793597 64.568696 
L 174.824869 63.965798 
L 175.856141 63.3629 
L 177.602148 62.760003 
L 179.348155 62.157105 
L 180.544992 62.024865 
L 181.74183 61.892626 
L 182.938667 61.760386 
L 184.135504 61.628147 
L 185.189225 61.569492 
L 186.242947 61.510838 
L 187.296669 61.452183 
L 188.350391 61.393529 
L 190.171604 61.481688 
L 191.992816 61.569848 
L 193.626296 62.069656 
L 195.259775 62.569464 
L 196.893254 63.069272 
L 198.526733 63.56908 
L 200.250291 64.230633 
L 201.973848 64.892185 
L 203.697406 65.553738 
L 205.420964 66.21529 
L 206.395691 66.685949 
L 207.370419 67.156607 
L 208.345147 67.627266 
L 209.319874 68.097924 
L 210.294602 68.568583 
L 211.26933 69.039242 
L 212.244057 69.5099 
L 213.218785 69.980559 
L 214.603636 70.951025 
L 215.988488 71.921492 
L 217.373339 72.891959 
L 218.758191 73.862425 
" style="fill:none;stroke:#008000;stroke-linecap:square;stroke-width:1.5;"/>
   </g>
   <g id="line2d_18">
    <path clip-path="url(#p888e61e2cb)" d="M 110.252071 110.327798 
L 111.369914 110.272698 
L 112.487757 110.217598 
L 113.6056 110.162499 
L 114.723443 110.107399 
L 115.841286 110.052299 
L 116.959129 109.997199 
L 118.076972 109.9421 
L 119.194815 109.887 
L 120.248537 109.90904 
L 121.302258 109.93108 
L 122.35598 109.95312 
L 123.409702 109.975159 
L 124.463424 109.997199 
L 125.517145 110.019239 
L 126.570867 110.041279 
L 127.624589 110.063319 
L 129.29539 110.306113 
L 130.966192 110.548908 
L 132.636993 110.791702 
L 134.307795 111.034497 
" style="fill:none;stroke:#008000;stroke-linecap:square;stroke-width:1.5;"/>
   </g>
   <g id="line2d_19">
    <path clip-path="url(#p888e61e2cb)" d="M 117.026197 83.91973 
L 115.836936 83.96381 
L 114.647676 84.00789 
L 113.699747 84.331378 
L 112.751819 84.654867 
L 111.456485 85.802364 
L 111.162958 87.485928 
L 110.869431 89.169492 
L 110.575904 90.853056 
L 110.282378 92.536621 
L 109.808133 94.050975 
L 109.333888 95.56533 
L 108.859643 97.079684 
L 108.385398 98.594039 
L 107.67824 100.211483 
L 106.971081 101.828927 
L 106.557169 102.7187 
L 106.143257 103.608472 
L 105.729345 104.498244 
L 105.315433 105.388016 
L 104.457303 106.78435 
L 103.599172 108.180685 
L 102.756195 108.967367 
L 101.913217 109.754049 
L 101.07024 110.540732 
L 100.227262 111.327414 
L 99.497093 111.992877 
L 98.766925 112.65834 
L 98.036756 113.323803 
L 97.306587 113.989265 
L 96.576418 114.654728 
L 95.846249 115.320191 
L 95.11608 115.985654 
L 94.385912 116.651117 
L 93.302164 117.650733 
L 92.218416 118.650349 
L 91.134668 119.649965 
L 90.05092 120.649581 
L 88.756147 121.472878 
L 87.461374 122.296175 
L 86.512884 122.796694 
L 85.564395 123.297214 
L 83.758335 123.267353 
L 82.433817 122.752615 
L 81.109298 122.237876 
L 79.483396 121.487809 
L 77.857493 120.737741 
" style="fill:none;stroke:#008000;stroke-linecap:square;stroke-width:1.5;"/>
   </g>
   <g id="line2d_20">
    <path clip-path="url(#p888e61e2cb)" d="M 56.601218 157.643912 
L 55.532413 158.913872 
L 54.463608 160.183833 
L 53.394803 161.453793 
L 52.325998 162.723754 
L 51.257193 163.993714 
L 50.188388 165.263675 
L 49.119583 166.533635 
L 48.050778 167.803596 
L 46.981973 169.073556 
L 45.913168 170.343516 
L 44.844363 171.613477 
L 43.775558 172.883437 
L 42.706753 174.153398 
L 41.637948 175.423358 
L 40.569143 176.693319 
L 39.500338 177.963279 
" style="fill:none;stroke:#008000;stroke-linecap:square;stroke-width:1.5;"/>
   </g>
   <g id="line2d_21">
    <path clip-path="url(#p888e61e2cb)" d="M 84.390288 92.30058 
L 83.475752 93.043183 
L 82.561217 93.785785 
L 81.646682 94.528388 
L 80.732147 95.27099 
L 79.817612 96.013593 
L 78.903077 96.756195 
L 77.988542 97.498798 
L 77.074007 98.2414 
L 76.23103 99.053855 
L 75.388052 99.86631 
L 74.545075 100.678765 
L 73.702097 101.491219 
L 72.85912 102.303674 
L 72.016143 103.116129 
L 71.173165 103.928584 
L 70.330188 104.741038 
" style="fill:none;stroke:#008000;stroke-linecap:square;stroke-width:1.5;"/>
   </g>
   <g id="line2d_22">
    <path clip-path="url(#p888e61e2cb)" d="M 62.59298 116.326917 
L 61.207848 115.959348 
L 59.822716 115.59178 
L 58.483044 114.988882 
L 57.143372 114.385984 
L 56.13483 114.077425 
L 55.126288 113.768866 
L 53.99708 113.827876 
L 52.867872 113.886887 
L 51.212224 114.385984 
L 50.218835 115.032961 
L 49.225446 115.679939 
L 48.051339 116.651117 
L 47.448571 117.885351 
L 47.313313 119.399706 
L 47.178055 120.91406 
L 47.34362 122.766834 
L 47.509185 124.619608 
L 47.855468 125.876948 
L 48.201751 127.134289 
L 48.548034 128.39163 
L 48.894317 129.648971 
L 49.466217 131.339645 
L 50.038117 133.030318 
L 50.610017 134.720992 
L 51.181917 136.411666 
L 51.66458 137.735482 
L 51.693765 139.411936 
L 51.5282 140.89643 
L 51.362635 142.380924 
L 51.272276 143.946824 
L 51.181917 145.512723 
L 51.091558 147.078623 
L 51.001199 148.644522 
L 50.896248 150.070717 
L 50.791296 151.496912 
L 50.399553 152.556249 
L 49.345551 153.820344 
" style="fill:none;stroke:#008000;stroke-linecap:square;stroke-width:1.5;"/>
   </g>
   <g id="line2d_23">
    <path clip-path="url(#p888e61e2cb)" d="M 105.947386 128.825674 
L 106.278516 130.516348 
L 106.609645 132.207022 
L 106.940775 133.897695 
L 107.271904 135.588369 
L 107.36984 136.80874 
L 107.467776 138.02911 
L 107.565712 139.249481 
L 107.663647 140.469852 
L 107.362263 141.940126 
L 107.060879 143.410401 
L 106.473826 144.498888 
L 105.886772 145.587375 
L 105.051372 146.476791 
L 104.215971 147.366208 
L 103.38057 148.255625 
L 102.54517 149.145041 
L 101.461422 149.953764 
L 100.377674 150.762486 
L 99.293926 151.571208 
L 98.210178 152.37993 
L 97.013341 153.034018 
L 95.816504 153.688105 
L 94.619667 154.342192 
L 93.42283 154.99628 
L 92.030402 155.760922 
L 90.637974 156.525565 
L 89.245545 157.290207 
L 87.853117 158.054849 
L 86.904628 158.532618 
L 85.956138 159.010386 
L 85.007648 159.488154 
L 84.059158 159.965922 
L 83.088219 160.135132 
L 82.117279 160.304341 
L 81.14634 160.473551 
L 80.175401 160.64276 
L 79.076499 160.694305 
L 77.977598 160.74585 
L 76.878697 160.797395 
L 75.779795 160.84894 
" style="fill:none;stroke:#008000;stroke-linecap:square;stroke-width:1.5;"/>
   </g>
   <g id="line2d_24">
    <path clip-path="url(#p888e61e2cb)" d="M 66.507044 139.734714 
L 65.291406 141.109542 
L 64.075767 142.48437 
L 62.860128 143.859198 
L 61.64449 145.234025 
L 60.428851 146.608853 
L 59.213213 147.983681 
L 57.997574 149.358508 
L 56.781936 150.733336 
" style="fill:none;stroke:#000000;stroke-linecap:square;stroke-width:1.5;"/>
   </g>
   <g id="line2d_25">
    <path clip-path="url(#p888e61e2cb)" d="M 28.421527 63.510781 
L 27.8645 62.591504 
L 27.307473 61.672227 
L 26.750445 60.75295 
L 26.193418 59.833672 
" style="fill:none;stroke:#008000;stroke-linecap:square;stroke-width:1.5;"/>
   </g>
   <g id="line2d_26">
    <path clip-path="url(#p888e61e2cb)" d="M 78.007905 111.180955 
L 76.457208 110.09318 
L 74.906511 109.005404 
L 73.054992 108.416725 
L 71.203472 107.828046 
L 69.803748 107.372318 
L 68.404024 106.91659 
L 67.515586 106.343552 
L 66.627149 105.770515 
L 65.332937 104.3884 
L 65.152219 103.035434 
L 64.971501 101.682469 
L 64.68527 99.961934 
L 64.399039 98.2414 
L 64.06791 96.830136 
L 63.73678 95.418871 
L 62.878649 94.242225 
L 62.020519 93.065578 
L 60.891872 92.006952 
L 59.763225 90.948326 
L 58.829888 90.293883 
L 57.896552 89.63944 
L 56.963215 88.984997 
L 56.029879 88.330554 
L 55.051082 87.948766 
L 54.072286 87.566978 
L 52.807819 87.478819 
L 51.543353 87.390659 
L 50.489632 87.405234 
L 49.43591 87.419809 
L 48.382188 87.434383 
L 47.328466 87.448958 
L 45.763177 87.845676 
L 44.197889 88.242395 
L 42.872809 88.286474 
L 41.547729 88.330554 
L 40.26811 87.918906 
L 38.98849 87.507257 
L 38.010255 86.78705 
L 37.032019 86.066843 
L 36.264248 85.037366 
L 35.496476 84.00789 
L 34.886973 82.647814 
L 34.27747 81.287739 
L 33.667967 79.927664 
L 33.058464 78.567589 
L 32.305565 76.942679 
L 31.552666 75.31777 
L 30.799767 73.69286 
L 30.046869 72.067951 
L 29.760918 70.84758 
L 29.474968 69.627209 
L 29.189018 68.406839 
L 28.903068 67.186468 
L 28.662298 65.348625 
L 28.421527 63.510781 
" style="fill:none;stroke:#008000;stroke-linecap:square;stroke-width:1.5;"/>
   </g>
   <g id="line2d_27">
    <path clip-path="url(#p888e61e2cb)" d="M 26.193418 59.833672 
L 25.154569 58.569577 
L 24.11572 57.305482 
L 22.776048 56.290936 
L 21.436376 55.276389 
L 20.111858 54.952901 
L 18.78734 54.629412 
L 17.101385 54.379152 
L 15.41543 54.128893 
L 13.654269 53.937643 
L 11.893109 53.746394 
" style="fill:none;stroke:#008000;stroke-linecap:square;stroke-width:1.5;"/>
   </g>
   <g id="line2d_28">
    <path clip-path="url(#p888e61e2cb)" d="M 96.343505 76.274017 
L 95.331034 75.674852 
L 94.318563 75.075686 
L 93.306092 74.476521 
L 92.293622 73.877355 
L 91.281151 73.27819 
L 90.26868 72.679025 
L 89.256209 72.079859 
L 88.243738 71.480694 
L 86.806131 70.612962 
L 85.368523 69.745229 
L 83.930915 68.877497 
L 82.493308 68.009765 
L 81.447163 67.576076 
L 80.401018 67.142388 
L 79.354873 66.7087 
L 78.308728 66.275011 
L 76.991505 66.061722 
L 75.674283 65.848433 
L 74.357061 65.635143 
L 73.039838 65.421854 
L 72.008847 65.274684 
L 70.977855 65.127515 
L 69.946863 64.980345 
L 68.915872 64.833175 
L 67.410354 64.576161 
L 65.904837 64.319148 
L 64.39932 64.062134 
L 62.893803 63.80512 
L 61.411016 63.466701 
L 59.928228 63.128282 
L 58.445441 62.789863 
L 56.962654 62.451444 
L 55.841303 62.24562 
L 54.719953 62.039795 
L 53.598602 61.833971 
L 52.477251 61.628147 
L 51.114849 61.436897 
L 49.752447 61.245648 
L 48.390045 61.054399 
L 47.027644 60.863149 
L 45.80078 60.466075 
L 44.573917 60.069002 
L 43.347054 59.671928 
L 42.120191 59.274854 
L 41.179277 58.782511 
L 40.238364 58.290168 
L 39.297451 57.797825 
L 38.356538 57.305482 
L 37.332842 56.900944 
L 36.309147 56.496405 
L 35.285451 56.091866 
L 34.261756 55.687327 
L 33.26079 55.437423 
L 32.259825 55.187519 
L 31.258859 54.937615 
L 30.257894 54.687711 
L 28.865465 54.658206 
L 27.473037 54.628701 
L 26.080609 54.599196 
L 24.688181 54.569691 
" style="fill:none;stroke:#4169e1;stroke-linecap:square;stroke-width:1.5;"/>
   </g>
   <g id="line2d_29">
    <path clip-path="url(#p888e61e2cb)" d="M 109.018473 136.265207 
L 110.342991 136.478497 
L 111.667509 136.691786 
L 112.992028 136.905075 
L 114.316546 137.118365 
L 115.656499 137.368269 
L 116.996451 137.618173 
L 118.336404 137.868077 
L 119.676356 138.117981 
L 121.023604 138.33127 
L 122.370853 138.54456 
L 123.718101 138.757849 
L 125.06535 138.971138 
" style="fill:none;stroke:#008000;stroke-linecap:square;stroke-width:1.5;"/>
   </g>
   <g id="line2d_30">
    <path clip-path="url(#p888e61e2cb)" d="M 108.084575 117.620872 
L 107.791048 118.797163 
L 107.497521 119.973454 
L 107.203995 121.149745 
L 106.910468 122.326036 
L 106.541735 123.326008 
L 106.173003 124.325979 
L 105.804271 125.325951 
L 105.435538 126.325923 
L 104.517355 127.649028 
L 103.599172 128.972133 
L 102.620375 129.85444 
L 101.641579 130.736747 
L 100.2716 131.398655 
L 98.901621 132.060563 
L 97.501897 132.648531 
L 96.102173 133.236498 
L 94.942939 133.508442 
L 93.783705 133.780386 
L 92.624471 134.05233 
L 91.465236 134.324274 
L 89.598563 134.427364 
L 87.73189 134.530454 
L 85.985883 134.295124 
L 84.239876 134.059795 
L 83.050616 133.640682 
L 81.861355 133.221568 
L 80.672095 132.802454 
L 79.482835 132.383341 
L 78.459139 131.714323 
L 77.435443 131.045305 
L 76.411748 130.376288 
L 75.388052 129.70727 
L 74.605408 129.082332 
L 73.822763 128.457394 
L 73.040119 127.832457 
L 72.257474 127.207519 
L 71.286535 125.972573 
L 70.315596 124.737628 
L 69.344656 123.502682 
L 68.373717 122.267737 
L 67.380328 121.28234 
L 66.386939 120.296943 
" style="fill:none;stroke:#008000;stroke-linecap:square;stroke-width:1.5;"/>
   </g>
   <g id="line2d_31">
    <path clip-path="url(#p888e61e2cb)" d="M 127.594282 75.21468 
L 128.542491 74.222173 
L 129.490701 73.229667 
L 130.43891 72.23716 
L 131.387119 71.244654 
L 132.358339 70.75942 
L 133.329559 70.274187 
L 134.300779 69.788954 
L 135.271999 69.30372 
L 136.498862 69.090431 
L 137.725726 68.877142 
L 138.952589 68.663852 
L 140.179452 68.450563 
L 141.308379 68.288818 
L 142.437307 68.127074 
L 143.566234 67.96533 
L 144.695162 67.803585 
L 145.816513 67.818515 
L 146.937863 67.833446 
L 148.059214 67.848376 
L 149.180565 67.863306 
L 150.851927 68.612663 
L 152.52329 69.362019 
L 153.501526 70.127017 
L 154.479761 70.892015 
L 155.081968 72.038801 
L 155.684175 73.185587 
L 156.13597 74.097044 
L 156.587766 75.0085 
" style="fill:none;stroke:#008000;stroke-linecap:square;stroke-width:1.5;"/>
   </g>
   <g id="line2d_32">
    <path clip-path="url(#p888e61e2cb)" d="M 60.907025 39.100524 
L 59.928509 40.629808 
L 58.949993 42.159093 
L 57.971477 43.688378 
L 56.992961 45.217663 
L 56.624228 46.283754 
L 56.255496 47.349845 
L 55.886764 48.415937 
L 55.518031 49.482028 
L 55.457698 50.636279 
L 55.397365 51.79053 
L 55.337032 52.944781 
L 55.276699 54.099032 
L 55.051082 55.496078 
L 54.825465 56.893123 
L 53.832076 58.305099 
L 52.748328 59.246416 
L 51.66458 60.187733 
" style="fill:none;stroke:#4169e1;stroke-linecap:square;stroke-width:1.5;"/>
   </g>
   <g id="line2d_33">
    <path clip-path="url(#p888e61e2cb)" d="M 164.083642 81.331819 
L 164.949349 81.853667 
L 165.815057 82.375515 
L 166.680764 82.897363 
L 167.546472 83.419211 
L 168.539861 83.831215 
L 169.533249 84.243219 
L 170.526638 84.655223 
L 171.520027 85.067227 
L 173.085877 85.375785 
L 174.651727 85.684344 
L 176.126657 85.552105 
L 177.601587 85.419865 
L 179.348155 85.022436 
L 181.094724 84.625007 
L 182.065663 84.390033 
L 183.036602 84.155059 
L 184.007542 83.920085 
L 184.978481 83.685112 
L 186.498871 83.611171 
L 188.019261 83.537231 
L 189.63001 83.86072 
L 191.240759 84.184209 
L 192.986766 84.802037 
L 194.732773 85.419865 
L 195.809225 85.787434 
L 196.885677 86.155003 
L 197.962129 86.522571 
L 199.038581 86.89014 
L 200.769435 86.919289 
L 202.500288 86.948439 
L 203.493958 86.71311 
L 204.487627 86.47778 
L 205.481297 86.242451 
L 206.474966 86.007122 
L 208.281025 85.419154 
L 210.087085 84.831187 
" style="fill:none;stroke:#008000;stroke-linecap:square;stroke-width:1.5;"/>
   </g>
   <g id="line2d_34">
    <path clip-path="url(#p888e61e2cb)" d="M 165.619185 75.627039 
L 166.620431 75.634149 
L 167.621678 75.641259 
L 168.622924 75.648368 
L 169.62417 75.655478 
L 170.752817 75.450009 
L 171.881463 75.24454 
L 173.567418 74.509403 
L 174.440702 74.038744 
L 175.313987 73.568086 
L 176.187271 73.097427 
L 177.060555 72.626769 
L 177.963585 72.053731 
L 178.866614 71.480694 
L 180.071028 71.303664 
L 181.275442 71.126634 
L 182.524755 71.097484 
L 183.774067 71.068334 
L 184.722557 71.332813 
L 185.671047 71.597292 
L 186.92036 72.0971 
L 188.169673 72.596908 
L 189.569677 73.332401 
L 190.969682 74.067894 
L 192.369687 74.803387 
L 193.769691 75.53888 
L 194.928645 76.104807 
L 196.087599 76.670735 
L 197.246552 77.236663 
L 198.405506 77.802591 
L 199.549867 78.832068 
L 200.694229 79.861544 
L 201.424398 80.809971 
L 202.154566 81.758398 
L 202.884735 82.706824 
L 203.614904 83.655251 
" style="fill:none;stroke:#008000;stroke-linecap:square;stroke-width:1.5;"/>
   </g>
   <g id="line2d_35">
    <path clip-path="url(#p888e61e2cb)" d="M 143.821878 95.623629 
L 144.664855 96.263497 
L 145.507832 96.903365 
L 146.35081 97.543233 
L 147.193787 98.183101 
L 148.172584 99.432977 
L 149.151381 100.682853 
L 149.467357 101.653319 
L 149.783333 102.623786 
L 149.692974 103.770572 
L 149.602615 104.917358 
L 149.481949 106.372702 
L 149.361283 107.828046 
L 149.572308 109.65096 
L 149.873131 110.710297 
L 150.173954 111.769634 
" style="fill:none;stroke:#008000;stroke-linecap:square;stroke-width:1.5;"/>
   </g>
   <g id="line2d_36">
    <path clip-path="url(#p888e61e2cb)" d="M 84.330796 32.248247 
L 82.881894 32.512904 
L 81.432991 32.77756 
L 79.984089 33.042217 
L 78.535187 33.306873 
L 77.086284 33.57153 
L 75.637382 33.836186 
L 74.188479 34.100843 
L 72.739577 34.3655 
L 71.290674 34.630156 
L 69.841772 34.894813 
L 68.392869 35.159469 
L 66.943967 35.424126 
L 65.495064 35.688782 
L 64.046162 35.953439 
L 62.597259 36.218096 
L 61.148357 36.482752 
L 59.505617 36.854053 
L 57.862878 37.225355 
L 56.220138 37.596656 
L 54.577399 37.967957 
L 52.934659 38.339258 
L 51.291919 38.71056 
L 49.64918 39.081861 
L 48.00644 39.453162 
L 46.363701 39.824463 
L 44.720961 40.195765 
L 43.078222 40.567066 
L 41.435482 40.938367 
L 39.792742 41.309668 
L 38.150003 41.68097 
L 36.507263 42.052271 
L 34.864524 42.423572 
L 33.336557 42.719511 
L 31.80859 43.01545 
L 30.280624 43.311389 
L 28.752657 43.607328 
L 27.22469 43.903267 
L 25.696724 44.199206 
L 24.168757 44.495145 
L 22.64079 44.791084 
L 21.112823 45.087023 
L 19.584857 45.382962 
L 18.05689 45.678901 
L 16.528923 45.97484 
L 15.000957 46.270779 
L 13.47299 46.566718 
L 11.945023 46.862657 
L 10.417057 47.158596 
" style="fill:none;stroke:#4169e1;stroke-linecap:square;stroke-width:1.5;"/>
   </g>
   <g id="line2d_37">
    <path clip-path="url(#p888e61e2cb)" d="M 105.947386 83.978029 
L 105.014049 84.860336 
L 104.080713 85.742643 
L 103.147376 86.62495 
L 102.21404 87.507257 
L 101.250397 88.757133 
L 100.286753 90.007009 
L 99.774906 91.139575 
L 99.263058 92.272142 
L 98.947082 93.742416 
L 98.631105 95.212691 
L 97.968846 96.594806 
L 97.306587 97.976921 
L 96.071866 99.432266 
L 94.837146 100.88761 
L 94.031771 101.689223 
L 93.226397 102.490835 
L 92.421022 103.292448 
L 91.615648 104.094061 
L 90.215924 105.439206 
L 88.816199 106.78435 
L 87.416475 108.129495 
L 86.016751 109.47464 
L 84.898908 110.606851 
L 83.781065 111.739063 
L 82.663222 112.871274 
L 81.545379 114.003485 
L 80.427536 115.135696 
L 79.309693 116.267907 
L 78.19185 117.400118 
L 77.074007 118.532329 
" style="fill:none;stroke:#008000;stroke-linecap:square;stroke-width:1.5;"/>
   </g>
   <g id="line2d_38">
    <path clip-path="url(#p888e61e2cb)" d="M 97.487305 82.008657 
L 96.433583 82.541703 
L 95.379862 83.074749 
L 94.32614 83.607794 
L 93.272418 84.14084 
L 92.218696 84.673886 
L 91.164975 85.206931 
L 90.111253 85.739977 
L 89.057531 86.273023 
L 88.127983 86.640591 
L 87.198435 87.00816 
L 86.268887 87.375729 
L 85.339339 87.743297 
L 84.40979 88.110866 
L 83.480242 88.478435 
L 82.550694 88.846003 
L 81.621146 89.213572 
L 80.669008 89.492981 
L 79.71687 89.77239 
L 78.764732 90.051799 
L 77.812594 90.331208 
L 76.860456 90.610618 
L 75.908319 90.890027 
L 74.956181 91.169436 
L 74.004043 91.448845 
L 72.144946 91.845563 
L 70.28585 92.242281 
L 68.426754 92.638999 
L 66.567658 93.035718 
" style="fill:none;stroke:#4169e1;stroke-linecap:square;stroke-width:1.5;"/>
   </g>
   <g id="line2d_39">
    <path clip-path="url(#p888e61e2cb)" d="M 156.135409 82.302997 
L 156.188165 83.519635 
L 156.240921 84.736273 
L 156.293678 85.952911 
L 156.346434 87.169549 
L 156.39919 88.386187 
L 156.451946 89.602825 
L 156.504703 90.819463 
L 156.557459 92.036101 
L 156.384317 93.418217 
L 156.211176 94.800332 
L 156.038034 96.182447 
L 155.864893 97.564562 
L 155.51861 99.064342 
L 155.172327 100.564121 
L 154.826044 102.063901 
L 154.479761 103.563681 
L 154.043119 104.821022 
L 153.606477 106.078363 
L 153.169835 107.335704 
L 152.733193 108.593044 
L 152.334434 109.85003 
L 151.935675 111.107015 
L 151.536917 112.364 
L 151.138158 113.620986 
L 151.047799 114.731157 
L 150.95744 115.841328 
L 150.867081 116.951499 
L 150.776722 118.06167 
L 150.114463 119.826285 
L 149.452203 121.590899 
L 148.578919 123.046599 
L 147.705635 124.502298 
L 146.832351 125.957998 
L 145.959067 127.413698 
L 145.541366 128.28854 
L 145.123666 129.163382 
L 144.705966 130.038224 
L 144.288265 130.913066 
L 143.870565 131.787908 
L 143.452865 132.66275 
L 143.035164 133.537592 
L 142.617464 134.412434 
L 142.165949 135.632804 
L 141.714434 136.853175 
L 141.262919 138.073546 
L 140.811404 139.293916 
L 140.156441 140.286423 
L 139.501478 141.278929 
L 138.846515 142.271436 
L 138.191552 143.263942 
L 137.416484 144.094705 
L 136.641416 144.925467 
L 135.866349 145.756229 
L 135.091281 146.586991 
L 133.984803 147.807362 
L 132.878325 149.027732 
L 131.771847 150.248103 
L 130.665369 151.468474 
L 129.551314 152.33585 
L 128.43726 153.203227 
L 127.323205 154.070604 
L 126.20915 154.937981 
L 124.869478 155.798248 
L 123.529807 156.658515 
L 122.190135 157.518782 
L 120.850463 158.379049 
L 119.307343 159.172841 
L 117.764223 159.966633 
L 116.221103 160.760425 
L 114.677983 161.554217 
L 112.939272 162.384979 
L 111.200561 163.215741 
L 109.46185 164.046503 
L 107.723139 164.877265 
L 106.458672 165.656483 
L 105.194206 166.4357 
L 103.92974 167.214917 
L 102.665274 167.994134 
L 101.250397 169.30302 
L 99.835519 170.611906 
L 98.8194 171.861426 
L 97.803281 173.110946 
L 96.787162 174.360466 
L 95.771044 175.609986 
L 95.081845 176.393469 
L 94.064884 177.550209 
L 93.047924 178.706948 
L 92.030963 179.863687 
L 91.014002 181.020427 
L 90.125845 181.726415 
L 89.237688 182.432402 
L 88.349531 183.13839 
L 87.461374 183.844378 
L 86.181755 184.711755 
L 84.902135 185.579132 
L 83.622516 186.446508 
L 82.342896 187.313885 
L 80.973198 188.254847 
L 79.6035 189.195808 
L 78.233802 190.13677 
L 76.864105 191.077732 
L 75.855562 191.570075 
L 74.84702 192.062418 
L 73.838478 192.55476 
L 72.829936 193.047103 
L 71.128828 193.473682 
L 69.427719 193.900261 
" style="fill:none;stroke:#008000;stroke-linecap:square;stroke-width:1.5;"/>
   </g>
   <g id="line2d_40">
    <path clip-path="url(#p888e61e2cb)" d="M 118.622354 86.625661 
L 118.313673 87.706327 
L 118.004993 88.786993 
L 117.696313 89.86766 
L 117.387633 90.948326 
L 116.845759 92.051032 
L 116.303885 93.153738 
L 115.762011 94.256444 
L 115.220137 95.35915 
L 114.309531 96.925049 
L 113.398924 98.490949 
L 112.488318 100.056848 
L 111.577712 101.622748 
L 111.005671 102.604234 
L 110.433631 103.585721 
L 109.86159 104.567207 
L 109.28955 105.548694 
L 108.71751 106.530181 
L 108.145469 107.511667 
L 107.573429 108.493154 
L 107.001388 109.47464 
L 105.932233 110.386808 
L 104.863077 111.298975 
L 104.30633 112.225362 
L 103.749583 113.151749 
L 103.410877 114.136791 
L 103.072171 115.121832 
L 102.733464 116.106873 
L 102.394758 117.091915 
L 101.867757 118.113926 
L 101.340756 119.135938 
L 100.813755 120.157949 
L 100.286753 121.179961 
L 99.752456 122.13923 
L 99.218159 123.098499 
L 98.683862 124.057768 
L 98.149564 125.017037 
L 97.615267 125.976306 
L 97.08097 126.935575 
L 96.546673 127.894844 
L 96.012375 128.854113 
L 95.168837 130.368467 
L 94.325298 131.882822 
" style="fill:none;stroke:#008000;stroke-linecap:square;stroke-width:1.5;"/>
   </g>
   <g id="line2d_41">
    <path clip-path="url(#p888e61e2cb)" d="M 111.095048 116.120737 
L 112.14891 117.392653 
L 113.202772 118.664568 
L 114.256634 119.936484 
L 115.310496 121.2084 
L 116.364358 122.480315 
L 117.41822 123.752231 
L 118.472083 125.024146 
L 119.525945 126.296062 
L 120.128011 127.185657 
L 120.730078 128.075251 
L 121.332144 128.964845 
L 121.934211 129.85444 
L 122.536277 130.744034 
L 123.138344 131.633629 
L 123.740411 132.523223 
L 124.342477 133.412817 
L 125.147852 134.302234 
L 125.953226 135.191651 
L 126.758601 136.081067 
L 127.563975 136.970484 
" style="fill:none;stroke:#4169e1;stroke-linecap:square;stroke-width:1.5;"/>
   </g>
   <g id="line2d_42">
    <path clip-path="url(#p888e61e2cb)" d="M 191.330557 63.627379 
L 192.045573 64.700936 
L 192.760588 65.774492 
L 193.475603 66.848049 
L 194.190619 67.921605 
L 195.229468 68.825952 
L 196.268317 69.730299 
L 197.307166 70.634646 
L 198.346015 71.538993 
L 199.256621 72.053731 
L 200.167228 72.56847 
L 201.077834 73.083208 
L 201.98844 73.597946 
L 203.448778 74.597563 
L 204.909116 75.597179 
L 206.075646 76.413366 
L 207.242176 77.229553 
L 208.408707 78.045741 
L 209.575237 78.861928 
" style="fill:none;stroke:#008000;stroke-linecap:square;stroke-width:1.5;"/>
   </g>
   <g id="line2d_43">
    <path clip-path="url(#p888e61e2cb)" d="M 86.347881 138.764959 
L 85.419245 140.287623 
L 84.490609 141.810287 
L 83.561972 143.33295 
L 82.633336 144.855614 
L 81.7047 146.378278 
L 80.776064 147.900942 
L 79.847428 149.423606 
L 78.918792 150.94627 
L 77.990156 152.468934 
L 77.061519 153.991598 
L 76.132883 155.514262 
L 75.204247 157.036926 
L 74.275611 158.55959 
L 73.346975 160.082254 
L 72.418339 161.604918 
L 71.489703 163.127582 
L 70.561067 164.650245 
L 69.63243 166.172909 
L 68.703794 167.695573 
L 67.775158 169.218237 
L 66.846522 170.740901 
L 65.917886 172.263565 
L 64.98925 173.786229 
L 64.060614 175.308893 
L 63.131977 176.831557 
L 62.203341 178.354221 
L 61.274705 179.876885 
L 60.346069 181.399549 
L 59.417433 182.922213 
L 58.488797 184.444877 
L 57.560161 185.96754 
L 56.631525 187.490204 
" style="fill:none;stroke:#000000;stroke-linecap:square;stroke-width:1.5;"/>
   </g>
   <g id="line2d_44">
    <path clip-path="url(#p888e61e2cb)" d="M 77.79688 139.676415 
L 76.946361 141.003342 
L 76.095842 142.330268 
L 75.245323 143.657195 
L 74.394804 144.984121 
L 73.544285 146.311048 
L 72.693766 147.637974 
L 71.843247 148.964901 
L 70.992728 150.291827 
L 70.142209 151.618754 
L 69.29169 152.94568 
L 68.441171 154.272607 
L 67.590652 155.599533 
L 66.740133 156.92646 
L 65.889614 158.253386 
L 65.039095 159.580313 
L 64.188576 160.907239 
L 63.338057 162.234166 
L 62.487538 163.561092 
L 61.637019 164.888019 
L 60.7865 166.214945 
L 59.93598 167.541872 
L 59.085461 168.868798 
L 58.234942 170.195725 
L 57.384423 171.522651 
L 56.533904 172.849578 
L 55.683385 174.176504 
L 54.832866 175.503431 
L 53.982347 176.830357 
L 53.131828 178.157284 
L 52.281309 179.48421 
L 51.43079 180.811137 
L 50.580271 182.138063 
" style="fill:none;stroke:#000000;stroke-linecap:square;stroke-width:1.5;"/>
   </g>
   <g id="line2d_45">
    <path clip-path="url(#p888e61e2cb)" d="M 132.652147 83.272752 
L 133.638239 83.85361 
L 134.624332 84.434468 
L 135.610425 85.015326 
L 136.596517 85.596184 
L 137.243623 86.404907 
L 137.890729 87.213629 
L 138.537835 88.022351 
L 139.184941 88.831073 
L 139.877507 90.110098 
L 140.570073 91.389124 
L 141.202586 92.50676 
L 141.8351 93.624396 
L 141.940051 95.153681 
L 142.045003 96.682966 
L 141.623514 98.006071 
L 141.202025 99.329176 
L 140.728061 100.373227 
L 140.254096 101.417279 
L 139.780132 102.46133 
L 139.306168 103.505382 
L 138.975038 104.711178 
L 138.643909 105.916974 
L 138.312779 107.12277 
L 137.981649 108.328566 
L 137.725726 109.850385 
L 137.469802 111.372205 
L 137.213878 112.894025 
L 136.957954 114.415844 
L 136.6793 115.67283 
L 136.400646 116.929815 
L 136.121992 118.1868 
L 135.843338 119.443786 
L 135.561036 120.417985 
L 135.278734 121.392184 
L 134.996432 122.366383 
L 134.71413 123.340582 
L 134.431828 124.314782 
L 134.149526 125.288981 
L 133.867224 126.26318 
L 133.584922 127.237379 
L 133.197388 128.215133 
L 132.809854 129.192887 
L 132.42232 130.170641 
L 132.034786 131.148395 
L 131.647252 132.126149 
L 131.259718 133.103903 
L 130.872185 134.081657 
L 130.484651 135.059411 
L 129.905174 136.853175 
L 129.325697 138.646939 
L 128.74622 140.440702 
L 128.166744 142.234466 
L 127.692499 143.138813 
L 127.218254 144.04316 
L 126.744009 144.947507 
L 126.269764 145.851854 
L 125.30612 147.130879 
L 124.342477 148.409904 
L 123.047704 149.46853 
L 121.752931 150.527157 
L 120.608851 151.306374 
L 119.46477 152.085591 
L 118.320689 152.864808 
L 117.176608 153.644025 
L 116.26965 154.173338 
L 115.362691 154.702651 
L 114.455733 155.231965 
L 113.548775 155.761278 
L 112.641816 156.290591 
L 111.734858 156.819904 
L 110.8279 157.349217 
L 109.920941 157.87853 
L 108.55882 158.577053 
L 107.196699 159.275576 
L 105.834577 159.974098 
L 104.472456 160.672621 
L 103.14008 161.672237 
L 101.807705 162.671853 
L 100.475329 163.671469 
L 99.142953 164.671086 
L 98.066501 165.656127 
L 96.99005 166.641168 
L 95.913598 167.62621 
L 94.837146 168.611251 
L 94.076951 169.379626 
L 93.316756 170.148001 
L 92.556561 170.916376 
L 91.796366 171.684751 
L 91.036171 172.453126 
L 90.275976 173.221501 
L 89.515781 173.989876 
L 88.755586 174.758251 
L 87.596632 175.713787 
L 86.437679 176.669324 
L 85.278725 177.62486 
L 84.119771 178.580396 
L 82.599381 179.286384 
L 81.078991 179.992372 
L 79.633807 180.51422 
L 78.188623 181.036068 
L 76.743439 181.557916 
L 75.298254 182.079764 
L 74.402521 182.542957 
L 73.506787 183.006151 
L 72.611053 183.469344 
L 71.71532 183.932538 
L 70.526059 184.976234 
L 69.336799 186.01993 
L 68.147539 187.063626 
L 66.958278 188.107322 
L 66.356071 188.886539 
L 65.753864 189.665756 
L 65.151658 190.444973 
L 64.549451 191.22419 
" style="fill:none;stroke:#008000;stroke-linecap:square;stroke-width:1.5;"/>
   </g>
   <g id="line2d_46">
    <path clip-path="url(#p888e61e2cb)" d="M 39.440847 133.647436 
L 38.099211 134.55356 
L 36.757575 135.459684 
L 35.415939 136.365809 
L 34.074302 137.271933 
L 32.732666 138.178057 
L 31.39103 139.084182 
L 30.049394 139.990306 
L 28.707758 140.89643 
L 27.366122 141.802555 
L 26.024486 142.708679 
L 24.68285 143.614803 
L 23.341213 144.520928 
L 21.999577 145.427052 
L 20.657941 146.333177 
L 19.316305 147.239301 
L 17.974669 148.145425 
" style="fill:none;stroke:#008000;stroke-linecap:square;stroke-width:1.5;"/>
   </g>
   <g id="line2d_47">
    <path clip-path="url(#p888e61e2cb)" d="M 49.345551 153.820344 
L 48.021032 154.937981 
L 47.102849 155.423569 
L 46.184666 155.909158 
L 45.288933 156.364887 
L 44.393199 156.820615 
L 43.497465 157.276343 
L 42.601732 157.732071 
L 41.585613 158.591983 
L 40.569494 159.451895 
L 39.553375 160.311806 
L 38.537256 161.171718 
L 37.856055 161.939915 
L 37.174854 162.708112 
L 36.493653 163.47631 
L 35.812452 164.244507 
L 35.131251 165.012704 
L 34.45005 165.780901 
L 33.768849 166.549099 
L 33.087649 167.317296 
" style="fill:none;stroke:#008000;stroke-linecap:square;stroke-width:1.5;"/>
   </g>
   <g id="line2d_48">
    <path clip-path="url(#p888e61e2cb)" d="M 101.412594 183.321108 
L 100.563478 183.878504 
L 99.714362 184.435901 
L 98.865246 184.993297 
L 98.01613 185.550693 
L 97.167014 186.108089 
L 96.317899 186.665485 
L 95.468783 187.222882 
L 94.619667 187.780278 
L 93.770551 188.337674 
L 92.921435 188.89507 
L 92.072319 189.452467 
L 91.223203 190.009863 
L 90.374087 190.567259 
L 89.524971 191.124655 
L 88.675855 191.682051 
L 87.826739 192.239448 
L 86.977623 192.796844 
L 86.128507 193.35424 
L 85.279392 193.911636 
L 84.430276 194.469033 
L 83.58116 195.026429 
L 82.732044 195.583825 
L 81.882928 196.141221 
L 81.033812 196.698617 
L 80.184696 197.256014 
L 79.33558 197.81341 
L 78.486464 198.370806 
L 77.637348 198.928202 
L 76.788232 199.485599 
L 75.939116 200.042995 
L 75.09 200.600391 
L 74.240885 201.157787 
" style="fill:none;stroke:#008000;stroke-linecap:square;stroke-width:1.5;"/>
   </g>
   <g id="text_1">
    <g id="patch_2">
     <path d="M 195.103042 81.851731 
L 202.311079 82.182556 
L 202.401658 80.209008 
L 195.193621 79.878184 
z
" style="fill:#ffffff;"/>
    </g>
    <!-- Chair 6 -->
    <g style="fill:#808080;" transform="translate(195.143008 81.417169)rotate(-357.372162)scale(0.02 -0.02)">
     <defs>
      <path d="M 4122 4306 
L 4122 3641 
Q 3803 3938 3442 4084 
Q 3081 4231 2675 4231 
Q 1875 4231 1450 3742 
Q 1025 3253 1025 2328 
Q 1025 1406 1450 917 
Q 1875 428 2675 428 
Q 3081 428 3442 575 
Q 3803 722 4122 1019 
L 4122 359 
Q 3791 134 3420 21 
Q 3050 -91 2638 -91 
Q 1578 -91 968 557 
Q 359 1206 359 2328 
Q 359 3453 968 4101 
Q 1578 4750 2638 4750 
Q 3056 4750 3426 4639 
Q 3797 4528 4122 4306 
z
" id="DejaVuSans-43" transform="scale(0.015625)"/>
      <path d="M 3513 2113 
L 3513 0 
L 2938 0 
L 2938 2094 
Q 2938 2591 2744 2837 
Q 2550 3084 2163 3084 
Q 1697 3084 1428 2787 
Q 1159 2491 1159 1978 
L 1159 0 
L 581 0 
L 581 4863 
L 1159 4863 
L 1159 2956 
Q 1366 3272 1645 3428 
Q 1925 3584 2291 3584 
Q 2894 3584 3203 3211 
Q 3513 2838 3513 2113 
z
" id="DejaVuSans-68" transform="scale(0.015625)"/>
      <path d="M 2194 1759 
Q 1497 1759 1228 1600 
Q 959 1441 959 1056 
Q 959 750 1161 570 
Q 1363 391 1709 391 
Q 2188 391 2477 730 
Q 2766 1069 2766 1631 
L 2766 1759 
L 2194 1759 
z
M 3341 1997 
L 3341 0 
L 2766 0 
L 2766 531 
Q 2569 213 2275 61 
Q 1981 -91 1556 -91 
Q 1019 -91 701 211 
Q 384 513 384 1019 
Q 384 1609 779 1909 
Q 1175 2209 1959 2209 
L 2766 2209 
L 2766 2266 
Q 2766 2663 2505 2880 
Q 2244 3097 1772 3097 
Q 1472 3097 1187 3025 
Q 903 2953 641 2809 
L 641 3341 
Q 956 3463 1253 3523 
Q 1550 3584 1831 3584 
Q 2591 3584 2966 3190 
Q 3341 2797 3341 1997 
z
" id="DejaVuSans-61" transform="scale(0.015625)"/>
      <path d="M 603 3500 
L 1178 3500 
L 1178 0 
L 603 0 
L 603 3500 
z
M 603 4863 
L 1178 4863 
L 1178 4134 
L 603 4134 
L 603 4863 
z
" id="DejaVuSans-69" transform="scale(0.015625)"/>
      <path d="M 2631 2963 
Q 2534 3019 2420 3045 
Q 2306 3072 2169 3072 
Q 1681 3072 1420 2755 
Q 1159 2438 1159 1844 
L 1159 0 
L 581 0 
L 581 3500 
L 1159 3500 
L 1159 2956 
Q 1341 3275 1631 3429 
Q 1922 3584 2338 3584 
Q 2397 3584 2469 3576 
Q 2541 3569 2628 3553 
L 2631 2963 
z
" id="DejaVuSans-72" transform="scale(0.015625)"/>
      <path id="DejaVuSans-20" transform="scale(0.015625)"/>
      <path d="M 2113 2584 
Q 1688 2584 1439 2293 
Q 1191 2003 1191 1497 
Q 1191 994 1439 701 
Q 1688 409 2113 409 
Q 2538 409 2786 701 
Q 3034 994 3034 1497 
Q 3034 2003 2786 2293 
Q 2538 2584 2113 2584 
z
M 3366 4563 
L 3366 3988 
Q 3128 4100 2886 4159 
Q 2644 4219 2406 4219 
Q 1781 4219 1451 3797 
Q 1122 3375 1075 2522 
Q 1259 2794 1537 2939 
Q 1816 3084 2150 3084 
Q 2853 3084 3261 2657 
Q 3669 2231 3669 1497 
Q 3669 778 3244 343 
Q 2819 -91 2113 -91 
Q 1303 -91 875 529 
Q 447 1150 447 2328 
Q 447 3434 972 4092 
Q 1497 4750 2381 4750 
Q 2619 4750 2861 4703 
Q 3103 4656 3366 4563 
z
" id="DejaVuSans-36" transform="scale(0.015625)"/>
     </defs>
     <use xlink:href="#DejaVuSans-43"/>
     <use x="69.824219" xlink:href="#DejaVuSans-68"/>
     <use x="133.203125" xlink:href="#DejaVuSans-61"/>
     <use x="194.482422" xlink:href="#DejaVuSans-69"/>
     <use x="222.265625" xlink:href="#DejaVuSans-72"/>
     <use x="263.378906" xlink:href="#DejaVuSans-20"/>
     <use x="295.166016" xlink:href="#DejaVuSans-36"/>
    </g>
   </g>
   <g id="text_2">
    <g id="patch_3">
     <path d="M 34.1118 164.239327 
L 39.607202 159.563239 
L 38.326898 158.058608 
L 32.831495 162.734695 
z
" style="fill:#ffffff;"/>
    </g>
    <!-- Chair 1 -->
    <g style="fill:#808080;" transform="translate(33.844522 163.894357)rotate(-40.394762)scale(0.02 -0.02)">
     <defs>
      <path d="M 794 531 
L 1825 531 
L 1825 4091 
L 703 3866 
L 703 4441 
L 1819 4666 
L 2450 4666 
L 2450 531 
L 3481 531 
L 3481 0 
L 794 0 
L 794 531 
z
" id="DejaVuSans-31" transform="scale(0.015625)"/>
     </defs>
     <use xlink:href="#DejaVuSans-43"/>
     <use x="69.824219" xlink:href="#DejaVuSans-68"/>
     <use x="133.203125" xlink:href="#DejaVuSans-61"/>
     <use x="194.482422" xlink:href="#DejaVuSans-69"/>
     <use x="222.265625" xlink:href="#DejaVuSans-72"/>
     <use x="263.378906" xlink:href="#DejaVuSans-20"/>
     <use x="295.166016" xlink:href="#DejaVuSans-31"/>
    </g>
   </g>
   <g id="text_3">
    <g id="patch_4">
     <path d="M 90.899177 49.32906 
L 96.311181 54.101423 
L 97.617845 52.619626 
L 92.205841 47.847263 
z
" style="fill:#ffffff;"/>
    </g>
    <!-- Chair 4 -->
    <g style="fill:#808080;" transform="translate(91.202503 49.015317)rotate(-318.593807)scale(0.02 -0.02)">
     <defs>
      <path d="M 2419 4116 
L 825 1625 
L 2419 1625 
L 2419 4116 
z
M 2253 4666 
L 3047 4666 
L 3047 1625 
L 3713 1625 
L 3713 1100 
L 3047 1100 
L 3047 0 
L 2419 0 
L 2419 1100 
L 313 1100 
L 313 1709 
L 2253 4666 
z
" id="DejaVuSans-34" transform="scale(0.015625)"/>
     </defs>
     <use xlink:href="#DejaVuSans-43"/>
     <use x="69.824219" xlink:href="#DejaVuSans-68"/>
     <use x="133.203125" xlink:href="#DejaVuSans-61"/>
     <use x="194.482422" xlink:href="#DejaVuSans-69"/>
     <use x="222.265625" xlink:href="#DejaVuSans-72"/>
     <use x="263.378906" xlink:href="#DejaVuSans-20"/>
     <use x="295.166016" xlink:href="#DejaVuSans-34"/>
    </g>
   </g>
   <g id="text_4">
    <g id="patch_5">
     <path d="M 43.759094 45.70117 
L 50.882567 44.551655 
L 50.567832 42.601262 
L 43.444359 43.750776 
z
" style="fill:#ffffff;"/>
    </g>
    <!-- Chair 5 -->
    <g style="fill:#808080;" transform="translate(43.70939 45.267614)rotate(-9.166797)scale(0.02 -0.02)">
     <defs>
      <path d="M 691 4666 
L 3169 4666 
L 3169 4134 
L 1269 4134 
L 1269 2991 
Q 1406 3038 1543 3061 
Q 1681 3084 1819 3084 
Q 2600 3084 3056 2656 
Q 3513 2228 3513 1497 
Q 3513 744 3044 326 
Q 2575 -91 1722 -91 
Q 1428 -91 1123 -41 
Q 819 9 494 109 
L 494 744 
Q 775 591 1075 516 
Q 1375 441 1709 441 
Q 2250 441 2565 725 
Q 2881 1009 2881 1497 
Q 2881 1984 2565 2268 
Q 2250 2553 1709 2553 
Q 1456 2553 1204 2497 
Q 953 2441 691 2322 
L 691 4666 
z
" id="DejaVuSans-35" transform="scale(0.015625)"/>
     </defs>
     <use xlink:href="#DejaVuSans-43"/>
     <use x="69.824219" xlink:href="#DejaVuSans-68"/>
     <use x="133.203125" xlink:href="#DejaVuSans-61"/>
     <use x="194.482422" xlink:href="#DejaVuSans-69"/>
     <use x="222.265625" xlink:href="#DejaVuSans-72"/>
     <use x="263.378906" xlink:href="#DejaVuSans-20"/>
     <use x="295.166016" xlink:href="#DejaVuSans-35"/>
    </g>
   </g>
   <g id="text_5">
    <g id="patch_6">
     <path d="M 66.311065 185.354515 
L 70.558516 179.521471 
L 68.961439 178.358527 
L 64.713988 184.191571 
z
" style="fill:#ffffff;"/>
    </g>
    <!-- Chair 2 -->
    <g style="fill:#808080;" transform="translate(65.97043 185.081735)rotate(-53.938998)scale(0.02 -0.02)">
     <defs>
      <path d="M 1228 531 
L 3431 531 
L 3431 0 
L 469 0 
L 469 531 
Q 828 903 1448 1529 
Q 2069 2156 2228 2338 
Q 2531 2678 2651 2914 
Q 2772 3150 2772 3378 
Q 2772 3750 2511 3984 
Q 2250 4219 1831 4219 
Q 1534 4219 1204 4116 
Q 875 4013 500 3803 
L 500 4441 
Q 881 4594 1212 4672 
Q 1544 4750 1819 4750 
Q 2544 4750 2975 4387 
Q 3406 4025 3406 3419 
Q 3406 3131 3298 2873 
Q 3191 2616 2906 2266 
Q 2828 2175 2409 1742 
Q 1991 1309 1228 531 
z
" id="DejaVuSans-32" transform="scale(0.015625)"/>
     </defs>
     <use xlink:href="#DejaVuSans-43"/>
     <use x="69.824219" xlink:href="#DejaVuSans-68"/>
     <use x="133.203125" xlink:href="#DejaVuSans-61"/>
     <use x="194.482422" xlink:href="#DejaVuSans-69"/>
     <use x="222.265625" xlink:href="#DejaVuSans-72"/>
     <use x="263.378906" xlink:href="#DejaVuSans-20"/>
     <use x="295.166016" xlink:href="#DejaVuSans-32"/>
    </g>
   </g>
   <g id="text_6">
    <g id="patch_7">
     <path d="M 63.679884 187.679755 
L 67.925637 181.845475 
L 66.328221 180.682995 
L 62.082468 186.517276 
z
" style="fill:#ffffff;"/>
    </g>
    <!-- Chair 3 -->
    <g style="fill:#808080;" transform="translate(63.339169 187.407073)rotate(-53.955673)scale(0.02 -0.02)">
     <defs>
      <path d="M 2597 2516 
Q 3050 2419 3304 2112 
Q 3559 1806 3559 1356 
Q 3559 666 3084 287 
Q 2609 -91 1734 -91 
Q 1441 -91 1130 -33 
Q 819 25 488 141 
L 488 750 
Q 750 597 1062 519 
Q 1375 441 1716 441 
Q 2309 441 2620 675 
Q 2931 909 2931 1356 
Q 2931 1769 2642 2001 
Q 2353 2234 1838 2234 
L 1294 2234 
L 1294 2753 
L 1863 2753 
Q 2328 2753 2575 2939 
Q 2822 3125 2822 3475 
Q 2822 3834 2567 4026 
Q 2313 4219 1838 4219 
Q 1578 4219 1281 4162 
Q 984 4106 628 3988 
L 628 4550 
Q 988 4650 1302 4700 
Q 1616 4750 1894 4750 
Q 2613 4750 3031 4423 
Q 3450 4097 3450 3541 
Q 3450 3153 3228 2886 
Q 3006 2619 2597 2516 
z
" id="DejaVuSans-33" transform="scale(0.015625)"/>
     </defs>
     <use xlink:href="#DejaVuSans-43"/>
     <use x="69.824219" xlink:href="#DejaVuSans-68"/>
     <use x="133.203125" xlink:href="#DejaVuSans-61"/>
     <use x="194.482422" xlink:href="#DejaVuSans-69"/>
     <use x="222.265625" xlink:href="#DejaVuSans-72"/>
     <use x="263.378906" xlink:href="#DejaVuSans-20"/>
     <use x="295.166016" xlink:href="#DejaVuSans-33"/>
    </g>
   </g>
   <g id="text_7">
    <g id="patch_8">
     <path d="M 196.809749 64.089199 
L 215.277967 71.128761 
L 215.981634 69.282699 
L 197.513416 62.243136 
z
" style="fill:#ffffff;"/>
    </g>
    <!-- Backbone Pass 7.9° -->
    <g style="fill:#008000;" transform="translate(196.983707 63.688974)rotate(-339.134568)scale(0.02 -0.02)">
     <defs>
      <path d="M 1259 2228 
L 1259 519 
L 2272 519 
Q 2781 519 3026 730 
Q 3272 941 3272 1375 
Q 3272 1813 3026 2020 
Q 2781 2228 2272 2228 
L 1259 2228 
z
M 1259 4147 
L 1259 2741 
L 2194 2741 
Q 2656 2741 2882 2914 
Q 3109 3088 3109 3444 
Q 3109 3797 2882 3972 
Q 2656 4147 2194 4147 
L 1259 4147 
z
M 628 4666 
L 2241 4666 
Q 2963 4666 3353 4366 
Q 3744 4066 3744 3513 
Q 3744 3084 3544 2831 
Q 3344 2578 2956 2516 
Q 3422 2416 3680 2098 
Q 3938 1781 3938 1306 
Q 3938 681 3513 340 
Q 3088 0 2303 0 
L 628 0 
L 628 4666 
z
" id="DejaVuSans-42" transform="scale(0.015625)"/>
      <path d="M 3122 3366 
L 3122 2828 
Q 2878 2963 2633 3030 
Q 2388 3097 2138 3097 
Q 1578 3097 1268 2742 
Q 959 2388 959 1747 
Q 959 1106 1268 751 
Q 1578 397 2138 397 
Q 2388 397 2633 464 
Q 2878 531 3122 666 
L 3122 134 
Q 2881 22 2623 -34 
Q 2366 -91 2075 -91 
Q 1284 -91 818 406 
Q 353 903 353 1747 
Q 353 2603 823 3093 
Q 1294 3584 2113 3584 
Q 2378 3584 2631 3529 
Q 2884 3475 3122 3366 
z
" id="DejaVuSans-63" transform="scale(0.015625)"/>
      <path d="M 581 4863 
L 1159 4863 
L 1159 1991 
L 2875 3500 
L 3609 3500 
L 1753 1863 
L 3688 0 
L 2938 0 
L 1159 1709 
L 1159 0 
L 581 0 
L 581 4863 
z
" id="DejaVuSans-6b" transform="scale(0.015625)"/>
      <path d="M 3116 1747 
Q 3116 2381 2855 2742 
Q 2594 3103 2138 3103 
Q 1681 3103 1420 2742 
Q 1159 2381 1159 1747 
Q 1159 1113 1420 752 
Q 1681 391 2138 391 
Q 2594 391 2855 752 
Q 3116 1113 3116 1747 
z
M 1159 2969 
Q 1341 3281 1617 3432 
Q 1894 3584 2278 3584 
Q 2916 3584 3314 3078 
Q 3713 2572 3713 1747 
Q 3713 922 3314 415 
Q 2916 -91 2278 -91 
Q 1894 -91 1617 61 
Q 1341 213 1159 525 
L 1159 0 
L 581 0 
L 581 4863 
L 1159 4863 
L 1159 2969 
z
" id="DejaVuSans-62" transform="scale(0.015625)"/>
      <path d="M 1959 3097 
Q 1497 3097 1228 2736 
Q 959 2375 959 1747 
Q 959 1119 1226 758 
Q 1494 397 1959 397 
Q 2419 397 2687 759 
Q 2956 1122 2956 1747 
Q 2956 2369 2687 2733 
Q 2419 3097 1959 3097 
z
M 1959 3584 
Q 2709 3584 3137 3096 
Q 3566 2609 3566 1747 
Q 3566 888 3137 398 
Q 2709 -91 1959 -91 
Q 1206 -91 779 398 
Q 353 888 353 1747 
Q 353 2609 779 3096 
Q 1206 3584 1959 3584 
z
" id="DejaVuSans-6f" transform="scale(0.015625)"/>
      <path d="M 3513 2113 
L 3513 0 
L 2938 0 
L 2938 2094 
Q 2938 2591 2744 2837 
Q 2550 3084 2163 3084 
Q 1697 3084 1428 2787 
Q 1159 2491 1159 1978 
L 1159 0 
L 581 0 
L 581 3500 
L 1159 3500 
L 1159 2956 
Q 1366 3272 1645 3428 
Q 1925 3584 2291 3584 
Q 2894 3584 3203 3211 
Q 3513 2838 3513 2113 
z
" id="DejaVuSans-6e" transform="scale(0.015625)"/>
      <path d="M 3597 1894 
L 3597 1613 
L 953 1613 
Q 991 1019 1311 708 
Q 1631 397 2203 397 
Q 2534 397 2845 478 
Q 3156 559 3463 722 
L 3463 178 
Q 3153 47 2828 -22 
Q 2503 -91 2169 -91 
Q 1331 -91 842 396 
Q 353 884 353 1716 
Q 353 2575 817 3079 
Q 1281 3584 2069 3584 
Q 2775 3584 3186 3129 
Q 3597 2675 3597 1894 
z
M 3022 2063 
Q 3016 2534 2758 2815 
Q 2500 3097 2075 3097 
Q 1594 3097 1305 2825 
Q 1016 2553 972 2059 
L 3022 2063 
z
" id="DejaVuSans-65" transform="scale(0.015625)"/>
      <path d="M 1259 4147 
L 1259 2394 
L 2053 2394 
Q 2494 2394 2734 2622 
Q 2975 2850 2975 3272 
Q 2975 3691 2734 3919 
Q 2494 4147 2053 4147 
L 1259 4147 
z
M 628 4666 
L 2053 4666 
Q 2838 4666 3239 4311 
Q 3641 3956 3641 3272 
Q 3641 2581 3239 2228 
Q 2838 1875 2053 1875 
L 1259 1875 
L 1259 0 
L 628 0 
L 628 4666 
z
" id="DejaVuSans-50" transform="scale(0.015625)"/>
      <path d="M 2834 3397 
L 2834 2853 
Q 2591 2978 2328 3040 
Q 2066 3103 1784 3103 
Q 1356 3103 1142 2972 
Q 928 2841 928 2578 
Q 928 2378 1081 2264 
Q 1234 2150 1697 2047 
L 1894 2003 
Q 2506 1872 2764 1633 
Q 3022 1394 3022 966 
Q 3022 478 2636 193 
Q 2250 -91 1575 -91 
Q 1294 -91 989 -36 
Q 684 19 347 128 
L 347 722 
Q 666 556 975 473 
Q 1284 391 1588 391 
Q 1994 391 2212 530 
Q 2431 669 2431 922 
Q 2431 1156 2273 1281 
Q 2116 1406 1581 1522 
L 1381 1569 
Q 847 1681 609 1914 
Q 372 2147 372 2553 
Q 372 3047 722 3315 
Q 1072 3584 1716 3584 
Q 2034 3584 2315 3537 
Q 2597 3491 2834 3397 
z
" id="DejaVuSans-73" transform="scale(0.015625)"/>
      <path d="M 525 4666 
L 3525 4666 
L 3525 4397 
L 1831 0 
L 1172 0 
L 2766 4134 
L 525 4134 
L 525 4666 
z
" id="DejaVuSans-37" transform="scale(0.015625)"/>
      <path d="M 684 794 
L 1344 794 
L 1344 0 
L 684 0 
L 684 794 
z
" id="DejaVuSans-2e" transform="scale(0.015625)"/>
      <path d="M 703 97 
L 703 672 
Q 941 559 1184 500 
Q 1428 441 1663 441 
Q 2288 441 2617 861 
Q 2947 1281 2994 2138 
Q 2813 1869 2534 1725 
Q 2256 1581 1919 1581 
Q 1219 1581 811 2004 
Q 403 2428 403 3163 
Q 403 3881 828 4315 
Q 1253 4750 1959 4750 
Q 2769 4750 3195 4129 
Q 3622 3509 3622 2328 
Q 3622 1225 3098 567 
Q 2575 -91 1691 -91 
Q 1453 -91 1209 -44 
Q 966 3 703 97 
z
M 1959 2075 
Q 2384 2075 2632 2365 
Q 2881 2656 2881 3163 
Q 2881 3666 2632 3958 
Q 2384 4250 1959 4250 
Q 1534 4250 1286 3958 
Q 1038 3666 1038 3163 
Q 1038 2656 1286 2365 
Q 1534 2075 1959 2075 
z
" id="DejaVuSans-39" transform="scale(0.015625)"/>
      <path d="M 1600 4347 
Q 1350 4347 1178 4173 
Q 1006 4000 1006 3750 
Q 1006 3503 1178 3333 
Q 1350 3163 1600 3163 
Q 1850 3163 2022 3333 
Q 2194 3503 2194 3750 
Q 2194 3997 2020 4172 
Q 1847 4347 1600 4347 
z
M 1600 4750 
Q 1800 4750 1984 4673 
Q 2169 4597 2303 4453 
Q 2447 4313 2519 4134 
Q 2591 3956 2591 3750 
Q 2591 3338 2302 3052 
Q 2013 2766 1594 2766 
Q 1172 2766 890 3047 
Q 609 3328 609 3750 
Q 609 4169 896 4459 
Q 1184 4750 1600 4750 
z
" id="DejaVuSans-b0" transform="scale(0.015625)"/>
     </defs>
     <use xlink:href="#DejaVuSans-42"/>
     <use x="68.603516" xlink:href="#DejaVuSans-61"/>
     <use x="129.882812" xlink:href="#DejaVuSans-63"/>
     <use x="184.863281" xlink:href="#DejaVuSans-6b"/>
     <use x="242.773438" xlink:href="#DejaVuSans-62"/>
     <use x="306.25" xlink:href="#DejaVuSans-6f"/>
     <use x="367.431641" xlink:href="#DejaVuSans-6e"/>
     <use x="430.810547" xlink:href="#DejaVuSans-65"/>
     <use x="492.333984" xlink:href="#DejaVuSans-20"/>
     <use x="524.121094" xlink:href="#DejaVuSans-50"/>
     <use x="579.923828" xlink:href="#DejaVuSans-61"/>
     <use x="641.203125" xlink:href="#DejaVuSans-73"/>
     <use x="693.302734" xlink:href="#DejaVuSans-73"/>
     <use x="745.402344" xlink:href="#DejaVuSans-20"/>
     <use x="777.189453" xlink:href="#DejaVuSans-37"/>
     <use x="840.8125" xlink:href="#DejaVuSans-2e"/>
     <use x="872.599609" xlink:href="#DejaVuSans-39"/>
     <use x="936.222656" xlink:href="#DejaVuSans-b0"/>
    </g>
   </g>
   <g id="text_8">
    <g id="patch_9">
     <path d="M 93.98882 117.312827 
L 104.698811 109.607561 
L 103.545029 108.003852 
L 92.835038 115.709119 
z
" style="fill:#ffffff;"/>
    </g>
    <!-- Beaver 16.1° -->
    <g style="fill:#008000;" transform="translate(93.750464 116.947276)rotate(-35.732999)scale(0.02 -0.02)">
     <defs>
      <path d="M 191 3500 
L 800 3500 
L 1894 563 
L 2988 3500 
L 3597 3500 
L 2284 0 
L 1503 0 
L 191 3500 
z
" id="DejaVuSans-76" transform="scale(0.015625)"/>
     </defs>
     <use xlink:href="#DejaVuSans-42"/>
     <use x="68.603516" xlink:href="#DejaVuSans-65"/>
     <use x="130.126953" xlink:href="#DejaVuSans-61"/>
     <use x="191.40625" xlink:href="#DejaVuSans-76"/>
     <use x="250.585938" xlink:href="#DejaVuSans-65"/>
     <use x="312.109375" xlink:href="#DejaVuSans-72"/>
     <use x="353.222656" xlink:href="#DejaVuSans-20"/>
     <use x="385.009766" xlink:href="#DejaVuSans-31"/>
     <use x="448.632812" xlink:href="#DejaVuSans-36"/>
     <use x="512.255859" xlink:href="#DejaVuSans-2e"/>
     <use x="544.042969" xlink:href="#DejaVuSans-31"/>
     <use x="607.666016" xlink:href="#DejaVuSans-b0"/>
    </g>
   </g>
   <g id="text_9">
    <g id="patch_10">
     <path d="M 37.51918 179.036282 
L 59.933949 158.011861 
L 58.582376 156.570909 
L 36.167607 177.59533 
z
" style="fill:#ffffff;"/>
    </g>
    <!-- Central Park Terrain Park 11.6° -->
    <g style="fill:#008000;" transform="translate(37.235532 178.704642)rotate(-43.166773)scale(0.02 -0.02)">
     <defs>
      <path d="M 1172 4494 
L 1172 3500 
L 2356 3500 
L 2356 3053 
L 1172 3053 
L 1172 1153 
Q 1172 725 1289 603 
Q 1406 481 1766 481 
L 2356 481 
L 2356 0 
L 1766 0 
Q 1100 0 847 248 
Q 594 497 594 1153 
L 594 3053 
L 172 3053 
L 172 3500 
L 594 3500 
L 594 4494 
L 1172 4494 
z
" id="DejaVuSans-74" transform="scale(0.015625)"/>
      <path d="M 603 4863 
L 1178 4863 
L 1178 0 
L 603 0 
L 603 4863 
z
" id="DejaVuSans-6c" transform="scale(0.015625)"/>
      <path d="M -19 4666 
L 3928 4666 
L 3928 4134 
L 2272 4134 
L 2272 0 
L 1638 0 
L 1638 4134 
L -19 4134 
L -19 4666 
z
" id="DejaVuSans-54" transform="scale(0.015625)"/>
     </defs>
     <use xlink:href="#DejaVuSans-43"/>
     <use x="69.824219" xlink:href="#DejaVuSans-65"/>
     <use x="131.347656" xlink:href="#DejaVuSans-6e"/>
     <use x="194.726562" xlink:href="#DejaVuSans-74"/>
     <use x="233.935547" xlink:href="#DejaVuSans-72"/>
     <use x="275.048828" xlink:href="#DejaVuSans-61"/>
     <use x="336.328125" xlink:href="#DejaVuSans-6c"/>
     <use x="364.111328" xlink:href="#DejaVuSans-20"/>
     <use x="395.898438" xlink:href="#DejaVuSans-50"/>
     <use x="451.701172" xlink:href="#DejaVuSans-61"/>
     <use x="512.980469" xlink:href="#DejaVuSans-72"/>
     <use x="554.09375" xlink:href="#DejaVuSans-6b"/>
     <use x="612.003906" xlink:href="#DejaVuSans-20"/>
     <use x="643.791016" xlink:href="#DejaVuSans-54"/>
     <use x="687.875" xlink:href="#DejaVuSans-65"/>
     <use x="749.398438" xlink:href="#DejaVuSans-72"/>
     <use x="788.761719" xlink:href="#DejaVuSans-72"/>
     <use x="829.875" xlink:href="#DejaVuSans-61"/>
     <use x="891.154297" xlink:href="#DejaVuSans-69"/>
     <use x="918.9375" xlink:href="#DejaVuSans-6e"/>
     <use x="982.316406" xlink:href="#DejaVuSans-20"/>
     <use x="1014.103516" xlink:href="#DejaVuSans-50"/>
     <use x="1069.90625" xlink:href="#DejaVuSans-61"/>
     <use x="1131.185547" xlink:href="#DejaVuSans-72"/>
     <use x="1172.298828" xlink:href="#DejaVuSans-6b"/>
     <use x="1230.208984" xlink:href="#DejaVuSans-20"/>
     <use x="1261.996094" xlink:href="#DejaVuSans-31"/>
     <use x="1325.619141" xlink:href="#DejaVuSans-31"/>
     <use x="1389.242188" xlink:href="#DejaVuSans-2e"/>
     <use x="1421.029297" xlink:href="#DejaVuSans-36"/>
     <use x="1484.652344" xlink:href="#DejaVuSans-b0"/>
    </g>
   </g>
   <g id="text_10">
    <g id="patch_11">
     <path d="M 42.514914 120.104452 
L 58.826079 111.718486 
L 57.922755 109.961471 
L 41.611591 118.347437 
z
" style="fill:#ffffff;"/>
    </g>
    <!-- Boulder Run 13.5° -->
    <g style="fill:#008000;" transform="translate(42.333376 119.707608)rotate(-27.208797)scale(0.02 -0.02)">
     <defs>
      <path d="M 544 1381 
L 544 3500 
L 1119 3500 
L 1119 1403 
Q 1119 906 1312 657 
Q 1506 409 1894 409 
Q 2359 409 2629 706 
Q 2900 1003 2900 1516 
L 2900 3500 
L 3475 3500 
L 3475 0 
L 2900 0 
L 2900 538 
Q 2691 219 2414 64 
Q 2138 -91 1772 -91 
Q 1169 -91 856 284 
Q 544 659 544 1381 
z
M 1991 3584 
L 1991 3584 
z
" id="DejaVuSans-75" transform="scale(0.015625)"/>
      <path d="M 2906 2969 
L 2906 4863 
L 3481 4863 
L 3481 0 
L 2906 0 
L 2906 525 
Q 2725 213 2448 61 
Q 2172 -91 1784 -91 
Q 1150 -91 751 415 
Q 353 922 353 1747 
Q 353 2572 751 3078 
Q 1150 3584 1784 3584 
Q 2172 3584 2448 3432 
Q 2725 3281 2906 2969 
z
M 947 1747 
Q 947 1113 1208 752 
Q 1469 391 1925 391 
Q 2381 391 2643 752 
Q 2906 1113 2906 1747 
Q 2906 2381 2643 2742 
Q 2381 3103 1925 3103 
Q 1469 3103 1208 2742 
Q 947 2381 947 1747 
z
" id="DejaVuSans-64" transform="scale(0.015625)"/>
      <path d="M 2841 2188 
Q 3044 2119 3236 1894 
Q 3428 1669 3622 1275 
L 4263 0 
L 3584 0 
L 2988 1197 
Q 2756 1666 2539 1819 
Q 2322 1972 1947 1972 
L 1259 1972 
L 1259 0 
L 628 0 
L 628 4666 
L 2053 4666 
Q 2853 4666 3247 4331 
Q 3641 3997 3641 3322 
Q 3641 2881 3436 2590 
Q 3231 2300 2841 2188 
z
M 1259 4147 
L 1259 2491 
L 2053 2491 
Q 2509 2491 2742 2702 
Q 2975 2913 2975 3322 
Q 2975 3731 2742 3939 
Q 2509 4147 2053 4147 
L 1259 4147 
z
" id="DejaVuSans-52" transform="scale(0.015625)"/>
     </defs>
     <use xlink:href="#DejaVuSans-42"/>
     <use x="68.603516" xlink:href="#DejaVuSans-6f"/>
     <use x="129.785156" xlink:href="#DejaVuSans-75"/>
     <use x="193.164062" xlink:href="#DejaVuSans-6c"/>
     <use x="220.947266" xlink:href="#DejaVuSans-64"/>
     <use x="284.423828" xlink:href="#DejaVuSans-65"/>
     <use x="345.947266" xlink:href="#DejaVuSans-72"/>
     <use x="387.060547" xlink:href="#DejaVuSans-20"/>
     <use x="418.847656" xlink:href="#DejaVuSans-52"/>
     <use x="483.830078" xlink:href="#DejaVuSans-75"/>
     <use x="547.208984" xlink:href="#DejaVuSans-6e"/>
     <use x="610.587891" xlink:href="#DejaVuSans-20"/>
     <use x="642.375" xlink:href="#DejaVuSans-31"/>
     <use x="705.998047" xlink:href="#DejaVuSans-33"/>
     <use x="769.621094" xlink:href="#DejaVuSans-2e"/>
     <use x="801.408203" xlink:href="#DejaVuSans-35"/>
     <use x="865.03125" xlink:href="#DejaVuSans-b0"/>
    </g>
   </g>
   <g id="text_11">
    <g id="patch_12">
     <path d="M 87.930528 158.30383 
L 102.091403 152.194566 
L 101.308806 150.380555 
L 87.14793 156.489819 
z
" style="fill:#ffffff;"/>
    </g>
    <!-- Deer Run 14.4° -->
    <g style="fill:#008000;" transform="translate(87.776205 157.895631)rotate(-23.336262)scale(0.02 -0.02)">
     <defs>
      <path d="M 1259 4147 
L 1259 519 
L 2022 519 
Q 2988 519 3436 956 
Q 3884 1394 3884 2338 
Q 3884 3275 3436 3711 
Q 2988 4147 2022 4147 
L 1259 4147 
z
M 628 4666 
L 1925 4666 
Q 3281 4666 3915 4102 
Q 4550 3538 4550 2338 
Q 4550 1131 3912 565 
Q 3275 0 1925 0 
L 628 0 
L 628 4666 
z
" id="DejaVuSans-44" transform="scale(0.015625)"/>
     </defs>
     <use xlink:href="#DejaVuSans-44"/>
     <use x="77.001953" xlink:href="#DejaVuSans-65"/>
     <use x="138.525391" xlink:href="#DejaVuSans-65"/>
     <use x="200.048828" xlink:href="#DejaVuSans-72"/>
     <use x="241.162109" xlink:href="#DejaVuSans-20"/>
     <use x="272.949219" xlink:href="#DejaVuSans-52"/>
     <use x="337.931641" xlink:href="#DejaVuSans-75"/>
     <use x="401.310547" xlink:href="#DejaVuSans-6e"/>
     <use x="464.689453" xlink:href="#DejaVuSans-20"/>
     <use x="496.476562" xlink:href="#DejaVuSans-31"/>
     <use x="560.099609" xlink:href="#DejaVuSans-34"/>
     <use x="623.722656" xlink:href="#DejaVuSans-2e"/>
     <use x="655.509766" xlink:href="#DejaVuSans-34"/>
     <use x="719.132812" xlink:href="#DejaVuSans-b0"/>
    </g>
   </g>
   <g id="text_12">
    <g id="patch_13">
     <path d="M 38.097302 88.537622 
L 56.581201 88.335801 
L 56.55963 86.360294 
L 38.075732 86.562115 
z
" style="fill:#ffffff;"/>
    </g>
    <!-- Down Under 16.1° -->
    <g style="fill:#008000;" transform="translate(38.112542 88.101493)rotate(-0.625575)scale(0.02 -0.02)">
     <defs>
      <path d="M 269 3500 
L 844 3500 
L 1563 769 
L 2278 3500 
L 2956 3500 
L 3675 769 
L 4391 3500 
L 4966 3500 
L 4050 0 
L 3372 0 
L 2619 2869 
L 1863 0 
L 1184 0 
L 269 3500 
z
" id="DejaVuSans-77" transform="scale(0.015625)"/>
      <path d="M 556 4666 
L 1191 4666 
L 1191 1831 
Q 1191 1081 1462 751 
Q 1734 422 2344 422 
Q 2950 422 3222 751 
Q 3494 1081 3494 1831 
L 3494 4666 
L 4128 4666 
L 4128 1753 
Q 4128 841 3676 375 
Q 3225 -91 2344 -91 
Q 1459 -91 1007 375 
Q 556 841 556 1753 
L 556 4666 
z
" id="DejaVuSans-55" transform="scale(0.015625)"/>
     </defs>
     <use xlink:href="#DejaVuSans-44"/>
     <use x="77.001953" xlink:href="#DejaVuSans-6f"/>
     <use x="138.183594" xlink:href="#DejaVuSans-77"/>
     <use x="219.970703" xlink:href="#DejaVuSans-6e"/>
     <use x="283.349609" xlink:href="#DejaVuSans-20"/>
     <use x="315.136719" xlink:href="#DejaVuSans-55"/>
     <use x="388.330078" xlink:href="#DejaVuSans-6e"/>
     <use x="451.708984" xlink:href="#DejaVuSans-64"/>
     <use x="515.185547" xlink:href="#DejaVuSans-65"/>
     <use x="576.708984" xlink:href="#DejaVuSans-72"/>
     <use x="617.822266" xlink:href="#DejaVuSans-20"/>
     <use x="649.609375" xlink:href="#DejaVuSans-31"/>
     <use x="713.232422" xlink:href="#DejaVuSans-36"/>
     <use x="776.855469" xlink:href="#DejaVuSans-2e"/>
     <use x="808.642578" xlink:href="#DejaVuSans-31"/>
     <use x="872.265625" xlink:href="#DejaVuSans-b0"/>
    </g>
   </g>
   <g id="text_13">
    <g id="patch_14">
     <path d="M 58.439577 64.36398 
L 76.117277 66.746269 
L 76.381132 64.788343 
L 58.703431 62.406054 
z
" style="fill:#ffffff;"/>
    </g>
    <!-- Eye Opener 18.7° -->
    <g style="fill:#4169e1;" transform="translate(58.517619 63.934619)rotate(-352.324925)scale(0.02 -0.02)">
     <defs>
      <path d="M 628 4666 
L 3578 4666 
L 3578 4134 
L 1259 4134 
L 1259 2753 
L 3481 2753 
L 3481 2222 
L 1259 2222 
L 1259 531 
L 3634 531 
L 3634 0 
L 628 0 
L 628 4666 
z
" id="DejaVuSans-45" transform="scale(0.015625)"/>
      <path d="M 2059 -325 
Q 1816 -950 1584 -1140 
Q 1353 -1331 966 -1331 
L 506 -1331 
L 506 -850 
L 844 -850 
Q 1081 -850 1212 -737 
Q 1344 -625 1503 -206 
L 1606 56 
L 191 3500 
L 800 3500 
L 1894 763 
L 2988 3500 
L 3597 3500 
L 2059 -325 
z
" id="DejaVuSans-79" transform="scale(0.015625)"/>
      <path d="M 2522 4238 
Q 1834 4238 1429 3725 
Q 1025 3213 1025 2328 
Q 1025 1447 1429 934 
Q 1834 422 2522 422 
Q 3209 422 3611 934 
Q 4013 1447 4013 2328 
Q 4013 3213 3611 3725 
Q 3209 4238 2522 4238 
z
M 2522 4750 
Q 3503 4750 4090 4092 
Q 4678 3434 4678 2328 
Q 4678 1225 4090 567 
Q 3503 -91 2522 -91 
Q 1538 -91 948 565 
Q 359 1222 359 2328 
Q 359 3434 948 4092 
Q 1538 4750 2522 4750 
z
" id="DejaVuSans-4f" transform="scale(0.015625)"/>
      <path d="M 1159 525 
L 1159 -1331 
L 581 -1331 
L 581 3500 
L 1159 3500 
L 1159 2969 
Q 1341 3281 1617 3432 
Q 1894 3584 2278 3584 
Q 2916 3584 3314 3078 
Q 3713 2572 3713 1747 
Q 3713 922 3314 415 
Q 2916 -91 2278 -91 
Q 1894 -91 1617 61 
Q 1341 213 1159 525 
z
M 3116 1747 
Q 3116 2381 2855 2742 
Q 2594 3103 2138 3103 
Q 1681 3103 1420 2742 
Q 1159 2381 1159 1747 
Q 1159 1113 1420 752 
Q 1681 391 2138 391 
Q 2594 391 2855 752 
Q 3116 1113 3116 1747 
z
" id="DejaVuSans-70" transform="scale(0.015625)"/>
      <path d="M 2034 2216 
Q 1584 2216 1326 1975 
Q 1069 1734 1069 1313 
Q 1069 891 1326 650 
Q 1584 409 2034 409 
Q 2484 409 2743 651 
Q 3003 894 3003 1313 
Q 3003 1734 2745 1975 
Q 2488 2216 2034 2216 
z
M 1403 2484 
Q 997 2584 770 2862 
Q 544 3141 544 3541 
Q 544 4100 942 4425 
Q 1341 4750 2034 4750 
Q 2731 4750 3128 4425 
Q 3525 4100 3525 3541 
Q 3525 3141 3298 2862 
Q 3072 2584 2669 2484 
Q 3125 2378 3379 2068 
Q 3634 1759 3634 1313 
Q 3634 634 3220 271 
Q 2806 -91 2034 -91 
Q 1263 -91 848 271 
Q 434 634 434 1313 
Q 434 1759 690 2068 
Q 947 2378 1403 2484 
z
M 1172 3481 
Q 1172 3119 1398 2916 
Q 1625 2713 2034 2713 
Q 2441 2713 2670 2916 
Q 2900 3119 2900 3481 
Q 2900 3844 2670 4047 
Q 2441 4250 2034 4250 
Q 1625 4250 1398 4047 
Q 1172 3844 1172 3481 
z
" id="DejaVuSans-38" transform="scale(0.015625)"/>
     </defs>
     <use xlink:href="#DejaVuSans-45"/>
     <use x="63.183594" xlink:href="#DejaVuSans-79"/>
     <use x="122.363281" xlink:href="#DejaVuSans-65"/>
     <use x="183.886719" xlink:href="#DejaVuSans-20"/>
     <use x="215.673828" xlink:href="#DejaVuSans-4f"/>
     <use x="294.384766" xlink:href="#DejaVuSans-70"/>
     <use x="357.861328" xlink:href="#DejaVuSans-65"/>
     <use x="419.384766" xlink:href="#DejaVuSans-6e"/>
     <use x="482.763672" xlink:href="#DejaVuSans-65"/>
     <use x="544.287109" xlink:href="#DejaVuSans-72"/>
     <use x="585.400391" xlink:href="#DejaVuSans-20"/>
     <use x="617.1875" xlink:href="#DejaVuSans-31"/>
     <use x="680.810547" xlink:href="#DejaVuSans-38"/>
     <use x="744.433594" xlink:href="#DejaVuSans-2e"/>
     <use x="776.220703" xlink:href="#DejaVuSans-37"/>
     <use x="839.84375" xlink:href="#DejaVuSans-b0"/>
    </g>
   </g>
   <g id="text_14">
    <g id="patch_15">
     <path d="M 66.886 126.432589 
L 82.984316 134.737696 
L 83.890104 132.981951 
L 67.791788 124.676844 
z
" style="fill:#ffffff;"/>
    </g>
    <!-- Grouse Way 12.3° -->
    <g style="fill:#008000;" transform="translate(67.103644 126.05434)rotate(-332.710831)scale(0.02 -0.02)">
     <defs>
      <path d="M 3809 666 
L 3809 1919 
L 2778 1919 
L 2778 2438 
L 4434 2438 
L 4434 434 
Q 4069 175 3628 42 
Q 3188 -91 2688 -91 
Q 1594 -91 976 548 
Q 359 1188 359 2328 
Q 359 3472 976 4111 
Q 1594 4750 2688 4750 
Q 3144 4750 3555 4637 
Q 3966 4525 4313 4306 
L 4313 3634 
Q 3963 3931 3569 4081 
Q 3175 4231 2741 4231 
Q 1884 4231 1454 3753 
Q 1025 3275 1025 2328 
Q 1025 1384 1454 906 
Q 1884 428 2741 428 
Q 3075 428 3337 486 
Q 3600 544 3809 666 
z
" id="DejaVuSans-47" transform="scale(0.015625)"/>
      <path d="M 213 4666 
L 850 4666 
L 1831 722 
L 2809 4666 
L 3519 4666 
L 4500 722 
L 5478 4666 
L 6119 4666 
L 4947 0 
L 4153 0 
L 3169 4050 
L 2175 0 
L 1381 0 
L 213 4666 
z
" id="DejaVuSans-57" transform="scale(0.015625)"/>
     </defs>
     <use xlink:href="#DejaVuSans-47"/>
     <use x="77.490234" xlink:href="#DejaVuSans-72"/>
     <use x="116.353516" xlink:href="#DejaVuSans-6f"/>
     <use x="177.535156" xlink:href="#DejaVuSans-75"/>
     <use x="240.914062" xlink:href="#DejaVuSans-73"/>
     <use x="293.013672" xlink:href="#DejaVuSans-65"/>
     <use x="354.537109" xlink:href="#DejaVuSans-20"/>
     <use x="386.324219" xlink:href="#DejaVuSans-57"/>
     <use x="478.826172" xlink:href="#DejaVuSans-61"/>
     <use x="540.105469" xlink:href="#DejaVuSans-79"/>
     <use x="599.285156" xlink:href="#DejaVuSans-20"/>
     <use x="631.072266" xlink:href="#DejaVuSans-31"/>
     <use x="694.695312" xlink:href="#DejaVuSans-32"/>
     <use x="758.318359" xlink:href="#DejaVuSans-2e"/>
     <use x="790.105469" xlink:href="#DejaVuSans-33"/>
     <use x="853.728516" xlink:href="#DejaVuSans-b0"/>
    </g>
   </g>
   <g id="text_15">
    <g id="patch_16">
     <path d="M 132.692406 70.223329 
L 152.404235 67.993928 
L 152.182208 66.030819 
L 132.470379 68.26022 
z
" style="fill:#ffffff;"/>
    </g>
    <!-- Happy Camper 7.4° -->
    <g style="fill:#008000;" transform="translate(132.663288 69.787906)rotate(-6.452714)scale(0.02 -0.02)">
     <defs>
      <path d="M 628 4666 
L 1259 4666 
L 1259 2753 
L 3553 2753 
L 3553 4666 
L 4184 4666 
L 4184 0 
L 3553 0 
L 3553 2222 
L 1259 2222 
L 1259 0 
L 628 0 
L 628 4666 
z
" id="DejaVuSans-48" transform="scale(0.015625)"/>
      <path d="M 3328 2828 
Q 3544 3216 3844 3400 
Q 4144 3584 4550 3584 
Q 5097 3584 5394 3201 
Q 5691 2819 5691 2113 
L 5691 0 
L 5113 0 
L 5113 2094 
Q 5113 2597 4934 2840 
Q 4756 3084 4391 3084 
Q 3944 3084 3684 2787 
Q 3425 2491 3425 1978 
L 3425 0 
L 2847 0 
L 2847 2094 
Q 2847 2600 2669 2842 
Q 2491 3084 2119 3084 
Q 1678 3084 1418 2786 
Q 1159 2488 1159 1978 
L 1159 0 
L 581 0 
L 581 3500 
L 1159 3500 
L 1159 2956 
Q 1356 3278 1631 3431 
Q 1906 3584 2284 3584 
Q 2666 3584 2933 3390 
Q 3200 3197 3328 2828 
z
" id="DejaVuSans-6d" transform="scale(0.015625)"/>
     </defs>
     <use xlink:href="#DejaVuSans-48"/>
     <use x="75.195312" xlink:href="#DejaVuSans-61"/>
     <use x="136.474609" xlink:href="#DejaVuSans-70"/>
     <use x="199.951172" xlink:href="#DejaVuSans-70"/>
     <use x="263.427734" xlink:href="#DejaVuSans-79"/>
     <use x="322.607422" xlink:href="#DejaVuSans-20"/>
     <use x="354.394531" xlink:href="#DejaVuSans-43"/>
     <use x="424.21875" xlink:href="#DejaVuSans-61"/>
     <use x="485.498047" xlink:href="#DejaVuSans-6d"/>
     <use x="582.910156" xlink:href="#DejaVuSans-70"/>
     <use x="646.386719" xlink:href="#DejaVuSans-65"/>
     <use x="707.910156" xlink:href="#DejaVuSans-72"/>
     <use x="749.023438" xlink:href="#DejaVuSans-20"/>
     <use x="780.810547" xlink:href="#DejaVuSans-37"/>
     <use x="844.433594" xlink:href="#DejaVuSans-2e"/>
     <use x="876.220703" xlink:href="#DejaVuSans-34"/>
     <use x="939.84375" xlink:href="#DejaVuSans-b0"/>
    </g>
   </g>
   <g id="text_16">
    <g id="patch_17">
     <path d="M 176.089664 86.388912 
L 194.238019 82.921842 
L 193.867299 80.981311 
L 175.718944 84.448381 
z
" style="fill:#ffffff;"/>
    </g>
    <!-- Little Dipper 15.4° -->
    <g style="fill:#008000;" transform="translate(176.027506 85.956966)rotate(-10.815493)scale(0.02 -0.02)">
     <defs>
      <path d="M 628 4666 
L 1259 4666 
L 1259 531 
L 3531 531 
L 3531 0 
L 628 0 
L 628 4666 
z
" id="DejaVuSans-4c" transform="scale(0.015625)"/>
     </defs>
     <use xlink:href="#DejaVuSans-4c"/>
     <use x="55.712891" xlink:href="#DejaVuSans-69"/>
     <use x="83.496094" xlink:href="#DejaVuSans-74"/>
     <use x="122.705078" xlink:href="#DejaVuSans-74"/>
     <use x="161.914062" xlink:href="#DejaVuSans-6c"/>
     <use x="189.697266" xlink:href="#DejaVuSans-65"/>
     <use x="251.220703" xlink:href="#DejaVuSans-20"/>
     <use x="283.007812" xlink:href="#DejaVuSans-44"/>
     <use x="360.009766" xlink:href="#DejaVuSans-69"/>
     <use x="387.792969" xlink:href="#DejaVuSans-70"/>
     <use x="451.269531" xlink:href="#DejaVuSans-70"/>
     <use x="514.746094" xlink:href="#DejaVuSans-65"/>
     <use x="576.269531" xlink:href="#DejaVuSans-72"/>
     <use x="617.382812" xlink:href="#DejaVuSans-20"/>
     <use x="649.169922" xlink:href="#DejaVuSans-31"/>
     <use x="712.792969" xlink:href="#DejaVuSans-35"/>
     <use x="776.416016" xlink:href="#DejaVuSans-2e"/>
     <use x="808.203125" xlink:href="#DejaVuSans-34"/>
     <use x="871.826172" xlink:href="#DejaVuSans-b0"/>
    </g>
   </g>
   <g id="text_17">
    <g id="patch_18">
     <path d="M 174.98297 70.200412 
L 194.03744 74.39465 
L 194.462145 72.465215 
L 175.407674 68.270976 
z
" style="fill:#ffffff;"/>
    </g>
    <!-- Logger's Way 14.5° -->
    <g style="fill:#008000;" transform="translate(175.096217 69.778966)rotate(-347.586114)scale(0.02 -0.02)">
     <defs>
      <path d="M 2906 1791 
Q 2906 2416 2648 2759 
Q 2391 3103 1925 3103 
Q 1463 3103 1205 2759 
Q 947 2416 947 1791 
Q 947 1169 1205 825 
Q 1463 481 1925 481 
Q 2391 481 2648 825 
Q 2906 1169 2906 1791 
z
M 3481 434 
Q 3481 -459 3084 -895 
Q 2688 -1331 1869 -1331 
Q 1566 -1331 1297 -1286 
Q 1028 -1241 775 -1147 
L 775 -588 
Q 1028 -725 1275 -790 
Q 1522 -856 1778 -856 
Q 2344 -856 2625 -561 
Q 2906 -266 2906 331 
L 2906 616 
Q 2728 306 2450 153 
Q 2172 0 1784 0 
Q 1141 0 747 490 
Q 353 981 353 1791 
Q 353 2603 747 3093 
Q 1141 3584 1784 3584 
Q 2172 3584 2450 3431 
Q 2728 3278 2906 2969 
L 2906 3500 
L 3481 3500 
L 3481 434 
z
" id="DejaVuSans-67" transform="scale(0.015625)"/>
      <path d="M 1147 4666 
L 1147 2931 
L 616 2931 
L 616 4666 
L 1147 4666 
z
" id="DejaVuSans-27" transform="scale(0.015625)"/>
     </defs>
     <use xlink:href="#DejaVuSans-4c"/>
     <use x="53.962891" xlink:href="#DejaVuSans-6f"/>
     <use x="115.144531" xlink:href="#DejaVuSans-67"/>
     <use x="178.621094" xlink:href="#DejaVuSans-67"/>
     <use x="242.097656" xlink:href="#DejaVuSans-65"/>
     <use x="303.621094" xlink:href="#DejaVuSans-72"/>
     <use x="344.734375" xlink:href="#DejaVuSans-27"/>
     <use x="372.224609" xlink:href="#DejaVuSans-73"/>
     <use x="424.324219" xlink:href="#DejaVuSans-20"/>
     <use x="456.111328" xlink:href="#DejaVuSans-57"/>
     <use x="548.613281" xlink:href="#DejaVuSans-61"/>
     <use x="609.892578" xlink:href="#DejaVuSans-79"/>
     <use x="669.072266" xlink:href="#DejaVuSans-20"/>
     <use x="700.859375" xlink:href="#DejaVuSans-31"/>
     <use x="764.482422" xlink:href="#DejaVuSans-34"/>
     <use x="828.105469" xlink:href="#DejaVuSans-2e"/>
     <use x="859.892578" xlink:href="#DejaVuSans-35"/>
     <use x="923.515625" xlink:href="#DejaVuSans-b0"/>
    </g>
   </g>
   <g id="text_18">
    <g id="patch_19">
     <path d="M 62.714307 36.864829 
L 80.148994 34.350885 
L 79.867041 32.395483 
L 62.432354 34.909428 
z
" style="fill:#ffffff;"/>
    </g>
    <!-- Main Street 24.1° -->
    <g style="fill:#4169e1;" transform="translate(62.671887 36.4305)rotate(-8.205047)scale(0.02 -0.02)">
     <defs>
      <path d="M 628 4666 
L 1569 4666 
L 2759 1491 
L 3956 4666 
L 4897 4666 
L 4897 0 
L 4281 0 
L 4281 4097 
L 3078 897 
L 2444 897 
L 1241 4097 
L 1241 0 
L 628 0 
L 628 4666 
z
" id="DejaVuSans-4d" transform="scale(0.015625)"/>
      <path d="M 3425 4513 
L 3425 3897 
Q 3066 4069 2747 4153 
Q 2428 4238 2131 4238 
Q 1616 4238 1336 4038 
Q 1056 3838 1056 3469 
Q 1056 3159 1242 3001 
Q 1428 2844 1947 2747 
L 2328 2669 
Q 3034 2534 3370 2195 
Q 3706 1856 3706 1288 
Q 3706 609 3251 259 
Q 2797 -91 1919 -91 
Q 1588 -91 1214 -16 
Q 841 59 441 206 
L 441 856 
Q 825 641 1194 531 
Q 1563 422 1919 422 
Q 2459 422 2753 634 
Q 3047 847 3047 1241 
Q 3047 1584 2836 1778 
Q 2625 1972 2144 2069 
L 1759 2144 
Q 1053 2284 737 2584 
Q 422 2884 422 3419 
Q 422 4038 858 4394 
Q 1294 4750 2059 4750 
Q 2388 4750 2728 4690 
Q 3069 4631 3425 4513 
z
" id="DejaVuSans-53" transform="scale(0.015625)"/>
     </defs>
     <use xlink:href="#DejaVuSans-4d"/>
     <use x="86.279297" xlink:href="#DejaVuSans-61"/>
     <use x="147.558594" xlink:href="#DejaVuSans-69"/>
     <use x="175.341797" xlink:href="#DejaVuSans-6e"/>
     <use x="238.720703" xlink:href="#DejaVuSans-20"/>
     <use x="270.507812" xlink:href="#DejaVuSans-53"/>
     <use x="333.984375" xlink:href="#DejaVuSans-74"/>
     <use x="373.193359" xlink:href="#DejaVuSans-72"/>
     <use x="412.056641" xlink:href="#DejaVuSans-65"/>
     <use x="473.580078" xlink:href="#DejaVuSans-65"/>
     <use x="535.103516" xlink:href="#DejaVuSans-74"/>
     <use x="574.3125" xlink:href="#DejaVuSans-20"/>
     <use x="606.099609" xlink:href="#DejaVuSans-32"/>
     <use x="669.722656" xlink:href="#DejaVuSans-34"/>
     <use x="733.345703" xlink:href="#DejaVuSans-2e"/>
     <use x="765.132812" xlink:href="#DejaVuSans-31"/>
     <use x="828.755859" xlink:href="#DejaVuSans-b0"/>
    </g>
   </g>
   <g id="text_19">
    <g id="patch_20">
     <path d="M 86.661263 109.243042 
L 97.790616 100.49855 
L 96.570032 98.94508 
L 85.440679 107.689571 
z
" style="fill:#ffffff;"/>
    </g>
    <!-- Muskrat 13.2° -->
    <g style="fill:#008000;" transform="translate(86.407658 108.887899)rotate(-38.157227)scale(0.02 -0.02)">
     <use xlink:href="#DejaVuSans-4d"/>
     <use x="86.279297" xlink:href="#DejaVuSans-75"/>
     <use x="149.658203" xlink:href="#DejaVuSans-73"/>
     <use x="201.757812" xlink:href="#DejaVuSans-6b"/>
     <use x="259.667969" xlink:href="#DejaVuSans-72"/>
     <use x="300.78125" xlink:href="#DejaVuSans-61"/>
     <use x="362.060547" xlink:href="#DejaVuSans-74"/>
     <use x="401.269531" xlink:href="#DejaVuSans-20"/>
     <use x="433.056641" xlink:href="#DejaVuSans-31"/>
     <use x="496.679688" xlink:href="#DejaVuSans-33"/>
     <use x="560.302734" xlink:href="#DejaVuSans-2e"/>
     <use x="592.089844" xlink:href="#DejaVuSans-32"/>
     <use x="655.712891" xlink:href="#DejaVuSans-b0"/>
    </g>
   </g>
   <g id="text_20">
    <g id="patch_21">
     <path d="M 76.579835 91.512404 
L 94.687522 85.860073 
L 94.098842 83.974191 
L 75.991155 89.626522 
z
" style="fill:#ffffff;"/>
    </g>
    <!-- Odin's Chute 22.6° -->
    <g style="fill:#4169e1;" transform="translate(76.46903 91.09031)rotate(-17.335803)scale(0.02 -0.02)">
     <use xlink:href="#DejaVuSans-4f"/>
     <use x="78.710938" xlink:href="#DejaVuSans-64"/>
     <use x="142.1875" xlink:href="#DejaVuSans-69"/>
     <use x="169.970703" xlink:href="#DejaVuSans-6e"/>
     <use x="233.349609" xlink:href="#DejaVuSans-27"/>
     <use x="260.839844" xlink:href="#DejaVuSans-73"/>
     <use x="312.939453" xlink:href="#DejaVuSans-20"/>
     <use x="344.726562" xlink:href="#DejaVuSans-43"/>
     <use x="414.550781" xlink:href="#DejaVuSans-68"/>
     <use x="477.929688" xlink:href="#DejaVuSans-75"/>
     <use x="541.308594" xlink:href="#DejaVuSans-74"/>
     <use x="580.517578" xlink:href="#DejaVuSans-65"/>
     <use x="642.041016" xlink:href="#DejaVuSans-20"/>
     <use x="673.828125" xlink:href="#DejaVuSans-32"/>
     <use x="737.451172" xlink:href="#DejaVuSans-32"/>
     <use x="801.074219" xlink:href="#DejaVuSans-2e"/>
     <use x="832.861328" xlink:href="#DejaVuSans-36"/>
     <use x="896.484375" xlink:href="#DejaVuSans-b0"/>
    </g>
   </g>
   <g id="text_21">
    <g id="patch_22">
     <path d="M 151.991346 112.202883 
L 157.029979 100.749383 
L 155.221607 99.953843 
L 150.182974 111.407342 
z
" style="fill:#ffffff;"/>
    </g>
    <!-- Possum 9.8° -->
    <g style="fill:#008000;" transform="translate(151.600368 112.009034)rotate(-66.254306)scale(0.02 -0.02)">
     <use xlink:href="#DejaVuSans-50"/>
     <use x="56.677734" xlink:href="#DejaVuSans-6f"/>
     <use x="117.859375" xlink:href="#DejaVuSans-73"/>
     <use x="169.958984" xlink:href="#DejaVuSans-73"/>
     <use x="222.058594" xlink:href="#DejaVuSans-75"/>
     <use x="285.4375" xlink:href="#DejaVuSans-6d"/>
     <use x="382.849609" xlink:href="#DejaVuSans-20"/>
     <use x="414.636719" xlink:href="#DejaVuSans-39"/>
     <use x="478.259766" xlink:href="#DejaVuSans-2e"/>
     <use x="510.046875" xlink:href="#DejaVuSans-38"/>
     <use x="573.669922" xlink:href="#DejaVuSans-b0"/>
    </g>
   </g>
   <g id="text_22">
    <g id="patch_23">
     <path d="M 106.714983 109.889263 
L 118.031065 94.527986 
L 116.440441 93.356232 
L 105.124358 108.717509 
z
" style="fill:#ffffff;"/>
    </g>
    <!-- Randal's Run 13.8° -->
    <g style="fill:#008000;" transform="translate(106.375861 109.614604)rotate(-53.622304)scale(0.02 -0.02)">
     <use xlink:href="#DejaVuSans-52"/>
     <use x="67.232422" xlink:href="#DejaVuSans-61"/>
     <use x="128.511719" xlink:href="#DejaVuSans-6e"/>
     <use x="191.890625" xlink:href="#DejaVuSans-64"/>
     <use x="255.367188" xlink:href="#DejaVuSans-61"/>
     <use x="316.646484" xlink:href="#DejaVuSans-6c"/>
     <use x="344.429688" xlink:href="#DejaVuSans-27"/>
     <use x="371.919922" xlink:href="#DejaVuSans-73"/>
     <use x="424.019531" xlink:href="#DejaVuSans-20"/>
     <use x="455.806641" xlink:href="#DejaVuSans-52"/>
     <use x="520.789062" xlink:href="#DejaVuSans-75"/>
     <use x="584.167969" xlink:href="#DejaVuSans-6e"/>
     <use x="647.546875" xlink:href="#DejaVuSans-20"/>
     <use x="679.333984" xlink:href="#DejaVuSans-31"/>
     <use x="742.957031" xlink:href="#DejaVuSans-33"/>
     <use x="806.580078" xlink:href="#DejaVuSans-2e"/>
     <use x="838.367188" xlink:href="#DejaVuSans-38"/>
     <use x="901.990234" xlink:href="#DejaVuSans-b0"/>
    </g>
   </g>
   <g id="text_23">
    <g id="patch_24">
     <path d="M 113.21487 120.639864 
L 125.541294 135.017341 
L 127.041152 133.731449 
L 114.714728 119.353972 
z
" style="fill:#ffffff;"/>
    </g>
    <!-- Road Runner 18.2° -->
    <g style="fill:#4169e1;" transform="translate(113.558843 120.371305)rotate(-310.607893)scale(0.02 -0.02)">
     <use xlink:href="#DejaVuSans-52"/>
     <use x="64.982422" xlink:href="#DejaVuSans-6f"/>
     <use x="126.164062" xlink:href="#DejaVuSans-61"/>
     <use x="187.443359" xlink:href="#DejaVuSans-64"/>
     <use x="250.919922" xlink:href="#DejaVuSans-20"/>
     <use x="282.707031" xlink:href="#DejaVuSans-52"/>
     <use x="347.689453" xlink:href="#DejaVuSans-75"/>
     <use x="411.068359" xlink:href="#DejaVuSans-6e"/>
     <use x="474.447266" xlink:href="#DejaVuSans-6e"/>
     <use x="537.826172" xlink:href="#DejaVuSans-65"/>
     <use x="599.349609" xlink:href="#DejaVuSans-72"/>
     <use x="640.462891" xlink:href="#DejaVuSans-20"/>
     <use x="672.25" xlink:href="#DejaVuSans-31"/>
     <use x="735.873047" xlink:href="#DejaVuSans-38"/>
     <use x="799.496094" xlink:href="#DejaVuSans-2e"/>
     <use x="831.283203" xlink:href="#DejaVuSans-32"/>
     <use x="894.90625" xlink:href="#DejaVuSans-b0"/>
    </g>
   </g>
   <g id="text_24">
    <g id="patch_25">
     <path d="M 73.709018 159.305339 
L 85.691959 143.795048 
L 84.128565 142.587201 
L 72.145624 158.097492 
z
" style="fill:#ffffff;"/>
    </g>
    <!-- Squirrel Cage 24.7° -->
    <g transform="translate(73.37627 159.022991)rotate(-52.311042)scale(0.02 -0.02)">
     <defs>
      <path d="M 947 1747 
Q 947 1113 1208 752 
Q 1469 391 1925 391 
Q 2381 391 2643 752 
Q 2906 1113 2906 1747 
Q 2906 2381 2643 2742 
Q 2381 3103 1925 3103 
Q 1469 3103 1208 2742 
Q 947 2381 947 1747 
z
M 2906 525 
Q 2725 213 2448 61 
Q 2172 -91 1784 -91 
Q 1150 -91 751 415 
Q 353 922 353 1747 
Q 353 2572 751 3078 
Q 1150 3584 1784 3584 
Q 2172 3584 2448 3432 
Q 2725 3281 2906 2969 
L 2906 3500 
L 3481 3500 
L 3481 -1331 
L 2906 -1331 
L 2906 525 
z
" id="DejaVuSans-71" transform="scale(0.015625)"/>
     </defs>
     <use xlink:href="#DejaVuSans-53"/>
     <use x="63.476562" xlink:href="#DejaVuSans-71"/>
     <use x="126.953125" xlink:href="#DejaVuSans-75"/>
     <use x="190.332031" xlink:href="#DejaVuSans-69"/>
     <use x="218.115234" xlink:href="#DejaVuSans-72"/>
     <use x="257.478516" xlink:href="#DejaVuSans-72"/>
     <use x="296.341797" xlink:href="#DejaVuSans-65"/>
     <use x="357.865234" xlink:href="#DejaVuSans-6c"/>
     <use x="385.648438" xlink:href="#DejaVuSans-20"/>
     <use x="417.435547" xlink:href="#DejaVuSans-43"/>
     <use x="487.259766" xlink:href="#DejaVuSans-61"/>
     <use x="548.539062" xlink:href="#DejaVuSans-67"/>
     <use x="612.015625" xlink:href="#DejaVuSans-65"/>
     <use x="673.539062" xlink:href="#DejaVuSans-20"/>
     <use x="705.326172" xlink:href="#DejaVuSans-32"/>
     <use x="768.949219" xlink:href="#DejaVuSans-34"/>
     <use x="832.572266" xlink:href="#DejaVuSans-2e"/>
     <use x="864.359375" xlink:href="#DejaVuSans-37"/>
     <use x="927.982422" xlink:href="#DejaVuSans-b0"/>
    </g>
   </g>
   <g id="text_25">
    <g id="patch_26">
     <path d="M 67.880059 155.412964 
L 77.340144 143.76216 
L 75.806434 142.516837 
L 66.34635 154.167641 
z
" style="fill:#ffffff;"/>
    </g>
    <!-- The Face 28.4° -->
    <g transform="translate(67.554241 155.122648)rotate(-50.924493)scale(0.02 -0.02)">
     <defs>
      <path d="M 628 4666 
L 3309 4666 
L 3309 4134 
L 1259 4134 
L 1259 2759 
L 3109 2759 
L 3109 2228 
L 1259 2228 
L 1259 0 
L 628 0 
L 628 4666 
z
" id="DejaVuSans-46" transform="scale(0.015625)"/>
     </defs>
     <use xlink:href="#DejaVuSans-54"/>
     <use x="61.083984" xlink:href="#DejaVuSans-68"/>
     <use x="124.462891" xlink:href="#DejaVuSans-65"/>
     <use x="185.986328" xlink:href="#DejaVuSans-20"/>
     <use x="217.773438" xlink:href="#DejaVuSans-46"/>
     <use x="266.167969" xlink:href="#DejaVuSans-61"/>
     <use x="327.447266" xlink:href="#DejaVuSans-63"/>
     <use x="382.427734" xlink:href="#DejaVuSans-65"/>
     <use x="443.951172" xlink:href="#DejaVuSans-20"/>
     <use x="475.738281" xlink:href="#DejaVuSans-32"/>
     <use x="539.361328" xlink:href="#DejaVuSans-38"/>
     <use x="602.984375" xlink:href="#DejaVuSans-2e"/>
     <use x="634.771484" xlink:href="#DejaVuSans-34"/>
     <use x="698.394531" xlink:href="#DejaVuSans-b0"/>
    </g>
   </g>
   <g id="text_26">
    <g id="patch_27">
     <path d="M 135.514743 123.473327 
L 139.745904 108.406476 
L 137.843856 107.872332 
L 133.612696 122.939183 
z
" style="fill:#ffffff;"/>
    </g>
    <!-- Wisp Trail 12.8° -->
    <g style="fill:#008000;" transform="translate(135.100449 123.336209)rotate(-74.313888)scale(0.02 -0.02)">
     <use xlink:href="#DejaVuSans-57"/>
     <use x="96.626953" xlink:href="#DejaVuSans-69"/>
     <use x="124.410156" xlink:href="#DejaVuSans-73"/>
     <use x="176.509766" xlink:href="#DejaVuSans-70"/>
     <use x="239.986328" xlink:href="#DejaVuSans-20"/>
     <use x="271.773438" xlink:href="#DejaVuSans-54"/>
     <use x="318.107422" xlink:href="#DejaVuSans-72"/>
     <use x="359.220703" xlink:href="#DejaVuSans-61"/>
     <use x="420.5" xlink:href="#DejaVuSans-69"/>
     <use x="448.283203" xlink:href="#DejaVuSans-6c"/>
     <use x="476.066406" xlink:href="#DejaVuSans-20"/>
     <use x="507.853516" xlink:href="#DejaVuSans-31"/>
     <use x="571.476562" xlink:href="#DejaVuSans-32"/>
     <use x="635.099609" xlink:href="#DejaVuSans-2e"/>
     <use x="666.886719" xlink:href="#DejaVuSans-38"/>
     <use x="730.509766" xlink:href="#DejaVuSans-b0"/>
    </g>
   </g>
   <g id="text_27">
    <g id="patch_28">
     <path d="M 83.966528 194.882815 
L 99.388848 186.891011 
L 98.479878 185.136911 
L 83.057558 193.128714 
z
" style="fill:#ffffff;"/>
    </g>
    <!-- Sunset Blvd. 7.3° -->
    <g style="fill:#008000;" transform="translate(83.783714 194.486557)rotate(-27.393065)scale(0.02 -0.02)">
     <use xlink:href="#DejaVuSans-53"/>
     <use x="63.476562" xlink:href="#DejaVuSans-75"/>
     <use x="126.855469" xlink:href="#DejaVuSans-6e"/>
     <use x="190.234375" xlink:href="#DejaVuSans-73"/>
     <use x="242.333984" xlink:href="#DejaVuSans-65"/>
     <use x="303.857422" xlink:href="#DejaVuSans-74"/>
     <use x="343.066406" xlink:href="#DejaVuSans-20"/>
     <use x="374.853516" xlink:href="#DejaVuSans-42"/>
     <use x="443.457031" xlink:href="#DejaVuSans-6c"/>
     <use x="471.240234" xlink:href="#DejaVuSans-76"/>
     <use x="530.419922" xlink:href="#DejaVuSans-64"/>
     <use x="593.896484" xlink:href="#DejaVuSans-2e"/>
     <use x="625.683594" xlink:href="#DejaVuSans-20"/>
     <use x="657.470703" xlink:href="#DejaVuSans-37"/>
     <use x="721.09375" xlink:href="#DejaVuSans-2e"/>
     <use x="752.880859" xlink:href="#DejaVuSans-33"/>
     <use x="816.503906" xlink:href="#DejaVuSans-b0"/>
    </g>
   </g>
   <g id="text_28">
    <!-- Wisp -->
    <g transform="translate(96.588795 16.30277)scale(0.15 -0.15)">
     <use xlink:href="#DejaVuSans-57"/>
     <use x="96.626953" xlink:href="#DejaVuSans-69"/>
     <use x="124.410156" xlink:href="#DejaVuSans-73"/>
     <use x="176.509766" xlink:href="#DejaVuSans-70"/>
    </g>
   </g>
   <g id="legend_1">
    <g id="line2d_49">
     <path d="M 9.584694 206.607857 
L 24.584694 206.607857 
" style="fill:none;stroke:#008000;stroke-linecap:square;stroke-width:1.5;"/>
    </g>
    <g id="line2d_50"/>
    <g id="text_29">
     <!-- Easy -->
     <g transform="translate(30.584694 209.232857)scale(0.075 -0.075)">
      <use xlink:href="#DejaVuSans-45"/>
      <use x="63.183594" xlink:href="#DejaVuSans-61"/>
      <use x="124.462891" xlink:href="#DejaVuSans-73"/>
      <use x="176.5625" xlink:href="#DejaVuSans-79"/>
     </g>
    </g>
    <g id="line2d_51">
     <path d="M 9.584694 217.616451 
L 24.584694 217.616451 
" style="fill:none;stroke:#4169e1;stroke-linecap:square;stroke-width:1.5;"/>
    </g>
    <g id="line2d_52"/>
    <g id="text_30">
     <!-- Intermediate -->
     <g transform="translate(30.584694 220.241451)scale(0.075 -0.075)">
      <defs>
       <path d="M 628 4666 
L 1259 4666 
L 1259 0 
L 628 0 
L 628 4666 
z
" id="DejaVuSans-49" transform="scale(0.015625)"/>
      </defs>
      <use xlink:href="#DejaVuSans-49"/>
      <use x="29.492188" xlink:href="#DejaVuSans-6e"/>
      <use x="92.871094" xlink:href="#DejaVuSans-74"/>
      <use x="132.080078" xlink:href="#DejaVuSans-65"/>
      <use x="193.603516" xlink:href="#DejaVuSans-72"/>
      <use x="232.966797" xlink:href="#DejaVuSans-6d"/>
      <use x="330.378906" xlink:href="#DejaVuSans-65"/>
      <use x="391.902344" xlink:href="#DejaVuSans-64"/>
      <use x="455.378906" xlink:href="#DejaVuSans-69"/>
      <use x="483.162109" xlink:href="#DejaVuSans-61"/>
      <use x="544.441406" xlink:href="#DejaVuSans-74"/>
      <use x="583.650391" xlink:href="#DejaVuSans-65"/>
     </g>
    </g>
    <g id="line2d_53">
     <path d="M 93.973756 206.607857 
L 108.973756 206.607857 
" style="fill:none;stroke:#000000;stroke-linecap:square;stroke-width:1.5;"/>
    </g>
    <g id="line2d_54"/>
    <g id="text_31">
     <!-- Advanced -->
     <g transform="translate(114.973756 209.232857)scale(0.075 -0.075)">
      <defs>
       <path d="M 2188 4044 
L 1331 1722 
L 3047 1722 
L 2188 4044 
z
M 1831 4666 
L 2547 4666 
L 4325 0 
L 3669 0 
L 3244 1197 
L 1141 1197 
L 716 0 
L 50 0 
L 1831 4666 
z
" id="DejaVuSans-41" transform="scale(0.015625)"/>
      </defs>
      <use xlink:href="#DejaVuSans-41"/>
      <use x="66.658203" xlink:href="#DejaVuSans-64"/>
      <use x="130.134766" xlink:href="#DejaVuSans-76"/>
      <use x="189.314453" xlink:href="#DejaVuSans-61"/>
      <use x="250.59375" xlink:href="#DejaVuSans-6e"/>
      <use x="313.972656" xlink:href="#DejaVuSans-63"/>
      <use x="368.953125" xlink:href="#DejaVuSans-65"/>
      <use x="430.476562" xlink:href="#DejaVuSans-64"/>
     </g>
    </g>
    <g id="line2d_55">
     <path d="M 93.973756 217.616451 
L 108.973756 217.616451 
" style="fill:none;stroke:#ff0000;stroke-linecap:square;stroke-width:1.5;"/>
    </g>
    <g id="line2d_56"/>
    <g id="text_32">
     <!-- Expert -->
     <g transform="translate(114.973756 220.241451)scale(0.075 -0.075)">
      <defs>
       <path d="M 3513 3500 
L 2247 1797 
L 3578 0 
L 2900 0 
L 1881 1375 
L 863 0 
L 184 0 
L 1544 1831 
L 300 3500 
L 978 3500 
L 1906 2253 
L 2834 3500 
L 3513 3500 
z
" id="DejaVuSans-78" transform="scale(0.015625)"/>
      </defs>
      <use xlink:href="#DejaVuSans-45"/>
      <use x="63.183594" xlink:href="#DejaVuSans-78"/>
      <use x="122.363281" xlink:href="#DejaVuSans-70"/>
      <use x="185.839844" xlink:href="#DejaVuSans-65"/>
      <use x="247.363281" xlink:href="#DejaVuSans-72"/>
      <use x="288.476562" xlink:href="#DejaVuSans-74"/>
     </g>
    </g>
    <g id="line2d_57">
     <path d="M 167.022585 206.607857 
L 182.022585 206.607857 
" style="fill:none;stroke:#ffd700;stroke-linecap:square;stroke-width:1.5;"/>
    </g>
    <g id="line2d_58"/>
    <g id="text_33">
     <!-- Extreme -->
     <g transform="translate(188.022585 209.232857)scale(0.075 -0.075)">
      <use xlink:href="#DejaVuSans-45"/>
      <use x="63.183594" xlink:href="#DejaVuSans-78"/>
      <use x="122.363281" xlink:href="#DejaVuSans-74"/>
      <use x="161.572266" xlink:href="#DejaVuSans-72"/>
      <use x="200.435547" xlink:href="#DejaVuSans-65"/>
      <use x="261.958984" xlink:href="#DejaVuSans-6d"/>
      <use x="359.371094" xlink:href="#DejaVuSans-65"/>
     </g>
    </g>
    <g id="line2d_59">
     <path d="M 167.022585 217.616451 
L 182.022585 217.616451 
" style="fill:none;stroke:#000000;stroke-dasharray:1.5,2.475;stroke-dashoffset:0;stroke-width:1.5;"/>
    </g>
    <g id="line2d_60"/>
    <g id="text_34">
     <!-- Gladed -->
     <g transform="translate(188.022585 220.241451)scale(0.075 -0.075)">
      <use xlink:href="#DejaVuSans-47"/>
      <use x="77.490234" xlink:href="#DejaVuSans-6c"/>
      <use x="105.273438" xlink:href="#DejaVuSans-61"/>
      <use x="166.552734" xlink:href="#DejaVuSans-64"/>
      <use x="230.029297" xlink:href="#DejaVuSans-65"/>
      <use x="291.552734" xlink:href="#DejaVuSans-64"/>
     </g>
    </g>
   </g>
  </g>
  <g id="text_35">
   <!-- Sources: USGS and OpenStreetMaps -->
   <g transform="translate(55.096625 232.049716)scale(0.065217 -0.065217)">
    <defs>
     <path d="M 750 794 
L 1409 794 
L 1409 0 
L 750 0 
L 750 794 
z
M 750 3309 
L 1409 3309 
L 1409 2516 
L 750 2516 
L 750 3309 
z
" id="DejaVuSans-3a" transform="scale(0.015625)"/>
    </defs>
    <use xlink:href="#DejaVuSans-53"/>
    <use x="63.476562" xlink:href="#DejaVuSans-6f"/>
    <use x="124.658203" xlink:href="#DejaVuSans-75"/>
    <use x="188.037109" xlink:href="#DejaVuSans-72"/>
    <use x="226.900391" xlink:href="#DejaVuSans-63"/>
    <use x="281.880859" xlink:href="#DejaVuSans-65"/>
    <use x="343.404297" xlink:href="#DejaVuSans-73"/>
    <use x="395.503906" xlink:href="#DejaVuSans-3a"/>
    <use x="429.195312" xlink:href="#DejaVuSans-20"/>
    <use x="460.982422" xlink:href="#DejaVuSans-55"/>
    <use x="534.175781" xlink:href="#DejaVuSans-53"/>
    <use x="597.652344" xlink:href="#DejaVuSans-47"/>
    <use x="675.142578" xlink:href="#DejaVuSans-53"/>
    <use x="738.619141" xlink:href="#DejaVuSans-20"/>
    <use x="770.40625" xlink:href="#DejaVuSans-61"/>
    <use x="831.685547" xlink:href="#DejaVuSans-6e"/>
    <use x="895.064453" xlink:href="#DejaVuSans-64"/>
    <use x="958.541016" xlink:href="#DejaVuSans-20"/>
    <use x="990.328125" xlink:href="#DejaVuSans-4f"/>
    <use x="1069.039062" xlink:href="#DejaVuSans-70"/>
    <use x="1132.515625" xlink:href="#DejaVuSans-65"/>
    <use x="1194.039062" xlink:href="#DejaVuSans-6e"/>
    <use x="1257.417969" xlink:href="#DejaVuSans-53"/>
    <use x="1320.894531" xlink:href="#DejaVuSans-74"/>
    <use x="1360.103516" xlink:href="#DejaVuSans-72"/>
    <use x="1398.966797" xlink:href="#DejaVuSans-65"/>
    <use x="1460.490234" xlink:href="#DejaVuSans-65"/>
    <use x="1522.013672" xlink:href="#DejaVuSans-74"/>
    <use x="1561.222656" xlink:href="#DejaVuSans-4d"/>
    <use x="1647.501953" xlink:href="#DejaVuSans-61"/>
    <use x="1708.78125" xlink:href="#DejaVuSans-70"/>
    <use x="1772.257812" xlink:href="#DejaVuSans-73"/>
   </g>
  </g>
 </g>
 <defs>
  <clipPath id="p888e61e2cb">
   <rect height="185.800494" width="229.175247" x="0" y="23.80277"/>
  </clipPath>
 </defs>
</svg>
