<?xml version="1.0" encoding="utf-8" standalone="no"?>
<!DOCTYPE svg PUBLIC "-//W3C//DTD SVG 1.1//EN"
  "http://www.w3.org/Graphics/SVG/1.1/DTD/svg11.dtd">
<svg height="161.384922pt" version="1.1" viewBox="0 0 147.147345 161.384922" width="147.147345pt" xmlns="http://www.w3.org/2000/svg" xmlns:xlink="http://www.w3.org/1999/xlink">
 <metadata>
  <rdf:RDF xmlns:cc="http://creativecommons.org/ns#" xmlns:dc="http://purl.org/dc/elements/1.1/" xmlns:rdf="http://www.w3.org/1999/02/22-rdf-syntax-ns#">
   <cc:Work>
    <dc:type rdf:resource="http://purl.org/dc/dcmitype/StillImage"/>
    <dc:date>2022-04-14T21:35:08.464077</dc:date>
    <dc:format>image/svg+xml</dc:format>
    <dc:creator>
     <cc:Agent>
      <dc:title>Matplotlib v3.4.3, https://matplotlib.org/</dc:title>
     </cc:Agent>
    </dc:creator>
   </cc:Work>
  </rdf:RDF>
 </metadata>
 <defs>
  <style type="text/css">*{stroke-linecap:butt;stroke-linejoin:round;}</style>
 </defs>
 <g id="figure_1">
  <g id="patch_1">
   <path d="M 0 161.384922 
L 147.147345 161.384922 
L 147.147345 0 
L 0 0 
z
" style="fill:#ffffff;"/>
  </g>
  <g id="axes_1">
   <g id="line2d_1">
    <path clip-path="url(#pa36dfcfb02)" d="M 35.1386 114.356639 
" style="fill:none;stroke:#008000;stroke-linecap:square;stroke-width:1.5;"/>
   </g>
   <g id="line2d_2">
    <path clip-path="url(#pa36dfcfb02)" d="M 35.1386 114.356639 
" style="fill:none;stroke:#4169e1;stroke-linecap:square;stroke-width:1.5;"/>
   </g>
   <g id="line2d_3">
    <path clip-path="url(#pa36dfcfb02)" d="M 35.1386 114.356639 
" style="fill:none;stroke:#000000;stroke-linecap:square;stroke-width:1.5;"/>
   </g>
   <g id="line2d_4">
    <path clip-path="url(#pa36dfcfb02)" d="M 35.1386 114.356639 
" style="fill:none;stroke:#ff0000;stroke-linecap:square;stroke-width:1.5;"/>
   </g>
   <g id="line2d_5">
    <path clip-path="url(#pa36dfcfb02)" d="M 35.1386 114.356639 
" style="fill:none;stroke:#ffd700;stroke-linecap:square;stroke-width:1.5;"/>
   </g>
   <g id="line2d_6">
    <path clip-path="url(#pa36dfcfb02)" d="M 35.1386 114.356639 
" style="fill:none;stroke:#000000;stroke-dasharray:1.5,2.475;stroke-dashoffset:0;stroke-width:1.5;"/>
   </g>
   <g id="line2d_7">
    <path clip-path="url(#pa36dfcfb02)" d="M 139.384085 21.709094 
L 136.117428 23.223515 
L 131.974006 25.143254 
L 127.830584 27.062994 
L 122.93649 29.331777 
L 118.042397 31.600559 
L 113.404027 33.74967 
L 108.765656 35.898781 
L 103.074932 38.536553 
L 97.384208 41.174324 
L 92.381698 43.492258 
L 90.390121 44.415443 
" style="fill:none;stroke:#808080;stroke-linecap:square;stroke-width:1.5;"/>
   </g>
   <g id="line2d_8">
    <path clip-path="url(#pa36dfcfb02)" d="M 54.271877 139.675828 
L 54.121036 135.057056 
L 54.001424 131.413469 
L 53.881811 127.769883 
L 53.736862 123.342729 
L 53.591913 118.915575 
L 53.450499 114.603819 
L 53.309086 110.292063 
L 53.187705 106.597188 
L 53.066325 102.902313 
L 52.883666 97.314768 
L 52.685687 91.266342 
L 52.487708 85.217917 
L 52.455889 84.26339 
L 52.292674 80.024292 
L 52.129459 75.785194 
L 51.986867 72.077497 
L 51.844275 68.3698 
L 51.706397 64.771803 
L 51.568518 61.173805 
L 51.429462 57.565835 
L 51.290405 53.957865 
" style="fill:none;stroke:#808080;stroke-linecap:square;stroke-width:1.5;"/>
   </g>
   <g id="line2d_9">
    <path clip-path="url(#pa36dfcfb02)" d="M 55.491571 132.828877 
L 52.267927 129.92113 
L 49.044283 127.013384 
" style="fill:none;stroke:#808080;stroke-linecap:square;stroke-width:1.5;"/>
   </g>
   <g id="line2d_10">
    <path clip-path="url(#pa36dfcfb02)" d="M 51.409428 138.302449 
L 49.965829 134.873274 
L 47.58183 129.208084 
L 45.19783 123.542894 
L 43.714754 120.01898 
L 42.231677 116.495065 
L 40.215353 111.704621 
L 38.199029 106.914177 
L 36.250466 102.283295 
L 34.301902 97.652414 
L 32.131202 92.495118 
L 31.785917 91.526344 
L 30.65991 88.369281 
L 29.533903 85.212218 
L 28.312147 81.785537 
L 27.090392 78.358856 
L 25.868636 74.932174 
L 24.64688 71.505493 
L 23.365024 67.911057 
L 22.083167 64.316621 
L 20.801311 60.722186 
L 19.519454 57.12775 
L 18.18663 53.387998 
L 17.56441 51.644205 
" style="fill:none;stroke:#808080;stroke-linecap:square;stroke-width:1.5;"/>
   </g>
   <g id="line2d_11">
    <path clip-path="url(#pa36dfcfb02)" d="M 65.10299 63.996071 
L 69.595233 60.719336 
L 73.514161 57.860741 
L 77.433089 55.002146 
L 80.649073 52.657144 
L 83.865056 50.312141 
L 87.914203 47.358805 
" style="fill:none;stroke:#808080;stroke-linecap:square;stroke-width:1.5;"/>
   </g>
   <g id="line2d_12">
    <path clip-path="url(#pa36dfcfb02)" d="M 35.1386 114.356639 
L 35.897226 113.242905 
L 36.655852 112.129172 
L 37.414477 111.015438 
L 38.173103 109.901704 
L 38.900058 108.540613 
L 39.627013 107.179521 
L 40.353968 105.818429 
L 41.080923 104.457338 
L 41.807878 103.096246 
L 42.534833 101.735154 
L 43.261788 100.374063 
L 43.988743 99.012971 
L 44.811005 98.362076 
L 45.633266 97.711181 
L 46.455528 97.060286 
L 47.27779 96.409392 
L 48.100052 95.758497 
L 48.922314 95.107602 
L 49.744576 94.456707 
L 50.566838 93.805812 
L 51.735563 92.88049 
L 52.904289 91.955169 
L 54.073014 91.029847 
L 55.24174 90.104526 
L 54.545277 88.644242 
L 53.848815 87.183958 
L 53.152352 85.723674 
L 52.455889 84.26339 
" style="fill:none;stroke:#4169e1;stroke-linecap:square;stroke-width:1.5;"/>
   </g>
   <g id="line2d_13">
    <path clip-path="url(#pa36dfcfb02)" d="M 19.27198 83.331657 
L 19.67442 84.729612 
L 20.07686 86.127567 
L 20.4793 87.525522 
L 20.88174 88.923477 
L 21.158086 90.217787 
L 21.434432 91.512097 
L 21.710778 92.806408 
L 21.987124 94.100718 
L 22.68285 95.24063 
L 23.378576 96.380542 
L 24.074302 97.520454 
L 24.770028 98.660366 
L 25.465754 99.800278 
L 26.16148 100.94019 
L 26.857206 102.080102 
L 27.552932 103.220014 
L 28.501141 104.612092 
L 29.449349 106.00417 
L 30.397558 107.396248 
L 31.345766 108.788327 
L 32.293975 110.180405 
L 33.242183 111.572483 
L 34.190392 112.964561 
L 35.1386 114.356639 
L 35.723405 115.160864 
L 36.30821 115.965089 
L 36.893014 116.769313 
L 37.477819 117.573538 
L 38.062624 118.377763 
L 38.647428 119.181988 
L 39.232233 119.986212 
L 39.817038 120.790437 
L 40.623096 121.938897 
L 41.429154 123.087357 
L 42.235212 124.235817 
L 43.041271 125.384277 
L 43.847329 126.532737 
L 44.653387 127.681197 
L 45.459445 128.829657 
L 46.265504 129.978117 
L 47.229474 130.813328 
L 48.193444 131.64854 
L 49.157414 132.483751 
L 50.121385 133.318962 
L 51.159008 134.908179 
L 52.196631 136.497395 
L 53.234254 138.086612 
L 54.271877 139.675828 
" style="fill:none;stroke:#008000;stroke-linecap:square;stroke-width:1.5;"/>
   </g>
   <g id="line2d_14">
    <path clip-path="url(#pa36dfcfb02)" d="M 66.115277 64.986215 
L 65.10299 63.996071 
" style="fill:none;stroke:#008000;stroke-linecap:square;stroke-width:1.5;"/>
   </g>
   <g id="line2d_15">
    <path clip-path="url(#pa36dfcfb02)" d="M 49.931654 53.477752 
L 48.540497 54.34395 
L 47.149339 55.210147 
L 47.212976 56.509444 
L 47.276612 57.808741 
L 48.130029 58.713583 
L 48.983446 59.618425 
L 49.836863 60.523266 
L 50.69028 61.428108 
L 51.543697 62.33295 
L 52.397114 63.237792 
L 53.250531 64.142634 
L 54.103949 65.047476 
L 54.957366 65.952318 
L 55.810783 66.85716 
L 56.6642 67.762001 
L 57.517617 68.666843 
L 58.371034 69.571685 
L 59.224451 70.476527 
L 60.077868 71.381369 
L 60.931285 72.286211 
" style="fill:none;stroke:#4169e1;stroke-linecap:square;stroke-width:1.5;"/>
   </g>
   <g id="line2d_16">
    <path clip-path="url(#pa36dfcfb02)" d="M 64.850802 81.814386 
L 64.692596 82.773188 
L 64.534389 83.731989 
L 64.376183 84.69079 
L 64.217976 85.649591 
L 62.447948 86.391843 
L 60.840545 86.085539 
L 59.792463 85.857771 
L 58.744381 85.630002 
L 57.696299 85.402233 
L 56.648217 85.174464 
L 55.600135 84.946696 
L 54.552053 84.718927 
L 53.503971 84.491158 
L 52.455889 84.26339 
" style="fill:none;stroke:#4169e1;stroke-linecap:square;stroke-width:1.5;"/>
   </g>
   <g id="line2d_17">
    <path clip-path="url(#pa36dfcfb02)" d="M 64.850802 81.814386 
L 63.848238 82.882175 
L 62.845674 83.949963 
L 61.843109 85.017751 
L 60.840545 86.085539 
L 59.440844 87.090286 
L 58.041142 88.095033 
L 56.641441 89.099779 
L 55.24174 90.104526 
" style="fill:none;stroke:#000000;stroke-linecap:square;stroke-width:1.5;"/>
   </g>
   <g id="line2d_18">
    <path clip-path="url(#pa36dfcfb02)" d="M 16.803132 50.050002 
L 15.855071 51.287326 
L 14.90701 52.524649 
L 13.958949 53.761973 
L 13.010888 54.999297 
L 12.094055 55.927468 
L 11.177223 56.855638 
L 10.260391 57.783809 
L 9.343558 58.71198 
L 8.14272 59.763384 
L 6.941882 60.814789 
L 6.815199 62.238032 
L 6.688516 63.661274 
L 7.236199 64.928872 
L 7.783883 66.19647 
L 8.331566 67.464068 
L 8.87925 68.731666 
L 9.764264 69.968989 
L 10.649278 71.206313 
L 11.534293 72.443637 
L 12.419307 73.68096 
L 13.43071 74.454198 
L 14.442112 75.227437 
L 15.453515 76.000675 
L 16.464918 76.773913 
" style="fill:none;stroke:#4169e1;stroke-linecap:square;stroke-width:1.5;"/>
   </g>
   <g id="line2d_19">
    <path clip-path="url(#pa36dfcfb02)" d="M 50.566838 93.805812 
L 49.531277 93.648742 
L 48.495716 93.491673 
L 47.460155 93.334603 
L 46.424594 93.177534 
L 45.389033 93.020464 
L 44.353472 92.863394 
L 43.317911 92.706325 
L 42.28235 92.549255 
L 41.013457 92.542488 
L 39.744563 92.535721 
L 38.47567 92.528954 
L 37.206776 92.522187 
L 35.937882 92.515419 
L 34.668989 92.508652 
L 33.400095 92.501885 
L 32.131202 92.495118 
L 31.610917 91.441576 
L 31.090632 90.388035 
L 29.541858 89.80036 
L 27.993083 89.212684 
L 26.444308 88.625009 
L 24.895533 88.037334 
L 23.892085 88.258869 
L 22.888636 88.480405 
L 21.885188 88.701941 
L 20.88174 88.923477 
" style="fill:none;stroke:#008000;stroke-linecap:square;stroke-width:1.5;"/>
   </g>
   <g id="line2d_20">
    <path clip-path="url(#pa36dfcfb02)" d="M 49.931654 53.477752 
L 49.045462 53.063174 
L 48.159269 52.648595 
L 46.389241 52.710569 
L 44.619212 52.772542 
L 43.481126 52.679582 
L 42.34304 52.586622 
L 41.204955 52.493663 
L 40.066869 52.400703 
L 38.771018 52.045071 
L 37.475168 51.689438 
L 36.179317 51.333806 
L 34.883466 50.978173 
L 33.587616 50.62254 
L 32.291765 50.266908 
L 30.995915 49.911275 
L 29.700064 49.555643 
L 28.309201 49.49367 
L 26.918338 49.431697 
L 25.527475 49.369723 
L 24.136613 49.30775 
L 22.303242 49.493313 
L 20.469872 49.678876 
L 18.636502 49.864439 
L 16.803132 50.050002 
" style="fill:none;stroke:#008000;stroke-linecap:square;stroke-width:1.5;"/>
   </g>
   <g id="line2d_21">
    <path clip-path="url(#pa36dfcfb02)" d="M 47.149339 55.210147 
L 45.947323 55.413875 
L 44.745306 55.617602 
L 43.228055 55.989441 
L 41.710803 56.361279 
L 41.252534 57.258285 
L 40.794266 58.155291 
L 40.335997 59.052297 
L 39.877728 59.949304 
L 39.419459 60.84631 
L 38.96119 61.743316 
L 38.502921 62.640322 
L 38.044652 63.537328 
L 37.049011 64.542787 
L 36.05337 65.548246 
L 35.057729 66.553705 
L 34.062088 67.559164 
L 33.066447 68.564623 
L 32.070806 69.570082 
L 31.075165 70.575542 
L 30.079524 71.581001 
L 29.218521 72.647542 
L 28.357518 73.714084 
L 27.496514 74.780625 
L 26.635511 75.847167 
L 25.774508 76.913709 
L 24.913504 77.98025 
L 24.052501 79.046792 
L 23.191497 80.113334 
" style="fill:none;stroke:#ff0000;stroke-linecap:square;stroke-width:1.5;"/>
   </g>
   <g id="line2d_22">
    <path clip-path="url(#pa36dfcfb02)" d="M 16.803132 50.050002 
L 16.803132 51.039968 
L 16.803132 52.029934 
L 16.803132 53.019899 
L 16.803132 54.009865 
L 16.803132 54.999831 
L 16.803132 55.989797 
L 16.803132 56.979762 
L 16.803132 57.969728 
L 16.83495 59.732754 
L 16.866769 61.49578 
L 16.898587 63.258806 
L 16.930405 65.021832 
L 16.867063 66.120072 
L 16.803722 67.218313 
L 16.74038 68.316553 
L 16.677038 69.414794 
L 16.613697 70.513034 
L 16.550355 71.611275 
L 16.487014 72.709515 
L 16.423672 73.807756 
L 16.444295 75.290834 
L 16.464918 76.773913 
L 17.166684 78.413349 
L 17.868449 80.052785 
L 18.570215 81.692221 
L 19.27198 83.331657 
" style="fill:none;stroke:#4169e1;stroke-linecap:square;stroke-width:1.5;"/>
   </g>
   <g id="line2d_23">
    <path clip-path="url(#pa36dfcfb02)" d="M 12.419307 73.68096 
L 12.503861 75.568645 
L 12.588414 77.456329 
L 12.672968 79.344013 
L 12.757521 81.231697 
L 13.326417 82.577296 
L 13.895313 83.922894 
L 14.464208 85.268493 
L 15.033104 86.614091 
L 15.602 87.959689 
L 16.170895 89.305288 
L 16.739791 90.650886 
L 17.308686 91.996484 
L 18.478296 92.522543 
L 19.647905 93.048601 
L 20.817515 93.57466 
L 21.987124 94.100718 
" style="fill:none;stroke:#008000;stroke-linecap:square;stroke-width:1.5;"/>
   </g>
   <g id="line2d_24">
    <path clip-path="url(#pa36dfcfb02)" d="M 52.428785 53.222736 
L 53.439893 54.584718 
L 52.460603 55.923906 
L 50.627528 55.954536 
L 48.794452 55.985167 
L 48.035532 56.896954 
L 47.276612 57.808741 
" style="fill:none;stroke:#4169e1;stroke-linecap:square;stroke-width:1.5;"/>
   </g>
   <g id="line2d_25">
    <path clip-path="url(#pa36dfcfb02)" d="M 64.850802 81.814386 
L 65.388175 82.773366 
L 65.925547 83.732345 
L 66.462919 84.691324 
L 67.000291 85.650303 
L 67.537663 86.609283 
L 68.075035 87.568262 
L 68.612408 88.527241 
L 69.14978 89.48622 
L 69.117962 91.09467 
L 69.086144 92.703119 
L 69.054325 94.311569 
L 69.022507 95.920018 
L 68.564239 96.933135 
L 68.10597 97.946252 
L 67.647701 98.959368 
L 67.189432 99.972485 
L 66.731163 100.985601 
L 66.272894 101.998718 
L 65.814625 103.011835 
L 65.356357 104.024951 
L 64.898088 105.038068 
L 64.439819 106.051184 
L 63.98155 107.064301 
L 63.523281 108.077418 
L 63.065012 109.090534 
L 62.606743 110.103651 
L 62.148475 111.116767 
L 61.690206 112.129884 
L 60.299048 112.995369 
L 58.907891 113.860855 
" style="fill:none;stroke:#4169e1;stroke-linecap:square;stroke-width:1.5;"/>
   </g>
   <g id="line2d_26">
    <path clip-path="url(#pa36dfcfb02)" d="M 58.907891 113.860855 
L 57.817385 114.000116 
L 56.726879 114.139377 
L 55.636373 114.278639 
L 54.545866 114.4179 
L 53.45536 114.557161 
L 52.364854 114.696422 
L 51.274348 114.835683 
L 50.183842 114.974945 
L 48.887992 115.701881 
L 47.592141 116.428818 
L 46.296291 117.155754 
L 45.00044 117.882691 
L 43.704589 118.609627 
L 42.408739 119.336564 
L 41.112888 120.0635 
L 39.817038 120.790437 
" style="fill:none;stroke:#4169e1;stroke-linecap:square;stroke-width:1.5;"/>
   </g>
   <g id="line2d_27">
    <path clip-path="url(#pa36dfcfb02)" d="M 46.265504 129.978117 
L 46.734526 130.96185 
L 47.203548 131.945583 
L 47.67257 132.929316 
L 48.141592 133.913048 
L 48.958551 135.010398 
L 49.77551 136.107749 
L 50.592469 137.205099 
L 51.409428 138.302449 
" style="fill:none;stroke:#008000;stroke-linecap:square;stroke-width:1.5;"/>
   </g>
   <g id="line2d_28">
    <path clip-path="url(#pa36dfcfb02)" d="M 52.455889 84.26339 
L 50.623109 83.753003 
L 48.790328 83.242615 
L 46.957547 82.732228 
L 45.124766 82.221841 
L 43.765427 81.850715 
L 42.406087 81.47959 
L 41.046748 81.108464 
L 39.687409 80.737338 
L 38.526196 80.868229 
L 37.364983 80.999121 
L 36.20377 81.130012 
L 35.042557 81.260903 
L 33.881344 81.391794 
L 32.720131 81.522686 
L 31.558918 81.653577 
L 30.397705 81.784468 
L 28.596153 81.366685 
L 26.794601 80.948901 
L 24.993049 80.531117 
L 23.191497 80.113334 
L 22.211618 80.917914 
L 21.231739 81.722495 
L 20.25186 82.527076 
L 19.27198 83.331657 
" style="fill:none;stroke:#008000;stroke-linecap:square;stroke-width:1.5;"/>
   </g>
   <g id="line2d_29">
    <path clip-path="url(#pa36dfcfb02)" d="M 88.683729 34.515429 
L 87.89358 35.753465 
L 87.103431 36.991501 
" style="fill:none;stroke:#008000;stroke-linecap:square;stroke-width:1.5;"/>
   </g>
   <g id="line2d_30">
    <path clip-path="url(#pa36dfcfb02)" d="M 90.390121 44.415443 
L 89.152162 45.887124 
L 87.914203 47.358805 
" style="fill:none;stroke:#008000;stroke-linecap:square;stroke-width:1.5;"/>
   </g>
   <g id="line2d_31">
    <path clip-path="url(#pa36dfcfb02)" d="M 124.021841 28.329523 
L 122.267574 28.538237 
L 120.513307 28.746951 
L 118.75904 28.955664 
L 117.004774 29.164378 
L 115.250507 29.373092 
L 113.49624 29.581806 
L 111.741973 29.790519 
L 109.987707 29.999233 
L 108.332872 30.192632 
L 106.678036 30.38603 
L 105.023201 30.579429 
L 103.368366 30.772828 
L 102.07281 31.096049 
L 100.777254 31.41927 
L 99.481698 31.742492 
L 98.186142 32.065713 
L 96.890586 32.388935 
L 95.59503 32.712156 
L 94.299474 33.035378 
L 93.003918 33.358599 
L 91.923871 33.647806 
L 90.843824 33.937014 
L 89.763776 34.226221 
L 88.683729 34.515429 
" style="fill:none;stroke:#4169e1;stroke-linecap:square;stroke-width:1.5;"/>
   </g>
   <g id="line2d_32">
    <path clip-path="url(#pa36dfcfb02)" d="M 93.003918 33.358599 
L 94.24777 34.235482 
L 95.491621 35.112365 
L 96.735473 35.989247 
L 97.979325 36.86613 
L 99.303605 36.818938 
L 100.627886 36.771746 
L 101.952166 36.724554 
L 103.276447 36.677362 
L 104.600728 36.63017 
L 105.925008 36.582977 
L 107.249289 36.535785 
L 108.57357 36.488593 
L 110.016579 35.311818 
L 111.459588 34.135043 
" style="fill:none;stroke:#008000;stroke-linecap:square;stroke-width:1.5;"/>
   </g>
   <g id="line2d_33">
    <path clip-path="url(#pa36dfcfb02)" d="M 103.368366 30.772828 
L 104.379769 31.193105 
L 105.391171 31.613381 
L 106.402574 32.033658 
L 107.413977 32.453935 
L 108.42538 32.874212 
L 109.436782 33.294489 
L 110.448185 33.714766 
L 111.459588 34.135043 
L 113.02987 33.409353 
L 114.600151 32.683663 
L 116.170433 31.957973 
L 117.740714 31.232283 
L 119.310996 30.506593 
L 120.881277 29.780903 
L 122.451559 29.055213 
L 124.021841 28.329523 
" style="fill:none;stroke:#008000;stroke-linecap:square;stroke-width:1.5;"/>
   </g>
   <g id="line2d_34">
    <path clip-path="url(#pa36dfcfb02)" d="M 60.931285 72.286211 
L 61.421225 73.477233 
L 61.911165 74.668255 
L 62.401104 75.859277 
L 62.891044 77.050299 
L 63.380984 78.241321 
L 63.870923 79.432343 
L 64.360863 80.623364 
L 64.850802 81.814386 
" style="fill:none;stroke:#008000;stroke-linecap:square;stroke-width:1.5;"/>
   </g>
   <g id="line2d_35">
    <path clip-path="url(#pa36dfcfb02)" d="M 139.384085 21.709094 
L 140.458829 23.00839 
L 139.447132 23.720012 
L 138.435435 24.431633 
L 136.633735 24.918869 
L 134.832036 25.406106 
L 133.030337 25.893342 
L 131.228638 26.380578 
L 129.426938 26.867814 
L 127.625239 27.355051 
L 125.82354 27.842287 
L 124.021841 28.329523 
" style="fill:none;stroke:#008000;stroke-linecap:square;stroke-width:1.5;"/>
   </g>
   <g id="line2d_36">
    <path clip-path="url(#pa36dfcfb02)" d="M 87.103431 36.991501 
L 87.482891 38.846418 
L 88.209698 40.238674 
L 88.936506 41.63093 
L 89.663314 43.023186 
L 90.390121 44.415443 
" style="fill:none;stroke:#008000;stroke-linecap:square;stroke-width:1.5;"/>
   </g>
   <g id="line2d_37">
    <path clip-path="url(#pa36dfcfb02)" d="M 87.914203 47.358805 
L 88.405615 48.933063 
L 87.239247 49.752781 
L 86.072878 50.572499 
L 84.906509 51.392217 
L 83.740141 52.211935 
L 82.573772 53.031653 
L 81.407404 53.851371 
L 80.241035 54.671089 
L 79.074666 55.490807 
L 78.264705 56.08427 
L 77.454743 56.677733 
L 76.644781 57.271196 
L 75.834819 57.864659 
L 75.024857 58.458122 
L 74.214895 59.051585 
L 73.404933 59.645048 
L 72.594972 60.238511 
L 71.78501 60.831974 
L 70.975048 61.425437 
L 70.165086 62.0189 
L 69.355124 62.612363 
L 68.545162 63.205826 
L 67.735201 63.799289 
L 66.925239 64.392752 
L 66.115277 64.986215 
L 65.640952 66.068962 
L 65.166626 67.15171 
L 64.692301 68.234457 
L 64.217976 69.317204 
L 63.396303 70.059456 
L 62.574631 70.801707 
L 61.752958 71.543959 
L 60.931285 72.286211 
" style="fill:none;stroke:#008000;stroke-linecap:square;stroke-width:1.5;"/>
   </g>
   <g id="text_1">
    <g id="patch_2">
     <path d="M 115.490353 33.245002 
L 131.089975 27.263206 
L 130.382628 25.418551 
L 114.783005 31.400347 
z
" style="fill:#ffffff;"/>
    </g>
    <!-- Wolf Ridge Quad -->
    <g style="fill:#808080;" transform="translate(115.352945 32.830804)rotate(-20.979708)scale(0.02 -0.02)">
     <defs>
      <path d="M 213 4666 
L 850 4666 
L 1831 722 
L 2809 4666 
L 3519 4666 
L 4500 722 
L 5478 4666 
L 6119 4666 
L 4947 0 
L 4153 0 
L 3169 4050 
L 2175 0 
L 1381 0 
L 213 4666 
z
" id="DejaVuSans-57" transform="scale(0.015625)"/>
      <path d="M 1959 3097 
Q 1497 3097 1228 2736 
Q 959 2375 959 1747 
Q 959 1119 1226 758 
Q 1494 397 1959 397 
Q 2419 397 2687 759 
Q 2956 1122 2956 1747 
Q 2956 2369 2687 2733 
Q 2419 3097 1959 3097 
z
M 1959 3584 
Q 2709 3584 3137 3096 
Q 3566 2609 3566 1747 
Q 3566 888 3137 398 
Q 2709 -91 1959 -91 
Q 1206 -91 779 398 
Q 353 888 353 1747 
Q 353 2609 779 3096 
Q 1206 3584 1959 3584 
z
" id="DejaVuSans-6f" transform="scale(0.015625)"/>
      <path d="M 603 4863 
L 1178 4863 
L 1178 0 
L 603 0 
L 603 4863 
z
" id="DejaVuSans-6c" transform="scale(0.015625)"/>
      <path d="M 2375 4863 
L 2375 4384 
L 1825 4384 
Q 1516 4384 1395 4259 
Q 1275 4134 1275 3809 
L 1275 3500 
L 2222 3500 
L 2222 3053 
L 1275 3053 
L 1275 0 
L 697 0 
L 697 3053 
L 147 3053 
L 147 3500 
L 697 3500 
L 697 3744 
Q 697 4328 969 4595 
Q 1241 4863 1831 4863 
L 2375 4863 
z
" id="DejaVuSans-66" transform="scale(0.015625)"/>
      <path id="DejaVuSans-20" transform="scale(0.015625)"/>
      <path d="M 2841 2188 
Q 3044 2119 3236 1894 
Q 3428 1669 3622 1275 
L 4263 0 
L 3584 0 
L 2988 1197 
Q 2756 1666 2539 1819 
Q 2322 1972 1947 1972 
L 1259 1972 
L 1259 0 
L 628 0 
L 628 4666 
L 2053 4666 
Q 2853 4666 3247 4331 
Q 3641 3997 3641 3322 
Q 3641 2881 3436 2590 
Q 3231 2300 2841 2188 
z
M 1259 4147 
L 1259 2491 
L 2053 2491 
Q 2509 2491 2742 2702 
Q 2975 2913 2975 3322 
Q 2975 3731 2742 3939 
Q 2509 4147 2053 4147 
L 1259 4147 
z
" id="DejaVuSans-52" transform="scale(0.015625)"/>
      <path d="M 603 3500 
L 1178 3500 
L 1178 0 
L 603 0 
L 603 3500 
z
M 603 4863 
L 1178 4863 
L 1178 4134 
L 603 4134 
L 603 4863 
z
" id="DejaVuSans-69" transform="scale(0.015625)"/>
      <path d="M 2906 2969 
L 2906 4863 
L 3481 4863 
L 3481 0 
L 2906 0 
L 2906 525 
Q 2725 213 2448 61 
Q 2172 -91 1784 -91 
Q 1150 -91 751 415 
Q 353 922 353 1747 
Q 353 2572 751 3078 
Q 1150 3584 1784 3584 
Q 2172 3584 2448 3432 
Q 2725 3281 2906 2969 
z
M 947 1747 
Q 947 1113 1208 752 
Q 1469 391 1925 391 
Q 2381 391 2643 752 
Q 2906 1113 2906 1747 
Q 2906 2381 2643 2742 
Q 2381 3103 1925 3103 
Q 1469 3103 1208 2742 
Q 947 2381 947 1747 
z
" id="DejaVuSans-64" transform="scale(0.015625)"/>
      <path d="M 2906 1791 
Q 2906 2416 2648 2759 
Q 2391 3103 1925 3103 
Q 1463 3103 1205 2759 
Q 947 2416 947 1791 
Q 947 1169 1205 825 
Q 1463 481 1925 481 
Q 2391 481 2648 825 
Q 2906 1169 2906 1791 
z
M 3481 434 
Q 3481 -459 3084 -895 
Q 2688 -1331 1869 -1331 
Q 1566 -1331 1297 -1286 
Q 1028 -1241 775 -1147 
L 775 -588 
Q 1028 -725 1275 -790 
Q 1522 -856 1778 -856 
Q 2344 -856 2625 -561 
Q 2906 -266 2906 331 
L 2906 616 
Q 2728 306 2450 153 
Q 2172 0 1784 0 
Q 1141 0 747 490 
Q 353 981 353 1791 
Q 353 2603 747 3093 
Q 1141 3584 1784 3584 
Q 2172 3584 2450 3431 
Q 2728 3278 2906 2969 
L 2906 3500 
L 3481 3500 
L 3481 434 
z
" id="DejaVuSans-67" transform="scale(0.015625)"/>
      <path d="M 3597 1894 
L 3597 1613 
L 953 1613 
Q 991 1019 1311 708 
Q 1631 397 2203 397 
Q 2534 397 2845 478 
Q 3156 559 3463 722 
L 3463 178 
Q 3153 47 2828 -22 
Q 2503 -91 2169 -91 
Q 1331 -91 842 396 
Q 353 884 353 1716 
Q 353 2575 817 3079 
Q 1281 3584 2069 3584 
Q 2775 3584 3186 3129 
Q 3597 2675 3597 1894 
z
M 3022 2063 
Q 3016 2534 2758 2815 
Q 2500 3097 2075 3097 
Q 1594 3097 1305 2825 
Q 1016 2553 972 2059 
L 3022 2063 
z
" id="DejaVuSans-65" transform="scale(0.015625)"/>
      <path d="M 2522 4238 
Q 1834 4238 1429 3725 
Q 1025 3213 1025 2328 
Q 1025 1447 1429 934 
Q 1834 422 2522 422 
Q 3209 422 3611 934 
Q 4013 1447 4013 2328 
Q 4013 3213 3611 3725 
Q 3209 4238 2522 4238 
z
M 3406 84 
L 4238 -825 
L 3475 -825 
L 2784 -78 
Q 2681 -84 2626 -87 
Q 2572 -91 2522 -91 
Q 1538 -91 948 567 
Q 359 1225 359 2328 
Q 359 3434 948 4092 
Q 1538 4750 2522 4750 
Q 3503 4750 4090 4092 
Q 4678 3434 4678 2328 
Q 4678 1516 4351 937 
Q 4025 359 3406 84 
z
" id="DejaVuSans-51" transform="scale(0.015625)"/>
      <path d="M 544 1381 
L 544 3500 
L 1119 3500 
L 1119 1403 
Q 1119 906 1312 657 
Q 1506 409 1894 409 
Q 2359 409 2629 706 
Q 2900 1003 2900 1516 
L 2900 3500 
L 3475 3500 
L 3475 0 
L 2900 0 
L 2900 538 
Q 2691 219 2414 64 
Q 2138 -91 1772 -91 
Q 1169 -91 856 284 
Q 544 659 544 1381 
z
M 1991 3584 
L 1991 3584 
z
" id="DejaVuSans-75" transform="scale(0.015625)"/>
      <path d="M 2194 1759 
Q 1497 1759 1228 1600 
Q 959 1441 959 1056 
Q 959 750 1161 570 
Q 1363 391 1709 391 
Q 2188 391 2477 730 
Q 2766 1069 2766 1631 
L 2766 1759 
L 2194 1759 
z
M 3341 1997 
L 3341 0 
L 2766 0 
L 2766 531 
Q 2569 213 2275 61 
Q 1981 -91 1556 -91 
Q 1019 -91 701 211 
Q 384 513 384 1019 
Q 384 1609 779 1909 
Q 1175 2209 1959 2209 
L 2766 2209 
L 2766 2266 
Q 2766 2663 2505 2880 
Q 2244 3097 1772 3097 
Q 1472 3097 1187 3025 
Q 903 2953 641 2809 
L 641 3341 
Q 956 3463 1253 3523 
Q 1550 3584 1831 3584 
Q 2591 3584 2966 3190 
Q 3341 2797 3341 1997 
z
" id="DejaVuSans-61" transform="scale(0.015625)"/>
     </defs>
     <use xlink:href="#DejaVuSans-57"/>
     <use x="93.001953" xlink:href="#DejaVuSans-6f"/>
     <use x="154.183594" xlink:href="#DejaVuSans-6c"/>
     <use x="181.966797" xlink:href="#DejaVuSans-66"/>
     <use x="217.171875" xlink:href="#DejaVuSans-20"/>
     <use x="248.958984" xlink:href="#DejaVuSans-52"/>
     <use x="318.441406" xlink:href="#DejaVuSans-69"/>
     <use x="346.224609" xlink:href="#DejaVuSans-64"/>
     <use x="409.701172" xlink:href="#DejaVuSans-67"/>
     <use x="473.177734" xlink:href="#DejaVuSans-65"/>
     <use x="534.701172" xlink:href="#DejaVuSans-20"/>
     <use x="566.488281" xlink:href="#DejaVuSans-51"/>
     <use x="645.199219" xlink:href="#DejaVuSans-75"/>
     <use x="708.578125" xlink:href="#DejaVuSans-61"/>
     <use x="769.857422" xlink:href="#DejaVuSans-64"/>
    </g>
   </g>
   <g id="text_2">
    <g id="patch_3">
     <path d="M 52.713628 123.24468 
L 53.075923 132.373431 
L 55.049994 132.295085 
L 54.687699 123.166334 
z
" style="fill:#ffffff;"/>
    </g>
    <!-- Quad Lift -->
    <g style="fill:#808080;" transform="translate(53.150016 123.247376)rotate(-272.272716)scale(0.02 -0.02)">
     <defs>
      <path d="M 628 4666 
L 1259 4666 
L 1259 531 
L 3531 531 
L 3531 0 
L 628 0 
L 628 4666 
z
" id="DejaVuSans-4c" transform="scale(0.015625)"/>
      <path d="M 1172 4494 
L 1172 3500 
L 2356 3500 
L 2356 3053 
L 1172 3053 
L 1172 1153 
Q 1172 725 1289 603 
Q 1406 481 1766 481 
L 2356 481 
L 2356 0 
L 1766 0 
Q 1100 0 847 248 
Q 594 497 594 1153 
L 594 3053 
L 172 3053 
L 172 3500 
L 594 3500 
L 594 4494 
L 1172 4494 
z
" id="DejaVuSans-74" transform="scale(0.015625)"/>
     </defs>
     <use xlink:href="#DejaVuSans-51"/>
     <use x="78.710938" xlink:href="#DejaVuSans-75"/>
     <use x="142.089844" xlink:href="#DejaVuSans-61"/>
     <use x="203.369141" xlink:href="#DejaVuSans-64"/>
     <use x="266.845703" xlink:href="#DejaVuSans-20"/>
     <use x="298.632812" xlink:href="#DejaVuSans-4c"/>
     <use x="354.345703" xlink:href="#DejaVuSans-69"/>
     <use x="382.128906" xlink:href="#DejaVuSans-66"/>
     <use x="415.583984" xlink:href="#DejaVuSans-74"/>
    </g>
   </g>
   <g id="text_3">
    <g id="patch_4">
     <path d="M 41.849377 119.139539 
L 46.785429 128.842065 
L 48.546283 127.94625 
L 43.610231 118.243724 
z
" style="fill:#ffffff;"/>
    </g>
    <!-- Double Lift -->
    <g style="fill:#808080;" transform="translate(42.246992 118.959696)rotate(-296.964208)scale(0.02 -0.02)">
     <defs>
      <path d="M 1259 4147 
L 1259 519 
L 2022 519 
Q 2988 519 3436 956 
Q 3884 1394 3884 2338 
Q 3884 3275 3436 3711 
Q 2988 4147 2022 4147 
L 1259 4147 
z
M 628 4666 
L 1925 4666 
Q 3281 4666 3915 4102 
Q 4550 3538 4550 2338 
Q 4550 1131 3912 565 
Q 3275 0 1925 0 
L 628 0 
L 628 4666 
z
" id="DejaVuSans-44" transform="scale(0.015625)"/>
      <path d="M 3116 1747 
Q 3116 2381 2855 2742 
Q 2594 3103 2138 3103 
Q 1681 3103 1420 2742 
Q 1159 2381 1159 1747 
Q 1159 1113 1420 752 
Q 1681 391 2138 391 
Q 2594 391 2855 752 
Q 3116 1113 3116 1747 
z
M 1159 2969 
Q 1341 3281 1617 3432 
Q 1894 3584 2278 3584 
Q 2916 3584 3314 3078 
Q 3713 2572 3713 1747 
Q 3713 922 3314 415 
Q 2916 -91 2278 -91 
Q 1894 -91 1617 61 
Q 1341 213 1159 525 
L 1159 0 
L 581 0 
L 581 4863 
L 1159 4863 
L 1159 2969 
z
" id="DejaVuSans-62" transform="scale(0.015625)"/>
     </defs>
     <use xlink:href="#DejaVuSans-44"/>
     <use x="77.001953" xlink:href="#DejaVuSans-6f"/>
     <use x="138.183594" xlink:href="#DejaVuSans-75"/>
     <use x="201.5625" xlink:href="#DejaVuSans-62"/>
     <use x="265.039062" xlink:href="#DejaVuSans-6c"/>
     <use x="292.822266" xlink:href="#DejaVuSans-65"/>
     <use x="354.345703" xlink:href="#DejaVuSans-20"/>
     <use x="386.132812" xlink:href="#DejaVuSans-4c"/>
     <use x="441.845703" xlink:href="#DejaVuSans-69"/>
     <use x="469.628906" xlink:href="#DejaVuSans-66"/>
     <use x="503.083984" xlink:href="#DejaVuSans-74"/>
    </g>
   </g>
   <g id="text_4">
    <g id="patch_5">
     <path d="M 70.041718 60.615555 
L 85.845096 51.080303 
L 84.824459 49.388737 
L 69.021081 58.923989 
z
" style="fill:#ffffff;"/>
    </g>
    <!-- Wolf Ridge Double -->
    <g style="fill:#808080;" transform="translate(69.833631 60.231965)rotate(-31.105433)scale(0.02 -0.02)">
     <use xlink:href="#DejaVuSans-57"/>
     <use x="93.001953" xlink:href="#DejaVuSans-6f"/>
     <use x="154.183594" xlink:href="#DejaVuSans-6c"/>
     <use x="181.966797" xlink:href="#DejaVuSans-66"/>
     <use x="217.171875" xlink:href="#DejaVuSans-20"/>
     <use x="248.958984" xlink:href="#DejaVuSans-52"/>
     <use x="318.441406" xlink:href="#DejaVuSans-69"/>
     <use x="346.224609" xlink:href="#DejaVuSans-64"/>
     <use x="409.701172" xlink:href="#DejaVuSans-67"/>
     <use x="473.177734" xlink:href="#DejaVuSans-65"/>
     <use x="534.701172" xlink:href="#DejaVuSans-20"/>
     <use x="566.488281" xlink:href="#DejaVuSans-44"/>
     <use x="643.490234" xlink:href="#DejaVuSans-6f"/>
     <use x="704.671875" xlink:href="#DejaVuSans-75"/>
     <use x="768.050781" xlink:href="#DejaVuSans-62"/>
     <use x="831.527344" xlink:href="#DejaVuSans-6c"/>
     <use x="859.310547" xlink:href="#DejaVuSans-65"/>
    </g>
   </g>
   <g id="text_5">
    <g id="patch_6">
     <path d="M 38.156928 110.336417 
L 48.57245 94.205549 
L 46.912738 93.133892 
L 36.497216 109.26476 
z
" style="fill:#ffffff;"/>
    </g>
    <!-- Lower Streak 18.4° -->
    <g style="fill:#4169e1;" transform="translate(37.801548 110.083146)rotate(-57.15012)scale(0.02 -0.02)">
     <defs>
      <path d="M 269 3500 
L 844 3500 
L 1563 769 
L 2278 3500 
L 2956 3500 
L 3675 769 
L 4391 3500 
L 4966 3500 
L 4050 0 
L 3372 0 
L 2619 2869 
L 1863 0 
L 1184 0 
L 269 3500 
z
" id="DejaVuSans-77" transform="scale(0.015625)"/>
      <path d="M 2631 2963 
Q 2534 3019 2420 3045 
Q 2306 3072 2169 3072 
Q 1681 3072 1420 2755 
Q 1159 2438 1159 1844 
L 1159 0 
L 581 0 
L 581 3500 
L 1159 3500 
L 1159 2956 
Q 1341 3275 1631 3429 
Q 1922 3584 2338 3584 
Q 2397 3584 2469 3576 
Q 2541 3569 2628 3553 
L 2631 2963 
z
" id="DejaVuSans-72" transform="scale(0.015625)"/>
      <path d="M 3425 4513 
L 3425 3897 
Q 3066 4069 2747 4153 
Q 2428 4238 2131 4238 
Q 1616 4238 1336 4038 
Q 1056 3838 1056 3469 
Q 1056 3159 1242 3001 
Q 1428 2844 1947 2747 
L 2328 2669 
Q 3034 2534 3370 2195 
Q 3706 1856 3706 1288 
Q 3706 609 3251 259 
Q 2797 -91 1919 -91 
Q 1588 -91 1214 -16 
Q 841 59 441 206 
L 441 856 
Q 825 641 1194 531 
Q 1563 422 1919 422 
Q 2459 422 2753 634 
Q 3047 847 3047 1241 
Q 3047 1584 2836 1778 
Q 2625 1972 2144 2069 
L 1759 2144 
Q 1053 2284 737 2584 
Q 422 2884 422 3419 
Q 422 4038 858 4394 
Q 1294 4750 2059 4750 
Q 2388 4750 2728 4690 
Q 3069 4631 3425 4513 
z
" id="DejaVuSans-53" transform="scale(0.015625)"/>
      <path d="M 581 4863 
L 1159 4863 
L 1159 1991 
L 2875 3500 
L 3609 3500 
L 1753 1863 
L 3688 0 
L 2938 0 
L 1159 1709 
L 1159 0 
L 581 0 
L 581 4863 
z
" id="DejaVuSans-6b" transform="scale(0.015625)"/>
      <path d="M 794 531 
L 1825 531 
L 1825 4091 
L 703 3866 
L 703 4441 
L 1819 4666 
L 2450 4666 
L 2450 531 
L 3481 531 
L 3481 0 
L 794 0 
L 794 531 
z
" id="DejaVuSans-31" transform="scale(0.015625)"/>
      <path d="M 2034 2216 
Q 1584 2216 1326 1975 
Q 1069 1734 1069 1313 
Q 1069 891 1326 650 
Q 1584 409 2034 409 
Q 2484 409 2743 651 
Q 3003 894 3003 1313 
Q 3003 1734 2745 1975 
Q 2488 2216 2034 2216 
z
M 1403 2484 
Q 997 2584 770 2862 
Q 544 3141 544 3541 
Q 544 4100 942 4425 
Q 1341 4750 2034 4750 
Q 2731 4750 3128 4425 
Q 3525 4100 3525 3541 
Q 3525 3141 3298 2862 
Q 3072 2584 2669 2484 
Q 3125 2378 3379 2068 
Q 3634 1759 3634 1313 
Q 3634 634 3220 271 
Q 2806 -91 2034 -91 
Q 1263 -91 848 271 
Q 434 634 434 1313 
Q 434 1759 690 2068 
Q 947 2378 1403 2484 
z
M 1172 3481 
Q 1172 3119 1398 2916 
Q 1625 2713 2034 2713 
Q 2441 2713 2670 2916 
Q 2900 3119 2900 3481 
Q 2900 3844 2670 4047 
Q 2441 4250 2034 4250 
Q 1625 4250 1398 4047 
Q 1172 3844 1172 3481 
z
" id="DejaVuSans-38" transform="scale(0.015625)"/>
      <path d="M 684 794 
L 1344 794 
L 1344 0 
L 684 0 
L 684 794 
z
" id="DejaVuSans-2e" transform="scale(0.015625)"/>
      <path d="M 2419 4116 
L 825 1625 
L 2419 1625 
L 2419 4116 
z
M 2253 4666 
L 3047 4666 
L 3047 1625 
L 3713 1625 
L 3713 1100 
L 3047 1100 
L 3047 0 
L 2419 0 
L 2419 1100 
L 313 1100 
L 313 1709 
L 2253 4666 
z
" id="DejaVuSans-34" transform="scale(0.015625)"/>
      <path d="M 1600 4347 
Q 1350 4347 1178 4173 
Q 1006 4000 1006 3750 
Q 1006 3503 1178 3333 
Q 1350 3163 1600 3163 
Q 1850 3163 2022 3333 
Q 2194 3503 2194 3750 
Q 2194 3997 2020 4172 
Q 1847 4347 1600 4347 
z
M 1600 4750 
Q 1800 4750 1984 4673 
Q 2169 4597 2303 4453 
Q 2447 4313 2519 4134 
Q 2591 3956 2591 3750 
Q 2591 3338 2302 3052 
Q 2013 2766 1594 2766 
Q 1172 2766 890 3047 
Q 609 3328 609 3750 
Q 609 4169 896 4459 
Q 1184 4750 1600 4750 
z
" id="DejaVuSans-b0" transform="scale(0.015625)"/>
     </defs>
     <use xlink:href="#DejaVuSans-4c"/>
     <use x="53.962891" xlink:href="#DejaVuSans-6f"/>
     <use x="115.144531" xlink:href="#DejaVuSans-77"/>
     <use x="196.931641" xlink:href="#DejaVuSans-65"/>
     <use x="258.455078" xlink:href="#DejaVuSans-72"/>
     <use x="299.568359" xlink:href="#DejaVuSans-20"/>
     <use x="331.355469" xlink:href="#DejaVuSans-53"/>
     <use x="394.832031" xlink:href="#DejaVuSans-74"/>
     <use x="434.041016" xlink:href="#DejaVuSans-72"/>
     <use x="472.904297" xlink:href="#DejaVuSans-65"/>
     <use x="534.427734" xlink:href="#DejaVuSans-61"/>
     <use x="595.707031" xlink:href="#DejaVuSans-6b"/>
     <use x="653.617188" xlink:href="#DejaVuSans-20"/>
     <use x="685.404297" xlink:href="#DejaVuSans-31"/>
     <use x="749.027344" xlink:href="#DejaVuSans-38"/>
     <use x="812.650391" xlink:href="#DejaVuSans-2e"/>
     <use x="844.4375" xlink:href="#DejaVuSans-34"/>
     <use x="908.060547" xlink:href="#DejaVuSans-b0"/>
    </g>
   </g>
   <g id="text_6">
    <g id="patch_7">
     <path d="M 21.300011 96.212283 
L 30.824681 109.120902 
L 32.414401 107.947921 
L 22.889732 95.039302 
z
" style="fill:#ffffff;"/>
    </g>
    <!-- Broadway 11.7° -->
    <g style="fill:#008000;" transform="translate(21.662671 95.969548)rotate(-306.42189)scale(0.02 -0.02)">
     <defs>
      <path d="M 1259 2228 
L 1259 519 
L 2272 519 
Q 2781 519 3026 730 
Q 3272 941 3272 1375 
Q 3272 1813 3026 2020 
Q 2781 2228 2272 2228 
L 1259 2228 
z
M 1259 4147 
L 1259 2741 
L 2194 2741 
Q 2656 2741 2882 2914 
Q 3109 3088 3109 3444 
Q 3109 3797 2882 3972 
Q 2656 4147 2194 4147 
L 1259 4147 
z
M 628 4666 
L 2241 4666 
Q 2963 4666 3353 4366 
Q 3744 4066 3744 3513 
Q 3744 3084 3544 2831 
Q 3344 2578 2956 2516 
Q 3422 2416 3680 2098 
Q 3938 1781 3938 1306 
Q 3938 681 3513 340 
Q 3088 0 2303 0 
L 628 0 
L 628 4666 
z
" id="DejaVuSans-42" transform="scale(0.015625)"/>
      <path d="M 2059 -325 
Q 1816 -950 1584 -1140 
Q 1353 -1331 966 -1331 
L 506 -1331 
L 506 -850 
L 844 -850 
Q 1081 -850 1212 -737 
Q 1344 -625 1503 -206 
L 1606 56 
L 191 3500 
L 800 3500 
L 1894 763 
L 2988 3500 
L 3597 3500 
L 2059 -325 
z
" id="DejaVuSans-79" transform="scale(0.015625)"/>
      <path d="M 525 4666 
L 3525 4666 
L 3525 4397 
L 1831 0 
L 1172 0 
L 2766 4134 
L 525 4134 
L 525 4666 
z
" id="DejaVuSans-37" transform="scale(0.015625)"/>
     </defs>
     <use xlink:href="#DejaVuSans-42"/>
     <use x="68.603516" xlink:href="#DejaVuSans-72"/>
     <use x="107.466797" xlink:href="#DejaVuSans-6f"/>
     <use x="168.648438" xlink:href="#DejaVuSans-61"/>
     <use x="229.927734" xlink:href="#DejaVuSans-64"/>
     <use x="293.404297" xlink:href="#DejaVuSans-77"/>
     <use x="375.191406" xlink:href="#DejaVuSans-61"/>
     <use x="436.470703" xlink:href="#DejaVuSans-79"/>
     <use x="495.650391" xlink:href="#DejaVuSans-20"/>
     <use x="527.4375" xlink:href="#DejaVuSans-31"/>
     <use x="591.060547" xlink:href="#DejaVuSans-31"/>
     <use x="654.683594" xlink:href="#DejaVuSans-2e"/>
     <use x="686.470703" xlink:href="#DejaVuSans-37"/>
     <use x="750.09375" xlink:href="#DejaVuSans-b0"/>
    </g>
   </g>
   <g id="text_7">
    <g id="patch_8">
     <path d="M 6.702767 72.761597 
L 8.63855 54.772324 
L 6.674264 54.560952 
L 4.738482 72.550225 
z
" style="fill:#ffffff;"/>
    </g>
    <!-- Timber Wolf 19.8° -->
    <g style="fill:#4169e1;" transform="translate(6.271471 72.69507)rotate(-83.858172)scale(0.02 -0.02)">
     <defs>
      <path d="M -19 4666 
L 3928 4666 
L 3928 4134 
L 2272 4134 
L 2272 0 
L 1638 0 
L 1638 4134 
L -19 4134 
L -19 4666 
z
" id="DejaVuSans-54" transform="scale(0.015625)"/>
      <path d="M 3328 2828 
Q 3544 3216 3844 3400 
Q 4144 3584 4550 3584 
Q 5097 3584 5394 3201 
Q 5691 2819 5691 2113 
L 5691 0 
L 5113 0 
L 5113 2094 
Q 5113 2597 4934 2840 
Q 4756 3084 4391 3084 
Q 3944 3084 3684 2787 
Q 3425 2491 3425 1978 
L 3425 0 
L 2847 0 
L 2847 2094 
Q 2847 2600 2669 2842 
Q 2491 3084 2119 3084 
Q 1678 3084 1418 2786 
Q 1159 2488 1159 1978 
L 1159 0 
L 581 0 
L 581 3500 
L 1159 3500 
L 1159 2956 
Q 1356 3278 1631 3431 
Q 1906 3584 2284 3584 
Q 2666 3584 2933 3390 
Q 3200 3197 3328 2828 
z
" id="DejaVuSans-6d" transform="scale(0.015625)"/>
      <path d="M 703 97 
L 703 672 
Q 941 559 1184 500 
Q 1428 441 1663 441 
Q 2288 441 2617 861 
Q 2947 1281 2994 2138 
Q 2813 1869 2534 1725 
Q 2256 1581 1919 1581 
Q 1219 1581 811 2004 
Q 403 2428 403 3163 
Q 403 3881 828 4315 
Q 1253 4750 1959 4750 
Q 2769 4750 3195 4129 
Q 3622 3509 3622 2328 
Q 3622 1225 3098 567 
Q 2575 -91 1691 -91 
Q 1453 -91 1209 -44 
Q 966 3 703 97 
z
M 1959 2075 
Q 2384 2075 2632 2365 
Q 2881 2656 2881 3163 
Q 2881 3666 2632 3958 
Q 2384 4250 1959 4250 
Q 1534 4250 1286 3958 
Q 1038 3666 1038 3163 
Q 1038 2656 1286 2365 
Q 1534 2075 1959 2075 
z
" id="DejaVuSans-39" transform="scale(0.015625)"/>
     </defs>
     <use xlink:href="#DejaVuSans-54"/>
     <use x="57.958984" xlink:href="#DejaVuSans-69"/>
     <use x="85.742188" xlink:href="#DejaVuSans-6d"/>
     <use x="183.154297" xlink:href="#DejaVuSans-62"/>
     <use x="246.630859" xlink:href="#DejaVuSans-65"/>
     <use x="308.154297" xlink:href="#DejaVuSans-72"/>
     <use x="349.267578" xlink:href="#DejaVuSans-20"/>
     <use x="381.054688" xlink:href="#DejaVuSans-57"/>
     <use x="474.056641" xlink:href="#DejaVuSans-6f"/>
     <use x="535.238281" xlink:href="#DejaVuSans-6c"/>
     <use x="563.021484" xlink:href="#DejaVuSans-66"/>
     <use x="598.226562" xlink:href="#DejaVuSans-20"/>
     <use x="630.013672" xlink:href="#DejaVuSans-31"/>
     <use x="693.636719" xlink:href="#DejaVuSans-39"/>
     <use x="757.259766" xlink:href="#DejaVuSans-2e"/>
     <use x="789.046875" xlink:href="#DejaVuSans-38"/>
     <use x="852.669922" xlink:href="#DejaVuSans-b0"/>
    </g>
   </g>
   <g id="text_8">
    <g id="patch_9">
     <path d="M 42.225526 93.61912 
L 48.306602 94.382066 
L 48.552541 92.421808 
L 42.471464 91.658862 
z
" style="fill:#ffffff;"/>
    </g>
    <!--  12.7° -->
    <g style="fill:#008000;" transform="translate(42.299638 93.189063)rotate(-352.848905)scale(0.02 -0.02)">
     <defs>
      <path d="M 1228 531 
L 3431 531 
L 3431 0 
L 469 0 
L 469 531 
Q 828 903 1448 1529 
Q 2069 2156 2228 2338 
Q 2531 2678 2651 2914 
Q 2772 3150 2772 3378 
Q 2772 3750 2511 3984 
Q 2250 4219 1831 4219 
Q 1534 4219 1204 4116 
Q 875 4013 500 3803 
L 500 4441 
Q 881 4594 1212 4672 
Q 1544 4750 1819 4750 
Q 2544 4750 2975 4387 
Q 3406 4025 3406 3419 
Q 3406 3131 3298 2873 
Q 3191 2616 2906 2266 
Q 2828 2175 2409 1742 
Q 1991 1309 1228 531 
z
" id="DejaVuSans-32" transform="scale(0.015625)"/>
     </defs>
     <use xlink:href="#DejaVuSans-20"/>
     <use x="31.787109" xlink:href="#DejaVuSans-31"/>
     <use x="95.410156" xlink:href="#DejaVuSans-32"/>
     <use x="159.033203" xlink:href="#DejaVuSans-2e"/>
     <use x="190.820312" xlink:href="#DejaVuSans-37"/>
     <use x="254.443359" xlink:href="#DejaVuSans-b0"/>
    </g>
   </g>
   <g id="text_9">
    <g id="patch_10">
     <path d="M 28.237977 50.605456 
L 46.275 54.700027 
L 46.712358 52.77342 
L 28.675335 48.67885 
z
" style="fill:#ffffff;"/>
    </g>
    <!-- The Howling 14.1° -->
    <g style="fill:#008000;" transform="translate(28.353988 50.184763)rotate(-347.210092)scale(0.02 -0.02)">
     <defs>
      <path d="M 3513 2113 
L 3513 0 
L 2938 0 
L 2938 2094 
Q 2938 2591 2744 2837 
Q 2550 3084 2163 3084 
Q 1697 3084 1428 2787 
Q 1159 2491 1159 1978 
L 1159 0 
L 581 0 
L 581 4863 
L 1159 4863 
L 1159 2956 
Q 1366 3272 1645 3428 
Q 1925 3584 2291 3584 
Q 2894 3584 3203 3211 
Q 3513 2838 3513 2113 
z
" id="DejaVuSans-68" transform="scale(0.015625)"/>
      <path d="M 628 4666 
L 1259 4666 
L 1259 2753 
L 3553 2753 
L 3553 4666 
L 4184 4666 
L 4184 0 
L 3553 0 
L 3553 2222 
L 1259 2222 
L 1259 0 
L 628 0 
L 628 4666 
z
" id="DejaVuSans-48" transform="scale(0.015625)"/>
      <path d="M 3513 2113 
L 3513 0 
L 2938 0 
L 2938 2094 
Q 2938 2591 2744 2837 
Q 2550 3084 2163 3084 
Q 1697 3084 1428 2787 
Q 1159 2491 1159 1978 
L 1159 0 
L 581 0 
L 581 3500 
L 1159 3500 
L 1159 2956 
Q 1366 3272 1645 3428 
Q 1925 3584 2291 3584 
Q 2894 3584 3203 3211 
Q 3513 2838 3513 2113 
z
" id="DejaVuSans-6e" transform="scale(0.015625)"/>
     </defs>
     <use xlink:href="#DejaVuSans-54"/>
     <use x="61.083984" xlink:href="#DejaVuSans-68"/>
     <use x="124.462891" xlink:href="#DejaVuSans-65"/>
     <use x="185.986328" xlink:href="#DejaVuSans-20"/>
     <use x="217.773438" xlink:href="#DejaVuSans-48"/>
     <use x="292.96875" xlink:href="#DejaVuSans-6f"/>
     <use x="354.150391" xlink:href="#DejaVuSans-77"/>
     <use x="435.9375" xlink:href="#DejaVuSans-6c"/>
     <use x="463.720703" xlink:href="#DejaVuSans-69"/>
     <use x="491.503906" xlink:href="#DejaVuSans-6e"/>
     <use x="554.882812" xlink:href="#DejaVuSans-67"/>
     <use x="618.359375" xlink:href="#DejaVuSans-20"/>
     <use x="650.146484" xlink:href="#DejaVuSans-31"/>
     <use x="713.769531" xlink:href="#DejaVuSans-34"/>
     <use x="777.392578" xlink:href="#DejaVuSans-2e"/>
     <use x="809.179688" xlink:href="#DejaVuSans-31"/>
     <use x="872.802734" xlink:href="#DejaVuSans-b0"/>
    </g>
   </g>
   <g id="text_10">
    <g id="patch_11">
     <path d="M 24.85271 77.234226 
L 36.572889 67.444002 
L 35.306338 65.927775 
L 23.58616 75.717999 
z
" style="fill:#ffffff;"/>
    </g>
    <!-- The Bowl 30.7° -->
    <g style="fill:#ff0000;" transform="translate(24.588585 76.886837)rotate(-39.873043)scale(0.02 -0.02)">
     <defs>
      <path d="M 2597 2516 
Q 3050 2419 3304 2112 
Q 3559 1806 3559 1356 
Q 3559 666 3084 287 
Q 2609 -91 1734 -91 
Q 1441 -91 1130 -33 
Q 819 25 488 141 
L 488 750 
Q 750 597 1062 519 
Q 1375 441 1716 441 
Q 2309 441 2620 675 
Q 2931 909 2931 1356 
Q 2931 1769 2642 2001 
Q 2353 2234 1838 2234 
L 1294 2234 
L 1294 2753 
L 1863 2753 
Q 2328 2753 2575 2939 
Q 2822 3125 2822 3475 
Q 2822 3834 2567 4026 
Q 2313 4219 1838 4219 
Q 1578 4219 1281 4162 
Q 984 4106 628 3988 
L 628 4550 
Q 988 4650 1302 4700 
Q 1616 4750 1894 4750 
Q 2613 4750 3031 4423 
Q 3450 4097 3450 3541 
Q 3450 3153 3228 2886 
Q 3006 2619 2597 2516 
z
" id="DejaVuSans-33" transform="scale(0.015625)"/>
      <path d="M 2034 4250 
Q 1547 4250 1301 3770 
Q 1056 3291 1056 2328 
Q 1056 1369 1301 889 
Q 1547 409 2034 409 
Q 2525 409 2770 889 
Q 3016 1369 3016 2328 
Q 3016 3291 2770 3770 
Q 2525 4250 2034 4250 
z
M 2034 4750 
Q 2819 4750 3233 4129 
Q 3647 3509 3647 2328 
Q 3647 1150 3233 529 
Q 2819 -91 2034 -91 
Q 1250 -91 836 529 
Q 422 1150 422 2328 
Q 422 3509 836 4129 
Q 1250 4750 2034 4750 
z
" id="DejaVuSans-30" transform="scale(0.015625)"/>
     </defs>
     <use xlink:href="#DejaVuSans-54"/>
     <use x="61.083984" xlink:href="#DejaVuSans-68"/>
     <use x="124.462891" xlink:href="#DejaVuSans-65"/>
     <use x="185.986328" xlink:href="#DejaVuSans-20"/>
     <use x="217.773438" xlink:href="#DejaVuSans-42"/>
     <use x="286.376953" xlink:href="#DejaVuSans-6f"/>
     <use x="347.558594" xlink:href="#DejaVuSans-77"/>
     <use x="429.345703" xlink:href="#DejaVuSans-6c"/>
     <use x="457.128906" xlink:href="#DejaVuSans-20"/>
     <use x="488.916016" xlink:href="#DejaVuSans-33"/>
     <use x="552.539062" xlink:href="#DejaVuSans-30"/>
     <use x="616.162109" xlink:href="#DejaVuSans-2e"/>
     <use x="647.949219" xlink:href="#DejaVuSans-37"/>
     <use x="711.572266" xlink:href="#DejaVuSans-b0"/>
    </g>
   </g>
   <g id="text_11">
    <g id="patch_12">
     <path d="M 17.029242 77.995585 
L 18.675724 54.381979 
L 16.704884 54.24456 
L 15.058403 77.858166 
z
" style="fill:#ffffff;"/>
    </g>
    <!-- Southern Express 20.3° -->
    <g style="fill:#4169e1;" transform="translate(16.595752 77.94531)rotate(-86.011452)scale(0.02 -0.02)">
     <defs>
      <path d="M 628 4666 
L 3578 4666 
L 3578 4134 
L 1259 4134 
L 1259 2753 
L 3481 2753 
L 3481 2222 
L 1259 2222 
L 1259 531 
L 3634 531 
L 3634 0 
L 628 0 
L 628 4666 
z
" id="DejaVuSans-45" transform="scale(0.015625)"/>
      <path d="M 3513 3500 
L 2247 1797 
L 3578 0 
L 2900 0 
L 1881 1375 
L 863 0 
L 184 0 
L 1544 1831 
L 300 3500 
L 978 3500 
L 1906 2253 
L 2834 3500 
L 3513 3500 
z
" id="DejaVuSans-78" transform="scale(0.015625)"/>
      <path d="M 1159 525 
L 1159 -1331 
L 581 -1331 
L 581 3500 
L 1159 3500 
L 1159 2969 
Q 1341 3281 1617 3432 
Q 1894 3584 2278 3584 
Q 2916 3584 3314 3078 
Q 3713 2572 3713 1747 
Q 3713 922 3314 415 
Q 2916 -91 2278 -91 
Q 1894 -91 1617 61 
Q 1341 213 1159 525 
z
M 3116 1747 
Q 3116 2381 2855 2742 
Q 2594 3103 2138 3103 
Q 1681 3103 1420 2742 
Q 1159 2381 1159 1747 
Q 1159 1113 1420 752 
Q 1681 391 2138 391 
Q 2594 391 2855 752 
Q 3116 1113 3116 1747 
z
" id="DejaVuSans-70" transform="scale(0.015625)"/>
      <path d="M 2834 3397 
L 2834 2853 
Q 2591 2978 2328 3040 
Q 2066 3103 1784 3103 
Q 1356 3103 1142 2972 
Q 928 2841 928 2578 
Q 928 2378 1081 2264 
Q 1234 2150 1697 2047 
L 1894 2003 
Q 2506 1872 2764 1633 
Q 3022 1394 3022 966 
Q 3022 478 2636 193 
Q 2250 -91 1575 -91 
Q 1294 -91 989 -36 
Q 684 19 347 128 
L 347 722 
Q 666 556 975 473 
Q 1284 391 1588 391 
Q 1994 391 2212 530 
Q 2431 669 2431 922 
Q 2431 1156 2273 1281 
Q 2116 1406 1581 1522 
L 1381 1569 
Q 847 1681 609 1914 
Q 372 2147 372 2553 
Q 372 3047 722 3315 
Q 1072 3584 1716 3584 
Q 2034 3584 2315 3537 
Q 2597 3491 2834 3397 
z
" id="DejaVuSans-73" transform="scale(0.015625)"/>
     </defs>
     <use xlink:href="#DejaVuSans-53"/>
     <use x="63.476562" xlink:href="#DejaVuSans-6f"/>
     <use x="124.658203" xlink:href="#DejaVuSans-75"/>
     <use x="188.037109" xlink:href="#DejaVuSans-74"/>
     <use x="227.246094" xlink:href="#DejaVuSans-68"/>
     <use x="290.625" xlink:href="#DejaVuSans-65"/>
     <use x="352.148438" xlink:href="#DejaVuSans-72"/>
     <use x="391.511719" xlink:href="#DejaVuSans-6e"/>
     <use x="454.890625" xlink:href="#DejaVuSans-20"/>
     <use x="486.677734" xlink:href="#DejaVuSans-45"/>
     <use x="549.861328" xlink:href="#DejaVuSans-78"/>
     <use x="609.041016" xlink:href="#DejaVuSans-70"/>
     <use x="672.517578" xlink:href="#DejaVuSans-72"/>
     <use x="711.380859" xlink:href="#DejaVuSans-65"/>
     <use x="772.904297" xlink:href="#DejaVuSans-73"/>
     <use x="825.003906" xlink:href="#DejaVuSans-73"/>
     <use x="877.103516" xlink:href="#DejaVuSans-20"/>
     <use x="908.890625" xlink:href="#DejaVuSans-32"/>
     <use x="972.513672" xlink:href="#DejaVuSans-30"/>
     <use x="1036.136719" xlink:href="#DejaVuSans-2e"/>
     <use x="1067.923828" xlink:href="#DejaVuSans-33"/>
     <use x="1131.546875" xlink:href="#DejaVuSans-b0"/>
    </g>
   </g>
   <g id="text_12">
    <g id="patch_13">
     <path d="M 62.542959 111.053475 
L 70.81967 95.918082 
L 69.086292 94.970194 
L 60.809581 110.105587 
z
" style="fill:#ffffff;"/>
    </g>
    <!-- Powder Hill 22.3° -->
    <g style="fill:#4169e1;" transform="translate(62.170071 110.826769)rotate(-61.328186)scale(0.02 -0.02)">
     <defs>
      <path d="M 1259 4147 
L 1259 2394 
L 2053 2394 
Q 2494 2394 2734 2622 
Q 2975 2850 2975 3272 
Q 2975 3691 2734 3919 
Q 2494 4147 2053 4147 
L 1259 4147 
z
M 628 4666 
L 2053 4666 
Q 2838 4666 3239 4311 
Q 3641 3956 3641 3272 
Q 3641 2581 3239 2228 
Q 2838 1875 2053 1875 
L 1259 1875 
L 1259 0 
L 628 0 
L 628 4666 
z
" id="DejaVuSans-50" transform="scale(0.015625)"/>
     </defs>
     <use xlink:href="#DejaVuSans-50"/>
     <use x="56.677734" xlink:href="#DejaVuSans-6f"/>
     <use x="117.859375" xlink:href="#DejaVuSans-77"/>
     <use x="199.646484" xlink:href="#DejaVuSans-64"/>
     <use x="263.123047" xlink:href="#DejaVuSans-65"/>
     <use x="324.646484" xlink:href="#DejaVuSans-72"/>
     <use x="365.759766" xlink:href="#DejaVuSans-20"/>
     <use x="397.546875" xlink:href="#DejaVuSans-48"/>
     <use x="472.742188" xlink:href="#DejaVuSans-69"/>
     <use x="500.525391" xlink:href="#DejaVuSans-6c"/>
     <use x="528.308594" xlink:href="#DejaVuSans-6c"/>
     <use x="556.091797" xlink:href="#DejaVuSans-20"/>
     <use x="587.878906" xlink:href="#DejaVuSans-32"/>
     <use x="651.501953" xlink:href="#DejaVuSans-32"/>
     <use x="715.125" xlink:href="#DejaVuSans-2e"/>
     <use x="746.912109" xlink:href="#DejaVuSans-33"/>
     <use x="810.535156" xlink:href="#DejaVuSans-b0"/>
    </g>
   </g>
   <g id="text_13">
    <g id="patch_14">
     <path d="M 37.854179 81.528441 
L 49.24147 84.100084 
L 49.676674 82.17299 
L 38.289383 79.601347 
z
" style="fill:#ffffff;"/>
    </g>
    <!-- Eagle 12.4° -->
    <g style="fill:#008000;" transform="translate(37.969719 81.107618)rotate(-347.27412)scale(0.02 -0.02)">
     <use xlink:href="#DejaVuSans-45"/>
     <use x="63.183594" xlink:href="#DejaVuSans-61"/>
     <use x="124.462891" xlink:href="#DejaVuSans-67"/>
     <use x="187.939453" xlink:href="#DejaVuSans-6c"/>
     <use x="215.722656" xlink:href="#DejaVuSans-65"/>
     <use x="277.246094" xlink:href="#DejaVuSans-20"/>
     <use x="309.033203" xlink:href="#DejaVuSans-31"/>
     <use x="372.65625" xlink:href="#DejaVuSans-32"/>
     <use x="436.279297" xlink:href="#DejaVuSans-2e"/>
     <use x="468.066406" xlink:href="#DejaVuSans-34"/>
     <use x="531.689453" xlink:href="#DejaVuSans-b0"/>
    </g>
   </g>
   <g id="text_14">
    <g id="patch_15">
     <path d="M 92.685117 32.764579 
L 117.551384 30.360737 
L 117.361285 28.394279 
L 92.495018 30.798121 
z
" style="fill:#ffffff;"/>
    </g>
    <!-- Upper Nature View 18.8° -->
    <g style="fill:#4169e1;" transform="translate(92.663078 32.32874)rotate(-5.521672)scale(0.02 -0.02)">
     <defs>
      <path d="M 556 4666 
L 1191 4666 
L 1191 1831 
Q 1191 1081 1462 751 
Q 1734 422 2344 422 
Q 2950 422 3222 751 
Q 3494 1081 3494 1831 
L 3494 4666 
L 4128 4666 
L 4128 1753 
Q 4128 841 3676 375 
Q 3225 -91 2344 -91 
Q 1459 -91 1007 375 
Q 556 841 556 1753 
L 556 4666 
z
" id="DejaVuSans-55" transform="scale(0.015625)"/>
      <path d="M 628 4666 
L 1478 4666 
L 3547 763 
L 3547 4666 
L 4159 4666 
L 4159 0 
L 3309 0 
L 1241 3903 
L 1241 0 
L 628 0 
L 628 4666 
z
" id="DejaVuSans-4e" transform="scale(0.015625)"/>
      <path d="M 1831 0 
L 50 4666 
L 709 4666 
L 2188 738 
L 3669 4666 
L 4325 4666 
L 2547 0 
L 1831 0 
z
" id="DejaVuSans-56" transform="scale(0.015625)"/>
     </defs>
     <use xlink:href="#DejaVuSans-55"/>
     <use x="73.193359" xlink:href="#DejaVuSans-70"/>
     <use x="136.669922" xlink:href="#DejaVuSans-70"/>
     <use x="200.146484" xlink:href="#DejaVuSans-65"/>
     <use x="261.669922" xlink:href="#DejaVuSans-72"/>
     <use x="302.783203" xlink:href="#DejaVuSans-20"/>
     <use x="334.570312" xlink:href="#DejaVuSans-4e"/>
     <use x="409.375" xlink:href="#DejaVuSans-61"/>
     <use x="470.654297" xlink:href="#DejaVuSans-74"/>
     <use x="509.863281" xlink:href="#DejaVuSans-75"/>
     <use x="573.242188" xlink:href="#DejaVuSans-72"/>
     <use x="612.105469" xlink:href="#DejaVuSans-65"/>
     <use x="673.628906" xlink:href="#DejaVuSans-20"/>
     <use x="705.416016" xlink:href="#DejaVuSans-56"/>
     <use x="771.574219" xlink:href="#DejaVuSans-69"/>
     <use x="799.357422" xlink:href="#DejaVuSans-65"/>
     <use x="860.880859" xlink:href="#DejaVuSans-77"/>
     <use x="942.667969" xlink:href="#DejaVuSans-20"/>
     <use x="974.455078" xlink:href="#DejaVuSans-31"/>
     <use x="1038.078125" xlink:href="#DejaVuSans-38"/>
     <use x="1101.701172" xlink:href="#DejaVuSans-2e"/>
     <use x="1133.488281" xlink:href="#DejaVuSans-38"/>
     <use x="1197.111328" xlink:href="#DejaVuSans-b0"/>
    </g>
   </g>
   <g id="text_15">
    <g id="patch_16">
     <path d="M 68.761054 63.204397 
L 85.552494 53.027535 
L 84.528507 51.337995 
L 67.737068 61.514857 
z
" style="fill:#ffffff;"/>
    </g>
    <!-- Ridge Runner 12.3° -->
    <g style="fill:#008000;" transform="translate(68.552207 62.82122)rotate(-31.21898)scale(0.02 -0.02)">
     <use xlink:href="#DejaVuSans-52"/>
     <use x="69.482422" xlink:href="#DejaVuSans-69"/>
     <use x="97.265625" xlink:href="#DejaVuSans-64"/>
     <use x="160.742188" xlink:href="#DejaVuSans-67"/>
     <use x="224.21875" xlink:href="#DejaVuSans-65"/>
     <use x="285.742188" xlink:href="#DejaVuSans-20"/>
     <use x="317.529297" xlink:href="#DejaVuSans-52"/>
     <use x="382.511719" xlink:href="#DejaVuSans-75"/>
     <use x="445.890625" xlink:href="#DejaVuSans-6e"/>
     <use x="509.269531" xlink:href="#DejaVuSans-6e"/>
     <use x="572.648438" xlink:href="#DejaVuSans-65"/>
     <use x="634.171875" xlink:href="#DejaVuSans-72"/>
     <use x="675.285156" xlink:href="#DejaVuSans-20"/>
     <use x="707.072266" xlink:href="#DejaVuSans-31"/>
     <use x="770.695312" xlink:href="#DejaVuSans-32"/>
     <use x="834.318359" xlink:href="#DejaVuSans-2e"/>
     <use x="866.105469" xlink:href="#DejaVuSans-33"/>
     <use x="929.728516" xlink:href="#DejaVuSans-b0"/>
    </g>
   </g>
   <g id="text_16">
    <!-- Wolf Ridge -->
    <g transform="translate(46.837735 10.810757)scale(0.1 -0.1)">
     <use xlink:href="#DejaVuSans-57"/>
     <use x="93.001953" xlink:href="#DejaVuSans-6f"/>
     <use x="154.183594" xlink:href="#DejaVuSans-6c"/>
     <use x="181.966797" xlink:href="#DejaVuSans-66"/>
     <use x="217.171875" xlink:href="#DejaVuSans-20"/>
     <use x="248.958984" xlink:href="#DejaVuSans-52"/>
     <use x="318.441406" xlink:href="#DejaVuSans-69"/>
     <use x="346.224609" xlink:href="#DejaVuSans-64"/>
     <use x="409.701172" xlink:href="#DejaVuSans-67"/>
     <use x="473.177734" xlink:href="#DejaVuSans-65"/>
    </g>
   </g>
   <g id="legend_1">
    <g id="line2d_38">
     <path d="M 3.571719 143.65808 
L 13.571719 143.65808 
" style="fill:none;stroke:#008000;stroke-linecap:square;stroke-width:1.5;"/>
    </g>
    <g id="line2d_39"/>
    <g id="text_17">
     <!-- Easy -->
     <g transform="translate(17.571719 145.40808)scale(0.05 -0.05)">
      <use xlink:href="#DejaVuSans-45"/>
      <use x="63.183594" xlink:href="#DejaVuSans-61"/>
      <use x="124.462891" xlink:href="#DejaVuSans-73"/>
      <use x="176.5625" xlink:href="#DejaVuSans-79"/>
     </g>
    </g>
    <g id="line2d_40">
     <path d="M 3.571719 150.997142 
L 13.571719 150.997142 
" style="fill:none;stroke:#4169e1;stroke-linecap:square;stroke-width:1.5;"/>
    </g>
    <g id="line2d_41"/>
    <g id="text_18">
     <!-- Intermediate -->
     <g transform="translate(17.571719 152.747142)scale(0.05 -0.05)">
      <defs>
       <path d="M 628 4666 
L 1259 4666 
L 1259 0 
L 628 0 
L 628 4666 
z
" id="DejaVuSans-49" transform="scale(0.015625)"/>
      </defs>
      <use xlink:href="#DejaVuSans-49"/>
      <use x="29.492188" xlink:href="#DejaVuSans-6e"/>
      <use x="92.871094" xlink:href="#DejaVuSans-74"/>
      <use x="132.080078" xlink:href="#DejaVuSans-65"/>
      <use x="193.603516" xlink:href="#DejaVuSans-72"/>
      <use x="232.966797" xlink:href="#DejaVuSans-6d"/>
      <use x="330.378906" xlink:href="#DejaVuSans-65"/>
      <use x="391.902344" xlink:href="#DejaVuSans-64"/>
      <use x="455.378906" xlink:href="#DejaVuSans-69"/>
      <use x="483.162109" xlink:href="#DejaVuSans-61"/>
      <use x="544.441406" xlink:href="#DejaVuSans-74"/>
      <use x="583.650391" xlink:href="#DejaVuSans-65"/>
     </g>
    </g>
    <g id="line2d_42">
     <path d="M 59.831094 143.65808 
L 69.831094 143.65808 
" style="fill:none;stroke:#000000;stroke-linecap:square;stroke-width:1.5;"/>
    </g>
    <g id="line2d_43"/>
    <g id="text_19">
     <!-- Advanced -->
     <g transform="translate(73.831094 145.40808)scale(0.05 -0.05)">
      <defs>
       <path d="M 2188 4044 
L 1331 1722 
L 3047 1722 
L 2188 4044 
z
M 1831 4666 
L 2547 4666 
L 4325 0 
L 3669 0 
L 3244 1197 
L 1141 1197 
L 716 0 
L 50 0 
L 1831 4666 
z
" id="DejaVuSans-41" transform="scale(0.015625)"/>
       <path d="M 191 3500 
L 800 3500 
L 1894 563 
L 2988 3500 
L 3597 3500 
L 2284 0 
L 1503 0 
L 191 3500 
z
" id="DejaVuSans-76" transform="scale(0.015625)"/>
       <path d="M 3122 3366 
L 3122 2828 
Q 2878 2963 2633 3030 
Q 2388 3097 2138 3097 
Q 1578 3097 1268 2742 
Q 959 2388 959 1747 
Q 959 1106 1268 751 
Q 1578 397 2138 397 
Q 2388 397 2633 464 
Q 2878 531 3122 666 
L 3122 134 
Q 2881 22 2623 -34 
Q 2366 -91 2075 -91 
Q 1284 -91 818 406 
Q 353 903 353 1747 
Q 353 2603 823 3093 
Q 1294 3584 2113 3584 
Q 2378 3584 2631 3529 
Q 2884 3475 3122 3366 
z
" id="DejaVuSans-63" transform="scale(0.015625)"/>
      </defs>
      <use xlink:href="#DejaVuSans-41"/>
      <use x="66.658203" xlink:href="#DejaVuSans-64"/>
      <use x="130.134766" xlink:href="#DejaVuSans-76"/>
      <use x="189.314453" xlink:href="#DejaVuSans-61"/>
      <use x="250.59375" xlink:href="#DejaVuSans-6e"/>
      <use x="313.972656" xlink:href="#DejaVuSans-63"/>
      <use x="368.953125" xlink:href="#DejaVuSans-65"/>
      <use x="430.476562" xlink:href="#DejaVuSans-64"/>
     </g>
    </g>
    <g id="line2d_44">
     <path d="M 59.831094 150.997142 
L 69.831094 150.997142 
" style="fill:none;stroke:#ff0000;stroke-linecap:square;stroke-width:1.5;"/>
    </g>
    <g id="line2d_45"/>
    <g id="text_20">
     <!-- Expert -->
     <g transform="translate(73.831094 152.747142)scale(0.05 -0.05)">
      <use xlink:href="#DejaVuSans-45"/>
      <use x="63.183594" xlink:href="#DejaVuSans-78"/>
      <use x="122.363281" xlink:href="#DejaVuSans-70"/>
      <use x="185.839844" xlink:href="#DejaVuSans-65"/>
      <use x="247.363281" xlink:href="#DejaVuSans-72"/>
      <use x="288.476562" xlink:href="#DejaVuSans-74"/>
     </g>
    </g>
    <g id="line2d_46">
     <path d="M 108.530313 143.65808 
L 118.530313 143.65808 
" style="fill:none;stroke:#ffd700;stroke-linecap:square;stroke-width:1.5;"/>
    </g>
    <g id="line2d_47"/>
    <g id="text_21">
     <!-- Extreme -->
     <g transform="translate(122.530313 145.40808)scale(0.05 -0.05)">
      <use xlink:href="#DejaVuSans-45"/>
      <use x="63.183594" xlink:href="#DejaVuSans-78"/>
      <use x="122.363281" xlink:href="#DejaVuSans-74"/>
      <use x="161.572266" xlink:href="#DejaVuSans-72"/>
      <use x="200.435547" xlink:href="#DejaVuSans-65"/>
      <use x="261.958984" xlink:href="#DejaVuSans-6d"/>
      <use x="359.371094" xlink:href="#DejaVuSans-65"/>
     </g>
    </g>
    <g id="line2d_48">
     <path d="M 108.530313 150.997142 
L 118.530313 150.997142 
" style="fill:none;stroke:#000000;stroke-dasharray:1.5,2.475;stroke-dashoffset:0;stroke-width:1.5;"/>
    </g>
    <g id="line2d_49"/>
    <g id="text_22">
     <!-- Gladed -->
     <g transform="translate(122.530313 152.747142)scale(0.05 -0.05)">
      <defs>
       <path d="M 3809 666 
L 3809 1919 
L 2778 1919 
L 2778 2438 
L 4434 2438 
L 4434 434 
Q 4069 175 3628 42 
Q 3188 -91 2688 -91 
Q 1594 -91 976 548 
Q 359 1188 359 2328 
Q 359 3472 976 4111 
Q 1594 4750 2688 4750 
Q 3144 4750 3555 4637 
Q 3966 4525 4313 4306 
L 4313 3634 
Q 3963 3931 3569 4081 
Q 3175 4231 2741 4231 
Q 1884 4231 1454 3753 
Q 1025 3275 1025 2328 
Q 1025 1384 1454 906 
Q 1884 428 2741 428 
Q 3075 428 3337 486 
Q 3600 544 3809 666 
z
" id="DejaVuSans-47" transform="scale(0.015625)"/>
      </defs>
      <use xlink:href="#DejaVuSans-47"/>
      <use x="77.490234" xlink:href="#DejaVuSans-6c"/>
      <use x="105.273438" xlink:href="#DejaVuSans-61"/>
      <use x="166.552734" xlink:href="#DejaVuSans-64"/>
      <use x="230.029297" xlink:href="#DejaVuSans-65"/>
      <use x="291.552734" xlink:href="#DejaVuSans-64"/>
     </g>
    </g>
   </g>
  </g>
  <g id="text_23">
   <!-- Sources: USGS and OpenStreetMaps -->
   <g transform="translate(33.913007 160.48071)scale(0.043478 -0.043478)">
    <defs>
     <path d="M 750 794 
L 1409 794 
L 1409 0 
L 750 0 
L 750 794 
z
M 750 3309 
L 1409 3309 
L 1409 2516 
L 750 2516 
L 750 3309 
z
" id="DejaVuSans-3a" transform="scale(0.015625)"/>
     <path d="M 2522 4238 
Q 1834 4238 1429 3725 
Q 1025 3213 1025 2328 
Q 1025 1447 1429 934 
Q 1834 422 2522 422 
Q 3209 422 3611 934 
Q 4013 1447 4013 2328 
Q 4013 3213 3611 3725 
Q 3209 4238 2522 4238 
z
M 2522 4750 
Q 3503 4750 4090 4092 
Q 4678 3434 4678 2328 
Q 4678 1225 4090 567 
Q 3503 -91 2522 -91 
Q 1538 -91 948 565 
Q 359 1222 359 2328 
Q 359 3434 948 4092 
Q 1538 4750 2522 4750 
z
" id="DejaVuSans-4f" transform="scale(0.015625)"/>
     <path d="M 628 4666 
L 1569 4666 
L 2759 1491 
L 3956 4666 
L 4897 4666 
L 4897 0 
L 4281 0 
L 4281 4097 
L 3078 897 
L 2444 897 
L 1241 4097 
L 1241 0 
L 628 0 
L 628 4666 
z
" id="DejaVuSans-4d" transform="scale(0.015625)"/>
    </defs>
    <use xlink:href="#DejaVuSans-53"/>
    <use x="63.476562" xlink:href="#DejaVuSans-6f"/>
    <use x="124.658203" xlink:href="#DejaVuSans-75"/>
    <use x="188.037109" xlink:href="#DejaVuSans-72"/>
    <use x="226.900391" xlink:href="#DejaVuSans-63"/>
    <use x="281.880859" xlink:href="#DejaVuSans-65"/>
    <use x="343.404297" xlink:href="#DejaVuSans-73"/>
    <use x="395.503906" xlink:href="#DejaVuSans-3a"/>
    <use x="429.195312" xlink:href="#DejaVuSans-20"/>
    <use x="460.982422" xlink:href="#DejaVuSans-55"/>
    <use x="534.175781" xlink:href="#DejaVuSans-53"/>
    <use x="597.652344" xlink:href="#DejaVuSans-47"/>
    <use x="675.142578" xlink:href="#DejaVuSans-53"/>
    <use x="738.619141" xlink:href="#DejaVuSans-20"/>
    <use x="770.40625" xlink:href="#DejaVuSans-61"/>
    <use x="831.685547" xlink:href="#DejaVuSans-6e"/>
    <use x="895.064453" xlink:href="#DejaVuSans-64"/>
    <use x="958.541016" xlink:href="#DejaVuSans-20"/>
    <use x="990.328125" xlink:href="#DejaVuSans-4f"/>
    <use x="1069.039062" xlink:href="#DejaVuSans-70"/>
    <use x="1132.515625" xlink:href="#DejaVuSans-65"/>
    <use x="1194.039062" xlink:href="#DejaVuSans-6e"/>
    <use x="1257.417969" xlink:href="#DejaVuSans-53"/>
    <use x="1320.894531" xlink:href="#DejaVuSans-74"/>
    <use x="1360.103516" xlink:href="#DejaVuSans-72"/>
    <use x="1398.966797" xlink:href="#DejaVuSans-65"/>
    <use x="1460.490234" xlink:href="#DejaVuSans-65"/>
    <use x="1522.013672" xlink:href="#DejaVuSans-74"/>
    <use x="1561.222656" xlink:href="#DejaVuSans-4d"/>
    <use x="1647.501953" xlink:href="#DejaVuSans-61"/>
    <use x="1708.78125" xlink:href="#DejaVuSans-70"/>
    <use x="1772.257812" xlink:href="#DejaVuSans-73"/>
   </g>
  </g>
 </g>
 <defs>
  <clipPath id="pa36dfcfb02">
   <rect height="129.763408" width="147.147345" x="0" y="15.810757"/>
  </clipPath>
 </defs>
</svg>
