<?xml version="1.0" encoding="utf-8" standalone="no"?>
<!DOCTYPE svg PUBLIC "-//W3C//DTD SVG 1.1//EN"
  "http://www.w3.org/Graphics/SVG/1.1/DTD/svg11.dtd">
<svg height="80.422003pt" version="1.1" viewBox="0 0 34.93358 80.422003" width="34.93358pt" xmlns="http://www.w3.org/2000/svg" xmlns:xlink="http://www.w3.org/1999/xlink">
 <metadata>
  <rdf:RDF xmlns:cc="http://creativecommons.org/ns#" xmlns:dc="http://purl.org/dc/elements/1.1/" xmlns:rdf="http://www.w3.org/1999/02/22-rdf-syntax-ns#">
   <cc:Work>
    <dc:type rdf:resource="http://purl.org/dc/dcmitype/StillImage"/>
    <dc:date>2022-04-14T21:35:08.928051</dc:date>
    <dc:format>image/svg+xml</dc:format>
    <dc:creator>
     <cc:Agent>
      <dc:title>Matplotlib v3.4.3, https://matplotlib.org/</dc:title>
     </cc:Agent>
    </dc:creator>
   </cc:Work>
  </rdf:RDF>
 </metadata>
 <defs>
  <style type="text/css">*{stroke-linecap:butt;stroke-linejoin:round;}</style>
 </defs>
 <g id="figure_1">
  <g id="patch_1">
   <path d="M 0 80.422003 
L 34.93358 80.422003 
L 34.93358 0 
L 0 0 
z
" style="fill:#ffffff;"/>
  </g>
  <g id="axes_1">
   <g id="line2d_1">
    <path clip-path="url(#p33d518a465)" d="M 9.989871 64.039754 
L 10.088855 59.902533 
L 10.182016 56.062884 
L 10.280272 51.963526 
L 10.378528 47.864168 
L 10.48479 43.442172 
L 10.591052 39.020177 
L 10.713327 33.917711 
L 10.835601 28.815244 
L 10.945502 24.250862 
L 11.055403 19.686479 
L 11.155115 15.518328 
L 11.254826 11.350176 
" style="fill:none;stroke:#808080;stroke-linecap:square;stroke-width:1.5;"/>
   </g>
   <g id="line2d_2">
    <path clip-path="url(#p33d518a465)" d="M 21.445795 69.577381 
L 21.362823 66.646449 
L 21.192513 60.554207 
L 21.036759 55.029379 
L 20.881005 49.504551 
L 20.720884 43.782408 
L 20.624811 40.369387 
L 20.528739 36.956366 
L 20.432666 33.543345 
L 20.336594 30.130324 
L 20.238338 26.612246 
L 20.140082 23.094168 
L 19.969771 17.054187 
" style="fill:none;stroke:#808080;stroke-linecap:square;stroke-width:1.5;"/>
   </g>
   <g id="line2d_3">
    <path clip-path="url(#p33d518a465)" d="M 15.861942 66.226221 
L 15.915073 62.168192 
L 15.968204 58.110164 
L 16.021335 54.052135 
L 16.074466 49.994106 
" style="fill:none;stroke:#808080;stroke-linecap:square;stroke-width:1.5;"/>
   </g>
   <g id="line2d_4">
    <path clip-path="url(#p33d518a465)" d="M 18.009018 42.363871 
L 16.672008 42.852893 
L 15.334998 43.341915 
L 13.997989 43.830937 
L 12.660979 44.319959 
L 10.802121 44.81058 
L 9.863958 45.6873 
L 8.925795 46.56402 
L 7.987632 47.44074 
L 7.049469 48.31746 
L 5.838372 49.442157 
L 4.627276 50.566854 
L 4.189855 51.516367 
L 3.752434 52.46588 
L 3.315012 53.415393 
L 2.877591 54.364906 
L 3.113406 56.06715 
L 3.34922 57.769395 
L 3.982426 58.631182 
L 4.615631 59.49297 
L 5.195705 60.349959 
L 5.77578 61.206947 
L 6.475945 61.971144 
L 7.17611 62.73534 
L 8.679791 63.777378 
L 9.989871 64.039754 
" style="fill:none;stroke:#008000;stroke-linecap:square;stroke-width:1.5;"/>
   </g>
   <g id="line2d_5">
    <path clip-path="url(#p33d518a465)" d="M 16.074466 49.994106 
L 16.735329 50.715107 
L 17.185123 51.649955 
L 17.634917 52.584802 
L 18.027213 53.969209 
L 18.41951 55.353616 
L 18.811806 56.738022 
L 19.204102 58.122429 
L 19.172078 59.736148 
L 19.140054 61.349867 
L 18.666241 62.830265 
L 18.192429 64.310663 
L 17.027185 65.268442 
L 15.861942 66.226221 
" style="fill:none;stroke:#008000;stroke-linecap:square;stroke-width:1.5;"/>
   </g>
   <g id="line2d_6">
    <path clip-path="url(#p33d518a465)" d="M 7.049469 48.31746 
L 7.049469 49.44509 
L 7.049469 50.57272 
L 7.049469 51.70035 
L 7.049469 52.82798 
L 6.974503 53.854553 
L 6.899537 54.881126 
L 6.824572 55.907698 
L 6.749606 56.934271 
L 6.749606 58.730907 
L 6.749606 60.527542 
L 6.962858 61.631441 
L 7.17611 62.73534 
" style="fill:none;stroke:#008000;stroke-linecap:square;stroke-width:1.5;"/>
   </g>
   <g id="line2d_7">
    <path clip-path="url(#p33d518a465)" d="M 19.969771 17.054187 
L 20.791483 18.776963 
L 21.613194 20.499738 
L 22.434905 22.222514 
L 23.256617 23.94529 
L 23.631081 25.118516 
L 24.005546 26.291742 
L 24.380011 27.464968 
L 24.754475 28.638194 
L 24.941889 30.453228 
L 25.129304 32.268261 
L 25.316718 34.083295 
L 25.504132 35.898329 
L 25.392048 36.815579 
L 24.877477 37.804288 
L 24.362907 38.792998 
L 23.860709 39.181229 
L 22.397786 39.976889 
L 20.934864 40.77255 
L 19.471941 41.568211 
L 18.009018 42.363871 
" style="fill:none;stroke:#008000;stroke-linecap:square;stroke-width:1.5;"/>
   </g>
   <g id="line2d_8">
    <path clip-path="url(#p33d518a465)" d="M 19.969771 17.054187 
L 21.20998 17.635467 
L 22.46329 17.967703 
L 23.716601 18.29994 
L 24.287941 19.097467 
L 24.859282 19.894994 
L 25.430622 20.692521 
L 26.001963 21.490048 
L 26.900823 23.194958 
L 27.799684 24.899869 
L 28.30552 26.16482 
L 28.811357 27.429771 
L 29.186913 29.225873 
L 29.154161 30.509222 
L 29.121409 31.792572 
L 29.088657 33.075921 
L 29.055905 34.35927 
L 29.023153 35.642619 
L 28.990401 36.925969 
L 28.957649 38.209318 
L 28.924897 39.492667 
L 29.430734 40.88614 
L 29.93657 42.279612 
L 30.629821 43.489635 
L 31.323072 44.699657 
L 32.016323 45.90968 
L 32.709573 47.119703 
" style="fill:none;stroke:#008000;stroke-linecap:square;stroke-width:1.5;"/>
   </g>
   <g id="line2d_9">
    <path clip-path="url(#p33d518a465)" d="M 32.709573 47.119703 
L 32.971589 48.128144 
L 33.233605 49.136585 
L 33.289648 50.49326 
L 33.34569 51.849936 
L 33.326767 53.7015 
L 33.307843 55.553064 
L 32.970862 56.643898 
L 32.63388 57.734731 
L 32.296898 58.825565 
L 31.959916 59.916398 
L 30.966439 61.052828 
L 29.972961 62.189257 
L 28.699272 62.748406 
L 27.425583 63.307555 
L 26.151894 63.866703 
L 24.878205 64.425852 
L 24.090701 65.012465 
L 23.591415 65.935047 
L 23.092129 66.85763 
L 22.268962 68.217505 
L 21.445795 69.577381 
" style="fill:none;stroke:#008000;stroke-linecap:square;stroke-width:1.5;"/>
   </g>
   <g id="line2d_10">
    <path clip-path="url(#p33d518a465)" d="M 32.709573 47.119703 
L 31.108 48.226001 
L 29.506427 49.3323 
L 27.904854 50.438599 
L 26.303281 51.544898 
L 24.83126 52.695726 
L 23.35924 53.846554 
L 21.887219 54.997382 
L 20.415198 56.14821 
" style="fill:none;stroke:#008000;stroke-linecap:square;stroke-width:1.5;"/>
   </g>
   <g id="line2d_11">
    <path clip-path="url(#p33d518a465)" d="M 18.009018 42.363871 
L 17.843802 43.866134 
L 17.678586 45.368396 
L 18.091262 47.1469 
L 18.503937 48.925404 
L 19.196824 50.72204 
L 19.889711 52.518675 
L 20.152455 54.333442 
L 20.415198 56.14821 
L 19.80965 57.135319 
L 19.204102 58.122429 
" style="fill:none;stroke:#008000;stroke-linecap:square;stroke-width:1.5;"/>
   </g>
   <g id="line2d_12">
    <path clip-path="url(#p33d518a465)" d="M 11.254826 11.350176 
L 12.069987 10.844622 
L 12.931729 11.394972 
L 13.457217 12.165034 
L 13.101312 13.23747 
L 12.745407 14.309905 
L 12.389501 15.38234 
L 12.033596 16.454775 
L 11.518298 17.536276 
L 11.003 18.617777 
L 10.487702 19.699278 
L 9.972403 20.780779 
L 9.560092 22.568349 
L 9.147781 24.355919 
L 8.735469 26.143489 
L 8.323158 27.931058 
L 8.136108 29.250938 
L 7.949057 30.570817 
L 7.860081 31.611255 
L 7.771105 32.651693 
L 7.682128 33.692131 
L 7.593152 34.732569 
L 7.504176 35.773007 
L 7.4152 36.813446 
L 7.326223 37.853884 
L 7.237247 38.894322 
L 7.293289 40.507774 
L 7.349332 42.121227 
L 7.405374 43.734679 
L 7.461416 45.348131 
L 7.255443 46.832795 
L 7.049469 48.31746 
" style="fill:none;stroke:#008000;stroke-linecap:square;stroke-width:1.5;"/>
   </g>
   <g id="line2d_13">
    <path clip-path="url(#p33d518a465)" d="M 9.972403 20.780779 
L 9.328281 21.707095 
L 8.684158 22.63341 
L 8.040035 23.559725 
L 7.395912 24.48604 
L 6.599675 26.190951 
L 5.803437 27.895862 
L 5.007199 29.600772 
L 4.210962 31.305683 
L 3.761168 33.148181 
L 3.311373 34.990679 
L 2.861579 36.833177 
L 2.411785 38.675675 
L 2.205811 40.059815 
L 1.999837 41.443955 
L 1.793864 42.828095 
L 1.58789 44.212235 
L 1.686146 45.261873 
L 1.784402 46.31151 
L 1.882658 47.361147 
L 1.980914 48.410784 
L 2.07917 49.460422 
L 2.177426 50.510059 
L 2.275682 51.559696 
L 2.373938 52.609334 
L 2.877591 54.364906 
" style="fill:none;stroke:#008000;stroke-linecap:square;stroke-width:1.5;"/>
   </g>
   <g id="line2d_14">
    <path clip-path="url(#p33d518a465)" d="M 19.969771 17.054187 
L 18.87731 18.452459 
L 17.784848 19.850731 
L 17.756827 20.9141 
L 17.728806 21.97747 
L 17.700785 23.040839 
L 17.672764 24.104209 
L 17.775751 25.314231 
L 17.878738 26.524254 
L 17.981724 27.734276 
L 18.084711 28.944299 
L 18.084711 30.640144 
L 18.084711 32.335989 
L 18.084711 34.031833 
L 18.084711 35.727678 
L 18.065788 37.386726 
L 18.046864 39.045775 
L 18.027941 40.704823 
L 18.009018 42.363871 
" style="fill:none;stroke:#008000;stroke-linecap:square;stroke-width:1.5;"/>
   </g>
   <g id="line2d_15">
    <path clip-path="url(#p33d518a465)" d="M 19.969771 17.054187 
L 18.655324 17.467483 
L 17.340877 17.880778 
L 16.423093 18.705769 
L 15.505309 19.53076 
L 14.94343 20.461342 
L 14.381551 21.391923 
L 13.819672 22.322505 
L 13.257793 23.253086 
L 12.864042 24.600163 
L 12.47029 25.94724 
L 12.423345 27.446036 
L 12.376401 28.944832 
L 12.329456 30.443628 
L 12.282512 31.942425 
L 12.458645 32.971664 
L 12.634778 34.000903 
L 12.638053 35.290785 
L 12.641328 36.580667 
L 12.644603 37.870549 
L 12.647878 39.160431 
L 12.651154 40.450313 
L 12.654429 41.740195 
L 12.657704 43.030077 
L 12.660979 44.319959 
L 12.588197 45.480386 
L 12.515415 46.640813 
L 12.442632 47.80124 
L 12.36985 48.961667 
L 12.157326 50.685776 
L 11.944802 52.409885 
L 11.87857 53.796958 
L 11.812338 55.184031 
L 11.746106 56.571104 
L 11.679875 57.958177 
L 11.911686 59.312987 
L 12.143497 60.667796 
L 12.375309 62.022606 
L 12.60712 63.377415 
L 12.965209 64.284532 
L 13.323297 65.191649 
L 13.959414 66.099299 
" style="fill:none;stroke:#008000;stroke-linecap:square;stroke-width:1.5;"/>
   </g>
   <g id="text_1">
    <g id="patch_2">
     <path d="M 11.178558 57.06993 
L 11.357307 46.891812 
L 9.381987 46.857122 
L 9.203237 57.03524 
z
" style="fill:#ffffff;"/>
    </g>
    <!-- Conan Lift -->
    <g style="fill:#808080;" transform="translate(10.743039 57.042279)rotate(-88.993868)scale(0.02 -0.02)">
     <defs>
      <path d="M 4122 4306 
L 4122 3641 
Q 3803 3938 3442 4084 
Q 3081 4231 2675 4231 
Q 1875 4231 1450 3742 
Q 1025 3253 1025 2328 
Q 1025 1406 1450 917 
Q 1875 428 2675 428 
Q 3081 428 3442 575 
Q 3803 722 4122 1019 
L 4122 359 
Q 3791 134 3420 21 
Q 3050 -91 2638 -91 
Q 1578 -91 968 557 
Q 359 1206 359 2328 
Q 359 3453 968 4101 
Q 1578 4750 2638 4750 
Q 3056 4750 3426 4639 
Q 3797 4528 4122 4306 
z
" id="DejaVuSans-43" transform="scale(0.015625)"/>
      <path d="M 1959 3097 
Q 1497 3097 1228 2736 
Q 959 2375 959 1747 
Q 959 1119 1226 758 
Q 1494 397 1959 397 
Q 2419 397 2687 759 
Q 2956 1122 2956 1747 
Q 2956 2369 2687 2733 
Q 2419 3097 1959 3097 
z
M 1959 3584 
Q 2709 3584 3137 3096 
Q 3566 2609 3566 1747 
Q 3566 888 3137 398 
Q 2709 -91 1959 -91 
Q 1206 -91 779 398 
Q 353 888 353 1747 
Q 353 2609 779 3096 
Q 1206 3584 1959 3584 
z
" id="DejaVuSans-6f" transform="scale(0.015625)"/>
      <path d="M 3513 2113 
L 3513 0 
L 2938 0 
L 2938 2094 
Q 2938 2591 2744 2837 
Q 2550 3084 2163 3084 
Q 1697 3084 1428 2787 
Q 1159 2491 1159 1978 
L 1159 0 
L 581 0 
L 581 3500 
L 1159 3500 
L 1159 2956 
Q 1366 3272 1645 3428 
Q 1925 3584 2291 3584 
Q 2894 3584 3203 3211 
Q 3513 2838 3513 2113 
z
" id="DejaVuSans-6e" transform="scale(0.015625)"/>
      <path d="M 2194 1759 
Q 1497 1759 1228 1600 
Q 959 1441 959 1056 
Q 959 750 1161 570 
Q 1363 391 1709 391 
Q 2188 391 2477 730 
Q 2766 1069 2766 1631 
L 2766 1759 
L 2194 1759 
z
M 3341 1997 
L 3341 0 
L 2766 0 
L 2766 531 
Q 2569 213 2275 61 
Q 1981 -91 1556 -91 
Q 1019 -91 701 211 
Q 384 513 384 1019 
Q 384 1609 779 1909 
Q 1175 2209 1959 2209 
L 2766 2209 
L 2766 2266 
Q 2766 2663 2505 2880 
Q 2244 3097 1772 3097 
Q 1472 3097 1187 3025 
Q 903 2953 641 2809 
L 641 3341 
Q 956 3463 1253 3523 
Q 1550 3584 1831 3584 
Q 2591 3584 2966 3190 
Q 3341 2797 3341 1997 
z
" id="DejaVuSans-61" transform="scale(0.015625)"/>
      <path id="DejaVuSans-20" transform="scale(0.015625)"/>
      <path d="M 628 4666 
L 1259 4666 
L 1259 531 
L 3531 531 
L 3531 0 
L 628 0 
L 628 4666 
z
" id="DejaVuSans-4c" transform="scale(0.015625)"/>
      <path d="M 603 3500 
L 1178 3500 
L 1178 0 
L 603 0 
L 603 3500 
z
M 603 4863 
L 1178 4863 
L 1178 4134 
L 603 4134 
L 603 4863 
z
" id="DejaVuSans-69" transform="scale(0.015625)"/>
      <path d="M 2375 4863 
L 2375 4384 
L 1825 4384 
Q 1516 4384 1395 4259 
Q 1275 4134 1275 3809 
L 1275 3500 
L 2222 3500 
L 2222 3053 
L 1275 3053 
L 1275 0 
L 697 0 
L 697 3053 
L 147 3053 
L 147 3500 
L 697 3500 
L 697 3744 
Q 697 4328 969 4595 
Q 1241 4863 1831 4863 
L 2375 4863 
z
" id="DejaVuSans-66" transform="scale(0.015625)"/>
      <path d="M 1172 4494 
L 1172 3500 
L 2356 3500 
L 2356 3053 
L 1172 3053 
L 1172 1153 
Q 1172 725 1289 603 
Q 1406 481 1766 481 
L 2356 481 
L 2356 0 
L 1766 0 
Q 1100 0 847 248 
Q 594 497 594 1153 
L 594 3053 
L 172 3053 
L 172 3500 
L 594 3500 
L 594 4494 
L 1172 4494 
z
" id="DejaVuSans-74" transform="scale(0.015625)"/>
     </defs>
     <use xlink:href="#DejaVuSans-43"/>
     <use x="69.824219" xlink:href="#DejaVuSans-6f"/>
     <use x="131.005859" xlink:href="#DejaVuSans-6e"/>
     <use x="194.384766" xlink:href="#DejaVuSans-61"/>
     <use x="255.664062" xlink:href="#DejaVuSans-6e"/>
     <use x="319.042969" xlink:href="#DejaVuSans-20"/>
     <use x="350.830078" xlink:href="#DejaVuSans-4c"/>
     <use x="406.542969" xlink:href="#DejaVuSans-69"/>
     <use x="434.326172" xlink:href="#DejaVuSans-66"/>
     <use x="467.78125" xlink:href="#DejaVuSans-74"/>
    </g>
   </g>
   <g id="text_2">
    <g id="patch_3">
     <path d="M 19.958743 50.672744 
L 20.13957 59.426814 
L 22.114774 59.386014 
L 21.933947 50.631943 
z
" style="fill:#ffffff;"/>
    </g>
    <!-- Mary Lift -->
    <g style="fill:#808080;" transform="translate(20.395001 50.683737)rotate(-271.183355)scale(0.02 -0.02)">
     <defs>
      <path d="M 628 4666 
L 1569 4666 
L 2759 1491 
L 3956 4666 
L 4897 4666 
L 4897 0 
L 4281 0 
L 4281 4097 
L 3078 897 
L 2444 897 
L 1241 4097 
L 1241 0 
L 628 0 
L 628 4666 
z
" id="DejaVuSans-4d" transform="scale(0.015625)"/>
      <path d="M 2631 2963 
Q 2534 3019 2420 3045 
Q 2306 3072 2169 3072 
Q 1681 3072 1420 2755 
Q 1159 2438 1159 1844 
L 1159 0 
L 581 0 
L 581 3500 
L 1159 3500 
L 1159 2956 
Q 1341 3275 1631 3429 
Q 1922 3584 2338 3584 
Q 2397 3584 2469 3576 
Q 2541 3569 2628 3553 
L 2631 2963 
z
" id="DejaVuSans-72" transform="scale(0.015625)"/>
      <path d="M 2059 -325 
Q 1816 -950 1584 -1140 
Q 1353 -1331 966 -1331 
L 506 -1331 
L 506 -850 
L 844 -850 
Q 1081 -850 1212 -737 
Q 1344 -625 1503 -206 
L 1606 56 
L 191 3500 
L 800 3500 
L 1894 763 
L 2988 3500 
L 3597 3500 
L 2059 -325 
z
" id="DejaVuSans-79" transform="scale(0.015625)"/>
     </defs>
     <use xlink:href="#DejaVuSans-4d"/>
     <use x="86.279297" xlink:href="#DejaVuSans-61"/>
     <use x="147.558594" xlink:href="#DejaVuSans-72"/>
     <use x="188.671875" xlink:href="#DejaVuSans-79"/>
     <use x="247.851562" xlink:href="#DejaVuSans-20"/>
     <use x="279.638672" xlink:href="#DejaVuSans-4c"/>
     <use x="335.351562" xlink:href="#DejaVuSans-69"/>
     <use x="363.134766" xlink:href="#DejaVuSans-66"/>
     <use x="396.589844" xlink:href="#DejaVuSans-74"/>
    </g>
   </g>
   <g id="text_3">
    <g id="patch_4">
     <path d="M 7.266793 49.961049 
L 10.263187 46.139427 
L 8.70847 44.920431 
L 5.712077 48.742053 
z
" style="fill:#ffffff;"/>
    </g>
    <!--  8.1° -->
    <g style="fill:#008000;" transform="translate(6.936073 49.676328)rotate(-51.901309)scale(0.02 -0.02)">
     <defs>
      <path d="M 2034 2216 
Q 1584 2216 1326 1975 
Q 1069 1734 1069 1313 
Q 1069 891 1326 650 
Q 1584 409 2034 409 
Q 2484 409 2743 651 
Q 3003 894 3003 1313 
Q 3003 1734 2745 1975 
Q 2488 2216 2034 2216 
z
M 1403 2484 
Q 997 2584 770 2862 
Q 544 3141 544 3541 
Q 544 4100 942 4425 
Q 1341 4750 2034 4750 
Q 2731 4750 3128 4425 
Q 3525 4100 3525 3541 
Q 3525 3141 3298 2862 
Q 3072 2584 2669 2484 
Q 3125 2378 3379 2068 
Q 3634 1759 3634 1313 
Q 3634 634 3220 271 
Q 2806 -91 2034 -91 
Q 1263 -91 848 271 
Q 434 634 434 1313 
Q 434 1759 690 2068 
Q 947 2378 1403 2484 
z
M 1172 3481 
Q 1172 3119 1398 2916 
Q 1625 2713 2034 2713 
Q 2441 2713 2670 2916 
Q 2900 3119 2900 3481 
Q 2900 3844 2670 4047 
Q 2441 4250 2034 4250 
Q 1625 4250 1398 4047 
Q 1172 3844 1172 3481 
z
" id="DejaVuSans-38" transform="scale(0.015625)"/>
      <path d="M 684 794 
L 1344 794 
L 1344 0 
L 684 0 
L 684 794 
z
" id="DejaVuSans-2e" transform="scale(0.015625)"/>
      <path d="M 794 531 
L 1825 531 
L 1825 4091 
L 703 3866 
L 703 4441 
L 1819 4666 
L 2450 4666 
L 2450 531 
L 3481 531 
L 3481 0 
L 794 0 
L 794 531 
z
" id="DejaVuSans-31" transform="scale(0.015625)"/>
      <path d="M 1600 4347 
Q 1350 4347 1178 4173 
Q 1006 4000 1006 3750 
Q 1006 3503 1178 3333 
Q 1350 3163 1600 3163 
Q 1850 3163 2022 3333 
Q 2194 3503 2194 3750 
Q 2194 3997 2020 4172 
Q 1847 4347 1600 4347 
z
M 1600 4750 
Q 1800 4750 1984 4673 
Q 2169 4597 2303 4453 
Q 2447 4313 2519 4134 
Q 2591 3956 2591 3750 
Q 2591 3338 2302 3052 
Q 2013 2766 1594 2766 
Q 1172 2766 890 3047 
Q 609 3328 609 3750 
Q 609 4169 896 4459 
Q 1184 4750 1600 4750 
z
" id="DejaVuSans-b0" transform="scale(0.015625)"/>
     </defs>
     <use xlink:href="#DejaVuSans-20"/>
     <use x="31.787109" xlink:href="#DejaVuSans-38"/>
     <use x="95.410156" xlink:href="#DejaVuSans-2e"/>
     <use x="127.197266" xlink:href="#DejaVuSans-31"/>
     <use x="190.820312" xlink:href="#DejaVuSans-b0"/>
    </g>
   </g>
   <g id="text_4">
    <g id="patch_5">
     <path d="M 23.428516 23.543959 
L 24.485268 37.511541 
L 26.455262 37.362496 
L 25.398511 23.394914 
z
" style="fill:#ffffff;"/>
    </g>
    <!-- Gnarnia 11.0° -->
    <g style="fill:#008000;" transform="translate(23.86472 23.531014)rotate(-274.326608)scale(0.02 -0.02)">
     <defs>
      <path d="M 3809 666 
L 3809 1919 
L 2778 1919 
L 2778 2438 
L 4434 2438 
L 4434 434 
Q 4069 175 3628 42 
Q 3188 -91 2688 -91 
Q 1594 -91 976 548 
Q 359 1188 359 2328 
Q 359 3472 976 4111 
Q 1594 4750 2688 4750 
Q 3144 4750 3555 4637 
Q 3966 4525 4313 4306 
L 4313 3634 
Q 3963 3931 3569 4081 
Q 3175 4231 2741 4231 
Q 1884 4231 1454 3753 
Q 1025 3275 1025 2328 
Q 1025 1384 1454 906 
Q 1884 428 2741 428 
Q 3075 428 3337 486 
Q 3600 544 3809 666 
z
" id="DejaVuSans-47" transform="scale(0.015625)"/>
      <path d="M 2034 4250 
Q 1547 4250 1301 3770 
Q 1056 3291 1056 2328 
Q 1056 1369 1301 889 
Q 1547 409 2034 409 
Q 2525 409 2770 889 
Q 3016 1369 3016 2328 
Q 3016 3291 2770 3770 
Q 2525 4250 2034 4250 
z
M 2034 4750 
Q 2819 4750 3233 4129 
Q 3647 3509 3647 2328 
Q 3647 1150 3233 529 
Q 2819 -91 2034 -91 
Q 1250 -91 836 529 
Q 422 1150 422 2328 
Q 422 3509 836 4129 
Q 1250 4750 2034 4750 
z
" id="DejaVuSans-30" transform="scale(0.015625)"/>
     </defs>
     <use xlink:href="#DejaVuSans-47"/>
     <use x="77.490234" xlink:href="#DejaVuSans-6e"/>
     <use x="140.869141" xlink:href="#DejaVuSans-61"/>
     <use x="202.148438" xlink:href="#DejaVuSans-72"/>
     <use x="241.511719" xlink:href="#DejaVuSans-6e"/>
     <use x="304.890625" xlink:href="#DejaVuSans-69"/>
     <use x="332.673828" xlink:href="#DejaVuSans-61"/>
     <use x="393.953125" xlink:href="#DejaVuSans-20"/>
     <use x="425.740234" xlink:href="#DejaVuSans-31"/>
     <use x="489.363281" xlink:href="#DejaVuSans-31"/>
     <use x="552.986328" xlink:href="#DejaVuSans-2e"/>
     <use x="584.773438" xlink:href="#DejaVuSans-30"/>
     <use x="648.396484" xlink:href="#DejaVuSans-b0"/>
    </g>
   </g>
   <g id="text_5">
    <g id="patch_6">
     <path d="M 24.144718 18.17967 
L 29.611751 32.331979 
L 31.45465 31.620068 
L 25.987617 17.467759 
z
" style="fill:#ffffff;"/>
    </g>
    <!-- Hubs Folly 8.6° -->
    <g style="fill:#008000;" transform="translate(24.558576 18.041237)rotate(-291.121529)scale(0.02 -0.02)">
     <defs>
      <path d="M 628 4666 
L 1259 4666 
L 1259 2753 
L 3553 2753 
L 3553 4666 
L 4184 4666 
L 4184 0 
L 3553 0 
L 3553 2222 
L 1259 2222 
L 1259 0 
L 628 0 
L 628 4666 
z
" id="DejaVuSans-48" transform="scale(0.015625)"/>
      <path d="M 544 1381 
L 544 3500 
L 1119 3500 
L 1119 1403 
Q 1119 906 1312 657 
Q 1506 409 1894 409 
Q 2359 409 2629 706 
Q 2900 1003 2900 1516 
L 2900 3500 
L 3475 3500 
L 3475 0 
L 2900 0 
L 2900 538 
Q 2691 219 2414 64 
Q 2138 -91 1772 -91 
Q 1169 -91 856 284 
Q 544 659 544 1381 
z
M 1991 3584 
L 1991 3584 
z
" id="DejaVuSans-75" transform="scale(0.015625)"/>
      <path d="M 3116 1747 
Q 3116 2381 2855 2742 
Q 2594 3103 2138 3103 
Q 1681 3103 1420 2742 
Q 1159 2381 1159 1747 
Q 1159 1113 1420 752 
Q 1681 391 2138 391 
Q 2594 391 2855 752 
Q 3116 1113 3116 1747 
z
M 1159 2969 
Q 1341 3281 1617 3432 
Q 1894 3584 2278 3584 
Q 2916 3584 3314 3078 
Q 3713 2572 3713 1747 
Q 3713 922 3314 415 
Q 2916 -91 2278 -91 
Q 1894 -91 1617 61 
Q 1341 213 1159 525 
L 1159 0 
L 581 0 
L 581 4863 
L 1159 4863 
L 1159 2969 
z
" id="DejaVuSans-62" transform="scale(0.015625)"/>
      <path d="M 2834 3397 
L 2834 2853 
Q 2591 2978 2328 3040 
Q 2066 3103 1784 3103 
Q 1356 3103 1142 2972 
Q 928 2841 928 2578 
Q 928 2378 1081 2264 
Q 1234 2150 1697 2047 
L 1894 2003 
Q 2506 1872 2764 1633 
Q 3022 1394 3022 966 
Q 3022 478 2636 193 
Q 2250 -91 1575 -91 
Q 1294 -91 989 -36 
Q 684 19 347 128 
L 347 722 
Q 666 556 975 473 
Q 1284 391 1588 391 
Q 1994 391 2212 530 
Q 2431 669 2431 922 
Q 2431 1156 2273 1281 
Q 2116 1406 1581 1522 
L 1381 1569 
Q 847 1681 609 1914 
Q 372 2147 372 2553 
Q 372 3047 722 3315 
Q 1072 3584 1716 3584 
Q 2034 3584 2315 3537 
Q 2597 3491 2834 3397 
z
" id="DejaVuSans-73" transform="scale(0.015625)"/>
      <path d="M 628 4666 
L 3309 4666 
L 3309 4134 
L 1259 4134 
L 1259 2759 
L 3109 2759 
L 3109 2228 
L 1259 2228 
L 1259 0 
L 628 0 
L 628 4666 
z
" id="DejaVuSans-46" transform="scale(0.015625)"/>
      <path d="M 603 4863 
L 1178 4863 
L 1178 0 
L 603 0 
L 603 4863 
z
" id="DejaVuSans-6c" transform="scale(0.015625)"/>
      <path d="M 2113 2584 
Q 1688 2584 1439 2293 
Q 1191 2003 1191 1497 
Q 1191 994 1439 701 
Q 1688 409 2113 409 
Q 2538 409 2786 701 
Q 3034 994 3034 1497 
Q 3034 2003 2786 2293 
Q 2538 2584 2113 2584 
z
M 3366 4563 
L 3366 3988 
Q 3128 4100 2886 4159 
Q 2644 4219 2406 4219 
Q 1781 4219 1451 3797 
Q 1122 3375 1075 2522 
Q 1259 2794 1537 2939 
Q 1816 3084 2150 3084 
Q 2853 3084 3261 2657 
Q 3669 2231 3669 1497 
Q 3669 778 3244 343 
Q 2819 -91 2113 -91 
Q 1303 -91 875 529 
Q 447 1150 447 2328 
Q 447 3434 972 4092 
Q 1497 4750 2381 4750 
Q 2619 4750 2861 4703 
Q 3103 4656 3366 4563 
z
" id="DejaVuSans-36" transform="scale(0.015625)"/>
     </defs>
     <use xlink:href="#DejaVuSans-48"/>
     <use x="75.195312" xlink:href="#DejaVuSans-75"/>
     <use x="138.574219" xlink:href="#DejaVuSans-62"/>
     <use x="202.050781" xlink:href="#DejaVuSans-73"/>
     <use x="254.150391" xlink:href="#DejaVuSans-20"/>
     <use x="285.9375" xlink:href="#DejaVuSans-46"/>
     <use x="339.832031" xlink:href="#DejaVuSans-6f"/>
     <use x="401.013672" xlink:href="#DejaVuSans-6c"/>
     <use x="428.796875" xlink:href="#DejaVuSans-6c"/>
     <use x="456.580078" xlink:href="#DejaVuSans-79"/>
     <use x="515.759766" xlink:href="#DejaVuSans-20"/>
     <use x="547.546875" xlink:href="#DejaVuSans-38"/>
     <use x="611.169922" xlink:href="#DejaVuSans-2e"/>
     <use x="642.957031" xlink:href="#DejaVuSans-36"/>
     <use x="706.580078" xlink:href="#DejaVuSans-b0"/>
    </g>
   </g>
   <g id="text_6">
    <g id="patch_7">
     <path d="M 27.36345 68.509103 
L 36.233029 54.662163 
L 34.569428 53.596552 
L 25.699849 67.443493 
z
" style="fill:#ffffff;"/>
    </g>
    <!-- Hubs Folly 13.0° -->
    <g style="fill:#008000;" transform="translate(27.00715 68.257126)rotate(-57.358636)scale(0.02 -0.02)">
     <defs>
      <path d="M 2597 2516 
Q 3050 2419 3304 2112 
Q 3559 1806 3559 1356 
Q 3559 666 3084 287 
Q 2609 -91 1734 -91 
Q 1441 -91 1130 -33 
Q 819 25 488 141 
L 488 750 
Q 750 597 1062 519 
Q 1375 441 1716 441 
Q 2309 441 2620 675 
Q 2931 909 2931 1356 
Q 2931 1769 2642 2001 
Q 2353 2234 1838 2234 
L 1294 2234 
L 1294 2753 
L 1863 2753 
Q 2328 2753 2575 2939 
Q 2822 3125 2822 3475 
Q 2822 3834 2567 4026 
Q 2313 4219 1838 4219 
Q 1578 4219 1281 4162 
Q 984 4106 628 3988 
L 628 4550 
Q 988 4650 1302 4700 
Q 1616 4750 1894 4750 
Q 2613 4750 3031 4423 
Q 3450 4097 3450 3541 
Q 3450 3153 3228 2886 
Q 3006 2619 2597 2516 
z
" id="DejaVuSans-33" transform="scale(0.015625)"/>
     </defs>
     <use xlink:href="#DejaVuSans-48"/>
     <use x="75.195312" xlink:href="#DejaVuSans-75"/>
     <use x="138.574219" xlink:href="#DejaVuSans-62"/>
     <use x="202.050781" xlink:href="#DejaVuSans-73"/>
     <use x="254.150391" xlink:href="#DejaVuSans-20"/>
     <use x="285.9375" xlink:href="#DejaVuSans-46"/>
     <use x="339.832031" xlink:href="#DejaVuSans-6f"/>
     <use x="401.013672" xlink:href="#DejaVuSans-6c"/>
     <use x="428.796875" xlink:href="#DejaVuSans-6c"/>
     <use x="456.580078" xlink:href="#DejaVuSans-79"/>
     <use x="515.759766" xlink:href="#DejaVuSans-20"/>
     <use x="547.546875" xlink:href="#DejaVuSans-31"/>
     <use x="611.169922" xlink:href="#DejaVuSans-33"/>
     <use x="674.792969" xlink:href="#DejaVuSans-2e"/>
     <use x="706.580078" xlink:href="#DejaVuSans-30"/>
     <use x="770.203125" xlink:href="#DejaVuSans-b0"/>
    </g>
   </g>
   <g id="text_7">
    <g id="patch_8">
     <path d="M 8.392319 38.912738 
L 9.299601 24.433323 
L 7.327843 24.309772 
L 6.420561 38.789187 
z
" style="fill:#ffffff;"/>
    </g>
    <!-- Outback 16.4° -->
    <g style="fill:#008000;" transform="translate(7.958485 38.865515)rotate(-86.414524)scale(0.02 -0.02)">
     <defs>
      <path d="M 2522 4238 
Q 1834 4238 1429 3725 
Q 1025 3213 1025 2328 
Q 1025 1447 1429 934 
Q 1834 422 2522 422 
Q 3209 422 3611 934 
Q 4013 1447 4013 2328 
Q 4013 3213 3611 3725 
Q 3209 4238 2522 4238 
z
M 2522 4750 
Q 3503 4750 4090 4092 
Q 4678 3434 4678 2328 
Q 4678 1225 4090 567 
Q 3503 -91 2522 -91 
Q 1538 -91 948 565 
Q 359 1222 359 2328 
Q 359 3434 948 4092 
Q 1538 4750 2522 4750 
z
" id="DejaVuSans-4f" transform="scale(0.015625)"/>
      <path d="M 3122 3366 
L 3122 2828 
Q 2878 2963 2633 3030 
Q 2388 3097 2138 3097 
Q 1578 3097 1268 2742 
Q 959 2388 959 1747 
Q 959 1106 1268 751 
Q 1578 397 2138 397 
Q 2388 397 2633 464 
Q 2878 531 3122 666 
L 3122 134 
Q 2881 22 2623 -34 
Q 2366 -91 2075 -91 
Q 1284 -91 818 406 
Q 353 903 353 1747 
Q 353 2603 823 3093 
Q 1294 3584 2113 3584 
Q 2378 3584 2631 3529 
Q 2884 3475 3122 3366 
z
" id="DejaVuSans-63" transform="scale(0.015625)"/>
      <path d="M 581 4863 
L 1159 4863 
L 1159 1991 
L 2875 3500 
L 3609 3500 
L 1753 1863 
L 3688 0 
L 2938 0 
L 1159 1709 
L 1159 0 
L 581 0 
L 581 4863 
z
" id="DejaVuSans-6b" transform="scale(0.015625)"/>
      <path d="M 2419 4116 
L 825 1625 
L 2419 1625 
L 2419 4116 
z
M 2253 4666 
L 3047 4666 
L 3047 1625 
L 3713 1625 
L 3713 1100 
L 3047 1100 
L 3047 0 
L 2419 0 
L 2419 1100 
L 313 1100 
L 313 1709 
L 2253 4666 
z
" id="DejaVuSans-34" transform="scale(0.015625)"/>
     </defs>
     <use xlink:href="#DejaVuSans-4f"/>
     <use x="78.710938" xlink:href="#DejaVuSans-75"/>
     <use x="142.089844" xlink:href="#DejaVuSans-74"/>
     <use x="181.298828" xlink:href="#DejaVuSans-62"/>
     <use x="244.775391" xlink:href="#DejaVuSans-61"/>
     <use x="306.054688" xlink:href="#DejaVuSans-63"/>
     <use x="361.035156" xlink:href="#DejaVuSans-6b"/>
     <use x="418.945312" xlink:href="#DejaVuSans-20"/>
     <use x="450.732422" xlink:href="#DejaVuSans-31"/>
     <use x="514.355469" xlink:href="#DejaVuSans-36"/>
     <use x="577.978516" xlink:href="#DejaVuSans-2e"/>
     <use x="609.765625" xlink:href="#DejaVuSans-34"/>
     <use x="673.388672" xlink:href="#DejaVuSans-b0"/>
    </g>
   </g>
   <g id="text_8">
    <g id="patch_9">
     <path d="M 3.847166 38.277524 
L 5.619928 28.366699 
L 3.675169 28.018838 
L 1.902408 37.929663 
z
" style="fill:#ffffff;"/>
    </g>
    <!-- TNT 16.4° -->
    <g style="fill:#008000;" transform="translate(3.421561 38.181078)rotate(-79.858684)scale(0.02 -0.02)">
     <defs>
      <path d="M -19 4666 
L 3928 4666 
L 3928 4134 
L 2272 4134 
L 2272 0 
L 1638 0 
L 1638 4134 
L -19 4134 
L -19 4666 
z
" id="DejaVuSans-54" transform="scale(0.015625)"/>
      <path d="M 628 4666 
L 1478 4666 
L 3547 763 
L 3547 4666 
L 4159 4666 
L 4159 0 
L 3309 0 
L 1241 3903 
L 1241 0 
L 628 0 
L 628 4666 
z
" id="DejaVuSans-4e" transform="scale(0.015625)"/>
     </defs>
     <use xlink:href="#DejaVuSans-54"/>
     <use x="61.083984" xlink:href="#DejaVuSans-4e"/>
     <use x="135.888672" xlink:href="#DejaVuSans-54"/>
     <use x="196.972656" xlink:href="#DejaVuSans-20"/>
     <use x="228.759766" xlink:href="#DejaVuSans-31"/>
     <use x="292.382812" xlink:href="#DejaVuSans-36"/>
     <use x="356.005859" xlink:href="#DejaVuSans-2e"/>
     <use x="387.792969" xlink:href="#DejaVuSans-34"/>
     <use x="451.416016" xlink:href="#DejaVuSans-b0"/>
    </g>
   </g>
   <g id="text_9">
    <g id="patch_10">
     <path d="M 16.517801 19.689037 
L 17.679827 38.322526 
L 19.651622 38.199561 
L 18.489595 19.566072 
z
" style="fill:#ffffff;"/>
    </g>
    <!-- Upper Ledges 9.7° -->
    <g style="fill:#008000;" transform="translate(16.954138 19.681865)rotate(-273.568474)scale(0.02 -0.02)">
     <defs>
      <path d="M 556 4666 
L 1191 4666 
L 1191 1831 
Q 1191 1081 1462 751 
Q 1734 422 2344 422 
Q 2950 422 3222 751 
Q 3494 1081 3494 1831 
L 3494 4666 
L 4128 4666 
L 4128 1753 
Q 4128 841 3676 375 
Q 3225 -91 2344 -91 
Q 1459 -91 1007 375 
Q 556 841 556 1753 
L 556 4666 
z
" id="DejaVuSans-55" transform="scale(0.015625)"/>
      <path d="M 1159 525 
L 1159 -1331 
L 581 -1331 
L 581 3500 
L 1159 3500 
L 1159 2969 
Q 1341 3281 1617 3432 
Q 1894 3584 2278 3584 
Q 2916 3584 3314 3078 
Q 3713 2572 3713 1747 
Q 3713 922 3314 415 
Q 2916 -91 2278 -91 
Q 1894 -91 1617 61 
Q 1341 213 1159 525 
z
M 3116 1747 
Q 3116 2381 2855 2742 
Q 2594 3103 2138 3103 
Q 1681 3103 1420 2742 
Q 1159 2381 1159 1747 
Q 1159 1113 1420 752 
Q 1681 391 2138 391 
Q 2594 391 2855 752 
Q 3116 1113 3116 1747 
z
" id="DejaVuSans-70" transform="scale(0.015625)"/>
      <path d="M 3597 1894 
L 3597 1613 
L 953 1613 
Q 991 1019 1311 708 
Q 1631 397 2203 397 
Q 2534 397 2845 478 
Q 3156 559 3463 722 
L 3463 178 
Q 3153 47 2828 -22 
Q 2503 -91 2169 -91 
Q 1331 -91 842 396 
Q 353 884 353 1716 
Q 353 2575 817 3079 
Q 1281 3584 2069 3584 
Q 2775 3584 3186 3129 
Q 3597 2675 3597 1894 
z
M 3022 2063 
Q 3016 2534 2758 2815 
Q 2500 3097 2075 3097 
Q 1594 3097 1305 2825 
Q 1016 2553 972 2059 
L 3022 2063 
z
" id="DejaVuSans-65" transform="scale(0.015625)"/>
      <path d="M 2906 2969 
L 2906 4863 
L 3481 4863 
L 3481 0 
L 2906 0 
L 2906 525 
Q 2725 213 2448 61 
Q 2172 -91 1784 -91 
Q 1150 -91 751 415 
Q 353 922 353 1747 
Q 353 2572 751 3078 
Q 1150 3584 1784 3584 
Q 2172 3584 2448 3432 
Q 2725 3281 2906 2969 
z
M 947 1747 
Q 947 1113 1208 752 
Q 1469 391 1925 391 
Q 2381 391 2643 752 
Q 2906 1113 2906 1747 
Q 2906 2381 2643 2742 
Q 2381 3103 1925 3103 
Q 1469 3103 1208 2742 
Q 947 2381 947 1747 
z
" id="DejaVuSans-64" transform="scale(0.015625)"/>
      <path d="M 2906 1791 
Q 2906 2416 2648 2759 
Q 2391 3103 1925 3103 
Q 1463 3103 1205 2759 
Q 947 2416 947 1791 
Q 947 1169 1205 825 
Q 1463 481 1925 481 
Q 2391 481 2648 825 
Q 2906 1169 2906 1791 
z
M 3481 434 
Q 3481 -459 3084 -895 
Q 2688 -1331 1869 -1331 
Q 1566 -1331 1297 -1286 
Q 1028 -1241 775 -1147 
L 775 -588 
Q 1028 -725 1275 -790 
Q 1522 -856 1778 -856 
Q 2344 -856 2625 -561 
Q 2906 -266 2906 331 
L 2906 616 
Q 2728 306 2450 153 
Q 2172 0 1784 0 
Q 1141 0 747 490 
Q 353 981 353 1791 
Q 353 2603 747 3093 
Q 1141 3584 1784 3584 
Q 2172 3584 2450 3431 
Q 2728 3278 2906 2969 
L 2906 3500 
L 3481 3500 
L 3481 434 
z
" id="DejaVuSans-67" transform="scale(0.015625)"/>
      <path d="M 703 97 
L 703 672 
Q 941 559 1184 500 
Q 1428 441 1663 441 
Q 2288 441 2617 861 
Q 2947 1281 2994 2138 
Q 2813 1869 2534 1725 
Q 2256 1581 1919 1581 
Q 1219 1581 811 2004 
Q 403 2428 403 3163 
Q 403 3881 828 4315 
Q 1253 4750 1959 4750 
Q 2769 4750 3195 4129 
Q 3622 3509 3622 2328 
Q 3622 1225 3098 567 
Q 2575 -91 1691 -91 
Q 1453 -91 1209 -44 
Q 966 3 703 97 
z
M 1959 2075 
Q 2384 2075 2632 2365 
Q 2881 2656 2881 3163 
Q 2881 3666 2632 3958 
Q 2384 4250 1959 4250 
Q 1534 4250 1286 3958 
Q 1038 3666 1038 3163 
Q 1038 2656 1286 2365 
Q 1534 2075 1959 2075 
z
" id="DejaVuSans-39" transform="scale(0.015625)"/>
      <path d="M 525 4666 
L 3525 4666 
L 3525 4397 
L 1831 0 
L 1172 0 
L 2766 4134 
L 525 4134 
L 525 4666 
z
" id="DejaVuSans-37" transform="scale(0.015625)"/>
     </defs>
     <use xlink:href="#DejaVuSans-55"/>
     <use x="73.193359" xlink:href="#DejaVuSans-70"/>
     <use x="136.669922" xlink:href="#DejaVuSans-70"/>
     <use x="200.146484" xlink:href="#DejaVuSans-65"/>
     <use x="261.669922" xlink:href="#DejaVuSans-72"/>
     <use x="302.783203" xlink:href="#DejaVuSans-20"/>
     <use x="334.570312" xlink:href="#DejaVuSans-4c"/>
     <use x="388.533203" xlink:href="#DejaVuSans-65"/>
     <use x="450.056641" xlink:href="#DejaVuSans-64"/>
     <use x="513.533203" xlink:href="#DejaVuSans-67"/>
     <use x="577.009766" xlink:href="#DejaVuSans-65"/>
     <use x="638.533203" xlink:href="#DejaVuSans-73"/>
     <use x="690.632812" xlink:href="#DejaVuSans-20"/>
     <use x="722.419922" xlink:href="#DejaVuSans-39"/>
     <use x="786.042969" xlink:href="#DejaVuSans-2e"/>
     <use x="817.830078" xlink:href="#DejaVuSans-37"/>
     <use x="881.453125" xlink:href="#DejaVuSans-b0"/>
    </g>
   </g>
   <g id="text_10">
    <g id="patch_11">
     <path d="M 13.067493 56.145084 
L 13.936879 37.227238 
L 11.963337 37.136542 
L 11.09395 56.054388 
z
" style="fill:#ffffff;"/>
    </g>
    <!-- Yellow Jacket 12.7° -->
    <g style="fill:#008000;" transform="translate(12.632933 56.105092)rotate(-87.368773)scale(0.02 -0.02)">
     <defs>
      <path d="M -13 4666 
L 666 4666 
L 1959 2747 
L 3244 4666 
L 3922 4666 
L 2272 2222 
L 2272 0 
L 1638 0 
L 1638 2222 
L -13 4666 
z
" id="DejaVuSans-59" transform="scale(0.015625)"/>
      <path d="M 269 3500 
L 844 3500 
L 1563 769 
L 2278 3500 
L 2956 3500 
L 3675 769 
L 4391 3500 
L 4966 3500 
L 4050 0 
L 3372 0 
L 2619 2869 
L 1863 0 
L 1184 0 
L 269 3500 
z
" id="DejaVuSans-77" transform="scale(0.015625)"/>
      <path d="M 628 4666 
L 1259 4666 
L 1259 325 
Q 1259 -519 939 -900 
Q 619 -1281 -91 -1281 
L -331 -1281 
L -331 -750 
L -134 -750 
Q 284 -750 456 -515 
Q 628 -281 628 325 
L 628 4666 
z
" id="DejaVuSans-4a" transform="scale(0.015625)"/>
      <path d="M 1228 531 
L 3431 531 
L 3431 0 
L 469 0 
L 469 531 
Q 828 903 1448 1529 
Q 2069 2156 2228 2338 
Q 2531 2678 2651 2914 
Q 2772 3150 2772 3378 
Q 2772 3750 2511 3984 
Q 2250 4219 1831 4219 
Q 1534 4219 1204 4116 
Q 875 4013 500 3803 
L 500 4441 
Q 881 4594 1212 4672 
Q 1544 4750 1819 4750 
Q 2544 4750 2975 4387 
Q 3406 4025 3406 3419 
Q 3406 3131 3298 2873 
Q 3191 2616 2906 2266 
Q 2828 2175 2409 1742 
Q 1991 1309 1228 531 
z
" id="DejaVuSans-32" transform="scale(0.015625)"/>
     </defs>
     <use xlink:href="#DejaVuSans-59"/>
     <use x="47.833984" xlink:href="#DejaVuSans-65"/>
     <use x="109.357422" xlink:href="#DejaVuSans-6c"/>
     <use x="137.140625" xlink:href="#DejaVuSans-6c"/>
     <use x="164.923828" xlink:href="#DejaVuSans-6f"/>
     <use x="226.105469" xlink:href="#DejaVuSans-77"/>
     <use x="307.892578" xlink:href="#DejaVuSans-20"/>
     <use x="339.679688" xlink:href="#DejaVuSans-4a"/>
     <use x="369.171875" xlink:href="#DejaVuSans-61"/>
     <use x="430.451172" xlink:href="#DejaVuSans-63"/>
     <use x="485.431641" xlink:href="#DejaVuSans-6b"/>
     <use x="539.716797" xlink:href="#DejaVuSans-65"/>
     <use x="601.240234" xlink:href="#DejaVuSans-74"/>
     <use x="640.449219" xlink:href="#DejaVuSans-20"/>
     <use x="672.236328" xlink:href="#DejaVuSans-31"/>
     <use x="735.859375" xlink:href="#DejaVuSans-32"/>
     <use x="799.482422" xlink:href="#DejaVuSans-2e"/>
     <use x="831.269531" xlink:href="#DejaVuSans-37"/>
     <use x="894.892578" xlink:href="#DejaVuSans-b0"/>
    </g>
   </g>
   <g id="text_11">
    <!-- Yawgoo Valley -->
    <g transform="translate(-0.18946 5.407984)scale(0.05 -0.05)">
     <defs>
      <path d="M 1831 0 
L 50 4666 
L 709 4666 
L 2188 738 
L 3669 4666 
L 4325 4666 
L 2547 0 
L 1831 0 
z
" id="DejaVuSans-56" transform="scale(0.015625)"/>
     </defs>
     <use xlink:href="#DejaVuSans-59"/>
     <use x="47.333984" xlink:href="#DejaVuSans-61"/>
     <use x="108.613281" xlink:href="#DejaVuSans-77"/>
     <use x="190.400391" xlink:href="#DejaVuSans-67"/>
     <use x="253.876953" xlink:href="#DejaVuSans-6f"/>
     <use x="315.058594" xlink:href="#DejaVuSans-6f"/>
     <use x="376.240234" xlink:href="#DejaVuSans-20"/>
     <use x="408.027344" xlink:href="#DejaVuSans-56"/>
     <use x="468.685547" xlink:href="#DejaVuSans-61"/>
     <use x="529.964844" xlink:href="#DejaVuSans-6c"/>
     <use x="557.748047" xlink:href="#DejaVuSans-6c"/>
     <use x="585.53125" xlink:href="#DejaVuSans-65"/>
     <use x="647.054688" xlink:href="#DejaVuSans-79"/>
    </g>
   </g>
  </g>
  <g id="text_12">
   <!-- Sources: USGS and OpenStreetMaps -->
   <g transform="translate(-2.363543 79.969897)scale(0.021739 -0.021739)">
    <defs>
     <path d="M 3425 4513 
L 3425 3897 
Q 3066 4069 2747 4153 
Q 2428 4238 2131 4238 
Q 1616 4238 1336 4038 
Q 1056 3838 1056 3469 
Q 1056 3159 1242 3001 
Q 1428 2844 1947 2747 
L 2328 2669 
Q 3034 2534 3370 2195 
Q 3706 1856 3706 1288 
Q 3706 609 3251 259 
Q 2797 -91 1919 -91 
Q 1588 -91 1214 -16 
Q 841 59 441 206 
L 441 856 
Q 825 641 1194 531 
Q 1563 422 1919 422 
Q 2459 422 2753 634 
Q 3047 847 3047 1241 
Q 3047 1584 2836 1778 
Q 2625 1972 2144 2069 
L 1759 2144 
Q 1053 2284 737 2584 
Q 422 2884 422 3419 
Q 422 4038 858 4394 
Q 1294 4750 2059 4750 
Q 2388 4750 2728 4690 
Q 3069 4631 3425 4513 
z
" id="DejaVuSans-53" transform="scale(0.015625)"/>
     <path d="M 750 794 
L 1409 794 
L 1409 0 
L 750 0 
L 750 794 
z
M 750 3309 
L 1409 3309 
L 1409 2516 
L 750 2516 
L 750 3309 
z
" id="DejaVuSans-3a" transform="scale(0.015625)"/>
    </defs>
    <use xlink:href="#DejaVuSans-53"/>
    <use x="63.476562" xlink:href="#DejaVuSans-6f"/>
    <use x="124.658203" xlink:href="#DejaVuSans-75"/>
    <use x="188.037109" xlink:href="#DejaVuSans-72"/>
    <use x="226.900391" xlink:href="#DejaVuSans-63"/>
    <use x="281.880859" xlink:href="#DejaVuSans-65"/>
    <use x="343.404297" xlink:href="#DejaVuSans-73"/>
    <use x="395.503906" xlink:href="#DejaVuSans-3a"/>
    <use x="429.195312" xlink:href="#DejaVuSans-20"/>
    <use x="460.982422" xlink:href="#DejaVuSans-55"/>
    <use x="534.175781" xlink:href="#DejaVuSans-53"/>
    <use x="597.652344" xlink:href="#DejaVuSans-47"/>
    <use x="675.142578" xlink:href="#DejaVuSans-53"/>
    <use x="738.619141" xlink:href="#DejaVuSans-20"/>
    <use x="770.40625" xlink:href="#DejaVuSans-61"/>
    <use x="831.685547" xlink:href="#DejaVuSans-6e"/>
    <use x="895.064453" xlink:href="#DejaVuSans-64"/>
    <use x="958.541016" xlink:href="#DejaVuSans-20"/>
    <use x="990.328125" xlink:href="#DejaVuSans-4f"/>
    <use x="1069.039062" xlink:href="#DejaVuSans-70"/>
    <use x="1132.515625" xlink:href="#DejaVuSans-65"/>
    <use x="1194.039062" xlink:href="#DejaVuSans-6e"/>
    <use x="1257.417969" xlink:href="#DejaVuSans-53"/>
    <use x="1320.894531" xlink:href="#DejaVuSans-74"/>
    <use x="1360.103516" xlink:href="#DejaVuSans-72"/>
    <use x="1398.966797" xlink:href="#DejaVuSans-65"/>
    <use x="1460.490234" xlink:href="#DejaVuSans-65"/>
    <use x="1522.013672" xlink:href="#DejaVuSans-74"/>
    <use x="1561.222656" xlink:href="#DejaVuSans-4d"/>
    <use x="1647.501953" xlink:href="#DejaVuSans-61"/>
    <use x="1708.78125" xlink:href="#DejaVuSans-70"/>
    <use x="1772.257812" xlink:href="#DejaVuSans-73"/>
   </g>
  </g>
 </g>
 <defs>
  <clipPath id="p33d518a465">
   <rect height="64.606035" width="34.93358" x="0" y="7.907984"/>
  </clipPath>
 </defs>
</svg>
